%TF.GenerationSoftware,KiCad,Pcbnew,8.0.4*%
%TF.CreationDate,2024-09-24T16:35:55-04:00*%
%TF.ProjectId,cablight,6361626c-6967-4687-942e-6b696361645f,rev?*%
%TF.SameCoordinates,Original*%
%TF.FileFunction,Legend,Top*%
%TF.FilePolarity,Positive*%
%FSLAX46Y46*%
G04 Gerber Fmt 4.6, Leading zero omitted, Abs format (unit mm)*
G04 Created by KiCad (PCBNEW 8.0.4) date 2024-09-24 16:35:55*
%MOMM*%
%LPD*%
G01*
G04 APERTURE LIST*
%ADD10C,0.150000*%
%ADD11C,0.200000*%
%ADD12C,0.100000*%
%ADD13C,0.050000*%
%ADD14C,0.120000*%
%TA.AperFunction,Profile*%
%ADD15C,0.150000*%
%TD*%
G04 APERTURE END LIST*
D10*
X112586779Y-94899931D02*
X112586779Y-95709454D01*
X112586779Y-95709454D02*
X112634398Y-95804692D01*
X112634398Y-95804692D02*
X112682017Y-95852312D01*
X112682017Y-95852312D02*
X112777255Y-95899931D01*
X112777255Y-95899931D02*
X112967731Y-95899931D01*
X112967731Y-95899931D02*
X113062969Y-95852312D01*
X113062969Y-95852312D02*
X113110588Y-95804692D01*
X113110588Y-95804692D02*
X113158207Y-95709454D01*
X113158207Y-95709454D02*
X113158207Y-94899931D01*
X113777255Y-95899931D02*
X113682017Y-95852312D01*
X113682017Y-95852312D02*
X113634398Y-95757073D01*
X113634398Y-95757073D02*
X113634398Y-94899931D01*
X114015351Y-95233264D02*
X114396303Y-95233264D01*
X114158208Y-94899931D02*
X114158208Y-95757073D01*
X114158208Y-95757073D02*
X114205827Y-95852312D01*
X114205827Y-95852312D02*
X114301065Y-95899931D01*
X114301065Y-95899931D02*
X114396303Y-95899931D01*
X114729637Y-95899931D02*
X114729637Y-95233264D01*
X114729637Y-95423740D02*
X114777256Y-95328502D01*
X114777256Y-95328502D02*
X114824875Y-95280883D01*
X114824875Y-95280883D02*
X114920113Y-95233264D01*
X114920113Y-95233264D02*
X115015351Y-95233264D01*
X115777256Y-95899931D02*
X115777256Y-95376121D01*
X115777256Y-95376121D02*
X115729637Y-95280883D01*
X115729637Y-95280883D02*
X115634399Y-95233264D01*
X115634399Y-95233264D02*
X115443923Y-95233264D01*
X115443923Y-95233264D02*
X115348685Y-95280883D01*
X115777256Y-95852312D02*
X115682018Y-95899931D01*
X115682018Y-95899931D02*
X115443923Y-95899931D01*
X115443923Y-95899931D02*
X115348685Y-95852312D01*
X115348685Y-95852312D02*
X115301066Y-95757073D01*
X115301066Y-95757073D02*
X115301066Y-95661835D01*
X115301066Y-95661835D02*
X115348685Y-95566597D01*
X115348685Y-95566597D02*
X115443923Y-95518978D01*
X115443923Y-95518978D02*
X115682018Y-95518978D01*
X115682018Y-95518978D02*
X115777256Y-95471359D01*
X116205828Y-95852312D02*
X116301066Y-95899931D01*
X116301066Y-95899931D02*
X116491542Y-95899931D01*
X116491542Y-95899931D02*
X116586780Y-95852312D01*
X116586780Y-95852312D02*
X116634399Y-95757073D01*
X116634399Y-95757073D02*
X116634399Y-95709454D01*
X116634399Y-95709454D02*
X116586780Y-95614216D01*
X116586780Y-95614216D02*
X116491542Y-95566597D01*
X116491542Y-95566597D02*
X116348685Y-95566597D01*
X116348685Y-95566597D02*
X116253447Y-95518978D01*
X116253447Y-95518978D02*
X116205828Y-95423740D01*
X116205828Y-95423740D02*
X116205828Y-95376121D01*
X116205828Y-95376121D02*
X116253447Y-95280883D01*
X116253447Y-95280883D02*
X116348685Y-95233264D01*
X116348685Y-95233264D02*
X116491542Y-95233264D01*
X116491542Y-95233264D02*
X116586780Y-95280883D01*
X117205828Y-95899931D02*
X117110590Y-95852312D01*
X117110590Y-95852312D02*
X117062971Y-95804692D01*
X117062971Y-95804692D02*
X117015352Y-95709454D01*
X117015352Y-95709454D02*
X117015352Y-95423740D01*
X117015352Y-95423740D02*
X117062971Y-95328502D01*
X117062971Y-95328502D02*
X117110590Y-95280883D01*
X117110590Y-95280883D02*
X117205828Y-95233264D01*
X117205828Y-95233264D02*
X117348685Y-95233264D01*
X117348685Y-95233264D02*
X117443923Y-95280883D01*
X117443923Y-95280883D02*
X117491542Y-95328502D01*
X117491542Y-95328502D02*
X117539161Y-95423740D01*
X117539161Y-95423740D02*
X117539161Y-95709454D01*
X117539161Y-95709454D02*
X117491542Y-95804692D01*
X117491542Y-95804692D02*
X117443923Y-95852312D01*
X117443923Y-95852312D02*
X117348685Y-95899931D01*
X117348685Y-95899931D02*
X117205828Y-95899931D01*
X117967733Y-95233264D02*
X117967733Y-95899931D01*
X117967733Y-95328502D02*
X118015352Y-95280883D01*
X118015352Y-95280883D02*
X118110590Y-95233264D01*
X118110590Y-95233264D02*
X118253447Y-95233264D01*
X118253447Y-95233264D02*
X118348685Y-95280883D01*
X118348685Y-95280883D02*
X118396304Y-95376121D01*
X118396304Y-95376121D02*
X118396304Y-95899931D01*
X118872495Y-95899931D02*
X118872495Y-95233264D01*
X118872495Y-94899931D02*
X118824876Y-94947550D01*
X118824876Y-94947550D02*
X118872495Y-94995169D01*
X118872495Y-94995169D02*
X118920114Y-94947550D01*
X118920114Y-94947550D02*
X118872495Y-94899931D01*
X118872495Y-94899931D02*
X118872495Y-94995169D01*
X119777256Y-95852312D02*
X119682018Y-95899931D01*
X119682018Y-95899931D02*
X119491542Y-95899931D01*
X119491542Y-95899931D02*
X119396304Y-95852312D01*
X119396304Y-95852312D02*
X119348685Y-95804692D01*
X119348685Y-95804692D02*
X119301066Y-95709454D01*
X119301066Y-95709454D02*
X119301066Y-95423740D01*
X119301066Y-95423740D02*
X119348685Y-95328502D01*
X119348685Y-95328502D02*
X119396304Y-95280883D01*
X119396304Y-95280883D02*
X119491542Y-95233264D01*
X119491542Y-95233264D02*
X119682018Y-95233264D01*
X119682018Y-95233264D02*
X119777256Y-95280883D01*
X121443923Y-95899931D02*
X120967733Y-95899931D01*
X120967733Y-95899931D02*
X120967733Y-94899931D01*
X121777257Y-95899931D02*
X121777257Y-95233264D01*
X121777257Y-94899931D02*
X121729638Y-94947550D01*
X121729638Y-94947550D02*
X121777257Y-94995169D01*
X121777257Y-94995169D02*
X121824876Y-94947550D01*
X121824876Y-94947550D02*
X121777257Y-94899931D01*
X121777257Y-94899931D02*
X121777257Y-94995169D01*
X122682018Y-95233264D02*
X122682018Y-96042788D01*
X122682018Y-96042788D02*
X122634399Y-96138026D01*
X122634399Y-96138026D02*
X122586780Y-96185645D01*
X122586780Y-96185645D02*
X122491542Y-96233264D01*
X122491542Y-96233264D02*
X122348685Y-96233264D01*
X122348685Y-96233264D02*
X122253447Y-96185645D01*
X122682018Y-95852312D02*
X122586780Y-95899931D01*
X122586780Y-95899931D02*
X122396304Y-95899931D01*
X122396304Y-95899931D02*
X122301066Y-95852312D01*
X122301066Y-95852312D02*
X122253447Y-95804692D01*
X122253447Y-95804692D02*
X122205828Y-95709454D01*
X122205828Y-95709454D02*
X122205828Y-95423740D01*
X122205828Y-95423740D02*
X122253447Y-95328502D01*
X122253447Y-95328502D02*
X122301066Y-95280883D01*
X122301066Y-95280883D02*
X122396304Y-95233264D01*
X122396304Y-95233264D02*
X122586780Y-95233264D01*
X122586780Y-95233264D02*
X122682018Y-95280883D01*
X123158209Y-95899931D02*
X123158209Y-94899931D01*
X123586780Y-95899931D02*
X123586780Y-95376121D01*
X123586780Y-95376121D02*
X123539161Y-95280883D01*
X123539161Y-95280883D02*
X123443923Y-95233264D01*
X123443923Y-95233264D02*
X123301066Y-95233264D01*
X123301066Y-95233264D02*
X123205828Y-95280883D01*
X123205828Y-95280883D02*
X123158209Y-95328502D01*
X123920114Y-95233264D02*
X124301066Y-95233264D01*
X124062971Y-94899931D02*
X124062971Y-95757073D01*
X124062971Y-95757073D02*
X124110590Y-95852312D01*
X124110590Y-95852312D02*
X124205828Y-95899931D01*
X124205828Y-95899931D02*
X124301066Y-95899931D01*
X124634400Y-95899931D02*
X124634400Y-95233264D01*
X124634400Y-94899931D02*
X124586781Y-94947550D01*
X124586781Y-94947550D02*
X124634400Y-94995169D01*
X124634400Y-94995169D02*
X124682019Y-94947550D01*
X124682019Y-94947550D02*
X124634400Y-94899931D01*
X124634400Y-94899931D02*
X124634400Y-94995169D01*
X125110590Y-95233264D02*
X125110590Y-95899931D01*
X125110590Y-95328502D02*
X125158209Y-95280883D01*
X125158209Y-95280883D02*
X125253447Y-95233264D01*
X125253447Y-95233264D02*
X125396304Y-95233264D01*
X125396304Y-95233264D02*
X125491542Y-95280883D01*
X125491542Y-95280883D02*
X125539161Y-95376121D01*
X125539161Y-95376121D02*
X125539161Y-95899931D01*
X126443923Y-95233264D02*
X126443923Y-96042788D01*
X126443923Y-96042788D02*
X126396304Y-96138026D01*
X126396304Y-96138026D02*
X126348685Y-96185645D01*
X126348685Y-96185645D02*
X126253447Y-96233264D01*
X126253447Y-96233264D02*
X126110590Y-96233264D01*
X126110590Y-96233264D02*
X126015352Y-96185645D01*
X126443923Y-95852312D02*
X126348685Y-95899931D01*
X126348685Y-95899931D02*
X126158209Y-95899931D01*
X126158209Y-95899931D02*
X126062971Y-95852312D01*
X126062971Y-95852312D02*
X126015352Y-95804692D01*
X126015352Y-95804692D02*
X125967733Y-95709454D01*
X125967733Y-95709454D02*
X125967733Y-95423740D01*
X125967733Y-95423740D02*
X126015352Y-95328502D01*
X126015352Y-95328502D02*
X126062971Y-95280883D01*
X126062971Y-95280883D02*
X126158209Y-95233264D01*
X126158209Y-95233264D02*
X126348685Y-95233264D01*
X126348685Y-95233264D02*
X126443923Y-95280883D01*
X128253447Y-95804692D02*
X128205828Y-95852312D01*
X128205828Y-95852312D02*
X128062971Y-95899931D01*
X128062971Y-95899931D02*
X127967733Y-95899931D01*
X127967733Y-95899931D02*
X127824876Y-95852312D01*
X127824876Y-95852312D02*
X127729638Y-95757073D01*
X127729638Y-95757073D02*
X127682019Y-95661835D01*
X127682019Y-95661835D02*
X127634400Y-95471359D01*
X127634400Y-95471359D02*
X127634400Y-95328502D01*
X127634400Y-95328502D02*
X127682019Y-95138026D01*
X127682019Y-95138026D02*
X127729638Y-95042788D01*
X127729638Y-95042788D02*
X127824876Y-94947550D01*
X127824876Y-94947550D02*
X127967733Y-94899931D01*
X127967733Y-94899931D02*
X128062971Y-94899931D01*
X128062971Y-94899931D02*
X128205828Y-94947550D01*
X128205828Y-94947550D02*
X128253447Y-94995169D01*
X128824876Y-95899931D02*
X128729638Y-95852312D01*
X128729638Y-95852312D02*
X128682019Y-95804692D01*
X128682019Y-95804692D02*
X128634400Y-95709454D01*
X128634400Y-95709454D02*
X128634400Y-95423740D01*
X128634400Y-95423740D02*
X128682019Y-95328502D01*
X128682019Y-95328502D02*
X128729638Y-95280883D01*
X128729638Y-95280883D02*
X128824876Y-95233264D01*
X128824876Y-95233264D02*
X128967733Y-95233264D01*
X128967733Y-95233264D02*
X129062971Y-95280883D01*
X129062971Y-95280883D02*
X129110590Y-95328502D01*
X129110590Y-95328502D02*
X129158209Y-95423740D01*
X129158209Y-95423740D02*
X129158209Y-95709454D01*
X129158209Y-95709454D02*
X129110590Y-95804692D01*
X129110590Y-95804692D02*
X129062971Y-95852312D01*
X129062971Y-95852312D02*
X128967733Y-95899931D01*
X128967733Y-95899931D02*
X128824876Y-95899931D01*
X129586781Y-95233264D02*
X129586781Y-95899931D01*
X129586781Y-95328502D02*
X129634400Y-95280883D01*
X129634400Y-95280883D02*
X129729638Y-95233264D01*
X129729638Y-95233264D02*
X129872495Y-95233264D01*
X129872495Y-95233264D02*
X129967733Y-95280883D01*
X129967733Y-95280883D02*
X130015352Y-95376121D01*
X130015352Y-95376121D02*
X130015352Y-95899931D01*
X130348686Y-95233264D02*
X130729638Y-95233264D01*
X130491543Y-94899931D02*
X130491543Y-95757073D01*
X130491543Y-95757073D02*
X130539162Y-95852312D01*
X130539162Y-95852312D02*
X130634400Y-95899931D01*
X130634400Y-95899931D02*
X130729638Y-95899931D01*
X131062972Y-95899931D02*
X131062972Y-95233264D01*
X131062972Y-95423740D02*
X131110591Y-95328502D01*
X131110591Y-95328502D02*
X131158210Y-95280883D01*
X131158210Y-95280883D02*
X131253448Y-95233264D01*
X131253448Y-95233264D02*
X131348686Y-95233264D01*
X131824877Y-95899931D02*
X131729639Y-95852312D01*
X131729639Y-95852312D02*
X131682020Y-95804692D01*
X131682020Y-95804692D02*
X131634401Y-95709454D01*
X131634401Y-95709454D02*
X131634401Y-95423740D01*
X131634401Y-95423740D02*
X131682020Y-95328502D01*
X131682020Y-95328502D02*
X131729639Y-95280883D01*
X131729639Y-95280883D02*
X131824877Y-95233264D01*
X131824877Y-95233264D02*
X131967734Y-95233264D01*
X131967734Y-95233264D02*
X132062972Y-95280883D01*
X132062972Y-95280883D02*
X132110591Y-95328502D01*
X132110591Y-95328502D02*
X132158210Y-95423740D01*
X132158210Y-95423740D02*
X132158210Y-95709454D01*
X132158210Y-95709454D02*
X132110591Y-95804692D01*
X132110591Y-95804692D02*
X132062972Y-95852312D01*
X132062972Y-95852312D02*
X131967734Y-95899931D01*
X131967734Y-95899931D02*
X131824877Y-95899931D01*
X132729639Y-95899931D02*
X132634401Y-95852312D01*
X132634401Y-95852312D02*
X132586782Y-95757073D01*
X132586782Y-95757073D02*
X132586782Y-94899931D01*
X133491544Y-95852312D02*
X133396306Y-95899931D01*
X133396306Y-95899931D02*
X133205830Y-95899931D01*
X133205830Y-95899931D02*
X133110592Y-95852312D01*
X133110592Y-95852312D02*
X133062973Y-95757073D01*
X133062973Y-95757073D02*
X133062973Y-95376121D01*
X133062973Y-95376121D02*
X133110592Y-95280883D01*
X133110592Y-95280883D02*
X133205830Y-95233264D01*
X133205830Y-95233264D02*
X133396306Y-95233264D01*
X133396306Y-95233264D02*
X133491544Y-95280883D01*
X133491544Y-95280883D02*
X133539163Y-95376121D01*
X133539163Y-95376121D02*
X133539163Y-95471359D01*
X133539163Y-95471359D02*
X133062973Y-95566597D01*
X133967735Y-95899931D02*
X133967735Y-95233264D01*
X133967735Y-95423740D02*
X134015354Y-95328502D01*
X134015354Y-95328502D02*
X134062973Y-95280883D01*
X134062973Y-95280883D02*
X134158211Y-95233264D01*
X134158211Y-95233264D02*
X134253449Y-95233264D01*
X112586779Y-97509875D02*
X112586779Y-96509875D01*
X112586779Y-96509875D02*
X112824874Y-96509875D01*
X112824874Y-96509875D02*
X112967731Y-96557494D01*
X112967731Y-96557494D02*
X113062969Y-96652732D01*
X113062969Y-96652732D02*
X113110588Y-96747970D01*
X113110588Y-96747970D02*
X113158207Y-96938446D01*
X113158207Y-96938446D02*
X113158207Y-97081303D01*
X113158207Y-97081303D02*
X113110588Y-97271779D01*
X113110588Y-97271779D02*
X113062969Y-97367017D01*
X113062969Y-97367017D02*
X112967731Y-97462256D01*
X112967731Y-97462256D02*
X112824874Y-97509875D01*
X112824874Y-97509875D02*
X112586779Y-97509875D01*
X113967731Y-97462256D02*
X113872493Y-97509875D01*
X113872493Y-97509875D02*
X113682017Y-97509875D01*
X113682017Y-97509875D02*
X113586779Y-97462256D01*
X113586779Y-97462256D02*
X113539160Y-97367017D01*
X113539160Y-97367017D02*
X113539160Y-96986065D01*
X113539160Y-96986065D02*
X113586779Y-96890827D01*
X113586779Y-96890827D02*
X113682017Y-96843208D01*
X113682017Y-96843208D02*
X113872493Y-96843208D01*
X113872493Y-96843208D02*
X113967731Y-96890827D01*
X113967731Y-96890827D02*
X114015350Y-96986065D01*
X114015350Y-96986065D02*
X114015350Y-97081303D01*
X114015350Y-97081303D02*
X113539160Y-97176541D01*
X114396303Y-97462256D02*
X114491541Y-97509875D01*
X114491541Y-97509875D02*
X114682017Y-97509875D01*
X114682017Y-97509875D02*
X114777255Y-97462256D01*
X114777255Y-97462256D02*
X114824874Y-97367017D01*
X114824874Y-97367017D02*
X114824874Y-97319398D01*
X114824874Y-97319398D02*
X114777255Y-97224160D01*
X114777255Y-97224160D02*
X114682017Y-97176541D01*
X114682017Y-97176541D02*
X114539160Y-97176541D01*
X114539160Y-97176541D02*
X114443922Y-97128922D01*
X114443922Y-97128922D02*
X114396303Y-97033684D01*
X114396303Y-97033684D02*
X114396303Y-96986065D01*
X114396303Y-96986065D02*
X114443922Y-96890827D01*
X114443922Y-96890827D02*
X114539160Y-96843208D01*
X114539160Y-96843208D02*
X114682017Y-96843208D01*
X114682017Y-96843208D02*
X114777255Y-96890827D01*
X115253446Y-97509875D02*
X115253446Y-96843208D01*
X115253446Y-96509875D02*
X115205827Y-96557494D01*
X115205827Y-96557494D02*
X115253446Y-96605113D01*
X115253446Y-96605113D02*
X115301065Y-96557494D01*
X115301065Y-96557494D02*
X115253446Y-96509875D01*
X115253446Y-96509875D02*
X115253446Y-96605113D01*
X116158207Y-96843208D02*
X116158207Y-97652732D01*
X116158207Y-97652732D02*
X116110588Y-97747970D01*
X116110588Y-97747970D02*
X116062969Y-97795589D01*
X116062969Y-97795589D02*
X115967731Y-97843208D01*
X115967731Y-97843208D02*
X115824874Y-97843208D01*
X115824874Y-97843208D02*
X115729636Y-97795589D01*
X116158207Y-97462256D02*
X116062969Y-97509875D01*
X116062969Y-97509875D02*
X115872493Y-97509875D01*
X115872493Y-97509875D02*
X115777255Y-97462256D01*
X115777255Y-97462256D02*
X115729636Y-97414636D01*
X115729636Y-97414636D02*
X115682017Y-97319398D01*
X115682017Y-97319398D02*
X115682017Y-97033684D01*
X115682017Y-97033684D02*
X115729636Y-96938446D01*
X115729636Y-96938446D02*
X115777255Y-96890827D01*
X115777255Y-96890827D02*
X115872493Y-96843208D01*
X115872493Y-96843208D02*
X116062969Y-96843208D01*
X116062969Y-96843208D02*
X116158207Y-96890827D01*
X116634398Y-96843208D02*
X116634398Y-97509875D01*
X116634398Y-96938446D02*
X116682017Y-96890827D01*
X116682017Y-96890827D02*
X116777255Y-96843208D01*
X116777255Y-96843208D02*
X116920112Y-96843208D01*
X116920112Y-96843208D02*
X117015350Y-96890827D01*
X117015350Y-96890827D02*
X117062969Y-96986065D01*
X117062969Y-96986065D02*
X117062969Y-97509875D01*
X117920112Y-97462256D02*
X117824874Y-97509875D01*
X117824874Y-97509875D02*
X117634398Y-97509875D01*
X117634398Y-97509875D02*
X117539160Y-97462256D01*
X117539160Y-97462256D02*
X117491541Y-97367017D01*
X117491541Y-97367017D02*
X117491541Y-96986065D01*
X117491541Y-96986065D02*
X117539160Y-96890827D01*
X117539160Y-96890827D02*
X117634398Y-96843208D01*
X117634398Y-96843208D02*
X117824874Y-96843208D01*
X117824874Y-96843208D02*
X117920112Y-96890827D01*
X117920112Y-96890827D02*
X117967731Y-96986065D01*
X117967731Y-96986065D02*
X117967731Y-97081303D01*
X117967731Y-97081303D02*
X117491541Y-97176541D01*
X118824874Y-97509875D02*
X118824874Y-96509875D01*
X118824874Y-97462256D02*
X118729636Y-97509875D01*
X118729636Y-97509875D02*
X118539160Y-97509875D01*
X118539160Y-97509875D02*
X118443922Y-97462256D01*
X118443922Y-97462256D02*
X118396303Y-97414636D01*
X118396303Y-97414636D02*
X118348684Y-97319398D01*
X118348684Y-97319398D02*
X118348684Y-97033684D01*
X118348684Y-97033684D02*
X118396303Y-96938446D01*
X118396303Y-96938446D02*
X118443922Y-96890827D01*
X118443922Y-96890827D02*
X118539160Y-96843208D01*
X118539160Y-96843208D02*
X118729636Y-96843208D01*
X118729636Y-96843208D02*
X118824874Y-96890827D01*
X120062970Y-97509875D02*
X120062970Y-96509875D01*
X120062970Y-96890827D02*
X120158208Y-96843208D01*
X120158208Y-96843208D02*
X120348684Y-96843208D01*
X120348684Y-96843208D02*
X120443922Y-96890827D01*
X120443922Y-96890827D02*
X120491541Y-96938446D01*
X120491541Y-96938446D02*
X120539160Y-97033684D01*
X120539160Y-97033684D02*
X120539160Y-97319398D01*
X120539160Y-97319398D02*
X120491541Y-97414636D01*
X120491541Y-97414636D02*
X120443922Y-97462256D01*
X120443922Y-97462256D02*
X120348684Y-97509875D01*
X120348684Y-97509875D02*
X120158208Y-97509875D01*
X120158208Y-97509875D02*
X120062970Y-97462256D01*
X120872494Y-96843208D02*
X121110589Y-97509875D01*
X121348684Y-96843208D02*
X121110589Y-97509875D01*
X121110589Y-97509875D02*
X121015351Y-97747970D01*
X121015351Y-97747970D02*
X120967732Y-97795589D01*
X120967732Y-97795589D02*
X120872494Y-97843208D01*
X123015351Y-96557494D02*
X122920113Y-96509875D01*
X122920113Y-96509875D02*
X122777256Y-96509875D01*
X122777256Y-96509875D02*
X122634399Y-96557494D01*
X122634399Y-96557494D02*
X122539161Y-96652732D01*
X122539161Y-96652732D02*
X122491542Y-96747970D01*
X122491542Y-96747970D02*
X122443923Y-96938446D01*
X122443923Y-96938446D02*
X122443923Y-97081303D01*
X122443923Y-97081303D02*
X122491542Y-97271779D01*
X122491542Y-97271779D02*
X122539161Y-97367017D01*
X122539161Y-97367017D02*
X122634399Y-97462256D01*
X122634399Y-97462256D02*
X122777256Y-97509875D01*
X122777256Y-97509875D02*
X122872494Y-97509875D01*
X122872494Y-97509875D02*
X123015351Y-97462256D01*
X123015351Y-97462256D02*
X123062970Y-97414636D01*
X123062970Y-97414636D02*
X123062970Y-97081303D01*
X123062970Y-97081303D02*
X122872494Y-97081303D01*
X123872494Y-97462256D02*
X123777256Y-97509875D01*
X123777256Y-97509875D02*
X123586780Y-97509875D01*
X123586780Y-97509875D02*
X123491542Y-97462256D01*
X123491542Y-97462256D02*
X123443923Y-97367017D01*
X123443923Y-97367017D02*
X123443923Y-96986065D01*
X123443923Y-96986065D02*
X123491542Y-96890827D01*
X123491542Y-96890827D02*
X123586780Y-96843208D01*
X123586780Y-96843208D02*
X123777256Y-96843208D01*
X123777256Y-96843208D02*
X123872494Y-96890827D01*
X123872494Y-96890827D02*
X123920113Y-96986065D01*
X123920113Y-96986065D02*
X123920113Y-97081303D01*
X123920113Y-97081303D02*
X123443923Y-97176541D01*
X124491542Y-97509875D02*
X124396304Y-97462256D01*
X124396304Y-97462256D02*
X124348685Y-97414636D01*
X124348685Y-97414636D02*
X124301066Y-97319398D01*
X124301066Y-97319398D02*
X124301066Y-97033684D01*
X124301066Y-97033684D02*
X124348685Y-96938446D01*
X124348685Y-96938446D02*
X124396304Y-96890827D01*
X124396304Y-96890827D02*
X124491542Y-96843208D01*
X124491542Y-96843208D02*
X124634399Y-96843208D01*
X124634399Y-96843208D02*
X124729637Y-96890827D01*
X124729637Y-96890827D02*
X124777256Y-96938446D01*
X124777256Y-96938446D02*
X124824875Y-97033684D01*
X124824875Y-97033684D02*
X124824875Y-97319398D01*
X124824875Y-97319398D02*
X124777256Y-97414636D01*
X124777256Y-97414636D02*
X124729637Y-97462256D01*
X124729637Y-97462256D02*
X124634399Y-97509875D01*
X124634399Y-97509875D02*
X124491542Y-97509875D01*
X125253447Y-97509875D02*
X125253447Y-96843208D01*
X125253447Y-97033684D02*
X125301066Y-96938446D01*
X125301066Y-96938446D02*
X125348685Y-96890827D01*
X125348685Y-96890827D02*
X125443923Y-96843208D01*
X125443923Y-96843208D02*
X125539161Y-96843208D01*
X126301066Y-96843208D02*
X126301066Y-97652732D01*
X126301066Y-97652732D02*
X126253447Y-97747970D01*
X126253447Y-97747970D02*
X126205828Y-97795589D01*
X126205828Y-97795589D02*
X126110590Y-97843208D01*
X126110590Y-97843208D02*
X125967733Y-97843208D01*
X125967733Y-97843208D02*
X125872495Y-97795589D01*
X126301066Y-97462256D02*
X126205828Y-97509875D01*
X126205828Y-97509875D02*
X126015352Y-97509875D01*
X126015352Y-97509875D02*
X125920114Y-97462256D01*
X125920114Y-97462256D02*
X125872495Y-97414636D01*
X125872495Y-97414636D02*
X125824876Y-97319398D01*
X125824876Y-97319398D02*
X125824876Y-97033684D01*
X125824876Y-97033684D02*
X125872495Y-96938446D01*
X125872495Y-96938446D02*
X125920114Y-96890827D01*
X125920114Y-96890827D02*
X126015352Y-96843208D01*
X126015352Y-96843208D02*
X126205828Y-96843208D01*
X126205828Y-96843208D02*
X126301066Y-96890827D01*
X127158209Y-97462256D02*
X127062971Y-97509875D01*
X127062971Y-97509875D02*
X126872495Y-97509875D01*
X126872495Y-97509875D02*
X126777257Y-97462256D01*
X126777257Y-97462256D02*
X126729638Y-97367017D01*
X126729638Y-97367017D02*
X126729638Y-96986065D01*
X126729638Y-96986065D02*
X126777257Y-96890827D01*
X126777257Y-96890827D02*
X126872495Y-96843208D01*
X126872495Y-96843208D02*
X127062971Y-96843208D01*
X127062971Y-96843208D02*
X127158209Y-96890827D01*
X127158209Y-96890827D02*
X127205828Y-96986065D01*
X127205828Y-96986065D02*
X127205828Y-97081303D01*
X127205828Y-97081303D02*
X126729638Y-97176541D01*
X128396305Y-97509875D02*
X128396305Y-96509875D01*
X128967733Y-97509875D02*
X128539162Y-96938446D01*
X128967733Y-96509875D02*
X128396305Y-97081303D01*
X129824876Y-96843208D02*
X129824876Y-97509875D01*
X129396305Y-96843208D02*
X129396305Y-97367017D01*
X129396305Y-97367017D02*
X129443924Y-97462256D01*
X129443924Y-97462256D02*
X129539162Y-97509875D01*
X129539162Y-97509875D02*
X129682019Y-97509875D01*
X129682019Y-97509875D02*
X129777257Y-97462256D01*
X129777257Y-97462256D02*
X129824876Y-97414636D01*
X130682019Y-97462256D02*
X130586781Y-97509875D01*
X130586781Y-97509875D02*
X130396305Y-97509875D01*
X130396305Y-97509875D02*
X130301067Y-97462256D01*
X130301067Y-97462256D02*
X130253448Y-97367017D01*
X130253448Y-97367017D02*
X130253448Y-96986065D01*
X130253448Y-96986065D02*
X130301067Y-96890827D01*
X130301067Y-96890827D02*
X130396305Y-96843208D01*
X130396305Y-96843208D02*
X130586781Y-96843208D01*
X130586781Y-96843208D02*
X130682019Y-96890827D01*
X130682019Y-96890827D02*
X130729638Y-96986065D01*
X130729638Y-96986065D02*
X130729638Y-97081303D01*
X130729638Y-97081303D02*
X130253448Y-97176541D01*
X131586781Y-96843208D02*
X131586781Y-97652732D01*
X131586781Y-97652732D02*
X131539162Y-97747970D01*
X131539162Y-97747970D02*
X131491543Y-97795589D01*
X131491543Y-97795589D02*
X131396305Y-97843208D01*
X131396305Y-97843208D02*
X131253448Y-97843208D01*
X131253448Y-97843208D02*
X131158210Y-97795589D01*
X131586781Y-97462256D02*
X131491543Y-97509875D01*
X131491543Y-97509875D02*
X131301067Y-97509875D01*
X131301067Y-97509875D02*
X131205829Y-97462256D01*
X131205829Y-97462256D02*
X131158210Y-97414636D01*
X131158210Y-97414636D02*
X131110591Y-97319398D01*
X131110591Y-97319398D02*
X131110591Y-97033684D01*
X131110591Y-97033684D02*
X131158210Y-96938446D01*
X131158210Y-96938446D02*
X131205829Y-96890827D01*
X131205829Y-96890827D02*
X131301067Y-96843208D01*
X131301067Y-96843208D02*
X131491543Y-96843208D01*
X131491543Y-96843208D02*
X131586781Y-96890827D01*
X132205829Y-97509875D02*
X132110591Y-97462256D01*
X132110591Y-97462256D02*
X132062972Y-97367017D01*
X132062972Y-97367017D02*
X132062972Y-96509875D01*
X132967734Y-97462256D02*
X132872496Y-97509875D01*
X132872496Y-97509875D02*
X132682020Y-97509875D01*
X132682020Y-97509875D02*
X132586782Y-97462256D01*
X132586782Y-97462256D02*
X132539163Y-97367017D01*
X132539163Y-97367017D02*
X132539163Y-96986065D01*
X132539163Y-96986065D02*
X132586782Y-96890827D01*
X132586782Y-96890827D02*
X132682020Y-96843208D01*
X132682020Y-96843208D02*
X132872496Y-96843208D01*
X132872496Y-96843208D02*
X132967734Y-96890827D01*
X132967734Y-96890827D02*
X133015353Y-96986065D01*
X133015353Y-96986065D02*
X133015353Y-97081303D01*
X133015353Y-97081303D02*
X132539163Y-97176541D01*
X133443925Y-97509875D02*
X133443925Y-96843208D01*
X133443925Y-97033684D02*
X133491544Y-96938446D01*
X133491544Y-96938446D02*
X133539163Y-96890827D01*
X133539163Y-96890827D02*
X133634401Y-96843208D01*
X133634401Y-96843208D02*
X133729639Y-96843208D01*
X112491541Y-98453152D02*
X112729636Y-99119819D01*
X112729636Y-99119819D02*
X112967731Y-98453152D01*
X113872493Y-99119819D02*
X113301065Y-99119819D01*
X113586779Y-99119819D02*
X113586779Y-98119819D01*
X113586779Y-98119819D02*
X113491541Y-98262676D01*
X113491541Y-98262676D02*
X113396303Y-98357914D01*
X113396303Y-98357914D02*
X113301065Y-98405533D01*
X114301065Y-99024580D02*
X114348684Y-99072200D01*
X114348684Y-99072200D02*
X114301065Y-99119819D01*
X114301065Y-99119819D02*
X114253446Y-99072200D01*
X114253446Y-99072200D02*
X114301065Y-99024580D01*
X114301065Y-99024580D02*
X114301065Y-99119819D01*
X114967731Y-98119819D02*
X115062969Y-98119819D01*
X115062969Y-98119819D02*
X115158207Y-98167438D01*
X115158207Y-98167438D02*
X115205826Y-98215057D01*
X115205826Y-98215057D02*
X115253445Y-98310295D01*
X115253445Y-98310295D02*
X115301064Y-98500771D01*
X115301064Y-98500771D02*
X115301064Y-98738866D01*
X115301064Y-98738866D02*
X115253445Y-98929342D01*
X115253445Y-98929342D02*
X115205826Y-99024580D01*
X115205826Y-99024580D02*
X115158207Y-99072200D01*
X115158207Y-99072200D02*
X115062969Y-99119819D01*
X115062969Y-99119819D02*
X114967731Y-99119819D01*
X114967731Y-99119819D02*
X114872493Y-99072200D01*
X114872493Y-99072200D02*
X114824874Y-99024580D01*
X114824874Y-99024580D02*
X114777255Y-98929342D01*
X114777255Y-98929342D02*
X114729636Y-98738866D01*
X114729636Y-98738866D02*
X114729636Y-98500771D01*
X114729636Y-98500771D02*
X114777255Y-98310295D01*
X114777255Y-98310295D02*
X114824874Y-98215057D01*
X114824874Y-98215057D02*
X114872493Y-98167438D01*
X114872493Y-98167438D02*
X114967731Y-98119819D01*
D11*
X112607768Y-104594950D02*
X112607768Y-102594950D01*
X113560149Y-104594950D02*
X113560149Y-102594950D01*
X113560149Y-102594950D02*
X114703006Y-104594950D01*
X114703006Y-104594950D02*
X114703006Y-102594950D01*
X115655387Y-104594950D02*
X115655387Y-102594950D01*
X115655387Y-102594950D02*
X116417292Y-102594950D01*
X116417292Y-102594950D02*
X116607768Y-102690188D01*
X116607768Y-102690188D02*
X116703006Y-102785426D01*
X116703006Y-102785426D02*
X116798244Y-102975902D01*
X116798244Y-102975902D02*
X116798244Y-103261616D01*
X116798244Y-103261616D02*
X116703006Y-103452092D01*
X116703006Y-103452092D02*
X116607768Y-103547331D01*
X116607768Y-103547331D02*
X116417292Y-103642569D01*
X116417292Y-103642569D02*
X115655387Y-103642569D01*
X117655387Y-102594950D02*
X117655387Y-104213997D01*
X117655387Y-104213997D02*
X117750625Y-104404473D01*
X117750625Y-104404473D02*
X117845863Y-104499712D01*
X117845863Y-104499712D02*
X118036339Y-104594950D01*
X118036339Y-104594950D02*
X118417292Y-104594950D01*
X118417292Y-104594950D02*
X118607768Y-104499712D01*
X118607768Y-104499712D02*
X118703006Y-104404473D01*
X118703006Y-104404473D02*
X118798244Y-104213997D01*
X118798244Y-104213997D02*
X118798244Y-102594950D01*
X119464911Y-102594950D02*
X120607768Y-102594950D01*
X120036339Y-104594950D02*
X120036339Y-102594950D01*
X121274435Y-104404473D02*
X121369673Y-104499712D01*
X121369673Y-104499712D02*
X121274435Y-104594950D01*
X121274435Y-104594950D02*
X121179197Y-104499712D01*
X121179197Y-104499712D02*
X121274435Y-104404473D01*
X121274435Y-104404473D02*
X121274435Y-104594950D01*
X121274435Y-103356854D02*
X121369673Y-103452092D01*
X121369673Y-103452092D02*
X121274435Y-103547331D01*
X121274435Y-103547331D02*
X121179197Y-103452092D01*
X121179197Y-103452092D02*
X121274435Y-103356854D01*
X121274435Y-103356854D02*
X121274435Y-103547331D01*
X113560149Y-105814838D02*
X112607768Y-105814838D01*
X112607768Y-105814838D02*
X112512530Y-106767219D01*
X112512530Y-106767219D02*
X112607768Y-106671980D01*
X112607768Y-106671980D02*
X112798244Y-106576742D01*
X112798244Y-106576742D02*
X113274435Y-106576742D01*
X113274435Y-106576742D02*
X113464911Y-106671980D01*
X113464911Y-106671980D02*
X113560149Y-106767219D01*
X113560149Y-106767219D02*
X113655387Y-106957695D01*
X113655387Y-106957695D02*
X113655387Y-107433885D01*
X113655387Y-107433885D02*
X113560149Y-107624361D01*
X113560149Y-107624361D02*
X113464911Y-107719600D01*
X113464911Y-107719600D02*
X113274435Y-107814838D01*
X113274435Y-107814838D02*
X112798244Y-107814838D01*
X112798244Y-107814838D02*
X112607768Y-107719600D01*
X112607768Y-107719600D02*
X112512530Y-107624361D01*
X114512530Y-107624361D02*
X114607768Y-107719600D01*
X114607768Y-107719600D02*
X114512530Y-107814838D01*
X114512530Y-107814838D02*
X114417292Y-107719600D01*
X114417292Y-107719600D02*
X114512530Y-107624361D01*
X114512530Y-107624361D02*
X114512530Y-107814838D01*
X116512530Y-107814838D02*
X115369673Y-107814838D01*
X115941101Y-107814838D02*
X115941101Y-105814838D01*
X115941101Y-105814838D02*
X115750625Y-106100552D01*
X115750625Y-106100552D02*
X115560149Y-106291028D01*
X115560149Y-106291028D02*
X115369673Y-106386266D01*
X117369673Y-107052933D02*
X118893483Y-107052933D01*
X119655387Y-105814838D02*
X120893482Y-105814838D01*
X120893482Y-105814838D02*
X120226815Y-106576742D01*
X120226815Y-106576742D02*
X120512530Y-106576742D01*
X120512530Y-106576742D02*
X120703006Y-106671980D01*
X120703006Y-106671980D02*
X120798244Y-106767219D01*
X120798244Y-106767219D02*
X120893482Y-106957695D01*
X120893482Y-106957695D02*
X120893482Y-107433885D01*
X120893482Y-107433885D02*
X120798244Y-107624361D01*
X120798244Y-107624361D02*
X120703006Y-107719600D01*
X120703006Y-107719600D02*
X120512530Y-107814838D01*
X120512530Y-107814838D02*
X119941101Y-107814838D01*
X119941101Y-107814838D02*
X119750625Y-107719600D01*
X119750625Y-107719600D02*
X119655387Y-107624361D01*
X122607768Y-105814838D02*
X122226815Y-105814838D01*
X122226815Y-105814838D02*
X122036339Y-105910076D01*
X122036339Y-105910076D02*
X121941101Y-106005314D01*
X121941101Y-106005314D02*
X121750625Y-106291028D01*
X121750625Y-106291028D02*
X121655387Y-106671980D01*
X121655387Y-106671980D02*
X121655387Y-107433885D01*
X121655387Y-107433885D02*
X121750625Y-107624361D01*
X121750625Y-107624361D02*
X121845863Y-107719600D01*
X121845863Y-107719600D02*
X122036339Y-107814838D01*
X122036339Y-107814838D02*
X122417292Y-107814838D01*
X122417292Y-107814838D02*
X122607768Y-107719600D01*
X122607768Y-107719600D02*
X122703006Y-107624361D01*
X122703006Y-107624361D02*
X122798244Y-107433885D01*
X122798244Y-107433885D02*
X122798244Y-106957695D01*
X122798244Y-106957695D02*
X122703006Y-106767219D01*
X122703006Y-106767219D02*
X122607768Y-106671980D01*
X122607768Y-106671980D02*
X122417292Y-106576742D01*
X122417292Y-106576742D02*
X122036339Y-106576742D01*
X122036339Y-106576742D02*
X121845863Y-106671980D01*
X121845863Y-106671980D02*
X121750625Y-106767219D01*
X121750625Y-106767219D02*
X121655387Y-106957695D01*
X123369673Y-105814838D02*
X124036339Y-107814838D01*
X124036339Y-107814838D02*
X124703006Y-105814838D01*
X112607768Y-111034726D02*
X112607768Y-109034726D01*
X112607768Y-109034726D02*
X113274435Y-110463297D01*
X113274435Y-110463297D02*
X113941101Y-109034726D01*
X113941101Y-109034726D02*
X113941101Y-111034726D01*
X114893482Y-111034726D02*
X114893482Y-109034726D01*
X115845863Y-111034726D02*
X115845863Y-109034726D01*
X115845863Y-109034726D02*
X116988720Y-111034726D01*
X116988720Y-111034726D02*
X116988720Y-109034726D01*
X120417292Y-109034726D02*
X119464911Y-109034726D01*
X119464911Y-109034726D02*
X119369673Y-109987107D01*
X119369673Y-109987107D02*
X119464911Y-109891868D01*
X119464911Y-109891868D02*
X119655387Y-109796630D01*
X119655387Y-109796630D02*
X120131578Y-109796630D01*
X120131578Y-109796630D02*
X120322054Y-109891868D01*
X120322054Y-109891868D02*
X120417292Y-109987107D01*
X120417292Y-109987107D02*
X120512530Y-110177583D01*
X120512530Y-110177583D02*
X120512530Y-110653773D01*
X120512530Y-110653773D02*
X120417292Y-110844249D01*
X120417292Y-110844249D02*
X120322054Y-110939488D01*
X120322054Y-110939488D02*
X120131578Y-111034726D01*
X120131578Y-111034726D02*
X119655387Y-111034726D01*
X119655387Y-111034726D02*
X119464911Y-110939488D01*
X119464911Y-110939488D02*
X119369673Y-110844249D01*
X121750625Y-109034726D02*
X121941102Y-109034726D01*
X121941102Y-109034726D02*
X122131578Y-109129964D01*
X122131578Y-109129964D02*
X122226816Y-109225202D01*
X122226816Y-109225202D02*
X122322054Y-109415678D01*
X122322054Y-109415678D02*
X122417292Y-109796630D01*
X122417292Y-109796630D02*
X122417292Y-110272821D01*
X122417292Y-110272821D02*
X122322054Y-110653773D01*
X122322054Y-110653773D02*
X122226816Y-110844249D01*
X122226816Y-110844249D02*
X122131578Y-110939488D01*
X122131578Y-110939488D02*
X121941102Y-111034726D01*
X121941102Y-111034726D02*
X121750625Y-111034726D01*
X121750625Y-111034726D02*
X121560149Y-110939488D01*
X121560149Y-110939488D02*
X121464911Y-110844249D01*
X121464911Y-110844249D02*
X121369673Y-110653773D01*
X121369673Y-110653773D02*
X121274435Y-110272821D01*
X121274435Y-110272821D02*
X121274435Y-109796630D01*
X121274435Y-109796630D02*
X121369673Y-109415678D01*
X121369673Y-109415678D02*
X121464911Y-109225202D01*
X121464911Y-109225202D02*
X121560149Y-109129964D01*
X121560149Y-109129964D02*
X121750625Y-109034726D01*
X123655387Y-109034726D02*
X123845864Y-109034726D01*
X123845864Y-109034726D02*
X124036340Y-109129964D01*
X124036340Y-109129964D02*
X124131578Y-109225202D01*
X124131578Y-109225202D02*
X124226816Y-109415678D01*
X124226816Y-109415678D02*
X124322054Y-109796630D01*
X124322054Y-109796630D02*
X124322054Y-110272821D01*
X124322054Y-110272821D02*
X124226816Y-110653773D01*
X124226816Y-110653773D02*
X124131578Y-110844249D01*
X124131578Y-110844249D02*
X124036340Y-110939488D01*
X124036340Y-110939488D02*
X123845864Y-111034726D01*
X123845864Y-111034726D02*
X123655387Y-111034726D01*
X123655387Y-111034726D02*
X123464911Y-110939488D01*
X123464911Y-110939488D02*
X123369673Y-110844249D01*
X123369673Y-110844249D02*
X123274435Y-110653773D01*
X123274435Y-110653773D02*
X123179197Y-110272821D01*
X123179197Y-110272821D02*
X123179197Y-109796630D01*
X123179197Y-109796630D02*
X123274435Y-109415678D01*
X123274435Y-109415678D02*
X123369673Y-109225202D01*
X123369673Y-109225202D02*
X123464911Y-109129964D01*
X123464911Y-109129964D02*
X123655387Y-109034726D01*
X125179197Y-111034726D02*
X125179197Y-109701392D01*
X125179197Y-109891868D02*
X125274435Y-109796630D01*
X125274435Y-109796630D02*
X125464911Y-109701392D01*
X125464911Y-109701392D02*
X125750626Y-109701392D01*
X125750626Y-109701392D02*
X125941102Y-109796630D01*
X125941102Y-109796630D02*
X126036340Y-109987107D01*
X126036340Y-109987107D02*
X126036340Y-111034726D01*
X126036340Y-109987107D02*
X126131578Y-109796630D01*
X126131578Y-109796630D02*
X126322054Y-109701392D01*
X126322054Y-109701392D02*
X126607768Y-109701392D01*
X126607768Y-109701392D02*
X126798245Y-109796630D01*
X126798245Y-109796630D02*
X126893483Y-109987107D01*
X126893483Y-109987107D02*
X126893483Y-111034726D01*
X127750626Y-110463297D02*
X128703007Y-110463297D01*
X127560150Y-111034726D02*
X128226816Y-109034726D01*
X128226816Y-109034726D02*
X128893483Y-111034726D01*
X142329945Y-105794838D02*
X142329945Y-103794838D01*
X143282326Y-105794838D02*
X143282326Y-103794838D01*
X143282326Y-103794838D02*
X144425183Y-105794838D01*
X144425183Y-105794838D02*
X144425183Y-103794838D01*
X145377564Y-105794838D02*
X145377564Y-103794838D01*
X145377564Y-103794838D02*
X146139469Y-103794838D01*
X146139469Y-103794838D02*
X146329945Y-103890076D01*
X146329945Y-103890076D02*
X146425183Y-103985314D01*
X146425183Y-103985314D02*
X146520421Y-104175790D01*
X146520421Y-104175790D02*
X146520421Y-104461504D01*
X146520421Y-104461504D02*
X146425183Y-104651980D01*
X146425183Y-104651980D02*
X146329945Y-104747219D01*
X146329945Y-104747219D02*
X146139469Y-104842457D01*
X146139469Y-104842457D02*
X145377564Y-104842457D01*
X147377564Y-103794838D02*
X147377564Y-105413885D01*
X147377564Y-105413885D02*
X147472802Y-105604361D01*
X147472802Y-105604361D02*
X147568040Y-105699600D01*
X147568040Y-105699600D02*
X147758516Y-105794838D01*
X147758516Y-105794838D02*
X148139469Y-105794838D01*
X148139469Y-105794838D02*
X148329945Y-105699600D01*
X148329945Y-105699600D02*
X148425183Y-105604361D01*
X148425183Y-105604361D02*
X148520421Y-105413885D01*
X148520421Y-105413885D02*
X148520421Y-103794838D01*
X149187088Y-103794838D02*
X150329945Y-103794838D01*
X149758516Y-105794838D02*
X149758516Y-103794838D01*
D10*
X217547619Y-92974160D02*
X218023809Y-92974160D01*
X217452381Y-93259875D02*
X217785714Y-92259875D01*
X217785714Y-92259875D02*
X218119047Y-93259875D01*
X218452381Y-93259875D02*
X218452381Y-92259875D01*
X218452381Y-92259875D02*
X218690476Y-92259875D01*
X218690476Y-92259875D02*
X218833333Y-92307494D01*
X218833333Y-92307494D02*
X218928571Y-92402732D01*
X218928571Y-92402732D02*
X218976190Y-92497970D01*
X218976190Y-92497970D02*
X219023809Y-92688446D01*
X219023809Y-92688446D02*
X219023809Y-92831303D01*
X219023809Y-92831303D02*
X218976190Y-93021779D01*
X218976190Y-93021779D02*
X218928571Y-93117017D01*
X218928571Y-93117017D02*
X218833333Y-93212256D01*
X218833333Y-93212256D02*
X218690476Y-93259875D01*
X218690476Y-93259875D02*
X218452381Y-93259875D01*
X219404762Y-92974160D02*
X219880952Y-92974160D01*
X219309524Y-93259875D02*
X219642857Y-92259875D01*
X219642857Y-92259875D02*
X219976190Y-93259875D01*
X220642857Y-92736065D02*
X220309524Y-92736065D01*
X220309524Y-93259875D02*
X220309524Y-92259875D01*
X220309524Y-92259875D02*
X220785714Y-92259875D01*
X221738095Y-93259875D02*
X221404762Y-92783684D01*
X221166667Y-93259875D02*
X221166667Y-92259875D01*
X221166667Y-92259875D02*
X221547619Y-92259875D01*
X221547619Y-92259875D02*
X221642857Y-92307494D01*
X221642857Y-92307494D02*
X221690476Y-92355113D01*
X221690476Y-92355113D02*
X221738095Y-92450351D01*
X221738095Y-92450351D02*
X221738095Y-92593208D01*
X221738095Y-92593208D02*
X221690476Y-92688446D01*
X221690476Y-92688446D02*
X221642857Y-92736065D01*
X221642857Y-92736065D02*
X221547619Y-92783684D01*
X221547619Y-92783684D02*
X221166667Y-92783684D01*
X222166667Y-92259875D02*
X222166667Y-93069398D01*
X222166667Y-93069398D02*
X222214286Y-93164636D01*
X222214286Y-93164636D02*
X222261905Y-93212256D01*
X222261905Y-93212256D02*
X222357143Y-93259875D01*
X222357143Y-93259875D02*
X222547619Y-93259875D01*
X222547619Y-93259875D02*
X222642857Y-93212256D01*
X222642857Y-93212256D02*
X222690476Y-93164636D01*
X222690476Y-93164636D02*
X222738095Y-93069398D01*
X222738095Y-93069398D02*
X222738095Y-92259875D01*
X223214286Y-93259875D02*
X223214286Y-92259875D01*
X223547619Y-92259875D02*
X224119047Y-92259875D01*
X223833333Y-93259875D02*
X223833333Y-92259875D01*
X225880952Y-93355113D02*
X225785714Y-93307494D01*
X225785714Y-93307494D02*
X225690476Y-93212256D01*
X225690476Y-93212256D02*
X225547619Y-93069398D01*
X225547619Y-93069398D02*
X225452381Y-93021779D01*
X225452381Y-93021779D02*
X225357143Y-93021779D01*
X225404762Y-93259875D02*
X225309524Y-93212256D01*
X225309524Y-93212256D02*
X225214286Y-93117017D01*
X225214286Y-93117017D02*
X225166667Y-92926541D01*
X225166667Y-92926541D02*
X225166667Y-92593208D01*
X225166667Y-92593208D02*
X225214286Y-92402732D01*
X225214286Y-92402732D02*
X225309524Y-92307494D01*
X225309524Y-92307494D02*
X225404762Y-92259875D01*
X225404762Y-92259875D02*
X225595238Y-92259875D01*
X225595238Y-92259875D02*
X225690476Y-92307494D01*
X225690476Y-92307494D02*
X225785714Y-92402732D01*
X225785714Y-92402732D02*
X225833333Y-92593208D01*
X225833333Y-92593208D02*
X225833333Y-92926541D01*
X225833333Y-92926541D02*
X225785714Y-93117017D01*
X225785714Y-93117017D02*
X225690476Y-93212256D01*
X225690476Y-93212256D02*
X225595238Y-93259875D01*
X225595238Y-93259875D02*
X225404762Y-93259875D01*
X226119048Y-92259875D02*
X226690476Y-92259875D01*
X226404762Y-93259875D02*
X226404762Y-92259875D01*
X227023810Y-93259875D02*
X227023810Y-92259875D01*
X227023810Y-92259875D02*
X227404762Y-92259875D01*
X227404762Y-92259875D02*
X227500000Y-92307494D01*
X227500000Y-92307494D02*
X227547619Y-92355113D01*
X227547619Y-92355113D02*
X227595238Y-92450351D01*
X227595238Y-92450351D02*
X227595238Y-92593208D01*
X227595238Y-92593208D02*
X227547619Y-92688446D01*
X227547619Y-92688446D02*
X227500000Y-92736065D01*
X227500000Y-92736065D02*
X227404762Y-92783684D01*
X227404762Y-92783684D02*
X227023810Y-92783684D01*
X228214286Y-92783684D02*
X228214286Y-93259875D01*
X227880953Y-92259875D02*
X228214286Y-92783684D01*
X228214286Y-92783684D02*
X228547619Y-92259875D01*
X219285714Y-94346009D02*
X219619047Y-94346009D01*
X219761904Y-94869819D02*
X219285714Y-94869819D01*
X219285714Y-94869819D02*
X219285714Y-93869819D01*
X219285714Y-93869819D02*
X219761904Y-93869819D01*
X220142857Y-94822200D02*
X220285714Y-94869819D01*
X220285714Y-94869819D02*
X220523809Y-94869819D01*
X220523809Y-94869819D02*
X220619047Y-94822200D01*
X220619047Y-94822200D02*
X220666666Y-94774580D01*
X220666666Y-94774580D02*
X220714285Y-94679342D01*
X220714285Y-94679342D02*
X220714285Y-94584104D01*
X220714285Y-94584104D02*
X220666666Y-94488866D01*
X220666666Y-94488866D02*
X220619047Y-94441247D01*
X220619047Y-94441247D02*
X220523809Y-94393628D01*
X220523809Y-94393628D02*
X220333333Y-94346009D01*
X220333333Y-94346009D02*
X220238095Y-94298390D01*
X220238095Y-94298390D02*
X220190476Y-94250771D01*
X220190476Y-94250771D02*
X220142857Y-94155533D01*
X220142857Y-94155533D02*
X220142857Y-94060295D01*
X220142857Y-94060295D02*
X220190476Y-93965057D01*
X220190476Y-93965057D02*
X220238095Y-93917438D01*
X220238095Y-93917438D02*
X220333333Y-93869819D01*
X220333333Y-93869819D02*
X220571428Y-93869819D01*
X220571428Y-93869819D02*
X220714285Y-93917438D01*
X221142857Y-94869819D02*
X221142857Y-93869819D01*
X221142857Y-93869819D02*
X221523809Y-93869819D01*
X221523809Y-93869819D02*
X221619047Y-93917438D01*
X221619047Y-93917438D02*
X221666666Y-93965057D01*
X221666666Y-93965057D02*
X221714285Y-94060295D01*
X221714285Y-94060295D02*
X221714285Y-94203152D01*
X221714285Y-94203152D02*
X221666666Y-94298390D01*
X221666666Y-94298390D02*
X221619047Y-94346009D01*
X221619047Y-94346009D02*
X221523809Y-94393628D01*
X221523809Y-94393628D02*
X221142857Y-94393628D01*
X222047619Y-93869819D02*
X222666666Y-93869819D01*
X222666666Y-93869819D02*
X222333333Y-94250771D01*
X222333333Y-94250771D02*
X222476190Y-94250771D01*
X222476190Y-94250771D02*
X222571428Y-94298390D01*
X222571428Y-94298390D02*
X222619047Y-94346009D01*
X222619047Y-94346009D02*
X222666666Y-94441247D01*
X222666666Y-94441247D02*
X222666666Y-94679342D01*
X222666666Y-94679342D02*
X222619047Y-94774580D01*
X222619047Y-94774580D02*
X222571428Y-94822200D01*
X222571428Y-94822200D02*
X222476190Y-94869819D01*
X222476190Y-94869819D02*
X222190476Y-94869819D01*
X222190476Y-94869819D02*
X222095238Y-94822200D01*
X222095238Y-94822200D02*
X222047619Y-94774580D01*
X223047619Y-93965057D02*
X223095238Y-93917438D01*
X223095238Y-93917438D02*
X223190476Y-93869819D01*
X223190476Y-93869819D02*
X223428571Y-93869819D01*
X223428571Y-93869819D02*
X223523809Y-93917438D01*
X223523809Y-93917438D02*
X223571428Y-93965057D01*
X223571428Y-93965057D02*
X223619047Y-94060295D01*
X223619047Y-94060295D02*
X223619047Y-94155533D01*
X223619047Y-94155533D02*
X223571428Y-94298390D01*
X223571428Y-94298390D02*
X223000000Y-94869819D01*
X223000000Y-94869819D02*
X223619047Y-94869819D01*
X224047619Y-94488866D02*
X224809524Y-94488866D01*
X225238095Y-94822200D02*
X225380952Y-94869819D01*
X225380952Y-94869819D02*
X225619047Y-94869819D01*
X225619047Y-94869819D02*
X225714285Y-94822200D01*
X225714285Y-94822200D02*
X225761904Y-94774580D01*
X225761904Y-94774580D02*
X225809523Y-94679342D01*
X225809523Y-94679342D02*
X225809523Y-94584104D01*
X225809523Y-94584104D02*
X225761904Y-94488866D01*
X225761904Y-94488866D02*
X225714285Y-94441247D01*
X225714285Y-94441247D02*
X225619047Y-94393628D01*
X225619047Y-94393628D02*
X225428571Y-94346009D01*
X225428571Y-94346009D02*
X225333333Y-94298390D01*
X225333333Y-94298390D02*
X225285714Y-94250771D01*
X225285714Y-94250771D02*
X225238095Y-94155533D01*
X225238095Y-94155533D02*
X225238095Y-94060295D01*
X225238095Y-94060295D02*
X225285714Y-93965057D01*
X225285714Y-93965057D02*
X225333333Y-93917438D01*
X225333333Y-93917438D02*
X225428571Y-93869819D01*
X225428571Y-93869819D02*
X225666666Y-93869819D01*
X225666666Y-93869819D02*
X225809523Y-93917438D01*
X226142857Y-93869819D02*
X226761904Y-93869819D01*
X226761904Y-93869819D02*
X226428571Y-94250771D01*
X226428571Y-94250771D02*
X226571428Y-94250771D01*
X226571428Y-94250771D02*
X226666666Y-94298390D01*
X226666666Y-94298390D02*
X226714285Y-94346009D01*
X226714285Y-94346009D02*
X226761904Y-94441247D01*
X226761904Y-94441247D02*
X226761904Y-94679342D01*
X226761904Y-94679342D02*
X226714285Y-94774580D01*
X226714285Y-94774580D02*
X226666666Y-94822200D01*
X226666666Y-94822200D02*
X226571428Y-94869819D01*
X226571428Y-94869819D02*
X226285714Y-94869819D01*
X226285714Y-94869819D02*
X226190476Y-94822200D01*
X226190476Y-94822200D02*
X226142857Y-94774580D01*
D11*
X140044230Y-112304894D02*
X140425183Y-112304894D01*
X140425183Y-112304894D02*
X140615659Y-112400132D01*
X140615659Y-112400132D02*
X140806135Y-112590608D01*
X140806135Y-112590608D02*
X140901373Y-112971560D01*
X140901373Y-112971560D02*
X140901373Y-113638227D01*
X140901373Y-113638227D02*
X140806135Y-114019179D01*
X140806135Y-114019179D02*
X140615659Y-114209656D01*
X140615659Y-114209656D02*
X140425183Y-114304894D01*
X140425183Y-114304894D02*
X140044230Y-114304894D01*
X140044230Y-114304894D02*
X139853754Y-114209656D01*
X139853754Y-114209656D02*
X139663278Y-114019179D01*
X139663278Y-114019179D02*
X139568040Y-113638227D01*
X139568040Y-113638227D02*
X139568040Y-112971560D01*
X139568040Y-112971560D02*
X139663278Y-112590608D01*
X139663278Y-112590608D02*
X139853754Y-112400132D01*
X139853754Y-112400132D02*
X140044230Y-112304894D01*
X141758516Y-112304894D02*
X141758516Y-113923941D01*
X141758516Y-113923941D02*
X141853754Y-114114417D01*
X141853754Y-114114417D02*
X141948992Y-114209656D01*
X141948992Y-114209656D02*
X142139468Y-114304894D01*
X142139468Y-114304894D02*
X142520421Y-114304894D01*
X142520421Y-114304894D02*
X142710897Y-114209656D01*
X142710897Y-114209656D02*
X142806135Y-114114417D01*
X142806135Y-114114417D02*
X142901373Y-113923941D01*
X142901373Y-113923941D02*
X142901373Y-112304894D01*
X143568040Y-112304894D02*
X144710897Y-112304894D01*
X144139468Y-114304894D02*
X144139468Y-112304894D01*
X145377564Y-114304894D02*
X145377564Y-112304894D01*
X145377564Y-112304894D02*
X146139469Y-112304894D01*
X146139469Y-112304894D02*
X146329945Y-112400132D01*
X146329945Y-112400132D02*
X146425183Y-112495370D01*
X146425183Y-112495370D02*
X146520421Y-112685846D01*
X146520421Y-112685846D02*
X146520421Y-112971560D01*
X146520421Y-112971560D02*
X146425183Y-113162036D01*
X146425183Y-113162036D02*
X146329945Y-113257275D01*
X146329945Y-113257275D02*
X146139469Y-113352513D01*
X146139469Y-113352513D02*
X145377564Y-113352513D01*
X147377564Y-112304894D02*
X147377564Y-113923941D01*
X147377564Y-113923941D02*
X147472802Y-114114417D01*
X147472802Y-114114417D02*
X147568040Y-114209656D01*
X147568040Y-114209656D02*
X147758516Y-114304894D01*
X147758516Y-114304894D02*
X148139469Y-114304894D01*
X148139469Y-114304894D02*
X148329945Y-114209656D01*
X148329945Y-114209656D02*
X148425183Y-114114417D01*
X148425183Y-114114417D02*
X148520421Y-113923941D01*
X148520421Y-113923941D02*
X148520421Y-112304894D01*
X149187088Y-112304894D02*
X150329945Y-112304894D01*
X149758516Y-114304894D02*
X149758516Y-112304894D01*
X140901373Y-115524782D02*
X139948992Y-115524782D01*
X139948992Y-115524782D02*
X139853754Y-116477163D01*
X139853754Y-116477163D02*
X139948992Y-116381924D01*
X139948992Y-116381924D02*
X140139468Y-116286686D01*
X140139468Y-116286686D02*
X140615659Y-116286686D01*
X140615659Y-116286686D02*
X140806135Y-116381924D01*
X140806135Y-116381924D02*
X140901373Y-116477163D01*
X140901373Y-116477163D02*
X140996611Y-116667639D01*
X140996611Y-116667639D02*
X140996611Y-117143829D01*
X140996611Y-117143829D02*
X140901373Y-117334305D01*
X140901373Y-117334305D02*
X140806135Y-117429544D01*
X140806135Y-117429544D02*
X140615659Y-117524782D01*
X140615659Y-117524782D02*
X140139468Y-117524782D01*
X140139468Y-117524782D02*
X139948992Y-117429544D01*
X139948992Y-117429544D02*
X139853754Y-117334305D01*
X141758516Y-116953353D02*
X142710897Y-116953353D01*
X141568040Y-117524782D02*
X142234706Y-115524782D01*
X142234706Y-115524782D02*
X142901373Y-117524782D01*
X145091850Y-117524782D02*
X145091850Y-115524782D01*
X145091850Y-115524782D02*
X145758517Y-116953353D01*
X145758517Y-116953353D02*
X146425183Y-115524782D01*
X146425183Y-115524782D02*
X146425183Y-117524782D01*
X147282326Y-116953353D02*
X148234707Y-116953353D01*
X147091850Y-117524782D02*
X147758516Y-115524782D01*
X147758516Y-115524782D02*
X148425183Y-117524782D01*
X148901374Y-115524782D02*
X150234707Y-117524782D01*
X150234707Y-115524782D02*
X148901374Y-117524782D01*
X160488720Y-113772100D02*
X161631578Y-113772100D01*
X161060149Y-114343528D02*
X161060149Y-113200671D01*
X162131578Y-112843528D02*
X162631578Y-114343528D01*
X162631578Y-114343528D02*
X163131578Y-112843528D01*
X160917292Y-104754957D02*
X160845863Y-104683528D01*
X160845863Y-104683528D02*
X160703006Y-104469242D01*
X160703006Y-104469242D02*
X160631578Y-104326385D01*
X160631578Y-104326385D02*
X160560149Y-104112100D01*
X160560149Y-104112100D02*
X160488720Y-103754957D01*
X160488720Y-103754957D02*
X160488720Y-103469242D01*
X160488720Y-103469242D02*
X160560149Y-103112100D01*
X160560149Y-103112100D02*
X160631578Y-102897814D01*
X160631578Y-102897814D02*
X160703006Y-102754957D01*
X160703006Y-102754957D02*
X160845863Y-102540671D01*
X160845863Y-102540671D02*
X160917292Y-102469242D01*
X161488720Y-103612100D02*
X162631578Y-103612100D01*
X163203006Y-104754957D02*
X163274435Y-104683528D01*
X163274435Y-104683528D02*
X163417292Y-104469242D01*
X163417292Y-104469242D02*
X163488721Y-104326385D01*
X163488721Y-104326385D02*
X163560149Y-104112100D01*
X163560149Y-104112100D02*
X163631578Y-103754957D01*
X163631578Y-103754957D02*
X163631578Y-103469242D01*
X163631578Y-103469242D02*
X163560149Y-103112100D01*
X163560149Y-103112100D02*
X163488721Y-102897814D01*
X163488721Y-102897814D02*
X163417292Y-102754957D01*
X163417292Y-102754957D02*
X163274435Y-102540671D01*
X163274435Y-102540671D02*
X163203006Y-102469242D01*
X160488720Y-106152100D02*
X161631578Y-106152100D01*
X161060149Y-106723528D02*
X161060149Y-105580671D01*
X162131578Y-105223528D02*
X162631578Y-106723528D01*
X162631578Y-106723528D02*
X163131578Y-105223528D01*
X160917292Y-117454957D02*
X160845863Y-117383528D01*
X160845863Y-117383528D02*
X160703006Y-117169242D01*
X160703006Y-117169242D02*
X160631578Y-117026385D01*
X160631578Y-117026385D02*
X160560149Y-116812100D01*
X160560149Y-116812100D02*
X160488720Y-116454957D01*
X160488720Y-116454957D02*
X160488720Y-116169242D01*
X160488720Y-116169242D02*
X160560149Y-115812100D01*
X160560149Y-115812100D02*
X160631578Y-115597814D01*
X160631578Y-115597814D02*
X160703006Y-115454957D01*
X160703006Y-115454957D02*
X160845863Y-115240671D01*
X160845863Y-115240671D02*
X160917292Y-115169242D01*
X161488720Y-116312100D02*
X162631578Y-116312100D01*
X163203006Y-117454957D02*
X163274435Y-117383528D01*
X163274435Y-117383528D02*
X163417292Y-117169242D01*
X163417292Y-117169242D02*
X163488721Y-117026385D01*
X163488721Y-117026385D02*
X163560149Y-116812100D01*
X163560149Y-116812100D02*
X163631578Y-116454957D01*
X163631578Y-116454957D02*
X163631578Y-116169242D01*
X163631578Y-116169242D02*
X163560149Y-115812100D01*
X163560149Y-115812100D02*
X163488721Y-115597814D01*
X163488721Y-115597814D02*
X163417292Y-115454957D01*
X163417292Y-115454957D02*
X163274435Y-115240671D01*
X163274435Y-115240671D02*
X163203006Y-115169242D01*
D10*
X141238095Y-96954819D02*
X141238095Y-95954819D01*
X141238095Y-95954819D02*
X141619047Y-95954819D01*
X141619047Y-95954819D02*
X141714285Y-96002438D01*
X141714285Y-96002438D02*
X141761904Y-96050057D01*
X141761904Y-96050057D02*
X141809523Y-96145295D01*
X141809523Y-96145295D02*
X141809523Y-96288152D01*
X141809523Y-96288152D02*
X141761904Y-96383390D01*
X141761904Y-96383390D02*
X141714285Y-96431009D01*
X141714285Y-96431009D02*
X141619047Y-96478628D01*
X141619047Y-96478628D02*
X141238095Y-96478628D01*
X142428571Y-95954819D02*
X142619047Y-95954819D01*
X142619047Y-95954819D02*
X142714285Y-96002438D01*
X142714285Y-96002438D02*
X142809523Y-96097676D01*
X142809523Y-96097676D02*
X142857142Y-96288152D01*
X142857142Y-96288152D02*
X142857142Y-96621485D01*
X142857142Y-96621485D02*
X142809523Y-96811961D01*
X142809523Y-96811961D02*
X142714285Y-96907200D01*
X142714285Y-96907200D02*
X142619047Y-96954819D01*
X142619047Y-96954819D02*
X142428571Y-96954819D01*
X142428571Y-96954819D02*
X142333333Y-96907200D01*
X142333333Y-96907200D02*
X142238095Y-96811961D01*
X142238095Y-96811961D02*
X142190476Y-96621485D01*
X142190476Y-96621485D02*
X142190476Y-96288152D01*
X142190476Y-96288152D02*
X142238095Y-96097676D01*
X142238095Y-96097676D02*
X142333333Y-96002438D01*
X142333333Y-96002438D02*
X142428571Y-95954819D01*
X143761904Y-96954819D02*
X143285714Y-96954819D01*
X143285714Y-96954819D02*
X143285714Y-95954819D01*
X144285714Y-95954819D02*
X144476190Y-95954819D01*
X144476190Y-95954819D02*
X144571428Y-96002438D01*
X144571428Y-96002438D02*
X144666666Y-96097676D01*
X144666666Y-96097676D02*
X144714285Y-96288152D01*
X144714285Y-96288152D02*
X144714285Y-96621485D01*
X144714285Y-96621485D02*
X144666666Y-96811961D01*
X144666666Y-96811961D02*
X144571428Y-96907200D01*
X144571428Y-96907200D02*
X144476190Y-96954819D01*
X144476190Y-96954819D02*
X144285714Y-96954819D01*
X144285714Y-96954819D02*
X144190476Y-96907200D01*
X144190476Y-96907200D02*
X144095238Y-96811961D01*
X144095238Y-96811961D02*
X144047619Y-96621485D01*
X144047619Y-96621485D02*
X144047619Y-96288152D01*
X144047619Y-96288152D02*
X144095238Y-96097676D01*
X144095238Y-96097676D02*
X144190476Y-96002438D01*
X144190476Y-96002438D02*
X144285714Y-95954819D01*
X145619047Y-96954819D02*
X145142857Y-96954819D01*
X145142857Y-96954819D02*
X145142857Y-95954819D01*
X145952381Y-95954819D02*
X145952381Y-96764342D01*
X145952381Y-96764342D02*
X146000000Y-96859580D01*
X146000000Y-96859580D02*
X146047619Y-96907200D01*
X146047619Y-96907200D02*
X146142857Y-96954819D01*
X146142857Y-96954819D02*
X146333333Y-96954819D01*
X146333333Y-96954819D02*
X146428571Y-96907200D01*
X146428571Y-96907200D02*
X146476190Y-96859580D01*
X146476190Y-96859580D02*
X146523809Y-96764342D01*
X146523809Y-96764342D02*
X146523809Y-95954819D01*
X147761905Y-96954819D02*
X147761905Y-95954819D01*
X147761905Y-95954819D02*
X148000000Y-95954819D01*
X148000000Y-95954819D02*
X148142857Y-96002438D01*
X148142857Y-96002438D02*
X148238095Y-96097676D01*
X148238095Y-96097676D02*
X148285714Y-96192914D01*
X148285714Y-96192914D02*
X148333333Y-96383390D01*
X148333333Y-96383390D02*
X148333333Y-96526247D01*
X148333333Y-96526247D02*
X148285714Y-96716723D01*
X148285714Y-96716723D02*
X148238095Y-96811961D01*
X148238095Y-96811961D02*
X148142857Y-96907200D01*
X148142857Y-96907200D02*
X148000000Y-96954819D01*
X148000000Y-96954819D02*
X147761905Y-96954819D01*
X148714286Y-96050057D02*
X148761905Y-96002438D01*
X148761905Y-96002438D02*
X148857143Y-95954819D01*
X148857143Y-95954819D02*
X149095238Y-95954819D01*
X149095238Y-95954819D02*
X149190476Y-96002438D01*
X149190476Y-96002438D02*
X149238095Y-96050057D01*
X149238095Y-96050057D02*
X149285714Y-96145295D01*
X149285714Y-96145295D02*
X149285714Y-96240533D01*
X149285714Y-96240533D02*
X149238095Y-96383390D01*
X149238095Y-96383390D02*
X148666667Y-96954819D01*
X148666667Y-96954819D02*
X149285714Y-96954819D01*
X150142857Y-96288152D02*
X150142857Y-96954819D01*
X149904762Y-95907200D02*
X149666667Y-96621485D01*
X149666667Y-96621485D02*
X150285714Y-96621485D01*
X150523810Y-95954819D02*
X150857143Y-96954819D01*
X150857143Y-96954819D02*
X151190476Y-95954819D01*
X152047619Y-96954819D02*
X151476191Y-96954819D01*
X151761905Y-96954819D02*
X151761905Y-95954819D01*
X151761905Y-95954819D02*
X151666667Y-96097676D01*
X151666667Y-96097676D02*
X151571429Y-96192914D01*
X151571429Y-96192914D02*
X151476191Y-96240533D01*
X152666667Y-95954819D02*
X152761905Y-95954819D01*
X152761905Y-95954819D02*
X152857143Y-96002438D01*
X152857143Y-96002438D02*
X152904762Y-96050057D01*
X152904762Y-96050057D02*
X152952381Y-96145295D01*
X152952381Y-96145295D02*
X153000000Y-96335771D01*
X153000000Y-96335771D02*
X153000000Y-96573866D01*
X153000000Y-96573866D02*
X152952381Y-96764342D01*
X152952381Y-96764342D02*
X152904762Y-96859580D01*
X152904762Y-96859580D02*
X152857143Y-96907200D01*
X152857143Y-96907200D02*
X152761905Y-96954819D01*
X152761905Y-96954819D02*
X152666667Y-96954819D01*
X152666667Y-96954819D02*
X152571429Y-96907200D01*
X152571429Y-96907200D02*
X152523810Y-96859580D01*
X152523810Y-96859580D02*
X152476191Y-96764342D01*
X152476191Y-96764342D02*
X152428572Y-96573866D01*
X152428572Y-96573866D02*
X152428572Y-96335771D01*
X152428572Y-96335771D02*
X152476191Y-96145295D01*
X152476191Y-96145295D02*
X152523810Y-96050057D01*
X152523810Y-96050057D02*
X152571429Y-96002438D01*
X152571429Y-96002438D02*
X152666667Y-95954819D01*
X153761905Y-96431009D02*
X153428572Y-96431009D01*
X153428572Y-96954819D02*
X153428572Y-95954819D01*
X153428572Y-95954819D02*
X153904762Y-95954819D01*
X154761905Y-95954819D02*
X154285715Y-95954819D01*
X154285715Y-95954819D02*
X154238096Y-96431009D01*
X154238096Y-96431009D02*
X154285715Y-96383390D01*
X154285715Y-96383390D02*
X154380953Y-96335771D01*
X154380953Y-96335771D02*
X154619048Y-96335771D01*
X154619048Y-96335771D02*
X154714286Y-96383390D01*
X154714286Y-96383390D02*
X154761905Y-96431009D01*
X154761905Y-96431009D02*
X154809524Y-96526247D01*
X154809524Y-96526247D02*
X154809524Y-96764342D01*
X154809524Y-96764342D02*
X154761905Y-96859580D01*
X154761905Y-96859580D02*
X154714286Y-96907200D01*
X154714286Y-96907200D02*
X154619048Y-96954819D01*
X154619048Y-96954819D02*
X154380953Y-96954819D01*
X154380953Y-96954819D02*
X154285715Y-96907200D01*
X154285715Y-96907200D02*
X154238096Y-96859580D01*
X158237200Y-91195713D02*
X158284819Y-91052856D01*
X158284819Y-91052856D02*
X158284819Y-90814761D01*
X158284819Y-90814761D02*
X158237200Y-90719523D01*
X158237200Y-90719523D02*
X158189580Y-90671904D01*
X158189580Y-90671904D02*
X158094342Y-90624285D01*
X158094342Y-90624285D02*
X157999104Y-90624285D01*
X157999104Y-90624285D02*
X157903866Y-90671904D01*
X157903866Y-90671904D02*
X157856247Y-90719523D01*
X157856247Y-90719523D02*
X157808628Y-90814761D01*
X157808628Y-90814761D02*
X157761009Y-91005237D01*
X157761009Y-91005237D02*
X157713390Y-91100475D01*
X157713390Y-91100475D02*
X157665771Y-91148094D01*
X157665771Y-91148094D02*
X157570533Y-91195713D01*
X157570533Y-91195713D02*
X157475295Y-91195713D01*
X157475295Y-91195713D02*
X157380057Y-91148094D01*
X157380057Y-91148094D02*
X157332438Y-91100475D01*
X157332438Y-91100475D02*
X157284819Y-91005237D01*
X157284819Y-91005237D02*
X157284819Y-90767142D01*
X157284819Y-90767142D02*
X157332438Y-90624285D01*
X157332438Y-85568095D02*
X157284819Y-85663333D01*
X157284819Y-85663333D02*
X157284819Y-85806190D01*
X157284819Y-85806190D02*
X157332438Y-85949047D01*
X157332438Y-85949047D02*
X157427676Y-86044285D01*
X157427676Y-86044285D02*
X157522914Y-86091904D01*
X157522914Y-86091904D02*
X157713390Y-86139523D01*
X157713390Y-86139523D02*
X157856247Y-86139523D01*
X157856247Y-86139523D02*
X158046723Y-86091904D01*
X158046723Y-86091904D02*
X158141961Y-86044285D01*
X158141961Y-86044285D02*
X158237200Y-85949047D01*
X158237200Y-85949047D02*
X158284819Y-85806190D01*
X158284819Y-85806190D02*
X158284819Y-85710952D01*
X158284819Y-85710952D02*
X158237200Y-85568095D01*
X158237200Y-85568095D02*
X158189580Y-85520476D01*
X158189580Y-85520476D02*
X157856247Y-85520476D01*
X157856247Y-85520476D02*
X157856247Y-85710952D01*
X157284819Y-83480476D02*
X157284819Y-83956666D01*
X157284819Y-83956666D02*
X157761009Y-84004285D01*
X157761009Y-84004285D02*
X157713390Y-83956666D01*
X157713390Y-83956666D02*
X157665771Y-83861428D01*
X157665771Y-83861428D02*
X157665771Y-83623333D01*
X157665771Y-83623333D02*
X157713390Y-83528095D01*
X157713390Y-83528095D02*
X157761009Y-83480476D01*
X157761009Y-83480476D02*
X157856247Y-83432857D01*
X157856247Y-83432857D02*
X158094342Y-83432857D01*
X158094342Y-83432857D02*
X158189580Y-83480476D01*
X158189580Y-83480476D02*
X158237200Y-83528095D01*
X158237200Y-83528095D02*
X158284819Y-83623333D01*
X158284819Y-83623333D02*
X158284819Y-83861428D01*
X158284819Y-83861428D02*
X158237200Y-83956666D01*
X158237200Y-83956666D02*
X158189580Y-84004285D01*
X157284819Y-83147142D02*
X158284819Y-82813809D01*
X158284819Y-82813809D02*
X157284819Y-82480476D01*
X157380057Y-89560475D02*
X157332438Y-89512856D01*
X157332438Y-89512856D02*
X157284819Y-89417618D01*
X157284819Y-89417618D02*
X157284819Y-89179523D01*
X157284819Y-89179523D02*
X157332438Y-89084285D01*
X157332438Y-89084285D02*
X157380057Y-89036666D01*
X157380057Y-89036666D02*
X157475295Y-88989047D01*
X157475295Y-88989047D02*
X157570533Y-88989047D01*
X157570533Y-88989047D02*
X157713390Y-89036666D01*
X157713390Y-89036666D02*
X158284819Y-89608094D01*
X158284819Y-89608094D02*
X158284819Y-88989047D01*
X157618152Y-88131904D02*
X158284819Y-88131904D01*
X157237200Y-88369999D02*
X157951485Y-88608094D01*
X157951485Y-88608094D02*
X157951485Y-87989047D01*
X157284819Y-87750951D02*
X158284819Y-87417618D01*
X158284819Y-87417618D02*
X157284819Y-87084285D01*
X158284819Y-94211904D02*
X157284819Y-94211904D01*
X157284819Y-94211904D02*
X157284819Y-93830952D01*
X157284819Y-93830952D02*
X157332438Y-93735714D01*
X157332438Y-93735714D02*
X157380057Y-93688095D01*
X157380057Y-93688095D02*
X157475295Y-93640476D01*
X157475295Y-93640476D02*
X157618152Y-93640476D01*
X157618152Y-93640476D02*
X157713390Y-93688095D01*
X157713390Y-93688095D02*
X157761009Y-93735714D01*
X157761009Y-93735714D02*
X157808628Y-93830952D01*
X157808628Y-93830952D02*
X157808628Y-94211904D01*
X157332438Y-92688095D02*
X157284819Y-92783333D01*
X157284819Y-92783333D02*
X157284819Y-92926190D01*
X157284819Y-92926190D02*
X157332438Y-93069047D01*
X157332438Y-93069047D02*
X157427676Y-93164285D01*
X157427676Y-93164285D02*
X157522914Y-93211904D01*
X157522914Y-93211904D02*
X157713390Y-93259523D01*
X157713390Y-93259523D02*
X157856247Y-93259523D01*
X157856247Y-93259523D02*
X158046723Y-93211904D01*
X158046723Y-93211904D02*
X158141961Y-93164285D01*
X158141961Y-93164285D02*
X158237200Y-93069047D01*
X158237200Y-93069047D02*
X158284819Y-92926190D01*
X158284819Y-92926190D02*
X158284819Y-92830952D01*
X158284819Y-92830952D02*
X158237200Y-92688095D01*
X158237200Y-92688095D02*
X158189580Y-92640476D01*
X158189580Y-92640476D02*
X157856247Y-92640476D01*
X157856247Y-92640476D02*
X157856247Y-92830952D01*
X207499819Y-93875220D02*
X208309342Y-93875220D01*
X208309342Y-93875220D02*
X208404580Y-93827601D01*
X208404580Y-93827601D02*
X208452200Y-93779982D01*
X208452200Y-93779982D02*
X208499819Y-93684744D01*
X208499819Y-93684744D02*
X208499819Y-93494268D01*
X208499819Y-93494268D02*
X208452200Y-93399030D01*
X208452200Y-93399030D02*
X208404580Y-93351411D01*
X208404580Y-93351411D02*
X208309342Y-93303792D01*
X208309342Y-93303792D02*
X207499819Y-93303792D01*
X208452200Y-92875220D02*
X208499819Y-92732363D01*
X208499819Y-92732363D02*
X208499819Y-92494268D01*
X208499819Y-92494268D02*
X208452200Y-92399030D01*
X208452200Y-92399030D02*
X208404580Y-92351411D01*
X208404580Y-92351411D02*
X208309342Y-92303792D01*
X208309342Y-92303792D02*
X208214104Y-92303792D01*
X208214104Y-92303792D02*
X208118866Y-92351411D01*
X208118866Y-92351411D02*
X208071247Y-92399030D01*
X208071247Y-92399030D02*
X208023628Y-92494268D01*
X208023628Y-92494268D02*
X207976009Y-92684744D01*
X207976009Y-92684744D02*
X207928390Y-92779982D01*
X207928390Y-92779982D02*
X207880771Y-92827601D01*
X207880771Y-92827601D02*
X207785533Y-92875220D01*
X207785533Y-92875220D02*
X207690295Y-92875220D01*
X207690295Y-92875220D02*
X207595057Y-92827601D01*
X207595057Y-92827601D02*
X207547438Y-92779982D01*
X207547438Y-92779982D02*
X207499819Y-92684744D01*
X207499819Y-92684744D02*
X207499819Y-92446649D01*
X207499819Y-92446649D02*
X207547438Y-92303792D01*
X207976009Y-91541887D02*
X208023628Y-91399030D01*
X208023628Y-91399030D02*
X208071247Y-91351411D01*
X208071247Y-91351411D02*
X208166485Y-91303792D01*
X208166485Y-91303792D02*
X208309342Y-91303792D01*
X208309342Y-91303792D02*
X208404580Y-91351411D01*
X208404580Y-91351411D02*
X208452200Y-91399030D01*
X208452200Y-91399030D02*
X208499819Y-91494268D01*
X208499819Y-91494268D02*
X208499819Y-91875220D01*
X208499819Y-91875220D02*
X207499819Y-91875220D01*
X207499819Y-91875220D02*
X207499819Y-91541887D01*
X207499819Y-91541887D02*
X207547438Y-91446649D01*
X207547438Y-91446649D02*
X207595057Y-91399030D01*
X207595057Y-91399030D02*
X207690295Y-91351411D01*
X207690295Y-91351411D02*
X207785533Y-91351411D01*
X207785533Y-91351411D02*
X207880771Y-91399030D01*
X207880771Y-91399030D02*
X207928390Y-91446649D01*
X207928390Y-91446649D02*
X207976009Y-91541887D01*
X207976009Y-91541887D02*
X207976009Y-91875220D01*
X208404580Y-90303792D02*
X208452200Y-90351411D01*
X208452200Y-90351411D02*
X208499819Y-90494268D01*
X208499819Y-90494268D02*
X208499819Y-90589506D01*
X208499819Y-90589506D02*
X208452200Y-90732363D01*
X208452200Y-90732363D02*
X208356961Y-90827601D01*
X208356961Y-90827601D02*
X208261723Y-90875220D01*
X208261723Y-90875220D02*
X208071247Y-90922839D01*
X208071247Y-90922839D02*
X207928390Y-90922839D01*
X207928390Y-90922839D02*
X207737914Y-90875220D01*
X207737914Y-90875220D02*
X207642676Y-90827601D01*
X207642676Y-90827601D02*
X207547438Y-90732363D01*
X207547438Y-90732363D02*
X207499819Y-90589506D01*
X207499819Y-90589506D02*
X207499819Y-90494268D01*
X207499819Y-90494268D02*
X207547438Y-90351411D01*
X207547438Y-90351411D02*
X207595057Y-90303792D01*
X212656819Y-87023922D02*
X212656819Y-87500112D01*
X212656819Y-87500112D02*
X213133009Y-87547731D01*
X213133009Y-87547731D02*
X213085390Y-87500112D01*
X213085390Y-87500112D02*
X213037771Y-87404874D01*
X213037771Y-87404874D02*
X213037771Y-87166779D01*
X213037771Y-87166779D02*
X213085390Y-87071541D01*
X213085390Y-87071541D02*
X213133009Y-87023922D01*
X213133009Y-87023922D02*
X213228247Y-86976303D01*
X213228247Y-86976303D02*
X213466342Y-86976303D01*
X213466342Y-86976303D02*
X213561580Y-87023922D01*
X213561580Y-87023922D02*
X213609200Y-87071541D01*
X213609200Y-87071541D02*
X213656819Y-87166779D01*
X213656819Y-87166779D02*
X213656819Y-87404874D01*
X213656819Y-87404874D02*
X213609200Y-87500112D01*
X213609200Y-87500112D02*
X213561580Y-87547731D01*
X212656819Y-86690588D02*
X213656819Y-86357255D01*
X213656819Y-86357255D02*
X212656819Y-86023922D01*
X217736819Y-89023921D02*
X217736819Y-88404874D01*
X217736819Y-88404874D02*
X218117771Y-88738207D01*
X218117771Y-88738207D02*
X218117771Y-88595350D01*
X218117771Y-88595350D02*
X218165390Y-88500112D01*
X218165390Y-88500112D02*
X218213009Y-88452493D01*
X218213009Y-88452493D02*
X218308247Y-88404874D01*
X218308247Y-88404874D02*
X218546342Y-88404874D01*
X218546342Y-88404874D02*
X218641580Y-88452493D01*
X218641580Y-88452493D02*
X218689200Y-88500112D01*
X218689200Y-88500112D02*
X218736819Y-88595350D01*
X218736819Y-88595350D02*
X218736819Y-88881064D01*
X218736819Y-88881064D02*
X218689200Y-88976302D01*
X218689200Y-88976302D02*
X218641580Y-89023921D01*
X218641580Y-87976302D02*
X218689200Y-87928683D01*
X218689200Y-87928683D02*
X218736819Y-87976302D01*
X218736819Y-87976302D02*
X218689200Y-88023921D01*
X218689200Y-88023921D02*
X218641580Y-87976302D01*
X218641580Y-87976302D02*
X218736819Y-87976302D01*
X217736819Y-87595350D02*
X217736819Y-86976303D01*
X217736819Y-86976303D02*
X218117771Y-87309636D01*
X218117771Y-87309636D02*
X218117771Y-87166779D01*
X218117771Y-87166779D02*
X218165390Y-87071541D01*
X218165390Y-87071541D02*
X218213009Y-87023922D01*
X218213009Y-87023922D02*
X218308247Y-86976303D01*
X218308247Y-86976303D02*
X218546342Y-86976303D01*
X218546342Y-86976303D02*
X218641580Y-87023922D01*
X218641580Y-87023922D02*
X218689200Y-87071541D01*
X218689200Y-87071541D02*
X218736819Y-87166779D01*
X218736819Y-87166779D02*
X218736819Y-87452493D01*
X218736819Y-87452493D02*
X218689200Y-87547731D01*
X218689200Y-87547731D02*
X218641580Y-87595350D01*
X217736819Y-86690588D02*
X218736819Y-86357255D01*
X218736819Y-86357255D02*
X217736819Y-86023922D01*
X215244438Y-88214398D02*
X215196819Y-88309636D01*
X215196819Y-88309636D02*
X215196819Y-88452493D01*
X215196819Y-88452493D02*
X215244438Y-88595350D01*
X215244438Y-88595350D02*
X215339676Y-88690588D01*
X215339676Y-88690588D02*
X215434914Y-88738207D01*
X215434914Y-88738207D02*
X215625390Y-88785826D01*
X215625390Y-88785826D02*
X215768247Y-88785826D01*
X215768247Y-88785826D02*
X215958723Y-88738207D01*
X215958723Y-88738207D02*
X216053961Y-88690588D01*
X216053961Y-88690588D02*
X216149200Y-88595350D01*
X216149200Y-88595350D02*
X216196819Y-88452493D01*
X216196819Y-88452493D02*
X216196819Y-88357255D01*
X216196819Y-88357255D02*
X216149200Y-88214398D01*
X216149200Y-88214398D02*
X216101580Y-88166779D01*
X216101580Y-88166779D02*
X215768247Y-88166779D01*
X215768247Y-88166779D02*
X215768247Y-88357255D01*
X216196819Y-87738207D02*
X215196819Y-87738207D01*
X215196819Y-87738207D02*
X216196819Y-87166779D01*
X216196819Y-87166779D02*
X215196819Y-87166779D01*
X216196819Y-86690588D02*
X215196819Y-86690588D01*
X215196819Y-86690588D02*
X215196819Y-86452493D01*
X215196819Y-86452493D02*
X215244438Y-86309636D01*
X215244438Y-86309636D02*
X215339676Y-86214398D01*
X215339676Y-86214398D02*
X215434914Y-86166779D01*
X215434914Y-86166779D02*
X215625390Y-86119160D01*
X215625390Y-86119160D02*
X215768247Y-86119160D01*
X215768247Y-86119160D02*
X215958723Y-86166779D01*
X215958723Y-86166779D02*
X216053961Y-86214398D01*
X216053961Y-86214398D02*
X216149200Y-86309636D01*
X216149200Y-86309636D02*
X216196819Y-86452493D01*
X216196819Y-86452493D02*
X216196819Y-86690588D01*
X244592800Y-100238095D02*
X244545180Y-100380952D01*
X244545180Y-100380952D02*
X244545180Y-100619047D01*
X244545180Y-100619047D02*
X244592800Y-100714285D01*
X244592800Y-100714285D02*
X244640419Y-100761904D01*
X244640419Y-100761904D02*
X244735657Y-100809523D01*
X244735657Y-100809523D02*
X244830895Y-100809523D01*
X244830895Y-100809523D02*
X244926133Y-100761904D01*
X244926133Y-100761904D02*
X244973752Y-100714285D01*
X244973752Y-100714285D02*
X245021371Y-100619047D01*
X245021371Y-100619047D02*
X245068990Y-100428571D01*
X245068990Y-100428571D02*
X245116609Y-100333333D01*
X245116609Y-100333333D02*
X245164228Y-100285714D01*
X245164228Y-100285714D02*
X245259466Y-100238095D01*
X245259466Y-100238095D02*
X245354704Y-100238095D01*
X245354704Y-100238095D02*
X245449942Y-100285714D01*
X245449942Y-100285714D02*
X245497561Y-100333333D01*
X245497561Y-100333333D02*
X245545180Y-100428571D01*
X245545180Y-100428571D02*
X245545180Y-100666666D01*
X245545180Y-100666666D02*
X245497561Y-100809523D01*
X244545180Y-101761904D02*
X244545180Y-101190476D01*
X244545180Y-101476190D02*
X245545180Y-101476190D01*
X245545180Y-101476190D02*
X245402323Y-101380952D01*
X245402323Y-101380952D02*
X245307085Y-101285714D01*
X245307085Y-101285714D02*
X245259466Y-101190476D01*
X215615333Y-115704819D02*
X215282000Y-115228628D01*
X215043905Y-115704819D02*
X215043905Y-114704819D01*
X215043905Y-114704819D02*
X215424857Y-114704819D01*
X215424857Y-114704819D02*
X215520095Y-114752438D01*
X215520095Y-114752438D02*
X215567714Y-114800057D01*
X215567714Y-114800057D02*
X215615333Y-114895295D01*
X215615333Y-114895295D02*
X215615333Y-115038152D01*
X215615333Y-115038152D02*
X215567714Y-115133390D01*
X215567714Y-115133390D02*
X215520095Y-115181009D01*
X215520095Y-115181009D02*
X215424857Y-115228628D01*
X215424857Y-115228628D02*
X215043905Y-115228628D01*
X216567714Y-115704819D02*
X215996286Y-115704819D01*
X216282000Y-115704819D02*
X216282000Y-114704819D01*
X216282000Y-114704819D02*
X216186762Y-114847676D01*
X216186762Y-114847676D02*
X216091524Y-114942914D01*
X216091524Y-114942914D02*
X215996286Y-114990533D01*
X219591523Y-115664819D02*
X219020095Y-115664819D01*
X219305809Y-115664819D02*
X219305809Y-114664819D01*
X219305809Y-114664819D02*
X219210571Y-114807676D01*
X219210571Y-114807676D02*
X219115333Y-114902914D01*
X219115333Y-114902914D02*
X219020095Y-114950533D01*
X220210571Y-114664819D02*
X220305809Y-114664819D01*
X220305809Y-114664819D02*
X220401047Y-114712438D01*
X220401047Y-114712438D02*
X220448666Y-114760057D01*
X220448666Y-114760057D02*
X220496285Y-114855295D01*
X220496285Y-114855295D02*
X220543904Y-115045771D01*
X220543904Y-115045771D02*
X220543904Y-115283866D01*
X220543904Y-115283866D02*
X220496285Y-115474342D01*
X220496285Y-115474342D02*
X220448666Y-115569580D01*
X220448666Y-115569580D02*
X220401047Y-115617200D01*
X220401047Y-115617200D02*
X220305809Y-115664819D01*
X220305809Y-115664819D02*
X220210571Y-115664819D01*
X220210571Y-115664819D02*
X220115333Y-115617200D01*
X220115333Y-115617200D02*
X220067714Y-115569580D01*
X220067714Y-115569580D02*
X220020095Y-115474342D01*
X220020095Y-115474342D02*
X219972476Y-115283866D01*
X219972476Y-115283866D02*
X219972476Y-115045771D01*
X219972476Y-115045771D02*
X220020095Y-114855295D01*
X220020095Y-114855295D02*
X220067714Y-114760057D01*
X220067714Y-114760057D02*
X220115333Y-114712438D01*
X220115333Y-114712438D02*
X220210571Y-114664819D01*
X220972476Y-115664819D02*
X220972476Y-114664819D01*
X221543904Y-115664819D02*
X221115333Y-115093390D01*
X221543904Y-114664819D02*
X220972476Y-115236247D01*
X184460333Y-93704819D02*
X184127000Y-93228628D01*
X183888905Y-93704819D02*
X183888905Y-92704819D01*
X183888905Y-92704819D02*
X184269857Y-92704819D01*
X184269857Y-92704819D02*
X184365095Y-92752438D01*
X184365095Y-92752438D02*
X184412714Y-92800057D01*
X184412714Y-92800057D02*
X184460333Y-92895295D01*
X184460333Y-92895295D02*
X184460333Y-93038152D01*
X184460333Y-93038152D02*
X184412714Y-93133390D01*
X184412714Y-93133390D02*
X184365095Y-93181009D01*
X184365095Y-93181009D02*
X184269857Y-93228628D01*
X184269857Y-93228628D02*
X183888905Y-93228628D01*
X185317476Y-93038152D02*
X185317476Y-93704819D01*
X185079381Y-92657200D02*
X184841286Y-93371485D01*
X184841286Y-93371485D02*
X185460333Y-93371485D01*
X184091523Y-99204819D02*
X183520095Y-99204819D01*
X183805809Y-99204819D02*
X183805809Y-98204819D01*
X183805809Y-98204819D02*
X183710571Y-98347676D01*
X183710571Y-98347676D02*
X183615333Y-98442914D01*
X183615333Y-98442914D02*
X183520095Y-98490533D01*
X184710571Y-98204819D02*
X184805809Y-98204819D01*
X184805809Y-98204819D02*
X184901047Y-98252438D01*
X184901047Y-98252438D02*
X184948666Y-98300057D01*
X184948666Y-98300057D02*
X184996285Y-98395295D01*
X184996285Y-98395295D02*
X185043904Y-98585771D01*
X185043904Y-98585771D02*
X185043904Y-98823866D01*
X185043904Y-98823866D02*
X184996285Y-99014342D01*
X184996285Y-99014342D02*
X184948666Y-99109580D01*
X184948666Y-99109580D02*
X184901047Y-99157200D01*
X184901047Y-99157200D02*
X184805809Y-99204819D01*
X184805809Y-99204819D02*
X184710571Y-99204819D01*
X184710571Y-99204819D02*
X184615333Y-99157200D01*
X184615333Y-99157200D02*
X184567714Y-99109580D01*
X184567714Y-99109580D02*
X184520095Y-99014342D01*
X184520095Y-99014342D02*
X184472476Y-98823866D01*
X184472476Y-98823866D02*
X184472476Y-98585771D01*
X184472476Y-98585771D02*
X184520095Y-98395295D01*
X184520095Y-98395295D02*
X184567714Y-98300057D01*
X184567714Y-98300057D02*
X184615333Y-98252438D01*
X184615333Y-98252438D02*
X184710571Y-98204819D01*
X185472476Y-99204819D02*
X185472476Y-98204819D01*
X186043904Y-99204819D02*
X185615333Y-98633390D01*
X186043904Y-98204819D02*
X185472476Y-98776247D01*
X131238095Y-86954819D02*
X131809523Y-86954819D01*
X131523809Y-87954819D02*
X131523809Y-86954819D01*
X132142857Y-87954819D02*
X132142857Y-86954819D01*
X132142857Y-86954819D02*
X132523809Y-86954819D01*
X132523809Y-86954819D02*
X132619047Y-87002438D01*
X132619047Y-87002438D02*
X132666666Y-87050057D01*
X132666666Y-87050057D02*
X132714285Y-87145295D01*
X132714285Y-87145295D02*
X132714285Y-87288152D01*
X132714285Y-87288152D02*
X132666666Y-87383390D01*
X132666666Y-87383390D02*
X132619047Y-87431009D01*
X132619047Y-87431009D02*
X132523809Y-87478628D01*
X132523809Y-87478628D02*
X132142857Y-87478628D01*
X133095238Y-87050057D02*
X133142857Y-87002438D01*
X133142857Y-87002438D02*
X133238095Y-86954819D01*
X133238095Y-86954819D02*
X133476190Y-86954819D01*
X133476190Y-86954819D02*
X133571428Y-87002438D01*
X133571428Y-87002438D02*
X133619047Y-87050057D01*
X133619047Y-87050057D02*
X133666666Y-87145295D01*
X133666666Y-87145295D02*
X133666666Y-87240533D01*
X133666666Y-87240533D02*
X133619047Y-87383390D01*
X133619047Y-87383390D02*
X133047619Y-87954819D01*
X133047619Y-87954819D02*
X133666666Y-87954819D01*
X132309523Y-88454819D02*
X131833333Y-88454819D01*
X131833333Y-88454819D02*
X131785714Y-88931009D01*
X131785714Y-88931009D02*
X131833333Y-88883390D01*
X131833333Y-88883390D02*
X131928571Y-88835771D01*
X131928571Y-88835771D02*
X132166666Y-88835771D01*
X132166666Y-88835771D02*
X132261904Y-88883390D01*
X132261904Y-88883390D02*
X132309523Y-88931009D01*
X132309523Y-88931009D02*
X132357142Y-89026247D01*
X132357142Y-89026247D02*
X132357142Y-89264342D01*
X132357142Y-89264342D02*
X132309523Y-89359580D01*
X132309523Y-89359580D02*
X132261904Y-89407200D01*
X132261904Y-89407200D02*
X132166666Y-89454819D01*
X132166666Y-89454819D02*
X131928571Y-89454819D01*
X131928571Y-89454819D02*
X131833333Y-89407200D01*
X131833333Y-89407200D02*
X131785714Y-89359580D01*
X132642857Y-88454819D02*
X132976190Y-89454819D01*
X132976190Y-89454819D02*
X133309523Y-88454819D01*
X193289160Y-112907200D02*
X193432017Y-112954819D01*
X193432017Y-112954819D02*
X193670112Y-112954819D01*
X193670112Y-112954819D02*
X193765350Y-112907200D01*
X193765350Y-112907200D02*
X193812969Y-112859580D01*
X193812969Y-112859580D02*
X193860588Y-112764342D01*
X193860588Y-112764342D02*
X193860588Y-112669104D01*
X193860588Y-112669104D02*
X193812969Y-112573866D01*
X193812969Y-112573866D02*
X193765350Y-112526247D01*
X193765350Y-112526247D02*
X193670112Y-112478628D01*
X193670112Y-112478628D02*
X193479636Y-112431009D01*
X193479636Y-112431009D02*
X193384398Y-112383390D01*
X193384398Y-112383390D02*
X193336779Y-112335771D01*
X193336779Y-112335771D02*
X193289160Y-112240533D01*
X193289160Y-112240533D02*
X193289160Y-112145295D01*
X193289160Y-112145295D02*
X193336779Y-112050057D01*
X193336779Y-112050057D02*
X193384398Y-112002438D01*
X193384398Y-112002438D02*
X193479636Y-111954819D01*
X193479636Y-111954819D02*
X193717731Y-111954819D01*
X193717731Y-111954819D02*
X193860588Y-112002438D01*
X194193922Y-111954819D02*
X194432017Y-112954819D01*
X194432017Y-112954819D02*
X194622493Y-112240533D01*
X194622493Y-112240533D02*
X194812969Y-112954819D01*
X194812969Y-112954819D02*
X195051065Y-111954819D01*
X195955826Y-112954819D02*
X195384398Y-112954819D01*
X195670112Y-112954819D02*
X195670112Y-111954819D01*
X195670112Y-111954819D02*
X195574874Y-112097676D01*
X195574874Y-112097676D02*
X195479636Y-112192914D01*
X195479636Y-112192914D02*
X195384398Y-112240533D01*
X198083333Y-103704819D02*
X198083333Y-102704819D01*
X198083333Y-102704819D02*
X198464285Y-102704819D01*
X198464285Y-102704819D02*
X198559523Y-102752438D01*
X198559523Y-102752438D02*
X198607142Y-102800057D01*
X198607142Y-102800057D02*
X198654761Y-102895295D01*
X198654761Y-102895295D02*
X198654761Y-103038152D01*
X198654761Y-103038152D02*
X198607142Y-103133390D01*
X198607142Y-103133390D02*
X198559523Y-103181009D01*
X198559523Y-103181009D02*
X198464285Y-103228628D01*
X198464285Y-103228628D02*
X198083333Y-103228628D01*
X199083333Y-103181009D02*
X199416666Y-103181009D01*
X199559523Y-103704819D02*
X199083333Y-103704819D01*
X199083333Y-103704819D02*
X199083333Y-102704819D01*
X199083333Y-102704819D02*
X199559523Y-102704819D01*
X200559523Y-103609580D02*
X200511904Y-103657200D01*
X200511904Y-103657200D02*
X200369047Y-103704819D01*
X200369047Y-103704819D02*
X200273809Y-103704819D01*
X200273809Y-103704819D02*
X200130952Y-103657200D01*
X200130952Y-103657200D02*
X200035714Y-103561961D01*
X200035714Y-103561961D02*
X199988095Y-103466723D01*
X199988095Y-103466723D02*
X199940476Y-103276247D01*
X199940476Y-103276247D02*
X199940476Y-103133390D01*
X199940476Y-103133390D02*
X199988095Y-102942914D01*
X199988095Y-102942914D02*
X200035714Y-102847676D01*
X200035714Y-102847676D02*
X200130952Y-102752438D01*
X200130952Y-102752438D02*
X200273809Y-102704819D01*
X200273809Y-102704819D02*
X200369047Y-102704819D01*
X200369047Y-102704819D02*
X200511904Y-102752438D01*
X200511904Y-102752438D02*
X200559523Y-102800057D01*
X201511904Y-103704819D02*
X200940476Y-103704819D01*
X201226190Y-103704819D02*
X201226190Y-102704819D01*
X201226190Y-102704819D02*
X201130952Y-102847676D01*
X201130952Y-102847676D02*
X201035714Y-102942914D01*
X201035714Y-102942914D02*
X200940476Y-102990533D01*
X202464285Y-103704819D02*
X201892857Y-103704819D01*
X202178571Y-103704819D02*
X202178571Y-102704819D01*
X202178571Y-102704819D02*
X202083333Y-102847676D01*
X202083333Y-102847676D02*
X201988095Y-102942914D01*
X201988095Y-102942914D02*
X201892857Y-102990533D01*
X233476191Y-114039819D02*
X233476191Y-113039819D01*
X233476191Y-113039819D02*
X233809524Y-113754104D01*
X233809524Y-113754104D02*
X234142857Y-113039819D01*
X234142857Y-113039819D02*
X234142857Y-114039819D01*
X234571429Y-113135057D02*
X234619048Y-113087438D01*
X234619048Y-113087438D02*
X234714286Y-113039819D01*
X234714286Y-113039819D02*
X234952381Y-113039819D01*
X234952381Y-113039819D02*
X235047619Y-113087438D01*
X235047619Y-113087438D02*
X235095238Y-113135057D01*
X235095238Y-113135057D02*
X235142857Y-113230295D01*
X235142857Y-113230295D02*
X235142857Y-113325533D01*
X235142857Y-113325533D02*
X235095238Y-113468390D01*
X235095238Y-113468390D02*
X234523810Y-114039819D01*
X234523810Y-114039819D02*
X235142857Y-114039819D01*
X235571429Y-113944580D02*
X235619048Y-113992200D01*
X235619048Y-113992200D02*
X235571429Y-114039819D01*
X235571429Y-114039819D02*
X235523810Y-113992200D01*
X235523810Y-113992200D02*
X235571429Y-113944580D01*
X235571429Y-113944580D02*
X235571429Y-114039819D01*
X236523809Y-113039819D02*
X236047619Y-113039819D01*
X236047619Y-113039819D02*
X236000000Y-113516009D01*
X236000000Y-113516009D02*
X236047619Y-113468390D01*
X236047619Y-113468390D02*
X236142857Y-113420771D01*
X236142857Y-113420771D02*
X236380952Y-113420771D01*
X236380952Y-113420771D02*
X236476190Y-113468390D01*
X236476190Y-113468390D02*
X236523809Y-113516009D01*
X236523809Y-113516009D02*
X236571428Y-113611247D01*
X236571428Y-113611247D02*
X236571428Y-113849342D01*
X236571428Y-113849342D02*
X236523809Y-113944580D01*
X236523809Y-113944580D02*
X236476190Y-113992200D01*
X236476190Y-113992200D02*
X236380952Y-114039819D01*
X236380952Y-114039819D02*
X236142857Y-114039819D01*
X236142857Y-114039819D02*
X236047619Y-113992200D01*
X236047619Y-113992200D02*
X236000000Y-113944580D01*
X215615333Y-110704819D02*
X215282000Y-110228628D01*
X215043905Y-110704819D02*
X215043905Y-109704819D01*
X215043905Y-109704819D02*
X215424857Y-109704819D01*
X215424857Y-109704819D02*
X215520095Y-109752438D01*
X215520095Y-109752438D02*
X215567714Y-109800057D01*
X215567714Y-109800057D02*
X215615333Y-109895295D01*
X215615333Y-109895295D02*
X215615333Y-110038152D01*
X215615333Y-110038152D02*
X215567714Y-110133390D01*
X215567714Y-110133390D02*
X215520095Y-110181009D01*
X215520095Y-110181009D02*
X215424857Y-110228628D01*
X215424857Y-110228628D02*
X215043905Y-110228628D01*
X215996286Y-109800057D02*
X216043905Y-109752438D01*
X216043905Y-109752438D02*
X216139143Y-109704819D01*
X216139143Y-109704819D02*
X216377238Y-109704819D01*
X216377238Y-109704819D02*
X216472476Y-109752438D01*
X216472476Y-109752438D02*
X216520095Y-109800057D01*
X216520095Y-109800057D02*
X216567714Y-109895295D01*
X216567714Y-109895295D02*
X216567714Y-109990533D01*
X216567714Y-109990533D02*
X216520095Y-110133390D01*
X216520095Y-110133390D02*
X215948667Y-110704819D01*
X215948667Y-110704819D02*
X216567714Y-110704819D01*
X219591523Y-110584819D02*
X219020095Y-110584819D01*
X219305809Y-110584819D02*
X219305809Y-109584819D01*
X219305809Y-109584819D02*
X219210571Y-109727676D01*
X219210571Y-109727676D02*
X219115333Y-109822914D01*
X219115333Y-109822914D02*
X219020095Y-109870533D01*
X220210571Y-109584819D02*
X220305809Y-109584819D01*
X220305809Y-109584819D02*
X220401047Y-109632438D01*
X220401047Y-109632438D02*
X220448666Y-109680057D01*
X220448666Y-109680057D02*
X220496285Y-109775295D01*
X220496285Y-109775295D02*
X220543904Y-109965771D01*
X220543904Y-109965771D02*
X220543904Y-110203866D01*
X220543904Y-110203866D02*
X220496285Y-110394342D01*
X220496285Y-110394342D02*
X220448666Y-110489580D01*
X220448666Y-110489580D02*
X220401047Y-110537200D01*
X220401047Y-110537200D02*
X220305809Y-110584819D01*
X220305809Y-110584819D02*
X220210571Y-110584819D01*
X220210571Y-110584819D02*
X220115333Y-110537200D01*
X220115333Y-110537200D02*
X220067714Y-110489580D01*
X220067714Y-110489580D02*
X220020095Y-110394342D01*
X220020095Y-110394342D02*
X219972476Y-110203866D01*
X219972476Y-110203866D02*
X219972476Y-109965771D01*
X219972476Y-109965771D02*
X220020095Y-109775295D01*
X220020095Y-109775295D02*
X220067714Y-109680057D01*
X220067714Y-109680057D02*
X220115333Y-109632438D01*
X220115333Y-109632438D02*
X220210571Y-109584819D01*
X220972476Y-110584819D02*
X220972476Y-109584819D01*
X221543904Y-110584819D02*
X221115333Y-110013390D01*
X221543904Y-109584819D02*
X220972476Y-110156247D01*
X189433905Y-86954819D02*
X189433905Y-85954819D01*
X189433905Y-85954819D02*
X189672000Y-85954819D01*
X189672000Y-85954819D02*
X189814857Y-86002438D01*
X189814857Y-86002438D02*
X189910095Y-86097676D01*
X189910095Y-86097676D02*
X189957714Y-86192914D01*
X189957714Y-86192914D02*
X190005333Y-86383390D01*
X190005333Y-86383390D02*
X190005333Y-86526247D01*
X190005333Y-86526247D02*
X189957714Y-86716723D01*
X189957714Y-86716723D02*
X189910095Y-86811961D01*
X189910095Y-86811961D02*
X189814857Y-86907200D01*
X189814857Y-86907200D02*
X189672000Y-86954819D01*
X189672000Y-86954819D02*
X189433905Y-86954819D01*
X190957714Y-86954819D02*
X190386286Y-86954819D01*
X190672000Y-86954819D02*
X190672000Y-85954819D01*
X190672000Y-85954819D02*
X190576762Y-86097676D01*
X190576762Y-86097676D02*
X190481524Y-86192914D01*
X190481524Y-86192914D02*
X190386286Y-86240533D01*
X188139142Y-88704819D02*
X187567714Y-88704819D01*
X187853428Y-88704819D02*
X187853428Y-87704819D01*
X187853428Y-87704819D02*
X187758190Y-87847676D01*
X187758190Y-87847676D02*
X187662952Y-87942914D01*
X187662952Y-87942914D02*
X187567714Y-87990533D01*
X188567714Y-88704819D02*
X188567714Y-87704819D01*
X188567714Y-87704819D02*
X189139142Y-88704819D01*
X189139142Y-88704819D02*
X189139142Y-87704819D01*
X190091523Y-87704819D02*
X189615333Y-87704819D01*
X189615333Y-87704819D02*
X189567714Y-88181009D01*
X189567714Y-88181009D02*
X189615333Y-88133390D01*
X189615333Y-88133390D02*
X189710571Y-88085771D01*
X189710571Y-88085771D02*
X189948666Y-88085771D01*
X189948666Y-88085771D02*
X190043904Y-88133390D01*
X190043904Y-88133390D02*
X190091523Y-88181009D01*
X190091523Y-88181009D02*
X190139142Y-88276247D01*
X190139142Y-88276247D02*
X190139142Y-88514342D01*
X190139142Y-88514342D02*
X190091523Y-88609580D01*
X190091523Y-88609580D02*
X190043904Y-88657200D01*
X190043904Y-88657200D02*
X189948666Y-88704819D01*
X189948666Y-88704819D02*
X189710571Y-88704819D01*
X189710571Y-88704819D02*
X189615333Y-88657200D01*
X189615333Y-88657200D02*
X189567714Y-88609580D01*
X190710571Y-88133390D02*
X190615333Y-88085771D01*
X190615333Y-88085771D02*
X190567714Y-88038152D01*
X190567714Y-88038152D02*
X190520095Y-87942914D01*
X190520095Y-87942914D02*
X190520095Y-87895295D01*
X190520095Y-87895295D02*
X190567714Y-87800057D01*
X190567714Y-87800057D02*
X190615333Y-87752438D01*
X190615333Y-87752438D02*
X190710571Y-87704819D01*
X190710571Y-87704819D02*
X190901047Y-87704819D01*
X190901047Y-87704819D02*
X190996285Y-87752438D01*
X190996285Y-87752438D02*
X191043904Y-87800057D01*
X191043904Y-87800057D02*
X191091523Y-87895295D01*
X191091523Y-87895295D02*
X191091523Y-87942914D01*
X191091523Y-87942914D02*
X191043904Y-88038152D01*
X191043904Y-88038152D02*
X190996285Y-88085771D01*
X190996285Y-88085771D02*
X190901047Y-88133390D01*
X190901047Y-88133390D02*
X190710571Y-88133390D01*
X190710571Y-88133390D02*
X190615333Y-88181009D01*
X190615333Y-88181009D02*
X190567714Y-88228628D01*
X190567714Y-88228628D02*
X190520095Y-88323866D01*
X190520095Y-88323866D02*
X190520095Y-88514342D01*
X190520095Y-88514342D02*
X190567714Y-88609580D01*
X190567714Y-88609580D02*
X190615333Y-88657200D01*
X190615333Y-88657200D02*
X190710571Y-88704819D01*
X190710571Y-88704819D02*
X190901047Y-88704819D01*
X190901047Y-88704819D02*
X190996285Y-88657200D01*
X190996285Y-88657200D02*
X191043904Y-88609580D01*
X191043904Y-88609580D02*
X191091523Y-88514342D01*
X191091523Y-88514342D02*
X191091523Y-88323866D01*
X191091523Y-88323866D02*
X191043904Y-88228628D01*
X191043904Y-88228628D02*
X190996285Y-88181009D01*
X190996285Y-88181009D02*
X190901047Y-88133390D01*
X192043904Y-88704819D02*
X191472476Y-88704819D01*
X191758190Y-88704819D02*
X191758190Y-87704819D01*
X191758190Y-87704819D02*
X191662952Y-87847676D01*
X191662952Y-87847676D02*
X191567714Y-87942914D01*
X191567714Y-87942914D02*
X191472476Y-87990533D01*
X192377238Y-87704819D02*
X193043904Y-87704819D01*
X193043904Y-87704819D02*
X192615333Y-88704819D01*
X193450095Y-83744819D02*
X193450095Y-82744819D01*
X194021523Y-83744819D02*
X193592952Y-83173390D01*
X194021523Y-82744819D02*
X193450095Y-83316247D01*
X173308667Y-90417200D02*
X173451524Y-90464819D01*
X173451524Y-90464819D02*
X173689619Y-90464819D01*
X173689619Y-90464819D02*
X173784857Y-90417200D01*
X173784857Y-90417200D02*
X173832476Y-90369580D01*
X173832476Y-90369580D02*
X173880095Y-90274342D01*
X173880095Y-90274342D02*
X173880095Y-90179104D01*
X173880095Y-90179104D02*
X173832476Y-90083866D01*
X173832476Y-90083866D02*
X173784857Y-90036247D01*
X173784857Y-90036247D02*
X173689619Y-89988628D01*
X173689619Y-89988628D02*
X173499143Y-89941009D01*
X173499143Y-89941009D02*
X173403905Y-89893390D01*
X173403905Y-89893390D02*
X173356286Y-89845771D01*
X173356286Y-89845771D02*
X173308667Y-89750533D01*
X173308667Y-89750533D02*
X173308667Y-89655295D01*
X173308667Y-89655295D02*
X173356286Y-89560057D01*
X173356286Y-89560057D02*
X173403905Y-89512438D01*
X173403905Y-89512438D02*
X173499143Y-89464819D01*
X173499143Y-89464819D02*
X173737238Y-89464819D01*
X173737238Y-89464819D02*
X173880095Y-89512438D01*
X174213429Y-89464819D02*
X174451524Y-90464819D01*
X174451524Y-90464819D02*
X174642000Y-89750533D01*
X174642000Y-89750533D02*
X174832476Y-90464819D01*
X174832476Y-90464819D02*
X175070572Y-89464819D01*
X175356286Y-89464819D02*
X175975333Y-89464819D01*
X175975333Y-89464819D02*
X175642000Y-89845771D01*
X175642000Y-89845771D02*
X175784857Y-89845771D01*
X175784857Y-89845771D02*
X175880095Y-89893390D01*
X175880095Y-89893390D02*
X175927714Y-89941009D01*
X175927714Y-89941009D02*
X175975333Y-90036247D01*
X175975333Y-90036247D02*
X175975333Y-90274342D01*
X175975333Y-90274342D02*
X175927714Y-90369580D01*
X175927714Y-90369580D02*
X175880095Y-90417200D01*
X175880095Y-90417200D02*
X175784857Y-90464819D01*
X175784857Y-90464819D02*
X175499143Y-90464819D01*
X175499143Y-90464819D02*
X175403905Y-90417200D01*
X175403905Y-90417200D02*
X175356286Y-90369580D01*
X168353333Y-90417200D02*
X168496190Y-90464819D01*
X168496190Y-90464819D02*
X168734285Y-90464819D01*
X168734285Y-90464819D02*
X168829523Y-90417200D01*
X168829523Y-90417200D02*
X168877142Y-90369580D01*
X168877142Y-90369580D02*
X168924761Y-90274342D01*
X168924761Y-90274342D02*
X168924761Y-90179104D01*
X168924761Y-90179104D02*
X168877142Y-90083866D01*
X168877142Y-90083866D02*
X168829523Y-90036247D01*
X168829523Y-90036247D02*
X168734285Y-89988628D01*
X168734285Y-89988628D02*
X168543809Y-89941009D01*
X168543809Y-89941009D02*
X168448571Y-89893390D01*
X168448571Y-89893390D02*
X168400952Y-89845771D01*
X168400952Y-89845771D02*
X168353333Y-89750533D01*
X168353333Y-89750533D02*
X168353333Y-89655295D01*
X168353333Y-89655295D02*
X168400952Y-89560057D01*
X168400952Y-89560057D02*
X168448571Y-89512438D01*
X168448571Y-89512438D02*
X168543809Y-89464819D01*
X168543809Y-89464819D02*
X168781904Y-89464819D01*
X168781904Y-89464819D02*
X168924761Y-89512438D01*
X169353333Y-90464819D02*
X169353333Y-89464819D01*
X169353333Y-89464819D02*
X169734285Y-89464819D01*
X169734285Y-89464819D02*
X169829523Y-89512438D01*
X169829523Y-89512438D02*
X169877142Y-89560057D01*
X169877142Y-89560057D02*
X169924761Y-89655295D01*
X169924761Y-89655295D02*
X169924761Y-89798152D01*
X169924761Y-89798152D02*
X169877142Y-89893390D01*
X169877142Y-89893390D02*
X169829523Y-89941009D01*
X169829523Y-89941009D02*
X169734285Y-89988628D01*
X169734285Y-89988628D02*
X169353333Y-89988628D01*
X170353333Y-90464819D02*
X170353333Y-89464819D01*
X170353333Y-89464819D02*
X170591428Y-89464819D01*
X170591428Y-89464819D02*
X170734285Y-89512438D01*
X170734285Y-89512438D02*
X170829523Y-89607676D01*
X170829523Y-89607676D02*
X170877142Y-89702914D01*
X170877142Y-89702914D02*
X170924761Y-89893390D01*
X170924761Y-89893390D02*
X170924761Y-90036247D01*
X170924761Y-90036247D02*
X170877142Y-90226723D01*
X170877142Y-90226723D02*
X170829523Y-90321961D01*
X170829523Y-90321961D02*
X170734285Y-90417200D01*
X170734285Y-90417200D02*
X170591428Y-90464819D01*
X170591428Y-90464819D02*
X170353333Y-90464819D01*
X171210476Y-89464819D02*
X171781904Y-89464819D01*
X171496190Y-90464819D02*
X171496190Y-89464819D01*
X168154761Y-106550057D02*
X168059523Y-106502438D01*
X168059523Y-106502438D02*
X167964285Y-106407200D01*
X167964285Y-106407200D02*
X167821428Y-106264342D01*
X167821428Y-106264342D02*
X167726190Y-106216723D01*
X167726190Y-106216723D02*
X167630952Y-106216723D01*
X167678571Y-106454819D02*
X167583333Y-106407200D01*
X167583333Y-106407200D02*
X167488095Y-106311961D01*
X167488095Y-106311961D02*
X167440476Y-106121485D01*
X167440476Y-106121485D02*
X167440476Y-105788152D01*
X167440476Y-105788152D02*
X167488095Y-105597676D01*
X167488095Y-105597676D02*
X167583333Y-105502438D01*
X167583333Y-105502438D02*
X167678571Y-105454819D01*
X167678571Y-105454819D02*
X167869047Y-105454819D01*
X167869047Y-105454819D02*
X167964285Y-105502438D01*
X167964285Y-105502438D02*
X168059523Y-105597676D01*
X168059523Y-105597676D02*
X168107142Y-105788152D01*
X168107142Y-105788152D02*
X168107142Y-106121485D01*
X168107142Y-106121485D02*
X168059523Y-106311961D01*
X168059523Y-106311961D02*
X167964285Y-106407200D01*
X167964285Y-106407200D02*
X167869047Y-106454819D01*
X167869047Y-106454819D02*
X167678571Y-106454819D01*
X169059523Y-106454819D02*
X168488095Y-106454819D01*
X168773809Y-106454819D02*
X168773809Y-105454819D01*
X168773809Y-105454819D02*
X168678571Y-105597676D01*
X168678571Y-105597676D02*
X168583333Y-105692914D01*
X168583333Y-105692914D02*
X168488095Y-105740533D01*
X169996285Y-98538152D02*
X169996285Y-99204819D01*
X169758190Y-98157200D02*
X169520095Y-98871485D01*
X169520095Y-98871485D02*
X170139142Y-98871485D01*
X170424857Y-98204819D02*
X171091523Y-98204819D01*
X171091523Y-98204819D02*
X170662952Y-99204819D01*
X172043904Y-99204819D02*
X171710571Y-98728628D01*
X171472476Y-99204819D02*
X171472476Y-98204819D01*
X171472476Y-98204819D02*
X171853428Y-98204819D01*
X171853428Y-98204819D02*
X171948666Y-98252438D01*
X171948666Y-98252438D02*
X171996285Y-98300057D01*
X171996285Y-98300057D02*
X172043904Y-98395295D01*
X172043904Y-98395295D02*
X172043904Y-98538152D01*
X172043904Y-98538152D02*
X171996285Y-98633390D01*
X171996285Y-98633390D02*
X171948666Y-98681009D01*
X171948666Y-98681009D02*
X171853428Y-98728628D01*
X171853428Y-98728628D02*
X171472476Y-98728628D01*
X170615333Y-93704819D02*
X170282000Y-93228628D01*
X170043905Y-93704819D02*
X170043905Y-92704819D01*
X170043905Y-92704819D02*
X170424857Y-92704819D01*
X170424857Y-92704819D02*
X170520095Y-92752438D01*
X170520095Y-92752438D02*
X170567714Y-92800057D01*
X170567714Y-92800057D02*
X170615333Y-92895295D01*
X170615333Y-92895295D02*
X170615333Y-93038152D01*
X170615333Y-93038152D02*
X170567714Y-93133390D01*
X170567714Y-93133390D02*
X170520095Y-93181009D01*
X170520095Y-93181009D02*
X170424857Y-93228628D01*
X170424857Y-93228628D02*
X170043905Y-93228628D01*
X171520095Y-92704819D02*
X171043905Y-92704819D01*
X171043905Y-92704819D02*
X170996286Y-93181009D01*
X170996286Y-93181009D02*
X171043905Y-93133390D01*
X171043905Y-93133390D02*
X171139143Y-93085771D01*
X171139143Y-93085771D02*
X171377238Y-93085771D01*
X171377238Y-93085771D02*
X171472476Y-93133390D01*
X171472476Y-93133390D02*
X171520095Y-93181009D01*
X171520095Y-93181009D02*
X171567714Y-93276247D01*
X171567714Y-93276247D02*
X171567714Y-93514342D01*
X171567714Y-93514342D02*
X171520095Y-93609580D01*
X171520095Y-93609580D02*
X171472476Y-93657200D01*
X171472476Y-93657200D02*
X171377238Y-93704819D01*
X171377238Y-93704819D02*
X171139143Y-93704819D01*
X171139143Y-93704819D02*
X171043905Y-93657200D01*
X171043905Y-93657200D02*
X170996286Y-93609580D01*
X121476191Y-91039819D02*
X121476191Y-90039819D01*
X121476191Y-90039819D02*
X121809524Y-90754104D01*
X121809524Y-90754104D02*
X122142857Y-90039819D01*
X122142857Y-90039819D02*
X122142857Y-91039819D01*
X122571429Y-90135057D02*
X122619048Y-90087438D01*
X122619048Y-90087438D02*
X122714286Y-90039819D01*
X122714286Y-90039819D02*
X122952381Y-90039819D01*
X122952381Y-90039819D02*
X123047619Y-90087438D01*
X123047619Y-90087438D02*
X123095238Y-90135057D01*
X123095238Y-90135057D02*
X123142857Y-90230295D01*
X123142857Y-90230295D02*
X123142857Y-90325533D01*
X123142857Y-90325533D02*
X123095238Y-90468390D01*
X123095238Y-90468390D02*
X122523810Y-91039819D01*
X122523810Y-91039819D02*
X123142857Y-91039819D01*
X123571429Y-90944580D02*
X123619048Y-90992200D01*
X123619048Y-90992200D02*
X123571429Y-91039819D01*
X123571429Y-91039819D02*
X123523810Y-90992200D01*
X123523810Y-90992200D02*
X123571429Y-90944580D01*
X123571429Y-90944580D02*
X123571429Y-91039819D01*
X124523809Y-90039819D02*
X124047619Y-90039819D01*
X124047619Y-90039819D02*
X124000000Y-90516009D01*
X124000000Y-90516009D02*
X124047619Y-90468390D01*
X124047619Y-90468390D02*
X124142857Y-90420771D01*
X124142857Y-90420771D02*
X124380952Y-90420771D01*
X124380952Y-90420771D02*
X124476190Y-90468390D01*
X124476190Y-90468390D02*
X124523809Y-90516009D01*
X124523809Y-90516009D02*
X124571428Y-90611247D01*
X124571428Y-90611247D02*
X124571428Y-90849342D01*
X124571428Y-90849342D02*
X124523809Y-90944580D01*
X124523809Y-90944580D02*
X124476190Y-90992200D01*
X124476190Y-90992200D02*
X124380952Y-91039819D01*
X124380952Y-91039819D02*
X124142857Y-91039819D01*
X124142857Y-91039819D02*
X124047619Y-90992200D01*
X124047619Y-90992200D02*
X124000000Y-90944580D01*
X215615333Y-105204819D02*
X215282000Y-104728628D01*
X215043905Y-105204819D02*
X215043905Y-104204819D01*
X215043905Y-104204819D02*
X215424857Y-104204819D01*
X215424857Y-104204819D02*
X215520095Y-104252438D01*
X215520095Y-104252438D02*
X215567714Y-104300057D01*
X215567714Y-104300057D02*
X215615333Y-104395295D01*
X215615333Y-104395295D02*
X215615333Y-104538152D01*
X215615333Y-104538152D02*
X215567714Y-104633390D01*
X215567714Y-104633390D02*
X215520095Y-104681009D01*
X215520095Y-104681009D02*
X215424857Y-104728628D01*
X215424857Y-104728628D02*
X215043905Y-104728628D01*
X215948667Y-104204819D02*
X216567714Y-104204819D01*
X216567714Y-104204819D02*
X216234381Y-104585771D01*
X216234381Y-104585771D02*
X216377238Y-104585771D01*
X216377238Y-104585771D02*
X216472476Y-104633390D01*
X216472476Y-104633390D02*
X216520095Y-104681009D01*
X216520095Y-104681009D02*
X216567714Y-104776247D01*
X216567714Y-104776247D02*
X216567714Y-105014342D01*
X216567714Y-105014342D02*
X216520095Y-105109580D01*
X216520095Y-105109580D02*
X216472476Y-105157200D01*
X216472476Y-105157200D02*
X216377238Y-105204819D01*
X216377238Y-105204819D02*
X216091524Y-105204819D01*
X216091524Y-105204819D02*
X215996286Y-105157200D01*
X215996286Y-105157200D02*
X215948667Y-105109580D01*
X219591523Y-105204819D02*
X219020095Y-105204819D01*
X219305809Y-105204819D02*
X219305809Y-104204819D01*
X219305809Y-104204819D02*
X219210571Y-104347676D01*
X219210571Y-104347676D02*
X219115333Y-104442914D01*
X219115333Y-104442914D02*
X219020095Y-104490533D01*
X220210571Y-104204819D02*
X220305809Y-104204819D01*
X220305809Y-104204819D02*
X220401047Y-104252438D01*
X220401047Y-104252438D02*
X220448666Y-104300057D01*
X220448666Y-104300057D02*
X220496285Y-104395295D01*
X220496285Y-104395295D02*
X220543904Y-104585771D01*
X220543904Y-104585771D02*
X220543904Y-104823866D01*
X220543904Y-104823866D02*
X220496285Y-105014342D01*
X220496285Y-105014342D02*
X220448666Y-105109580D01*
X220448666Y-105109580D02*
X220401047Y-105157200D01*
X220401047Y-105157200D02*
X220305809Y-105204819D01*
X220305809Y-105204819D02*
X220210571Y-105204819D01*
X220210571Y-105204819D02*
X220115333Y-105157200D01*
X220115333Y-105157200D02*
X220067714Y-105109580D01*
X220067714Y-105109580D02*
X220020095Y-105014342D01*
X220020095Y-105014342D02*
X219972476Y-104823866D01*
X219972476Y-104823866D02*
X219972476Y-104585771D01*
X219972476Y-104585771D02*
X220020095Y-104395295D01*
X220020095Y-104395295D02*
X220067714Y-104300057D01*
X220067714Y-104300057D02*
X220115333Y-104252438D01*
X220115333Y-104252438D02*
X220210571Y-104204819D01*
X220972476Y-105204819D02*
X220972476Y-104204819D01*
X221543904Y-105204819D02*
X221115333Y-104633390D01*
X221543904Y-104204819D02*
X220972476Y-104776247D01*
X120336779Y-116454819D02*
X120336779Y-115454819D01*
X120336779Y-115454819D02*
X120670112Y-116169104D01*
X120670112Y-116169104D02*
X121003445Y-115454819D01*
X121003445Y-115454819D02*
X121003445Y-116454819D01*
X121432017Y-115550057D02*
X121479636Y-115502438D01*
X121479636Y-115502438D02*
X121574874Y-115454819D01*
X121574874Y-115454819D02*
X121812969Y-115454819D01*
X121812969Y-115454819D02*
X121908207Y-115502438D01*
X121908207Y-115502438D02*
X121955826Y-115550057D01*
X121955826Y-115550057D02*
X122003445Y-115645295D01*
X122003445Y-115645295D02*
X122003445Y-115740533D01*
X122003445Y-115740533D02*
X121955826Y-115883390D01*
X121955826Y-115883390D02*
X121384398Y-116454819D01*
X121384398Y-116454819D02*
X122003445Y-116454819D01*
X122432017Y-116359580D02*
X122479636Y-116407200D01*
X122479636Y-116407200D02*
X122432017Y-116454819D01*
X122432017Y-116454819D02*
X122384398Y-116407200D01*
X122384398Y-116407200D02*
X122432017Y-116359580D01*
X122432017Y-116359580D02*
X122432017Y-116454819D01*
X123384397Y-115454819D02*
X122908207Y-115454819D01*
X122908207Y-115454819D02*
X122860588Y-115931009D01*
X122860588Y-115931009D02*
X122908207Y-115883390D01*
X122908207Y-115883390D02*
X123003445Y-115835771D01*
X123003445Y-115835771D02*
X123241540Y-115835771D01*
X123241540Y-115835771D02*
X123336778Y-115883390D01*
X123336778Y-115883390D02*
X123384397Y-115931009D01*
X123384397Y-115931009D02*
X123432016Y-116026247D01*
X123432016Y-116026247D02*
X123432016Y-116264342D01*
X123432016Y-116264342D02*
X123384397Y-116359580D01*
X123384397Y-116359580D02*
X123336778Y-116407200D01*
X123336778Y-116407200D02*
X123241540Y-116454819D01*
X123241540Y-116454819D02*
X123003445Y-116454819D01*
X123003445Y-116454819D02*
X122908207Y-116407200D01*
X122908207Y-116407200D02*
X122860588Y-116359580D01*
X115135095Y-86954819D02*
X115706523Y-86954819D01*
X115420809Y-87954819D02*
X115420809Y-86954819D01*
X116039857Y-87954819D02*
X116039857Y-86954819D01*
X116039857Y-86954819D02*
X116420809Y-86954819D01*
X116420809Y-86954819D02*
X116516047Y-87002438D01*
X116516047Y-87002438D02*
X116563666Y-87050057D01*
X116563666Y-87050057D02*
X116611285Y-87145295D01*
X116611285Y-87145295D02*
X116611285Y-87288152D01*
X116611285Y-87288152D02*
X116563666Y-87383390D01*
X116563666Y-87383390D02*
X116516047Y-87431009D01*
X116516047Y-87431009D02*
X116420809Y-87478628D01*
X116420809Y-87478628D02*
X116039857Y-87478628D01*
X117563666Y-87954819D02*
X116992238Y-87954819D01*
X117277952Y-87954819D02*
X117277952Y-86954819D01*
X117277952Y-86954819D02*
X117182714Y-87097676D01*
X117182714Y-87097676D02*
X117087476Y-87192914D01*
X117087476Y-87192914D02*
X116992238Y-87240533D01*
X115635095Y-88502438D02*
X115539857Y-88454819D01*
X115539857Y-88454819D02*
X115397000Y-88454819D01*
X115397000Y-88454819D02*
X115254143Y-88502438D01*
X115254143Y-88502438D02*
X115158905Y-88597676D01*
X115158905Y-88597676D02*
X115111286Y-88692914D01*
X115111286Y-88692914D02*
X115063667Y-88883390D01*
X115063667Y-88883390D02*
X115063667Y-89026247D01*
X115063667Y-89026247D02*
X115111286Y-89216723D01*
X115111286Y-89216723D02*
X115158905Y-89311961D01*
X115158905Y-89311961D02*
X115254143Y-89407200D01*
X115254143Y-89407200D02*
X115397000Y-89454819D01*
X115397000Y-89454819D02*
X115492238Y-89454819D01*
X115492238Y-89454819D02*
X115635095Y-89407200D01*
X115635095Y-89407200D02*
X115682714Y-89359580D01*
X115682714Y-89359580D02*
X115682714Y-89026247D01*
X115682714Y-89026247D02*
X115492238Y-89026247D01*
X116111286Y-89454819D02*
X116111286Y-88454819D01*
X116111286Y-88454819D02*
X116682714Y-89454819D01*
X116682714Y-89454819D02*
X116682714Y-88454819D01*
X117158905Y-89454819D02*
X117158905Y-88454819D01*
X117158905Y-88454819D02*
X117397000Y-88454819D01*
X117397000Y-88454819D02*
X117539857Y-88502438D01*
X117539857Y-88502438D02*
X117635095Y-88597676D01*
X117635095Y-88597676D02*
X117682714Y-88692914D01*
X117682714Y-88692914D02*
X117730333Y-88883390D01*
X117730333Y-88883390D02*
X117730333Y-89026247D01*
X117730333Y-89026247D02*
X117682714Y-89216723D01*
X117682714Y-89216723D02*
X117635095Y-89311961D01*
X117635095Y-89311961D02*
X117539857Y-89407200D01*
X117539857Y-89407200D02*
X117397000Y-89454819D01*
X117397000Y-89454819D02*
X117158905Y-89454819D01*
%TO.C,P1*%
D12*
X137782000Y-94870000D02*
X156544000Y-94870000D01*
X156544000Y-81870000D01*
X137782000Y-81870000D01*
X137782000Y-94870000D01*
D13*
%TO.C,U1*%
X228632500Y-101070000D02*
X213011500Y-101070000D01*
X210471500Y-98530000D02*
X210471500Y-85830000D01*
X231172500Y-85830000D02*
X231172500Y-98530000D01*
X213011500Y-83290000D02*
X228632500Y-83290000D01*
D12*
X209201500Y-95736000D02*
X214281500Y-95736000D01*
X214281500Y-88624000D01*
X209201500Y-88624000D01*
X209201500Y-95736000D01*
D13*
X213011500Y-101070000D02*
G75*
G02*
X210471500Y-98530000I0J2540000D01*
G01*
X231172500Y-98530000D02*
G75*
G02*
X228632500Y-101070000I-2540000J0D01*
G01*
X210471500Y-85830000D02*
G75*
G02*
X213011500Y-83290000I2540000J0D01*
G01*
X228632500Y-83290000D02*
G75*
G02*
X231172500Y-85830000I0J-2540000D01*
G01*
D12*
%TO.C,S1*%
X258150000Y-111570000D02*
G75*
G02*
X242150000Y-111570000I-8000000J0D01*
G01*
X242150000Y-111570000D02*
G75*
G02*
X258150000Y-111570000I8000000J0D01*
G01*
X258150000Y-89860000D02*
G75*
G02*
X242150000Y-89860000I-8000000J0D01*
G01*
X242150000Y-89860000D02*
G75*
G02*
X258150000Y-89860000I8000000J0D01*
G01*
X259050000Y-81070000D02*
X240950000Y-81070000D01*
X240950000Y-121070000D01*
X259050000Y-121070000D01*
X259050000Y-81070000D01*
D14*
%TO.C,R1*%
X224862000Y-117580000D02*
X224092000Y-117580000D01*
X224092000Y-118950000D02*
X224092000Y-116210000D01*
X224092000Y-116210000D02*
X217552000Y-116210000D01*
X217552000Y-118950000D02*
X224092000Y-118950000D01*
X217552000Y-116210000D02*
X217552000Y-118950000D01*
X216782000Y-117580000D02*
X217552000Y-117580000D01*
%TO.C,R4*%
X180587000Y-95990000D02*
X181357000Y-95990000D01*
X181357000Y-94620000D02*
X181357000Y-97360000D01*
X181357000Y-97360000D02*
X187897000Y-97360000D01*
X187897000Y-94620000D02*
X181357000Y-94620000D01*
X187897000Y-97360000D02*
X187897000Y-94620000D01*
X188667000Y-95990000D02*
X187897000Y-95990000D01*
%TO.C,TP2*%
X134200000Y-91850000D02*
G75*
G02*
X130800000Y-91850000I-1700000J0D01*
G01*
X130800000Y-91850000D02*
G75*
G02*
X134200000Y-91850000I1700000J0D01*
G01*
D10*
%TO.C,SW1*%
X196662000Y-118760000D02*
X201162000Y-118760000D01*
X196662000Y-118760000D02*
X196662000Y-116160000D01*
X206162000Y-118760000D02*
X210662000Y-118760000D01*
X210662000Y-118760000D02*
X210662000Y-116160000D01*
X210662000Y-113860000D02*
X210662000Y-113560000D01*
X196662000Y-113772500D02*
X196662000Y-111147500D01*
X210662000Y-111360000D02*
X210662000Y-111060000D01*
X210662000Y-108860000D02*
X210662000Y-106160000D01*
X196662000Y-108810000D02*
X196662000Y-106160000D01*
X201162000Y-106160000D02*
X196662000Y-106160000D01*
X210662000Y-106160000D02*
X206262000Y-106160000D01*
D14*
%TO.C,R2*%
X224862000Y-112500000D02*
X224092000Y-112500000D01*
X224092000Y-113870000D02*
X224092000Y-111130000D01*
X224092000Y-111130000D02*
X217552000Y-111130000D01*
X217552000Y-113870000D02*
X224092000Y-113870000D01*
X217552000Y-111130000D02*
X217552000Y-113870000D01*
X216782000Y-112500000D02*
X217552000Y-112500000D01*
%TO.C,D1*%
X190383153Y-84390000D02*
G75*
G02*
X190323551Y-82122634I-1311153J1100000D01*
G01*
%TO.C,SW3*%
D12*
X182642000Y-88830000D02*
X166642000Y-88830000D01*
X166642000Y-82830000D01*
X182642000Y-82830000D01*
X182642000Y-88830000D01*
%TO.C,J1*%
X152952000Y-107650000D02*
X159152000Y-107650000D01*
X159152000Y-102050000D01*
X152952000Y-102050000D01*
X152952000Y-107650000D01*
X152952000Y-106550000D02*
X154652000Y-106550000D01*
X154652000Y-105750000D01*
X152952000Y-105750000D01*
X152952000Y-106550000D01*
X152952000Y-103850000D02*
X154652000Y-103850000D01*
X154652000Y-103050000D01*
X152952000Y-103050000D01*
X152952000Y-103850000D01*
%TO.C,Q1*%
X179677000Y-106055000D02*
X179677000Y-116405000D01*
X185677000Y-106055000D02*
X170577000Y-106055000D01*
X170577000Y-116405000D01*
X185677000Y-116405000D01*
X185677000Y-106055000D01*
D14*
%TO.C,R5*%
X174697000Y-95990000D02*
X173927000Y-95990000D01*
X173927000Y-97360000D02*
X173927000Y-94620000D01*
X173927000Y-94620000D02*
X167387000Y-94620000D01*
X167387000Y-97360000D02*
X173927000Y-97360000D01*
X167387000Y-94620000D02*
X167387000Y-97360000D01*
X166617000Y-95990000D02*
X167387000Y-95990000D01*
%TO.C,R3*%
X224862000Y-107420000D02*
X224092000Y-107420000D01*
X224092000Y-108790000D02*
X224092000Y-106050000D01*
X224092000Y-106050000D02*
X217552000Y-106050000D01*
X217552000Y-108790000D02*
X224092000Y-108790000D01*
X217552000Y-106050000D02*
X217552000Y-108790000D01*
X216782000Y-107420000D02*
X217552000Y-107420000D01*
%TO.C,J2*%
D12*
X152952000Y-117810000D02*
X159152000Y-117810000D01*
X159152000Y-112210000D01*
X152952000Y-112210000D01*
X152952000Y-117810000D01*
X152952000Y-116710000D02*
X154652000Y-116710000D01*
X154652000Y-115910000D01*
X152952000Y-115910000D01*
X152952000Y-116710000D01*
X152952000Y-114010000D02*
X154652000Y-114010000D01*
X154652000Y-113210000D01*
X152952000Y-113210000D01*
X152952000Y-114010000D01*
D14*
%TO.C,TP1*%
X118097000Y-92000000D02*
G75*
G02*
X114697000Y-92000000I-1700000J0D01*
G01*
X114697000Y-92000000D02*
G75*
G02*
X118097000Y-92000000I1700000J0D01*
G01*
%TD*%
D15*
X236507626Y-90107196D02*
G75*
G02*
X236800012Y-90813783I-707626J-706604D01*
G01*
X233090251Y-87100000D02*
G75*
G02*
X233791964Y-87387492I49J-1000000D01*
G01*
X227900000Y-88100000D02*
G75*
G02*
X228900000Y-87100000I1000000J0D01*
G01*
X228900000Y-97500000D02*
G75*
G02*
X227900000Y-96500000I0J1000000D01*
G01*
X229500000Y-97500000D02*
G75*
G02*
X230500000Y-98500000I0J-1000000D01*
G01*
X231500000Y-102400000D02*
G75*
G02*
X230500000Y-101400000I0J1000000D01*
G01*
X236800000Y-101400000D02*
G75*
G02*
X235800000Y-102400000I-1000000J0D01*
G01*
X233090251Y-87100000D02*
X228900000Y-87100000D01*
X229500000Y-97500000D02*
X228900000Y-97500000D01*
X227900000Y-88100000D02*
X227900000Y-96500000D01*
X236507626Y-90107196D02*
X233791940Y-87387516D01*
X205500000Y-91000000D02*
G75*
G02*
X195500000Y-91000000I-5000000J0D01*
G01*
X195500000Y-91000000D02*
G75*
G02*
X205500000Y-91000000I5000000J0D01*
G01*
X139000000Y-105000000D02*
G75*
G02*
X129000000Y-105000000I-5000000J0D01*
G01*
X129000000Y-105000000D02*
G75*
G02*
X139000000Y-105000000I5000000J0D01*
G01*
X235837722Y-116000000D02*
G75*
G02*
X238683752Y-118051324I-22J-3000000D01*
G01*
X234162278Y-116000000D02*
X235837722Y-116000000D01*
X238683772Y-118051317D02*
X239316228Y-119948683D01*
X242162277Y-122000000D02*
X260000000Y-122000000D01*
X113000000Y-122000000D02*
G75*
G02*
X110000000Y-119000000I0J3000000D01*
G01*
X231316228Y-118051317D02*
G75*
G02*
X234162278Y-115999979I2846072J-948683D01*
G01*
X227837723Y-122000000D02*
X113000000Y-122000000D01*
X260000000Y-80000000D02*
X260000000Y-122000000D01*
X121242641Y-80000000D02*
X260000000Y-80000000D01*
X242162277Y-122000000D02*
G75*
G02*
X239316183Y-119948698I23J3000100D01*
G01*
X110000000Y-91242641D02*
G75*
G02*
X110878701Y-89121341I2999800J41D01*
G01*
X230683772Y-119948683D02*
X231316228Y-118051317D01*
X119121321Y-80878679D02*
G75*
G02*
X121242641Y-80000017I2121379J-2121521D01*
G01*
X110878680Y-89121320D02*
X119121321Y-80878679D01*
X230683772Y-119948683D02*
G75*
G02*
X227837723Y-122000021I-2846072J948683D01*
G01*
X110000000Y-119000000D02*
X110000000Y-91242641D01*
X230500000Y-98500000D02*
X230500000Y-101400000D01*
X235800000Y-102400000D02*
X231500000Y-102400000D01*
X236800000Y-90813783D02*
X236800000Y-101400000D01*
M02*
