%TF.GenerationSoftware,KiCad,Pcbnew,8.0.4*%
%TF.CreationDate,2024-09-24T16:35:55-04:00*%
%TF.ProjectId,cablight,6361626c-6967-4687-942e-6b696361645f,rev?*%
%TF.SameCoordinates,Original*%
%TF.FileFunction,Soldermask,Top*%
%TF.FilePolarity,Negative*%
%FSLAX46Y46*%
G04 Gerber Fmt 4.6, Leading zero omitted, Abs format (unit mm)*
G04 Created by KiCad (PCBNEW 8.0.4) date 2024-09-24 16:35:55*
%MOMM*%
%LPD*%
G01*
G04 APERTURE LIST*
G04 Aperture macros list*
%AMRoundRect*
0 Rectangle with rounded corners*
0 $1 Rounding radius*
0 $2 $3 $4 $5 $6 $7 $8 $9 X,Y pos of 4 corners*
0 Add a 4 corners polygon primitive as box body*
4,1,4,$2,$3,$4,$5,$6,$7,$8,$9,$2,$3,0*
0 Add four circle primitives for the rounded corners*
1,1,$1+$1,$2,$3*
1,1,$1+$1,$4,$5*
1,1,$1+$1,$6,$7*
1,1,$1+$1,$8,$9*
0 Add four rect primitives between the rounded corners*
20,1,$1+$1,$2,$3,$4,$5,0*
20,1,$1+$1,$4,$5,$6,$7,0*
20,1,$1+$1,$6,$7,$8,$9,0*
20,1,$1+$1,$8,$9,$2,$3,0*%
G04 Aperture macros list end*
%ADD10R,1.600000X1.600000*%
%ADD11C,1.600000*%
%ADD12C,1.901600*%
%ADD13O,1.600000X1.600000*%
%ADD14C,3.000000*%
%ADD15RoundRect,1.500000X0.500000X-0.000010X0.500000X0.000010X-0.500000X0.000010X-0.500000X-0.000010X0*%
%ADD16C,4.500000*%
%ADD17R,2.200000X2.200000*%
%ADD18O,2.200000X2.200000*%
%ADD19O,1.500000X3.000000*%
%ADD20C,2.000000*%
%ADD21R,2.000000X1.900000*%
%ADD22O,2.500000X1.900000*%
%TA.AperFunction,Profile*%
%ADD23C,0.150000*%
%TD*%
G04 APERTURE END LIST*
D10*
%TO.C,P1*%
X154782000Y-93450000D03*
D11*
X154782000Y-90910000D03*
X154782000Y-88370000D03*
X154782000Y-85830000D03*
X154782000Y-83290000D03*
%TD*%
D12*
%TO.C,U1*%
X213202000Y-99800000D03*
X215742000Y-99800000D03*
X218282000Y-99800000D03*
X220822000Y-99800000D03*
X223362000Y-99800000D03*
X225902000Y-99800000D03*
X228442000Y-99800000D03*
X228442000Y-84560000D03*
X225902000Y-84560000D03*
X223362000Y-84560000D03*
X220822000Y-84560000D03*
X218282000Y-84560000D03*
X215742000Y-84560000D03*
X213202000Y-84560000D03*
%TD*%
D11*
%TO.C,S1*%
X242412000Y-104880000D03*
X242412000Y-102340000D03*
X242412000Y-99800000D03*
X242412000Y-97260000D03*
X242300000Y-119720000D03*
X257700000Y-119695000D03*
X242300000Y-82420000D03*
X257700000Y-82420000D03*
%TD*%
%TO.C,R1*%
X225902000Y-117580000D03*
D13*
X215742000Y-117580000D03*
%TD*%
D11*
%TO.C,R4*%
X179547000Y-95990000D03*
D13*
X189707000Y-95990000D03*
%TD*%
D14*
%TO.C,TP2*%
X132500000Y-91850000D03*
%TD*%
D15*
%TO.C,SW1*%
X203662000Y-118460000D03*
X203662000Y-106460000D03*
D11*
X196662000Y-114960000D03*
X196662000Y-109960000D03*
D10*
X210662000Y-114960000D03*
D11*
X210662000Y-109960000D03*
X210662000Y-112460000D03*
%TD*%
D16*
%TO.C,REF\u002A\u002A*%
X234982000Y-109000000D03*
%TD*%
D11*
%TO.C,R2*%
X225902000Y-112500000D03*
D13*
X215742000Y-112500000D03*
%TD*%
D17*
%TO.C,D1*%
X191612000Y-83290000D03*
D18*
X189072000Y-83290000D03*
%TD*%
D19*
%TO.C,SW3*%
X180442000Y-85830000D03*
D20*
X171642000Y-85830000D03*
D19*
X168842000Y-85830000D03*
D20*
X174642000Y-85830000D03*
X177642000Y-85830000D03*
%TD*%
%TO.C,J1*%
X156052000Y-106150000D03*
X156052000Y-103610000D03*
%TD*%
D21*
%TO.C,Q1*%
X165577000Y-108690000D03*
D22*
X165577000Y-111230000D03*
X165577000Y-113770000D03*
%TD*%
D11*
%TO.C,R5*%
X175737000Y-95990000D03*
D13*
X165577000Y-95990000D03*
%TD*%
D16*
%TO.C,REF\u002A\u002A*%
X123000000Y-86000000D03*
%TD*%
D11*
%TO.C,R3*%
X225902000Y-107420000D03*
D13*
X215742000Y-107420000D03*
%TD*%
D20*
%TO.C,J2*%
X156052000Y-116310000D03*
X156052000Y-113770000D03*
%TD*%
D16*
%TO.C,REF\u002A\u002A*%
X116000000Y-116000000D03*
%TD*%
D14*
%TO.C,TP1*%
X116397000Y-92000000D03*
%TD*%
D23*
X236507626Y-90107196D02*
G75*
G02*
X236800012Y-90813783I-707626J-706604D01*
G01*
X233090251Y-87100000D02*
G75*
G02*
X233791964Y-87387492I49J-1000000D01*
G01*
X227900000Y-88100000D02*
G75*
G02*
X228900000Y-87100000I1000000J0D01*
G01*
X228900000Y-97500000D02*
G75*
G02*
X227900000Y-96500000I0J1000000D01*
G01*
X229500000Y-97500000D02*
G75*
G02*
X230500000Y-98500000I0J-1000000D01*
G01*
X231500000Y-102400000D02*
G75*
G02*
X230500000Y-101400000I0J1000000D01*
G01*
X236800000Y-101400000D02*
G75*
G02*
X235800000Y-102400000I-1000000J0D01*
G01*
X233090251Y-87100000D02*
X228900000Y-87100000D01*
X229500000Y-97500000D02*
X228900000Y-97500000D01*
X227900000Y-88100000D02*
X227900000Y-96500000D01*
X236507626Y-90107196D02*
X233791940Y-87387516D01*
X205500000Y-91000000D02*
G75*
G02*
X195500000Y-91000000I-5000000J0D01*
G01*
X195500000Y-91000000D02*
G75*
G02*
X205500000Y-91000000I5000000J0D01*
G01*
X139000000Y-105000000D02*
G75*
G02*
X129000000Y-105000000I-5000000J0D01*
G01*
X129000000Y-105000000D02*
G75*
G02*
X139000000Y-105000000I5000000J0D01*
G01*
X235837722Y-116000000D02*
G75*
G02*
X238683752Y-118051324I-22J-3000000D01*
G01*
X234162278Y-116000000D02*
X235837722Y-116000000D01*
X238683772Y-118051317D02*
X239316228Y-119948683D01*
X242162277Y-122000000D02*
X260000000Y-122000000D01*
X113000000Y-122000000D02*
G75*
G02*
X110000000Y-119000000I0J3000000D01*
G01*
X231316228Y-118051317D02*
G75*
G02*
X234162278Y-115999979I2846072J-948683D01*
G01*
X227837723Y-122000000D02*
X113000000Y-122000000D01*
X260000000Y-80000000D02*
X260000000Y-122000000D01*
X121242641Y-80000000D02*
X260000000Y-80000000D01*
X242162277Y-122000000D02*
G75*
G02*
X239316183Y-119948698I23J3000100D01*
G01*
X110000000Y-91242641D02*
G75*
G02*
X110878701Y-89121341I2999800J41D01*
G01*
X230683772Y-119948683D02*
X231316228Y-118051317D01*
X119121321Y-80878679D02*
G75*
G02*
X121242641Y-80000017I2121379J-2121521D01*
G01*
X110878680Y-89121320D02*
X119121321Y-80878679D01*
X230683772Y-119948683D02*
G75*
G02*
X227837723Y-122000021I-2846072J948683D01*
G01*
X110000000Y-119000000D02*
X110000000Y-91242641D01*
X230500000Y-98500000D02*
X230500000Y-101400000D01*
X235800000Y-102400000D02*
X231500000Y-102400000D01*
X236800000Y-90813783D02*
X236800000Y-101400000D01*
M02*
