%TF.GenerationSoftware,KiCad,Pcbnew,8.0.4*%
%TF.CreationDate,2024-09-24T16:35:55-04:00*%
%TF.ProjectId,cablight,6361626c-6967-4687-942e-6b696361645f,rev?*%
%TF.SameCoordinates,Original*%
%TF.FileFunction,Copper,L1,Top*%
%TF.FilePolarity,Positive*%
%FSLAX46Y46*%
G04 Gerber Fmt 4.6, Leading zero omitted, Abs format (unit mm)*
G04 Created by KiCad (PCBNEW 8.0.4) date 2024-09-24 16:35:55*
%MOMM*%
%LPD*%
G01*
G04 APERTURE LIST*
G04 Aperture macros list*
%AMRoundRect*
0 Rectangle with rounded corners*
0 $1 Rounding radius*
0 $2 $3 $4 $5 $6 $7 $8 $9 X,Y pos of 4 corners*
0 Add a 4 corners polygon primitive as box body*
4,1,4,$2,$3,$4,$5,$6,$7,$8,$9,$2,$3,0*
0 Add four circle primitives for the rounded corners*
1,1,$1+$1,$2,$3*
1,1,$1+$1,$4,$5*
1,1,$1+$1,$6,$7*
1,1,$1+$1,$8,$9*
0 Add four rect primitives between the rounded corners*
20,1,$1+$1,$2,$3,$4,$5,0*
20,1,$1+$1,$4,$5,$6,$7,0*
20,1,$1+$1,$6,$7,$8,$9,0*
20,1,$1+$1,$8,$9,$2,$3,0*%
G04 Aperture macros list end*
%TA.AperFunction,ComponentPad*%
%ADD10R,1.600000X1.600000*%
%TD*%
%TA.AperFunction,ComponentPad*%
%ADD11C,1.600000*%
%TD*%
%TA.AperFunction,ComponentPad*%
%ADD12C,1.800000*%
%TD*%
%TA.AperFunction,ComponentPad*%
%ADD13O,1.600000X1.600000*%
%TD*%
%TA.AperFunction,ComponentPad*%
%ADD14C,3.000000*%
%TD*%
%TA.AperFunction,ComponentPad*%
%ADD15RoundRect,1.500000X0.500000X-0.000010X0.500000X0.000010X-0.500000X0.000010X-0.500000X-0.000010X0*%
%TD*%
%TA.AperFunction,ComponentPad*%
%ADD16C,4.500000*%
%TD*%
%TA.AperFunction,ComponentPad*%
%ADD17R,2.200000X2.200000*%
%TD*%
%TA.AperFunction,ComponentPad*%
%ADD18O,2.200000X2.200000*%
%TD*%
%TA.AperFunction,ComponentPad*%
%ADD19O,1.500000X3.000000*%
%TD*%
%TA.AperFunction,ComponentPad*%
%ADD20C,2.000000*%
%TD*%
%TA.AperFunction,ComponentPad*%
%ADD21R,2.000000X1.900000*%
%TD*%
%TA.AperFunction,ComponentPad*%
%ADD22O,2.500000X1.900000*%
%TD*%
%TA.AperFunction,ComponentPad*%
%ADD23C,6.000000*%
%TD*%
%TA.AperFunction,ViaPad*%
%ADD24C,0.900000*%
%TD*%
%TA.AperFunction,Conductor*%
%ADD25C,2.000000*%
%TD*%
%TA.AperFunction,Conductor*%
%ADD26C,3.000000*%
%TD*%
%TA.AperFunction,Conductor*%
%ADD27C,1.600000*%
%TD*%
%TA.AperFunction,Conductor*%
%ADD28C,1.000000*%
%TD*%
%TA.AperFunction,Conductor*%
%ADD29C,0.600000*%
%TD*%
%TA.AperFunction,Conductor*%
%ADD30C,0.800000*%
%TD*%
%TA.AperFunction,Conductor*%
%ADD31C,0.400000*%
%TD*%
%TA.AperFunction,Profile*%
%ADD32C,0.150000*%
%TD*%
G04 APERTURE END LIST*
D10*
%TO.P,P1,1,PG*%
%TO.N,unconnected-(P1-PG-Pad1)*%
X154782000Y-93450000D03*
D11*
%TO.P,P1,2,SHDN*%
%TO.N,unconnected-(P1-SHDN-Pad2)*%
X154782000Y-90910000D03*
%TO.P,P1,3,VIN_24V*%
%TO.N,/+24V*%
X154782000Y-88370000D03*
%TO.P,P1,4,GND*%
%TO.N,<NO NET>*%
X154782000Y-85830000D03*
%TO.P,P1,5,VOUT_5V*%
%TO.N,/+5V*%
X154782000Y-83290000D03*
%TD*%
D12*
%TO.P,U1,1,GPIO_18*%
%TO.N,Net-(U1-GPIO_18)*%
X213202000Y-99800000D03*
%TO.P,U1,2,GPIO_17*%
%TO.N,Net-(SW1-S2)*%
X215742000Y-99800000D03*
%TO.P,U1,3,GPIO_9*%
%TO.N,Net-(U1-GPIO_9)*%
X218282000Y-99800000D03*
%TO.P,U1,4,GPIO_8*%
%TO.N,Net-(U1-GPIO_8)*%
X220822000Y-99800000D03*
%TO.P,U1,5,GPIO_7*%
%TO.N,unconnected-(U1-GPIO_7-Pad5)*%
X223362000Y-99800000D03*
%TO.P,U1,6,GPIO_6*%
%TO.N,Net-(S1-Echo)*%
X225902000Y-99800000D03*
%TO.P,U1,7,GPIO_5*%
%TO.N,unconnected-(U1-GPIO_5-Pad7)*%
X228442000Y-99800000D03*
%TO.P,U1,8,GPIO_16*%
%TO.N,Net-(S1-Trig)*%
X228442000Y-84560000D03*
%TO.P,U1,9,GPIO_36*%
%TO.N,unconnected-(U1-GPIO_36-Pad9)*%
X225902000Y-84560000D03*
%TO.P,U1,10,GPIO_37*%
%TO.N,unconnected-(U1-GPIO_37-Pad10)*%
X223362000Y-84560000D03*
%TO.P,U1,11,GPIO_35*%
%TO.N,unconnected-(U1-GPIO_35-Pad11)*%
X220822000Y-84560000D03*
%TO.P,U1,12,3.3V*%
%TO.N,/+3V3*%
X218282000Y-84560000D03*
%TO.P,U1,13,GND*%
%TO.N,<NO NET>*%
X215742000Y-84560000D03*
%TO.P,U1,14,5V*%
%TO.N,/+5V_MCU*%
X213202000Y-84560000D03*
%TD*%
D11*
%TO.P,S1,4,GND*%
%TO.N,<NO NET>*%
X242412000Y-104880000D03*
%TO.P,S1,3,Echo*%
%TO.N,Net-(S1-Echo)*%
X242412000Y-102340000D03*
%TO.P,S1,2,Trig*%
%TO.N,Net-(S1-Trig)*%
X242412000Y-99800000D03*
%TO.P,S1,1,Vin*%
%TO.N,/+3V3*%
X242412000Y-97260000D03*
%TO.P,S1,*%
%TO.N,*%
X242300000Y-119720000D03*
X257700000Y-119695000D03*
X242300000Y-82420000D03*
X257700000Y-82420000D03*
%TD*%
%TO.P,R1,1*%
%TO.N,/+3V3*%
X225902000Y-117580000D03*
D13*
%TO.P,R1,2*%
%TO.N,Net-(U1-GPIO_8)*%
X215742000Y-117580000D03*
%TD*%
D11*
%TO.P,R4,1*%
%TO.N,Net-(U1-GPIO_18)*%
X179547000Y-95990000D03*
D13*
%TO.P,R4,2*%
%TO.N,<NO NET>*%
X189707000Y-95990000D03*
%TD*%
D14*
%TO.P,TP2,1,1*%
%TO.N,/+5V*%
X132500000Y-91850000D03*
%TD*%
D15*
%TO.P,SW1,*%
%TO.N,*%
X203662000Y-118460000D03*
X203662000Y-106460000D03*
D11*
%TO.P,SW1,1,S1*%
%TO.N,<NO NET>*%
X196662000Y-114960000D03*
%TO.P,SW1,2,S2*%
%TO.N,Net-(SW1-S2)*%
X196662000Y-109960000D03*
D10*
%TO.P,SW1,A,A*%
%TO.N,Net-(U1-GPIO_8)*%
X210662000Y-114960000D03*
D11*
%TO.P,SW1,B,B*%
%TO.N,Net-(U1-GPIO_9)*%
X210662000Y-109960000D03*
%TO.P,SW1,C,C*%
%TO.N,<NO NET>*%
X210662000Y-112460000D03*
%TD*%
D16*
%TO.P,REF\u002A\u002A,M*%
%TO.N,N/C*%
X234982000Y-109000000D03*
%TD*%
D11*
%TO.P,R2,1*%
%TO.N,/+3V3*%
X225902000Y-112500000D03*
D13*
%TO.P,R2,2*%
%TO.N,Net-(U1-GPIO_9)*%
X215742000Y-112500000D03*
%TD*%
D17*
%TO.P,D1,1,K*%
%TO.N,/+5V_MCU*%
X191612000Y-83290000D03*
D18*
%TO.P,D1,2,A*%
%TO.N,/+5V_SW*%
X189072000Y-83290000D03*
%TD*%
D19*
%TO.P,SW3,*%
%TO.N,*%
X180442000Y-85830000D03*
D20*
X171642000Y-85830000D03*
D19*
X168842000Y-85830000D03*
D20*
%TO.P,SW3,1*%
%TO.N,/+5V*%
X174642000Y-85830000D03*
%TO.P,SW3,2*%
%TO.N,/+5V_SW*%
X177642000Y-85830000D03*
%TD*%
%TO.P,J1,1,Pin_1*%
%TO.N,/+24V*%
X156052000Y-106150000D03*
%TO.P,J1,2,Pin_2*%
%TO.N,<NO NET>*%
X156052000Y-103610000D03*
%TD*%
D21*
%TO.P,Q1,1,G*%
%TO.N,Net-(Q1-G)*%
X165577000Y-108690000D03*
D22*
%TO.P,Q1,2,D*%
%TO.N,/LED-*%
X165577000Y-111230000D03*
%TO.P,Q1,3,S*%
%TO.N,<NO NET>*%
X165577000Y-113770000D03*
%TD*%
D11*
%TO.P,R5,1*%
%TO.N,Net-(U1-GPIO_18)*%
X175737000Y-95990000D03*
D13*
%TO.P,R5,2*%
%TO.N,Net-(Q1-G)*%
X165577000Y-95990000D03*
%TD*%
D16*
%TO.P,REF\u002A\u002A,M*%
%TO.N,N/C*%
X123000000Y-86000000D03*
%TD*%
D11*
%TO.P,R3,1*%
%TO.N,/+3V3*%
X225902000Y-107420000D03*
D13*
%TO.P,R3,2*%
%TO.N,Net-(SW1-S2)*%
X215742000Y-107420000D03*
%TD*%
D20*
%TO.P,J2,1,Pin_1*%
%TO.N,/LED-*%
X156052000Y-116310000D03*
%TO.P,J2,2,Pin_2*%
%TO.N,/+24V*%
X156052000Y-113770000D03*
%TD*%
D23*
%TO.P,M3,M*%
%TO.N,N/C*%
X182882000Y-111240000D03*
%TD*%
D16*
%TO.P,REF\u002A\u002A,M*%
%TO.N,N/C*%
X116000000Y-116000000D03*
%TD*%
D14*
%TO.P,TP1,1,1*%
%TO.N,<NO NET>*%
X116397000Y-92000000D03*
%TD*%
D24*
%TO.N,<NO NET>*%
X206000000Y-102000000D03*
X240350000Y-97380000D03*
X222750000Y-120000000D03*
X245000000Y-89000000D03*
X240110000Y-88200000D03*
X236500000Y-105500000D03*
X222750000Y-103750000D03*
X252000000Y-113000000D03*
X230000000Y-110500000D03*
X190000000Y-102000000D03*
X239500000Y-110500000D03*
X251000000Y-89000000D03*
X189000000Y-111250000D03*
X254000000Y-95500000D03*
X226000000Y-97000000D03*
X222750000Y-115000000D03*
X183992000Y-85195000D03*
X246000000Y-113000000D03*
X226000000Y-90000000D03*
X239000000Y-101750000D03*
X178500000Y-105000000D03*
X240410000Y-93000000D03*
X213000000Y-104500000D03*
X222750000Y-110000000D03*
X227000000Y-103750000D03*
X235600000Y-84170000D03*
X178500000Y-117000000D03*
X176500000Y-99000000D03*
X254000000Y-107500000D03*
X230500000Y-105500000D03*
X231500000Y-86500000D03*
%TD*%
D25*
%TO.N,/+24V*%
X156042000Y-106150000D02*
X156052000Y-106160000D01*
D26*
%TO.N,/+3V3*%
X225902000Y-112500000D02*
X226762000Y-113360000D01*
X254477000Y-85195000D02*
X241398044Y-85195000D01*
X225902000Y-112500000D02*
X225902000Y-117580000D01*
X244317000Y-116945000D02*
X253842000Y-116945000D01*
X240732000Y-113360000D02*
X244317000Y-116945000D01*
X253842000Y-116945000D02*
X257700000Y-113087000D01*
X257700000Y-88418000D02*
X254477000Y-85195000D01*
D27*
X242412000Y-97260000D02*
X242412000Y-85195000D01*
D26*
X225902000Y-112500000D02*
X225902000Y-107420000D01*
X257700000Y-113087000D02*
X257700000Y-88418000D01*
X226762000Y-113360000D02*
X240732000Y-113360000D01*
D28*
%TO.N,Net-(S1-Trig)*%
X238602000Y-98530000D02*
X239872000Y-99800000D01*
X233522000Y-84560000D02*
X238602000Y-89640000D01*
X239872000Y-99800000D02*
X242412000Y-99800000D01*
X228442000Y-84560000D02*
X233522000Y-84560000D01*
X238602000Y-89640000D02*
X238602000Y-98530000D01*
D29*
X242412000Y-99800000D02*
X242412000Y-99657500D01*
D30*
%TO.N,Net-(Q1-G)*%
X165577000Y-108690000D02*
X165577000Y-95990000D01*
D28*
%TO.N,Net-(S1-Echo)*%
X240852000Y-103900000D02*
X230002000Y-103900000D01*
X230002000Y-103900000D02*
X225902000Y-99800000D01*
X242412000Y-102340000D02*
X240852000Y-103900000D01*
D30*
%TO.N,Net-(U1-GPIO_18)*%
X179547000Y-98530000D02*
X179547000Y-95990000D01*
X213202000Y-99800000D02*
X180817000Y-99800000D01*
X175737000Y-95990000D02*
X179547000Y-95990000D01*
X180817000Y-99800000D02*
X179547000Y-98530000D01*
%TO.N,Net-(U1-GPIO_8)*%
X218282000Y-117580000D02*
X220822000Y-115040000D01*
X215742000Y-117580000D02*
X218282000Y-117580000D01*
X215742000Y-117580000D02*
X213122000Y-114960000D01*
X213122000Y-114960000D02*
X210662000Y-114960000D01*
X220822000Y-115040000D02*
X220822000Y-99800000D01*
%TO.N,Net-(U1-GPIO_9)*%
X217012000Y-112500000D02*
X218282000Y-111230000D01*
X215742000Y-112500000D02*
X213202000Y-109960000D01*
X215742000Y-112500000D02*
X217012000Y-112500000D01*
X213202000Y-109960000D02*
X210662000Y-109960000D01*
X218282000Y-111230000D02*
X218282000Y-99800000D01*
%TO.N,Net-(SW1-S2)*%
X215742000Y-107420000D02*
X209392000Y-107420000D01*
X209392000Y-107420000D02*
X206852000Y-109960000D01*
X206852000Y-109960000D02*
X196662000Y-109960000D01*
X215742000Y-107420000D02*
X215742000Y-99800000D01*
D25*
%TO.N,/+5V*%
X174642000Y-82392000D02*
X174050000Y-81800000D01*
X174642000Y-82392000D02*
X174642000Y-85830000D01*
D31*
X132382000Y-91850000D02*
X140942000Y-83290000D01*
X140942000Y-83290000D02*
X154782000Y-83290000D01*
D25*
X158210000Y-83290000D02*
X161260000Y-83290000D01*
D27*
X154782000Y-83290000D02*
X158210000Y-83290000D01*
D25*
X161260000Y-83290000D02*
X162750000Y-81800000D01*
X174050000Y-81800000D02*
X162750000Y-81800000D01*
%TO.N,/+5V_SW*%
X187972001Y-82127999D02*
X187644002Y-81800000D01*
X189072000Y-83290000D02*
X187972001Y-82190001D01*
X177642000Y-83758000D02*
X177642000Y-85830000D01*
X187972001Y-82190001D02*
X187972001Y-82127999D01*
X187644002Y-81800000D02*
X179600000Y-81800000D01*
X179600000Y-81800000D02*
X177642000Y-83758000D01*
%TO.N,/+5V_MCU*%
X213202000Y-84560000D02*
X210442000Y-81800000D01*
X193102000Y-81800000D02*
X191612000Y-83290000D01*
X210442000Y-81800000D02*
X193102000Y-81800000D01*
%TD*%
%TA.AperFunction,Conductor*%
%TO.N,<NO NET>*%
G36*
X172987788Y-83319454D02*
G01*
X173068570Y-83373430D01*
X173122546Y-83454212D01*
X173141500Y-83549500D01*
X173141500Y-84605283D01*
X173122546Y-84700571D01*
X173068570Y-84781353D01*
X172987788Y-84835329D01*
X172892500Y-84854283D01*
X172797212Y-84835329D01*
X172716430Y-84781353D01*
X172709306Y-84773927D01*
X172661752Y-84722270D01*
X172661746Y-84722264D01*
X172661744Y-84722262D01*
X172659434Y-84720464D01*
X172465514Y-84569529D01*
X172465510Y-84569526D01*
X172465509Y-84569526D01*
X172367967Y-84516739D01*
X172246811Y-84451172D01*
X172011621Y-84370430D01*
X172011610Y-84370428D01*
X171766335Y-84329500D01*
X171517665Y-84329500D01*
X171272389Y-84370428D01*
X171272378Y-84370430D01*
X171037188Y-84451172D01*
X170818485Y-84569529D01*
X170622261Y-84722257D01*
X170622254Y-84722264D01*
X170480769Y-84875958D01*
X170402287Y-84933226D01*
X170307863Y-84956101D01*
X170211873Y-84941101D01*
X170128930Y-84890509D01*
X170071662Y-84812027D01*
X170060764Y-84784265D01*
X170027071Y-84680569D01*
X170000888Y-84599985D01*
X170000884Y-84599976D01*
X170000884Y-84599975D01*
X169911524Y-84424595D01*
X169908598Y-84420568D01*
X169795830Y-84265357D01*
X169795828Y-84265354D01*
X169656646Y-84126172D01*
X169545197Y-84045199D01*
X169497410Y-84010479D01*
X169497407Y-84010477D01*
X169497405Y-84010476D01*
X169322025Y-83921116D01*
X169322024Y-83921115D01*
X169322023Y-83921115D01*
X169322017Y-83921113D01*
X169214928Y-83886318D01*
X169134826Y-83860291D01*
X169134824Y-83860290D01*
X169134822Y-83860290D01*
X168940428Y-83829501D01*
X168940419Y-83829500D01*
X168940417Y-83829500D01*
X168743583Y-83829500D01*
X168743580Y-83829500D01*
X168743571Y-83829501D01*
X168549177Y-83860290D01*
X168361982Y-83921113D01*
X168361976Y-83921115D01*
X168270740Y-83967602D01*
X168186595Y-84010476D01*
X168186592Y-84010477D01*
X168186590Y-84010479D01*
X168186589Y-84010479D01*
X168027357Y-84126169D01*
X167888169Y-84265357D01*
X167772479Y-84424589D01*
X167772479Y-84424590D01*
X167772477Y-84424592D01*
X167772476Y-84424595D01*
X167754912Y-84459067D01*
X167683115Y-84599976D01*
X167683113Y-84599982D01*
X167622290Y-84787177D01*
X167591501Y-84981571D01*
X167591500Y-84981587D01*
X167591500Y-86678412D01*
X167591501Y-86678428D01*
X167621400Y-86867201D01*
X167622291Y-86872826D01*
X167642172Y-86934014D01*
X167682844Y-87059190D01*
X167683116Y-87060025D01*
X167772476Y-87235405D01*
X167772479Y-87235409D01*
X167772479Y-87235410D01*
X167876841Y-87379050D01*
X167888172Y-87394646D01*
X168027354Y-87533828D01*
X168037721Y-87541360D01*
X168132068Y-87609908D01*
X168186595Y-87649524D01*
X168361975Y-87738884D01*
X168549174Y-87799709D01*
X168743583Y-87830500D01*
X168743587Y-87830500D01*
X168940413Y-87830500D01*
X168940417Y-87830500D01*
X169134826Y-87799709D01*
X169322025Y-87738884D01*
X169497405Y-87649524D01*
X169656646Y-87533828D01*
X169795828Y-87394646D01*
X169911524Y-87235405D01*
X170000884Y-87060025D01*
X170060764Y-86875733D01*
X170108232Y-86790974D01*
X170184529Y-86730825D01*
X170278036Y-86704453D01*
X170374518Y-86715871D01*
X170459285Y-86763343D01*
X170480769Y-86784042D01*
X170622248Y-86937730D01*
X170622252Y-86937733D01*
X170622256Y-86937738D01*
X170622260Y-86937741D01*
X170622261Y-86937742D01*
X170818485Y-87090470D01*
X170818487Y-87090471D01*
X170818491Y-87090474D01*
X170974761Y-87175043D01*
X171018081Y-87198487D01*
X171037190Y-87208828D01*
X171074720Y-87221712D01*
X171272378Y-87289569D01*
X171272382Y-87289569D01*
X171272386Y-87289571D01*
X171517665Y-87330500D01*
X171766335Y-87330500D01*
X172011614Y-87289571D01*
X172011618Y-87289569D01*
X172011621Y-87289569D01*
X172115549Y-87253890D01*
X172246810Y-87208828D01*
X172465509Y-87090474D01*
X172661744Y-86937738D01*
X172830164Y-86754785D01*
X172931557Y-86599590D01*
X172999538Y-86530189D01*
X173088908Y-86492083D01*
X173186058Y-86491078D01*
X173276197Y-86527327D01*
X173345603Y-86595312D01*
X173353272Y-86608244D01*
X173353539Y-86608081D01*
X173358654Y-86616427D01*
X173358657Y-86616433D01*
X173358660Y-86616437D01*
X173402563Y-86676865D01*
X173409572Y-86687033D01*
X173453836Y-86754786D01*
X173453839Y-86754789D01*
X173469404Y-86771697D01*
X173487651Y-86793978D01*
X173492752Y-86800998D01*
X173497484Y-86807511D01*
X173497485Y-86807512D01*
X173555414Y-86865442D01*
X173562538Y-86872867D01*
X173622248Y-86937730D01*
X173622256Y-86937738D01*
X173634654Y-86947388D01*
X173634666Y-86947397D01*
X173657787Y-86967815D01*
X173664484Y-86974512D01*
X173664488Y-86974515D01*
X173664490Y-86974517D01*
X173736614Y-87026918D01*
X173743168Y-87031848D01*
X173818485Y-87090470D01*
X173818498Y-87090479D01*
X173825929Y-87094500D01*
X173853777Y-87112043D01*
X173855564Y-87113341D01*
X173855567Y-87113343D01*
X173941445Y-87157100D01*
X173946878Y-87159953D01*
X174037190Y-87208828D01*
X174038323Y-87209216D01*
X174056874Y-87217082D01*
X174056980Y-87216828D01*
X174065999Y-87220563D01*
X174066008Y-87220568D01*
X174164576Y-87252594D01*
X174168433Y-87253884D01*
X174272385Y-87289571D01*
X174274691Y-87290155D01*
X174286332Y-87292521D01*
X174290622Y-87293550D01*
X174290623Y-87293550D01*
X174290632Y-87293553D01*
X174400315Y-87310924D01*
X174401897Y-87311181D01*
X174517665Y-87330500D01*
X174517668Y-87330500D01*
X174766330Y-87330500D01*
X174766335Y-87330500D01*
X174881950Y-87311206D01*
X174883732Y-87310916D01*
X174993368Y-87293553D01*
X174993376Y-87293550D01*
X174997648Y-87292525D01*
X175009283Y-87290160D01*
X175011599Y-87289573D01*
X175011614Y-87289571D01*
X175115547Y-87253890D01*
X175119453Y-87252585D01*
X175159933Y-87239432D01*
X175217992Y-87220568D01*
X175218003Y-87220562D01*
X175227027Y-87216825D01*
X175227132Y-87217080D01*
X175245690Y-87209212D01*
X175246810Y-87208828D01*
X175337187Y-87159917D01*
X175342494Y-87157130D01*
X175428433Y-87113343D01*
X175430212Y-87112050D01*
X175458069Y-87094499D01*
X175465509Y-87090474D01*
X175540840Y-87031840D01*
X175547393Y-87026911D01*
X175619510Y-86974517D01*
X175626203Y-86967823D01*
X175649336Y-86947394D01*
X175661744Y-86937738D01*
X175721508Y-86872815D01*
X175728564Y-86865461D01*
X175786517Y-86807510D01*
X175796346Y-86793979D01*
X175814598Y-86771692D01*
X175830164Y-86754785D01*
X175874448Y-86687000D01*
X175881407Y-86676902D01*
X175925343Y-86616433D01*
X175925350Y-86616417D01*
X175929684Y-86609347D01*
X175995629Y-86538000D01*
X176083857Y-86497320D01*
X176180937Y-86493500D01*
X176272089Y-86527122D01*
X176343436Y-86593067D01*
X176354298Y-86609321D01*
X176358655Y-86616431D01*
X176402563Y-86676865D01*
X176409572Y-86687033D01*
X176453836Y-86754786D01*
X176453839Y-86754789D01*
X176469404Y-86771697D01*
X176487651Y-86793978D01*
X176492752Y-86800998D01*
X176497484Y-86807511D01*
X176497485Y-86807512D01*
X176555414Y-86865442D01*
X176562538Y-86872867D01*
X176622248Y-86937730D01*
X176622256Y-86937738D01*
X176634654Y-86947388D01*
X176634666Y-86947397D01*
X176657787Y-86967815D01*
X176664484Y-86974512D01*
X176664488Y-86974515D01*
X176664490Y-86974517D01*
X176736614Y-87026918D01*
X176743168Y-87031848D01*
X176818485Y-87090470D01*
X176818498Y-87090479D01*
X176825929Y-87094500D01*
X176853777Y-87112043D01*
X176855564Y-87113341D01*
X176855567Y-87113343D01*
X176941445Y-87157100D01*
X176946878Y-87159953D01*
X177037190Y-87208828D01*
X177038323Y-87209216D01*
X177056874Y-87217082D01*
X177056980Y-87216828D01*
X177065999Y-87220563D01*
X177066008Y-87220568D01*
X177164576Y-87252594D01*
X177168433Y-87253884D01*
X177272385Y-87289571D01*
X177274691Y-87290155D01*
X177286332Y-87292521D01*
X177290622Y-87293550D01*
X177290623Y-87293550D01*
X177290632Y-87293553D01*
X177400315Y-87310924D01*
X177401897Y-87311181D01*
X177517665Y-87330500D01*
X177517668Y-87330500D01*
X177766330Y-87330500D01*
X177766335Y-87330500D01*
X177881950Y-87311206D01*
X177883732Y-87310916D01*
X177993368Y-87293553D01*
X177993376Y-87293550D01*
X177997648Y-87292525D01*
X178009283Y-87290160D01*
X178011599Y-87289573D01*
X178011614Y-87289571D01*
X178115547Y-87253890D01*
X178119453Y-87252585D01*
X178159933Y-87239432D01*
X178217992Y-87220568D01*
X178218003Y-87220562D01*
X178227027Y-87216825D01*
X178227132Y-87217080D01*
X178245690Y-87209212D01*
X178246810Y-87208828D01*
X178337187Y-87159917D01*
X178342494Y-87157130D01*
X178428433Y-87113343D01*
X178430212Y-87112050D01*
X178458069Y-87094499D01*
X178465509Y-87090474D01*
X178540840Y-87031840D01*
X178547393Y-87026911D01*
X178619510Y-86974517D01*
X178626203Y-86967823D01*
X178649336Y-86947394D01*
X178661744Y-86937738D01*
X178721508Y-86872815D01*
X178728564Y-86865461D01*
X178786517Y-86807510D01*
X178786523Y-86807502D01*
X178792871Y-86800071D01*
X178793956Y-86800998D01*
X178857035Y-86742675D01*
X178948180Y-86709036D01*
X179045261Y-86712837D01*
X179133497Y-86753500D01*
X179199455Y-86824835D01*
X179223978Y-86878019D01*
X179282844Y-87059190D01*
X179283116Y-87060025D01*
X179372476Y-87235405D01*
X179372479Y-87235409D01*
X179372479Y-87235410D01*
X179476841Y-87379050D01*
X179488172Y-87394646D01*
X179627354Y-87533828D01*
X179637721Y-87541360D01*
X179732068Y-87609908D01*
X179786595Y-87649524D01*
X179961975Y-87738884D01*
X180149174Y-87799709D01*
X180343583Y-87830500D01*
X180343587Y-87830500D01*
X180540413Y-87830500D01*
X180540417Y-87830500D01*
X180734826Y-87799709D01*
X180922025Y-87738884D01*
X181097405Y-87649524D01*
X181256646Y-87533828D01*
X181395828Y-87394646D01*
X181511524Y-87235405D01*
X181600884Y-87060025D01*
X181661709Y-86872826D01*
X181692500Y-86678417D01*
X181692500Y-84981583D01*
X181661709Y-84787174D01*
X181600884Y-84599975D01*
X181511524Y-84424595D01*
X181508598Y-84420568D01*
X181395830Y-84265357D01*
X181395828Y-84265354D01*
X181256646Y-84126172D01*
X181145197Y-84045199D01*
X181097410Y-84010479D01*
X181097407Y-84010477D01*
X181097405Y-84010476D01*
X180922025Y-83921116D01*
X180922024Y-83921115D01*
X180922023Y-83921115D01*
X180922017Y-83921113D01*
X180814928Y-83886318D01*
X180734826Y-83860291D01*
X180734824Y-83860290D01*
X180734822Y-83860290D01*
X180540428Y-83829501D01*
X180540419Y-83829500D01*
X180540417Y-83829500D01*
X180343583Y-83829500D01*
X180343581Y-83829500D01*
X180343567Y-83829501D01*
X180326906Y-83832140D01*
X180229826Y-83828324D01*
X180141597Y-83787646D01*
X180075650Y-83716301D01*
X180042026Y-83625150D01*
X180045842Y-83528070D01*
X180086520Y-83439841D01*
X180111894Y-83410133D01*
X180148600Y-83373428D01*
X180229382Y-83319453D01*
X180324667Y-83300500D01*
X186857334Y-83300500D01*
X186952622Y-83319454D01*
X187033400Y-83373427D01*
X187311793Y-83651821D01*
X187580139Y-83920167D01*
X187634113Y-84000944D01*
X187641535Y-84018862D01*
X187773158Y-84233652D01*
X187773160Y-84233654D01*
X187773163Y-84233657D01*
X187773164Y-84233659D01*
X187936776Y-84425224D01*
X188112885Y-84575635D01*
X188128345Y-84588839D01*
X188128347Y-84588841D01*
X188278035Y-84680569D01*
X188343141Y-84720466D01*
X188575889Y-84816873D01*
X188820852Y-84875683D01*
X188892608Y-84881330D01*
X189071995Y-84895449D01*
X189072000Y-84895449D01*
X189072005Y-84895449D01*
X189228967Y-84883095D01*
X189323148Y-84875683D01*
X189568111Y-84816873D01*
X189800859Y-84720466D01*
X189835938Y-84698968D01*
X189927085Y-84665340D01*
X190024165Y-84669153D01*
X190112397Y-84709825D01*
X190142113Y-84735204D01*
X190154451Y-84747542D01*
X190154454Y-84747546D01*
X190269669Y-84833796D01*
X190404517Y-84884091D01*
X190464127Y-84890500D01*
X192759872Y-84890499D01*
X192819483Y-84884091D01*
X192954331Y-84833796D01*
X193069546Y-84747546D01*
X193155796Y-84632331D01*
X193206091Y-84497483D01*
X193212500Y-84437873D01*
X193212499Y-83914664D01*
X193231453Y-83819377D01*
X193285426Y-83738599D01*
X193650597Y-83373430D01*
X193731378Y-83319454D01*
X193826666Y-83300500D01*
X209717333Y-83300500D01*
X209812621Y-83319454D01*
X209893403Y-83373430D01*
X212224490Y-85704517D01*
X212415566Y-85843343D01*
X212626007Y-85950568D01*
X212850631Y-86023552D01*
X213083908Y-86060499D01*
X213083912Y-86060499D01*
X213320087Y-86060499D01*
X213320091Y-86060499D01*
X213553368Y-86023552D01*
X213777992Y-85950568D01*
X213988433Y-85843343D01*
X214179510Y-85704517D01*
X214346517Y-85537510D01*
X214346519Y-85537506D01*
X214346523Y-85537503D01*
X214352877Y-85530064D01*
X214355228Y-85532072D01*
X214411808Y-85479548D01*
X214502886Y-85445727D01*
X214599974Y-85449335D01*
X214688291Y-85489822D01*
X214725556Y-85522934D01*
X214790554Y-85593540D01*
X214790560Y-85593545D01*
X214973650Y-85736051D01*
X215177700Y-85846477D01*
X215241999Y-85868551D01*
X215242000Y-85868550D01*
X215242000Y-84625826D01*
X215276075Y-84752993D01*
X215341901Y-84867007D01*
X215434993Y-84960099D01*
X215549007Y-85025925D01*
X215676174Y-85060000D01*
X215807826Y-85060000D01*
X215934993Y-85025925D01*
X216049007Y-84960099D01*
X216142099Y-84867007D01*
X216207925Y-84752993D01*
X216242000Y-84625826D01*
X216242000Y-85868551D01*
X216306299Y-85846477D01*
X216510349Y-85736051D01*
X216693439Y-85593545D01*
X216693451Y-85593535D01*
X216828210Y-85447148D01*
X216906691Y-85389879D01*
X217001115Y-85367004D01*
X217097105Y-85382004D01*
X217180048Y-85432596D01*
X217197218Y-85450036D01*
X217231143Y-85488068D01*
X217231156Y-85488081D01*
X217248586Y-85505541D01*
X217255562Y-85512817D01*
X217330214Y-85593911D01*
X217330222Y-85593918D01*
X217358575Y-85615986D01*
X217371709Y-85626953D01*
X217395956Y-85648657D01*
X217417680Y-85666008D01*
X217463903Y-85698852D01*
X217464566Y-85699295D01*
X217479061Y-85709764D01*
X217513363Y-85736462D01*
X217513366Y-85736464D01*
X217513374Y-85736470D01*
X217579929Y-85772488D01*
X217594001Y-85780711D01*
X217610732Y-85791238D01*
X217660382Y-85818714D01*
X217685422Y-85830788D01*
X217685438Y-85830794D01*
X217685443Y-85830797D01*
X217688585Y-85832205D01*
X217688545Y-85832293D01*
X217688575Y-85832308D01*
X217688527Y-85832405D01*
X217706267Y-85840859D01*
X217716649Y-85846477D01*
X217717497Y-85846936D01*
X217937019Y-85922298D01*
X217946767Y-85923924D01*
X217961207Y-85926775D01*
X217983151Y-85931790D01*
X217983163Y-85931792D01*
X218039084Y-85941305D01*
X218039087Y-85941305D01*
X218039097Y-85941307D01*
X218069099Y-85944691D01*
X218082095Y-85946506D01*
X218165951Y-85960500D01*
X218200048Y-85960500D01*
X218214026Y-85960893D01*
X218223744Y-85961439D01*
X218268093Y-85963933D01*
X218295876Y-85963934D01*
X218350071Y-85960890D01*
X218364026Y-85960500D01*
X218398044Y-85960500D01*
X218398049Y-85960500D01*
X218481545Y-85946566D01*
X218494641Y-85944738D01*
X218495112Y-85944685D01*
X218524981Y-85941320D01*
X218569768Y-85933710D01*
X218580859Y-85931826D01*
X218580861Y-85931825D01*
X218580870Y-85931824D01*
X218603550Y-85926647D01*
X218617943Y-85923805D01*
X218626981Y-85922298D01*
X218846503Y-85846936D01*
X218856447Y-85841553D01*
X218875492Y-85832491D01*
X218875433Y-85832358D01*
X218878609Y-85830936D01*
X218878629Y-85830928D01*
X218903646Y-85818881D01*
X218953267Y-85791457D01*
X218953276Y-85791451D01*
X218953282Y-85791448D01*
X218972786Y-85779192D01*
X218986752Y-85771036D01*
X219050626Y-85736470D01*
X219082018Y-85712036D01*
X219097450Y-85701230D01*
X219097332Y-85701052D01*
X219100237Y-85699110D01*
X219100236Y-85699110D01*
X219100253Y-85699100D01*
X219146493Y-85666290D01*
X219168202Y-85648977D01*
X219196736Y-85623475D01*
X219209710Y-85612648D01*
X219233784Y-85593913D01*
X219300128Y-85521842D01*
X219307234Y-85514437D01*
X219316130Y-85505541D01*
X219333209Y-85488463D01*
X219366987Y-85450666D01*
X219444613Y-85392247D01*
X219538689Y-85367981D01*
X219634890Y-85381563D01*
X219718570Y-85430925D01*
X219735844Y-85447946D01*
X219869877Y-85593545D01*
X219870216Y-85593913D01*
X219882400Y-85603396D01*
X220053363Y-85736462D01*
X220053374Y-85736470D01*
X220117237Y-85771031D01*
X220257487Y-85846931D01*
X220257489Y-85846931D01*
X220257497Y-85846936D01*
X220477019Y-85922298D01*
X220705951Y-85960500D01*
X220938049Y-85960500D01*
X221166981Y-85922298D01*
X221386503Y-85846936D01*
X221590626Y-85736470D01*
X221773784Y-85593913D01*
X221881920Y-85476446D01*
X221908805Y-85447241D01*
X221987286Y-85389972D01*
X222081710Y-85367097D01*
X222177700Y-85382097D01*
X222260643Y-85432689D01*
X222275195Y-85447241D01*
X222409877Y-85593545D01*
X222410216Y-85593913D01*
X222422400Y-85603396D01*
X222593363Y-85736462D01*
X222593374Y-85736470D01*
X222657237Y-85771031D01*
X222797487Y-85846931D01*
X222797489Y-85846931D01*
X222797497Y-85846936D01*
X223017019Y-85922298D01*
X223245951Y-85960500D01*
X223478049Y-85960500D01*
X223706981Y-85922298D01*
X223926503Y-85846936D01*
X224130626Y-85736470D01*
X224313784Y-85593913D01*
X224421920Y-85476446D01*
X224448805Y-85447241D01*
X224527286Y-85389972D01*
X224621710Y-85367097D01*
X224717700Y-85382097D01*
X224800643Y-85432689D01*
X224815195Y-85447241D01*
X224949877Y-85593545D01*
X224950216Y-85593913D01*
X224962400Y-85603396D01*
X225133363Y-85736462D01*
X225133374Y-85736470D01*
X225197237Y-85771031D01*
X225337487Y-85846931D01*
X225337489Y-85846931D01*
X225337497Y-85846936D01*
X225557019Y-85922298D01*
X225785951Y-85960500D01*
X226018049Y-85960500D01*
X226246981Y-85922298D01*
X226466503Y-85846936D01*
X226670626Y-85736470D01*
X226853784Y-85593913D01*
X226961920Y-85476446D01*
X226988805Y-85447241D01*
X227067286Y-85389972D01*
X227161710Y-85367097D01*
X227257700Y-85382097D01*
X227340643Y-85432689D01*
X227355195Y-85447241D01*
X227489877Y-85593545D01*
X227490216Y-85593913D01*
X227502400Y-85603396D01*
X227673363Y-85736462D01*
X227673374Y-85736470D01*
X227737237Y-85771031D01*
X227877487Y-85846931D01*
X227877489Y-85846931D01*
X227877497Y-85846936D01*
X228097019Y-85922298D01*
X228325951Y-85960500D01*
X228558049Y-85960500D01*
X228786981Y-85922298D01*
X229006503Y-85846936D01*
X229210626Y-85736470D01*
X229355794Y-85623482D01*
X229369256Y-85613004D01*
X229456094Y-85569434D01*
X229522195Y-85560500D01*
X233004440Y-85560500D01*
X233099728Y-85579454D01*
X233180510Y-85633430D01*
X233803399Y-86256319D01*
X233857375Y-86337101D01*
X233876329Y-86432389D01*
X233857375Y-86527677D01*
X233803399Y-86608459D01*
X233722617Y-86662435D01*
X233627329Y-86681389D01*
X233563496Y-86673068D01*
X233380792Y-86624611D01*
X233318078Y-86616437D01*
X233187626Y-86599434D01*
X233187625Y-86599434D01*
X233090225Y-86599500D01*
X228965892Y-86599500D01*
X228900000Y-86599500D01*
X228792682Y-86599500D01*
X228580231Y-86630046D01*
X228374290Y-86690516D01*
X228374288Y-86690516D01*
X228374284Y-86690518D01*
X228374281Y-86690519D01*
X228179053Y-86779677D01*
X228179040Y-86779684D01*
X228014761Y-86885260D01*
X227998487Y-86895719D01*
X227949990Y-86937742D01*
X227836281Y-87036271D01*
X227836271Y-87036281D01*
X227769497Y-87113343D01*
X227695719Y-87198487D01*
X227695714Y-87198495D01*
X227579684Y-87379040D01*
X227579677Y-87379053D01*
X227490519Y-87574281D01*
X227490518Y-87574284D01*
X227490516Y-87574288D01*
X227490516Y-87574290D01*
X227430046Y-87780231D01*
X227399500Y-87992682D01*
X227399500Y-88034108D01*
X227399500Y-96434108D01*
X227399500Y-96500000D01*
X227399500Y-96607318D01*
X227430046Y-96819769D01*
X227490516Y-97025710D01*
X227490517Y-97025713D01*
X227490518Y-97025715D01*
X227490519Y-97025718D01*
X227579677Y-97220946D01*
X227579684Y-97220959D01*
X227614823Y-97275636D01*
X227695719Y-97401513D01*
X227836276Y-97563724D01*
X227998487Y-97704281D01*
X228114831Y-97779050D01*
X228179040Y-97820315D01*
X228179044Y-97820317D01*
X228179050Y-97820321D01*
X228374290Y-97909484D01*
X228382406Y-97911867D01*
X228468495Y-97956898D01*
X228530798Y-98031446D01*
X228559830Y-98124162D01*
X228551171Y-98220930D01*
X228506140Y-98307019D01*
X228431592Y-98369322D01*
X228338876Y-98398354D01*
X228332825Y-98398930D01*
X228325954Y-98399499D01*
X228097025Y-98437700D01*
X228097019Y-98437701D01*
X228097019Y-98437702D01*
X227877497Y-98513064D01*
X227877494Y-98513065D01*
X227877487Y-98513068D01*
X227673371Y-98623531D01*
X227490220Y-98766083D01*
X227490217Y-98766086D01*
X227490216Y-98766087D01*
X227459457Y-98799500D01*
X227355195Y-98912759D01*
X227276713Y-98970027D01*
X227182289Y-98992902D01*
X227086299Y-98977902D01*
X227003356Y-98927310D01*
X226988805Y-98912759D01*
X226902624Y-98819142D01*
X226853784Y-98766087D01*
X226812718Y-98734124D01*
X226670628Y-98623531D01*
X226466512Y-98513068D01*
X226466507Y-98513066D01*
X226466503Y-98513064D01*
X226246981Y-98437702D01*
X226246978Y-98437701D01*
X226246974Y-98437700D01*
X226018049Y-98399500D01*
X225785951Y-98399500D01*
X225557025Y-98437700D01*
X225557019Y-98437701D01*
X225557019Y-98437702D01*
X225337497Y-98513064D01*
X225337494Y-98513065D01*
X225337487Y-98513068D01*
X225133371Y-98623531D01*
X224950220Y-98766083D01*
X224950217Y-98766086D01*
X224950216Y-98766087D01*
X224919457Y-98799500D01*
X224815195Y-98912759D01*
X224736713Y-98970027D01*
X224642289Y-98992902D01*
X224546299Y-98977902D01*
X224463356Y-98927310D01*
X224448805Y-98912759D01*
X224362624Y-98819142D01*
X224313784Y-98766087D01*
X224272718Y-98734124D01*
X224130628Y-98623531D01*
X223926512Y-98513068D01*
X223926507Y-98513066D01*
X223926503Y-98513064D01*
X223706981Y-98437702D01*
X223706978Y-98437701D01*
X223706974Y-98437700D01*
X223478049Y-98399500D01*
X223245951Y-98399500D01*
X223017025Y-98437700D01*
X223017019Y-98437701D01*
X223017019Y-98437702D01*
X222797497Y-98513064D01*
X222797494Y-98513065D01*
X222797487Y-98513068D01*
X222593371Y-98623531D01*
X222410220Y-98766083D01*
X222410217Y-98766086D01*
X222410216Y-98766087D01*
X222379457Y-98799500D01*
X222275195Y-98912759D01*
X222196713Y-98970027D01*
X222102289Y-98992902D01*
X222006299Y-98977902D01*
X221923356Y-98927310D01*
X221908805Y-98912759D01*
X221822624Y-98819142D01*
X221773784Y-98766087D01*
X221732718Y-98734124D01*
X221590628Y-98623531D01*
X221386512Y-98513068D01*
X221386507Y-98513066D01*
X221386503Y-98513064D01*
X221166981Y-98437702D01*
X221166978Y-98437701D01*
X221166974Y-98437700D01*
X220938049Y-98399500D01*
X220705951Y-98399500D01*
X220477025Y-98437700D01*
X220477019Y-98437701D01*
X220477019Y-98437702D01*
X220257497Y-98513064D01*
X220257494Y-98513065D01*
X220257487Y-98513068D01*
X220053371Y-98623531D01*
X219870220Y-98766083D01*
X219870217Y-98766086D01*
X219870216Y-98766087D01*
X219839457Y-98799500D01*
X219735195Y-98912759D01*
X219656713Y-98970027D01*
X219562289Y-98992902D01*
X219466299Y-98977902D01*
X219383356Y-98927310D01*
X219368805Y-98912759D01*
X219282624Y-98819142D01*
X219233784Y-98766087D01*
X219192718Y-98734124D01*
X219050628Y-98623531D01*
X218846512Y-98513068D01*
X218846507Y-98513066D01*
X218846503Y-98513064D01*
X218626981Y-98437702D01*
X218626978Y-98437701D01*
X218626974Y-98437700D01*
X218398049Y-98399500D01*
X218165951Y-98399500D01*
X217937025Y-98437700D01*
X217937019Y-98437701D01*
X217937019Y-98437702D01*
X217717497Y-98513064D01*
X217717494Y-98513065D01*
X217717487Y-98513068D01*
X217513371Y-98623531D01*
X217330220Y-98766083D01*
X217330217Y-98766086D01*
X217330216Y-98766087D01*
X217299457Y-98799500D01*
X217195195Y-98912759D01*
X217116713Y-98970027D01*
X217022289Y-98992902D01*
X216926299Y-98977902D01*
X216843356Y-98927310D01*
X216828805Y-98912759D01*
X216742624Y-98819142D01*
X216693784Y-98766087D01*
X216652718Y-98734124D01*
X216510628Y-98623531D01*
X216306512Y-98513068D01*
X216306507Y-98513066D01*
X216306503Y-98513064D01*
X216086981Y-98437702D01*
X216086978Y-98437701D01*
X216086974Y-98437700D01*
X215858049Y-98399500D01*
X215625951Y-98399500D01*
X215397025Y-98437700D01*
X215397019Y-98437701D01*
X215397019Y-98437702D01*
X215177497Y-98513064D01*
X215177494Y-98513065D01*
X215177487Y-98513068D01*
X214973371Y-98623531D01*
X214790220Y-98766083D01*
X214790217Y-98766086D01*
X214790216Y-98766087D01*
X214759457Y-98799500D01*
X214655195Y-98912759D01*
X214576713Y-98970027D01*
X214482289Y-98992902D01*
X214386299Y-98977902D01*
X214303356Y-98927310D01*
X214288805Y-98912759D01*
X214202624Y-98819142D01*
X214153784Y-98766087D01*
X214112718Y-98734124D01*
X213970628Y-98623531D01*
X213766512Y-98513068D01*
X213766507Y-98513066D01*
X213766503Y-98513064D01*
X213546981Y-98437702D01*
X213546978Y-98437701D01*
X213546974Y-98437700D01*
X213318049Y-98399500D01*
X213085951Y-98399500D01*
X212857025Y-98437700D01*
X212857019Y-98437701D01*
X212857019Y-98437702D01*
X212637497Y-98513064D01*
X212637494Y-98513065D01*
X212637487Y-98513068D01*
X212433371Y-98623531D01*
X212250220Y-98766083D01*
X212250215Y-98766087D01*
X212201376Y-98819142D01*
X212122895Y-98876411D01*
X212028471Y-98899287D01*
X212018180Y-98899500D01*
X181293140Y-98899500D01*
X181197852Y-98880546D01*
X181117070Y-98826570D01*
X180520430Y-98229930D01*
X180466454Y-98149148D01*
X180447500Y-98053860D01*
X180447500Y-97031825D01*
X180466454Y-96936537D01*
X180520427Y-96855758D01*
X180547047Y-96829139D01*
X180677568Y-96642734D01*
X180773739Y-96436496D01*
X180832635Y-96216692D01*
X180852468Y-95990000D01*
X180852468Y-95989994D01*
X180832636Y-95763320D01*
X180832635Y-95763308D01*
X180826389Y-95739999D01*
X188428128Y-95739999D01*
X188428128Y-95740000D01*
X189391314Y-95740000D01*
X189386920Y-95744394D01*
X189334259Y-95835606D01*
X189307000Y-95937339D01*
X189307000Y-96042661D01*
X189334259Y-96144394D01*
X189386920Y-96235606D01*
X189391314Y-96240000D01*
X188428128Y-96240000D01*
X188480732Y-96436323D01*
X188576866Y-96642483D01*
X188707335Y-96828812D01*
X188868187Y-96989664D01*
X189054516Y-97120133D01*
X189260676Y-97216267D01*
X189456999Y-97268871D01*
X189457000Y-97268871D01*
X189457000Y-96305686D01*
X189461394Y-96310080D01*
X189552606Y-96362741D01*
X189654339Y-96390000D01*
X189759661Y-96390000D01*
X189861394Y-96362741D01*
X189952606Y-96310080D01*
X189957000Y-96305686D01*
X189957000Y-97268871D01*
X190153323Y-97216267D01*
X190359483Y-97120133D01*
X190545812Y-96989664D01*
X190706664Y-96828812D01*
X190837133Y-96642483D01*
X190933267Y-96436323D01*
X190985872Y-96240000D01*
X190022686Y-96240000D01*
X190027080Y-96235606D01*
X190079741Y-96144394D01*
X190107000Y-96042661D01*
X190107000Y-95937339D01*
X190079741Y-95835606D01*
X190027080Y-95744394D01*
X190022686Y-95740000D01*
X190985872Y-95740000D01*
X190985871Y-95739999D01*
X190933267Y-95543676D01*
X190837133Y-95337516D01*
X190706664Y-95151187D01*
X190545812Y-94990335D01*
X190359483Y-94859866D01*
X190153318Y-94763730D01*
X189957000Y-94711126D01*
X189957000Y-95674314D01*
X189952606Y-95669920D01*
X189861394Y-95617259D01*
X189759661Y-95590000D01*
X189654339Y-95590000D01*
X189552606Y-95617259D01*
X189461394Y-95669920D01*
X189457000Y-95674314D01*
X189457000Y-94711127D01*
X189456999Y-94711126D01*
X189260681Y-94763730D01*
X189054516Y-94859866D01*
X188868187Y-94990335D01*
X188707335Y-95151187D01*
X188576866Y-95337516D01*
X188480732Y-95543676D01*
X188428128Y-95739999D01*
X180826389Y-95739999D01*
X180773739Y-95543504D01*
X180719123Y-95426380D01*
X180677571Y-95337272D01*
X180677563Y-95337258D01*
X180547050Y-95150865D01*
X180547049Y-95150864D01*
X180547047Y-95150861D01*
X180386139Y-94989953D01*
X180386135Y-94989950D01*
X180386134Y-94989949D01*
X180199741Y-94859436D01*
X180199727Y-94859428D01*
X179993499Y-94763262D01*
X179993496Y-94763261D01*
X179773694Y-94704365D01*
X179773679Y-94704363D01*
X179547006Y-94684532D01*
X179546994Y-94684532D01*
X179320320Y-94704363D01*
X179320305Y-94704365D01*
X179100503Y-94763261D01*
X179100500Y-94763262D01*
X178894272Y-94859428D01*
X178894258Y-94859436D01*
X178707865Y-94989949D01*
X178707861Y-94989952D01*
X178707861Y-94989953D01*
X178681241Y-95016572D01*
X178600463Y-95070546D01*
X178505175Y-95089500D01*
X176778825Y-95089500D01*
X176683537Y-95070546D01*
X176602758Y-95016572D01*
X176576139Y-94989953D01*
X176576135Y-94989950D01*
X176576134Y-94989949D01*
X176389741Y-94859436D01*
X176389727Y-94859428D01*
X176183499Y-94763262D01*
X176183496Y-94763261D01*
X175963694Y-94704365D01*
X175963679Y-94704363D01*
X175737006Y-94684532D01*
X175736994Y-94684532D01*
X175510320Y-94704363D01*
X175510305Y-94704365D01*
X175290503Y-94763261D01*
X175290500Y-94763262D01*
X175084272Y-94859428D01*
X175084258Y-94859436D01*
X174897865Y-94989949D01*
X174736949Y-95150865D01*
X174606436Y-95337258D01*
X174606428Y-95337272D01*
X174510262Y-95543500D01*
X174510261Y-95543503D01*
X174451365Y-95763305D01*
X174451363Y-95763320D01*
X174431532Y-95989994D01*
X174431532Y-95990005D01*
X174451363Y-96216679D01*
X174451365Y-96216694D01*
X174510261Y-96436496D01*
X174510262Y-96436499D01*
X174606428Y-96642727D01*
X174606436Y-96642741D01*
X174730392Y-96819769D01*
X174736953Y-96829139D01*
X174897861Y-96990047D01*
X174897864Y-96990049D01*
X174897865Y-96990050D01*
X175084258Y-97120563D01*
X175084262Y-97120565D01*
X175084266Y-97120568D01*
X175084270Y-97120569D01*
X175084272Y-97120571D01*
X175208008Y-97178270D01*
X175290504Y-97216739D01*
X175510308Y-97275635D01*
X175529984Y-97277356D01*
X175736994Y-97295468D01*
X175737000Y-97295468D01*
X175737006Y-97295468D01*
X175916668Y-97279749D01*
X175963692Y-97275635D01*
X176183496Y-97216739D01*
X176389734Y-97120568D01*
X176576139Y-96990047D01*
X176602758Y-96963427D01*
X176683537Y-96909454D01*
X176778825Y-96890500D01*
X178397500Y-96890500D01*
X178492788Y-96909454D01*
X178573570Y-96963430D01*
X178627546Y-97044212D01*
X178646500Y-97139500D01*
X178646500Y-98441308D01*
X178646500Y-98618692D01*
X178681105Y-98792666D01*
X178681106Y-98792668D01*
X178681108Y-98792675D01*
X178707751Y-98856994D01*
X178707752Y-98856999D01*
X178707753Y-98856999D01*
X178748987Y-98956548D01*
X178763256Y-98977902D01*
X178780637Y-99003914D01*
X178847536Y-99104036D01*
X180242964Y-100499464D01*
X180273237Y-100519691D01*
X180273240Y-100519694D01*
X180332045Y-100558986D01*
X180390453Y-100598013D01*
X180433176Y-100615709D01*
X180472389Y-100631952D01*
X180472392Y-100631952D01*
X180472393Y-100631953D01*
X180472398Y-100631955D01*
X180554329Y-100665893D01*
X180554330Y-100665893D01*
X180554334Y-100665895D01*
X180728308Y-100700500D01*
X180728309Y-100700500D01*
X212018180Y-100700500D01*
X212113468Y-100719454D01*
X212194250Y-100773430D01*
X212201365Y-100780846D01*
X212219040Y-100800047D01*
X212250215Y-100833912D01*
X212250220Y-100833916D01*
X212433368Y-100976466D01*
X212433374Y-100976470D01*
X212452429Y-100986782D01*
X212637487Y-101086931D01*
X212637489Y-101086931D01*
X212637497Y-101086936D01*
X212857019Y-101162298D01*
X213085951Y-101200500D01*
X213318049Y-101200500D01*
X213546981Y-101162298D01*
X213766503Y-101086936D01*
X213970626Y-100976470D01*
X214153784Y-100833913D01*
X214240273Y-100739960D01*
X214288805Y-100687241D01*
X214367286Y-100629972D01*
X214461710Y-100607097D01*
X214557700Y-100622097D01*
X214640643Y-100672689D01*
X214655195Y-100687241D01*
X214775695Y-100818139D01*
X214826287Y-100901082D01*
X214841500Y-100986782D01*
X214841500Y-106270500D01*
X214822546Y-106365788D01*
X214768570Y-106446570D01*
X214687788Y-106500546D01*
X214592500Y-106519500D01*
X209303304Y-106519500D01*
X209129340Y-106554104D01*
X209129336Y-106554105D01*
X209129334Y-106554106D01*
X209064741Y-106580861D01*
X208965450Y-106621988D01*
X208817966Y-106720534D01*
X208817963Y-106720536D01*
X208817964Y-106720537D01*
X206551930Y-108986570D01*
X206471148Y-109040546D01*
X206375860Y-109059500D01*
X197703825Y-109059500D01*
X197608537Y-109040546D01*
X197527758Y-108986572D01*
X197501139Y-108959953D01*
X197501135Y-108959950D01*
X197501134Y-108959949D01*
X197314741Y-108829436D01*
X197314727Y-108829428D01*
X197108499Y-108733262D01*
X197108496Y-108733261D01*
X196888694Y-108674365D01*
X196888679Y-108674363D01*
X196662006Y-108654532D01*
X196661994Y-108654532D01*
X196435320Y-108674363D01*
X196435305Y-108674365D01*
X196215503Y-108733261D01*
X196215500Y-108733262D01*
X196009272Y-108829428D01*
X196009258Y-108829436D01*
X195822865Y-108959949D01*
X195661949Y-109120865D01*
X195531436Y-109307258D01*
X195531428Y-109307272D01*
X195435262Y-109513500D01*
X195435261Y-109513503D01*
X195376365Y-109733305D01*
X195376363Y-109733320D01*
X195356532Y-109959994D01*
X195356532Y-109960005D01*
X195376363Y-110186679D01*
X195376365Y-110186694D01*
X195435261Y-110406496D01*
X195435262Y-110406499D01*
X195531428Y-110612727D01*
X195531436Y-110612741D01*
X195656346Y-110791132D01*
X195661953Y-110799139D01*
X195822861Y-110960047D01*
X195822864Y-110960049D01*
X195822865Y-110960050D01*
X196009258Y-111090563D01*
X196009262Y-111090565D01*
X196009266Y-111090568D01*
X196009270Y-111090569D01*
X196009272Y-111090571D01*
X196088215Y-111127383D01*
X196215504Y-111186739D01*
X196435308Y-111245635D01*
X196454984Y-111247356D01*
X196661994Y-111265468D01*
X196662000Y-111265468D01*
X196662006Y-111265468D01*
X196841668Y-111249749D01*
X196888692Y-111245635D01*
X197108496Y-111186739D01*
X197314734Y-111090568D01*
X197501139Y-110960047D01*
X197527758Y-110933427D01*
X197608537Y-110879454D01*
X197703825Y-110860500D01*
X206940689Y-110860500D01*
X206940692Y-110860500D01*
X207114666Y-110825895D01*
X207198592Y-110791131D01*
X207278547Y-110758013D01*
X207366959Y-110698936D01*
X207426036Y-110659464D01*
X209278146Y-108807352D01*
X209358925Y-108753379D01*
X209454213Y-108734425D01*
X209549501Y-108753379D01*
X209630283Y-108807355D01*
X209684259Y-108888137D01*
X209703213Y-108983425D01*
X209684259Y-109078713D01*
X209658183Y-109126244D01*
X209531435Y-109307260D01*
X209531428Y-109307272D01*
X209435262Y-109513500D01*
X209435261Y-109513503D01*
X209376365Y-109733305D01*
X209376363Y-109733320D01*
X209356532Y-109959994D01*
X209356532Y-109960005D01*
X209376363Y-110186679D01*
X209376365Y-110186694D01*
X209435261Y-110406496D01*
X209435262Y-110406499D01*
X209531428Y-110612727D01*
X209531436Y-110612741D01*
X209656346Y-110791132D01*
X209661953Y-110799139D01*
X209822861Y-110960047D01*
X209875681Y-110997031D01*
X209888969Y-111006336D01*
X209956153Y-111076517D01*
X209991365Y-111167067D01*
X209989246Y-111264199D01*
X209950117Y-111353126D01*
X209937894Y-111365348D01*
X209936527Y-111380973D01*
X210532591Y-111977037D01*
X210469007Y-111994075D01*
X210354993Y-112059901D01*
X210261901Y-112152993D01*
X210196075Y-112267007D01*
X210179037Y-112330591D01*
X209582973Y-111734527D01*
X209582972Y-111734527D01*
X209531870Y-111807510D01*
X209531867Y-111807514D01*
X209435732Y-112013676D01*
X209376859Y-112233396D01*
X209376859Y-112233397D01*
X209357034Y-112460000D01*
X209376859Y-112686602D01*
X209376859Y-112686603D01*
X209435732Y-112906323D01*
X209531867Y-113112486D01*
X209531869Y-113112488D01*
X209582973Y-113185471D01*
X210179037Y-112589408D01*
X210196075Y-112652993D01*
X210261901Y-112767007D01*
X210354993Y-112860099D01*
X210469007Y-112925925D01*
X210532589Y-112942962D01*
X209876694Y-113598856D01*
X209795913Y-113652832D01*
X209757853Y-113665120D01*
X209754152Y-113665994D01*
X209745887Y-113666288D01*
X209732344Y-113674179D01*
X209619669Y-113716204D01*
X209504455Y-113802453D01*
X209504453Y-113802455D01*
X209418204Y-113917669D01*
X209367908Y-114052518D01*
X209361500Y-114112123D01*
X209361500Y-115807865D01*
X209361500Y-115807868D01*
X209361501Y-115807872D01*
X209362925Y-115821119D01*
X209367908Y-115867480D01*
X209367909Y-115867484D01*
X209418203Y-116002329D01*
X209418204Y-116002331D01*
X209504454Y-116117546D01*
X209619669Y-116203796D01*
X209754517Y-116254091D01*
X209814127Y-116260500D01*
X211509872Y-116260499D01*
X211569483Y-116254091D01*
X211704331Y-116203796D01*
X211819546Y-116117546D01*
X211905796Y-116002331D01*
X211905797Y-116002327D01*
X211912437Y-115990168D01*
X211974739Y-115915619D01*
X212060827Y-115870587D01*
X212130980Y-115860500D01*
X212645860Y-115860500D01*
X212741148Y-115879454D01*
X212821930Y-115933430D01*
X214369383Y-117480883D01*
X214423359Y-117561665D01*
X214441365Y-117635251D01*
X214456363Y-117806679D01*
X214456365Y-117806694D01*
X214515261Y-118026496D01*
X214515262Y-118026499D01*
X214611428Y-118232727D01*
X214611436Y-118232741D01*
X214741949Y-118419134D01*
X214741953Y-118419139D01*
X214902861Y-118580047D01*
X214902864Y-118580049D01*
X214902865Y-118580050D01*
X215089258Y-118710563D01*
X215089262Y-118710565D01*
X215089266Y-118710568D01*
X215089270Y-118710569D01*
X215089272Y-118710571D01*
X215164023Y-118745428D01*
X215295504Y-118806739D01*
X215515308Y-118865635D01*
X215534145Y-118867283D01*
X215741994Y-118885468D01*
X215742000Y-118885468D01*
X215742006Y-118885468D01*
X215921668Y-118869749D01*
X215968692Y-118865635D01*
X216188496Y-118806739D01*
X216394734Y-118710568D01*
X216581139Y-118580047D01*
X216607758Y-118553427D01*
X216688537Y-118499454D01*
X216783825Y-118480500D01*
X218370689Y-118480500D01*
X218370692Y-118480500D01*
X218544666Y-118445895D01*
X218632856Y-118409365D01*
X218708547Y-118378013D01*
X218796959Y-118318936D01*
X218856036Y-118279464D01*
X221521463Y-115614036D01*
X221533495Y-115596029D01*
X221620013Y-115466547D01*
X221687894Y-115302666D01*
X221722500Y-115128691D01*
X221722500Y-100986782D01*
X221741454Y-100891494D01*
X221788305Y-100818139D01*
X221908805Y-100687241D01*
X221987286Y-100629972D01*
X222081710Y-100607097D01*
X222177700Y-100622097D01*
X222260643Y-100672689D01*
X222275195Y-100687241D01*
X222410214Y-100833911D01*
X222410220Y-100833916D01*
X222593368Y-100976466D01*
X222593374Y-100976470D01*
X222612429Y-100986782D01*
X222797487Y-101086931D01*
X222797489Y-101086931D01*
X222797497Y-101086936D01*
X223017019Y-101162298D01*
X223245951Y-101200500D01*
X223478049Y-101200500D01*
X223706981Y-101162298D01*
X223926503Y-101086936D01*
X224130626Y-100976470D01*
X224313784Y-100833913D01*
X224400273Y-100739960D01*
X224448805Y-100687241D01*
X224527286Y-100629972D01*
X224621710Y-100607097D01*
X224717700Y-100622097D01*
X224800643Y-100672689D01*
X224815195Y-100687241D01*
X224950214Y-100833911D01*
X224950220Y-100833916D01*
X225133368Y-100976466D01*
X225133374Y-100976470D01*
X225152429Y-100986782D01*
X225337487Y-101086931D01*
X225337489Y-101086931D01*
X225337497Y-101086936D01*
X225557019Y-101162298D01*
X225785951Y-101200500D01*
X225785957Y-101200500D01*
X225796215Y-101201351D01*
X225796093Y-101202818D01*
X225879728Y-101219454D01*
X225960509Y-101273429D01*
X229364219Y-104677140D01*
X229528086Y-104786632D01*
X229528088Y-104786632D01*
X229528090Y-104786634D01*
X229710165Y-104862052D01*
X229710168Y-104862053D01*
X229863045Y-104892462D01*
X229903460Y-104900501D01*
X230112829Y-104900501D01*
X230112849Y-104900500D01*
X240881581Y-104900500D01*
X240976869Y-104919454D01*
X241057651Y-104973430D01*
X241111627Y-105054212D01*
X241123853Y-105096155D01*
X241124046Y-105096104D01*
X241126404Y-105104904D01*
X241126796Y-105106249D01*
X241126856Y-105106594D01*
X241185732Y-105326323D01*
X241281867Y-105532486D01*
X241281869Y-105532488D01*
X241332972Y-105605471D01*
X241332974Y-105605471D01*
X242012000Y-104926446D01*
X242012000Y-104932661D01*
X242039259Y-105034394D01*
X242091920Y-105125606D01*
X242166394Y-105200080D01*
X242257606Y-105252741D01*
X242359339Y-105280000D01*
X242365552Y-105280000D01*
X241686527Y-105959023D01*
X241686527Y-105959025D01*
X241759515Y-106010132D01*
X241965676Y-106106267D01*
X242185396Y-106165140D01*
X242412000Y-106184965D01*
X242638602Y-106165140D01*
X242638603Y-106165140D01*
X242858326Y-106106266D01*
X243064476Y-106010137D01*
X243064483Y-106010133D01*
X243137471Y-105959025D01*
X242458446Y-105280000D01*
X242464661Y-105280000D01*
X242566394Y-105252741D01*
X242657606Y-105200080D01*
X242732080Y-105125606D01*
X242784741Y-105034394D01*
X242812000Y-104932661D01*
X242812000Y-104926446D01*
X243491025Y-105605471D01*
X243542133Y-105532483D01*
X243542137Y-105532476D01*
X243638266Y-105326326D01*
X243697140Y-105106603D01*
X243697140Y-105106602D01*
X243716965Y-104880000D01*
X243697140Y-104653397D01*
X243697140Y-104653396D01*
X243638267Y-104433676D01*
X243542132Y-104227515D01*
X243491025Y-104154527D01*
X243491023Y-104154527D01*
X242812000Y-104833551D01*
X242812000Y-104827339D01*
X242784741Y-104725606D01*
X242732080Y-104634394D01*
X242657606Y-104559920D01*
X242566394Y-104507259D01*
X242464661Y-104480000D01*
X242458448Y-104480000D01*
X243137471Y-103800974D01*
X243136841Y-103793773D01*
X243089282Y-103744091D01*
X243054070Y-103653542D01*
X243056190Y-103556410D01*
X243095319Y-103467483D01*
X243156465Y-103406337D01*
X243251139Y-103340047D01*
X243412047Y-103179139D01*
X243542568Y-102992734D01*
X243638739Y-102786496D01*
X243697635Y-102566692D01*
X243713410Y-102386388D01*
X243717468Y-102340005D01*
X243717468Y-102339994D01*
X243697636Y-102113320D01*
X243697635Y-102113311D01*
X243697635Y-102113308D01*
X243638739Y-101893504D01*
X243590719Y-101790525D01*
X243542571Y-101687272D01*
X243542563Y-101687258D01*
X243412050Y-101500865D01*
X243412049Y-101500864D01*
X243412047Y-101500861D01*
X243251139Y-101339953D01*
X243242791Y-101334108D01*
X243177480Y-101288377D01*
X243156902Y-101273968D01*
X243089719Y-101203789D01*
X243054506Y-101113240D01*
X243056625Y-101016108D01*
X243095753Y-100927181D01*
X243156902Y-100866031D01*
X243251139Y-100800047D01*
X243412047Y-100639139D01*
X243542568Y-100452734D01*
X243638739Y-100246496D01*
X243697635Y-100026692D01*
X243717468Y-99800000D01*
X243717468Y-99799994D01*
X243697636Y-99573320D01*
X243697635Y-99573308D01*
X243638739Y-99353504D01*
X243542568Y-99147266D01*
X243542565Y-99147262D01*
X243542563Y-99147258D01*
X243412050Y-98960865D01*
X243412049Y-98960864D01*
X243412047Y-98960861D01*
X243251139Y-98799953D01*
X243157125Y-98734124D01*
X243089941Y-98663943D01*
X243054729Y-98573393D01*
X243056848Y-98476261D01*
X243095977Y-98387334D01*
X243153584Y-98328712D01*
X243165537Y-98320027D01*
X243168935Y-98317604D01*
X243251139Y-98260047D01*
X243412047Y-98099139D01*
X243469604Y-98016935D01*
X243472020Y-98013548D01*
X243524287Y-97941610D01*
X243524292Y-97941598D01*
X243529397Y-97933269D01*
X243529684Y-97933445D01*
X243539460Y-97917171D01*
X243542568Y-97912734D01*
X243579247Y-97834074D01*
X243583040Y-97826300D01*
X243617216Y-97759227D01*
X243617216Y-97759226D01*
X243617220Y-97759219D01*
X243619559Y-97752017D01*
X243630701Y-97723732D01*
X243638739Y-97706496D01*
X243657691Y-97635761D01*
X243661380Y-97623303D01*
X243680477Y-97564534D01*
X243683784Y-97543649D01*
X243689204Y-97518154D01*
X243697633Y-97486698D01*
X243697635Y-97486692D01*
X243702836Y-97427228D01*
X243704949Y-97410018D01*
X243712500Y-97362352D01*
X243712500Y-97327651D01*
X243713448Y-97305947D01*
X243717468Y-97260002D01*
X243717468Y-97259996D01*
X243713448Y-97214051D01*
X243712500Y-97192348D01*
X243712500Y-87444500D01*
X243731454Y-87349212D01*
X243785430Y-87268430D01*
X243866212Y-87214454D01*
X243961500Y-87195500D01*
X253545226Y-87195500D01*
X253640514Y-87214454D01*
X253721296Y-87268430D01*
X255626570Y-89173704D01*
X255680546Y-89254486D01*
X255699500Y-89349774D01*
X255699500Y-112155226D01*
X255680546Y-112250514D01*
X255626570Y-112331296D01*
X253086296Y-114871570D01*
X253005514Y-114925546D01*
X252910226Y-114944500D01*
X245248774Y-114944500D01*
X245153486Y-114925546D01*
X245072704Y-114871570D01*
X242053854Y-111852720D01*
X242053844Y-111852711D01*
X241901008Y-111735437D01*
X241901005Y-111735433D01*
X241845812Y-111693083D01*
X241845803Y-111693076D01*
X241618697Y-111561957D01*
X241618695Y-111561956D01*
X241618693Y-111561955D01*
X241618689Y-111561953D01*
X241444903Y-111489969D01*
X241376419Y-111461602D01*
X241123116Y-111393729D01*
X241123109Y-111393728D01*
X240993119Y-111376615D01*
X240993118Y-111376614D01*
X240993118Y-111376615D01*
X240863120Y-111359500D01*
X237930813Y-111359500D01*
X237835525Y-111340546D01*
X237754743Y-111286570D01*
X237700767Y-111205788D01*
X237681813Y-111110500D01*
X237692533Y-111038224D01*
X237720785Y-110945090D01*
X237740000Y-110750000D01*
X237740000Y-109180000D01*
X237733660Y-109115637D01*
X237732916Y-109076223D01*
X237737527Y-109000000D01*
X237717436Y-108667858D01*
X237713565Y-108646737D01*
X237695941Y-108550563D01*
X237657456Y-108340559D01*
X237558463Y-108022877D01*
X237437861Y-107754911D01*
X237421899Y-107719445D01*
X237421898Y-107719443D01*
X237249754Y-107434682D01*
X237141263Y-107296203D01*
X237044547Y-107172754D01*
X237044545Y-107172752D01*
X237044542Y-107172748D01*
X236809252Y-106937458D01*
X236809247Y-106937454D01*
X236809245Y-106937452D01*
X236547318Y-106732246D01*
X236262554Y-106560100D01*
X235959128Y-106423539D01*
X235959126Y-106423538D01*
X235959123Y-106423537D01*
X235772811Y-106365480D01*
X235641442Y-106324544D01*
X235641432Y-106324542D01*
X235314152Y-106264565D01*
X235314155Y-106264565D01*
X235314143Y-106264564D01*
X235314142Y-106264564D01*
X234982000Y-106244473D01*
X234649858Y-106264564D01*
X234649855Y-106264564D01*
X234649846Y-106264565D01*
X234322567Y-106324542D01*
X234322557Y-106324544D01*
X234004871Y-106423539D01*
X233701445Y-106560100D01*
X233416681Y-106732246D01*
X233154754Y-106937452D01*
X232919452Y-107172754D01*
X232714246Y-107434681D01*
X232542100Y-107719445D01*
X232405539Y-108022871D01*
X232306544Y-108340557D01*
X232306542Y-108340567D01*
X232246565Y-108667846D01*
X232246564Y-108667855D01*
X232246564Y-108667858D01*
X232227476Y-108983425D01*
X232226473Y-109000002D01*
X232233365Y-109113953D01*
X232232621Y-109153384D01*
X232230000Y-109180003D01*
X232230000Y-110750000D01*
X232249214Y-110945085D01*
X232249214Y-110945087D01*
X232249215Y-110945090D01*
X232277466Y-111038223D01*
X232286988Y-111134908D01*
X232258785Y-111227879D01*
X232197150Y-111302981D01*
X232111467Y-111348779D01*
X232039187Y-111359500D01*
X228151500Y-111359500D01*
X228056212Y-111340546D01*
X227975430Y-111286570D01*
X227921454Y-111205788D01*
X227902500Y-111110500D01*
X227902500Y-107288880D01*
X227896446Y-107242894D01*
X227868270Y-107028884D01*
X227800398Y-106775581D01*
X227700043Y-106533303D01*
X227568924Y-106306197D01*
X227568920Y-106306192D01*
X227568917Y-106306187D01*
X227409286Y-106098154D01*
X227409285Y-106098153D01*
X227409282Y-106098149D01*
X227223851Y-105912718D01*
X227223846Y-105912714D01*
X227223845Y-105912713D01*
X227015812Y-105753082D01*
X227015798Y-105753073D01*
X226954937Y-105717935D01*
X226788697Y-105621957D01*
X226788695Y-105621956D01*
X226788693Y-105621955D01*
X226788689Y-105621953D01*
X226546417Y-105521601D01*
X226436730Y-105492211D01*
X226293116Y-105453730D01*
X226293111Y-105453729D01*
X226293114Y-105453729D01*
X226033120Y-105419500D01*
X225770880Y-105419500D01*
X225510887Y-105453729D01*
X225257582Y-105521601D01*
X225015310Y-105621953D01*
X225015306Y-105621955D01*
X224788201Y-105753073D01*
X224788187Y-105753082D01*
X224580154Y-105912713D01*
X224394713Y-106098154D01*
X224235082Y-106306187D01*
X224235073Y-106306201D01*
X224103955Y-106533306D01*
X224103953Y-106533310D01*
X224003601Y-106775582D01*
X223935729Y-107028887D01*
X223901500Y-107288880D01*
X223901500Y-116637945D01*
X223901415Y-116856739D01*
X223900195Y-119996446D01*
X223899145Y-120019191D01*
X223885527Y-120167016D01*
X223877234Y-120211741D01*
X223840057Y-120343606D01*
X223823766Y-120386078D01*
X223763220Y-120508979D01*
X223739475Y-120547776D01*
X223698525Y-120602699D01*
X223657576Y-120657619D01*
X223627166Y-120691451D01*
X223518255Y-120792336D01*
X223500872Y-120807021D01*
X222880386Y-121284318D01*
X222857955Y-121299699D01*
X222706564Y-121391772D01*
X222657356Y-121414766D01*
X222502570Y-121467412D01*
X222449549Y-121479189D01*
X222303316Y-121495234D01*
X222277968Y-121498015D01*
X222250813Y-121499500D01*
X113007528Y-121499500D01*
X112992494Y-121499046D01*
X112713749Y-121482185D01*
X112683899Y-121478560D01*
X112416642Y-121429583D01*
X112387448Y-121422387D01*
X112128049Y-121341555D01*
X112099934Y-121330893D01*
X111852160Y-121219379D01*
X111825535Y-121205405D01*
X111593010Y-121064838D01*
X111568265Y-121047758D01*
X111354383Y-120880193D01*
X111331876Y-120860254D01*
X111139745Y-120668123D01*
X111119806Y-120645616D01*
X110952241Y-120431734D01*
X110935161Y-120406989D01*
X110794594Y-120174464D01*
X110780620Y-120147839D01*
X110780344Y-120147226D01*
X110669103Y-119900059D01*
X110658444Y-119871950D01*
X110635325Y-119797760D01*
X110577610Y-119612546D01*
X110570416Y-119583357D01*
X110521437Y-119316088D01*
X110517815Y-119286261D01*
X110500954Y-119007504D01*
X110500500Y-118992471D01*
X110500500Y-116000000D01*
X113244473Y-116000000D01*
X113260230Y-116260500D01*
X113264565Y-116332153D01*
X113324542Y-116659432D01*
X113324544Y-116659442D01*
X113359860Y-116772774D01*
X113413297Y-116944262D01*
X113423539Y-116977128D01*
X113560100Y-117280554D01*
X113732246Y-117565318D01*
X113937452Y-117827245D01*
X113937454Y-117827247D01*
X113937458Y-117827252D01*
X114172748Y-118062542D01*
X114172752Y-118062545D01*
X114172754Y-118062547D01*
X114309759Y-118169883D01*
X114434682Y-118267754D01*
X114719443Y-118439898D01*
X114719445Y-118439899D01*
X114732768Y-118445895D01*
X115022877Y-118576463D01*
X115340559Y-118675456D01*
X115667847Y-118735434D01*
X115667848Y-118735434D01*
X115667858Y-118735436D01*
X116000000Y-118755527D01*
X116332142Y-118735436D01*
X116659441Y-118675456D01*
X116977123Y-118576463D01*
X117280557Y-118439898D01*
X117365495Y-118388551D01*
X201161500Y-118388551D01*
X201161500Y-118531448D01*
X201176804Y-118745429D01*
X201179001Y-118755527D01*
X201220832Y-118947824D01*
X201237631Y-119025045D01*
X201337631Y-119293158D01*
X201458357Y-119514250D01*
X201474774Y-119544315D01*
X201646261Y-119773395D01*
X201848605Y-119975739D01*
X202023888Y-120106954D01*
X202070034Y-120141499D01*
X202077685Y-120147226D01*
X202195835Y-120211741D01*
X202328841Y-120284368D01*
X202370703Y-120299981D01*
X202596954Y-120384369D01*
X202876572Y-120445196D01*
X203090552Y-120460500D01*
X203090557Y-120460500D01*
X204233443Y-120460500D01*
X204233448Y-120460500D01*
X204447428Y-120445196D01*
X204727046Y-120384369D01*
X204995161Y-120284367D01*
X205246315Y-120147226D01*
X205475395Y-119975739D01*
X205677739Y-119773395D01*
X205849226Y-119544315D01*
X205986367Y-119293161D01*
X206086369Y-119025046D01*
X206147196Y-118745428D01*
X206162500Y-118531448D01*
X206162500Y-118388552D01*
X206147196Y-118174572D01*
X206086369Y-117894954D01*
X205986367Y-117626839D01*
X205849226Y-117375685D01*
X205677739Y-117146605D01*
X205475395Y-116944261D01*
X205281181Y-116798874D01*
X205246317Y-116772775D01*
X204995158Y-116635631D01*
X204849970Y-116581479D01*
X204727046Y-116535631D01*
X204727047Y-116535631D01*
X204447429Y-116474804D01*
X204233448Y-116459500D01*
X203090552Y-116459500D01*
X203090551Y-116459500D01*
X202876570Y-116474804D01*
X202596954Y-116535631D01*
X202328841Y-116635631D01*
X202077682Y-116772775D01*
X201917581Y-116892626D01*
X201848605Y-116944261D01*
X201848604Y-116944262D01*
X201646262Y-117146604D01*
X201646260Y-117146607D01*
X201474775Y-117375682D01*
X201337631Y-117626841D01*
X201237631Y-117894954D01*
X201176804Y-118174570D01*
X201161500Y-118388551D01*
X117365495Y-118388551D01*
X117565318Y-118267754D01*
X117827252Y-118062542D01*
X118062542Y-117827252D01*
X118267754Y-117565318D01*
X118439898Y-117280557D01*
X118576463Y-116977123D01*
X118675456Y-116659441D01*
X118735436Y-116332142D01*
X118755527Y-116000000D01*
X118735436Y-115667858D01*
X118732163Y-115650000D01*
X118710488Y-115531724D01*
X118675456Y-115340559D01*
X118576463Y-115022877D01*
X118461305Y-114767007D01*
X118439899Y-114719445D01*
X118401367Y-114655705D01*
X118267754Y-114434682D01*
X118133648Y-114263508D01*
X118062547Y-114172754D01*
X118062545Y-114172752D01*
X118062542Y-114172748D01*
X117827252Y-113937458D01*
X117827247Y-113937454D01*
X117827245Y-113937452D01*
X117565318Y-113732246D01*
X117280554Y-113560100D01*
X116977128Y-113423539D01*
X116977126Y-113423538D01*
X116977123Y-113423537D01*
X116790811Y-113365480D01*
X116659442Y-113324544D01*
X116659432Y-113324542D01*
X116332152Y-113264565D01*
X116332155Y-113264565D01*
X116332143Y-113264564D01*
X116332142Y-113264564D01*
X116000000Y-113244473D01*
X115667858Y-113264564D01*
X115667855Y-113264564D01*
X115667846Y-113264565D01*
X115340567Y-113324542D01*
X115340557Y-113324544D01*
X115022871Y-113423539D01*
X114719445Y-113560100D01*
X114434681Y-113732246D01*
X114172754Y-113937452D01*
X113937452Y-114172754D01*
X113732246Y-114434681D01*
X113560100Y-114719445D01*
X113423539Y-115022871D01*
X113423537Y-115022876D01*
X113423537Y-115022877D01*
X113422085Y-115027537D01*
X113324544Y-115340557D01*
X113324542Y-115340567D01*
X113264565Y-115667846D01*
X113264564Y-115667855D01*
X113264564Y-115667858D01*
X113244473Y-116000000D01*
X110500500Y-116000000D01*
X110500500Y-105000000D01*
X128494539Y-105000000D01*
X128512174Y-105415161D01*
X128514373Y-105466909D01*
X128573728Y-105930419D01*
X128573731Y-105930435D01*
X128672179Y-106387237D01*
X128672182Y-106387249D01*
X128672184Y-106387255D01*
X128683296Y-106423539D01*
X128809024Y-106834087D01*
X128902986Y-107067920D01*
X128983267Y-107267706D01*
X129193655Y-107684985D01*
X129193659Y-107684992D01*
X129438675Y-108082924D01*
X129438675Y-108082925D01*
X129716550Y-108458637D01*
X129716552Y-108458639D01*
X130025280Y-108809422D01*
X130025291Y-108809433D01*
X130025299Y-108809442D01*
X130362681Y-109132797D01*
X130520879Y-109260533D01*
X130726267Y-109426373D01*
X130726269Y-109426374D01*
X130726270Y-109426375D01*
X130855176Y-109513500D01*
X131113433Y-109688051D01*
X131113437Y-109688053D01*
X131113447Y-109688060D01*
X131268182Y-109774500D01*
X131521405Y-109915960D01*
X131521409Y-109915962D01*
X131521415Y-109915964D01*
X131521421Y-109915968D01*
X131947253Y-110108457D01*
X132118007Y-110168788D01*
X132387860Y-110264134D01*
X132387879Y-110264140D01*
X132435702Y-110276592D01*
X132840113Y-110381892D01*
X132983604Y-110406496D01*
X133300700Y-110460868D01*
X133300706Y-110460868D01*
X133300708Y-110460869D01*
X133766342Y-110500500D01*
X133766345Y-110500500D01*
X134233655Y-110500500D01*
X134233658Y-110500500D01*
X134699292Y-110460869D01*
X134699295Y-110460868D01*
X134699299Y-110460868D01*
X134828367Y-110438736D01*
X135159887Y-110381892D01*
X135612124Y-110264139D01*
X135612131Y-110264136D01*
X135612139Y-110264134D01*
X135736016Y-110220365D01*
X136052747Y-110108457D01*
X136478579Y-109915968D01*
X136478590Y-109915962D01*
X136478594Y-109915960D01*
X136598357Y-109849056D01*
X136886553Y-109688060D01*
X137273730Y-109426375D01*
X137637319Y-109132797D01*
X137974701Y-108809442D01*
X138283446Y-108458641D01*
X138382160Y-108325171D01*
X138561324Y-108082925D01*
X138561324Y-108082924D01*
X138561328Y-108082919D01*
X138806345Y-107684985D01*
X139016733Y-107267706D01*
X139190975Y-106834088D01*
X139327816Y-106387255D01*
X139332443Y-106365788D01*
X139385601Y-106119130D01*
X139426270Y-105930427D01*
X139485628Y-105466896D01*
X139505461Y-105000000D01*
X139485628Y-104533104D01*
X139430002Y-104098714D01*
X139426271Y-104069580D01*
X139426268Y-104069564D01*
X139327820Y-103612762D01*
X139327818Y-103612758D01*
X139327816Y-103612745D01*
X139190975Y-103165912D01*
X139016733Y-102732294D01*
X138806345Y-102315015D01*
X138561328Y-101917081D01*
X138561324Y-101917075D01*
X138561324Y-101917074D01*
X138283449Y-101541362D01*
X138283447Y-101541360D01*
X137974719Y-101190577D01*
X137974708Y-101190566D01*
X137974701Y-101190558D01*
X137637319Y-100867203D01*
X137430862Y-100700500D01*
X137273732Y-100573626D01*
X137273721Y-100573619D01*
X136886566Y-100311948D01*
X136886557Y-100311943D01*
X136886553Y-100311940D01*
X136786953Y-100256300D01*
X136478594Y-100084039D01*
X136478590Y-100084037D01*
X136361934Y-100031305D01*
X136052747Y-99891543D01*
X136052744Y-99891542D01*
X136052742Y-99891541D01*
X135612139Y-99735865D01*
X135612120Y-99735859D01*
X135159883Y-99618107D01*
X135159885Y-99618107D01*
X134699299Y-99539131D01*
X134699290Y-99539130D01*
X134343222Y-99508825D01*
X134233658Y-99499500D01*
X133766342Y-99499500D01*
X133664746Y-99508147D01*
X133300709Y-99539130D01*
X133300700Y-99539131D01*
X132840115Y-99618107D01*
X132387879Y-99735859D01*
X132387860Y-99735865D01*
X131947257Y-99891541D01*
X131521409Y-100084037D01*
X131521405Y-100084039D01*
X131113457Y-100311934D01*
X131113433Y-100311948D01*
X130726278Y-100573619D01*
X130726267Y-100573626D01*
X130362683Y-100867201D01*
X130362681Y-100867203D01*
X130038707Y-101177708D01*
X130025295Y-101190562D01*
X130025280Y-101190577D01*
X129716552Y-101541360D01*
X129716550Y-101541362D01*
X129438675Y-101917074D01*
X129438675Y-101917075D01*
X129193659Y-102315007D01*
X129193655Y-102315015D01*
X128983267Y-102732294D01*
X128983264Y-102732299D01*
X128983264Y-102732301D01*
X128809024Y-103165912D01*
X128672179Y-103612762D01*
X128573731Y-104069564D01*
X128573728Y-104069580D01*
X128514373Y-104533090D01*
X128514372Y-104533099D01*
X128514372Y-104533104D01*
X128494539Y-105000000D01*
X110500500Y-105000000D01*
X110500500Y-92000000D01*
X114391891Y-92000000D01*
X114412301Y-92285364D01*
X114473108Y-92564891D01*
X114473112Y-92564902D01*
X114573089Y-92832952D01*
X114710192Y-93084039D01*
X114710195Y-93084044D01*
X114816882Y-93226561D01*
X115534424Y-92509018D01*
X115620249Y-92637463D01*
X115759537Y-92776751D01*
X115887979Y-92862573D01*
X115170437Y-93580116D01*
X115312955Y-93686804D01*
X115312960Y-93686807D01*
X115564047Y-93823910D01*
X115832097Y-93923887D01*
X115832108Y-93923891D01*
X116111635Y-93984698D01*
X116397000Y-94005108D01*
X116682364Y-93984698D01*
X116961891Y-93923891D01*
X116961902Y-93923887D01*
X117229952Y-93823910D01*
X117481041Y-93686806D01*
X117481042Y-93686806D01*
X117623561Y-93580115D01*
X116906020Y-92862574D01*
X117034463Y-92776751D01*
X117173751Y-92637463D01*
X117259574Y-92509020D01*
X117977115Y-93226561D01*
X118083806Y-93084042D01*
X118083806Y-93084041D01*
X118220910Y-92832952D01*
X118320887Y-92564902D01*
X118320891Y-92564891D01*
X118381698Y-92285364D01*
X118402108Y-92000000D01*
X118381698Y-91714635D01*
X118320891Y-91435108D01*
X118320887Y-91435097D01*
X118220910Y-91167047D01*
X118083807Y-90915960D01*
X118083804Y-90915955D01*
X117977116Y-90773437D01*
X117259573Y-91490979D01*
X117173751Y-91362537D01*
X117034463Y-91223249D01*
X116906018Y-91137424D01*
X117623561Y-90419882D01*
X117481044Y-90313195D01*
X117481039Y-90313192D01*
X117229952Y-90176089D01*
X116961902Y-90076112D01*
X116961891Y-90076108D01*
X116682364Y-90015301D01*
X116397000Y-89994891D01*
X116111635Y-90015301D01*
X115832108Y-90076108D01*
X115832097Y-90076112D01*
X115564047Y-90176089D01*
X115312960Y-90313192D01*
X115312957Y-90313194D01*
X115170437Y-90419882D01*
X115887980Y-91137425D01*
X115759537Y-91223249D01*
X115620249Y-91362537D01*
X115534425Y-91490980D01*
X114816882Y-90773437D01*
X114710194Y-90915957D01*
X114710192Y-90915960D01*
X114573089Y-91167047D01*
X114473112Y-91435097D01*
X114473108Y-91435108D01*
X114412301Y-91714635D01*
X114391891Y-92000000D01*
X110500500Y-92000000D01*
X110500500Y-91308529D01*
X110500501Y-91308526D01*
X110500500Y-91249608D01*
X110500892Y-91235651D01*
X110507733Y-91113811D01*
X110515429Y-90976734D01*
X110518551Y-90949017D01*
X110560823Y-90700221D01*
X110567031Y-90673024D01*
X110636891Y-90430538D01*
X110646103Y-90404211D01*
X110742681Y-90171061D01*
X110754782Y-90145934D01*
X110876849Y-89925080D01*
X110891706Y-89901437D01*
X111037736Y-89695639D01*
X111055124Y-89673837D01*
X111228305Y-89480060D01*
X111237886Y-89469928D01*
X111279168Y-89428649D01*
X111279168Y-89428647D01*
X111293339Y-89414478D01*
X111293361Y-89414451D01*
X113134883Y-87572929D01*
X113215665Y-87518954D01*
X113310953Y-87500000D01*
X118581996Y-87500000D01*
X118605965Y-87501156D01*
X118624603Y-87502958D01*
X118761679Y-87516215D01*
X118808726Y-87525401D01*
X118947103Y-87566581D01*
X118991521Y-87584615D01*
X119119436Y-87651547D01*
X119159573Y-87677757D01*
X119281704Y-87775493D01*
X119299698Y-87791373D01*
X121111423Y-89552772D01*
X125908044Y-94216154D01*
X126058799Y-94336733D01*
X126229914Y-94426099D01*
X126415011Y-94480922D01*
X126607193Y-94499157D01*
X134862070Y-94482066D01*
X135056867Y-94462498D01*
X135244118Y-94405352D01*
X135416646Y-94312818D01*
X135416649Y-94312815D01*
X135416652Y-94312814D01*
X135567833Y-94188447D01*
X135567832Y-94188447D01*
X135567838Y-94188443D01*
X135691901Y-94036993D01*
X135784077Y-93864273D01*
X135840836Y-93676905D01*
X135860000Y-93482068D01*
X135860000Y-89465796D01*
X135878954Y-89370508D01*
X135932930Y-89289726D01*
X137778157Y-87444500D01*
X141159227Y-84063430D01*
X141240009Y-84009454D01*
X141335297Y-83990500D01*
X153555256Y-83990500D01*
X153650544Y-84009454D01*
X153731326Y-84063430D01*
X153759227Y-84096683D01*
X153781945Y-84129129D01*
X153781950Y-84129135D01*
X153781953Y-84129139D01*
X153942861Y-84290047D01*
X154025048Y-84347594D01*
X154028516Y-84350068D01*
X154040842Y-84359023D01*
X154106790Y-84430368D01*
X154140415Y-84521518D01*
X154136599Y-84618598D01*
X154095923Y-84706828D01*
X154057047Y-84745030D01*
X154056527Y-84750973D01*
X154735554Y-85430000D01*
X154729339Y-85430000D01*
X154627606Y-85457259D01*
X154536394Y-85509920D01*
X154461920Y-85584394D01*
X154409259Y-85675606D01*
X154382000Y-85777339D01*
X154382000Y-85783554D01*
X153702973Y-85104527D01*
X153702972Y-85104527D01*
X153651870Y-85177510D01*
X153651867Y-85177514D01*
X153555732Y-85383676D01*
X153496859Y-85603396D01*
X153496859Y-85603397D01*
X153477034Y-85830000D01*
X153496858Y-86056594D01*
X153496859Y-86056603D01*
X153555732Y-86276323D01*
X153651867Y-86482486D01*
X153651869Y-86482488D01*
X153702973Y-86555471D01*
X154382000Y-85876445D01*
X154382000Y-85882661D01*
X154409259Y-85984394D01*
X154461920Y-86075606D01*
X154536394Y-86150080D01*
X154627606Y-86202741D01*
X154729339Y-86230000D01*
X154735552Y-86230000D01*
X153979963Y-86985587D01*
X153899182Y-87039563D01*
X153804070Y-87058517D01*
X153801241Y-87058519D01*
X153779172Y-87054145D01*
X153750544Y-87058565D01*
X149860210Y-87062052D01*
X149836162Y-87062646D01*
X149824401Y-87063217D01*
X149800501Y-87064946D01*
X149629123Y-87081446D01*
X149629113Y-87081447D01*
X149629105Y-87081448D01*
X149629081Y-87081451D01*
X149581580Y-87088315D01*
X149558468Y-87092785D01*
X149531428Y-87099362D01*
X149511769Y-87104144D01*
X149490159Y-87110502D01*
X149352305Y-87151060D01*
X149352282Y-87151067D01*
X149306900Y-87166798D01*
X149306881Y-87166805D01*
X149285118Y-87175527D01*
X149285035Y-87175563D01*
X149241380Y-87195519D01*
X149241356Y-87195530D01*
X149093614Y-87271755D01*
X149052041Y-87295770D01*
X149052029Y-87295778D01*
X149032234Y-87308504D01*
X149028418Y-87311222D01*
X148993086Y-87336387D01*
X148862427Y-87439153D01*
X148826093Y-87470639D01*
X148809110Y-87486831D01*
X148809083Y-87486858D01*
X148775916Y-87521635D01*
X148775916Y-87521636D01*
X148663153Y-87651727D01*
X148647805Y-87670309D01*
X148640562Y-87679517D01*
X148626162Y-87698745D01*
X147732397Y-88953125D01*
X147539501Y-89223850D01*
X145701825Y-91802982D01*
X145439596Y-92171013D01*
X145425049Y-92192584D01*
X145418180Y-92203360D01*
X145404729Y-92225712D01*
X145312593Y-92388170D01*
X145312581Y-92388193D01*
X145289234Y-92434810D01*
X145279002Y-92458181D01*
X145278998Y-92458190D01*
X145260580Y-92506958D01*
X145260576Y-92506969D01*
X145205649Y-92678715D01*
X145192358Y-92729088D01*
X145192348Y-92729132D01*
X145187124Y-92754086D01*
X145179081Y-92805635D01*
X145169186Y-92901200D01*
X145159848Y-92991377D01*
X145157831Y-93017405D01*
X145157171Y-93030190D01*
X145156500Y-93056224D01*
X145156500Y-113763905D01*
X145157108Y-113788705D01*
X145157675Y-113800232D01*
X145157706Y-113800861D01*
X145157824Y-113802455D01*
X145159531Y-113825613D01*
X145176951Y-114002486D01*
X145176951Y-114002490D01*
X145184228Y-114051544D01*
X145184229Y-114051553D01*
X145188965Y-114075365D01*
X145201021Y-114123501D01*
X145201027Y-114123523D01*
X145250836Y-114287722D01*
X145250840Y-114287735D01*
X145250841Y-114287736D01*
X145264753Y-114326617D01*
X145267564Y-114334471D01*
X145268263Y-114336158D01*
X145276861Y-114356913D01*
X145298067Y-114401747D01*
X145301864Y-114408851D01*
X145378964Y-114553095D01*
X145404451Y-114595617D01*
X145404469Y-114595646D01*
X145417957Y-114615832D01*
X145417979Y-114615864D01*
X145437222Y-114641810D01*
X145445515Y-114652993D01*
X145447527Y-114655705D01*
X145543281Y-114772381D01*
X145556388Y-114788352D01*
X145589703Y-114825108D01*
X145606891Y-114842296D01*
X145609974Y-114845090D01*
X145643648Y-114875612D01*
X145644124Y-114876003D01*
X145776303Y-114984479D01*
X145816152Y-115014032D01*
X145836364Y-115027537D01*
X145878910Y-115053038D01*
X146030252Y-115133932D01*
X146075086Y-115155138D01*
X146087920Y-115160454D01*
X146097531Y-115164436D01*
X146097540Y-115164439D01*
X146097544Y-115164441D01*
X146144263Y-115181158D01*
X146154608Y-115184296D01*
X146308471Y-115230970D01*
X146308481Y-115230972D01*
X146308486Y-115230974D01*
X146356611Y-115243028D01*
X146380452Y-115247770D01*
X146380457Y-115247770D01*
X146380470Y-115247773D01*
X146402577Y-115251052D01*
X146429516Y-115255048D01*
X146606390Y-115272469D01*
X146631139Y-115274294D01*
X146643293Y-115274891D01*
X146668093Y-115275500D01*
X154486145Y-115275500D01*
X154581433Y-115294454D01*
X154662215Y-115348430D01*
X154716191Y-115429212D01*
X154735145Y-115524500D01*
X154716191Y-115619788D01*
X154714188Y-115624484D01*
X154627937Y-115821119D01*
X154627936Y-115821122D01*
X154627935Y-115821125D01*
X154566894Y-116062168D01*
X154566892Y-116062176D01*
X154546357Y-116310000D01*
X154566892Y-116557823D01*
X154566894Y-116557831D01*
X154597705Y-116679500D01*
X154627937Y-116798881D01*
X154669065Y-116892643D01*
X154727825Y-117026603D01*
X154727828Y-117026608D01*
X154863830Y-117234778D01*
X154863836Y-117234785D01*
X155032248Y-117417730D01*
X155032252Y-117417733D01*
X155032256Y-117417738D01*
X155032260Y-117417741D01*
X155032261Y-117417742D01*
X155228485Y-117570470D01*
X155228487Y-117570471D01*
X155228491Y-117570474D01*
X155447190Y-117688828D01*
X155469981Y-117696652D01*
X155682378Y-117769569D01*
X155682382Y-117769569D01*
X155682386Y-117769571D01*
X155927665Y-117810500D01*
X155973414Y-117810500D01*
X156008847Y-117813034D01*
X156026000Y-117815500D01*
X160086234Y-117815500D01*
X160086235Y-117815500D01*
X160155280Y-117810762D01*
X160155285Y-117810761D01*
X160155289Y-117810761D01*
X160174885Y-117808058D01*
X160188838Y-117806135D01*
X160188850Y-117806132D01*
X160188853Y-117806132D01*
X160200288Y-117803747D01*
X160256599Y-117792009D01*
X160388159Y-117733754D01*
X160388787Y-117733361D01*
X160393819Y-117730208D01*
X160447369Y-117696661D01*
X160448160Y-117695992D01*
X160529853Y-117626839D01*
X160557184Y-117603704D01*
X163519740Y-114263502D01*
X163597141Y-114204797D01*
X163691125Y-114180178D01*
X163787376Y-114193399D01*
X163871242Y-114242447D01*
X163928553Y-114318009D01*
X163928791Y-114317889D01*
X163929464Y-114319211D01*
X163929953Y-114319855D01*
X163931158Y-114322536D01*
X163974078Y-114406771D01*
X164977000Y-113827734D01*
X164977000Y-113848991D01*
X165017889Y-114001591D01*
X165096881Y-114138408D01*
X165208592Y-114250119D01*
X165226998Y-114260746D01*
X164269785Y-114813394D01*
X164332391Y-114876000D01*
X164517034Y-115010151D01*
X164720382Y-115113762D01*
X164720399Y-115113770D01*
X164937460Y-115184296D01*
X165162872Y-115219998D01*
X165162887Y-115220000D01*
X165991114Y-115220000D01*
X165991124Y-115219999D01*
X166114224Y-115200501D01*
X166114225Y-115200500D01*
X165634736Y-114370000D01*
X165655991Y-114370000D01*
X165808591Y-114329111D01*
X165945408Y-114250119D01*
X166057119Y-114138408D01*
X166067746Y-114120000D01*
X166594242Y-115031918D01*
X166594243Y-115031918D01*
X166636968Y-115010149D01*
X166821605Y-114876003D01*
X166983000Y-114714608D01*
X167117151Y-114529965D01*
X167220762Y-114326617D01*
X167220770Y-114326600D01*
X167291296Y-114109539D01*
X167326998Y-113884127D01*
X167327000Y-113884112D01*
X167327000Y-113655887D01*
X167326998Y-113655872D01*
X167291296Y-113430459D01*
X167220769Y-113213397D01*
X167220765Y-113213387D01*
X167179921Y-113133226D01*
X167179920Y-113133226D01*
X166177000Y-113712262D01*
X166177000Y-113691009D01*
X166136111Y-113538409D01*
X166057119Y-113401592D01*
X165945408Y-113289881D01*
X165926999Y-113279252D01*
X166884213Y-112726604D01*
X166834032Y-112676423D01*
X166780056Y-112595641D01*
X166761102Y-112500353D01*
X166780056Y-112405065D01*
X166834029Y-112324286D01*
X166983379Y-112174937D01*
X167117579Y-111990228D01*
X167221231Y-111786799D01*
X167291784Y-111569660D01*
X167327500Y-111344157D01*
X167327500Y-111115843D01*
X167291784Y-110890340D01*
X167221231Y-110673201D01*
X167117579Y-110469772D01*
X166983379Y-110285063D01*
X166983376Y-110285060D01*
X166983374Y-110285057D01*
X166977025Y-110277623D01*
X166978232Y-110276592D01*
X166930951Y-110205830D01*
X166911997Y-110110542D01*
X166930951Y-110015254D01*
X166961659Y-109961327D01*
X167020796Y-109882331D01*
X167071091Y-109747483D01*
X167077500Y-109687873D01*
X167077499Y-107949999D01*
X169682000Y-107949999D01*
X169682000Y-114650000D01*
X169701214Y-114845088D01*
X169701215Y-114845091D01*
X169757887Y-115031918D01*
X169758120Y-115032683D01*
X169758123Y-115032688D01*
X169847820Y-115200501D01*
X169850530Y-115205570D01*
X169974893Y-115357107D01*
X170126430Y-115481470D01*
X170299317Y-115573880D01*
X170486910Y-115630785D01*
X170682000Y-115650000D01*
X186081997Y-115650000D01*
X186082000Y-115650000D01*
X186277090Y-115630785D01*
X186464683Y-115573880D01*
X186637570Y-115481470D01*
X186789107Y-115357107D01*
X186913470Y-115205570D01*
X187005880Y-115032683D01*
X187027928Y-114960000D01*
X195357034Y-114960000D01*
X195376859Y-115186602D01*
X195376859Y-115186603D01*
X195435732Y-115406323D01*
X195531867Y-115612486D01*
X195531869Y-115612488D01*
X195582972Y-115685471D01*
X195582974Y-115685471D01*
X196179037Y-115089408D01*
X196196075Y-115152993D01*
X196261901Y-115267007D01*
X196354993Y-115360099D01*
X196469007Y-115425925D01*
X196532589Y-115442962D01*
X195936527Y-116039023D01*
X195936527Y-116039025D01*
X196009515Y-116090132D01*
X196215676Y-116186267D01*
X196435396Y-116245140D01*
X196662000Y-116264965D01*
X196888602Y-116245140D01*
X196888603Y-116245140D01*
X197108326Y-116186266D01*
X197314476Y-116090137D01*
X197314483Y-116090133D01*
X197387471Y-116039025D01*
X196791408Y-115442962D01*
X196854993Y-115425925D01*
X196969007Y-115360099D01*
X197062099Y-115267007D01*
X197127925Y-115152993D01*
X197144962Y-115089408D01*
X197741025Y-115685471D01*
X197792133Y-115612483D01*
X197792137Y-115612476D01*
X197888266Y-115406326D01*
X197947140Y-115186603D01*
X197947140Y-115186602D01*
X197966965Y-114960000D01*
X197947140Y-114733397D01*
X197947140Y-114733396D01*
X197888267Y-114513676D01*
X197792132Y-114307515D01*
X197741025Y-114234527D01*
X197741023Y-114234527D01*
X197144962Y-114830589D01*
X197127925Y-114767007D01*
X197062099Y-114652993D01*
X196969007Y-114559901D01*
X196854993Y-114494075D01*
X196791408Y-114477037D01*
X197387471Y-113880974D01*
X197387471Y-113880972D01*
X197314488Y-113829869D01*
X197314486Y-113829867D01*
X197108323Y-113733732D01*
X196888603Y-113674859D01*
X196662000Y-113655034D01*
X196435397Y-113674859D01*
X196435396Y-113674859D01*
X196215676Y-113733732D01*
X196009514Y-113829867D01*
X196009510Y-113829870D01*
X195936527Y-113880972D01*
X195936527Y-113880973D01*
X196532591Y-114477037D01*
X196469007Y-114494075D01*
X196354993Y-114559901D01*
X196261901Y-114652993D01*
X196196075Y-114767007D01*
X196179037Y-114830591D01*
X195582973Y-114234527D01*
X195582972Y-114234527D01*
X195531870Y-114307510D01*
X195531867Y-114307514D01*
X195435732Y-114513676D01*
X195376859Y-114733396D01*
X195376859Y-114733397D01*
X195357034Y-114960000D01*
X187027928Y-114960000D01*
X187062785Y-114845090D01*
X187082000Y-114650000D01*
X187082000Y-107950000D01*
X187062785Y-107754910D01*
X187005880Y-107567317D01*
X186913470Y-107394430D01*
X186789107Y-107242893D01*
X186637570Y-107118530D01*
X186637568Y-107118529D01*
X186637567Y-107118528D01*
X186542885Y-107067920D01*
X186464683Y-107026120D01*
X186464680Y-107026119D01*
X186464678Y-107026118D01*
X186277091Y-106969215D01*
X186277088Y-106969214D01*
X186082000Y-106950000D01*
X170682000Y-106950000D01*
X170681999Y-106950000D01*
X170486911Y-106969214D01*
X170486908Y-106969215D01*
X170299321Y-107026118D01*
X170299311Y-107026123D01*
X170126432Y-107118528D01*
X169974894Y-107242892D01*
X169974892Y-107242894D01*
X169850528Y-107394432D01*
X169758123Y-107567311D01*
X169758118Y-107567321D01*
X169701215Y-107754908D01*
X169701214Y-107754911D01*
X169682000Y-107949999D01*
X167077499Y-107949999D01*
X167077499Y-107692128D01*
X167071091Y-107632517D01*
X167020796Y-107497669D01*
X166934546Y-107382454D01*
X166819331Y-107296204D01*
X166684483Y-107245909D01*
X166684478Y-107245907D01*
X166669326Y-107242327D01*
X166670253Y-107238402D01*
X166605847Y-107217807D01*
X166531676Y-107155055D01*
X166487166Y-107068695D01*
X166477500Y-106999991D01*
X166477500Y-106388551D01*
X201161500Y-106388551D01*
X201161500Y-106531448D01*
X201176804Y-106745429D01*
X201196091Y-106834088D01*
X201237631Y-107025046D01*
X201238032Y-107026120D01*
X201337631Y-107293158D01*
X201474775Y-107544317D01*
X201491993Y-107567317D01*
X201646261Y-107773395D01*
X201848605Y-107975739D01*
X201978185Y-108072741D01*
X202073164Y-108143842D01*
X202077685Y-108147226D01*
X202282638Y-108259139D01*
X202328841Y-108284368D01*
X202370703Y-108299981D01*
X202596954Y-108384369D01*
X202876572Y-108445196D01*
X203090552Y-108460500D01*
X203090557Y-108460500D01*
X204233443Y-108460500D01*
X204233448Y-108460500D01*
X204447428Y-108445196D01*
X204727046Y-108384369D01*
X204995161Y-108284367D01*
X205246315Y-108147226D01*
X205475395Y-107975739D01*
X205677739Y-107773395D01*
X205849226Y-107544315D01*
X205986367Y-107293161D01*
X206086369Y-107025046D01*
X206147196Y-106745428D01*
X206162500Y-106531448D01*
X206162500Y-106388552D01*
X206147196Y-106174572D01*
X206086369Y-105894954D01*
X205986367Y-105626839D01*
X205849226Y-105375685D01*
X205677739Y-105146605D01*
X205475395Y-104944261D01*
X205264830Y-104786634D01*
X205246317Y-104772775D01*
X204995158Y-104635631D01*
X204849970Y-104581479D01*
X204727046Y-104535631D01*
X204727047Y-104535631D01*
X204447429Y-104474804D01*
X204233448Y-104459500D01*
X203090552Y-104459500D01*
X203090551Y-104459500D01*
X202876570Y-104474804D01*
X202596954Y-104535631D01*
X202328841Y-104635631D01*
X202077682Y-104772775D01*
X201917800Y-104892462D01*
X201848605Y-104944261D01*
X201848604Y-104944262D01*
X201646262Y-105146604D01*
X201646260Y-105146607D01*
X201474775Y-105375682D01*
X201337631Y-105626841D01*
X201237631Y-105894954D01*
X201176804Y-106174570D01*
X201161500Y-106388551D01*
X166477500Y-106388551D01*
X166477500Y-97031825D01*
X166496454Y-96936537D01*
X166550427Y-96855758D01*
X166577047Y-96829139D01*
X166707568Y-96642734D01*
X166803739Y-96436496D01*
X166862635Y-96216692D01*
X166882468Y-95990000D01*
X166882468Y-95989994D01*
X166862636Y-95763320D01*
X166862635Y-95763308D01*
X166803739Y-95543504D01*
X166749123Y-95426380D01*
X166707571Y-95337272D01*
X166707563Y-95337258D01*
X166577050Y-95150865D01*
X166577049Y-95150864D01*
X166577047Y-95150861D01*
X166416139Y-94989953D01*
X166416135Y-94989950D01*
X166416134Y-94989949D01*
X166229741Y-94859436D01*
X166229727Y-94859428D01*
X166023499Y-94763262D01*
X166023496Y-94763261D01*
X165803694Y-94704365D01*
X165803679Y-94704363D01*
X165577006Y-94684532D01*
X165576994Y-94684532D01*
X165350320Y-94704363D01*
X165350305Y-94704365D01*
X165130503Y-94763261D01*
X165130500Y-94763262D01*
X164924272Y-94859428D01*
X164924258Y-94859436D01*
X164737865Y-94989949D01*
X164576949Y-95150865D01*
X164446436Y-95337258D01*
X164446428Y-95337272D01*
X164350262Y-95543500D01*
X164350261Y-95543503D01*
X164291365Y-95763305D01*
X164291363Y-95763320D01*
X164271532Y-95989994D01*
X164271532Y-95990005D01*
X164291363Y-96216679D01*
X164291365Y-96216694D01*
X164350261Y-96436496D01*
X164350262Y-96436499D01*
X164446428Y-96642727D01*
X164446436Y-96642741D01*
X164570392Y-96819769D01*
X164576953Y-96829139D01*
X164603572Y-96855758D01*
X164657546Y-96936537D01*
X164676500Y-97031825D01*
X164676500Y-106999990D01*
X164657546Y-107095278D01*
X164603570Y-107176060D01*
X164522788Y-107230036D01*
X164484161Y-107240129D01*
X164484681Y-107242326D01*
X164469515Y-107245909D01*
X164334670Y-107296203D01*
X164219455Y-107382453D01*
X164219453Y-107382455D01*
X164133204Y-107497669D01*
X164082908Y-107632518D01*
X164077267Y-107684992D01*
X164076500Y-107692127D01*
X164076500Y-108674365D01*
X164076501Y-109525500D01*
X164057547Y-109620788D01*
X164003571Y-109701569D01*
X163922789Y-109755546D01*
X163827501Y-109774500D01*
X161820960Y-109774500D01*
X161758007Y-109778435D01*
X161758000Y-109778435D01*
X161757998Y-109778436D01*
X161757997Y-109778436D01*
X161727374Y-109782279D01*
X161665404Y-109794023D01*
X161665403Y-109794023D01*
X161532463Y-109849057D01*
X161532460Y-109849058D01*
X161449019Y-109898543D01*
X161435581Y-109914329D01*
X161360317Y-109974955D01*
X158348707Y-113208338D01*
X158269892Y-113265147D01*
X158175337Y-113287471D01*
X158079436Y-113271911D01*
X157996790Y-113220835D01*
X157939981Y-113142020D01*
X157917657Y-113047465D01*
X157917500Y-113038628D01*
X157917500Y-106156093D01*
X157916891Y-106131295D01*
X157916891Y-106131292D01*
X157916294Y-106119138D01*
X157914469Y-106094389D01*
X157897048Y-105917516D01*
X157889770Y-105868452D01*
X157885028Y-105844611D01*
X157872974Y-105796486D01*
X157872972Y-105796481D01*
X157872970Y-105796471D01*
X157823159Y-105632267D01*
X157823158Y-105632263D01*
X157806441Y-105585544D01*
X157797138Y-105563086D01*
X157775932Y-105518252D01*
X157695038Y-105366910D01*
X157669537Y-105324364D01*
X157656032Y-105304152D01*
X157626479Y-105264303D01*
X157616990Y-105252741D01*
X157517612Y-105131648D01*
X157512136Y-105125606D01*
X157484296Y-105094891D01*
X157467108Y-105077703D01*
X157430352Y-105044388D01*
X157430350Y-105044386D01*
X157297712Y-104935532D01*
X157293841Y-104932661D01*
X157266265Y-104912210D01*
X157201021Y-104840227D01*
X157168289Y-104748752D01*
X157173054Y-104651714D01*
X157214591Y-104563886D01*
X157231403Y-104543562D01*
X157239770Y-104534472D01*
X157375731Y-104326369D01*
X157375731Y-104326368D01*
X157475586Y-104098722D01*
X157475589Y-104098714D01*
X157536610Y-103857748D01*
X157536612Y-103857741D01*
X157557140Y-103610000D01*
X157536612Y-103362258D01*
X157536610Y-103362251D01*
X157475589Y-103121285D01*
X157475586Y-103121277D01*
X157375730Y-102893628D01*
X157275435Y-102740117D01*
X156534962Y-103480589D01*
X156517925Y-103417007D01*
X156452099Y-103302993D01*
X156359007Y-103209901D01*
X156244993Y-103144075D01*
X156181407Y-103127037D01*
X156922056Y-102386388D01*
X156875241Y-102349951D01*
X156875230Y-102349944D01*
X156656607Y-102231631D01*
X156421490Y-102150916D01*
X156421487Y-102150915D01*
X156176294Y-102110000D01*
X155927706Y-102110000D01*
X155682512Y-102150915D01*
X155682509Y-102150916D01*
X155447392Y-102231631D01*
X155228768Y-102349944D01*
X155228758Y-102349951D01*
X155181941Y-102386388D01*
X155922590Y-103127037D01*
X155859007Y-103144075D01*
X155744993Y-103209901D01*
X155651901Y-103302993D01*
X155586075Y-103417007D01*
X155569037Y-103480591D01*
X154828563Y-102740117D01*
X154728268Y-102893630D01*
X154728268Y-102893631D01*
X154628413Y-103121277D01*
X154628410Y-103121285D01*
X154567389Y-103362251D01*
X154567387Y-103362258D01*
X154546859Y-103610000D01*
X154567387Y-103857741D01*
X154567389Y-103857748D01*
X154628410Y-104098714D01*
X154628417Y-104098732D01*
X154714718Y-104295478D01*
X154735638Y-104390354D01*
X154718657Y-104486013D01*
X154666362Y-104567893D01*
X154586713Y-104623527D01*
X154491837Y-104644447D01*
X154486691Y-104644500D01*
X152426327Y-104644500D01*
X152401919Y-104643301D01*
X152382853Y-104641423D01*
X152317650Y-104635000D01*
X152269781Y-104625477D01*
X152224413Y-104611715D01*
X152179318Y-104593037D01*
X152137506Y-104570688D01*
X152096926Y-104543574D01*
X152060270Y-104513491D01*
X152025761Y-104478982D01*
X151995670Y-104442315D01*
X151968558Y-104401740D01*
X151946209Y-104359928D01*
X151927533Y-104314837D01*
X151913767Y-104269458D01*
X151904245Y-104221582D01*
X151895949Y-104137339D01*
X151894750Y-104112936D01*
X151894750Y-93000109D01*
X151896661Y-92969321D01*
X151909839Y-92863612D01*
X151924962Y-92803903D01*
X151963684Y-92704679D01*
X151976664Y-92676678D01*
X153009638Y-90768181D01*
X153071662Y-90693405D01*
X153157583Y-90648055D01*
X153254319Y-90639038D01*
X153347142Y-90667726D01*
X153421921Y-90729752D01*
X153467271Y-90815673D01*
X153475732Y-90899128D01*
X153476532Y-90899128D01*
X153476532Y-90907017D01*
X153476672Y-90908398D01*
X153476532Y-90909999D01*
X153476532Y-90910005D01*
X153496363Y-91136679D01*
X153496365Y-91136694D01*
X153555261Y-91356496D01*
X153555262Y-91356499D01*
X153651428Y-91562727D01*
X153651436Y-91562741D01*
X153753365Y-91708311D01*
X153781953Y-91749139D01*
X153829399Y-91796585D01*
X153883373Y-91877364D01*
X153902327Y-91972652D01*
X153883373Y-92067940D01*
X153829397Y-92148722D01*
X153748615Y-92202698D01*
X153740344Y-92205952D01*
X153739671Y-92206202D01*
X153624455Y-92292453D01*
X153624453Y-92292455D01*
X153538204Y-92407669D01*
X153487908Y-92542518D01*
X153481500Y-92602123D01*
X153481500Y-94297865D01*
X153481500Y-94297868D01*
X153481501Y-94297872D01*
X153483107Y-94312814D01*
X153487908Y-94357480D01*
X153487909Y-94357484D01*
X153534375Y-94482066D01*
X153538204Y-94492331D01*
X153624454Y-94607546D01*
X153739669Y-94693796D01*
X153874517Y-94744091D01*
X153934127Y-94750500D01*
X155629872Y-94750499D01*
X155689483Y-94744091D01*
X155824331Y-94693796D01*
X155939546Y-94607546D01*
X156025796Y-94492331D01*
X156076091Y-94357483D01*
X156082500Y-94297873D01*
X156082499Y-92602128D01*
X156076091Y-92542517D01*
X156025796Y-92407669D01*
X155939546Y-92292454D01*
X155824331Y-92206204D01*
X155823656Y-92205952D01*
X155822026Y-92204945D01*
X155808702Y-92197670D01*
X155809091Y-92196955D01*
X155741002Y-92154896D01*
X155684175Y-92076094D01*
X155661831Y-91981543D01*
X155677370Y-91885639D01*
X155728428Y-91802982D01*
X155734576Y-91796609D01*
X155782047Y-91749139D01*
X155912568Y-91562734D01*
X156008739Y-91356496D01*
X156067635Y-91136692D01*
X156072375Y-91082512D01*
X156079594Y-91000000D01*
X194994539Y-91000000D01*
X195013021Y-91435097D01*
X195014373Y-91466909D01*
X195073728Y-91930419D01*
X195073731Y-91930435D01*
X195172179Y-92387237D01*
X195172182Y-92387249D01*
X195172184Y-92387255D01*
X195219733Y-92542518D01*
X195309024Y-92834087D01*
X195437248Y-93153183D01*
X195483267Y-93267706D01*
X195693655Y-93684985D01*
X195693659Y-93684992D01*
X195938675Y-94082924D01*
X195938675Y-94082925D01*
X196216550Y-94458637D01*
X196216552Y-94458639D01*
X196525280Y-94809422D01*
X196525291Y-94809433D01*
X196525299Y-94809442D01*
X196862681Y-95132797D01*
X196885053Y-95150861D01*
X197226267Y-95426373D01*
X197226269Y-95426374D01*
X197226270Y-95426375D01*
X197399563Y-95543500D01*
X197613433Y-95688051D01*
X197613437Y-95688053D01*
X197613447Y-95688060D01*
X197748142Y-95763305D01*
X198021405Y-95915960D01*
X198021409Y-95915962D01*
X198021415Y-95915964D01*
X198021421Y-95915968D01*
X198447253Y-96108457D01*
X198548965Y-96144394D01*
X198887860Y-96264134D01*
X198887879Y-96264140D01*
X198986857Y-96289911D01*
X199340113Y-96381892D01*
X199485501Y-96406821D01*
X199800700Y-96460868D01*
X199800706Y-96460868D01*
X199800708Y-96460869D01*
X200266342Y-96500500D01*
X200266345Y-96500500D01*
X200733655Y-96500500D01*
X200733658Y-96500500D01*
X201199292Y-96460869D01*
X201199295Y-96460868D01*
X201199299Y-96460868D01*
X201341436Y-96436496D01*
X201659887Y-96381892D01*
X202112124Y-96264139D01*
X202112131Y-96264136D01*
X202112139Y-96264134D01*
X202246449Y-96216679D01*
X202552747Y-96108457D01*
X202978579Y-95915968D01*
X202978590Y-95915962D01*
X202978594Y-95915960D01*
X203080149Y-95859227D01*
X203386553Y-95688060D01*
X203773730Y-95426375D01*
X204137319Y-95132797D01*
X204474701Y-94809442D01*
X204526579Y-94750498D01*
X204584636Y-94684532D01*
X204783446Y-94458641D01*
X204858262Y-94357483D01*
X205061324Y-94082925D01*
X205061324Y-94082924D01*
X205061328Y-94082919D01*
X205306345Y-93684985D01*
X205516733Y-93267706D01*
X205690975Y-92834088D01*
X205827816Y-92387255D01*
X205926270Y-91930427D01*
X205985628Y-91466896D01*
X206005461Y-91000000D01*
X205985628Y-90533104D01*
X205927107Y-90076108D01*
X205926271Y-90069580D01*
X205926268Y-90069564D01*
X205827820Y-89612762D01*
X205827818Y-89612758D01*
X205827816Y-89612745D01*
X205690975Y-89165912D01*
X205516733Y-88732294D01*
X205306345Y-88315015D01*
X205061328Y-87917081D01*
X205061324Y-87917075D01*
X205061324Y-87917074D01*
X204783449Y-87541362D01*
X204783447Y-87541360D01*
X204474719Y-87190577D01*
X204474708Y-87190566D01*
X204474701Y-87190558D01*
X204137319Y-86867203D01*
X203935757Y-86704453D01*
X203773732Y-86573626D01*
X203773721Y-86573619D01*
X203386566Y-86311948D01*
X203386557Y-86311943D01*
X203386553Y-86311940D01*
X203239874Y-86230000D01*
X202978594Y-86084039D01*
X202978590Y-86084037D01*
X202917899Y-86056603D01*
X202552747Y-85891543D01*
X202552744Y-85891542D01*
X202552742Y-85891541D01*
X202112139Y-85735865D01*
X202112120Y-85735859D01*
X201659883Y-85618107D01*
X201659885Y-85618107D01*
X201199299Y-85539131D01*
X201199290Y-85539130D01*
X200843222Y-85508825D01*
X200733658Y-85499500D01*
X200266342Y-85499500D01*
X200164746Y-85508147D01*
X199800709Y-85539130D01*
X199800700Y-85539131D01*
X199340115Y-85618107D01*
X198887879Y-85735859D01*
X198887860Y-85735865D01*
X198447257Y-85891541D01*
X198021409Y-86084037D01*
X198021405Y-86084039D01*
X197613457Y-86311934D01*
X197613433Y-86311948D01*
X197226278Y-86573619D01*
X197226267Y-86573626D01*
X196862683Y-86867201D01*
X196853773Y-86875741D01*
X196540945Y-87175563D01*
X196525295Y-87190562D01*
X196525280Y-87190577D01*
X196216552Y-87541360D01*
X196216550Y-87541362D01*
X195938675Y-87917074D01*
X195938675Y-87917075D01*
X195693659Y-88315007D01*
X195693655Y-88315015D01*
X195483267Y-88732294D01*
X195483264Y-88732299D01*
X195483264Y-88732301D01*
X195309024Y-89165912D01*
X195172179Y-89612762D01*
X195073731Y-90069564D01*
X195073728Y-90069580D01*
X195014373Y-90533090D01*
X195014372Y-90533099D01*
X195014372Y-90533104D01*
X194994539Y-91000000D01*
X156079594Y-91000000D01*
X156087468Y-90910005D01*
X156087468Y-90909994D01*
X156067636Y-90683320D01*
X156067635Y-90683308D01*
X156008739Y-90463504D01*
X155912568Y-90257266D01*
X155912565Y-90257262D01*
X155912563Y-90257258D01*
X155782050Y-90070865D01*
X155782049Y-90070864D01*
X155782047Y-90070861D01*
X155621139Y-89909953D01*
X155621135Y-89909950D01*
X155621134Y-89909949D01*
X155526903Y-89843968D01*
X155459719Y-89773787D01*
X155424506Y-89683238D01*
X155426625Y-89586106D01*
X155465754Y-89497179D01*
X155526899Y-89436033D01*
X155621139Y-89370047D01*
X155782047Y-89209139D01*
X155912568Y-89022734D01*
X155925780Y-88994400D01*
X155945027Y-88953125D01*
X155946870Y-88949374D01*
X155946850Y-88949364D01*
X155948385Y-88946177D01*
X155960435Y-88921159D01*
X155961350Y-88918949D01*
X155962348Y-88916542D01*
X155966727Y-88906589D01*
X155987118Y-88862861D01*
X156008739Y-88816496D01*
X156043572Y-88686491D01*
X156044792Y-88682105D01*
X156048054Y-88670788D01*
X156048588Y-88668444D01*
X156050811Y-88659475D01*
X156067635Y-88596692D01*
X156087468Y-88370000D01*
X156087468Y-88369994D01*
X156067636Y-88143314D01*
X156067635Y-88143309D01*
X156059305Y-88112222D01*
X156054929Y-88092190D01*
X156054898Y-88092197D01*
X156054562Y-88090511D01*
X156054341Y-88089496D01*
X156054224Y-88088808D01*
X156054215Y-88088765D01*
X156051002Y-88074698D01*
X156048037Y-88061712D01*
X156032324Y-88007203D01*
X156030478Y-88001931D01*
X156024973Y-87984091D01*
X156008741Y-87923510D01*
X156008740Y-87923508D01*
X156008739Y-87923504D01*
X155991019Y-87885503D01*
X155983477Y-87866970D01*
X155983438Y-87866987D01*
X155983437Y-87866985D01*
X155983346Y-87867020D01*
X155982105Y-87863770D01*
X155981714Y-87862827D01*
X155960384Y-87811363D01*
X155948323Y-87786334D01*
X155929842Y-87752918D01*
X155922079Y-87737663D01*
X155912568Y-87717266D01*
X155877703Y-87667473D01*
X155870930Y-87657272D01*
X155839971Y-87608036D01*
X155807131Y-87561787D01*
X155789800Y-87540072D01*
X155789793Y-87540064D01*
X155787553Y-87537413D01*
X155787560Y-87537406D01*
X155786900Y-87536643D01*
X155781931Y-87530722D01*
X155772819Y-87521086D01*
X155751996Y-87497804D01*
X155644478Y-87390382D01*
X155644463Y-87390368D01*
X155602168Y-87352609D01*
X155602155Y-87352597D01*
X155580418Y-87335282D01*
X155580411Y-87335277D01*
X155531310Y-87300479D01*
X155531867Y-87299691D01*
X155466983Y-87234877D01*
X155429756Y-87145137D01*
X155429705Y-87047982D01*
X155466837Y-86958203D01*
X155506739Y-86917398D01*
X155507471Y-86909025D01*
X154828446Y-86230000D01*
X154834661Y-86230000D01*
X154936394Y-86202741D01*
X155027606Y-86150080D01*
X155102080Y-86075606D01*
X155154741Y-85984394D01*
X155182000Y-85882661D01*
X155182000Y-85876446D01*
X155861025Y-86555471D01*
X155912133Y-86482483D01*
X155912137Y-86482476D01*
X156008266Y-86276326D01*
X156067140Y-86056603D01*
X156067142Y-86056594D01*
X156086965Y-85830000D01*
X156067140Y-85603397D01*
X156067140Y-85603396D01*
X156008267Y-85383676D01*
X155912132Y-85177515D01*
X155861025Y-85104527D01*
X155861023Y-85104527D01*
X155182000Y-85783551D01*
X155182000Y-85777339D01*
X155154741Y-85675606D01*
X155102080Y-85584394D01*
X155027606Y-85509920D01*
X154936394Y-85457259D01*
X154834661Y-85430000D01*
X154828446Y-85430000D01*
X155568860Y-84689585D01*
X155574424Y-84679445D01*
X155650194Y-84618634D01*
X155743467Y-84591447D01*
X155765168Y-84590500D01*
X157397459Y-84590500D01*
X157492747Y-84609454D01*
X157510502Y-84617639D01*
X157578130Y-84652097D01*
X157634008Y-84680568D01*
X157858632Y-84753553D01*
X158091908Y-84790500D01*
X158091912Y-84790500D01*
X161378088Y-84790500D01*
X161378092Y-84790500D01*
X161611368Y-84753553D01*
X161835992Y-84680568D01*
X162046434Y-84573343D01*
X162237510Y-84434517D01*
X163298597Y-83373430D01*
X163379379Y-83319454D01*
X163474667Y-83300500D01*
X172892500Y-83300500D01*
X172987788Y-83319454D01*
G37*
%TD.AperFunction*%
%TA.AperFunction,Conductor*%
G36*
X219637700Y-100622097D02*
G01*
X219720643Y-100672689D01*
X219735195Y-100687241D01*
X219855695Y-100818139D01*
X219906287Y-100901082D01*
X219921500Y-100986782D01*
X219921500Y-114563860D01*
X219902546Y-114659148D01*
X219848570Y-114739930D01*
X217981930Y-116606570D01*
X217901148Y-116660546D01*
X217805860Y-116679500D01*
X216783825Y-116679500D01*
X216688537Y-116660546D01*
X216607758Y-116606572D01*
X216581139Y-116579953D01*
X216581135Y-116579950D01*
X216581134Y-116579949D01*
X216394741Y-116449436D01*
X216394727Y-116449428D01*
X216188499Y-116353262D01*
X216188496Y-116353261D01*
X215968694Y-116294365D01*
X215968679Y-116294363D01*
X215797251Y-116279365D01*
X215703977Y-116252178D01*
X215642883Y-116207383D01*
X214678528Y-115243028D01*
X213696036Y-114260536D01*
X213695636Y-114260269D01*
X213636957Y-114221061D01*
X213575771Y-114180178D01*
X213548547Y-114161987D01*
X213455647Y-114123507D01*
X213455646Y-114123506D01*
X213426670Y-114111504D01*
X213384668Y-114094105D01*
X213290492Y-114075373D01*
X213210692Y-114059500D01*
X213210691Y-114059500D01*
X213210689Y-114059500D01*
X212130980Y-114059500D01*
X212035692Y-114040546D01*
X211954910Y-113986570D01*
X211912437Y-113929832D01*
X211905796Y-113917669D01*
X211878325Y-113880973D01*
X211819546Y-113802454D01*
X211704331Y-113716204D01*
X211690733Y-113711132D01*
X211591653Y-113674177D01*
X211580389Y-113667219D01*
X211569813Y-113665987D01*
X211566110Y-113665112D01*
X211477735Y-113624753D01*
X211447301Y-113598855D01*
X210791408Y-112942962D01*
X210854993Y-112925925D01*
X210969007Y-112860099D01*
X211062099Y-112767007D01*
X211127925Y-112652993D01*
X211144962Y-112589408D01*
X211741025Y-113185471D01*
X211792133Y-113112483D01*
X211792137Y-113112476D01*
X211888266Y-112906326D01*
X211947140Y-112686603D01*
X211947140Y-112686602D01*
X211966965Y-112460000D01*
X211947140Y-112233397D01*
X211947140Y-112233396D01*
X211888267Y-112013676D01*
X211792132Y-111807515D01*
X211741025Y-111734527D01*
X211741023Y-111734527D01*
X211144962Y-112330589D01*
X211127925Y-112267007D01*
X211062099Y-112152993D01*
X210969007Y-112059901D01*
X210854993Y-111994075D01*
X210791408Y-111977037D01*
X211387471Y-111380974D01*
X211385894Y-111362946D01*
X211367844Y-111344091D01*
X211332632Y-111253541D01*
X211334753Y-111156409D01*
X211373882Y-111067483D01*
X211435028Y-111006337D01*
X211501139Y-110960047D01*
X211527758Y-110933427D01*
X211608537Y-110879454D01*
X211703825Y-110860500D01*
X212725860Y-110860500D01*
X212821148Y-110879454D01*
X212901930Y-110933430D01*
X214369383Y-112400883D01*
X214423359Y-112481665D01*
X214441365Y-112555251D01*
X214456363Y-112726679D01*
X214456365Y-112726694D01*
X214515261Y-112946496D01*
X214515262Y-112946499D01*
X214611428Y-113152727D01*
X214611436Y-113152741D01*
X214741949Y-113339134D01*
X214741953Y-113339139D01*
X214902861Y-113500047D01*
X214902864Y-113500049D01*
X214902865Y-113500050D01*
X215089258Y-113630563D01*
X215089262Y-113630565D01*
X215089266Y-113630568D01*
X215089270Y-113630569D01*
X215089272Y-113630571D01*
X215165222Y-113665987D01*
X215295504Y-113726739D01*
X215515308Y-113785635D01*
X215534984Y-113787356D01*
X215741994Y-113805468D01*
X215742000Y-113805468D01*
X215742006Y-113805468D01*
X215933579Y-113788707D01*
X215968692Y-113785635D01*
X216188496Y-113726739D01*
X216394734Y-113630568D01*
X216581139Y-113500047D01*
X216607758Y-113473427D01*
X216688537Y-113419454D01*
X216783825Y-113400500D01*
X217100689Y-113400500D01*
X217100692Y-113400500D01*
X217274666Y-113365895D01*
X217356606Y-113331953D01*
X217411233Y-113309326D01*
X217438543Y-113298015D01*
X217438544Y-113298014D01*
X217438547Y-113298013D01*
X217558115Y-113218120D01*
X217586036Y-113199464D01*
X218981464Y-111804036D01*
X219027301Y-111735436D01*
X219080013Y-111656547D01*
X219119193Y-111561957D01*
X219147895Y-111492666D01*
X219182500Y-111318692D01*
X219182500Y-111141308D01*
X219182500Y-100986782D01*
X219201454Y-100891494D01*
X219248305Y-100818139D01*
X219368805Y-100687241D01*
X219447286Y-100629972D01*
X219541710Y-100607097D01*
X219637700Y-100622097D01*
G37*
%TD.AperFunction*%
%TA.AperFunction,Conductor*%
G36*
X237644788Y-98973817D02*
G01*
X237725570Y-99027793D01*
X237756536Y-99065526D01*
X237811156Y-99147272D01*
X237824861Y-99167782D01*
X237964218Y-99307139D01*
X237964221Y-99307141D01*
X239094858Y-100437778D01*
X239094861Y-100437782D01*
X239234218Y-100577139D01*
X239398086Y-100686632D01*
X239526834Y-100739961D01*
X239580164Y-100762051D01*
X239676812Y-100781275D01*
X239773459Y-100800500D01*
X239773460Y-100800500D01*
X239970540Y-100800500D01*
X241494999Y-100800500D01*
X241590287Y-100819454D01*
X241637816Y-100845528D01*
X241667093Y-100866028D01*
X241734277Y-100936207D01*
X241769492Y-101026755D01*
X241767375Y-101123887D01*
X241728248Y-101212815D01*
X241667097Y-101273967D01*
X241572866Y-101339948D01*
X241411949Y-101500865D01*
X241281436Y-101687258D01*
X241281428Y-101687272D01*
X241185262Y-101893500D01*
X241185261Y-101893503D01*
X241126364Y-102113311D01*
X241126364Y-102113312D01*
X241124923Y-102129780D01*
X241097732Y-102223052D01*
X241052941Y-102284137D01*
X240510511Y-102826569D01*
X240429730Y-102880546D01*
X240334441Y-102899500D01*
X237028406Y-102899500D01*
X236933118Y-102880546D01*
X236852336Y-102826570D01*
X236798360Y-102745788D01*
X236779406Y-102650500D01*
X236798360Y-102555212D01*
X236852336Y-102474430D01*
X236862195Y-102465251D01*
X236863709Y-102463736D01*
X236863724Y-102463724D01*
X237004281Y-102301513D01*
X237120321Y-102120950D01*
X237209484Y-101925710D01*
X237269954Y-101719769D01*
X237300500Y-101507318D01*
X237300500Y-101400000D01*
X237300500Y-101334108D01*
X237300500Y-99203863D01*
X237319454Y-99108575D01*
X237373430Y-99027793D01*
X237454212Y-98973817D01*
X237549500Y-98954863D01*
X237644788Y-98973817D01*
G37*
%TD.AperFunction*%
%TA.AperFunction,Conductor*%
G36*
X235475130Y-83356699D02*
G01*
X235482734Y-83357447D01*
X235482734Y-83357448D01*
X235559373Y-83364995D01*
X235607237Y-83374515D01*
X235652626Y-83388283D01*
X235697714Y-83406960D01*
X235739525Y-83429308D01*
X235780115Y-83456429D01*
X235845556Y-83510136D01*
X235863659Y-83526543D01*
X239087354Y-86750239D01*
X239105315Y-86767340D01*
X239114331Y-86775512D01*
X239133126Y-86791725D01*
X239270515Y-86904478D01*
X239270529Y-86904488D01*
X239270554Y-86904508D01*
X239310339Y-86934014D01*
X239310356Y-86934025D01*
X239310365Y-86934032D01*
X239315900Y-86937730D01*
X239330549Y-86947519D01*
X239330564Y-86947528D01*
X239330577Y-86947537D01*
X239330594Y-86947547D01*
X239371746Y-86972213D01*
X239373123Y-86973038D01*
X239524465Y-87053932D01*
X239569299Y-87075138D01*
X239574265Y-87077195D01*
X239591744Y-87084436D01*
X239591753Y-87084439D01*
X239591757Y-87084441D01*
X239638476Y-87101158D01*
X239674402Y-87112056D01*
X239802684Y-87150970D01*
X239802694Y-87150972D01*
X239802699Y-87150974D01*
X239850824Y-87163028D01*
X239874665Y-87167770D01*
X239874670Y-87167770D01*
X239874683Y-87167773D01*
X239896790Y-87171052D01*
X239923729Y-87175048D01*
X240100604Y-87192469D01*
X240125353Y-87194294D01*
X240137507Y-87194891D01*
X240162307Y-87195500D01*
X240862500Y-87195500D01*
X240957788Y-87214454D01*
X241038570Y-87268430D01*
X241092546Y-87349212D01*
X241111500Y-87444500D01*
X241111500Y-97192348D01*
X241110552Y-97214051D01*
X241106532Y-97259996D01*
X241106532Y-97260002D01*
X241110552Y-97305947D01*
X241111500Y-97327651D01*
X241111500Y-97362353D01*
X241119046Y-97409996D01*
X241121163Y-97427243D01*
X241126364Y-97486686D01*
X241126366Y-97486699D01*
X241134796Y-97518161D01*
X241140212Y-97543639D01*
X241143521Y-97564527D01*
X241143522Y-97564531D01*
X241143523Y-97564534D01*
X241162613Y-97623290D01*
X241166303Y-97635746D01*
X241184669Y-97704285D01*
X241185261Y-97706496D01*
X241193298Y-97723732D01*
X241204437Y-97752009D01*
X241206779Y-97759216D01*
X241206780Y-97759220D01*
X241240956Y-97826294D01*
X241244765Y-97834104D01*
X241281428Y-97912728D01*
X241281430Y-97912731D01*
X241281431Y-97912733D01*
X241281432Y-97912734D01*
X241281433Y-97912736D01*
X241284546Y-97917181D01*
X241294319Y-97933445D01*
X241294603Y-97933272D01*
X241299715Y-97941615D01*
X241351916Y-98013463D01*
X241354397Y-98016940D01*
X241411953Y-98099139D01*
X241572861Y-98260047D01*
X241655048Y-98317594D01*
X241658506Y-98320060D01*
X241670410Y-98328709D01*
X241670418Y-98328715D01*
X241736365Y-98400061D01*
X241769989Y-98491212D01*
X241766171Y-98588292D01*
X241725494Y-98676521D01*
X241666874Y-98734124D01*
X241637820Y-98754468D01*
X241548893Y-98793597D01*
X241494999Y-98799500D01*
X240389560Y-98799500D01*
X240294272Y-98780546D01*
X240213490Y-98726570D01*
X239675430Y-98188510D01*
X239621454Y-98107728D01*
X239602500Y-98012440D01*
X239602500Y-89541461D01*
X239587449Y-89465796D01*
X239564051Y-89348165D01*
X239561595Y-89342236D01*
X239517547Y-89235894D01*
X239512558Y-89223850D01*
X239488634Y-89166091D01*
X239488632Y-89166086D01*
X239379139Y-89002218D01*
X239239782Y-88862861D01*
X239239778Y-88862858D01*
X234299141Y-83922221D01*
X234299139Y-83922218D01*
X234159782Y-83782861D01*
X234159778Y-83782858D01*
X234157490Y-83780570D01*
X234103514Y-83699788D01*
X234084560Y-83604500D01*
X234103514Y-83509212D01*
X234157490Y-83428430D01*
X234238272Y-83374454D01*
X234333560Y-83355500D01*
X235450726Y-83355500D01*
X235475130Y-83356699D01*
G37*
%TD.AperFunction*%
%TA.AperFunction,Conductor*%
G36*
X215275180Y-84370345D02*
G01*
X215242000Y-84494174D01*
X215242000Y-84352735D01*
X215275180Y-84370345D01*
G37*
%TD.AperFunction*%
%TA.AperFunction,Conductor*%
G36*
X216242000Y-84494174D02*
G01*
X216237241Y-84476413D01*
X216242000Y-84475917D01*
X216242000Y-84494174D01*
G37*
%TD.AperFunction*%
%TD*%
%TA.AperFunction,Conductor*%
%TO.N,/+24V*%
G36*
X154783100Y-87563920D02*
G01*
X154941118Y-87581592D01*
X154968201Y-87587752D01*
X155111693Y-87637849D01*
X155136727Y-87649885D01*
X155265462Y-87730672D01*
X155287192Y-87747982D01*
X155394707Y-87855400D01*
X155412038Y-87877115D01*
X155492938Y-88005775D01*
X155504999Y-88030804D01*
X155555223Y-88174249D01*
X155561408Y-88201334D01*
X155578434Y-88352355D01*
X155578435Y-88380132D01*
X155561410Y-88531220D01*
X155555230Y-88558294D01*
X155505009Y-88701802D01*
X155492959Y-88726820D01*
X155412059Y-88855557D01*
X155394744Y-88877268D01*
X155287229Y-88984767D01*
X155265517Y-89002078D01*
X155136765Y-89082963D01*
X155111743Y-89095010D01*
X154968230Y-89145209D01*
X154941157Y-89151385D01*
X154892101Y-89156905D01*
X154783085Y-89169173D01*
X154769234Y-89169950D01*
X153902459Y-89169827D01*
X153895926Y-89169827D01*
X153895925Y-89169827D01*
X153895923Y-89169827D01*
X153895920Y-89169827D01*
X153682615Y-89192812D01*
X153682605Y-89192814D01*
X153479102Y-89260775D01*
X153294776Y-89370584D01*
X153138118Y-89517183D01*
X153016342Y-89693822D01*
X153016334Y-89693836D01*
X151509804Y-92477264D01*
X151509802Y-92477270D01*
X151419857Y-92707752D01*
X151389250Y-92953266D01*
X151389250Y-92953272D01*
X151389250Y-104149996D01*
X151408464Y-104345088D01*
X151408465Y-104345090D01*
X151465370Y-104532683D01*
X151465371Y-104532686D01*
X151465372Y-104532687D01*
X151465373Y-104532690D01*
X151557776Y-104705564D01*
X151557781Y-104705571D01*
X151682142Y-104857107D01*
X151787594Y-104943648D01*
X151833680Y-104981470D01*
X151833683Y-104981471D01*
X151833685Y-104981473D01*
X152006559Y-105073876D01*
X152006560Y-105073876D01*
X152006567Y-105073880D01*
X152194160Y-105130785D01*
X152194159Y-105130785D01*
X152242932Y-105135588D01*
X152389250Y-105150000D01*
X156405907Y-105150000D01*
X156418061Y-105150597D01*
X156594941Y-105168018D01*
X156618769Y-105172757D01*
X156783001Y-105222576D01*
X156805453Y-105231877D01*
X156956798Y-105312772D01*
X156977010Y-105326277D01*
X157109666Y-105435145D01*
X157126854Y-105452333D01*
X157235722Y-105584989D01*
X157249227Y-105605201D01*
X157330121Y-105756543D01*
X157339424Y-105779001D01*
X157389240Y-105943224D01*
X157393982Y-105967065D01*
X157411403Y-106143938D01*
X157412000Y-106156092D01*
X157412000Y-113763907D01*
X157411403Y-113776061D01*
X157393982Y-113952934D01*
X157389240Y-113976775D01*
X157339424Y-114140998D01*
X157330121Y-114163456D01*
X157249227Y-114314798D01*
X157235722Y-114335010D01*
X157126854Y-114467666D01*
X157109666Y-114484854D01*
X156977010Y-114593722D01*
X156956798Y-114607227D01*
X156805456Y-114688121D01*
X156782998Y-114697424D01*
X156618775Y-114747240D01*
X156594934Y-114751982D01*
X156418061Y-114769403D01*
X156405907Y-114770000D01*
X146668093Y-114770000D01*
X146655939Y-114769403D01*
X146479065Y-114751982D01*
X146455224Y-114747240D01*
X146291001Y-114697424D01*
X146268543Y-114688121D01*
X146117201Y-114607227D01*
X146096989Y-114593722D01*
X145964333Y-114484854D01*
X145947145Y-114467666D01*
X145838277Y-114335010D01*
X145824772Y-114314798D01*
X145743878Y-114163456D01*
X145734575Y-114140998D01*
X145684757Y-113976769D01*
X145680018Y-113952941D01*
X145662597Y-113776061D01*
X145662000Y-113763907D01*
X145662000Y-93056226D01*
X145662659Y-93043455D01*
X145671998Y-92953266D01*
X145681895Y-92857686D01*
X145687128Y-92832691D01*
X145742057Y-92660939D01*
X145752295Y-92637556D01*
X145844438Y-92475085D01*
X145851294Y-92464330D01*
X147951187Y-89517184D01*
X149037854Y-87992072D01*
X149045124Y-87982830D01*
X149157902Y-87852721D01*
X149174928Y-87836488D01*
X149305597Y-87733713D01*
X149325392Y-87720987D01*
X149473126Y-87644766D01*
X149494970Y-87636011D01*
X149654448Y-87589090D01*
X149677555Y-87584621D01*
X149848931Y-87568122D01*
X149860671Y-87567552D01*
X154769216Y-87563153D01*
X154783100Y-87563920D01*
G37*
%TD.AperFunction*%
%TD*%
%TA.AperFunction,Conductor*%
%TO.N,/LED-*%
G36*
X165610039Y-110299685D02*
G01*
X165655794Y-110352489D01*
X165667000Y-110404000D01*
X165667000Y-112056000D01*
X165647315Y-112123039D01*
X165594511Y-112168794D01*
X165543000Y-112180000D01*
X164691999Y-112180000D01*
X160179003Y-117268280D01*
X160119793Y-117305373D01*
X160086235Y-117310000D01*
X156026000Y-117310000D01*
X155958961Y-117290315D01*
X155913206Y-117237511D01*
X155902000Y-117186000D01*
X155902000Y-115434000D01*
X155921685Y-115366961D01*
X155974489Y-115321206D01*
X156026000Y-115310000D01*
X157082000Y-115310000D01*
X161730222Y-110319486D01*
X161790318Y-110283846D01*
X161820960Y-110280000D01*
X165543000Y-110280000D01*
X165610039Y-110299685D01*
G37*
%TD.AperFunction*%
%TD*%
%TA.AperFunction,Conductor*%
%TO.N,/+3V3*%
G36*
X238354878Y-80800752D02*
G01*
X238553120Y-80822695D01*
X238579741Y-80828661D01*
X238761879Y-80891190D01*
X238786553Y-80902834D01*
X238950608Y-81003681D01*
X238972138Y-81020439D01*
X239115103Y-81159523D01*
X239124355Y-81169574D01*
X240899994Y-83325707D01*
X240900001Y-83325714D01*
X240900011Y-83325725D01*
X241057693Y-83479127D01*
X241057695Y-83479128D01*
X241057697Y-83479129D01*
X241057699Y-83479131D01*
X241189325Y-83560044D01*
X241245136Y-83594352D01*
X241245140Y-83594354D01*
X241453237Y-83665795D01*
X241671924Y-83690000D01*
X241998632Y-83690000D01*
X242030725Y-83694225D01*
X242073308Y-83705635D01*
X242235230Y-83719801D01*
X242299998Y-83725468D01*
X242300000Y-83725468D01*
X242300002Y-83725468D01*
X242331421Y-83722719D01*
X242526692Y-83705635D01*
X242526704Y-83705631D01*
X242532029Y-83704694D01*
X242532267Y-83706049D01*
X242566357Y-83703233D01*
X242614941Y-83708018D01*
X242638769Y-83712757D01*
X242803001Y-83762576D01*
X242825453Y-83771877D01*
X242976798Y-83852772D01*
X242997010Y-83866277D01*
X243129666Y-83975145D01*
X243146854Y-83992333D01*
X243255722Y-84124989D01*
X243269227Y-84145201D01*
X243350121Y-84296543D01*
X243359424Y-84319001D01*
X243409240Y-84483224D01*
X243413982Y-84507065D01*
X243431403Y-84683938D01*
X243432000Y-84696092D01*
X243432000Y-85683907D01*
X243431403Y-85696061D01*
X243413982Y-85872934D01*
X243409240Y-85896775D01*
X243359424Y-86060998D01*
X243350121Y-86083456D01*
X243269227Y-86234798D01*
X243255722Y-86255010D01*
X243146854Y-86387666D01*
X243129666Y-86404854D01*
X242997010Y-86513722D01*
X242976798Y-86527227D01*
X242825456Y-86608121D01*
X242802998Y-86617424D01*
X242638775Y-86667240D01*
X242614934Y-86671982D01*
X242438061Y-86689403D01*
X242425907Y-86690000D01*
X240162307Y-86690000D01*
X240150153Y-86689403D01*
X239973278Y-86671982D01*
X239949437Y-86667240D01*
X239785214Y-86617424D01*
X239762756Y-86608121D01*
X239611414Y-86527227D01*
X239591202Y-86513722D01*
X239453813Y-86400969D01*
X239444797Y-86392797D01*
X236194898Y-83142897D01*
X236043358Y-83018530D01*
X236043351Y-83018526D01*
X235870477Y-82926123D01*
X235870474Y-82926122D01*
X235870473Y-82926121D01*
X235870470Y-82926120D01*
X235682877Y-82869215D01*
X235682875Y-82869214D01*
X235682877Y-82869214D01*
X235532280Y-82854382D01*
X235487786Y-82850000D01*
X235487783Y-82850000D01*
X220182003Y-82850000D01*
X220182000Y-82850000D01*
X220133844Y-82854743D01*
X219986911Y-82869214D01*
X219876149Y-82902813D01*
X219799317Y-82926120D01*
X219799314Y-82926121D01*
X219799312Y-82926122D01*
X219799309Y-82926123D01*
X219626435Y-83018526D01*
X219626428Y-83018531D01*
X219474892Y-83142892D01*
X219350531Y-83294428D01*
X219350526Y-83294435D01*
X219258123Y-83467309D01*
X219258122Y-83467312D01*
X219258121Y-83467314D01*
X219258120Y-83467317D01*
X219234813Y-83544149D01*
X219201214Y-83654911D01*
X219182000Y-83850003D01*
X219182000Y-84553038D01*
X219181220Y-84566922D01*
X219160999Y-84746382D01*
X219154820Y-84773453D01*
X219097484Y-84937309D01*
X219085437Y-84962326D01*
X218993080Y-85109312D01*
X218975767Y-85131021D01*
X218853021Y-85253767D01*
X218831312Y-85271080D01*
X218684326Y-85363437D01*
X218659309Y-85375484D01*
X218495453Y-85432820D01*
X218468382Y-85438999D01*
X218295894Y-85458434D01*
X218268111Y-85458433D01*
X218095757Y-85438992D01*
X218068659Y-85432800D01*
X217904977Y-85375458D01*
X217879937Y-85363384D01*
X217733141Y-85271020D01*
X217711425Y-85253676D01*
X217588891Y-85130932D01*
X217571583Y-85109184D01*
X217479469Y-84962227D01*
X217467440Y-84937170D01*
X217410375Y-84773380D01*
X217404233Y-84746283D01*
X217384313Y-84566917D01*
X217383556Y-84553050D01*
X217388275Y-81804352D01*
X217388891Y-81792236D01*
X217406579Y-81615567D01*
X217411349Y-81591774D01*
X217461343Y-81427787D01*
X217470658Y-81405381D01*
X217551653Y-81254280D01*
X217565154Y-81234122D01*
X217674043Y-81101701D01*
X217691210Y-81084563D01*
X217823821Y-80975899D01*
X217844004Y-80962431D01*
X217995242Y-80881697D01*
X218017664Y-80872421D01*
X218181736Y-80822708D01*
X218205538Y-80817979D01*
X218382227Y-80800595D01*
X218394368Y-80800000D01*
X238341238Y-80800000D01*
X238354878Y-80800752D01*
G37*
%TD.AperFunction*%
%TD*%
D32*
X236507626Y-90107196D02*
G75*
G02*
X236800012Y-90813783I-707626J-706604D01*
G01*
X233090251Y-87100000D02*
G75*
G02*
X233791964Y-87387492I49J-1000000D01*
G01*
X227900000Y-88100000D02*
G75*
G02*
X228900000Y-87100000I1000000J0D01*
G01*
X228900000Y-97500000D02*
G75*
G02*
X227900000Y-96500000I0J1000000D01*
G01*
X229500000Y-97500000D02*
G75*
G02*
X230500000Y-98500000I0J-1000000D01*
G01*
X231500000Y-102400000D02*
G75*
G02*
X230500000Y-101400000I0J1000000D01*
G01*
X236800000Y-101400000D02*
G75*
G02*
X235800000Y-102400000I-1000000J0D01*
G01*
X233090251Y-87100000D02*
X228900000Y-87100000D01*
X229500000Y-97500000D02*
X228900000Y-97500000D01*
X227900000Y-88100000D02*
X227900000Y-96500000D01*
X236507626Y-90107196D02*
X233791940Y-87387516D01*
X205500000Y-91000000D02*
G75*
G02*
X195500000Y-91000000I-5000000J0D01*
G01*
X195500000Y-91000000D02*
G75*
G02*
X205500000Y-91000000I5000000J0D01*
G01*
X139000000Y-105000000D02*
G75*
G02*
X129000000Y-105000000I-5000000J0D01*
G01*
X129000000Y-105000000D02*
G75*
G02*
X139000000Y-105000000I5000000J0D01*
G01*
X235837722Y-116000000D02*
G75*
G02*
X238683752Y-118051324I-22J-3000000D01*
G01*
X234162278Y-116000000D02*
X235837722Y-116000000D01*
X238683772Y-118051317D02*
X239316228Y-119948683D01*
X242162277Y-122000000D02*
X260000000Y-122000000D01*
X113000000Y-122000000D02*
G75*
G02*
X110000000Y-119000000I0J3000000D01*
G01*
X231316228Y-118051317D02*
G75*
G02*
X234162278Y-115999979I2846072J-948683D01*
G01*
X227837723Y-122000000D02*
X113000000Y-122000000D01*
X260000000Y-80000000D02*
X260000000Y-122000000D01*
X121242641Y-80000000D02*
X260000000Y-80000000D01*
X242162277Y-122000000D02*
G75*
G02*
X239316183Y-119948698I23J3000100D01*
G01*
X110000000Y-91242641D02*
G75*
G02*
X110878701Y-89121341I2999800J41D01*
G01*
X230683772Y-119948683D02*
X231316228Y-118051317D01*
X119121321Y-80878679D02*
G75*
G02*
X121242641Y-80000017I2121379J-2121521D01*
G01*
X110878680Y-89121320D02*
X119121321Y-80878679D01*
X230683772Y-119948683D02*
G75*
G02*
X227837723Y-122000021I-2846072J948683D01*
G01*
X110000000Y-119000000D02*
X110000000Y-91242641D01*
X230500000Y-98500000D02*
X230500000Y-101400000D01*
X235800000Y-102400000D02*
X231500000Y-102400000D01*
X236800000Y-90813783D02*
X236800000Y-101400000D01*
M02*
