%TF.GenerationSoftware,KiCad,Pcbnew,8.0.4*%
%TF.CreationDate,2024-09-24T16:35:55-04:00*%
%TF.ProjectId,cablight,6361626c-6967-4687-942e-6b696361645f,rev?*%
%TF.SameCoordinates,Original*%
%TF.FileFunction,Copper,L2,Bot*%
%TF.FilePolarity,Positive*%
%FSLAX46Y46*%
G04 Gerber Fmt 4.6, Leading zero omitted, Abs format (unit mm)*
G04 Created by KiCad (PCBNEW 8.0.4) date 2024-09-24 16:35:55*
%MOMM*%
%LPD*%
G01*
G04 APERTURE LIST*
G04 Aperture macros list*
%AMRoundRect*
0 Rectangle with rounded corners*
0 $1 Rounding radius*
0 $2 $3 $4 $5 $6 $7 $8 $9 X,Y pos of 4 corners*
0 Add a 4 corners polygon primitive as box body*
4,1,4,$2,$3,$4,$5,$6,$7,$8,$9,$2,$3,0*
0 Add four circle primitives for the rounded corners*
1,1,$1+$1,$2,$3*
1,1,$1+$1,$4,$5*
1,1,$1+$1,$6,$7*
1,1,$1+$1,$8,$9*
0 Add four rect primitives between the rounded corners*
20,1,$1+$1,$2,$3,$4,$5,0*
20,1,$1+$1,$4,$5,$6,$7,0*
20,1,$1+$1,$6,$7,$8,$9,0*
20,1,$1+$1,$8,$9,$2,$3,0*%
G04 Aperture macros list end*
%TA.AperFunction,ComponentPad*%
%ADD10R,1.600000X1.600000*%
%TD*%
%TA.AperFunction,ComponentPad*%
%ADD11C,1.600000*%
%TD*%
%TA.AperFunction,ComponentPad*%
%ADD12C,1.800000*%
%TD*%
%TA.AperFunction,ComponentPad*%
%ADD13O,1.600000X1.600000*%
%TD*%
%TA.AperFunction,ComponentPad*%
%ADD14C,3.000000*%
%TD*%
%TA.AperFunction,ComponentPad*%
%ADD15RoundRect,1.500000X0.500000X-0.000010X0.500000X0.000010X-0.500000X0.000010X-0.500000X-0.000010X0*%
%TD*%
%TA.AperFunction,ComponentPad*%
%ADD16C,4.500000*%
%TD*%
%TA.AperFunction,ComponentPad*%
%ADD17R,2.200000X2.200000*%
%TD*%
%TA.AperFunction,ComponentPad*%
%ADD18O,2.200000X2.200000*%
%TD*%
%TA.AperFunction,ComponentPad*%
%ADD19O,1.500000X3.000000*%
%TD*%
%TA.AperFunction,ComponentPad*%
%ADD20C,2.000000*%
%TD*%
%TA.AperFunction,ComponentPad*%
%ADD21R,2.000000X1.900000*%
%TD*%
%TA.AperFunction,ComponentPad*%
%ADD22O,2.500000X1.900000*%
%TD*%
%TA.AperFunction,ComponentPad*%
%ADD23C,6.000000*%
%TD*%
%TA.AperFunction,ViaPad*%
%ADD24C,0.900000*%
%TD*%
%TA.AperFunction,Profile*%
%ADD25C,0.150000*%
%TD*%
G04 APERTURE END LIST*
D10*
%TO.P,P1,1,PG*%
%TO.N,unconnected-(P1-PG-Pad1)*%
X154782000Y-93450000D03*
D11*
%TO.P,P1,2,SHDN*%
%TO.N,unconnected-(P1-SHDN-Pad2)*%
X154782000Y-90910000D03*
%TO.P,P1,3,VIN_24V*%
%TO.N,/+24V*%
X154782000Y-88370000D03*
%TO.P,P1,4,GND*%
%TO.N,<NO NET>*%
X154782000Y-85830000D03*
%TO.P,P1,5,VOUT_5V*%
%TO.N,/+5V*%
X154782000Y-83290000D03*
%TD*%
D12*
%TO.P,U1,1,GPIO_18*%
%TO.N,Net-(U1-GPIO_18)*%
X213202000Y-99800000D03*
%TO.P,U1,2,GPIO_17*%
%TO.N,Net-(SW1-S2)*%
X215742000Y-99800000D03*
%TO.P,U1,3,GPIO_9*%
%TO.N,Net-(U1-GPIO_9)*%
X218282000Y-99800000D03*
%TO.P,U1,4,GPIO_8*%
%TO.N,Net-(U1-GPIO_8)*%
X220822000Y-99800000D03*
%TO.P,U1,5,GPIO_7*%
%TO.N,unconnected-(U1-GPIO_7-Pad5)*%
X223362000Y-99800000D03*
%TO.P,U1,6,GPIO_6*%
%TO.N,Net-(S1-Echo)*%
X225902000Y-99800000D03*
%TO.P,U1,7,GPIO_5*%
%TO.N,unconnected-(U1-GPIO_5-Pad7)*%
X228442000Y-99800000D03*
%TO.P,U1,8,GPIO_16*%
%TO.N,Net-(S1-Trig)*%
X228442000Y-84560000D03*
%TO.P,U1,9,GPIO_36*%
%TO.N,unconnected-(U1-GPIO_36-Pad9)*%
X225902000Y-84560000D03*
%TO.P,U1,10,GPIO_37*%
%TO.N,unconnected-(U1-GPIO_37-Pad10)*%
X223362000Y-84560000D03*
%TO.P,U1,11,GPIO_35*%
%TO.N,unconnected-(U1-GPIO_35-Pad11)*%
X220822000Y-84560000D03*
%TO.P,U1,12,3.3V*%
%TO.N,/+3V3*%
X218282000Y-84560000D03*
%TO.P,U1,13,GND*%
%TO.N,<NO NET>*%
X215742000Y-84560000D03*
%TO.P,U1,14,5V*%
%TO.N,/+5V_MCU*%
X213202000Y-84560000D03*
%TD*%
D11*
%TO.P,S1,4,GND*%
%TO.N,<NO NET>*%
X242412000Y-104880000D03*
%TO.P,S1,3,Echo*%
%TO.N,Net-(S1-Echo)*%
X242412000Y-102340000D03*
%TO.P,S1,2,Trig*%
%TO.N,Net-(S1-Trig)*%
X242412000Y-99800000D03*
%TO.P,S1,1,Vin*%
%TO.N,/+3V3*%
X242412000Y-97260000D03*
%TO.P,S1,*%
%TO.N,*%
X242300000Y-119720000D03*
X257700000Y-119695000D03*
X242300000Y-82420000D03*
X257700000Y-82420000D03*
%TD*%
%TO.P,R1,1*%
%TO.N,/+3V3*%
X225902000Y-117580000D03*
D13*
%TO.P,R1,2*%
%TO.N,Net-(U1-GPIO_8)*%
X215742000Y-117580000D03*
%TD*%
D11*
%TO.P,R4,1*%
%TO.N,Net-(U1-GPIO_18)*%
X179547000Y-95990000D03*
D13*
%TO.P,R4,2*%
%TO.N,<NO NET>*%
X189707000Y-95990000D03*
%TD*%
D14*
%TO.P,TP2,1,1*%
%TO.N,/+5V*%
X132500000Y-91850000D03*
%TD*%
D15*
%TO.P,SW1,*%
%TO.N,*%
X203662000Y-118460000D03*
X203662000Y-106460000D03*
D11*
%TO.P,SW1,1,S1*%
%TO.N,<NO NET>*%
X196662000Y-114960000D03*
%TO.P,SW1,2,S2*%
%TO.N,Net-(SW1-S2)*%
X196662000Y-109960000D03*
D10*
%TO.P,SW1,A,A*%
%TO.N,Net-(U1-GPIO_8)*%
X210662000Y-114960000D03*
D11*
%TO.P,SW1,B,B*%
%TO.N,Net-(U1-GPIO_9)*%
X210662000Y-109960000D03*
%TO.P,SW1,C,C*%
%TO.N,<NO NET>*%
X210662000Y-112460000D03*
%TD*%
D16*
%TO.P,REF\u002A\u002A,M*%
%TO.N,N/C*%
X234982000Y-109000000D03*
%TD*%
D11*
%TO.P,R2,1*%
%TO.N,/+3V3*%
X225902000Y-112500000D03*
D13*
%TO.P,R2,2*%
%TO.N,Net-(U1-GPIO_9)*%
X215742000Y-112500000D03*
%TD*%
D17*
%TO.P,D1,1,K*%
%TO.N,/+5V_MCU*%
X191612000Y-83290000D03*
D18*
%TO.P,D1,2,A*%
%TO.N,/+5V_SW*%
X189072000Y-83290000D03*
%TD*%
D19*
%TO.P,SW3,*%
%TO.N,*%
X180442000Y-85830000D03*
D20*
X171642000Y-85830000D03*
D19*
X168842000Y-85830000D03*
D20*
%TO.P,SW3,1*%
%TO.N,/+5V*%
X174642000Y-85830000D03*
%TO.P,SW3,2*%
%TO.N,/+5V_SW*%
X177642000Y-85830000D03*
%TD*%
%TO.P,J1,1,Pin_1*%
%TO.N,/+24V*%
X156052000Y-106150000D03*
%TO.P,J1,2,Pin_2*%
%TO.N,<NO NET>*%
X156052000Y-103610000D03*
%TD*%
D21*
%TO.P,Q1,1,G*%
%TO.N,Net-(Q1-G)*%
X165577000Y-108690000D03*
D22*
%TO.P,Q1,2,D*%
%TO.N,/LED-*%
X165577000Y-111230000D03*
%TO.P,Q1,3,S*%
%TO.N,<NO NET>*%
X165577000Y-113770000D03*
%TD*%
D11*
%TO.P,R5,1*%
%TO.N,Net-(U1-GPIO_18)*%
X175737000Y-95990000D03*
D13*
%TO.P,R5,2*%
%TO.N,Net-(Q1-G)*%
X165577000Y-95990000D03*
%TD*%
D16*
%TO.P,REF\u002A\u002A,M*%
%TO.N,N/C*%
X123000000Y-86000000D03*
%TD*%
D11*
%TO.P,R3,1*%
%TO.N,/+3V3*%
X225902000Y-107420000D03*
D13*
%TO.P,R3,2*%
%TO.N,Net-(SW1-S2)*%
X215742000Y-107420000D03*
%TD*%
D20*
%TO.P,J2,1,Pin_1*%
%TO.N,/LED-*%
X156052000Y-116310000D03*
%TO.P,J2,2,Pin_2*%
%TO.N,/+24V*%
X156052000Y-113770000D03*
%TD*%
D23*
%TO.P,M3,M*%
%TO.N,N/C*%
X182882000Y-111240000D03*
%TD*%
D16*
%TO.P,REF\u002A\u002A,M*%
%TO.N,N/C*%
X116000000Y-116000000D03*
%TD*%
D14*
%TO.P,TP1,1,1*%
%TO.N,<NO NET>*%
X116397000Y-92000000D03*
%TD*%
D24*
%TO.N,<NO NET>*%
X206000000Y-102000000D03*
X240350000Y-97380000D03*
X222750000Y-120000000D03*
X245000000Y-89000000D03*
X240110000Y-88200000D03*
X236500000Y-105500000D03*
X222750000Y-103750000D03*
X252000000Y-113000000D03*
X230000000Y-110500000D03*
X190000000Y-102000000D03*
X239500000Y-110500000D03*
X251000000Y-89000000D03*
X189000000Y-111250000D03*
X254000000Y-95500000D03*
X226000000Y-97000000D03*
X222750000Y-115000000D03*
X183992000Y-85195000D03*
X246000000Y-113000000D03*
X226000000Y-90000000D03*
X239000000Y-101750000D03*
X178500000Y-105000000D03*
X240410000Y-93000000D03*
X213000000Y-104500000D03*
X222750000Y-110000000D03*
X227000000Y-103750000D03*
X235600000Y-84170000D03*
X178500000Y-117000000D03*
X176500000Y-99000000D03*
X254000000Y-107500000D03*
X230500000Y-105500000D03*
X231500000Y-86500000D03*
%TD*%
%TA.AperFunction,Conductor*%
%TO.N,<NO NET>*%
G36*
X239975614Y-80519454D02*
G01*
X240056396Y-80573430D01*
X240110372Y-80654212D01*
X240112857Y-80660448D01*
X241200000Y-83500000D01*
X241200001Y-83500000D01*
X241496538Y-83500000D01*
X241591826Y-83518954D01*
X241639357Y-83545030D01*
X241647266Y-83550568D01*
X241647270Y-83550570D01*
X241647272Y-83550571D01*
X241771008Y-83608270D01*
X241853504Y-83646739D01*
X242073308Y-83705635D01*
X242092984Y-83707356D01*
X242299994Y-83725468D01*
X242300000Y-83725468D01*
X242300006Y-83725468D01*
X242479668Y-83709749D01*
X242526692Y-83705635D01*
X242746496Y-83646739D01*
X242952734Y-83550568D01*
X242960640Y-83545031D01*
X243049565Y-83505903D01*
X243103462Y-83500000D01*
X243600000Y-83500000D01*
X244323217Y-80687488D01*
X244365305Y-80599923D01*
X244437698Y-80535129D01*
X244529377Y-80502971D01*
X244564372Y-80500500D01*
X255469461Y-80500500D01*
X255564749Y-80519454D01*
X255645531Y-80573430D01*
X255699507Y-80654212D01*
X255714121Y-80703213D01*
X256271004Y-83646737D01*
X256300000Y-83800000D01*
X259303129Y-84449325D01*
X259392252Y-84487985D01*
X259459802Y-84557814D01*
X259495488Y-84648178D01*
X259499500Y-84692698D01*
X259499500Y-117163052D01*
X259480546Y-117258340D01*
X259426570Y-117339122D01*
X259345788Y-117393098D01*
X259321458Y-117401728D01*
X256299999Y-118300000D01*
X255650676Y-121303122D01*
X255612013Y-121392252D01*
X255542184Y-121459802D01*
X255451820Y-121495488D01*
X255407300Y-121499500D01*
X245000585Y-121499500D01*
X244905297Y-121480546D01*
X244824515Y-121426570D01*
X244770539Y-121345788D01*
X244765663Y-121333040D01*
X244481964Y-120525589D01*
X243700000Y-118300000D01*
X242257640Y-118051317D01*
X239121865Y-117510665D01*
X239031183Y-117475796D01*
X238960747Y-117408879D01*
X238947335Y-117387690D01*
X238940558Y-117375685D01*
X238803352Y-117132627D01*
X238803345Y-117132617D01*
X238610533Y-116856739D01*
X238442294Y-116659441D01*
X238392136Y-116600619D01*
X238392122Y-116600605D01*
X238150191Y-116366645D01*
X238150175Y-116366630D01*
X237886891Y-116156940D01*
X237886885Y-116156936D01*
X237604693Y-115973466D01*
X237604689Y-115973464D01*
X237604686Y-115973462D01*
X237385218Y-115859091D01*
X237306201Y-115817913D01*
X237306199Y-115817912D01*
X237306195Y-115817910D01*
X236994162Y-115691712D01*
X236994154Y-115691709D01*
X236671465Y-115596031D01*
X236671468Y-115596031D01*
X236341056Y-115531743D01*
X236006021Y-115499450D01*
X235837728Y-115499499D01*
X235756576Y-115499499D01*
X235756560Y-115499500D01*
X234243440Y-115499500D01*
X234243424Y-115499499D01*
X234230818Y-115499499D01*
X233993980Y-115499431D01*
X233993971Y-115499432D01*
X233658952Y-115531721D01*
X233658948Y-115531722D01*
X233658939Y-115531723D01*
X233658936Y-115531724D01*
X233500178Y-115562613D01*
X233328531Y-115596010D01*
X233005823Y-115691696D01*
X232693796Y-115817892D01*
X232395303Y-115973445D01*
X232395287Y-115973455D01*
X232113096Y-116156924D01*
X231849812Y-116366615D01*
X231849795Y-116366630D01*
X231607856Y-116600598D01*
X231607851Y-116600603D01*
X231389445Y-116856734D01*
X231196642Y-117132597D01*
X231196630Y-117132617D01*
X231031165Y-117425734D01*
X231031159Y-117425747D01*
X230894588Y-117733362D01*
X230894585Y-117733369D01*
X230841804Y-117891867D01*
X230841781Y-117891936D01*
X230211191Y-119783702D01*
X230206343Y-119796978D01*
X230109355Y-120040851D01*
X230097438Y-120066476D01*
X229976795Y-120291532D01*
X229962054Y-120315638D01*
X229816681Y-120525589D01*
X229799303Y-120547869D01*
X229631075Y-120739997D01*
X229611289Y-120760161D01*
X229422383Y-120931984D01*
X229400433Y-120949782D01*
X229193266Y-121099101D01*
X229169441Y-121114296D01*
X228946704Y-121239172D01*
X228921311Y-121251571D01*
X228685850Y-121350410D01*
X228659215Y-121359851D01*
X228414076Y-121431373D01*
X228386543Y-121437736D01*
X228134876Y-121481022D01*
X228106800Y-121484224D01*
X227845125Y-121499099D01*
X227830993Y-121499500D01*
X113007528Y-121499500D01*
X112992494Y-121499046D01*
X112713749Y-121482185D01*
X112683899Y-121478560D01*
X112416642Y-121429583D01*
X112387448Y-121422387D01*
X112128049Y-121341555D01*
X112099934Y-121330893D01*
X111852160Y-121219379D01*
X111825535Y-121205405D01*
X111593010Y-121064838D01*
X111568265Y-121047758D01*
X111354383Y-120880193D01*
X111331876Y-120860254D01*
X111139745Y-120668123D01*
X111119806Y-120645616D01*
X110952241Y-120431734D01*
X110935161Y-120406989D01*
X110794594Y-120174464D01*
X110780620Y-120147839D01*
X110780344Y-120147226D01*
X110669103Y-119900059D01*
X110658444Y-119871950D01*
X110633279Y-119791193D01*
X110577610Y-119612546D01*
X110570416Y-119583357D01*
X110563262Y-119544317D01*
X110521437Y-119316088D01*
X110517815Y-119286261D01*
X110500954Y-119007504D01*
X110500500Y-118992471D01*
X110500500Y-116000000D01*
X113244473Y-116000000D01*
X113260230Y-116260500D01*
X113264565Y-116332153D01*
X113324542Y-116659432D01*
X113324544Y-116659442D01*
X113359860Y-116772774D01*
X113413297Y-116944262D01*
X113423539Y-116977128D01*
X113560100Y-117280554D01*
X113732246Y-117565318D01*
X113937452Y-117827245D01*
X113937454Y-117827247D01*
X113937458Y-117827252D01*
X114172748Y-118062542D01*
X114434682Y-118267754D01*
X114719443Y-118439898D01*
X115022877Y-118576463D01*
X115340559Y-118675456D01*
X115667847Y-118735434D01*
X115667848Y-118735434D01*
X115667858Y-118735436D01*
X116000000Y-118755527D01*
X116332142Y-118735436D01*
X116659441Y-118675456D01*
X116977123Y-118576463D01*
X117280557Y-118439898D01*
X117365495Y-118388551D01*
X201161500Y-118388551D01*
X201161500Y-118531448D01*
X201176804Y-118745429D01*
X201237631Y-119025045D01*
X201337631Y-119293158D01*
X201433271Y-119468308D01*
X201474774Y-119544315D01*
X201646261Y-119773395D01*
X201848605Y-119975739D01*
X201969816Y-120066476D01*
X202070030Y-120141496D01*
X202077685Y-120147226D01*
X202296356Y-120266630D01*
X202328841Y-120284368D01*
X202348049Y-120291532D01*
X202596954Y-120384369D01*
X202876572Y-120445196D01*
X203090552Y-120460500D01*
X203090557Y-120460500D01*
X204233443Y-120460500D01*
X204233448Y-120460500D01*
X204447428Y-120445196D01*
X204727046Y-120384369D01*
X204995161Y-120284367D01*
X205246315Y-120147226D01*
X205475395Y-119975739D01*
X205677739Y-119773395D01*
X205849226Y-119544315D01*
X205986367Y-119293161D01*
X206086369Y-119025046D01*
X206147196Y-118745428D01*
X206162500Y-118531448D01*
X206162500Y-118388552D01*
X206147196Y-118174572D01*
X206086369Y-117894954D01*
X205986367Y-117626839D01*
X205960788Y-117579994D01*
X214436532Y-117579994D01*
X214436532Y-117580005D01*
X214456363Y-117806679D01*
X214456365Y-117806694D01*
X214515261Y-118026496D01*
X214515262Y-118026499D01*
X214611428Y-118232727D01*
X214611436Y-118232741D01*
X214721222Y-118389532D01*
X214741953Y-118419139D01*
X214902861Y-118580047D01*
X214902864Y-118580049D01*
X214902865Y-118580050D01*
X215089258Y-118710563D01*
X215089262Y-118710565D01*
X215089266Y-118710568D01*
X215295504Y-118806739D01*
X215515308Y-118865635D01*
X215534984Y-118867356D01*
X215741994Y-118885468D01*
X215742000Y-118885468D01*
X215742006Y-118885468D01*
X215921668Y-118869749D01*
X215968692Y-118865635D01*
X216188496Y-118806739D01*
X216394734Y-118710568D01*
X216581139Y-118580047D01*
X216742047Y-118419139D01*
X216872568Y-118232734D01*
X216968739Y-118026496D01*
X217027635Y-117806692D01*
X217047468Y-117580000D01*
X217047468Y-117579994D01*
X224596532Y-117579994D01*
X224596532Y-117580005D01*
X224616363Y-117806679D01*
X224616365Y-117806694D01*
X224675261Y-118026496D01*
X224675262Y-118026499D01*
X224771428Y-118232727D01*
X224771436Y-118232741D01*
X224881222Y-118389532D01*
X224901953Y-118419139D01*
X225062861Y-118580047D01*
X225062864Y-118580049D01*
X225062865Y-118580050D01*
X225249258Y-118710563D01*
X225249262Y-118710565D01*
X225249266Y-118710568D01*
X225455504Y-118806739D01*
X225675308Y-118865635D01*
X225694984Y-118867356D01*
X225901994Y-118885468D01*
X225902000Y-118885468D01*
X225902006Y-118885468D01*
X226081668Y-118869749D01*
X226128692Y-118865635D01*
X226348496Y-118806739D01*
X226554734Y-118710568D01*
X226741139Y-118580047D01*
X226902047Y-118419139D01*
X227032568Y-118232734D01*
X227128739Y-118026496D01*
X227187635Y-117806692D01*
X227207468Y-117580000D01*
X227207468Y-117579994D01*
X227187636Y-117353320D01*
X227187635Y-117353308D01*
X227128739Y-117133504D01*
X227055817Y-116977123D01*
X227032571Y-116927272D01*
X227032563Y-116927258D01*
X226902050Y-116740865D01*
X226902049Y-116740864D01*
X226902047Y-116740861D01*
X226741139Y-116579953D01*
X226741135Y-116579950D01*
X226741134Y-116579949D01*
X226554741Y-116449436D01*
X226554727Y-116449428D01*
X226348499Y-116353262D01*
X226348496Y-116353261D01*
X226128694Y-116294365D01*
X226128679Y-116294363D01*
X225902006Y-116274532D01*
X225901994Y-116274532D01*
X225675320Y-116294363D01*
X225675305Y-116294365D01*
X225455503Y-116353261D01*
X225455500Y-116353262D01*
X225249272Y-116449428D01*
X225249258Y-116449436D01*
X225062865Y-116579949D01*
X224901949Y-116740865D01*
X224771436Y-116927258D01*
X224771428Y-116927272D01*
X224675262Y-117133500D01*
X224675261Y-117133503D01*
X224616365Y-117353305D01*
X224616363Y-117353320D01*
X224596532Y-117579994D01*
X217047468Y-117579994D01*
X217027636Y-117353320D01*
X217027635Y-117353308D01*
X216968739Y-117133504D01*
X216895817Y-116977123D01*
X216872571Y-116927272D01*
X216872563Y-116927258D01*
X216742050Y-116740865D01*
X216742049Y-116740864D01*
X216742047Y-116740861D01*
X216581139Y-116579953D01*
X216581135Y-116579950D01*
X216581134Y-116579949D01*
X216394741Y-116449436D01*
X216394727Y-116449428D01*
X216188499Y-116353262D01*
X216188496Y-116353261D01*
X215968694Y-116294365D01*
X215968679Y-116294363D01*
X215742006Y-116274532D01*
X215741994Y-116274532D01*
X215515320Y-116294363D01*
X215515305Y-116294365D01*
X215295503Y-116353261D01*
X215295500Y-116353262D01*
X215089272Y-116449428D01*
X215089258Y-116449436D01*
X214902865Y-116579949D01*
X214741949Y-116740865D01*
X214611436Y-116927258D01*
X214611428Y-116927272D01*
X214515262Y-117133500D01*
X214515261Y-117133503D01*
X214456365Y-117353305D01*
X214456363Y-117353320D01*
X214436532Y-117579994D01*
X205960788Y-117579994D01*
X205849226Y-117375685D01*
X205677739Y-117146605D01*
X205475395Y-116944261D01*
X205281181Y-116798874D01*
X205246317Y-116772775D01*
X204995158Y-116635631D01*
X204849970Y-116581479D01*
X204727046Y-116535631D01*
X204727047Y-116535631D01*
X204447429Y-116474804D01*
X204233448Y-116459500D01*
X203090552Y-116459500D01*
X203090551Y-116459500D01*
X202876570Y-116474804D01*
X202596954Y-116535631D01*
X202328841Y-116635631D01*
X202077682Y-116772775D01*
X201917581Y-116892626D01*
X201848605Y-116944261D01*
X201848604Y-116944262D01*
X201646262Y-117146604D01*
X201646260Y-117146607D01*
X201474775Y-117375682D01*
X201337631Y-117626841D01*
X201237631Y-117894954D01*
X201176804Y-118174570D01*
X201161500Y-118388551D01*
X117365495Y-118388551D01*
X117565318Y-118267754D01*
X117827252Y-118062542D01*
X118062542Y-117827252D01*
X118267754Y-117565318D01*
X118439898Y-117280557D01*
X118576463Y-116977123D01*
X118675456Y-116659441D01*
X118735436Y-116332142D01*
X118755527Y-116000000D01*
X118735436Y-115667858D01*
X118675456Y-115340559D01*
X118576463Y-115022877D01*
X118439898Y-114719443D01*
X118267754Y-114434682D01*
X118130023Y-114258881D01*
X118062547Y-114172754D01*
X118062545Y-114172752D01*
X118062542Y-114172748D01*
X117827252Y-113937458D01*
X117827247Y-113937454D01*
X117827245Y-113937452D01*
X117613508Y-113770000D01*
X154546357Y-113770000D01*
X154566892Y-114017823D01*
X154566894Y-114017831D01*
X154625718Y-114250119D01*
X154627937Y-114258881D01*
X154649270Y-114307515D01*
X154727825Y-114486603D01*
X154727828Y-114486608D01*
X154863830Y-114694778D01*
X154863831Y-114694779D01*
X154863834Y-114694783D01*
X154863836Y-114694785D01*
X154935268Y-114772381D01*
X155026382Y-114871357D01*
X155076974Y-114954301D01*
X155091973Y-115050291D01*
X155069097Y-115144714D01*
X155026382Y-115208643D01*
X154863831Y-115385220D01*
X154863830Y-115385221D01*
X154727828Y-115593391D01*
X154727825Y-115593396D01*
X154627936Y-115821121D01*
X154627935Y-115821125D01*
X154566894Y-116062168D01*
X154566892Y-116062176D01*
X154546357Y-116310000D01*
X154566892Y-116557823D01*
X154566894Y-116557831D01*
X154592626Y-116659442D01*
X154627937Y-116798881D01*
X154669065Y-116892643D01*
X154727825Y-117026603D01*
X154727828Y-117026608D01*
X154863830Y-117234778D01*
X154863836Y-117234785D01*
X155032248Y-117417730D01*
X155032252Y-117417733D01*
X155032256Y-117417738D01*
X155032260Y-117417741D01*
X155032261Y-117417742D01*
X155228485Y-117570470D01*
X155228487Y-117570471D01*
X155228491Y-117570474D01*
X155447190Y-117688828D01*
X155516736Y-117712703D01*
X155682378Y-117769569D01*
X155682382Y-117769569D01*
X155682386Y-117769571D01*
X155927665Y-117810500D01*
X156176335Y-117810500D01*
X156421614Y-117769571D01*
X156421618Y-117769569D01*
X156421621Y-117769569D01*
X156527064Y-117733370D01*
X156656810Y-117688828D01*
X156875509Y-117570474D01*
X157071744Y-117417738D01*
X157240164Y-117234785D01*
X157376173Y-117026607D01*
X157476063Y-116798881D01*
X157537108Y-116557821D01*
X157557643Y-116310000D01*
X157537108Y-116062179D01*
X157476063Y-115821119D01*
X157376173Y-115593393D01*
X157314797Y-115499450D01*
X157240169Y-115385221D01*
X157240163Y-115385214D01*
X157199053Y-115340557D01*
X157077617Y-115208642D01*
X157027026Y-115125700D01*
X157012026Y-115029710D01*
X157034901Y-114935287D01*
X157077618Y-114871357D01*
X157240164Y-114694785D01*
X157376173Y-114486607D01*
X157476063Y-114258881D01*
X157537108Y-114017821D01*
X157557643Y-113770000D01*
X157537108Y-113522179D01*
X157476063Y-113281119D01*
X157376173Y-113053393D01*
X157306334Y-112946496D01*
X157240169Y-112845221D01*
X157240163Y-112845214D01*
X157071751Y-112662269D01*
X157071747Y-112662265D01*
X157071744Y-112662262D01*
X157071738Y-112662257D01*
X156875514Y-112509529D01*
X156875510Y-112509526D01*
X156875509Y-112509526D01*
X156783991Y-112459999D01*
X156656811Y-112391172D01*
X156421621Y-112310430D01*
X156421610Y-112310428D01*
X156176335Y-112269500D01*
X155927665Y-112269500D01*
X155682389Y-112310428D01*
X155682378Y-112310430D01*
X155447188Y-112391172D01*
X155228485Y-112509529D01*
X155032261Y-112662257D01*
X155032248Y-112662269D01*
X154863836Y-112845214D01*
X154863830Y-112845221D01*
X154727828Y-113053391D01*
X154727825Y-113053396D01*
X154627936Y-113281121D01*
X154627935Y-113281125D01*
X154566894Y-113522168D01*
X154566892Y-113522176D01*
X154546357Y-113770000D01*
X117613508Y-113770000D01*
X117565318Y-113732246D01*
X117280554Y-113560100D01*
X116977128Y-113423539D01*
X116977126Y-113423538D01*
X116977123Y-113423537D01*
X116790811Y-113365480D01*
X116659442Y-113324544D01*
X116659432Y-113324542D01*
X116332152Y-113264565D01*
X116332155Y-113264565D01*
X116332143Y-113264564D01*
X116332142Y-113264564D01*
X116000000Y-113244473D01*
X115667858Y-113264564D01*
X115667855Y-113264564D01*
X115667846Y-113264565D01*
X115340567Y-113324542D01*
X115340557Y-113324544D01*
X115022871Y-113423539D01*
X114719445Y-113560100D01*
X114434681Y-113732246D01*
X114172754Y-113937452D01*
X113937452Y-114172754D01*
X113732246Y-114434681D01*
X113560100Y-114719445D01*
X113423539Y-115022871D01*
X113324544Y-115340557D01*
X113324542Y-115340567D01*
X113264565Y-115667846D01*
X113264564Y-115667855D01*
X113264564Y-115667858D01*
X113244473Y-116000000D01*
X110500500Y-116000000D01*
X110500500Y-111115847D01*
X163826500Y-111115847D01*
X163826500Y-111344152D01*
X163826501Y-111344168D01*
X163862215Y-111569656D01*
X163862216Y-111569660D01*
X163882664Y-111632591D01*
X163932767Y-111786794D01*
X163932769Y-111786799D01*
X164036418Y-111990224D01*
X164036419Y-111990224D01*
X164036421Y-111990228D01*
X164170621Y-112174937D01*
X164319970Y-112324286D01*
X164373944Y-112405065D01*
X164392898Y-112500353D01*
X164373944Y-112595641D01*
X164319968Y-112676423D01*
X164170999Y-112825391D01*
X164036848Y-113010034D01*
X163933237Y-113213382D01*
X163933229Y-113213399D01*
X163862703Y-113430460D01*
X163827001Y-113655872D01*
X163827000Y-113655887D01*
X163827000Y-113884112D01*
X163827001Y-113884127D01*
X163862703Y-114109539D01*
X163933230Y-114326601D01*
X163974078Y-114406771D01*
X164977000Y-113827734D01*
X164977000Y-113848991D01*
X165017889Y-114001591D01*
X165096881Y-114138408D01*
X165208592Y-114250119D01*
X165226998Y-114260746D01*
X164269785Y-114813394D01*
X164332391Y-114876000D01*
X164517034Y-115010151D01*
X164720382Y-115113762D01*
X164720399Y-115113770D01*
X164937460Y-115184296D01*
X165162872Y-115219998D01*
X165162887Y-115220000D01*
X165991114Y-115220000D01*
X165991124Y-115219999D01*
X166114224Y-115200501D01*
X166114225Y-115200500D01*
X165634736Y-114370000D01*
X165655991Y-114370000D01*
X165808591Y-114329111D01*
X165945408Y-114250119D01*
X166057119Y-114138408D01*
X166067746Y-114120000D01*
X166594242Y-115031918D01*
X166594243Y-115031918D01*
X166636968Y-115010149D01*
X166821605Y-114876003D01*
X166983000Y-114714608D01*
X167117151Y-114529965D01*
X167220762Y-114326617D01*
X167220770Y-114326600D01*
X167291296Y-114109539D01*
X167326998Y-113884127D01*
X167327000Y-113884112D01*
X167327000Y-113655887D01*
X167326998Y-113655872D01*
X167291296Y-113430459D01*
X167220769Y-113213397D01*
X167220765Y-113213387D01*
X167179921Y-113133226D01*
X167179920Y-113133226D01*
X166177000Y-113712262D01*
X166177000Y-113691009D01*
X166136111Y-113538409D01*
X166057119Y-113401592D01*
X165945408Y-113289881D01*
X165926999Y-113279252D01*
X166884213Y-112726604D01*
X166834032Y-112676423D01*
X166780056Y-112595641D01*
X166761102Y-112500353D01*
X166780056Y-112405065D01*
X166834029Y-112324286D01*
X166983379Y-112174937D01*
X167117579Y-111990228D01*
X167221231Y-111786799D01*
X167291784Y-111569660D01*
X167327500Y-111344157D01*
X167327500Y-111239998D01*
X178876675Y-111239998D01*
X178876675Y-111240001D01*
X178895962Y-111632591D01*
X178953636Y-112021400D01*
X179049141Y-112402678D01*
X179049141Y-112402679D01*
X179087373Y-112509529D01*
X179179499Y-112767007D01*
X179181565Y-112772779D01*
X179349620Y-113128099D01*
X179364386Y-113152734D01*
X179551694Y-113465239D01*
X179745635Y-113726738D01*
X179785843Y-113780952D01*
X179785847Y-113780957D01*
X179927692Y-113937458D01*
X180049808Y-114072192D01*
X180093873Y-114112130D01*
X180333273Y-114329111D01*
X180341049Y-114336158D01*
X180656761Y-114570306D01*
X180993903Y-114772381D01*
X181349228Y-114940438D01*
X181719316Y-115072857D01*
X182100600Y-115168364D01*
X182489409Y-115226038D01*
X182845230Y-115243518D01*
X182881998Y-115245325D01*
X182882000Y-115245325D01*
X182882002Y-115245325D01*
X182917124Y-115243599D01*
X183274591Y-115226038D01*
X183663400Y-115168364D01*
X184044684Y-115072857D01*
X184360100Y-114960000D01*
X195357034Y-114960000D01*
X195376859Y-115186602D01*
X195376859Y-115186603D01*
X195435732Y-115406323D01*
X195531867Y-115612486D01*
X195531869Y-115612488D01*
X195582972Y-115685471D01*
X195582974Y-115685471D01*
X196179037Y-115089408D01*
X196196075Y-115152993D01*
X196261901Y-115267007D01*
X196354993Y-115360099D01*
X196469007Y-115425925D01*
X196532589Y-115442962D01*
X195936527Y-116039023D01*
X195936527Y-116039025D01*
X196009515Y-116090132D01*
X196215676Y-116186267D01*
X196435396Y-116245140D01*
X196662000Y-116264965D01*
X196888602Y-116245140D01*
X196888603Y-116245140D01*
X197108326Y-116186266D01*
X197314476Y-116090137D01*
X197314483Y-116090133D01*
X197387471Y-116039025D01*
X196791408Y-115442962D01*
X196854993Y-115425925D01*
X196969007Y-115360099D01*
X197062099Y-115267007D01*
X197127925Y-115152993D01*
X197144962Y-115089408D01*
X197741025Y-115685471D01*
X197792133Y-115612483D01*
X197792137Y-115612476D01*
X197888266Y-115406326D01*
X197947140Y-115186603D01*
X197947140Y-115186602D01*
X197966965Y-114960000D01*
X197947140Y-114733397D01*
X197947140Y-114733396D01*
X197888267Y-114513676D01*
X197792132Y-114307515D01*
X197741025Y-114234527D01*
X197741023Y-114234527D01*
X197144962Y-114830589D01*
X197127925Y-114767007D01*
X197062099Y-114652993D01*
X196969007Y-114559901D01*
X196854993Y-114494075D01*
X196791408Y-114477037D01*
X197387471Y-113880974D01*
X197387471Y-113880972D01*
X197314488Y-113829869D01*
X197314486Y-113829867D01*
X197108323Y-113733732D01*
X196888603Y-113674859D01*
X196662000Y-113655034D01*
X196435397Y-113674859D01*
X196435396Y-113674859D01*
X196215676Y-113733732D01*
X196009514Y-113829867D01*
X196009510Y-113829870D01*
X195936527Y-113880972D01*
X195936527Y-113880973D01*
X196532591Y-114477037D01*
X196469007Y-114494075D01*
X196354993Y-114559901D01*
X196261901Y-114652993D01*
X196196075Y-114767007D01*
X196179037Y-114830591D01*
X195582973Y-114234527D01*
X195582972Y-114234527D01*
X195531870Y-114307510D01*
X195531867Y-114307514D01*
X195435732Y-114513676D01*
X195376859Y-114733396D01*
X195376859Y-114733397D01*
X195357034Y-114960000D01*
X184360100Y-114960000D01*
X184414772Y-114940438D01*
X184770097Y-114772381D01*
X185107239Y-114570306D01*
X185422951Y-114336158D01*
X185714192Y-114072192D01*
X185978158Y-113780951D01*
X186212306Y-113465239D01*
X186414381Y-113128097D01*
X186582438Y-112772772D01*
X186714857Y-112402684D01*
X186810364Y-112021400D01*
X186868038Y-111632591D01*
X186887325Y-111240000D01*
X186868038Y-110847409D01*
X186810364Y-110458600D01*
X186714857Y-110077316D01*
X186672879Y-109959994D01*
X195356532Y-109959994D01*
X195356532Y-109960005D01*
X195376363Y-110186679D01*
X195376365Y-110186694D01*
X195435261Y-110406496D01*
X195435262Y-110406499D01*
X195531428Y-110612727D01*
X195531436Y-110612741D01*
X195661949Y-110799134D01*
X195661953Y-110799139D01*
X195822861Y-110960047D01*
X195822864Y-110960049D01*
X195822865Y-110960050D01*
X196009258Y-111090563D01*
X196009262Y-111090565D01*
X196009266Y-111090568D01*
X196009270Y-111090569D01*
X196009272Y-111090571D01*
X196133008Y-111148270D01*
X196215504Y-111186739D01*
X196435308Y-111245635D01*
X196454984Y-111247356D01*
X196661994Y-111265468D01*
X196662000Y-111265468D01*
X196662006Y-111265468D01*
X196841668Y-111249749D01*
X196888692Y-111245635D01*
X197108496Y-111186739D01*
X197314734Y-111090568D01*
X197501139Y-110960047D01*
X197662047Y-110799139D01*
X197792568Y-110612734D01*
X197888739Y-110406496D01*
X197947635Y-110186692D01*
X197964183Y-109997546D01*
X197967468Y-109960005D01*
X197967468Y-109959994D01*
X209356532Y-109959994D01*
X209356532Y-109960005D01*
X209376363Y-110186679D01*
X209376365Y-110186694D01*
X209435261Y-110406496D01*
X209435262Y-110406499D01*
X209531428Y-110612727D01*
X209531436Y-110612741D01*
X209661949Y-110799134D01*
X209661953Y-110799139D01*
X209822861Y-110960047D01*
X209875681Y-110997031D01*
X209888969Y-111006336D01*
X209956153Y-111076517D01*
X209991365Y-111167067D01*
X209989246Y-111264199D01*
X209950117Y-111353126D01*
X209937894Y-111365348D01*
X209936527Y-111380973D01*
X210532591Y-111977037D01*
X210469007Y-111994075D01*
X210354993Y-112059901D01*
X210261901Y-112152993D01*
X210196075Y-112267007D01*
X210179037Y-112330591D01*
X209582973Y-111734527D01*
X209582972Y-111734527D01*
X209531870Y-111807510D01*
X209531867Y-111807514D01*
X209435732Y-112013676D01*
X209376859Y-112233396D01*
X209376859Y-112233397D01*
X209357034Y-112460000D01*
X209376859Y-112686602D01*
X209376859Y-112686603D01*
X209435732Y-112906323D01*
X209531867Y-113112486D01*
X209531869Y-113112488D01*
X209582973Y-113185471D01*
X210179037Y-112589408D01*
X210196075Y-112652993D01*
X210261901Y-112767007D01*
X210354993Y-112860099D01*
X210469007Y-112925925D01*
X210532589Y-112942962D01*
X209876694Y-113598856D01*
X209795913Y-113652832D01*
X209757853Y-113665120D01*
X209754152Y-113665994D01*
X209745887Y-113666288D01*
X209732344Y-113674179D01*
X209619669Y-113716204D01*
X209504455Y-113802453D01*
X209504453Y-113802455D01*
X209418204Y-113917669D01*
X209367908Y-114052518D01*
X209361500Y-114112123D01*
X209361500Y-115807865D01*
X209361500Y-115807868D01*
X209361501Y-115807872D01*
X209362925Y-115821119D01*
X209367908Y-115867480D01*
X209367909Y-115867484D01*
X209418203Y-116002329D01*
X209418204Y-116002331D01*
X209504454Y-116117546D01*
X209619669Y-116203796D01*
X209754517Y-116254091D01*
X209814127Y-116260500D01*
X211509872Y-116260499D01*
X211569483Y-116254091D01*
X211704331Y-116203796D01*
X211819546Y-116117546D01*
X211905796Y-116002331D01*
X211956091Y-115867483D01*
X211962500Y-115807873D01*
X211962499Y-114112128D01*
X211956091Y-114052517D01*
X211905796Y-113917669D01*
X211819546Y-113802454D01*
X211704331Y-113716204D01*
X211690733Y-113711132D01*
X211591653Y-113674177D01*
X211580389Y-113667219D01*
X211569813Y-113665987D01*
X211566110Y-113665112D01*
X211477735Y-113624753D01*
X211447301Y-113598855D01*
X210791408Y-112942962D01*
X210854993Y-112925925D01*
X210969007Y-112860099D01*
X211062099Y-112767007D01*
X211127925Y-112652993D01*
X211144962Y-112589408D01*
X211741025Y-113185471D01*
X211792133Y-113112483D01*
X211792137Y-113112476D01*
X211888266Y-112906326D01*
X211947140Y-112686603D01*
X211947140Y-112686602D01*
X211963466Y-112499994D01*
X214436532Y-112499994D01*
X214436532Y-112500005D01*
X214456363Y-112726679D01*
X214456365Y-112726694D01*
X214515261Y-112946496D01*
X214515262Y-112946499D01*
X214611428Y-113152727D01*
X214611436Y-113152741D01*
X214741949Y-113339134D01*
X214741953Y-113339139D01*
X214902861Y-113500047D01*
X214902864Y-113500049D01*
X214902865Y-113500050D01*
X215089258Y-113630563D01*
X215089262Y-113630565D01*
X215089266Y-113630568D01*
X215089270Y-113630569D01*
X215089272Y-113630571D01*
X215165222Y-113665987D01*
X215295504Y-113726739D01*
X215515308Y-113785635D01*
X215534984Y-113787356D01*
X215741994Y-113805468D01*
X215742000Y-113805468D01*
X215742006Y-113805468D01*
X215921668Y-113789749D01*
X215968692Y-113785635D01*
X216188496Y-113726739D01*
X216394734Y-113630568D01*
X216581139Y-113500047D01*
X216742047Y-113339139D01*
X216872568Y-113152734D01*
X216968739Y-112946496D01*
X217027635Y-112726692D01*
X217034801Y-112644784D01*
X217047468Y-112500005D01*
X217047468Y-112499994D01*
X224596532Y-112499994D01*
X224596532Y-112500005D01*
X224616363Y-112726679D01*
X224616365Y-112726694D01*
X224675261Y-112946496D01*
X224675262Y-112946499D01*
X224771428Y-113152727D01*
X224771436Y-113152741D01*
X224901949Y-113339134D01*
X224901953Y-113339139D01*
X225062861Y-113500047D01*
X225062864Y-113500049D01*
X225062865Y-113500050D01*
X225249258Y-113630563D01*
X225249262Y-113630565D01*
X225249266Y-113630568D01*
X225249270Y-113630569D01*
X225249272Y-113630571D01*
X225325222Y-113665987D01*
X225455504Y-113726739D01*
X225675308Y-113785635D01*
X225694984Y-113787356D01*
X225901994Y-113805468D01*
X225902000Y-113805468D01*
X225902006Y-113805468D01*
X226081668Y-113789749D01*
X226128692Y-113785635D01*
X226348496Y-113726739D01*
X226554734Y-113630568D01*
X226741139Y-113500047D01*
X226902047Y-113339139D01*
X227032568Y-113152734D01*
X227128739Y-112946496D01*
X227187635Y-112726692D01*
X227194801Y-112644784D01*
X227207468Y-112500005D01*
X227207468Y-112499994D01*
X227187636Y-112273320D01*
X227187635Y-112273308D01*
X227128739Y-112053504D01*
X227032568Y-111847266D01*
X227032565Y-111847262D01*
X227032563Y-111847258D01*
X226902050Y-111660865D01*
X226902049Y-111660864D01*
X226902047Y-111660861D01*
X226741139Y-111499953D01*
X226741135Y-111499950D01*
X226741134Y-111499949D01*
X226554741Y-111369436D01*
X226554727Y-111369428D01*
X226348499Y-111273262D01*
X226348496Y-111273261D01*
X226128694Y-111214365D01*
X226128679Y-111214363D01*
X225902006Y-111194532D01*
X225901994Y-111194532D01*
X225675320Y-111214363D01*
X225675305Y-111214365D01*
X225455503Y-111273261D01*
X225455500Y-111273262D01*
X225249272Y-111369428D01*
X225249258Y-111369436D01*
X225062865Y-111499949D01*
X224901949Y-111660865D01*
X224771436Y-111847258D01*
X224771428Y-111847272D01*
X224675262Y-112053500D01*
X224675261Y-112053503D01*
X224616365Y-112273305D01*
X224616363Y-112273320D01*
X224596532Y-112499994D01*
X217047468Y-112499994D01*
X217027636Y-112273320D01*
X217027635Y-112273308D01*
X216968739Y-112053504D01*
X216872568Y-111847266D01*
X216872565Y-111847262D01*
X216872563Y-111847258D01*
X216742050Y-111660865D01*
X216742049Y-111660864D01*
X216742047Y-111660861D01*
X216581139Y-111499953D01*
X216581135Y-111499950D01*
X216581134Y-111499949D01*
X216394741Y-111369436D01*
X216394727Y-111369428D01*
X216188499Y-111273262D01*
X216188496Y-111273261D01*
X215968694Y-111214365D01*
X215968679Y-111214363D01*
X215742006Y-111194532D01*
X215741994Y-111194532D01*
X215515320Y-111214363D01*
X215515305Y-111214365D01*
X215295503Y-111273261D01*
X215295500Y-111273262D01*
X215089272Y-111369428D01*
X215089258Y-111369436D01*
X214902865Y-111499949D01*
X214741949Y-111660865D01*
X214611436Y-111847258D01*
X214611428Y-111847272D01*
X214515262Y-112053500D01*
X214515261Y-112053503D01*
X214456365Y-112273305D01*
X214456363Y-112273320D01*
X214436532Y-112499994D01*
X211963466Y-112499994D01*
X211966965Y-112460000D01*
X211947140Y-112233397D01*
X211947140Y-112233396D01*
X211888267Y-112013676D01*
X211792132Y-111807515D01*
X211741025Y-111734527D01*
X211741023Y-111734527D01*
X211144962Y-112330589D01*
X211127925Y-112267007D01*
X211062099Y-112152993D01*
X210969007Y-112059901D01*
X210854993Y-111994075D01*
X210791408Y-111977037D01*
X211387471Y-111380974D01*
X211385894Y-111362946D01*
X211367844Y-111344091D01*
X211332632Y-111253541D01*
X211334753Y-111156409D01*
X211373882Y-111067483D01*
X211435028Y-111006337D01*
X211501139Y-110960047D01*
X211662047Y-110799139D01*
X211792568Y-110612734D01*
X211888739Y-110406496D01*
X211947635Y-110186692D01*
X211964183Y-109997546D01*
X211967468Y-109960005D01*
X211967468Y-109959994D01*
X211947636Y-109733320D01*
X211947635Y-109733308D01*
X211888739Y-109513504D01*
X211804168Y-109332142D01*
X211792571Y-109307272D01*
X211792563Y-109307258D01*
X211662050Y-109120865D01*
X211662049Y-109120864D01*
X211662047Y-109120861D01*
X211541186Y-109000000D01*
X232226473Y-109000000D01*
X232246297Y-109327734D01*
X232246565Y-109332153D01*
X232306542Y-109659432D01*
X232306544Y-109659442D01*
X232321432Y-109707220D01*
X232400612Y-109961319D01*
X232405539Y-109977128D01*
X232542100Y-110280554D01*
X232714246Y-110565318D01*
X232919452Y-110827245D01*
X232919454Y-110827247D01*
X232919458Y-110827252D01*
X233154748Y-111062542D01*
X233154752Y-111062545D01*
X233154754Y-111062547D01*
X233190524Y-111090571D01*
X233416682Y-111267754D01*
X233701443Y-111439898D01*
X234004877Y-111576463D01*
X234322559Y-111675456D01*
X234649847Y-111735434D01*
X234649848Y-111735434D01*
X234649858Y-111735436D01*
X234982000Y-111755527D01*
X235314142Y-111735436D01*
X235641441Y-111675456D01*
X235959123Y-111576463D01*
X236262557Y-111439898D01*
X236547318Y-111267754D01*
X236809252Y-111062542D01*
X237044542Y-110827252D01*
X237249754Y-110565318D01*
X237421898Y-110280557D01*
X237558463Y-109977123D01*
X237657456Y-109659441D01*
X237717436Y-109332142D01*
X237737527Y-109000000D01*
X237717436Y-108667858D01*
X237713565Y-108646737D01*
X237679095Y-108458639D01*
X237657456Y-108340559D01*
X237558463Y-108022877D01*
X237421898Y-107719443D01*
X237249754Y-107434682D01*
X237141263Y-107296203D01*
X237044547Y-107172754D01*
X237044545Y-107172752D01*
X237044542Y-107172748D01*
X236809252Y-106937458D01*
X236809247Y-106937454D01*
X236809245Y-106937452D01*
X236547318Y-106732246D01*
X236262554Y-106560100D01*
X235959128Y-106423539D01*
X235959126Y-106423538D01*
X235959123Y-106423537D01*
X235772811Y-106365480D01*
X235641442Y-106324544D01*
X235641432Y-106324542D01*
X235314152Y-106264565D01*
X235314155Y-106264565D01*
X235314143Y-106264564D01*
X235314142Y-106264564D01*
X234982000Y-106244473D01*
X234649858Y-106264564D01*
X234649855Y-106264564D01*
X234649846Y-106264565D01*
X234322567Y-106324542D01*
X234322557Y-106324544D01*
X234087403Y-106397821D01*
X234016392Y-106419949D01*
X234004871Y-106423539D01*
X233701445Y-106560100D01*
X233416681Y-106732246D01*
X233154754Y-106937452D01*
X232919452Y-107172754D01*
X232714246Y-107434681D01*
X232542100Y-107719445D01*
X232405539Y-108022871D01*
X232306544Y-108340557D01*
X232306542Y-108340567D01*
X232246565Y-108667846D01*
X232246564Y-108667855D01*
X232246564Y-108667858D01*
X232226473Y-109000000D01*
X211541186Y-109000000D01*
X211501139Y-108959953D01*
X211501135Y-108959950D01*
X211501134Y-108959949D01*
X211314741Y-108829436D01*
X211314727Y-108829428D01*
X211108499Y-108733262D01*
X211108496Y-108733261D01*
X210888694Y-108674365D01*
X210888679Y-108674363D01*
X210662006Y-108654532D01*
X210661994Y-108654532D01*
X210435320Y-108674363D01*
X210435305Y-108674365D01*
X210215503Y-108733261D01*
X210215500Y-108733262D01*
X210009272Y-108829428D01*
X210009258Y-108829436D01*
X209822865Y-108959949D01*
X209661949Y-109120865D01*
X209531436Y-109307258D01*
X209531428Y-109307272D01*
X209435262Y-109513500D01*
X209435261Y-109513503D01*
X209376365Y-109733305D01*
X209376363Y-109733320D01*
X209356532Y-109959994D01*
X197967468Y-109959994D01*
X197947636Y-109733320D01*
X197947635Y-109733308D01*
X197888739Y-109513504D01*
X197804168Y-109332142D01*
X197792571Y-109307272D01*
X197792563Y-109307258D01*
X197662050Y-109120865D01*
X197662049Y-109120864D01*
X197662047Y-109120861D01*
X197501139Y-108959953D01*
X197501135Y-108959950D01*
X197501134Y-108959949D01*
X197314741Y-108829436D01*
X197314727Y-108829428D01*
X197108499Y-108733262D01*
X197108496Y-108733261D01*
X196888694Y-108674365D01*
X196888679Y-108674363D01*
X196662006Y-108654532D01*
X196661994Y-108654532D01*
X196435320Y-108674363D01*
X196435305Y-108674365D01*
X196215503Y-108733261D01*
X196215500Y-108733262D01*
X196009272Y-108829428D01*
X196009258Y-108829436D01*
X195822865Y-108959949D01*
X195661949Y-109120865D01*
X195531436Y-109307258D01*
X195531428Y-109307272D01*
X195435262Y-109513500D01*
X195435261Y-109513503D01*
X195376365Y-109733305D01*
X195376363Y-109733320D01*
X195356532Y-109959994D01*
X186672879Y-109959994D01*
X186582438Y-109707228D01*
X186414381Y-109351903D01*
X186212306Y-109014761D01*
X185978158Y-108699049D01*
X185714192Y-108407808D01*
X185577996Y-108284367D01*
X185422957Y-108143847D01*
X185422952Y-108143843D01*
X185422951Y-108143842D01*
X185107239Y-107909694D01*
X184770097Y-107707619D01*
X184424826Y-107544317D01*
X184414779Y-107539565D01*
X184414776Y-107539564D01*
X184414772Y-107539562D01*
X184044684Y-107407143D01*
X184044682Y-107407142D01*
X184044678Y-107407141D01*
X183663400Y-107311636D01*
X183274591Y-107253962D01*
X182882002Y-107234675D01*
X182881998Y-107234675D01*
X182489408Y-107253962D01*
X182100599Y-107311636D01*
X181719321Y-107407141D01*
X181719320Y-107407141D01*
X181466309Y-107497670D01*
X181379231Y-107528827D01*
X181349220Y-107539565D01*
X180993900Y-107707620D01*
X180656764Y-107909692D01*
X180341047Y-108143843D01*
X180341042Y-108143847D01*
X180049817Y-108407799D01*
X180049799Y-108407817D01*
X179785847Y-108699042D01*
X179785843Y-108699047D01*
X179551692Y-109014764D01*
X179349620Y-109351900D01*
X179181565Y-109707220D01*
X179181562Y-109707226D01*
X179181562Y-109707228D01*
X179172226Y-109733320D01*
X179049141Y-110077320D01*
X179049141Y-110077321D01*
X178953636Y-110458599D01*
X178895962Y-110847408D01*
X178876675Y-111239998D01*
X167327500Y-111239998D01*
X167327500Y-111115843D01*
X167291784Y-110890340D01*
X167221231Y-110673201D01*
X167117579Y-110469772D01*
X166983379Y-110285063D01*
X166983376Y-110285060D01*
X166983374Y-110285057D01*
X166977025Y-110277623D01*
X166978232Y-110276592D01*
X166930951Y-110205830D01*
X166911997Y-110110542D01*
X166930951Y-110015254D01*
X166961659Y-109961327D01*
X167020796Y-109882331D01*
X167071091Y-109747483D01*
X167077500Y-109687873D01*
X167077499Y-107692128D01*
X167071091Y-107632517D01*
X167020796Y-107497669D01*
X166934546Y-107382454D01*
X166819331Y-107296204D01*
X166716209Y-107257742D01*
X166684481Y-107245908D01*
X166624873Y-107239500D01*
X164529134Y-107239500D01*
X164529130Y-107239500D01*
X164529128Y-107239501D01*
X164516314Y-107240878D01*
X164469519Y-107245908D01*
X164469515Y-107245909D01*
X164334670Y-107296203D01*
X164219455Y-107382453D01*
X164219453Y-107382455D01*
X164133204Y-107497669D01*
X164082908Y-107632518D01*
X164076500Y-107692123D01*
X164076500Y-109687865D01*
X164076500Y-109687868D01*
X164076501Y-109687872D01*
X164076522Y-109688065D01*
X164082908Y-109747480D01*
X164082909Y-109747483D01*
X164133204Y-109882331D01*
X164192337Y-109961322D01*
X164234267Y-110048961D01*
X164239468Y-110145976D01*
X164207147Y-110237598D01*
X164176423Y-110277151D01*
X164176975Y-110277623D01*
X164170625Y-110285057D01*
X164170621Y-110285063D01*
X164042890Y-110460869D01*
X164036420Y-110469774D01*
X164036418Y-110469775D01*
X163932769Y-110673200D01*
X163932767Y-110673205D01*
X163862215Y-110890343D01*
X163826501Y-111115831D01*
X163826500Y-111115847D01*
X110500500Y-111115847D01*
X110500500Y-105000000D01*
X128494539Y-105000000D01*
X128512174Y-105415161D01*
X128514373Y-105466909D01*
X128573728Y-105930419D01*
X128573731Y-105930435D01*
X128672179Y-106387237D01*
X128672182Y-106387249D01*
X128672184Y-106387255D01*
X128683296Y-106423539D01*
X128809024Y-106834087D01*
X128865047Y-106973504D01*
X128983267Y-107267706D01*
X129193655Y-107684985D01*
X129193659Y-107684992D01*
X129438675Y-108082924D01*
X129438675Y-108082925D01*
X129716550Y-108458637D01*
X129716552Y-108458639D01*
X130025280Y-108809422D01*
X130025291Y-108809433D01*
X130025299Y-108809442D01*
X130362681Y-109132797D01*
X130440534Y-109195659D01*
X130726267Y-109426373D01*
X130726269Y-109426374D01*
X130726270Y-109426375D01*
X130855176Y-109513500D01*
X131113433Y-109688051D01*
X131113437Y-109688053D01*
X131113447Y-109688060D01*
X131219819Y-109747483D01*
X131521405Y-109915960D01*
X131521409Y-109915962D01*
X131521415Y-109915964D01*
X131521421Y-109915968D01*
X131947253Y-110108457D01*
X132118007Y-110168788D01*
X132387860Y-110264134D01*
X132387879Y-110264140D01*
X132450930Y-110280557D01*
X132840113Y-110381892D01*
X132983604Y-110406496D01*
X133300700Y-110460868D01*
X133300706Y-110460868D01*
X133300708Y-110460869D01*
X133766342Y-110500500D01*
X133766345Y-110500500D01*
X134233655Y-110500500D01*
X134233658Y-110500500D01*
X134699292Y-110460869D01*
X134699295Y-110460868D01*
X134699299Y-110460868D01*
X134828367Y-110438736D01*
X135159887Y-110381892D01*
X135612124Y-110264139D01*
X135612131Y-110264136D01*
X135612139Y-110264134D01*
X135736016Y-110220365D01*
X136052747Y-110108457D01*
X136478579Y-109915968D01*
X136478590Y-109915962D01*
X136478594Y-109915960D01*
X136580149Y-109859227D01*
X136886553Y-109688060D01*
X137273730Y-109426375D01*
X137637319Y-109132797D01*
X137974701Y-108809442D01*
X138283446Y-108458641D01*
X138321042Y-108407808D01*
X138561324Y-108082925D01*
X138561324Y-108082924D01*
X138561328Y-108082919D01*
X138806345Y-107684985D01*
X139016733Y-107267706D01*
X139190975Y-106834088D01*
X139327816Y-106387255D01*
X139348899Y-106289432D01*
X139378948Y-106150000D01*
X154546357Y-106150000D01*
X154566892Y-106397823D01*
X154566894Y-106397831D01*
X154627935Y-106638874D01*
X154627936Y-106638878D01*
X154727825Y-106866603D01*
X154727828Y-106866608D01*
X154863830Y-107074778D01*
X154863836Y-107074785D01*
X155032248Y-107257730D01*
X155032252Y-107257733D01*
X155032256Y-107257738D01*
X155032260Y-107257741D01*
X155032261Y-107257742D01*
X155228485Y-107410470D01*
X155228487Y-107410471D01*
X155228491Y-107410474D01*
X155447190Y-107528828D01*
X155478466Y-107539565D01*
X155682378Y-107609569D01*
X155682382Y-107609569D01*
X155682386Y-107609571D01*
X155927665Y-107650500D01*
X156176335Y-107650500D01*
X156421614Y-107609571D01*
X156421618Y-107609569D01*
X156421621Y-107609569D01*
X156511077Y-107578858D01*
X156656810Y-107528828D01*
X156875509Y-107410474D01*
X157071744Y-107257738D01*
X157240164Y-107074785D01*
X157376173Y-106866607D01*
X157476063Y-106638881D01*
X157537108Y-106397821D01*
X157537876Y-106388551D01*
X201161500Y-106388551D01*
X201161500Y-106531448D01*
X201176804Y-106745429D01*
X201196091Y-106834088D01*
X201218577Y-106937458D01*
X201237631Y-107025045D01*
X201337631Y-107293158D01*
X201449303Y-107497669D01*
X201474774Y-107544315D01*
X201646261Y-107773395D01*
X201848605Y-107975739D01*
X201978185Y-108072741D01*
X202073164Y-108143842D01*
X202077685Y-108147226D01*
X202282638Y-108259139D01*
X202328841Y-108284368D01*
X202370703Y-108299981D01*
X202596954Y-108384369D01*
X202876572Y-108445196D01*
X203090552Y-108460500D01*
X203090557Y-108460500D01*
X204233443Y-108460500D01*
X204233448Y-108460500D01*
X204447428Y-108445196D01*
X204727046Y-108384369D01*
X204995161Y-108284367D01*
X205246315Y-108147226D01*
X205475395Y-107975739D01*
X205677739Y-107773395D01*
X205849226Y-107544315D01*
X205917111Y-107419994D01*
X214436532Y-107419994D01*
X214436532Y-107420005D01*
X214456363Y-107646679D01*
X214456365Y-107646694D01*
X214515261Y-107866496D01*
X214515262Y-107866499D01*
X214611428Y-108072727D01*
X214611436Y-108072741D01*
X214663591Y-108147226D01*
X214741953Y-108259139D01*
X214902861Y-108420047D01*
X214902864Y-108420049D01*
X214902865Y-108420050D01*
X215089258Y-108550563D01*
X215089262Y-108550565D01*
X215089266Y-108550568D01*
X215295504Y-108646739D01*
X215515308Y-108705635D01*
X215534984Y-108707356D01*
X215741994Y-108725468D01*
X215742000Y-108725468D01*
X215742006Y-108725468D01*
X215921668Y-108709749D01*
X215968692Y-108705635D01*
X216188496Y-108646739D01*
X216394734Y-108550568D01*
X216581139Y-108420047D01*
X216742047Y-108259139D01*
X216872568Y-108072734D01*
X216968739Y-107866496D01*
X217027635Y-107646692D01*
X217036592Y-107544315D01*
X217047468Y-107420005D01*
X217047468Y-107419994D01*
X224596532Y-107419994D01*
X224596532Y-107420005D01*
X224616363Y-107646679D01*
X224616365Y-107646694D01*
X224675261Y-107866496D01*
X224675262Y-107866499D01*
X224771428Y-108072727D01*
X224771436Y-108072741D01*
X224823591Y-108147226D01*
X224901953Y-108259139D01*
X225062861Y-108420047D01*
X225062864Y-108420049D01*
X225062865Y-108420050D01*
X225249258Y-108550563D01*
X225249262Y-108550565D01*
X225249266Y-108550568D01*
X225455504Y-108646739D01*
X225675308Y-108705635D01*
X225694984Y-108707356D01*
X225901994Y-108725468D01*
X225902000Y-108725468D01*
X225902006Y-108725468D01*
X226081668Y-108709749D01*
X226128692Y-108705635D01*
X226348496Y-108646739D01*
X226554734Y-108550568D01*
X226741139Y-108420047D01*
X226902047Y-108259139D01*
X227032568Y-108072734D01*
X227128739Y-107866496D01*
X227187635Y-107646692D01*
X227196592Y-107544315D01*
X227207468Y-107420005D01*
X227207468Y-107419994D01*
X227187636Y-107193320D01*
X227187635Y-107193308D01*
X227128739Y-106973504D01*
X227032568Y-106767266D01*
X227032565Y-106767262D01*
X227032563Y-106767258D01*
X226902050Y-106580865D01*
X226902049Y-106580864D01*
X226902047Y-106580861D01*
X226741139Y-106419953D01*
X226741135Y-106419950D01*
X226741134Y-106419949D01*
X226554741Y-106289436D01*
X226554727Y-106289428D01*
X226348499Y-106193262D01*
X226348496Y-106193261D01*
X226128694Y-106134365D01*
X226128679Y-106134363D01*
X225902006Y-106114532D01*
X225901994Y-106114532D01*
X225675320Y-106134363D01*
X225675305Y-106134365D01*
X225455503Y-106193261D01*
X225455500Y-106193262D01*
X225249272Y-106289428D01*
X225249258Y-106289436D01*
X225062865Y-106419949D01*
X224901949Y-106580865D01*
X224771436Y-106767258D01*
X224771428Y-106767272D01*
X224675262Y-106973500D01*
X224675261Y-106973503D01*
X224616365Y-107193305D01*
X224616363Y-107193320D01*
X224596532Y-107419994D01*
X217047468Y-107419994D01*
X217027636Y-107193320D01*
X217027635Y-107193308D01*
X216968739Y-106973504D01*
X216872568Y-106767266D01*
X216872565Y-106767262D01*
X216872563Y-106767258D01*
X216742050Y-106580865D01*
X216742049Y-106580864D01*
X216742047Y-106580861D01*
X216581139Y-106419953D01*
X216581135Y-106419950D01*
X216581134Y-106419949D01*
X216394741Y-106289436D01*
X216394727Y-106289428D01*
X216188499Y-106193262D01*
X216188496Y-106193261D01*
X215968694Y-106134365D01*
X215968679Y-106134363D01*
X215742006Y-106114532D01*
X215741994Y-106114532D01*
X215515320Y-106134363D01*
X215515305Y-106134365D01*
X215295503Y-106193261D01*
X215295500Y-106193262D01*
X215089272Y-106289428D01*
X215089258Y-106289436D01*
X214902865Y-106419949D01*
X214741949Y-106580865D01*
X214611436Y-106767258D01*
X214611428Y-106767272D01*
X214515262Y-106973500D01*
X214515261Y-106973503D01*
X214456365Y-107193305D01*
X214456363Y-107193320D01*
X214436532Y-107419994D01*
X205917111Y-107419994D01*
X205986367Y-107293161D01*
X206086369Y-107025046D01*
X206147196Y-106745428D01*
X206162500Y-106531448D01*
X206162500Y-106388552D01*
X206147196Y-106174572D01*
X206086369Y-105894954D01*
X205986367Y-105626839D01*
X205849226Y-105375685D01*
X205677739Y-105146605D01*
X205475395Y-104944261D01*
X205311661Y-104821691D01*
X205246317Y-104772775D01*
X204995158Y-104635631D01*
X204849970Y-104581479D01*
X204727046Y-104535631D01*
X204727047Y-104535631D01*
X204447429Y-104474804D01*
X204233448Y-104459500D01*
X203090552Y-104459500D01*
X203090551Y-104459500D01*
X202876570Y-104474804D01*
X202596954Y-104535631D01*
X202328841Y-104635631D01*
X202077682Y-104772775D01*
X201934449Y-104879999D01*
X201848605Y-104944261D01*
X201848604Y-104944262D01*
X201646262Y-105146604D01*
X201646260Y-105146607D01*
X201474775Y-105375682D01*
X201337631Y-105626841D01*
X201237631Y-105894954D01*
X201176804Y-106174570D01*
X201161500Y-106388551D01*
X157537876Y-106388551D01*
X157557643Y-106150000D01*
X157537108Y-105902179D01*
X157476063Y-105661119D01*
X157376173Y-105433393D01*
X157258148Y-105252741D01*
X157240169Y-105225221D01*
X157240163Y-105225214D01*
X157071751Y-105042269D01*
X157071748Y-105042267D01*
X157071744Y-105042262D01*
X157020324Y-105002240D01*
X156956773Y-104928758D01*
X156926766Y-104838320D01*
X156181408Y-104092962D01*
X156244993Y-104075925D01*
X156359007Y-104010099D01*
X156452099Y-103917007D01*
X156517925Y-103802993D01*
X156534962Y-103739408D01*
X157275435Y-104479881D01*
X157375731Y-104326368D01*
X157475586Y-104098722D01*
X157475589Y-104098714D01*
X157536610Y-103857748D01*
X157536612Y-103857741D01*
X157557140Y-103610000D01*
X157536612Y-103362258D01*
X157536610Y-103362251D01*
X157475589Y-103121285D01*
X157475586Y-103121277D01*
X157375730Y-102893628D01*
X157275435Y-102740117D01*
X156534962Y-103480589D01*
X156517925Y-103417007D01*
X156452099Y-103302993D01*
X156359007Y-103209901D01*
X156244993Y-103144075D01*
X156181407Y-103127037D01*
X156922056Y-102386388D01*
X156875241Y-102349951D01*
X156875230Y-102349944D01*
X156656607Y-102231631D01*
X156421490Y-102150916D01*
X156421487Y-102150915D01*
X156176294Y-102110000D01*
X155927706Y-102110000D01*
X155682512Y-102150915D01*
X155682509Y-102150916D01*
X155447392Y-102231631D01*
X155228768Y-102349944D01*
X155228758Y-102349951D01*
X155181941Y-102386388D01*
X155922590Y-103127037D01*
X155859007Y-103144075D01*
X155744993Y-103209901D01*
X155651901Y-103302993D01*
X155586075Y-103417007D01*
X155569037Y-103480591D01*
X154828563Y-102740117D01*
X154728268Y-102893630D01*
X154728268Y-102893631D01*
X154628413Y-103121277D01*
X154628410Y-103121285D01*
X154567389Y-103362251D01*
X154567387Y-103362258D01*
X154546859Y-103610000D01*
X154567387Y-103857741D01*
X154567389Y-103857748D01*
X154628410Y-104098714D01*
X154628413Y-104098722D01*
X154728266Y-104326364D01*
X154828564Y-104479881D01*
X155569037Y-103739408D01*
X155586075Y-103802993D01*
X155651901Y-103917007D01*
X155744993Y-104010099D01*
X155859007Y-104075925D01*
X155922589Y-104092962D01*
X155172067Y-104843485D01*
X155166240Y-104886598D01*
X155117373Y-104970568D01*
X155083674Y-105002240D01*
X155032266Y-105042253D01*
X155032248Y-105042269D01*
X154863836Y-105225214D01*
X154863830Y-105225221D01*
X154727828Y-105433391D01*
X154727825Y-105433396D01*
X154627936Y-105661121D01*
X154627935Y-105661125D01*
X154566894Y-105902168D01*
X154566892Y-105902176D01*
X154546357Y-106150000D01*
X139378948Y-106150000D01*
X139386592Y-106114532D01*
X139426270Y-105930427D01*
X139485628Y-105466896D01*
X139505461Y-105000000D01*
X139485628Y-104533104D01*
X139430002Y-104098714D01*
X139426271Y-104069580D01*
X139426268Y-104069564D01*
X139327820Y-103612762D01*
X139327818Y-103612758D01*
X139327816Y-103612745D01*
X139190975Y-103165912D01*
X139016733Y-102732294D01*
X138806345Y-102315015D01*
X138561328Y-101917081D01*
X138561324Y-101917075D01*
X138561324Y-101917074D01*
X138283449Y-101541362D01*
X138283447Y-101541360D01*
X137974719Y-101190577D01*
X137974708Y-101190566D01*
X137974701Y-101190558D01*
X137637319Y-100867203D01*
X137489272Y-100747663D01*
X137273732Y-100573626D01*
X137273721Y-100573619D01*
X136886566Y-100311948D01*
X136886557Y-100311943D01*
X136886553Y-100311940D01*
X136786953Y-100256300D01*
X136478594Y-100084039D01*
X136478590Y-100084037D01*
X136361934Y-100031305D01*
X136052747Y-99891543D01*
X136052744Y-99891542D01*
X136052742Y-99891541D01*
X135793657Y-99800000D01*
X211796700Y-99800000D01*
X211815866Y-100031308D01*
X211815868Y-100031315D01*
X211872841Y-100256293D01*
X211872842Y-100256297D01*
X211966074Y-100468846D01*
X212093019Y-100663151D01*
X212093022Y-100663155D01*
X212250214Y-100833911D01*
X212250220Y-100833916D01*
X212427904Y-100972213D01*
X212433374Y-100976470D01*
X212530863Y-101029228D01*
X212637487Y-101086931D01*
X212637489Y-101086931D01*
X212637497Y-101086936D01*
X212857019Y-101162298D01*
X213085951Y-101200500D01*
X213318049Y-101200500D01*
X213546981Y-101162298D01*
X213766503Y-101086936D01*
X213970626Y-100976470D01*
X214153784Y-100833913D01*
X214288805Y-100687241D01*
X214367286Y-100629972D01*
X214461710Y-100607097D01*
X214557700Y-100622097D01*
X214640643Y-100672689D01*
X214655195Y-100687241D01*
X214790214Y-100833911D01*
X214790220Y-100833916D01*
X214967904Y-100972213D01*
X214973374Y-100976470D01*
X215070863Y-101029228D01*
X215177487Y-101086931D01*
X215177489Y-101086931D01*
X215177497Y-101086936D01*
X215397019Y-101162298D01*
X215625951Y-101200500D01*
X215858049Y-101200500D01*
X216086981Y-101162298D01*
X216306503Y-101086936D01*
X216510626Y-100976470D01*
X216693784Y-100833913D01*
X216828805Y-100687241D01*
X216907286Y-100629972D01*
X217001710Y-100607097D01*
X217097700Y-100622097D01*
X217180643Y-100672689D01*
X217195195Y-100687241D01*
X217330214Y-100833911D01*
X217330220Y-100833916D01*
X217507904Y-100972213D01*
X217513374Y-100976470D01*
X217610863Y-101029228D01*
X217717487Y-101086931D01*
X217717489Y-101086931D01*
X217717497Y-101086936D01*
X217937019Y-101162298D01*
X218165951Y-101200500D01*
X218398049Y-101200500D01*
X218626981Y-101162298D01*
X218846503Y-101086936D01*
X219050626Y-100976470D01*
X219233784Y-100833913D01*
X219368805Y-100687241D01*
X219447286Y-100629972D01*
X219541710Y-100607097D01*
X219637700Y-100622097D01*
X219720643Y-100672689D01*
X219735195Y-100687241D01*
X219870214Y-100833911D01*
X219870220Y-100833916D01*
X220047904Y-100972213D01*
X220053374Y-100976470D01*
X220150863Y-101029228D01*
X220257487Y-101086931D01*
X220257489Y-101086931D01*
X220257497Y-101086936D01*
X220477019Y-101162298D01*
X220705951Y-101200500D01*
X220938049Y-101200500D01*
X221166981Y-101162298D01*
X221386503Y-101086936D01*
X221590626Y-100976470D01*
X221773784Y-100833913D01*
X221908805Y-100687241D01*
X221987286Y-100629972D01*
X222081710Y-100607097D01*
X222177700Y-100622097D01*
X222260643Y-100672689D01*
X222275195Y-100687241D01*
X222410214Y-100833911D01*
X222410220Y-100833916D01*
X222587904Y-100972213D01*
X222593374Y-100976470D01*
X222690863Y-101029228D01*
X222797487Y-101086931D01*
X222797489Y-101086931D01*
X222797497Y-101086936D01*
X223017019Y-101162298D01*
X223245951Y-101200500D01*
X223478049Y-101200500D01*
X223706981Y-101162298D01*
X223926503Y-101086936D01*
X224130626Y-100976470D01*
X224313784Y-100833913D01*
X224448805Y-100687241D01*
X224527286Y-100629972D01*
X224621710Y-100607097D01*
X224717700Y-100622097D01*
X224800643Y-100672689D01*
X224815195Y-100687241D01*
X224950214Y-100833911D01*
X224950220Y-100833916D01*
X225127904Y-100972213D01*
X225133374Y-100976470D01*
X225230863Y-101029228D01*
X225337487Y-101086931D01*
X225337489Y-101086931D01*
X225337497Y-101086936D01*
X225557019Y-101162298D01*
X225785951Y-101200500D01*
X226018049Y-101200500D01*
X226246981Y-101162298D01*
X226466503Y-101086936D01*
X226670626Y-100976470D01*
X226853784Y-100833913D01*
X226988805Y-100687241D01*
X227067286Y-100629972D01*
X227161710Y-100607097D01*
X227257700Y-100622097D01*
X227340643Y-100672689D01*
X227355195Y-100687241D01*
X227490214Y-100833911D01*
X227490220Y-100833916D01*
X227667904Y-100972213D01*
X227673374Y-100976470D01*
X227770863Y-101029228D01*
X227877487Y-101086931D01*
X227877489Y-101086931D01*
X227877497Y-101086936D01*
X228097019Y-101162298D01*
X228325951Y-101200500D01*
X228558049Y-101200500D01*
X228786981Y-101162298D01*
X229006503Y-101086936D01*
X229210626Y-100976470D01*
X229393784Y-100833913D01*
X229550979Y-100663153D01*
X229550983Y-100663145D01*
X229554003Y-100659268D01*
X229556717Y-100656920D01*
X229557955Y-100655576D01*
X229558108Y-100655717D01*
X229627488Y-100595714D01*
X229719699Y-100565118D01*
X229816600Y-100572140D01*
X229903438Y-100615709D01*
X229966992Y-100689194D01*
X229997588Y-100781405D01*
X229999500Y-100812206D01*
X229999500Y-101334108D01*
X229999500Y-101400000D01*
X229999500Y-101507318D01*
X230030046Y-101719769D01*
X230090516Y-101925710D01*
X230090517Y-101925713D01*
X230090518Y-101925715D01*
X230090519Y-101925718D01*
X230179677Y-102120946D01*
X230179684Y-102120959D01*
X230237699Y-102211231D01*
X230295719Y-102301513D01*
X230436276Y-102463724D01*
X230598487Y-102604281D01*
X230729918Y-102688746D01*
X230779040Y-102720315D01*
X230779044Y-102720317D01*
X230779050Y-102720321D01*
X230974290Y-102809484D01*
X231180231Y-102869954D01*
X231392682Y-102900500D01*
X231392686Y-102900500D01*
X235907314Y-102900500D01*
X235907318Y-102900500D01*
X236119769Y-102869954D01*
X236325710Y-102809484D01*
X236520950Y-102720321D01*
X236701513Y-102604281D01*
X236863724Y-102463724D01*
X237004281Y-102301513D01*
X237120321Y-102120950D01*
X237209484Y-101925710D01*
X237269954Y-101719769D01*
X237300500Y-101507318D01*
X237300500Y-101400000D01*
X237300500Y-101334108D01*
X237300500Y-97259994D01*
X241106532Y-97259994D01*
X241106532Y-97260005D01*
X241126363Y-97486679D01*
X241126365Y-97486694D01*
X241185261Y-97706496D01*
X241185262Y-97706499D01*
X241281428Y-97912727D01*
X241281436Y-97912741D01*
X241411949Y-98099134D01*
X241411953Y-98099139D01*
X241572861Y-98260047D01*
X241572864Y-98260049D01*
X241572865Y-98260050D01*
X241667096Y-98326031D01*
X241734280Y-98396212D01*
X241769493Y-98486761D01*
X241767374Y-98583893D01*
X241728245Y-98672820D01*
X241667096Y-98733969D01*
X241572865Y-98799949D01*
X241411949Y-98960865D01*
X241281436Y-99147258D01*
X241281428Y-99147272D01*
X241185262Y-99353500D01*
X241185261Y-99353503D01*
X241126365Y-99573305D01*
X241126363Y-99573320D01*
X241106532Y-99799994D01*
X241106532Y-99800005D01*
X241126363Y-100026679D01*
X241126365Y-100026694D01*
X241185261Y-100246496D01*
X241185262Y-100246499D01*
X241281428Y-100452727D01*
X241281436Y-100452741D01*
X241389517Y-100607097D01*
X241411953Y-100639139D01*
X241572861Y-100800047D01*
X241572864Y-100800049D01*
X241572865Y-100800050D01*
X241667096Y-100866031D01*
X241734280Y-100936212D01*
X241769493Y-101026761D01*
X241767374Y-101123893D01*
X241728245Y-101212820D01*
X241667096Y-101273969D01*
X241572865Y-101339949D01*
X241411949Y-101500865D01*
X241281436Y-101687258D01*
X241281428Y-101687272D01*
X241185262Y-101893500D01*
X241185261Y-101893503D01*
X241126365Y-102113305D01*
X241126363Y-102113320D01*
X241106532Y-102339994D01*
X241106532Y-102340005D01*
X241126363Y-102566679D01*
X241126365Y-102566694D01*
X241185261Y-102786496D01*
X241185262Y-102786499D01*
X241281428Y-102992727D01*
X241281436Y-102992741D01*
X241387401Y-103144075D01*
X241411953Y-103179139D01*
X241572861Y-103340047D01*
X241622198Y-103374593D01*
X241667530Y-103406334D01*
X241734715Y-103476515D01*
X241769928Y-103567064D01*
X241767809Y-103664196D01*
X241728681Y-103753123D01*
X241687073Y-103794731D01*
X241686527Y-103800973D01*
X242365554Y-104480000D01*
X242359339Y-104480000D01*
X242257606Y-104507259D01*
X242166394Y-104559920D01*
X242091920Y-104634394D01*
X242039259Y-104725606D01*
X242012000Y-104827339D01*
X242012000Y-104833554D01*
X241332973Y-104154527D01*
X241332972Y-104154527D01*
X241281870Y-104227510D01*
X241281867Y-104227514D01*
X241185732Y-104433676D01*
X241126859Y-104653396D01*
X241126859Y-104653397D01*
X241107034Y-104880000D01*
X241126859Y-105106602D01*
X241126859Y-105106603D01*
X241185732Y-105326323D01*
X241281867Y-105532486D01*
X241281869Y-105532488D01*
X241332972Y-105605471D01*
X241332974Y-105605471D01*
X242012000Y-104926445D01*
X242012000Y-104932661D01*
X242039259Y-105034394D01*
X242091920Y-105125606D01*
X242166394Y-105200080D01*
X242257606Y-105252741D01*
X242359339Y-105280000D01*
X242365552Y-105280000D01*
X241686527Y-105959023D01*
X241686527Y-105959025D01*
X241759515Y-106010132D01*
X241965676Y-106106267D01*
X242185396Y-106165140D01*
X242412000Y-106184965D01*
X242638602Y-106165140D01*
X242638603Y-106165140D01*
X242858326Y-106106266D01*
X243064476Y-106010137D01*
X243064483Y-106010133D01*
X243137471Y-105959025D01*
X242458446Y-105280000D01*
X242464661Y-105280000D01*
X242566394Y-105252741D01*
X242657606Y-105200080D01*
X242732080Y-105125606D01*
X242784741Y-105034394D01*
X242812000Y-104932661D01*
X242812000Y-104926446D01*
X243491025Y-105605471D01*
X243542133Y-105532483D01*
X243542137Y-105532476D01*
X243638266Y-105326326D01*
X243697140Y-105106603D01*
X243697140Y-105106602D01*
X243716965Y-104880000D01*
X243697140Y-104653397D01*
X243697140Y-104653396D01*
X243638267Y-104433676D01*
X243542132Y-104227515D01*
X243491025Y-104154527D01*
X243491023Y-104154527D01*
X242812000Y-104833551D01*
X242812000Y-104827339D01*
X242784741Y-104725606D01*
X242732080Y-104634394D01*
X242657606Y-104559920D01*
X242566394Y-104507259D01*
X242464661Y-104480000D01*
X242458446Y-104480000D01*
X243137471Y-103800974D01*
X243136841Y-103793773D01*
X243089282Y-103744091D01*
X243054070Y-103653542D01*
X243056190Y-103556410D01*
X243095319Y-103467483D01*
X243156465Y-103406337D01*
X243251139Y-103340047D01*
X243412047Y-103179139D01*
X243542568Y-102992734D01*
X243638739Y-102786496D01*
X243697635Y-102566692D01*
X243713410Y-102386388D01*
X243717468Y-102340005D01*
X243717468Y-102339994D01*
X243697636Y-102113320D01*
X243697635Y-102113308D01*
X243638739Y-101893504D01*
X243590719Y-101790525D01*
X243542571Y-101687272D01*
X243542563Y-101687258D01*
X243412050Y-101500865D01*
X243412049Y-101500864D01*
X243412047Y-101500861D01*
X243251139Y-101339953D01*
X243251133Y-101339949D01*
X243222561Y-101319942D01*
X243156902Y-101273968D01*
X243089719Y-101203789D01*
X243054506Y-101113240D01*
X243056625Y-101016108D01*
X243095753Y-100927181D01*
X243156902Y-100866031D01*
X243251139Y-100800047D01*
X243412047Y-100639139D01*
X243542568Y-100452734D01*
X243638739Y-100246496D01*
X243697635Y-100026692D01*
X243717468Y-99800000D01*
X243717468Y-99799994D01*
X243697636Y-99573320D01*
X243697635Y-99573308D01*
X243638739Y-99353504D01*
X243542568Y-99147266D01*
X243542565Y-99147262D01*
X243542563Y-99147258D01*
X243412050Y-98960865D01*
X243412049Y-98960864D01*
X243412047Y-98960861D01*
X243251139Y-98799953D01*
X243251133Y-98799949D01*
X243202767Y-98766083D01*
X243156902Y-98733968D01*
X243089719Y-98663789D01*
X243054506Y-98573240D01*
X243056625Y-98476108D01*
X243095753Y-98387181D01*
X243156902Y-98326031D01*
X243251139Y-98260047D01*
X243412047Y-98099139D01*
X243542568Y-97912734D01*
X243638739Y-97706496D01*
X243697635Y-97486692D01*
X243716100Y-97275636D01*
X243717468Y-97260005D01*
X243717468Y-97259994D01*
X243697636Y-97033320D01*
X243697635Y-97033308D01*
X243638739Y-96813504D01*
X243593610Y-96716725D01*
X243542571Y-96607272D01*
X243542563Y-96607258D01*
X243412050Y-96420865D01*
X243412049Y-96420864D01*
X243412047Y-96420861D01*
X243251139Y-96259953D01*
X243251135Y-96259950D01*
X243251134Y-96259949D01*
X243064741Y-96129436D01*
X243064727Y-96129428D01*
X242858499Y-96033262D01*
X242858496Y-96033261D01*
X242638694Y-95974365D01*
X242638679Y-95974363D01*
X242412006Y-95954532D01*
X242411994Y-95954532D01*
X242185320Y-95974363D01*
X242185305Y-95974365D01*
X241965503Y-96033261D01*
X241965500Y-96033262D01*
X241759272Y-96129428D01*
X241759258Y-96129436D01*
X241572865Y-96259949D01*
X241411949Y-96420865D01*
X241281436Y-96607258D01*
X241281428Y-96607272D01*
X241185262Y-96813500D01*
X241185261Y-96813503D01*
X241126365Y-97033305D01*
X241126363Y-97033320D01*
X241106532Y-97259994D01*
X237300500Y-97259994D01*
X237300500Y-90916956D01*
X237300538Y-90916764D01*
X237300541Y-90813774D01*
X237300544Y-90715514D01*
X237274912Y-90520672D01*
X237224087Y-90330837D01*
X237193640Y-90257266D01*
X237158858Y-90173219D01*
X237148940Y-90149252D01*
X237050752Y-89979017D01*
X236931202Y-89823042D01*
X236931201Y-89823041D01*
X236931198Y-89823037D01*
X236861761Y-89753516D01*
X236861761Y-89753515D01*
X236859145Y-89750898D01*
X236859082Y-89750835D01*
X234203562Y-87091408D01*
X234196996Y-87083973D01*
X234145364Y-87033113D01*
X234143903Y-87031662D01*
X234092518Y-86980201D01*
X234085311Y-86973920D01*
X234077188Y-86965909D01*
X234073810Y-86962577D01*
X233918524Y-86844963D01*
X233749334Y-86748414D01*
X233749328Y-86748411D01*
X233749319Y-86748407D01*
X233569086Y-86674551D01*
X233569083Y-86674550D01*
X233474937Y-86649580D01*
X233380792Y-86624611D01*
X233187626Y-86599434D01*
X233187625Y-86599434D01*
X233090225Y-86599500D01*
X228965892Y-86599500D01*
X228900000Y-86599500D01*
X228792682Y-86599500D01*
X228580231Y-86630046D01*
X228374290Y-86690516D01*
X228374288Y-86690516D01*
X228374284Y-86690518D01*
X228374281Y-86690519D01*
X228179053Y-86779677D01*
X228179040Y-86779684D01*
X228014761Y-86885260D01*
X227998487Y-86895719D01*
X227983131Y-86909025D01*
X227836281Y-87036271D01*
X227836271Y-87036281D01*
X227748427Y-87137657D01*
X227695719Y-87198487D01*
X227695714Y-87198495D01*
X227579684Y-87379040D01*
X227579677Y-87379053D01*
X227490519Y-87574281D01*
X227490518Y-87574284D01*
X227490516Y-87574288D01*
X227490516Y-87574290D01*
X227430046Y-87780231D01*
X227399500Y-87992682D01*
X227399500Y-88034108D01*
X227399500Y-96434108D01*
X227399500Y-96500000D01*
X227399500Y-96607318D01*
X227430046Y-96819769D01*
X227490516Y-97025710D01*
X227490517Y-97025713D01*
X227490518Y-97025715D01*
X227490519Y-97025718D01*
X227579677Y-97220946D01*
X227579684Y-97220959D01*
X227614823Y-97275636D01*
X227695719Y-97401513D01*
X227836276Y-97563724D01*
X227998487Y-97704281D01*
X228114831Y-97779050D01*
X228179040Y-97820315D01*
X228179044Y-97820317D01*
X228179050Y-97820321D01*
X228374290Y-97909484D01*
X228382406Y-97911867D01*
X228468495Y-97956898D01*
X228530798Y-98031446D01*
X228559830Y-98124162D01*
X228551171Y-98220930D01*
X228506140Y-98307019D01*
X228431592Y-98369322D01*
X228338876Y-98398354D01*
X228332825Y-98398930D01*
X228325954Y-98399499D01*
X228097025Y-98437700D01*
X228097019Y-98437701D01*
X228097019Y-98437702D01*
X227877497Y-98513064D01*
X227877494Y-98513065D01*
X227877487Y-98513068D01*
X227673371Y-98623531D01*
X227490220Y-98766083D01*
X227490217Y-98766086D01*
X227490216Y-98766087D01*
X227459044Y-98799949D01*
X227355195Y-98912759D01*
X227276713Y-98970027D01*
X227182289Y-98992902D01*
X227086299Y-98977902D01*
X227003356Y-98927310D01*
X226988805Y-98912759D01*
X226953091Y-98873963D01*
X226853784Y-98766087D01*
X226812519Y-98733969D01*
X226670628Y-98623531D01*
X226466512Y-98513068D01*
X226466507Y-98513066D01*
X226466503Y-98513064D01*
X226246981Y-98437702D01*
X226246978Y-98437701D01*
X226246974Y-98437700D01*
X226018049Y-98399500D01*
X225785951Y-98399500D01*
X225557025Y-98437700D01*
X225557019Y-98437701D01*
X225557019Y-98437702D01*
X225337497Y-98513064D01*
X225337494Y-98513065D01*
X225337487Y-98513068D01*
X225133371Y-98623531D01*
X224950220Y-98766083D01*
X224950217Y-98766086D01*
X224950216Y-98766087D01*
X224919044Y-98799949D01*
X224815195Y-98912759D01*
X224736713Y-98970027D01*
X224642289Y-98992902D01*
X224546299Y-98977902D01*
X224463356Y-98927310D01*
X224448805Y-98912759D01*
X224413091Y-98873963D01*
X224313784Y-98766087D01*
X224272519Y-98733969D01*
X224130628Y-98623531D01*
X223926512Y-98513068D01*
X223926507Y-98513066D01*
X223926503Y-98513064D01*
X223706981Y-98437702D01*
X223706978Y-98437701D01*
X223706974Y-98437700D01*
X223478049Y-98399500D01*
X223245951Y-98399500D01*
X223017025Y-98437700D01*
X223017019Y-98437701D01*
X223017019Y-98437702D01*
X222797497Y-98513064D01*
X222797494Y-98513065D01*
X222797487Y-98513068D01*
X222593371Y-98623531D01*
X222410220Y-98766083D01*
X222410217Y-98766086D01*
X222410216Y-98766087D01*
X222379044Y-98799949D01*
X222275195Y-98912759D01*
X222196713Y-98970027D01*
X222102289Y-98992902D01*
X222006299Y-98977902D01*
X221923356Y-98927310D01*
X221908805Y-98912759D01*
X221873091Y-98873963D01*
X221773784Y-98766087D01*
X221732519Y-98733969D01*
X221590628Y-98623531D01*
X221386512Y-98513068D01*
X221386507Y-98513066D01*
X221386503Y-98513064D01*
X221166981Y-98437702D01*
X221166978Y-98437701D01*
X221166974Y-98437700D01*
X220938049Y-98399500D01*
X220705951Y-98399500D01*
X220477025Y-98437700D01*
X220477019Y-98437701D01*
X220477019Y-98437702D01*
X220257497Y-98513064D01*
X220257494Y-98513065D01*
X220257487Y-98513068D01*
X220053371Y-98623531D01*
X219870220Y-98766083D01*
X219870217Y-98766086D01*
X219870216Y-98766087D01*
X219839044Y-98799949D01*
X219735195Y-98912759D01*
X219656713Y-98970027D01*
X219562289Y-98992902D01*
X219466299Y-98977902D01*
X219383356Y-98927310D01*
X219368805Y-98912759D01*
X219333091Y-98873963D01*
X219233784Y-98766087D01*
X219192519Y-98733969D01*
X219050628Y-98623531D01*
X218846512Y-98513068D01*
X218846507Y-98513066D01*
X218846503Y-98513064D01*
X218626981Y-98437702D01*
X218626978Y-98437701D01*
X218626974Y-98437700D01*
X218398049Y-98399500D01*
X218165951Y-98399500D01*
X217937025Y-98437700D01*
X217937019Y-98437701D01*
X217937019Y-98437702D01*
X217717497Y-98513064D01*
X217717494Y-98513065D01*
X217717487Y-98513068D01*
X217513371Y-98623531D01*
X217330220Y-98766083D01*
X217330217Y-98766086D01*
X217330216Y-98766087D01*
X217299044Y-98799949D01*
X217195195Y-98912759D01*
X217116713Y-98970027D01*
X217022289Y-98992902D01*
X216926299Y-98977902D01*
X216843356Y-98927310D01*
X216828805Y-98912759D01*
X216793091Y-98873963D01*
X216693784Y-98766087D01*
X216652519Y-98733969D01*
X216510628Y-98623531D01*
X216306512Y-98513068D01*
X216306507Y-98513066D01*
X216306503Y-98513064D01*
X216086981Y-98437702D01*
X216086978Y-98437701D01*
X216086974Y-98437700D01*
X215858049Y-98399500D01*
X215625951Y-98399500D01*
X215397025Y-98437700D01*
X215397019Y-98437701D01*
X215397019Y-98437702D01*
X215177497Y-98513064D01*
X215177494Y-98513065D01*
X215177487Y-98513068D01*
X214973371Y-98623531D01*
X214790220Y-98766083D01*
X214790217Y-98766086D01*
X214790216Y-98766087D01*
X214759044Y-98799949D01*
X214655195Y-98912759D01*
X214576713Y-98970027D01*
X214482289Y-98992902D01*
X214386299Y-98977902D01*
X214303356Y-98927310D01*
X214288805Y-98912759D01*
X214253091Y-98873963D01*
X214153784Y-98766087D01*
X214112519Y-98733969D01*
X213970628Y-98623531D01*
X213766512Y-98513068D01*
X213766507Y-98513066D01*
X213766503Y-98513064D01*
X213546981Y-98437702D01*
X213546978Y-98437701D01*
X213546974Y-98437700D01*
X213318049Y-98399500D01*
X213085951Y-98399500D01*
X212857025Y-98437700D01*
X212857019Y-98437701D01*
X212857019Y-98437702D01*
X212637497Y-98513064D01*
X212637494Y-98513065D01*
X212637487Y-98513068D01*
X212433371Y-98623531D01*
X212250220Y-98766083D01*
X212250214Y-98766088D01*
X212093022Y-98936844D01*
X212093019Y-98936848D01*
X211966074Y-99131153D01*
X211872842Y-99343702D01*
X211872841Y-99343706D01*
X211815868Y-99568684D01*
X211815866Y-99568691D01*
X211796700Y-99800000D01*
X135793657Y-99800000D01*
X135612139Y-99735865D01*
X135612120Y-99735859D01*
X135159883Y-99618107D01*
X135159885Y-99618107D01*
X134699299Y-99539131D01*
X134699290Y-99539130D01*
X134343222Y-99508825D01*
X134233658Y-99499500D01*
X133766342Y-99499500D01*
X133664746Y-99508147D01*
X133300709Y-99539130D01*
X133300700Y-99539131D01*
X132840115Y-99618107D01*
X132387879Y-99735859D01*
X132387860Y-99735865D01*
X131947257Y-99891541D01*
X131521409Y-100084037D01*
X131521405Y-100084039D01*
X131113457Y-100311934D01*
X131113433Y-100311948D01*
X130726278Y-100573619D01*
X130726267Y-100573626D01*
X130362683Y-100867201D01*
X130025295Y-101190562D01*
X130025280Y-101190577D01*
X129716552Y-101541360D01*
X129716550Y-101541362D01*
X129438675Y-101917074D01*
X129438675Y-101917075D01*
X129193659Y-102315007D01*
X129193655Y-102315015D01*
X128983267Y-102732294D01*
X128983264Y-102732299D01*
X128983264Y-102732301D01*
X128809024Y-103165912D01*
X128672179Y-103612762D01*
X128573731Y-104069564D01*
X128573728Y-104069580D01*
X128514373Y-104533090D01*
X128514372Y-104533099D01*
X128514372Y-104533104D01*
X128494539Y-105000000D01*
X110500500Y-105000000D01*
X110500500Y-95989994D01*
X164271532Y-95989994D01*
X164271532Y-95990005D01*
X164291363Y-96216679D01*
X164291365Y-96216694D01*
X164350261Y-96436496D01*
X164350262Y-96436499D01*
X164446428Y-96642727D01*
X164446436Y-96642741D01*
X164570392Y-96819769D01*
X164576953Y-96829139D01*
X164737861Y-96990047D01*
X164737864Y-96990049D01*
X164737865Y-96990050D01*
X164924258Y-97120563D01*
X164924262Y-97120565D01*
X164924266Y-97120568D01*
X165130504Y-97216739D01*
X165350308Y-97275635D01*
X165369984Y-97277356D01*
X165576994Y-97295468D01*
X165577000Y-97295468D01*
X165577006Y-97295468D01*
X165756668Y-97279749D01*
X165803692Y-97275635D01*
X166023496Y-97216739D01*
X166229734Y-97120568D01*
X166416139Y-96990047D01*
X166577047Y-96829139D01*
X166707568Y-96642734D01*
X166803739Y-96436496D01*
X166862635Y-96216692D01*
X166882468Y-95990000D01*
X166882468Y-95989994D01*
X174431532Y-95989994D01*
X174431532Y-95990005D01*
X174451363Y-96216679D01*
X174451365Y-96216694D01*
X174510261Y-96436496D01*
X174510262Y-96436499D01*
X174606428Y-96642727D01*
X174606436Y-96642741D01*
X174730392Y-96819769D01*
X174736953Y-96829139D01*
X174897861Y-96990047D01*
X174897864Y-96990049D01*
X174897865Y-96990050D01*
X175084258Y-97120563D01*
X175084262Y-97120565D01*
X175084266Y-97120568D01*
X175290504Y-97216739D01*
X175510308Y-97275635D01*
X175529984Y-97277356D01*
X175736994Y-97295468D01*
X175737000Y-97295468D01*
X175737006Y-97295468D01*
X175916668Y-97279749D01*
X175963692Y-97275635D01*
X176183496Y-97216739D01*
X176389734Y-97120568D01*
X176576139Y-96990047D01*
X176737047Y-96829139D01*
X176867568Y-96642734D01*
X176963739Y-96436496D01*
X177022635Y-96216692D01*
X177042468Y-95990000D01*
X177042468Y-95989994D01*
X178241532Y-95989994D01*
X178241532Y-95990005D01*
X178261363Y-96216679D01*
X178261365Y-96216694D01*
X178320261Y-96436496D01*
X178320262Y-96436499D01*
X178416428Y-96642727D01*
X178416436Y-96642741D01*
X178540392Y-96819769D01*
X178546953Y-96829139D01*
X178707861Y-96990047D01*
X178707864Y-96990049D01*
X178707865Y-96990050D01*
X178894258Y-97120563D01*
X178894262Y-97120565D01*
X178894266Y-97120568D01*
X179100504Y-97216739D01*
X179320308Y-97275635D01*
X179339984Y-97277356D01*
X179546994Y-97295468D01*
X179547000Y-97295468D01*
X179547006Y-97295468D01*
X179726668Y-97279749D01*
X179773692Y-97275635D01*
X179993496Y-97216739D01*
X180199734Y-97120568D01*
X180386139Y-96990047D01*
X180547047Y-96829139D01*
X180677568Y-96642734D01*
X180773739Y-96436496D01*
X180832635Y-96216692D01*
X180852468Y-95990000D01*
X180852468Y-95989994D01*
X180832636Y-95763320D01*
X180832635Y-95763308D01*
X180826389Y-95739999D01*
X188428128Y-95739999D01*
X188428128Y-95740000D01*
X189391314Y-95740000D01*
X189386920Y-95744394D01*
X189334259Y-95835606D01*
X189307000Y-95937339D01*
X189307000Y-96042661D01*
X189334259Y-96144394D01*
X189386920Y-96235606D01*
X189391314Y-96240000D01*
X188428128Y-96240000D01*
X188480732Y-96436323D01*
X188576866Y-96642483D01*
X188707335Y-96828812D01*
X188868187Y-96989664D01*
X189054516Y-97120133D01*
X189260676Y-97216267D01*
X189456999Y-97268871D01*
X189457000Y-97268871D01*
X189457000Y-96305686D01*
X189461394Y-96310080D01*
X189552606Y-96362741D01*
X189654339Y-96390000D01*
X189759661Y-96390000D01*
X189861394Y-96362741D01*
X189952606Y-96310080D01*
X189957000Y-96305686D01*
X189957000Y-97268871D01*
X190153323Y-97216267D01*
X190359483Y-97120133D01*
X190545812Y-96989664D01*
X190706664Y-96828812D01*
X190837133Y-96642483D01*
X190933267Y-96436323D01*
X190985872Y-96240000D01*
X190022686Y-96240000D01*
X190027080Y-96235606D01*
X190079741Y-96144394D01*
X190107000Y-96042661D01*
X190107000Y-95937339D01*
X190079741Y-95835606D01*
X190027080Y-95744394D01*
X190022686Y-95740000D01*
X190985872Y-95740000D01*
X190985871Y-95739999D01*
X190933267Y-95543676D01*
X190837133Y-95337516D01*
X190706664Y-95151187D01*
X190545812Y-94990335D01*
X190359483Y-94859866D01*
X190153318Y-94763730D01*
X189957000Y-94711126D01*
X189957000Y-95674314D01*
X189952606Y-95669920D01*
X189861394Y-95617259D01*
X189759661Y-95590000D01*
X189654339Y-95590000D01*
X189552606Y-95617259D01*
X189461394Y-95669920D01*
X189457000Y-95674314D01*
X189457000Y-94711127D01*
X189456999Y-94711126D01*
X189260681Y-94763730D01*
X189054516Y-94859866D01*
X188868187Y-94990335D01*
X188707335Y-95151187D01*
X188576866Y-95337516D01*
X188480732Y-95543676D01*
X188428128Y-95739999D01*
X180826389Y-95739999D01*
X180773739Y-95543504D01*
X180719123Y-95426380D01*
X180677571Y-95337272D01*
X180677563Y-95337258D01*
X180547050Y-95150865D01*
X180547049Y-95150864D01*
X180547047Y-95150861D01*
X180386139Y-94989953D01*
X180386135Y-94989950D01*
X180386134Y-94989949D01*
X180199741Y-94859436D01*
X180199727Y-94859428D01*
X179993499Y-94763262D01*
X179993496Y-94763261D01*
X179773694Y-94704365D01*
X179773679Y-94704363D01*
X179547006Y-94684532D01*
X179546994Y-94684532D01*
X179320320Y-94704363D01*
X179320305Y-94704365D01*
X179100503Y-94763261D01*
X179100500Y-94763262D01*
X178894272Y-94859428D01*
X178894258Y-94859436D01*
X178707865Y-94989949D01*
X178546949Y-95150865D01*
X178416436Y-95337258D01*
X178416428Y-95337272D01*
X178320262Y-95543500D01*
X178320261Y-95543503D01*
X178261365Y-95763305D01*
X178261363Y-95763320D01*
X178241532Y-95989994D01*
X177042468Y-95989994D01*
X177022636Y-95763320D01*
X177022635Y-95763308D01*
X176963739Y-95543504D01*
X176909123Y-95426380D01*
X176867571Y-95337272D01*
X176867563Y-95337258D01*
X176737050Y-95150865D01*
X176737049Y-95150864D01*
X176737047Y-95150861D01*
X176576139Y-94989953D01*
X176576135Y-94989950D01*
X176576134Y-94989949D01*
X176389741Y-94859436D01*
X176389727Y-94859428D01*
X176183499Y-94763262D01*
X176183496Y-94763261D01*
X175963694Y-94704365D01*
X175963679Y-94704363D01*
X175737006Y-94684532D01*
X175736994Y-94684532D01*
X175510320Y-94704363D01*
X175510305Y-94704365D01*
X175290503Y-94763261D01*
X175290500Y-94763262D01*
X175084272Y-94859428D01*
X175084258Y-94859436D01*
X174897865Y-94989949D01*
X174736949Y-95150865D01*
X174606436Y-95337258D01*
X174606428Y-95337272D01*
X174510262Y-95543500D01*
X174510261Y-95543503D01*
X174451365Y-95763305D01*
X174451363Y-95763320D01*
X174431532Y-95989994D01*
X166882468Y-95989994D01*
X166862636Y-95763320D01*
X166862635Y-95763308D01*
X166803739Y-95543504D01*
X166749123Y-95426380D01*
X166707571Y-95337272D01*
X166707563Y-95337258D01*
X166577050Y-95150865D01*
X166577049Y-95150864D01*
X166577047Y-95150861D01*
X166416139Y-94989953D01*
X166416135Y-94989950D01*
X166416134Y-94989949D01*
X166229741Y-94859436D01*
X166229727Y-94859428D01*
X166023499Y-94763262D01*
X166023496Y-94763261D01*
X165803694Y-94704365D01*
X165803679Y-94704363D01*
X165577006Y-94684532D01*
X165576994Y-94684532D01*
X165350320Y-94704363D01*
X165350305Y-94704365D01*
X165130503Y-94763261D01*
X165130500Y-94763262D01*
X164924272Y-94859428D01*
X164924258Y-94859436D01*
X164737865Y-94989949D01*
X164576949Y-95150865D01*
X164446436Y-95337258D01*
X164446428Y-95337272D01*
X164350262Y-95543500D01*
X164350261Y-95543503D01*
X164291365Y-95763305D01*
X164291363Y-95763320D01*
X164271532Y-95989994D01*
X110500500Y-95989994D01*
X110500500Y-92000000D01*
X114391891Y-92000000D01*
X114412301Y-92285364D01*
X114473108Y-92564891D01*
X114473112Y-92564902D01*
X114573089Y-92832952D01*
X114710192Y-93084039D01*
X114710195Y-93084044D01*
X114816882Y-93226561D01*
X115534424Y-92509018D01*
X115620249Y-92637463D01*
X115759537Y-92776751D01*
X115887979Y-92862573D01*
X115170437Y-93580116D01*
X115312955Y-93686804D01*
X115312960Y-93686807D01*
X115564047Y-93823910D01*
X115832097Y-93923887D01*
X115832108Y-93923891D01*
X116111635Y-93984698D01*
X116397000Y-94005108D01*
X116682364Y-93984698D01*
X116961891Y-93923891D01*
X116961902Y-93923887D01*
X117229952Y-93823910D01*
X117481041Y-93686806D01*
X117481042Y-93686806D01*
X117623561Y-93580115D01*
X116906020Y-92862574D01*
X117034463Y-92776751D01*
X117173751Y-92637463D01*
X117259574Y-92509020D01*
X117977115Y-93226561D01*
X118083806Y-93084042D01*
X118083806Y-93084041D01*
X118220910Y-92832952D01*
X118320887Y-92564902D01*
X118320891Y-92564891D01*
X118381698Y-92285364D01*
X118402108Y-92000000D01*
X118391380Y-91850000D01*
X130494390Y-91850000D01*
X130514804Y-92135428D01*
X130574026Y-92407670D01*
X130575631Y-92415045D01*
X130675631Y-92683158D01*
X130812775Y-92934317D01*
X130861691Y-92999661D01*
X130984261Y-93163395D01*
X131186605Y-93365739D01*
X131415685Y-93537226D01*
X131494232Y-93580116D01*
X131666841Y-93674368D01*
X131700184Y-93686804D01*
X131934954Y-93774369D01*
X132214572Y-93835196D01*
X132500000Y-93855610D01*
X132785428Y-93835196D01*
X133065046Y-93774369D01*
X133333161Y-93674367D01*
X133584315Y-93537226D01*
X133813395Y-93365739D01*
X134015739Y-93163395D01*
X134187226Y-92934315D01*
X134324367Y-92683161D01*
X134424369Y-92415046D01*
X134485196Y-92135428D01*
X134505610Y-91850000D01*
X134485196Y-91564572D01*
X134424369Y-91284954D01*
X134324367Y-91016839D01*
X134187226Y-90765685D01*
X134015739Y-90536605D01*
X133813395Y-90334261D01*
X133595412Y-90171081D01*
X133584317Y-90162775D01*
X133333158Y-90025631D01*
X133187970Y-89971479D01*
X133065046Y-89925631D01*
X133065047Y-89925631D01*
X132785428Y-89864804D01*
X132500000Y-89844390D01*
X132214571Y-89864804D01*
X131934954Y-89925631D01*
X131666841Y-90025631D01*
X131415682Y-90162775D01*
X131289469Y-90257258D01*
X131186605Y-90334261D01*
X131186604Y-90334262D01*
X130984262Y-90536604D01*
X130984260Y-90536607D01*
X130812775Y-90765682D01*
X130675631Y-91016841D01*
X130588813Y-91249612D01*
X130575631Y-91284954D01*
X130514804Y-91564572D01*
X130494390Y-91850000D01*
X118391380Y-91850000D01*
X118381698Y-91714635D01*
X118320891Y-91435108D01*
X118320887Y-91435097D01*
X118220910Y-91167047D01*
X118083807Y-90915960D01*
X118083804Y-90915955D01*
X117977116Y-90773437D01*
X117259573Y-91490979D01*
X117173751Y-91362537D01*
X117034463Y-91223249D01*
X116906018Y-91137424D01*
X117623561Y-90419882D01*
X117481044Y-90313195D01*
X117481039Y-90313192D01*
X117229952Y-90176089D01*
X116961902Y-90076112D01*
X116961891Y-90076108D01*
X116682364Y-90015301D01*
X116397000Y-89994891D01*
X116111635Y-90015301D01*
X115832108Y-90076108D01*
X115832097Y-90076112D01*
X115564047Y-90176089D01*
X115312960Y-90313192D01*
X115312957Y-90313194D01*
X115170437Y-90419882D01*
X115887980Y-91137425D01*
X115759537Y-91223249D01*
X115620249Y-91362537D01*
X115534425Y-91490980D01*
X114816882Y-90773437D01*
X114710194Y-90915957D01*
X114710192Y-90915960D01*
X114573089Y-91167047D01*
X114473112Y-91435097D01*
X114473108Y-91435108D01*
X114412301Y-91714635D01*
X114391891Y-92000000D01*
X110500500Y-92000000D01*
X110500500Y-91308529D01*
X110500501Y-91308526D01*
X110500500Y-91249608D01*
X110500892Y-91235651D01*
X110507733Y-91113811D01*
X110515429Y-90976734D01*
X110518551Y-90949017D01*
X110560823Y-90700221D01*
X110567031Y-90673024D01*
X110636891Y-90430538D01*
X110646103Y-90404211D01*
X110742681Y-90171061D01*
X110754782Y-90145934D01*
X110876849Y-89925080D01*
X110891706Y-89901437D01*
X111037736Y-89695639D01*
X111055124Y-89673837D01*
X111228305Y-89480060D01*
X111237886Y-89469928D01*
X111266965Y-89440851D01*
X111279168Y-89428649D01*
X111279168Y-89428647D01*
X111293339Y-89414478D01*
X111293361Y-89414451D01*
X114707812Y-86000000D01*
X120244473Y-86000000D01*
X120263342Y-86311948D01*
X120264565Y-86332153D01*
X120324542Y-86659432D01*
X120324544Y-86659442D01*
X120354252Y-86754778D01*
X120419004Y-86962577D01*
X120423539Y-86977128D01*
X120560100Y-87280554D01*
X120732246Y-87565318D01*
X120937452Y-87827245D01*
X120937454Y-87827247D01*
X120937458Y-87827252D01*
X121172748Y-88062542D01*
X121172752Y-88062545D01*
X121172754Y-88062547D01*
X121324726Y-88181609D01*
X121434682Y-88267754D01*
X121719443Y-88439898D01*
X122022877Y-88576463D01*
X122340559Y-88675456D01*
X122667847Y-88735434D01*
X122667848Y-88735434D01*
X122667858Y-88735436D01*
X123000000Y-88755527D01*
X123332142Y-88735436D01*
X123659441Y-88675456D01*
X123977123Y-88576463D01*
X124280557Y-88439898D01*
X124565318Y-88267754D01*
X124827252Y-88062542D01*
X125062542Y-87827252D01*
X125267754Y-87565318D01*
X125439898Y-87280557D01*
X125576463Y-86977123D01*
X125675456Y-86659441D01*
X125735436Y-86332142D01*
X125755527Y-86000000D01*
X125735436Y-85667858D01*
X125675456Y-85340559D01*
X125576463Y-85022877D01*
X125450848Y-84743773D01*
X125439899Y-84719445D01*
X125430032Y-84703123D01*
X125267754Y-84434682D01*
X125154440Y-84290047D01*
X125062547Y-84172754D01*
X125062545Y-84172752D01*
X125062542Y-84172748D01*
X124827252Y-83937458D01*
X124827247Y-83937454D01*
X124827245Y-83937452D01*
X124565318Y-83732246D01*
X124280554Y-83560100D01*
X123977128Y-83423539D01*
X123977126Y-83423538D01*
X123977123Y-83423537D01*
X123790811Y-83365480D01*
X123659442Y-83324544D01*
X123659432Y-83324542D01*
X123470912Y-83289994D01*
X153476532Y-83289994D01*
X153476532Y-83290005D01*
X153496363Y-83516679D01*
X153496365Y-83516694D01*
X153555261Y-83736496D01*
X153555262Y-83736499D01*
X153651428Y-83942727D01*
X153651436Y-83942741D01*
X153781949Y-84129134D01*
X153781953Y-84129139D01*
X153942861Y-84290047D01*
X153999206Y-84329500D01*
X154037530Y-84356334D01*
X154104715Y-84426515D01*
X154139928Y-84517064D01*
X154137809Y-84614196D01*
X154098681Y-84703123D01*
X154057073Y-84744731D01*
X154056527Y-84750973D01*
X154735554Y-85430000D01*
X154729339Y-85430000D01*
X154627606Y-85457259D01*
X154536394Y-85509920D01*
X154461920Y-85584394D01*
X154409259Y-85675606D01*
X154382000Y-85777339D01*
X154382000Y-85783554D01*
X153702973Y-85104527D01*
X153702972Y-85104527D01*
X153651870Y-85177510D01*
X153651867Y-85177514D01*
X153555732Y-85383676D01*
X153496859Y-85603396D01*
X153496859Y-85603397D01*
X153477034Y-85830000D01*
X153496859Y-86056602D01*
X153496859Y-86056603D01*
X153555732Y-86276323D01*
X153651867Y-86482486D01*
X153651869Y-86482488D01*
X153702972Y-86555471D01*
X153702974Y-86555471D01*
X154382000Y-85876445D01*
X154382000Y-85882661D01*
X154409259Y-85984394D01*
X154461920Y-86075606D01*
X154536394Y-86150080D01*
X154627606Y-86202741D01*
X154729339Y-86230000D01*
X154735552Y-86230000D01*
X154056527Y-86909023D01*
X154057157Y-86916225D01*
X154104718Y-86965909D01*
X154139930Y-87056459D01*
X154137809Y-87153591D01*
X154098679Y-87242517D01*
X154037533Y-87303663D01*
X153942863Y-87369951D01*
X153781949Y-87530865D01*
X153651436Y-87717258D01*
X153651428Y-87717272D01*
X153555262Y-87923500D01*
X153555261Y-87923503D01*
X153496365Y-88143305D01*
X153496363Y-88143320D01*
X153476532Y-88369994D01*
X153476532Y-88370005D01*
X153496363Y-88596679D01*
X153496365Y-88596694D01*
X153555261Y-88816496D01*
X153555262Y-88816499D01*
X153651428Y-89022727D01*
X153651436Y-89022741D01*
X153751685Y-89165912D01*
X153781953Y-89209139D01*
X153942861Y-89370047D01*
X153942864Y-89370049D01*
X153942865Y-89370050D01*
X154037096Y-89436031D01*
X154104280Y-89506212D01*
X154139493Y-89596761D01*
X154137374Y-89693893D01*
X154098245Y-89782820D01*
X154037096Y-89843969D01*
X153942865Y-89909949D01*
X153781949Y-90070865D01*
X153651436Y-90257258D01*
X153651428Y-90257272D01*
X153555262Y-90463500D01*
X153555261Y-90463503D01*
X153496365Y-90683305D01*
X153496363Y-90683320D01*
X153476532Y-90909994D01*
X153476532Y-90910005D01*
X153496363Y-91136679D01*
X153496365Y-91136694D01*
X153555261Y-91356496D01*
X153555262Y-91356499D01*
X153651428Y-91562727D01*
X153651436Y-91562741D01*
X153753365Y-91708311D01*
X153781953Y-91749139D01*
X153829399Y-91796585D01*
X153883373Y-91877364D01*
X153902327Y-91972652D01*
X153883373Y-92067940D01*
X153829397Y-92148722D01*
X153748615Y-92202698D01*
X153740344Y-92205952D01*
X153739671Y-92206202D01*
X153624455Y-92292453D01*
X153624453Y-92292455D01*
X153538204Y-92407669D01*
X153487908Y-92542518D01*
X153481500Y-92602123D01*
X153481500Y-94297865D01*
X153481500Y-94297868D01*
X153481501Y-94297872D01*
X153483567Y-94317093D01*
X153487908Y-94357480D01*
X153487909Y-94357484D01*
X153525638Y-94458641D01*
X153538204Y-94492331D01*
X153624454Y-94607546D01*
X153739669Y-94693796D01*
X153874517Y-94744091D01*
X153934127Y-94750500D01*
X155629872Y-94750499D01*
X155689483Y-94744091D01*
X155824331Y-94693796D01*
X155939546Y-94607546D01*
X156025796Y-94492331D01*
X156076091Y-94357483D01*
X156082500Y-94297873D01*
X156082499Y-92602128D01*
X156076091Y-92542517D01*
X156025796Y-92407669D01*
X155939546Y-92292454D01*
X155824331Y-92206204D01*
X155823656Y-92205952D01*
X155822026Y-92204945D01*
X155808702Y-92197670D01*
X155809091Y-92196955D01*
X155741002Y-92154896D01*
X155684175Y-92076094D01*
X155661831Y-91981543D01*
X155677370Y-91885639D01*
X155728428Y-91802982D01*
X155734576Y-91796609D01*
X155782047Y-91749139D01*
X155912568Y-91562734D01*
X156008739Y-91356496D01*
X156067635Y-91136692D01*
X156072375Y-91082512D01*
X156079594Y-91000000D01*
X194994539Y-91000000D01*
X195013021Y-91435097D01*
X195014373Y-91466909D01*
X195073728Y-91930419D01*
X195073731Y-91930435D01*
X195172179Y-92387237D01*
X195172182Y-92387249D01*
X195172184Y-92387255D01*
X195219733Y-92542518D01*
X195309024Y-92834087D01*
X195437248Y-93153183D01*
X195483267Y-93267706D01*
X195688302Y-93674367D01*
X195693659Y-93684992D01*
X195938675Y-94082924D01*
X195938675Y-94082925D01*
X196216550Y-94458637D01*
X196216552Y-94458639D01*
X196525280Y-94809422D01*
X196525291Y-94809433D01*
X196525299Y-94809442D01*
X196862681Y-95132797D01*
X196885053Y-95150861D01*
X197226267Y-95426373D01*
X197226269Y-95426374D01*
X197226270Y-95426375D01*
X197399563Y-95543500D01*
X197613433Y-95688051D01*
X197613437Y-95688053D01*
X197613447Y-95688060D01*
X197748142Y-95763305D01*
X198021405Y-95915960D01*
X198021409Y-95915962D01*
X198021415Y-95915964D01*
X198021421Y-95915968D01*
X198447253Y-96108457D01*
X198548965Y-96144394D01*
X198887860Y-96264134D01*
X198887879Y-96264140D01*
X198986857Y-96289911D01*
X199340113Y-96381892D01*
X199485501Y-96406821D01*
X199800700Y-96460868D01*
X199800706Y-96460868D01*
X199800708Y-96460869D01*
X200266342Y-96500500D01*
X200266345Y-96500500D01*
X200733655Y-96500500D01*
X200733658Y-96500500D01*
X201199292Y-96460869D01*
X201199295Y-96460868D01*
X201199299Y-96460868D01*
X201341436Y-96436496D01*
X201659887Y-96381892D01*
X202112124Y-96264139D01*
X202112131Y-96264136D01*
X202112139Y-96264134D01*
X202246449Y-96216679D01*
X202552747Y-96108457D01*
X202978579Y-95915968D01*
X202978590Y-95915962D01*
X202978594Y-95915960D01*
X203080149Y-95859227D01*
X203386553Y-95688060D01*
X203773730Y-95426375D01*
X204137319Y-95132797D01*
X204474701Y-94809442D01*
X204526579Y-94750498D01*
X204584636Y-94684532D01*
X204783446Y-94458641D01*
X204858262Y-94357483D01*
X205061324Y-94082925D01*
X205061324Y-94082924D01*
X205061328Y-94082919D01*
X205306345Y-93684985D01*
X205516733Y-93267706D01*
X205690975Y-92834088D01*
X205827816Y-92387255D01*
X205926270Y-91930427D01*
X205985628Y-91466896D01*
X206005461Y-91000000D01*
X205985628Y-90533104D01*
X205927107Y-90076108D01*
X205926271Y-90069580D01*
X205926268Y-90069564D01*
X205827820Y-89612762D01*
X205827818Y-89612758D01*
X205827816Y-89612745D01*
X205690975Y-89165912D01*
X205516733Y-88732294D01*
X205306345Y-88315015D01*
X205061328Y-87917081D01*
X205061324Y-87917075D01*
X205061324Y-87917074D01*
X204783449Y-87541362D01*
X204783447Y-87541360D01*
X204474719Y-87190577D01*
X204474708Y-87190566D01*
X204474701Y-87190558D01*
X204137319Y-86867203D01*
X203935070Y-86703898D01*
X203773732Y-86573626D01*
X203773721Y-86573619D01*
X203386566Y-86311948D01*
X203386557Y-86311943D01*
X203386553Y-86311940D01*
X203239874Y-86230000D01*
X202978594Y-86084039D01*
X202978590Y-86084037D01*
X202792680Y-86000000D01*
X202552747Y-85891543D01*
X202552744Y-85891542D01*
X202552742Y-85891541D01*
X202112139Y-85735865D01*
X202112120Y-85735859D01*
X201659883Y-85618107D01*
X201659885Y-85618107D01*
X201199299Y-85539131D01*
X201199290Y-85539130D01*
X200843222Y-85508825D01*
X200733658Y-85499500D01*
X200266342Y-85499500D01*
X200164746Y-85508147D01*
X199800709Y-85539130D01*
X199800700Y-85539131D01*
X199340115Y-85618107D01*
X198887879Y-85735859D01*
X198887860Y-85735865D01*
X198447257Y-85891541D01*
X198021409Y-86084037D01*
X198021405Y-86084039D01*
X197613457Y-86311934D01*
X197613433Y-86311948D01*
X197226278Y-86573619D01*
X197226267Y-86573626D01*
X196862683Y-86867201D01*
X196789086Y-86937738D01*
X196661495Y-87060025D01*
X196525295Y-87190562D01*
X196525280Y-87190577D01*
X196216552Y-87541360D01*
X196216550Y-87541362D01*
X195938675Y-87917074D01*
X195938675Y-87917075D01*
X195693659Y-88315007D01*
X195693655Y-88315015D01*
X195483267Y-88732294D01*
X195483264Y-88732299D01*
X195483264Y-88732301D01*
X195309024Y-89165912D01*
X195226302Y-89436030D01*
X195180342Y-89586108D01*
X195172179Y-89612762D01*
X195073731Y-90069564D01*
X195073728Y-90069580D01*
X195014373Y-90533090D01*
X195014372Y-90533099D01*
X195014372Y-90533104D01*
X194994539Y-91000000D01*
X156079594Y-91000000D01*
X156087468Y-90910005D01*
X156087468Y-90909994D01*
X156067636Y-90683320D01*
X156067635Y-90683308D01*
X156008739Y-90463504D01*
X155946875Y-90330837D01*
X155912571Y-90257272D01*
X155912563Y-90257258D01*
X155782050Y-90070865D01*
X155782049Y-90070864D01*
X155782047Y-90070861D01*
X155621139Y-89909953D01*
X155621133Y-89909949D01*
X155527504Y-89844390D01*
X155526902Y-89843968D01*
X155459719Y-89773789D01*
X155424506Y-89683240D01*
X155426625Y-89586108D01*
X155465753Y-89497181D01*
X155526902Y-89436031D01*
X155621139Y-89370047D01*
X155782047Y-89209139D01*
X155912568Y-89022734D01*
X156008739Y-88816496D01*
X156067635Y-88596692D01*
X156087468Y-88370000D01*
X156087468Y-88369994D01*
X156067636Y-88143320D01*
X156067635Y-88143308D01*
X156008739Y-87923504D01*
X155951012Y-87799709D01*
X155912571Y-87717272D01*
X155912563Y-87717258D01*
X155782050Y-87530865D01*
X155782049Y-87530864D01*
X155782047Y-87530861D01*
X155621139Y-87369953D01*
X155621135Y-87369950D01*
X155621134Y-87369949D01*
X155526466Y-87303662D01*
X155459282Y-87233481D01*
X155424069Y-87142932D01*
X155426188Y-87045800D01*
X155465317Y-86956873D01*
X155506925Y-86915263D01*
X155507471Y-86909025D01*
X154828446Y-86230000D01*
X154834661Y-86230000D01*
X154936394Y-86202741D01*
X155027606Y-86150080D01*
X155102080Y-86075606D01*
X155154741Y-85984394D01*
X155182000Y-85882661D01*
X155182000Y-85876446D01*
X155861025Y-86555471D01*
X155912133Y-86482483D01*
X155912137Y-86482476D01*
X156008266Y-86276326D01*
X156067140Y-86056603D01*
X156067140Y-86056602D01*
X156086965Y-85830000D01*
X156067140Y-85603397D01*
X156067140Y-85603396D01*
X156008267Y-85383676D01*
X155912132Y-85177515D01*
X155861025Y-85104527D01*
X155861023Y-85104527D01*
X155182000Y-85783551D01*
X155182000Y-85777339D01*
X155154741Y-85675606D01*
X155102080Y-85584394D01*
X155027606Y-85509920D01*
X154936394Y-85457259D01*
X154834661Y-85430000D01*
X154828446Y-85430000D01*
X155276858Y-84981587D01*
X167591500Y-84981587D01*
X167591500Y-86678412D01*
X167591501Y-86678428D01*
X167617878Y-86844963D01*
X167622291Y-86872826D01*
X167634052Y-86909023D01*
X167674371Y-87033113D01*
X167683116Y-87060025D01*
X167772476Y-87235405D01*
X167772479Y-87235409D01*
X167772479Y-87235410D01*
X167876841Y-87379050D01*
X167888172Y-87394646D01*
X168027354Y-87533828D01*
X168037721Y-87541360D01*
X168132068Y-87609908D01*
X168186595Y-87649524D01*
X168361975Y-87738884D01*
X168549174Y-87799709D01*
X168743583Y-87830500D01*
X168743587Y-87830500D01*
X168940413Y-87830500D01*
X168940417Y-87830500D01*
X169134826Y-87799709D01*
X169322025Y-87738884D01*
X169497405Y-87649524D01*
X169656646Y-87533828D01*
X169795828Y-87394646D01*
X169911524Y-87235405D01*
X170000884Y-87060025D01*
X170060764Y-86875733D01*
X170108232Y-86790974D01*
X170184529Y-86730825D01*
X170278036Y-86704453D01*
X170374518Y-86715871D01*
X170459285Y-86763343D01*
X170480769Y-86784042D01*
X170622248Y-86937730D01*
X170622252Y-86937733D01*
X170622256Y-86937738D01*
X170622260Y-86937741D01*
X170622261Y-86937742D01*
X170818485Y-87090470D01*
X170818487Y-87090471D01*
X170818491Y-87090474D01*
X171003430Y-87190558D01*
X171018081Y-87198487D01*
X171037190Y-87208828D01*
X171106736Y-87232703D01*
X171272378Y-87289569D01*
X171272382Y-87289569D01*
X171272386Y-87289571D01*
X171517665Y-87330500D01*
X171766335Y-87330500D01*
X172011614Y-87289571D01*
X172011618Y-87289569D01*
X172011621Y-87289569D01*
X172148677Y-87242517D01*
X172246810Y-87208828D01*
X172465509Y-87090474D01*
X172661744Y-86937738D01*
X172830164Y-86754785D01*
X172933547Y-86596544D01*
X173001529Y-86527142D01*
X173090900Y-86489036D01*
X173188049Y-86488031D01*
X173278189Y-86524281D01*
X173347594Y-86592265D01*
X173350424Y-86596500D01*
X173403950Y-86678428D01*
X173453831Y-86754778D01*
X173453836Y-86754785D01*
X173622248Y-86937730D01*
X173622252Y-86937733D01*
X173622256Y-86937738D01*
X173622260Y-86937741D01*
X173622261Y-86937742D01*
X173818485Y-87090470D01*
X173818487Y-87090471D01*
X173818491Y-87090474D01*
X174003430Y-87190558D01*
X174018081Y-87198487D01*
X174037190Y-87208828D01*
X174106736Y-87232703D01*
X174272378Y-87289569D01*
X174272382Y-87289569D01*
X174272386Y-87289571D01*
X174517665Y-87330500D01*
X174766335Y-87330500D01*
X175011614Y-87289571D01*
X175011618Y-87289569D01*
X175011621Y-87289569D01*
X175148677Y-87242517D01*
X175246810Y-87208828D01*
X175465509Y-87090474D01*
X175661744Y-86937738D01*
X175830164Y-86754785D01*
X175933547Y-86596544D01*
X176001529Y-86527142D01*
X176090900Y-86489036D01*
X176188049Y-86488031D01*
X176278189Y-86524281D01*
X176347594Y-86592265D01*
X176350424Y-86596500D01*
X176403950Y-86678428D01*
X176453831Y-86754778D01*
X176453836Y-86754785D01*
X176622248Y-86937730D01*
X176622252Y-86937733D01*
X176622256Y-86937738D01*
X176622260Y-86937741D01*
X176622261Y-86937742D01*
X176818485Y-87090470D01*
X176818487Y-87090471D01*
X176818491Y-87090474D01*
X177003430Y-87190558D01*
X177018081Y-87198487D01*
X177037190Y-87208828D01*
X177106736Y-87232703D01*
X177272378Y-87289569D01*
X177272382Y-87289569D01*
X177272386Y-87289571D01*
X177517665Y-87330500D01*
X177766335Y-87330500D01*
X178011614Y-87289571D01*
X178011618Y-87289569D01*
X178011621Y-87289569D01*
X178148677Y-87242517D01*
X178246810Y-87208828D01*
X178465509Y-87090474D01*
X178661744Y-86937738D01*
X178803232Y-86784040D01*
X178881711Y-86726774D01*
X178976134Y-86703898D01*
X179072124Y-86718897D01*
X179155067Y-86769489D01*
X179212336Y-86847971D01*
X179223236Y-86875737D01*
X179234052Y-86909023D01*
X179275397Y-87036271D01*
X179283116Y-87060025D01*
X179372476Y-87235405D01*
X179372479Y-87235409D01*
X179372479Y-87235410D01*
X179476841Y-87379050D01*
X179488172Y-87394646D01*
X179627354Y-87533828D01*
X179637721Y-87541360D01*
X179732068Y-87609908D01*
X179786595Y-87649524D01*
X179961975Y-87738884D01*
X180149174Y-87799709D01*
X180343583Y-87830500D01*
X180343587Y-87830500D01*
X180540413Y-87830500D01*
X180540417Y-87830500D01*
X180734826Y-87799709D01*
X180922025Y-87738884D01*
X181097405Y-87649524D01*
X181256646Y-87533828D01*
X181395828Y-87394646D01*
X181511524Y-87235405D01*
X181600884Y-87060025D01*
X181661709Y-86872826D01*
X181692500Y-86678417D01*
X181692500Y-84981583D01*
X181661709Y-84787174D01*
X181600884Y-84599975D01*
X181511524Y-84424595D01*
X181508598Y-84420568D01*
X181395830Y-84265357D01*
X181395828Y-84265354D01*
X181256646Y-84126172D01*
X181256642Y-84126169D01*
X181097410Y-84010479D01*
X181097407Y-84010477D01*
X181097405Y-84010476D01*
X180922025Y-83921116D01*
X180922024Y-83921115D01*
X180922023Y-83921115D01*
X180922017Y-83921113D01*
X180814928Y-83886318D01*
X180734826Y-83860291D01*
X180734824Y-83860290D01*
X180734822Y-83860290D01*
X180540428Y-83829501D01*
X180540419Y-83829500D01*
X180540417Y-83829500D01*
X180343583Y-83829500D01*
X180343580Y-83829500D01*
X180343571Y-83829501D01*
X180149177Y-83860290D01*
X179961982Y-83921113D01*
X179961976Y-83921115D01*
X179919533Y-83942741D01*
X179786595Y-84010476D01*
X179786592Y-84010477D01*
X179786590Y-84010479D01*
X179786589Y-84010479D01*
X179627357Y-84126169D01*
X179488169Y-84265357D01*
X179372479Y-84424589D01*
X179372479Y-84424590D01*
X179372477Y-84424592D01*
X179372476Y-84424595D01*
X179337024Y-84494174D01*
X179283115Y-84599976D01*
X179283113Y-84599982D01*
X179223238Y-84784259D01*
X179175766Y-84869027D01*
X179099469Y-84929175D01*
X179005961Y-84955546D01*
X178909480Y-84944127D01*
X178824712Y-84896655D01*
X178803230Y-84875957D01*
X178661751Y-84722269D01*
X178661746Y-84722264D01*
X178661744Y-84722262D01*
X178659434Y-84720464D01*
X178465514Y-84569529D01*
X178465510Y-84569526D01*
X178465509Y-84569526D01*
X178348881Y-84506410D01*
X178246811Y-84451172D01*
X178011621Y-84370430D01*
X178011610Y-84370428D01*
X177766335Y-84329500D01*
X177517665Y-84329500D01*
X177272389Y-84370428D01*
X177272378Y-84370430D01*
X177037188Y-84451172D01*
X176818485Y-84569529D01*
X176622261Y-84722257D01*
X176622248Y-84722269D01*
X176453836Y-84905214D01*
X176453830Y-84905221D01*
X176350455Y-85063452D01*
X176282470Y-85132858D01*
X176193100Y-85170963D01*
X176095950Y-85171968D01*
X176005811Y-85135718D01*
X175936405Y-85067733D01*
X175933545Y-85063452D01*
X175830169Y-84905221D01*
X175830163Y-84905214D01*
X175661751Y-84722269D01*
X175661746Y-84722264D01*
X175661744Y-84722262D01*
X175659434Y-84720464D01*
X175465514Y-84569529D01*
X175465510Y-84569526D01*
X175465509Y-84569526D01*
X175348881Y-84506410D01*
X175246811Y-84451172D01*
X175011621Y-84370430D01*
X175011610Y-84370428D01*
X174766335Y-84329500D01*
X174517665Y-84329500D01*
X174272389Y-84370428D01*
X174272378Y-84370430D01*
X174037188Y-84451172D01*
X173818485Y-84569529D01*
X173622261Y-84722257D01*
X173622248Y-84722269D01*
X173453836Y-84905214D01*
X173453830Y-84905221D01*
X173350455Y-85063452D01*
X173282470Y-85132858D01*
X173193100Y-85170963D01*
X173095950Y-85171968D01*
X173005811Y-85135718D01*
X172936405Y-85067733D01*
X172933545Y-85063452D01*
X172830169Y-84905221D01*
X172830163Y-84905214D01*
X172661751Y-84722269D01*
X172661746Y-84722264D01*
X172661744Y-84722262D01*
X172659434Y-84720464D01*
X172465514Y-84569529D01*
X172465510Y-84569526D01*
X172465509Y-84569526D01*
X172348881Y-84506410D01*
X172246811Y-84451172D01*
X172011621Y-84370430D01*
X172011610Y-84370428D01*
X171766335Y-84329500D01*
X171517665Y-84329500D01*
X171272389Y-84370428D01*
X171272378Y-84370430D01*
X171037188Y-84451172D01*
X170818485Y-84569529D01*
X170622261Y-84722257D01*
X170622254Y-84722264D01*
X170480769Y-84875958D01*
X170402287Y-84933226D01*
X170307863Y-84956101D01*
X170211873Y-84941101D01*
X170128930Y-84890509D01*
X170071662Y-84812027D01*
X170060764Y-84784265D01*
X170031012Y-84692698D01*
X170000888Y-84599985D01*
X170000884Y-84599976D01*
X170000884Y-84599975D01*
X169911524Y-84424595D01*
X169908598Y-84420568D01*
X169795830Y-84265357D01*
X169795828Y-84265354D01*
X169656646Y-84126172D01*
X169656642Y-84126169D01*
X169497410Y-84010479D01*
X169497407Y-84010477D01*
X169497405Y-84010476D01*
X169322025Y-83921116D01*
X169322024Y-83921115D01*
X169322023Y-83921115D01*
X169322017Y-83921113D01*
X169214928Y-83886318D01*
X169134826Y-83860291D01*
X169134824Y-83860290D01*
X169134822Y-83860290D01*
X168940428Y-83829501D01*
X168940419Y-83829500D01*
X168940417Y-83829500D01*
X168743583Y-83829500D01*
X168743580Y-83829500D01*
X168743571Y-83829501D01*
X168549177Y-83860290D01*
X168361982Y-83921113D01*
X168361976Y-83921115D01*
X168319533Y-83942741D01*
X168186595Y-84010476D01*
X168186592Y-84010477D01*
X168186590Y-84010479D01*
X168186589Y-84010479D01*
X168027357Y-84126169D01*
X167888169Y-84265357D01*
X167772479Y-84424589D01*
X167772479Y-84424590D01*
X167772477Y-84424592D01*
X167772476Y-84424595D01*
X167737024Y-84494174D01*
X167683115Y-84599976D01*
X167683113Y-84599982D01*
X167622290Y-84787177D01*
X167591501Y-84981571D01*
X167591500Y-84981587D01*
X155276858Y-84981587D01*
X155507471Y-84750974D01*
X155506841Y-84743773D01*
X155459282Y-84694091D01*
X155424070Y-84603542D01*
X155426190Y-84506410D01*
X155465319Y-84417483D01*
X155526465Y-84356337D01*
X155621139Y-84290047D01*
X155782047Y-84129139D01*
X155912568Y-83942734D01*
X156008739Y-83736496D01*
X156067635Y-83516692D01*
X156087468Y-83290000D01*
X156087468Y-83289994D01*
X187466551Y-83289994D01*
X187466551Y-83290005D01*
X187486316Y-83541145D01*
X187545126Y-83786108D01*
X187545129Y-83786116D01*
X187641533Y-84018858D01*
X187641537Y-84018864D01*
X187773158Y-84233652D01*
X187773160Y-84233654D01*
X187773163Y-84233657D01*
X187773164Y-84233659D01*
X187936776Y-84425224D01*
X188112885Y-84575635D01*
X188128345Y-84588839D01*
X188128347Y-84588841D01*
X188259406Y-84669153D01*
X188343141Y-84720466D01*
X188575889Y-84816873D01*
X188820852Y-84875683D01*
X188892608Y-84881330D01*
X189071995Y-84895449D01*
X189072000Y-84895449D01*
X189072005Y-84895449D01*
X189228967Y-84883095D01*
X189323148Y-84875683D01*
X189568111Y-84816873D01*
X189800859Y-84720466D01*
X189835938Y-84698968D01*
X189927085Y-84665340D01*
X190024165Y-84669153D01*
X190112397Y-84709825D01*
X190142113Y-84735204D01*
X190154451Y-84747542D01*
X190154454Y-84747546D01*
X190269669Y-84833796D01*
X190404517Y-84884091D01*
X190464127Y-84890500D01*
X192759872Y-84890499D01*
X192819483Y-84884091D01*
X192954331Y-84833796D01*
X193069546Y-84747546D01*
X193155796Y-84632331D01*
X193182774Y-84560000D01*
X211796700Y-84560000D01*
X211815866Y-84791308D01*
X211815868Y-84791315D01*
X211853800Y-84941101D01*
X211872843Y-85016300D01*
X211875728Y-85022877D01*
X211966074Y-85228846D01*
X212093019Y-85423151D01*
X212093022Y-85423155D01*
X212250214Y-85593911D01*
X212250220Y-85593916D01*
X212432835Y-85736051D01*
X212433374Y-85736470D01*
X212480363Y-85761899D01*
X212637487Y-85846931D01*
X212637489Y-85846931D01*
X212637497Y-85846936D01*
X212857019Y-85922298D01*
X213085951Y-85960500D01*
X213318049Y-85960500D01*
X213546981Y-85922298D01*
X213766503Y-85846936D01*
X213970626Y-85736470D01*
X214153784Y-85593913D01*
X214289147Y-85446868D01*
X214367626Y-85389603D01*
X214462049Y-85366727D01*
X214558039Y-85381726D01*
X214640983Y-85432318D01*
X214655535Y-85446871D01*
X214790548Y-85593535D01*
X214790560Y-85593545D01*
X214973650Y-85736051D01*
X215177700Y-85846477D01*
X215241999Y-85868551D01*
X215242000Y-85868550D01*
X215242000Y-84625826D01*
X215276075Y-84752993D01*
X215341901Y-84867007D01*
X215434993Y-84960099D01*
X215549007Y-85025925D01*
X215676174Y-85060000D01*
X215807826Y-85060000D01*
X215934993Y-85025925D01*
X216049007Y-84960099D01*
X216142099Y-84867007D01*
X216207925Y-84752993D01*
X216242000Y-84625826D01*
X216242000Y-85868551D01*
X216306299Y-85846477D01*
X216510349Y-85736051D01*
X216693439Y-85593545D01*
X216693450Y-85593536D01*
X216828463Y-85446872D01*
X216906945Y-85389603D01*
X217001368Y-85366727D01*
X217097358Y-85381726D01*
X217180301Y-85432318D01*
X217194854Y-85446871D01*
X217330214Y-85593911D01*
X217330220Y-85593916D01*
X217512835Y-85736051D01*
X217513374Y-85736470D01*
X217560363Y-85761899D01*
X217717487Y-85846931D01*
X217717489Y-85846931D01*
X217717497Y-85846936D01*
X217937019Y-85922298D01*
X218165951Y-85960500D01*
X218398049Y-85960500D01*
X218626981Y-85922298D01*
X218846503Y-85846936D01*
X219050626Y-85736470D01*
X219233784Y-85593913D01*
X219341920Y-85476446D01*
X219368805Y-85447241D01*
X219447286Y-85389972D01*
X219541710Y-85367097D01*
X219637700Y-85382097D01*
X219720643Y-85432689D01*
X219735195Y-85447241D01*
X219870214Y-85593911D01*
X219870220Y-85593916D01*
X220052835Y-85736051D01*
X220053374Y-85736470D01*
X220100363Y-85761899D01*
X220257487Y-85846931D01*
X220257489Y-85846931D01*
X220257497Y-85846936D01*
X220477019Y-85922298D01*
X220705951Y-85960500D01*
X220938049Y-85960500D01*
X221166981Y-85922298D01*
X221386503Y-85846936D01*
X221590626Y-85736470D01*
X221773784Y-85593913D01*
X221881920Y-85476446D01*
X221908805Y-85447241D01*
X221987286Y-85389972D01*
X222081710Y-85367097D01*
X222177700Y-85382097D01*
X222260643Y-85432689D01*
X222275195Y-85447241D01*
X222410214Y-85593911D01*
X222410220Y-85593916D01*
X222592835Y-85736051D01*
X222593374Y-85736470D01*
X222640363Y-85761899D01*
X222797487Y-85846931D01*
X222797489Y-85846931D01*
X222797497Y-85846936D01*
X223017019Y-85922298D01*
X223245951Y-85960500D01*
X223478049Y-85960500D01*
X223706981Y-85922298D01*
X223926503Y-85846936D01*
X224130626Y-85736470D01*
X224313784Y-85593913D01*
X224421920Y-85476446D01*
X224448805Y-85447241D01*
X224527286Y-85389972D01*
X224621710Y-85367097D01*
X224717700Y-85382097D01*
X224800643Y-85432689D01*
X224815195Y-85447241D01*
X224950214Y-85593911D01*
X224950220Y-85593916D01*
X225132835Y-85736051D01*
X225133374Y-85736470D01*
X225180363Y-85761899D01*
X225337487Y-85846931D01*
X225337489Y-85846931D01*
X225337497Y-85846936D01*
X225557019Y-85922298D01*
X225785951Y-85960500D01*
X226018049Y-85960500D01*
X226246981Y-85922298D01*
X226466503Y-85846936D01*
X226670626Y-85736470D01*
X226853784Y-85593913D01*
X226961920Y-85476446D01*
X226988805Y-85447241D01*
X227067286Y-85389972D01*
X227161710Y-85367097D01*
X227257700Y-85382097D01*
X227340643Y-85432689D01*
X227355195Y-85447241D01*
X227490214Y-85593911D01*
X227490220Y-85593916D01*
X227672835Y-85736051D01*
X227673374Y-85736470D01*
X227720363Y-85761899D01*
X227877487Y-85846931D01*
X227877489Y-85846931D01*
X227877497Y-85846936D01*
X228097019Y-85922298D01*
X228325951Y-85960500D01*
X228558049Y-85960500D01*
X228786981Y-85922298D01*
X229006503Y-85846936D01*
X229210626Y-85736470D01*
X229393784Y-85593913D01*
X229550979Y-85423153D01*
X229677924Y-85228849D01*
X229771157Y-85016300D01*
X229828134Y-84791305D01*
X229847300Y-84560000D01*
X229828134Y-84328695D01*
X229771157Y-84103700D01*
X229677924Y-83891151D01*
X229576883Y-83736496D01*
X229550980Y-83696848D01*
X229550977Y-83696844D01*
X229393785Y-83526088D01*
X229393779Y-83526083D01*
X229210628Y-83383531D01*
X229006512Y-83273068D01*
X229006507Y-83273066D01*
X229006503Y-83273064D01*
X228786981Y-83197702D01*
X228786978Y-83197701D01*
X228786974Y-83197700D01*
X228558049Y-83159500D01*
X228325951Y-83159500D01*
X228097025Y-83197700D01*
X228097019Y-83197701D01*
X228097019Y-83197702D01*
X227877497Y-83273064D01*
X227877494Y-83273065D01*
X227877487Y-83273068D01*
X227673371Y-83383531D01*
X227490220Y-83526083D01*
X227490217Y-83526086D01*
X227490216Y-83526087D01*
X227472775Y-83545033D01*
X227355195Y-83672759D01*
X227276713Y-83730027D01*
X227182289Y-83752902D01*
X227086299Y-83737902D01*
X227003356Y-83687310D01*
X226988805Y-83672759D01*
X226953091Y-83633963D01*
X226853784Y-83526087D01*
X226853779Y-83526083D01*
X226670628Y-83383531D01*
X226466512Y-83273068D01*
X226466507Y-83273066D01*
X226466503Y-83273064D01*
X226246981Y-83197702D01*
X226246978Y-83197701D01*
X226246974Y-83197700D01*
X226018049Y-83159500D01*
X225785951Y-83159500D01*
X225557025Y-83197700D01*
X225557019Y-83197701D01*
X225557019Y-83197702D01*
X225337497Y-83273064D01*
X225337494Y-83273065D01*
X225337487Y-83273068D01*
X225133371Y-83383531D01*
X224950220Y-83526083D01*
X224950217Y-83526086D01*
X224950216Y-83526087D01*
X224932775Y-83545033D01*
X224815195Y-83672759D01*
X224736713Y-83730027D01*
X224642289Y-83752902D01*
X224546299Y-83737902D01*
X224463356Y-83687310D01*
X224448805Y-83672759D01*
X224413091Y-83633963D01*
X224313784Y-83526087D01*
X224313779Y-83526083D01*
X224130628Y-83383531D01*
X223926512Y-83273068D01*
X223926507Y-83273066D01*
X223926503Y-83273064D01*
X223706981Y-83197702D01*
X223706978Y-83197701D01*
X223706974Y-83197700D01*
X223478049Y-83159500D01*
X223245951Y-83159500D01*
X223017025Y-83197700D01*
X223017019Y-83197701D01*
X223017019Y-83197702D01*
X222797497Y-83273064D01*
X222797494Y-83273065D01*
X222797487Y-83273068D01*
X222593371Y-83383531D01*
X222410220Y-83526083D01*
X222410217Y-83526086D01*
X222410216Y-83526087D01*
X222392775Y-83545033D01*
X222275195Y-83672759D01*
X222196713Y-83730027D01*
X222102289Y-83752902D01*
X222006299Y-83737902D01*
X221923356Y-83687310D01*
X221908805Y-83672759D01*
X221873091Y-83633963D01*
X221773784Y-83526087D01*
X221773779Y-83526083D01*
X221590628Y-83383531D01*
X221386512Y-83273068D01*
X221386507Y-83273066D01*
X221386503Y-83273064D01*
X221166981Y-83197702D01*
X221166978Y-83197701D01*
X221166974Y-83197700D01*
X220938049Y-83159500D01*
X220705951Y-83159500D01*
X220477025Y-83197700D01*
X220477019Y-83197701D01*
X220477019Y-83197702D01*
X220257497Y-83273064D01*
X220257494Y-83273065D01*
X220257487Y-83273068D01*
X220053371Y-83383531D01*
X219870220Y-83526083D01*
X219870217Y-83526086D01*
X219870216Y-83526087D01*
X219852775Y-83545033D01*
X219735195Y-83672759D01*
X219656713Y-83730027D01*
X219562289Y-83752902D01*
X219466299Y-83737902D01*
X219383356Y-83687310D01*
X219368805Y-83672759D01*
X219333091Y-83633963D01*
X219233784Y-83526087D01*
X219233779Y-83526083D01*
X219050628Y-83383531D01*
X218846512Y-83273068D01*
X218846507Y-83273066D01*
X218846503Y-83273064D01*
X218626981Y-83197702D01*
X218626978Y-83197701D01*
X218626974Y-83197700D01*
X218398049Y-83159500D01*
X218165951Y-83159500D01*
X217937025Y-83197700D01*
X217937019Y-83197701D01*
X217937019Y-83197702D01*
X217717497Y-83273064D01*
X217717494Y-83273065D01*
X217717487Y-83273068D01*
X217513371Y-83383531D01*
X217330220Y-83526083D01*
X217330217Y-83526086D01*
X217330216Y-83526087D01*
X217312775Y-83545033D01*
X217194854Y-83673129D01*
X217116372Y-83730397D01*
X217021948Y-83753272D01*
X216925958Y-83738272D01*
X216843015Y-83687680D01*
X216828464Y-83673128D01*
X216693451Y-83526464D01*
X216693439Y-83526454D01*
X216510350Y-83383949D01*
X216306299Y-83273522D01*
X216242000Y-83251448D01*
X216242000Y-84494174D01*
X216207925Y-84367007D01*
X216142099Y-84252993D01*
X216049007Y-84159901D01*
X215934993Y-84094075D01*
X215807826Y-84060000D01*
X215676174Y-84060000D01*
X215549007Y-84094075D01*
X215434993Y-84159901D01*
X215341901Y-84252993D01*
X215276075Y-84367007D01*
X215242000Y-84494174D01*
X215242000Y-83251448D01*
X215177700Y-83273522D01*
X215177699Y-83273522D01*
X214973649Y-83383949D01*
X214790560Y-83526454D01*
X214790554Y-83526459D01*
X214655535Y-83673129D01*
X214577053Y-83730397D01*
X214482629Y-83753272D01*
X214386639Y-83738272D01*
X214303696Y-83687680D01*
X214289145Y-83673128D01*
X214153785Y-83526088D01*
X214153779Y-83526083D01*
X213970628Y-83383531D01*
X213766512Y-83273068D01*
X213766507Y-83273066D01*
X213766503Y-83273064D01*
X213546981Y-83197702D01*
X213546978Y-83197701D01*
X213546974Y-83197700D01*
X213318049Y-83159500D01*
X213085951Y-83159500D01*
X212857025Y-83197700D01*
X212857019Y-83197701D01*
X212857019Y-83197702D01*
X212637497Y-83273064D01*
X212637494Y-83273065D01*
X212637487Y-83273068D01*
X212433371Y-83383531D01*
X212250220Y-83526083D01*
X212250214Y-83526088D01*
X212093022Y-83696844D01*
X212093019Y-83696848D01*
X211966074Y-83891153D01*
X211872842Y-84103702D01*
X211872841Y-84103706D01*
X211815868Y-84328684D01*
X211815866Y-84328691D01*
X211796700Y-84560000D01*
X193182774Y-84560000D01*
X193206091Y-84497483D01*
X193212500Y-84437873D01*
X193212499Y-82142128D01*
X193206091Y-82082517D01*
X193155796Y-81947669D01*
X193069546Y-81832454D01*
X192954331Y-81746204D01*
X192842026Y-81704317D01*
X192819481Y-81695908D01*
X192759873Y-81689500D01*
X190464134Y-81689500D01*
X190464130Y-81689500D01*
X190464128Y-81689501D01*
X190451314Y-81690878D01*
X190404519Y-81695908D01*
X190404515Y-81695909D01*
X190269670Y-81746203D01*
X190269669Y-81746204D01*
X190154456Y-81832453D01*
X190154449Y-81832458D01*
X190142109Y-81844798D01*
X190061327Y-81898773D01*
X189966038Y-81917725D01*
X189870750Y-81898769D01*
X189835940Y-81881032D01*
X189800858Y-81859533D01*
X189568116Y-81763129D01*
X189568108Y-81763126D01*
X189323145Y-81704316D01*
X189072005Y-81684551D01*
X189071995Y-81684551D01*
X188820854Y-81704316D01*
X188575891Y-81763126D01*
X188575883Y-81763129D01*
X188343141Y-81859533D01*
X188343135Y-81859537D01*
X188128347Y-81991158D01*
X188128345Y-81991160D01*
X187936779Y-82154773D01*
X187936773Y-82154779D01*
X187773160Y-82346345D01*
X187773158Y-82346347D01*
X187641537Y-82561135D01*
X187641533Y-82561141D01*
X187545129Y-82793883D01*
X187545126Y-82793891D01*
X187486316Y-83038854D01*
X187466551Y-83289994D01*
X156087468Y-83289994D01*
X156067636Y-83063320D01*
X156067635Y-83063308D01*
X156008739Y-82843504D01*
X155970270Y-82761008D01*
X155912571Y-82637272D01*
X155912563Y-82637258D01*
X155782050Y-82450865D01*
X155782049Y-82450864D01*
X155782047Y-82450861D01*
X155621139Y-82289953D01*
X155621135Y-82289950D01*
X155621134Y-82289949D01*
X155434741Y-82159436D01*
X155434727Y-82159428D01*
X155228499Y-82063262D01*
X155228496Y-82063261D01*
X155008694Y-82004365D01*
X155008679Y-82004363D01*
X154782006Y-81984532D01*
X154781994Y-81984532D01*
X154555320Y-82004363D01*
X154555305Y-82004365D01*
X154335503Y-82063261D01*
X154335500Y-82063262D01*
X154129272Y-82159428D01*
X154129258Y-82159436D01*
X153942865Y-82289949D01*
X153781949Y-82450865D01*
X153651436Y-82637258D01*
X153651428Y-82637272D01*
X153555262Y-82843500D01*
X153555261Y-82843503D01*
X153496365Y-83063305D01*
X153496363Y-83063320D01*
X153476532Y-83289994D01*
X123470912Y-83289994D01*
X123332152Y-83264565D01*
X123332155Y-83264565D01*
X123332143Y-83264564D01*
X123332142Y-83264564D01*
X123000000Y-83244473D01*
X122667858Y-83264564D01*
X122667855Y-83264564D01*
X122667846Y-83264565D01*
X122340567Y-83324542D01*
X122340557Y-83324544D01*
X122022871Y-83423539D01*
X121719445Y-83560100D01*
X121434681Y-83732246D01*
X121172754Y-83937452D01*
X120937452Y-84172754D01*
X120732246Y-84434681D01*
X120560100Y-84719445D01*
X120423539Y-85022871D01*
X120324544Y-85340557D01*
X120324542Y-85340567D01*
X120264565Y-85667846D01*
X120264564Y-85667855D01*
X120264564Y-85667858D01*
X120244473Y-86000000D01*
X114707812Y-86000000D01*
X119470303Y-81237510D01*
X119480422Y-81227945D01*
X119673804Y-81055139D01*
X119695623Y-81037741D01*
X119901428Y-80891722D01*
X119925056Y-80876875D01*
X120145934Y-80754803D01*
X120171058Y-80742706D01*
X120404199Y-80646137D01*
X120430541Y-80636920D01*
X120673021Y-80567063D01*
X120700229Y-80560851D01*
X120949023Y-80518577D01*
X120976749Y-80515454D01*
X121118819Y-80507473D01*
X121235983Y-80500892D01*
X121249948Y-80500500D01*
X239880326Y-80500500D01*
X239975614Y-80519454D01*
G37*
%TD.AperFunction*%
%TD*%
D25*
X236507626Y-90107196D02*
G75*
G02*
X236800012Y-90813783I-707626J-706604D01*
G01*
X233090251Y-87100000D02*
G75*
G02*
X233791964Y-87387492I49J-1000000D01*
G01*
X227900000Y-88100000D02*
G75*
G02*
X228900000Y-87100000I1000000J0D01*
G01*
X228900000Y-97500000D02*
G75*
G02*
X227900000Y-96500000I0J1000000D01*
G01*
X229500000Y-97500000D02*
G75*
G02*
X230500000Y-98500000I0J-1000000D01*
G01*
X231500000Y-102400000D02*
G75*
G02*
X230500000Y-101400000I0J1000000D01*
G01*
X236800000Y-101400000D02*
G75*
G02*
X235800000Y-102400000I-1000000J0D01*
G01*
X233090251Y-87100000D02*
X228900000Y-87100000D01*
X229500000Y-97500000D02*
X228900000Y-97500000D01*
X227900000Y-88100000D02*
X227900000Y-96500000D01*
X236507626Y-90107196D02*
X233791940Y-87387516D01*
X205500000Y-91000000D02*
G75*
G02*
X195500000Y-91000000I-5000000J0D01*
G01*
X195500000Y-91000000D02*
G75*
G02*
X205500000Y-91000000I5000000J0D01*
G01*
X139000000Y-105000000D02*
G75*
G02*
X129000000Y-105000000I-5000000J0D01*
G01*
X129000000Y-105000000D02*
G75*
G02*
X139000000Y-105000000I5000000J0D01*
G01*
X235837722Y-116000000D02*
G75*
G02*
X238683752Y-118051324I-22J-3000000D01*
G01*
X234162278Y-116000000D02*
X235837722Y-116000000D01*
X238683772Y-118051317D02*
X239316228Y-119948683D01*
X242162277Y-122000000D02*
X260000000Y-122000000D01*
X113000000Y-122000000D02*
G75*
G02*
X110000000Y-119000000I0J3000000D01*
G01*
X231316228Y-118051317D02*
G75*
G02*
X234162278Y-115999979I2846072J-948683D01*
G01*
X227837723Y-122000000D02*
X113000000Y-122000000D01*
X260000000Y-80000000D02*
X260000000Y-122000000D01*
X121242641Y-80000000D02*
X260000000Y-80000000D01*
X242162277Y-122000000D02*
G75*
G02*
X239316183Y-119948698I23J3000100D01*
G01*
X110000000Y-91242641D02*
G75*
G02*
X110878701Y-89121341I2999800J41D01*
G01*
X230683772Y-119948683D02*
X231316228Y-118051317D01*
X119121321Y-80878679D02*
G75*
G02*
X121242641Y-80000017I2121379J-2121521D01*
G01*
X110878680Y-89121320D02*
X119121321Y-80878679D01*
X230683772Y-119948683D02*
G75*
G02*
X227837723Y-122000021I-2846072J948683D01*
G01*
X110000000Y-119000000D02*
X110000000Y-91242641D01*
X230500000Y-98500000D02*
X230500000Y-101400000D01*
X235800000Y-102400000D02*
X231500000Y-102400000D01*
X236800000Y-90813783D02*
X236800000Y-101400000D01*
M02*
