%TF.GenerationSoftware,KiCad,Pcbnew,8.0.4*%
%TF.CreationDate,2024-09-21T18:09:02-04:00*%
%TF.ProjectId,cablight,6361626c-6967-4687-942e-6b696361645f,rev?*%
%TF.SameCoordinates,Original*%
%TF.FileFunction,Soldermask,Top*%
%TF.FilePolarity,Negative*%
%FSLAX46Y46*%
G04 Gerber Fmt 4.6, Leading zero omitted, Abs format (unit mm)*
G04 Created by KiCad (PCBNEW 8.0.4) date 2024-09-21 18:09:02*
%MOMM*%
%LPD*%
G01*
G04 APERTURE LIST*
G04 Aperture macros list*
%AMRoundRect*
0 Rectangle with rounded corners*
0 $1 Rounding radius*
0 $2 $3 $4 $5 $6 $7 $8 $9 X,Y pos of 4 corners*
0 Add a 4 corners polygon primitive as box body*
4,1,4,$2,$3,$4,$5,$6,$7,$8,$9,$2,$3,0*
0 Add four circle primitives for the rounded corners*
1,1,$1+$1,$2,$3*
1,1,$1+$1,$4,$5*
1,1,$1+$1,$6,$7*
1,1,$1+$1,$8,$9*
0 Add four rect primitives between the rounded corners*
20,1,$1+$1,$2,$3,$4,$5,0*
20,1,$1+$1,$4,$5,$6,$7,0*
20,1,$1+$1,$6,$7,$8,$9,0*
20,1,$1+$1,$8,$9,$2,$3,0*%
G04 Aperture macros list end*
%ADD10C,1.600000*%
%ADD11O,1.600000X1.600000*%
%ADD12C,1.901600*%
%ADD13C,11.000000*%
%ADD14C,3.000000*%
%ADD15RoundRect,1.500000X0.500000X-0.000010X0.500000X0.000010X-0.500000X0.000010X-0.500000X-0.000010X0*%
%ADD16R,1.600000X1.600000*%
%ADD17C,4.500000*%
%ADD18R,2.200000X2.200000*%
%ADD19O,2.200000X2.200000*%
%ADD20O,1.500000X3.000000*%
%ADD21C,2.000000*%
%ADD22R,2.000000X1.900000*%
%ADD23O,2.500000X1.900000*%
%ADD24C,0.200000*%
%ADD25C,0.100000*%
%ADD26C,0.150000*%
%ADD27C,0.120000*%
%ADD28C,0.050000*%
G04 APERTURE END LIST*
D10*
%TO.C,R1*%
X225902000Y-117580000D03*
D11*
X215742000Y-117580000D03*
%TD*%
D10*
%TO.C,R4*%
X179547000Y-95990000D03*
D11*
X189707000Y-95990000D03*
%TD*%
D12*
%TO.C,U1*%
X213202000Y-99800000D03*
X215742000Y-99800000D03*
X218282000Y-99800000D03*
X220822000Y-99800000D03*
X223362000Y-99800000D03*
X225902000Y-99800000D03*
X228442000Y-99800000D03*
X228442000Y-84560000D03*
X225902000Y-84560000D03*
X223362000Y-84560000D03*
X220822000Y-84560000D03*
X218282000Y-84560000D03*
X215742000Y-84560000D03*
X213202000Y-84560000D03*
%TD*%
D13*
%TO.C,*%
X136000000Y-104000000D03*
%TD*%
D14*
%TO.C,TP2*%
X132500000Y-91850000D03*
%TD*%
D15*
%TO.C,SW1*%
X203662000Y-118460000D03*
X203662000Y-106460000D03*
D10*
X196662000Y-114960000D03*
X196662000Y-109960000D03*
D16*
X210662000Y-114960000D03*
D10*
X210662000Y-109960000D03*
X210662000Y-112460000D03*
%TD*%
D17*
%TO.C,REF\u002A\u002A*%
X234982000Y-109000000D03*
%TD*%
%TO.C,REF\u002A\u002A*%
X115000000Y-117000000D03*
%TD*%
%TO.C,REF\u002A\u002A*%
X200500000Y-92500000D03*
%TD*%
D10*
%TO.C,R2*%
X225902000Y-112500000D03*
D11*
X215742000Y-112500000D03*
%TD*%
D10*
%TO.C,J3*%
X257700000Y-82420000D03*
X242300000Y-82420000D03*
X257700000Y-119695000D03*
X242300000Y-119720000D03*
X242412000Y-97260000D03*
X242412000Y-99800000D03*
X242412000Y-102340000D03*
X242412000Y-104880000D03*
%TD*%
D16*
%TO.C,Pololu_5V_1*%
X154782000Y-93450000D03*
D10*
X154782000Y-90910000D03*
X154782000Y-88370000D03*
X154782000Y-85830000D03*
X154782000Y-83290000D03*
%TD*%
D18*
%TO.C,D1*%
X191612000Y-83290000D03*
D19*
X189072000Y-83290000D03*
%TD*%
D14*
%TO.C,TP1*%
X116397000Y-92000000D03*
%TD*%
D20*
%TO.C,SW3*%
X180442000Y-85830000D03*
D21*
X171642000Y-85830000D03*
D20*
X168842000Y-85830000D03*
D21*
X174642000Y-85830000D03*
X177642000Y-85830000D03*
%TD*%
%TO.C,J1*%
X156052000Y-106150000D03*
X156052000Y-103610000D03*
%TD*%
D22*
%TO.C,Q1*%
X165577000Y-108690000D03*
D23*
X165577000Y-111230000D03*
X165577000Y-113770000D03*
%TD*%
D10*
%TO.C,R5*%
X175737000Y-95990000D03*
D11*
X165577000Y-95990000D03*
%TD*%
D17*
%TO.C,REF\u002A\u002A*%
X123000000Y-86000000D03*
%TD*%
D10*
%TO.C,R3*%
X225902000Y-107420000D03*
D11*
X215742000Y-107420000D03*
%TD*%
D21*
%TO.C,J2*%
X156052000Y-116310000D03*
X156052000Y-113770000D03*
%TD*%
D24*
X113226816Y-103047625D02*
X113226816Y-100047625D01*
X114417292Y-103047625D02*
X114417292Y-100047625D01*
X114417292Y-100047625D02*
X115845863Y-103047625D01*
X115845863Y-103047625D02*
X115845863Y-100047625D01*
X117036340Y-103047625D02*
X117036340Y-100047625D01*
X117036340Y-100047625D02*
X117988721Y-100047625D01*
X117988721Y-100047625D02*
X118226816Y-100190482D01*
X118226816Y-100190482D02*
X118345863Y-100333339D01*
X118345863Y-100333339D02*
X118464911Y-100619053D01*
X118464911Y-100619053D02*
X118464911Y-101047625D01*
X118464911Y-101047625D02*
X118345863Y-101333339D01*
X118345863Y-101333339D02*
X118226816Y-101476196D01*
X118226816Y-101476196D02*
X117988721Y-101619053D01*
X117988721Y-101619053D02*
X117036340Y-101619053D01*
X119536340Y-100047625D02*
X119536340Y-102476196D01*
X119536340Y-102476196D02*
X119655387Y-102761910D01*
X119655387Y-102761910D02*
X119774435Y-102904768D01*
X119774435Y-102904768D02*
X120012530Y-103047625D01*
X120012530Y-103047625D02*
X120488721Y-103047625D01*
X120488721Y-103047625D02*
X120726816Y-102904768D01*
X120726816Y-102904768D02*
X120845863Y-102761910D01*
X120845863Y-102761910D02*
X120964911Y-102476196D01*
X120964911Y-102476196D02*
X120964911Y-100047625D01*
X121798245Y-100047625D02*
X123226816Y-100047625D01*
X122512530Y-103047625D02*
X122512530Y-100047625D01*
X124060150Y-102761910D02*
X124179197Y-102904768D01*
X124179197Y-102904768D02*
X124060150Y-103047625D01*
X124060150Y-103047625D02*
X123941102Y-102904768D01*
X123941102Y-102904768D02*
X124060150Y-102761910D01*
X124060150Y-102761910D02*
X124060150Y-103047625D01*
X124060150Y-101190482D02*
X124179197Y-101333339D01*
X124179197Y-101333339D02*
X124060150Y-101476196D01*
X124060150Y-101476196D02*
X123941102Y-101333339D01*
X123941102Y-101333339D02*
X124060150Y-101190482D01*
X124060150Y-101190482D02*
X124060150Y-101476196D01*
X114417292Y-104877457D02*
X113226816Y-104877457D01*
X113226816Y-104877457D02*
X113107768Y-106306028D01*
X113107768Y-106306028D02*
X113226816Y-106163171D01*
X113226816Y-106163171D02*
X113464911Y-106020314D01*
X113464911Y-106020314D02*
X114060149Y-106020314D01*
X114060149Y-106020314D02*
X114298244Y-106163171D01*
X114298244Y-106163171D02*
X114417292Y-106306028D01*
X114417292Y-106306028D02*
X114536339Y-106591742D01*
X114536339Y-106591742D02*
X114536339Y-107306028D01*
X114536339Y-107306028D02*
X114417292Y-107591742D01*
X114417292Y-107591742D02*
X114298244Y-107734600D01*
X114298244Y-107734600D02*
X114060149Y-107877457D01*
X114060149Y-107877457D02*
X113464911Y-107877457D01*
X113464911Y-107877457D02*
X113226816Y-107734600D01*
X113226816Y-107734600D02*
X113107768Y-107591742D01*
X115607768Y-107591742D02*
X115726815Y-107734600D01*
X115726815Y-107734600D02*
X115607768Y-107877457D01*
X115607768Y-107877457D02*
X115488720Y-107734600D01*
X115488720Y-107734600D02*
X115607768Y-107591742D01*
X115607768Y-107591742D02*
X115607768Y-107877457D01*
X118107767Y-107877457D02*
X116679196Y-107877457D01*
X117393482Y-107877457D02*
X117393482Y-104877457D01*
X117393482Y-104877457D02*
X117155386Y-105306028D01*
X117155386Y-105306028D02*
X116917291Y-105591742D01*
X116917291Y-105591742D02*
X116679196Y-105734600D01*
X119179196Y-106734600D02*
X121083958Y-106734600D01*
X122036338Y-104877457D02*
X123583957Y-104877457D01*
X123583957Y-104877457D02*
X122750624Y-106020314D01*
X122750624Y-106020314D02*
X123107767Y-106020314D01*
X123107767Y-106020314D02*
X123345862Y-106163171D01*
X123345862Y-106163171D02*
X123464910Y-106306028D01*
X123464910Y-106306028D02*
X123583957Y-106591742D01*
X123583957Y-106591742D02*
X123583957Y-107306028D01*
X123583957Y-107306028D02*
X123464910Y-107591742D01*
X123464910Y-107591742D02*
X123345862Y-107734600D01*
X123345862Y-107734600D02*
X123107767Y-107877457D01*
X123107767Y-107877457D02*
X122393481Y-107877457D01*
X122393481Y-107877457D02*
X122155386Y-107734600D01*
X122155386Y-107734600D02*
X122036338Y-107591742D01*
X125726814Y-104877457D02*
X125250624Y-104877457D01*
X125250624Y-104877457D02*
X125012528Y-105020314D01*
X125012528Y-105020314D02*
X124893481Y-105163171D01*
X124893481Y-105163171D02*
X124655386Y-105591742D01*
X124655386Y-105591742D02*
X124536338Y-106163171D01*
X124536338Y-106163171D02*
X124536338Y-107306028D01*
X124536338Y-107306028D02*
X124655386Y-107591742D01*
X124655386Y-107591742D02*
X124774433Y-107734600D01*
X124774433Y-107734600D02*
X125012528Y-107877457D01*
X125012528Y-107877457D02*
X125488719Y-107877457D01*
X125488719Y-107877457D02*
X125726814Y-107734600D01*
X125726814Y-107734600D02*
X125845862Y-107591742D01*
X125845862Y-107591742D02*
X125964909Y-107306028D01*
X125964909Y-107306028D02*
X125964909Y-106591742D01*
X125964909Y-106591742D02*
X125845862Y-106306028D01*
X125845862Y-106306028D02*
X125726814Y-106163171D01*
X125726814Y-106163171D02*
X125488719Y-106020314D01*
X125488719Y-106020314D02*
X125012528Y-106020314D01*
X125012528Y-106020314D02*
X124774433Y-106163171D01*
X124774433Y-106163171D02*
X124655386Y-106306028D01*
X124655386Y-106306028D02*
X124536338Y-106591742D01*
X126679195Y-104877457D02*
X127512528Y-107877457D01*
X127512528Y-107877457D02*
X128345861Y-104877457D01*
X113226816Y-112707289D02*
X113226816Y-109707289D01*
X113226816Y-109707289D02*
X114060149Y-111850146D01*
X114060149Y-111850146D02*
X114893482Y-109707289D01*
X114893482Y-109707289D02*
X114893482Y-112707289D01*
X116083959Y-112707289D02*
X116083959Y-109707289D01*
X117274435Y-112707289D02*
X117274435Y-109707289D01*
X117274435Y-109707289D02*
X118703006Y-112707289D01*
X118703006Y-112707289D02*
X118703006Y-109707289D01*
X122988721Y-109707289D02*
X121798245Y-109707289D01*
X121798245Y-109707289D02*
X121679197Y-111135860D01*
X121679197Y-111135860D02*
X121798245Y-110993003D01*
X121798245Y-110993003D02*
X122036340Y-110850146D01*
X122036340Y-110850146D02*
X122631578Y-110850146D01*
X122631578Y-110850146D02*
X122869673Y-110993003D01*
X122869673Y-110993003D02*
X122988721Y-111135860D01*
X122988721Y-111135860D02*
X123107768Y-111421574D01*
X123107768Y-111421574D02*
X123107768Y-112135860D01*
X123107768Y-112135860D02*
X122988721Y-112421574D01*
X122988721Y-112421574D02*
X122869673Y-112564432D01*
X122869673Y-112564432D02*
X122631578Y-112707289D01*
X122631578Y-112707289D02*
X122036340Y-112707289D01*
X122036340Y-112707289D02*
X121798245Y-112564432D01*
X121798245Y-112564432D02*
X121679197Y-112421574D01*
X124655387Y-109707289D02*
X124893482Y-109707289D01*
X124893482Y-109707289D02*
X125131578Y-109850146D01*
X125131578Y-109850146D02*
X125250625Y-109993003D01*
X125250625Y-109993003D02*
X125369673Y-110278717D01*
X125369673Y-110278717D02*
X125488720Y-110850146D01*
X125488720Y-110850146D02*
X125488720Y-111564432D01*
X125488720Y-111564432D02*
X125369673Y-112135860D01*
X125369673Y-112135860D02*
X125250625Y-112421574D01*
X125250625Y-112421574D02*
X125131578Y-112564432D01*
X125131578Y-112564432D02*
X124893482Y-112707289D01*
X124893482Y-112707289D02*
X124655387Y-112707289D01*
X124655387Y-112707289D02*
X124417292Y-112564432D01*
X124417292Y-112564432D02*
X124298244Y-112421574D01*
X124298244Y-112421574D02*
X124179197Y-112135860D01*
X124179197Y-112135860D02*
X124060149Y-111564432D01*
X124060149Y-111564432D02*
X124060149Y-110850146D01*
X124060149Y-110850146D02*
X124179197Y-110278717D01*
X124179197Y-110278717D02*
X124298244Y-109993003D01*
X124298244Y-109993003D02*
X124417292Y-109850146D01*
X124417292Y-109850146D02*
X124655387Y-109707289D01*
X127036339Y-109707289D02*
X127274434Y-109707289D01*
X127274434Y-109707289D02*
X127512530Y-109850146D01*
X127512530Y-109850146D02*
X127631577Y-109993003D01*
X127631577Y-109993003D02*
X127750625Y-110278717D01*
X127750625Y-110278717D02*
X127869672Y-110850146D01*
X127869672Y-110850146D02*
X127869672Y-111564432D01*
X127869672Y-111564432D02*
X127750625Y-112135860D01*
X127750625Y-112135860D02*
X127631577Y-112421574D01*
X127631577Y-112421574D02*
X127512530Y-112564432D01*
X127512530Y-112564432D02*
X127274434Y-112707289D01*
X127274434Y-112707289D02*
X127036339Y-112707289D01*
X127036339Y-112707289D02*
X126798244Y-112564432D01*
X126798244Y-112564432D02*
X126679196Y-112421574D01*
X126679196Y-112421574D02*
X126560149Y-112135860D01*
X126560149Y-112135860D02*
X126441101Y-111564432D01*
X126441101Y-111564432D02*
X126441101Y-110850146D01*
X126441101Y-110850146D02*
X126560149Y-110278717D01*
X126560149Y-110278717D02*
X126679196Y-109993003D01*
X126679196Y-109993003D02*
X126798244Y-109850146D01*
X126798244Y-109850146D02*
X127036339Y-109707289D01*
X128941101Y-112707289D02*
X128941101Y-110707289D01*
X128941101Y-110993003D02*
X129060148Y-110850146D01*
X129060148Y-110850146D02*
X129298243Y-110707289D01*
X129298243Y-110707289D02*
X129655386Y-110707289D01*
X129655386Y-110707289D02*
X129893482Y-110850146D01*
X129893482Y-110850146D02*
X130012529Y-111135860D01*
X130012529Y-111135860D02*
X130012529Y-112707289D01*
X130012529Y-111135860D02*
X130131577Y-110850146D01*
X130131577Y-110850146D02*
X130369672Y-110707289D01*
X130369672Y-110707289D02*
X130726815Y-110707289D01*
X130726815Y-110707289D02*
X130964910Y-110850146D01*
X130964910Y-110850146D02*
X131083958Y-111135860D01*
X131083958Y-111135860D02*
X131083958Y-112707289D01*
X132155386Y-111850146D02*
X133345862Y-111850146D01*
X131917291Y-112707289D02*
X132750624Y-109707289D01*
X132750624Y-109707289D02*
X133583957Y-112707289D01*
X144377563Y-105563528D02*
X144377563Y-104063528D01*
X145091849Y-105563528D02*
X145091849Y-104063528D01*
X145091849Y-104063528D02*
X145948992Y-105563528D01*
X145948992Y-105563528D02*
X145948992Y-104063528D01*
X146663278Y-105563528D02*
X146663278Y-104063528D01*
X146663278Y-104063528D02*
X147234707Y-104063528D01*
X147234707Y-104063528D02*
X147377564Y-104134957D01*
X147377564Y-104134957D02*
X147448993Y-104206385D01*
X147448993Y-104206385D02*
X147520421Y-104349242D01*
X147520421Y-104349242D02*
X147520421Y-104563528D01*
X147520421Y-104563528D02*
X147448993Y-104706385D01*
X147448993Y-104706385D02*
X147377564Y-104777814D01*
X147377564Y-104777814D02*
X147234707Y-104849242D01*
X147234707Y-104849242D02*
X146663278Y-104849242D01*
X148163278Y-104063528D02*
X148163278Y-105277814D01*
X148163278Y-105277814D02*
X148234707Y-105420671D01*
X148234707Y-105420671D02*
X148306136Y-105492100D01*
X148306136Y-105492100D02*
X148448993Y-105563528D01*
X148448993Y-105563528D02*
X148734707Y-105563528D01*
X148734707Y-105563528D02*
X148877564Y-105492100D01*
X148877564Y-105492100D02*
X148948993Y-105420671D01*
X148948993Y-105420671D02*
X149020421Y-105277814D01*
X149020421Y-105277814D02*
X149020421Y-104063528D01*
X149520422Y-104063528D02*
X150377565Y-104063528D01*
X149948993Y-105563528D02*
X149948993Y-104063528D01*
D25*
X216095238Y-92226760D02*
X216571428Y-92226760D01*
X216000000Y-92512475D02*
X216333333Y-91512475D01*
X216333333Y-91512475D02*
X216666666Y-92512475D01*
X217000000Y-92512475D02*
X217000000Y-91512475D01*
X217000000Y-91512475D02*
X217238095Y-91512475D01*
X217238095Y-91512475D02*
X217380952Y-91560094D01*
X217380952Y-91560094D02*
X217476190Y-91655332D01*
X217476190Y-91655332D02*
X217523809Y-91750570D01*
X217523809Y-91750570D02*
X217571428Y-91941046D01*
X217571428Y-91941046D02*
X217571428Y-92083903D01*
X217571428Y-92083903D02*
X217523809Y-92274379D01*
X217523809Y-92274379D02*
X217476190Y-92369617D01*
X217476190Y-92369617D02*
X217380952Y-92464856D01*
X217380952Y-92464856D02*
X217238095Y-92512475D01*
X217238095Y-92512475D02*
X217000000Y-92512475D01*
X217952381Y-92226760D02*
X218428571Y-92226760D01*
X217857143Y-92512475D02*
X218190476Y-91512475D01*
X218190476Y-91512475D02*
X218523809Y-92512475D01*
X219190476Y-91988665D02*
X218857143Y-91988665D01*
X218857143Y-92512475D02*
X218857143Y-91512475D01*
X218857143Y-91512475D02*
X219333333Y-91512475D01*
X220285714Y-92512475D02*
X219952381Y-92036284D01*
X219714286Y-92512475D02*
X219714286Y-91512475D01*
X219714286Y-91512475D02*
X220095238Y-91512475D01*
X220095238Y-91512475D02*
X220190476Y-91560094D01*
X220190476Y-91560094D02*
X220238095Y-91607713D01*
X220238095Y-91607713D02*
X220285714Y-91702951D01*
X220285714Y-91702951D02*
X220285714Y-91845808D01*
X220285714Y-91845808D02*
X220238095Y-91941046D01*
X220238095Y-91941046D02*
X220190476Y-91988665D01*
X220190476Y-91988665D02*
X220095238Y-92036284D01*
X220095238Y-92036284D02*
X219714286Y-92036284D01*
X220714286Y-91512475D02*
X220714286Y-92321998D01*
X220714286Y-92321998D02*
X220761905Y-92417236D01*
X220761905Y-92417236D02*
X220809524Y-92464856D01*
X220809524Y-92464856D02*
X220904762Y-92512475D01*
X220904762Y-92512475D02*
X221095238Y-92512475D01*
X221095238Y-92512475D02*
X221190476Y-92464856D01*
X221190476Y-92464856D02*
X221238095Y-92417236D01*
X221238095Y-92417236D02*
X221285714Y-92321998D01*
X221285714Y-92321998D02*
X221285714Y-91512475D01*
X221761905Y-92512475D02*
X221761905Y-91512475D01*
X222095238Y-91512475D02*
X222666666Y-91512475D01*
X222380952Y-92512475D02*
X222380952Y-91512475D01*
X224428571Y-92607713D02*
X224333333Y-92560094D01*
X224333333Y-92560094D02*
X224238095Y-92464856D01*
X224238095Y-92464856D02*
X224095238Y-92321998D01*
X224095238Y-92321998D02*
X224000000Y-92274379D01*
X224000000Y-92274379D02*
X223904762Y-92274379D01*
X223952381Y-92512475D02*
X223857143Y-92464856D01*
X223857143Y-92464856D02*
X223761905Y-92369617D01*
X223761905Y-92369617D02*
X223714286Y-92179141D01*
X223714286Y-92179141D02*
X223714286Y-91845808D01*
X223714286Y-91845808D02*
X223761905Y-91655332D01*
X223761905Y-91655332D02*
X223857143Y-91560094D01*
X223857143Y-91560094D02*
X223952381Y-91512475D01*
X223952381Y-91512475D02*
X224142857Y-91512475D01*
X224142857Y-91512475D02*
X224238095Y-91560094D01*
X224238095Y-91560094D02*
X224333333Y-91655332D01*
X224333333Y-91655332D02*
X224380952Y-91845808D01*
X224380952Y-91845808D02*
X224380952Y-92179141D01*
X224380952Y-92179141D02*
X224333333Y-92369617D01*
X224333333Y-92369617D02*
X224238095Y-92464856D01*
X224238095Y-92464856D02*
X224142857Y-92512475D01*
X224142857Y-92512475D02*
X223952381Y-92512475D01*
X224666667Y-91512475D02*
X225238095Y-91512475D01*
X224952381Y-92512475D02*
X224952381Y-91512475D01*
X225571429Y-92512475D02*
X225571429Y-91512475D01*
X225571429Y-91512475D02*
X225952381Y-91512475D01*
X225952381Y-91512475D02*
X226047619Y-91560094D01*
X226047619Y-91560094D02*
X226095238Y-91607713D01*
X226095238Y-91607713D02*
X226142857Y-91702951D01*
X226142857Y-91702951D02*
X226142857Y-91845808D01*
X226142857Y-91845808D02*
X226095238Y-91941046D01*
X226095238Y-91941046D02*
X226047619Y-91988665D01*
X226047619Y-91988665D02*
X225952381Y-92036284D01*
X225952381Y-92036284D02*
X225571429Y-92036284D01*
X226476191Y-91845808D02*
X226714286Y-92512475D01*
X226952381Y-91845808D02*
X226714286Y-92512475D01*
X226714286Y-92512475D02*
X226619048Y-92750570D01*
X226619048Y-92750570D02*
X226571429Y-92798189D01*
X226571429Y-92798189D02*
X226476191Y-92845808D01*
X217785714Y-93598609D02*
X218119047Y-93598609D01*
X218261904Y-94122419D02*
X217785714Y-94122419D01*
X217785714Y-94122419D02*
X217785714Y-93122419D01*
X217785714Y-93122419D02*
X218261904Y-93122419D01*
X218642857Y-94074800D02*
X218785714Y-94122419D01*
X218785714Y-94122419D02*
X219023809Y-94122419D01*
X219023809Y-94122419D02*
X219119047Y-94074800D01*
X219119047Y-94074800D02*
X219166666Y-94027180D01*
X219166666Y-94027180D02*
X219214285Y-93931942D01*
X219214285Y-93931942D02*
X219214285Y-93836704D01*
X219214285Y-93836704D02*
X219166666Y-93741466D01*
X219166666Y-93741466D02*
X219119047Y-93693847D01*
X219119047Y-93693847D02*
X219023809Y-93646228D01*
X219023809Y-93646228D02*
X218833333Y-93598609D01*
X218833333Y-93598609D02*
X218738095Y-93550990D01*
X218738095Y-93550990D02*
X218690476Y-93503371D01*
X218690476Y-93503371D02*
X218642857Y-93408133D01*
X218642857Y-93408133D02*
X218642857Y-93312895D01*
X218642857Y-93312895D02*
X218690476Y-93217657D01*
X218690476Y-93217657D02*
X218738095Y-93170038D01*
X218738095Y-93170038D02*
X218833333Y-93122419D01*
X218833333Y-93122419D02*
X219071428Y-93122419D01*
X219071428Y-93122419D02*
X219214285Y-93170038D01*
X219642857Y-94122419D02*
X219642857Y-93122419D01*
X219642857Y-93122419D02*
X220023809Y-93122419D01*
X220023809Y-93122419D02*
X220119047Y-93170038D01*
X220119047Y-93170038D02*
X220166666Y-93217657D01*
X220166666Y-93217657D02*
X220214285Y-93312895D01*
X220214285Y-93312895D02*
X220214285Y-93455752D01*
X220214285Y-93455752D02*
X220166666Y-93550990D01*
X220166666Y-93550990D02*
X220119047Y-93598609D01*
X220119047Y-93598609D02*
X220023809Y-93646228D01*
X220023809Y-93646228D02*
X219642857Y-93646228D01*
X220547619Y-93122419D02*
X221166666Y-93122419D01*
X221166666Y-93122419D02*
X220833333Y-93503371D01*
X220833333Y-93503371D02*
X220976190Y-93503371D01*
X220976190Y-93503371D02*
X221071428Y-93550990D01*
X221071428Y-93550990D02*
X221119047Y-93598609D01*
X221119047Y-93598609D02*
X221166666Y-93693847D01*
X221166666Y-93693847D02*
X221166666Y-93931942D01*
X221166666Y-93931942D02*
X221119047Y-94027180D01*
X221119047Y-94027180D02*
X221071428Y-94074800D01*
X221071428Y-94074800D02*
X220976190Y-94122419D01*
X220976190Y-94122419D02*
X220690476Y-94122419D01*
X220690476Y-94122419D02*
X220595238Y-94074800D01*
X220595238Y-94074800D02*
X220547619Y-94027180D01*
X221547619Y-93217657D02*
X221595238Y-93170038D01*
X221595238Y-93170038D02*
X221690476Y-93122419D01*
X221690476Y-93122419D02*
X221928571Y-93122419D01*
X221928571Y-93122419D02*
X222023809Y-93170038D01*
X222023809Y-93170038D02*
X222071428Y-93217657D01*
X222071428Y-93217657D02*
X222119047Y-93312895D01*
X222119047Y-93312895D02*
X222119047Y-93408133D01*
X222119047Y-93408133D02*
X222071428Y-93550990D01*
X222071428Y-93550990D02*
X221500000Y-94122419D01*
X221500000Y-94122419D02*
X222119047Y-94122419D01*
X222547619Y-93741466D02*
X223309524Y-93741466D01*
X223738095Y-94074800D02*
X223880952Y-94122419D01*
X223880952Y-94122419D02*
X224119047Y-94122419D01*
X224119047Y-94122419D02*
X224214285Y-94074800D01*
X224214285Y-94074800D02*
X224261904Y-94027180D01*
X224261904Y-94027180D02*
X224309523Y-93931942D01*
X224309523Y-93931942D02*
X224309523Y-93836704D01*
X224309523Y-93836704D02*
X224261904Y-93741466D01*
X224261904Y-93741466D02*
X224214285Y-93693847D01*
X224214285Y-93693847D02*
X224119047Y-93646228D01*
X224119047Y-93646228D02*
X223928571Y-93598609D01*
X223928571Y-93598609D02*
X223833333Y-93550990D01*
X223833333Y-93550990D02*
X223785714Y-93503371D01*
X223785714Y-93503371D02*
X223738095Y-93408133D01*
X223738095Y-93408133D02*
X223738095Y-93312895D01*
X223738095Y-93312895D02*
X223785714Y-93217657D01*
X223785714Y-93217657D02*
X223833333Y-93170038D01*
X223833333Y-93170038D02*
X223928571Y-93122419D01*
X223928571Y-93122419D02*
X224166666Y-93122419D01*
X224166666Y-93122419D02*
X224309523Y-93170038D01*
X224642857Y-93122419D02*
X225261904Y-93122419D01*
X225261904Y-93122419D02*
X224928571Y-93503371D01*
X224928571Y-93503371D02*
X225071428Y-93503371D01*
X225071428Y-93503371D02*
X225166666Y-93550990D01*
X225166666Y-93550990D02*
X225214285Y-93598609D01*
X225214285Y-93598609D02*
X225261904Y-93693847D01*
X225261904Y-93693847D02*
X225261904Y-93931942D01*
X225261904Y-93931942D02*
X225214285Y-94027180D01*
X225214285Y-94027180D02*
X225166666Y-94074800D01*
X225166666Y-94074800D02*
X225071428Y-94122419D01*
X225071428Y-94122419D02*
X224785714Y-94122419D01*
X224785714Y-94122419D02*
X224690476Y-94074800D01*
X224690476Y-94074800D02*
X224642857Y-94027180D01*
D24*
X142663278Y-112976070D02*
X142948992Y-112976070D01*
X142948992Y-112976070D02*
X143091849Y-113047499D01*
X143091849Y-113047499D02*
X143234706Y-113190356D01*
X143234706Y-113190356D02*
X143306135Y-113476070D01*
X143306135Y-113476070D02*
X143306135Y-113976070D01*
X143306135Y-113976070D02*
X143234706Y-114261784D01*
X143234706Y-114261784D02*
X143091849Y-114404642D01*
X143091849Y-114404642D02*
X142948992Y-114476070D01*
X142948992Y-114476070D02*
X142663278Y-114476070D01*
X142663278Y-114476070D02*
X142520421Y-114404642D01*
X142520421Y-114404642D02*
X142377563Y-114261784D01*
X142377563Y-114261784D02*
X142306135Y-113976070D01*
X142306135Y-113976070D02*
X142306135Y-113476070D01*
X142306135Y-113476070D02*
X142377563Y-113190356D01*
X142377563Y-113190356D02*
X142520421Y-113047499D01*
X142520421Y-113047499D02*
X142663278Y-112976070D01*
X143948992Y-112976070D02*
X143948992Y-114190356D01*
X143948992Y-114190356D02*
X144020421Y-114333213D01*
X144020421Y-114333213D02*
X144091850Y-114404642D01*
X144091850Y-114404642D02*
X144234707Y-114476070D01*
X144234707Y-114476070D02*
X144520421Y-114476070D01*
X144520421Y-114476070D02*
X144663278Y-114404642D01*
X144663278Y-114404642D02*
X144734707Y-114333213D01*
X144734707Y-114333213D02*
X144806135Y-114190356D01*
X144806135Y-114190356D02*
X144806135Y-112976070D01*
X145306136Y-112976070D02*
X146163279Y-112976070D01*
X145734707Y-114476070D02*
X145734707Y-112976070D01*
X146663278Y-114476070D02*
X146663278Y-112976070D01*
X146663278Y-112976070D02*
X147234707Y-112976070D01*
X147234707Y-112976070D02*
X147377564Y-113047499D01*
X147377564Y-113047499D02*
X147448993Y-113118927D01*
X147448993Y-113118927D02*
X147520421Y-113261784D01*
X147520421Y-113261784D02*
X147520421Y-113476070D01*
X147520421Y-113476070D02*
X147448993Y-113618927D01*
X147448993Y-113618927D02*
X147377564Y-113690356D01*
X147377564Y-113690356D02*
X147234707Y-113761784D01*
X147234707Y-113761784D02*
X146663278Y-113761784D01*
X148163278Y-112976070D02*
X148163278Y-114190356D01*
X148163278Y-114190356D02*
X148234707Y-114333213D01*
X148234707Y-114333213D02*
X148306136Y-114404642D01*
X148306136Y-114404642D02*
X148448993Y-114476070D01*
X148448993Y-114476070D02*
X148734707Y-114476070D01*
X148734707Y-114476070D02*
X148877564Y-114404642D01*
X148877564Y-114404642D02*
X148948993Y-114333213D01*
X148948993Y-114333213D02*
X149020421Y-114190356D01*
X149020421Y-114190356D02*
X149020421Y-112976070D01*
X149520422Y-112976070D02*
X150377565Y-112976070D01*
X149948993Y-114476070D02*
X149948993Y-112976070D01*
X143306137Y-115390986D02*
X142591851Y-115390986D01*
X142591851Y-115390986D02*
X142520423Y-116105272D01*
X142520423Y-116105272D02*
X142591851Y-116033843D01*
X142591851Y-116033843D02*
X142734709Y-115962415D01*
X142734709Y-115962415D02*
X143091851Y-115962415D01*
X143091851Y-115962415D02*
X143234709Y-116033843D01*
X143234709Y-116033843D02*
X143306137Y-116105272D01*
X143306137Y-116105272D02*
X143377566Y-116248129D01*
X143377566Y-116248129D02*
X143377566Y-116605272D01*
X143377566Y-116605272D02*
X143306137Y-116748129D01*
X143306137Y-116748129D02*
X143234709Y-116819558D01*
X143234709Y-116819558D02*
X143091851Y-116890986D01*
X143091851Y-116890986D02*
X142734709Y-116890986D01*
X142734709Y-116890986D02*
X142591851Y-116819558D01*
X142591851Y-116819558D02*
X142520423Y-116748129D01*
X143948994Y-116462415D02*
X144663280Y-116462415D01*
X143806137Y-116890986D02*
X144306137Y-115390986D01*
X144306137Y-115390986D02*
X144806137Y-116890986D01*
X146448993Y-116890986D02*
X146448993Y-115390986D01*
X146448993Y-115390986D02*
X146948993Y-116462415D01*
X146948993Y-116462415D02*
X147448993Y-115390986D01*
X147448993Y-115390986D02*
X147448993Y-116890986D01*
X148091851Y-116462415D02*
X148806137Y-116462415D01*
X147948994Y-116890986D02*
X148448994Y-115390986D01*
X148448994Y-115390986D02*
X148948994Y-116890986D01*
X149306136Y-115390986D02*
X150306136Y-116890986D01*
X150306136Y-115390986D02*
X149306136Y-116890986D01*
X161620720Y-113882100D02*
X162763578Y-113882100D01*
X162192149Y-114453528D02*
X162192149Y-113310671D01*
X163263578Y-112953528D02*
X163763578Y-114453528D01*
X163763578Y-114453528D02*
X164263578Y-112953528D01*
X162049292Y-104864957D02*
X161977863Y-104793528D01*
X161977863Y-104793528D02*
X161835006Y-104579242D01*
X161835006Y-104579242D02*
X161763578Y-104436385D01*
X161763578Y-104436385D02*
X161692149Y-104222100D01*
X161692149Y-104222100D02*
X161620720Y-103864957D01*
X161620720Y-103864957D02*
X161620720Y-103579242D01*
X161620720Y-103579242D02*
X161692149Y-103222100D01*
X161692149Y-103222100D02*
X161763578Y-103007814D01*
X161763578Y-103007814D02*
X161835006Y-102864957D01*
X161835006Y-102864957D02*
X161977863Y-102650671D01*
X161977863Y-102650671D02*
X162049292Y-102579242D01*
X162620720Y-103722100D02*
X163763578Y-103722100D01*
X164335006Y-104864957D02*
X164406435Y-104793528D01*
X164406435Y-104793528D02*
X164549292Y-104579242D01*
X164549292Y-104579242D02*
X164620721Y-104436385D01*
X164620721Y-104436385D02*
X164692149Y-104222100D01*
X164692149Y-104222100D02*
X164763578Y-103864957D01*
X164763578Y-103864957D02*
X164763578Y-103579242D01*
X164763578Y-103579242D02*
X164692149Y-103222100D01*
X164692149Y-103222100D02*
X164620721Y-103007814D01*
X164620721Y-103007814D02*
X164549292Y-102864957D01*
X164549292Y-102864957D02*
X164406435Y-102650671D01*
X164406435Y-102650671D02*
X164335006Y-102579242D01*
X161620720Y-106262100D02*
X162763578Y-106262100D01*
X162192149Y-106833528D02*
X162192149Y-105690671D01*
X163263578Y-105333528D02*
X163763578Y-106833528D01*
X163763578Y-106833528D02*
X164263578Y-105333528D01*
X162049292Y-117564957D02*
X161977863Y-117493528D01*
X161977863Y-117493528D02*
X161835006Y-117279242D01*
X161835006Y-117279242D02*
X161763578Y-117136385D01*
X161763578Y-117136385D02*
X161692149Y-116922100D01*
X161692149Y-116922100D02*
X161620720Y-116564957D01*
X161620720Y-116564957D02*
X161620720Y-116279242D01*
X161620720Y-116279242D02*
X161692149Y-115922100D01*
X161692149Y-115922100D02*
X161763578Y-115707814D01*
X161763578Y-115707814D02*
X161835006Y-115564957D01*
X161835006Y-115564957D02*
X161977863Y-115350671D01*
X161977863Y-115350671D02*
X162049292Y-115279242D01*
X162620720Y-116422100D02*
X163763578Y-116422100D01*
X164335006Y-117564957D02*
X164406435Y-117493528D01*
X164406435Y-117493528D02*
X164549292Y-117279242D01*
X164549292Y-117279242D02*
X164620721Y-117136385D01*
X164620721Y-117136385D02*
X164692149Y-116922100D01*
X164692149Y-116922100D02*
X164763578Y-116564957D01*
X164763578Y-116564957D02*
X164763578Y-116279242D01*
X164763578Y-116279242D02*
X164692149Y-115922100D01*
X164692149Y-115922100D02*
X164620721Y-115707814D01*
X164620721Y-115707814D02*
X164549292Y-115564957D01*
X164549292Y-115564957D02*
X164406435Y-115350671D01*
X164406435Y-115350671D02*
X164335006Y-115279242D01*
D26*
X215615333Y-115704819D02*
X215282000Y-115228628D01*
X215043905Y-115704819D02*
X215043905Y-114704819D01*
X215043905Y-114704819D02*
X215424857Y-114704819D01*
X215424857Y-114704819D02*
X215520095Y-114752438D01*
X215520095Y-114752438D02*
X215567714Y-114800057D01*
X215567714Y-114800057D02*
X215615333Y-114895295D01*
X215615333Y-114895295D02*
X215615333Y-115038152D01*
X215615333Y-115038152D02*
X215567714Y-115133390D01*
X215567714Y-115133390D02*
X215520095Y-115181009D01*
X215520095Y-115181009D02*
X215424857Y-115228628D01*
X215424857Y-115228628D02*
X215043905Y-115228628D01*
X216567714Y-115704819D02*
X215996286Y-115704819D01*
X216282000Y-115704819D02*
X216282000Y-114704819D01*
X216282000Y-114704819D02*
X216186762Y-114847676D01*
X216186762Y-114847676D02*
X216091524Y-114942914D01*
X216091524Y-114942914D02*
X215996286Y-114990533D01*
X219591523Y-115664819D02*
X219020095Y-115664819D01*
X219305809Y-115664819D02*
X219305809Y-114664819D01*
X219305809Y-114664819D02*
X219210571Y-114807676D01*
X219210571Y-114807676D02*
X219115333Y-114902914D01*
X219115333Y-114902914D02*
X219020095Y-114950533D01*
X220210571Y-114664819D02*
X220305809Y-114664819D01*
X220305809Y-114664819D02*
X220401047Y-114712438D01*
X220401047Y-114712438D02*
X220448666Y-114760057D01*
X220448666Y-114760057D02*
X220496285Y-114855295D01*
X220496285Y-114855295D02*
X220543904Y-115045771D01*
X220543904Y-115045771D02*
X220543904Y-115283866D01*
X220543904Y-115283866D02*
X220496285Y-115474342D01*
X220496285Y-115474342D02*
X220448666Y-115569580D01*
X220448666Y-115569580D02*
X220401047Y-115617200D01*
X220401047Y-115617200D02*
X220305809Y-115664819D01*
X220305809Y-115664819D02*
X220210571Y-115664819D01*
X220210571Y-115664819D02*
X220115333Y-115617200D01*
X220115333Y-115617200D02*
X220067714Y-115569580D01*
X220067714Y-115569580D02*
X220020095Y-115474342D01*
X220020095Y-115474342D02*
X219972476Y-115283866D01*
X219972476Y-115283866D02*
X219972476Y-115045771D01*
X219972476Y-115045771D02*
X220020095Y-114855295D01*
X220020095Y-114855295D02*
X220067714Y-114760057D01*
X220067714Y-114760057D02*
X220115333Y-114712438D01*
X220115333Y-114712438D02*
X220210571Y-114664819D01*
X220972476Y-115664819D02*
X220972476Y-114664819D01*
X221543904Y-115664819D02*
X221115333Y-115093390D01*
X221543904Y-114664819D02*
X220972476Y-115236247D01*
X184460333Y-93704819D02*
X184127000Y-93228628D01*
X183888905Y-93704819D02*
X183888905Y-92704819D01*
X183888905Y-92704819D02*
X184269857Y-92704819D01*
X184269857Y-92704819D02*
X184365095Y-92752438D01*
X184365095Y-92752438D02*
X184412714Y-92800057D01*
X184412714Y-92800057D02*
X184460333Y-92895295D01*
X184460333Y-92895295D02*
X184460333Y-93038152D01*
X184460333Y-93038152D02*
X184412714Y-93133390D01*
X184412714Y-93133390D02*
X184365095Y-93181009D01*
X184365095Y-93181009D02*
X184269857Y-93228628D01*
X184269857Y-93228628D02*
X183888905Y-93228628D01*
X185317476Y-93038152D02*
X185317476Y-93704819D01*
X185079381Y-92657200D02*
X184841286Y-93371485D01*
X184841286Y-93371485D02*
X185460333Y-93371485D01*
X184091523Y-99204819D02*
X183520095Y-99204819D01*
X183805809Y-99204819D02*
X183805809Y-98204819D01*
X183805809Y-98204819D02*
X183710571Y-98347676D01*
X183710571Y-98347676D02*
X183615333Y-98442914D01*
X183615333Y-98442914D02*
X183520095Y-98490533D01*
X184710571Y-98204819D02*
X184805809Y-98204819D01*
X184805809Y-98204819D02*
X184901047Y-98252438D01*
X184901047Y-98252438D02*
X184948666Y-98300057D01*
X184948666Y-98300057D02*
X184996285Y-98395295D01*
X184996285Y-98395295D02*
X185043904Y-98585771D01*
X185043904Y-98585771D02*
X185043904Y-98823866D01*
X185043904Y-98823866D02*
X184996285Y-99014342D01*
X184996285Y-99014342D02*
X184948666Y-99109580D01*
X184948666Y-99109580D02*
X184901047Y-99157200D01*
X184901047Y-99157200D02*
X184805809Y-99204819D01*
X184805809Y-99204819D02*
X184710571Y-99204819D01*
X184710571Y-99204819D02*
X184615333Y-99157200D01*
X184615333Y-99157200D02*
X184567714Y-99109580D01*
X184567714Y-99109580D02*
X184520095Y-99014342D01*
X184520095Y-99014342D02*
X184472476Y-98823866D01*
X184472476Y-98823866D02*
X184472476Y-98585771D01*
X184472476Y-98585771D02*
X184520095Y-98395295D01*
X184520095Y-98395295D02*
X184567714Y-98300057D01*
X184567714Y-98300057D02*
X184615333Y-98252438D01*
X184615333Y-98252438D02*
X184710571Y-98204819D01*
X185472476Y-99204819D02*
X185472476Y-98204819D01*
X186043904Y-99204819D02*
X185615333Y-98633390D01*
X186043904Y-98204819D02*
X185472476Y-98776247D01*
D25*
X217739419Y-88991026D02*
X217739419Y-88371979D01*
X217739419Y-88371979D02*
X218120371Y-88705312D01*
X218120371Y-88705312D02*
X218120371Y-88562455D01*
X218120371Y-88562455D02*
X218167990Y-88467217D01*
X218167990Y-88467217D02*
X218215609Y-88419598D01*
X218215609Y-88419598D02*
X218310847Y-88371979D01*
X218310847Y-88371979D02*
X218548942Y-88371979D01*
X218548942Y-88371979D02*
X218644180Y-88419598D01*
X218644180Y-88419598D02*
X218691800Y-88467217D01*
X218691800Y-88467217D02*
X218739419Y-88562455D01*
X218739419Y-88562455D02*
X218739419Y-88848169D01*
X218739419Y-88848169D02*
X218691800Y-88943407D01*
X218691800Y-88943407D02*
X218644180Y-88991026D01*
X218644180Y-87943407D02*
X218691800Y-87895788D01*
X218691800Y-87895788D02*
X218739419Y-87943407D01*
X218739419Y-87943407D02*
X218691800Y-87991026D01*
X218691800Y-87991026D02*
X218644180Y-87943407D01*
X218644180Y-87943407D02*
X218739419Y-87943407D01*
X217739419Y-87562455D02*
X217739419Y-86943408D01*
X217739419Y-86943408D02*
X218120371Y-87276741D01*
X218120371Y-87276741D02*
X218120371Y-87133884D01*
X218120371Y-87133884D02*
X218167990Y-87038646D01*
X218167990Y-87038646D02*
X218215609Y-86991027D01*
X218215609Y-86991027D02*
X218310847Y-86943408D01*
X218310847Y-86943408D02*
X218548942Y-86943408D01*
X218548942Y-86943408D02*
X218644180Y-86991027D01*
X218644180Y-86991027D02*
X218691800Y-87038646D01*
X218691800Y-87038646D02*
X218739419Y-87133884D01*
X218739419Y-87133884D02*
X218739419Y-87419598D01*
X218739419Y-87419598D02*
X218691800Y-87514836D01*
X218691800Y-87514836D02*
X218644180Y-87562455D01*
X217739419Y-86657693D02*
X218739419Y-86324360D01*
X218739419Y-86324360D02*
X217739419Y-85991027D01*
X215247038Y-88181503D02*
X215199419Y-88276741D01*
X215199419Y-88276741D02*
X215199419Y-88419598D01*
X215199419Y-88419598D02*
X215247038Y-88562455D01*
X215247038Y-88562455D02*
X215342276Y-88657693D01*
X215342276Y-88657693D02*
X215437514Y-88705312D01*
X215437514Y-88705312D02*
X215627990Y-88752931D01*
X215627990Y-88752931D02*
X215770847Y-88752931D01*
X215770847Y-88752931D02*
X215961323Y-88705312D01*
X215961323Y-88705312D02*
X216056561Y-88657693D01*
X216056561Y-88657693D02*
X216151800Y-88562455D01*
X216151800Y-88562455D02*
X216199419Y-88419598D01*
X216199419Y-88419598D02*
X216199419Y-88324360D01*
X216199419Y-88324360D02*
X216151800Y-88181503D01*
X216151800Y-88181503D02*
X216104180Y-88133884D01*
X216104180Y-88133884D02*
X215770847Y-88133884D01*
X215770847Y-88133884D02*
X215770847Y-88324360D01*
X216199419Y-87705312D02*
X215199419Y-87705312D01*
X215199419Y-87705312D02*
X216199419Y-87133884D01*
X216199419Y-87133884D02*
X215199419Y-87133884D01*
X216199419Y-86657693D02*
X215199419Y-86657693D01*
X215199419Y-86657693D02*
X215199419Y-86419598D01*
X215199419Y-86419598D02*
X215247038Y-86276741D01*
X215247038Y-86276741D02*
X215342276Y-86181503D01*
X215342276Y-86181503D02*
X215437514Y-86133884D01*
X215437514Y-86133884D02*
X215627990Y-86086265D01*
X215627990Y-86086265D02*
X215770847Y-86086265D01*
X215770847Y-86086265D02*
X215961323Y-86133884D01*
X215961323Y-86133884D02*
X216056561Y-86181503D01*
X216056561Y-86181503D02*
X216151800Y-86276741D01*
X216151800Y-86276741D02*
X216199419Y-86419598D01*
X216199419Y-86419598D02*
X216199419Y-86657693D01*
X207502419Y-93908115D02*
X208311942Y-93908115D01*
X208311942Y-93908115D02*
X208407180Y-93860496D01*
X208407180Y-93860496D02*
X208454800Y-93812877D01*
X208454800Y-93812877D02*
X208502419Y-93717639D01*
X208502419Y-93717639D02*
X208502419Y-93527163D01*
X208502419Y-93527163D02*
X208454800Y-93431925D01*
X208454800Y-93431925D02*
X208407180Y-93384306D01*
X208407180Y-93384306D02*
X208311942Y-93336687D01*
X208311942Y-93336687D02*
X207502419Y-93336687D01*
X208454800Y-92908115D02*
X208502419Y-92765258D01*
X208502419Y-92765258D02*
X208502419Y-92527163D01*
X208502419Y-92527163D02*
X208454800Y-92431925D01*
X208454800Y-92431925D02*
X208407180Y-92384306D01*
X208407180Y-92384306D02*
X208311942Y-92336687D01*
X208311942Y-92336687D02*
X208216704Y-92336687D01*
X208216704Y-92336687D02*
X208121466Y-92384306D01*
X208121466Y-92384306D02*
X208073847Y-92431925D01*
X208073847Y-92431925D02*
X208026228Y-92527163D01*
X208026228Y-92527163D02*
X207978609Y-92717639D01*
X207978609Y-92717639D02*
X207930990Y-92812877D01*
X207930990Y-92812877D02*
X207883371Y-92860496D01*
X207883371Y-92860496D02*
X207788133Y-92908115D01*
X207788133Y-92908115D02*
X207692895Y-92908115D01*
X207692895Y-92908115D02*
X207597657Y-92860496D01*
X207597657Y-92860496D02*
X207550038Y-92812877D01*
X207550038Y-92812877D02*
X207502419Y-92717639D01*
X207502419Y-92717639D02*
X207502419Y-92479544D01*
X207502419Y-92479544D02*
X207550038Y-92336687D01*
X207978609Y-91574782D02*
X208026228Y-91431925D01*
X208026228Y-91431925D02*
X208073847Y-91384306D01*
X208073847Y-91384306D02*
X208169085Y-91336687D01*
X208169085Y-91336687D02*
X208311942Y-91336687D01*
X208311942Y-91336687D02*
X208407180Y-91384306D01*
X208407180Y-91384306D02*
X208454800Y-91431925D01*
X208454800Y-91431925D02*
X208502419Y-91527163D01*
X208502419Y-91527163D02*
X208502419Y-91908115D01*
X208502419Y-91908115D02*
X207502419Y-91908115D01*
X207502419Y-91908115D02*
X207502419Y-91574782D01*
X207502419Y-91574782D02*
X207550038Y-91479544D01*
X207550038Y-91479544D02*
X207597657Y-91431925D01*
X207597657Y-91431925D02*
X207692895Y-91384306D01*
X207692895Y-91384306D02*
X207788133Y-91384306D01*
X207788133Y-91384306D02*
X207883371Y-91431925D01*
X207883371Y-91431925D02*
X207930990Y-91479544D01*
X207930990Y-91479544D02*
X207978609Y-91574782D01*
X207978609Y-91574782D02*
X207978609Y-91908115D01*
X208407180Y-90336687D02*
X208454800Y-90384306D01*
X208454800Y-90384306D02*
X208502419Y-90527163D01*
X208502419Y-90527163D02*
X208502419Y-90622401D01*
X208502419Y-90622401D02*
X208454800Y-90765258D01*
X208454800Y-90765258D02*
X208359561Y-90860496D01*
X208359561Y-90860496D02*
X208264323Y-90908115D01*
X208264323Y-90908115D02*
X208073847Y-90955734D01*
X208073847Y-90955734D02*
X207930990Y-90955734D01*
X207930990Y-90955734D02*
X207740514Y-90908115D01*
X207740514Y-90908115D02*
X207645276Y-90860496D01*
X207645276Y-90860496D02*
X207550038Y-90765258D01*
X207550038Y-90765258D02*
X207502419Y-90622401D01*
X207502419Y-90622401D02*
X207502419Y-90527163D01*
X207502419Y-90527163D02*
X207550038Y-90384306D01*
X207550038Y-90384306D02*
X207597657Y-90336687D01*
X212659419Y-86991027D02*
X212659419Y-87467217D01*
X212659419Y-87467217D02*
X213135609Y-87514836D01*
X213135609Y-87514836D02*
X213087990Y-87467217D01*
X213087990Y-87467217D02*
X213040371Y-87371979D01*
X213040371Y-87371979D02*
X213040371Y-87133884D01*
X213040371Y-87133884D02*
X213087990Y-87038646D01*
X213087990Y-87038646D02*
X213135609Y-86991027D01*
X213135609Y-86991027D02*
X213230847Y-86943408D01*
X213230847Y-86943408D02*
X213468942Y-86943408D01*
X213468942Y-86943408D02*
X213564180Y-86991027D01*
X213564180Y-86991027D02*
X213611800Y-87038646D01*
X213611800Y-87038646D02*
X213659419Y-87133884D01*
X213659419Y-87133884D02*
X213659419Y-87371979D01*
X213659419Y-87371979D02*
X213611800Y-87467217D01*
X213611800Y-87467217D02*
X213564180Y-87514836D01*
X212659419Y-86657693D02*
X213659419Y-86324360D01*
X213659419Y-86324360D02*
X212659419Y-85991027D01*
D26*
X131238095Y-86954819D02*
X131809523Y-86954819D01*
X131523809Y-87954819D02*
X131523809Y-86954819D01*
X132142857Y-87954819D02*
X132142857Y-86954819D01*
X132142857Y-86954819D02*
X132523809Y-86954819D01*
X132523809Y-86954819D02*
X132619047Y-87002438D01*
X132619047Y-87002438D02*
X132666666Y-87050057D01*
X132666666Y-87050057D02*
X132714285Y-87145295D01*
X132714285Y-87145295D02*
X132714285Y-87288152D01*
X132714285Y-87288152D02*
X132666666Y-87383390D01*
X132666666Y-87383390D02*
X132619047Y-87431009D01*
X132619047Y-87431009D02*
X132523809Y-87478628D01*
X132523809Y-87478628D02*
X132142857Y-87478628D01*
X133095238Y-87050057D02*
X133142857Y-87002438D01*
X133142857Y-87002438D02*
X133238095Y-86954819D01*
X133238095Y-86954819D02*
X133476190Y-86954819D01*
X133476190Y-86954819D02*
X133571428Y-87002438D01*
X133571428Y-87002438D02*
X133619047Y-87050057D01*
X133619047Y-87050057D02*
X133666666Y-87145295D01*
X133666666Y-87145295D02*
X133666666Y-87240533D01*
X133666666Y-87240533D02*
X133619047Y-87383390D01*
X133619047Y-87383390D02*
X133047619Y-87954819D01*
X133047619Y-87954819D02*
X133666666Y-87954819D01*
X132309523Y-88454819D02*
X131833333Y-88454819D01*
X131833333Y-88454819D02*
X131785714Y-88931009D01*
X131785714Y-88931009D02*
X131833333Y-88883390D01*
X131833333Y-88883390D02*
X131928571Y-88835771D01*
X131928571Y-88835771D02*
X132166666Y-88835771D01*
X132166666Y-88835771D02*
X132261904Y-88883390D01*
X132261904Y-88883390D02*
X132309523Y-88931009D01*
X132309523Y-88931009D02*
X132357142Y-89026247D01*
X132357142Y-89026247D02*
X132357142Y-89264342D01*
X132357142Y-89264342D02*
X132309523Y-89359580D01*
X132309523Y-89359580D02*
X132261904Y-89407200D01*
X132261904Y-89407200D02*
X132166666Y-89454819D01*
X132166666Y-89454819D02*
X131928571Y-89454819D01*
X131928571Y-89454819D02*
X131833333Y-89407200D01*
X131833333Y-89407200D02*
X131785714Y-89359580D01*
X132642857Y-88454819D02*
X132976190Y-89454819D01*
X132976190Y-89454819D02*
X133309523Y-88454819D01*
X194869200Y-113870839D02*
X194916819Y-113727982D01*
X194916819Y-113727982D02*
X194916819Y-113489887D01*
X194916819Y-113489887D02*
X194869200Y-113394649D01*
X194869200Y-113394649D02*
X194821580Y-113347030D01*
X194821580Y-113347030D02*
X194726342Y-113299411D01*
X194726342Y-113299411D02*
X194631104Y-113299411D01*
X194631104Y-113299411D02*
X194535866Y-113347030D01*
X194535866Y-113347030D02*
X194488247Y-113394649D01*
X194488247Y-113394649D02*
X194440628Y-113489887D01*
X194440628Y-113489887D02*
X194393009Y-113680363D01*
X194393009Y-113680363D02*
X194345390Y-113775601D01*
X194345390Y-113775601D02*
X194297771Y-113823220D01*
X194297771Y-113823220D02*
X194202533Y-113870839D01*
X194202533Y-113870839D02*
X194107295Y-113870839D01*
X194107295Y-113870839D02*
X194012057Y-113823220D01*
X194012057Y-113823220D02*
X193964438Y-113775601D01*
X193964438Y-113775601D02*
X193916819Y-113680363D01*
X193916819Y-113680363D02*
X193916819Y-113442268D01*
X193916819Y-113442268D02*
X193964438Y-113299411D01*
X193916819Y-112966077D02*
X194916819Y-112727982D01*
X194916819Y-112727982D02*
X194202533Y-112537506D01*
X194202533Y-112537506D02*
X194916819Y-112347030D01*
X194916819Y-112347030D02*
X193916819Y-112108935D01*
X194916819Y-111204173D02*
X194916819Y-111775601D01*
X194916819Y-111489887D02*
X193916819Y-111489887D01*
X193916819Y-111489887D02*
X194059676Y-111585125D01*
X194059676Y-111585125D02*
X194154914Y-111680363D01*
X194154914Y-111680363D02*
X194202533Y-111775601D01*
D25*
X233436191Y-113872419D02*
X233436191Y-112872419D01*
X233436191Y-112872419D02*
X233769524Y-113586704D01*
X233769524Y-113586704D02*
X234102857Y-112872419D01*
X234102857Y-112872419D02*
X234102857Y-113872419D01*
X234531429Y-112967657D02*
X234579048Y-112920038D01*
X234579048Y-112920038D02*
X234674286Y-112872419D01*
X234674286Y-112872419D02*
X234912381Y-112872419D01*
X234912381Y-112872419D02*
X235007619Y-112920038D01*
X235007619Y-112920038D02*
X235055238Y-112967657D01*
X235055238Y-112967657D02*
X235102857Y-113062895D01*
X235102857Y-113062895D02*
X235102857Y-113158133D01*
X235102857Y-113158133D02*
X235055238Y-113300990D01*
X235055238Y-113300990D02*
X234483810Y-113872419D01*
X234483810Y-113872419D02*
X235102857Y-113872419D01*
X235531429Y-113777180D02*
X235579048Y-113824800D01*
X235579048Y-113824800D02*
X235531429Y-113872419D01*
X235531429Y-113872419D02*
X235483810Y-113824800D01*
X235483810Y-113824800D02*
X235531429Y-113777180D01*
X235531429Y-113777180D02*
X235531429Y-113872419D01*
X236483809Y-112872419D02*
X236007619Y-112872419D01*
X236007619Y-112872419D02*
X235960000Y-113348609D01*
X235960000Y-113348609D02*
X236007619Y-113300990D01*
X236007619Y-113300990D02*
X236102857Y-113253371D01*
X236102857Y-113253371D02*
X236340952Y-113253371D01*
X236340952Y-113253371D02*
X236436190Y-113300990D01*
X236436190Y-113300990D02*
X236483809Y-113348609D01*
X236483809Y-113348609D02*
X236531428Y-113443847D01*
X236531428Y-113443847D02*
X236531428Y-113681942D01*
X236531428Y-113681942D02*
X236483809Y-113777180D01*
X236483809Y-113777180D02*
X236436190Y-113824800D01*
X236436190Y-113824800D02*
X236340952Y-113872419D01*
X236340952Y-113872419D02*
X236102857Y-113872419D01*
X236102857Y-113872419D02*
X236007619Y-113824800D01*
X236007619Y-113824800D02*
X235960000Y-113777180D01*
X119303884Y-117457419D02*
X119303884Y-116457419D01*
X119303884Y-116457419D02*
X119637217Y-117171704D01*
X119637217Y-117171704D02*
X119970550Y-116457419D01*
X119970550Y-116457419D02*
X119970550Y-117457419D01*
X120399122Y-116552657D02*
X120446741Y-116505038D01*
X120446741Y-116505038D02*
X120541979Y-116457419D01*
X120541979Y-116457419D02*
X120780074Y-116457419D01*
X120780074Y-116457419D02*
X120875312Y-116505038D01*
X120875312Y-116505038D02*
X120922931Y-116552657D01*
X120922931Y-116552657D02*
X120970550Y-116647895D01*
X120970550Y-116647895D02*
X120970550Y-116743133D01*
X120970550Y-116743133D02*
X120922931Y-116885990D01*
X120922931Y-116885990D02*
X120351503Y-117457419D01*
X120351503Y-117457419D02*
X120970550Y-117457419D01*
X121399122Y-117362180D02*
X121446741Y-117409800D01*
X121446741Y-117409800D02*
X121399122Y-117457419D01*
X121399122Y-117457419D02*
X121351503Y-117409800D01*
X121351503Y-117409800D02*
X121399122Y-117362180D01*
X121399122Y-117362180D02*
X121399122Y-117457419D01*
X122351502Y-116457419D02*
X121875312Y-116457419D01*
X121875312Y-116457419D02*
X121827693Y-116933609D01*
X121827693Y-116933609D02*
X121875312Y-116885990D01*
X121875312Y-116885990D02*
X121970550Y-116838371D01*
X121970550Y-116838371D02*
X122208645Y-116838371D01*
X122208645Y-116838371D02*
X122303883Y-116885990D01*
X122303883Y-116885990D02*
X122351502Y-116933609D01*
X122351502Y-116933609D02*
X122399121Y-117028847D01*
X122399121Y-117028847D02*
X122399121Y-117266942D01*
X122399121Y-117266942D02*
X122351502Y-117362180D01*
X122351502Y-117362180D02*
X122303883Y-117409800D01*
X122303883Y-117409800D02*
X122208645Y-117457419D01*
X122208645Y-117457419D02*
X121970550Y-117457419D01*
X121970550Y-117457419D02*
X121875312Y-117409800D01*
X121875312Y-117409800D02*
X121827693Y-117362180D01*
X192570497Y-92957419D02*
X192570497Y-91957419D01*
X192570497Y-91957419D02*
X192903830Y-92671704D01*
X192903830Y-92671704D02*
X193237163Y-91957419D01*
X193237163Y-91957419D02*
X193237163Y-92957419D01*
X193665735Y-92052657D02*
X193713354Y-92005038D01*
X193713354Y-92005038D02*
X193808592Y-91957419D01*
X193808592Y-91957419D02*
X194046687Y-91957419D01*
X194046687Y-91957419D02*
X194141925Y-92005038D01*
X194141925Y-92005038D02*
X194189544Y-92052657D01*
X194189544Y-92052657D02*
X194237163Y-92147895D01*
X194237163Y-92147895D02*
X194237163Y-92243133D01*
X194237163Y-92243133D02*
X194189544Y-92385990D01*
X194189544Y-92385990D02*
X193618116Y-92957419D01*
X193618116Y-92957419D02*
X194237163Y-92957419D01*
X194665735Y-92862180D02*
X194713354Y-92909800D01*
X194713354Y-92909800D02*
X194665735Y-92957419D01*
X194665735Y-92957419D02*
X194618116Y-92909800D01*
X194618116Y-92909800D02*
X194665735Y-92862180D01*
X194665735Y-92862180D02*
X194665735Y-92957419D01*
X195618115Y-91957419D02*
X195141925Y-91957419D01*
X195141925Y-91957419D02*
X195094306Y-92433609D01*
X195094306Y-92433609D02*
X195141925Y-92385990D01*
X195141925Y-92385990D02*
X195237163Y-92338371D01*
X195237163Y-92338371D02*
X195475258Y-92338371D01*
X195475258Y-92338371D02*
X195570496Y-92385990D01*
X195570496Y-92385990D02*
X195618115Y-92433609D01*
X195618115Y-92433609D02*
X195665734Y-92528847D01*
X195665734Y-92528847D02*
X195665734Y-92766942D01*
X195665734Y-92766942D02*
X195618115Y-92862180D01*
X195618115Y-92862180D02*
X195570496Y-92909800D01*
X195570496Y-92909800D02*
X195475258Y-92957419D01*
X195475258Y-92957419D02*
X195237163Y-92957419D01*
X195237163Y-92957419D02*
X195141925Y-92909800D01*
X195141925Y-92909800D02*
X195094306Y-92862180D01*
D26*
X215615333Y-110704819D02*
X215282000Y-110228628D01*
X215043905Y-110704819D02*
X215043905Y-109704819D01*
X215043905Y-109704819D02*
X215424857Y-109704819D01*
X215424857Y-109704819D02*
X215520095Y-109752438D01*
X215520095Y-109752438D02*
X215567714Y-109800057D01*
X215567714Y-109800057D02*
X215615333Y-109895295D01*
X215615333Y-109895295D02*
X215615333Y-110038152D01*
X215615333Y-110038152D02*
X215567714Y-110133390D01*
X215567714Y-110133390D02*
X215520095Y-110181009D01*
X215520095Y-110181009D02*
X215424857Y-110228628D01*
X215424857Y-110228628D02*
X215043905Y-110228628D01*
X215996286Y-109800057D02*
X216043905Y-109752438D01*
X216043905Y-109752438D02*
X216139143Y-109704819D01*
X216139143Y-109704819D02*
X216377238Y-109704819D01*
X216377238Y-109704819D02*
X216472476Y-109752438D01*
X216472476Y-109752438D02*
X216520095Y-109800057D01*
X216520095Y-109800057D02*
X216567714Y-109895295D01*
X216567714Y-109895295D02*
X216567714Y-109990533D01*
X216567714Y-109990533D02*
X216520095Y-110133390D01*
X216520095Y-110133390D02*
X215948667Y-110704819D01*
X215948667Y-110704819D02*
X216567714Y-110704819D01*
X219591523Y-110584819D02*
X219020095Y-110584819D01*
X219305809Y-110584819D02*
X219305809Y-109584819D01*
X219305809Y-109584819D02*
X219210571Y-109727676D01*
X219210571Y-109727676D02*
X219115333Y-109822914D01*
X219115333Y-109822914D02*
X219020095Y-109870533D01*
X220210571Y-109584819D02*
X220305809Y-109584819D01*
X220305809Y-109584819D02*
X220401047Y-109632438D01*
X220401047Y-109632438D02*
X220448666Y-109680057D01*
X220448666Y-109680057D02*
X220496285Y-109775295D01*
X220496285Y-109775295D02*
X220543904Y-109965771D01*
X220543904Y-109965771D02*
X220543904Y-110203866D01*
X220543904Y-110203866D02*
X220496285Y-110394342D01*
X220496285Y-110394342D02*
X220448666Y-110489580D01*
X220448666Y-110489580D02*
X220401047Y-110537200D01*
X220401047Y-110537200D02*
X220305809Y-110584819D01*
X220305809Y-110584819D02*
X220210571Y-110584819D01*
X220210571Y-110584819D02*
X220115333Y-110537200D01*
X220115333Y-110537200D02*
X220067714Y-110489580D01*
X220067714Y-110489580D02*
X220020095Y-110394342D01*
X220020095Y-110394342D02*
X219972476Y-110203866D01*
X219972476Y-110203866D02*
X219972476Y-109965771D01*
X219972476Y-109965771D02*
X220020095Y-109775295D01*
X220020095Y-109775295D02*
X220067714Y-109680057D01*
X220067714Y-109680057D02*
X220115333Y-109632438D01*
X220115333Y-109632438D02*
X220210571Y-109584819D01*
X220972476Y-110584819D02*
X220972476Y-109584819D01*
X221543904Y-110584819D02*
X221115333Y-110013390D01*
X221543904Y-109584819D02*
X220972476Y-110156247D01*
D25*
X245542580Y-100666666D02*
X244828295Y-100666666D01*
X244828295Y-100666666D02*
X244685438Y-100619047D01*
X244685438Y-100619047D02*
X244590200Y-100523809D01*
X244590200Y-100523809D02*
X244542580Y-100380952D01*
X244542580Y-100380952D02*
X244542580Y-100285714D01*
X245542580Y-101047619D02*
X245542580Y-101666666D01*
X245542580Y-101666666D02*
X245161628Y-101333333D01*
X245161628Y-101333333D02*
X245161628Y-101476190D01*
X245161628Y-101476190D02*
X245114009Y-101571428D01*
X245114009Y-101571428D02*
X245066390Y-101619047D01*
X245066390Y-101619047D02*
X244971152Y-101666666D01*
X244971152Y-101666666D02*
X244733057Y-101666666D01*
X244733057Y-101666666D02*
X244637819Y-101619047D01*
X244637819Y-101619047D02*
X244590200Y-101571428D01*
X244590200Y-101571428D02*
X244542580Y-101476190D01*
X244542580Y-101476190D02*
X244542580Y-101190476D01*
X244542580Y-101190476D02*
X244590200Y-101095238D01*
X244590200Y-101095238D02*
X244637819Y-101047619D01*
X239652580Y-96498095D02*
X238652580Y-96831428D01*
X238652580Y-96831428D02*
X239652580Y-97164761D01*
X238700200Y-97926666D02*
X238652580Y-97831428D01*
X238652580Y-97831428D02*
X238652580Y-97640952D01*
X238652580Y-97640952D02*
X238700200Y-97545714D01*
X238700200Y-97545714D02*
X238747819Y-97498095D01*
X238747819Y-97498095D02*
X238843057Y-97450476D01*
X238843057Y-97450476D02*
X239128771Y-97450476D01*
X239128771Y-97450476D02*
X239224009Y-97498095D01*
X239224009Y-97498095D02*
X239271628Y-97545714D01*
X239271628Y-97545714D02*
X239319247Y-97640952D01*
X239319247Y-97640952D02*
X239319247Y-97831428D01*
X239319247Y-97831428D02*
X239271628Y-97926666D01*
X239176390Y-102125714D02*
X239176390Y-102459047D01*
X238652580Y-102601904D02*
X238652580Y-102125714D01*
X238652580Y-102125714D02*
X239652580Y-102125714D01*
X239652580Y-102125714D02*
X239652580Y-102601904D01*
X239652580Y-99514286D02*
X239652580Y-100085714D01*
X238652580Y-99800000D02*
X239652580Y-99800000D01*
X239604961Y-105141904D02*
X239652580Y-105046666D01*
X239652580Y-105046666D02*
X239652580Y-104903809D01*
X239652580Y-104903809D02*
X239604961Y-104760952D01*
X239604961Y-104760952D02*
X239509723Y-104665714D01*
X239509723Y-104665714D02*
X239414485Y-104618095D01*
X239414485Y-104618095D02*
X239224009Y-104570476D01*
X239224009Y-104570476D02*
X239081152Y-104570476D01*
X239081152Y-104570476D02*
X238890676Y-104618095D01*
X238890676Y-104618095D02*
X238795438Y-104665714D01*
X238795438Y-104665714D02*
X238700200Y-104760952D01*
X238700200Y-104760952D02*
X238652580Y-104903809D01*
X238652580Y-104903809D02*
X238652580Y-104999047D01*
X238652580Y-104999047D02*
X238700200Y-105141904D01*
X238700200Y-105141904D02*
X238747819Y-105189523D01*
X238747819Y-105189523D02*
X239081152Y-105189523D01*
X239081152Y-105189523D02*
X239081152Y-104999047D01*
X158287419Y-94211904D02*
X157287419Y-94211904D01*
X157287419Y-94211904D02*
X157287419Y-93830952D01*
X157287419Y-93830952D02*
X157335038Y-93735714D01*
X157335038Y-93735714D02*
X157382657Y-93688095D01*
X157382657Y-93688095D02*
X157477895Y-93640476D01*
X157477895Y-93640476D02*
X157620752Y-93640476D01*
X157620752Y-93640476D02*
X157715990Y-93688095D01*
X157715990Y-93688095D02*
X157763609Y-93735714D01*
X157763609Y-93735714D02*
X157811228Y-93830952D01*
X157811228Y-93830952D02*
X157811228Y-94211904D01*
X157335038Y-92688095D02*
X157287419Y-92783333D01*
X157287419Y-92783333D02*
X157287419Y-92926190D01*
X157287419Y-92926190D02*
X157335038Y-93069047D01*
X157335038Y-93069047D02*
X157430276Y-93164285D01*
X157430276Y-93164285D02*
X157525514Y-93211904D01*
X157525514Y-93211904D02*
X157715990Y-93259523D01*
X157715990Y-93259523D02*
X157858847Y-93259523D01*
X157858847Y-93259523D02*
X158049323Y-93211904D01*
X158049323Y-93211904D02*
X158144561Y-93164285D01*
X158144561Y-93164285D02*
X158239800Y-93069047D01*
X158239800Y-93069047D02*
X158287419Y-92926190D01*
X158287419Y-92926190D02*
X158287419Y-92830952D01*
X158287419Y-92830952D02*
X158239800Y-92688095D01*
X158239800Y-92688095D02*
X158192180Y-92640476D01*
X158192180Y-92640476D02*
X157858847Y-92640476D01*
X157858847Y-92640476D02*
X157858847Y-92830952D01*
X158239800Y-91195713D02*
X158287419Y-91052856D01*
X158287419Y-91052856D02*
X158287419Y-90814761D01*
X158287419Y-90814761D02*
X158239800Y-90719523D01*
X158239800Y-90719523D02*
X158192180Y-90671904D01*
X158192180Y-90671904D02*
X158096942Y-90624285D01*
X158096942Y-90624285D02*
X158001704Y-90624285D01*
X158001704Y-90624285D02*
X157906466Y-90671904D01*
X157906466Y-90671904D02*
X157858847Y-90719523D01*
X157858847Y-90719523D02*
X157811228Y-90814761D01*
X157811228Y-90814761D02*
X157763609Y-91005237D01*
X157763609Y-91005237D02*
X157715990Y-91100475D01*
X157715990Y-91100475D02*
X157668371Y-91148094D01*
X157668371Y-91148094D02*
X157573133Y-91195713D01*
X157573133Y-91195713D02*
X157477895Y-91195713D01*
X157477895Y-91195713D02*
X157382657Y-91148094D01*
X157382657Y-91148094D02*
X157335038Y-91100475D01*
X157335038Y-91100475D02*
X157287419Y-91005237D01*
X157287419Y-91005237D02*
X157287419Y-90767142D01*
X157287419Y-90767142D02*
X157335038Y-90624285D01*
X157382657Y-89560475D02*
X157335038Y-89512856D01*
X157335038Y-89512856D02*
X157287419Y-89417618D01*
X157287419Y-89417618D02*
X157287419Y-89179523D01*
X157287419Y-89179523D02*
X157335038Y-89084285D01*
X157335038Y-89084285D02*
X157382657Y-89036666D01*
X157382657Y-89036666D02*
X157477895Y-88989047D01*
X157477895Y-88989047D02*
X157573133Y-88989047D01*
X157573133Y-88989047D02*
X157715990Y-89036666D01*
X157715990Y-89036666D02*
X158287419Y-89608094D01*
X158287419Y-89608094D02*
X158287419Y-88989047D01*
X157620752Y-88131904D02*
X158287419Y-88131904D01*
X157239800Y-88369999D02*
X157954085Y-88608094D01*
X157954085Y-88608094D02*
X157954085Y-87989047D01*
X157287419Y-87750951D02*
X158287419Y-87417618D01*
X158287419Y-87417618D02*
X157287419Y-87084285D01*
D26*
X189433905Y-86954819D02*
X189433905Y-85954819D01*
X189433905Y-85954819D02*
X189672000Y-85954819D01*
X189672000Y-85954819D02*
X189814857Y-86002438D01*
X189814857Y-86002438D02*
X189910095Y-86097676D01*
X189910095Y-86097676D02*
X189957714Y-86192914D01*
X189957714Y-86192914D02*
X190005333Y-86383390D01*
X190005333Y-86383390D02*
X190005333Y-86526247D01*
X190005333Y-86526247D02*
X189957714Y-86716723D01*
X189957714Y-86716723D02*
X189910095Y-86811961D01*
X189910095Y-86811961D02*
X189814857Y-86907200D01*
X189814857Y-86907200D02*
X189672000Y-86954819D01*
X189672000Y-86954819D02*
X189433905Y-86954819D01*
X190957714Y-86954819D02*
X190386286Y-86954819D01*
X190672000Y-86954819D02*
X190672000Y-85954819D01*
X190672000Y-85954819D02*
X190576762Y-86097676D01*
X190576762Y-86097676D02*
X190481524Y-86192914D01*
X190481524Y-86192914D02*
X190386286Y-86240533D01*
X188139142Y-88704819D02*
X187567714Y-88704819D01*
X187853428Y-88704819D02*
X187853428Y-87704819D01*
X187853428Y-87704819D02*
X187758190Y-87847676D01*
X187758190Y-87847676D02*
X187662952Y-87942914D01*
X187662952Y-87942914D02*
X187567714Y-87990533D01*
X188567714Y-88704819D02*
X188567714Y-87704819D01*
X188567714Y-87704819D02*
X189139142Y-88704819D01*
X189139142Y-88704819D02*
X189139142Y-87704819D01*
X190091523Y-87704819D02*
X189615333Y-87704819D01*
X189615333Y-87704819D02*
X189567714Y-88181009D01*
X189567714Y-88181009D02*
X189615333Y-88133390D01*
X189615333Y-88133390D02*
X189710571Y-88085771D01*
X189710571Y-88085771D02*
X189948666Y-88085771D01*
X189948666Y-88085771D02*
X190043904Y-88133390D01*
X190043904Y-88133390D02*
X190091523Y-88181009D01*
X190091523Y-88181009D02*
X190139142Y-88276247D01*
X190139142Y-88276247D02*
X190139142Y-88514342D01*
X190139142Y-88514342D02*
X190091523Y-88609580D01*
X190091523Y-88609580D02*
X190043904Y-88657200D01*
X190043904Y-88657200D02*
X189948666Y-88704819D01*
X189948666Y-88704819D02*
X189710571Y-88704819D01*
X189710571Y-88704819D02*
X189615333Y-88657200D01*
X189615333Y-88657200D02*
X189567714Y-88609580D01*
X190710571Y-88133390D02*
X190615333Y-88085771D01*
X190615333Y-88085771D02*
X190567714Y-88038152D01*
X190567714Y-88038152D02*
X190520095Y-87942914D01*
X190520095Y-87942914D02*
X190520095Y-87895295D01*
X190520095Y-87895295D02*
X190567714Y-87800057D01*
X190567714Y-87800057D02*
X190615333Y-87752438D01*
X190615333Y-87752438D02*
X190710571Y-87704819D01*
X190710571Y-87704819D02*
X190901047Y-87704819D01*
X190901047Y-87704819D02*
X190996285Y-87752438D01*
X190996285Y-87752438D02*
X191043904Y-87800057D01*
X191043904Y-87800057D02*
X191091523Y-87895295D01*
X191091523Y-87895295D02*
X191091523Y-87942914D01*
X191091523Y-87942914D02*
X191043904Y-88038152D01*
X191043904Y-88038152D02*
X190996285Y-88085771D01*
X190996285Y-88085771D02*
X190901047Y-88133390D01*
X190901047Y-88133390D02*
X190710571Y-88133390D01*
X190710571Y-88133390D02*
X190615333Y-88181009D01*
X190615333Y-88181009D02*
X190567714Y-88228628D01*
X190567714Y-88228628D02*
X190520095Y-88323866D01*
X190520095Y-88323866D02*
X190520095Y-88514342D01*
X190520095Y-88514342D02*
X190567714Y-88609580D01*
X190567714Y-88609580D02*
X190615333Y-88657200D01*
X190615333Y-88657200D02*
X190710571Y-88704819D01*
X190710571Y-88704819D02*
X190901047Y-88704819D01*
X190901047Y-88704819D02*
X190996285Y-88657200D01*
X190996285Y-88657200D02*
X191043904Y-88609580D01*
X191043904Y-88609580D02*
X191091523Y-88514342D01*
X191091523Y-88514342D02*
X191091523Y-88323866D01*
X191091523Y-88323866D02*
X191043904Y-88228628D01*
X191043904Y-88228628D02*
X190996285Y-88181009D01*
X190996285Y-88181009D02*
X190901047Y-88133390D01*
X192043904Y-88704819D02*
X191472476Y-88704819D01*
X191758190Y-88704819D02*
X191758190Y-87704819D01*
X191758190Y-87704819D02*
X191662952Y-87847676D01*
X191662952Y-87847676D02*
X191567714Y-87942914D01*
X191567714Y-87942914D02*
X191472476Y-87990533D01*
X192377238Y-87704819D02*
X193043904Y-87704819D01*
X193043904Y-87704819D02*
X192615333Y-88704819D01*
X115135095Y-86954819D02*
X115706523Y-86954819D01*
X115420809Y-87954819D02*
X115420809Y-86954819D01*
X116039857Y-87954819D02*
X116039857Y-86954819D01*
X116039857Y-86954819D02*
X116420809Y-86954819D01*
X116420809Y-86954819D02*
X116516047Y-87002438D01*
X116516047Y-87002438D02*
X116563666Y-87050057D01*
X116563666Y-87050057D02*
X116611285Y-87145295D01*
X116611285Y-87145295D02*
X116611285Y-87288152D01*
X116611285Y-87288152D02*
X116563666Y-87383390D01*
X116563666Y-87383390D02*
X116516047Y-87431009D01*
X116516047Y-87431009D02*
X116420809Y-87478628D01*
X116420809Y-87478628D02*
X116039857Y-87478628D01*
X117563666Y-87954819D02*
X116992238Y-87954819D01*
X117277952Y-87954819D02*
X117277952Y-86954819D01*
X117277952Y-86954819D02*
X117182714Y-87097676D01*
X117182714Y-87097676D02*
X117087476Y-87192914D01*
X117087476Y-87192914D02*
X116992238Y-87240533D01*
X115635095Y-88502438D02*
X115539857Y-88454819D01*
X115539857Y-88454819D02*
X115397000Y-88454819D01*
X115397000Y-88454819D02*
X115254143Y-88502438D01*
X115254143Y-88502438D02*
X115158905Y-88597676D01*
X115158905Y-88597676D02*
X115111286Y-88692914D01*
X115111286Y-88692914D02*
X115063667Y-88883390D01*
X115063667Y-88883390D02*
X115063667Y-89026247D01*
X115063667Y-89026247D02*
X115111286Y-89216723D01*
X115111286Y-89216723D02*
X115158905Y-89311961D01*
X115158905Y-89311961D02*
X115254143Y-89407200D01*
X115254143Y-89407200D02*
X115397000Y-89454819D01*
X115397000Y-89454819D02*
X115492238Y-89454819D01*
X115492238Y-89454819D02*
X115635095Y-89407200D01*
X115635095Y-89407200D02*
X115682714Y-89359580D01*
X115682714Y-89359580D02*
X115682714Y-89026247D01*
X115682714Y-89026247D02*
X115492238Y-89026247D01*
X116111286Y-89454819D02*
X116111286Y-88454819D01*
X116111286Y-88454819D02*
X116682714Y-89454819D01*
X116682714Y-89454819D02*
X116682714Y-88454819D01*
X117158905Y-89454819D02*
X117158905Y-88454819D01*
X117158905Y-88454819D02*
X117397000Y-88454819D01*
X117397000Y-88454819D02*
X117539857Y-88502438D01*
X117539857Y-88502438D02*
X117635095Y-88597676D01*
X117635095Y-88597676D02*
X117682714Y-88692914D01*
X117682714Y-88692914D02*
X117730333Y-88883390D01*
X117730333Y-88883390D02*
X117730333Y-89026247D01*
X117730333Y-89026247D02*
X117682714Y-89216723D01*
X117682714Y-89216723D02*
X117635095Y-89311961D01*
X117635095Y-89311961D02*
X117539857Y-89407200D01*
X117539857Y-89407200D02*
X117397000Y-89454819D01*
X117397000Y-89454819D02*
X117158905Y-89454819D01*
D25*
X173308667Y-90419800D02*
X173451524Y-90467419D01*
X173451524Y-90467419D02*
X173689619Y-90467419D01*
X173689619Y-90467419D02*
X173784857Y-90419800D01*
X173784857Y-90419800D02*
X173832476Y-90372180D01*
X173832476Y-90372180D02*
X173880095Y-90276942D01*
X173880095Y-90276942D02*
X173880095Y-90181704D01*
X173880095Y-90181704D02*
X173832476Y-90086466D01*
X173832476Y-90086466D02*
X173784857Y-90038847D01*
X173784857Y-90038847D02*
X173689619Y-89991228D01*
X173689619Y-89991228D02*
X173499143Y-89943609D01*
X173499143Y-89943609D02*
X173403905Y-89895990D01*
X173403905Y-89895990D02*
X173356286Y-89848371D01*
X173356286Y-89848371D02*
X173308667Y-89753133D01*
X173308667Y-89753133D02*
X173308667Y-89657895D01*
X173308667Y-89657895D02*
X173356286Y-89562657D01*
X173356286Y-89562657D02*
X173403905Y-89515038D01*
X173403905Y-89515038D02*
X173499143Y-89467419D01*
X173499143Y-89467419D02*
X173737238Y-89467419D01*
X173737238Y-89467419D02*
X173880095Y-89515038D01*
X174213429Y-89467419D02*
X174451524Y-90467419D01*
X174451524Y-90467419D02*
X174642000Y-89753133D01*
X174642000Y-89753133D02*
X174832476Y-90467419D01*
X174832476Y-90467419D02*
X175070572Y-89467419D01*
X175356286Y-89467419D02*
X175975333Y-89467419D01*
X175975333Y-89467419D02*
X175642000Y-89848371D01*
X175642000Y-89848371D02*
X175784857Y-89848371D01*
X175784857Y-89848371D02*
X175880095Y-89895990D01*
X175880095Y-89895990D02*
X175927714Y-89943609D01*
X175927714Y-89943609D02*
X175975333Y-90038847D01*
X175975333Y-90038847D02*
X175975333Y-90276942D01*
X175975333Y-90276942D02*
X175927714Y-90372180D01*
X175927714Y-90372180D02*
X175880095Y-90419800D01*
X175880095Y-90419800D02*
X175784857Y-90467419D01*
X175784857Y-90467419D02*
X175499143Y-90467419D01*
X175499143Y-90467419D02*
X175403905Y-90419800D01*
X175403905Y-90419800D02*
X175356286Y-90372180D01*
D26*
X168353333Y-90417200D02*
X168496190Y-90464819D01*
X168496190Y-90464819D02*
X168734285Y-90464819D01*
X168734285Y-90464819D02*
X168829523Y-90417200D01*
X168829523Y-90417200D02*
X168877142Y-90369580D01*
X168877142Y-90369580D02*
X168924761Y-90274342D01*
X168924761Y-90274342D02*
X168924761Y-90179104D01*
X168924761Y-90179104D02*
X168877142Y-90083866D01*
X168877142Y-90083866D02*
X168829523Y-90036247D01*
X168829523Y-90036247D02*
X168734285Y-89988628D01*
X168734285Y-89988628D02*
X168543809Y-89941009D01*
X168543809Y-89941009D02*
X168448571Y-89893390D01*
X168448571Y-89893390D02*
X168400952Y-89845771D01*
X168400952Y-89845771D02*
X168353333Y-89750533D01*
X168353333Y-89750533D02*
X168353333Y-89655295D01*
X168353333Y-89655295D02*
X168400952Y-89560057D01*
X168400952Y-89560057D02*
X168448571Y-89512438D01*
X168448571Y-89512438D02*
X168543809Y-89464819D01*
X168543809Y-89464819D02*
X168781904Y-89464819D01*
X168781904Y-89464819D02*
X168924761Y-89512438D01*
X169353333Y-90464819D02*
X169353333Y-89464819D01*
X169353333Y-89464819D02*
X169734285Y-89464819D01*
X169734285Y-89464819D02*
X169829523Y-89512438D01*
X169829523Y-89512438D02*
X169877142Y-89560057D01*
X169877142Y-89560057D02*
X169924761Y-89655295D01*
X169924761Y-89655295D02*
X169924761Y-89798152D01*
X169924761Y-89798152D02*
X169877142Y-89893390D01*
X169877142Y-89893390D02*
X169829523Y-89941009D01*
X169829523Y-89941009D02*
X169734285Y-89988628D01*
X169734285Y-89988628D02*
X169353333Y-89988628D01*
X170353333Y-90464819D02*
X170353333Y-89464819D01*
X170353333Y-89464819D02*
X170591428Y-89464819D01*
X170591428Y-89464819D02*
X170734285Y-89512438D01*
X170734285Y-89512438D02*
X170829523Y-89607676D01*
X170829523Y-89607676D02*
X170877142Y-89702914D01*
X170877142Y-89702914D02*
X170924761Y-89893390D01*
X170924761Y-89893390D02*
X170924761Y-90036247D01*
X170924761Y-90036247D02*
X170877142Y-90226723D01*
X170877142Y-90226723D02*
X170829523Y-90321961D01*
X170829523Y-90321961D02*
X170734285Y-90417200D01*
X170734285Y-90417200D02*
X170591428Y-90464819D01*
X170591428Y-90464819D02*
X170353333Y-90464819D01*
X171210476Y-89464819D02*
X171781904Y-89464819D01*
X171496190Y-90464819D02*
X171496190Y-89464819D01*
X169996285Y-98538152D02*
X169996285Y-99204819D01*
X169758190Y-98157200D02*
X169520095Y-98871485D01*
X169520095Y-98871485D02*
X170139142Y-98871485D01*
X170424857Y-98204819D02*
X171091523Y-98204819D01*
X171091523Y-98204819D02*
X170662952Y-99204819D01*
X172043904Y-99204819D02*
X171710571Y-98728628D01*
X171472476Y-99204819D02*
X171472476Y-98204819D01*
X171472476Y-98204819D02*
X171853428Y-98204819D01*
X171853428Y-98204819D02*
X171948666Y-98252438D01*
X171948666Y-98252438D02*
X171996285Y-98300057D01*
X171996285Y-98300057D02*
X172043904Y-98395295D01*
X172043904Y-98395295D02*
X172043904Y-98538152D01*
X172043904Y-98538152D02*
X171996285Y-98633390D01*
X171996285Y-98633390D02*
X171948666Y-98681009D01*
X171948666Y-98681009D02*
X171853428Y-98728628D01*
X171853428Y-98728628D02*
X171472476Y-98728628D01*
X170615333Y-93704819D02*
X170282000Y-93228628D01*
X170043905Y-93704819D02*
X170043905Y-92704819D01*
X170043905Y-92704819D02*
X170424857Y-92704819D01*
X170424857Y-92704819D02*
X170520095Y-92752438D01*
X170520095Y-92752438D02*
X170567714Y-92800057D01*
X170567714Y-92800057D02*
X170615333Y-92895295D01*
X170615333Y-92895295D02*
X170615333Y-93038152D01*
X170615333Y-93038152D02*
X170567714Y-93133390D01*
X170567714Y-93133390D02*
X170520095Y-93181009D01*
X170520095Y-93181009D02*
X170424857Y-93228628D01*
X170424857Y-93228628D02*
X170043905Y-93228628D01*
X171520095Y-92704819D02*
X171043905Y-92704819D01*
X171043905Y-92704819D02*
X170996286Y-93181009D01*
X170996286Y-93181009D02*
X171043905Y-93133390D01*
X171043905Y-93133390D02*
X171139143Y-93085771D01*
X171139143Y-93085771D02*
X171377238Y-93085771D01*
X171377238Y-93085771D02*
X171472476Y-93133390D01*
X171472476Y-93133390D02*
X171520095Y-93181009D01*
X171520095Y-93181009D02*
X171567714Y-93276247D01*
X171567714Y-93276247D02*
X171567714Y-93514342D01*
X171567714Y-93514342D02*
X171520095Y-93609580D01*
X171520095Y-93609580D02*
X171472476Y-93657200D01*
X171472476Y-93657200D02*
X171377238Y-93704819D01*
X171377238Y-93704819D02*
X171139143Y-93704819D01*
X171139143Y-93704819D02*
X171043905Y-93657200D01*
X171043905Y-93657200D02*
X170996286Y-93609580D01*
D25*
X126303884Y-83457419D02*
X126303884Y-82457419D01*
X126303884Y-82457419D02*
X126637217Y-83171704D01*
X126637217Y-83171704D02*
X126970550Y-82457419D01*
X126970550Y-82457419D02*
X126970550Y-83457419D01*
X127399122Y-82552657D02*
X127446741Y-82505038D01*
X127446741Y-82505038D02*
X127541979Y-82457419D01*
X127541979Y-82457419D02*
X127780074Y-82457419D01*
X127780074Y-82457419D02*
X127875312Y-82505038D01*
X127875312Y-82505038D02*
X127922931Y-82552657D01*
X127922931Y-82552657D02*
X127970550Y-82647895D01*
X127970550Y-82647895D02*
X127970550Y-82743133D01*
X127970550Y-82743133D02*
X127922931Y-82885990D01*
X127922931Y-82885990D02*
X127351503Y-83457419D01*
X127351503Y-83457419D02*
X127970550Y-83457419D01*
X128399122Y-83362180D02*
X128446741Y-83409800D01*
X128446741Y-83409800D02*
X128399122Y-83457419D01*
X128399122Y-83457419D02*
X128351503Y-83409800D01*
X128351503Y-83409800D02*
X128399122Y-83362180D01*
X128399122Y-83362180D02*
X128399122Y-83457419D01*
X129351502Y-82457419D02*
X128875312Y-82457419D01*
X128875312Y-82457419D02*
X128827693Y-82933609D01*
X128827693Y-82933609D02*
X128875312Y-82885990D01*
X128875312Y-82885990D02*
X128970550Y-82838371D01*
X128970550Y-82838371D02*
X129208645Y-82838371D01*
X129208645Y-82838371D02*
X129303883Y-82885990D01*
X129303883Y-82885990D02*
X129351502Y-82933609D01*
X129351502Y-82933609D02*
X129399121Y-83028847D01*
X129399121Y-83028847D02*
X129399121Y-83266942D01*
X129399121Y-83266942D02*
X129351502Y-83362180D01*
X129351502Y-83362180D02*
X129303883Y-83409800D01*
X129303883Y-83409800D02*
X129208645Y-83457419D01*
X129208645Y-83457419D02*
X128970550Y-83457419D01*
X128970550Y-83457419D02*
X128875312Y-83409800D01*
X128875312Y-83409800D02*
X128827693Y-83362180D01*
D26*
X215615333Y-105204819D02*
X215282000Y-104728628D01*
X215043905Y-105204819D02*
X215043905Y-104204819D01*
X215043905Y-104204819D02*
X215424857Y-104204819D01*
X215424857Y-104204819D02*
X215520095Y-104252438D01*
X215520095Y-104252438D02*
X215567714Y-104300057D01*
X215567714Y-104300057D02*
X215615333Y-104395295D01*
X215615333Y-104395295D02*
X215615333Y-104538152D01*
X215615333Y-104538152D02*
X215567714Y-104633390D01*
X215567714Y-104633390D02*
X215520095Y-104681009D01*
X215520095Y-104681009D02*
X215424857Y-104728628D01*
X215424857Y-104728628D02*
X215043905Y-104728628D01*
X215948667Y-104204819D02*
X216567714Y-104204819D01*
X216567714Y-104204819D02*
X216234381Y-104585771D01*
X216234381Y-104585771D02*
X216377238Y-104585771D01*
X216377238Y-104585771D02*
X216472476Y-104633390D01*
X216472476Y-104633390D02*
X216520095Y-104681009D01*
X216520095Y-104681009D02*
X216567714Y-104776247D01*
X216567714Y-104776247D02*
X216567714Y-105014342D01*
X216567714Y-105014342D02*
X216520095Y-105109580D01*
X216520095Y-105109580D02*
X216472476Y-105157200D01*
X216472476Y-105157200D02*
X216377238Y-105204819D01*
X216377238Y-105204819D02*
X216091524Y-105204819D01*
X216091524Y-105204819D02*
X215996286Y-105157200D01*
X215996286Y-105157200D02*
X215948667Y-105109580D01*
X219591523Y-105204819D02*
X219020095Y-105204819D01*
X219305809Y-105204819D02*
X219305809Y-104204819D01*
X219305809Y-104204819D02*
X219210571Y-104347676D01*
X219210571Y-104347676D02*
X219115333Y-104442914D01*
X219115333Y-104442914D02*
X219020095Y-104490533D01*
X220210571Y-104204819D02*
X220305809Y-104204819D01*
X220305809Y-104204819D02*
X220401047Y-104252438D01*
X220401047Y-104252438D02*
X220448666Y-104300057D01*
X220448666Y-104300057D02*
X220496285Y-104395295D01*
X220496285Y-104395295D02*
X220543904Y-104585771D01*
X220543904Y-104585771D02*
X220543904Y-104823866D01*
X220543904Y-104823866D02*
X220496285Y-105014342D01*
X220496285Y-105014342D02*
X220448666Y-105109580D01*
X220448666Y-105109580D02*
X220401047Y-105157200D01*
X220401047Y-105157200D02*
X220305809Y-105204819D01*
X220305809Y-105204819D02*
X220210571Y-105204819D01*
X220210571Y-105204819D02*
X220115333Y-105157200D01*
X220115333Y-105157200D02*
X220067714Y-105109580D01*
X220067714Y-105109580D02*
X220020095Y-105014342D01*
X220020095Y-105014342D02*
X219972476Y-104823866D01*
X219972476Y-104823866D02*
X219972476Y-104585771D01*
X219972476Y-104585771D02*
X220020095Y-104395295D01*
X220020095Y-104395295D02*
X220067714Y-104300057D01*
X220067714Y-104300057D02*
X220115333Y-104252438D01*
X220115333Y-104252438D02*
X220210571Y-104204819D01*
X220972476Y-105204819D02*
X220972476Y-104204819D01*
X221543904Y-105204819D02*
X221115333Y-104633390D01*
X221543904Y-104204819D02*
X220972476Y-104776247D01*
D27*
%TO.C,R1*%
X216782000Y-117580000D02*
X217552000Y-117580000D01*
X217552000Y-116210000D02*
X217552000Y-118950000D01*
X217552000Y-118950000D02*
X224092000Y-118950000D01*
X224092000Y-116210000D02*
X217552000Y-116210000D01*
X224092000Y-118950000D02*
X224092000Y-116210000D01*
X224862000Y-117580000D02*
X224092000Y-117580000D01*
%TO.C,R4*%
X180587000Y-95990000D02*
X181357000Y-95990000D01*
X181357000Y-94620000D02*
X181357000Y-97360000D01*
X181357000Y-97360000D02*
X187897000Y-97360000D01*
X187897000Y-94620000D02*
X181357000Y-94620000D01*
X187897000Y-97360000D02*
X187897000Y-94620000D01*
X188667000Y-95990000D02*
X187897000Y-95990000D01*
D28*
%TO.C,U1*%
X210471500Y-98530000D02*
X210471500Y-85830000D01*
X213011500Y-83290000D02*
X228632500Y-83290000D01*
X228632500Y-101070000D02*
X213011500Y-101070000D01*
X231172500Y-85830000D02*
X231172500Y-98530000D01*
D25*
X209201500Y-95736000D02*
X214281500Y-95736000D01*
X214281500Y-88624000D01*
X209201500Y-88624000D01*
X209201500Y-95736000D01*
D28*
X210471500Y-85830000D02*
G75*
G02*
X213011500Y-83290000I2540000J0D01*
G01*
X213011500Y-101070000D02*
G75*
G02*
X210471500Y-98530000I0J2540000D01*
G01*
X228632500Y-83290000D02*
G75*
G02*
X231172500Y-85830000I0J-2540000D01*
G01*
X231172500Y-98530000D02*
G75*
G02*
X228632500Y-101070000I-2540000J0D01*
G01*
D27*
%TO.C,TP2*%
X134200000Y-91850000D02*
G75*
G02*
X130800000Y-91850000I-1700000J0D01*
G01*
X130800000Y-91850000D02*
G75*
G02*
X134200000Y-91850000I1700000J0D01*
G01*
D26*
%TO.C,SW1*%
X196662000Y-108810000D02*
X196662000Y-106160000D01*
X196662000Y-113772500D02*
X196662000Y-111147500D01*
X196662000Y-118760000D02*
X196662000Y-116160000D01*
X196662000Y-118760000D02*
X201162000Y-118760000D01*
X201162000Y-106160000D02*
X196662000Y-106160000D01*
X206162000Y-118760000D02*
X210662000Y-118760000D01*
X210662000Y-106160000D02*
X206262000Y-106160000D01*
X210662000Y-108860000D02*
X210662000Y-106160000D01*
X210662000Y-111360000D02*
X210662000Y-111060000D01*
X210662000Y-113860000D02*
X210662000Y-113560000D01*
X210662000Y-118760000D02*
X210662000Y-116160000D01*
D27*
%TO.C,R2*%
X216782000Y-112500000D02*
X217552000Y-112500000D01*
X217552000Y-111130000D02*
X217552000Y-113870000D01*
X217552000Y-113870000D02*
X224092000Y-113870000D01*
X224092000Y-111130000D02*
X217552000Y-111130000D01*
X224092000Y-113870000D02*
X224092000Y-111130000D01*
X224862000Y-112500000D02*
X224092000Y-112500000D01*
%TO.C,J3*%
D25*
X259050000Y-81070000D02*
X240950000Y-81070000D01*
X240950000Y-121070000D01*
X259050000Y-121070000D01*
X259050000Y-81070000D01*
X258150000Y-89860000D02*
G75*
G02*
X242150000Y-89860000I-8000000J0D01*
G01*
X242150000Y-89860000D02*
G75*
G02*
X258150000Y-89860000I8000000J0D01*
G01*
X258150000Y-111570000D02*
G75*
G02*
X242150000Y-111570000I-8000000J0D01*
G01*
X242150000Y-111570000D02*
G75*
G02*
X258150000Y-111570000I8000000J0D01*
G01*
%TO.C,Pololu_5V_1*%
X137782000Y-94870000D02*
X156544000Y-94870000D01*
X156544000Y-81870000D01*
X137782000Y-81870000D01*
X137782000Y-94870000D01*
D27*
%TO.C,D1*%
X190383153Y-84390000D02*
G75*
G02*
X190323551Y-82122634I-1311153J1100000D01*
G01*
%TO.C,TP1*%
X118097000Y-92000000D02*
G75*
G02*
X114697000Y-92000000I-1700000J0D01*
G01*
X114697000Y-92000000D02*
G75*
G02*
X118097000Y-92000000I1700000J0D01*
G01*
%TO.C,SW3*%
D25*
X182642000Y-88830000D02*
X166642000Y-88830000D01*
X166642000Y-82830000D01*
X182642000Y-82830000D01*
X182642000Y-88830000D01*
%TO.C,J1*%
X152952000Y-103850000D02*
X154652000Y-103850000D01*
X154652000Y-103050000D01*
X152952000Y-103050000D01*
X152952000Y-103850000D01*
X152952000Y-106550000D02*
X154652000Y-106550000D01*
X154652000Y-105750000D01*
X152952000Y-105750000D01*
X152952000Y-106550000D01*
X152952000Y-107650000D02*
X159152000Y-107650000D01*
X159152000Y-102050000D01*
X152952000Y-102050000D01*
X152952000Y-107650000D01*
%TO.C,Q1*%
X179677000Y-106055000D02*
X179677000Y-116405000D01*
X185677000Y-106055000D02*
X170577000Y-106055000D01*
X170577000Y-116405000D01*
X185677000Y-116405000D01*
X185677000Y-106055000D01*
D27*
%TO.C,R5*%
X166617000Y-95990000D02*
X167387000Y-95990000D01*
X167387000Y-94620000D02*
X167387000Y-97360000D01*
X167387000Y-97360000D02*
X173927000Y-97360000D01*
X173927000Y-94620000D02*
X167387000Y-94620000D01*
X173927000Y-97360000D02*
X173927000Y-94620000D01*
X174697000Y-95990000D02*
X173927000Y-95990000D01*
%TO.C,R3*%
X216782000Y-107420000D02*
X217552000Y-107420000D01*
X217552000Y-106050000D02*
X217552000Y-108790000D01*
X217552000Y-108790000D02*
X224092000Y-108790000D01*
X224092000Y-106050000D02*
X217552000Y-106050000D01*
X224092000Y-108790000D02*
X224092000Y-106050000D01*
X224862000Y-107420000D02*
X224092000Y-107420000D01*
%TO.C,J2*%
D25*
X152952000Y-114010000D02*
X154652000Y-114010000D01*
X154652000Y-113210000D01*
X152952000Y-113210000D01*
X152952000Y-114010000D01*
X152952000Y-116710000D02*
X154652000Y-116710000D01*
X154652000Y-115910000D01*
X152952000Y-115910000D01*
X152952000Y-116710000D01*
X152952000Y-117810000D02*
X159152000Y-117810000D01*
X159152000Y-112210000D01*
X152952000Y-112210000D01*
X152952000Y-117810000D01*
%TD*%
M02*
