%TF.GenerationSoftware,KiCad,Pcbnew,8.0.4*%
%TF.CreationDate,2024-09-21T18:09:02-04:00*%
%TF.ProjectId,cablight,6361626c-6967-4687-942e-6b696361645f,rev?*%
%TF.SameCoordinates,Original*%
%TF.FileFunction,Copper,L1,Top*%
%TF.FilePolarity,Positive*%
%FSLAX46Y46*%
G04 Gerber Fmt 4.6, Leading zero omitted, Abs format (unit mm)*
G04 Created by KiCad (PCBNEW 8.0.4) date 2024-09-21 18:09:02*
%MOMM*%
%LPD*%
G01*
G04 APERTURE LIST*
G04 Aperture macros list*
%AMRoundRect*
0 Rectangle with rounded corners*
0 $1 Rounding radius*
0 $2 $3 $4 $5 $6 $7 $8 $9 X,Y pos of 4 corners*
0 Add a 4 corners polygon primitive as box body*
4,1,4,$2,$3,$4,$5,$6,$7,$8,$9,$2,$3,0*
0 Add four circle primitives for the rounded corners*
1,1,$1+$1,$2,$3*
1,1,$1+$1,$4,$5*
1,1,$1+$1,$6,$7*
1,1,$1+$1,$8,$9*
0 Add four rect primitives between the rounded corners*
20,1,$1+$1,$2,$3,$4,$5,0*
20,1,$1+$1,$4,$5,$6,$7,0*
20,1,$1+$1,$6,$7,$8,$9,0*
20,1,$1+$1,$8,$9,$2,$3,0*%
G04 Aperture macros list end*
%TA.AperFunction,ComponentPad*%
%ADD10C,1.600000*%
%TD*%
%TA.AperFunction,ComponentPad*%
%ADD11O,1.600000X1.600000*%
%TD*%
%TA.AperFunction,ComponentPad*%
%ADD12C,1.800000*%
%TD*%
%TA.AperFunction,ComponentPad*%
%ADD13C,3.000000*%
%TD*%
%TA.AperFunction,ComponentPad*%
%ADD14RoundRect,1.500000X0.500000X-0.000010X0.500000X0.000010X-0.500000X0.000010X-0.500000X-0.000010X0*%
%TD*%
%TA.AperFunction,ComponentPad*%
%ADD15R,1.600000X1.600000*%
%TD*%
%TA.AperFunction,ComponentPad*%
%ADD16C,4.500000*%
%TD*%
%TA.AperFunction,ComponentPad*%
%ADD17R,2.200000X2.200000*%
%TD*%
%TA.AperFunction,ComponentPad*%
%ADD18O,2.200000X2.200000*%
%TD*%
%TA.AperFunction,ComponentPad*%
%ADD19O,1.500000X3.000000*%
%TD*%
%TA.AperFunction,ComponentPad*%
%ADD20C,2.000000*%
%TD*%
%TA.AperFunction,ComponentPad*%
%ADD21R,2.000000X1.900000*%
%TD*%
%TA.AperFunction,ComponentPad*%
%ADD22O,2.500000X1.900000*%
%TD*%
%TA.AperFunction,ComponentPad*%
%ADD23C,6.000000*%
%TD*%
%TA.AperFunction,ViaPad*%
%ADD24C,0.900000*%
%TD*%
%TA.AperFunction,Conductor*%
%ADD25C,2.000000*%
%TD*%
%TA.AperFunction,Conductor*%
%ADD26C,3.000000*%
%TD*%
%TA.AperFunction,Conductor*%
%ADD27C,1.600000*%
%TD*%
%TA.AperFunction,Conductor*%
%ADD28C,0.800000*%
%TD*%
%TA.AperFunction,Conductor*%
%ADD29C,1.000000*%
%TD*%
%TA.AperFunction,Conductor*%
%ADD30C,0.600000*%
%TD*%
%TA.AperFunction,Conductor*%
%ADD31C,0.400000*%
%TD*%
%ADD32C,0.200000*%
%ADD33C,0.100000*%
%ADD34C,0.150000*%
%ADD35C,0.120000*%
%ADD36C,0.050000*%
G04 APERTURE END LIST*
D10*
%TO.P,R1,1*%
%TO.N,Net-(J3-Vcc)*%
X225902000Y-117580000D03*
D11*
%TO.P,R1,2*%
%TO.N,Net-(U1-GPIO_8)*%
X215742000Y-117580000D03*
%TD*%
D10*
%TO.P,R4,1*%
%TO.N,Net-(U1-GPIO_18)*%
X179547000Y-95990000D03*
D11*
%TO.P,R4,2*%
%TO.N,<NO NET>*%
X189707000Y-95990000D03*
%TD*%
D12*
%TO.P,U1,1,GPIO_18*%
%TO.N,Net-(U1-GPIO_18)*%
X213202000Y-99800000D03*
%TO.P,U1,2,GPIO_17*%
%TO.N,Net-(SW1-S2)*%
X215742000Y-99800000D03*
%TO.P,U1,3,GPIO_9*%
%TO.N,Net-(U1-GPIO_9)*%
X218282000Y-99800000D03*
%TO.P,U1,4,GPIO_8*%
%TO.N,Net-(U1-GPIO_8)*%
X220822000Y-99800000D03*
%TO.P,U1,5,GPIO_7*%
%TO.N,unconnected-(U1-GPIO_7-Pad5)*%
X223362000Y-99800000D03*
%TO.P,U1,6,GPIO_6*%
%TO.N,Net-(J3-ECHO)*%
X225902000Y-99800000D03*
%TO.P,U1,7,GPIO_5*%
%TO.N,unconnected-(U1-GPIO_5-Pad7)*%
X228442000Y-99800000D03*
%TO.P,U1,8,GPIO_16*%
%TO.N,Net-(J3-TRIG)*%
X228442000Y-84560000D03*
%TO.P,U1,9,GPIO_36*%
%TO.N,unconnected-(U1-GPIO_36-Pad9)*%
X225902000Y-84560000D03*
%TO.P,U1,10,GPIO_37*%
%TO.N,unconnected-(U1-GPIO_37-Pad10)*%
X223362000Y-84560000D03*
%TO.P,U1,11,GPIO_35*%
%TO.N,unconnected-(U1-GPIO_35-Pad11)*%
X220822000Y-84560000D03*
%TO.P,U1,12,3.3V*%
%TO.N,Net-(J3-Vcc)*%
X218282000Y-84560000D03*
%TO.P,U1,13,GND*%
%TO.N,<NO NET>*%
X215742000Y-84560000D03*
%TO.P,U1,14,5V*%
%TO.N,/+5V_MCU*%
X213202000Y-84560000D03*
%TD*%
D13*
%TO.P,TP2,1,1*%
%TO.N,/+5V*%
X132500000Y-91850000D03*
%TD*%
D14*
%TO.P,SW1,*%
%TO.N,*%
X203662000Y-118460000D03*
X203662000Y-106460000D03*
D10*
%TO.P,SW1,1,S1*%
%TO.N,<NO NET>*%
X196662000Y-114960000D03*
%TO.P,SW1,2,S2*%
%TO.N,Net-(SW1-S2)*%
X196662000Y-109960000D03*
D15*
%TO.P,SW1,A,A*%
%TO.N,Net-(U1-GPIO_8)*%
X210662000Y-114960000D03*
D10*
%TO.P,SW1,B,B*%
%TO.N,Net-(U1-GPIO_9)*%
X210662000Y-109960000D03*
%TO.P,SW1,C,C*%
%TO.N,<NO NET>*%
X210662000Y-112460000D03*
%TD*%
D16*
%TO.P,REF\u002A\u002A,M*%
%TO.N,N/C*%
X234982000Y-109000000D03*
%TD*%
%TO.P,REF\u002A\u002A,M*%
%TO.N,N/C*%
X115000000Y-117000000D03*
%TD*%
%TO.P,REF\u002A\u002A,M*%
%TO.N,N/C*%
X200500000Y-92500000D03*
%TD*%
D10*
%TO.P,R2,1*%
%TO.N,Net-(J3-Vcc)*%
X225902000Y-112500000D03*
D11*
%TO.P,R2,2*%
%TO.N,Net-(U1-GPIO_9)*%
X215742000Y-112500000D03*
%TD*%
D10*
%TO.P,J3,*%
%TO.N,*%
X257700000Y-82420000D03*
X242300000Y-82420000D03*
X257700000Y-119695000D03*
X242300000Y-119720000D03*
%TO.P,J3,1,Vcc*%
%TO.N,Net-(J3-Vcc)*%
X242412000Y-97260000D03*
%TO.P,J3,2,TRIG*%
%TO.N,Net-(J3-TRIG)*%
X242412000Y-99800000D03*
%TO.P,J3,3,ECHO*%
%TO.N,Net-(J3-ECHO)*%
X242412000Y-102340000D03*
%TO.P,J3,4,GND*%
%TO.N,<NO NET>*%
X242412000Y-104880000D03*
%TD*%
D15*
%TO.P,Pololu_5V_1,1,PG*%
%TO.N,unconnected-(Pololu_5V_1-PG-Pad1)*%
X154782000Y-93450000D03*
D10*
%TO.P,Pololu_5V_1,2,SHDN*%
%TO.N,unconnected-(Pololu_5V_1-SHDN-Pad2)*%
X154782000Y-90910000D03*
%TO.P,Pololu_5V_1,3,VIN_24V*%
%TO.N,/+24V*%
X154782000Y-88370000D03*
%TO.P,Pololu_5V_1,4,GND*%
%TO.N,<NO NET>*%
X154782000Y-85830000D03*
%TO.P,Pololu_5V_1,5,VOUT_5V*%
%TO.N,/+5V*%
X154782000Y-83290000D03*
%TD*%
D17*
%TO.P,D1,1,K*%
%TO.N,/+5V_MCU*%
X191612000Y-83290000D03*
D18*
%TO.P,D1,2,A*%
%TO.N,/+5V_SW*%
X189072000Y-83290000D03*
%TD*%
D13*
%TO.P,TP1,1,1*%
%TO.N,<NO NET>*%
X116397000Y-92000000D03*
%TD*%
D19*
%TO.P,SW3,*%
%TO.N,*%
X180442000Y-85830000D03*
D20*
X171642000Y-85830000D03*
D19*
X168842000Y-85830000D03*
D20*
%TO.P,SW3,1*%
%TO.N,/+5V*%
X174642000Y-85830000D03*
%TO.P,SW3,2*%
%TO.N,/+5V_SW*%
X177642000Y-85830000D03*
%TD*%
%TO.P,J1,1,Pin_1*%
%TO.N,/+24V*%
X156052000Y-106150000D03*
%TO.P,J1,2,Pin_2*%
%TO.N,<NO NET>*%
X156052000Y-103610000D03*
%TD*%
D21*
%TO.P,Q1,1,G*%
%TO.N,Net-(Q1-G)*%
X165577000Y-108690000D03*
D22*
%TO.P,Q1,2,D*%
%TO.N,/LED-*%
X165577000Y-111230000D03*
%TO.P,Q1,3,S*%
%TO.N,<NO NET>*%
X165577000Y-113770000D03*
%TD*%
D10*
%TO.P,R5,1*%
%TO.N,Net-(U1-GPIO_18)*%
X175737000Y-95990000D03*
D11*
%TO.P,R5,2*%
%TO.N,Net-(Q1-G)*%
X165577000Y-95990000D03*
%TD*%
D16*
%TO.P,REF\u002A\u002A,M*%
%TO.N,N/C*%
X123000000Y-86000000D03*
%TD*%
D10*
%TO.P,R3,1*%
%TO.N,Net-(J3-Vcc)*%
X225902000Y-107420000D03*
D11*
%TO.P,R3,2*%
%TO.N,Net-(SW1-S2)*%
X215742000Y-107420000D03*
%TD*%
D20*
%TO.P,J2,1,Pin_1*%
%TO.N,/LED-*%
X156052000Y-116310000D03*
%TO.P,J2,2,Pin_2*%
%TO.N,/+24V*%
X156052000Y-113770000D03*
%TD*%
D23*
%TO.P,M3,M*%
%TO.N,N/C*%
X182882000Y-111240000D03*
%TD*%
D24*
%TO.N,<NO NET>*%
X206000000Y-102000000D03*
X240350000Y-97380000D03*
X222750000Y-120000000D03*
X245000000Y-89000000D03*
X240110000Y-88200000D03*
X236500000Y-105500000D03*
X222750000Y-103750000D03*
X252000000Y-113000000D03*
X230000000Y-110500000D03*
X190000000Y-102000000D03*
X239500000Y-110500000D03*
X251000000Y-89000000D03*
X189000000Y-111250000D03*
X254000000Y-95500000D03*
X226000000Y-97000000D03*
X222750000Y-115000000D03*
X183992000Y-85195000D03*
X246000000Y-113000000D03*
X226000000Y-91000000D03*
X239000000Y-101740000D03*
X178500000Y-106000000D03*
X240410000Y-93000000D03*
X213000000Y-104500000D03*
X222750000Y-110000000D03*
X226000000Y-102500000D03*
X235600000Y-84170000D03*
X223000000Y-97000000D03*
X228000000Y-104500000D03*
X178500000Y-117000000D03*
X176500000Y-99000000D03*
X254000000Y-107500000D03*
X232000000Y-105500000D03*
X231500000Y-86500000D03*
%TD*%
D25*
%TO.N,/+24V*%
X156042000Y-106150000D02*
X156052000Y-106160000D01*
D26*
%TO.N,Net-(J3-Vcc)*%
X225902000Y-112500000D02*
X226762000Y-113360000D01*
X254477000Y-85195000D02*
X241398044Y-85195000D01*
X225902000Y-112500000D02*
X225902000Y-117580000D01*
X244317000Y-116945000D02*
X253842000Y-116945000D01*
X240732000Y-113360000D02*
X244317000Y-116945000D01*
X253842000Y-116945000D02*
X257700000Y-113087000D01*
X257700000Y-88418000D02*
X254477000Y-85195000D01*
D27*
X242412000Y-97260000D02*
X242412000Y-85195000D01*
D26*
X225902000Y-112500000D02*
X225902000Y-107420000D01*
X257700000Y-113087000D02*
X257700000Y-88418000D01*
X226762000Y-113360000D02*
X240732000Y-113360000D01*
D28*
%TO.N,Net-(Q1-G)*%
X165577000Y-108690000D02*
X165577000Y-95990000D01*
%TO.N,Net-(U1-GPIO_18)*%
X179547000Y-98530000D02*
X179547000Y-95990000D01*
X213202000Y-99800000D02*
X180817000Y-99800000D01*
X175737000Y-95990000D02*
X179547000Y-95990000D01*
X180817000Y-99800000D02*
X179547000Y-98530000D01*
D29*
%TO.N,Net-(J3-ECHO)*%
X240852000Y-103900000D02*
X230002000Y-103900000D01*
X230002000Y-103900000D02*
X225902000Y-99800000D01*
X242412000Y-102340000D02*
X240852000Y-103900000D01*
%TO.N,Net-(J3-TRIG)*%
X238602000Y-98530000D02*
X239872000Y-99800000D01*
X233522000Y-84560000D02*
X238602000Y-89640000D01*
X239872000Y-99800000D02*
X242412000Y-99800000D01*
X228442000Y-84560000D02*
X233522000Y-84560000D01*
X238602000Y-89640000D02*
X238602000Y-98530000D01*
D30*
X242412000Y-99800000D02*
X242412000Y-99657500D01*
D28*
%TO.N,Net-(U1-GPIO_8)*%
X218282000Y-117580000D02*
X220822000Y-115040000D01*
X215742000Y-117580000D02*
X218282000Y-117580000D01*
X215742000Y-117580000D02*
X213122000Y-114960000D01*
X213122000Y-114960000D02*
X210662000Y-114960000D01*
X220822000Y-115040000D02*
X220822000Y-99800000D01*
%TO.N,Net-(U1-GPIO_9)*%
X217012000Y-112500000D02*
X218282000Y-111230000D01*
X215742000Y-112500000D02*
X213202000Y-109960000D01*
X215742000Y-112500000D02*
X217012000Y-112500000D01*
X213202000Y-109960000D02*
X210662000Y-109960000D01*
X218282000Y-111230000D02*
X218282000Y-99800000D01*
%TO.N,Net-(SW1-S2)*%
X215742000Y-107420000D02*
X209392000Y-107420000D01*
X209392000Y-107420000D02*
X206852000Y-109960000D01*
X206852000Y-109960000D02*
X196662000Y-109960000D01*
X215742000Y-107420000D02*
X215742000Y-99800000D01*
D25*
%TO.N,/+5V*%
X174642000Y-82392000D02*
X174050000Y-81800000D01*
X174642000Y-82392000D02*
X174642000Y-85830000D01*
D31*
X132382000Y-91850000D02*
X140942000Y-83290000D01*
X140942000Y-83290000D02*
X154782000Y-83290000D01*
D25*
X158210000Y-83290000D02*
X161260000Y-83290000D01*
D27*
X154782000Y-83290000D02*
X158210000Y-83290000D01*
D25*
X161260000Y-83290000D02*
X162750000Y-81800000D01*
X174050000Y-81800000D02*
X162750000Y-81800000D01*
%TO.N,/+5V_SW*%
X187972001Y-82127999D02*
X187644002Y-81800000D01*
X189072000Y-83290000D02*
X187972001Y-82190001D01*
X177642000Y-83758000D02*
X177642000Y-85830000D01*
X187972001Y-82190001D02*
X187972001Y-82127999D01*
X187644002Y-81800000D02*
X179600000Y-81800000D01*
X179600000Y-81800000D02*
X177642000Y-83758000D01*
%TO.N,/+5V_MCU*%
X213202000Y-84560000D02*
X210442000Y-81800000D01*
X193102000Y-81800000D02*
X191612000Y-83290000D01*
X210442000Y-81800000D02*
X193102000Y-81800000D01*
%TD*%
%TA.AperFunction,Conductor*%
%TO.N,<NO NET>*%
G36*
X172987788Y-83319454D02*
G01*
X173068570Y-83373430D01*
X173122546Y-83454212D01*
X173141500Y-83549500D01*
X173141500Y-84605283D01*
X173122546Y-84700571D01*
X173068570Y-84781353D01*
X172987788Y-84835329D01*
X172892500Y-84854283D01*
X172797212Y-84835329D01*
X172716430Y-84781353D01*
X172709306Y-84773927D01*
X172661752Y-84722270D01*
X172661746Y-84722264D01*
X172661744Y-84722262D01*
X172659434Y-84720464D01*
X172465514Y-84569529D01*
X172465510Y-84569526D01*
X172465509Y-84569526D01*
X172367967Y-84516739D01*
X172246811Y-84451172D01*
X172011621Y-84370430D01*
X172011610Y-84370428D01*
X171766335Y-84329500D01*
X171517665Y-84329500D01*
X171272389Y-84370428D01*
X171272378Y-84370430D01*
X171037188Y-84451172D01*
X170818485Y-84569529D01*
X170622261Y-84722257D01*
X170622254Y-84722264D01*
X170480769Y-84875958D01*
X170402287Y-84933226D01*
X170307863Y-84956101D01*
X170211873Y-84941101D01*
X170128930Y-84890509D01*
X170071662Y-84812027D01*
X170060764Y-84784265D01*
X170027071Y-84680569D01*
X170000888Y-84599985D01*
X170000884Y-84599976D01*
X170000884Y-84599975D01*
X169911524Y-84424595D01*
X169908598Y-84420568D01*
X169795830Y-84265357D01*
X169795828Y-84265354D01*
X169656646Y-84126172D01*
X169545197Y-84045199D01*
X169497410Y-84010479D01*
X169497407Y-84010477D01*
X169497405Y-84010476D01*
X169322025Y-83921116D01*
X169322024Y-83921115D01*
X169322023Y-83921115D01*
X169322017Y-83921113D01*
X169214928Y-83886318D01*
X169134826Y-83860291D01*
X169134824Y-83860290D01*
X169134822Y-83860290D01*
X168940428Y-83829501D01*
X168940419Y-83829500D01*
X168940417Y-83829500D01*
X168743583Y-83829500D01*
X168743580Y-83829500D01*
X168743571Y-83829501D01*
X168549177Y-83860290D01*
X168361982Y-83921113D01*
X168361976Y-83921115D01*
X168270740Y-83967602D01*
X168186595Y-84010476D01*
X168186592Y-84010477D01*
X168186590Y-84010479D01*
X168186589Y-84010479D01*
X168027357Y-84126169D01*
X167888169Y-84265357D01*
X167772479Y-84424589D01*
X167772479Y-84424590D01*
X167772477Y-84424592D01*
X167772476Y-84424595D01*
X167732901Y-84502266D01*
X167683115Y-84599976D01*
X167683113Y-84599982D01*
X167622290Y-84787177D01*
X167591501Y-84981571D01*
X167591500Y-84981587D01*
X167591500Y-86678412D01*
X167591501Y-86678428D01*
X167621695Y-86869066D01*
X167622291Y-86872826D01*
X167642172Y-86934014D01*
X167682844Y-87059190D01*
X167683116Y-87060025D01*
X167772476Y-87235405D01*
X167772479Y-87235409D01*
X167772479Y-87235410D01*
X167845041Y-87335282D01*
X167888172Y-87394646D01*
X168027354Y-87533828D01*
X168035948Y-87540072D01*
X168129479Y-87608027D01*
X168186595Y-87649524D01*
X168361975Y-87738884D01*
X168549174Y-87799709D01*
X168743583Y-87830500D01*
X168743587Y-87830500D01*
X168940413Y-87830500D01*
X168940417Y-87830500D01*
X169134826Y-87799709D01*
X169322025Y-87738884D01*
X169497405Y-87649524D01*
X169656646Y-87533828D01*
X169795828Y-87394646D01*
X169911524Y-87235405D01*
X170000884Y-87060025D01*
X170060764Y-86875733D01*
X170108232Y-86790974D01*
X170184529Y-86730825D01*
X170278036Y-86704453D01*
X170374518Y-86715871D01*
X170459285Y-86763343D01*
X170480769Y-86784042D01*
X170622248Y-86937730D01*
X170622252Y-86937733D01*
X170622256Y-86937738D01*
X170622260Y-86937741D01*
X170622261Y-86937742D01*
X170818485Y-87090470D01*
X170818487Y-87090471D01*
X170818491Y-87090474D01*
X171037190Y-87208828D01*
X171074720Y-87221712D01*
X171272378Y-87289569D01*
X171272382Y-87289569D01*
X171272386Y-87289571D01*
X171517665Y-87330500D01*
X171766335Y-87330500D01*
X172011614Y-87289571D01*
X172011618Y-87289569D01*
X172011621Y-87289569D01*
X172115549Y-87253890D01*
X172246810Y-87208828D01*
X172465509Y-87090474D01*
X172661744Y-86937738D01*
X172830164Y-86754785D01*
X172931557Y-86599590D01*
X172999538Y-86530189D01*
X173088908Y-86492083D01*
X173186058Y-86491078D01*
X173276197Y-86527327D01*
X173345603Y-86595312D01*
X173353272Y-86608244D01*
X173353539Y-86608081D01*
X173358654Y-86616427D01*
X173358657Y-86616433D01*
X173358660Y-86616437D01*
X173402563Y-86676865D01*
X173409572Y-86687033D01*
X173453836Y-86754786D01*
X173453839Y-86754789D01*
X173469404Y-86771697D01*
X173487651Y-86793978D01*
X173492752Y-86800998D01*
X173497484Y-86807511D01*
X173497485Y-86807512D01*
X173555414Y-86865442D01*
X173562538Y-86872867D01*
X173622248Y-86937730D01*
X173622256Y-86937738D01*
X173634654Y-86947388D01*
X173634666Y-86947397D01*
X173657787Y-86967815D01*
X173664484Y-86974512D01*
X173664488Y-86974515D01*
X173664490Y-86974517D01*
X173736614Y-87026918D01*
X173743168Y-87031848D01*
X173818485Y-87090470D01*
X173818498Y-87090479D01*
X173825929Y-87094500D01*
X173853777Y-87112043D01*
X173855564Y-87113341D01*
X173855567Y-87113343D01*
X173941445Y-87157100D01*
X173946878Y-87159953D01*
X174037190Y-87208828D01*
X174038323Y-87209216D01*
X174056874Y-87217082D01*
X174056980Y-87216828D01*
X174065999Y-87220563D01*
X174066008Y-87220568D01*
X174164576Y-87252594D01*
X174168433Y-87253884D01*
X174272385Y-87289571D01*
X174274691Y-87290155D01*
X174286332Y-87292521D01*
X174290622Y-87293550D01*
X174290623Y-87293550D01*
X174290632Y-87293553D01*
X174400315Y-87310924D01*
X174401897Y-87311181D01*
X174517665Y-87330500D01*
X174517668Y-87330500D01*
X174766330Y-87330500D01*
X174766335Y-87330500D01*
X174881950Y-87311206D01*
X174883732Y-87310916D01*
X174993368Y-87293553D01*
X174993376Y-87293550D01*
X174997648Y-87292525D01*
X175009283Y-87290160D01*
X175011599Y-87289573D01*
X175011614Y-87289571D01*
X175115547Y-87253890D01*
X175119453Y-87252585D01*
X175159933Y-87239432D01*
X175217992Y-87220568D01*
X175218003Y-87220562D01*
X175227027Y-87216825D01*
X175227132Y-87217080D01*
X175245690Y-87209212D01*
X175246810Y-87208828D01*
X175337187Y-87159917D01*
X175342494Y-87157130D01*
X175428433Y-87113343D01*
X175430212Y-87112050D01*
X175458069Y-87094499D01*
X175465509Y-87090474D01*
X175540840Y-87031840D01*
X175547393Y-87026911D01*
X175619510Y-86974517D01*
X175626203Y-86967823D01*
X175649336Y-86947394D01*
X175661744Y-86937738D01*
X175721508Y-86872815D01*
X175728564Y-86865461D01*
X175786517Y-86807510D01*
X175796346Y-86793979D01*
X175814598Y-86771692D01*
X175830164Y-86754785D01*
X175874448Y-86687000D01*
X175881407Y-86676902D01*
X175925343Y-86616433D01*
X175925350Y-86616417D01*
X175929684Y-86609347D01*
X175995629Y-86538000D01*
X176083857Y-86497320D01*
X176180937Y-86493500D01*
X176272089Y-86527122D01*
X176343436Y-86593067D01*
X176354298Y-86609321D01*
X176358655Y-86616431D01*
X176402563Y-86676865D01*
X176409572Y-86687033D01*
X176453836Y-86754786D01*
X176453839Y-86754789D01*
X176469404Y-86771697D01*
X176487651Y-86793978D01*
X176492752Y-86800998D01*
X176497484Y-86807511D01*
X176497485Y-86807512D01*
X176555414Y-86865442D01*
X176562538Y-86872867D01*
X176622248Y-86937730D01*
X176622256Y-86937738D01*
X176634654Y-86947388D01*
X176634666Y-86947397D01*
X176657787Y-86967815D01*
X176664484Y-86974512D01*
X176664488Y-86974515D01*
X176664490Y-86974517D01*
X176736614Y-87026918D01*
X176743168Y-87031848D01*
X176818485Y-87090470D01*
X176818498Y-87090479D01*
X176825929Y-87094500D01*
X176853777Y-87112043D01*
X176855564Y-87113341D01*
X176855567Y-87113343D01*
X176941445Y-87157100D01*
X176946878Y-87159953D01*
X177037190Y-87208828D01*
X177038323Y-87209216D01*
X177056874Y-87217082D01*
X177056980Y-87216828D01*
X177065999Y-87220563D01*
X177066008Y-87220568D01*
X177164576Y-87252594D01*
X177168433Y-87253884D01*
X177272385Y-87289571D01*
X177274691Y-87290155D01*
X177286332Y-87292521D01*
X177290622Y-87293550D01*
X177290623Y-87293550D01*
X177290632Y-87293553D01*
X177400315Y-87310924D01*
X177401897Y-87311181D01*
X177517665Y-87330500D01*
X177517668Y-87330500D01*
X177766330Y-87330500D01*
X177766335Y-87330500D01*
X177881950Y-87311206D01*
X177883732Y-87310916D01*
X177993368Y-87293553D01*
X177993376Y-87293550D01*
X177997648Y-87292525D01*
X178009283Y-87290160D01*
X178011599Y-87289573D01*
X178011614Y-87289571D01*
X178115547Y-87253890D01*
X178119453Y-87252585D01*
X178159933Y-87239432D01*
X178217992Y-87220568D01*
X178218003Y-87220562D01*
X178227027Y-87216825D01*
X178227132Y-87217080D01*
X178245690Y-87209212D01*
X178246810Y-87208828D01*
X178337187Y-87159917D01*
X178342494Y-87157130D01*
X178428433Y-87113343D01*
X178430212Y-87112050D01*
X178458069Y-87094499D01*
X178465509Y-87090474D01*
X178540840Y-87031840D01*
X178547393Y-87026911D01*
X178619510Y-86974517D01*
X178626203Y-86967823D01*
X178649336Y-86947394D01*
X178661744Y-86937738D01*
X178721508Y-86872815D01*
X178728564Y-86865461D01*
X178786517Y-86807510D01*
X178786523Y-86807502D01*
X178792871Y-86800071D01*
X178793956Y-86800998D01*
X178857035Y-86742675D01*
X178948180Y-86709036D01*
X179045261Y-86712837D01*
X179133497Y-86753500D01*
X179199455Y-86824835D01*
X179223978Y-86878019D01*
X179282844Y-87059190D01*
X179283116Y-87060025D01*
X179372476Y-87235405D01*
X179372479Y-87235409D01*
X179372479Y-87235410D01*
X179445041Y-87335282D01*
X179488172Y-87394646D01*
X179627354Y-87533828D01*
X179635948Y-87540072D01*
X179729479Y-87608027D01*
X179786595Y-87649524D01*
X179961975Y-87738884D01*
X180149174Y-87799709D01*
X180343583Y-87830500D01*
X180343587Y-87830500D01*
X180540413Y-87830500D01*
X180540417Y-87830500D01*
X180734826Y-87799709D01*
X180922025Y-87738884D01*
X181097405Y-87649524D01*
X181256646Y-87533828D01*
X181395828Y-87394646D01*
X181511524Y-87235405D01*
X181600884Y-87060025D01*
X181661709Y-86872826D01*
X181692500Y-86678417D01*
X181692500Y-84981583D01*
X181661709Y-84787174D01*
X181600884Y-84599975D01*
X181511524Y-84424595D01*
X181508598Y-84420568D01*
X181395830Y-84265357D01*
X181395828Y-84265354D01*
X181256646Y-84126172D01*
X181145197Y-84045199D01*
X181097410Y-84010479D01*
X181097407Y-84010477D01*
X181097405Y-84010476D01*
X180922025Y-83921116D01*
X180922024Y-83921115D01*
X180922023Y-83921115D01*
X180922017Y-83921113D01*
X180814928Y-83886318D01*
X180734826Y-83860291D01*
X180734824Y-83860290D01*
X180734822Y-83860290D01*
X180540428Y-83829501D01*
X180540419Y-83829500D01*
X180540417Y-83829500D01*
X180343583Y-83829500D01*
X180343581Y-83829500D01*
X180343567Y-83829501D01*
X180326906Y-83832140D01*
X180229826Y-83828324D01*
X180141597Y-83787646D01*
X180075650Y-83716301D01*
X180042026Y-83625150D01*
X180045842Y-83528070D01*
X180086520Y-83439841D01*
X180111894Y-83410133D01*
X180148600Y-83373428D01*
X180229382Y-83319453D01*
X180324667Y-83300500D01*
X186857334Y-83300500D01*
X186952622Y-83319454D01*
X187033400Y-83373427D01*
X187311793Y-83651821D01*
X187580139Y-83920167D01*
X187634113Y-84000944D01*
X187641535Y-84018862D01*
X187773158Y-84233652D01*
X187773160Y-84233654D01*
X187773163Y-84233657D01*
X187773164Y-84233659D01*
X187936776Y-84425224D01*
X188112885Y-84575635D01*
X188128345Y-84588839D01*
X188128347Y-84588841D01*
X188278035Y-84680569D01*
X188343141Y-84720466D01*
X188575889Y-84816873D01*
X188820852Y-84875683D01*
X188892608Y-84881330D01*
X189071995Y-84895449D01*
X189072000Y-84895449D01*
X189072005Y-84895449D01*
X189228967Y-84883095D01*
X189323148Y-84875683D01*
X189568111Y-84816873D01*
X189800859Y-84720466D01*
X189835938Y-84698968D01*
X189927085Y-84665340D01*
X190024165Y-84669153D01*
X190112397Y-84709825D01*
X190142113Y-84735204D01*
X190154451Y-84747542D01*
X190154454Y-84747546D01*
X190269669Y-84833796D01*
X190404517Y-84884091D01*
X190464127Y-84890500D01*
X192759872Y-84890499D01*
X192819483Y-84884091D01*
X192954331Y-84833796D01*
X193069546Y-84747546D01*
X193155796Y-84632331D01*
X193206091Y-84497483D01*
X193212500Y-84437873D01*
X193212499Y-83914664D01*
X193231453Y-83819377D01*
X193285426Y-83738599D01*
X193650597Y-83373430D01*
X193731378Y-83319454D01*
X193826666Y-83300500D01*
X209717333Y-83300500D01*
X209812621Y-83319454D01*
X209893403Y-83373430D01*
X212224490Y-85704517D01*
X212415566Y-85843343D01*
X212626007Y-85950568D01*
X212850631Y-86023552D01*
X213083908Y-86060499D01*
X213083912Y-86060499D01*
X213320087Y-86060499D01*
X213320091Y-86060499D01*
X213553368Y-86023552D01*
X213777992Y-85950568D01*
X213988433Y-85843343D01*
X214179510Y-85704517D01*
X214346517Y-85537510D01*
X214346519Y-85537506D01*
X214346523Y-85537503D01*
X214352877Y-85530064D01*
X214355228Y-85532072D01*
X214411808Y-85479548D01*
X214502886Y-85445727D01*
X214599974Y-85449335D01*
X214688291Y-85489822D01*
X214725556Y-85522934D01*
X214790554Y-85593540D01*
X214790560Y-85593545D01*
X214973650Y-85736051D01*
X215177700Y-85846477D01*
X215241999Y-85868551D01*
X215242000Y-85868550D01*
X215242000Y-84625826D01*
X215276075Y-84752993D01*
X215341901Y-84867007D01*
X215434993Y-84960099D01*
X215549007Y-85025925D01*
X215676174Y-85060000D01*
X215807826Y-85060000D01*
X215934993Y-85025925D01*
X216049007Y-84960099D01*
X216142099Y-84867007D01*
X216207925Y-84752993D01*
X216242000Y-84625826D01*
X216242000Y-85868551D01*
X216306299Y-85846477D01*
X216510349Y-85736051D01*
X216693439Y-85593545D01*
X216693444Y-85593541D01*
X216827818Y-85447572D01*
X216906300Y-85390304D01*
X217000723Y-85367428D01*
X217096713Y-85382427D01*
X217179657Y-85433019D01*
X217196676Y-85450292D01*
X217230779Y-85488452D01*
X217256772Y-85514446D01*
X217263893Y-85521868D01*
X217330214Y-85593911D01*
X217330224Y-85593920D01*
X217354269Y-85612635D01*
X217367247Y-85623462D01*
X217395797Y-85648977D01*
X217417506Y-85666290D01*
X217461273Y-85697345D01*
X217463767Y-85699115D01*
X217466652Y-85701043D01*
X217466533Y-85701220D01*
X217481997Y-85712049D01*
X217513364Y-85736463D01*
X217513371Y-85736467D01*
X217513374Y-85736470D01*
X217577248Y-85771036D01*
X217591198Y-85779183D01*
X217610718Y-85791449D01*
X217610727Y-85791454D01*
X217610732Y-85791457D01*
X217660353Y-85818881D01*
X217660357Y-85818883D01*
X217685385Y-85830935D01*
X217688560Y-85832356D01*
X217688502Y-85832485D01*
X217707555Y-85841555D01*
X217717497Y-85846936D01*
X217937014Y-85922296D01*
X217937015Y-85922297D01*
X217937017Y-85922297D01*
X217937019Y-85922298D01*
X217946059Y-85923806D01*
X217960436Y-85926644D01*
X217983129Y-85931824D01*
X218039019Y-85941321D01*
X218069411Y-85944745D01*
X218082455Y-85946566D01*
X218165951Y-85960500D01*
X218199949Y-85960500D01*
X218213902Y-85960890D01*
X218268116Y-85963935D01*
X218268127Y-85963935D01*
X218295883Y-85963935D01*
X218295884Y-85963935D01*
X218350064Y-85960891D01*
X218364022Y-85960500D01*
X218398045Y-85960500D01*
X218398049Y-85960500D01*
X218481590Y-85946559D01*
X218494607Y-85944742D01*
X218524980Y-85941320D01*
X218580870Y-85931824D01*
X218603550Y-85926647D01*
X218617943Y-85923805D01*
X218626981Y-85922298D01*
X218846503Y-85846936D01*
X218856447Y-85841553D01*
X218875492Y-85832491D01*
X218875433Y-85832358D01*
X218878612Y-85830935D01*
X218878629Y-85830928D01*
X218903646Y-85818881D01*
X218953267Y-85791457D01*
X218953280Y-85791449D01*
X218953282Y-85791448D01*
X218972786Y-85779192D01*
X218986752Y-85771036D01*
X219050626Y-85736470D01*
X219082018Y-85712036D01*
X219097450Y-85701230D01*
X219097332Y-85701052D01*
X219100237Y-85699110D01*
X219100236Y-85699110D01*
X219100253Y-85699100D01*
X219146493Y-85666290D01*
X219168202Y-85648977D01*
X219196736Y-85623475D01*
X219209710Y-85612648D01*
X219233784Y-85593913D01*
X219300128Y-85521842D01*
X219307234Y-85514437D01*
X219311751Y-85509920D01*
X219333209Y-85488463D01*
X219366987Y-85450666D01*
X219444613Y-85392247D01*
X219538689Y-85367981D01*
X219634890Y-85381563D01*
X219718570Y-85430925D01*
X219735844Y-85447946D01*
X219870214Y-85593911D01*
X219870220Y-85593916D01*
X220052835Y-85736051D01*
X220053374Y-85736470D01*
X220117228Y-85771026D01*
X220257487Y-85846931D01*
X220257489Y-85846931D01*
X220257497Y-85846936D01*
X220477019Y-85922298D01*
X220705951Y-85960500D01*
X220938049Y-85960500D01*
X221166981Y-85922298D01*
X221386503Y-85846936D01*
X221590626Y-85736470D01*
X221773784Y-85593913D01*
X221881920Y-85476446D01*
X221908805Y-85447241D01*
X221987286Y-85389972D01*
X222081710Y-85367097D01*
X222177700Y-85382097D01*
X222260643Y-85432689D01*
X222275195Y-85447241D01*
X222410214Y-85593911D01*
X222410220Y-85593916D01*
X222592835Y-85736051D01*
X222593374Y-85736470D01*
X222657228Y-85771026D01*
X222797487Y-85846931D01*
X222797489Y-85846931D01*
X222797497Y-85846936D01*
X223017019Y-85922298D01*
X223245951Y-85960500D01*
X223478049Y-85960500D01*
X223706981Y-85922298D01*
X223926503Y-85846936D01*
X224130626Y-85736470D01*
X224313784Y-85593913D01*
X224421920Y-85476446D01*
X224448805Y-85447241D01*
X224527286Y-85389972D01*
X224621710Y-85367097D01*
X224717700Y-85382097D01*
X224800643Y-85432689D01*
X224815195Y-85447241D01*
X224950214Y-85593911D01*
X224950220Y-85593916D01*
X225132835Y-85736051D01*
X225133374Y-85736470D01*
X225197228Y-85771026D01*
X225337487Y-85846931D01*
X225337489Y-85846931D01*
X225337497Y-85846936D01*
X225557019Y-85922298D01*
X225785951Y-85960500D01*
X226018049Y-85960500D01*
X226246981Y-85922298D01*
X226466503Y-85846936D01*
X226670626Y-85736470D01*
X226853784Y-85593913D01*
X226961920Y-85476446D01*
X226988805Y-85447241D01*
X227067286Y-85389972D01*
X227161710Y-85367097D01*
X227257700Y-85382097D01*
X227340643Y-85432689D01*
X227355195Y-85447241D01*
X227490214Y-85593911D01*
X227490220Y-85593916D01*
X227672835Y-85736051D01*
X227673374Y-85736470D01*
X227737228Y-85771026D01*
X227877487Y-85846931D01*
X227877489Y-85846931D01*
X227877497Y-85846936D01*
X228097019Y-85922298D01*
X228325951Y-85960500D01*
X228558049Y-85960500D01*
X228786981Y-85922298D01*
X229006503Y-85846936D01*
X229210626Y-85736470D01*
X229369256Y-85613004D01*
X229456094Y-85569434D01*
X229522195Y-85560500D01*
X232951000Y-85560500D01*
X233046288Y-85579454D01*
X233127070Y-85633430D01*
X233181046Y-85714212D01*
X233200000Y-85809500D01*
X233200000Y-87351000D01*
X233181046Y-87446288D01*
X233127070Y-87527070D01*
X233046288Y-87581046D01*
X232951000Y-87600000D01*
X227100000Y-87600000D01*
X227100000Y-87600001D01*
X227100000Y-98448386D01*
X227081046Y-98543674D01*
X227027070Y-98624456D01*
X226946288Y-98678432D01*
X226851000Y-98697386D01*
X226755712Y-98678432D01*
X226698065Y-98644885D01*
X226670629Y-98623532D01*
X226670630Y-98623532D01*
X226466512Y-98513068D01*
X226466507Y-98513066D01*
X226466503Y-98513064D01*
X226246981Y-98437702D01*
X226246978Y-98437701D01*
X226246974Y-98437700D01*
X226018049Y-98399500D01*
X225785951Y-98399500D01*
X225557025Y-98437700D01*
X225557019Y-98437701D01*
X225557019Y-98437702D01*
X225337497Y-98513064D01*
X225337494Y-98513065D01*
X225337487Y-98513068D01*
X225133371Y-98623531D01*
X224950220Y-98766083D01*
X224950217Y-98766086D01*
X224950216Y-98766087D01*
X224919457Y-98799500D01*
X224815195Y-98912759D01*
X224736713Y-98970027D01*
X224642289Y-98992902D01*
X224546299Y-98977902D01*
X224463356Y-98927310D01*
X224448805Y-98912759D01*
X224362624Y-98819142D01*
X224313784Y-98766087D01*
X224272718Y-98734124D01*
X224130628Y-98623531D01*
X223926512Y-98513068D01*
X223926507Y-98513066D01*
X223926503Y-98513064D01*
X223706981Y-98437702D01*
X223706978Y-98437701D01*
X223706974Y-98437700D01*
X223478049Y-98399500D01*
X223245951Y-98399500D01*
X223017025Y-98437700D01*
X223017019Y-98437701D01*
X223017019Y-98437702D01*
X222797497Y-98513064D01*
X222797494Y-98513065D01*
X222797487Y-98513068D01*
X222593371Y-98623531D01*
X222410220Y-98766083D01*
X222410217Y-98766086D01*
X222410216Y-98766087D01*
X222379457Y-98799500D01*
X222275195Y-98912759D01*
X222196713Y-98970027D01*
X222102289Y-98992902D01*
X222006299Y-98977902D01*
X221923356Y-98927310D01*
X221908805Y-98912759D01*
X221822624Y-98819142D01*
X221773784Y-98766087D01*
X221732718Y-98734124D01*
X221590628Y-98623531D01*
X221386512Y-98513068D01*
X221386507Y-98513066D01*
X221386503Y-98513064D01*
X221166981Y-98437702D01*
X221166978Y-98437701D01*
X221166974Y-98437700D01*
X220938049Y-98399500D01*
X220705951Y-98399500D01*
X220477025Y-98437700D01*
X220477019Y-98437701D01*
X220477019Y-98437702D01*
X220257497Y-98513064D01*
X220257494Y-98513065D01*
X220257487Y-98513068D01*
X220053371Y-98623531D01*
X219870220Y-98766083D01*
X219870217Y-98766086D01*
X219870216Y-98766087D01*
X219839457Y-98799500D01*
X219735195Y-98912759D01*
X219656713Y-98970027D01*
X219562289Y-98992902D01*
X219466299Y-98977902D01*
X219383356Y-98927310D01*
X219368805Y-98912759D01*
X219282624Y-98819142D01*
X219233784Y-98766087D01*
X219192718Y-98734124D01*
X219050628Y-98623531D01*
X218846512Y-98513068D01*
X218846507Y-98513066D01*
X218846503Y-98513064D01*
X218626981Y-98437702D01*
X218626978Y-98437701D01*
X218626974Y-98437700D01*
X218398049Y-98399500D01*
X218165951Y-98399500D01*
X217937025Y-98437700D01*
X217937019Y-98437701D01*
X217937019Y-98437702D01*
X217717497Y-98513064D01*
X217717494Y-98513065D01*
X217717487Y-98513068D01*
X217513371Y-98623531D01*
X217330220Y-98766083D01*
X217330217Y-98766086D01*
X217330216Y-98766087D01*
X217299457Y-98799500D01*
X217195195Y-98912759D01*
X217116713Y-98970027D01*
X217022289Y-98992902D01*
X216926299Y-98977902D01*
X216843356Y-98927310D01*
X216828805Y-98912759D01*
X216742624Y-98819142D01*
X216693784Y-98766087D01*
X216652718Y-98734124D01*
X216510628Y-98623531D01*
X216306512Y-98513068D01*
X216306507Y-98513066D01*
X216306503Y-98513064D01*
X216086981Y-98437702D01*
X216086978Y-98437701D01*
X216086974Y-98437700D01*
X215858049Y-98399500D01*
X215625951Y-98399500D01*
X215397025Y-98437700D01*
X215397019Y-98437701D01*
X215397019Y-98437702D01*
X215177497Y-98513064D01*
X215177494Y-98513065D01*
X215177487Y-98513068D01*
X214973371Y-98623531D01*
X214790220Y-98766083D01*
X214790217Y-98766086D01*
X214790216Y-98766087D01*
X214759457Y-98799500D01*
X214655195Y-98912759D01*
X214576713Y-98970027D01*
X214482289Y-98992902D01*
X214386299Y-98977902D01*
X214303356Y-98927310D01*
X214288805Y-98912759D01*
X214202624Y-98819142D01*
X214153784Y-98766087D01*
X214112718Y-98734124D01*
X213970628Y-98623531D01*
X213766512Y-98513068D01*
X213766507Y-98513066D01*
X213766503Y-98513064D01*
X213546981Y-98437702D01*
X213546978Y-98437701D01*
X213546974Y-98437700D01*
X213318049Y-98399500D01*
X213085951Y-98399500D01*
X212857025Y-98437700D01*
X212857019Y-98437701D01*
X212857019Y-98437702D01*
X212637497Y-98513064D01*
X212637494Y-98513065D01*
X212637487Y-98513068D01*
X212433371Y-98623531D01*
X212250220Y-98766083D01*
X212250215Y-98766087D01*
X212201376Y-98819142D01*
X212122895Y-98876411D01*
X212028471Y-98899287D01*
X212018180Y-98899500D01*
X181293140Y-98899500D01*
X181197852Y-98880546D01*
X181117070Y-98826570D01*
X180520430Y-98229930D01*
X180466454Y-98149148D01*
X180447500Y-98053860D01*
X180447500Y-97031825D01*
X180466454Y-96936537D01*
X180520427Y-96855758D01*
X180547047Y-96829139D01*
X180677568Y-96642734D01*
X180773739Y-96436496D01*
X180832635Y-96216692D01*
X180852468Y-95990000D01*
X180852468Y-95989994D01*
X180832636Y-95763320D01*
X180832635Y-95763308D01*
X180826389Y-95739999D01*
X188428128Y-95739999D01*
X188428128Y-95740000D01*
X189391314Y-95740000D01*
X189386920Y-95744394D01*
X189334259Y-95835606D01*
X189307000Y-95937339D01*
X189307000Y-96042661D01*
X189334259Y-96144394D01*
X189386920Y-96235606D01*
X189391314Y-96240000D01*
X188428128Y-96240000D01*
X188480732Y-96436323D01*
X188576866Y-96642483D01*
X188707335Y-96828812D01*
X188868187Y-96989664D01*
X189054516Y-97120133D01*
X189260676Y-97216267D01*
X189456999Y-97268871D01*
X189457000Y-97268871D01*
X189457000Y-96305686D01*
X189461394Y-96310080D01*
X189552606Y-96362741D01*
X189654339Y-96390000D01*
X189759661Y-96390000D01*
X189861394Y-96362741D01*
X189952606Y-96310080D01*
X189957000Y-96305686D01*
X189957000Y-97268871D01*
X190153323Y-97216267D01*
X190359483Y-97120133D01*
X190545812Y-96989664D01*
X190706664Y-96828812D01*
X190837133Y-96642483D01*
X190933267Y-96436323D01*
X190985872Y-96240000D01*
X190022686Y-96240000D01*
X190027080Y-96235606D01*
X190079741Y-96144394D01*
X190107000Y-96042661D01*
X190107000Y-95937339D01*
X190079741Y-95835606D01*
X190027080Y-95744394D01*
X190022686Y-95740000D01*
X190985872Y-95740000D01*
X190985871Y-95739999D01*
X190933267Y-95543676D01*
X190837133Y-95337516D01*
X190706664Y-95151187D01*
X190545812Y-94990335D01*
X190359483Y-94859866D01*
X190153318Y-94763730D01*
X189957000Y-94711126D01*
X189957000Y-95674314D01*
X189952606Y-95669920D01*
X189861394Y-95617259D01*
X189759661Y-95590000D01*
X189654339Y-95590000D01*
X189552606Y-95617259D01*
X189461394Y-95669920D01*
X189457000Y-95674314D01*
X189457000Y-94711127D01*
X189456999Y-94711126D01*
X189260681Y-94763730D01*
X189054516Y-94859866D01*
X188868187Y-94990335D01*
X188707335Y-95151187D01*
X188576866Y-95337516D01*
X188480732Y-95543676D01*
X188428128Y-95739999D01*
X180826389Y-95739999D01*
X180773739Y-95543504D01*
X180677568Y-95337266D01*
X180677565Y-95337262D01*
X180677563Y-95337258D01*
X180547050Y-95150865D01*
X180547049Y-95150864D01*
X180547047Y-95150861D01*
X180386139Y-94989953D01*
X180386135Y-94989950D01*
X180386134Y-94989949D01*
X180199741Y-94859436D01*
X180199727Y-94859428D01*
X179993499Y-94763262D01*
X179993496Y-94763261D01*
X179773694Y-94704365D01*
X179773679Y-94704363D01*
X179547006Y-94684532D01*
X179546994Y-94684532D01*
X179320320Y-94704363D01*
X179320305Y-94704365D01*
X179100503Y-94763261D01*
X179100500Y-94763262D01*
X178894272Y-94859428D01*
X178894258Y-94859436D01*
X178707865Y-94989949D01*
X178707861Y-94989952D01*
X178707861Y-94989953D01*
X178681241Y-95016572D01*
X178600463Y-95070546D01*
X178505175Y-95089500D01*
X176778825Y-95089500D01*
X176683537Y-95070546D01*
X176602758Y-95016572D01*
X176576139Y-94989953D01*
X176576135Y-94989950D01*
X176576134Y-94989949D01*
X176389741Y-94859436D01*
X176389727Y-94859428D01*
X176183499Y-94763262D01*
X176183496Y-94763261D01*
X175963694Y-94704365D01*
X175963679Y-94704363D01*
X175737006Y-94684532D01*
X175736994Y-94684532D01*
X175510320Y-94704363D01*
X175510305Y-94704365D01*
X175290503Y-94763261D01*
X175290500Y-94763262D01*
X175084272Y-94859428D01*
X175084258Y-94859436D01*
X174897865Y-94989949D01*
X174736949Y-95150865D01*
X174606436Y-95337258D01*
X174606428Y-95337272D01*
X174510262Y-95543500D01*
X174510261Y-95543503D01*
X174451365Y-95763305D01*
X174451363Y-95763320D01*
X174431532Y-95989994D01*
X174431532Y-95990005D01*
X174451363Y-96216679D01*
X174451365Y-96216694D01*
X174510261Y-96436496D01*
X174510262Y-96436499D01*
X174606428Y-96642727D01*
X174606436Y-96642741D01*
X174736724Y-96828812D01*
X174736953Y-96829139D01*
X174897861Y-96990047D01*
X174897864Y-96990049D01*
X174897865Y-96990050D01*
X175084258Y-97120563D01*
X175084262Y-97120565D01*
X175084266Y-97120568D01*
X175084270Y-97120569D01*
X175084272Y-97120571D01*
X175208008Y-97178270D01*
X175290504Y-97216739D01*
X175510308Y-97275635D01*
X175529984Y-97277356D01*
X175736994Y-97295468D01*
X175737000Y-97295468D01*
X175737006Y-97295468D01*
X175916668Y-97279749D01*
X175963692Y-97275635D01*
X176183496Y-97216739D01*
X176389734Y-97120568D01*
X176576139Y-96990047D01*
X176602758Y-96963427D01*
X176683537Y-96909454D01*
X176778825Y-96890500D01*
X178397500Y-96890500D01*
X178492788Y-96909454D01*
X178573570Y-96963430D01*
X178627546Y-97044212D01*
X178646500Y-97139500D01*
X178646500Y-98441308D01*
X178646500Y-98618692D01*
X178681105Y-98792666D01*
X178681106Y-98792668D01*
X178681108Y-98792675D01*
X178707751Y-98856994D01*
X178707752Y-98856999D01*
X178707753Y-98856999D01*
X178748987Y-98956548D01*
X178751872Y-98960865D01*
X178780637Y-99003914D01*
X178847536Y-99104036D01*
X180242964Y-100499464D01*
X180302033Y-100538931D01*
X180302038Y-100538936D01*
X180302039Y-100538936D01*
X180390453Y-100598013D01*
X180472389Y-100631952D01*
X180472392Y-100631952D01*
X180472393Y-100631953D01*
X180472398Y-100631955D01*
X180554329Y-100665893D01*
X180554330Y-100665893D01*
X180554334Y-100665895D01*
X180728308Y-100700500D01*
X180728309Y-100700500D01*
X212018180Y-100700500D01*
X212113468Y-100719454D01*
X212194250Y-100773430D01*
X212201365Y-100780846D01*
X212207043Y-100787014D01*
X212250215Y-100833912D01*
X212250220Y-100833916D01*
X212433368Y-100976466D01*
X212433374Y-100976470D01*
X212452429Y-100986782D01*
X212637487Y-101086931D01*
X212637489Y-101086931D01*
X212637497Y-101086936D01*
X212857019Y-101162298D01*
X213085951Y-101200500D01*
X213318049Y-101200500D01*
X213546981Y-101162298D01*
X213766503Y-101086936D01*
X213970626Y-100976470D01*
X214153784Y-100833913D01*
X214240273Y-100739960D01*
X214288805Y-100687241D01*
X214367286Y-100629972D01*
X214461710Y-100607097D01*
X214557700Y-100622097D01*
X214640643Y-100672689D01*
X214655195Y-100687241D01*
X214775695Y-100818139D01*
X214826287Y-100901082D01*
X214841500Y-100986782D01*
X214841500Y-106270500D01*
X214822546Y-106365788D01*
X214768570Y-106446570D01*
X214687788Y-106500546D01*
X214592500Y-106519500D01*
X214126213Y-106519500D01*
X214030925Y-106500546D01*
X214008834Y-106490098D01*
X213982684Y-106476120D01*
X213982682Y-106476119D01*
X213795091Y-106419215D01*
X213795088Y-106419214D01*
X213600000Y-106400000D01*
X207562232Y-106400000D01*
X207537827Y-106398801D01*
X207505894Y-106395655D01*
X207389067Y-106384149D01*
X207341194Y-106374626D01*
X207209920Y-106334805D01*
X207164825Y-106316126D01*
X207043836Y-106251456D01*
X207003252Y-106224338D01*
X206897206Y-106137308D01*
X206862691Y-106102793D01*
X206775661Y-105996747D01*
X206748542Y-105956162D01*
X206727888Y-105917521D01*
X206683870Y-105835169D01*
X206665194Y-105790079D01*
X206653971Y-105753082D01*
X206625372Y-105658803D01*
X206615850Y-105610931D01*
X206615312Y-105605471D01*
X206600000Y-105450000D01*
X206585637Y-105304166D01*
X206581746Y-105264663D01*
X206527686Y-105086451D01*
X206527683Y-105086444D01*
X206439899Y-104922214D01*
X206439895Y-104922207D01*
X206422081Y-104900501D01*
X206321751Y-104778249D01*
X206177792Y-104660104D01*
X206177785Y-104660100D01*
X206013555Y-104572316D01*
X206013548Y-104572313D01*
X205835336Y-104518253D01*
X205650000Y-104500000D01*
X204590024Y-104500000D01*
X204537096Y-104494310D01*
X204447431Y-104474804D01*
X204233448Y-104459500D01*
X203090552Y-104459500D01*
X203090551Y-104459500D01*
X202876568Y-104474804D01*
X202786904Y-104494310D01*
X202733976Y-104500000D01*
X201375120Y-104500000D01*
X201375115Y-104500000D01*
X201247633Y-104511467D01*
X201196639Y-104516055D01*
X201196636Y-104516056D01*
X201023901Y-104563704D01*
X200862433Y-104641421D01*
X200862427Y-104641425D01*
X200717444Y-104746695D01*
X200717435Y-104746703D01*
X200717430Y-104746706D01*
X200717429Y-104746708D01*
X197486790Y-107567321D01*
X196495911Y-108432440D01*
X196462964Y-108461205D01*
X196462958Y-108461210D01*
X196462954Y-108461215D01*
X196333146Y-108598186D01*
X196298883Y-108651695D01*
X196231536Y-108721721D01*
X196194422Y-108743091D01*
X196009268Y-108829430D01*
X196009258Y-108829436D01*
X195822865Y-108959949D01*
X195661949Y-109120865D01*
X195531436Y-109307258D01*
X195531428Y-109307272D01*
X195435262Y-109513500D01*
X195435261Y-109513503D01*
X195376365Y-109733305D01*
X195376363Y-109733320D01*
X195356532Y-109959994D01*
X195356532Y-109960005D01*
X195376363Y-110186679D01*
X195376365Y-110186694D01*
X195435261Y-110406496D01*
X195435262Y-110406499D01*
X195531428Y-110612727D01*
X195531436Y-110612741D01*
X195661949Y-110799134D01*
X195661953Y-110799139D01*
X195822861Y-110960047D01*
X195822864Y-110960049D01*
X195822865Y-110960050D01*
X196009258Y-111090563D01*
X196009262Y-111090565D01*
X196009266Y-111090568D01*
X196009270Y-111090569D01*
X196009272Y-111090571D01*
X196088215Y-111127383D01*
X196215504Y-111186739D01*
X196435308Y-111245635D01*
X196454984Y-111247356D01*
X196661994Y-111265468D01*
X196662000Y-111265468D01*
X196662006Y-111265468D01*
X196841668Y-111249749D01*
X196888692Y-111245635D01*
X197108496Y-111186739D01*
X197260558Y-111115831D01*
X197314726Y-111090572D01*
X197314727Y-111090571D01*
X197314734Y-111090568D01*
X197335948Y-111075713D01*
X197424867Y-111036586D01*
X197478931Y-111030683D01*
X209694870Y-111039195D01*
X209790140Y-111058215D01*
X209870884Y-111112248D01*
X209924804Y-111193067D01*
X209943692Y-111288369D01*
X209942745Y-111309895D01*
X209936526Y-111380973D01*
X210532589Y-111977037D01*
X210469007Y-111994075D01*
X210354993Y-112059901D01*
X210261901Y-112152993D01*
X210196075Y-112267007D01*
X210179037Y-112330591D01*
X209582973Y-111734527D01*
X209582972Y-111734527D01*
X209531870Y-111807510D01*
X209531867Y-111807514D01*
X209435732Y-112013676D01*
X209376859Y-112233396D01*
X209376859Y-112233397D01*
X209357034Y-112460000D01*
X209376859Y-112686602D01*
X209376859Y-112686603D01*
X209435732Y-112906323D01*
X209531867Y-113112486D01*
X209531869Y-113112488D01*
X209582973Y-113185471D01*
X210179037Y-112589408D01*
X210196075Y-112652993D01*
X210261901Y-112767007D01*
X210354993Y-112860099D01*
X210469007Y-112925925D01*
X210532588Y-112942962D01*
X209876695Y-113598856D01*
X209795913Y-113652832D01*
X209757853Y-113665120D01*
X209754152Y-113665994D01*
X209745887Y-113666288D01*
X209732344Y-113674179D01*
X209619669Y-113716204D01*
X209504455Y-113802453D01*
X209504453Y-113802455D01*
X209418204Y-113917669D01*
X209367908Y-114052518D01*
X209361500Y-114112123D01*
X209361500Y-115807865D01*
X209361500Y-115807868D01*
X209361501Y-115807872D01*
X209362925Y-115821119D01*
X209367908Y-115867480D01*
X209367909Y-115867484D01*
X209413667Y-115990168D01*
X209418204Y-116002331D01*
X209504454Y-116117546D01*
X209619669Y-116203796D01*
X209754517Y-116254091D01*
X209814127Y-116260500D01*
X211509872Y-116260499D01*
X211569483Y-116254091D01*
X211704331Y-116203796D01*
X211819546Y-116117546D01*
X211905796Y-116002331D01*
X211905797Y-116002327D01*
X211912437Y-115990168D01*
X211974739Y-115915619D01*
X212060827Y-115870587D01*
X212130980Y-115860500D01*
X212645860Y-115860500D01*
X212741148Y-115879454D01*
X212821930Y-115933430D01*
X214369383Y-117480883D01*
X214423359Y-117561665D01*
X214441365Y-117635251D01*
X214456363Y-117806679D01*
X214456365Y-117806694D01*
X214515261Y-118026496D01*
X214515262Y-118026499D01*
X214611428Y-118232727D01*
X214611436Y-118232741D01*
X214741949Y-118419134D01*
X214741953Y-118419139D01*
X214902861Y-118580047D01*
X214902864Y-118580049D01*
X214902865Y-118580050D01*
X215089258Y-118710563D01*
X215089262Y-118710565D01*
X215089266Y-118710568D01*
X215089270Y-118710569D01*
X215089272Y-118710571D01*
X215164023Y-118745428D01*
X215295504Y-118806739D01*
X215515308Y-118865635D01*
X215534145Y-118867283D01*
X215741994Y-118885468D01*
X215742000Y-118885468D01*
X215742006Y-118885468D01*
X215921668Y-118869749D01*
X215968692Y-118865635D01*
X216188496Y-118806739D01*
X216394734Y-118710568D01*
X216581139Y-118580047D01*
X216607758Y-118553427D01*
X216688537Y-118499454D01*
X216783825Y-118480500D01*
X218370689Y-118480500D01*
X218370692Y-118480500D01*
X218544666Y-118445895D01*
X218632856Y-118409365D01*
X218708547Y-118378013D01*
X218818634Y-118304455D01*
X218856036Y-118279464D01*
X221521463Y-115614036D01*
X221532324Y-115597782D01*
X221620013Y-115466547D01*
X221687894Y-115302666D01*
X221722500Y-115128691D01*
X221722500Y-100986782D01*
X221741454Y-100891494D01*
X221788305Y-100818139D01*
X221908805Y-100687241D01*
X221987286Y-100629972D01*
X222081710Y-100607097D01*
X222177700Y-100622097D01*
X222260643Y-100672689D01*
X222275195Y-100687241D01*
X222410214Y-100833911D01*
X222410220Y-100833916D01*
X222593368Y-100976466D01*
X222593374Y-100976470D01*
X222612429Y-100986782D01*
X222797487Y-101086931D01*
X222797489Y-101086931D01*
X222797497Y-101086936D01*
X223017019Y-101162298D01*
X223245951Y-101200500D01*
X223478049Y-101200500D01*
X223706981Y-101162298D01*
X223926503Y-101086936D01*
X224130626Y-100976470D01*
X224313784Y-100833913D01*
X224400273Y-100739960D01*
X224448805Y-100687241D01*
X224527286Y-100629972D01*
X224621710Y-100607097D01*
X224717700Y-100622097D01*
X224800643Y-100672689D01*
X224815195Y-100687241D01*
X224950214Y-100833911D01*
X224950220Y-100833916D01*
X225133368Y-100976466D01*
X225133374Y-100976470D01*
X225152429Y-100986782D01*
X225337487Y-101086931D01*
X225337489Y-101086931D01*
X225337497Y-101086936D01*
X225557019Y-101162298D01*
X225785951Y-101200500D01*
X225785957Y-101200500D01*
X225796215Y-101201351D01*
X225796093Y-101202818D01*
X225879728Y-101219454D01*
X225960509Y-101273429D01*
X229364219Y-104677140D01*
X229528086Y-104786632D01*
X229528088Y-104786632D01*
X229528090Y-104786634D01*
X229710165Y-104862052D01*
X229710168Y-104862053D01*
X229863045Y-104892462D01*
X229903460Y-104900501D01*
X230112829Y-104900501D01*
X230112849Y-104900500D01*
X240881581Y-104900500D01*
X240976869Y-104919454D01*
X241057651Y-104973430D01*
X241111627Y-105054212D01*
X241123853Y-105096155D01*
X241124046Y-105096104D01*
X241126404Y-105104904D01*
X241126796Y-105106249D01*
X241126856Y-105106594D01*
X241185732Y-105326323D01*
X241281867Y-105532486D01*
X241281869Y-105532488D01*
X241332972Y-105605471D01*
X241332974Y-105605471D01*
X242012000Y-104926446D01*
X242012000Y-104932661D01*
X242039259Y-105034394D01*
X242091920Y-105125606D01*
X242166394Y-105200080D01*
X242257606Y-105252741D01*
X242359339Y-105280000D01*
X242365552Y-105280000D01*
X241686527Y-105959023D01*
X241686527Y-105959025D01*
X241759515Y-106010132D01*
X241965676Y-106106267D01*
X242185396Y-106165140D01*
X242412000Y-106184965D01*
X242638602Y-106165140D01*
X242638603Y-106165140D01*
X242858326Y-106106266D01*
X243064476Y-106010137D01*
X243064483Y-106010133D01*
X243137471Y-105959025D01*
X242458446Y-105280000D01*
X242464661Y-105280000D01*
X242566394Y-105252741D01*
X242657606Y-105200080D01*
X242732080Y-105125606D01*
X242784741Y-105034394D01*
X242812000Y-104932661D01*
X242812000Y-104926446D01*
X243491025Y-105605471D01*
X243542133Y-105532483D01*
X243542137Y-105532476D01*
X243638266Y-105326326D01*
X243697140Y-105106603D01*
X243697140Y-105106602D01*
X243716965Y-104880000D01*
X243697140Y-104653397D01*
X243697140Y-104653396D01*
X243638267Y-104433676D01*
X243542132Y-104227515D01*
X243491025Y-104154527D01*
X243491023Y-104154527D01*
X242812000Y-104833551D01*
X242812000Y-104827339D01*
X242784741Y-104725606D01*
X242732080Y-104634394D01*
X242657606Y-104559920D01*
X242566394Y-104507259D01*
X242464661Y-104480000D01*
X242458448Y-104480000D01*
X243137471Y-103800974D01*
X243136841Y-103793773D01*
X243089282Y-103744091D01*
X243054070Y-103653542D01*
X243056190Y-103556410D01*
X243095319Y-103467483D01*
X243156465Y-103406337D01*
X243251139Y-103340047D01*
X243412047Y-103179139D01*
X243542568Y-102992734D01*
X243638739Y-102786496D01*
X243697635Y-102566692D01*
X243710500Y-102419643D01*
X243717468Y-102340005D01*
X243717468Y-102339994D01*
X243697636Y-102113320D01*
X243697635Y-102113311D01*
X243697635Y-102113308D01*
X243638739Y-101893504D01*
X243542568Y-101687266D01*
X243542565Y-101687262D01*
X243542563Y-101687258D01*
X243412050Y-101500865D01*
X243412049Y-101500864D01*
X243412047Y-101500861D01*
X243251139Y-101339953D01*
X243156902Y-101273968D01*
X243089719Y-101203789D01*
X243054506Y-101113240D01*
X243056625Y-101016108D01*
X243095753Y-100927181D01*
X243156902Y-100866031D01*
X243251139Y-100800047D01*
X243412047Y-100639139D01*
X243542568Y-100452734D01*
X243638739Y-100246496D01*
X243697635Y-100026692D01*
X243717468Y-99800000D01*
X243717468Y-99799994D01*
X243697636Y-99573320D01*
X243697635Y-99573308D01*
X243638739Y-99353504D01*
X243542568Y-99147266D01*
X243542565Y-99147262D01*
X243542563Y-99147258D01*
X243412050Y-98960865D01*
X243412049Y-98960864D01*
X243412047Y-98960861D01*
X243251139Y-98799953D01*
X243157125Y-98734124D01*
X243089941Y-98663943D01*
X243054729Y-98573393D01*
X243056848Y-98476261D01*
X243095977Y-98387334D01*
X243153584Y-98328712D01*
X243165537Y-98320027D01*
X243168935Y-98317604D01*
X243251139Y-98260047D01*
X243412047Y-98099139D01*
X243469604Y-98016935D01*
X243472020Y-98013548D01*
X243524287Y-97941610D01*
X243524292Y-97941598D01*
X243529397Y-97933269D01*
X243529684Y-97933445D01*
X243539460Y-97917171D01*
X243542568Y-97912734D01*
X243579247Y-97834074D01*
X243583040Y-97826300D01*
X243617216Y-97759227D01*
X243617216Y-97759226D01*
X243617220Y-97759219D01*
X243619559Y-97752017D01*
X243630701Y-97723732D01*
X243638739Y-97706496D01*
X243657691Y-97635761D01*
X243661380Y-97623303D01*
X243680477Y-97564534D01*
X243683784Y-97543649D01*
X243689204Y-97518154D01*
X243697633Y-97486698D01*
X243697635Y-97486692D01*
X243702836Y-97427228D01*
X243704949Y-97410018D01*
X243712500Y-97362352D01*
X243712500Y-97327651D01*
X243713448Y-97305947D01*
X243717468Y-97260002D01*
X243717468Y-97259996D01*
X243713448Y-97214051D01*
X243712500Y-97192348D01*
X243712500Y-87444500D01*
X243731454Y-87349212D01*
X243785430Y-87268430D01*
X243866212Y-87214454D01*
X243961500Y-87195500D01*
X253545226Y-87195500D01*
X253640514Y-87214454D01*
X253721296Y-87268430D01*
X255626570Y-89173704D01*
X255680546Y-89254486D01*
X255699500Y-89349774D01*
X255699500Y-112155226D01*
X255680546Y-112250514D01*
X255626570Y-112331296D01*
X253086296Y-114871570D01*
X253005514Y-114925546D01*
X252910226Y-114944500D01*
X245248774Y-114944500D01*
X245153486Y-114925546D01*
X245072704Y-114871570D01*
X242053854Y-111852720D01*
X242053844Y-111852711D01*
X241901008Y-111735437D01*
X241901005Y-111735433D01*
X241845812Y-111693083D01*
X241845803Y-111693076D01*
X241618697Y-111561957D01*
X241618695Y-111561956D01*
X241618693Y-111561955D01*
X241618689Y-111561953D01*
X241444903Y-111489969D01*
X241376419Y-111461602D01*
X241123116Y-111393729D01*
X241123109Y-111393728D01*
X240993119Y-111376615D01*
X240993118Y-111376614D01*
X240993118Y-111376615D01*
X240863120Y-111359500D01*
X237930813Y-111359500D01*
X237835525Y-111340546D01*
X237754743Y-111286570D01*
X237700767Y-111205788D01*
X237681813Y-111110500D01*
X237692533Y-111038224D01*
X237720785Y-110945090D01*
X237740000Y-110750000D01*
X237740000Y-109180000D01*
X237733660Y-109115637D01*
X237732916Y-109076223D01*
X237737527Y-109000000D01*
X237717436Y-108667858D01*
X237713565Y-108646737D01*
X237678659Y-108456259D01*
X237657456Y-108340559D01*
X237558463Y-108022877D01*
X237437861Y-107754911D01*
X237421899Y-107719445D01*
X237405389Y-107692134D01*
X237249754Y-107434682D01*
X237141263Y-107296203D01*
X237044547Y-107172754D01*
X237044545Y-107172752D01*
X237044542Y-107172748D01*
X236809252Y-106937458D01*
X236809247Y-106937454D01*
X236809245Y-106937452D01*
X236547318Y-106732246D01*
X236262554Y-106560100D01*
X235959128Y-106423539D01*
X235959126Y-106423538D01*
X235959123Y-106423537D01*
X235772811Y-106365480D01*
X235641442Y-106324544D01*
X235641432Y-106324542D01*
X235314152Y-106264565D01*
X235314155Y-106264565D01*
X235314143Y-106264564D01*
X235314142Y-106264564D01*
X234982000Y-106244473D01*
X234649858Y-106264564D01*
X234649855Y-106264564D01*
X234649846Y-106264565D01*
X234322567Y-106324542D01*
X234322557Y-106324544D01*
X234004871Y-106423539D01*
X233701445Y-106560100D01*
X233416681Y-106732246D01*
X233154754Y-106937452D01*
X232919452Y-107172754D01*
X232714246Y-107434681D01*
X232542100Y-107719445D01*
X232405539Y-108022871D01*
X232306544Y-108340557D01*
X232306542Y-108340567D01*
X232246565Y-108667846D01*
X232246564Y-108667855D01*
X232246564Y-108667858D01*
X232226473Y-108999998D01*
X232226473Y-109000002D01*
X232233365Y-109113953D01*
X232232621Y-109153384D01*
X232230000Y-109180003D01*
X232230000Y-110750000D01*
X232249214Y-110945085D01*
X232249214Y-110945087D01*
X232249215Y-110945090D01*
X232277466Y-111038223D01*
X232286988Y-111134908D01*
X232258785Y-111227879D01*
X232197150Y-111302981D01*
X232111467Y-111348779D01*
X232039187Y-111359500D01*
X228151500Y-111359500D01*
X228056212Y-111340546D01*
X227975430Y-111286570D01*
X227921454Y-111205788D01*
X227902500Y-111110500D01*
X227902500Y-107288880D01*
X227896446Y-107242894D01*
X227868270Y-107028884D01*
X227800398Y-106775581D01*
X227700043Y-106533303D01*
X227568924Y-106306197D01*
X227568920Y-106306192D01*
X227568917Y-106306187D01*
X227409286Y-106098154D01*
X227409285Y-106098153D01*
X227409282Y-106098149D01*
X227223851Y-105912718D01*
X227223846Y-105912714D01*
X227223845Y-105912713D01*
X227015812Y-105753082D01*
X227015798Y-105753073D01*
X226852516Y-105658803D01*
X226788697Y-105621957D01*
X226788695Y-105621956D01*
X226788693Y-105621955D01*
X226788689Y-105621953D01*
X226546417Y-105521601D01*
X226436730Y-105492211D01*
X226293116Y-105453730D01*
X226293111Y-105453729D01*
X226293114Y-105453729D01*
X226033120Y-105419500D01*
X225770880Y-105419500D01*
X225510887Y-105453729D01*
X225257582Y-105521601D01*
X225015310Y-105621953D01*
X225015306Y-105621955D01*
X224788201Y-105753073D01*
X224788187Y-105753082D01*
X224580154Y-105912713D01*
X224394713Y-106098154D01*
X224235082Y-106306187D01*
X224235073Y-106306201D01*
X224103955Y-106533306D01*
X224103953Y-106533310D01*
X224003601Y-106775582D01*
X223935729Y-107028887D01*
X223901500Y-107288880D01*
X223901500Y-117711642D01*
X223902000Y-117726898D01*
X223902000Y-120600000D01*
X223921214Y-120795088D01*
X223921215Y-120795091D01*
X223946432Y-120878220D01*
X223955955Y-120974907D01*
X223927752Y-121067878D01*
X223866118Y-121142980D01*
X223780434Y-121188778D01*
X223708154Y-121199500D01*
X113007529Y-121199500D01*
X112992495Y-121199046D01*
X112749908Y-121184372D01*
X112720059Y-121180747D01*
X112488442Y-121138302D01*
X112459246Y-121131106D01*
X112234424Y-121061048D01*
X112206311Y-121050386D01*
X112106877Y-121005635D01*
X111991577Y-120953743D01*
X111964953Y-120939770D01*
X111949878Y-120930657D01*
X111817396Y-120850568D01*
X111763432Y-120817945D01*
X111738687Y-120800865D01*
X111553320Y-120655639D01*
X111530813Y-120635700D01*
X111364299Y-120469186D01*
X111344360Y-120446679D01*
X111217196Y-120284367D01*
X111199133Y-120261311D01*
X111182054Y-120236567D01*
X111112812Y-120122028D01*
X111060225Y-120035039D01*
X111046259Y-120008428D01*
X110949609Y-119793680D01*
X110938954Y-119765583D01*
X110868891Y-119540746D01*
X110861699Y-119511565D01*
X110819250Y-119279926D01*
X110815628Y-119250103D01*
X110800954Y-119007504D01*
X110800500Y-118992471D01*
X110800500Y-117000000D01*
X112244473Y-117000000D01*
X112262064Y-117290816D01*
X112264565Y-117332153D01*
X112320111Y-117635251D01*
X112324544Y-117659441D01*
X112421665Y-117971116D01*
X112423539Y-117977128D01*
X112560100Y-118280554D01*
X112732246Y-118565318D01*
X112937452Y-118827245D01*
X112937454Y-118827247D01*
X112937458Y-118827252D01*
X113172748Y-119062542D01*
X113172752Y-119062545D01*
X113172754Y-119062547D01*
X113178785Y-119067272D01*
X113434682Y-119267754D01*
X113719443Y-119439898D01*
X114022877Y-119576463D01*
X114340559Y-119675456D01*
X114667847Y-119735434D01*
X114667848Y-119735434D01*
X114667858Y-119735436D01*
X115000000Y-119755527D01*
X115332142Y-119735436D01*
X115659441Y-119675456D01*
X115977123Y-119576463D01*
X116280557Y-119439898D01*
X116565318Y-119267754D01*
X116827252Y-119062542D01*
X117062542Y-118827252D01*
X117267754Y-118565318D01*
X117374613Y-118388551D01*
X201161500Y-118388551D01*
X201161500Y-118531448D01*
X201176633Y-118743045D01*
X201176804Y-118745428D01*
X201237631Y-119025046D01*
X201251618Y-119062547D01*
X201337631Y-119293158D01*
X201474775Y-119544317D01*
X201501862Y-119580500D01*
X201646261Y-119773395D01*
X201848605Y-119975739D01*
X202044010Y-120122017D01*
X202070034Y-120141499D01*
X202077685Y-120147226D01*
X202264908Y-120249458D01*
X202328841Y-120284368D01*
X202370703Y-120299981D01*
X202596954Y-120384369D01*
X202876572Y-120445196D01*
X203090552Y-120460500D01*
X203090557Y-120460500D01*
X204233443Y-120460500D01*
X204233448Y-120460500D01*
X204447428Y-120445196D01*
X204727046Y-120384369D01*
X204995161Y-120284367D01*
X205246315Y-120147226D01*
X205475395Y-119975739D01*
X205677739Y-119773395D01*
X205849226Y-119544315D01*
X205986367Y-119293161D01*
X206086369Y-119025046D01*
X206147196Y-118745428D01*
X206162500Y-118531448D01*
X206162500Y-118388552D01*
X206147196Y-118174572D01*
X206086369Y-117894954D01*
X205986367Y-117626839D01*
X205849226Y-117375685D01*
X205677739Y-117146605D01*
X205475395Y-116944261D01*
X205281181Y-116798874D01*
X205246317Y-116772775D01*
X204995158Y-116635631D01*
X204849970Y-116581479D01*
X204727046Y-116535631D01*
X204727047Y-116535631D01*
X204447429Y-116474804D01*
X204233448Y-116459500D01*
X203090552Y-116459500D01*
X203090551Y-116459500D01*
X202876570Y-116474804D01*
X202596954Y-116535631D01*
X202328841Y-116635631D01*
X202077682Y-116772775D01*
X201949440Y-116868777D01*
X201848605Y-116944261D01*
X201848604Y-116944262D01*
X201646262Y-117146604D01*
X201646260Y-117146607D01*
X201474775Y-117375682D01*
X201337631Y-117626841D01*
X201237631Y-117894954D01*
X201176804Y-118174570D01*
X201161500Y-118388551D01*
X117374613Y-118388551D01*
X117439898Y-118280557D01*
X117576463Y-117977123D01*
X117675456Y-117659441D01*
X117735436Y-117332142D01*
X117755527Y-117000000D01*
X117735436Y-116667858D01*
X117675456Y-116340559D01*
X117576463Y-116022877D01*
X117439898Y-115719443D01*
X117267754Y-115434682D01*
X117164321Y-115302659D01*
X117062547Y-115172754D01*
X117062545Y-115172752D01*
X117062542Y-115172748D01*
X116827252Y-114937458D01*
X116827247Y-114937454D01*
X116827245Y-114937452D01*
X116565318Y-114732246D01*
X116280554Y-114560100D01*
X115977128Y-114423539D01*
X115977126Y-114423538D01*
X115977123Y-114423537D01*
X115763318Y-114356913D01*
X115659442Y-114324544D01*
X115659432Y-114324542D01*
X115332152Y-114264565D01*
X115332155Y-114264565D01*
X115332143Y-114264564D01*
X115332142Y-114264564D01*
X115000000Y-114244473D01*
X114667858Y-114264564D01*
X114667855Y-114264564D01*
X114667846Y-114264565D01*
X114340567Y-114324542D01*
X114340557Y-114324544D01*
X114022871Y-114423539D01*
X113719445Y-114560100D01*
X113434681Y-114732246D01*
X113172754Y-114937452D01*
X112937452Y-115172754D01*
X112732246Y-115434681D01*
X112560100Y-115719445D01*
X112423539Y-116022871D01*
X112324544Y-116340557D01*
X112324542Y-116340567D01*
X112264565Y-116667846D01*
X112264564Y-116667855D01*
X112264564Y-116667858D01*
X112244473Y-117000000D01*
X110800500Y-117000000D01*
X110800500Y-103770747D01*
X130749500Y-103770747D01*
X130749500Y-104229252D01*
X130789458Y-104685966D01*
X130789461Y-104685995D01*
X130869071Y-105137485D01*
X130869077Y-105137512D01*
X130919670Y-105326326D01*
X130987739Y-105580360D01*
X131144549Y-106011194D01*
X131144554Y-106011207D01*
X131225580Y-106184965D01*
X131336829Y-106423539D01*
X131338312Y-106426718D01*
X131338322Y-106426739D01*
X131567546Y-106823765D01*
X131567559Y-106823786D01*
X131830529Y-107199347D01*
X132125229Y-107550557D01*
X132125237Y-107550566D01*
X132449434Y-107874763D01*
X132449440Y-107874768D01*
X132449442Y-107874770D01*
X132800652Y-108169470D01*
X133176213Y-108432440D01*
X133176234Y-108432453D01*
X133573260Y-108661677D01*
X133573269Y-108661681D01*
X133573279Y-108661687D01*
X133838529Y-108785375D01*
X133988792Y-108855445D01*
X133988797Y-108855446D01*
X133988806Y-108855451D01*
X134419640Y-109012261D01*
X134862501Y-109130926D01*
X134989868Y-109153384D01*
X135314004Y-109210538D01*
X135314012Y-109210538D01*
X135314019Y-109210540D01*
X135770758Y-109250500D01*
X135770759Y-109250500D01*
X136229241Y-109250500D01*
X136229242Y-109250500D01*
X136685981Y-109210540D01*
X136685988Y-109210538D01*
X136685995Y-109210538D01*
X136911740Y-109170733D01*
X137137499Y-109130926D01*
X137580360Y-109012261D01*
X138011194Y-108855451D01*
X138426721Y-108661687D01*
X138426735Y-108661678D01*
X138426739Y-108661677D01*
X138823765Y-108432453D01*
X138823779Y-108432445D01*
X139199347Y-108169470D01*
X139550566Y-107874763D01*
X139874763Y-107550566D01*
X140169470Y-107199347D01*
X140432445Y-106823779D01*
X140492052Y-106720537D01*
X140661677Y-106426739D01*
X140661678Y-106426735D01*
X140661687Y-106426721D01*
X140855451Y-106011194D01*
X141012261Y-105580360D01*
X141130926Y-105137499D01*
X141179494Y-104862052D01*
X141210538Y-104685995D01*
X141210538Y-104685988D01*
X141210540Y-104685981D01*
X141250500Y-104229242D01*
X141250500Y-103770758D01*
X141210540Y-103314019D01*
X141210538Y-103314012D01*
X141210538Y-103314004D01*
X141130928Y-102862514D01*
X141130926Y-102862501D01*
X141012261Y-102419640D01*
X140855451Y-101988806D01*
X140855446Y-101988797D01*
X140855445Y-101988792D01*
X140756790Y-101777227D01*
X140661687Y-101573279D01*
X140661681Y-101573269D01*
X140661677Y-101573260D01*
X140432453Y-101176234D01*
X140432440Y-101176213D01*
X140169470Y-100800652D01*
X139874770Y-100449442D01*
X139874768Y-100449440D01*
X139874763Y-100449434D01*
X139550566Y-100125237D01*
X139550559Y-100125231D01*
X139550557Y-100125229D01*
X139199347Y-99830529D01*
X138823786Y-99567559D01*
X138823765Y-99567546D01*
X138426739Y-99338322D01*
X138426725Y-99338315D01*
X138426721Y-99338313D01*
X138313258Y-99285404D01*
X138011207Y-99144554D01*
X138011196Y-99144550D01*
X138011194Y-99144549D01*
X137580360Y-98987739D01*
X137480051Y-98960861D01*
X137137512Y-98869077D01*
X137137501Y-98869074D01*
X137137499Y-98869074D01*
X137137496Y-98869073D01*
X137137485Y-98869071D01*
X136685995Y-98789461D01*
X136685966Y-98789458D01*
X136229252Y-98749500D01*
X136229242Y-98749500D01*
X135770758Y-98749500D01*
X135770747Y-98749500D01*
X135314033Y-98789458D01*
X135314004Y-98789461D01*
X134862514Y-98869071D01*
X134862487Y-98869077D01*
X134419643Y-98987738D01*
X134419640Y-98987738D01*
X134419640Y-98987739D01*
X134375194Y-99003916D01*
X133988792Y-99144554D01*
X133573281Y-99338312D01*
X133573260Y-99338322D01*
X133176234Y-99567546D01*
X133176213Y-99567559D01*
X132800652Y-99830529D01*
X132449442Y-100125229D01*
X132125229Y-100449442D01*
X131830529Y-100800652D01*
X131567559Y-101176213D01*
X131567546Y-101176234D01*
X131338322Y-101573260D01*
X131338312Y-101573281D01*
X131144554Y-101988792D01*
X131144549Y-101988806D01*
X131016726Y-102340000D01*
X130987738Y-102419643D01*
X130869077Y-102862487D01*
X130869071Y-102862514D01*
X130789461Y-103314004D01*
X130789458Y-103314033D01*
X130749500Y-103770747D01*
X110800500Y-103770747D01*
X110800500Y-92000000D01*
X114391891Y-92000000D01*
X114412301Y-92285364D01*
X114473108Y-92564891D01*
X114473112Y-92564902D01*
X114573089Y-92832952D01*
X114710192Y-93084039D01*
X114710195Y-93084044D01*
X114816882Y-93226561D01*
X115534424Y-92509018D01*
X115620249Y-92637463D01*
X115759537Y-92776751D01*
X115887979Y-92862573D01*
X115170437Y-93580116D01*
X115312955Y-93686804D01*
X115312960Y-93686807D01*
X115564047Y-93823910D01*
X115832097Y-93923887D01*
X115832108Y-93923891D01*
X116111635Y-93984698D01*
X116397000Y-94005108D01*
X116682364Y-93984698D01*
X116961891Y-93923891D01*
X116961902Y-93923887D01*
X117229952Y-93823910D01*
X117481041Y-93686806D01*
X117481042Y-93686806D01*
X117623561Y-93580115D01*
X116906020Y-92862574D01*
X117034463Y-92776751D01*
X117173751Y-92637463D01*
X117259574Y-92509020D01*
X117977115Y-93226561D01*
X118083806Y-93084042D01*
X118083806Y-93084041D01*
X118220910Y-92832952D01*
X118320887Y-92564902D01*
X118320891Y-92564891D01*
X118381698Y-92285364D01*
X118402108Y-92000000D01*
X118381698Y-91714635D01*
X118320891Y-91435108D01*
X118320887Y-91435097D01*
X118220910Y-91167047D01*
X118083807Y-90915960D01*
X118083804Y-90915955D01*
X117977116Y-90773437D01*
X117259573Y-91490979D01*
X117173751Y-91362537D01*
X117034463Y-91223249D01*
X116906018Y-91137424D01*
X117623561Y-90419882D01*
X117481044Y-90313195D01*
X117481039Y-90313192D01*
X117229952Y-90176089D01*
X116961902Y-90076112D01*
X116961891Y-90076108D01*
X116682364Y-90015301D01*
X116397000Y-89994891D01*
X116111635Y-90015301D01*
X115832108Y-90076108D01*
X115832097Y-90076112D01*
X115564047Y-90176089D01*
X115312960Y-90313192D01*
X115312957Y-90313194D01*
X115170437Y-90419882D01*
X115887980Y-91137425D01*
X115759537Y-91223249D01*
X115620249Y-91362537D01*
X115534425Y-91490980D01*
X114816882Y-90773437D01*
X114710194Y-90915957D01*
X114710192Y-90915960D01*
X114573089Y-91167047D01*
X114473112Y-91435097D01*
X114473108Y-91435108D01*
X114412301Y-91714635D01*
X114391891Y-92000000D01*
X110800500Y-92000000D01*
X110800500Y-91326770D01*
X110800501Y-91326766D01*
X110800500Y-91249606D01*
X110800892Y-91235648D01*
X110807733Y-91113811D01*
X110813543Y-91010325D01*
X110816666Y-90982603D01*
X110853302Y-90766976D01*
X110859510Y-90739779D01*
X110920052Y-90529635D01*
X110929273Y-90503285D01*
X110956543Y-90437452D01*
X111012968Y-90301231D01*
X111025067Y-90276109D01*
X111130869Y-90084683D01*
X111145706Y-90061071D01*
X111272281Y-89882691D01*
X111289664Y-89860896D01*
X111440435Y-89692193D01*
X111450005Y-89682073D01*
X111504193Y-89627889D01*
X111504193Y-89627887D01*
X111515505Y-89616577D01*
X111515539Y-89616537D01*
X114902077Y-86230000D01*
X116059148Y-85072930D01*
X116139930Y-85018954D01*
X116235218Y-85000000D01*
X116502696Y-85000000D01*
X116525195Y-85001018D01*
X116671443Y-85014288D01*
X116715702Y-85022385D01*
X116846285Y-85058729D01*
X116888365Y-85074661D01*
X117010264Y-85133908D01*
X117048789Y-85157153D01*
X117076518Y-85177514D01*
X117158036Y-85237373D01*
X117191752Y-85267175D01*
X117292547Y-85373981D01*
X117307248Y-85391043D01*
X122302891Y-91749134D01*
X122313256Y-91762326D01*
X122448393Y-91903427D01*
X122608386Y-92015558D01*
X122787129Y-92094440D01*
X129887788Y-94429936D01*
X129887791Y-94429936D01*
X129887792Y-94429937D01*
X130042018Y-94467405D01*
X130200234Y-94480000D01*
X134859997Y-94480000D01*
X134860000Y-94480000D01*
X135055090Y-94460785D01*
X135242683Y-94403880D01*
X135415570Y-94311470D01*
X135567107Y-94187107D01*
X135691470Y-94035570D01*
X135783880Y-93862683D01*
X135840785Y-93675090D01*
X135860000Y-93480000D01*
X135860000Y-89465796D01*
X135878954Y-89370508D01*
X135932930Y-89289726D01*
X137776369Y-87446288D01*
X141159227Y-84063430D01*
X141240009Y-84009454D01*
X141335297Y-83990500D01*
X153555256Y-83990500D01*
X153650544Y-84009454D01*
X153731326Y-84063430D01*
X153759227Y-84096683D01*
X153781945Y-84129129D01*
X153781950Y-84129135D01*
X153781953Y-84129139D01*
X153942861Y-84290047D01*
X154025048Y-84347594D01*
X154028516Y-84350068D01*
X154040842Y-84359023D01*
X154106790Y-84430368D01*
X154140415Y-84521518D01*
X154136599Y-84618598D01*
X154095923Y-84706828D01*
X154057047Y-84745030D01*
X154056527Y-84750973D01*
X154735554Y-85430000D01*
X154729339Y-85430000D01*
X154627606Y-85457259D01*
X154536394Y-85509920D01*
X154461920Y-85584394D01*
X154409259Y-85675606D01*
X154382000Y-85777339D01*
X154382000Y-85783554D01*
X153702973Y-85104527D01*
X153702972Y-85104527D01*
X153651870Y-85177510D01*
X153651867Y-85177514D01*
X153555732Y-85383676D01*
X153496859Y-85603396D01*
X153496859Y-85603397D01*
X153477034Y-85830000D01*
X153496859Y-86056602D01*
X153496859Y-86056603D01*
X153555732Y-86276323D01*
X153651867Y-86482486D01*
X153651869Y-86482488D01*
X153702973Y-86555471D01*
X154382000Y-85876445D01*
X154382000Y-85882661D01*
X154409259Y-85984394D01*
X154461920Y-86075606D01*
X154536394Y-86150080D01*
X154627606Y-86202741D01*
X154729339Y-86230000D01*
X154735552Y-86230000D01*
X153979963Y-86985587D01*
X153899182Y-87039563D01*
X153804070Y-87058517D01*
X153801241Y-87058519D01*
X153779172Y-87054145D01*
X153750544Y-87058565D01*
X149860210Y-87062052D01*
X149836162Y-87062646D01*
X149824401Y-87063217D01*
X149800501Y-87064946D01*
X149629123Y-87081446D01*
X149629113Y-87081447D01*
X149629105Y-87081448D01*
X149629081Y-87081451D01*
X149581580Y-87088315D01*
X149558468Y-87092785D01*
X149550016Y-87094841D01*
X149511769Y-87104144D01*
X149490159Y-87110502D01*
X149352305Y-87151060D01*
X149352282Y-87151067D01*
X149306900Y-87166798D01*
X149306881Y-87166805D01*
X149285118Y-87175527D01*
X149285035Y-87175563D01*
X149241380Y-87195519D01*
X149241356Y-87195530D01*
X149093614Y-87271755D01*
X149052041Y-87295770D01*
X149052029Y-87295778D01*
X149032234Y-87308504D01*
X149028418Y-87311222D01*
X148993086Y-87336387D01*
X148862427Y-87439153D01*
X148826093Y-87470639D01*
X148809110Y-87486831D01*
X148809083Y-87486858D01*
X148775916Y-87521635D01*
X148775916Y-87521636D01*
X148663153Y-87651727D01*
X148647805Y-87670309D01*
X148640562Y-87679517D01*
X148626162Y-87698745D01*
X147732397Y-88953125D01*
X147539501Y-89223850D01*
X145441853Y-92167846D01*
X145439596Y-92171013D01*
X145425049Y-92192584D01*
X145418180Y-92203360D01*
X145404729Y-92225712D01*
X145312593Y-92388170D01*
X145312581Y-92388193D01*
X145289234Y-92434810D01*
X145279002Y-92458181D01*
X145278998Y-92458190D01*
X145260580Y-92506958D01*
X145260576Y-92506969D01*
X145205649Y-92678715D01*
X145192358Y-92729088D01*
X145192348Y-92729132D01*
X145187124Y-92754086D01*
X145179081Y-92805635D01*
X145169186Y-92901200D01*
X145159848Y-92991377D01*
X145157831Y-93017405D01*
X145157171Y-93030190D01*
X145156500Y-93056224D01*
X145156500Y-113763905D01*
X145157108Y-113788705D01*
X145157675Y-113800232D01*
X145157706Y-113800861D01*
X145157824Y-113802455D01*
X145159531Y-113825613D01*
X145176951Y-114002486D01*
X145176951Y-114002490D01*
X145184228Y-114051544D01*
X145184229Y-114051553D01*
X145188965Y-114075365D01*
X145201021Y-114123501D01*
X145201027Y-114123523D01*
X145250836Y-114287722D01*
X145250840Y-114287735D01*
X145250841Y-114287736D01*
X145264753Y-114326617D01*
X145267564Y-114334471D01*
X145276861Y-114356913D01*
X145298067Y-114401747D01*
X145329204Y-114460000D01*
X145378964Y-114553095D01*
X145404451Y-114595617D01*
X145404469Y-114595646D01*
X145417957Y-114615832D01*
X145417979Y-114615864D01*
X145418021Y-114615920D01*
X145445515Y-114652993D01*
X145447527Y-114655705D01*
X145540320Y-114768773D01*
X145556388Y-114788352D01*
X145589703Y-114825108D01*
X145606891Y-114842296D01*
X145609974Y-114845090D01*
X145643648Y-114875612D01*
X145644124Y-114876003D01*
X145776303Y-114984479D01*
X145816152Y-115014032D01*
X145836364Y-115027537D01*
X145878910Y-115053038D01*
X146030252Y-115133932D01*
X146075086Y-115155138D01*
X146087920Y-115160454D01*
X146097531Y-115164436D01*
X146097540Y-115164439D01*
X146097544Y-115164441D01*
X146144263Y-115181158D01*
X146154608Y-115184296D01*
X146308471Y-115230970D01*
X146308481Y-115230972D01*
X146308486Y-115230974D01*
X146356611Y-115243028D01*
X146380452Y-115247770D01*
X146380457Y-115247770D01*
X146380470Y-115247773D01*
X146402577Y-115251052D01*
X146429516Y-115255048D01*
X146606390Y-115272469D01*
X146631139Y-115274294D01*
X146643293Y-115274891D01*
X146668093Y-115275500D01*
X154486145Y-115275500D01*
X154581433Y-115294454D01*
X154662215Y-115348430D01*
X154716191Y-115429212D01*
X154735145Y-115524500D01*
X154716191Y-115619788D01*
X154714188Y-115624484D01*
X154627937Y-115821119D01*
X154627936Y-115821122D01*
X154627935Y-115821125D01*
X154566894Y-116062168D01*
X154566892Y-116062176D01*
X154546357Y-116310000D01*
X154566892Y-116557823D01*
X154566894Y-116557831D01*
X154597705Y-116679500D01*
X154627937Y-116798881D01*
X154658596Y-116868777D01*
X154727825Y-117026603D01*
X154727828Y-117026608D01*
X154863830Y-117234778D01*
X154863836Y-117234785D01*
X155032248Y-117417730D01*
X155032252Y-117417733D01*
X155032256Y-117417738D01*
X155032260Y-117417741D01*
X155032261Y-117417742D01*
X155228485Y-117570470D01*
X155228487Y-117570471D01*
X155228491Y-117570474D01*
X155447190Y-117688828D01*
X155469981Y-117696652D01*
X155682378Y-117769569D01*
X155682382Y-117769569D01*
X155682386Y-117769571D01*
X155927665Y-117810500D01*
X155973414Y-117810500D01*
X156008847Y-117813034D01*
X156026000Y-117815500D01*
X160086234Y-117815500D01*
X160086235Y-117815500D01*
X160155280Y-117810762D01*
X160155285Y-117810761D01*
X160155289Y-117810761D01*
X160174885Y-117808058D01*
X160188838Y-117806135D01*
X160188850Y-117806132D01*
X160188853Y-117806132D01*
X160200288Y-117803747D01*
X160256599Y-117792009D01*
X160388159Y-117733754D01*
X160447369Y-117696661D01*
X160557184Y-117603704D01*
X163519740Y-114263502D01*
X163597141Y-114204797D01*
X163691125Y-114180178D01*
X163787376Y-114193399D01*
X163871242Y-114242447D01*
X163928553Y-114318009D01*
X163928791Y-114317889D01*
X163929464Y-114319211D01*
X163929953Y-114319855D01*
X163931158Y-114322536D01*
X163974078Y-114406771D01*
X164977000Y-113827734D01*
X164977000Y-113848991D01*
X165017889Y-114001591D01*
X165096881Y-114138408D01*
X165208592Y-114250119D01*
X165226998Y-114260746D01*
X164269785Y-114813394D01*
X164332391Y-114876000D01*
X164517034Y-115010151D01*
X164720382Y-115113762D01*
X164720399Y-115113770D01*
X164937460Y-115184296D01*
X165162872Y-115219998D01*
X165162887Y-115220000D01*
X165991114Y-115220000D01*
X165991124Y-115219999D01*
X166114224Y-115200501D01*
X166114225Y-115200500D01*
X165634736Y-114370000D01*
X165655991Y-114370000D01*
X165808591Y-114329111D01*
X165945408Y-114250119D01*
X166057119Y-114138408D01*
X166067746Y-114120000D01*
X166594242Y-115031918D01*
X166594243Y-115031918D01*
X166636968Y-115010149D01*
X166821605Y-114876003D01*
X166983000Y-114714608D01*
X167117151Y-114529965D01*
X167220762Y-114326617D01*
X167220770Y-114326600D01*
X167291296Y-114109539D01*
X167326998Y-113884127D01*
X167327000Y-113884112D01*
X167327000Y-113655887D01*
X167326998Y-113655872D01*
X167291296Y-113430459D01*
X167220769Y-113213397D01*
X167220765Y-113213387D01*
X167179921Y-113133226D01*
X167179920Y-113133226D01*
X166177000Y-113712262D01*
X166177000Y-113691009D01*
X166136111Y-113538409D01*
X166057119Y-113401592D01*
X165945408Y-113289881D01*
X165926999Y-113279252D01*
X166884213Y-112726604D01*
X166834032Y-112676423D01*
X166780056Y-112595641D01*
X166761102Y-112500353D01*
X166780056Y-112405065D01*
X166834029Y-112324286D01*
X166983379Y-112174937D01*
X167117579Y-111990228D01*
X167221231Y-111786799D01*
X167291784Y-111569660D01*
X167327500Y-111344157D01*
X167327500Y-111115843D01*
X167291784Y-110890340D01*
X167221231Y-110673201D01*
X167117579Y-110469772D01*
X166983379Y-110285063D01*
X166983376Y-110285060D01*
X166983374Y-110285057D01*
X166977025Y-110277623D01*
X166978232Y-110276592D01*
X166930951Y-110205830D01*
X166911997Y-110110542D01*
X166930951Y-110015254D01*
X166961659Y-109961327D01*
X167020796Y-109882331D01*
X167071091Y-109747483D01*
X167077500Y-109687873D01*
X167077499Y-107949999D01*
X169682000Y-107949999D01*
X169682000Y-114650000D01*
X169701214Y-114845088D01*
X169701215Y-114845091D01*
X169757887Y-115031918D01*
X169758120Y-115032683D01*
X169758123Y-115032688D01*
X169847820Y-115200501D01*
X169850530Y-115205570D01*
X169974893Y-115357107D01*
X170126430Y-115481470D01*
X170299317Y-115573880D01*
X170486910Y-115630785D01*
X170682000Y-115650000D01*
X186081997Y-115650000D01*
X186082000Y-115650000D01*
X186277090Y-115630785D01*
X186464683Y-115573880D01*
X186637570Y-115481470D01*
X186789107Y-115357107D01*
X186913470Y-115205570D01*
X187005880Y-115032683D01*
X187027928Y-114960000D01*
X195357034Y-114960000D01*
X195376859Y-115186602D01*
X195376859Y-115186603D01*
X195435732Y-115406323D01*
X195531867Y-115612486D01*
X195531869Y-115612488D01*
X195582972Y-115685471D01*
X195582974Y-115685471D01*
X196179037Y-115089408D01*
X196196075Y-115152993D01*
X196261901Y-115267007D01*
X196354993Y-115360099D01*
X196469007Y-115425925D01*
X196532589Y-115442962D01*
X195936527Y-116039023D01*
X195936527Y-116039025D01*
X196009515Y-116090132D01*
X196215676Y-116186267D01*
X196435396Y-116245140D01*
X196662000Y-116264965D01*
X196888602Y-116245140D01*
X196888603Y-116245140D01*
X197108326Y-116186266D01*
X197314476Y-116090137D01*
X197314483Y-116090133D01*
X197387471Y-116039025D01*
X196791408Y-115442962D01*
X196854993Y-115425925D01*
X196969007Y-115360099D01*
X197062099Y-115267007D01*
X197127925Y-115152993D01*
X197144962Y-115089408D01*
X197741025Y-115685471D01*
X197792133Y-115612483D01*
X197792137Y-115612476D01*
X197888266Y-115406326D01*
X197947140Y-115186603D01*
X197947140Y-115186602D01*
X197966965Y-114960000D01*
X197947140Y-114733397D01*
X197947140Y-114733396D01*
X197888267Y-114513676D01*
X197792132Y-114307515D01*
X197741025Y-114234527D01*
X197741023Y-114234527D01*
X197144962Y-114830589D01*
X197127925Y-114767007D01*
X197062099Y-114652993D01*
X196969007Y-114559901D01*
X196854993Y-114494075D01*
X196791408Y-114477037D01*
X197387471Y-113880974D01*
X197387471Y-113880972D01*
X197314488Y-113829869D01*
X197314486Y-113829867D01*
X197108323Y-113733732D01*
X196888603Y-113674859D01*
X196662000Y-113655034D01*
X196435397Y-113674859D01*
X196435396Y-113674859D01*
X196215676Y-113733732D01*
X196009514Y-113829867D01*
X196009510Y-113829870D01*
X195936527Y-113880972D01*
X195936527Y-113880973D01*
X196532591Y-114477037D01*
X196469007Y-114494075D01*
X196354993Y-114559901D01*
X196261901Y-114652993D01*
X196196075Y-114767007D01*
X196179037Y-114830591D01*
X195582973Y-114234527D01*
X195582972Y-114234527D01*
X195531870Y-114307510D01*
X195531867Y-114307514D01*
X195435732Y-114513676D01*
X195376859Y-114733396D01*
X195376859Y-114733397D01*
X195357034Y-114960000D01*
X187027928Y-114960000D01*
X187062785Y-114845090D01*
X187082000Y-114650000D01*
X187082000Y-107950000D01*
X187062785Y-107754910D01*
X187005880Y-107567317D01*
X186913470Y-107394430D01*
X186789107Y-107242893D01*
X186637570Y-107118530D01*
X186637568Y-107118529D01*
X186637567Y-107118528D01*
X186542885Y-107067920D01*
X186464683Y-107026120D01*
X186464680Y-107026119D01*
X186464678Y-107026118D01*
X186277091Y-106969215D01*
X186277088Y-106969214D01*
X186082000Y-106950000D01*
X170682000Y-106950000D01*
X170681999Y-106950000D01*
X170486911Y-106969214D01*
X170486908Y-106969215D01*
X170299321Y-107026118D01*
X170299311Y-107026123D01*
X170126432Y-107118528D01*
X169974894Y-107242892D01*
X169974892Y-107242894D01*
X169850528Y-107394432D01*
X169758123Y-107567311D01*
X169758118Y-107567321D01*
X169701215Y-107754908D01*
X169701214Y-107754911D01*
X169682000Y-107949999D01*
X167077499Y-107949999D01*
X167077499Y-107692128D01*
X167071091Y-107632517D01*
X167020796Y-107497669D01*
X166934546Y-107382454D01*
X166819331Y-107296204D01*
X166684483Y-107245909D01*
X166684478Y-107245907D01*
X166669326Y-107242327D01*
X166670253Y-107238402D01*
X166605847Y-107217807D01*
X166531676Y-107155055D01*
X166487166Y-107068695D01*
X166477500Y-106999991D01*
X166477500Y-97031825D01*
X166496454Y-96936537D01*
X166550427Y-96855758D01*
X166577047Y-96829139D01*
X166707568Y-96642734D01*
X166803739Y-96436496D01*
X166862635Y-96216692D01*
X166882468Y-95990000D01*
X166882468Y-95989994D01*
X166862636Y-95763320D01*
X166862635Y-95763308D01*
X166803739Y-95543504D01*
X166707568Y-95337266D01*
X166707565Y-95337262D01*
X166707563Y-95337258D01*
X166577050Y-95150865D01*
X166577049Y-95150864D01*
X166577047Y-95150861D01*
X166416139Y-94989953D01*
X166416135Y-94989950D01*
X166416134Y-94989949D01*
X166229741Y-94859436D01*
X166229727Y-94859428D01*
X166023499Y-94763262D01*
X166023496Y-94763261D01*
X165803694Y-94704365D01*
X165803679Y-94704363D01*
X165577006Y-94684532D01*
X165576994Y-94684532D01*
X165350320Y-94704363D01*
X165350305Y-94704365D01*
X165130503Y-94763261D01*
X165130500Y-94763262D01*
X164924272Y-94859428D01*
X164924258Y-94859436D01*
X164737865Y-94989949D01*
X164576949Y-95150865D01*
X164446436Y-95337258D01*
X164446428Y-95337272D01*
X164350262Y-95543500D01*
X164350261Y-95543503D01*
X164291365Y-95763305D01*
X164291363Y-95763320D01*
X164271532Y-95989994D01*
X164271532Y-95990005D01*
X164291363Y-96216679D01*
X164291365Y-96216694D01*
X164350261Y-96436496D01*
X164350262Y-96436499D01*
X164446428Y-96642727D01*
X164446436Y-96642741D01*
X164576724Y-96828812D01*
X164576953Y-96829139D01*
X164603572Y-96855758D01*
X164657546Y-96936537D01*
X164676500Y-97031825D01*
X164676500Y-106999990D01*
X164657546Y-107095278D01*
X164603570Y-107176060D01*
X164522788Y-107230036D01*
X164484161Y-107240129D01*
X164484681Y-107242326D01*
X164469515Y-107245909D01*
X164334670Y-107296203D01*
X164219455Y-107382453D01*
X164219453Y-107382455D01*
X164133204Y-107497669D01*
X164082908Y-107632518D01*
X164076500Y-107692123D01*
X164076500Y-107692127D01*
X164076500Y-108686305D01*
X164076501Y-109525500D01*
X164057547Y-109620788D01*
X164003571Y-109701569D01*
X163922789Y-109755546D01*
X163827501Y-109774500D01*
X161820960Y-109774500D01*
X161758007Y-109778435D01*
X161758000Y-109778435D01*
X161757998Y-109778436D01*
X161757997Y-109778436D01*
X161727374Y-109782279D01*
X161665404Y-109794023D01*
X161665403Y-109794023D01*
X161532463Y-109849057D01*
X161532460Y-109849058D01*
X161449019Y-109898543D01*
X161435581Y-109914329D01*
X161360317Y-109974955D01*
X158348707Y-113208338D01*
X158269892Y-113265147D01*
X158175337Y-113287471D01*
X158079436Y-113271911D01*
X157996790Y-113220835D01*
X157939981Y-113142020D01*
X157917657Y-113047465D01*
X157917500Y-113038628D01*
X157917500Y-106156093D01*
X157916891Y-106131295D01*
X157916891Y-106131292D01*
X157916294Y-106119138D01*
X157914469Y-106094389D01*
X157897048Y-105917516D01*
X157889770Y-105868452D01*
X157885028Y-105844611D01*
X157872974Y-105796486D01*
X157872972Y-105796481D01*
X157872970Y-105796471D01*
X157823159Y-105632267D01*
X157823158Y-105632263D01*
X157806441Y-105585544D01*
X157797138Y-105563086D01*
X157775932Y-105518252D01*
X157695038Y-105366910D01*
X157669537Y-105324364D01*
X157656032Y-105304152D01*
X157626479Y-105264303D01*
X157616990Y-105252741D01*
X157517612Y-105131648D01*
X157512136Y-105125606D01*
X157484296Y-105094891D01*
X157467108Y-105077703D01*
X157430352Y-105044388D01*
X157430350Y-105044386D01*
X157297712Y-104935532D01*
X157279754Y-104922214D01*
X157266265Y-104912210D01*
X157201021Y-104840227D01*
X157168289Y-104748752D01*
X157173054Y-104651714D01*
X157214591Y-104563886D01*
X157231403Y-104543562D01*
X157239770Y-104534472D01*
X157375731Y-104326369D01*
X157375731Y-104326368D01*
X157475586Y-104098722D01*
X157536039Y-103860000D01*
X156485012Y-103860000D01*
X156517925Y-103802993D01*
X156552000Y-103675826D01*
X156552000Y-103544174D01*
X156517925Y-103417007D01*
X156485012Y-103360000D01*
X157536039Y-103360000D01*
X157475586Y-103121277D01*
X157375731Y-102893631D01*
X157375731Y-102893630D01*
X157239769Y-102685524D01*
X157239767Y-102685522D01*
X157071411Y-102502639D01*
X157071399Y-102502629D01*
X156875237Y-102349949D01*
X156875230Y-102349944D01*
X156656606Y-102231630D01*
X156421487Y-102150915D01*
X156302000Y-102130976D01*
X156302000Y-103176988D01*
X156244993Y-103144075D01*
X156117826Y-103110000D01*
X155986174Y-103110000D01*
X155859007Y-103144075D01*
X155802000Y-103176988D01*
X155802000Y-102130976D01*
X155801999Y-102130976D01*
X155682512Y-102150915D01*
X155447393Y-102231630D01*
X155228769Y-102349944D01*
X155228762Y-102349949D01*
X155032600Y-102502629D01*
X155032588Y-102502639D01*
X154864232Y-102685522D01*
X154864230Y-102685524D01*
X154728268Y-102893630D01*
X154728268Y-102893631D01*
X154628413Y-103121277D01*
X154567961Y-103360000D01*
X155618988Y-103360000D01*
X155586075Y-103417007D01*
X155552000Y-103544174D01*
X155552000Y-103675826D01*
X155586075Y-103802993D01*
X155618988Y-103860000D01*
X154567961Y-103860000D01*
X154628413Y-104098723D01*
X154628417Y-104098732D01*
X154714718Y-104295478D01*
X154735638Y-104390354D01*
X154718657Y-104486013D01*
X154666362Y-104567893D01*
X154586713Y-104623527D01*
X154491837Y-104644447D01*
X154486691Y-104644500D01*
X152426327Y-104644500D01*
X152401919Y-104643301D01*
X152382832Y-104641421D01*
X152317650Y-104635000D01*
X152269781Y-104625477D01*
X152224413Y-104611715D01*
X152179318Y-104593037D01*
X152137506Y-104570688D01*
X152096926Y-104543574D01*
X152060270Y-104513491D01*
X152025761Y-104478982D01*
X151995670Y-104442315D01*
X151968558Y-104401740D01*
X151946209Y-104359928D01*
X151927533Y-104314837D01*
X151913767Y-104269458D01*
X151904245Y-104221582D01*
X151895949Y-104137339D01*
X151894750Y-104112936D01*
X151894750Y-93000109D01*
X151896661Y-92969321D01*
X151909839Y-92863612D01*
X151924962Y-92803903D01*
X151963684Y-92704679D01*
X151976664Y-92676678D01*
X153009638Y-90768181D01*
X153071662Y-90693405D01*
X153157583Y-90648055D01*
X153254319Y-90639038D01*
X153347142Y-90667726D01*
X153421921Y-90729752D01*
X153467271Y-90815673D01*
X153475732Y-90899128D01*
X153476532Y-90899128D01*
X153476532Y-90907017D01*
X153476672Y-90908398D01*
X153476532Y-90909999D01*
X153476532Y-90910005D01*
X153496363Y-91136679D01*
X153496365Y-91136694D01*
X153555261Y-91356496D01*
X153555262Y-91356499D01*
X153651428Y-91562727D01*
X153651436Y-91562741D01*
X153753365Y-91708311D01*
X153781953Y-91749139D01*
X153829399Y-91796585D01*
X153883373Y-91877364D01*
X153902327Y-91972652D01*
X153883373Y-92067940D01*
X153829397Y-92148722D01*
X153748615Y-92202698D01*
X153740344Y-92205952D01*
X153739671Y-92206202D01*
X153624455Y-92292453D01*
X153624453Y-92292455D01*
X153538204Y-92407669D01*
X153487908Y-92542518D01*
X153481500Y-92602123D01*
X153481500Y-94297865D01*
X153481500Y-94297868D01*
X153481501Y-94297872D01*
X153482963Y-94311470D01*
X153487908Y-94357480D01*
X153487909Y-94357484D01*
X153526438Y-94460785D01*
X153538204Y-94492331D01*
X153624454Y-94607546D01*
X153739669Y-94693796D01*
X153874517Y-94744091D01*
X153934127Y-94750500D01*
X155629872Y-94750499D01*
X155689483Y-94744091D01*
X155824331Y-94693796D01*
X155939546Y-94607546D01*
X156025796Y-94492331D01*
X156076091Y-94357483D01*
X156082500Y-94297873D01*
X156082499Y-92602128D01*
X156076091Y-92542517D01*
X156060233Y-92500000D01*
X197744473Y-92500000D01*
X197761213Y-92776751D01*
X197764565Y-92832153D01*
X197824542Y-93159432D01*
X197824544Y-93159442D01*
X197923539Y-93477128D01*
X198060100Y-93780554D01*
X198232246Y-94065318D01*
X198437452Y-94327245D01*
X198437454Y-94327247D01*
X198437458Y-94327252D01*
X198672748Y-94562542D01*
X198934682Y-94767754D01*
X199219443Y-94939898D01*
X199522877Y-95076463D01*
X199840559Y-95175456D01*
X200167847Y-95235434D01*
X200167848Y-95235434D01*
X200167858Y-95235436D01*
X200500000Y-95255527D01*
X200832142Y-95235436D01*
X201159441Y-95175456D01*
X201477123Y-95076463D01*
X201780557Y-94939898D01*
X202065318Y-94767754D01*
X202327252Y-94562542D01*
X202562542Y-94327252D01*
X202767754Y-94065318D01*
X202939898Y-93780557D01*
X203076463Y-93477123D01*
X203175456Y-93159441D01*
X203235436Y-92832142D01*
X203255527Y-92500000D01*
X203235436Y-92167858D01*
X203175456Y-91840559D01*
X203076463Y-91522877D01*
X202939898Y-91219443D01*
X202767754Y-90934682D01*
X202681609Y-90824726D01*
X202562547Y-90672754D01*
X202562545Y-90672752D01*
X202562542Y-90672748D01*
X202327252Y-90437458D01*
X202327247Y-90437454D01*
X202327245Y-90437452D01*
X202065318Y-90232246D01*
X201780554Y-90060100D01*
X201477128Y-89923539D01*
X201477126Y-89923538D01*
X201477123Y-89923537D01*
X201223130Y-89844390D01*
X201159442Y-89824544D01*
X201159432Y-89824542D01*
X200832152Y-89764565D01*
X200832155Y-89764565D01*
X200832143Y-89764564D01*
X200832142Y-89764564D01*
X200500000Y-89744473D01*
X200167858Y-89764564D01*
X200167855Y-89764564D01*
X200167846Y-89764565D01*
X199840567Y-89824542D01*
X199840557Y-89824544D01*
X199522871Y-89923539D01*
X199219445Y-90060100D01*
X198934681Y-90232246D01*
X198672754Y-90437452D01*
X198437452Y-90672754D01*
X198232246Y-90934681D01*
X198060100Y-91219445D01*
X197923539Y-91522871D01*
X197824544Y-91840557D01*
X197824542Y-91840567D01*
X197764565Y-92167846D01*
X197764564Y-92167855D01*
X197764564Y-92167858D01*
X197744473Y-92500000D01*
X156060233Y-92500000D01*
X156025796Y-92407669D01*
X155939546Y-92292454D01*
X155824331Y-92206204D01*
X155823656Y-92205952D01*
X155822026Y-92204945D01*
X155808702Y-92197670D01*
X155809091Y-92196955D01*
X155741002Y-92154896D01*
X155684175Y-92076094D01*
X155661831Y-91981543D01*
X155677370Y-91885639D01*
X155728428Y-91802982D01*
X155734576Y-91796609D01*
X155782047Y-91749139D01*
X155912568Y-91562734D01*
X156008739Y-91356496D01*
X156067635Y-91136692D01*
X156081118Y-90982586D01*
X156087468Y-90910005D01*
X156087468Y-90909994D01*
X156067636Y-90683320D01*
X156067635Y-90683308D01*
X156008739Y-90463504D01*
X155938647Y-90313192D01*
X155912571Y-90257272D01*
X155912563Y-90257258D01*
X155782050Y-90070865D01*
X155782049Y-90070864D01*
X155782047Y-90070861D01*
X155621139Y-89909953D01*
X155621135Y-89909950D01*
X155621134Y-89909949D01*
X155526903Y-89843968D01*
X155459719Y-89773787D01*
X155424506Y-89683238D01*
X155426625Y-89586106D01*
X155465754Y-89497179D01*
X155526899Y-89436033D01*
X155621139Y-89370047D01*
X155782047Y-89209139D01*
X155912568Y-89022734D01*
X155922135Y-89002218D01*
X155945027Y-88953125D01*
X155946870Y-88949374D01*
X155946850Y-88949364D01*
X155948385Y-88946177D01*
X155960435Y-88921159D01*
X155961350Y-88918949D01*
X155962348Y-88916542D01*
X155966727Y-88906589D01*
X155987118Y-88862861D01*
X156008739Y-88816496D01*
X156043572Y-88686491D01*
X156044792Y-88682105D01*
X156048054Y-88670788D01*
X156048588Y-88668444D01*
X156050811Y-88659475D01*
X156067635Y-88596692D01*
X156087468Y-88370000D01*
X156087468Y-88369994D01*
X156067636Y-88143314D01*
X156067635Y-88143309D01*
X156059305Y-88112222D01*
X156054929Y-88092190D01*
X156054898Y-88092197D01*
X156054562Y-88090511D01*
X156054341Y-88089496D01*
X156054224Y-88088808D01*
X156054215Y-88088765D01*
X156051002Y-88074698D01*
X156048037Y-88061712D01*
X156032324Y-88007203D01*
X156030478Y-88001931D01*
X156024973Y-87984091D01*
X156008741Y-87923510D01*
X156008740Y-87923508D01*
X156008739Y-87923504D01*
X155991019Y-87885503D01*
X155983477Y-87866970D01*
X155983438Y-87866987D01*
X155983437Y-87866985D01*
X155983346Y-87867020D01*
X155982105Y-87863770D01*
X155981714Y-87862827D01*
X155960384Y-87811363D01*
X155948323Y-87786334D01*
X155929842Y-87752918D01*
X155922079Y-87737663D01*
X155912568Y-87717266D01*
X155877703Y-87667473D01*
X155870930Y-87657272D01*
X155839971Y-87608036D01*
X155807131Y-87561787D01*
X155789800Y-87540072D01*
X155789793Y-87540064D01*
X155787553Y-87537413D01*
X155787560Y-87537406D01*
X155786900Y-87536643D01*
X155781931Y-87530722D01*
X155772819Y-87521086D01*
X155751996Y-87497804D01*
X155644478Y-87390382D01*
X155644463Y-87390368D01*
X155602168Y-87352609D01*
X155602155Y-87352597D01*
X155580418Y-87335282D01*
X155580411Y-87335277D01*
X155531310Y-87300479D01*
X155531867Y-87299691D01*
X155466983Y-87234877D01*
X155429756Y-87145137D01*
X155429705Y-87047982D01*
X155466837Y-86958203D01*
X155506739Y-86917398D01*
X155507471Y-86909025D01*
X154828446Y-86230000D01*
X154834661Y-86230000D01*
X154936394Y-86202741D01*
X155027606Y-86150080D01*
X155102080Y-86075606D01*
X155154741Y-85984394D01*
X155182000Y-85882661D01*
X155182000Y-85876446D01*
X155861025Y-86555471D01*
X155912133Y-86482483D01*
X155912137Y-86482476D01*
X156008266Y-86276326D01*
X156067140Y-86056603D01*
X156067140Y-86056602D01*
X156086965Y-85830000D01*
X156067140Y-85603397D01*
X156067140Y-85603396D01*
X156008267Y-85383676D01*
X155912132Y-85177515D01*
X155861025Y-85104527D01*
X155861023Y-85104527D01*
X155182000Y-85783551D01*
X155182000Y-85777339D01*
X155154741Y-85675606D01*
X155102080Y-85584394D01*
X155027606Y-85509920D01*
X154936394Y-85457259D01*
X154834661Y-85430000D01*
X154828446Y-85430000D01*
X155568860Y-84689585D01*
X155574424Y-84679445D01*
X155650194Y-84618634D01*
X155743467Y-84591447D01*
X155765168Y-84590500D01*
X157397459Y-84590500D01*
X157492747Y-84609454D01*
X157510502Y-84617639D01*
X157578130Y-84652097D01*
X157634008Y-84680568D01*
X157858632Y-84753553D01*
X158091908Y-84790500D01*
X158091912Y-84790500D01*
X161378088Y-84790500D01*
X161378092Y-84790500D01*
X161611368Y-84753553D01*
X161835992Y-84680568D01*
X162046434Y-84573343D01*
X162237510Y-84434517D01*
X163298597Y-83373430D01*
X163379379Y-83319454D01*
X163474667Y-83300500D01*
X172892500Y-83300500D01*
X172987788Y-83319454D01*
G37*
%TD.AperFunction*%
%TA.AperFunction,Conductor*%
G36*
X215274175Y-84374094D02*
G01*
X215242000Y-84494174D01*
X215242000Y-84356896D01*
X215274175Y-84374094D01*
G37*
%TD.AperFunction*%
%TD*%
%TA.AperFunction,Conductor*%
%TO.N,<NO NET>*%
G36*
X237705203Y-98996653D02*
G01*
X237727102Y-99021476D01*
X237824857Y-99167777D01*
X237824863Y-99167785D01*
X237968537Y-99311459D01*
X237968559Y-99311479D01*
X239091735Y-100434655D01*
X239091764Y-100434686D01*
X239234214Y-100577136D01*
X239234218Y-100577139D01*
X239398079Y-100686628D01*
X239398092Y-100686635D01*
X239526833Y-100739961D01*
X239569744Y-100757735D01*
X239580164Y-100762051D01*
X239676812Y-100781275D01*
X239725135Y-100790887D01*
X239773458Y-100800500D01*
X239773459Y-100800500D01*
X239773460Y-100800500D01*
X239970540Y-100800500D01*
X241534412Y-100800500D01*
X241601451Y-100820185D01*
X241605523Y-100822917D01*
X241759266Y-100930568D01*
X241817275Y-100957618D01*
X241869714Y-101003791D01*
X241888866Y-101070984D01*
X241868650Y-101137865D01*
X241817275Y-101182382D01*
X241759267Y-101209431D01*
X241759265Y-101209432D01*
X241572858Y-101339954D01*
X241411954Y-101500858D01*
X241281432Y-101687265D01*
X241281431Y-101687267D01*
X241185261Y-101893502D01*
X241185258Y-101893511D01*
X241126366Y-102113302D01*
X241126364Y-102113311D01*
X241120958Y-102175096D01*
X241095504Y-102240164D01*
X241085111Y-102251967D01*
X240473899Y-102863181D01*
X240412576Y-102896666D01*
X240386218Y-102899500D01*
X237624000Y-102899500D01*
X237556961Y-102879815D01*
X237511206Y-102827011D01*
X237500000Y-102775500D01*
X237500000Y-99090366D01*
X237519685Y-99023327D01*
X237572489Y-98977572D01*
X237641647Y-98967628D01*
X237705203Y-98996653D01*
G37*
%TD.AperFunction*%
%TD*%
%TA.AperFunction,Conductor*%
%TO.N,/+24V*%
G36*
X154783100Y-87563920D02*
G01*
X154941118Y-87581592D01*
X154968201Y-87587752D01*
X155111693Y-87637849D01*
X155136727Y-87649885D01*
X155265462Y-87730672D01*
X155287192Y-87747982D01*
X155394707Y-87855400D01*
X155412038Y-87877115D01*
X155492938Y-88005775D01*
X155504999Y-88030804D01*
X155555223Y-88174249D01*
X155561408Y-88201334D01*
X155578434Y-88352355D01*
X155578435Y-88380132D01*
X155561410Y-88531220D01*
X155555230Y-88558294D01*
X155505009Y-88701802D01*
X155492959Y-88726820D01*
X155412059Y-88855557D01*
X155394744Y-88877268D01*
X155287229Y-88984767D01*
X155265517Y-89002078D01*
X155136765Y-89082963D01*
X155111743Y-89095010D01*
X154968230Y-89145209D01*
X154941157Y-89151385D01*
X154892101Y-89156905D01*
X154783085Y-89169173D01*
X154769234Y-89169950D01*
X153902459Y-89169827D01*
X153895926Y-89169827D01*
X153895925Y-89169827D01*
X153895923Y-89169827D01*
X153895920Y-89169827D01*
X153682615Y-89192812D01*
X153682605Y-89192814D01*
X153479102Y-89260775D01*
X153294776Y-89370584D01*
X153138118Y-89517183D01*
X153016342Y-89693822D01*
X153016334Y-89693836D01*
X151509804Y-92477264D01*
X151509802Y-92477270D01*
X151419857Y-92707752D01*
X151389250Y-92953266D01*
X151389250Y-92953272D01*
X151389250Y-104149996D01*
X151408464Y-104345088D01*
X151408465Y-104345090D01*
X151465370Y-104532683D01*
X151465371Y-104532686D01*
X151465372Y-104532687D01*
X151465373Y-104532690D01*
X151557776Y-104705564D01*
X151557781Y-104705571D01*
X151682142Y-104857107D01*
X151787594Y-104943648D01*
X151833680Y-104981470D01*
X151833683Y-104981471D01*
X151833685Y-104981473D01*
X152006559Y-105073876D01*
X152006560Y-105073876D01*
X152006567Y-105073880D01*
X152194160Y-105130785D01*
X152194159Y-105130785D01*
X152242932Y-105135588D01*
X152389250Y-105150000D01*
X156405907Y-105150000D01*
X156418061Y-105150597D01*
X156594941Y-105168018D01*
X156618769Y-105172757D01*
X156783001Y-105222576D01*
X156805453Y-105231877D01*
X156956798Y-105312772D01*
X156977010Y-105326277D01*
X157109666Y-105435145D01*
X157126854Y-105452333D01*
X157235722Y-105584989D01*
X157249227Y-105605201D01*
X157330121Y-105756543D01*
X157339424Y-105779001D01*
X157389240Y-105943224D01*
X157393982Y-105967065D01*
X157411403Y-106143938D01*
X157412000Y-106156092D01*
X157412000Y-113763907D01*
X157411403Y-113776061D01*
X157393982Y-113952934D01*
X157389240Y-113976775D01*
X157339424Y-114140998D01*
X157330121Y-114163456D01*
X157249227Y-114314798D01*
X157235722Y-114335010D01*
X157126854Y-114467666D01*
X157109666Y-114484854D01*
X156977010Y-114593722D01*
X156956798Y-114607227D01*
X156805456Y-114688121D01*
X156782998Y-114697424D01*
X156618775Y-114747240D01*
X156594934Y-114751982D01*
X156418061Y-114769403D01*
X156405907Y-114770000D01*
X146668093Y-114770000D01*
X146655939Y-114769403D01*
X146479065Y-114751982D01*
X146455224Y-114747240D01*
X146291001Y-114697424D01*
X146268543Y-114688121D01*
X146117201Y-114607227D01*
X146096989Y-114593722D01*
X145964333Y-114484854D01*
X145947145Y-114467666D01*
X145838277Y-114335010D01*
X145824772Y-114314798D01*
X145743878Y-114163456D01*
X145734575Y-114140998D01*
X145684757Y-113976769D01*
X145680018Y-113952941D01*
X145662597Y-113776061D01*
X145662000Y-113763907D01*
X145662000Y-93056226D01*
X145662659Y-93043455D01*
X145671998Y-92953266D01*
X145681895Y-92857686D01*
X145687128Y-92832691D01*
X145742057Y-92660939D01*
X145752295Y-92637556D01*
X145844438Y-92475085D01*
X145851294Y-92464330D01*
X147951187Y-89517184D01*
X149037854Y-87992072D01*
X149045124Y-87982830D01*
X149157902Y-87852721D01*
X149174928Y-87836488D01*
X149305597Y-87733713D01*
X149325392Y-87720987D01*
X149473126Y-87644766D01*
X149494970Y-87636011D01*
X149654448Y-87589090D01*
X149677555Y-87584621D01*
X149848931Y-87568122D01*
X149860671Y-87567552D01*
X154769216Y-87563153D01*
X154783100Y-87563920D01*
G37*
%TD.AperFunction*%
%TD*%
%TA.AperFunction,Conductor*%
%TO.N,/LED-*%
G36*
X165610039Y-110299685D02*
G01*
X165655794Y-110352489D01*
X165667000Y-110404000D01*
X165667000Y-112056000D01*
X165647315Y-112123039D01*
X165594511Y-112168794D01*
X165543000Y-112180000D01*
X164691999Y-112180000D01*
X160179003Y-117268280D01*
X160119793Y-117305373D01*
X160086235Y-117310000D01*
X156026000Y-117310000D01*
X155958961Y-117290315D01*
X155913206Y-117237511D01*
X155902000Y-117186000D01*
X155902000Y-115434000D01*
X155921685Y-115366961D01*
X155974489Y-115321206D01*
X156026000Y-115310000D01*
X157082000Y-115310000D01*
X161730222Y-110319486D01*
X161790318Y-110283846D01*
X161820960Y-110280000D01*
X165543000Y-110280000D01*
X165610039Y-110299685D01*
G37*
%TD.AperFunction*%
%TD*%
%TA.AperFunction,Conductor*%
%TO.N,<NO NET>*%
G36*
X235468987Y-83356094D02*
G01*
X235470185Y-83356211D01*
X235474868Y-83356672D01*
X235482734Y-83357447D01*
X235482734Y-83357448D01*
X235571627Y-83366202D01*
X235595456Y-83370941D01*
X235664411Y-83391858D01*
X235686859Y-83401157D01*
X235735169Y-83426979D01*
X235750383Y-83435111D01*
X235770594Y-83448616D01*
X235850307Y-83514035D01*
X235859322Y-83522206D01*
X239087354Y-86750239D01*
X239105315Y-86767340D01*
X239105331Y-86767355D01*
X239114325Y-86775508D01*
X239133121Y-86791721D01*
X239133126Y-86791725D01*
X239270515Y-86904478D01*
X239310365Y-86934032D01*
X239330577Y-86947537D01*
X239330582Y-86947540D01*
X239330588Y-86947544D01*
X239373120Y-86973036D01*
X239373128Y-86973041D01*
X239524442Y-87053920D01*
X239524446Y-87053922D01*
X239524465Y-87053932D01*
X239569299Y-87075138D01*
X239591757Y-87084441D01*
X239638476Y-87101158D01*
X239802699Y-87150974D01*
X239850824Y-87163028D01*
X239874665Y-87167770D01*
X239923729Y-87175048D01*
X240100604Y-87192469D01*
X240125353Y-87194294D01*
X240137507Y-87194891D01*
X240162307Y-87195500D01*
X240987500Y-87195500D01*
X241054539Y-87215185D01*
X241100294Y-87267989D01*
X241111500Y-87319500D01*
X241111500Y-97197802D01*
X241111028Y-97208609D01*
X241106532Y-97259998D01*
X241106532Y-97260000D01*
X241111028Y-97311388D01*
X241111500Y-97322196D01*
X241111500Y-97362351D01*
X241119728Y-97414301D01*
X241120783Y-97422891D01*
X241126364Y-97486686D01*
X241126367Y-97486699D01*
X241136492Y-97524488D01*
X241139190Y-97537181D01*
X241143521Y-97564525D01*
X241143522Y-97564530D01*
X241163617Y-97626378D01*
X241165460Y-97632600D01*
X241185260Y-97706494D01*
X241196531Y-97730667D01*
X241202077Y-97744747D01*
X241206777Y-97759212D01*
X241206781Y-97759221D01*
X241241947Y-97828238D01*
X241243844Y-97832128D01*
X241281432Y-97912734D01*
X241289563Y-97924347D01*
X241298469Y-97939169D01*
X241299714Y-97941612D01*
X241299714Y-97941613D01*
X241352536Y-98014316D01*
X241353793Y-98016078D01*
X241411953Y-98099140D01*
X241572858Y-98260045D01*
X241655920Y-98318205D01*
X241657682Y-98319462D01*
X241730388Y-98372286D01*
X241730391Y-98372288D01*
X241732818Y-98373524D01*
X241747652Y-98382436D01*
X241759266Y-98390568D01*
X241817274Y-98417618D01*
X241869713Y-98463791D01*
X241888865Y-98530984D01*
X241868649Y-98597865D01*
X241817275Y-98642382D01*
X241759264Y-98669433D01*
X241677042Y-98727005D01*
X241621228Y-98766087D01*
X241605535Y-98777075D01*
X241539329Y-98799402D01*
X241534412Y-98799500D01*
X240337782Y-98799500D01*
X240270743Y-98779815D01*
X240250101Y-98763181D01*
X239638819Y-98151899D01*
X239605334Y-98090576D01*
X239602500Y-98064218D01*
X239602500Y-89541456D01*
X239564052Y-89348170D01*
X239564051Y-89348169D01*
X239564051Y-89348165D01*
X239544101Y-89300000D01*
X239488635Y-89166092D01*
X239488628Y-89166079D01*
X239379139Y-89002218D01*
X239379136Y-89002214D01*
X239236686Y-88859764D01*
X239236655Y-88859735D01*
X234303479Y-83926559D01*
X234303459Y-83926537D01*
X234159785Y-83782863D01*
X234159781Y-83782860D01*
X233995920Y-83673371D01*
X233995907Y-83673364D01*
X233861527Y-83617703D01*
X233861526Y-83617703D01*
X233813836Y-83597949D01*
X233813835Y-83597948D01*
X233808208Y-83595618D01*
X233808729Y-83594358D01*
X233756092Y-83559859D01*
X233727638Y-83496046D01*
X233738201Y-83426979D01*
X233784427Y-83374588D01*
X233850529Y-83355500D01*
X235456862Y-83355500D01*
X235468987Y-83356094D01*
G37*
%TD.AperFunction*%
%TD*%
%TA.AperFunction,Conductor*%
%TO.N,Net-(J3-Vcc)*%
G36*
X239913137Y-80801096D02*
G01*
X240084941Y-80818018D01*
X240108769Y-80822757D01*
X240273001Y-80872576D01*
X240295453Y-80881877D01*
X240446798Y-80962772D01*
X240467010Y-80976277D01*
X240599666Y-81085145D01*
X240616854Y-81102333D01*
X240725722Y-81234989D01*
X240739227Y-81255201D01*
X240820121Y-81406543D01*
X240829424Y-81429001D01*
X240879240Y-81593224D01*
X240883982Y-81617065D01*
X240901403Y-81793938D01*
X240902000Y-81806092D01*
X240902000Y-82689996D01*
X240921214Y-82885088D01*
X240921215Y-82885090D01*
X240978120Y-83072683D01*
X240978121Y-83072686D01*
X240978122Y-83072687D01*
X240978123Y-83072690D01*
X241070526Y-83245564D01*
X241070531Y-83245571D01*
X241194892Y-83397107D01*
X241280438Y-83467312D01*
X241346430Y-83521470D01*
X241346433Y-83521471D01*
X241346435Y-83521473D01*
X241519309Y-83613876D01*
X241519310Y-83613876D01*
X241519317Y-83613880D01*
X241706910Y-83670785D01*
X241706909Y-83670785D01*
X241755682Y-83675588D01*
X241902000Y-83690000D01*
X241998632Y-83690000D01*
X242030725Y-83694225D01*
X242073308Y-83705635D01*
X242235230Y-83719801D01*
X242299998Y-83725468D01*
X242300000Y-83725468D01*
X242300002Y-83725468D01*
X242331421Y-83722719D01*
X242526692Y-83705635D01*
X242526704Y-83705631D01*
X242532029Y-83704694D01*
X242532267Y-83706049D01*
X242566357Y-83703233D01*
X242614941Y-83708018D01*
X242638769Y-83712757D01*
X242803001Y-83762576D01*
X242825453Y-83771877D01*
X242976798Y-83852772D01*
X242997010Y-83866277D01*
X243129666Y-83975145D01*
X243146854Y-83992333D01*
X243255722Y-84124989D01*
X243269227Y-84145201D01*
X243350121Y-84296543D01*
X243359424Y-84319001D01*
X243409240Y-84483224D01*
X243413982Y-84507065D01*
X243431403Y-84683938D01*
X243432000Y-84696092D01*
X243432000Y-85683907D01*
X243431403Y-85696061D01*
X243413982Y-85872934D01*
X243409240Y-85896775D01*
X243359424Y-86060998D01*
X243350121Y-86083456D01*
X243269227Y-86234798D01*
X243255722Y-86255010D01*
X243146854Y-86387666D01*
X243129666Y-86404854D01*
X242997010Y-86513722D01*
X242976798Y-86527227D01*
X242825456Y-86608121D01*
X242802998Y-86617424D01*
X242638775Y-86667240D01*
X242614934Y-86671982D01*
X242438061Y-86689403D01*
X242425907Y-86690000D01*
X240162307Y-86690000D01*
X240150153Y-86689403D01*
X239973278Y-86671982D01*
X239949437Y-86667240D01*
X239785214Y-86617424D01*
X239762756Y-86608121D01*
X239611414Y-86527227D01*
X239591202Y-86513722D01*
X239453813Y-86400969D01*
X239444797Y-86392797D01*
X236194898Y-83142897D01*
X236043358Y-83018530D01*
X236043351Y-83018526D01*
X235870477Y-82926123D01*
X235870474Y-82926122D01*
X235870473Y-82926121D01*
X235870470Y-82926120D01*
X235682877Y-82869215D01*
X235682875Y-82869214D01*
X235682877Y-82869214D01*
X235532280Y-82854382D01*
X235487786Y-82850000D01*
X235487783Y-82850000D01*
X220182003Y-82850000D01*
X220182000Y-82850000D01*
X220133844Y-82854743D01*
X219986911Y-82869214D01*
X219876149Y-82902813D01*
X219799317Y-82926120D01*
X219799314Y-82926121D01*
X219799312Y-82926122D01*
X219799309Y-82926123D01*
X219626435Y-83018526D01*
X219626428Y-83018531D01*
X219474892Y-83142892D01*
X219350531Y-83294428D01*
X219350526Y-83294435D01*
X219258123Y-83467309D01*
X219258122Y-83467312D01*
X219201214Y-83654911D01*
X219182000Y-83850003D01*
X219182000Y-84553038D01*
X219181220Y-84566922D01*
X219160999Y-84746382D01*
X219154820Y-84773453D01*
X219097484Y-84937309D01*
X219085437Y-84962326D01*
X218993080Y-85109312D01*
X218975767Y-85131021D01*
X218853021Y-85253767D01*
X218831312Y-85271080D01*
X218684326Y-85363437D01*
X218659309Y-85375484D01*
X218495453Y-85432820D01*
X218468382Y-85438999D01*
X218295884Y-85458435D01*
X218268116Y-85458435D01*
X218095617Y-85438999D01*
X218068546Y-85432820D01*
X217904690Y-85375484D01*
X217879673Y-85363437D01*
X217732687Y-85271080D01*
X217710978Y-85253767D01*
X217588232Y-85131021D01*
X217570919Y-85109312D01*
X217478562Y-84962326D01*
X217466515Y-84937309D01*
X217409179Y-84773453D01*
X217403000Y-84746381D01*
X217396647Y-84690000D01*
X217382780Y-84566921D01*
X217382000Y-84553038D01*
X217382000Y-81806092D01*
X217382597Y-81793938D01*
X217400018Y-81617056D01*
X217404757Y-81593232D01*
X217454577Y-81428994D01*
X217463875Y-81406549D01*
X217544775Y-81255195D01*
X217558272Y-81234995D01*
X217667149Y-81102328D01*
X217684328Y-81085149D01*
X217816995Y-80976272D01*
X217837195Y-80962775D01*
X217988549Y-80881875D01*
X218010994Y-80872577D01*
X218175232Y-80822757D01*
X218199056Y-80818018D01*
X218370862Y-80801096D01*
X218383016Y-80800500D01*
X239900984Y-80800500D01*
X239913137Y-80801096D01*
G37*
%TD.AperFunction*%
%TD*%
D32*
X113226816Y-103047625D02*
X113226816Y-100047625D01*
X114417292Y-103047625D02*
X114417292Y-100047625D01*
X114417292Y-100047625D02*
X115845863Y-103047625D01*
X115845863Y-103047625D02*
X115845863Y-100047625D01*
X117036340Y-103047625D02*
X117036340Y-100047625D01*
X117036340Y-100047625D02*
X117988721Y-100047625D01*
X117988721Y-100047625D02*
X118226816Y-100190482D01*
X118226816Y-100190482D02*
X118345863Y-100333339D01*
X118345863Y-100333339D02*
X118464911Y-100619053D01*
X118464911Y-100619053D02*
X118464911Y-101047625D01*
X118464911Y-101047625D02*
X118345863Y-101333339D01*
X118345863Y-101333339D02*
X118226816Y-101476196D01*
X118226816Y-101476196D02*
X117988721Y-101619053D01*
X117988721Y-101619053D02*
X117036340Y-101619053D01*
X119536340Y-100047625D02*
X119536340Y-102476196D01*
X119536340Y-102476196D02*
X119655387Y-102761910D01*
X119655387Y-102761910D02*
X119774435Y-102904768D01*
X119774435Y-102904768D02*
X120012530Y-103047625D01*
X120012530Y-103047625D02*
X120488721Y-103047625D01*
X120488721Y-103047625D02*
X120726816Y-102904768D01*
X120726816Y-102904768D02*
X120845863Y-102761910D01*
X120845863Y-102761910D02*
X120964911Y-102476196D01*
X120964911Y-102476196D02*
X120964911Y-100047625D01*
X121798245Y-100047625D02*
X123226816Y-100047625D01*
X122512530Y-103047625D02*
X122512530Y-100047625D01*
X124060150Y-102761910D02*
X124179197Y-102904768D01*
X124179197Y-102904768D02*
X124060150Y-103047625D01*
X124060150Y-103047625D02*
X123941102Y-102904768D01*
X123941102Y-102904768D02*
X124060150Y-102761910D01*
X124060150Y-102761910D02*
X124060150Y-103047625D01*
X124060150Y-101190482D02*
X124179197Y-101333339D01*
X124179197Y-101333339D02*
X124060150Y-101476196D01*
X124060150Y-101476196D02*
X123941102Y-101333339D01*
X123941102Y-101333339D02*
X124060150Y-101190482D01*
X124060150Y-101190482D02*
X124060150Y-101476196D01*
X114417292Y-104877457D02*
X113226816Y-104877457D01*
X113226816Y-104877457D02*
X113107768Y-106306028D01*
X113107768Y-106306028D02*
X113226816Y-106163171D01*
X113226816Y-106163171D02*
X113464911Y-106020314D01*
X113464911Y-106020314D02*
X114060149Y-106020314D01*
X114060149Y-106020314D02*
X114298244Y-106163171D01*
X114298244Y-106163171D02*
X114417292Y-106306028D01*
X114417292Y-106306028D02*
X114536339Y-106591742D01*
X114536339Y-106591742D02*
X114536339Y-107306028D01*
X114536339Y-107306028D02*
X114417292Y-107591742D01*
X114417292Y-107591742D02*
X114298244Y-107734600D01*
X114298244Y-107734600D02*
X114060149Y-107877457D01*
X114060149Y-107877457D02*
X113464911Y-107877457D01*
X113464911Y-107877457D02*
X113226816Y-107734600D01*
X113226816Y-107734600D02*
X113107768Y-107591742D01*
X115607768Y-107591742D02*
X115726815Y-107734600D01*
X115726815Y-107734600D02*
X115607768Y-107877457D01*
X115607768Y-107877457D02*
X115488720Y-107734600D01*
X115488720Y-107734600D02*
X115607768Y-107591742D01*
X115607768Y-107591742D02*
X115607768Y-107877457D01*
X118107767Y-107877457D02*
X116679196Y-107877457D01*
X117393482Y-107877457D02*
X117393482Y-104877457D01*
X117393482Y-104877457D02*
X117155386Y-105306028D01*
X117155386Y-105306028D02*
X116917291Y-105591742D01*
X116917291Y-105591742D02*
X116679196Y-105734600D01*
X119179196Y-106734600D02*
X121083958Y-106734600D01*
X122036338Y-104877457D02*
X123583957Y-104877457D01*
X123583957Y-104877457D02*
X122750624Y-106020314D01*
X122750624Y-106020314D02*
X123107767Y-106020314D01*
X123107767Y-106020314D02*
X123345862Y-106163171D01*
X123345862Y-106163171D02*
X123464910Y-106306028D01*
X123464910Y-106306028D02*
X123583957Y-106591742D01*
X123583957Y-106591742D02*
X123583957Y-107306028D01*
X123583957Y-107306028D02*
X123464910Y-107591742D01*
X123464910Y-107591742D02*
X123345862Y-107734600D01*
X123345862Y-107734600D02*
X123107767Y-107877457D01*
X123107767Y-107877457D02*
X122393481Y-107877457D01*
X122393481Y-107877457D02*
X122155386Y-107734600D01*
X122155386Y-107734600D02*
X122036338Y-107591742D01*
X125726814Y-104877457D02*
X125250624Y-104877457D01*
X125250624Y-104877457D02*
X125012528Y-105020314D01*
X125012528Y-105020314D02*
X124893481Y-105163171D01*
X124893481Y-105163171D02*
X124655386Y-105591742D01*
X124655386Y-105591742D02*
X124536338Y-106163171D01*
X124536338Y-106163171D02*
X124536338Y-107306028D01*
X124536338Y-107306028D02*
X124655386Y-107591742D01*
X124655386Y-107591742D02*
X124774433Y-107734600D01*
X124774433Y-107734600D02*
X125012528Y-107877457D01*
X125012528Y-107877457D02*
X125488719Y-107877457D01*
X125488719Y-107877457D02*
X125726814Y-107734600D01*
X125726814Y-107734600D02*
X125845862Y-107591742D01*
X125845862Y-107591742D02*
X125964909Y-107306028D01*
X125964909Y-107306028D02*
X125964909Y-106591742D01*
X125964909Y-106591742D02*
X125845862Y-106306028D01*
X125845862Y-106306028D02*
X125726814Y-106163171D01*
X125726814Y-106163171D02*
X125488719Y-106020314D01*
X125488719Y-106020314D02*
X125012528Y-106020314D01*
X125012528Y-106020314D02*
X124774433Y-106163171D01*
X124774433Y-106163171D02*
X124655386Y-106306028D01*
X124655386Y-106306028D02*
X124536338Y-106591742D01*
X126679195Y-104877457D02*
X127512528Y-107877457D01*
X127512528Y-107877457D02*
X128345861Y-104877457D01*
X113226816Y-112707289D02*
X113226816Y-109707289D01*
X113226816Y-109707289D02*
X114060149Y-111850146D01*
X114060149Y-111850146D02*
X114893482Y-109707289D01*
X114893482Y-109707289D02*
X114893482Y-112707289D01*
X116083959Y-112707289D02*
X116083959Y-109707289D01*
X117274435Y-112707289D02*
X117274435Y-109707289D01*
X117274435Y-109707289D02*
X118703006Y-112707289D01*
X118703006Y-112707289D02*
X118703006Y-109707289D01*
X122988721Y-109707289D02*
X121798245Y-109707289D01*
X121798245Y-109707289D02*
X121679197Y-111135860D01*
X121679197Y-111135860D02*
X121798245Y-110993003D01*
X121798245Y-110993003D02*
X122036340Y-110850146D01*
X122036340Y-110850146D02*
X122631578Y-110850146D01*
X122631578Y-110850146D02*
X122869673Y-110993003D01*
X122869673Y-110993003D02*
X122988721Y-111135860D01*
X122988721Y-111135860D02*
X123107768Y-111421574D01*
X123107768Y-111421574D02*
X123107768Y-112135860D01*
X123107768Y-112135860D02*
X122988721Y-112421574D01*
X122988721Y-112421574D02*
X122869673Y-112564432D01*
X122869673Y-112564432D02*
X122631578Y-112707289D01*
X122631578Y-112707289D02*
X122036340Y-112707289D01*
X122036340Y-112707289D02*
X121798245Y-112564432D01*
X121798245Y-112564432D02*
X121679197Y-112421574D01*
X124655387Y-109707289D02*
X124893482Y-109707289D01*
X124893482Y-109707289D02*
X125131578Y-109850146D01*
X125131578Y-109850146D02*
X125250625Y-109993003D01*
X125250625Y-109993003D02*
X125369673Y-110278717D01*
X125369673Y-110278717D02*
X125488720Y-110850146D01*
X125488720Y-110850146D02*
X125488720Y-111564432D01*
X125488720Y-111564432D02*
X125369673Y-112135860D01*
X125369673Y-112135860D02*
X125250625Y-112421574D01*
X125250625Y-112421574D02*
X125131578Y-112564432D01*
X125131578Y-112564432D02*
X124893482Y-112707289D01*
X124893482Y-112707289D02*
X124655387Y-112707289D01*
X124655387Y-112707289D02*
X124417292Y-112564432D01*
X124417292Y-112564432D02*
X124298244Y-112421574D01*
X124298244Y-112421574D02*
X124179197Y-112135860D01*
X124179197Y-112135860D02*
X124060149Y-111564432D01*
X124060149Y-111564432D02*
X124060149Y-110850146D01*
X124060149Y-110850146D02*
X124179197Y-110278717D01*
X124179197Y-110278717D02*
X124298244Y-109993003D01*
X124298244Y-109993003D02*
X124417292Y-109850146D01*
X124417292Y-109850146D02*
X124655387Y-109707289D01*
X127036339Y-109707289D02*
X127274434Y-109707289D01*
X127274434Y-109707289D02*
X127512530Y-109850146D01*
X127512530Y-109850146D02*
X127631577Y-109993003D01*
X127631577Y-109993003D02*
X127750625Y-110278717D01*
X127750625Y-110278717D02*
X127869672Y-110850146D01*
X127869672Y-110850146D02*
X127869672Y-111564432D01*
X127869672Y-111564432D02*
X127750625Y-112135860D01*
X127750625Y-112135860D02*
X127631577Y-112421574D01*
X127631577Y-112421574D02*
X127512530Y-112564432D01*
X127512530Y-112564432D02*
X127274434Y-112707289D01*
X127274434Y-112707289D02*
X127036339Y-112707289D01*
X127036339Y-112707289D02*
X126798244Y-112564432D01*
X126798244Y-112564432D02*
X126679196Y-112421574D01*
X126679196Y-112421574D02*
X126560149Y-112135860D01*
X126560149Y-112135860D02*
X126441101Y-111564432D01*
X126441101Y-111564432D02*
X126441101Y-110850146D01*
X126441101Y-110850146D02*
X126560149Y-110278717D01*
X126560149Y-110278717D02*
X126679196Y-109993003D01*
X126679196Y-109993003D02*
X126798244Y-109850146D01*
X126798244Y-109850146D02*
X127036339Y-109707289D01*
X128941101Y-112707289D02*
X128941101Y-110707289D01*
X128941101Y-110993003D02*
X129060148Y-110850146D01*
X129060148Y-110850146D02*
X129298243Y-110707289D01*
X129298243Y-110707289D02*
X129655386Y-110707289D01*
X129655386Y-110707289D02*
X129893482Y-110850146D01*
X129893482Y-110850146D02*
X130012529Y-111135860D01*
X130012529Y-111135860D02*
X130012529Y-112707289D01*
X130012529Y-111135860D02*
X130131577Y-110850146D01*
X130131577Y-110850146D02*
X130369672Y-110707289D01*
X130369672Y-110707289D02*
X130726815Y-110707289D01*
X130726815Y-110707289D02*
X130964910Y-110850146D01*
X130964910Y-110850146D02*
X131083958Y-111135860D01*
X131083958Y-111135860D02*
X131083958Y-112707289D01*
X132155386Y-111850146D02*
X133345862Y-111850146D01*
X131917291Y-112707289D02*
X132750624Y-109707289D01*
X132750624Y-109707289D02*
X133583957Y-112707289D01*
X144377563Y-105563528D02*
X144377563Y-104063528D01*
X145091849Y-105563528D02*
X145091849Y-104063528D01*
X145091849Y-104063528D02*
X145948992Y-105563528D01*
X145948992Y-105563528D02*
X145948992Y-104063528D01*
X146663278Y-105563528D02*
X146663278Y-104063528D01*
X146663278Y-104063528D02*
X147234707Y-104063528D01*
X147234707Y-104063528D02*
X147377564Y-104134957D01*
X147377564Y-104134957D02*
X147448993Y-104206385D01*
X147448993Y-104206385D02*
X147520421Y-104349242D01*
X147520421Y-104349242D02*
X147520421Y-104563528D01*
X147520421Y-104563528D02*
X147448993Y-104706385D01*
X147448993Y-104706385D02*
X147377564Y-104777814D01*
X147377564Y-104777814D02*
X147234707Y-104849242D01*
X147234707Y-104849242D02*
X146663278Y-104849242D01*
X148163278Y-104063528D02*
X148163278Y-105277814D01*
X148163278Y-105277814D02*
X148234707Y-105420671D01*
X148234707Y-105420671D02*
X148306136Y-105492100D01*
X148306136Y-105492100D02*
X148448993Y-105563528D01*
X148448993Y-105563528D02*
X148734707Y-105563528D01*
X148734707Y-105563528D02*
X148877564Y-105492100D01*
X148877564Y-105492100D02*
X148948993Y-105420671D01*
X148948993Y-105420671D02*
X149020421Y-105277814D01*
X149020421Y-105277814D02*
X149020421Y-104063528D01*
X149520422Y-104063528D02*
X150377565Y-104063528D01*
X149948993Y-105563528D02*
X149948993Y-104063528D01*
D33*
X216095238Y-92226760D02*
X216571428Y-92226760D01*
X216000000Y-92512475D02*
X216333333Y-91512475D01*
X216333333Y-91512475D02*
X216666666Y-92512475D01*
X217000000Y-92512475D02*
X217000000Y-91512475D01*
X217000000Y-91512475D02*
X217238095Y-91512475D01*
X217238095Y-91512475D02*
X217380952Y-91560094D01*
X217380952Y-91560094D02*
X217476190Y-91655332D01*
X217476190Y-91655332D02*
X217523809Y-91750570D01*
X217523809Y-91750570D02*
X217571428Y-91941046D01*
X217571428Y-91941046D02*
X217571428Y-92083903D01*
X217571428Y-92083903D02*
X217523809Y-92274379D01*
X217523809Y-92274379D02*
X217476190Y-92369617D01*
X217476190Y-92369617D02*
X217380952Y-92464856D01*
X217380952Y-92464856D02*
X217238095Y-92512475D01*
X217238095Y-92512475D02*
X217000000Y-92512475D01*
X217952381Y-92226760D02*
X218428571Y-92226760D01*
X217857143Y-92512475D02*
X218190476Y-91512475D01*
X218190476Y-91512475D02*
X218523809Y-92512475D01*
X219190476Y-91988665D02*
X218857143Y-91988665D01*
X218857143Y-92512475D02*
X218857143Y-91512475D01*
X218857143Y-91512475D02*
X219333333Y-91512475D01*
X220285714Y-92512475D02*
X219952381Y-92036284D01*
X219714286Y-92512475D02*
X219714286Y-91512475D01*
X219714286Y-91512475D02*
X220095238Y-91512475D01*
X220095238Y-91512475D02*
X220190476Y-91560094D01*
X220190476Y-91560094D02*
X220238095Y-91607713D01*
X220238095Y-91607713D02*
X220285714Y-91702951D01*
X220285714Y-91702951D02*
X220285714Y-91845808D01*
X220285714Y-91845808D02*
X220238095Y-91941046D01*
X220238095Y-91941046D02*
X220190476Y-91988665D01*
X220190476Y-91988665D02*
X220095238Y-92036284D01*
X220095238Y-92036284D02*
X219714286Y-92036284D01*
X220714286Y-91512475D02*
X220714286Y-92321998D01*
X220714286Y-92321998D02*
X220761905Y-92417236D01*
X220761905Y-92417236D02*
X220809524Y-92464856D01*
X220809524Y-92464856D02*
X220904762Y-92512475D01*
X220904762Y-92512475D02*
X221095238Y-92512475D01*
X221095238Y-92512475D02*
X221190476Y-92464856D01*
X221190476Y-92464856D02*
X221238095Y-92417236D01*
X221238095Y-92417236D02*
X221285714Y-92321998D01*
X221285714Y-92321998D02*
X221285714Y-91512475D01*
X221761905Y-92512475D02*
X221761905Y-91512475D01*
X222095238Y-91512475D02*
X222666666Y-91512475D01*
X222380952Y-92512475D02*
X222380952Y-91512475D01*
X224428571Y-92607713D02*
X224333333Y-92560094D01*
X224333333Y-92560094D02*
X224238095Y-92464856D01*
X224238095Y-92464856D02*
X224095238Y-92321998D01*
X224095238Y-92321998D02*
X224000000Y-92274379D01*
X224000000Y-92274379D02*
X223904762Y-92274379D01*
X223952381Y-92512475D02*
X223857143Y-92464856D01*
X223857143Y-92464856D02*
X223761905Y-92369617D01*
X223761905Y-92369617D02*
X223714286Y-92179141D01*
X223714286Y-92179141D02*
X223714286Y-91845808D01*
X223714286Y-91845808D02*
X223761905Y-91655332D01*
X223761905Y-91655332D02*
X223857143Y-91560094D01*
X223857143Y-91560094D02*
X223952381Y-91512475D01*
X223952381Y-91512475D02*
X224142857Y-91512475D01*
X224142857Y-91512475D02*
X224238095Y-91560094D01*
X224238095Y-91560094D02*
X224333333Y-91655332D01*
X224333333Y-91655332D02*
X224380952Y-91845808D01*
X224380952Y-91845808D02*
X224380952Y-92179141D01*
X224380952Y-92179141D02*
X224333333Y-92369617D01*
X224333333Y-92369617D02*
X224238095Y-92464856D01*
X224238095Y-92464856D02*
X224142857Y-92512475D01*
X224142857Y-92512475D02*
X223952381Y-92512475D01*
X224666667Y-91512475D02*
X225238095Y-91512475D01*
X224952381Y-92512475D02*
X224952381Y-91512475D01*
X225571429Y-92512475D02*
X225571429Y-91512475D01*
X225571429Y-91512475D02*
X225952381Y-91512475D01*
X225952381Y-91512475D02*
X226047619Y-91560094D01*
X226047619Y-91560094D02*
X226095238Y-91607713D01*
X226095238Y-91607713D02*
X226142857Y-91702951D01*
X226142857Y-91702951D02*
X226142857Y-91845808D01*
X226142857Y-91845808D02*
X226095238Y-91941046D01*
X226095238Y-91941046D02*
X226047619Y-91988665D01*
X226047619Y-91988665D02*
X225952381Y-92036284D01*
X225952381Y-92036284D02*
X225571429Y-92036284D01*
X226476191Y-91845808D02*
X226714286Y-92512475D01*
X226952381Y-91845808D02*
X226714286Y-92512475D01*
X226714286Y-92512475D02*
X226619048Y-92750570D01*
X226619048Y-92750570D02*
X226571429Y-92798189D01*
X226571429Y-92798189D02*
X226476191Y-92845808D01*
X217785714Y-93598609D02*
X218119047Y-93598609D01*
X218261904Y-94122419D02*
X217785714Y-94122419D01*
X217785714Y-94122419D02*
X217785714Y-93122419D01*
X217785714Y-93122419D02*
X218261904Y-93122419D01*
X218642857Y-94074800D02*
X218785714Y-94122419D01*
X218785714Y-94122419D02*
X219023809Y-94122419D01*
X219023809Y-94122419D02*
X219119047Y-94074800D01*
X219119047Y-94074800D02*
X219166666Y-94027180D01*
X219166666Y-94027180D02*
X219214285Y-93931942D01*
X219214285Y-93931942D02*
X219214285Y-93836704D01*
X219214285Y-93836704D02*
X219166666Y-93741466D01*
X219166666Y-93741466D02*
X219119047Y-93693847D01*
X219119047Y-93693847D02*
X219023809Y-93646228D01*
X219023809Y-93646228D02*
X218833333Y-93598609D01*
X218833333Y-93598609D02*
X218738095Y-93550990D01*
X218738095Y-93550990D02*
X218690476Y-93503371D01*
X218690476Y-93503371D02*
X218642857Y-93408133D01*
X218642857Y-93408133D02*
X218642857Y-93312895D01*
X218642857Y-93312895D02*
X218690476Y-93217657D01*
X218690476Y-93217657D02*
X218738095Y-93170038D01*
X218738095Y-93170038D02*
X218833333Y-93122419D01*
X218833333Y-93122419D02*
X219071428Y-93122419D01*
X219071428Y-93122419D02*
X219214285Y-93170038D01*
X219642857Y-94122419D02*
X219642857Y-93122419D01*
X219642857Y-93122419D02*
X220023809Y-93122419D01*
X220023809Y-93122419D02*
X220119047Y-93170038D01*
X220119047Y-93170038D02*
X220166666Y-93217657D01*
X220166666Y-93217657D02*
X220214285Y-93312895D01*
X220214285Y-93312895D02*
X220214285Y-93455752D01*
X220214285Y-93455752D02*
X220166666Y-93550990D01*
X220166666Y-93550990D02*
X220119047Y-93598609D01*
X220119047Y-93598609D02*
X220023809Y-93646228D01*
X220023809Y-93646228D02*
X219642857Y-93646228D01*
X220547619Y-93122419D02*
X221166666Y-93122419D01*
X221166666Y-93122419D02*
X220833333Y-93503371D01*
X220833333Y-93503371D02*
X220976190Y-93503371D01*
X220976190Y-93503371D02*
X221071428Y-93550990D01*
X221071428Y-93550990D02*
X221119047Y-93598609D01*
X221119047Y-93598609D02*
X221166666Y-93693847D01*
X221166666Y-93693847D02*
X221166666Y-93931942D01*
X221166666Y-93931942D02*
X221119047Y-94027180D01*
X221119047Y-94027180D02*
X221071428Y-94074800D01*
X221071428Y-94074800D02*
X220976190Y-94122419D01*
X220976190Y-94122419D02*
X220690476Y-94122419D01*
X220690476Y-94122419D02*
X220595238Y-94074800D01*
X220595238Y-94074800D02*
X220547619Y-94027180D01*
X221547619Y-93217657D02*
X221595238Y-93170038D01*
X221595238Y-93170038D02*
X221690476Y-93122419D01*
X221690476Y-93122419D02*
X221928571Y-93122419D01*
X221928571Y-93122419D02*
X222023809Y-93170038D01*
X222023809Y-93170038D02*
X222071428Y-93217657D01*
X222071428Y-93217657D02*
X222119047Y-93312895D01*
X222119047Y-93312895D02*
X222119047Y-93408133D01*
X222119047Y-93408133D02*
X222071428Y-93550990D01*
X222071428Y-93550990D02*
X221500000Y-94122419D01*
X221500000Y-94122419D02*
X222119047Y-94122419D01*
X222547619Y-93741466D02*
X223309524Y-93741466D01*
X223738095Y-94074800D02*
X223880952Y-94122419D01*
X223880952Y-94122419D02*
X224119047Y-94122419D01*
X224119047Y-94122419D02*
X224214285Y-94074800D01*
X224214285Y-94074800D02*
X224261904Y-94027180D01*
X224261904Y-94027180D02*
X224309523Y-93931942D01*
X224309523Y-93931942D02*
X224309523Y-93836704D01*
X224309523Y-93836704D02*
X224261904Y-93741466D01*
X224261904Y-93741466D02*
X224214285Y-93693847D01*
X224214285Y-93693847D02*
X224119047Y-93646228D01*
X224119047Y-93646228D02*
X223928571Y-93598609D01*
X223928571Y-93598609D02*
X223833333Y-93550990D01*
X223833333Y-93550990D02*
X223785714Y-93503371D01*
X223785714Y-93503371D02*
X223738095Y-93408133D01*
X223738095Y-93408133D02*
X223738095Y-93312895D01*
X223738095Y-93312895D02*
X223785714Y-93217657D01*
X223785714Y-93217657D02*
X223833333Y-93170038D01*
X223833333Y-93170038D02*
X223928571Y-93122419D01*
X223928571Y-93122419D02*
X224166666Y-93122419D01*
X224166666Y-93122419D02*
X224309523Y-93170038D01*
X224642857Y-93122419D02*
X225261904Y-93122419D01*
X225261904Y-93122419D02*
X224928571Y-93503371D01*
X224928571Y-93503371D02*
X225071428Y-93503371D01*
X225071428Y-93503371D02*
X225166666Y-93550990D01*
X225166666Y-93550990D02*
X225214285Y-93598609D01*
X225214285Y-93598609D02*
X225261904Y-93693847D01*
X225261904Y-93693847D02*
X225261904Y-93931942D01*
X225261904Y-93931942D02*
X225214285Y-94027180D01*
X225214285Y-94027180D02*
X225166666Y-94074800D01*
X225166666Y-94074800D02*
X225071428Y-94122419D01*
X225071428Y-94122419D02*
X224785714Y-94122419D01*
X224785714Y-94122419D02*
X224690476Y-94074800D01*
X224690476Y-94074800D02*
X224642857Y-94027180D01*
D32*
X142663278Y-112976070D02*
X142948992Y-112976070D01*
X142948992Y-112976070D02*
X143091849Y-113047499D01*
X143091849Y-113047499D02*
X143234706Y-113190356D01*
X143234706Y-113190356D02*
X143306135Y-113476070D01*
X143306135Y-113476070D02*
X143306135Y-113976070D01*
X143306135Y-113976070D02*
X143234706Y-114261784D01*
X143234706Y-114261784D02*
X143091849Y-114404642D01*
X143091849Y-114404642D02*
X142948992Y-114476070D01*
X142948992Y-114476070D02*
X142663278Y-114476070D01*
X142663278Y-114476070D02*
X142520421Y-114404642D01*
X142520421Y-114404642D02*
X142377563Y-114261784D01*
X142377563Y-114261784D02*
X142306135Y-113976070D01*
X142306135Y-113976070D02*
X142306135Y-113476070D01*
X142306135Y-113476070D02*
X142377563Y-113190356D01*
X142377563Y-113190356D02*
X142520421Y-113047499D01*
X142520421Y-113047499D02*
X142663278Y-112976070D01*
X143948992Y-112976070D02*
X143948992Y-114190356D01*
X143948992Y-114190356D02*
X144020421Y-114333213D01*
X144020421Y-114333213D02*
X144091850Y-114404642D01*
X144091850Y-114404642D02*
X144234707Y-114476070D01*
X144234707Y-114476070D02*
X144520421Y-114476070D01*
X144520421Y-114476070D02*
X144663278Y-114404642D01*
X144663278Y-114404642D02*
X144734707Y-114333213D01*
X144734707Y-114333213D02*
X144806135Y-114190356D01*
X144806135Y-114190356D02*
X144806135Y-112976070D01*
X145306136Y-112976070D02*
X146163279Y-112976070D01*
X145734707Y-114476070D02*
X145734707Y-112976070D01*
X146663278Y-114476070D02*
X146663278Y-112976070D01*
X146663278Y-112976070D02*
X147234707Y-112976070D01*
X147234707Y-112976070D02*
X147377564Y-113047499D01*
X147377564Y-113047499D02*
X147448993Y-113118927D01*
X147448993Y-113118927D02*
X147520421Y-113261784D01*
X147520421Y-113261784D02*
X147520421Y-113476070D01*
X147520421Y-113476070D02*
X147448993Y-113618927D01*
X147448993Y-113618927D02*
X147377564Y-113690356D01*
X147377564Y-113690356D02*
X147234707Y-113761784D01*
X147234707Y-113761784D02*
X146663278Y-113761784D01*
X148163278Y-112976070D02*
X148163278Y-114190356D01*
X148163278Y-114190356D02*
X148234707Y-114333213D01*
X148234707Y-114333213D02*
X148306136Y-114404642D01*
X148306136Y-114404642D02*
X148448993Y-114476070D01*
X148448993Y-114476070D02*
X148734707Y-114476070D01*
X148734707Y-114476070D02*
X148877564Y-114404642D01*
X148877564Y-114404642D02*
X148948993Y-114333213D01*
X148948993Y-114333213D02*
X149020421Y-114190356D01*
X149020421Y-114190356D02*
X149020421Y-112976070D01*
X149520422Y-112976070D02*
X150377565Y-112976070D01*
X149948993Y-114476070D02*
X149948993Y-112976070D01*
X143306137Y-115390986D02*
X142591851Y-115390986D01*
X142591851Y-115390986D02*
X142520423Y-116105272D01*
X142520423Y-116105272D02*
X142591851Y-116033843D01*
X142591851Y-116033843D02*
X142734709Y-115962415D01*
X142734709Y-115962415D02*
X143091851Y-115962415D01*
X143091851Y-115962415D02*
X143234709Y-116033843D01*
X143234709Y-116033843D02*
X143306137Y-116105272D01*
X143306137Y-116105272D02*
X143377566Y-116248129D01*
X143377566Y-116248129D02*
X143377566Y-116605272D01*
X143377566Y-116605272D02*
X143306137Y-116748129D01*
X143306137Y-116748129D02*
X143234709Y-116819558D01*
X143234709Y-116819558D02*
X143091851Y-116890986D01*
X143091851Y-116890986D02*
X142734709Y-116890986D01*
X142734709Y-116890986D02*
X142591851Y-116819558D01*
X142591851Y-116819558D02*
X142520423Y-116748129D01*
X143948994Y-116462415D02*
X144663280Y-116462415D01*
X143806137Y-116890986D02*
X144306137Y-115390986D01*
X144306137Y-115390986D02*
X144806137Y-116890986D01*
X146448993Y-116890986D02*
X146448993Y-115390986D01*
X146448993Y-115390986D02*
X146948993Y-116462415D01*
X146948993Y-116462415D02*
X147448993Y-115390986D01*
X147448993Y-115390986D02*
X147448993Y-116890986D01*
X148091851Y-116462415D02*
X148806137Y-116462415D01*
X147948994Y-116890986D02*
X148448994Y-115390986D01*
X148448994Y-115390986D02*
X148948994Y-116890986D01*
X149306136Y-115390986D02*
X150306136Y-116890986D01*
X150306136Y-115390986D02*
X149306136Y-116890986D01*
X161620720Y-113882100D02*
X162763578Y-113882100D01*
X162192149Y-114453528D02*
X162192149Y-113310671D01*
X163263578Y-112953528D02*
X163763578Y-114453528D01*
X163763578Y-114453528D02*
X164263578Y-112953528D01*
X162049292Y-104864957D02*
X161977863Y-104793528D01*
X161977863Y-104793528D02*
X161835006Y-104579242D01*
X161835006Y-104579242D02*
X161763578Y-104436385D01*
X161763578Y-104436385D02*
X161692149Y-104222100D01*
X161692149Y-104222100D02*
X161620720Y-103864957D01*
X161620720Y-103864957D02*
X161620720Y-103579242D01*
X161620720Y-103579242D02*
X161692149Y-103222100D01*
X161692149Y-103222100D02*
X161763578Y-103007814D01*
X161763578Y-103007814D02*
X161835006Y-102864957D01*
X161835006Y-102864957D02*
X161977863Y-102650671D01*
X161977863Y-102650671D02*
X162049292Y-102579242D01*
X162620720Y-103722100D02*
X163763578Y-103722100D01*
X164335006Y-104864957D02*
X164406435Y-104793528D01*
X164406435Y-104793528D02*
X164549292Y-104579242D01*
X164549292Y-104579242D02*
X164620721Y-104436385D01*
X164620721Y-104436385D02*
X164692149Y-104222100D01*
X164692149Y-104222100D02*
X164763578Y-103864957D01*
X164763578Y-103864957D02*
X164763578Y-103579242D01*
X164763578Y-103579242D02*
X164692149Y-103222100D01*
X164692149Y-103222100D02*
X164620721Y-103007814D01*
X164620721Y-103007814D02*
X164549292Y-102864957D01*
X164549292Y-102864957D02*
X164406435Y-102650671D01*
X164406435Y-102650671D02*
X164335006Y-102579242D01*
X161620720Y-106262100D02*
X162763578Y-106262100D01*
X162192149Y-106833528D02*
X162192149Y-105690671D01*
X163263578Y-105333528D02*
X163763578Y-106833528D01*
X163763578Y-106833528D02*
X164263578Y-105333528D01*
X162049292Y-117564957D02*
X161977863Y-117493528D01*
X161977863Y-117493528D02*
X161835006Y-117279242D01*
X161835006Y-117279242D02*
X161763578Y-117136385D01*
X161763578Y-117136385D02*
X161692149Y-116922100D01*
X161692149Y-116922100D02*
X161620720Y-116564957D01*
X161620720Y-116564957D02*
X161620720Y-116279242D01*
X161620720Y-116279242D02*
X161692149Y-115922100D01*
X161692149Y-115922100D02*
X161763578Y-115707814D01*
X161763578Y-115707814D02*
X161835006Y-115564957D01*
X161835006Y-115564957D02*
X161977863Y-115350671D01*
X161977863Y-115350671D02*
X162049292Y-115279242D01*
X162620720Y-116422100D02*
X163763578Y-116422100D01*
X164335006Y-117564957D02*
X164406435Y-117493528D01*
X164406435Y-117493528D02*
X164549292Y-117279242D01*
X164549292Y-117279242D02*
X164620721Y-117136385D01*
X164620721Y-117136385D02*
X164692149Y-116922100D01*
X164692149Y-116922100D02*
X164763578Y-116564957D01*
X164763578Y-116564957D02*
X164763578Y-116279242D01*
X164763578Y-116279242D02*
X164692149Y-115922100D01*
X164692149Y-115922100D02*
X164620721Y-115707814D01*
X164620721Y-115707814D02*
X164549292Y-115564957D01*
X164549292Y-115564957D02*
X164406435Y-115350671D01*
X164406435Y-115350671D02*
X164335006Y-115279242D01*
D34*
X215615333Y-115704819D02*
X215282000Y-115228628D01*
X215043905Y-115704819D02*
X215043905Y-114704819D01*
X215043905Y-114704819D02*
X215424857Y-114704819D01*
X215424857Y-114704819D02*
X215520095Y-114752438D01*
X215520095Y-114752438D02*
X215567714Y-114800057D01*
X215567714Y-114800057D02*
X215615333Y-114895295D01*
X215615333Y-114895295D02*
X215615333Y-115038152D01*
X215615333Y-115038152D02*
X215567714Y-115133390D01*
X215567714Y-115133390D02*
X215520095Y-115181009D01*
X215520095Y-115181009D02*
X215424857Y-115228628D01*
X215424857Y-115228628D02*
X215043905Y-115228628D01*
X216567714Y-115704819D02*
X215996286Y-115704819D01*
X216282000Y-115704819D02*
X216282000Y-114704819D01*
X216282000Y-114704819D02*
X216186762Y-114847676D01*
X216186762Y-114847676D02*
X216091524Y-114942914D01*
X216091524Y-114942914D02*
X215996286Y-114990533D01*
X219591523Y-115664819D02*
X219020095Y-115664819D01*
X219305809Y-115664819D02*
X219305809Y-114664819D01*
X219305809Y-114664819D02*
X219210571Y-114807676D01*
X219210571Y-114807676D02*
X219115333Y-114902914D01*
X219115333Y-114902914D02*
X219020095Y-114950533D01*
X220210571Y-114664819D02*
X220305809Y-114664819D01*
X220305809Y-114664819D02*
X220401047Y-114712438D01*
X220401047Y-114712438D02*
X220448666Y-114760057D01*
X220448666Y-114760057D02*
X220496285Y-114855295D01*
X220496285Y-114855295D02*
X220543904Y-115045771D01*
X220543904Y-115045771D02*
X220543904Y-115283866D01*
X220543904Y-115283866D02*
X220496285Y-115474342D01*
X220496285Y-115474342D02*
X220448666Y-115569580D01*
X220448666Y-115569580D02*
X220401047Y-115617200D01*
X220401047Y-115617200D02*
X220305809Y-115664819D01*
X220305809Y-115664819D02*
X220210571Y-115664819D01*
X220210571Y-115664819D02*
X220115333Y-115617200D01*
X220115333Y-115617200D02*
X220067714Y-115569580D01*
X220067714Y-115569580D02*
X220020095Y-115474342D01*
X220020095Y-115474342D02*
X219972476Y-115283866D01*
X219972476Y-115283866D02*
X219972476Y-115045771D01*
X219972476Y-115045771D02*
X220020095Y-114855295D01*
X220020095Y-114855295D02*
X220067714Y-114760057D01*
X220067714Y-114760057D02*
X220115333Y-114712438D01*
X220115333Y-114712438D02*
X220210571Y-114664819D01*
X220972476Y-115664819D02*
X220972476Y-114664819D01*
X221543904Y-115664819D02*
X221115333Y-115093390D01*
X221543904Y-114664819D02*
X220972476Y-115236247D01*
X184460333Y-93704819D02*
X184127000Y-93228628D01*
X183888905Y-93704819D02*
X183888905Y-92704819D01*
X183888905Y-92704819D02*
X184269857Y-92704819D01*
X184269857Y-92704819D02*
X184365095Y-92752438D01*
X184365095Y-92752438D02*
X184412714Y-92800057D01*
X184412714Y-92800057D02*
X184460333Y-92895295D01*
X184460333Y-92895295D02*
X184460333Y-93038152D01*
X184460333Y-93038152D02*
X184412714Y-93133390D01*
X184412714Y-93133390D02*
X184365095Y-93181009D01*
X184365095Y-93181009D02*
X184269857Y-93228628D01*
X184269857Y-93228628D02*
X183888905Y-93228628D01*
X185317476Y-93038152D02*
X185317476Y-93704819D01*
X185079381Y-92657200D02*
X184841286Y-93371485D01*
X184841286Y-93371485D02*
X185460333Y-93371485D01*
X184091523Y-99204819D02*
X183520095Y-99204819D01*
X183805809Y-99204819D02*
X183805809Y-98204819D01*
X183805809Y-98204819D02*
X183710571Y-98347676D01*
X183710571Y-98347676D02*
X183615333Y-98442914D01*
X183615333Y-98442914D02*
X183520095Y-98490533D01*
X184710571Y-98204819D02*
X184805809Y-98204819D01*
X184805809Y-98204819D02*
X184901047Y-98252438D01*
X184901047Y-98252438D02*
X184948666Y-98300057D01*
X184948666Y-98300057D02*
X184996285Y-98395295D01*
X184996285Y-98395295D02*
X185043904Y-98585771D01*
X185043904Y-98585771D02*
X185043904Y-98823866D01*
X185043904Y-98823866D02*
X184996285Y-99014342D01*
X184996285Y-99014342D02*
X184948666Y-99109580D01*
X184948666Y-99109580D02*
X184901047Y-99157200D01*
X184901047Y-99157200D02*
X184805809Y-99204819D01*
X184805809Y-99204819D02*
X184710571Y-99204819D01*
X184710571Y-99204819D02*
X184615333Y-99157200D01*
X184615333Y-99157200D02*
X184567714Y-99109580D01*
X184567714Y-99109580D02*
X184520095Y-99014342D01*
X184520095Y-99014342D02*
X184472476Y-98823866D01*
X184472476Y-98823866D02*
X184472476Y-98585771D01*
X184472476Y-98585771D02*
X184520095Y-98395295D01*
X184520095Y-98395295D02*
X184567714Y-98300057D01*
X184567714Y-98300057D02*
X184615333Y-98252438D01*
X184615333Y-98252438D02*
X184710571Y-98204819D01*
X185472476Y-99204819D02*
X185472476Y-98204819D01*
X186043904Y-99204819D02*
X185615333Y-98633390D01*
X186043904Y-98204819D02*
X185472476Y-98776247D01*
D33*
X217739419Y-88991026D02*
X217739419Y-88371979D01*
X217739419Y-88371979D02*
X218120371Y-88705312D01*
X218120371Y-88705312D02*
X218120371Y-88562455D01*
X218120371Y-88562455D02*
X218167990Y-88467217D01*
X218167990Y-88467217D02*
X218215609Y-88419598D01*
X218215609Y-88419598D02*
X218310847Y-88371979D01*
X218310847Y-88371979D02*
X218548942Y-88371979D01*
X218548942Y-88371979D02*
X218644180Y-88419598D01*
X218644180Y-88419598D02*
X218691800Y-88467217D01*
X218691800Y-88467217D02*
X218739419Y-88562455D01*
X218739419Y-88562455D02*
X218739419Y-88848169D01*
X218739419Y-88848169D02*
X218691800Y-88943407D01*
X218691800Y-88943407D02*
X218644180Y-88991026D01*
X218644180Y-87943407D02*
X218691800Y-87895788D01*
X218691800Y-87895788D02*
X218739419Y-87943407D01*
X218739419Y-87943407D02*
X218691800Y-87991026D01*
X218691800Y-87991026D02*
X218644180Y-87943407D01*
X218644180Y-87943407D02*
X218739419Y-87943407D01*
X217739419Y-87562455D02*
X217739419Y-86943408D01*
X217739419Y-86943408D02*
X218120371Y-87276741D01*
X218120371Y-87276741D02*
X218120371Y-87133884D01*
X218120371Y-87133884D02*
X218167990Y-87038646D01*
X218167990Y-87038646D02*
X218215609Y-86991027D01*
X218215609Y-86991027D02*
X218310847Y-86943408D01*
X218310847Y-86943408D02*
X218548942Y-86943408D01*
X218548942Y-86943408D02*
X218644180Y-86991027D01*
X218644180Y-86991027D02*
X218691800Y-87038646D01*
X218691800Y-87038646D02*
X218739419Y-87133884D01*
X218739419Y-87133884D02*
X218739419Y-87419598D01*
X218739419Y-87419598D02*
X218691800Y-87514836D01*
X218691800Y-87514836D02*
X218644180Y-87562455D01*
X217739419Y-86657693D02*
X218739419Y-86324360D01*
X218739419Y-86324360D02*
X217739419Y-85991027D01*
X215247038Y-88181503D02*
X215199419Y-88276741D01*
X215199419Y-88276741D02*
X215199419Y-88419598D01*
X215199419Y-88419598D02*
X215247038Y-88562455D01*
X215247038Y-88562455D02*
X215342276Y-88657693D01*
X215342276Y-88657693D02*
X215437514Y-88705312D01*
X215437514Y-88705312D02*
X215627990Y-88752931D01*
X215627990Y-88752931D02*
X215770847Y-88752931D01*
X215770847Y-88752931D02*
X215961323Y-88705312D01*
X215961323Y-88705312D02*
X216056561Y-88657693D01*
X216056561Y-88657693D02*
X216151800Y-88562455D01*
X216151800Y-88562455D02*
X216199419Y-88419598D01*
X216199419Y-88419598D02*
X216199419Y-88324360D01*
X216199419Y-88324360D02*
X216151800Y-88181503D01*
X216151800Y-88181503D02*
X216104180Y-88133884D01*
X216104180Y-88133884D02*
X215770847Y-88133884D01*
X215770847Y-88133884D02*
X215770847Y-88324360D01*
X216199419Y-87705312D02*
X215199419Y-87705312D01*
X215199419Y-87705312D02*
X216199419Y-87133884D01*
X216199419Y-87133884D02*
X215199419Y-87133884D01*
X216199419Y-86657693D02*
X215199419Y-86657693D01*
X215199419Y-86657693D02*
X215199419Y-86419598D01*
X215199419Y-86419598D02*
X215247038Y-86276741D01*
X215247038Y-86276741D02*
X215342276Y-86181503D01*
X215342276Y-86181503D02*
X215437514Y-86133884D01*
X215437514Y-86133884D02*
X215627990Y-86086265D01*
X215627990Y-86086265D02*
X215770847Y-86086265D01*
X215770847Y-86086265D02*
X215961323Y-86133884D01*
X215961323Y-86133884D02*
X216056561Y-86181503D01*
X216056561Y-86181503D02*
X216151800Y-86276741D01*
X216151800Y-86276741D02*
X216199419Y-86419598D01*
X216199419Y-86419598D02*
X216199419Y-86657693D01*
X207502419Y-93908115D02*
X208311942Y-93908115D01*
X208311942Y-93908115D02*
X208407180Y-93860496D01*
X208407180Y-93860496D02*
X208454800Y-93812877D01*
X208454800Y-93812877D02*
X208502419Y-93717639D01*
X208502419Y-93717639D02*
X208502419Y-93527163D01*
X208502419Y-93527163D02*
X208454800Y-93431925D01*
X208454800Y-93431925D02*
X208407180Y-93384306D01*
X208407180Y-93384306D02*
X208311942Y-93336687D01*
X208311942Y-93336687D02*
X207502419Y-93336687D01*
X208454800Y-92908115D02*
X208502419Y-92765258D01*
X208502419Y-92765258D02*
X208502419Y-92527163D01*
X208502419Y-92527163D02*
X208454800Y-92431925D01*
X208454800Y-92431925D02*
X208407180Y-92384306D01*
X208407180Y-92384306D02*
X208311942Y-92336687D01*
X208311942Y-92336687D02*
X208216704Y-92336687D01*
X208216704Y-92336687D02*
X208121466Y-92384306D01*
X208121466Y-92384306D02*
X208073847Y-92431925D01*
X208073847Y-92431925D02*
X208026228Y-92527163D01*
X208026228Y-92527163D02*
X207978609Y-92717639D01*
X207978609Y-92717639D02*
X207930990Y-92812877D01*
X207930990Y-92812877D02*
X207883371Y-92860496D01*
X207883371Y-92860496D02*
X207788133Y-92908115D01*
X207788133Y-92908115D02*
X207692895Y-92908115D01*
X207692895Y-92908115D02*
X207597657Y-92860496D01*
X207597657Y-92860496D02*
X207550038Y-92812877D01*
X207550038Y-92812877D02*
X207502419Y-92717639D01*
X207502419Y-92717639D02*
X207502419Y-92479544D01*
X207502419Y-92479544D02*
X207550038Y-92336687D01*
X207978609Y-91574782D02*
X208026228Y-91431925D01*
X208026228Y-91431925D02*
X208073847Y-91384306D01*
X208073847Y-91384306D02*
X208169085Y-91336687D01*
X208169085Y-91336687D02*
X208311942Y-91336687D01*
X208311942Y-91336687D02*
X208407180Y-91384306D01*
X208407180Y-91384306D02*
X208454800Y-91431925D01*
X208454800Y-91431925D02*
X208502419Y-91527163D01*
X208502419Y-91527163D02*
X208502419Y-91908115D01*
X208502419Y-91908115D02*
X207502419Y-91908115D01*
X207502419Y-91908115D02*
X207502419Y-91574782D01*
X207502419Y-91574782D02*
X207550038Y-91479544D01*
X207550038Y-91479544D02*
X207597657Y-91431925D01*
X207597657Y-91431925D02*
X207692895Y-91384306D01*
X207692895Y-91384306D02*
X207788133Y-91384306D01*
X207788133Y-91384306D02*
X207883371Y-91431925D01*
X207883371Y-91431925D02*
X207930990Y-91479544D01*
X207930990Y-91479544D02*
X207978609Y-91574782D01*
X207978609Y-91574782D02*
X207978609Y-91908115D01*
X208407180Y-90336687D02*
X208454800Y-90384306D01*
X208454800Y-90384306D02*
X208502419Y-90527163D01*
X208502419Y-90527163D02*
X208502419Y-90622401D01*
X208502419Y-90622401D02*
X208454800Y-90765258D01*
X208454800Y-90765258D02*
X208359561Y-90860496D01*
X208359561Y-90860496D02*
X208264323Y-90908115D01*
X208264323Y-90908115D02*
X208073847Y-90955734D01*
X208073847Y-90955734D02*
X207930990Y-90955734D01*
X207930990Y-90955734D02*
X207740514Y-90908115D01*
X207740514Y-90908115D02*
X207645276Y-90860496D01*
X207645276Y-90860496D02*
X207550038Y-90765258D01*
X207550038Y-90765258D02*
X207502419Y-90622401D01*
X207502419Y-90622401D02*
X207502419Y-90527163D01*
X207502419Y-90527163D02*
X207550038Y-90384306D01*
X207550038Y-90384306D02*
X207597657Y-90336687D01*
X212659419Y-86991027D02*
X212659419Y-87467217D01*
X212659419Y-87467217D02*
X213135609Y-87514836D01*
X213135609Y-87514836D02*
X213087990Y-87467217D01*
X213087990Y-87467217D02*
X213040371Y-87371979D01*
X213040371Y-87371979D02*
X213040371Y-87133884D01*
X213040371Y-87133884D02*
X213087990Y-87038646D01*
X213087990Y-87038646D02*
X213135609Y-86991027D01*
X213135609Y-86991027D02*
X213230847Y-86943408D01*
X213230847Y-86943408D02*
X213468942Y-86943408D01*
X213468942Y-86943408D02*
X213564180Y-86991027D01*
X213564180Y-86991027D02*
X213611800Y-87038646D01*
X213611800Y-87038646D02*
X213659419Y-87133884D01*
X213659419Y-87133884D02*
X213659419Y-87371979D01*
X213659419Y-87371979D02*
X213611800Y-87467217D01*
X213611800Y-87467217D02*
X213564180Y-87514836D01*
X212659419Y-86657693D02*
X213659419Y-86324360D01*
X213659419Y-86324360D02*
X212659419Y-85991027D01*
D34*
X131238095Y-86954819D02*
X131809523Y-86954819D01*
X131523809Y-87954819D02*
X131523809Y-86954819D01*
X132142857Y-87954819D02*
X132142857Y-86954819D01*
X132142857Y-86954819D02*
X132523809Y-86954819D01*
X132523809Y-86954819D02*
X132619047Y-87002438D01*
X132619047Y-87002438D02*
X132666666Y-87050057D01*
X132666666Y-87050057D02*
X132714285Y-87145295D01*
X132714285Y-87145295D02*
X132714285Y-87288152D01*
X132714285Y-87288152D02*
X132666666Y-87383390D01*
X132666666Y-87383390D02*
X132619047Y-87431009D01*
X132619047Y-87431009D02*
X132523809Y-87478628D01*
X132523809Y-87478628D02*
X132142857Y-87478628D01*
X133095238Y-87050057D02*
X133142857Y-87002438D01*
X133142857Y-87002438D02*
X133238095Y-86954819D01*
X133238095Y-86954819D02*
X133476190Y-86954819D01*
X133476190Y-86954819D02*
X133571428Y-87002438D01*
X133571428Y-87002438D02*
X133619047Y-87050057D01*
X133619047Y-87050057D02*
X133666666Y-87145295D01*
X133666666Y-87145295D02*
X133666666Y-87240533D01*
X133666666Y-87240533D02*
X133619047Y-87383390D01*
X133619047Y-87383390D02*
X133047619Y-87954819D01*
X133047619Y-87954819D02*
X133666666Y-87954819D01*
X132309523Y-88454819D02*
X131833333Y-88454819D01*
X131833333Y-88454819D02*
X131785714Y-88931009D01*
X131785714Y-88931009D02*
X131833333Y-88883390D01*
X131833333Y-88883390D02*
X131928571Y-88835771D01*
X131928571Y-88835771D02*
X132166666Y-88835771D01*
X132166666Y-88835771D02*
X132261904Y-88883390D01*
X132261904Y-88883390D02*
X132309523Y-88931009D01*
X132309523Y-88931009D02*
X132357142Y-89026247D01*
X132357142Y-89026247D02*
X132357142Y-89264342D01*
X132357142Y-89264342D02*
X132309523Y-89359580D01*
X132309523Y-89359580D02*
X132261904Y-89407200D01*
X132261904Y-89407200D02*
X132166666Y-89454819D01*
X132166666Y-89454819D02*
X131928571Y-89454819D01*
X131928571Y-89454819D02*
X131833333Y-89407200D01*
X131833333Y-89407200D02*
X131785714Y-89359580D01*
X132642857Y-88454819D02*
X132976190Y-89454819D01*
X132976190Y-89454819D02*
X133309523Y-88454819D01*
X194869200Y-113870839D02*
X194916819Y-113727982D01*
X194916819Y-113727982D02*
X194916819Y-113489887D01*
X194916819Y-113489887D02*
X194869200Y-113394649D01*
X194869200Y-113394649D02*
X194821580Y-113347030D01*
X194821580Y-113347030D02*
X194726342Y-113299411D01*
X194726342Y-113299411D02*
X194631104Y-113299411D01*
X194631104Y-113299411D02*
X194535866Y-113347030D01*
X194535866Y-113347030D02*
X194488247Y-113394649D01*
X194488247Y-113394649D02*
X194440628Y-113489887D01*
X194440628Y-113489887D02*
X194393009Y-113680363D01*
X194393009Y-113680363D02*
X194345390Y-113775601D01*
X194345390Y-113775601D02*
X194297771Y-113823220D01*
X194297771Y-113823220D02*
X194202533Y-113870839D01*
X194202533Y-113870839D02*
X194107295Y-113870839D01*
X194107295Y-113870839D02*
X194012057Y-113823220D01*
X194012057Y-113823220D02*
X193964438Y-113775601D01*
X193964438Y-113775601D02*
X193916819Y-113680363D01*
X193916819Y-113680363D02*
X193916819Y-113442268D01*
X193916819Y-113442268D02*
X193964438Y-113299411D01*
X193916819Y-112966077D02*
X194916819Y-112727982D01*
X194916819Y-112727982D02*
X194202533Y-112537506D01*
X194202533Y-112537506D02*
X194916819Y-112347030D01*
X194916819Y-112347030D02*
X193916819Y-112108935D01*
X194916819Y-111204173D02*
X194916819Y-111775601D01*
X194916819Y-111489887D02*
X193916819Y-111489887D01*
X193916819Y-111489887D02*
X194059676Y-111585125D01*
X194059676Y-111585125D02*
X194154914Y-111680363D01*
X194154914Y-111680363D02*
X194202533Y-111775601D01*
D33*
X233436191Y-113872419D02*
X233436191Y-112872419D01*
X233436191Y-112872419D02*
X233769524Y-113586704D01*
X233769524Y-113586704D02*
X234102857Y-112872419D01*
X234102857Y-112872419D02*
X234102857Y-113872419D01*
X234531429Y-112967657D02*
X234579048Y-112920038D01*
X234579048Y-112920038D02*
X234674286Y-112872419D01*
X234674286Y-112872419D02*
X234912381Y-112872419D01*
X234912381Y-112872419D02*
X235007619Y-112920038D01*
X235007619Y-112920038D02*
X235055238Y-112967657D01*
X235055238Y-112967657D02*
X235102857Y-113062895D01*
X235102857Y-113062895D02*
X235102857Y-113158133D01*
X235102857Y-113158133D02*
X235055238Y-113300990D01*
X235055238Y-113300990D02*
X234483810Y-113872419D01*
X234483810Y-113872419D02*
X235102857Y-113872419D01*
X235531429Y-113777180D02*
X235579048Y-113824800D01*
X235579048Y-113824800D02*
X235531429Y-113872419D01*
X235531429Y-113872419D02*
X235483810Y-113824800D01*
X235483810Y-113824800D02*
X235531429Y-113777180D01*
X235531429Y-113777180D02*
X235531429Y-113872419D01*
X236483809Y-112872419D02*
X236007619Y-112872419D01*
X236007619Y-112872419D02*
X235960000Y-113348609D01*
X235960000Y-113348609D02*
X236007619Y-113300990D01*
X236007619Y-113300990D02*
X236102857Y-113253371D01*
X236102857Y-113253371D02*
X236340952Y-113253371D01*
X236340952Y-113253371D02*
X236436190Y-113300990D01*
X236436190Y-113300990D02*
X236483809Y-113348609D01*
X236483809Y-113348609D02*
X236531428Y-113443847D01*
X236531428Y-113443847D02*
X236531428Y-113681942D01*
X236531428Y-113681942D02*
X236483809Y-113777180D01*
X236483809Y-113777180D02*
X236436190Y-113824800D01*
X236436190Y-113824800D02*
X236340952Y-113872419D01*
X236340952Y-113872419D02*
X236102857Y-113872419D01*
X236102857Y-113872419D02*
X236007619Y-113824800D01*
X236007619Y-113824800D02*
X235960000Y-113777180D01*
X119303884Y-117457419D02*
X119303884Y-116457419D01*
X119303884Y-116457419D02*
X119637217Y-117171704D01*
X119637217Y-117171704D02*
X119970550Y-116457419D01*
X119970550Y-116457419D02*
X119970550Y-117457419D01*
X120399122Y-116552657D02*
X120446741Y-116505038D01*
X120446741Y-116505038D02*
X120541979Y-116457419D01*
X120541979Y-116457419D02*
X120780074Y-116457419D01*
X120780074Y-116457419D02*
X120875312Y-116505038D01*
X120875312Y-116505038D02*
X120922931Y-116552657D01*
X120922931Y-116552657D02*
X120970550Y-116647895D01*
X120970550Y-116647895D02*
X120970550Y-116743133D01*
X120970550Y-116743133D02*
X120922931Y-116885990D01*
X120922931Y-116885990D02*
X120351503Y-117457419D01*
X120351503Y-117457419D02*
X120970550Y-117457419D01*
X121399122Y-117362180D02*
X121446741Y-117409800D01*
X121446741Y-117409800D02*
X121399122Y-117457419D01*
X121399122Y-117457419D02*
X121351503Y-117409800D01*
X121351503Y-117409800D02*
X121399122Y-117362180D01*
X121399122Y-117362180D02*
X121399122Y-117457419D01*
X122351502Y-116457419D02*
X121875312Y-116457419D01*
X121875312Y-116457419D02*
X121827693Y-116933609D01*
X121827693Y-116933609D02*
X121875312Y-116885990D01*
X121875312Y-116885990D02*
X121970550Y-116838371D01*
X121970550Y-116838371D02*
X122208645Y-116838371D01*
X122208645Y-116838371D02*
X122303883Y-116885990D01*
X122303883Y-116885990D02*
X122351502Y-116933609D01*
X122351502Y-116933609D02*
X122399121Y-117028847D01*
X122399121Y-117028847D02*
X122399121Y-117266942D01*
X122399121Y-117266942D02*
X122351502Y-117362180D01*
X122351502Y-117362180D02*
X122303883Y-117409800D01*
X122303883Y-117409800D02*
X122208645Y-117457419D01*
X122208645Y-117457419D02*
X121970550Y-117457419D01*
X121970550Y-117457419D02*
X121875312Y-117409800D01*
X121875312Y-117409800D02*
X121827693Y-117362180D01*
X192570497Y-92957419D02*
X192570497Y-91957419D01*
X192570497Y-91957419D02*
X192903830Y-92671704D01*
X192903830Y-92671704D02*
X193237163Y-91957419D01*
X193237163Y-91957419D02*
X193237163Y-92957419D01*
X193665735Y-92052657D02*
X193713354Y-92005038D01*
X193713354Y-92005038D02*
X193808592Y-91957419D01*
X193808592Y-91957419D02*
X194046687Y-91957419D01*
X194046687Y-91957419D02*
X194141925Y-92005038D01*
X194141925Y-92005038D02*
X194189544Y-92052657D01*
X194189544Y-92052657D02*
X194237163Y-92147895D01*
X194237163Y-92147895D02*
X194237163Y-92243133D01*
X194237163Y-92243133D02*
X194189544Y-92385990D01*
X194189544Y-92385990D02*
X193618116Y-92957419D01*
X193618116Y-92957419D02*
X194237163Y-92957419D01*
X194665735Y-92862180D02*
X194713354Y-92909800D01*
X194713354Y-92909800D02*
X194665735Y-92957419D01*
X194665735Y-92957419D02*
X194618116Y-92909800D01*
X194618116Y-92909800D02*
X194665735Y-92862180D01*
X194665735Y-92862180D02*
X194665735Y-92957419D01*
X195618115Y-91957419D02*
X195141925Y-91957419D01*
X195141925Y-91957419D02*
X195094306Y-92433609D01*
X195094306Y-92433609D02*
X195141925Y-92385990D01*
X195141925Y-92385990D02*
X195237163Y-92338371D01*
X195237163Y-92338371D02*
X195475258Y-92338371D01*
X195475258Y-92338371D02*
X195570496Y-92385990D01*
X195570496Y-92385990D02*
X195618115Y-92433609D01*
X195618115Y-92433609D02*
X195665734Y-92528847D01*
X195665734Y-92528847D02*
X195665734Y-92766942D01*
X195665734Y-92766942D02*
X195618115Y-92862180D01*
X195618115Y-92862180D02*
X195570496Y-92909800D01*
X195570496Y-92909800D02*
X195475258Y-92957419D01*
X195475258Y-92957419D02*
X195237163Y-92957419D01*
X195237163Y-92957419D02*
X195141925Y-92909800D01*
X195141925Y-92909800D02*
X195094306Y-92862180D01*
D34*
X215615333Y-110704819D02*
X215282000Y-110228628D01*
X215043905Y-110704819D02*
X215043905Y-109704819D01*
X215043905Y-109704819D02*
X215424857Y-109704819D01*
X215424857Y-109704819D02*
X215520095Y-109752438D01*
X215520095Y-109752438D02*
X215567714Y-109800057D01*
X215567714Y-109800057D02*
X215615333Y-109895295D01*
X215615333Y-109895295D02*
X215615333Y-110038152D01*
X215615333Y-110038152D02*
X215567714Y-110133390D01*
X215567714Y-110133390D02*
X215520095Y-110181009D01*
X215520095Y-110181009D02*
X215424857Y-110228628D01*
X215424857Y-110228628D02*
X215043905Y-110228628D01*
X215996286Y-109800057D02*
X216043905Y-109752438D01*
X216043905Y-109752438D02*
X216139143Y-109704819D01*
X216139143Y-109704819D02*
X216377238Y-109704819D01*
X216377238Y-109704819D02*
X216472476Y-109752438D01*
X216472476Y-109752438D02*
X216520095Y-109800057D01*
X216520095Y-109800057D02*
X216567714Y-109895295D01*
X216567714Y-109895295D02*
X216567714Y-109990533D01*
X216567714Y-109990533D02*
X216520095Y-110133390D01*
X216520095Y-110133390D02*
X215948667Y-110704819D01*
X215948667Y-110704819D02*
X216567714Y-110704819D01*
X219591523Y-110584819D02*
X219020095Y-110584819D01*
X219305809Y-110584819D02*
X219305809Y-109584819D01*
X219305809Y-109584819D02*
X219210571Y-109727676D01*
X219210571Y-109727676D02*
X219115333Y-109822914D01*
X219115333Y-109822914D02*
X219020095Y-109870533D01*
X220210571Y-109584819D02*
X220305809Y-109584819D01*
X220305809Y-109584819D02*
X220401047Y-109632438D01*
X220401047Y-109632438D02*
X220448666Y-109680057D01*
X220448666Y-109680057D02*
X220496285Y-109775295D01*
X220496285Y-109775295D02*
X220543904Y-109965771D01*
X220543904Y-109965771D02*
X220543904Y-110203866D01*
X220543904Y-110203866D02*
X220496285Y-110394342D01*
X220496285Y-110394342D02*
X220448666Y-110489580D01*
X220448666Y-110489580D02*
X220401047Y-110537200D01*
X220401047Y-110537200D02*
X220305809Y-110584819D01*
X220305809Y-110584819D02*
X220210571Y-110584819D01*
X220210571Y-110584819D02*
X220115333Y-110537200D01*
X220115333Y-110537200D02*
X220067714Y-110489580D01*
X220067714Y-110489580D02*
X220020095Y-110394342D01*
X220020095Y-110394342D02*
X219972476Y-110203866D01*
X219972476Y-110203866D02*
X219972476Y-109965771D01*
X219972476Y-109965771D02*
X220020095Y-109775295D01*
X220020095Y-109775295D02*
X220067714Y-109680057D01*
X220067714Y-109680057D02*
X220115333Y-109632438D01*
X220115333Y-109632438D02*
X220210571Y-109584819D01*
X220972476Y-110584819D02*
X220972476Y-109584819D01*
X221543904Y-110584819D02*
X221115333Y-110013390D01*
X221543904Y-109584819D02*
X220972476Y-110156247D01*
D33*
X245542580Y-100666666D02*
X244828295Y-100666666D01*
X244828295Y-100666666D02*
X244685438Y-100619047D01*
X244685438Y-100619047D02*
X244590200Y-100523809D01*
X244590200Y-100523809D02*
X244542580Y-100380952D01*
X244542580Y-100380952D02*
X244542580Y-100285714D01*
X245542580Y-101047619D02*
X245542580Y-101666666D01*
X245542580Y-101666666D02*
X245161628Y-101333333D01*
X245161628Y-101333333D02*
X245161628Y-101476190D01*
X245161628Y-101476190D02*
X245114009Y-101571428D01*
X245114009Y-101571428D02*
X245066390Y-101619047D01*
X245066390Y-101619047D02*
X244971152Y-101666666D01*
X244971152Y-101666666D02*
X244733057Y-101666666D01*
X244733057Y-101666666D02*
X244637819Y-101619047D01*
X244637819Y-101619047D02*
X244590200Y-101571428D01*
X244590200Y-101571428D02*
X244542580Y-101476190D01*
X244542580Y-101476190D02*
X244542580Y-101190476D01*
X244542580Y-101190476D02*
X244590200Y-101095238D01*
X244590200Y-101095238D02*
X244637819Y-101047619D01*
X239652580Y-96498095D02*
X238652580Y-96831428D01*
X238652580Y-96831428D02*
X239652580Y-97164761D01*
X238700200Y-97926666D02*
X238652580Y-97831428D01*
X238652580Y-97831428D02*
X238652580Y-97640952D01*
X238652580Y-97640952D02*
X238700200Y-97545714D01*
X238700200Y-97545714D02*
X238747819Y-97498095D01*
X238747819Y-97498095D02*
X238843057Y-97450476D01*
X238843057Y-97450476D02*
X239128771Y-97450476D01*
X239128771Y-97450476D02*
X239224009Y-97498095D01*
X239224009Y-97498095D02*
X239271628Y-97545714D01*
X239271628Y-97545714D02*
X239319247Y-97640952D01*
X239319247Y-97640952D02*
X239319247Y-97831428D01*
X239319247Y-97831428D02*
X239271628Y-97926666D01*
X239176390Y-102125714D02*
X239176390Y-102459047D01*
X238652580Y-102601904D02*
X238652580Y-102125714D01*
X238652580Y-102125714D02*
X239652580Y-102125714D01*
X239652580Y-102125714D02*
X239652580Y-102601904D01*
X239652580Y-99514286D02*
X239652580Y-100085714D01*
X238652580Y-99800000D02*
X239652580Y-99800000D01*
X239604961Y-105141904D02*
X239652580Y-105046666D01*
X239652580Y-105046666D02*
X239652580Y-104903809D01*
X239652580Y-104903809D02*
X239604961Y-104760952D01*
X239604961Y-104760952D02*
X239509723Y-104665714D01*
X239509723Y-104665714D02*
X239414485Y-104618095D01*
X239414485Y-104618095D02*
X239224009Y-104570476D01*
X239224009Y-104570476D02*
X239081152Y-104570476D01*
X239081152Y-104570476D02*
X238890676Y-104618095D01*
X238890676Y-104618095D02*
X238795438Y-104665714D01*
X238795438Y-104665714D02*
X238700200Y-104760952D01*
X238700200Y-104760952D02*
X238652580Y-104903809D01*
X238652580Y-104903809D02*
X238652580Y-104999047D01*
X238652580Y-104999047D02*
X238700200Y-105141904D01*
X238700200Y-105141904D02*
X238747819Y-105189523D01*
X238747819Y-105189523D02*
X239081152Y-105189523D01*
X239081152Y-105189523D02*
X239081152Y-104999047D01*
X158287419Y-94211904D02*
X157287419Y-94211904D01*
X157287419Y-94211904D02*
X157287419Y-93830952D01*
X157287419Y-93830952D02*
X157335038Y-93735714D01*
X157335038Y-93735714D02*
X157382657Y-93688095D01*
X157382657Y-93688095D02*
X157477895Y-93640476D01*
X157477895Y-93640476D02*
X157620752Y-93640476D01*
X157620752Y-93640476D02*
X157715990Y-93688095D01*
X157715990Y-93688095D02*
X157763609Y-93735714D01*
X157763609Y-93735714D02*
X157811228Y-93830952D01*
X157811228Y-93830952D02*
X157811228Y-94211904D01*
X157335038Y-92688095D02*
X157287419Y-92783333D01*
X157287419Y-92783333D02*
X157287419Y-92926190D01*
X157287419Y-92926190D02*
X157335038Y-93069047D01*
X157335038Y-93069047D02*
X157430276Y-93164285D01*
X157430276Y-93164285D02*
X157525514Y-93211904D01*
X157525514Y-93211904D02*
X157715990Y-93259523D01*
X157715990Y-93259523D02*
X157858847Y-93259523D01*
X157858847Y-93259523D02*
X158049323Y-93211904D01*
X158049323Y-93211904D02*
X158144561Y-93164285D01*
X158144561Y-93164285D02*
X158239800Y-93069047D01*
X158239800Y-93069047D02*
X158287419Y-92926190D01*
X158287419Y-92926190D02*
X158287419Y-92830952D01*
X158287419Y-92830952D02*
X158239800Y-92688095D01*
X158239800Y-92688095D02*
X158192180Y-92640476D01*
X158192180Y-92640476D02*
X157858847Y-92640476D01*
X157858847Y-92640476D02*
X157858847Y-92830952D01*
X158239800Y-91195713D02*
X158287419Y-91052856D01*
X158287419Y-91052856D02*
X158287419Y-90814761D01*
X158287419Y-90814761D02*
X158239800Y-90719523D01*
X158239800Y-90719523D02*
X158192180Y-90671904D01*
X158192180Y-90671904D02*
X158096942Y-90624285D01*
X158096942Y-90624285D02*
X158001704Y-90624285D01*
X158001704Y-90624285D02*
X157906466Y-90671904D01*
X157906466Y-90671904D02*
X157858847Y-90719523D01*
X157858847Y-90719523D02*
X157811228Y-90814761D01*
X157811228Y-90814761D02*
X157763609Y-91005237D01*
X157763609Y-91005237D02*
X157715990Y-91100475D01*
X157715990Y-91100475D02*
X157668371Y-91148094D01*
X157668371Y-91148094D02*
X157573133Y-91195713D01*
X157573133Y-91195713D02*
X157477895Y-91195713D01*
X157477895Y-91195713D02*
X157382657Y-91148094D01*
X157382657Y-91148094D02*
X157335038Y-91100475D01*
X157335038Y-91100475D02*
X157287419Y-91005237D01*
X157287419Y-91005237D02*
X157287419Y-90767142D01*
X157287419Y-90767142D02*
X157335038Y-90624285D01*
X157382657Y-89560475D02*
X157335038Y-89512856D01*
X157335038Y-89512856D02*
X157287419Y-89417618D01*
X157287419Y-89417618D02*
X157287419Y-89179523D01*
X157287419Y-89179523D02*
X157335038Y-89084285D01*
X157335038Y-89084285D02*
X157382657Y-89036666D01*
X157382657Y-89036666D02*
X157477895Y-88989047D01*
X157477895Y-88989047D02*
X157573133Y-88989047D01*
X157573133Y-88989047D02*
X157715990Y-89036666D01*
X157715990Y-89036666D02*
X158287419Y-89608094D01*
X158287419Y-89608094D02*
X158287419Y-88989047D01*
X157620752Y-88131904D02*
X158287419Y-88131904D01*
X157239800Y-88369999D02*
X157954085Y-88608094D01*
X157954085Y-88608094D02*
X157954085Y-87989047D01*
X157287419Y-87750951D02*
X158287419Y-87417618D01*
X158287419Y-87417618D02*
X157287419Y-87084285D01*
D34*
X189433905Y-86954819D02*
X189433905Y-85954819D01*
X189433905Y-85954819D02*
X189672000Y-85954819D01*
X189672000Y-85954819D02*
X189814857Y-86002438D01*
X189814857Y-86002438D02*
X189910095Y-86097676D01*
X189910095Y-86097676D02*
X189957714Y-86192914D01*
X189957714Y-86192914D02*
X190005333Y-86383390D01*
X190005333Y-86383390D02*
X190005333Y-86526247D01*
X190005333Y-86526247D02*
X189957714Y-86716723D01*
X189957714Y-86716723D02*
X189910095Y-86811961D01*
X189910095Y-86811961D02*
X189814857Y-86907200D01*
X189814857Y-86907200D02*
X189672000Y-86954819D01*
X189672000Y-86954819D02*
X189433905Y-86954819D01*
X190957714Y-86954819D02*
X190386286Y-86954819D01*
X190672000Y-86954819D02*
X190672000Y-85954819D01*
X190672000Y-85954819D02*
X190576762Y-86097676D01*
X190576762Y-86097676D02*
X190481524Y-86192914D01*
X190481524Y-86192914D02*
X190386286Y-86240533D01*
X188139142Y-88704819D02*
X187567714Y-88704819D01*
X187853428Y-88704819D02*
X187853428Y-87704819D01*
X187853428Y-87704819D02*
X187758190Y-87847676D01*
X187758190Y-87847676D02*
X187662952Y-87942914D01*
X187662952Y-87942914D02*
X187567714Y-87990533D01*
X188567714Y-88704819D02*
X188567714Y-87704819D01*
X188567714Y-87704819D02*
X189139142Y-88704819D01*
X189139142Y-88704819D02*
X189139142Y-87704819D01*
X190091523Y-87704819D02*
X189615333Y-87704819D01*
X189615333Y-87704819D02*
X189567714Y-88181009D01*
X189567714Y-88181009D02*
X189615333Y-88133390D01*
X189615333Y-88133390D02*
X189710571Y-88085771D01*
X189710571Y-88085771D02*
X189948666Y-88085771D01*
X189948666Y-88085771D02*
X190043904Y-88133390D01*
X190043904Y-88133390D02*
X190091523Y-88181009D01*
X190091523Y-88181009D02*
X190139142Y-88276247D01*
X190139142Y-88276247D02*
X190139142Y-88514342D01*
X190139142Y-88514342D02*
X190091523Y-88609580D01*
X190091523Y-88609580D02*
X190043904Y-88657200D01*
X190043904Y-88657200D02*
X189948666Y-88704819D01*
X189948666Y-88704819D02*
X189710571Y-88704819D01*
X189710571Y-88704819D02*
X189615333Y-88657200D01*
X189615333Y-88657200D02*
X189567714Y-88609580D01*
X190710571Y-88133390D02*
X190615333Y-88085771D01*
X190615333Y-88085771D02*
X190567714Y-88038152D01*
X190567714Y-88038152D02*
X190520095Y-87942914D01*
X190520095Y-87942914D02*
X190520095Y-87895295D01*
X190520095Y-87895295D02*
X190567714Y-87800057D01*
X190567714Y-87800057D02*
X190615333Y-87752438D01*
X190615333Y-87752438D02*
X190710571Y-87704819D01*
X190710571Y-87704819D02*
X190901047Y-87704819D01*
X190901047Y-87704819D02*
X190996285Y-87752438D01*
X190996285Y-87752438D02*
X191043904Y-87800057D01*
X191043904Y-87800057D02*
X191091523Y-87895295D01*
X191091523Y-87895295D02*
X191091523Y-87942914D01*
X191091523Y-87942914D02*
X191043904Y-88038152D01*
X191043904Y-88038152D02*
X190996285Y-88085771D01*
X190996285Y-88085771D02*
X190901047Y-88133390D01*
X190901047Y-88133390D02*
X190710571Y-88133390D01*
X190710571Y-88133390D02*
X190615333Y-88181009D01*
X190615333Y-88181009D02*
X190567714Y-88228628D01*
X190567714Y-88228628D02*
X190520095Y-88323866D01*
X190520095Y-88323866D02*
X190520095Y-88514342D01*
X190520095Y-88514342D02*
X190567714Y-88609580D01*
X190567714Y-88609580D02*
X190615333Y-88657200D01*
X190615333Y-88657200D02*
X190710571Y-88704819D01*
X190710571Y-88704819D02*
X190901047Y-88704819D01*
X190901047Y-88704819D02*
X190996285Y-88657200D01*
X190996285Y-88657200D02*
X191043904Y-88609580D01*
X191043904Y-88609580D02*
X191091523Y-88514342D01*
X191091523Y-88514342D02*
X191091523Y-88323866D01*
X191091523Y-88323866D02*
X191043904Y-88228628D01*
X191043904Y-88228628D02*
X190996285Y-88181009D01*
X190996285Y-88181009D02*
X190901047Y-88133390D01*
X192043904Y-88704819D02*
X191472476Y-88704819D01*
X191758190Y-88704819D02*
X191758190Y-87704819D01*
X191758190Y-87704819D02*
X191662952Y-87847676D01*
X191662952Y-87847676D02*
X191567714Y-87942914D01*
X191567714Y-87942914D02*
X191472476Y-87990533D01*
X192377238Y-87704819D02*
X193043904Y-87704819D01*
X193043904Y-87704819D02*
X192615333Y-88704819D01*
X115135095Y-86954819D02*
X115706523Y-86954819D01*
X115420809Y-87954819D02*
X115420809Y-86954819D01*
X116039857Y-87954819D02*
X116039857Y-86954819D01*
X116039857Y-86954819D02*
X116420809Y-86954819D01*
X116420809Y-86954819D02*
X116516047Y-87002438D01*
X116516047Y-87002438D02*
X116563666Y-87050057D01*
X116563666Y-87050057D02*
X116611285Y-87145295D01*
X116611285Y-87145295D02*
X116611285Y-87288152D01*
X116611285Y-87288152D02*
X116563666Y-87383390D01*
X116563666Y-87383390D02*
X116516047Y-87431009D01*
X116516047Y-87431009D02*
X116420809Y-87478628D01*
X116420809Y-87478628D02*
X116039857Y-87478628D01*
X117563666Y-87954819D02*
X116992238Y-87954819D01*
X117277952Y-87954819D02*
X117277952Y-86954819D01*
X117277952Y-86954819D02*
X117182714Y-87097676D01*
X117182714Y-87097676D02*
X117087476Y-87192914D01*
X117087476Y-87192914D02*
X116992238Y-87240533D01*
X115635095Y-88502438D02*
X115539857Y-88454819D01*
X115539857Y-88454819D02*
X115397000Y-88454819D01*
X115397000Y-88454819D02*
X115254143Y-88502438D01*
X115254143Y-88502438D02*
X115158905Y-88597676D01*
X115158905Y-88597676D02*
X115111286Y-88692914D01*
X115111286Y-88692914D02*
X115063667Y-88883390D01*
X115063667Y-88883390D02*
X115063667Y-89026247D01*
X115063667Y-89026247D02*
X115111286Y-89216723D01*
X115111286Y-89216723D02*
X115158905Y-89311961D01*
X115158905Y-89311961D02*
X115254143Y-89407200D01*
X115254143Y-89407200D02*
X115397000Y-89454819D01*
X115397000Y-89454819D02*
X115492238Y-89454819D01*
X115492238Y-89454819D02*
X115635095Y-89407200D01*
X115635095Y-89407200D02*
X115682714Y-89359580D01*
X115682714Y-89359580D02*
X115682714Y-89026247D01*
X115682714Y-89026247D02*
X115492238Y-89026247D01*
X116111286Y-89454819D02*
X116111286Y-88454819D01*
X116111286Y-88454819D02*
X116682714Y-89454819D01*
X116682714Y-89454819D02*
X116682714Y-88454819D01*
X117158905Y-89454819D02*
X117158905Y-88454819D01*
X117158905Y-88454819D02*
X117397000Y-88454819D01*
X117397000Y-88454819D02*
X117539857Y-88502438D01*
X117539857Y-88502438D02*
X117635095Y-88597676D01*
X117635095Y-88597676D02*
X117682714Y-88692914D01*
X117682714Y-88692914D02*
X117730333Y-88883390D01*
X117730333Y-88883390D02*
X117730333Y-89026247D01*
X117730333Y-89026247D02*
X117682714Y-89216723D01*
X117682714Y-89216723D02*
X117635095Y-89311961D01*
X117635095Y-89311961D02*
X117539857Y-89407200D01*
X117539857Y-89407200D02*
X117397000Y-89454819D01*
X117397000Y-89454819D02*
X117158905Y-89454819D01*
D33*
X173308667Y-90419800D02*
X173451524Y-90467419D01*
X173451524Y-90467419D02*
X173689619Y-90467419D01*
X173689619Y-90467419D02*
X173784857Y-90419800D01*
X173784857Y-90419800D02*
X173832476Y-90372180D01*
X173832476Y-90372180D02*
X173880095Y-90276942D01*
X173880095Y-90276942D02*
X173880095Y-90181704D01*
X173880095Y-90181704D02*
X173832476Y-90086466D01*
X173832476Y-90086466D02*
X173784857Y-90038847D01*
X173784857Y-90038847D02*
X173689619Y-89991228D01*
X173689619Y-89991228D02*
X173499143Y-89943609D01*
X173499143Y-89943609D02*
X173403905Y-89895990D01*
X173403905Y-89895990D02*
X173356286Y-89848371D01*
X173356286Y-89848371D02*
X173308667Y-89753133D01*
X173308667Y-89753133D02*
X173308667Y-89657895D01*
X173308667Y-89657895D02*
X173356286Y-89562657D01*
X173356286Y-89562657D02*
X173403905Y-89515038D01*
X173403905Y-89515038D02*
X173499143Y-89467419D01*
X173499143Y-89467419D02*
X173737238Y-89467419D01*
X173737238Y-89467419D02*
X173880095Y-89515038D01*
X174213429Y-89467419D02*
X174451524Y-90467419D01*
X174451524Y-90467419D02*
X174642000Y-89753133D01*
X174642000Y-89753133D02*
X174832476Y-90467419D01*
X174832476Y-90467419D02*
X175070572Y-89467419D01*
X175356286Y-89467419D02*
X175975333Y-89467419D01*
X175975333Y-89467419D02*
X175642000Y-89848371D01*
X175642000Y-89848371D02*
X175784857Y-89848371D01*
X175784857Y-89848371D02*
X175880095Y-89895990D01*
X175880095Y-89895990D02*
X175927714Y-89943609D01*
X175927714Y-89943609D02*
X175975333Y-90038847D01*
X175975333Y-90038847D02*
X175975333Y-90276942D01*
X175975333Y-90276942D02*
X175927714Y-90372180D01*
X175927714Y-90372180D02*
X175880095Y-90419800D01*
X175880095Y-90419800D02*
X175784857Y-90467419D01*
X175784857Y-90467419D02*
X175499143Y-90467419D01*
X175499143Y-90467419D02*
X175403905Y-90419800D01*
X175403905Y-90419800D02*
X175356286Y-90372180D01*
D34*
X168353333Y-90417200D02*
X168496190Y-90464819D01*
X168496190Y-90464819D02*
X168734285Y-90464819D01*
X168734285Y-90464819D02*
X168829523Y-90417200D01*
X168829523Y-90417200D02*
X168877142Y-90369580D01*
X168877142Y-90369580D02*
X168924761Y-90274342D01*
X168924761Y-90274342D02*
X168924761Y-90179104D01*
X168924761Y-90179104D02*
X168877142Y-90083866D01*
X168877142Y-90083866D02*
X168829523Y-90036247D01*
X168829523Y-90036247D02*
X168734285Y-89988628D01*
X168734285Y-89988628D02*
X168543809Y-89941009D01*
X168543809Y-89941009D02*
X168448571Y-89893390D01*
X168448571Y-89893390D02*
X168400952Y-89845771D01*
X168400952Y-89845771D02*
X168353333Y-89750533D01*
X168353333Y-89750533D02*
X168353333Y-89655295D01*
X168353333Y-89655295D02*
X168400952Y-89560057D01*
X168400952Y-89560057D02*
X168448571Y-89512438D01*
X168448571Y-89512438D02*
X168543809Y-89464819D01*
X168543809Y-89464819D02*
X168781904Y-89464819D01*
X168781904Y-89464819D02*
X168924761Y-89512438D01*
X169353333Y-90464819D02*
X169353333Y-89464819D01*
X169353333Y-89464819D02*
X169734285Y-89464819D01*
X169734285Y-89464819D02*
X169829523Y-89512438D01*
X169829523Y-89512438D02*
X169877142Y-89560057D01*
X169877142Y-89560057D02*
X169924761Y-89655295D01*
X169924761Y-89655295D02*
X169924761Y-89798152D01*
X169924761Y-89798152D02*
X169877142Y-89893390D01*
X169877142Y-89893390D02*
X169829523Y-89941009D01*
X169829523Y-89941009D02*
X169734285Y-89988628D01*
X169734285Y-89988628D02*
X169353333Y-89988628D01*
X170353333Y-90464819D02*
X170353333Y-89464819D01*
X170353333Y-89464819D02*
X170591428Y-89464819D01*
X170591428Y-89464819D02*
X170734285Y-89512438D01*
X170734285Y-89512438D02*
X170829523Y-89607676D01*
X170829523Y-89607676D02*
X170877142Y-89702914D01*
X170877142Y-89702914D02*
X170924761Y-89893390D01*
X170924761Y-89893390D02*
X170924761Y-90036247D01*
X170924761Y-90036247D02*
X170877142Y-90226723D01*
X170877142Y-90226723D02*
X170829523Y-90321961D01*
X170829523Y-90321961D02*
X170734285Y-90417200D01*
X170734285Y-90417200D02*
X170591428Y-90464819D01*
X170591428Y-90464819D02*
X170353333Y-90464819D01*
X171210476Y-89464819D02*
X171781904Y-89464819D01*
X171496190Y-90464819D02*
X171496190Y-89464819D01*
X169996285Y-98538152D02*
X169996285Y-99204819D01*
X169758190Y-98157200D02*
X169520095Y-98871485D01*
X169520095Y-98871485D02*
X170139142Y-98871485D01*
X170424857Y-98204819D02*
X171091523Y-98204819D01*
X171091523Y-98204819D02*
X170662952Y-99204819D01*
X172043904Y-99204819D02*
X171710571Y-98728628D01*
X171472476Y-99204819D02*
X171472476Y-98204819D01*
X171472476Y-98204819D02*
X171853428Y-98204819D01*
X171853428Y-98204819D02*
X171948666Y-98252438D01*
X171948666Y-98252438D02*
X171996285Y-98300057D01*
X171996285Y-98300057D02*
X172043904Y-98395295D01*
X172043904Y-98395295D02*
X172043904Y-98538152D01*
X172043904Y-98538152D02*
X171996285Y-98633390D01*
X171996285Y-98633390D02*
X171948666Y-98681009D01*
X171948666Y-98681009D02*
X171853428Y-98728628D01*
X171853428Y-98728628D02*
X171472476Y-98728628D01*
X170615333Y-93704819D02*
X170282000Y-93228628D01*
X170043905Y-93704819D02*
X170043905Y-92704819D01*
X170043905Y-92704819D02*
X170424857Y-92704819D01*
X170424857Y-92704819D02*
X170520095Y-92752438D01*
X170520095Y-92752438D02*
X170567714Y-92800057D01*
X170567714Y-92800057D02*
X170615333Y-92895295D01*
X170615333Y-92895295D02*
X170615333Y-93038152D01*
X170615333Y-93038152D02*
X170567714Y-93133390D01*
X170567714Y-93133390D02*
X170520095Y-93181009D01*
X170520095Y-93181009D02*
X170424857Y-93228628D01*
X170424857Y-93228628D02*
X170043905Y-93228628D01*
X171520095Y-92704819D02*
X171043905Y-92704819D01*
X171043905Y-92704819D02*
X170996286Y-93181009D01*
X170996286Y-93181009D02*
X171043905Y-93133390D01*
X171043905Y-93133390D02*
X171139143Y-93085771D01*
X171139143Y-93085771D02*
X171377238Y-93085771D01*
X171377238Y-93085771D02*
X171472476Y-93133390D01*
X171472476Y-93133390D02*
X171520095Y-93181009D01*
X171520095Y-93181009D02*
X171567714Y-93276247D01*
X171567714Y-93276247D02*
X171567714Y-93514342D01*
X171567714Y-93514342D02*
X171520095Y-93609580D01*
X171520095Y-93609580D02*
X171472476Y-93657200D01*
X171472476Y-93657200D02*
X171377238Y-93704819D01*
X171377238Y-93704819D02*
X171139143Y-93704819D01*
X171139143Y-93704819D02*
X171043905Y-93657200D01*
X171043905Y-93657200D02*
X170996286Y-93609580D01*
D33*
X126303884Y-83457419D02*
X126303884Y-82457419D01*
X126303884Y-82457419D02*
X126637217Y-83171704D01*
X126637217Y-83171704D02*
X126970550Y-82457419D01*
X126970550Y-82457419D02*
X126970550Y-83457419D01*
X127399122Y-82552657D02*
X127446741Y-82505038D01*
X127446741Y-82505038D02*
X127541979Y-82457419D01*
X127541979Y-82457419D02*
X127780074Y-82457419D01*
X127780074Y-82457419D02*
X127875312Y-82505038D01*
X127875312Y-82505038D02*
X127922931Y-82552657D01*
X127922931Y-82552657D02*
X127970550Y-82647895D01*
X127970550Y-82647895D02*
X127970550Y-82743133D01*
X127970550Y-82743133D02*
X127922931Y-82885990D01*
X127922931Y-82885990D02*
X127351503Y-83457419D01*
X127351503Y-83457419D02*
X127970550Y-83457419D01*
X128399122Y-83362180D02*
X128446741Y-83409800D01*
X128446741Y-83409800D02*
X128399122Y-83457419D01*
X128399122Y-83457419D02*
X128351503Y-83409800D01*
X128351503Y-83409800D02*
X128399122Y-83362180D01*
X128399122Y-83362180D02*
X128399122Y-83457419D01*
X129351502Y-82457419D02*
X128875312Y-82457419D01*
X128875312Y-82457419D02*
X128827693Y-82933609D01*
X128827693Y-82933609D02*
X128875312Y-82885990D01*
X128875312Y-82885990D02*
X128970550Y-82838371D01*
X128970550Y-82838371D02*
X129208645Y-82838371D01*
X129208645Y-82838371D02*
X129303883Y-82885990D01*
X129303883Y-82885990D02*
X129351502Y-82933609D01*
X129351502Y-82933609D02*
X129399121Y-83028847D01*
X129399121Y-83028847D02*
X129399121Y-83266942D01*
X129399121Y-83266942D02*
X129351502Y-83362180D01*
X129351502Y-83362180D02*
X129303883Y-83409800D01*
X129303883Y-83409800D02*
X129208645Y-83457419D01*
X129208645Y-83457419D02*
X128970550Y-83457419D01*
X128970550Y-83457419D02*
X128875312Y-83409800D01*
X128875312Y-83409800D02*
X128827693Y-83362180D01*
D34*
X215615333Y-105204819D02*
X215282000Y-104728628D01*
X215043905Y-105204819D02*
X215043905Y-104204819D01*
X215043905Y-104204819D02*
X215424857Y-104204819D01*
X215424857Y-104204819D02*
X215520095Y-104252438D01*
X215520095Y-104252438D02*
X215567714Y-104300057D01*
X215567714Y-104300057D02*
X215615333Y-104395295D01*
X215615333Y-104395295D02*
X215615333Y-104538152D01*
X215615333Y-104538152D02*
X215567714Y-104633390D01*
X215567714Y-104633390D02*
X215520095Y-104681009D01*
X215520095Y-104681009D02*
X215424857Y-104728628D01*
X215424857Y-104728628D02*
X215043905Y-104728628D01*
X215948667Y-104204819D02*
X216567714Y-104204819D01*
X216567714Y-104204819D02*
X216234381Y-104585771D01*
X216234381Y-104585771D02*
X216377238Y-104585771D01*
X216377238Y-104585771D02*
X216472476Y-104633390D01*
X216472476Y-104633390D02*
X216520095Y-104681009D01*
X216520095Y-104681009D02*
X216567714Y-104776247D01*
X216567714Y-104776247D02*
X216567714Y-105014342D01*
X216567714Y-105014342D02*
X216520095Y-105109580D01*
X216520095Y-105109580D02*
X216472476Y-105157200D01*
X216472476Y-105157200D02*
X216377238Y-105204819D01*
X216377238Y-105204819D02*
X216091524Y-105204819D01*
X216091524Y-105204819D02*
X215996286Y-105157200D01*
X215996286Y-105157200D02*
X215948667Y-105109580D01*
X219591523Y-105204819D02*
X219020095Y-105204819D01*
X219305809Y-105204819D02*
X219305809Y-104204819D01*
X219305809Y-104204819D02*
X219210571Y-104347676D01*
X219210571Y-104347676D02*
X219115333Y-104442914D01*
X219115333Y-104442914D02*
X219020095Y-104490533D01*
X220210571Y-104204819D02*
X220305809Y-104204819D01*
X220305809Y-104204819D02*
X220401047Y-104252438D01*
X220401047Y-104252438D02*
X220448666Y-104300057D01*
X220448666Y-104300057D02*
X220496285Y-104395295D01*
X220496285Y-104395295D02*
X220543904Y-104585771D01*
X220543904Y-104585771D02*
X220543904Y-104823866D01*
X220543904Y-104823866D02*
X220496285Y-105014342D01*
X220496285Y-105014342D02*
X220448666Y-105109580D01*
X220448666Y-105109580D02*
X220401047Y-105157200D01*
X220401047Y-105157200D02*
X220305809Y-105204819D01*
X220305809Y-105204819D02*
X220210571Y-105204819D01*
X220210571Y-105204819D02*
X220115333Y-105157200D01*
X220115333Y-105157200D02*
X220067714Y-105109580D01*
X220067714Y-105109580D02*
X220020095Y-105014342D01*
X220020095Y-105014342D02*
X219972476Y-104823866D01*
X219972476Y-104823866D02*
X219972476Y-104585771D01*
X219972476Y-104585771D02*
X220020095Y-104395295D01*
X220020095Y-104395295D02*
X220067714Y-104300057D01*
X220067714Y-104300057D02*
X220115333Y-104252438D01*
X220115333Y-104252438D02*
X220210571Y-104204819D01*
X220972476Y-105204819D02*
X220972476Y-104204819D01*
X221543904Y-105204819D02*
X221115333Y-104633390D01*
X221543904Y-104204819D02*
X220972476Y-104776247D01*
D35*
%TO.C,R1*%
X216782000Y-117580000D02*
X217552000Y-117580000D01*
X217552000Y-116210000D02*
X217552000Y-118950000D01*
X217552000Y-118950000D02*
X224092000Y-118950000D01*
X224092000Y-116210000D02*
X217552000Y-116210000D01*
X224092000Y-118950000D02*
X224092000Y-116210000D01*
X224862000Y-117580000D02*
X224092000Y-117580000D01*
%TO.C,R4*%
X180587000Y-95990000D02*
X181357000Y-95990000D01*
X181357000Y-94620000D02*
X181357000Y-97360000D01*
X181357000Y-97360000D02*
X187897000Y-97360000D01*
X187897000Y-94620000D02*
X181357000Y-94620000D01*
X187897000Y-97360000D02*
X187897000Y-94620000D01*
X188667000Y-95990000D02*
X187897000Y-95990000D01*
D36*
%TO.C,U1*%
X210471500Y-98530000D02*
X210471500Y-85830000D01*
X213011500Y-83290000D02*
X228632500Y-83290000D01*
X228632500Y-101070000D02*
X213011500Y-101070000D01*
X231172500Y-85830000D02*
X231172500Y-98530000D01*
D33*
X209201500Y-95736000D02*
X214281500Y-95736000D01*
X214281500Y-88624000D01*
X209201500Y-88624000D01*
X209201500Y-95736000D01*
D36*
X210471500Y-85830000D02*
G75*
G02*
X213011500Y-83290000I2540000J0D01*
G01*
X213011500Y-101070000D02*
G75*
G02*
X210471500Y-98530000I0J2540000D01*
G01*
X228632500Y-83290000D02*
G75*
G02*
X231172500Y-85830000I0J-2540000D01*
G01*
X231172500Y-98530000D02*
G75*
G02*
X228632500Y-101070000I-2540000J0D01*
G01*
D35*
%TO.C,TP2*%
X134200000Y-91850000D02*
G75*
G02*
X130800000Y-91850000I-1700000J0D01*
G01*
X130800000Y-91850000D02*
G75*
G02*
X134200000Y-91850000I1700000J0D01*
G01*
D34*
%TO.C,SW1*%
X196662000Y-108810000D02*
X196662000Y-106160000D01*
X196662000Y-113772500D02*
X196662000Y-111147500D01*
X196662000Y-118760000D02*
X196662000Y-116160000D01*
X196662000Y-118760000D02*
X201162000Y-118760000D01*
X201162000Y-106160000D02*
X196662000Y-106160000D01*
X206162000Y-118760000D02*
X210662000Y-118760000D01*
X210662000Y-106160000D02*
X206262000Y-106160000D01*
X210662000Y-108860000D02*
X210662000Y-106160000D01*
X210662000Y-111360000D02*
X210662000Y-111060000D01*
X210662000Y-113860000D02*
X210662000Y-113560000D01*
X210662000Y-118760000D02*
X210662000Y-116160000D01*
D35*
%TO.C,R2*%
X216782000Y-112500000D02*
X217552000Y-112500000D01*
X217552000Y-111130000D02*
X217552000Y-113870000D01*
X217552000Y-113870000D02*
X224092000Y-113870000D01*
X224092000Y-111130000D02*
X217552000Y-111130000D01*
X224092000Y-113870000D02*
X224092000Y-111130000D01*
X224862000Y-112500000D02*
X224092000Y-112500000D01*
%TO.C,J3*%
D33*
X259050000Y-81070000D02*
X240950000Y-81070000D01*
X240950000Y-121070000D01*
X259050000Y-121070000D01*
X259050000Y-81070000D01*
X258150000Y-89860000D02*
G75*
G02*
X242150000Y-89860000I-8000000J0D01*
G01*
X242150000Y-89860000D02*
G75*
G02*
X258150000Y-89860000I8000000J0D01*
G01*
X258150000Y-111570000D02*
G75*
G02*
X242150000Y-111570000I-8000000J0D01*
G01*
X242150000Y-111570000D02*
G75*
G02*
X258150000Y-111570000I8000000J0D01*
G01*
%TO.C,Pololu_5V_1*%
X137782000Y-94870000D02*
X156544000Y-94870000D01*
X156544000Y-81870000D01*
X137782000Y-81870000D01*
X137782000Y-94870000D01*
D35*
%TO.C,D1*%
X190383153Y-84390000D02*
G75*
G02*
X190323551Y-82122634I-1311153J1100000D01*
G01*
%TO.C,TP1*%
X118097000Y-92000000D02*
G75*
G02*
X114697000Y-92000000I-1700000J0D01*
G01*
X114697000Y-92000000D02*
G75*
G02*
X118097000Y-92000000I1700000J0D01*
G01*
%TO.C,SW3*%
D33*
X182642000Y-88830000D02*
X166642000Y-88830000D01*
X166642000Y-82830000D01*
X182642000Y-82830000D01*
X182642000Y-88830000D01*
%TO.C,J1*%
X152952000Y-103850000D02*
X154652000Y-103850000D01*
X154652000Y-103050000D01*
X152952000Y-103050000D01*
X152952000Y-103850000D01*
X152952000Y-106550000D02*
X154652000Y-106550000D01*
X154652000Y-105750000D01*
X152952000Y-105750000D01*
X152952000Y-106550000D01*
X152952000Y-107650000D02*
X159152000Y-107650000D01*
X159152000Y-102050000D01*
X152952000Y-102050000D01*
X152952000Y-107650000D01*
%TO.C,Q1*%
X179677000Y-106055000D02*
X179677000Y-116405000D01*
X185677000Y-106055000D02*
X170577000Y-106055000D01*
X170577000Y-116405000D01*
X185677000Y-116405000D01*
X185677000Y-106055000D01*
D35*
%TO.C,R5*%
X166617000Y-95990000D02*
X167387000Y-95990000D01*
X167387000Y-94620000D02*
X167387000Y-97360000D01*
X167387000Y-97360000D02*
X173927000Y-97360000D01*
X173927000Y-94620000D02*
X167387000Y-94620000D01*
X173927000Y-97360000D02*
X173927000Y-94620000D01*
X174697000Y-95990000D02*
X173927000Y-95990000D01*
%TO.C,R3*%
X216782000Y-107420000D02*
X217552000Y-107420000D01*
X217552000Y-106050000D02*
X217552000Y-108790000D01*
X217552000Y-108790000D02*
X224092000Y-108790000D01*
X224092000Y-106050000D02*
X217552000Y-106050000D01*
X224092000Y-108790000D02*
X224092000Y-106050000D01*
X224862000Y-107420000D02*
X224092000Y-107420000D01*
%TO.C,J2*%
D33*
X152952000Y-114010000D02*
X154652000Y-114010000D01*
X154652000Y-113210000D01*
X152952000Y-113210000D01*
X152952000Y-114010000D01*
X152952000Y-116710000D02*
X154652000Y-116710000D01*
X154652000Y-115910000D01*
X152952000Y-115910000D01*
X152952000Y-116710000D01*
X152952000Y-117810000D02*
X159152000Y-117810000D01*
X159152000Y-112210000D01*
X152952000Y-112210000D01*
X152952000Y-117810000D01*
%TD*%
M02*
