%TF.GenerationSoftware,KiCad,Pcbnew,9.0.1*%
%TF.CreationDate,2025-09-30T23:18:26-04:00*%
%TF.ProjectId,cablight-project,6361626c-6967-4687-942d-70726f6a6563,rev?*%
%TF.SameCoordinates,Original*%
%TF.FileFunction,Drillmap*%
%TF.FilePolarity,Positive*%
%FSLAX45Y45*%
G04 Gerber Fmt 4.5, Leading zero omitted, Abs format (unit mm)*
G04 Created by KiCad (PCBNEW 9.0.1) date 2025-09-30 23:18:26*
%MOMM*%
%LPD*%
G01*
G04 APERTURE LIST*
%ADD10C,0.150000*%
%ADD11C,0.200000*%
%ADD12C,0.100000*%
%ADD13C,0.120000*%
%ADD14C,0.270000*%
G04 APERTURE END LIST*
D10*
X-7390711Y-1583588D02*
G75*
G02*
X-7420000Y-1512878I70710J70710D01*
G01*
X-6817167Y-2115711D02*
G75*
G02*
X-6887878Y-2086421I0J99999D01*
G01*
X-6887878Y-2086421D02*
X-7390711Y-1583588D01*
X-7320000Y-640000D02*
X-7190000Y-640000D01*
X-6550000Y-2215711D02*
X-6550000Y-3360000D01*
X-6790000Y-4200000D02*
G75*
G02*
X-6790000Y-3460000I0J370000D01*
G01*
X-6650000Y-2115711D02*
G75*
G02*
X-6550000Y-2215711I0J-100000D01*
G01*
X-1870000Y-4200000D02*
X0Y-4200000D01*
X-7420000Y-740000D02*
G75*
G02*
X-7320000Y-640000I100000J0D01*
G01*
X-6840000Y-290000D02*
G75*
G02*
X-7190000Y-640000I-350000J0D01*
G01*
X-2930000Y-3980000D02*
X-2930000Y-4000000D01*
X0Y0D02*
X0Y-4200000D01*
X-2930000Y-3980000D02*
G75*
G02*
X-2070000Y-3980000I430000J0D01*
G01*
X-1870000Y-4200000D02*
G75*
G02*
X-2070000Y-4000000I0J200000D01*
G01*
X-6710000Y-3460000D02*
X-6790000Y-3460000D01*
X-2523439Y-510000D02*
G75*
G02*
X-3324161Y-510000I-400361J0D01*
G01*
X-3324161Y-510000D02*
G75*
G02*
X-2523439Y-510000I400361J0D01*
G01*
X-6840000Y-100000D02*
X-6840000Y-290000D01*
X-7420000Y-740000D02*
X-7420000Y-1512878D01*
X0Y0D02*
X-6740000Y0D01*
X-6650000Y-3460000D02*
X-6710000Y-3460000D01*
X-2930000Y-4000000D02*
G75*
G02*
X-3130000Y-4200000I-200000J0D01*
G01*
X-6817167Y-2115711D02*
X-6650000Y-2115711D01*
X-6550000Y-3360000D02*
G75*
G02*
X-6650000Y-3460000I-100000J0D01*
G01*
X-3130000Y-4200000D02*
X-6790000Y-4200000D01*
X-2070000Y-4000000D02*
X-2070000Y-3980000D01*
X-6840000Y-100000D02*
G75*
G02*
X-6740000Y0I100000J0D01*
G01*
D11*
D12*
X-6545000Y-265000D02*
X-6495000Y-315000D01*
X-6495000Y-265000D02*
X-6545000Y-315000D01*
X-6405000Y-2785000D02*
X-6355000Y-2835000D01*
X-6355000Y-2785000D02*
X-6405000Y-2835000D01*
X-6055000Y-3975000D02*
X-6005000Y-4025000D01*
X-6005000Y-3975000D02*
X-6055000Y-4025000D01*
X-5845000Y-265000D02*
X-5795000Y-315000D01*
X-5795000Y-265000D02*
X-5845000Y-315000D01*
X-5625000Y-3055000D02*
X-5575000Y-3105000D01*
X-5575000Y-3055000D02*
X-5625000Y-3105000D01*
X-5405000Y-1235000D02*
X-5355000Y-1285000D01*
X-5355000Y-1235000D02*
X-5405000Y-1285000D01*
X-5385000Y-2075000D02*
X-5335000Y-2125000D01*
X-5335000Y-2075000D02*
X-5385000Y-2125000D01*
X-5335000Y-1585000D02*
X-5285000Y-1635000D01*
X-5285000Y-1585000D02*
X-5335000Y-1635000D01*
X-5335000Y-1815000D02*
X-5285000Y-1865000D01*
X-5285000Y-1815000D02*
X-5335000Y-1865000D01*
X-4990000Y-2925000D02*
X-4940000Y-2975000D01*
X-4940000Y-2925000D02*
X-4990000Y-2975000D01*
X-4695000Y-2835000D02*
X-4645000Y-2885000D01*
X-4645000Y-2835000D02*
X-4695000Y-2885000D01*
X-4310000Y-2855000D02*
X-4260000Y-2905000D01*
X-4260000Y-2855000D02*
X-4310000Y-2905000D01*
X-4170000Y-690000D02*
X-4120000Y-740000D01*
X-4120000Y-690000D02*
X-4170000Y-740000D01*
X-4115000Y-2075000D02*
X-4065000Y-2125000D01*
X-4065000Y-2075000D02*
X-4115000Y-2125000D01*
X-3905000Y-130000D02*
X-3855000Y-180000D01*
X-3855000Y-130000D02*
X-3905000Y-180000D01*
X-3400000Y-1815000D02*
X-3350000Y-1865000D01*
X-3350000Y-1815000D02*
X-3400000Y-1865000D01*
X-3205000Y-1935000D02*
X-3155000Y-1985000D01*
X-3155000Y-1935000D02*
X-3205000Y-1985000D01*
X-3123000Y-1430000D02*
X-3073000Y-1480000D01*
X-3073000Y-1430000D02*
X-3123000Y-1480000D01*
X-3035000Y-2355000D02*
X-2985000Y-2405000D01*
X-2985000Y-2355000D02*
X-3035000Y-2405000D01*
X-2940000Y-1385000D02*
X-2890000Y-1435000D01*
X-2890000Y-1385000D02*
X-2940000Y-1435000D01*
X-2570000Y-2355000D02*
X-2520000Y-2405000D01*
X-2520000Y-2355000D02*
X-2570000Y-2405000D01*
X-2525000Y-1885000D02*
X-2475000Y-1935000D01*
X-2475000Y-1885000D02*
X-2525000Y-1935000D01*
X-2325000Y-1375000D02*
X-2275000Y-1425000D01*
X-2275000Y-1375000D02*
X-2325000Y-1425000D01*
X-2200000Y-885000D02*
X-2150000Y-935000D01*
X-2150000Y-885000D02*
X-2200000Y-935000D01*
X-1535000Y-1430000D02*
X-1485000Y-1480000D01*
X-1485000Y-1430000D02*
X-1535000Y-1480000D01*
X-1515000Y-885000D02*
X-1465000Y-935000D01*
X-1465000Y-885000D02*
X-1515000Y-935000D01*
X-1270000Y-2020000D02*
X-1220000Y-2070000D01*
X-1220000Y-2020000D02*
X-1270000Y-2070000D01*
X-1255000Y-3685000D02*
X-1205000Y-3735000D01*
X-1205000Y-3685000D02*
X-1255000Y-3735000D01*
X-1185000Y-1490000D02*
X-1135000Y-1540000D01*
X-1135000Y-1490000D02*
X-1185000Y-1540000D01*
X-365000Y-835000D02*
X-315000Y-885000D01*
X-315000Y-835000D02*
X-365000Y-885000D01*
X-365000Y-2375000D02*
X-315000Y-2425000D01*
X-315000Y-2375000D02*
X-365000Y-2425000D01*
X-365000Y-3365000D02*
X-315000Y-3415000D01*
X-315000Y-3365000D02*
X-365000Y-3415000D01*
X-3977000Y-3060000D02*
G75*
G02*
X-4027000Y-3060000I-25000J0D01*
G01*
X-4027000Y-3060000D02*
G75*
G02*
X-3977000Y-3060000I25000J0D01*
G01*
X-4027000Y-3085000D02*
X-3977000Y-3085000D01*
X-3977000Y-3035000D02*
G75*
G02*
X-3977000Y-3085000I0J-25000D01*
G01*
X-3977000Y-3035000D02*
X-4027000Y-3035000D01*
X-4027000Y-3035000D02*
G75*
G03*
X-4027000Y-3085000I0J-25000D01*
G01*
X-3977000Y-3812000D02*
G75*
G02*
X-4027000Y-3812000I-25000J0D01*
G01*
X-4027000Y-3812000D02*
G75*
G02*
X-3977000Y-3812000I25000J0D01*
G01*
X-4027000Y-3837000D02*
X-3977000Y-3837000D01*
X-3977000Y-3787000D02*
G75*
G02*
X-3977000Y-3837000I0J-25000D01*
G01*
X-3977000Y-3787000D02*
X-4027000Y-3787000D01*
X-4027000Y-3787000D02*
G75*
G03*
X-4027000Y-3837000I0J-25000D01*
G01*
X-3723000Y-3060000D02*
G75*
G02*
X-3773000Y-3060000I-25000J0D01*
G01*
X-3773000Y-3060000D02*
G75*
G02*
X-3723000Y-3060000I25000J0D01*
G01*
X-3773000Y-3085000D02*
X-3723000Y-3085000D01*
X-3723000Y-3035000D02*
G75*
G02*
X-3723000Y-3085000I0J-25000D01*
G01*
X-3723000Y-3035000D02*
X-3773000Y-3035000D01*
X-3773000Y-3035000D02*
G75*
G03*
X-3773000Y-3085000I0J-25000D01*
G01*
X-3723000Y-3812000D02*
G75*
G02*
X-3773000Y-3812000I-25000J0D01*
G01*
X-3773000Y-3812000D02*
G75*
G02*
X-3723000Y-3812000I25000J0D01*
G01*
X-3773000Y-3837000D02*
X-3723000Y-3837000D01*
X-3723000Y-3787000D02*
G75*
G02*
X-3723000Y-3837000I0J-25000D01*
G01*
X-3723000Y-3787000D02*
X-3773000Y-3787000D01*
X-3773000Y-3787000D02*
G75*
G03*
X-3773000Y-3837000I0J-25000D01*
G01*
X-3469000Y-3060000D02*
G75*
G02*
X-3519000Y-3060000I-25000J0D01*
G01*
X-3519000Y-3060000D02*
G75*
G02*
X-3469000Y-3060000I25000J0D01*
G01*
X-3519000Y-3085000D02*
X-3469000Y-3085000D01*
X-3469000Y-3035000D02*
G75*
G02*
X-3469000Y-3085000I0J-25000D01*
G01*
X-3469000Y-3035000D02*
X-3519000Y-3035000D01*
X-3519000Y-3035000D02*
G75*
G03*
X-3519000Y-3085000I0J-25000D01*
G01*
X-3469000Y-3812000D02*
G75*
G02*
X-3519000Y-3812000I-25000J0D01*
G01*
X-3519000Y-3812000D02*
G75*
G02*
X-3469000Y-3812000I25000J0D01*
G01*
X-3519000Y-3837000D02*
X-3469000Y-3837000D01*
X-3469000Y-3787000D02*
G75*
G02*
X-3469000Y-3837000I0J-25000D01*
G01*
X-3469000Y-3787000D02*
X-3519000Y-3787000D01*
X-3519000Y-3787000D02*
G75*
G03*
X-3519000Y-3837000I0J-25000D01*
G01*
X-3215000Y-3060000D02*
G75*
G02*
X-3265000Y-3060000I-25000J0D01*
G01*
X-3265000Y-3060000D02*
G75*
G02*
X-3215000Y-3060000I25000J0D01*
G01*
X-3265000Y-3085000D02*
X-3215000Y-3085000D01*
X-3215000Y-3035000D02*
G75*
G02*
X-3215000Y-3085000I0J-25000D01*
G01*
X-3215000Y-3035000D02*
X-3265000Y-3035000D01*
X-3265000Y-3035000D02*
G75*
G03*
X-3265000Y-3085000I0J-25000D01*
G01*
X-3215000Y-3812000D02*
G75*
G02*
X-3265000Y-3812000I-25000J0D01*
G01*
X-3265000Y-3812000D02*
G75*
G02*
X-3215000Y-3812000I25000J0D01*
G01*
X-3265000Y-3837000D02*
X-3215000Y-3837000D01*
X-3215000Y-3787000D02*
G75*
G02*
X-3215000Y-3837000I0J-25000D01*
G01*
X-3215000Y-3787000D02*
X-3265000Y-3787000D01*
X-3265000Y-3787000D02*
G75*
G03*
X-3265000Y-3837000I0J-25000D01*
G01*
X-7230000Y-865000D02*
X-7230000Y-945000D01*
X-7270000Y-905000D02*
X-7190000Y-905000D01*
X-7270000Y-895000D02*
X-7270000Y-915000D01*
X-7190000Y-915000D02*
G75*
G02*
X-7270000Y-915000I-40000J0D01*
G01*
X-7190000Y-915000D02*
X-7190000Y-895000D01*
X-7190000Y-895000D02*
G75*
G03*
X-7270000Y-895000I-40000J0D01*
G01*
X-7230000Y-1315000D02*
X-7230000Y-1395000D01*
X-7270000Y-1355000D02*
X-7190000Y-1355000D01*
X-7270000Y-1345000D02*
X-7270000Y-1365000D01*
X-7190000Y-1365000D02*
G75*
G02*
X-7270000Y-1365000I-40000J0D01*
G01*
X-7190000Y-1365000D02*
X-7190000Y-1345000D01*
X-7190000Y-1345000D02*
G75*
G03*
X-7270000Y-1345000I-40000J0D01*
G01*
X-6980000Y-740000D02*
X-6980000Y-820000D01*
X-7020000Y-780000D02*
X-6940000Y-780000D01*
X-6990000Y-820000D02*
X-6970000Y-820000D01*
X-6970000Y-740000D02*
G75*
G02*
X-6970000Y-820000I0J-40000D01*
G01*
X-6970000Y-740000D02*
X-6990000Y-740000D01*
X-6990000Y-740000D02*
G75*
G03*
X-6990000Y-820000I0J-40000D01*
G01*
X-6980000Y-1440000D02*
X-6980000Y-1520000D01*
X-7020000Y-1480000D02*
X-6940000Y-1480000D01*
X-6990000Y-1520000D02*
X-6970000Y-1520000D01*
X-6970000Y-1440000D02*
G75*
G02*
X-6970000Y-1520000I0J-40000D01*
G01*
X-6970000Y-1440000D02*
X-6990000Y-1440000D01*
X-6990000Y-1440000D02*
G75*
G03*
X-6990000Y-1520000I0J-40000D01*
G01*
X-5061000Y-217000D02*
X-5061000Y-297000D01*
X-5101000Y-257000D02*
X-5021000Y-257000D01*
X-5061000Y-471000D02*
X-5061000Y-551000D01*
X-5101000Y-511000D02*
X-5021000Y-511000D01*
X-5061000Y-725000D02*
X-5061000Y-805000D01*
X-5101000Y-765000D02*
X-5021000Y-765000D01*
X-5061000Y-979000D02*
X-5061000Y-1059000D01*
X-5101000Y-1019000D02*
X-5021000Y-1019000D01*
X-5061000Y-1233000D02*
X-5061000Y-1313000D01*
X-5101000Y-1273000D02*
X-5021000Y-1273000D01*
X-4710000Y-355800D02*
X-4710000Y-435800D01*
X-4750000Y-395800D02*
X-4670000Y-395800D01*
X-3550000Y-355800D02*
X-3550000Y-435800D01*
X-3590000Y-395800D02*
X-3510000Y-395800D01*
X-1770000Y-202000D02*
X-1770000Y-282000D01*
X-1810000Y-242000D02*
X-1730000Y-242000D01*
X-1770000Y-3932000D02*
X-1770000Y-4012000D01*
X-1810000Y-3972000D02*
X-1730000Y-3972000D01*
X-1758800Y-1686000D02*
X-1758800Y-1766000D01*
X-1798800Y-1726000D02*
X-1718800Y-1726000D01*
X-1758800Y-1940000D02*
X-1758800Y-2020000D01*
X-1798800Y-1980000D02*
X-1718800Y-1980000D01*
X-1758800Y-2194000D02*
X-1758800Y-2274000D01*
X-1798800Y-2234000D02*
X-1718800Y-2234000D01*
X-1758800Y-2448000D02*
X-1758800Y-2528000D01*
X-1798800Y-2488000D02*
X-1718800Y-2488000D01*
X-230000Y-202000D02*
X-230000Y-282000D01*
X-270000Y-242000D02*
X-190000Y-242000D01*
X-230000Y-3929500D02*
X-230000Y-4009500D01*
X-270000Y-3969500D02*
X-190000Y-3969500D01*
X-4533644Y-1075356D02*
X-4533644Y-1004644D01*
X-4604356Y-1004644D01*
X-4604356Y-1075356D01*
X-4533644Y-1075356D01*
X-4394644Y-431156D02*
X-4394644Y-360444D01*
X-4465356Y-360444D01*
X-4465356Y-431156D01*
X-4394644Y-431156D01*
X-4279644Y-1075356D02*
X-4279644Y-1004644D01*
X-4350356Y-1004644D01*
X-4350356Y-1075356D01*
X-4279644Y-1075356D01*
X-4094644Y-431156D02*
X-4094644Y-360444D01*
X-4165356Y-360444D01*
X-4165356Y-431156D01*
X-4094644Y-431156D01*
X-3829644Y-1171356D02*
X-3829644Y-1100644D01*
X-3900356Y-1100644D01*
X-3900356Y-1171356D01*
X-3829644Y-1171356D01*
X-3829644Y-2695356D02*
X-3829644Y-2624644D01*
X-3900356Y-2624644D01*
X-3900356Y-2695356D01*
X-3829644Y-2695356D01*
X-3794644Y-431156D02*
X-3794644Y-360444D01*
X-3865356Y-360444D01*
X-3865356Y-431156D01*
X-3794644Y-431156D01*
X-3575644Y-1171356D02*
X-3575644Y-1100644D01*
X-3646356Y-1100644D01*
X-3646356Y-1171356D01*
X-3575644Y-1171356D01*
X-3575644Y-2695356D02*
X-3575644Y-2624644D01*
X-3646356Y-2624644D01*
X-3646356Y-2695356D01*
X-3575644Y-2695356D01*
X-3321644Y-1171356D02*
X-3321644Y-1100644D01*
X-3392356Y-1100644D01*
X-3392356Y-1171356D01*
X-3321644Y-1171356D01*
X-3321644Y-2695356D02*
X-3321644Y-2624644D01*
X-3392356Y-2624644D01*
X-3392356Y-2695356D01*
X-3321644Y-2695356D01*
X-3067644Y-1171356D02*
X-3067644Y-1100644D01*
X-3138356Y-1100644D01*
X-3138356Y-1171356D01*
X-3067644Y-1171356D01*
X-3067644Y-2695356D02*
X-3067644Y-2624644D01*
X-3138356Y-2624644D01*
X-3138356Y-2695356D01*
X-3067644Y-2695356D01*
X-2813644Y-1171356D02*
X-2813644Y-1100644D01*
X-2884356Y-1100644D01*
X-2884356Y-1171356D01*
X-2813644Y-1171356D01*
X-2813644Y-2695356D02*
X-2813644Y-2624644D01*
X-2884356Y-2624644D01*
X-2884356Y-2695356D01*
X-2813644Y-2695356D01*
X-2559644Y-1171356D02*
X-2559644Y-1100644D01*
X-2630356Y-1100644D01*
X-2630356Y-1171356D01*
X-2559644Y-1171356D01*
X-2559644Y-2695356D02*
X-2559644Y-2624644D01*
X-2630356Y-2624644D01*
X-2630356Y-2695356D01*
X-2559644Y-2695356D01*
X-2305644Y-1171356D02*
X-2305644Y-1100644D01*
X-2376356Y-1100644D01*
X-2376356Y-1171356D01*
X-2305644Y-1171356D01*
X-2305644Y-2695356D02*
X-2305644Y-2624644D01*
X-2376356Y-2624644D01*
X-2376356Y-2695356D01*
X-2305644Y-2695356D01*
D13*
X-5280000Y-3890000D02*
X-5220000Y-3830000D01*
X-5280000Y-3770000D01*
X-5340000Y-3830000D01*
X-5280000Y-3890000D01*
X-5026000Y-3890000D02*
X-4966000Y-3830000D01*
X-5026000Y-3770000D01*
X-5086000Y-3830000D01*
X-5026000Y-3890000D01*
X-4772000Y-3890000D02*
X-4712000Y-3830000D01*
X-4772000Y-3770000D01*
X-4832000Y-3830000D01*
X-4772000Y-3890000D01*
D10*
X-6055000Y-1975000D02*
X-5905000Y-2125000D01*
X-5905000Y-1975000D02*
X-6055000Y-2125000D01*
X-5905000Y-2050000D02*
G75*
G02*
X-6055000Y-2050000I-75000J0D01*
G01*
X-6055000Y-2050000D02*
G75*
G02*
X-5905000Y-2050000I75000J0D01*
G01*
X-6055000Y-2475000D02*
X-5905000Y-2625000D01*
X-5905000Y-2475000D02*
X-6055000Y-2625000D01*
X-5905000Y-2550000D02*
G75*
G02*
X-6055000Y-2550000I-75000J0D01*
G01*
X-6055000Y-2550000D02*
G75*
G02*
X-5905000Y-2550000I75000J0D01*
G01*
X-6055000Y-2975000D02*
X-5905000Y-3125000D01*
X-5905000Y-2975000D02*
X-6055000Y-3125000D01*
X-5905000Y-3050000D02*
G75*
G02*
X-6055000Y-3050000I-75000J0D01*
G01*
X-6055000Y-3050000D02*
G75*
G02*
X-5905000Y-3050000I75000J0D01*
G01*
X-6055000Y-3475000D02*
X-5905000Y-3625000D01*
X-5905000Y-3475000D02*
X-6055000Y-3625000D01*
X-5905000Y-3550000D02*
G75*
G02*
X-6055000Y-3550000I-75000J0D01*
G01*
X-6055000Y-3550000D02*
G75*
G02*
X-5905000Y-3550000I75000J0D01*
G01*
D14*
X-6925000Y-3695000D02*
X-6655000Y-3965000D01*
X-6655000Y-3695000D02*
X-6925000Y-3965000D01*
X-6790000Y-3695000D02*
X-6790000Y-3965000D01*
X-6925000Y-3830000D02*
X-6655000Y-3830000D01*
X-6740000Y-1600000D02*
X-6470000Y-1870000D01*
X-6470000Y-1600000D02*
X-6740000Y-1870000D01*
X-6605000Y-1600000D02*
X-6605000Y-1870000D01*
X-6740000Y-1735000D02*
X-6470000Y-1735000D01*
X-2635000Y-3015000D02*
X-2365000Y-3285000D01*
X-2365000Y-3015000D02*
X-2635000Y-3285000D01*
X-2500000Y-3015000D02*
X-2500000Y-3285000D01*
X-2635000Y-3150000D02*
X-2365000Y-3150000D01*
X-2348800Y-198000D02*
X-2078800Y-468000D01*
X-2078800Y-198000D02*
X-2348800Y-468000D01*
X-2213800Y-198000D02*
X-2213800Y-468000D01*
X-2348800Y-333000D02*
X-2078800Y-333000D01*
D11*
X-7166723Y-4518984D02*
X-7166723Y-4318984D01*
X-7166723Y-4318984D02*
X-7119104Y-4318984D01*
X-7119104Y-4318984D02*
X-7090533Y-4328508D01*
X-7090533Y-4328508D02*
X-7071485Y-4347555D01*
X-7071485Y-4347555D02*
X-7061961Y-4366603D01*
X-7061961Y-4366603D02*
X-7052437Y-4404698D01*
X-7052437Y-4404698D02*
X-7052437Y-4433270D01*
X-7052437Y-4433270D02*
X-7061961Y-4471365D01*
X-7061961Y-4471365D02*
X-7071485Y-4490412D01*
X-7071485Y-4490412D02*
X-7090533Y-4509460D01*
X-7090533Y-4509460D02*
X-7119104Y-4518984D01*
X-7119104Y-4518984D02*
X-7166723Y-4518984D01*
X-6966723Y-4518984D02*
X-6966723Y-4385650D01*
X-6966723Y-4423746D02*
X-6957199Y-4404698D01*
X-6957199Y-4404698D02*
X-6947675Y-4395174D01*
X-6947675Y-4395174D02*
X-6928628Y-4385650D01*
X-6928628Y-4385650D02*
X-6909580Y-4385650D01*
X-6842914Y-4518984D02*
X-6842914Y-4385650D01*
X-6842914Y-4318984D02*
X-6852437Y-4328508D01*
X-6852437Y-4328508D02*
X-6842914Y-4338031D01*
X-6842914Y-4338031D02*
X-6833390Y-4328508D01*
X-6833390Y-4328508D02*
X-6842914Y-4318984D01*
X-6842914Y-4318984D02*
X-6842914Y-4338031D01*
X-6719104Y-4518984D02*
X-6738152Y-4509460D01*
X-6738152Y-4509460D02*
X-6747675Y-4490412D01*
X-6747675Y-4490412D02*
X-6747675Y-4318984D01*
X-6614342Y-4518984D02*
X-6633390Y-4509460D01*
X-6633390Y-4509460D02*
X-6642914Y-4490412D01*
X-6642914Y-4490412D02*
X-6642914Y-4318984D01*
X-6385771Y-4518984D02*
X-6385771Y-4318984D01*
X-6385771Y-4318984D02*
X-6319104Y-4461841D01*
X-6319104Y-4461841D02*
X-6252437Y-4318984D01*
X-6252437Y-4318984D02*
X-6252437Y-4518984D01*
X-6071485Y-4518984D02*
X-6071485Y-4414222D01*
X-6071485Y-4414222D02*
X-6081009Y-4395174D01*
X-6081009Y-4395174D02*
X-6100056Y-4385650D01*
X-6100056Y-4385650D02*
X-6138152Y-4385650D01*
X-6138152Y-4385650D02*
X-6157199Y-4395174D01*
X-6071485Y-4509460D02*
X-6090533Y-4518984D01*
X-6090533Y-4518984D02*
X-6138152Y-4518984D01*
X-6138152Y-4518984D02*
X-6157199Y-4509460D01*
X-6157199Y-4509460D02*
X-6166723Y-4490412D01*
X-6166723Y-4490412D02*
X-6166723Y-4471365D01*
X-6166723Y-4471365D02*
X-6157199Y-4452317D01*
X-6157199Y-4452317D02*
X-6138152Y-4442793D01*
X-6138152Y-4442793D02*
X-6090533Y-4442793D01*
X-6090533Y-4442793D02*
X-6071485Y-4433270D01*
X-5976247Y-4385650D02*
X-5976247Y-4585650D01*
X-5976247Y-4395174D02*
X-5957199Y-4385650D01*
X-5957199Y-4385650D02*
X-5919104Y-4385650D01*
X-5919104Y-4385650D02*
X-5900056Y-4395174D01*
X-5900056Y-4395174D02*
X-5890533Y-4404698D01*
X-5890533Y-4404698D02*
X-5881009Y-4423746D01*
X-5881009Y-4423746D02*
X-5881009Y-4480889D01*
X-5881009Y-4480889D02*
X-5890533Y-4499936D01*
X-5890533Y-4499936D02*
X-5900056Y-4509460D01*
X-5900056Y-4509460D02*
X-5919104Y-4518984D01*
X-5919104Y-4518984D02*
X-5957199Y-4518984D01*
X-5957199Y-4518984D02*
X-5976247Y-4509460D01*
X-5795294Y-4499936D02*
X-5785771Y-4509460D01*
X-5785771Y-4509460D02*
X-5795294Y-4518984D01*
X-5795294Y-4518984D02*
X-5804818Y-4509460D01*
X-5804818Y-4509460D02*
X-5795294Y-4499936D01*
X-5795294Y-4499936D02*
X-5795294Y-4518984D01*
X-5795294Y-4395174D02*
X-5785771Y-4404698D01*
X-5785771Y-4404698D02*
X-5795294Y-4414222D01*
X-5795294Y-4414222D02*
X-5804818Y-4404698D01*
X-5804818Y-4404698D02*
X-5795294Y-4395174D01*
X-5795294Y-4395174D02*
X-5795294Y-4414222D01*
D12*
X-7477500Y-4822500D02*
X-7427500Y-4872500D01*
X-7427500Y-4822500D02*
X-7477500Y-4872500D01*
D11*
X-7128628Y-4738984D02*
X-7109580Y-4738984D01*
X-7109580Y-4738984D02*
X-7090533Y-4748508D01*
X-7090533Y-4748508D02*
X-7081009Y-4758031D01*
X-7081009Y-4758031D02*
X-7071485Y-4777079D01*
X-7071485Y-4777079D02*
X-7061961Y-4815174D01*
X-7061961Y-4815174D02*
X-7061961Y-4862793D01*
X-7061961Y-4862793D02*
X-7071485Y-4900889D01*
X-7071485Y-4900889D02*
X-7081009Y-4919936D01*
X-7081009Y-4919936D02*
X-7090533Y-4929460D01*
X-7090533Y-4929460D02*
X-7109580Y-4938984D01*
X-7109580Y-4938984D02*
X-7128628Y-4938984D01*
X-7128628Y-4938984D02*
X-7147675Y-4929460D01*
X-7147675Y-4929460D02*
X-7157199Y-4919936D01*
X-7157199Y-4919936D02*
X-7166723Y-4900889D01*
X-7166723Y-4900889D02*
X-7176247Y-4862793D01*
X-7176247Y-4862793D02*
X-7176247Y-4815174D01*
X-7176247Y-4815174D02*
X-7166723Y-4777079D01*
X-7166723Y-4777079D02*
X-7157199Y-4758031D01*
X-7157199Y-4758031D02*
X-7147675Y-4748508D01*
X-7147675Y-4748508D02*
X-7128628Y-4738984D01*
X-6976247Y-4919936D02*
X-6966723Y-4929460D01*
X-6966723Y-4929460D02*
X-6976247Y-4938984D01*
X-6976247Y-4938984D02*
X-6985771Y-4929460D01*
X-6985771Y-4929460D02*
X-6976247Y-4919936D01*
X-6976247Y-4919936D02*
X-6976247Y-4938984D01*
X-6785771Y-4738984D02*
X-6881009Y-4738984D01*
X-6881009Y-4738984D02*
X-6890533Y-4834222D01*
X-6890533Y-4834222D02*
X-6881009Y-4824698D01*
X-6881009Y-4824698D02*
X-6861961Y-4815174D01*
X-6861961Y-4815174D02*
X-6814342Y-4815174D01*
X-6814342Y-4815174D02*
X-6795294Y-4824698D01*
X-6795294Y-4824698D02*
X-6785771Y-4834222D01*
X-6785771Y-4834222D02*
X-6776247Y-4853270D01*
X-6776247Y-4853270D02*
X-6776247Y-4900889D01*
X-6776247Y-4900889D02*
X-6785771Y-4919936D01*
X-6785771Y-4919936D02*
X-6795294Y-4929460D01*
X-6795294Y-4929460D02*
X-6814342Y-4938984D01*
X-6814342Y-4938984D02*
X-6861961Y-4938984D01*
X-6861961Y-4938984D02*
X-6881009Y-4929460D01*
X-6881009Y-4929460D02*
X-6890533Y-4919936D01*
X-6652437Y-4738984D02*
X-6633390Y-4738984D01*
X-6633390Y-4738984D02*
X-6614342Y-4748508D01*
X-6614342Y-4748508D02*
X-6604818Y-4758031D01*
X-6604818Y-4758031D02*
X-6595294Y-4777079D01*
X-6595294Y-4777079D02*
X-6585771Y-4815174D01*
X-6585771Y-4815174D02*
X-6585771Y-4862793D01*
X-6585771Y-4862793D02*
X-6595294Y-4900889D01*
X-6595294Y-4900889D02*
X-6604818Y-4919936D01*
X-6604818Y-4919936D02*
X-6614342Y-4929460D01*
X-6614342Y-4929460D02*
X-6633390Y-4938984D01*
X-6633390Y-4938984D02*
X-6652437Y-4938984D01*
X-6652437Y-4938984D02*
X-6671485Y-4929460D01*
X-6671485Y-4929460D02*
X-6681009Y-4919936D01*
X-6681009Y-4919936D02*
X-6690533Y-4900889D01*
X-6690533Y-4900889D02*
X-6700056Y-4862793D01*
X-6700056Y-4862793D02*
X-6700056Y-4815174D01*
X-6700056Y-4815174D02*
X-6690533Y-4777079D01*
X-6690533Y-4777079D02*
X-6681009Y-4758031D01*
X-6681009Y-4758031D02*
X-6671485Y-4748508D01*
X-6671485Y-4748508D02*
X-6652437Y-4738984D01*
X-6461961Y-4738984D02*
X-6442913Y-4738984D01*
X-6442913Y-4738984D02*
X-6423866Y-4748508D01*
X-6423866Y-4748508D02*
X-6414342Y-4758031D01*
X-6414342Y-4758031D02*
X-6404818Y-4777079D01*
X-6404818Y-4777079D02*
X-6395294Y-4815174D01*
X-6395294Y-4815174D02*
X-6395294Y-4862793D01*
X-6395294Y-4862793D02*
X-6404818Y-4900889D01*
X-6404818Y-4900889D02*
X-6414342Y-4919936D01*
X-6414342Y-4919936D02*
X-6423866Y-4929460D01*
X-6423866Y-4929460D02*
X-6442913Y-4938984D01*
X-6442913Y-4938984D02*
X-6461961Y-4938984D01*
X-6461961Y-4938984D02*
X-6481009Y-4929460D01*
X-6481009Y-4929460D02*
X-6490533Y-4919936D01*
X-6490533Y-4919936D02*
X-6500056Y-4900889D01*
X-6500056Y-4900889D02*
X-6509580Y-4862793D01*
X-6509580Y-4862793D02*
X-6509580Y-4815174D01*
X-6509580Y-4815174D02*
X-6500056Y-4777079D01*
X-6500056Y-4777079D02*
X-6490533Y-4758031D01*
X-6490533Y-4758031D02*
X-6481009Y-4748508D01*
X-6481009Y-4748508D02*
X-6461961Y-4738984D01*
X-6309580Y-4938984D02*
X-6309580Y-4805650D01*
X-6309580Y-4824698D02*
X-6300056Y-4815174D01*
X-6300056Y-4815174D02*
X-6281009Y-4805650D01*
X-6281009Y-4805650D02*
X-6252437Y-4805650D01*
X-6252437Y-4805650D02*
X-6233390Y-4815174D01*
X-6233390Y-4815174D02*
X-6223866Y-4834222D01*
X-6223866Y-4834222D02*
X-6223866Y-4938984D01*
X-6223866Y-4834222D02*
X-6214342Y-4815174D01*
X-6214342Y-4815174D02*
X-6195294Y-4805650D01*
X-6195294Y-4805650D02*
X-6166723Y-4805650D01*
X-6166723Y-4805650D02*
X-6147675Y-4815174D01*
X-6147675Y-4815174D02*
X-6138152Y-4834222D01*
X-6138152Y-4834222D02*
X-6138152Y-4938984D01*
X-6042913Y-4938984D02*
X-6042913Y-4805650D01*
X-6042913Y-4824698D02*
X-6033390Y-4815174D01*
X-6033390Y-4815174D02*
X-6014342Y-4805650D01*
X-6014342Y-4805650D02*
X-5985771Y-4805650D01*
X-5985771Y-4805650D02*
X-5966723Y-4815174D01*
X-5966723Y-4815174D02*
X-5957199Y-4834222D01*
X-5957199Y-4834222D02*
X-5957199Y-4938984D01*
X-5957199Y-4834222D02*
X-5947675Y-4815174D01*
X-5947675Y-4815174D02*
X-5928628Y-4805650D01*
X-5928628Y-4805650D02*
X-5900056Y-4805650D01*
X-5900056Y-4805650D02*
X-5881009Y-4815174D01*
X-5881009Y-4815174D02*
X-5871485Y-4834222D01*
X-5871485Y-4834222D02*
X-5871485Y-4938984D01*
X-5481009Y-4729460D02*
X-5652437Y-4986603D01*
X-5223866Y-4738984D02*
X-5204818Y-4738984D01*
X-5204818Y-4738984D02*
X-5185771Y-4748508D01*
X-5185771Y-4748508D02*
X-5176247Y-4758031D01*
X-5176247Y-4758031D02*
X-5166723Y-4777079D01*
X-5166723Y-4777079D02*
X-5157199Y-4815174D01*
X-5157199Y-4815174D02*
X-5157199Y-4862793D01*
X-5157199Y-4862793D02*
X-5166723Y-4900889D01*
X-5166723Y-4900889D02*
X-5176247Y-4919936D01*
X-5176247Y-4919936D02*
X-5185771Y-4929460D01*
X-5185771Y-4929460D02*
X-5204818Y-4938984D01*
X-5204818Y-4938984D02*
X-5223866Y-4938984D01*
X-5223866Y-4938984D02*
X-5242913Y-4929460D01*
X-5242913Y-4929460D02*
X-5252437Y-4919936D01*
X-5252437Y-4919936D02*
X-5261961Y-4900889D01*
X-5261961Y-4900889D02*
X-5271485Y-4862793D01*
X-5271485Y-4862793D02*
X-5271485Y-4815174D01*
X-5271485Y-4815174D02*
X-5261961Y-4777079D01*
X-5261961Y-4777079D02*
X-5252437Y-4758031D01*
X-5252437Y-4758031D02*
X-5242913Y-4748508D01*
X-5242913Y-4748508D02*
X-5223866Y-4738984D01*
X-5071485Y-4919936D02*
X-5061961Y-4929460D01*
X-5061961Y-4929460D02*
X-5071485Y-4938984D01*
X-5071485Y-4938984D02*
X-5081009Y-4929460D01*
X-5081009Y-4929460D02*
X-5071485Y-4919936D01*
X-5071485Y-4919936D02*
X-5071485Y-4938984D01*
X-4938152Y-4738984D02*
X-4919104Y-4738984D01*
X-4919104Y-4738984D02*
X-4900056Y-4748508D01*
X-4900056Y-4748508D02*
X-4890532Y-4758031D01*
X-4890532Y-4758031D02*
X-4881009Y-4777079D01*
X-4881009Y-4777079D02*
X-4871485Y-4815174D01*
X-4871485Y-4815174D02*
X-4871485Y-4862793D01*
X-4871485Y-4862793D02*
X-4881009Y-4900889D01*
X-4881009Y-4900889D02*
X-4890532Y-4919936D01*
X-4890532Y-4919936D02*
X-4900056Y-4929460D01*
X-4900056Y-4929460D02*
X-4919104Y-4938984D01*
X-4919104Y-4938984D02*
X-4938152Y-4938984D01*
X-4938152Y-4938984D02*
X-4957199Y-4929460D01*
X-4957199Y-4929460D02*
X-4966723Y-4919936D01*
X-4966723Y-4919936D02*
X-4976247Y-4900889D01*
X-4976247Y-4900889D02*
X-4985771Y-4862793D01*
X-4985771Y-4862793D02*
X-4985771Y-4815174D01*
X-4985771Y-4815174D02*
X-4976247Y-4777079D01*
X-4976247Y-4777079D02*
X-4966723Y-4758031D01*
X-4966723Y-4758031D02*
X-4957199Y-4748508D01*
X-4957199Y-4748508D02*
X-4938152Y-4738984D01*
X-4681009Y-4938984D02*
X-4795294Y-4938984D01*
X-4738152Y-4938984D02*
X-4738152Y-4738984D01*
X-4738152Y-4738984D02*
X-4757199Y-4767555D01*
X-4757199Y-4767555D02*
X-4776247Y-4786603D01*
X-4776247Y-4786603D02*
X-4795294Y-4796127D01*
X-4585771Y-4938984D02*
X-4547675Y-4938984D01*
X-4547675Y-4938984D02*
X-4528628Y-4929460D01*
X-4528628Y-4929460D02*
X-4519104Y-4919936D01*
X-4519104Y-4919936D02*
X-4500056Y-4891365D01*
X-4500056Y-4891365D02*
X-4490532Y-4853270D01*
X-4490532Y-4853270D02*
X-4490532Y-4777079D01*
X-4490532Y-4777079D02*
X-4500056Y-4758031D01*
X-4500056Y-4758031D02*
X-4509580Y-4748508D01*
X-4509580Y-4748508D02*
X-4528628Y-4738984D01*
X-4528628Y-4738984D02*
X-4566723Y-4738984D01*
X-4566723Y-4738984D02*
X-4585771Y-4748508D01*
X-4585771Y-4748508D02*
X-4595294Y-4758031D01*
X-4595294Y-4758031D02*
X-4604818Y-4777079D01*
X-4604818Y-4777079D02*
X-4604818Y-4824698D01*
X-4604818Y-4824698D02*
X-4595294Y-4843746D01*
X-4595294Y-4843746D02*
X-4585771Y-4853270D01*
X-4585771Y-4853270D02*
X-4566723Y-4862793D01*
X-4566723Y-4862793D02*
X-4528628Y-4862793D01*
X-4528628Y-4862793D02*
X-4509580Y-4853270D01*
X-4509580Y-4853270D02*
X-4500056Y-4843746D01*
X-4500056Y-4843746D02*
X-4490532Y-4824698D01*
X-4423866Y-4738984D02*
X-4290532Y-4738984D01*
X-4290532Y-4738984D02*
X-4376247Y-4938984D01*
X-4223866Y-4738984D02*
X-4223866Y-4777079D01*
X-4147675Y-4738984D02*
X-4147675Y-4777079D01*
X-3852437Y-5015174D02*
X-3861961Y-5005650D01*
X-3861961Y-5005650D02*
X-3881008Y-4977079D01*
X-3881008Y-4977079D02*
X-3890532Y-4958031D01*
X-3890532Y-4958031D02*
X-3900056Y-4929460D01*
X-3900056Y-4929460D02*
X-3909580Y-4881841D01*
X-3909580Y-4881841D02*
X-3909580Y-4843746D01*
X-3909580Y-4843746D02*
X-3900056Y-4796127D01*
X-3900056Y-4796127D02*
X-3890532Y-4767555D01*
X-3890532Y-4767555D02*
X-3881008Y-4748508D01*
X-3881008Y-4748508D02*
X-3861961Y-4719936D01*
X-3861961Y-4719936D02*
X-3852437Y-4710412D01*
X-3795294Y-4738984D02*
X-3671485Y-4738984D01*
X-3671485Y-4738984D02*
X-3738151Y-4815174D01*
X-3738151Y-4815174D02*
X-3709580Y-4815174D01*
X-3709580Y-4815174D02*
X-3690532Y-4824698D01*
X-3690532Y-4824698D02*
X-3681008Y-4834222D01*
X-3681008Y-4834222D02*
X-3671485Y-4853270D01*
X-3671485Y-4853270D02*
X-3671485Y-4900889D01*
X-3671485Y-4900889D02*
X-3681008Y-4919936D01*
X-3681008Y-4919936D02*
X-3690532Y-4929460D01*
X-3690532Y-4929460D02*
X-3709580Y-4938984D01*
X-3709580Y-4938984D02*
X-3766723Y-4938984D01*
X-3766723Y-4938984D02*
X-3785770Y-4929460D01*
X-3785770Y-4929460D02*
X-3795294Y-4919936D01*
X-3595294Y-4758031D02*
X-3585770Y-4748508D01*
X-3585770Y-4748508D02*
X-3566723Y-4738984D01*
X-3566723Y-4738984D02*
X-3519104Y-4738984D01*
X-3519104Y-4738984D02*
X-3500056Y-4748508D01*
X-3500056Y-4748508D02*
X-3490532Y-4758031D01*
X-3490532Y-4758031D02*
X-3481008Y-4777079D01*
X-3481008Y-4777079D02*
X-3481008Y-4796127D01*
X-3481008Y-4796127D02*
X-3490532Y-4824698D01*
X-3490532Y-4824698D02*
X-3604818Y-4938984D01*
X-3604818Y-4938984D02*
X-3481008Y-4938984D01*
X-3242913Y-4938984D02*
X-3242913Y-4738984D01*
X-3157199Y-4938984D02*
X-3157199Y-4834222D01*
X-3157199Y-4834222D02*
X-3166723Y-4815174D01*
X-3166723Y-4815174D02*
X-3185770Y-4805650D01*
X-3185770Y-4805650D02*
X-3214342Y-4805650D01*
X-3214342Y-4805650D02*
X-3233389Y-4815174D01*
X-3233389Y-4815174D02*
X-3242913Y-4824698D01*
X-3033389Y-4938984D02*
X-3052437Y-4929460D01*
X-3052437Y-4929460D02*
X-3061961Y-4919936D01*
X-3061961Y-4919936D02*
X-3071485Y-4900889D01*
X-3071485Y-4900889D02*
X-3071485Y-4843746D01*
X-3071485Y-4843746D02*
X-3061961Y-4824698D01*
X-3061961Y-4824698D02*
X-3052437Y-4815174D01*
X-3052437Y-4815174D02*
X-3033389Y-4805650D01*
X-3033389Y-4805650D02*
X-3004818Y-4805650D01*
X-3004818Y-4805650D02*
X-2985770Y-4815174D01*
X-2985770Y-4815174D02*
X-2976246Y-4824698D01*
X-2976246Y-4824698D02*
X-2966723Y-4843746D01*
X-2966723Y-4843746D02*
X-2966723Y-4900889D01*
X-2966723Y-4900889D02*
X-2976246Y-4919936D01*
X-2976246Y-4919936D02*
X-2985770Y-4929460D01*
X-2985770Y-4929460D02*
X-3004818Y-4938984D01*
X-3004818Y-4938984D02*
X-3033389Y-4938984D01*
X-2852437Y-4938984D02*
X-2871485Y-4929460D01*
X-2871485Y-4929460D02*
X-2881008Y-4910412D01*
X-2881008Y-4910412D02*
X-2881008Y-4738984D01*
X-2700056Y-4929460D02*
X-2719104Y-4938984D01*
X-2719104Y-4938984D02*
X-2757199Y-4938984D01*
X-2757199Y-4938984D02*
X-2776247Y-4929460D01*
X-2776247Y-4929460D02*
X-2785770Y-4910412D01*
X-2785770Y-4910412D02*
X-2785770Y-4834222D01*
X-2785770Y-4834222D02*
X-2776247Y-4815174D01*
X-2776247Y-4815174D02*
X-2757199Y-4805650D01*
X-2757199Y-4805650D02*
X-2719104Y-4805650D01*
X-2719104Y-4805650D02*
X-2700056Y-4815174D01*
X-2700056Y-4815174D02*
X-2690532Y-4834222D01*
X-2690532Y-4834222D02*
X-2690532Y-4853270D01*
X-2690532Y-4853270D02*
X-2785770Y-4872317D01*
X-2614342Y-4929460D02*
X-2595294Y-4938984D01*
X-2595294Y-4938984D02*
X-2557199Y-4938984D01*
X-2557199Y-4938984D02*
X-2538151Y-4929460D01*
X-2538151Y-4929460D02*
X-2528627Y-4910412D01*
X-2528627Y-4910412D02*
X-2528627Y-4900889D01*
X-2528627Y-4900889D02*
X-2538151Y-4881841D01*
X-2538151Y-4881841D02*
X-2557199Y-4872317D01*
X-2557199Y-4872317D02*
X-2585770Y-4872317D01*
X-2585770Y-4872317D02*
X-2604818Y-4862793D01*
X-2604818Y-4862793D02*
X-2614342Y-4843746D01*
X-2614342Y-4843746D02*
X-2614342Y-4834222D01*
X-2614342Y-4834222D02*
X-2604818Y-4815174D01*
X-2604818Y-4815174D02*
X-2585770Y-4805650D01*
X-2585770Y-4805650D02*
X-2557199Y-4805650D01*
X-2557199Y-4805650D02*
X-2538151Y-4815174D01*
X-2461961Y-5015174D02*
X-2452437Y-5005650D01*
X-2452437Y-5005650D02*
X-2433389Y-4977079D01*
X-2433389Y-4977079D02*
X-2423866Y-4958031D01*
X-2423866Y-4958031D02*
X-2414342Y-4929460D01*
X-2414342Y-4929460D02*
X-2404818Y-4881841D01*
X-2404818Y-4881841D02*
X-2404818Y-4843746D01*
X-2404818Y-4843746D02*
X-2414342Y-4796127D01*
X-2414342Y-4796127D02*
X-2423866Y-4767555D01*
X-2423866Y-4767555D02*
X-2433389Y-4748508D01*
X-2433389Y-4748508D02*
X-2452437Y-4719936D01*
X-2452437Y-4719936D02*
X-2461961Y-4710412D01*
D12*
X-7427500Y-5111500D02*
G75*
G02*
X-7477500Y-5111500I-25000J0D01*
G01*
X-7477500Y-5111500D02*
G75*
G02*
X-7427500Y-5111500I25000J0D01*
G01*
D11*
X-7128628Y-5002984D02*
X-7109580Y-5002984D01*
X-7109580Y-5002984D02*
X-7090533Y-5012508D01*
X-7090533Y-5012508D02*
X-7081009Y-5022031D01*
X-7081009Y-5022031D02*
X-7071485Y-5041079D01*
X-7071485Y-5041079D02*
X-7061961Y-5079174D01*
X-7061961Y-5079174D02*
X-7061961Y-5126793D01*
X-7061961Y-5126793D02*
X-7071485Y-5164889D01*
X-7071485Y-5164889D02*
X-7081009Y-5183936D01*
X-7081009Y-5183936D02*
X-7090533Y-5193460D01*
X-7090533Y-5193460D02*
X-7109580Y-5202984D01*
X-7109580Y-5202984D02*
X-7128628Y-5202984D01*
X-7128628Y-5202984D02*
X-7147675Y-5193460D01*
X-7147675Y-5193460D02*
X-7157199Y-5183936D01*
X-7157199Y-5183936D02*
X-7166723Y-5164889D01*
X-7166723Y-5164889D02*
X-7176247Y-5126793D01*
X-7176247Y-5126793D02*
X-7176247Y-5079174D01*
X-7176247Y-5079174D02*
X-7166723Y-5041079D01*
X-7166723Y-5041079D02*
X-7157199Y-5022031D01*
X-7157199Y-5022031D02*
X-7147675Y-5012508D01*
X-7147675Y-5012508D02*
X-7128628Y-5002984D01*
X-6976247Y-5183936D02*
X-6966723Y-5193460D01*
X-6966723Y-5193460D02*
X-6976247Y-5202984D01*
X-6976247Y-5202984D02*
X-6985771Y-5193460D01*
X-6985771Y-5193460D02*
X-6976247Y-5183936D01*
X-6976247Y-5183936D02*
X-6976247Y-5202984D01*
X-6785771Y-5002984D02*
X-6881009Y-5002984D01*
X-6881009Y-5002984D02*
X-6890533Y-5098222D01*
X-6890533Y-5098222D02*
X-6881009Y-5088698D01*
X-6881009Y-5088698D02*
X-6861961Y-5079174D01*
X-6861961Y-5079174D02*
X-6814342Y-5079174D01*
X-6814342Y-5079174D02*
X-6795294Y-5088698D01*
X-6795294Y-5088698D02*
X-6785771Y-5098222D01*
X-6785771Y-5098222D02*
X-6776247Y-5117270D01*
X-6776247Y-5117270D02*
X-6776247Y-5164889D01*
X-6776247Y-5164889D02*
X-6785771Y-5183936D01*
X-6785771Y-5183936D02*
X-6795294Y-5193460D01*
X-6795294Y-5193460D02*
X-6814342Y-5202984D01*
X-6814342Y-5202984D02*
X-6861961Y-5202984D01*
X-6861961Y-5202984D02*
X-6881009Y-5193460D01*
X-6881009Y-5193460D02*
X-6890533Y-5183936D01*
X-6652437Y-5002984D02*
X-6633390Y-5002984D01*
X-6633390Y-5002984D02*
X-6614342Y-5012508D01*
X-6614342Y-5012508D02*
X-6604818Y-5022031D01*
X-6604818Y-5022031D02*
X-6595294Y-5041079D01*
X-6595294Y-5041079D02*
X-6585771Y-5079174D01*
X-6585771Y-5079174D02*
X-6585771Y-5126793D01*
X-6585771Y-5126793D02*
X-6595294Y-5164889D01*
X-6595294Y-5164889D02*
X-6604818Y-5183936D01*
X-6604818Y-5183936D02*
X-6614342Y-5193460D01*
X-6614342Y-5193460D02*
X-6633390Y-5202984D01*
X-6633390Y-5202984D02*
X-6652437Y-5202984D01*
X-6652437Y-5202984D02*
X-6671485Y-5193460D01*
X-6671485Y-5193460D02*
X-6681009Y-5183936D01*
X-6681009Y-5183936D02*
X-6690533Y-5164889D01*
X-6690533Y-5164889D02*
X-6700056Y-5126793D01*
X-6700056Y-5126793D02*
X-6700056Y-5079174D01*
X-6700056Y-5079174D02*
X-6690533Y-5041079D01*
X-6690533Y-5041079D02*
X-6681009Y-5022031D01*
X-6681009Y-5022031D02*
X-6671485Y-5012508D01*
X-6671485Y-5012508D02*
X-6652437Y-5002984D01*
X-6461961Y-5002984D02*
X-6442913Y-5002984D01*
X-6442913Y-5002984D02*
X-6423866Y-5012508D01*
X-6423866Y-5012508D02*
X-6414342Y-5022031D01*
X-6414342Y-5022031D02*
X-6404818Y-5041079D01*
X-6404818Y-5041079D02*
X-6395294Y-5079174D01*
X-6395294Y-5079174D02*
X-6395294Y-5126793D01*
X-6395294Y-5126793D02*
X-6404818Y-5164889D01*
X-6404818Y-5164889D02*
X-6414342Y-5183936D01*
X-6414342Y-5183936D02*
X-6423866Y-5193460D01*
X-6423866Y-5193460D02*
X-6442913Y-5202984D01*
X-6442913Y-5202984D02*
X-6461961Y-5202984D01*
X-6461961Y-5202984D02*
X-6481009Y-5193460D01*
X-6481009Y-5193460D02*
X-6490533Y-5183936D01*
X-6490533Y-5183936D02*
X-6500056Y-5164889D01*
X-6500056Y-5164889D02*
X-6509580Y-5126793D01*
X-6509580Y-5126793D02*
X-6509580Y-5079174D01*
X-6509580Y-5079174D02*
X-6500056Y-5041079D01*
X-6500056Y-5041079D02*
X-6490533Y-5022031D01*
X-6490533Y-5022031D02*
X-6481009Y-5012508D01*
X-6481009Y-5012508D02*
X-6461961Y-5002984D01*
X-6309580Y-5202984D02*
X-6309580Y-5069650D01*
X-6309580Y-5088698D02*
X-6300056Y-5079174D01*
X-6300056Y-5079174D02*
X-6281009Y-5069650D01*
X-6281009Y-5069650D02*
X-6252437Y-5069650D01*
X-6252437Y-5069650D02*
X-6233390Y-5079174D01*
X-6233390Y-5079174D02*
X-6223866Y-5098222D01*
X-6223866Y-5098222D02*
X-6223866Y-5202984D01*
X-6223866Y-5098222D02*
X-6214342Y-5079174D01*
X-6214342Y-5079174D02*
X-6195294Y-5069650D01*
X-6195294Y-5069650D02*
X-6166723Y-5069650D01*
X-6166723Y-5069650D02*
X-6147675Y-5079174D01*
X-6147675Y-5079174D02*
X-6138152Y-5098222D01*
X-6138152Y-5098222D02*
X-6138152Y-5202984D01*
X-6042913Y-5202984D02*
X-6042913Y-5069650D01*
X-6042913Y-5088698D02*
X-6033390Y-5079174D01*
X-6033390Y-5079174D02*
X-6014342Y-5069650D01*
X-6014342Y-5069650D02*
X-5985771Y-5069650D01*
X-5985771Y-5069650D02*
X-5966723Y-5079174D01*
X-5966723Y-5079174D02*
X-5957199Y-5098222D01*
X-5957199Y-5098222D02*
X-5957199Y-5202984D01*
X-5957199Y-5098222D02*
X-5947675Y-5079174D01*
X-5947675Y-5079174D02*
X-5928628Y-5069650D01*
X-5928628Y-5069650D02*
X-5900056Y-5069650D01*
X-5900056Y-5069650D02*
X-5881009Y-5079174D01*
X-5881009Y-5079174D02*
X-5871485Y-5098222D01*
X-5871485Y-5098222D02*
X-5871485Y-5202984D01*
X-5481009Y-4993460D02*
X-5652437Y-5250603D01*
X-5223866Y-5002984D02*
X-5204818Y-5002984D01*
X-5204818Y-5002984D02*
X-5185771Y-5012508D01*
X-5185771Y-5012508D02*
X-5176247Y-5022031D01*
X-5176247Y-5022031D02*
X-5166723Y-5041079D01*
X-5166723Y-5041079D02*
X-5157199Y-5079174D01*
X-5157199Y-5079174D02*
X-5157199Y-5126793D01*
X-5157199Y-5126793D02*
X-5166723Y-5164889D01*
X-5166723Y-5164889D02*
X-5176247Y-5183936D01*
X-5176247Y-5183936D02*
X-5185771Y-5193460D01*
X-5185771Y-5193460D02*
X-5204818Y-5202984D01*
X-5204818Y-5202984D02*
X-5223866Y-5202984D01*
X-5223866Y-5202984D02*
X-5242913Y-5193460D01*
X-5242913Y-5193460D02*
X-5252437Y-5183936D01*
X-5252437Y-5183936D02*
X-5261961Y-5164889D01*
X-5261961Y-5164889D02*
X-5271485Y-5126793D01*
X-5271485Y-5126793D02*
X-5271485Y-5079174D01*
X-5271485Y-5079174D02*
X-5261961Y-5041079D01*
X-5261961Y-5041079D02*
X-5252437Y-5022031D01*
X-5252437Y-5022031D02*
X-5242913Y-5012508D01*
X-5242913Y-5012508D02*
X-5223866Y-5002984D01*
X-5071485Y-5183936D02*
X-5061961Y-5193460D01*
X-5061961Y-5193460D02*
X-5071485Y-5202984D01*
X-5071485Y-5202984D02*
X-5081009Y-5193460D01*
X-5081009Y-5193460D02*
X-5071485Y-5183936D01*
X-5071485Y-5183936D02*
X-5071485Y-5202984D01*
X-4938152Y-5002984D02*
X-4919104Y-5002984D01*
X-4919104Y-5002984D02*
X-4900056Y-5012508D01*
X-4900056Y-5012508D02*
X-4890532Y-5022031D01*
X-4890532Y-5022031D02*
X-4881009Y-5041079D01*
X-4881009Y-5041079D02*
X-4871485Y-5079174D01*
X-4871485Y-5079174D02*
X-4871485Y-5126793D01*
X-4871485Y-5126793D02*
X-4881009Y-5164889D01*
X-4881009Y-5164889D02*
X-4890532Y-5183936D01*
X-4890532Y-5183936D02*
X-4900056Y-5193460D01*
X-4900056Y-5193460D02*
X-4919104Y-5202984D01*
X-4919104Y-5202984D02*
X-4938152Y-5202984D01*
X-4938152Y-5202984D02*
X-4957199Y-5193460D01*
X-4957199Y-5193460D02*
X-4966723Y-5183936D01*
X-4966723Y-5183936D02*
X-4976247Y-5164889D01*
X-4976247Y-5164889D02*
X-4985771Y-5126793D01*
X-4985771Y-5126793D02*
X-4985771Y-5079174D01*
X-4985771Y-5079174D02*
X-4976247Y-5041079D01*
X-4976247Y-5041079D02*
X-4966723Y-5022031D01*
X-4966723Y-5022031D02*
X-4957199Y-5012508D01*
X-4957199Y-5012508D02*
X-4938152Y-5002984D01*
X-4681009Y-5202984D02*
X-4795294Y-5202984D01*
X-4738152Y-5202984D02*
X-4738152Y-5002984D01*
X-4738152Y-5002984D02*
X-4757199Y-5031555D01*
X-4757199Y-5031555D02*
X-4776247Y-5050603D01*
X-4776247Y-5050603D02*
X-4795294Y-5060127D01*
X-4585771Y-5202984D02*
X-4547675Y-5202984D01*
X-4547675Y-5202984D02*
X-4528628Y-5193460D01*
X-4528628Y-5193460D02*
X-4519104Y-5183936D01*
X-4519104Y-5183936D02*
X-4500056Y-5155365D01*
X-4500056Y-5155365D02*
X-4490532Y-5117270D01*
X-4490532Y-5117270D02*
X-4490532Y-5041079D01*
X-4490532Y-5041079D02*
X-4500056Y-5022031D01*
X-4500056Y-5022031D02*
X-4509580Y-5012508D01*
X-4509580Y-5012508D02*
X-4528628Y-5002984D01*
X-4528628Y-5002984D02*
X-4566723Y-5002984D01*
X-4566723Y-5002984D02*
X-4585771Y-5012508D01*
X-4585771Y-5012508D02*
X-4595294Y-5022031D01*
X-4595294Y-5022031D02*
X-4604818Y-5041079D01*
X-4604818Y-5041079D02*
X-4604818Y-5088698D01*
X-4604818Y-5088698D02*
X-4595294Y-5107746D01*
X-4595294Y-5107746D02*
X-4585771Y-5117270D01*
X-4585771Y-5117270D02*
X-4566723Y-5126793D01*
X-4566723Y-5126793D02*
X-4528628Y-5126793D01*
X-4528628Y-5126793D02*
X-4509580Y-5117270D01*
X-4509580Y-5117270D02*
X-4500056Y-5107746D01*
X-4500056Y-5107746D02*
X-4490532Y-5088698D01*
X-4423866Y-5002984D02*
X-4290532Y-5002984D01*
X-4290532Y-5002984D02*
X-4376247Y-5202984D01*
X-4223866Y-5002984D02*
X-4223866Y-5041079D01*
X-4147675Y-5002984D02*
X-4147675Y-5041079D01*
X-3852437Y-5279174D02*
X-3861961Y-5269650D01*
X-3861961Y-5269650D02*
X-3881008Y-5241079D01*
X-3881008Y-5241079D02*
X-3890532Y-5222031D01*
X-3890532Y-5222031D02*
X-3900056Y-5193460D01*
X-3900056Y-5193460D02*
X-3909580Y-5145841D01*
X-3909580Y-5145841D02*
X-3909580Y-5107746D01*
X-3909580Y-5107746D02*
X-3900056Y-5060127D01*
X-3900056Y-5060127D02*
X-3890532Y-5031555D01*
X-3890532Y-5031555D02*
X-3881008Y-5012508D01*
X-3881008Y-5012508D02*
X-3861961Y-4983936D01*
X-3861961Y-4983936D02*
X-3852437Y-4974412D01*
X-3738151Y-5002984D02*
X-3719104Y-5002984D01*
X-3719104Y-5002984D02*
X-3700056Y-5012508D01*
X-3700056Y-5012508D02*
X-3690532Y-5022031D01*
X-3690532Y-5022031D02*
X-3681008Y-5041079D01*
X-3681008Y-5041079D02*
X-3671485Y-5079174D01*
X-3671485Y-5079174D02*
X-3671485Y-5126793D01*
X-3671485Y-5126793D02*
X-3681008Y-5164889D01*
X-3681008Y-5164889D02*
X-3690532Y-5183936D01*
X-3690532Y-5183936D02*
X-3700056Y-5193460D01*
X-3700056Y-5193460D02*
X-3719104Y-5202984D01*
X-3719104Y-5202984D02*
X-3738151Y-5202984D01*
X-3738151Y-5202984D02*
X-3757199Y-5193460D01*
X-3757199Y-5193460D02*
X-3766723Y-5183936D01*
X-3766723Y-5183936D02*
X-3776247Y-5164889D01*
X-3776247Y-5164889D02*
X-3785770Y-5126793D01*
X-3785770Y-5126793D02*
X-3785770Y-5079174D01*
X-3785770Y-5079174D02*
X-3776247Y-5041079D01*
X-3776247Y-5041079D02*
X-3766723Y-5022031D01*
X-3766723Y-5022031D02*
X-3757199Y-5012508D01*
X-3757199Y-5012508D02*
X-3738151Y-5002984D01*
X-3433389Y-5202984D02*
X-3433389Y-5002984D01*
X-3347675Y-5202984D02*
X-3347675Y-5098222D01*
X-3347675Y-5098222D02*
X-3357199Y-5079174D01*
X-3357199Y-5079174D02*
X-3376246Y-5069650D01*
X-3376246Y-5069650D02*
X-3404818Y-5069650D01*
X-3404818Y-5069650D02*
X-3423866Y-5079174D01*
X-3423866Y-5079174D02*
X-3433389Y-5088698D01*
X-3223866Y-5202984D02*
X-3242913Y-5193460D01*
X-3242913Y-5193460D02*
X-3252437Y-5183936D01*
X-3252437Y-5183936D02*
X-3261961Y-5164889D01*
X-3261961Y-5164889D02*
X-3261961Y-5107746D01*
X-3261961Y-5107746D02*
X-3252437Y-5088698D01*
X-3252437Y-5088698D02*
X-3242913Y-5079174D01*
X-3242913Y-5079174D02*
X-3223866Y-5069650D01*
X-3223866Y-5069650D02*
X-3195294Y-5069650D01*
X-3195294Y-5069650D02*
X-3176246Y-5079174D01*
X-3176246Y-5079174D02*
X-3166723Y-5088698D01*
X-3166723Y-5088698D02*
X-3157199Y-5107746D01*
X-3157199Y-5107746D02*
X-3157199Y-5164889D01*
X-3157199Y-5164889D02*
X-3166723Y-5183936D01*
X-3166723Y-5183936D02*
X-3176246Y-5193460D01*
X-3176246Y-5193460D02*
X-3195294Y-5202984D01*
X-3195294Y-5202984D02*
X-3223866Y-5202984D01*
X-3042913Y-5202984D02*
X-3061961Y-5193460D01*
X-3061961Y-5193460D02*
X-3071485Y-5174412D01*
X-3071485Y-5174412D02*
X-3071485Y-5002984D01*
X-2890532Y-5193460D02*
X-2909580Y-5202984D01*
X-2909580Y-5202984D02*
X-2947675Y-5202984D01*
X-2947675Y-5202984D02*
X-2966723Y-5193460D01*
X-2966723Y-5193460D02*
X-2976246Y-5174412D01*
X-2976246Y-5174412D02*
X-2976246Y-5098222D01*
X-2976246Y-5098222D02*
X-2966723Y-5079174D01*
X-2966723Y-5079174D02*
X-2947675Y-5069650D01*
X-2947675Y-5069650D02*
X-2909580Y-5069650D01*
X-2909580Y-5069650D02*
X-2890532Y-5079174D01*
X-2890532Y-5079174D02*
X-2881008Y-5098222D01*
X-2881008Y-5098222D02*
X-2881008Y-5117270D01*
X-2881008Y-5117270D02*
X-2976246Y-5136317D01*
X-2804818Y-5193460D02*
X-2785770Y-5202984D01*
X-2785770Y-5202984D02*
X-2747675Y-5202984D01*
X-2747675Y-5202984D02*
X-2728627Y-5193460D01*
X-2728627Y-5193460D02*
X-2719104Y-5174412D01*
X-2719104Y-5174412D02*
X-2719104Y-5164889D01*
X-2719104Y-5164889D02*
X-2728627Y-5145841D01*
X-2728627Y-5145841D02*
X-2747675Y-5136317D01*
X-2747675Y-5136317D02*
X-2776247Y-5136317D01*
X-2776247Y-5136317D02*
X-2795294Y-5126793D01*
X-2795294Y-5126793D02*
X-2804818Y-5107746D01*
X-2804818Y-5107746D02*
X-2804818Y-5098222D01*
X-2804818Y-5098222D02*
X-2795294Y-5079174D01*
X-2795294Y-5079174D02*
X-2776247Y-5069650D01*
X-2776247Y-5069650D02*
X-2747675Y-5069650D01*
X-2747675Y-5069650D02*
X-2728627Y-5079174D01*
X-2481008Y-5126793D02*
X-2328627Y-5126793D01*
X-2404818Y-5202984D02*
X-2404818Y-5050603D01*
X-2052437Y-5088698D02*
X-2071484Y-5079174D01*
X-2071484Y-5079174D02*
X-2081008Y-5069650D01*
X-2081008Y-5069650D02*
X-2090532Y-5050603D01*
X-2090532Y-5050603D02*
X-2090532Y-5041079D01*
X-2090532Y-5041079D02*
X-2081008Y-5022031D01*
X-2081008Y-5022031D02*
X-2071484Y-5012508D01*
X-2071484Y-5012508D02*
X-2052437Y-5002984D01*
X-2052437Y-5002984D02*
X-2014342Y-5002984D01*
X-2014342Y-5002984D02*
X-1995294Y-5012508D01*
X-1995294Y-5012508D02*
X-1985770Y-5022031D01*
X-1985770Y-5022031D02*
X-1976246Y-5041079D01*
X-1976246Y-5041079D02*
X-1976246Y-5050603D01*
X-1976246Y-5050603D02*
X-1985770Y-5069650D01*
X-1985770Y-5069650D02*
X-1995294Y-5079174D01*
X-1995294Y-5079174D02*
X-2014342Y-5088698D01*
X-2014342Y-5088698D02*
X-2052437Y-5088698D01*
X-2052437Y-5088698D02*
X-2071484Y-5098222D01*
X-2071484Y-5098222D02*
X-2081008Y-5107746D01*
X-2081008Y-5107746D02*
X-2090532Y-5126793D01*
X-2090532Y-5126793D02*
X-2090532Y-5164889D01*
X-2090532Y-5164889D02*
X-2081008Y-5183936D01*
X-2081008Y-5183936D02*
X-2071484Y-5193460D01*
X-2071484Y-5193460D02*
X-2052437Y-5202984D01*
X-2052437Y-5202984D02*
X-2014342Y-5202984D01*
X-2014342Y-5202984D02*
X-1995294Y-5193460D01*
X-1995294Y-5193460D02*
X-1985770Y-5183936D01*
X-1985770Y-5183936D02*
X-1976246Y-5164889D01*
X-1976246Y-5164889D02*
X-1976246Y-5126793D01*
X-1976246Y-5126793D02*
X-1985770Y-5107746D01*
X-1985770Y-5107746D02*
X-1995294Y-5098222D01*
X-1995294Y-5098222D02*
X-2014342Y-5088698D01*
X-1747675Y-5193460D02*
X-1728627Y-5202984D01*
X-1728627Y-5202984D02*
X-1690532Y-5202984D01*
X-1690532Y-5202984D02*
X-1671484Y-5193460D01*
X-1671484Y-5193460D02*
X-1661961Y-5174412D01*
X-1661961Y-5174412D02*
X-1661961Y-5164889D01*
X-1661961Y-5164889D02*
X-1671484Y-5145841D01*
X-1671484Y-5145841D02*
X-1690532Y-5136317D01*
X-1690532Y-5136317D02*
X-1719103Y-5136317D01*
X-1719103Y-5136317D02*
X-1738151Y-5126793D01*
X-1738151Y-5126793D02*
X-1747675Y-5107746D01*
X-1747675Y-5107746D02*
X-1747675Y-5098222D01*
X-1747675Y-5098222D02*
X-1738151Y-5079174D01*
X-1738151Y-5079174D02*
X-1719103Y-5069650D01*
X-1719103Y-5069650D02*
X-1690532Y-5069650D01*
X-1690532Y-5069650D02*
X-1671484Y-5079174D01*
X-1547675Y-5202984D02*
X-1566722Y-5193460D01*
X-1566722Y-5193460D02*
X-1576246Y-5174412D01*
X-1576246Y-5174412D02*
X-1576246Y-5002984D01*
X-1442913Y-5202984D02*
X-1461961Y-5193460D01*
X-1461961Y-5193460D02*
X-1471484Y-5183936D01*
X-1471484Y-5183936D02*
X-1481008Y-5164889D01*
X-1481008Y-5164889D02*
X-1481008Y-5107746D01*
X-1481008Y-5107746D02*
X-1471484Y-5088698D01*
X-1471484Y-5088698D02*
X-1461961Y-5079174D01*
X-1461961Y-5079174D02*
X-1442913Y-5069650D01*
X-1442913Y-5069650D02*
X-1414341Y-5069650D01*
X-1414341Y-5069650D02*
X-1395294Y-5079174D01*
X-1395294Y-5079174D02*
X-1385770Y-5088698D01*
X-1385770Y-5088698D02*
X-1376246Y-5107746D01*
X-1376246Y-5107746D02*
X-1376246Y-5164889D01*
X-1376246Y-5164889D02*
X-1385770Y-5183936D01*
X-1385770Y-5183936D02*
X-1395294Y-5193460D01*
X-1395294Y-5193460D02*
X-1414341Y-5202984D01*
X-1414341Y-5202984D02*
X-1442913Y-5202984D01*
X-1319103Y-5069650D02*
X-1242913Y-5069650D01*
X-1290532Y-5002984D02*
X-1290532Y-5174412D01*
X-1290532Y-5174412D02*
X-1281008Y-5193460D01*
X-1281008Y-5193460D02*
X-1261961Y-5202984D01*
X-1261961Y-5202984D02*
X-1242913Y-5202984D01*
X-1185770Y-5193460D02*
X-1166723Y-5202984D01*
X-1166723Y-5202984D02*
X-1128627Y-5202984D01*
X-1128627Y-5202984D02*
X-1109580Y-5193460D01*
X-1109580Y-5193460D02*
X-1100056Y-5174412D01*
X-1100056Y-5174412D02*
X-1100056Y-5164889D01*
X-1100056Y-5164889D02*
X-1109580Y-5145841D01*
X-1109580Y-5145841D02*
X-1128627Y-5136317D01*
X-1128627Y-5136317D02*
X-1157199Y-5136317D01*
X-1157199Y-5136317D02*
X-1176246Y-5126793D01*
X-1176246Y-5126793D02*
X-1185770Y-5107746D01*
X-1185770Y-5107746D02*
X-1185770Y-5098222D01*
X-1185770Y-5098222D02*
X-1176246Y-5079174D01*
X-1176246Y-5079174D02*
X-1157199Y-5069650D01*
X-1157199Y-5069650D02*
X-1128627Y-5069650D01*
X-1128627Y-5069650D02*
X-1109580Y-5079174D01*
X-1033389Y-5279174D02*
X-1023865Y-5269650D01*
X-1023865Y-5269650D02*
X-1004818Y-5241079D01*
X-1004818Y-5241079D02*
X-995294Y-5222031D01*
X-995294Y-5222031D02*
X-985770Y-5193460D01*
X-985770Y-5193460D02*
X-976246Y-5145841D01*
X-976246Y-5145841D02*
X-976246Y-5107746D01*
X-976246Y-5107746D02*
X-985770Y-5060127D01*
X-985770Y-5060127D02*
X-995294Y-5031555D01*
X-995294Y-5031555D02*
X-1004818Y-5012508D01*
X-1004818Y-5012508D02*
X-1023865Y-4983936D01*
X-1023865Y-4983936D02*
X-1033389Y-4974412D01*
D12*
X-7467500Y-5335500D02*
X-7467500Y-5415500D01*
X-7507500Y-5375500D02*
X-7427500Y-5375500D01*
D11*
X-7128628Y-5266984D02*
X-7109580Y-5266984D01*
X-7109580Y-5266984D02*
X-7090533Y-5276508D01*
X-7090533Y-5276508D02*
X-7081009Y-5286031D01*
X-7081009Y-5286031D02*
X-7071485Y-5305079D01*
X-7071485Y-5305079D02*
X-7061961Y-5343174D01*
X-7061961Y-5343174D02*
X-7061961Y-5390793D01*
X-7061961Y-5390793D02*
X-7071485Y-5428889D01*
X-7071485Y-5428889D02*
X-7081009Y-5447936D01*
X-7081009Y-5447936D02*
X-7090533Y-5457460D01*
X-7090533Y-5457460D02*
X-7109580Y-5466984D01*
X-7109580Y-5466984D02*
X-7128628Y-5466984D01*
X-7128628Y-5466984D02*
X-7147675Y-5457460D01*
X-7147675Y-5457460D02*
X-7157199Y-5447936D01*
X-7157199Y-5447936D02*
X-7166723Y-5428889D01*
X-7166723Y-5428889D02*
X-7176247Y-5390793D01*
X-7176247Y-5390793D02*
X-7176247Y-5343174D01*
X-7176247Y-5343174D02*
X-7166723Y-5305079D01*
X-7166723Y-5305079D02*
X-7157199Y-5286031D01*
X-7157199Y-5286031D02*
X-7147675Y-5276508D01*
X-7147675Y-5276508D02*
X-7128628Y-5266984D01*
X-6976247Y-5447936D02*
X-6966723Y-5457460D01*
X-6966723Y-5457460D02*
X-6976247Y-5466984D01*
X-6976247Y-5466984D02*
X-6985771Y-5457460D01*
X-6985771Y-5457460D02*
X-6976247Y-5447936D01*
X-6976247Y-5447936D02*
X-6976247Y-5466984D01*
X-6852437Y-5352698D02*
X-6871485Y-5343174D01*
X-6871485Y-5343174D02*
X-6881009Y-5333650D01*
X-6881009Y-5333650D02*
X-6890533Y-5314603D01*
X-6890533Y-5314603D02*
X-6890533Y-5305079D01*
X-6890533Y-5305079D02*
X-6881009Y-5286031D01*
X-6881009Y-5286031D02*
X-6871485Y-5276508D01*
X-6871485Y-5276508D02*
X-6852437Y-5266984D01*
X-6852437Y-5266984D02*
X-6814342Y-5266984D01*
X-6814342Y-5266984D02*
X-6795294Y-5276508D01*
X-6795294Y-5276508D02*
X-6785771Y-5286031D01*
X-6785771Y-5286031D02*
X-6776247Y-5305079D01*
X-6776247Y-5305079D02*
X-6776247Y-5314603D01*
X-6776247Y-5314603D02*
X-6785771Y-5333650D01*
X-6785771Y-5333650D02*
X-6795294Y-5343174D01*
X-6795294Y-5343174D02*
X-6814342Y-5352698D01*
X-6814342Y-5352698D02*
X-6852437Y-5352698D01*
X-6852437Y-5352698D02*
X-6871485Y-5362222D01*
X-6871485Y-5362222D02*
X-6881009Y-5371746D01*
X-6881009Y-5371746D02*
X-6890533Y-5390793D01*
X-6890533Y-5390793D02*
X-6890533Y-5428889D01*
X-6890533Y-5428889D02*
X-6881009Y-5447936D01*
X-6881009Y-5447936D02*
X-6871485Y-5457460D01*
X-6871485Y-5457460D02*
X-6852437Y-5466984D01*
X-6852437Y-5466984D02*
X-6814342Y-5466984D01*
X-6814342Y-5466984D02*
X-6795294Y-5457460D01*
X-6795294Y-5457460D02*
X-6785771Y-5447936D01*
X-6785771Y-5447936D02*
X-6776247Y-5428889D01*
X-6776247Y-5428889D02*
X-6776247Y-5390793D01*
X-6776247Y-5390793D02*
X-6785771Y-5371746D01*
X-6785771Y-5371746D02*
X-6795294Y-5362222D01*
X-6795294Y-5362222D02*
X-6814342Y-5352698D01*
X-6652437Y-5266984D02*
X-6633390Y-5266984D01*
X-6633390Y-5266984D02*
X-6614342Y-5276508D01*
X-6614342Y-5276508D02*
X-6604818Y-5286031D01*
X-6604818Y-5286031D02*
X-6595294Y-5305079D01*
X-6595294Y-5305079D02*
X-6585771Y-5343174D01*
X-6585771Y-5343174D02*
X-6585771Y-5390793D01*
X-6585771Y-5390793D02*
X-6595294Y-5428889D01*
X-6595294Y-5428889D02*
X-6604818Y-5447936D01*
X-6604818Y-5447936D02*
X-6614342Y-5457460D01*
X-6614342Y-5457460D02*
X-6633390Y-5466984D01*
X-6633390Y-5466984D02*
X-6652437Y-5466984D01*
X-6652437Y-5466984D02*
X-6671485Y-5457460D01*
X-6671485Y-5457460D02*
X-6681009Y-5447936D01*
X-6681009Y-5447936D02*
X-6690533Y-5428889D01*
X-6690533Y-5428889D02*
X-6700056Y-5390793D01*
X-6700056Y-5390793D02*
X-6700056Y-5343174D01*
X-6700056Y-5343174D02*
X-6690533Y-5305079D01*
X-6690533Y-5305079D02*
X-6681009Y-5286031D01*
X-6681009Y-5286031D02*
X-6671485Y-5276508D01*
X-6671485Y-5276508D02*
X-6652437Y-5266984D01*
X-6461961Y-5266984D02*
X-6442913Y-5266984D01*
X-6442913Y-5266984D02*
X-6423866Y-5276508D01*
X-6423866Y-5276508D02*
X-6414342Y-5286031D01*
X-6414342Y-5286031D02*
X-6404818Y-5305079D01*
X-6404818Y-5305079D02*
X-6395294Y-5343174D01*
X-6395294Y-5343174D02*
X-6395294Y-5390793D01*
X-6395294Y-5390793D02*
X-6404818Y-5428889D01*
X-6404818Y-5428889D02*
X-6414342Y-5447936D01*
X-6414342Y-5447936D02*
X-6423866Y-5457460D01*
X-6423866Y-5457460D02*
X-6442913Y-5466984D01*
X-6442913Y-5466984D02*
X-6461961Y-5466984D01*
X-6461961Y-5466984D02*
X-6481009Y-5457460D01*
X-6481009Y-5457460D02*
X-6490533Y-5447936D01*
X-6490533Y-5447936D02*
X-6500056Y-5428889D01*
X-6500056Y-5428889D02*
X-6509580Y-5390793D01*
X-6509580Y-5390793D02*
X-6509580Y-5343174D01*
X-6509580Y-5343174D02*
X-6500056Y-5305079D01*
X-6500056Y-5305079D02*
X-6490533Y-5286031D01*
X-6490533Y-5286031D02*
X-6481009Y-5276508D01*
X-6481009Y-5276508D02*
X-6461961Y-5266984D01*
X-6309580Y-5466984D02*
X-6309580Y-5333650D01*
X-6309580Y-5352698D02*
X-6300056Y-5343174D01*
X-6300056Y-5343174D02*
X-6281009Y-5333650D01*
X-6281009Y-5333650D02*
X-6252437Y-5333650D01*
X-6252437Y-5333650D02*
X-6233390Y-5343174D01*
X-6233390Y-5343174D02*
X-6223866Y-5362222D01*
X-6223866Y-5362222D02*
X-6223866Y-5466984D01*
X-6223866Y-5362222D02*
X-6214342Y-5343174D01*
X-6214342Y-5343174D02*
X-6195294Y-5333650D01*
X-6195294Y-5333650D02*
X-6166723Y-5333650D01*
X-6166723Y-5333650D02*
X-6147675Y-5343174D01*
X-6147675Y-5343174D02*
X-6138152Y-5362222D01*
X-6138152Y-5362222D02*
X-6138152Y-5466984D01*
X-6042913Y-5466984D02*
X-6042913Y-5333650D01*
X-6042913Y-5352698D02*
X-6033390Y-5343174D01*
X-6033390Y-5343174D02*
X-6014342Y-5333650D01*
X-6014342Y-5333650D02*
X-5985771Y-5333650D01*
X-5985771Y-5333650D02*
X-5966723Y-5343174D01*
X-5966723Y-5343174D02*
X-5957199Y-5362222D01*
X-5957199Y-5362222D02*
X-5957199Y-5466984D01*
X-5957199Y-5362222D02*
X-5947675Y-5343174D01*
X-5947675Y-5343174D02*
X-5928628Y-5333650D01*
X-5928628Y-5333650D02*
X-5900056Y-5333650D01*
X-5900056Y-5333650D02*
X-5881009Y-5343174D01*
X-5881009Y-5343174D02*
X-5871485Y-5362222D01*
X-5871485Y-5362222D02*
X-5871485Y-5466984D01*
X-5481009Y-5257460D02*
X-5652437Y-5514603D01*
X-5223866Y-5266984D02*
X-5204818Y-5266984D01*
X-5204818Y-5266984D02*
X-5185771Y-5276508D01*
X-5185771Y-5276508D02*
X-5176247Y-5286031D01*
X-5176247Y-5286031D02*
X-5166723Y-5305079D01*
X-5166723Y-5305079D02*
X-5157199Y-5343174D01*
X-5157199Y-5343174D02*
X-5157199Y-5390793D01*
X-5157199Y-5390793D02*
X-5166723Y-5428889D01*
X-5166723Y-5428889D02*
X-5176247Y-5447936D01*
X-5176247Y-5447936D02*
X-5185771Y-5457460D01*
X-5185771Y-5457460D02*
X-5204818Y-5466984D01*
X-5204818Y-5466984D02*
X-5223866Y-5466984D01*
X-5223866Y-5466984D02*
X-5242913Y-5457460D01*
X-5242913Y-5457460D02*
X-5252437Y-5447936D01*
X-5252437Y-5447936D02*
X-5261961Y-5428889D01*
X-5261961Y-5428889D02*
X-5271485Y-5390793D01*
X-5271485Y-5390793D02*
X-5271485Y-5343174D01*
X-5271485Y-5343174D02*
X-5261961Y-5305079D01*
X-5261961Y-5305079D02*
X-5252437Y-5286031D01*
X-5252437Y-5286031D02*
X-5242913Y-5276508D01*
X-5242913Y-5276508D02*
X-5223866Y-5266984D01*
X-5071485Y-5447936D02*
X-5061961Y-5457460D01*
X-5061961Y-5457460D02*
X-5071485Y-5466984D01*
X-5071485Y-5466984D02*
X-5081009Y-5457460D01*
X-5081009Y-5457460D02*
X-5071485Y-5447936D01*
X-5071485Y-5447936D02*
X-5071485Y-5466984D01*
X-4938152Y-5266984D02*
X-4919104Y-5266984D01*
X-4919104Y-5266984D02*
X-4900056Y-5276508D01*
X-4900056Y-5276508D02*
X-4890532Y-5286031D01*
X-4890532Y-5286031D02*
X-4881009Y-5305079D01*
X-4881009Y-5305079D02*
X-4871485Y-5343174D01*
X-4871485Y-5343174D02*
X-4871485Y-5390793D01*
X-4871485Y-5390793D02*
X-4881009Y-5428889D01*
X-4881009Y-5428889D02*
X-4890532Y-5447936D01*
X-4890532Y-5447936D02*
X-4900056Y-5457460D01*
X-4900056Y-5457460D02*
X-4919104Y-5466984D01*
X-4919104Y-5466984D02*
X-4938152Y-5466984D01*
X-4938152Y-5466984D02*
X-4957199Y-5457460D01*
X-4957199Y-5457460D02*
X-4966723Y-5447936D01*
X-4966723Y-5447936D02*
X-4976247Y-5428889D01*
X-4976247Y-5428889D02*
X-4985771Y-5390793D01*
X-4985771Y-5390793D02*
X-4985771Y-5343174D01*
X-4985771Y-5343174D02*
X-4976247Y-5305079D01*
X-4976247Y-5305079D02*
X-4966723Y-5286031D01*
X-4966723Y-5286031D02*
X-4957199Y-5276508D01*
X-4957199Y-5276508D02*
X-4938152Y-5266984D01*
X-4804818Y-5266984D02*
X-4681009Y-5266984D01*
X-4681009Y-5266984D02*
X-4747675Y-5343174D01*
X-4747675Y-5343174D02*
X-4719104Y-5343174D01*
X-4719104Y-5343174D02*
X-4700056Y-5352698D01*
X-4700056Y-5352698D02*
X-4690532Y-5362222D01*
X-4690532Y-5362222D02*
X-4681009Y-5381270D01*
X-4681009Y-5381270D02*
X-4681009Y-5428889D01*
X-4681009Y-5428889D02*
X-4690532Y-5447936D01*
X-4690532Y-5447936D02*
X-4700056Y-5457460D01*
X-4700056Y-5457460D02*
X-4719104Y-5466984D01*
X-4719104Y-5466984D02*
X-4776247Y-5466984D01*
X-4776247Y-5466984D02*
X-4795294Y-5457460D01*
X-4795294Y-5457460D02*
X-4804818Y-5447936D01*
X-4490532Y-5466984D02*
X-4604818Y-5466984D01*
X-4547675Y-5466984D02*
X-4547675Y-5266984D01*
X-4547675Y-5266984D02*
X-4566723Y-5295555D01*
X-4566723Y-5295555D02*
X-4585771Y-5314603D01*
X-4585771Y-5314603D02*
X-4604818Y-5324127D01*
X-4309580Y-5266984D02*
X-4404818Y-5266984D01*
X-4404818Y-5266984D02*
X-4414342Y-5362222D01*
X-4414342Y-5362222D02*
X-4404818Y-5352698D01*
X-4404818Y-5352698D02*
X-4385771Y-5343174D01*
X-4385771Y-5343174D02*
X-4338151Y-5343174D01*
X-4338151Y-5343174D02*
X-4319104Y-5352698D01*
X-4319104Y-5352698D02*
X-4309580Y-5362222D01*
X-4309580Y-5362222D02*
X-4300056Y-5381270D01*
X-4300056Y-5381270D02*
X-4300056Y-5428889D01*
X-4300056Y-5428889D02*
X-4309580Y-5447936D01*
X-4309580Y-5447936D02*
X-4319104Y-5457460D01*
X-4319104Y-5457460D02*
X-4338151Y-5466984D01*
X-4338151Y-5466984D02*
X-4385771Y-5466984D01*
X-4385771Y-5466984D02*
X-4404818Y-5457460D01*
X-4404818Y-5457460D02*
X-4414342Y-5447936D01*
X-4223866Y-5266984D02*
X-4223866Y-5305079D01*
X-4147675Y-5266984D02*
X-4147675Y-5305079D01*
X-3852437Y-5543174D02*
X-3861961Y-5533650D01*
X-3861961Y-5533650D02*
X-3881008Y-5505079D01*
X-3881008Y-5505079D02*
X-3890532Y-5486031D01*
X-3890532Y-5486031D02*
X-3900056Y-5457460D01*
X-3900056Y-5457460D02*
X-3909580Y-5409841D01*
X-3909580Y-5409841D02*
X-3909580Y-5371746D01*
X-3909580Y-5371746D02*
X-3900056Y-5324127D01*
X-3900056Y-5324127D02*
X-3890532Y-5295555D01*
X-3890532Y-5295555D02*
X-3881008Y-5276508D01*
X-3881008Y-5276508D02*
X-3861961Y-5247936D01*
X-3861961Y-5247936D02*
X-3852437Y-5238412D01*
X-3671485Y-5466984D02*
X-3785770Y-5466984D01*
X-3728628Y-5466984D02*
X-3728628Y-5266984D01*
X-3728628Y-5266984D02*
X-3747675Y-5295555D01*
X-3747675Y-5295555D02*
X-3766723Y-5314603D01*
X-3766723Y-5314603D02*
X-3785770Y-5324127D01*
X-3490532Y-5266984D02*
X-3585770Y-5266984D01*
X-3585770Y-5266984D02*
X-3595294Y-5362222D01*
X-3595294Y-5362222D02*
X-3585770Y-5352698D01*
X-3585770Y-5352698D02*
X-3566723Y-5343174D01*
X-3566723Y-5343174D02*
X-3519104Y-5343174D01*
X-3519104Y-5343174D02*
X-3500056Y-5352698D01*
X-3500056Y-5352698D02*
X-3490532Y-5362222D01*
X-3490532Y-5362222D02*
X-3481008Y-5381270D01*
X-3481008Y-5381270D02*
X-3481008Y-5428889D01*
X-3481008Y-5428889D02*
X-3490532Y-5447936D01*
X-3490532Y-5447936D02*
X-3500056Y-5457460D01*
X-3500056Y-5457460D02*
X-3519104Y-5466984D01*
X-3519104Y-5466984D02*
X-3566723Y-5466984D01*
X-3566723Y-5466984D02*
X-3585770Y-5457460D01*
X-3585770Y-5457460D02*
X-3595294Y-5447936D01*
X-3242913Y-5466984D02*
X-3242913Y-5266984D01*
X-3157199Y-5466984D02*
X-3157199Y-5362222D01*
X-3157199Y-5362222D02*
X-3166723Y-5343174D01*
X-3166723Y-5343174D02*
X-3185770Y-5333650D01*
X-3185770Y-5333650D02*
X-3214342Y-5333650D01*
X-3214342Y-5333650D02*
X-3233389Y-5343174D01*
X-3233389Y-5343174D02*
X-3242913Y-5352698D01*
X-3033389Y-5466984D02*
X-3052437Y-5457460D01*
X-3052437Y-5457460D02*
X-3061961Y-5447936D01*
X-3061961Y-5447936D02*
X-3071485Y-5428889D01*
X-3071485Y-5428889D02*
X-3071485Y-5371746D01*
X-3071485Y-5371746D02*
X-3061961Y-5352698D01*
X-3061961Y-5352698D02*
X-3052437Y-5343174D01*
X-3052437Y-5343174D02*
X-3033389Y-5333650D01*
X-3033389Y-5333650D02*
X-3004818Y-5333650D01*
X-3004818Y-5333650D02*
X-2985770Y-5343174D01*
X-2985770Y-5343174D02*
X-2976246Y-5352698D01*
X-2976246Y-5352698D02*
X-2966723Y-5371746D01*
X-2966723Y-5371746D02*
X-2966723Y-5428889D01*
X-2966723Y-5428889D02*
X-2976246Y-5447936D01*
X-2976246Y-5447936D02*
X-2985770Y-5457460D01*
X-2985770Y-5457460D02*
X-3004818Y-5466984D01*
X-3004818Y-5466984D02*
X-3033389Y-5466984D01*
X-2852437Y-5466984D02*
X-2871485Y-5457460D01*
X-2871485Y-5457460D02*
X-2881008Y-5438412D01*
X-2881008Y-5438412D02*
X-2881008Y-5266984D01*
X-2700056Y-5457460D02*
X-2719104Y-5466984D01*
X-2719104Y-5466984D02*
X-2757199Y-5466984D01*
X-2757199Y-5466984D02*
X-2776247Y-5457460D01*
X-2776247Y-5457460D02*
X-2785770Y-5438412D01*
X-2785770Y-5438412D02*
X-2785770Y-5362222D01*
X-2785770Y-5362222D02*
X-2776247Y-5343174D01*
X-2776247Y-5343174D02*
X-2757199Y-5333650D01*
X-2757199Y-5333650D02*
X-2719104Y-5333650D01*
X-2719104Y-5333650D02*
X-2700056Y-5343174D01*
X-2700056Y-5343174D02*
X-2690532Y-5362222D01*
X-2690532Y-5362222D02*
X-2690532Y-5381270D01*
X-2690532Y-5381270D02*
X-2785770Y-5400317D01*
X-2614342Y-5457460D02*
X-2595294Y-5466984D01*
X-2595294Y-5466984D02*
X-2557199Y-5466984D01*
X-2557199Y-5466984D02*
X-2538151Y-5457460D01*
X-2538151Y-5457460D02*
X-2528627Y-5438412D01*
X-2528627Y-5438412D02*
X-2528627Y-5428889D01*
X-2528627Y-5428889D02*
X-2538151Y-5409841D01*
X-2538151Y-5409841D02*
X-2557199Y-5400317D01*
X-2557199Y-5400317D02*
X-2585770Y-5400317D01*
X-2585770Y-5400317D02*
X-2604818Y-5390793D01*
X-2604818Y-5390793D02*
X-2614342Y-5371746D01*
X-2614342Y-5371746D02*
X-2614342Y-5362222D01*
X-2614342Y-5362222D02*
X-2604818Y-5343174D01*
X-2604818Y-5343174D02*
X-2585770Y-5333650D01*
X-2585770Y-5333650D02*
X-2557199Y-5333650D01*
X-2557199Y-5333650D02*
X-2538151Y-5343174D01*
X-2290532Y-5390793D02*
X-2138151Y-5390793D01*
X-2214342Y-5466984D02*
X-2214342Y-5314603D01*
X-1804818Y-5333650D02*
X-1804818Y-5466984D01*
X-1852437Y-5257460D02*
X-1900056Y-5400317D01*
X-1900056Y-5400317D02*
X-1776246Y-5400317D01*
X-1557199Y-5457460D02*
X-1538151Y-5466984D01*
X-1538151Y-5466984D02*
X-1500056Y-5466984D01*
X-1500056Y-5466984D02*
X-1481008Y-5457460D01*
X-1481008Y-5457460D02*
X-1471484Y-5438412D01*
X-1471484Y-5438412D02*
X-1471484Y-5428889D01*
X-1471484Y-5428889D02*
X-1481008Y-5409841D01*
X-1481008Y-5409841D02*
X-1500056Y-5400317D01*
X-1500056Y-5400317D02*
X-1528627Y-5400317D01*
X-1528627Y-5400317D02*
X-1547675Y-5390793D01*
X-1547675Y-5390793D02*
X-1557199Y-5371746D01*
X-1557199Y-5371746D02*
X-1557199Y-5362222D01*
X-1557199Y-5362222D02*
X-1547675Y-5343174D01*
X-1547675Y-5343174D02*
X-1528627Y-5333650D01*
X-1528627Y-5333650D02*
X-1500056Y-5333650D01*
X-1500056Y-5333650D02*
X-1481008Y-5343174D01*
X-1357199Y-5466984D02*
X-1376246Y-5457460D01*
X-1376246Y-5457460D02*
X-1385770Y-5438412D01*
X-1385770Y-5438412D02*
X-1385770Y-5266984D01*
X-1252437Y-5466984D02*
X-1271484Y-5457460D01*
X-1271484Y-5457460D02*
X-1281008Y-5447936D01*
X-1281008Y-5447936D02*
X-1290532Y-5428889D01*
X-1290532Y-5428889D02*
X-1290532Y-5371746D01*
X-1290532Y-5371746D02*
X-1281008Y-5352698D01*
X-1281008Y-5352698D02*
X-1271484Y-5343174D01*
X-1271484Y-5343174D02*
X-1252437Y-5333650D01*
X-1252437Y-5333650D02*
X-1223865Y-5333650D01*
X-1223865Y-5333650D02*
X-1204818Y-5343174D01*
X-1204818Y-5343174D02*
X-1195294Y-5352698D01*
X-1195294Y-5352698D02*
X-1185770Y-5371746D01*
X-1185770Y-5371746D02*
X-1185770Y-5428889D01*
X-1185770Y-5428889D02*
X-1195294Y-5447936D01*
X-1195294Y-5447936D02*
X-1204818Y-5457460D01*
X-1204818Y-5457460D02*
X-1223865Y-5466984D01*
X-1223865Y-5466984D02*
X-1252437Y-5466984D01*
X-1128627Y-5333650D02*
X-1052437Y-5333650D01*
X-1100056Y-5266984D02*
X-1100056Y-5438412D01*
X-1100056Y-5438412D02*
X-1090532Y-5457460D01*
X-1090532Y-5457460D02*
X-1071484Y-5466984D01*
X-1071484Y-5466984D02*
X-1052437Y-5466984D01*
X-995294Y-5457460D02*
X-976246Y-5466984D01*
X-976246Y-5466984D02*
X-938151Y-5466984D01*
X-938151Y-5466984D02*
X-919103Y-5457460D01*
X-919103Y-5457460D02*
X-909580Y-5438412D01*
X-909580Y-5438412D02*
X-909580Y-5428889D01*
X-909580Y-5428889D02*
X-919103Y-5409841D01*
X-919103Y-5409841D02*
X-938151Y-5400317D01*
X-938151Y-5400317D02*
X-966722Y-5400317D01*
X-966722Y-5400317D02*
X-985770Y-5390793D01*
X-985770Y-5390793D02*
X-995294Y-5371746D01*
X-995294Y-5371746D02*
X-995294Y-5362222D01*
X-995294Y-5362222D02*
X-985770Y-5343174D01*
X-985770Y-5343174D02*
X-966722Y-5333650D01*
X-966722Y-5333650D02*
X-938151Y-5333650D01*
X-938151Y-5333650D02*
X-919103Y-5343174D01*
X-842913Y-5543174D02*
X-833389Y-5533650D01*
X-833389Y-5533650D02*
X-814341Y-5505079D01*
X-814341Y-5505079D02*
X-804818Y-5486031D01*
X-804818Y-5486031D02*
X-795294Y-5457460D01*
X-795294Y-5457460D02*
X-785770Y-5409841D01*
X-785770Y-5409841D02*
X-785770Y-5371746D01*
X-785770Y-5371746D02*
X-795294Y-5324127D01*
X-795294Y-5324127D02*
X-804818Y-5295555D01*
X-804818Y-5295555D02*
X-814341Y-5276508D01*
X-814341Y-5276508D02*
X-833389Y-5247936D01*
X-833389Y-5247936D02*
X-842913Y-5238412D01*
D12*
X-7442144Y-5674856D02*
X-7442144Y-5604144D01*
X-7512856Y-5604144D01*
X-7512856Y-5674856D01*
X-7442144Y-5674856D01*
D11*
X-7061961Y-5730984D02*
X-7176247Y-5730984D01*
X-7119104Y-5730984D02*
X-7119104Y-5530984D01*
X-7119104Y-5530984D02*
X-7138152Y-5559555D01*
X-7138152Y-5559555D02*
X-7157199Y-5578603D01*
X-7157199Y-5578603D02*
X-7176247Y-5588127D01*
X-6976247Y-5711936D02*
X-6966723Y-5721460D01*
X-6966723Y-5721460D02*
X-6976247Y-5730984D01*
X-6976247Y-5730984D02*
X-6985771Y-5721460D01*
X-6985771Y-5721460D02*
X-6976247Y-5711936D01*
X-6976247Y-5711936D02*
X-6976247Y-5730984D01*
X-6842914Y-5530984D02*
X-6823866Y-5530984D01*
X-6823866Y-5530984D02*
X-6804818Y-5540508D01*
X-6804818Y-5540508D02*
X-6795294Y-5550031D01*
X-6795294Y-5550031D02*
X-6785771Y-5569079D01*
X-6785771Y-5569079D02*
X-6776247Y-5607174D01*
X-6776247Y-5607174D02*
X-6776247Y-5654793D01*
X-6776247Y-5654793D02*
X-6785771Y-5692888D01*
X-6785771Y-5692888D02*
X-6795294Y-5711936D01*
X-6795294Y-5711936D02*
X-6804818Y-5721460D01*
X-6804818Y-5721460D02*
X-6823866Y-5730984D01*
X-6823866Y-5730984D02*
X-6842914Y-5730984D01*
X-6842914Y-5730984D02*
X-6861961Y-5721460D01*
X-6861961Y-5721460D02*
X-6871485Y-5711936D01*
X-6871485Y-5711936D02*
X-6881009Y-5692888D01*
X-6881009Y-5692888D02*
X-6890533Y-5654793D01*
X-6890533Y-5654793D02*
X-6890533Y-5607174D01*
X-6890533Y-5607174D02*
X-6881009Y-5569079D01*
X-6881009Y-5569079D02*
X-6871485Y-5550031D01*
X-6871485Y-5550031D02*
X-6861961Y-5540508D01*
X-6861961Y-5540508D02*
X-6842914Y-5530984D01*
X-6652437Y-5530984D02*
X-6633390Y-5530984D01*
X-6633390Y-5530984D02*
X-6614342Y-5540508D01*
X-6614342Y-5540508D02*
X-6604818Y-5550031D01*
X-6604818Y-5550031D02*
X-6595294Y-5569079D01*
X-6595294Y-5569079D02*
X-6585771Y-5607174D01*
X-6585771Y-5607174D02*
X-6585771Y-5654793D01*
X-6585771Y-5654793D02*
X-6595294Y-5692888D01*
X-6595294Y-5692888D02*
X-6604818Y-5711936D01*
X-6604818Y-5711936D02*
X-6614342Y-5721460D01*
X-6614342Y-5721460D02*
X-6633390Y-5730984D01*
X-6633390Y-5730984D02*
X-6652437Y-5730984D01*
X-6652437Y-5730984D02*
X-6671485Y-5721460D01*
X-6671485Y-5721460D02*
X-6681009Y-5711936D01*
X-6681009Y-5711936D02*
X-6690533Y-5692888D01*
X-6690533Y-5692888D02*
X-6700056Y-5654793D01*
X-6700056Y-5654793D02*
X-6700056Y-5607174D01*
X-6700056Y-5607174D02*
X-6690533Y-5569079D01*
X-6690533Y-5569079D02*
X-6681009Y-5550031D01*
X-6681009Y-5550031D02*
X-6671485Y-5540508D01*
X-6671485Y-5540508D02*
X-6652437Y-5530984D01*
X-6461961Y-5530984D02*
X-6442913Y-5530984D01*
X-6442913Y-5530984D02*
X-6423866Y-5540508D01*
X-6423866Y-5540508D02*
X-6414342Y-5550031D01*
X-6414342Y-5550031D02*
X-6404818Y-5569079D01*
X-6404818Y-5569079D02*
X-6395294Y-5607174D01*
X-6395294Y-5607174D02*
X-6395294Y-5654793D01*
X-6395294Y-5654793D02*
X-6404818Y-5692888D01*
X-6404818Y-5692888D02*
X-6414342Y-5711936D01*
X-6414342Y-5711936D02*
X-6423866Y-5721460D01*
X-6423866Y-5721460D02*
X-6442913Y-5730984D01*
X-6442913Y-5730984D02*
X-6461961Y-5730984D01*
X-6461961Y-5730984D02*
X-6481009Y-5721460D01*
X-6481009Y-5721460D02*
X-6490533Y-5711936D01*
X-6490533Y-5711936D02*
X-6500056Y-5692888D01*
X-6500056Y-5692888D02*
X-6509580Y-5654793D01*
X-6509580Y-5654793D02*
X-6509580Y-5607174D01*
X-6509580Y-5607174D02*
X-6500056Y-5569079D01*
X-6500056Y-5569079D02*
X-6490533Y-5550031D01*
X-6490533Y-5550031D02*
X-6481009Y-5540508D01*
X-6481009Y-5540508D02*
X-6461961Y-5530984D01*
X-6309580Y-5730984D02*
X-6309580Y-5597650D01*
X-6309580Y-5616698D02*
X-6300056Y-5607174D01*
X-6300056Y-5607174D02*
X-6281009Y-5597650D01*
X-6281009Y-5597650D02*
X-6252437Y-5597650D01*
X-6252437Y-5597650D02*
X-6233390Y-5607174D01*
X-6233390Y-5607174D02*
X-6223866Y-5626222D01*
X-6223866Y-5626222D02*
X-6223866Y-5730984D01*
X-6223866Y-5626222D02*
X-6214342Y-5607174D01*
X-6214342Y-5607174D02*
X-6195294Y-5597650D01*
X-6195294Y-5597650D02*
X-6166723Y-5597650D01*
X-6166723Y-5597650D02*
X-6147675Y-5607174D01*
X-6147675Y-5607174D02*
X-6138152Y-5626222D01*
X-6138152Y-5626222D02*
X-6138152Y-5730984D01*
X-6042913Y-5730984D02*
X-6042913Y-5597650D01*
X-6042913Y-5616698D02*
X-6033390Y-5607174D01*
X-6033390Y-5607174D02*
X-6014342Y-5597650D01*
X-6014342Y-5597650D02*
X-5985771Y-5597650D01*
X-5985771Y-5597650D02*
X-5966723Y-5607174D01*
X-5966723Y-5607174D02*
X-5957199Y-5626222D01*
X-5957199Y-5626222D02*
X-5957199Y-5730984D01*
X-5957199Y-5626222D02*
X-5947675Y-5607174D01*
X-5947675Y-5607174D02*
X-5928628Y-5597650D01*
X-5928628Y-5597650D02*
X-5900056Y-5597650D01*
X-5900056Y-5597650D02*
X-5881009Y-5607174D01*
X-5881009Y-5607174D02*
X-5871485Y-5626222D01*
X-5871485Y-5626222D02*
X-5871485Y-5730984D01*
X-5481009Y-5521460D02*
X-5652437Y-5778603D01*
X-5223866Y-5530984D02*
X-5204818Y-5530984D01*
X-5204818Y-5530984D02*
X-5185771Y-5540508D01*
X-5185771Y-5540508D02*
X-5176247Y-5550031D01*
X-5176247Y-5550031D02*
X-5166723Y-5569079D01*
X-5166723Y-5569079D02*
X-5157199Y-5607174D01*
X-5157199Y-5607174D02*
X-5157199Y-5654793D01*
X-5157199Y-5654793D02*
X-5166723Y-5692888D01*
X-5166723Y-5692888D02*
X-5176247Y-5711936D01*
X-5176247Y-5711936D02*
X-5185771Y-5721460D01*
X-5185771Y-5721460D02*
X-5204818Y-5730984D01*
X-5204818Y-5730984D02*
X-5223866Y-5730984D01*
X-5223866Y-5730984D02*
X-5242913Y-5721460D01*
X-5242913Y-5721460D02*
X-5252437Y-5711936D01*
X-5252437Y-5711936D02*
X-5261961Y-5692888D01*
X-5261961Y-5692888D02*
X-5271485Y-5654793D01*
X-5271485Y-5654793D02*
X-5271485Y-5607174D01*
X-5271485Y-5607174D02*
X-5261961Y-5569079D01*
X-5261961Y-5569079D02*
X-5252437Y-5550031D01*
X-5252437Y-5550031D02*
X-5242913Y-5540508D01*
X-5242913Y-5540508D02*
X-5223866Y-5530984D01*
X-5071485Y-5711936D02*
X-5061961Y-5721460D01*
X-5061961Y-5721460D02*
X-5071485Y-5730984D01*
X-5071485Y-5730984D02*
X-5081009Y-5721460D01*
X-5081009Y-5721460D02*
X-5071485Y-5711936D01*
X-5071485Y-5711936D02*
X-5071485Y-5730984D01*
X-4938152Y-5530984D02*
X-4919104Y-5530984D01*
X-4919104Y-5530984D02*
X-4900056Y-5540508D01*
X-4900056Y-5540508D02*
X-4890532Y-5550031D01*
X-4890532Y-5550031D02*
X-4881009Y-5569079D01*
X-4881009Y-5569079D02*
X-4871485Y-5607174D01*
X-4871485Y-5607174D02*
X-4871485Y-5654793D01*
X-4871485Y-5654793D02*
X-4881009Y-5692888D01*
X-4881009Y-5692888D02*
X-4890532Y-5711936D01*
X-4890532Y-5711936D02*
X-4900056Y-5721460D01*
X-4900056Y-5721460D02*
X-4919104Y-5730984D01*
X-4919104Y-5730984D02*
X-4938152Y-5730984D01*
X-4938152Y-5730984D02*
X-4957199Y-5721460D01*
X-4957199Y-5721460D02*
X-4966723Y-5711936D01*
X-4966723Y-5711936D02*
X-4976247Y-5692888D01*
X-4976247Y-5692888D02*
X-4985771Y-5654793D01*
X-4985771Y-5654793D02*
X-4985771Y-5607174D01*
X-4985771Y-5607174D02*
X-4976247Y-5569079D01*
X-4976247Y-5569079D02*
X-4966723Y-5550031D01*
X-4966723Y-5550031D02*
X-4957199Y-5540508D01*
X-4957199Y-5540508D02*
X-4938152Y-5530984D01*
X-4804818Y-5530984D02*
X-4681009Y-5530984D01*
X-4681009Y-5530984D02*
X-4747675Y-5607174D01*
X-4747675Y-5607174D02*
X-4719104Y-5607174D01*
X-4719104Y-5607174D02*
X-4700056Y-5616698D01*
X-4700056Y-5616698D02*
X-4690532Y-5626222D01*
X-4690532Y-5626222D02*
X-4681009Y-5645269D01*
X-4681009Y-5645269D02*
X-4681009Y-5692888D01*
X-4681009Y-5692888D02*
X-4690532Y-5711936D01*
X-4690532Y-5711936D02*
X-4700056Y-5721460D01*
X-4700056Y-5721460D02*
X-4719104Y-5730984D01*
X-4719104Y-5730984D02*
X-4776247Y-5730984D01*
X-4776247Y-5730984D02*
X-4795294Y-5721460D01*
X-4795294Y-5721460D02*
X-4804818Y-5711936D01*
X-4585771Y-5730984D02*
X-4547675Y-5730984D01*
X-4547675Y-5730984D02*
X-4528628Y-5721460D01*
X-4528628Y-5721460D02*
X-4519104Y-5711936D01*
X-4519104Y-5711936D02*
X-4500056Y-5683365D01*
X-4500056Y-5683365D02*
X-4490532Y-5645269D01*
X-4490532Y-5645269D02*
X-4490532Y-5569079D01*
X-4490532Y-5569079D02*
X-4500056Y-5550031D01*
X-4500056Y-5550031D02*
X-4509580Y-5540508D01*
X-4509580Y-5540508D02*
X-4528628Y-5530984D01*
X-4528628Y-5530984D02*
X-4566723Y-5530984D01*
X-4566723Y-5530984D02*
X-4585771Y-5540508D01*
X-4585771Y-5540508D02*
X-4595294Y-5550031D01*
X-4595294Y-5550031D02*
X-4604818Y-5569079D01*
X-4604818Y-5569079D02*
X-4604818Y-5616698D01*
X-4604818Y-5616698D02*
X-4595294Y-5635746D01*
X-4595294Y-5635746D02*
X-4585771Y-5645269D01*
X-4585771Y-5645269D02*
X-4566723Y-5654793D01*
X-4566723Y-5654793D02*
X-4528628Y-5654793D01*
X-4528628Y-5654793D02*
X-4509580Y-5645269D01*
X-4509580Y-5645269D02*
X-4500056Y-5635746D01*
X-4500056Y-5635746D02*
X-4490532Y-5616698D01*
X-4319104Y-5597650D02*
X-4319104Y-5730984D01*
X-4366723Y-5521460D02*
X-4414342Y-5664317D01*
X-4414342Y-5664317D02*
X-4290532Y-5664317D01*
X-4223866Y-5530984D02*
X-4223866Y-5569079D01*
X-4147675Y-5530984D02*
X-4147675Y-5569079D01*
X-3852437Y-5807174D02*
X-3861961Y-5797650D01*
X-3861961Y-5797650D02*
X-3881008Y-5769079D01*
X-3881008Y-5769079D02*
X-3890532Y-5750031D01*
X-3890532Y-5750031D02*
X-3900056Y-5721460D01*
X-3900056Y-5721460D02*
X-3909580Y-5673841D01*
X-3909580Y-5673841D02*
X-3909580Y-5635746D01*
X-3909580Y-5635746D02*
X-3900056Y-5588127D01*
X-3900056Y-5588127D02*
X-3890532Y-5559555D01*
X-3890532Y-5559555D02*
X-3881008Y-5540508D01*
X-3881008Y-5540508D02*
X-3861961Y-5511936D01*
X-3861961Y-5511936D02*
X-3852437Y-5502412D01*
X-3671485Y-5730984D02*
X-3785770Y-5730984D01*
X-3728628Y-5730984D02*
X-3728628Y-5530984D01*
X-3728628Y-5530984D02*
X-3747675Y-5559555D01*
X-3747675Y-5559555D02*
X-3766723Y-5578603D01*
X-3766723Y-5578603D02*
X-3785770Y-5588127D01*
X-3576247Y-5730984D02*
X-3538151Y-5730984D01*
X-3538151Y-5730984D02*
X-3519104Y-5721460D01*
X-3519104Y-5721460D02*
X-3509580Y-5711936D01*
X-3509580Y-5711936D02*
X-3490532Y-5683365D01*
X-3490532Y-5683365D02*
X-3481008Y-5645269D01*
X-3481008Y-5645269D02*
X-3481008Y-5569079D01*
X-3481008Y-5569079D02*
X-3490532Y-5550031D01*
X-3490532Y-5550031D02*
X-3500056Y-5540508D01*
X-3500056Y-5540508D02*
X-3519104Y-5530984D01*
X-3519104Y-5530984D02*
X-3557199Y-5530984D01*
X-3557199Y-5530984D02*
X-3576247Y-5540508D01*
X-3576247Y-5540508D02*
X-3585770Y-5550031D01*
X-3585770Y-5550031D02*
X-3595294Y-5569079D01*
X-3595294Y-5569079D02*
X-3595294Y-5616698D01*
X-3595294Y-5616698D02*
X-3585770Y-5635746D01*
X-3585770Y-5635746D02*
X-3576247Y-5645269D01*
X-3576247Y-5645269D02*
X-3557199Y-5654793D01*
X-3557199Y-5654793D02*
X-3519104Y-5654793D01*
X-3519104Y-5654793D02*
X-3500056Y-5645269D01*
X-3500056Y-5645269D02*
X-3490532Y-5635746D01*
X-3490532Y-5635746D02*
X-3481008Y-5616698D01*
X-3242913Y-5730984D02*
X-3242913Y-5530984D01*
X-3157199Y-5730984D02*
X-3157199Y-5626222D01*
X-3157199Y-5626222D02*
X-3166723Y-5607174D01*
X-3166723Y-5607174D02*
X-3185770Y-5597650D01*
X-3185770Y-5597650D02*
X-3214342Y-5597650D01*
X-3214342Y-5597650D02*
X-3233389Y-5607174D01*
X-3233389Y-5607174D02*
X-3242913Y-5616698D01*
X-3033389Y-5730984D02*
X-3052437Y-5721460D01*
X-3052437Y-5721460D02*
X-3061961Y-5711936D01*
X-3061961Y-5711936D02*
X-3071485Y-5692888D01*
X-3071485Y-5692888D02*
X-3071485Y-5635746D01*
X-3071485Y-5635746D02*
X-3061961Y-5616698D01*
X-3061961Y-5616698D02*
X-3052437Y-5607174D01*
X-3052437Y-5607174D02*
X-3033389Y-5597650D01*
X-3033389Y-5597650D02*
X-3004818Y-5597650D01*
X-3004818Y-5597650D02*
X-2985770Y-5607174D01*
X-2985770Y-5607174D02*
X-2976246Y-5616698D01*
X-2976246Y-5616698D02*
X-2966723Y-5635746D01*
X-2966723Y-5635746D02*
X-2966723Y-5692888D01*
X-2966723Y-5692888D02*
X-2976246Y-5711936D01*
X-2976246Y-5711936D02*
X-2985770Y-5721460D01*
X-2985770Y-5721460D02*
X-3004818Y-5730984D01*
X-3004818Y-5730984D02*
X-3033389Y-5730984D01*
X-2852437Y-5730984D02*
X-2871485Y-5721460D01*
X-2871485Y-5721460D02*
X-2881008Y-5702412D01*
X-2881008Y-5702412D02*
X-2881008Y-5530984D01*
X-2700056Y-5721460D02*
X-2719104Y-5730984D01*
X-2719104Y-5730984D02*
X-2757199Y-5730984D01*
X-2757199Y-5730984D02*
X-2776247Y-5721460D01*
X-2776247Y-5721460D02*
X-2785770Y-5702412D01*
X-2785770Y-5702412D02*
X-2785770Y-5626222D01*
X-2785770Y-5626222D02*
X-2776247Y-5607174D01*
X-2776247Y-5607174D02*
X-2757199Y-5597650D01*
X-2757199Y-5597650D02*
X-2719104Y-5597650D01*
X-2719104Y-5597650D02*
X-2700056Y-5607174D01*
X-2700056Y-5607174D02*
X-2690532Y-5626222D01*
X-2690532Y-5626222D02*
X-2690532Y-5645269D01*
X-2690532Y-5645269D02*
X-2785770Y-5664317D01*
X-2614342Y-5721460D02*
X-2595294Y-5730984D01*
X-2595294Y-5730984D02*
X-2557199Y-5730984D01*
X-2557199Y-5730984D02*
X-2538151Y-5721460D01*
X-2538151Y-5721460D02*
X-2528627Y-5702412D01*
X-2528627Y-5702412D02*
X-2528627Y-5692888D01*
X-2528627Y-5692888D02*
X-2538151Y-5673841D01*
X-2538151Y-5673841D02*
X-2557199Y-5664317D01*
X-2557199Y-5664317D02*
X-2585770Y-5664317D01*
X-2585770Y-5664317D02*
X-2604818Y-5654793D01*
X-2604818Y-5654793D02*
X-2614342Y-5635746D01*
X-2614342Y-5635746D02*
X-2614342Y-5626222D01*
X-2614342Y-5626222D02*
X-2604818Y-5607174D01*
X-2604818Y-5607174D02*
X-2585770Y-5597650D01*
X-2585770Y-5597650D02*
X-2557199Y-5597650D01*
X-2557199Y-5597650D02*
X-2538151Y-5607174D01*
X-2461961Y-5807174D02*
X-2452437Y-5797650D01*
X-2452437Y-5797650D02*
X-2433389Y-5769079D01*
X-2433389Y-5769079D02*
X-2423866Y-5750031D01*
X-2423866Y-5750031D02*
X-2414342Y-5721460D01*
X-2414342Y-5721460D02*
X-2404818Y-5673841D01*
X-2404818Y-5673841D02*
X-2404818Y-5635746D01*
X-2404818Y-5635746D02*
X-2414342Y-5588127D01*
X-2414342Y-5588127D02*
X-2423866Y-5559555D01*
X-2423866Y-5559555D02*
X-2433389Y-5540508D01*
X-2433389Y-5540508D02*
X-2452437Y-5511936D01*
X-2452437Y-5511936D02*
X-2461961Y-5502412D01*
D13*
X-7487500Y-5963500D02*
X-7427500Y-5903500D01*
X-7487500Y-5843500D01*
X-7547500Y-5903500D01*
X-7487500Y-5963500D01*
D11*
X-7061961Y-5994984D02*
X-7176247Y-5994984D01*
X-7119104Y-5994984D02*
X-7119104Y-5794984D01*
X-7119104Y-5794984D02*
X-7138152Y-5823555D01*
X-7138152Y-5823555D02*
X-7157199Y-5842603D01*
X-7157199Y-5842603D02*
X-7176247Y-5852127D01*
X-6976247Y-5975936D02*
X-6966723Y-5985460D01*
X-6966723Y-5985460D02*
X-6976247Y-5994984D01*
X-6976247Y-5994984D02*
X-6985771Y-5985460D01*
X-6985771Y-5985460D02*
X-6976247Y-5975936D01*
X-6976247Y-5975936D02*
X-6976247Y-5994984D01*
X-6890533Y-5814031D02*
X-6881009Y-5804508D01*
X-6881009Y-5804508D02*
X-6861961Y-5794984D01*
X-6861961Y-5794984D02*
X-6814342Y-5794984D01*
X-6814342Y-5794984D02*
X-6795294Y-5804508D01*
X-6795294Y-5804508D02*
X-6785771Y-5814031D01*
X-6785771Y-5814031D02*
X-6776247Y-5833079D01*
X-6776247Y-5833079D02*
X-6776247Y-5852127D01*
X-6776247Y-5852127D02*
X-6785771Y-5880698D01*
X-6785771Y-5880698D02*
X-6900056Y-5994984D01*
X-6900056Y-5994984D02*
X-6776247Y-5994984D01*
X-6652437Y-5794984D02*
X-6633390Y-5794984D01*
X-6633390Y-5794984D02*
X-6614342Y-5804508D01*
X-6614342Y-5804508D02*
X-6604818Y-5814031D01*
X-6604818Y-5814031D02*
X-6595294Y-5833079D01*
X-6595294Y-5833079D02*
X-6585771Y-5871174D01*
X-6585771Y-5871174D02*
X-6585771Y-5918793D01*
X-6585771Y-5918793D02*
X-6595294Y-5956888D01*
X-6595294Y-5956888D02*
X-6604818Y-5975936D01*
X-6604818Y-5975936D02*
X-6614342Y-5985460D01*
X-6614342Y-5985460D02*
X-6633390Y-5994984D01*
X-6633390Y-5994984D02*
X-6652437Y-5994984D01*
X-6652437Y-5994984D02*
X-6671485Y-5985460D01*
X-6671485Y-5985460D02*
X-6681009Y-5975936D01*
X-6681009Y-5975936D02*
X-6690533Y-5956888D01*
X-6690533Y-5956888D02*
X-6700056Y-5918793D01*
X-6700056Y-5918793D02*
X-6700056Y-5871174D01*
X-6700056Y-5871174D02*
X-6690533Y-5833079D01*
X-6690533Y-5833079D02*
X-6681009Y-5814031D01*
X-6681009Y-5814031D02*
X-6671485Y-5804508D01*
X-6671485Y-5804508D02*
X-6652437Y-5794984D01*
X-6461961Y-5794984D02*
X-6442913Y-5794984D01*
X-6442913Y-5794984D02*
X-6423866Y-5804508D01*
X-6423866Y-5804508D02*
X-6414342Y-5814031D01*
X-6414342Y-5814031D02*
X-6404818Y-5833079D01*
X-6404818Y-5833079D02*
X-6395294Y-5871174D01*
X-6395294Y-5871174D02*
X-6395294Y-5918793D01*
X-6395294Y-5918793D02*
X-6404818Y-5956888D01*
X-6404818Y-5956888D02*
X-6414342Y-5975936D01*
X-6414342Y-5975936D02*
X-6423866Y-5985460D01*
X-6423866Y-5985460D02*
X-6442913Y-5994984D01*
X-6442913Y-5994984D02*
X-6461961Y-5994984D01*
X-6461961Y-5994984D02*
X-6481009Y-5985460D01*
X-6481009Y-5985460D02*
X-6490533Y-5975936D01*
X-6490533Y-5975936D02*
X-6500056Y-5956888D01*
X-6500056Y-5956888D02*
X-6509580Y-5918793D01*
X-6509580Y-5918793D02*
X-6509580Y-5871174D01*
X-6509580Y-5871174D02*
X-6500056Y-5833079D01*
X-6500056Y-5833079D02*
X-6490533Y-5814031D01*
X-6490533Y-5814031D02*
X-6481009Y-5804508D01*
X-6481009Y-5804508D02*
X-6461961Y-5794984D01*
X-6309580Y-5994984D02*
X-6309580Y-5861650D01*
X-6309580Y-5880698D02*
X-6300056Y-5871174D01*
X-6300056Y-5871174D02*
X-6281009Y-5861650D01*
X-6281009Y-5861650D02*
X-6252437Y-5861650D01*
X-6252437Y-5861650D02*
X-6233390Y-5871174D01*
X-6233390Y-5871174D02*
X-6223866Y-5890222D01*
X-6223866Y-5890222D02*
X-6223866Y-5994984D01*
X-6223866Y-5890222D02*
X-6214342Y-5871174D01*
X-6214342Y-5871174D02*
X-6195294Y-5861650D01*
X-6195294Y-5861650D02*
X-6166723Y-5861650D01*
X-6166723Y-5861650D02*
X-6147675Y-5871174D01*
X-6147675Y-5871174D02*
X-6138152Y-5890222D01*
X-6138152Y-5890222D02*
X-6138152Y-5994984D01*
X-6042913Y-5994984D02*
X-6042913Y-5861650D01*
X-6042913Y-5880698D02*
X-6033390Y-5871174D01*
X-6033390Y-5871174D02*
X-6014342Y-5861650D01*
X-6014342Y-5861650D02*
X-5985771Y-5861650D01*
X-5985771Y-5861650D02*
X-5966723Y-5871174D01*
X-5966723Y-5871174D02*
X-5957199Y-5890222D01*
X-5957199Y-5890222D02*
X-5957199Y-5994984D01*
X-5957199Y-5890222D02*
X-5947675Y-5871174D01*
X-5947675Y-5871174D02*
X-5928628Y-5861650D01*
X-5928628Y-5861650D02*
X-5900056Y-5861650D01*
X-5900056Y-5861650D02*
X-5881009Y-5871174D01*
X-5881009Y-5871174D02*
X-5871485Y-5890222D01*
X-5871485Y-5890222D02*
X-5871485Y-5994984D01*
X-5481009Y-5785460D02*
X-5652437Y-6042603D01*
X-5223866Y-5794984D02*
X-5204818Y-5794984D01*
X-5204818Y-5794984D02*
X-5185771Y-5804508D01*
X-5185771Y-5804508D02*
X-5176247Y-5814031D01*
X-5176247Y-5814031D02*
X-5166723Y-5833079D01*
X-5166723Y-5833079D02*
X-5157199Y-5871174D01*
X-5157199Y-5871174D02*
X-5157199Y-5918793D01*
X-5157199Y-5918793D02*
X-5166723Y-5956888D01*
X-5166723Y-5956888D02*
X-5176247Y-5975936D01*
X-5176247Y-5975936D02*
X-5185771Y-5985460D01*
X-5185771Y-5985460D02*
X-5204818Y-5994984D01*
X-5204818Y-5994984D02*
X-5223866Y-5994984D01*
X-5223866Y-5994984D02*
X-5242913Y-5985460D01*
X-5242913Y-5985460D02*
X-5252437Y-5975936D01*
X-5252437Y-5975936D02*
X-5261961Y-5956888D01*
X-5261961Y-5956888D02*
X-5271485Y-5918793D01*
X-5271485Y-5918793D02*
X-5271485Y-5871174D01*
X-5271485Y-5871174D02*
X-5261961Y-5833079D01*
X-5261961Y-5833079D02*
X-5252437Y-5814031D01*
X-5252437Y-5814031D02*
X-5242913Y-5804508D01*
X-5242913Y-5804508D02*
X-5223866Y-5794984D01*
X-5071485Y-5975936D02*
X-5061961Y-5985460D01*
X-5061961Y-5985460D02*
X-5071485Y-5994984D01*
X-5071485Y-5994984D02*
X-5081009Y-5985460D01*
X-5081009Y-5985460D02*
X-5071485Y-5975936D01*
X-5071485Y-5975936D02*
X-5071485Y-5994984D01*
X-4938152Y-5794984D02*
X-4919104Y-5794984D01*
X-4919104Y-5794984D02*
X-4900056Y-5804508D01*
X-4900056Y-5804508D02*
X-4890532Y-5814031D01*
X-4890532Y-5814031D02*
X-4881009Y-5833079D01*
X-4881009Y-5833079D02*
X-4871485Y-5871174D01*
X-4871485Y-5871174D02*
X-4871485Y-5918793D01*
X-4871485Y-5918793D02*
X-4881009Y-5956888D01*
X-4881009Y-5956888D02*
X-4890532Y-5975936D01*
X-4890532Y-5975936D02*
X-4900056Y-5985460D01*
X-4900056Y-5985460D02*
X-4919104Y-5994984D01*
X-4919104Y-5994984D02*
X-4938152Y-5994984D01*
X-4938152Y-5994984D02*
X-4957199Y-5985460D01*
X-4957199Y-5985460D02*
X-4966723Y-5975936D01*
X-4966723Y-5975936D02*
X-4976247Y-5956888D01*
X-4976247Y-5956888D02*
X-4985771Y-5918793D01*
X-4985771Y-5918793D02*
X-4985771Y-5871174D01*
X-4985771Y-5871174D02*
X-4976247Y-5833079D01*
X-4976247Y-5833079D02*
X-4966723Y-5814031D01*
X-4966723Y-5814031D02*
X-4957199Y-5804508D01*
X-4957199Y-5804508D02*
X-4938152Y-5794984D01*
X-4700056Y-5861650D02*
X-4700056Y-5994984D01*
X-4747675Y-5785460D02*
X-4795294Y-5928317D01*
X-4795294Y-5928317D02*
X-4671485Y-5928317D01*
X-4614342Y-5794984D02*
X-4481009Y-5794984D01*
X-4481009Y-5794984D02*
X-4566723Y-5994984D01*
X-4414342Y-5814031D02*
X-4404818Y-5804508D01*
X-4404818Y-5804508D02*
X-4385771Y-5794984D01*
X-4385771Y-5794984D02*
X-4338151Y-5794984D01*
X-4338151Y-5794984D02*
X-4319104Y-5804508D01*
X-4319104Y-5804508D02*
X-4309580Y-5814031D01*
X-4309580Y-5814031D02*
X-4300056Y-5833079D01*
X-4300056Y-5833079D02*
X-4300056Y-5852127D01*
X-4300056Y-5852127D02*
X-4309580Y-5880698D01*
X-4309580Y-5880698D02*
X-4423866Y-5994984D01*
X-4423866Y-5994984D02*
X-4300056Y-5994984D01*
X-4223866Y-5794984D02*
X-4223866Y-5833079D01*
X-4147675Y-5794984D02*
X-4147675Y-5833079D01*
X-3852437Y-6071174D02*
X-3861961Y-6061650D01*
X-3861961Y-6061650D02*
X-3881008Y-6033079D01*
X-3881008Y-6033079D02*
X-3890532Y-6014031D01*
X-3890532Y-6014031D02*
X-3900056Y-5985460D01*
X-3900056Y-5985460D02*
X-3909580Y-5937841D01*
X-3909580Y-5937841D02*
X-3909580Y-5899746D01*
X-3909580Y-5899746D02*
X-3900056Y-5852127D01*
X-3900056Y-5852127D02*
X-3890532Y-5823555D01*
X-3890532Y-5823555D02*
X-3881008Y-5804508D01*
X-3881008Y-5804508D02*
X-3861961Y-5775936D01*
X-3861961Y-5775936D02*
X-3852437Y-5766412D01*
X-3795294Y-5794984D02*
X-3671485Y-5794984D01*
X-3671485Y-5794984D02*
X-3738151Y-5871174D01*
X-3738151Y-5871174D02*
X-3709580Y-5871174D01*
X-3709580Y-5871174D02*
X-3690532Y-5880698D01*
X-3690532Y-5880698D02*
X-3681008Y-5890222D01*
X-3681008Y-5890222D02*
X-3671485Y-5909269D01*
X-3671485Y-5909269D02*
X-3671485Y-5956888D01*
X-3671485Y-5956888D02*
X-3681008Y-5975936D01*
X-3681008Y-5975936D02*
X-3690532Y-5985460D01*
X-3690532Y-5985460D02*
X-3709580Y-5994984D01*
X-3709580Y-5994984D02*
X-3766723Y-5994984D01*
X-3766723Y-5994984D02*
X-3785770Y-5985460D01*
X-3785770Y-5985460D02*
X-3795294Y-5975936D01*
X-3433389Y-5994984D02*
X-3433389Y-5794984D01*
X-3347675Y-5994984D02*
X-3347675Y-5890222D01*
X-3347675Y-5890222D02*
X-3357199Y-5871174D01*
X-3357199Y-5871174D02*
X-3376246Y-5861650D01*
X-3376246Y-5861650D02*
X-3404818Y-5861650D01*
X-3404818Y-5861650D02*
X-3423866Y-5871174D01*
X-3423866Y-5871174D02*
X-3433389Y-5880698D01*
X-3223866Y-5994984D02*
X-3242913Y-5985460D01*
X-3242913Y-5985460D02*
X-3252437Y-5975936D01*
X-3252437Y-5975936D02*
X-3261961Y-5956888D01*
X-3261961Y-5956888D02*
X-3261961Y-5899746D01*
X-3261961Y-5899746D02*
X-3252437Y-5880698D01*
X-3252437Y-5880698D02*
X-3242913Y-5871174D01*
X-3242913Y-5871174D02*
X-3223866Y-5861650D01*
X-3223866Y-5861650D02*
X-3195294Y-5861650D01*
X-3195294Y-5861650D02*
X-3176246Y-5871174D01*
X-3176246Y-5871174D02*
X-3166723Y-5880698D01*
X-3166723Y-5880698D02*
X-3157199Y-5899746D01*
X-3157199Y-5899746D02*
X-3157199Y-5956888D01*
X-3157199Y-5956888D02*
X-3166723Y-5975936D01*
X-3166723Y-5975936D02*
X-3176246Y-5985460D01*
X-3176246Y-5985460D02*
X-3195294Y-5994984D01*
X-3195294Y-5994984D02*
X-3223866Y-5994984D01*
X-3042913Y-5994984D02*
X-3061961Y-5985460D01*
X-3061961Y-5985460D02*
X-3071485Y-5966412D01*
X-3071485Y-5966412D02*
X-3071485Y-5794984D01*
X-2890532Y-5985460D02*
X-2909580Y-5994984D01*
X-2909580Y-5994984D02*
X-2947675Y-5994984D01*
X-2947675Y-5994984D02*
X-2966723Y-5985460D01*
X-2966723Y-5985460D02*
X-2976246Y-5966412D01*
X-2976246Y-5966412D02*
X-2976246Y-5890222D01*
X-2976246Y-5890222D02*
X-2966723Y-5871174D01*
X-2966723Y-5871174D02*
X-2947675Y-5861650D01*
X-2947675Y-5861650D02*
X-2909580Y-5861650D01*
X-2909580Y-5861650D02*
X-2890532Y-5871174D01*
X-2890532Y-5871174D02*
X-2881008Y-5890222D01*
X-2881008Y-5890222D02*
X-2881008Y-5909269D01*
X-2881008Y-5909269D02*
X-2976246Y-5928317D01*
X-2804818Y-5985460D02*
X-2785770Y-5994984D01*
X-2785770Y-5994984D02*
X-2747675Y-5994984D01*
X-2747675Y-5994984D02*
X-2728627Y-5985460D01*
X-2728627Y-5985460D02*
X-2719104Y-5966412D01*
X-2719104Y-5966412D02*
X-2719104Y-5956888D01*
X-2719104Y-5956888D02*
X-2728627Y-5937841D01*
X-2728627Y-5937841D02*
X-2747675Y-5928317D01*
X-2747675Y-5928317D02*
X-2776247Y-5928317D01*
X-2776247Y-5928317D02*
X-2795294Y-5918793D01*
X-2795294Y-5918793D02*
X-2804818Y-5899746D01*
X-2804818Y-5899746D02*
X-2804818Y-5890222D01*
X-2804818Y-5890222D02*
X-2795294Y-5871174D01*
X-2795294Y-5871174D02*
X-2776247Y-5861650D01*
X-2776247Y-5861650D02*
X-2747675Y-5861650D01*
X-2747675Y-5861650D02*
X-2728627Y-5871174D01*
X-2652437Y-6071174D02*
X-2642913Y-6061650D01*
X-2642913Y-6061650D02*
X-2623866Y-6033079D01*
X-2623866Y-6033079D02*
X-2614342Y-6014031D01*
X-2614342Y-6014031D02*
X-2604818Y-5985460D01*
X-2604818Y-5985460D02*
X-2595294Y-5937841D01*
X-2595294Y-5937841D02*
X-2595294Y-5899746D01*
X-2595294Y-5899746D02*
X-2604818Y-5852127D01*
X-2604818Y-5852127D02*
X-2614342Y-5823555D01*
X-2614342Y-5823555D02*
X-2623866Y-5804508D01*
X-2623866Y-5804508D02*
X-2642913Y-5775936D01*
X-2642913Y-5775936D02*
X-2652437Y-5766412D01*
D10*
X-7577500Y-6092500D02*
X-7427500Y-6242500D01*
X-7427500Y-6092500D02*
X-7577500Y-6242500D01*
X-7427500Y-6167500D02*
G75*
G02*
X-7577500Y-6167500I-75000J0D01*
G01*
X-7577500Y-6167500D02*
G75*
G02*
X-7427500Y-6167500I75000J0D01*
G01*
D11*
X-7061961Y-6258984D02*
X-7176247Y-6258984D01*
X-7119104Y-6258984D02*
X-7119104Y-6058984D01*
X-7119104Y-6058984D02*
X-7138152Y-6087555D01*
X-7138152Y-6087555D02*
X-7157199Y-6106603D01*
X-7157199Y-6106603D02*
X-7176247Y-6116127D01*
X-6976247Y-6239936D02*
X-6966723Y-6249460D01*
X-6966723Y-6249460D02*
X-6976247Y-6258984D01*
X-6976247Y-6258984D02*
X-6985771Y-6249460D01*
X-6985771Y-6249460D02*
X-6976247Y-6239936D01*
X-6976247Y-6239936D02*
X-6976247Y-6258984D01*
X-6785771Y-6058984D02*
X-6881009Y-6058984D01*
X-6881009Y-6058984D02*
X-6890533Y-6154222D01*
X-6890533Y-6154222D02*
X-6881009Y-6144698D01*
X-6881009Y-6144698D02*
X-6861961Y-6135174D01*
X-6861961Y-6135174D02*
X-6814342Y-6135174D01*
X-6814342Y-6135174D02*
X-6795294Y-6144698D01*
X-6795294Y-6144698D02*
X-6785771Y-6154222D01*
X-6785771Y-6154222D02*
X-6776247Y-6173269D01*
X-6776247Y-6173269D02*
X-6776247Y-6220888D01*
X-6776247Y-6220888D02*
X-6785771Y-6239936D01*
X-6785771Y-6239936D02*
X-6795294Y-6249460D01*
X-6795294Y-6249460D02*
X-6814342Y-6258984D01*
X-6814342Y-6258984D02*
X-6861961Y-6258984D01*
X-6861961Y-6258984D02*
X-6881009Y-6249460D01*
X-6881009Y-6249460D02*
X-6890533Y-6239936D01*
X-6652437Y-6058984D02*
X-6633390Y-6058984D01*
X-6633390Y-6058984D02*
X-6614342Y-6068508D01*
X-6614342Y-6068508D02*
X-6604818Y-6078031D01*
X-6604818Y-6078031D02*
X-6595294Y-6097079D01*
X-6595294Y-6097079D02*
X-6585771Y-6135174D01*
X-6585771Y-6135174D02*
X-6585771Y-6182793D01*
X-6585771Y-6182793D02*
X-6595294Y-6220888D01*
X-6595294Y-6220888D02*
X-6604818Y-6239936D01*
X-6604818Y-6239936D02*
X-6614342Y-6249460D01*
X-6614342Y-6249460D02*
X-6633390Y-6258984D01*
X-6633390Y-6258984D02*
X-6652437Y-6258984D01*
X-6652437Y-6258984D02*
X-6671485Y-6249460D01*
X-6671485Y-6249460D02*
X-6681009Y-6239936D01*
X-6681009Y-6239936D02*
X-6690533Y-6220888D01*
X-6690533Y-6220888D02*
X-6700056Y-6182793D01*
X-6700056Y-6182793D02*
X-6700056Y-6135174D01*
X-6700056Y-6135174D02*
X-6690533Y-6097079D01*
X-6690533Y-6097079D02*
X-6681009Y-6078031D01*
X-6681009Y-6078031D02*
X-6671485Y-6068508D01*
X-6671485Y-6068508D02*
X-6652437Y-6058984D01*
X-6461961Y-6058984D02*
X-6442913Y-6058984D01*
X-6442913Y-6058984D02*
X-6423866Y-6068508D01*
X-6423866Y-6068508D02*
X-6414342Y-6078031D01*
X-6414342Y-6078031D02*
X-6404818Y-6097079D01*
X-6404818Y-6097079D02*
X-6395294Y-6135174D01*
X-6395294Y-6135174D02*
X-6395294Y-6182793D01*
X-6395294Y-6182793D02*
X-6404818Y-6220888D01*
X-6404818Y-6220888D02*
X-6414342Y-6239936D01*
X-6414342Y-6239936D02*
X-6423866Y-6249460D01*
X-6423866Y-6249460D02*
X-6442913Y-6258984D01*
X-6442913Y-6258984D02*
X-6461961Y-6258984D01*
X-6461961Y-6258984D02*
X-6481009Y-6249460D01*
X-6481009Y-6249460D02*
X-6490533Y-6239936D01*
X-6490533Y-6239936D02*
X-6500056Y-6220888D01*
X-6500056Y-6220888D02*
X-6509580Y-6182793D01*
X-6509580Y-6182793D02*
X-6509580Y-6135174D01*
X-6509580Y-6135174D02*
X-6500056Y-6097079D01*
X-6500056Y-6097079D02*
X-6490533Y-6078031D01*
X-6490533Y-6078031D02*
X-6481009Y-6068508D01*
X-6481009Y-6068508D02*
X-6461961Y-6058984D01*
X-6309580Y-6258984D02*
X-6309580Y-6125650D01*
X-6309580Y-6144698D02*
X-6300056Y-6135174D01*
X-6300056Y-6135174D02*
X-6281009Y-6125650D01*
X-6281009Y-6125650D02*
X-6252437Y-6125650D01*
X-6252437Y-6125650D02*
X-6233390Y-6135174D01*
X-6233390Y-6135174D02*
X-6223866Y-6154222D01*
X-6223866Y-6154222D02*
X-6223866Y-6258984D01*
X-6223866Y-6154222D02*
X-6214342Y-6135174D01*
X-6214342Y-6135174D02*
X-6195294Y-6125650D01*
X-6195294Y-6125650D02*
X-6166723Y-6125650D01*
X-6166723Y-6125650D02*
X-6147675Y-6135174D01*
X-6147675Y-6135174D02*
X-6138152Y-6154222D01*
X-6138152Y-6154222D02*
X-6138152Y-6258984D01*
X-6042913Y-6258984D02*
X-6042913Y-6125650D01*
X-6042913Y-6144698D02*
X-6033390Y-6135174D01*
X-6033390Y-6135174D02*
X-6014342Y-6125650D01*
X-6014342Y-6125650D02*
X-5985771Y-6125650D01*
X-5985771Y-6125650D02*
X-5966723Y-6135174D01*
X-5966723Y-6135174D02*
X-5957199Y-6154222D01*
X-5957199Y-6154222D02*
X-5957199Y-6258984D01*
X-5957199Y-6154222D02*
X-5947675Y-6135174D01*
X-5947675Y-6135174D02*
X-5928628Y-6125650D01*
X-5928628Y-6125650D02*
X-5900056Y-6125650D01*
X-5900056Y-6125650D02*
X-5881009Y-6135174D01*
X-5881009Y-6135174D02*
X-5871485Y-6154222D01*
X-5871485Y-6154222D02*
X-5871485Y-6258984D01*
X-5481009Y-6049460D02*
X-5652437Y-6306603D01*
X-5223866Y-6058984D02*
X-5204818Y-6058984D01*
X-5204818Y-6058984D02*
X-5185771Y-6068508D01*
X-5185771Y-6068508D02*
X-5176247Y-6078031D01*
X-5176247Y-6078031D02*
X-5166723Y-6097079D01*
X-5166723Y-6097079D02*
X-5157199Y-6135174D01*
X-5157199Y-6135174D02*
X-5157199Y-6182793D01*
X-5157199Y-6182793D02*
X-5166723Y-6220888D01*
X-5166723Y-6220888D02*
X-5176247Y-6239936D01*
X-5176247Y-6239936D02*
X-5185771Y-6249460D01*
X-5185771Y-6249460D02*
X-5204818Y-6258984D01*
X-5204818Y-6258984D02*
X-5223866Y-6258984D01*
X-5223866Y-6258984D02*
X-5242913Y-6249460D01*
X-5242913Y-6249460D02*
X-5252437Y-6239936D01*
X-5252437Y-6239936D02*
X-5261961Y-6220888D01*
X-5261961Y-6220888D02*
X-5271485Y-6182793D01*
X-5271485Y-6182793D02*
X-5271485Y-6135174D01*
X-5271485Y-6135174D02*
X-5261961Y-6097079D01*
X-5261961Y-6097079D02*
X-5252437Y-6078031D01*
X-5252437Y-6078031D02*
X-5242913Y-6068508D01*
X-5242913Y-6068508D02*
X-5223866Y-6058984D01*
X-5071485Y-6239936D02*
X-5061961Y-6249460D01*
X-5061961Y-6249460D02*
X-5071485Y-6258984D01*
X-5071485Y-6258984D02*
X-5081009Y-6249460D01*
X-5081009Y-6249460D02*
X-5071485Y-6239936D01*
X-5071485Y-6239936D02*
X-5071485Y-6258984D01*
X-4938152Y-6058984D02*
X-4919104Y-6058984D01*
X-4919104Y-6058984D02*
X-4900056Y-6068508D01*
X-4900056Y-6068508D02*
X-4890532Y-6078031D01*
X-4890532Y-6078031D02*
X-4881009Y-6097079D01*
X-4881009Y-6097079D02*
X-4871485Y-6135174D01*
X-4871485Y-6135174D02*
X-4871485Y-6182793D01*
X-4871485Y-6182793D02*
X-4881009Y-6220888D01*
X-4881009Y-6220888D02*
X-4890532Y-6239936D01*
X-4890532Y-6239936D02*
X-4900056Y-6249460D01*
X-4900056Y-6249460D02*
X-4919104Y-6258984D01*
X-4919104Y-6258984D02*
X-4938152Y-6258984D01*
X-4938152Y-6258984D02*
X-4957199Y-6249460D01*
X-4957199Y-6249460D02*
X-4966723Y-6239936D01*
X-4966723Y-6239936D02*
X-4976247Y-6220888D01*
X-4976247Y-6220888D02*
X-4985771Y-6182793D01*
X-4985771Y-6182793D02*
X-4985771Y-6135174D01*
X-4985771Y-6135174D02*
X-4976247Y-6097079D01*
X-4976247Y-6097079D02*
X-4966723Y-6078031D01*
X-4966723Y-6078031D02*
X-4957199Y-6068508D01*
X-4957199Y-6068508D02*
X-4938152Y-6058984D01*
X-4690532Y-6058984D02*
X-4785771Y-6058984D01*
X-4785771Y-6058984D02*
X-4795294Y-6154222D01*
X-4795294Y-6154222D02*
X-4785771Y-6144698D01*
X-4785771Y-6144698D02*
X-4766723Y-6135174D01*
X-4766723Y-6135174D02*
X-4719104Y-6135174D01*
X-4719104Y-6135174D02*
X-4700056Y-6144698D01*
X-4700056Y-6144698D02*
X-4690532Y-6154222D01*
X-4690532Y-6154222D02*
X-4681009Y-6173269D01*
X-4681009Y-6173269D02*
X-4681009Y-6220888D01*
X-4681009Y-6220888D02*
X-4690532Y-6239936D01*
X-4690532Y-6239936D02*
X-4700056Y-6249460D01*
X-4700056Y-6249460D02*
X-4719104Y-6258984D01*
X-4719104Y-6258984D02*
X-4766723Y-6258984D01*
X-4766723Y-6258984D02*
X-4785771Y-6249460D01*
X-4785771Y-6249460D02*
X-4795294Y-6239936D01*
X-4585771Y-6258984D02*
X-4547675Y-6258984D01*
X-4547675Y-6258984D02*
X-4528628Y-6249460D01*
X-4528628Y-6249460D02*
X-4519104Y-6239936D01*
X-4519104Y-6239936D02*
X-4500056Y-6211365D01*
X-4500056Y-6211365D02*
X-4490532Y-6173269D01*
X-4490532Y-6173269D02*
X-4490532Y-6097079D01*
X-4490532Y-6097079D02*
X-4500056Y-6078031D01*
X-4500056Y-6078031D02*
X-4509580Y-6068508D01*
X-4509580Y-6068508D02*
X-4528628Y-6058984D01*
X-4528628Y-6058984D02*
X-4566723Y-6058984D01*
X-4566723Y-6058984D02*
X-4585771Y-6068508D01*
X-4585771Y-6068508D02*
X-4595294Y-6078031D01*
X-4595294Y-6078031D02*
X-4604818Y-6097079D01*
X-4604818Y-6097079D02*
X-4604818Y-6144698D01*
X-4604818Y-6144698D02*
X-4595294Y-6163746D01*
X-4595294Y-6163746D02*
X-4585771Y-6173269D01*
X-4585771Y-6173269D02*
X-4566723Y-6182793D01*
X-4566723Y-6182793D02*
X-4528628Y-6182793D01*
X-4528628Y-6182793D02*
X-4509580Y-6173269D01*
X-4509580Y-6173269D02*
X-4500056Y-6163746D01*
X-4500056Y-6163746D02*
X-4490532Y-6144698D01*
X-4300056Y-6258984D02*
X-4414342Y-6258984D01*
X-4357199Y-6258984D02*
X-4357199Y-6058984D01*
X-4357199Y-6058984D02*
X-4376247Y-6087555D01*
X-4376247Y-6087555D02*
X-4395294Y-6106603D01*
X-4395294Y-6106603D02*
X-4414342Y-6116127D01*
X-4223866Y-6058984D02*
X-4223866Y-6097079D01*
X-4147675Y-6058984D02*
X-4147675Y-6097079D01*
X-3852437Y-6335174D02*
X-3861961Y-6325650D01*
X-3861961Y-6325650D02*
X-3881008Y-6297079D01*
X-3881008Y-6297079D02*
X-3890532Y-6278031D01*
X-3890532Y-6278031D02*
X-3900056Y-6249460D01*
X-3900056Y-6249460D02*
X-3909580Y-6201841D01*
X-3909580Y-6201841D02*
X-3909580Y-6163746D01*
X-3909580Y-6163746D02*
X-3900056Y-6116127D01*
X-3900056Y-6116127D02*
X-3890532Y-6087555D01*
X-3890532Y-6087555D02*
X-3881008Y-6068508D01*
X-3881008Y-6068508D02*
X-3861961Y-6039936D01*
X-3861961Y-6039936D02*
X-3852437Y-6030412D01*
X-3690532Y-6125650D02*
X-3690532Y-6258984D01*
X-3738151Y-6049460D02*
X-3785770Y-6192317D01*
X-3785770Y-6192317D02*
X-3661961Y-6192317D01*
X-3433389Y-6258984D02*
X-3433389Y-6058984D01*
X-3347675Y-6258984D02*
X-3347675Y-6154222D01*
X-3347675Y-6154222D02*
X-3357199Y-6135174D01*
X-3357199Y-6135174D02*
X-3376246Y-6125650D01*
X-3376246Y-6125650D02*
X-3404818Y-6125650D01*
X-3404818Y-6125650D02*
X-3423866Y-6135174D01*
X-3423866Y-6135174D02*
X-3433389Y-6144698D01*
X-3223866Y-6258984D02*
X-3242913Y-6249460D01*
X-3242913Y-6249460D02*
X-3252437Y-6239936D01*
X-3252437Y-6239936D02*
X-3261961Y-6220888D01*
X-3261961Y-6220888D02*
X-3261961Y-6163746D01*
X-3261961Y-6163746D02*
X-3252437Y-6144698D01*
X-3252437Y-6144698D02*
X-3242913Y-6135174D01*
X-3242913Y-6135174D02*
X-3223866Y-6125650D01*
X-3223866Y-6125650D02*
X-3195294Y-6125650D01*
X-3195294Y-6125650D02*
X-3176246Y-6135174D01*
X-3176246Y-6135174D02*
X-3166723Y-6144698D01*
X-3166723Y-6144698D02*
X-3157199Y-6163746D01*
X-3157199Y-6163746D02*
X-3157199Y-6220888D01*
X-3157199Y-6220888D02*
X-3166723Y-6239936D01*
X-3166723Y-6239936D02*
X-3176246Y-6249460D01*
X-3176246Y-6249460D02*
X-3195294Y-6258984D01*
X-3195294Y-6258984D02*
X-3223866Y-6258984D01*
X-3042913Y-6258984D02*
X-3061961Y-6249460D01*
X-3061961Y-6249460D02*
X-3071485Y-6230412D01*
X-3071485Y-6230412D02*
X-3071485Y-6058984D01*
X-2890532Y-6249460D02*
X-2909580Y-6258984D01*
X-2909580Y-6258984D02*
X-2947675Y-6258984D01*
X-2947675Y-6258984D02*
X-2966723Y-6249460D01*
X-2966723Y-6249460D02*
X-2976246Y-6230412D01*
X-2976246Y-6230412D02*
X-2976246Y-6154222D01*
X-2976246Y-6154222D02*
X-2966723Y-6135174D01*
X-2966723Y-6135174D02*
X-2947675Y-6125650D01*
X-2947675Y-6125650D02*
X-2909580Y-6125650D01*
X-2909580Y-6125650D02*
X-2890532Y-6135174D01*
X-2890532Y-6135174D02*
X-2881008Y-6154222D01*
X-2881008Y-6154222D02*
X-2881008Y-6173269D01*
X-2881008Y-6173269D02*
X-2976246Y-6192317D01*
X-2804818Y-6249460D02*
X-2785770Y-6258984D01*
X-2785770Y-6258984D02*
X-2747675Y-6258984D01*
X-2747675Y-6258984D02*
X-2728627Y-6249460D01*
X-2728627Y-6249460D02*
X-2719104Y-6230412D01*
X-2719104Y-6230412D02*
X-2719104Y-6220888D01*
X-2719104Y-6220888D02*
X-2728627Y-6201841D01*
X-2728627Y-6201841D02*
X-2747675Y-6192317D01*
X-2747675Y-6192317D02*
X-2776247Y-6192317D01*
X-2776247Y-6192317D02*
X-2795294Y-6182793D01*
X-2795294Y-6182793D02*
X-2804818Y-6163746D01*
X-2804818Y-6163746D02*
X-2804818Y-6154222D01*
X-2804818Y-6154222D02*
X-2795294Y-6135174D01*
X-2795294Y-6135174D02*
X-2776247Y-6125650D01*
X-2776247Y-6125650D02*
X-2747675Y-6125650D01*
X-2747675Y-6125650D02*
X-2728627Y-6135174D01*
X-2652437Y-6335174D02*
X-2642913Y-6325650D01*
X-2642913Y-6325650D02*
X-2623866Y-6297079D01*
X-2623866Y-6297079D02*
X-2614342Y-6278031D01*
X-2614342Y-6278031D02*
X-2604818Y-6249460D01*
X-2604818Y-6249460D02*
X-2595294Y-6201841D01*
X-2595294Y-6201841D02*
X-2595294Y-6163746D01*
X-2595294Y-6163746D02*
X-2604818Y-6116127D01*
X-2604818Y-6116127D02*
X-2614342Y-6087555D01*
X-2614342Y-6087555D02*
X-2623866Y-6068508D01*
X-2623866Y-6068508D02*
X-2642913Y-6039936D01*
X-2642913Y-6039936D02*
X-2652437Y-6030412D01*
X-7627500Y-6337500D02*
X-7427500Y-6537500D01*
X-7427500Y-6337500D02*
X-7627500Y-6537500D01*
X-7527500Y-6337500D02*
X-7527500Y-6537500D01*
X-7627500Y-6437500D02*
X-7427500Y-6437500D01*
X-7176247Y-6348031D02*
X-7166723Y-6338508D01*
X-7166723Y-6338508D02*
X-7147675Y-6328984D01*
X-7147675Y-6328984D02*
X-7100056Y-6328984D01*
X-7100056Y-6328984D02*
X-7081009Y-6338508D01*
X-7081009Y-6338508D02*
X-7071485Y-6348031D01*
X-7071485Y-6348031D02*
X-7061961Y-6367079D01*
X-7061961Y-6367079D02*
X-7061961Y-6386127D01*
X-7061961Y-6386127D02*
X-7071485Y-6414698D01*
X-7071485Y-6414698D02*
X-7185771Y-6528984D01*
X-7185771Y-6528984D02*
X-7061961Y-6528984D01*
X-6976247Y-6509936D02*
X-6966723Y-6519460D01*
X-6966723Y-6519460D02*
X-6976247Y-6528984D01*
X-6976247Y-6528984D02*
X-6985771Y-6519460D01*
X-6985771Y-6519460D02*
X-6976247Y-6509936D01*
X-6976247Y-6509936D02*
X-6976247Y-6528984D01*
X-6900056Y-6328984D02*
X-6766723Y-6328984D01*
X-6766723Y-6328984D02*
X-6852437Y-6528984D01*
X-6652437Y-6328984D02*
X-6633390Y-6328984D01*
X-6633390Y-6328984D02*
X-6614342Y-6338508D01*
X-6614342Y-6338508D02*
X-6604818Y-6348031D01*
X-6604818Y-6348031D02*
X-6595294Y-6367079D01*
X-6595294Y-6367079D02*
X-6585771Y-6405174D01*
X-6585771Y-6405174D02*
X-6585771Y-6452793D01*
X-6585771Y-6452793D02*
X-6595294Y-6490888D01*
X-6595294Y-6490888D02*
X-6604818Y-6509936D01*
X-6604818Y-6509936D02*
X-6614342Y-6519460D01*
X-6614342Y-6519460D02*
X-6633390Y-6528984D01*
X-6633390Y-6528984D02*
X-6652437Y-6528984D01*
X-6652437Y-6528984D02*
X-6671485Y-6519460D01*
X-6671485Y-6519460D02*
X-6681009Y-6509936D01*
X-6681009Y-6509936D02*
X-6690533Y-6490888D01*
X-6690533Y-6490888D02*
X-6700056Y-6452793D01*
X-6700056Y-6452793D02*
X-6700056Y-6405174D01*
X-6700056Y-6405174D02*
X-6690533Y-6367079D01*
X-6690533Y-6367079D02*
X-6681009Y-6348031D01*
X-6681009Y-6348031D02*
X-6671485Y-6338508D01*
X-6671485Y-6338508D02*
X-6652437Y-6328984D01*
X-6461961Y-6328984D02*
X-6442913Y-6328984D01*
X-6442913Y-6328984D02*
X-6423866Y-6338508D01*
X-6423866Y-6338508D02*
X-6414342Y-6348031D01*
X-6414342Y-6348031D02*
X-6404818Y-6367079D01*
X-6404818Y-6367079D02*
X-6395294Y-6405174D01*
X-6395294Y-6405174D02*
X-6395294Y-6452793D01*
X-6395294Y-6452793D02*
X-6404818Y-6490888D01*
X-6404818Y-6490888D02*
X-6414342Y-6509936D01*
X-6414342Y-6509936D02*
X-6423866Y-6519460D01*
X-6423866Y-6519460D02*
X-6442913Y-6528984D01*
X-6442913Y-6528984D02*
X-6461961Y-6528984D01*
X-6461961Y-6528984D02*
X-6481009Y-6519460D01*
X-6481009Y-6519460D02*
X-6490533Y-6509936D01*
X-6490533Y-6509936D02*
X-6500056Y-6490888D01*
X-6500056Y-6490888D02*
X-6509580Y-6452793D01*
X-6509580Y-6452793D02*
X-6509580Y-6405174D01*
X-6509580Y-6405174D02*
X-6500056Y-6367079D01*
X-6500056Y-6367079D02*
X-6490533Y-6348031D01*
X-6490533Y-6348031D02*
X-6481009Y-6338508D01*
X-6481009Y-6338508D02*
X-6461961Y-6328984D01*
X-6309580Y-6528984D02*
X-6309580Y-6395650D01*
X-6309580Y-6414698D02*
X-6300056Y-6405174D01*
X-6300056Y-6405174D02*
X-6281009Y-6395650D01*
X-6281009Y-6395650D02*
X-6252437Y-6395650D01*
X-6252437Y-6395650D02*
X-6233390Y-6405174D01*
X-6233390Y-6405174D02*
X-6223866Y-6424222D01*
X-6223866Y-6424222D02*
X-6223866Y-6528984D01*
X-6223866Y-6424222D02*
X-6214342Y-6405174D01*
X-6214342Y-6405174D02*
X-6195294Y-6395650D01*
X-6195294Y-6395650D02*
X-6166723Y-6395650D01*
X-6166723Y-6395650D02*
X-6147675Y-6405174D01*
X-6147675Y-6405174D02*
X-6138152Y-6424222D01*
X-6138152Y-6424222D02*
X-6138152Y-6528984D01*
X-6042913Y-6528984D02*
X-6042913Y-6395650D01*
X-6042913Y-6414698D02*
X-6033390Y-6405174D01*
X-6033390Y-6405174D02*
X-6014342Y-6395650D01*
X-6014342Y-6395650D02*
X-5985771Y-6395650D01*
X-5985771Y-6395650D02*
X-5966723Y-6405174D01*
X-5966723Y-6405174D02*
X-5957199Y-6424222D01*
X-5957199Y-6424222D02*
X-5957199Y-6528984D01*
X-5957199Y-6424222D02*
X-5947675Y-6405174D01*
X-5947675Y-6405174D02*
X-5928628Y-6395650D01*
X-5928628Y-6395650D02*
X-5900056Y-6395650D01*
X-5900056Y-6395650D02*
X-5881009Y-6405174D01*
X-5881009Y-6405174D02*
X-5871485Y-6424222D01*
X-5871485Y-6424222D02*
X-5871485Y-6528984D01*
X-5481009Y-6319460D02*
X-5652437Y-6576603D01*
X-5223866Y-6328984D02*
X-5204818Y-6328984D01*
X-5204818Y-6328984D02*
X-5185771Y-6338508D01*
X-5185771Y-6338508D02*
X-5176247Y-6348031D01*
X-5176247Y-6348031D02*
X-5166723Y-6367079D01*
X-5166723Y-6367079D02*
X-5157199Y-6405174D01*
X-5157199Y-6405174D02*
X-5157199Y-6452793D01*
X-5157199Y-6452793D02*
X-5166723Y-6490888D01*
X-5166723Y-6490888D02*
X-5176247Y-6509936D01*
X-5176247Y-6509936D02*
X-5185771Y-6519460D01*
X-5185771Y-6519460D02*
X-5204818Y-6528984D01*
X-5204818Y-6528984D02*
X-5223866Y-6528984D01*
X-5223866Y-6528984D02*
X-5242913Y-6519460D01*
X-5242913Y-6519460D02*
X-5252437Y-6509936D01*
X-5252437Y-6509936D02*
X-5261961Y-6490888D01*
X-5261961Y-6490888D02*
X-5271485Y-6452793D01*
X-5271485Y-6452793D02*
X-5271485Y-6405174D01*
X-5271485Y-6405174D02*
X-5261961Y-6367079D01*
X-5261961Y-6367079D02*
X-5252437Y-6348031D01*
X-5252437Y-6348031D02*
X-5242913Y-6338508D01*
X-5242913Y-6338508D02*
X-5223866Y-6328984D01*
X-5071485Y-6509936D02*
X-5061961Y-6519460D01*
X-5061961Y-6519460D02*
X-5071485Y-6528984D01*
X-5071485Y-6528984D02*
X-5081009Y-6519460D01*
X-5081009Y-6519460D02*
X-5071485Y-6509936D01*
X-5071485Y-6509936D02*
X-5071485Y-6528984D01*
X-4871485Y-6528984D02*
X-4985771Y-6528984D01*
X-4928628Y-6528984D02*
X-4928628Y-6328984D01*
X-4928628Y-6328984D02*
X-4947675Y-6357555D01*
X-4947675Y-6357555D02*
X-4966723Y-6376603D01*
X-4966723Y-6376603D02*
X-4985771Y-6386127D01*
X-4747675Y-6328984D02*
X-4728628Y-6328984D01*
X-4728628Y-6328984D02*
X-4709580Y-6338508D01*
X-4709580Y-6338508D02*
X-4700056Y-6348031D01*
X-4700056Y-6348031D02*
X-4690532Y-6367079D01*
X-4690532Y-6367079D02*
X-4681009Y-6405174D01*
X-4681009Y-6405174D02*
X-4681009Y-6452793D01*
X-4681009Y-6452793D02*
X-4690532Y-6490888D01*
X-4690532Y-6490888D02*
X-4700056Y-6509936D01*
X-4700056Y-6509936D02*
X-4709580Y-6519460D01*
X-4709580Y-6519460D02*
X-4728628Y-6528984D01*
X-4728628Y-6528984D02*
X-4747675Y-6528984D01*
X-4747675Y-6528984D02*
X-4766723Y-6519460D01*
X-4766723Y-6519460D02*
X-4776247Y-6509936D01*
X-4776247Y-6509936D02*
X-4785771Y-6490888D01*
X-4785771Y-6490888D02*
X-4795294Y-6452793D01*
X-4795294Y-6452793D02*
X-4795294Y-6405174D01*
X-4795294Y-6405174D02*
X-4785771Y-6367079D01*
X-4785771Y-6367079D02*
X-4776247Y-6348031D01*
X-4776247Y-6348031D02*
X-4766723Y-6338508D01*
X-4766723Y-6338508D02*
X-4747675Y-6328984D01*
X-4509580Y-6328984D02*
X-4547675Y-6328984D01*
X-4547675Y-6328984D02*
X-4566723Y-6338508D01*
X-4566723Y-6338508D02*
X-4576247Y-6348031D01*
X-4576247Y-6348031D02*
X-4595294Y-6376603D01*
X-4595294Y-6376603D02*
X-4604818Y-6414698D01*
X-4604818Y-6414698D02*
X-4604818Y-6490888D01*
X-4604818Y-6490888D02*
X-4595294Y-6509936D01*
X-4595294Y-6509936D02*
X-4585771Y-6519460D01*
X-4585771Y-6519460D02*
X-4566723Y-6528984D01*
X-4566723Y-6528984D02*
X-4528628Y-6528984D01*
X-4528628Y-6528984D02*
X-4509580Y-6519460D01*
X-4509580Y-6519460D02*
X-4500056Y-6509936D01*
X-4500056Y-6509936D02*
X-4490532Y-6490888D01*
X-4490532Y-6490888D02*
X-4490532Y-6443269D01*
X-4490532Y-6443269D02*
X-4500056Y-6424222D01*
X-4500056Y-6424222D02*
X-4509580Y-6414698D01*
X-4509580Y-6414698D02*
X-4528628Y-6405174D01*
X-4528628Y-6405174D02*
X-4566723Y-6405174D01*
X-4566723Y-6405174D02*
X-4585771Y-6414698D01*
X-4585771Y-6414698D02*
X-4595294Y-6424222D01*
X-4595294Y-6424222D02*
X-4604818Y-6443269D01*
X-4423866Y-6328984D02*
X-4300056Y-6328984D01*
X-4300056Y-6328984D02*
X-4366723Y-6405174D01*
X-4366723Y-6405174D02*
X-4338151Y-6405174D01*
X-4338151Y-6405174D02*
X-4319104Y-6414698D01*
X-4319104Y-6414698D02*
X-4309580Y-6424222D01*
X-4309580Y-6424222D02*
X-4300056Y-6443269D01*
X-4300056Y-6443269D02*
X-4300056Y-6490888D01*
X-4300056Y-6490888D02*
X-4309580Y-6509936D01*
X-4309580Y-6509936D02*
X-4319104Y-6519460D01*
X-4319104Y-6519460D02*
X-4338151Y-6528984D01*
X-4338151Y-6528984D02*
X-4395294Y-6528984D01*
X-4395294Y-6528984D02*
X-4414342Y-6519460D01*
X-4414342Y-6519460D02*
X-4423866Y-6509936D01*
X-4223866Y-6328984D02*
X-4223866Y-6367079D01*
X-4147675Y-6328984D02*
X-4147675Y-6367079D01*
X-3852437Y-6605174D02*
X-3861961Y-6595650D01*
X-3861961Y-6595650D02*
X-3881008Y-6567079D01*
X-3881008Y-6567079D02*
X-3890532Y-6548031D01*
X-3890532Y-6548031D02*
X-3900056Y-6519460D01*
X-3900056Y-6519460D02*
X-3909580Y-6471841D01*
X-3909580Y-6471841D02*
X-3909580Y-6433746D01*
X-3909580Y-6433746D02*
X-3900056Y-6386127D01*
X-3900056Y-6386127D02*
X-3890532Y-6357555D01*
X-3890532Y-6357555D02*
X-3881008Y-6338508D01*
X-3881008Y-6338508D02*
X-3861961Y-6309936D01*
X-3861961Y-6309936D02*
X-3852437Y-6300412D01*
X-3690532Y-6395650D02*
X-3690532Y-6528984D01*
X-3738151Y-6319460D02*
X-3785770Y-6462317D01*
X-3785770Y-6462317D02*
X-3661961Y-6462317D01*
X-3433389Y-6528984D02*
X-3433389Y-6328984D01*
X-3347675Y-6528984D02*
X-3347675Y-6424222D01*
X-3347675Y-6424222D02*
X-3357199Y-6405174D01*
X-3357199Y-6405174D02*
X-3376246Y-6395650D01*
X-3376246Y-6395650D02*
X-3404818Y-6395650D01*
X-3404818Y-6395650D02*
X-3423866Y-6405174D01*
X-3423866Y-6405174D02*
X-3433389Y-6414698D01*
X-3223866Y-6528984D02*
X-3242913Y-6519460D01*
X-3242913Y-6519460D02*
X-3252437Y-6509936D01*
X-3252437Y-6509936D02*
X-3261961Y-6490888D01*
X-3261961Y-6490888D02*
X-3261961Y-6433746D01*
X-3261961Y-6433746D02*
X-3252437Y-6414698D01*
X-3252437Y-6414698D02*
X-3242913Y-6405174D01*
X-3242913Y-6405174D02*
X-3223866Y-6395650D01*
X-3223866Y-6395650D02*
X-3195294Y-6395650D01*
X-3195294Y-6395650D02*
X-3176246Y-6405174D01*
X-3176246Y-6405174D02*
X-3166723Y-6414698D01*
X-3166723Y-6414698D02*
X-3157199Y-6433746D01*
X-3157199Y-6433746D02*
X-3157199Y-6490888D01*
X-3157199Y-6490888D02*
X-3166723Y-6509936D01*
X-3166723Y-6509936D02*
X-3176246Y-6519460D01*
X-3176246Y-6519460D02*
X-3195294Y-6528984D01*
X-3195294Y-6528984D02*
X-3223866Y-6528984D01*
X-3042913Y-6528984D02*
X-3061961Y-6519460D01*
X-3061961Y-6519460D02*
X-3071485Y-6500412D01*
X-3071485Y-6500412D02*
X-3071485Y-6328984D01*
X-2890532Y-6519460D02*
X-2909580Y-6528984D01*
X-2909580Y-6528984D02*
X-2947675Y-6528984D01*
X-2947675Y-6528984D02*
X-2966723Y-6519460D01*
X-2966723Y-6519460D02*
X-2976246Y-6500412D01*
X-2976246Y-6500412D02*
X-2976246Y-6424222D01*
X-2976246Y-6424222D02*
X-2966723Y-6405174D01*
X-2966723Y-6405174D02*
X-2947675Y-6395650D01*
X-2947675Y-6395650D02*
X-2909580Y-6395650D01*
X-2909580Y-6395650D02*
X-2890532Y-6405174D01*
X-2890532Y-6405174D02*
X-2881008Y-6424222D01*
X-2881008Y-6424222D02*
X-2881008Y-6443269D01*
X-2881008Y-6443269D02*
X-2976246Y-6462317D01*
X-2804818Y-6519460D02*
X-2785770Y-6528984D01*
X-2785770Y-6528984D02*
X-2747675Y-6528984D01*
X-2747675Y-6528984D02*
X-2728627Y-6519460D01*
X-2728627Y-6519460D02*
X-2719104Y-6500412D01*
X-2719104Y-6500412D02*
X-2719104Y-6490888D01*
X-2719104Y-6490888D02*
X-2728627Y-6471841D01*
X-2728627Y-6471841D02*
X-2747675Y-6462317D01*
X-2747675Y-6462317D02*
X-2776247Y-6462317D01*
X-2776247Y-6462317D02*
X-2795294Y-6452793D01*
X-2795294Y-6452793D02*
X-2804818Y-6433746D01*
X-2804818Y-6433746D02*
X-2804818Y-6424222D01*
X-2804818Y-6424222D02*
X-2795294Y-6405174D01*
X-2795294Y-6405174D02*
X-2776247Y-6395650D01*
X-2776247Y-6395650D02*
X-2747675Y-6395650D01*
X-2747675Y-6395650D02*
X-2728627Y-6405174D01*
X-2652437Y-6605174D02*
X-2642913Y-6595650D01*
X-2642913Y-6595650D02*
X-2623866Y-6567079D01*
X-2623866Y-6567079D02*
X-2614342Y-6548031D01*
X-2614342Y-6548031D02*
X-2604818Y-6519460D01*
X-2604818Y-6519460D02*
X-2595294Y-6471841D01*
X-2595294Y-6471841D02*
X-2595294Y-6433746D01*
X-2595294Y-6433746D02*
X-2604818Y-6386127D01*
X-2604818Y-6386127D02*
X-2614342Y-6357555D01*
X-2614342Y-6357555D02*
X-2623866Y-6338508D01*
X-2623866Y-6338508D02*
X-2642913Y-6309936D01*
X-2642913Y-6309936D02*
X-2652437Y-6300412D01*
M02*
