%TF.GenerationSoftware,KiCad,Pcbnew,9.0.1*%
%TF.CreationDate,2025-09-30T23:18:24-04:00*%
%TF.ProjectId,cablight-project,6361626c-6967-4687-942d-70726f6a6563,rev?*%
%TF.SameCoordinates,Original*%
%TF.FileFunction,Legend,Top*%
%TF.FilePolarity,Positive*%
%FSLAX46Y46*%
G04 Gerber Fmt 4.6, Leading zero omitted, Abs format (unit mm)*
G04 Created by KiCad (PCBNEW 9.0.1) date 2025-09-30 23:18:24*
%MOMM*%
%LPD*%
G01*
G04 APERTURE LIST*
%ADD10C,0.150000*%
%ADD11O,1.900000X2.500000*%
%ADD12R,1.900000X2.000000*%
%ADD13C,1.600000*%
%ADD14C,4.500000*%
%ADD15C,3.100000*%
%ADD16C,1.901600*%
%ADD17O,2.000000X1.500000*%
%ADD18O,1.500000X2.000000*%
%ADD19R,1.600000X1.600000*%
%ADD20R,2.200000X2.200000*%
%ADD21O,2.200000X2.200000*%
%ADD22O,1.500000X3.000000*%
%ADD23C,2.000000*%
%ADD24R,3.000000X3.000000*%
%ADD25C,3.000000*%
%TA.AperFunction,Profile*%
%ADD26C,0.150000*%
%TD*%
G04 APERTURE END LIST*
D10*
X-64711999Y-32604819D02*
X-64521523Y-32604819D01*
X-64521523Y-32604819D02*
X-64426285Y-32652438D01*
X-64426285Y-32652438D02*
X-64331047Y-32747676D01*
X-64331047Y-32747676D02*
X-64283428Y-32938152D01*
X-64283428Y-32938152D02*
X-64283428Y-33271485D01*
X-64283428Y-33271485D02*
X-64331047Y-33461961D01*
X-64331047Y-33461961D02*
X-64426285Y-33557200D01*
X-64426285Y-33557200D02*
X-64521523Y-33604819D01*
X-64521523Y-33604819D02*
X-64711999Y-33604819D01*
X-64711999Y-33604819D02*
X-64807237Y-33557200D01*
X-64807237Y-33557200D02*
X-64902475Y-33461961D01*
X-64902475Y-33461961D02*
X-64950094Y-33271485D01*
X-64950094Y-33271485D02*
X-64950094Y-32938152D01*
X-64950094Y-32938152D02*
X-64902475Y-32747676D01*
X-64902475Y-32747676D02*
X-64807237Y-32652438D01*
X-64807237Y-32652438D02*
X-64711999Y-32604819D01*
X-63854856Y-32604819D02*
X-63854856Y-33414342D01*
X-63854856Y-33414342D02*
X-63807237Y-33509580D01*
X-63807237Y-33509580D02*
X-63759618Y-33557200D01*
X-63759618Y-33557200D02*
X-63664380Y-33604819D01*
X-63664380Y-33604819D02*
X-63473904Y-33604819D01*
X-63473904Y-33604819D02*
X-63378666Y-33557200D01*
X-63378666Y-33557200D02*
X-63331047Y-33509580D01*
X-63331047Y-33509580D02*
X-63283428Y-33414342D01*
X-63283428Y-33414342D02*
X-63283428Y-32604819D01*
X-62950094Y-32604819D02*
X-62378666Y-32604819D01*
X-62664380Y-33604819D02*
X-62664380Y-32604819D01*
X-64461904Y-36335771D02*
X-64509523Y-36288152D01*
X-64509523Y-36288152D02*
X-64604761Y-36145295D01*
X-64604761Y-36145295D02*
X-64652380Y-36050057D01*
X-64652380Y-36050057D02*
X-64699999Y-35907200D01*
X-64699999Y-35907200D02*
X-64747618Y-35669104D01*
X-64747618Y-35669104D02*
X-64747618Y-35478628D01*
X-64747618Y-35478628D02*
X-64699999Y-35240533D01*
X-64699999Y-35240533D02*
X-64652380Y-35097676D01*
X-64652380Y-35097676D02*
X-64604761Y-35002438D01*
X-64604761Y-35002438D02*
X-64509523Y-34859580D01*
X-64509523Y-34859580D02*
X-64461904Y-34811961D01*
X-64080951Y-35573866D02*
X-63319047Y-35573866D01*
X-62938094Y-36335771D02*
X-62890475Y-36288152D01*
X-62890475Y-36288152D02*
X-62795237Y-36145295D01*
X-62795237Y-36145295D02*
X-62747618Y-36050057D01*
X-62747618Y-36050057D02*
X-62699999Y-35907200D01*
X-62699999Y-35907200D02*
X-62652380Y-35669104D01*
X-62652380Y-35669104D02*
X-62652380Y-35478628D01*
X-62652380Y-35478628D02*
X-62699999Y-35240533D01*
X-62699999Y-35240533D02*
X-62747618Y-35097676D01*
X-62747618Y-35097676D02*
X-62795237Y-35002438D01*
X-62795237Y-35002438D02*
X-62890475Y-34859580D01*
X-62890475Y-34859580D02*
X-62938094Y-34811961D01*
X-64461904Y-31335771D02*
X-64509523Y-31288152D01*
X-64509523Y-31288152D02*
X-64604761Y-31145295D01*
X-64604761Y-31145295D02*
X-64652380Y-31050057D01*
X-64652380Y-31050057D02*
X-64699999Y-30907200D01*
X-64699999Y-30907200D02*
X-64747618Y-30669104D01*
X-64747618Y-30669104D02*
X-64747618Y-30478628D01*
X-64747618Y-30478628D02*
X-64699999Y-30240533D01*
X-64699999Y-30240533D02*
X-64652380Y-30097676D01*
X-64652380Y-30097676D02*
X-64604761Y-30002438D01*
X-64604761Y-30002438D02*
X-64509523Y-29859580D01*
X-64509523Y-29859580D02*
X-64461904Y-29811961D01*
X-64080951Y-30573866D02*
X-63319047Y-30573866D01*
X-63699999Y-30954819D02*
X-63699999Y-30192914D01*
X-62938094Y-31335771D02*
X-62890475Y-31288152D01*
X-62890475Y-31288152D02*
X-62795237Y-31145295D01*
X-62795237Y-31145295D02*
X-62747618Y-31050057D01*
X-62747618Y-31050057D02*
X-62699999Y-30907200D01*
X-62699999Y-30907200D02*
X-62652380Y-30669104D01*
X-62652380Y-30669104D02*
X-62652380Y-30478628D01*
X-62652380Y-30478628D02*
X-62699999Y-30240533D01*
X-62699999Y-30240533D02*
X-62747618Y-30097676D01*
X-62747618Y-30097676D02*
X-62795237Y-30002438D01*
X-62795237Y-30002438D02*
X-62890475Y-29859580D01*
X-62890475Y-29859580D02*
X-62938094Y-29811961D01*
X-64223808Y-23454819D02*
X-64223808Y-22454819D01*
X-63747618Y-23454819D02*
X-63747618Y-22454819D01*
X-63747618Y-22454819D02*
X-63176190Y-23454819D01*
X-63176190Y-23454819D02*
X-63176190Y-22454819D01*
X-57872744Y-40154819D02*
X-57682268Y-40154819D01*
X-57682268Y-40154819D02*
X-57587030Y-40202438D01*
X-57587030Y-40202438D02*
X-57491792Y-40297676D01*
X-57491792Y-40297676D02*
X-57444173Y-40488152D01*
X-57444173Y-40488152D02*
X-57444173Y-40821485D01*
X-57444173Y-40821485D02*
X-57491792Y-41011961D01*
X-57491792Y-41011961D02*
X-57587030Y-41107200D01*
X-57587030Y-41107200D02*
X-57682268Y-41154819D01*
X-57682268Y-41154819D02*
X-57872744Y-41154819D01*
X-57872744Y-41154819D02*
X-57967982Y-41107200D01*
X-57967982Y-41107200D02*
X-58063220Y-41011961D01*
X-58063220Y-41011961D02*
X-58110839Y-40821485D01*
X-58110839Y-40821485D02*
X-58110839Y-40488152D01*
X-58110839Y-40488152D02*
X-58063220Y-40297676D01*
X-58063220Y-40297676D02*
X-57967982Y-40202438D01*
X-57967982Y-40202438D02*
X-57872744Y-40154819D01*
X-57015601Y-40154819D02*
X-57015601Y-40964342D01*
X-57015601Y-40964342D02*
X-56967982Y-41059580D01*
X-56967982Y-41059580D02*
X-56920363Y-41107200D01*
X-56920363Y-41107200D02*
X-56825125Y-41154819D01*
X-56825125Y-41154819D02*
X-56634649Y-41154819D01*
X-56634649Y-41154819D02*
X-56539411Y-41107200D01*
X-56539411Y-41107200D02*
X-56491792Y-41059580D01*
X-56491792Y-41059580D02*
X-56444173Y-40964342D01*
X-56444173Y-40964342D02*
X-56444173Y-40154819D01*
X-56110839Y-40154819D02*
X-55539411Y-40154819D01*
X-55825125Y-41154819D02*
X-55825125Y-40154819D01*
X-54015601Y-40154819D02*
X-54206077Y-40154819D01*
X-54206077Y-40154819D02*
X-54301315Y-40202438D01*
X-54301315Y-40202438D02*
X-54348934Y-40250057D01*
X-54348934Y-40250057D02*
X-54444172Y-40392914D01*
X-54444172Y-40392914D02*
X-54491791Y-40583390D01*
X-54491791Y-40583390D02*
X-54491791Y-40964342D01*
X-54491791Y-40964342D02*
X-54444172Y-41059580D01*
X-54444172Y-41059580D02*
X-54396553Y-41107200D01*
X-54396553Y-41107200D02*
X-54301315Y-41154819D01*
X-54301315Y-41154819D02*
X-54110839Y-41154819D01*
X-54110839Y-41154819D02*
X-54015601Y-41107200D01*
X-54015601Y-41107200D02*
X-53967982Y-41059580D01*
X-53967982Y-41059580D02*
X-53920363Y-40964342D01*
X-53920363Y-40964342D02*
X-53920363Y-40726247D01*
X-53920363Y-40726247D02*
X-53967982Y-40631009D01*
X-53967982Y-40631009D02*
X-54015601Y-40583390D01*
X-54015601Y-40583390D02*
X-54110839Y-40535771D01*
X-54110839Y-40535771D02*
X-54301315Y-40535771D01*
X-54301315Y-40535771D02*
X-54396553Y-40583390D01*
X-54396553Y-40583390D02*
X-54444172Y-40631009D01*
X-54444172Y-40631009D02*
X-54491791Y-40726247D01*
X-53539410Y-40869104D02*
X-53063220Y-40869104D01*
X-53634648Y-41154819D02*
X-53301315Y-40154819D01*
X-53301315Y-40154819D02*
X-52967982Y-41154819D01*
X-51872743Y-41154819D02*
X-51872743Y-40154819D01*
X-51872743Y-40154819D02*
X-51539410Y-40869104D01*
X-51539410Y-40869104D02*
X-51206077Y-40154819D01*
X-51206077Y-40154819D02*
X-51206077Y-41154819D01*
X-50777505Y-40869104D02*
X-50301315Y-40869104D01*
X-50872743Y-41154819D02*
X-50539410Y-40154819D01*
X-50539410Y-40154819D02*
X-50206077Y-41154819D01*
X-49967981Y-40154819D02*
X-49301315Y-41154819D01*
X-49301315Y-40154819D02*
X-49967981Y-41154819D01*
X-47539410Y-40678628D02*
X-47587029Y-40631009D01*
X-47587029Y-40631009D02*
X-47682267Y-40583390D01*
X-47682267Y-40583390D02*
X-47777505Y-40583390D01*
X-47777505Y-40583390D02*
X-47872743Y-40631009D01*
X-47872743Y-40631009D02*
X-47920362Y-40678628D01*
X-47920362Y-40678628D02*
X-47967981Y-40773866D01*
X-47967981Y-40773866D02*
X-47967981Y-40869104D01*
X-47967981Y-40869104D02*
X-47920362Y-40964342D01*
X-47920362Y-40964342D02*
X-47872743Y-41011961D01*
X-47872743Y-41011961D02*
X-47777505Y-41059580D01*
X-47777505Y-41059580D02*
X-47682267Y-41059580D01*
X-47682267Y-41059580D02*
X-47587029Y-41011961D01*
X-47587029Y-41011961D02*
X-47539410Y-40964342D01*
X-47539410Y-40583390D02*
X-47539410Y-40964342D01*
X-47539410Y-40964342D02*
X-47491791Y-41011961D01*
X-47491791Y-41011961D02*
X-47444172Y-41011961D01*
X-47444172Y-41011961D02*
X-47348933Y-40964342D01*
X-47348933Y-40964342D02*
X-47301314Y-40869104D01*
X-47301314Y-40869104D02*
X-47301314Y-40631009D01*
X-47301314Y-40631009D02*
X-47396553Y-40488152D01*
X-47396553Y-40488152D02*
X-47539410Y-40392914D01*
X-47539410Y-40392914D02*
X-47729886Y-40345295D01*
X-47729886Y-40345295D02*
X-47920362Y-40392914D01*
X-47920362Y-40392914D02*
X-48063219Y-40488152D01*
X-48063219Y-40488152D02*
X-48158457Y-40631009D01*
X-48158457Y-40631009D02*
X-48206076Y-40821485D01*
X-48206076Y-40821485D02*
X-48158457Y-41011961D01*
X-48158457Y-41011961D02*
X-48063219Y-41154819D01*
X-48063219Y-41154819D02*
X-47920362Y-41250057D01*
X-47920362Y-41250057D02*
X-47729886Y-41297676D01*
X-47729886Y-41297676D02*
X-47539410Y-41250057D01*
X-47539410Y-41250057D02*
X-47396553Y-41154819D01*
X-47015600Y-41154819D02*
X-46682267Y-40154819D01*
X-46682267Y-40154819D02*
X-46348934Y-41154819D01*
X-46348934Y-41154819D02*
X-47015600Y-41154819D01*
X-46110838Y-40154819D02*
X-45491791Y-40154819D01*
X-45491791Y-40154819D02*
X-45825124Y-40535771D01*
X-45825124Y-40535771D02*
X-45682267Y-40535771D01*
X-45682267Y-40535771D02*
X-45587029Y-40583390D01*
X-45587029Y-40583390D02*
X-45539410Y-40631009D01*
X-45539410Y-40631009D02*
X-45491791Y-40726247D01*
X-45491791Y-40726247D02*
X-45491791Y-40964342D01*
X-45491791Y-40964342D02*
X-45539410Y-41059580D01*
X-45539410Y-41059580D02*
X-45587029Y-41107200D01*
X-45587029Y-41107200D02*
X-45682267Y-41154819D01*
X-45682267Y-41154819D02*
X-45967981Y-41154819D01*
X-45967981Y-41154819D02*
X-46063219Y-41107200D01*
X-46063219Y-41107200D02*
X-46110838Y-41059580D01*
X-44872743Y-40154819D02*
X-44777505Y-40154819D01*
X-44777505Y-40154819D02*
X-44682267Y-40202438D01*
X-44682267Y-40202438D02*
X-44634648Y-40250057D01*
X-44634648Y-40250057D02*
X-44587029Y-40345295D01*
X-44587029Y-40345295D02*
X-44539410Y-40535771D01*
X-44539410Y-40535771D02*
X-44539410Y-40773866D01*
X-44539410Y-40773866D02*
X-44587029Y-40964342D01*
X-44587029Y-40964342D02*
X-44634648Y-41059580D01*
X-44634648Y-41059580D02*
X-44682267Y-41107200D01*
X-44682267Y-41107200D02*
X-44777505Y-41154819D01*
X-44777505Y-41154819D02*
X-44872743Y-41154819D01*
X-44872743Y-41154819D02*
X-44967981Y-41107200D01*
X-44967981Y-41107200D02*
X-45015600Y-41059580D01*
X-45015600Y-41059580D02*
X-45063219Y-40964342D01*
X-45063219Y-40964342D02*
X-45110838Y-40773866D01*
X-45110838Y-40773866D02*
X-45110838Y-40535771D01*
X-45110838Y-40535771D02*
X-45063219Y-40345295D01*
X-45063219Y-40345295D02*
X-45015600Y-40250057D01*
X-45015600Y-40250057D02*
X-44967981Y-40202438D01*
X-44967981Y-40202438D02*
X-44872743Y-40154819D01*
X-43967981Y-40154819D02*
X-44063219Y-40202438D01*
X-44063219Y-40202438D02*
X-44110838Y-40297676D01*
X-44110838Y-40297676D02*
X-44063219Y-40392914D01*
X-44063219Y-40392914D02*
X-43967981Y-40440533D01*
X-43967981Y-40440533D02*
X-43872743Y-40392914D01*
X-43872743Y-40392914D02*
X-43825124Y-40297676D01*
X-43825124Y-40297676D02*
X-43872743Y-40202438D01*
X-43872743Y-40202438D02*
X-43967981Y-40154819D01*
X-42777505Y-41059580D02*
X-42825124Y-41107200D01*
X-42825124Y-41107200D02*
X-42967981Y-41154819D01*
X-42967981Y-41154819D02*
X-43063219Y-41154819D01*
X-43063219Y-41154819D02*
X-43206076Y-41107200D01*
X-43206076Y-41107200D02*
X-43301314Y-41011961D01*
X-43301314Y-41011961D02*
X-43348933Y-40916723D01*
X-43348933Y-40916723D02*
X-43396552Y-40726247D01*
X-43396552Y-40726247D02*
X-43396552Y-40583390D01*
X-43396552Y-40583390D02*
X-43348933Y-40392914D01*
X-43348933Y-40392914D02*
X-43301314Y-40297676D01*
X-43301314Y-40297676D02*
X-43206076Y-40202438D01*
X-43206076Y-40202438D02*
X-43063219Y-40154819D01*
X-43063219Y-40154819D02*
X-42967981Y-40154819D01*
X-42967981Y-40154819D02*
X-42825124Y-40202438D01*
X-42825124Y-40202438D02*
X-42777505Y-40250057D01*
X-64461904Y-21335771D02*
X-64509523Y-21288152D01*
X-64509523Y-21288152D02*
X-64604761Y-21145295D01*
X-64604761Y-21145295D02*
X-64652380Y-21050057D01*
X-64652380Y-21050057D02*
X-64699999Y-20907200D01*
X-64699999Y-20907200D02*
X-64747618Y-20669104D01*
X-64747618Y-20669104D02*
X-64747618Y-20478628D01*
X-64747618Y-20478628D02*
X-64699999Y-20240533D01*
X-64699999Y-20240533D02*
X-64652380Y-20097676D01*
X-64652380Y-20097676D02*
X-64604761Y-20002438D01*
X-64604761Y-20002438D02*
X-64509523Y-19859580D01*
X-64509523Y-19859580D02*
X-64461904Y-19811961D01*
X-64080951Y-20573866D02*
X-63319047Y-20573866D01*
X-62938094Y-21335771D02*
X-62890475Y-21288152D01*
X-62890475Y-21288152D02*
X-62795237Y-21145295D01*
X-62795237Y-21145295D02*
X-62747618Y-21050057D01*
X-62747618Y-21050057D02*
X-62699999Y-20907200D01*
X-62699999Y-20907200D02*
X-62652380Y-20669104D01*
X-62652380Y-20669104D02*
X-62652380Y-20478628D01*
X-62652380Y-20478628D02*
X-62699999Y-20240533D01*
X-62699999Y-20240533D02*
X-62747618Y-20097676D01*
X-62747618Y-20097676D02*
X-62795237Y-20002438D01*
X-62795237Y-20002438D02*
X-62890475Y-19859580D01*
X-62890475Y-19859580D02*
X-62938094Y-19811961D01*
X-64461904Y-26335771D02*
X-64509523Y-26288152D01*
X-64509523Y-26288152D02*
X-64604761Y-26145295D01*
X-64604761Y-26145295D02*
X-64652380Y-26050057D01*
X-64652380Y-26050057D02*
X-64699999Y-25907200D01*
X-64699999Y-25907200D02*
X-64747618Y-25669104D01*
X-64747618Y-25669104D02*
X-64747618Y-25478628D01*
X-64747618Y-25478628D02*
X-64699999Y-25240533D01*
X-64699999Y-25240533D02*
X-64652380Y-25097676D01*
X-64652380Y-25097676D02*
X-64604761Y-25002438D01*
X-64604761Y-25002438D02*
X-64509523Y-24859580D01*
X-64509523Y-24859580D02*
X-64461904Y-24811961D01*
X-64080951Y-25573866D02*
X-63319047Y-25573866D01*
X-63699999Y-25954819D02*
X-63699999Y-25192914D01*
X-62938094Y-26335771D02*
X-62890475Y-26288152D01*
X-62890475Y-26288152D02*
X-62795237Y-26145295D01*
X-62795237Y-26145295D02*
X-62747618Y-26050057D01*
X-62747618Y-26050057D02*
X-62699999Y-25907200D01*
X-62699999Y-25907200D02*
X-62652380Y-25669104D01*
X-62652380Y-25669104D02*
X-62652380Y-25478628D01*
X-62652380Y-25478628D02*
X-62699999Y-25240533D01*
X-62699999Y-25240533D02*
X-62747618Y-25097676D01*
X-62747618Y-25097676D02*
X-62795237Y-25002438D01*
X-62795237Y-25002438D02*
X-62890475Y-24859580D01*
X-62890475Y-24859580D02*
X-62938094Y-24811961D01*
X-54939942Y-35722238D02*
X-54987561Y-35817476D01*
X-54987561Y-35817476D02*
X-55082800Y-35912714D01*
X-55082800Y-35912714D02*
X-55225657Y-36055571D01*
X-55225657Y-36055571D02*
X-55273276Y-36150809D01*
X-55273276Y-36150809D02*
X-55273276Y-36246047D01*
X-55035180Y-36198428D02*
X-55082800Y-36293666D01*
X-55082800Y-36293666D02*
X-55178038Y-36388904D01*
X-55178038Y-36388904D02*
X-55368514Y-36436523D01*
X-55368514Y-36436523D02*
X-55701847Y-36436523D01*
X-55701847Y-36436523D02*
X-55892323Y-36388904D01*
X-55892323Y-36388904D02*
X-55987561Y-36293666D01*
X-55987561Y-36293666D02*
X-56035180Y-36198428D01*
X-56035180Y-36198428D02*
X-56035180Y-36007952D01*
X-56035180Y-36007952D02*
X-55987561Y-35912714D01*
X-55987561Y-35912714D02*
X-55892323Y-35817476D01*
X-55892323Y-35817476D02*
X-55701847Y-35769857D01*
X-55701847Y-35769857D02*
X-55368514Y-35769857D01*
X-55368514Y-35769857D02*
X-55178038Y-35817476D01*
X-55178038Y-35817476D02*
X-55082800Y-35912714D01*
X-55082800Y-35912714D02*
X-55035180Y-36007952D01*
X-55035180Y-36007952D02*
X-55035180Y-36198428D01*
X-55035180Y-34817476D02*
X-55035180Y-35388904D01*
X-55035180Y-35103190D02*
X-56035180Y-35103190D01*
X-56035180Y-35103190D02*
X-55892323Y-35198428D01*
X-55892323Y-35198428D02*
X-55797085Y-35293666D01*
X-55797085Y-35293666D02*
X-55749466Y-35388904D01*
X-41862800Y-35693332D02*
X-41815180Y-35550475D01*
X-41815180Y-35550475D02*
X-41815180Y-35312380D01*
X-41815180Y-35312380D02*
X-41862800Y-35217142D01*
X-41862800Y-35217142D02*
X-41910419Y-35169523D01*
X-41910419Y-35169523D02*
X-42005657Y-35121904D01*
X-42005657Y-35121904D02*
X-42100895Y-35121904D01*
X-42100895Y-35121904D02*
X-42196133Y-35169523D01*
X-42196133Y-35169523D02*
X-42243752Y-35217142D01*
X-42243752Y-35217142D02*
X-42291371Y-35312380D01*
X-42291371Y-35312380D02*
X-42338990Y-35502856D01*
X-42338990Y-35502856D02*
X-42386609Y-35598094D01*
X-42386609Y-35598094D02*
X-42434228Y-35645713D01*
X-42434228Y-35645713D02*
X-42529466Y-35693332D01*
X-42529466Y-35693332D02*
X-42624704Y-35693332D01*
X-42624704Y-35693332D02*
X-42719942Y-35645713D01*
X-42719942Y-35645713D02*
X-42767561Y-35598094D01*
X-42767561Y-35598094D02*
X-42815180Y-35502856D01*
X-42815180Y-35502856D02*
X-42815180Y-35264761D01*
X-42815180Y-35264761D02*
X-42767561Y-35121904D01*
X-42815180Y-34788570D02*
X-41815180Y-34550475D01*
X-41815180Y-34550475D02*
X-42529466Y-34359999D01*
X-42529466Y-34359999D02*
X-41815180Y-34169523D01*
X-41815180Y-34169523D02*
X-42815180Y-33931428D01*
X-41815180Y-33026666D02*
X-41815180Y-33598094D01*
X-41815180Y-33312380D02*
X-42815180Y-33312380D01*
X-42815180Y-33312380D02*
X-42672323Y-33407618D01*
X-42672323Y-33407618D02*
X-42577085Y-33502856D01*
X-42577085Y-33502856D02*
X-42529466Y-33598094D01*
X-63273808Y-16104819D02*
X-63273808Y-15104819D01*
X-63273808Y-15104819D02*
X-62940475Y-15819104D01*
X-62940475Y-15819104D02*
X-62607142Y-15104819D01*
X-62607142Y-15104819D02*
X-62607142Y-16104819D01*
X-62178570Y-15200057D02*
X-62130951Y-15152438D01*
X-62130951Y-15152438D02*
X-62035713Y-15104819D01*
X-62035713Y-15104819D02*
X-61797618Y-15104819D01*
X-61797618Y-15104819D02*
X-61702380Y-15152438D01*
X-61702380Y-15152438D02*
X-61654761Y-15200057D01*
X-61654761Y-15200057D02*
X-61607142Y-15295295D01*
X-61607142Y-15295295D02*
X-61607142Y-15390533D01*
X-61607142Y-15390533D02*
X-61654761Y-15533390D01*
X-61654761Y-15533390D02*
X-62226189Y-16104819D01*
X-62226189Y-16104819D02*
X-61607142Y-16104819D01*
X-61178570Y-16009580D02*
X-61130951Y-16057200D01*
X-61130951Y-16057200D02*
X-61178570Y-16104819D01*
X-61178570Y-16104819D02*
X-61226189Y-16057200D01*
X-61226189Y-16057200D02*
X-61178570Y-16009580D01*
X-61178570Y-16009580D02*
X-61178570Y-16104819D01*
X-60226190Y-15104819D02*
X-60702380Y-15104819D01*
X-60702380Y-15104819D02*
X-60749999Y-15581009D01*
X-60749999Y-15581009D02*
X-60702380Y-15533390D01*
X-60702380Y-15533390D02*
X-60607142Y-15485771D01*
X-60607142Y-15485771D02*
X-60369047Y-15485771D01*
X-60369047Y-15485771D02*
X-60273809Y-15533390D01*
X-60273809Y-15533390D02*
X-60226190Y-15581009D01*
X-60226190Y-15581009D02*
X-60178571Y-15676247D01*
X-60178571Y-15676247D02*
X-60178571Y-15914342D01*
X-60178571Y-15914342D02*
X-60226190Y-16009580D01*
X-60226190Y-16009580D02*
X-60273809Y-16057200D01*
X-60273809Y-16057200D02*
X-60369047Y-16104819D01*
X-60369047Y-16104819D02*
X-60607142Y-16104819D01*
X-60607142Y-16104819D02*
X-60702380Y-16057200D01*
X-60702380Y-16057200D02*
X-60749999Y-16009580D01*
X-36577561Y-9034398D02*
X-36625180Y-9129636D01*
X-36625180Y-9129636D02*
X-36625180Y-9272493D01*
X-36625180Y-9272493D02*
X-36577561Y-9415350D01*
X-36577561Y-9415350D02*
X-36482323Y-9510588D01*
X-36482323Y-9510588D02*
X-36387085Y-9558207D01*
X-36387085Y-9558207D02*
X-36196609Y-9605826D01*
X-36196609Y-9605826D02*
X-36053752Y-9605826D01*
X-36053752Y-9605826D02*
X-35863276Y-9558207D01*
X-35863276Y-9558207D02*
X-35768038Y-9510588D01*
X-35768038Y-9510588D02*
X-35672800Y-9415350D01*
X-35672800Y-9415350D02*
X-35625180Y-9272493D01*
X-35625180Y-9272493D02*
X-35625180Y-9177255D01*
X-35625180Y-9177255D02*
X-35672800Y-9034398D01*
X-35672800Y-9034398D02*
X-35720419Y-8986779D01*
X-35720419Y-8986779D02*
X-36053752Y-8986779D01*
X-36053752Y-8986779D02*
X-36053752Y-9177255D01*
X-35625180Y-8558207D02*
X-36625180Y-8558207D01*
X-36625180Y-8558207D02*
X-35625180Y-7986779D01*
X-35625180Y-7986779D02*
X-36625180Y-7986779D01*
X-35625180Y-7510588D02*
X-36625180Y-7510588D01*
X-36625180Y-7510588D02*
X-36625180Y-7272493D01*
X-36625180Y-7272493D02*
X-36577561Y-7129636D01*
X-36577561Y-7129636D02*
X-36482323Y-7034398D01*
X-36482323Y-7034398D02*
X-36387085Y-6986779D01*
X-36387085Y-6986779D02*
X-36196609Y-6939160D01*
X-36196609Y-6939160D02*
X-36053752Y-6939160D01*
X-36053752Y-6939160D02*
X-35863276Y-6986779D01*
X-35863276Y-6986779D02*
X-35768038Y-7034398D01*
X-35768038Y-7034398D02*
X-35672800Y-7129636D01*
X-35672800Y-7129636D02*
X-35625180Y-7272493D01*
X-35625180Y-7272493D02*
X-35625180Y-7510588D01*
X-40475180Y-20543220D02*
X-39665657Y-20543220D01*
X-39665657Y-20543220D02*
X-39570419Y-20495601D01*
X-39570419Y-20495601D02*
X-39522800Y-20447982D01*
X-39522800Y-20447982D02*
X-39475180Y-20352744D01*
X-39475180Y-20352744D02*
X-39475180Y-20162268D01*
X-39475180Y-20162268D02*
X-39522800Y-20067030D01*
X-39522800Y-20067030D02*
X-39570419Y-20019411D01*
X-39570419Y-20019411D02*
X-39665657Y-19971792D01*
X-39665657Y-19971792D02*
X-40475180Y-19971792D01*
X-39522800Y-19543220D02*
X-39475180Y-19400363D01*
X-39475180Y-19400363D02*
X-39475180Y-19162268D01*
X-39475180Y-19162268D02*
X-39522800Y-19067030D01*
X-39522800Y-19067030D02*
X-39570419Y-19019411D01*
X-39570419Y-19019411D02*
X-39665657Y-18971792D01*
X-39665657Y-18971792D02*
X-39760895Y-18971792D01*
X-39760895Y-18971792D02*
X-39856133Y-19019411D01*
X-39856133Y-19019411D02*
X-39903752Y-19067030D01*
X-39903752Y-19067030D02*
X-39951371Y-19162268D01*
X-39951371Y-19162268D02*
X-39998990Y-19352744D01*
X-39998990Y-19352744D02*
X-40046609Y-19447982D01*
X-40046609Y-19447982D02*
X-40094228Y-19495601D01*
X-40094228Y-19495601D02*
X-40189466Y-19543220D01*
X-40189466Y-19543220D02*
X-40284704Y-19543220D01*
X-40284704Y-19543220D02*
X-40379942Y-19495601D01*
X-40379942Y-19495601D02*
X-40427561Y-19447982D01*
X-40427561Y-19447982D02*
X-40475180Y-19352744D01*
X-40475180Y-19352744D02*
X-40475180Y-19114649D01*
X-40475180Y-19114649D02*
X-40427561Y-18971792D01*
X-39998990Y-18209887D02*
X-39951371Y-18067030D01*
X-39951371Y-18067030D02*
X-39903752Y-18019411D01*
X-39903752Y-18019411D02*
X-39808514Y-17971792D01*
X-39808514Y-17971792D02*
X-39665657Y-17971792D01*
X-39665657Y-17971792D02*
X-39570419Y-18019411D01*
X-39570419Y-18019411D02*
X-39522800Y-18067030D01*
X-39522800Y-18067030D02*
X-39475180Y-18162268D01*
X-39475180Y-18162268D02*
X-39475180Y-18543220D01*
X-39475180Y-18543220D02*
X-40475180Y-18543220D01*
X-40475180Y-18543220D02*
X-40475180Y-18209887D01*
X-40475180Y-18209887D02*
X-40427561Y-18114649D01*
X-40427561Y-18114649D02*
X-40379942Y-18067030D01*
X-40379942Y-18067030D02*
X-40284704Y-18019411D01*
X-40284704Y-18019411D02*
X-40189466Y-18019411D01*
X-40189466Y-18019411D02*
X-40094228Y-18067030D01*
X-40094228Y-18067030D02*
X-40046609Y-18114649D01*
X-40046609Y-18114649D02*
X-39998990Y-18209887D01*
X-39998990Y-18209887D02*
X-39998990Y-18543220D01*
X-39570419Y-16971792D02*
X-39522800Y-17019411D01*
X-39522800Y-17019411D02*
X-39475180Y-17162268D01*
X-39475180Y-17162268D02*
X-39475180Y-17257506D01*
X-39475180Y-17257506D02*
X-39522800Y-17400363D01*
X-39522800Y-17400363D02*
X-39618038Y-17495601D01*
X-39618038Y-17495601D02*
X-39713276Y-17543220D01*
X-39713276Y-17543220D02*
X-39903752Y-17590839D01*
X-39903752Y-17590839D02*
X-40046609Y-17590839D01*
X-40046609Y-17590839D02*
X-40237085Y-17543220D01*
X-40237085Y-17543220D02*
X-40332323Y-17495601D01*
X-40332323Y-17495601D02*
X-40427561Y-17400363D01*
X-40427561Y-17400363D02*
X-40475180Y-17257506D01*
X-40475180Y-17257506D02*
X-40475180Y-17162268D01*
X-40475180Y-17162268D02*
X-40427561Y-17019411D01*
X-40427561Y-17019411D02*
X-40379942Y-16971792D01*
X-34115180Y-15823921D02*
X-34115180Y-15204874D01*
X-34115180Y-15204874D02*
X-33734228Y-15538207D01*
X-33734228Y-15538207D02*
X-33734228Y-15395350D01*
X-33734228Y-15395350D02*
X-33686609Y-15300112D01*
X-33686609Y-15300112D02*
X-33638990Y-15252493D01*
X-33638990Y-15252493D02*
X-33543752Y-15204874D01*
X-33543752Y-15204874D02*
X-33305657Y-15204874D01*
X-33305657Y-15204874D02*
X-33210419Y-15252493D01*
X-33210419Y-15252493D02*
X-33162800Y-15300112D01*
X-33162800Y-15300112D02*
X-33115180Y-15395350D01*
X-33115180Y-15395350D02*
X-33115180Y-15681064D01*
X-33115180Y-15681064D02*
X-33162800Y-15776302D01*
X-33162800Y-15776302D02*
X-33210419Y-15823921D01*
X-33210419Y-14776302D02*
X-33162800Y-14728683D01*
X-33162800Y-14728683D02*
X-33115180Y-14776302D01*
X-33115180Y-14776302D02*
X-33162800Y-14823921D01*
X-33162800Y-14823921D02*
X-33210419Y-14776302D01*
X-33210419Y-14776302D02*
X-33115180Y-14776302D01*
X-34115180Y-14395350D02*
X-34115180Y-13776303D01*
X-34115180Y-13776303D02*
X-33734228Y-14109636D01*
X-33734228Y-14109636D02*
X-33734228Y-13966779D01*
X-33734228Y-13966779D02*
X-33686609Y-13871541D01*
X-33686609Y-13871541D02*
X-33638990Y-13823922D01*
X-33638990Y-13823922D02*
X-33543752Y-13776303D01*
X-33543752Y-13776303D02*
X-33305657Y-13776303D01*
X-33305657Y-13776303D02*
X-33210419Y-13823922D01*
X-33210419Y-13823922D02*
X-33162800Y-13871541D01*
X-33162800Y-13871541D02*
X-33115180Y-13966779D01*
X-33115180Y-13966779D02*
X-33115180Y-14252493D01*
X-33115180Y-14252493D02*
X-33162800Y-14347731D01*
X-33162800Y-14347731D02*
X-33210419Y-14395350D01*
X-34115180Y-13490588D02*
X-33115180Y-13157255D01*
X-33115180Y-13157255D02*
X-34115180Y-12823922D01*
X-69881009Y-9990476D02*
X-69928628Y-10133333D01*
X-69928628Y-10133333D02*
X-69976247Y-10180952D01*
X-69976247Y-10180952D02*
X-70071485Y-10228571D01*
X-70071485Y-10228571D02*
X-70214342Y-10228571D01*
X-70214342Y-10228571D02*
X-70309580Y-10180952D01*
X-70309580Y-10180952D02*
X-70357200Y-10133333D01*
X-70357200Y-10133333D02*
X-70404819Y-10038095D01*
X-70404819Y-10038095D02*
X-70404819Y-9657143D01*
X-70404819Y-9657143D02*
X-69404819Y-9657143D01*
X-69404819Y-9657143D02*
X-69404819Y-9990476D01*
X-69404819Y-9990476D02*
X-69452438Y-10085714D01*
X-69452438Y-10085714D02*
X-69500057Y-10133333D01*
X-69500057Y-10133333D02*
X-69595295Y-10180952D01*
X-69595295Y-10180952D02*
X-69690533Y-10180952D01*
X-69690533Y-10180952D02*
X-69785771Y-10133333D01*
X-69785771Y-10133333D02*
X-69833390Y-10085714D01*
X-69833390Y-10085714D02*
X-69881009Y-9990476D01*
X-69881009Y-9990476D02*
X-69881009Y-9657143D01*
X-69404819Y-10514286D02*
X-69404819Y-11085714D01*
X-70404819Y-10800000D02*
X-69404819Y-10800000D01*
X-70404819Y-11419048D02*
X-69404819Y-11419048D01*
X-69404819Y-11419048D02*
X-70404819Y-11990476D01*
X-70404819Y-11990476D02*
X-69404819Y-11990476D01*
X-70404819Y-12990476D02*
X-70404819Y-12419048D01*
X-70404819Y-12704762D02*
X-69404819Y-12704762D01*
X-69404819Y-12704762D02*
X-69547676Y-12609524D01*
X-69547676Y-12609524D02*
X-69642914Y-12514286D01*
X-69642914Y-12514286D02*
X-69690533Y-12419048D01*
X-65523808Y-41154819D02*
X-65523808Y-40154819D01*
X-65523808Y-40154819D02*
X-65190475Y-40869104D01*
X-65190475Y-40869104D02*
X-64857142Y-40154819D01*
X-64857142Y-40154819D02*
X-64857142Y-41154819D01*
X-64428570Y-40250057D02*
X-64380951Y-40202438D01*
X-64380951Y-40202438D02*
X-64285713Y-40154819D01*
X-64285713Y-40154819D02*
X-64047618Y-40154819D01*
X-64047618Y-40154819D02*
X-63952380Y-40202438D01*
X-63952380Y-40202438D02*
X-63904761Y-40250057D01*
X-63904761Y-40250057D02*
X-63857142Y-40345295D01*
X-63857142Y-40345295D02*
X-63857142Y-40440533D01*
X-63857142Y-40440533D02*
X-63904761Y-40583390D01*
X-63904761Y-40583390D02*
X-64476189Y-41154819D01*
X-64476189Y-41154819D02*
X-63857142Y-41154819D01*
X-63428570Y-41059580D02*
X-63380951Y-41107200D01*
X-63380951Y-41107200D02*
X-63428570Y-41154819D01*
X-63428570Y-41154819D02*
X-63476189Y-41107200D01*
X-63476189Y-41107200D02*
X-63428570Y-41059580D01*
X-63428570Y-41059580D02*
X-63428570Y-41154819D01*
X-62476190Y-40154819D02*
X-62952380Y-40154819D01*
X-62952380Y-40154819D02*
X-62999999Y-40631009D01*
X-62999999Y-40631009D02*
X-62952380Y-40583390D01*
X-62952380Y-40583390D02*
X-62857142Y-40535771D01*
X-62857142Y-40535771D02*
X-62619047Y-40535771D01*
X-62619047Y-40535771D02*
X-62523809Y-40583390D01*
X-62523809Y-40583390D02*
X-62476190Y-40631009D01*
X-62476190Y-40631009D02*
X-62428571Y-40726247D01*
X-62428571Y-40726247D02*
X-62428571Y-40964342D01*
X-62428571Y-40964342D02*
X-62476190Y-41059580D01*
X-62476190Y-41059580D02*
X-62523809Y-41107200D01*
X-62523809Y-41107200D02*
X-62619047Y-41154819D01*
X-62619047Y-41154819D02*
X-62857142Y-41154819D01*
X-62857142Y-41154819D02*
X-62952380Y-41107200D01*
X-62952380Y-41107200D02*
X-62999999Y-41059580D01*
X-22923808Y-34454819D02*
X-22923808Y-33454819D01*
X-22923808Y-33454819D02*
X-22590475Y-34169104D01*
X-22590475Y-34169104D02*
X-22257142Y-33454819D01*
X-22257142Y-33454819D02*
X-22257142Y-34454819D01*
X-21828570Y-33550057D02*
X-21780951Y-33502438D01*
X-21780951Y-33502438D02*
X-21685713Y-33454819D01*
X-21685713Y-33454819D02*
X-21447618Y-33454819D01*
X-21447618Y-33454819D02*
X-21352380Y-33502438D01*
X-21352380Y-33502438D02*
X-21304761Y-33550057D01*
X-21304761Y-33550057D02*
X-21257142Y-33645295D01*
X-21257142Y-33645295D02*
X-21257142Y-33740533D01*
X-21257142Y-33740533D02*
X-21304761Y-33883390D01*
X-21304761Y-33883390D02*
X-21876189Y-34454819D01*
X-21876189Y-34454819D02*
X-21257142Y-34454819D01*
X-20828570Y-34359580D02*
X-20780951Y-34407200D01*
X-20780951Y-34407200D02*
X-20828570Y-34454819D01*
X-20828570Y-34454819D02*
X-20876189Y-34407200D01*
X-20876189Y-34407200D02*
X-20828570Y-34359580D01*
X-20828570Y-34359580D02*
X-20828570Y-34454819D01*
X-19876190Y-33454819D02*
X-20352380Y-33454819D01*
X-20352380Y-33454819D02*
X-20399999Y-33931009D01*
X-20399999Y-33931009D02*
X-20352380Y-33883390D01*
X-20352380Y-33883390D02*
X-20257142Y-33835771D01*
X-20257142Y-33835771D02*
X-20019047Y-33835771D01*
X-20019047Y-33835771D02*
X-19923809Y-33883390D01*
X-19923809Y-33883390D02*
X-19876190Y-33931009D01*
X-19876190Y-33931009D02*
X-19828571Y-34026247D01*
X-19828571Y-34026247D02*
X-19828571Y-34264342D01*
X-19828571Y-34264342D02*
X-19876190Y-34359580D01*
X-19876190Y-34359580D02*
X-19923809Y-34407200D01*
X-19923809Y-34407200D02*
X-20019047Y-34454819D01*
X-20019047Y-34454819D02*
X-20257142Y-34454819D01*
X-20257142Y-34454819D02*
X-20352380Y-34407200D01*
X-20352380Y-34407200D02*
X-20399999Y-34359580D01*
X-20507200Y-29238095D02*
X-20554819Y-29380952D01*
X-20554819Y-29380952D02*
X-20554819Y-29619047D01*
X-20554819Y-29619047D02*
X-20507200Y-29714285D01*
X-20507200Y-29714285D02*
X-20459580Y-29761904D01*
X-20459580Y-29761904D02*
X-20364342Y-29809523D01*
X-20364342Y-29809523D02*
X-20269104Y-29809523D01*
X-20269104Y-29809523D02*
X-20173866Y-29761904D01*
X-20173866Y-29761904D02*
X-20126247Y-29714285D01*
X-20126247Y-29714285D02*
X-20078628Y-29619047D01*
X-20078628Y-29619047D02*
X-20031009Y-29428571D01*
X-20031009Y-29428571D02*
X-19983390Y-29333333D01*
X-19983390Y-29333333D02*
X-19935771Y-29285714D01*
X-19935771Y-29285714D02*
X-19840533Y-29238095D01*
X-19840533Y-29238095D02*
X-19745295Y-29238095D01*
X-19745295Y-29238095D02*
X-19650057Y-29285714D01*
X-19650057Y-29285714D02*
X-19602438Y-29333333D01*
X-19602438Y-29333333D02*
X-19554819Y-29428571D01*
X-19554819Y-29428571D02*
X-19554819Y-29666666D01*
X-19554819Y-29666666D02*
X-19602438Y-29809523D01*
X-20554819Y-30761904D02*
X-20554819Y-30190476D01*
X-20554819Y-30476190D02*
X-19554819Y-30476190D01*
X-19554819Y-30476190D02*
X-19697676Y-30380952D01*
X-19697676Y-30380952D02*
X-19792914Y-30285714D01*
X-19792914Y-30285714D02*
X-19840533Y-30190476D01*
X-14454819Y-26759523D02*
X-13978628Y-26426190D01*
X-14454819Y-26188095D02*
X-13454819Y-26188095D01*
X-13454819Y-26188095D02*
X-13454819Y-26569047D01*
X-13454819Y-26569047D02*
X-13502438Y-26664285D01*
X-13502438Y-26664285D02*
X-13550057Y-26711904D01*
X-13550057Y-26711904D02*
X-13645295Y-26759523D01*
X-13645295Y-26759523D02*
X-13788152Y-26759523D01*
X-13788152Y-26759523D02*
X-13883390Y-26711904D01*
X-13883390Y-26711904D02*
X-13931009Y-26664285D01*
X-13931009Y-26664285D02*
X-13978628Y-26569047D01*
X-13978628Y-26569047D02*
X-13978628Y-26188095D01*
X-14359580Y-27759523D02*
X-14407200Y-27711904D01*
X-14407200Y-27711904D02*
X-14454819Y-27569047D01*
X-14454819Y-27569047D02*
X-14454819Y-27473809D01*
X-14454819Y-27473809D02*
X-14407200Y-27330952D01*
X-14407200Y-27330952D02*
X-14311961Y-27235714D01*
X-14311961Y-27235714D02*
X-14216723Y-27188095D01*
X-14216723Y-27188095D02*
X-14026247Y-27140476D01*
X-14026247Y-27140476D02*
X-13883390Y-27140476D01*
X-13883390Y-27140476D02*
X-13692914Y-27188095D01*
X-13692914Y-27188095D02*
X-13597676Y-27235714D01*
X-13597676Y-27235714D02*
X-13502438Y-27330952D01*
X-13502438Y-27330952D02*
X-13454819Y-27473809D01*
X-13454819Y-27473809D02*
X-13454819Y-27569047D01*
X-13454819Y-27569047D02*
X-13502438Y-27711904D01*
X-13502438Y-27711904D02*
X-13550057Y-27759523D01*
X-13454819Y-28092857D02*
X-14454819Y-28330952D01*
X-14454819Y-28330952D02*
X-13740533Y-28521428D01*
X-13740533Y-28521428D02*
X-14454819Y-28711904D01*
X-14454819Y-28711904D02*
X-13454819Y-28950000D01*
X-14454819Y-29807142D02*
X-14454819Y-29330952D01*
X-14454819Y-29330952D02*
X-13454819Y-29330952D01*
X-14073866Y-30140476D02*
X-14073866Y-30902381D01*
X-14454819Y-31902380D02*
X-14454819Y-31330952D01*
X-14454819Y-31616666D02*
X-13454819Y-31616666D01*
X-13454819Y-31616666D02*
X-13597676Y-31521428D01*
X-13597676Y-31521428D02*
X-13692914Y-31426190D01*
X-13692914Y-31426190D02*
X-13740533Y-31330952D01*
X-13454819Y-32759523D02*
X-13454819Y-32569047D01*
X-13454819Y-32569047D02*
X-13502438Y-32473809D01*
X-13502438Y-32473809D02*
X-13550057Y-32426190D01*
X-13550057Y-32426190D02*
X-13692914Y-32330952D01*
X-13692914Y-32330952D02*
X-13883390Y-32283333D01*
X-13883390Y-32283333D02*
X-14264342Y-32283333D01*
X-14264342Y-32283333D02*
X-14359580Y-32330952D01*
X-14359580Y-32330952D02*
X-14407200Y-32378571D01*
X-14407200Y-32378571D02*
X-14454819Y-32473809D01*
X-14454819Y-32473809D02*
X-14454819Y-32664285D01*
X-14454819Y-32664285D02*
X-14407200Y-32759523D01*
X-14407200Y-32759523D02*
X-14359580Y-32807142D01*
X-14359580Y-32807142D02*
X-14264342Y-32854761D01*
X-14264342Y-32854761D02*
X-14026247Y-32854761D01*
X-14026247Y-32854761D02*
X-13931009Y-32807142D01*
X-13931009Y-32807142D02*
X-13883390Y-32759523D01*
X-13883390Y-32759523D02*
X-13835771Y-32664285D01*
X-13835771Y-32664285D02*
X-13835771Y-32473809D01*
X-13835771Y-32473809D02*
X-13883390Y-32378571D01*
X-13883390Y-32378571D02*
X-13931009Y-32330952D01*
X-13931009Y-32330952D02*
X-14026247Y-32283333D01*
X-13454819Y-33473809D02*
X-13454819Y-33569047D01*
X-13454819Y-33569047D02*
X-13502438Y-33664285D01*
X-13502438Y-33664285D02*
X-13550057Y-33711904D01*
X-13550057Y-33711904D02*
X-13645295Y-33759523D01*
X-13645295Y-33759523D02*
X-13835771Y-33807142D01*
X-13835771Y-33807142D02*
X-14073866Y-33807142D01*
X-14073866Y-33807142D02*
X-14264342Y-33759523D01*
X-14264342Y-33759523D02*
X-14359580Y-33711904D01*
X-14359580Y-33711904D02*
X-14407200Y-33664285D01*
X-14407200Y-33664285D02*
X-14454819Y-33569047D01*
X-14454819Y-33569047D02*
X-14454819Y-33473809D01*
X-14454819Y-33473809D02*
X-14407200Y-33378571D01*
X-14407200Y-33378571D02*
X-14359580Y-33330952D01*
X-14359580Y-33330952D02*
X-14264342Y-33283333D01*
X-14264342Y-33283333D02*
X-14073866Y-33235714D01*
X-14073866Y-33235714D02*
X-13835771Y-33235714D01*
X-13835771Y-33235714D02*
X-13645295Y-33283333D01*
X-13645295Y-33283333D02*
X-13550057Y-33330952D01*
X-13550057Y-33330952D02*
X-13502438Y-33378571D01*
X-13502438Y-33378571D02*
X-13454819Y-33473809D01*
X-14454819Y-34759523D02*
X-14454819Y-34188095D01*
X-14454819Y-34473809D02*
X-13454819Y-34473809D01*
X-13454819Y-34473809D02*
X-13597676Y-34378571D01*
X-13597676Y-34378571D02*
X-13692914Y-34283333D01*
X-13692914Y-34283333D02*
X-13740533Y-34188095D01*
X-23661808Y-7184819D02*
X-23661808Y-6184819D01*
X-23661808Y-6184819D02*
X-23328475Y-6899104D01*
X-23328475Y-6899104D02*
X-22995142Y-6184819D01*
X-22995142Y-6184819D02*
X-22995142Y-7184819D01*
X-22566570Y-6280057D02*
X-22518951Y-6232438D01*
X-22518951Y-6232438D02*
X-22423713Y-6184819D01*
X-22423713Y-6184819D02*
X-22185618Y-6184819D01*
X-22185618Y-6184819D02*
X-22090380Y-6232438D01*
X-22090380Y-6232438D02*
X-22042761Y-6280057D01*
X-22042761Y-6280057D02*
X-21995142Y-6375295D01*
X-21995142Y-6375295D02*
X-21995142Y-6470533D01*
X-21995142Y-6470533D02*
X-22042761Y-6613390D01*
X-22042761Y-6613390D02*
X-22614189Y-7184819D01*
X-22614189Y-7184819D02*
X-21995142Y-7184819D01*
X-21566570Y-7089580D02*
X-21518951Y-7137200D01*
X-21518951Y-7137200D02*
X-21566570Y-7184819D01*
X-21566570Y-7184819D02*
X-21614189Y-7137200D01*
X-21614189Y-7137200D02*
X-21566570Y-7089580D01*
X-21566570Y-7089580D02*
X-21566570Y-7184819D01*
X-20614190Y-6184819D02*
X-21090380Y-6184819D01*
X-21090380Y-6184819D02*
X-21137999Y-6661009D01*
X-21137999Y-6661009D02*
X-21090380Y-6613390D01*
X-21090380Y-6613390D02*
X-20995142Y-6565771D01*
X-20995142Y-6565771D02*
X-20757047Y-6565771D01*
X-20757047Y-6565771D02*
X-20661809Y-6613390D01*
X-20661809Y-6613390D02*
X-20614190Y-6661009D01*
X-20614190Y-6661009D02*
X-20566571Y-6756247D01*
X-20566571Y-6756247D02*
X-20566571Y-6994342D01*
X-20566571Y-6994342D02*
X-20614190Y-7089580D01*
X-20614190Y-7089580D02*
X-20661809Y-7137200D01*
X-20661809Y-7137200D02*
X-20757047Y-7184819D01*
X-20757047Y-7184819D02*
X-20995142Y-7184819D01*
X-20995142Y-7184819D02*
X-21090380Y-7137200D01*
X-21090380Y-7137200D02*
X-21137999Y-7089580D01*
X-65077905Y-9296819D02*
X-65077905Y-8296819D01*
X-65077905Y-8296819D02*
X-64696953Y-8296819D01*
X-64696953Y-8296819D02*
X-64601715Y-8344438D01*
X-64601715Y-8344438D02*
X-64554096Y-8392057D01*
X-64554096Y-8392057D02*
X-64506477Y-8487295D01*
X-64506477Y-8487295D02*
X-64506477Y-8630152D01*
X-64506477Y-8630152D02*
X-64554096Y-8725390D01*
X-64554096Y-8725390D02*
X-64601715Y-8773009D01*
X-64601715Y-8773009D02*
X-64696953Y-8820628D01*
X-64696953Y-8820628D02*
X-65077905Y-8820628D01*
X-63935048Y-9296819D02*
X-64030286Y-9249200D01*
X-64030286Y-9249200D02*
X-64077905Y-9201580D01*
X-64077905Y-9201580D02*
X-64125524Y-9106342D01*
X-64125524Y-9106342D02*
X-64125524Y-8820628D01*
X-64125524Y-8820628D02*
X-64077905Y-8725390D01*
X-64077905Y-8725390D02*
X-64030286Y-8677771D01*
X-64030286Y-8677771D02*
X-63935048Y-8630152D01*
X-63935048Y-8630152D02*
X-63792191Y-8630152D01*
X-63792191Y-8630152D02*
X-63696953Y-8677771D01*
X-63696953Y-8677771D02*
X-63649334Y-8725390D01*
X-63649334Y-8725390D02*
X-63601715Y-8820628D01*
X-63601715Y-8820628D02*
X-63601715Y-9106342D01*
X-63601715Y-9106342D02*
X-63649334Y-9201580D01*
X-63649334Y-9201580D02*
X-63696953Y-9249200D01*
X-63696953Y-9249200D02*
X-63792191Y-9296819D01*
X-63792191Y-9296819D02*
X-63935048Y-9296819D01*
X-63030286Y-9296819D02*
X-63125524Y-9249200D01*
X-63125524Y-9249200D02*
X-63173143Y-9153961D01*
X-63173143Y-9153961D02*
X-63173143Y-8296819D01*
X-62506476Y-9296819D02*
X-62601714Y-9249200D01*
X-62601714Y-9249200D02*
X-62649333Y-9201580D01*
X-62649333Y-9201580D02*
X-62696952Y-9106342D01*
X-62696952Y-9106342D02*
X-62696952Y-8820628D01*
X-62696952Y-8820628D02*
X-62649333Y-8725390D01*
X-62649333Y-8725390D02*
X-62601714Y-8677771D01*
X-62601714Y-8677771D02*
X-62506476Y-8630152D01*
X-62506476Y-8630152D02*
X-62363619Y-8630152D01*
X-62363619Y-8630152D02*
X-62268381Y-8677771D01*
X-62268381Y-8677771D02*
X-62220762Y-8725390D01*
X-62220762Y-8725390D02*
X-62173143Y-8820628D01*
X-62173143Y-8820628D02*
X-62173143Y-9106342D01*
X-62173143Y-9106342D02*
X-62220762Y-9201580D01*
X-62220762Y-9201580D02*
X-62268381Y-9249200D01*
X-62268381Y-9249200D02*
X-62363619Y-9296819D01*
X-62363619Y-9296819D02*
X-62506476Y-9296819D01*
X-61601714Y-9296819D02*
X-61696952Y-9249200D01*
X-61696952Y-9249200D02*
X-61744571Y-9153961D01*
X-61744571Y-9153961D02*
X-61744571Y-8296819D01*
X-60792190Y-8630152D02*
X-60792190Y-9296819D01*
X-61220761Y-8630152D02*
X-61220761Y-9153961D01*
X-61220761Y-9153961D02*
X-61173142Y-9249200D01*
X-61173142Y-9249200D02*
X-61077904Y-9296819D01*
X-61077904Y-9296819D02*
X-60935047Y-9296819D01*
X-60935047Y-9296819D02*
X-60839809Y-9249200D01*
X-60839809Y-9249200D02*
X-60792190Y-9201580D01*
X-59554094Y-9296819D02*
X-59554094Y-8296819D01*
X-59554094Y-8296819D02*
X-59315999Y-8296819D01*
X-59315999Y-8296819D02*
X-59173142Y-8344438D01*
X-59173142Y-8344438D02*
X-59077904Y-8439676D01*
X-59077904Y-8439676D02*
X-59030285Y-8534914D01*
X-59030285Y-8534914D02*
X-58982666Y-8725390D01*
X-58982666Y-8725390D02*
X-58982666Y-8868247D01*
X-58982666Y-8868247D02*
X-59030285Y-9058723D01*
X-59030285Y-9058723D02*
X-59077904Y-9153961D01*
X-59077904Y-9153961D02*
X-59173142Y-9249200D01*
X-59173142Y-9249200D02*
X-59315999Y-9296819D01*
X-59315999Y-9296819D02*
X-59554094Y-9296819D01*
X-58601713Y-8392057D02*
X-58554094Y-8344438D01*
X-58554094Y-8344438D02*
X-58458856Y-8296819D01*
X-58458856Y-8296819D02*
X-58220761Y-8296819D01*
X-58220761Y-8296819D02*
X-58125523Y-8344438D01*
X-58125523Y-8344438D02*
X-58077904Y-8392057D01*
X-58077904Y-8392057D02*
X-58030285Y-8487295D01*
X-58030285Y-8487295D02*
X-58030285Y-8582533D01*
X-58030285Y-8582533D02*
X-58077904Y-8725390D01*
X-58077904Y-8725390D02*
X-58649332Y-9296819D01*
X-58649332Y-9296819D02*
X-58030285Y-9296819D01*
X-57173142Y-8630152D02*
X-57173142Y-9296819D01*
X-57411237Y-8249200D02*
X-57649332Y-8963485D01*
X-57649332Y-8963485D02*
X-57030285Y-8963485D01*
X-56792189Y-8296819D02*
X-56458856Y-9296819D01*
X-56458856Y-9296819D02*
X-56125523Y-8296819D01*
X-55268380Y-9296819D02*
X-55839808Y-9296819D01*
X-55554094Y-9296819D02*
X-55554094Y-8296819D01*
X-55554094Y-8296819D02*
X-55649332Y-8439676D01*
X-55649332Y-8439676D02*
X-55744570Y-8534914D01*
X-55744570Y-8534914D02*
X-55839808Y-8582533D01*
X-54649332Y-8296819D02*
X-54554094Y-8296819D01*
X-54554094Y-8296819D02*
X-54458856Y-8344438D01*
X-54458856Y-8344438D02*
X-54411237Y-8392057D01*
X-54411237Y-8392057D02*
X-54363618Y-8487295D01*
X-54363618Y-8487295D02*
X-54315999Y-8677771D01*
X-54315999Y-8677771D02*
X-54315999Y-8915866D01*
X-54315999Y-8915866D02*
X-54363618Y-9106342D01*
X-54363618Y-9106342D02*
X-54411237Y-9201580D01*
X-54411237Y-9201580D02*
X-54458856Y-9249200D01*
X-54458856Y-9249200D02*
X-54554094Y-9296819D01*
X-54554094Y-9296819D02*
X-54649332Y-9296819D01*
X-54649332Y-9296819D02*
X-54744570Y-9249200D01*
X-54744570Y-9249200D02*
X-54792189Y-9201580D01*
X-54792189Y-9201580D02*
X-54839808Y-9106342D01*
X-54839808Y-9106342D02*
X-54887427Y-8915866D01*
X-54887427Y-8915866D02*
X-54887427Y-8677771D01*
X-54887427Y-8677771D02*
X-54839808Y-8487295D01*
X-54839808Y-8487295D02*
X-54792189Y-8392057D01*
X-54792189Y-8392057D02*
X-54744570Y-8344438D01*
X-54744570Y-8344438D02*
X-54649332Y-8296819D01*
X-53554094Y-8773009D02*
X-53887427Y-8773009D01*
X-53887427Y-9296819D02*
X-53887427Y-8296819D01*
X-53887427Y-8296819D02*
X-53411237Y-8296819D01*
X-52554094Y-8296819D02*
X-53030284Y-8296819D01*
X-53030284Y-8296819D02*
X-53077903Y-8773009D01*
X-53077903Y-8773009D02*
X-53030284Y-8725390D01*
X-53030284Y-8725390D02*
X-52935046Y-8677771D01*
X-52935046Y-8677771D02*
X-52696951Y-8677771D01*
X-52696951Y-8677771D02*
X-52601713Y-8725390D01*
X-52601713Y-8725390D02*
X-52554094Y-8773009D01*
X-52554094Y-8773009D02*
X-52506475Y-8868247D01*
X-52506475Y-8868247D02*
X-52506475Y-9106342D01*
X-52506475Y-9106342D02*
X-52554094Y-9201580D01*
X-52554094Y-9201580D02*
X-52601713Y-9249200D01*
X-52601713Y-9249200D02*
X-52696951Y-9296819D01*
X-52696951Y-9296819D02*
X-52935046Y-9296819D01*
X-52935046Y-9296819D02*
X-53030284Y-9249200D01*
X-53030284Y-9249200D02*
X-53077903Y-9201580D01*
X-43681905Y-12695815D02*
X-43681905Y-13695815D01*
X-43681905Y-13695815D02*
X-43920000Y-13695815D01*
X-43920000Y-13695815D02*
X-44062857Y-13648196D01*
X-44062857Y-13648196D02*
X-44158095Y-13552958D01*
X-44158095Y-13552958D02*
X-44205714Y-13457720D01*
X-44205714Y-13457720D02*
X-44253333Y-13267244D01*
X-44253333Y-13267244D02*
X-44253333Y-13124387D01*
X-44253333Y-13124387D02*
X-44205714Y-12933911D01*
X-44205714Y-12933911D02*
X-44158095Y-12838673D01*
X-44158095Y-12838673D02*
X-44062857Y-12743435D01*
X-44062857Y-12743435D02*
X-43920000Y-12695815D01*
X-43920000Y-12695815D02*
X-43681905Y-12695815D01*
X-45205714Y-12695815D02*
X-44634286Y-12695815D01*
X-44920000Y-12695815D02*
X-44920000Y-13695815D01*
X-44920000Y-13695815D02*
X-44824762Y-13552958D01*
X-44824762Y-13552958D02*
X-44729524Y-13457720D01*
X-44729524Y-13457720D02*
X-44634286Y-13410101D01*
X-40788095Y-9945180D02*
X-40788095Y-10945180D01*
X-41359523Y-9945180D02*
X-40930952Y-10516609D01*
X-41359523Y-10945180D02*
X-40788095Y-10373752D01*
%TO.C,SW1*%
X-31150000Y-36620000D02*
X-31150000Y-32100001D01*
X-31150000Y-32100001D02*
X-41270000Y-32100000D01*
X-40910000Y-35113333D02*
X-41270000Y-35113333D01*
X-40910000Y-33606667D02*
X-40910000Y-35113333D01*
X-41270000Y-36619999D02*
X-31150000Y-36620000D01*
X-41270000Y-35113333D02*
X-41270000Y-36619999D01*
X-41270000Y-33606667D02*
X-40910000Y-33606667D01*
X-41270000Y-32100000D02*
X-41270000Y-33606667D01*
%TO.C,U1*%
X-42650500Y-22536000D02*
X-37570500Y-22536000D01*
X-37570500Y-15424000D01*
X-42650500Y-15424000D01*
X-42650500Y-22536000D01*
%TO.C,S1*%
X-950000Y-1070000D02*
X-19050000Y-1070000D01*
X-19050000Y-41070000D01*
X-950000Y-41070000D01*
X-950000Y-1070000D01*
X-1850000Y-10860000D02*
G75*
G02*
X-17850000Y-10860000I-8000000J0D01*
G01*
X-17850000Y-10860000D02*
G75*
G02*
X-1850000Y-10860000I8000000J0D01*
G01*
X-1850000Y-31570000D02*
G75*
G02*
X-17850000Y-31570000I-8000000J0D01*
G01*
X-17850000Y-31570000D02*
G75*
G02*
X-1850000Y-31570000I8000000J0D01*
G01*
%TO.C,D1*%
X-44378847Y-11500000D02*
G75*
G02*
X-44438449Y-9232634I-1311153J1100000D01*
G01*
%TO.C,J3*%
X-57800000Y-18000000D02*
X-61800000Y-18000000D01*
X-61800000Y-38000000D01*
X-57800000Y-38000000D01*
X-57800000Y-18000000D01*
%TD*%
%LPC*%
D11*
%TO.C,Q1*%
X-47720000Y-38300000D03*
X-50260000Y-38300000D03*
D12*
X-52800000Y-38300000D03*
%TD*%
D13*
%TO.C,SW1*%
X-40020000Y-30600000D03*
X-37480000Y-30600000D03*
X-34940000Y-30600000D03*
X-32400000Y-30600000D03*
X-32400000Y-38120000D03*
X-34940000Y-38120000D03*
X-37480000Y-38120000D03*
X-40020000Y-38120000D03*
%TD*%
D14*
%TO.C,M2.5*%
X-66050000Y-17350000D03*
D15*
X-66050000Y-17350000D03*
%TD*%
D16*
%TO.C,U1*%
X-38650000Y-26600000D03*
X-36110000Y-26600000D03*
X-33570000Y-26600000D03*
X-31030000Y-26600000D03*
X-28490000Y-26600000D03*
X-25950000Y-26600000D03*
X-23410000Y-26600000D03*
X-23410000Y-11360000D03*
X-25950000Y-11360000D03*
X-28490000Y-11360000D03*
X-31030000Y-11360000D03*
X-33570000Y-11360000D03*
X-36110000Y-11360000D03*
X-38650000Y-11360000D03*
%TD*%
D17*
%TO.C,BTN1*%
X-69800000Y-14800000D03*
X-69800000Y-7800000D03*
D18*
X-72300000Y-13550000D03*
X-72300000Y-9050000D03*
%TD*%
D15*
%TO.C,M2.5*%
X-67900000Y-38300000D03*
D14*
X-67900000Y-38300000D03*
%TD*%
D15*
%TO.C,M2.5*%
X-25000000Y-31500000D03*
D14*
X-25000000Y-31500000D03*
%TD*%
D13*
%TO.C,S1*%
X-2300000Y-2420000D03*
X-17700000Y-2420000D03*
X-2300000Y-39695000D03*
X-17700000Y-39720000D03*
X-17588000Y-17260000D03*
X-17588000Y-19800000D03*
X-17588000Y-22340000D03*
X-17588000Y-24880000D03*
%TD*%
D15*
%TO.C,M2.5*%
X-22138000Y-3330000D03*
D14*
X-22138000Y-3330000D03*
%TD*%
D19*
%TO.C,P1*%
X-50610000Y-12730000D03*
D13*
X-50610000Y-10190000D03*
X-50610000Y-7650000D03*
X-50610000Y-5110000D03*
X-50610000Y-2570000D03*
%TD*%
D20*
%TO.C,D1*%
X-43150000Y-10400000D03*
D21*
X-45690000Y-10400000D03*
%TD*%
D22*
%TO.C,SW3*%
X-47100000Y-3958000D03*
D23*
X-38300000Y-3958000D03*
D22*
X-35500000Y-3958000D03*
D23*
X-41300000Y-3958000D03*
X-44300000Y-3958000D03*
%TD*%
D24*
%TO.C,J3*%
X-59800000Y-20500000D03*
D25*
X-59800000Y-25500000D03*
X-59800000Y-30500000D03*
X-59800000Y-35500000D03*
%TD*%
%LPD*%
D26*
X-73907107Y-15835883D02*
G75*
G02*
X-74200000Y-15128776I707101J707104D01*
G01*
X-68171669Y-21157107D02*
G75*
G02*
X-68878776Y-20864214I-3J999994D01*
G01*
X-68878776Y-20864214D02*
X-73907107Y-15835883D01*
X-73200001Y-6400000D02*
X-71899999Y-6400000D01*
X-65500000Y-22157107D02*
X-65500000Y-33600000D01*
X-67900000Y-42000000D02*
G75*
G02*
X-67900000Y-34600000I0J3700000D01*
G01*
X-66500000Y-21157107D02*
G75*
G02*
X-65500000Y-22157107I1J-999999D01*
G01*
X-18700000Y-42000000D02*
X0Y-42000000D01*
X-74200000Y-7400000D02*
G75*
G02*
X-73200000Y-6400000I999999J1D01*
G01*
X-68400000Y-2900000D02*
G75*
G02*
X-71900000Y-6400000I-3499999J-1D01*
G01*
X-29300000Y-39800000D02*
X-29300000Y-40000000D01*
X0Y0D02*
X0Y-42000000D01*
X-29300000Y-39800000D02*
G75*
G02*
X-20700000Y-39800000I4300000J0D01*
G01*
X-18700000Y-42000000D02*
G75*
G02*
X-20700000Y-40000000I-1J1999999D01*
G01*
X-67100000Y-34600000D02*
X-67900000Y-34600000D01*
X-25234389Y-5100000D02*
G75*
G02*
X-33241611Y-5100000I-4003611J0D01*
G01*
X-33241611Y-5100000D02*
G75*
G02*
X-25234389Y-5100000I4003611J0D01*
G01*
X-68400000Y-1000000D02*
X-68400000Y-2900000D01*
X-74200000Y-7400000D02*
X-74200000Y-15128776D01*
X0Y0D02*
X-67400000Y0D01*
X-66499999Y-34600000D02*
X-67100000Y-34600000D01*
X-29300000Y-40000000D02*
G75*
G02*
X-31300000Y-42000000I-1999999J-1D01*
G01*
X-68171669Y-21157107D02*
X-66499999Y-21157107D01*
X-65500000Y-33600000D02*
G75*
G02*
X-66500000Y-34600000I-999999J-1D01*
G01*
X-31300000Y-42000000D02*
X-67900000Y-42000000D01*
X-20700000Y-40000000D02*
X-20700000Y-39800000D01*
X-68400000Y-1000000D02*
G75*
G02*
X-67400000Y0I999999J1D01*
G01*
M02*
