M48
; DRILL file {KiCad 9.0.6} date 2025-12-01T18:27:30-0500
; FORMAT={-:-/ absolute / metric / decimal}
; #@! TF.CreationDate,2025-12-01T18:27:30-05:00
; #@! TF.GenerationSoftware,Kicad,Pcbnew,9.0.6
; #@! TF.FileFunction,Plated,1,4,PTH
FMAT,2
METRIC
; #@! TA.AperFunction,Plated,PTH,ViaDrill
T1C0.200
; #@! TA.AperFunction,Plated,PTH,ViaDrill
T2C0.300
; #@! TA.AperFunction,Plated,PTH,ComponentDrill
T3C0.500
; #@! TA.AperFunction,Plated,PTH,ComponentDrill
T4C0.600
; #@! TA.AperFunction,Plated,PTH,ComponentDrill
T5C0.700
; #@! TA.AperFunction,Plated,PTH,ComponentDrill
T6C0.800
; #@! TA.AperFunction,Plated,PTH,ComponentDrill
T7C1.000
; #@! TA.AperFunction,Plated,PTH,ComponentDrill
T8C1.100
; #@! TA.AperFunction,Plated,PTH,ComponentDrill
T9C1.200
; #@! TA.AperFunction,Plated,PTH,ComponentDrill
T10C1.500
; #@! TA.AperFunction,Plated,PTH,ComponentDrill
T11C2.700
; #@! TA.AperFunction,Plated,PTH,ComponentDrill
T12C3.200
%
G90
G05
T1
X-37.85Y-21.4
X-33.77Y-18.102
X-33.07Y-19.205
T2
X-80.1Y-9.75
X-80.1Y-13.7
X-79.9Y-27.25
X-78.25Y-9.9
X-76.95Y-3.875
X-76.75Y-7.875
X-76.65Y-1.45
X-75.79Y-4.775
X-73.44Y-9.0
X-73.44Y-14.4
X-71.55Y-29.8
X-71.4Y-31.7
X-71.15Y-26.85
X-71.09Y-7.875
X-70.15Y-6.6
X-70.05Y-3.35
X-69.89Y-5.175
X-69.35Y-8.4
X-68.79Y-4.075
X-68.55Y-25.9
X-68.4Y-17.7
X-67.4Y-29.5
X-67.4Y-31.75
X-67.2Y-27.7
X-66.75Y-26.15
X-65.85Y-4.8
X-64.7Y-29.1
X-64.55Y-18.95
X-63.55Y-23.1
X-63.55Y-27.8
X-62.85Y-3.65
X-62.25Y-8.65
X-61.6Y-32.65
X-60.2Y-30.35
X-60.05Y-5.8
X-58.75Y-2.7
X-58.35Y-0.8
X-57.75Y-37.25
X-57.4Y-4.55
X-56.95Y-10.2
X-55.25Y-29.5
X-54.8Y-3.5
X-54.75Y-17.1
X-54.3Y-8.2
X-54.05Y-21.7
X-53.95Y-32.8
X-52.95Y-34.45
X-52.45Y-28.7
X-51.75Y-10.85
X-51.75Y-13.6
X-51.7Y-9.45
X-51.7Y-12.25
X-51.2Y-33.35
X-51.15Y-21.05
X-50.95Y-29.65
X-50.65Y-5.8
X-50.45Y-24.5
X-50.3Y-9.45
X-50.3Y-10.85
X-50.3Y-12.25
X-50.3Y-13.6
X-50.3Y-37.1
X-49.7Y-20.3
X-49.55Y-16.5
X-48.9Y-9.45
X-48.9Y-10.85
X-48.9Y-12.25
X-48.9Y-13.6
X-48.85Y-4.9
X-48.5Y-20.6
X-48.3Y-30.5
X-47.5Y-9.45
X-47.5Y-10.85
X-47.5Y-12.25
X-47.5Y-13.6
X-46.55Y-23.65
X-46.35Y-22.15
X-45.85Y-20.5
X-44.85Y-37.45
X-44.55Y-20.5
X-44.5Y-31.1
X-43.65Y-28.7
X-43.35Y-20.5
X-43.15Y-6.5
X-43.1Y-34.25
X-42.7Y-15.45
X-42.25Y-4.0
X-38.9Y-18.9
X-38.6Y-23.4
X-36.456Y-17.749
X-36.45Y-18.95
X-33.4Y-8.2
X-33.372Y-6.827
X-31.75Y-5.1
X-30.37Y-18.95
X-30.32Y-17.955
X-27.75Y-1.65
X-27.75Y-4.8
T3
X-61.85Y-5.0
X-36.15Y-5.1
T5
X-24.02Y-19.05
X-24.0Y-17.05
X-24.0Y-21.05
X-24.0Y-23.05
T7
X-82.65Y-10.26
X-82.65Y-12.8
T8
X-69.85Y-21.2
X-69.85Y-23.74
X-66.09Y-21.2
X-66.09Y-23.74
X-32.74Y-2.5
X-30.2Y-2.5
T9
X-64.35Y-31.46
X-64.35Y-34.0
X-64.35Y-36.54
T10
X-74.65Y-20.2
X-74.65Y-25.2
X-74.65Y-30.2
X-74.65Y-35.2
T11
X-83.7Y-36.35
X-82.65Y-3.2
X-24.4Y-3.4
X-24.4Y-29.7
T12
X-47.05Y-34.0
T3
X-39.49Y-30.2G85X-38.99Y-30.2
G05
X-39.49Y-37.72G85X-38.99Y-37.72
G05
X-36.95Y-30.2G85X-36.45Y-30.2
G05
X-36.95Y-37.72G85X-36.45Y-37.72
G05
X-34.41Y-30.2G85X-33.91Y-30.2
G05
X-34.41Y-37.72G85X-33.91Y-37.72
G05
X-31.87Y-30.2G85X-31.37Y-30.2
G05
X-31.87Y-37.72G85X-31.37Y-37.72
G05
T4
X-34.82Y-14.1G85X-34.82Y-14.6
G05
X-34.82Y-22.1G85X-34.82Y-22.6
G05
X-31.96Y-14.1G85X-31.96Y-14.6
G05
X-31.96Y-22.1G85X-31.96Y-22.6
G05
T6
X-89.79Y-9.4G85X-89.79Y-9.6
G05
X-89.79Y-13.9G85X-89.79Y-14.1
G05
X-87.39Y-8.25G85X-87.19Y-8.25
G05
X-87.39Y-15.25G85X-87.19Y-15.25
G05
M30
