%TF.GenerationSoftware,KiCad,Pcbnew,9.0.6*%
%TF.CreationDate,2026-01-19T14:33:31-05:00*%
%TF.ProjectId,cablight-project,6361626c-6967-4687-942d-70726f6a6563,rev?*%
%TF.SameCoordinates,Original*%
%TF.FileFunction,Legend,Top*%
%TF.FilePolarity,Positive*%
%FSLAX46Y46*%
G04 Gerber Fmt 4.6, Leading zero omitted, Abs format (unit mm)*
G04 Created by KiCad (PCBNEW 9.0.6) date 2026-01-19 14:33:31*
%MOMM*%
%LPD*%
G01*
G04 APERTURE LIST*
G04 Aperture macros list*
%AMRoundRect*
0 Rectangle with rounded corners*
0 $1 Rounding radius*
0 $2 $3 $4 $5 $6 $7 $8 $9 X,Y pos of 4 corners*
0 Add a 4 corners polygon primitive as box body*
4,1,4,$2,$3,$4,$5,$6,$7,$8,$9,$2,$3,0*
0 Add four circle primitives for the rounded corners*
1,1,$1+$1,$2,$3*
1,1,$1+$1,$4,$5*
1,1,$1+$1,$6,$7*
1,1,$1+$1,$8,$9*
0 Add four rect primitives between the rounded corners*
20,1,$1+$1,$2,$3,$4,$5,0*
20,1,$1+$1,$4,$5,$6,$7,0*
20,1,$1+$1,$6,$7,$8,$9,0*
20,1,$1+$1,$8,$9,$2,$3,0*%
%AMHorizOval*
0 Thick line with rounded ends*
0 $1 width*
0 $2 $3 position (X,Y) of the first rounded end (center of the circle)*
0 $4 $5 position (X,Y) of the second rounded end (center of the circle)*
0 Add line between two ends*
20,1,$1,$2,$3,$4,$5,0*
0 Add two circle primitives to create the rounded ends*
1,1,$1,$2,$3*
1,1,$1,$4,$5*%
G04 Aperture macros list end*
%ADD10C,0.150000*%
%ADD11C,0.200000*%
%ADD12R,2.200000X2.200000*%
%ADD13O,2.200000X2.200000*%
%ADD14C,1.000000*%
%ADD15RoundRect,0.250000X0.337500X0.475000X-0.337500X0.475000X-0.337500X-0.475000X0.337500X-0.475000X0*%
%ADD16RoundRect,0.237500X0.035355X0.371231X-0.371231X-0.035355X-0.035355X-0.371231X0.371231X0.035355X0*%
%ADD17R,1.400000X1.400000*%
%ADD18C,1.400000*%
%ADD19RoundRect,0.250000X-0.475000X0.337500X-0.475000X-0.337500X0.475000X-0.337500X0.475000X0.337500X0*%
%ADD20RoundRect,0.250000X0.475000X-0.337500X0.475000X0.337500X-0.475000X0.337500X-0.475000X-0.337500X0*%
%ADD21O,1.500000X2.000000*%
%ADD22O,2.000000X1.500000*%
%ADD23RoundRect,0.150000X0.450000X0.350000X-0.450000X0.350000X-0.450000X-0.350000X0.450000X-0.350000X0*%
%ADD24C,3.100000*%
%ADD25C,4.500000*%
%ADD26C,0.700000*%
%ADD27RoundRect,0.050000X-0.750000X0.150000X-0.750000X-0.150000X0.750000X-0.150000X0.750000X0.150000X0*%
%ADD28O,1.304000X1.804000*%
%ADD29C,1.600000*%
%ADD30R,1.600000X4.500000*%
%ADD31R,0.600000X0.250000*%
%ADD32R,1.700000X3.300000*%
%ADD33C,2.200000*%
%ADD34HorizOval,2.200000X0.000000X0.000000X0.000000X0.000000X0*%
%ADD35R,2.000000X1.900000*%
%ADD36O,2.500000X1.900000*%
%ADD37R,0.900000X1.500000*%
%ADD38R,1.500000X0.900000*%
%ADD39R,0.900000X0.900000*%
%ADD40RoundRect,0.150000X-0.512500X-0.150000X0.512500X-0.150000X0.512500X0.150000X-0.512500X0.150000X0*%
%ADD41RoundRect,0.250001X-0.624999X0.462499X-0.624999X-0.462499X0.624999X-0.462499X0.624999X0.462499X0*%
%ADD42RoundRect,0.237500X-0.287500X-0.237500X0.287500X-0.237500X0.287500X0.237500X-0.287500X0.237500X0*%
%ADD43RoundRect,0.200000X-0.550000X0.200000X-0.550000X-0.200000X0.550000X-0.200000X0.550000X0.200000X0*%
%ADD44RoundRect,0.250000X0.350000X0.450000X-0.350000X0.450000X-0.350000X-0.450000X0.350000X-0.450000X0*%
%ADD45R,3.000000X3.000000*%
%ADD46C,3.000000*%
%ADD47RoundRect,0.250000X0.450000X-0.350000X0.450000X0.350000X-0.450000X0.350000X-0.450000X-0.350000X0*%
%TA.AperFunction,Profile*%
%ADD48C,0.150000*%
%TD*%
G04 APERTURE END LIST*
D10*
X84900000Y-65500000D02*
X84700000Y-64100000D01*
X130100000Y-76775000D02*
X134100000Y-76775000D01*
X134100000Y-79025000D01*
X130100000Y-79025000D01*
X130100000Y-76775000D01*
X93840000Y-55800000D02*
X93340000Y-55450000D01*
X96090000Y-55800000D02*
X93840000Y-55800000D01*
D11*
X78928000Y-83202219D02*
X79118476Y-83202219D01*
X79118476Y-83202219D02*
X79213714Y-83249838D01*
X79213714Y-83249838D02*
X79308952Y-83345076D01*
X79308952Y-83345076D02*
X79356571Y-83535552D01*
X79356571Y-83535552D02*
X79356571Y-83868885D01*
X79356571Y-83868885D02*
X79308952Y-84059361D01*
X79308952Y-84059361D02*
X79213714Y-84154600D01*
X79213714Y-84154600D02*
X79118476Y-84202219D01*
X79118476Y-84202219D02*
X78928000Y-84202219D01*
X78928000Y-84202219D02*
X78832762Y-84154600D01*
X78832762Y-84154600D02*
X78737524Y-84059361D01*
X78737524Y-84059361D02*
X78689905Y-83868885D01*
X78689905Y-83868885D02*
X78689905Y-83535552D01*
X78689905Y-83535552D02*
X78737524Y-83345076D01*
X78737524Y-83345076D02*
X78832762Y-83249838D01*
X78832762Y-83249838D02*
X78928000Y-83202219D01*
X79785143Y-83202219D02*
X79785143Y-84011742D01*
X79785143Y-84011742D02*
X79832762Y-84106980D01*
X79832762Y-84106980D02*
X79880381Y-84154600D01*
X79880381Y-84154600D02*
X79975619Y-84202219D01*
X79975619Y-84202219D02*
X80166095Y-84202219D01*
X80166095Y-84202219D02*
X80261333Y-84154600D01*
X80261333Y-84154600D02*
X80308952Y-84106980D01*
X80308952Y-84106980D02*
X80356571Y-84011742D01*
X80356571Y-84011742D02*
X80356571Y-83202219D01*
X80689905Y-83202219D02*
X81261333Y-83202219D01*
X80975619Y-84202219D02*
X80975619Y-83202219D01*
X130769673Y-78442219D02*
X130769673Y-77442219D01*
X130769673Y-77442219D02*
X131150625Y-77442219D01*
X131150625Y-77442219D02*
X131245863Y-77489838D01*
X131245863Y-77489838D02*
X131293482Y-77537457D01*
X131293482Y-77537457D02*
X131341101Y-77632695D01*
X131341101Y-77632695D02*
X131341101Y-77775552D01*
X131341101Y-77775552D02*
X131293482Y-77870790D01*
X131293482Y-77870790D02*
X131245863Y-77918409D01*
X131245863Y-77918409D02*
X131150625Y-77966028D01*
X131150625Y-77966028D02*
X130769673Y-77966028D01*
X131674435Y-77442219D02*
X131912530Y-78442219D01*
X131912530Y-78442219D02*
X132103006Y-77727933D01*
X132103006Y-77727933D02*
X132293482Y-78442219D01*
X132293482Y-78442219D02*
X132531578Y-77442219D01*
X133483958Y-78442219D02*
X133150625Y-77966028D01*
X132912530Y-78442219D02*
X132912530Y-77442219D01*
X132912530Y-77442219D02*
X133293482Y-77442219D01*
X133293482Y-77442219D02*
X133388720Y-77489838D01*
X133388720Y-77489838D02*
X133436339Y-77537457D01*
X133436339Y-77537457D02*
X133483958Y-77632695D01*
X133483958Y-77632695D02*
X133483958Y-77775552D01*
X133483958Y-77775552D02*
X133436339Y-77870790D01*
X133436339Y-77870790D02*
X133388720Y-77918409D01*
X133388720Y-77918409D02*
X133293482Y-77966028D01*
X133293482Y-77966028D02*
X132912530Y-77966028D01*
X79178095Y-86933171D02*
X79130476Y-86885552D01*
X79130476Y-86885552D02*
X79035238Y-86742695D01*
X79035238Y-86742695D02*
X78987619Y-86647457D01*
X78987619Y-86647457D02*
X78940000Y-86504600D01*
X78940000Y-86504600D02*
X78892381Y-86266504D01*
X78892381Y-86266504D02*
X78892381Y-86076028D01*
X78892381Y-86076028D02*
X78940000Y-85837933D01*
X78940000Y-85837933D02*
X78987619Y-85695076D01*
X78987619Y-85695076D02*
X79035238Y-85599838D01*
X79035238Y-85599838D02*
X79130476Y-85456980D01*
X79130476Y-85456980D02*
X79178095Y-85409361D01*
X79559048Y-86171266D02*
X80320953Y-86171266D01*
X80701905Y-86933171D02*
X80749524Y-86885552D01*
X80749524Y-86885552D02*
X80844762Y-86742695D01*
X80844762Y-86742695D02*
X80892381Y-86647457D01*
X80892381Y-86647457D02*
X80940000Y-86504600D01*
X80940000Y-86504600D02*
X80987619Y-86266504D01*
X80987619Y-86266504D02*
X80987619Y-86076028D01*
X80987619Y-86076028D02*
X80940000Y-85837933D01*
X80940000Y-85837933D02*
X80892381Y-85695076D01*
X80892381Y-85695076D02*
X80844762Y-85599838D01*
X80844762Y-85599838D02*
X80749524Y-85456980D01*
X80749524Y-85456980D02*
X80701905Y-85409361D01*
X79178095Y-81933171D02*
X79130476Y-81885552D01*
X79130476Y-81885552D02*
X79035238Y-81742695D01*
X79035238Y-81742695D02*
X78987619Y-81647457D01*
X78987619Y-81647457D02*
X78940000Y-81504600D01*
X78940000Y-81504600D02*
X78892381Y-81266504D01*
X78892381Y-81266504D02*
X78892381Y-81076028D01*
X78892381Y-81076028D02*
X78940000Y-80837933D01*
X78940000Y-80837933D02*
X78987619Y-80695076D01*
X78987619Y-80695076D02*
X79035238Y-80599838D01*
X79035238Y-80599838D02*
X79130476Y-80456980D01*
X79130476Y-80456980D02*
X79178095Y-80409361D01*
X79559048Y-81171266D02*
X80320953Y-81171266D01*
X79940000Y-81552219D02*
X79940000Y-80790314D01*
X80701905Y-81933171D02*
X80749524Y-81885552D01*
X80749524Y-81885552D02*
X80844762Y-81742695D01*
X80844762Y-81742695D02*
X80892381Y-81647457D01*
X80892381Y-81647457D02*
X80940000Y-81504600D01*
X80940000Y-81504600D02*
X80987619Y-81266504D01*
X80987619Y-81266504D02*
X80987619Y-81076028D01*
X80987619Y-81076028D02*
X80940000Y-80837933D01*
X80940000Y-80837933D02*
X80892381Y-80695076D01*
X80892381Y-80695076D02*
X80844762Y-80599838D01*
X80844762Y-80599838D02*
X80749524Y-80456980D01*
X80749524Y-80456980D02*
X80701905Y-80409361D01*
X79416191Y-74052219D02*
X79416191Y-73052219D01*
X79892381Y-74052219D02*
X79892381Y-73052219D01*
X79892381Y-73052219D02*
X80463809Y-74052219D01*
X80463809Y-74052219D02*
X80463809Y-73052219D01*
X88397618Y-84837303D02*
X88064285Y-84361112D01*
X87826190Y-84837303D02*
X87826190Y-83837303D01*
X87826190Y-83837303D02*
X88207142Y-83837303D01*
X88207142Y-83837303D02*
X88302380Y-83884922D01*
X88302380Y-83884922D02*
X88349999Y-83932541D01*
X88349999Y-83932541D02*
X88397618Y-84027779D01*
X88397618Y-84027779D02*
X88397618Y-84170636D01*
X88397618Y-84170636D02*
X88349999Y-84265874D01*
X88349999Y-84265874D02*
X88302380Y-84313493D01*
X88302380Y-84313493D02*
X88207142Y-84361112D01*
X88207142Y-84361112D02*
X87826190Y-84361112D01*
X88778571Y-84551588D02*
X89254761Y-84551588D01*
X88683333Y-84837303D02*
X89016666Y-83837303D01*
X89016666Y-83837303D02*
X89349999Y-84837303D01*
X89540476Y-83837303D02*
X90111904Y-83837303D01*
X89826190Y-84837303D02*
X89826190Y-83837303D01*
X90445238Y-84313493D02*
X90778571Y-84313493D01*
X90921428Y-84837303D02*
X90445238Y-84837303D01*
X90445238Y-84837303D02*
X90445238Y-83837303D01*
X90445238Y-83837303D02*
X90921428Y-83837303D01*
X91350000Y-84837303D02*
X91350000Y-83837303D01*
X91350000Y-83837303D02*
X91588095Y-83837303D01*
X91588095Y-83837303D02*
X91730952Y-83884922D01*
X91730952Y-83884922D02*
X91826190Y-83980160D01*
X91826190Y-83980160D02*
X91873809Y-84075398D01*
X91873809Y-84075398D02*
X91921428Y-84265874D01*
X91921428Y-84265874D02*
X91921428Y-84408731D01*
X91921428Y-84408731D02*
X91873809Y-84599207D01*
X91873809Y-84599207D02*
X91826190Y-84694445D01*
X91826190Y-84694445D02*
X91730952Y-84789684D01*
X91730952Y-84789684D02*
X91588095Y-84837303D01*
X91588095Y-84837303D02*
X91350000Y-84837303D01*
X88088095Y-85447247D02*
X87611905Y-85447247D01*
X87611905Y-85447247D02*
X87564286Y-85923437D01*
X87564286Y-85923437D02*
X87611905Y-85875818D01*
X87611905Y-85875818D02*
X87707143Y-85828199D01*
X87707143Y-85828199D02*
X87945238Y-85828199D01*
X87945238Y-85828199D02*
X88040476Y-85875818D01*
X88040476Y-85875818D02*
X88088095Y-85923437D01*
X88088095Y-85923437D02*
X88135714Y-86018675D01*
X88135714Y-86018675D02*
X88135714Y-86256770D01*
X88135714Y-86256770D02*
X88088095Y-86352008D01*
X88088095Y-86352008D02*
X88040476Y-86399628D01*
X88040476Y-86399628D02*
X87945238Y-86447247D01*
X87945238Y-86447247D02*
X87707143Y-86447247D01*
X87707143Y-86447247D02*
X87611905Y-86399628D01*
X87611905Y-86399628D02*
X87564286Y-86352008D01*
X88564286Y-86066294D02*
X89326191Y-86066294D01*
X89754762Y-85542485D02*
X89802381Y-85494866D01*
X89802381Y-85494866D02*
X89897619Y-85447247D01*
X89897619Y-85447247D02*
X90135714Y-85447247D01*
X90135714Y-85447247D02*
X90230952Y-85494866D01*
X90230952Y-85494866D02*
X90278571Y-85542485D01*
X90278571Y-85542485D02*
X90326190Y-85637723D01*
X90326190Y-85637723D02*
X90326190Y-85732961D01*
X90326190Y-85732961D02*
X90278571Y-85875818D01*
X90278571Y-85875818D02*
X89707143Y-86447247D01*
X89707143Y-86447247D02*
X90326190Y-86447247D01*
X91183333Y-85780580D02*
X91183333Y-86447247D01*
X90945238Y-85399628D02*
X90707143Y-86113913D01*
X90707143Y-86113913D02*
X91326190Y-86113913D01*
X91564286Y-85447247D02*
X91897619Y-86447247D01*
X91897619Y-86447247D02*
X92230952Y-85447247D01*
X89088095Y-88057191D02*
X89088095Y-87057191D01*
X89088095Y-87057191D02*
X89326190Y-87057191D01*
X89326190Y-87057191D02*
X89469047Y-87104810D01*
X89469047Y-87104810D02*
X89564285Y-87200048D01*
X89564285Y-87200048D02*
X89611904Y-87295286D01*
X89611904Y-87295286D02*
X89659523Y-87485762D01*
X89659523Y-87485762D02*
X89659523Y-87628619D01*
X89659523Y-87628619D02*
X89611904Y-87819095D01*
X89611904Y-87819095D02*
X89564285Y-87914333D01*
X89564285Y-87914333D02*
X89469047Y-88009572D01*
X89469047Y-88009572D02*
X89326190Y-88057191D01*
X89326190Y-88057191D02*
X89088095Y-88057191D01*
X90659523Y-87961952D02*
X90611904Y-88009572D01*
X90611904Y-88009572D02*
X90469047Y-88057191D01*
X90469047Y-88057191D02*
X90373809Y-88057191D01*
X90373809Y-88057191D02*
X90230952Y-88009572D01*
X90230952Y-88009572D02*
X90135714Y-87914333D01*
X90135714Y-87914333D02*
X90088095Y-87819095D01*
X90088095Y-87819095D02*
X90040476Y-87628619D01*
X90040476Y-87628619D02*
X90040476Y-87485762D01*
X90040476Y-87485762D02*
X90088095Y-87295286D01*
X90088095Y-87295286D02*
X90135714Y-87200048D01*
X90135714Y-87200048D02*
X90230952Y-87104810D01*
X90230952Y-87104810D02*
X90373809Y-87057191D01*
X90373809Y-87057191D02*
X90469047Y-87057191D01*
X90469047Y-87057191D02*
X90611904Y-87104810D01*
X90611904Y-87104810D02*
X90659523Y-87152429D01*
X89659523Y-88667135D02*
X89183333Y-88667135D01*
X89183333Y-88667135D02*
X89135714Y-89143325D01*
X89135714Y-89143325D02*
X89183333Y-89095706D01*
X89183333Y-89095706D02*
X89278571Y-89048087D01*
X89278571Y-89048087D02*
X89516666Y-89048087D01*
X89516666Y-89048087D02*
X89611904Y-89095706D01*
X89611904Y-89095706D02*
X89659523Y-89143325D01*
X89659523Y-89143325D02*
X89707142Y-89238563D01*
X89707142Y-89238563D02*
X89707142Y-89476658D01*
X89707142Y-89476658D02*
X89659523Y-89571896D01*
X89659523Y-89571896D02*
X89611904Y-89619516D01*
X89611904Y-89619516D02*
X89516666Y-89667135D01*
X89516666Y-89667135D02*
X89278571Y-89667135D01*
X89278571Y-89667135D02*
X89183333Y-89619516D01*
X89183333Y-89619516D02*
X89135714Y-89571896D01*
X90088095Y-89381420D02*
X90564285Y-89381420D01*
X89992857Y-89667135D02*
X90326190Y-88667135D01*
X90326190Y-88667135D02*
X90659523Y-89667135D01*
X79178095Y-71933171D02*
X79130476Y-71885552D01*
X79130476Y-71885552D02*
X79035238Y-71742695D01*
X79035238Y-71742695D02*
X78987619Y-71647457D01*
X78987619Y-71647457D02*
X78940000Y-71504600D01*
X78940000Y-71504600D02*
X78892381Y-71266504D01*
X78892381Y-71266504D02*
X78892381Y-71076028D01*
X78892381Y-71076028D02*
X78940000Y-70837933D01*
X78940000Y-70837933D02*
X78987619Y-70695076D01*
X78987619Y-70695076D02*
X79035238Y-70599838D01*
X79035238Y-70599838D02*
X79130476Y-70456980D01*
X79130476Y-70456980D02*
X79178095Y-70409361D01*
X79559048Y-71171266D02*
X80320953Y-71171266D01*
X80701905Y-71933171D02*
X80749524Y-71885552D01*
X80749524Y-71885552D02*
X80844762Y-71742695D01*
X80844762Y-71742695D02*
X80892381Y-71647457D01*
X80892381Y-71647457D02*
X80940000Y-71504600D01*
X80940000Y-71504600D02*
X80987619Y-71266504D01*
X80987619Y-71266504D02*
X80987619Y-71076028D01*
X80987619Y-71076028D02*
X80940000Y-70837933D01*
X80940000Y-70837933D02*
X80892381Y-70695076D01*
X80892381Y-70695076D02*
X80844762Y-70599838D01*
X80844762Y-70599838D02*
X80749524Y-70456980D01*
X80749524Y-70456980D02*
X80701905Y-70409361D01*
X79178095Y-76933171D02*
X79130476Y-76885552D01*
X79130476Y-76885552D02*
X79035238Y-76742695D01*
X79035238Y-76742695D02*
X78987619Y-76647457D01*
X78987619Y-76647457D02*
X78940000Y-76504600D01*
X78940000Y-76504600D02*
X78892381Y-76266504D01*
X78892381Y-76266504D02*
X78892381Y-76076028D01*
X78892381Y-76076028D02*
X78940000Y-75837933D01*
X78940000Y-75837933D02*
X78987619Y-75695076D01*
X78987619Y-75695076D02*
X79035238Y-75599838D01*
X79035238Y-75599838D02*
X79130476Y-75456980D01*
X79130476Y-75456980D02*
X79178095Y-75409361D01*
X79559048Y-76171266D02*
X80320953Y-76171266D01*
X79940000Y-76552219D02*
X79940000Y-75790314D01*
X80701905Y-76933171D02*
X80749524Y-76885552D01*
X80749524Y-76885552D02*
X80844762Y-76742695D01*
X80844762Y-76742695D02*
X80892381Y-76647457D01*
X80892381Y-76647457D02*
X80940000Y-76504600D01*
X80940000Y-76504600D02*
X80987619Y-76266504D01*
X80987619Y-76266504D02*
X80987619Y-76076028D01*
X80987619Y-76076028D02*
X80940000Y-75837933D01*
X80940000Y-75837933D02*
X80892381Y-75695076D01*
X80892381Y-75695076D02*
X80844762Y-75599838D01*
X80844762Y-75599838D02*
X80749524Y-75456980D01*
X80749524Y-75456980D02*
X80701905Y-75409361D01*
X88269673Y-67967219D02*
X88269673Y-66967219D01*
X88269673Y-66967219D02*
X88650625Y-66967219D01*
X88650625Y-66967219D02*
X88745863Y-67014838D01*
X88745863Y-67014838D02*
X88793482Y-67062457D01*
X88793482Y-67062457D02*
X88841101Y-67157695D01*
X88841101Y-67157695D02*
X88841101Y-67300552D01*
X88841101Y-67300552D02*
X88793482Y-67395790D01*
X88793482Y-67395790D02*
X88745863Y-67443409D01*
X88745863Y-67443409D02*
X88650625Y-67491028D01*
X88650625Y-67491028D02*
X88269673Y-67491028D01*
X89460149Y-66967219D02*
X89650625Y-66967219D01*
X89650625Y-66967219D02*
X89745863Y-67014838D01*
X89745863Y-67014838D02*
X89841101Y-67110076D01*
X89841101Y-67110076D02*
X89888720Y-67300552D01*
X89888720Y-67300552D02*
X89888720Y-67633885D01*
X89888720Y-67633885D02*
X89841101Y-67824361D01*
X89841101Y-67824361D02*
X89745863Y-67919600D01*
X89745863Y-67919600D02*
X89650625Y-67967219D01*
X89650625Y-67967219D02*
X89460149Y-67967219D01*
X89460149Y-67967219D02*
X89364911Y-67919600D01*
X89364911Y-67919600D02*
X89269673Y-67824361D01*
X89269673Y-67824361D02*
X89222054Y-67633885D01*
X89222054Y-67633885D02*
X89222054Y-67300552D01*
X89222054Y-67300552D02*
X89269673Y-67110076D01*
X89269673Y-67110076D02*
X89364911Y-67014838D01*
X89364911Y-67014838D02*
X89460149Y-66967219D01*
X90793482Y-67967219D02*
X90317292Y-67967219D01*
X90317292Y-67967219D02*
X90317292Y-66967219D01*
X91079197Y-67681504D02*
X91555387Y-67681504D01*
X90983959Y-67967219D02*
X91317292Y-66967219D01*
X91317292Y-66967219D02*
X91650625Y-67967219D01*
X92555387Y-67967219D02*
X92222054Y-67491028D01*
X91983959Y-67967219D02*
X91983959Y-66967219D01*
X91983959Y-66967219D02*
X92364911Y-66967219D01*
X92364911Y-66967219D02*
X92460149Y-67014838D01*
X92460149Y-67014838D02*
X92507768Y-67062457D01*
X92507768Y-67062457D02*
X92555387Y-67157695D01*
X92555387Y-67157695D02*
X92555387Y-67300552D01*
X92555387Y-67300552D02*
X92507768Y-67395790D01*
X92507768Y-67395790D02*
X92460149Y-67443409D01*
X92460149Y-67443409D02*
X92364911Y-67491028D01*
X92364911Y-67491028D02*
X91983959Y-67491028D01*
X92983959Y-67967219D02*
X92983959Y-66967219D01*
X93317292Y-66967219D02*
X93888720Y-66967219D01*
X93603006Y-67967219D02*
X93603006Y-66967219D01*
X94412530Y-67491028D02*
X94412530Y-67967219D01*
X94079197Y-66967219D02*
X94412530Y-67491028D01*
X94412530Y-67491028D02*
X94745863Y-66967219D01*
X95079197Y-67871980D02*
X95126816Y-67919600D01*
X95126816Y-67919600D02*
X95079197Y-67967219D01*
X95079197Y-67967219D02*
X95031578Y-67919600D01*
X95031578Y-67919600D02*
X95079197Y-67871980D01*
X95079197Y-67871980D02*
X95079197Y-67967219D01*
X95079197Y-67586266D02*
X95031578Y-67014838D01*
X95031578Y-67014838D02*
X95079197Y-66967219D01*
X95079197Y-66967219D02*
X95126816Y-67014838D01*
X95126816Y-67014838D02*
X95079197Y-67586266D01*
X95079197Y-67586266D02*
X95079197Y-66967219D01*
D10*
X92261905Y-71754819D02*
X92261905Y-70754819D01*
X92261905Y-70754819D02*
X92500000Y-70754819D01*
X92500000Y-70754819D02*
X92642857Y-70802438D01*
X92642857Y-70802438D02*
X92738095Y-70897676D01*
X92738095Y-70897676D02*
X92785714Y-70992914D01*
X92785714Y-70992914D02*
X92833333Y-71183390D01*
X92833333Y-71183390D02*
X92833333Y-71326247D01*
X92833333Y-71326247D02*
X92785714Y-71516723D01*
X92785714Y-71516723D02*
X92738095Y-71611961D01*
X92738095Y-71611961D02*
X92642857Y-71707200D01*
X92642857Y-71707200D02*
X92500000Y-71754819D01*
X92500000Y-71754819D02*
X92261905Y-71754819D01*
X93214286Y-70850057D02*
X93261905Y-70802438D01*
X93261905Y-70802438D02*
X93357143Y-70754819D01*
X93357143Y-70754819D02*
X93595238Y-70754819D01*
X93595238Y-70754819D02*
X93690476Y-70802438D01*
X93690476Y-70802438D02*
X93738095Y-70850057D01*
X93738095Y-70850057D02*
X93785714Y-70945295D01*
X93785714Y-70945295D02*
X93785714Y-71040533D01*
X93785714Y-71040533D02*
X93738095Y-71183390D01*
X93738095Y-71183390D02*
X93166667Y-71754819D01*
X93166667Y-71754819D02*
X93785714Y-71754819D01*
X131288095Y-81302438D02*
X131192857Y-81254819D01*
X131192857Y-81254819D02*
X131050000Y-81254819D01*
X131050000Y-81254819D02*
X130907143Y-81302438D01*
X130907143Y-81302438D02*
X130811905Y-81397676D01*
X130811905Y-81397676D02*
X130764286Y-81492914D01*
X130764286Y-81492914D02*
X130716667Y-81683390D01*
X130716667Y-81683390D02*
X130716667Y-81826247D01*
X130716667Y-81826247D02*
X130764286Y-82016723D01*
X130764286Y-82016723D02*
X130811905Y-82111961D01*
X130811905Y-82111961D02*
X130907143Y-82207200D01*
X130907143Y-82207200D02*
X131050000Y-82254819D01*
X131050000Y-82254819D02*
X131145238Y-82254819D01*
X131145238Y-82254819D02*
X131288095Y-82207200D01*
X131288095Y-82207200D02*
X131335714Y-82159580D01*
X131335714Y-82159580D02*
X131335714Y-81826247D01*
X131335714Y-81826247D02*
X131145238Y-81826247D01*
X131764286Y-82254819D02*
X131764286Y-81254819D01*
X131764286Y-81254819D02*
X132335714Y-82254819D01*
X132335714Y-82254819D02*
X132335714Y-81254819D01*
X132811905Y-82254819D02*
X132811905Y-81254819D01*
X132811905Y-81254819D02*
X133050000Y-81254819D01*
X133050000Y-81254819D02*
X133192857Y-81302438D01*
X133192857Y-81302438D02*
X133288095Y-81397676D01*
X133288095Y-81397676D02*
X133335714Y-81492914D01*
X133335714Y-81492914D02*
X133383333Y-81683390D01*
X133383333Y-81683390D02*
X133383333Y-81826247D01*
X133383333Y-81826247D02*
X133335714Y-82016723D01*
X133335714Y-82016723D02*
X133288095Y-82111961D01*
X133288095Y-82111961D02*
X133192857Y-82207200D01*
X133192857Y-82207200D02*
X133050000Y-82254819D01*
X133050000Y-82254819D02*
X132811905Y-82254819D01*
X103433333Y-77809580D02*
X103385714Y-77857200D01*
X103385714Y-77857200D02*
X103242857Y-77904819D01*
X103242857Y-77904819D02*
X103147619Y-77904819D01*
X103147619Y-77904819D02*
X103004762Y-77857200D01*
X103004762Y-77857200D02*
X102909524Y-77761961D01*
X102909524Y-77761961D02*
X102861905Y-77666723D01*
X102861905Y-77666723D02*
X102814286Y-77476247D01*
X102814286Y-77476247D02*
X102814286Y-77333390D01*
X102814286Y-77333390D02*
X102861905Y-77142914D01*
X102861905Y-77142914D02*
X102909524Y-77047676D01*
X102909524Y-77047676D02*
X103004762Y-76952438D01*
X103004762Y-76952438D02*
X103147619Y-76904819D01*
X103147619Y-76904819D02*
X103242857Y-76904819D01*
X103242857Y-76904819D02*
X103385714Y-76952438D01*
X103385714Y-76952438D02*
X103433333Y-77000057D01*
X104338095Y-76904819D02*
X103861905Y-76904819D01*
X103861905Y-76904819D02*
X103814286Y-77381009D01*
X103814286Y-77381009D02*
X103861905Y-77333390D01*
X103861905Y-77333390D02*
X103957143Y-77285771D01*
X103957143Y-77285771D02*
X104195238Y-77285771D01*
X104195238Y-77285771D02*
X104290476Y-77333390D01*
X104290476Y-77333390D02*
X104338095Y-77381009D01*
X104338095Y-77381009D02*
X104385714Y-77476247D01*
X104385714Y-77476247D02*
X104385714Y-77714342D01*
X104385714Y-77714342D02*
X104338095Y-77809580D01*
X104338095Y-77809580D02*
X104290476Y-77857200D01*
X104290476Y-77857200D02*
X104195238Y-77904819D01*
X104195238Y-77904819D02*
X103957143Y-77904819D01*
X103957143Y-77904819D02*
X103861905Y-77857200D01*
X103861905Y-77857200D02*
X103814286Y-77809580D01*
X86349580Y-52979166D02*
X86397200Y-53026785D01*
X86397200Y-53026785D02*
X86444819Y-53169642D01*
X86444819Y-53169642D02*
X86444819Y-53264880D01*
X86444819Y-53264880D02*
X86397200Y-53407737D01*
X86397200Y-53407737D02*
X86301961Y-53502975D01*
X86301961Y-53502975D02*
X86206723Y-53550594D01*
X86206723Y-53550594D02*
X86016247Y-53598213D01*
X86016247Y-53598213D02*
X85873390Y-53598213D01*
X85873390Y-53598213D02*
X85682914Y-53550594D01*
X85682914Y-53550594D02*
X85587676Y-53502975D01*
X85587676Y-53502975D02*
X85492438Y-53407737D01*
X85492438Y-53407737D02*
X85444819Y-53264880D01*
X85444819Y-53264880D02*
X85444819Y-53169642D01*
X85444819Y-53169642D02*
X85492438Y-53026785D01*
X85492438Y-53026785D02*
X85540057Y-52979166D01*
X86444819Y-52502975D02*
X86444819Y-52312499D01*
X86444819Y-52312499D02*
X86397200Y-52217261D01*
X86397200Y-52217261D02*
X86349580Y-52169642D01*
X86349580Y-52169642D02*
X86206723Y-52074404D01*
X86206723Y-52074404D02*
X86016247Y-52026785D01*
X86016247Y-52026785D02*
X85635295Y-52026785D01*
X85635295Y-52026785D02*
X85540057Y-52074404D01*
X85540057Y-52074404D02*
X85492438Y-52122023D01*
X85492438Y-52122023D02*
X85444819Y-52217261D01*
X85444819Y-52217261D02*
X85444819Y-52407737D01*
X85444819Y-52407737D02*
X85492438Y-52502975D01*
X85492438Y-52502975D02*
X85540057Y-52550594D01*
X85540057Y-52550594D02*
X85635295Y-52598213D01*
X85635295Y-52598213D02*
X85873390Y-52598213D01*
X85873390Y-52598213D02*
X85968628Y-52550594D01*
X85968628Y-52550594D02*
X86016247Y-52502975D01*
X86016247Y-52502975D02*
X86063866Y-52407737D01*
X86063866Y-52407737D02*
X86063866Y-52217261D01*
X86063866Y-52217261D02*
X86016247Y-52122023D01*
X86016247Y-52122023D02*
X85968628Y-52074404D01*
X85968628Y-52074404D02*
X85873390Y-52026785D01*
X133857142Y-61809580D02*
X133809523Y-61857200D01*
X133809523Y-61857200D02*
X133666666Y-61904819D01*
X133666666Y-61904819D02*
X133571428Y-61904819D01*
X133571428Y-61904819D02*
X133428571Y-61857200D01*
X133428571Y-61857200D02*
X133333333Y-61761961D01*
X133333333Y-61761961D02*
X133285714Y-61666723D01*
X133285714Y-61666723D02*
X133238095Y-61476247D01*
X133238095Y-61476247D02*
X133238095Y-61333390D01*
X133238095Y-61333390D02*
X133285714Y-61142914D01*
X133285714Y-61142914D02*
X133333333Y-61047676D01*
X133333333Y-61047676D02*
X133428571Y-60952438D01*
X133428571Y-60952438D02*
X133571428Y-60904819D01*
X133571428Y-60904819D02*
X133666666Y-60904819D01*
X133666666Y-60904819D02*
X133809523Y-60952438D01*
X133809523Y-60952438D02*
X133857142Y-61000057D01*
X134809523Y-61904819D02*
X134238095Y-61904819D01*
X134523809Y-61904819D02*
X134523809Y-60904819D01*
X134523809Y-60904819D02*
X134428571Y-61047676D01*
X134428571Y-61047676D02*
X134333333Y-61142914D01*
X134333333Y-61142914D02*
X134238095Y-61190533D01*
X135666666Y-61238152D02*
X135666666Y-61904819D01*
X135428571Y-60857200D02*
X135190476Y-61571485D01*
X135190476Y-61571485D02*
X135809523Y-61571485D01*
X127109523Y-84854819D02*
X126633333Y-84854819D01*
X126633333Y-84854819D02*
X126585714Y-85331009D01*
X126585714Y-85331009D02*
X126633333Y-85283390D01*
X126633333Y-85283390D02*
X126728571Y-85235771D01*
X126728571Y-85235771D02*
X126966666Y-85235771D01*
X126966666Y-85235771D02*
X127061904Y-85283390D01*
X127061904Y-85283390D02*
X127109523Y-85331009D01*
X127109523Y-85331009D02*
X127157142Y-85426247D01*
X127157142Y-85426247D02*
X127157142Y-85664342D01*
X127157142Y-85664342D02*
X127109523Y-85759580D01*
X127109523Y-85759580D02*
X127061904Y-85807200D01*
X127061904Y-85807200D02*
X126966666Y-85854819D01*
X126966666Y-85854819D02*
X126728571Y-85854819D01*
X126728571Y-85854819D02*
X126633333Y-85807200D01*
X126633333Y-85807200D02*
X126585714Y-85759580D01*
X127442857Y-84854819D02*
X127776190Y-85854819D01*
X127776190Y-85854819D02*
X128109523Y-84854819D01*
X77376191Y-89854819D02*
X77376191Y-88854819D01*
X77376191Y-88854819D02*
X77709524Y-89569104D01*
X77709524Y-89569104D02*
X78042857Y-88854819D01*
X78042857Y-88854819D02*
X78042857Y-89854819D01*
X78471429Y-88950057D02*
X78519048Y-88902438D01*
X78519048Y-88902438D02*
X78614286Y-88854819D01*
X78614286Y-88854819D02*
X78852381Y-88854819D01*
X78852381Y-88854819D02*
X78947619Y-88902438D01*
X78947619Y-88902438D02*
X78995238Y-88950057D01*
X78995238Y-88950057D02*
X79042857Y-89045295D01*
X79042857Y-89045295D02*
X79042857Y-89140533D01*
X79042857Y-89140533D02*
X78995238Y-89283390D01*
X78995238Y-89283390D02*
X78423810Y-89854819D01*
X78423810Y-89854819D02*
X79042857Y-89854819D01*
X79471429Y-89759580D02*
X79519048Y-89807200D01*
X79519048Y-89807200D02*
X79471429Y-89854819D01*
X79471429Y-89854819D02*
X79423810Y-89807200D01*
X79423810Y-89807200D02*
X79471429Y-89759580D01*
X79471429Y-89759580D02*
X79471429Y-89854819D01*
X80423809Y-88854819D02*
X79947619Y-88854819D01*
X79947619Y-88854819D02*
X79900000Y-89331009D01*
X79900000Y-89331009D02*
X79947619Y-89283390D01*
X79947619Y-89283390D02*
X80042857Y-89235771D01*
X80042857Y-89235771D02*
X80280952Y-89235771D01*
X80280952Y-89235771D02*
X80376190Y-89283390D01*
X80376190Y-89283390D02*
X80423809Y-89331009D01*
X80423809Y-89331009D02*
X80471428Y-89426247D01*
X80471428Y-89426247D02*
X80471428Y-89664342D01*
X80471428Y-89664342D02*
X80423809Y-89759580D01*
X80423809Y-89759580D02*
X80376190Y-89807200D01*
X80376190Y-89807200D02*
X80280952Y-89854819D01*
X80280952Y-89854819D02*
X80042857Y-89854819D01*
X80042857Y-89854819D02*
X79947619Y-89807200D01*
X79947619Y-89807200D02*
X79900000Y-89759580D01*
X93011905Y-73754819D02*
X93011905Y-72754819D01*
X93011905Y-72754819D02*
X93250000Y-72754819D01*
X93250000Y-72754819D02*
X93392857Y-72802438D01*
X93392857Y-72802438D02*
X93488095Y-72897676D01*
X93488095Y-72897676D02*
X93535714Y-72992914D01*
X93535714Y-72992914D02*
X93583333Y-73183390D01*
X93583333Y-73183390D02*
X93583333Y-73326247D01*
X93583333Y-73326247D02*
X93535714Y-73516723D01*
X93535714Y-73516723D02*
X93488095Y-73611961D01*
X93488095Y-73611961D02*
X93392857Y-73707200D01*
X93392857Y-73707200D02*
X93250000Y-73754819D01*
X93250000Y-73754819D02*
X93011905Y-73754819D01*
X93916667Y-72754819D02*
X94535714Y-72754819D01*
X94535714Y-72754819D02*
X94202381Y-73135771D01*
X94202381Y-73135771D02*
X94345238Y-73135771D01*
X94345238Y-73135771D02*
X94440476Y-73183390D01*
X94440476Y-73183390D02*
X94488095Y-73231009D01*
X94488095Y-73231009D02*
X94535714Y-73326247D01*
X94535714Y-73326247D02*
X94535714Y-73564342D01*
X94535714Y-73564342D02*
X94488095Y-73659580D01*
X94488095Y-73659580D02*
X94440476Y-73707200D01*
X94440476Y-73707200D02*
X94345238Y-73754819D01*
X94345238Y-73754819D02*
X94059524Y-73754819D01*
X94059524Y-73754819D02*
X93964286Y-73707200D01*
X93964286Y-73707200D02*
X93916667Y-73659580D01*
X85457142Y-66859580D02*
X85409523Y-66907200D01*
X85409523Y-66907200D02*
X85266666Y-66954819D01*
X85266666Y-66954819D02*
X85171428Y-66954819D01*
X85171428Y-66954819D02*
X85028571Y-66907200D01*
X85028571Y-66907200D02*
X84933333Y-66811961D01*
X84933333Y-66811961D02*
X84885714Y-66716723D01*
X84885714Y-66716723D02*
X84838095Y-66526247D01*
X84838095Y-66526247D02*
X84838095Y-66383390D01*
X84838095Y-66383390D02*
X84885714Y-66192914D01*
X84885714Y-66192914D02*
X84933333Y-66097676D01*
X84933333Y-66097676D02*
X85028571Y-66002438D01*
X85028571Y-66002438D02*
X85171428Y-65954819D01*
X85171428Y-65954819D02*
X85266666Y-65954819D01*
X85266666Y-65954819D02*
X85409523Y-66002438D01*
X85409523Y-66002438D02*
X85457142Y-66050057D01*
X86409523Y-66954819D02*
X85838095Y-66954819D01*
X86123809Y-66954819D02*
X86123809Y-65954819D01*
X86123809Y-65954819D02*
X86028571Y-66097676D01*
X86028571Y-66097676D02*
X85933333Y-66192914D01*
X85933333Y-66192914D02*
X85838095Y-66240533D01*
X87028571Y-65954819D02*
X87123809Y-65954819D01*
X87123809Y-65954819D02*
X87219047Y-66002438D01*
X87219047Y-66002438D02*
X87266666Y-66050057D01*
X87266666Y-66050057D02*
X87314285Y-66145295D01*
X87314285Y-66145295D02*
X87361904Y-66335771D01*
X87361904Y-66335771D02*
X87361904Y-66573866D01*
X87361904Y-66573866D02*
X87314285Y-66764342D01*
X87314285Y-66764342D02*
X87266666Y-66859580D01*
X87266666Y-66859580D02*
X87219047Y-66907200D01*
X87219047Y-66907200D02*
X87123809Y-66954819D01*
X87123809Y-66954819D02*
X87028571Y-66954819D01*
X87028571Y-66954819D02*
X86933333Y-66907200D01*
X86933333Y-66907200D02*
X86885714Y-66859580D01*
X86885714Y-66859580D02*
X86838095Y-66764342D01*
X86838095Y-66764342D02*
X86790476Y-66573866D01*
X86790476Y-66573866D02*
X86790476Y-66335771D01*
X86790476Y-66335771D02*
X86838095Y-66145295D01*
X86838095Y-66145295D02*
X86885714Y-66050057D01*
X86885714Y-66050057D02*
X86933333Y-66002438D01*
X86933333Y-66002438D02*
X87028571Y-65954819D01*
X91682142Y-59559580D02*
X91634523Y-59607200D01*
X91634523Y-59607200D02*
X91491666Y-59654819D01*
X91491666Y-59654819D02*
X91396428Y-59654819D01*
X91396428Y-59654819D02*
X91253571Y-59607200D01*
X91253571Y-59607200D02*
X91158333Y-59511961D01*
X91158333Y-59511961D02*
X91110714Y-59416723D01*
X91110714Y-59416723D02*
X91063095Y-59226247D01*
X91063095Y-59226247D02*
X91063095Y-59083390D01*
X91063095Y-59083390D02*
X91110714Y-58892914D01*
X91110714Y-58892914D02*
X91158333Y-58797676D01*
X91158333Y-58797676D02*
X91253571Y-58702438D01*
X91253571Y-58702438D02*
X91396428Y-58654819D01*
X91396428Y-58654819D02*
X91491666Y-58654819D01*
X91491666Y-58654819D02*
X91634523Y-58702438D01*
X91634523Y-58702438D02*
X91682142Y-58750057D01*
X92634523Y-59654819D02*
X92063095Y-59654819D01*
X92348809Y-59654819D02*
X92348809Y-58654819D01*
X92348809Y-58654819D02*
X92253571Y-58797676D01*
X92253571Y-58797676D02*
X92158333Y-58892914D01*
X92158333Y-58892914D02*
X92063095Y-58940533D01*
X93586904Y-59654819D02*
X93015476Y-59654819D01*
X93301190Y-59654819D02*
X93301190Y-58654819D01*
X93301190Y-58654819D02*
X93205952Y-58797676D01*
X93205952Y-58797676D02*
X93110714Y-58892914D01*
X93110714Y-58892914D02*
X93015476Y-58940533D01*
X91843990Y-79966666D02*
X91843990Y-79633333D01*
X91320180Y-79633333D02*
X92320180Y-79633333D01*
X92320180Y-79633333D02*
X92320180Y-80109523D01*
X91320180Y-81014285D02*
X91320180Y-80442857D01*
X91320180Y-80728571D02*
X92320180Y-80728571D01*
X92320180Y-80728571D02*
X92177323Y-80633333D01*
X92177323Y-80633333D02*
X92082085Y-80538095D01*
X92082085Y-80538095D02*
X92034466Y-80442857D01*
X76961905Y-65254819D02*
X76961905Y-64254819D01*
X76961905Y-64254819D02*
X77200000Y-64254819D01*
X77200000Y-64254819D02*
X77342857Y-64302438D01*
X77342857Y-64302438D02*
X77438095Y-64397676D01*
X77438095Y-64397676D02*
X77485714Y-64492914D01*
X77485714Y-64492914D02*
X77533333Y-64683390D01*
X77533333Y-64683390D02*
X77533333Y-64826247D01*
X77533333Y-64826247D02*
X77485714Y-65016723D01*
X77485714Y-65016723D02*
X77438095Y-65111961D01*
X77438095Y-65111961D02*
X77342857Y-65207200D01*
X77342857Y-65207200D02*
X77200000Y-65254819D01*
X77200000Y-65254819D02*
X76961905Y-65254819D01*
X78485714Y-65254819D02*
X77914286Y-65254819D01*
X78200000Y-65254819D02*
X78200000Y-64254819D01*
X78200000Y-64254819D02*
X78104762Y-64397676D01*
X78104762Y-64397676D02*
X78009524Y-64492914D01*
X78009524Y-64492914D02*
X77914286Y-64540533D01*
X127033332Y-59309580D02*
X126985713Y-59357200D01*
X126985713Y-59357200D02*
X126842856Y-59404819D01*
X126842856Y-59404819D02*
X126747618Y-59404819D01*
X126747618Y-59404819D02*
X126604761Y-59357200D01*
X126604761Y-59357200D02*
X126509523Y-59261961D01*
X126509523Y-59261961D02*
X126461904Y-59166723D01*
X126461904Y-59166723D02*
X126414285Y-58976247D01*
X126414285Y-58976247D02*
X126414285Y-58833390D01*
X126414285Y-58833390D02*
X126461904Y-58642914D01*
X126461904Y-58642914D02*
X126509523Y-58547676D01*
X126509523Y-58547676D02*
X126604761Y-58452438D01*
X126604761Y-58452438D02*
X126747618Y-58404819D01*
X126747618Y-58404819D02*
X126842856Y-58404819D01*
X126842856Y-58404819D02*
X126985713Y-58452438D01*
X126985713Y-58452438D02*
X127033332Y-58500057D01*
X127604761Y-58833390D02*
X127509523Y-58785771D01*
X127509523Y-58785771D02*
X127461904Y-58738152D01*
X127461904Y-58738152D02*
X127414285Y-58642914D01*
X127414285Y-58642914D02*
X127414285Y-58595295D01*
X127414285Y-58595295D02*
X127461904Y-58500057D01*
X127461904Y-58500057D02*
X127509523Y-58452438D01*
X127509523Y-58452438D02*
X127604761Y-58404819D01*
X127604761Y-58404819D02*
X127795237Y-58404819D01*
X127795237Y-58404819D02*
X127890475Y-58452438D01*
X127890475Y-58452438D02*
X127938094Y-58500057D01*
X127938094Y-58500057D02*
X127985713Y-58595295D01*
X127985713Y-58595295D02*
X127985713Y-58642914D01*
X127985713Y-58642914D02*
X127938094Y-58738152D01*
X127938094Y-58738152D02*
X127890475Y-58785771D01*
X127890475Y-58785771D02*
X127795237Y-58833390D01*
X127795237Y-58833390D02*
X127604761Y-58833390D01*
X127604761Y-58833390D02*
X127509523Y-58881009D01*
X127509523Y-58881009D02*
X127461904Y-58928628D01*
X127461904Y-58928628D02*
X127414285Y-59023866D01*
X127414285Y-59023866D02*
X127414285Y-59214342D01*
X127414285Y-59214342D02*
X127461904Y-59309580D01*
X127461904Y-59309580D02*
X127509523Y-59357200D01*
X127509523Y-59357200D02*
X127604761Y-59404819D01*
X127604761Y-59404819D02*
X127795237Y-59404819D01*
X127795237Y-59404819D02*
X127890475Y-59357200D01*
X127890475Y-59357200D02*
X127938094Y-59309580D01*
X127938094Y-59309580D02*
X127985713Y-59214342D01*
X127985713Y-59214342D02*
X127985713Y-59023866D01*
X127985713Y-59023866D02*
X127938094Y-58928628D01*
X127938094Y-58928628D02*
X127890475Y-58881009D01*
X127890475Y-58881009D02*
X127795237Y-58833390D01*
X91322142Y-54304819D02*
X90988809Y-53828628D01*
X90750714Y-54304819D02*
X90750714Y-53304819D01*
X90750714Y-53304819D02*
X91131666Y-53304819D01*
X91131666Y-53304819D02*
X91226904Y-53352438D01*
X91226904Y-53352438D02*
X91274523Y-53400057D01*
X91274523Y-53400057D02*
X91322142Y-53495295D01*
X91322142Y-53495295D02*
X91322142Y-53638152D01*
X91322142Y-53638152D02*
X91274523Y-53733390D01*
X91274523Y-53733390D02*
X91226904Y-53781009D01*
X91226904Y-53781009D02*
X91131666Y-53828628D01*
X91131666Y-53828628D02*
X90750714Y-53828628D01*
X92274523Y-54304819D02*
X91703095Y-54304819D01*
X91988809Y-54304819D02*
X91988809Y-53304819D01*
X91988809Y-53304819D02*
X91893571Y-53447676D01*
X91893571Y-53447676D02*
X91798333Y-53542914D01*
X91798333Y-53542914D02*
X91703095Y-53590533D01*
X92893571Y-53304819D02*
X92988809Y-53304819D01*
X92988809Y-53304819D02*
X93084047Y-53352438D01*
X93084047Y-53352438D02*
X93131666Y-53400057D01*
X93131666Y-53400057D02*
X93179285Y-53495295D01*
X93179285Y-53495295D02*
X93226904Y-53685771D01*
X93226904Y-53685771D02*
X93226904Y-53923866D01*
X93226904Y-53923866D02*
X93179285Y-54114342D01*
X93179285Y-54114342D02*
X93131666Y-54209580D01*
X93131666Y-54209580D02*
X93084047Y-54257200D01*
X93084047Y-54257200D02*
X92988809Y-54304819D01*
X92988809Y-54304819D02*
X92893571Y-54304819D01*
X92893571Y-54304819D02*
X92798333Y-54257200D01*
X92798333Y-54257200D02*
X92750714Y-54209580D01*
X92750714Y-54209580D02*
X92703095Y-54114342D01*
X92703095Y-54114342D02*
X92655476Y-53923866D01*
X92655476Y-53923866D02*
X92655476Y-53685771D01*
X92655476Y-53685771D02*
X92703095Y-53495295D01*
X92703095Y-53495295D02*
X92750714Y-53400057D01*
X92750714Y-53400057D02*
X92798333Y-53352438D01*
X92798333Y-53352438D02*
X92893571Y-53304819D01*
X105633333Y-77859580D02*
X105585714Y-77907200D01*
X105585714Y-77907200D02*
X105442857Y-77954819D01*
X105442857Y-77954819D02*
X105347619Y-77954819D01*
X105347619Y-77954819D02*
X105204762Y-77907200D01*
X105204762Y-77907200D02*
X105109524Y-77811961D01*
X105109524Y-77811961D02*
X105061905Y-77716723D01*
X105061905Y-77716723D02*
X105014286Y-77526247D01*
X105014286Y-77526247D02*
X105014286Y-77383390D01*
X105014286Y-77383390D02*
X105061905Y-77192914D01*
X105061905Y-77192914D02*
X105109524Y-77097676D01*
X105109524Y-77097676D02*
X105204762Y-77002438D01*
X105204762Y-77002438D02*
X105347619Y-76954819D01*
X105347619Y-76954819D02*
X105442857Y-76954819D01*
X105442857Y-76954819D02*
X105585714Y-77002438D01*
X105585714Y-77002438D02*
X105633333Y-77050057D01*
X105966667Y-76954819D02*
X106585714Y-76954819D01*
X106585714Y-76954819D02*
X106252381Y-77335771D01*
X106252381Y-77335771D02*
X106395238Y-77335771D01*
X106395238Y-77335771D02*
X106490476Y-77383390D01*
X106490476Y-77383390D02*
X106538095Y-77431009D01*
X106538095Y-77431009D02*
X106585714Y-77526247D01*
X106585714Y-77526247D02*
X106585714Y-77764342D01*
X106585714Y-77764342D02*
X106538095Y-77859580D01*
X106538095Y-77859580D02*
X106490476Y-77907200D01*
X106490476Y-77907200D02*
X106395238Y-77954819D01*
X106395238Y-77954819D02*
X106109524Y-77954819D01*
X106109524Y-77954819D02*
X106014286Y-77907200D01*
X106014286Y-77907200D02*
X105966667Y-77859580D01*
X91572142Y-52609580D02*
X91524523Y-52657200D01*
X91524523Y-52657200D02*
X91381666Y-52704819D01*
X91381666Y-52704819D02*
X91286428Y-52704819D01*
X91286428Y-52704819D02*
X91143571Y-52657200D01*
X91143571Y-52657200D02*
X91048333Y-52561961D01*
X91048333Y-52561961D02*
X91000714Y-52466723D01*
X91000714Y-52466723D02*
X90953095Y-52276247D01*
X90953095Y-52276247D02*
X90953095Y-52133390D01*
X90953095Y-52133390D02*
X91000714Y-51942914D01*
X91000714Y-51942914D02*
X91048333Y-51847676D01*
X91048333Y-51847676D02*
X91143571Y-51752438D01*
X91143571Y-51752438D02*
X91286428Y-51704819D01*
X91286428Y-51704819D02*
X91381666Y-51704819D01*
X91381666Y-51704819D02*
X91524523Y-51752438D01*
X91524523Y-51752438D02*
X91572142Y-51800057D01*
X92524523Y-52704819D02*
X91953095Y-52704819D01*
X92238809Y-52704819D02*
X92238809Y-51704819D01*
X92238809Y-51704819D02*
X92143571Y-51847676D01*
X92143571Y-51847676D02*
X92048333Y-51942914D01*
X92048333Y-51942914D02*
X91953095Y-51990533D01*
X92905476Y-51800057D02*
X92953095Y-51752438D01*
X92953095Y-51752438D02*
X93048333Y-51704819D01*
X93048333Y-51704819D02*
X93286428Y-51704819D01*
X93286428Y-51704819D02*
X93381666Y-51752438D01*
X93381666Y-51752438D02*
X93429285Y-51800057D01*
X93429285Y-51800057D02*
X93476904Y-51895295D01*
X93476904Y-51895295D02*
X93476904Y-51990533D01*
X93476904Y-51990533D02*
X93429285Y-52133390D01*
X93429285Y-52133390D02*
X92857857Y-52704819D01*
X92857857Y-52704819D02*
X93476904Y-52704819D01*
X99158333Y-54329819D02*
X98825000Y-53853628D01*
X98586905Y-54329819D02*
X98586905Y-53329819D01*
X98586905Y-53329819D02*
X98967857Y-53329819D01*
X98967857Y-53329819D02*
X99063095Y-53377438D01*
X99063095Y-53377438D02*
X99110714Y-53425057D01*
X99110714Y-53425057D02*
X99158333Y-53520295D01*
X99158333Y-53520295D02*
X99158333Y-53663152D01*
X99158333Y-53663152D02*
X99110714Y-53758390D01*
X99110714Y-53758390D02*
X99063095Y-53806009D01*
X99063095Y-53806009D02*
X98967857Y-53853628D01*
X98967857Y-53853628D02*
X98586905Y-53853628D01*
X99729762Y-53758390D02*
X99634524Y-53710771D01*
X99634524Y-53710771D02*
X99586905Y-53663152D01*
X99586905Y-53663152D02*
X99539286Y-53567914D01*
X99539286Y-53567914D02*
X99539286Y-53520295D01*
X99539286Y-53520295D02*
X99586905Y-53425057D01*
X99586905Y-53425057D02*
X99634524Y-53377438D01*
X99634524Y-53377438D02*
X99729762Y-53329819D01*
X99729762Y-53329819D02*
X99920238Y-53329819D01*
X99920238Y-53329819D02*
X100015476Y-53377438D01*
X100015476Y-53377438D02*
X100063095Y-53425057D01*
X100063095Y-53425057D02*
X100110714Y-53520295D01*
X100110714Y-53520295D02*
X100110714Y-53567914D01*
X100110714Y-53567914D02*
X100063095Y-53663152D01*
X100063095Y-53663152D02*
X100015476Y-53710771D01*
X100015476Y-53710771D02*
X99920238Y-53758390D01*
X99920238Y-53758390D02*
X99729762Y-53758390D01*
X99729762Y-53758390D02*
X99634524Y-53806009D01*
X99634524Y-53806009D02*
X99586905Y-53853628D01*
X99586905Y-53853628D02*
X99539286Y-53948866D01*
X99539286Y-53948866D02*
X99539286Y-54139342D01*
X99539286Y-54139342D02*
X99586905Y-54234580D01*
X99586905Y-54234580D02*
X99634524Y-54282200D01*
X99634524Y-54282200D02*
X99729762Y-54329819D01*
X99729762Y-54329819D02*
X99920238Y-54329819D01*
X99920238Y-54329819D02*
X100015476Y-54282200D01*
X100015476Y-54282200D02*
X100063095Y-54234580D01*
X100063095Y-54234580D02*
X100110714Y-54139342D01*
X100110714Y-54139342D02*
X100110714Y-53948866D01*
X100110714Y-53948866D02*
X100063095Y-53853628D01*
X100063095Y-53853628D02*
X100015476Y-53806009D01*
X100015476Y-53806009D02*
X99920238Y-53758390D01*
X82854819Y-58392857D02*
X82378628Y-58726190D01*
X82854819Y-58964285D02*
X81854819Y-58964285D01*
X81854819Y-58964285D02*
X81854819Y-58583333D01*
X81854819Y-58583333D02*
X81902438Y-58488095D01*
X81902438Y-58488095D02*
X81950057Y-58440476D01*
X81950057Y-58440476D02*
X82045295Y-58392857D01*
X82045295Y-58392857D02*
X82188152Y-58392857D01*
X82188152Y-58392857D02*
X82283390Y-58440476D01*
X82283390Y-58440476D02*
X82331009Y-58488095D01*
X82331009Y-58488095D02*
X82378628Y-58583333D01*
X82378628Y-58583333D02*
X82378628Y-58964285D01*
X82854819Y-57440476D02*
X82854819Y-58011904D01*
X82854819Y-57726190D02*
X81854819Y-57726190D01*
X81854819Y-57726190D02*
X81997676Y-57821428D01*
X81997676Y-57821428D02*
X82092914Y-57916666D01*
X82092914Y-57916666D02*
X82140533Y-58011904D01*
X82854819Y-56488095D02*
X82854819Y-57059523D01*
X82854819Y-56773809D02*
X81854819Y-56773809D01*
X81854819Y-56773809D02*
X81997676Y-56869047D01*
X81997676Y-56869047D02*
X82092914Y-56964285D01*
X82092914Y-56964285D02*
X82140533Y-57059523D01*
X127961905Y-82904819D02*
X128580952Y-82904819D01*
X128580952Y-82904819D02*
X128247619Y-83285771D01*
X128247619Y-83285771D02*
X128390476Y-83285771D01*
X128390476Y-83285771D02*
X128485714Y-83333390D01*
X128485714Y-83333390D02*
X128533333Y-83381009D01*
X128533333Y-83381009D02*
X128580952Y-83476247D01*
X128580952Y-83476247D02*
X128580952Y-83714342D01*
X128580952Y-83714342D02*
X128533333Y-83809580D01*
X128533333Y-83809580D02*
X128485714Y-83857200D01*
X128485714Y-83857200D02*
X128390476Y-83904819D01*
X128390476Y-83904819D02*
X128104762Y-83904819D01*
X128104762Y-83904819D02*
X128009524Y-83857200D01*
X128009524Y-83857200D02*
X127961905Y-83809580D01*
X128866667Y-82904819D02*
X129200000Y-83904819D01*
X129200000Y-83904819D02*
X129533333Y-82904819D01*
X129771429Y-82904819D02*
X130390476Y-82904819D01*
X130390476Y-82904819D02*
X130057143Y-83285771D01*
X130057143Y-83285771D02*
X130200000Y-83285771D01*
X130200000Y-83285771D02*
X130295238Y-83333390D01*
X130295238Y-83333390D02*
X130342857Y-83381009D01*
X130342857Y-83381009D02*
X130390476Y-83476247D01*
X130390476Y-83476247D02*
X130390476Y-83714342D01*
X130390476Y-83714342D02*
X130342857Y-83809580D01*
X130342857Y-83809580D02*
X130295238Y-83857200D01*
X130295238Y-83857200D02*
X130200000Y-83904819D01*
X130200000Y-83904819D02*
X129914286Y-83904819D01*
X129914286Y-83904819D02*
X129819048Y-83857200D01*
X129819048Y-83857200D02*
X129771429Y-83809580D01*
X99158333Y-59854819D02*
X98825000Y-59378628D01*
X98586905Y-59854819D02*
X98586905Y-58854819D01*
X98586905Y-58854819D02*
X98967857Y-58854819D01*
X98967857Y-58854819D02*
X99063095Y-58902438D01*
X99063095Y-58902438D02*
X99110714Y-58950057D01*
X99110714Y-58950057D02*
X99158333Y-59045295D01*
X99158333Y-59045295D02*
X99158333Y-59188152D01*
X99158333Y-59188152D02*
X99110714Y-59283390D01*
X99110714Y-59283390D02*
X99063095Y-59331009D01*
X99063095Y-59331009D02*
X98967857Y-59378628D01*
X98967857Y-59378628D02*
X98586905Y-59378628D01*
X99634524Y-59854819D02*
X99825000Y-59854819D01*
X99825000Y-59854819D02*
X99920238Y-59807200D01*
X99920238Y-59807200D02*
X99967857Y-59759580D01*
X99967857Y-59759580D02*
X100063095Y-59616723D01*
X100063095Y-59616723D02*
X100110714Y-59426247D01*
X100110714Y-59426247D02*
X100110714Y-59045295D01*
X100110714Y-59045295D02*
X100063095Y-58950057D01*
X100063095Y-58950057D02*
X100015476Y-58902438D01*
X100015476Y-58902438D02*
X99920238Y-58854819D01*
X99920238Y-58854819D02*
X99729762Y-58854819D01*
X99729762Y-58854819D02*
X99634524Y-58902438D01*
X99634524Y-58902438D02*
X99586905Y-58950057D01*
X99586905Y-58950057D02*
X99539286Y-59045295D01*
X99539286Y-59045295D02*
X99539286Y-59283390D01*
X99539286Y-59283390D02*
X99586905Y-59378628D01*
X99586905Y-59378628D02*
X99634524Y-59426247D01*
X99634524Y-59426247D02*
X99729762Y-59473866D01*
X99729762Y-59473866D02*
X99920238Y-59473866D01*
X99920238Y-59473866D02*
X100015476Y-59426247D01*
X100015476Y-59426247D02*
X100063095Y-59378628D01*
X100063095Y-59378628D02*
X100110714Y-59283390D01*
%TO.C,D2*%
X88725000Y-73511153D02*
G75*
G02*
X90992366Y-73451551I1100000J1311153D01*
G01*
%TO.C,TP1*%
X132750000Y-83650000D02*
G75*
G02*
X131350000Y-83650000I-700000J0D01*
G01*
X131350000Y-83650000D02*
G75*
G02*
X132750000Y-83650000I700000J0D01*
G01*
%TO.C,CP6*%
X98248752Y-66665000D02*
X97726248Y-66665000D01*
X98248752Y-68135000D02*
X97726248Y-68135000D01*
%TO.C,LED2*%
X128222757Y-81316690D02*
X129962240Y-79577206D01*
X128922793Y-78537761D02*
X127183310Y-80277243D01*
X129962240Y-79577206D02*
X128922793Y-78537761D01*
%TO.C,J2*%
X138400000Y-67050000D02*
X135600000Y-67050000D01*
X135600000Y-75050000D01*
X138400000Y-75050000D01*
X138400000Y-67050000D01*
%TO.C,C5*%
X102865000Y-74076248D02*
X102865000Y-74598752D01*
X104335000Y-74076248D02*
X104335000Y-74598752D01*
%TO.C,C9*%
X83565000Y-54011252D02*
X83565000Y-53488748D01*
X85035000Y-54011252D02*
X85035000Y-53488748D01*
%TO.C,C14*%
X136265000Y-62961252D02*
X136265000Y-62438748D01*
X137735000Y-62961252D02*
X137735000Y-62438748D01*
%TO.C,CP4*%
X98248752Y-71065000D02*
X97726248Y-71065000D01*
X98248752Y-72535000D02*
X97726248Y-72535000D01*
%TO.C,CP5*%
X98248752Y-68865000D02*
X97726248Y-68865000D01*
X98248752Y-70335000D02*
X97726248Y-70335000D01*
%TO.C,TP3*%
X129000000Y-87350000D02*
G75*
G02*
X127600000Y-87350000I-700000J0D01*
G01*
X127600000Y-87350000D02*
G75*
G02*
X129000000Y-87350000I700000J0D01*
G01*
%TO.C,CP2*%
X94530000Y-62998752D02*
X94530000Y-62476248D01*
X96000000Y-62998752D02*
X96000000Y-62476248D01*
%TO.C,USBC1*%
X131605000Y-64550000D02*
G75*
G02*
X131405000Y-64550000I-100000J0D01*
G01*
X131405000Y-64550000D02*
G75*
G02*
X131605000Y-64550000I100000J0D01*
G01*
%TO.C,DIP1*%
X115465000Y-82700000D02*
X115465000Y-84206667D01*
X115465000Y-84206667D02*
X115825000Y-84206667D01*
X115465000Y-85713333D02*
X115465000Y-87219999D01*
X115465000Y-87219999D02*
X125585000Y-87220000D01*
X115825000Y-84206667D02*
X115825000Y-85713333D01*
X115825000Y-85713333D02*
X115465000Y-85713333D01*
X125585000Y-82700001D02*
X115465000Y-82700000D01*
X125585000Y-87220000D02*
X125585000Y-82700001D01*
%TO.C,CP1*%
X92230000Y-62998752D02*
X92230000Y-62476248D01*
X93700000Y-62998752D02*
X93700000Y-62476248D01*
%TO.C,D3*%
X93763473Y-77585644D02*
G75*
G02*
X95835436Y-76662896I514511J1632298D01*
G01*
%TO.C,C10*%
X82965000Y-62398752D02*
X82965000Y-61876248D01*
X84435000Y-62398752D02*
X84435000Y-61876248D01*
%TO.C,C11*%
X93890000Y-57651248D02*
X93890000Y-58173752D01*
X95360000Y-57651248D02*
X95360000Y-58173752D01*
%TO.C,U3*%
X103315000Y-52150000D02*
X103315000Y-70150000D01*
X103315000Y-52150000D02*
X103765000Y-52150000D01*
X103315000Y-70150000D02*
X103765000Y-70150000D01*
X121765000Y-52150000D02*
X122515000Y-52150000D01*
X121765000Y-70150000D02*
X122515000Y-70150000D01*
X122515000Y-52150000D02*
X122515000Y-53150000D01*
X122515000Y-70150000D02*
X122515000Y-69150000D01*
%TO.C,U5*%
X99252500Y-73590000D02*
X101072500Y-73590000D01*
X99252500Y-73640000D02*
X99252500Y-73590000D01*
X99252500Y-76710000D02*
X99252500Y-76660000D01*
X101072500Y-73590000D02*
X101072500Y-73640000D01*
X101072500Y-74760000D02*
X101072500Y-75540000D01*
X101072500Y-76660000D02*
X101072500Y-76710000D01*
X101072500Y-76710000D02*
X99252500Y-76710000D01*
X98712500Y-73640000D02*
X98472500Y-73310000D01*
X98952500Y-73310000D01*
X98712500Y-73640000D01*
G36*
X98712500Y-73640000D02*
G01*
X98472500Y-73310000D01*
X98952500Y-73310000D01*
X98712500Y-73640000D01*
G37*
%TO.C,F1*%
X88865000Y-79697936D02*
X88865000Y-80902064D01*
X90685000Y-79697936D02*
X90685000Y-80902064D01*
%TO.C,D1*%
X81278847Y-64900000D02*
G75*
G02*
X81338449Y-67167366I1311153J-1100000D01*
G01*
%TO.C,SW1*%
X78670000Y-63400000D02*
X78670000Y-58180000D01*
X81430000Y-58180000D02*
X78670000Y-58180000D01*
X81430000Y-63400000D02*
X78670000Y-63400000D01*
X81430000Y-63400000D02*
X81430000Y-58180000D01*
%TO.C,LED1*%
X88165000Y-68465000D02*
X88165000Y-69935000D01*
X90625000Y-68465000D02*
X88165000Y-68465000D01*
%TO.C,CP3*%
X96830000Y-62998752D02*
X96830000Y-62476248D01*
X98300000Y-62998752D02*
X98300000Y-62476248D01*
%TO.C,C8*%
X130523753Y-58215000D02*
X130001247Y-58215000D01*
X130523753Y-59685000D02*
X130001247Y-59685000D01*
%TO.C,R10*%
X88852064Y-52140000D02*
X88397936Y-52140000D01*
X88852064Y-53610000D02*
X88397936Y-53610000D01*
%TO.C,C3*%
X105065000Y-74076248D02*
X105065000Y-74598752D01*
X106535000Y-74076248D02*
X106535000Y-74598752D01*
%TO.C,J1*%
X86325000Y-68700000D02*
X82325000Y-68700000D01*
X82325000Y-88700000D01*
X86325000Y-88700000D01*
X86325000Y-68700000D01*
%TO.C,C12*%
X93890000Y-53476248D02*
X93890000Y-53998752D01*
X95360000Y-53476248D02*
X95360000Y-53998752D01*
%TO.C,R8*%
X96490000Y-54002064D02*
X96490000Y-53547936D01*
X97960000Y-54002064D02*
X97960000Y-53547936D01*
%TO.C,CP7*%
X99130000Y-62998752D02*
X99130000Y-62476248D01*
X100600000Y-62998752D02*
X100600000Y-62476248D01*
%TO.C,R11*%
X83565000Y-58077064D02*
X83565000Y-57622936D01*
X85035000Y-58077064D02*
X85035000Y-57622936D01*
%TO.C,TP2*%
X130950000Y-85400000D02*
G75*
G02*
X129550000Y-85400000I-700000J0D01*
G01*
X129550000Y-85400000D02*
G75*
G02*
X130950000Y-85400000I700000J0D01*
G01*
%TO.C,R9*%
X96490000Y-58102064D02*
X96490000Y-57647936D01*
X97960000Y-58102064D02*
X97960000Y-57647936D01*
%TD*%
%LPC*%
D12*
%TO.C,D2*%
X89825000Y-74740000D03*
D13*
X89825000Y-72200000D03*
%TD*%
D14*
%TO.C,TP1*%
X132050000Y-83650000D03*
%TD*%
D15*
%TO.C,CP6*%
X99025000Y-67400000D03*
X96950000Y-67400000D03*
%TD*%
D16*
%TO.C,LED2*%
X128887438Y-79612562D03*
X127650000Y-80850000D03*
%TD*%
D17*
%TO.C,J2*%
X137000000Y-68050000D03*
D18*
X136980000Y-70050000D03*
X137000000Y-72050000D03*
X137000000Y-74050000D03*
%TD*%
D19*
%TO.C,C5*%
X103600000Y-73300000D03*
X103600000Y-75375000D03*
%TD*%
D20*
%TO.C,C9*%
X84300000Y-54787500D03*
X84300000Y-52712500D03*
%TD*%
%TO.C,C14*%
X137000000Y-63737500D03*
X137000000Y-61662500D03*
%TD*%
D15*
%TO.C,CP4*%
X99025000Y-71800000D03*
X96950000Y-71800000D03*
%TD*%
D21*
%TO.C,BTN1*%
X72850000Y-60500000D03*
X72850000Y-65000000D03*
D22*
X75350000Y-59250000D03*
X75350000Y-66250000D03*
%TD*%
D15*
%TO.C,CP5*%
X99025000Y-69600000D03*
X96950000Y-69600000D03*
%TD*%
D14*
%TO.C,TP3*%
X128300000Y-87350000D03*
%TD*%
D20*
%TO.C,CP2*%
X95265000Y-63775000D03*
X95265000Y-61700000D03*
%TD*%
D23*
%TO.C,B2*%
X119900000Y-76550000D03*
X115400000Y-76550000D03*
X119900000Y-74350000D03*
X115400000Y-74350000D03*
%TD*%
D24*
%TO.C,M2.5*%
X75000000Y-87000000D03*
D25*
X75000000Y-87000000D03*
%TD*%
D24*
%TO.C,M2.5*%
X128750000Y-54550000D03*
D25*
X128750000Y-54550000D03*
%TD*%
D26*
%TO.C,USBC1*%
X128685000Y-63300000D03*
X128685000Y-71300000D03*
D27*
X130345000Y-64550000D03*
X130345000Y-66050000D03*
X130345000Y-66550000D03*
X130345000Y-67050000D03*
X130345000Y-67550000D03*
X130345000Y-68050000D03*
X130345000Y-68550000D03*
X130345000Y-70050000D03*
X127025000Y-70050000D03*
X127025000Y-68550000D03*
X127025000Y-68050000D03*
X127025000Y-67550000D03*
X127025000Y-67050000D03*
X127025000Y-66550000D03*
X127025000Y-66050000D03*
X127025000Y-64550000D03*
D28*
X130115000Y-63300000D03*
X127255000Y-63300000D03*
X130115000Y-71300000D03*
X127255000Y-71300000D03*
%TD*%
D29*
%TO.C,DIP1*%
X116715000Y-88720000D03*
X119255000Y-88720000D03*
X121795000Y-88720000D03*
X124335000Y-88720000D03*
X124335000Y-81200000D03*
X121795000Y-81200000D03*
X119255000Y-81200000D03*
X116715000Y-81200000D03*
%TD*%
D30*
%TO.C,L1*%
X86425000Y-62725000D03*
X90325000Y-62725000D03*
%TD*%
D31*
%TO.C,T1*%
X87849000Y-55375000D03*
X87849000Y-55875000D03*
X87849000Y-56375000D03*
X87849000Y-56875000D03*
X87849000Y-57375000D03*
X87849000Y-57875000D03*
X90649000Y-57875000D03*
X90649000Y-57375000D03*
X90649000Y-56875000D03*
X90649000Y-56375000D03*
X90649000Y-55875000D03*
X90649000Y-55375000D03*
D32*
X89249000Y-56625000D03*
%TD*%
D20*
%TO.C,CP1*%
X92965000Y-63775000D03*
X92965000Y-61700000D03*
%TD*%
D33*
%TO.C,D3*%
X95250000Y-78300000D03*
D34*
X94277984Y-75953346D03*
%TD*%
D20*
%TO.C,C10*%
X83700000Y-63175000D03*
X83700000Y-61100000D03*
%TD*%
D24*
%TO.C,M2.5*%
X79950000Y-54500000D03*
D25*
X79950000Y-54500000D03*
%TD*%
D35*
%TO.C,Q1*%
X94625000Y-82460000D03*
D36*
X94625000Y-85000000D03*
X94625000Y-87540000D03*
%TD*%
D19*
%TO.C,C11*%
X94625000Y-56875000D03*
X94625000Y-58950000D03*
%TD*%
D37*
%TO.C,U3*%
X104505000Y-69900000D03*
X105775000Y-69900000D03*
X107045000Y-69900000D03*
X108315000Y-69900000D03*
X109585000Y-69900000D03*
X110855000Y-69900000D03*
X112125000Y-69900000D03*
X113395000Y-69900000D03*
X114665000Y-69900000D03*
X115935000Y-69900000D03*
X117205000Y-69900000D03*
X118475000Y-69900000D03*
X119745000Y-69900000D03*
X121015000Y-69900000D03*
D38*
X122265000Y-68135000D03*
X122265000Y-66865000D03*
X122265000Y-65595000D03*
X122265000Y-64325000D03*
X122265000Y-63055000D03*
X122265000Y-61785000D03*
X122265000Y-60515000D03*
X122265000Y-59245000D03*
X122265000Y-57975000D03*
X122265000Y-56705000D03*
X122265000Y-55435000D03*
X122265000Y-54165000D03*
D37*
X121015000Y-52400000D03*
X119745000Y-52400000D03*
X118475000Y-52400000D03*
X117205000Y-52400000D03*
X115935000Y-52400000D03*
X114665000Y-52400000D03*
X113395000Y-52400000D03*
X112125000Y-52400000D03*
X110855000Y-52400000D03*
X109585000Y-52400000D03*
X108315000Y-52400000D03*
X107045000Y-52400000D03*
X105775000Y-52400000D03*
X104505000Y-52400000D03*
D39*
X110825000Y-64050000D03*
X112225000Y-64050000D03*
X113625000Y-64050000D03*
X113625000Y-64050000D03*
X110825000Y-62650000D03*
X110825000Y-62650000D03*
X112225000Y-62650000D03*
X113625000Y-62650000D03*
X110825000Y-61250000D03*
X112225000Y-61250000D03*
X113625000Y-61250000D03*
%TD*%
D40*
%TO.C,U5*%
X99025000Y-74200000D03*
X99025000Y-75150000D03*
X99025000Y-76100000D03*
X101300000Y-74200000D03*
X101300000Y-76100000D03*
%TD*%
D24*
%TO.C,M2.5*%
X136550000Y-80000000D03*
D25*
X136550000Y-80000000D03*
%TD*%
D41*
%TO.C,F1*%
X89775000Y-78812500D03*
X89775000Y-81787500D03*
%TD*%
D12*
%TO.C,D1*%
X80050000Y-66000000D03*
D13*
X82590000Y-66000000D03*
%TD*%
D29*
%TO.C,SW1*%
X80050000Y-62100000D03*
X80050000Y-59560000D03*
%TD*%
D42*
%TO.C,LED1*%
X88950000Y-69200000D03*
X90700000Y-69200000D03*
%TD*%
D20*
%TO.C,CP3*%
X97565000Y-63775000D03*
X97565000Y-61700000D03*
%TD*%
D43*
%TO.C,U1*%
X126775000Y-74900000D03*
X126775000Y-76800000D03*
X128875000Y-75850000D03*
%TD*%
D15*
%TO.C,C8*%
X131300000Y-58950000D03*
X129225000Y-58950000D03*
%TD*%
D44*
%TO.C,R10*%
X89625000Y-52875000D03*
X87625000Y-52875000D03*
%TD*%
D19*
%TO.C,C3*%
X105800000Y-73300000D03*
X105800000Y-75375000D03*
%TD*%
D45*
%TO.C,J1*%
X84325000Y-71200000D03*
D46*
X84325000Y-76200000D03*
X84325000Y-81200000D03*
X84325000Y-86200000D03*
%TD*%
D23*
%TO.C,B1*%
X113325000Y-76500000D03*
X108825000Y-76500000D03*
X113325000Y-74300000D03*
X108825000Y-74300000D03*
%TD*%
D19*
%TO.C,C12*%
X94625000Y-52700000D03*
X94625000Y-54775000D03*
%TD*%
D47*
%TO.C,R8*%
X97225000Y-54775000D03*
X97225000Y-52775000D03*
%TD*%
D20*
%TO.C,CP7*%
X99865000Y-63775000D03*
X99865000Y-61700000D03*
%TD*%
D47*
%TO.C,R11*%
X84300000Y-58850000D03*
X84300000Y-56850000D03*
%TD*%
D14*
%TO.C,TP2*%
X130250000Y-85400000D03*
%TD*%
D47*
%TO.C,R9*%
X97225000Y-58875000D03*
X97225000Y-56875000D03*
%TD*%
%LPD*%
D48*
X76500000Y-51000000D02*
X76500000Y-53500000D01*
X133000000Y-51000000D02*
X76500000Y-51000000D01*
X140000000Y-84500000D02*
X140000000Y-59000000D01*
X78000000Y-83000000D02*
X71500000Y-83000000D01*
X132000000Y-91000000D02*
X132000000Y-88500000D01*
X132000000Y-88500000D02*
G75*
G02*
X136000000Y-84500000I4000000J0D01*
G01*
X78000000Y-71000000D02*
X78000000Y-83000000D01*
X75500000Y-68500000D02*
X78000000Y-71000000D01*
X71500000Y-83000000D02*
X71500000Y-91000000D01*
X76500000Y-53500000D02*
G75*
G02*
X72500000Y-57500000I-4000000J0D01*
G01*
X137000000Y-59000000D02*
G75*
G02*
X133000000Y-55000000I0J4000000D01*
G01*
X72500000Y-57500000D02*
X70000000Y-57500000D01*
X71500000Y-91000000D02*
X132000000Y-91000000D01*
X136000000Y-84500000D02*
X140000000Y-84500000D01*
X140000000Y-59000000D02*
X137000000Y-59000000D01*
X133000000Y-55000000D02*
X133000000Y-51000000D01*
X70000000Y-57500000D02*
X70000000Y-68500000D01*
X70000000Y-68500000D02*
X75500000Y-68500000D01*
M02*
