%TF.GenerationSoftware,KiCad,Pcbnew,9.0.6*%
%TF.CreationDate,2026-01-19T14:32:23-05:00*%
%TF.ProjectId,cablight-project,6361626c-6967-4687-942d-70726f6a6563,rev?*%
%TF.SameCoordinates,Original*%
%TF.FileFunction,Drillmap*%
%TF.FilePolarity,Positive*%
%FSLAX45Y45*%
G04 Gerber Fmt 4.5, Leading zero omitted, Abs format (unit mm)*
G04 Created by KiCad (PCBNEW 9.0.6) date 2026-01-19 14:32:23*
%MOMM*%
%LPD*%
G01*
G04 APERTURE LIST*
%ADD10C,0.150000*%
%ADD11C,0.200000*%
%ADD12C,0.100000*%
G04 APERTURE END LIST*
D10*
X7650000Y-5100000D02*
X7650000Y-5350000D01*
X13300000Y-5100000D02*
X7650000Y-5100000D01*
X14000000Y-8450000D02*
X14000000Y-5900000D01*
X7800000Y-8300000D02*
X7150000Y-8300000D01*
X13200000Y-9100000D02*
X13200000Y-8850000D01*
X13200000Y-8850000D02*
G75*
G02*
X13600000Y-8450000I400000J0D01*
G01*
X7800000Y-7100000D02*
X7800000Y-8300000D01*
X7550000Y-6850000D02*
X7800000Y-7100000D01*
X7150000Y-8300000D02*
X7150000Y-9100000D01*
X7650000Y-5350000D02*
G75*
G02*
X7250000Y-5750000I-400000J0D01*
G01*
X13700000Y-5900000D02*
G75*
G02*
X13300000Y-5500000I0J400000D01*
G01*
X7250000Y-5750000D02*
X7000000Y-5750000D01*
X7150000Y-9100000D02*
X13200000Y-9100000D01*
X13600000Y-8450000D02*
X14000000Y-8450000D01*
X14000000Y-5900000D02*
X13700000Y-5900000D01*
X13300000Y-5500000D02*
X13300000Y-5100000D01*
X7000000Y-5750000D02*
X7000000Y-6850000D01*
X7000000Y-6850000D02*
X7550000Y-6850000D01*
D11*
D12*
X12833500Y-6295000D02*
X12903500Y-6365000D01*
X12903500Y-6295000D02*
X12833500Y-6365000D01*
X12833500Y-7095000D02*
X12903500Y-7165000D01*
X12903500Y-7095000D02*
X12833500Y-7165000D01*
D11*
X7253277Y-9418984D02*
X7253277Y-9218984D01*
X7253277Y-9218984D02*
X7300896Y-9218984D01*
X7300896Y-9218984D02*
X7329467Y-9228508D01*
X7329467Y-9228508D02*
X7348515Y-9247555D01*
X7348515Y-9247555D02*
X7358039Y-9266603D01*
X7358039Y-9266603D02*
X7367562Y-9304698D01*
X7367562Y-9304698D02*
X7367562Y-9333270D01*
X7367562Y-9333270D02*
X7358039Y-9371365D01*
X7358039Y-9371365D02*
X7348515Y-9390412D01*
X7348515Y-9390412D02*
X7329467Y-9409460D01*
X7329467Y-9409460D02*
X7300896Y-9418984D01*
X7300896Y-9418984D02*
X7253277Y-9418984D01*
X7453277Y-9418984D02*
X7453277Y-9285650D01*
X7453277Y-9323746D02*
X7462801Y-9304698D01*
X7462801Y-9304698D02*
X7472324Y-9295174D01*
X7472324Y-9295174D02*
X7491372Y-9285650D01*
X7491372Y-9285650D02*
X7510420Y-9285650D01*
X7577086Y-9418984D02*
X7577086Y-9285650D01*
X7577086Y-9218984D02*
X7567562Y-9228508D01*
X7567562Y-9228508D02*
X7577086Y-9238031D01*
X7577086Y-9238031D02*
X7586610Y-9228508D01*
X7586610Y-9228508D02*
X7577086Y-9218984D01*
X7577086Y-9218984D02*
X7577086Y-9238031D01*
X7700896Y-9418984D02*
X7681848Y-9409460D01*
X7681848Y-9409460D02*
X7672324Y-9390412D01*
X7672324Y-9390412D02*
X7672324Y-9218984D01*
X7805658Y-9418984D02*
X7786610Y-9409460D01*
X7786610Y-9409460D02*
X7777086Y-9390412D01*
X7777086Y-9390412D02*
X7777086Y-9218984D01*
X8034229Y-9418984D02*
X8034229Y-9218984D01*
X8034229Y-9218984D02*
X8100896Y-9361841D01*
X8100896Y-9361841D02*
X8167562Y-9218984D01*
X8167562Y-9218984D02*
X8167562Y-9418984D01*
X8348515Y-9418984D02*
X8348515Y-9314222D01*
X8348515Y-9314222D02*
X8338991Y-9295174D01*
X8338991Y-9295174D02*
X8319943Y-9285650D01*
X8319943Y-9285650D02*
X8281848Y-9285650D01*
X8281848Y-9285650D02*
X8262801Y-9295174D01*
X8348515Y-9409460D02*
X8329467Y-9418984D01*
X8329467Y-9418984D02*
X8281848Y-9418984D01*
X8281848Y-9418984D02*
X8262801Y-9409460D01*
X8262801Y-9409460D02*
X8253277Y-9390412D01*
X8253277Y-9390412D02*
X8253277Y-9371365D01*
X8253277Y-9371365D02*
X8262801Y-9352317D01*
X8262801Y-9352317D02*
X8281848Y-9342793D01*
X8281848Y-9342793D02*
X8329467Y-9342793D01*
X8329467Y-9342793D02*
X8348515Y-9333270D01*
X8443753Y-9285650D02*
X8443753Y-9485650D01*
X8443753Y-9295174D02*
X8462801Y-9285650D01*
X8462801Y-9285650D02*
X8500896Y-9285650D01*
X8500896Y-9285650D02*
X8519944Y-9295174D01*
X8519944Y-9295174D02*
X8529467Y-9304698D01*
X8529467Y-9304698D02*
X8538991Y-9323746D01*
X8538991Y-9323746D02*
X8538991Y-9380889D01*
X8538991Y-9380889D02*
X8529467Y-9399936D01*
X8529467Y-9399936D02*
X8519944Y-9409460D01*
X8519944Y-9409460D02*
X8500896Y-9418984D01*
X8500896Y-9418984D02*
X8462801Y-9418984D01*
X8462801Y-9418984D02*
X8443753Y-9409460D01*
X8624705Y-9399936D02*
X8634229Y-9409460D01*
X8634229Y-9409460D02*
X8624705Y-9418984D01*
X8624705Y-9418984D02*
X8615182Y-9409460D01*
X8615182Y-9409460D02*
X8624705Y-9399936D01*
X8624705Y-9399936D02*
X8624705Y-9418984D01*
X8624705Y-9295174D02*
X8634229Y-9304698D01*
X8634229Y-9304698D02*
X8624705Y-9314222D01*
X8624705Y-9314222D02*
X8615182Y-9304698D01*
X8615182Y-9304698D02*
X8624705Y-9295174D01*
X8624705Y-9295174D02*
X8624705Y-9314222D01*
D12*
X6922500Y-9712500D02*
X6992500Y-9782500D01*
X6992500Y-9712500D02*
X6922500Y-9782500D01*
D11*
X7291372Y-9638984D02*
X7310420Y-9638984D01*
X7310420Y-9638984D02*
X7329467Y-9648508D01*
X7329467Y-9648508D02*
X7338991Y-9658031D01*
X7338991Y-9658031D02*
X7348515Y-9677079D01*
X7348515Y-9677079D02*
X7358039Y-9715174D01*
X7358039Y-9715174D02*
X7358039Y-9762793D01*
X7358039Y-9762793D02*
X7348515Y-9800889D01*
X7348515Y-9800889D02*
X7338991Y-9819936D01*
X7338991Y-9819936D02*
X7329467Y-9829460D01*
X7329467Y-9829460D02*
X7310420Y-9838984D01*
X7310420Y-9838984D02*
X7291372Y-9838984D01*
X7291372Y-9838984D02*
X7272324Y-9829460D01*
X7272324Y-9829460D02*
X7262801Y-9819936D01*
X7262801Y-9819936D02*
X7253277Y-9800889D01*
X7253277Y-9800889D02*
X7243753Y-9762793D01*
X7243753Y-9762793D02*
X7243753Y-9715174D01*
X7243753Y-9715174D02*
X7253277Y-9677079D01*
X7253277Y-9677079D02*
X7262801Y-9658031D01*
X7262801Y-9658031D02*
X7272324Y-9648508D01*
X7272324Y-9648508D02*
X7291372Y-9638984D01*
X7443753Y-9819936D02*
X7453277Y-9829460D01*
X7453277Y-9829460D02*
X7443753Y-9838984D01*
X7443753Y-9838984D02*
X7434229Y-9829460D01*
X7434229Y-9829460D02*
X7443753Y-9819936D01*
X7443753Y-9819936D02*
X7443753Y-9838984D01*
X7519943Y-9638984D02*
X7653277Y-9638984D01*
X7653277Y-9638984D02*
X7567562Y-9838984D01*
X7767562Y-9638984D02*
X7786610Y-9638984D01*
X7786610Y-9638984D02*
X7805658Y-9648508D01*
X7805658Y-9648508D02*
X7815182Y-9658031D01*
X7815182Y-9658031D02*
X7824705Y-9677079D01*
X7824705Y-9677079D02*
X7834229Y-9715174D01*
X7834229Y-9715174D02*
X7834229Y-9762793D01*
X7834229Y-9762793D02*
X7824705Y-9800889D01*
X7824705Y-9800889D02*
X7815182Y-9819936D01*
X7815182Y-9819936D02*
X7805658Y-9829460D01*
X7805658Y-9829460D02*
X7786610Y-9838984D01*
X7786610Y-9838984D02*
X7767562Y-9838984D01*
X7767562Y-9838984D02*
X7748515Y-9829460D01*
X7748515Y-9829460D02*
X7738991Y-9819936D01*
X7738991Y-9819936D02*
X7729467Y-9800889D01*
X7729467Y-9800889D02*
X7719943Y-9762793D01*
X7719943Y-9762793D02*
X7719943Y-9715174D01*
X7719943Y-9715174D02*
X7729467Y-9677079D01*
X7729467Y-9677079D02*
X7738991Y-9658031D01*
X7738991Y-9658031D02*
X7748515Y-9648508D01*
X7748515Y-9648508D02*
X7767562Y-9638984D01*
X7958039Y-9638984D02*
X7977086Y-9638984D01*
X7977086Y-9638984D02*
X7996134Y-9648508D01*
X7996134Y-9648508D02*
X8005658Y-9658031D01*
X8005658Y-9658031D02*
X8015182Y-9677079D01*
X8015182Y-9677079D02*
X8024705Y-9715174D01*
X8024705Y-9715174D02*
X8024705Y-9762793D01*
X8024705Y-9762793D02*
X8015182Y-9800889D01*
X8015182Y-9800889D02*
X8005658Y-9819936D01*
X8005658Y-9819936D02*
X7996134Y-9829460D01*
X7996134Y-9829460D02*
X7977086Y-9838984D01*
X7977086Y-9838984D02*
X7958039Y-9838984D01*
X7958039Y-9838984D02*
X7938991Y-9829460D01*
X7938991Y-9829460D02*
X7929467Y-9819936D01*
X7929467Y-9819936D02*
X7919943Y-9800889D01*
X7919943Y-9800889D02*
X7910420Y-9762793D01*
X7910420Y-9762793D02*
X7910420Y-9715174D01*
X7910420Y-9715174D02*
X7919943Y-9677079D01*
X7919943Y-9677079D02*
X7929467Y-9658031D01*
X7929467Y-9658031D02*
X7938991Y-9648508D01*
X7938991Y-9648508D02*
X7958039Y-9638984D01*
X8110420Y-9838984D02*
X8110420Y-9705650D01*
X8110420Y-9724698D02*
X8119943Y-9715174D01*
X8119943Y-9715174D02*
X8138991Y-9705650D01*
X8138991Y-9705650D02*
X8167563Y-9705650D01*
X8167563Y-9705650D02*
X8186610Y-9715174D01*
X8186610Y-9715174D02*
X8196134Y-9734222D01*
X8196134Y-9734222D02*
X8196134Y-9838984D01*
X8196134Y-9734222D02*
X8205658Y-9715174D01*
X8205658Y-9715174D02*
X8224705Y-9705650D01*
X8224705Y-9705650D02*
X8253277Y-9705650D01*
X8253277Y-9705650D02*
X8272324Y-9715174D01*
X8272324Y-9715174D02*
X8281848Y-9734222D01*
X8281848Y-9734222D02*
X8281848Y-9838984D01*
X8377086Y-9838984D02*
X8377086Y-9705650D01*
X8377086Y-9724698D02*
X8386610Y-9715174D01*
X8386610Y-9715174D02*
X8405658Y-9705650D01*
X8405658Y-9705650D02*
X8434229Y-9705650D01*
X8434229Y-9705650D02*
X8453277Y-9715174D01*
X8453277Y-9715174D02*
X8462801Y-9734222D01*
X8462801Y-9734222D02*
X8462801Y-9838984D01*
X8462801Y-9734222D02*
X8472325Y-9715174D01*
X8472325Y-9715174D02*
X8491372Y-9705650D01*
X8491372Y-9705650D02*
X8519944Y-9705650D01*
X8519944Y-9705650D02*
X8538991Y-9715174D01*
X8538991Y-9715174D02*
X8548515Y-9734222D01*
X8548515Y-9734222D02*
X8548515Y-9838984D01*
X8938991Y-9629460D02*
X8767563Y-9886603D01*
X9196134Y-9638984D02*
X9215182Y-9638984D01*
X9215182Y-9638984D02*
X9234229Y-9648508D01*
X9234229Y-9648508D02*
X9243753Y-9658031D01*
X9243753Y-9658031D02*
X9253277Y-9677079D01*
X9253277Y-9677079D02*
X9262801Y-9715174D01*
X9262801Y-9715174D02*
X9262801Y-9762793D01*
X9262801Y-9762793D02*
X9253277Y-9800889D01*
X9253277Y-9800889D02*
X9243753Y-9819936D01*
X9243753Y-9819936D02*
X9234229Y-9829460D01*
X9234229Y-9829460D02*
X9215182Y-9838984D01*
X9215182Y-9838984D02*
X9196134Y-9838984D01*
X9196134Y-9838984D02*
X9177087Y-9829460D01*
X9177087Y-9829460D02*
X9167563Y-9819936D01*
X9167563Y-9819936D02*
X9158039Y-9800889D01*
X9158039Y-9800889D02*
X9148515Y-9762793D01*
X9148515Y-9762793D02*
X9148515Y-9715174D01*
X9148515Y-9715174D02*
X9158039Y-9677079D01*
X9158039Y-9677079D02*
X9167563Y-9658031D01*
X9167563Y-9658031D02*
X9177087Y-9648508D01*
X9177087Y-9648508D02*
X9196134Y-9638984D01*
X9348515Y-9819936D02*
X9358039Y-9829460D01*
X9358039Y-9829460D02*
X9348515Y-9838984D01*
X9348515Y-9838984D02*
X9338991Y-9829460D01*
X9338991Y-9829460D02*
X9348515Y-9819936D01*
X9348515Y-9819936D02*
X9348515Y-9838984D01*
X9481848Y-9638984D02*
X9500896Y-9638984D01*
X9500896Y-9638984D02*
X9519944Y-9648508D01*
X9519944Y-9648508D02*
X9529468Y-9658031D01*
X9529468Y-9658031D02*
X9538991Y-9677079D01*
X9538991Y-9677079D02*
X9548515Y-9715174D01*
X9548515Y-9715174D02*
X9548515Y-9762793D01*
X9548515Y-9762793D02*
X9538991Y-9800889D01*
X9538991Y-9800889D02*
X9529468Y-9819936D01*
X9529468Y-9819936D02*
X9519944Y-9829460D01*
X9519944Y-9829460D02*
X9500896Y-9838984D01*
X9500896Y-9838984D02*
X9481848Y-9838984D01*
X9481848Y-9838984D02*
X9462801Y-9829460D01*
X9462801Y-9829460D02*
X9453277Y-9819936D01*
X9453277Y-9819936D02*
X9443753Y-9800889D01*
X9443753Y-9800889D02*
X9434229Y-9762793D01*
X9434229Y-9762793D02*
X9434229Y-9715174D01*
X9434229Y-9715174D02*
X9443753Y-9677079D01*
X9443753Y-9677079D02*
X9453277Y-9658031D01*
X9453277Y-9658031D02*
X9462801Y-9648508D01*
X9462801Y-9648508D02*
X9481848Y-9638984D01*
X9624706Y-9658031D02*
X9634229Y-9648508D01*
X9634229Y-9648508D02*
X9653277Y-9638984D01*
X9653277Y-9638984D02*
X9700896Y-9638984D01*
X9700896Y-9638984D02*
X9719944Y-9648508D01*
X9719944Y-9648508D02*
X9729468Y-9658031D01*
X9729468Y-9658031D02*
X9738991Y-9677079D01*
X9738991Y-9677079D02*
X9738991Y-9696127D01*
X9738991Y-9696127D02*
X9729468Y-9724698D01*
X9729468Y-9724698D02*
X9615182Y-9838984D01*
X9615182Y-9838984D02*
X9738991Y-9838984D01*
X9805658Y-9638984D02*
X9938991Y-9638984D01*
X9938991Y-9638984D02*
X9853277Y-9838984D01*
X10100896Y-9638984D02*
X10062801Y-9638984D01*
X10062801Y-9638984D02*
X10043753Y-9648508D01*
X10043753Y-9648508D02*
X10034229Y-9658031D01*
X10034229Y-9658031D02*
X10015182Y-9686603D01*
X10015182Y-9686603D02*
X10005658Y-9724698D01*
X10005658Y-9724698D02*
X10005658Y-9800889D01*
X10005658Y-9800889D02*
X10015182Y-9819936D01*
X10015182Y-9819936D02*
X10024706Y-9829460D01*
X10024706Y-9829460D02*
X10043753Y-9838984D01*
X10043753Y-9838984D02*
X10081849Y-9838984D01*
X10081849Y-9838984D02*
X10100896Y-9829460D01*
X10100896Y-9829460D02*
X10110420Y-9819936D01*
X10110420Y-9819936D02*
X10119944Y-9800889D01*
X10119944Y-9800889D02*
X10119944Y-9753270D01*
X10119944Y-9753270D02*
X10110420Y-9734222D01*
X10110420Y-9734222D02*
X10100896Y-9724698D01*
X10100896Y-9724698D02*
X10081849Y-9715174D01*
X10081849Y-9715174D02*
X10043753Y-9715174D01*
X10043753Y-9715174D02*
X10024706Y-9724698D01*
X10024706Y-9724698D02*
X10015182Y-9734222D01*
X10015182Y-9734222D02*
X10005658Y-9753270D01*
X10196134Y-9638984D02*
X10196134Y-9677079D01*
X10272325Y-9638984D02*
X10272325Y-9677079D01*
X10567563Y-9915174D02*
X10558039Y-9905650D01*
X10558039Y-9905650D02*
X10538991Y-9877079D01*
X10538991Y-9877079D02*
X10529468Y-9858031D01*
X10529468Y-9858031D02*
X10519944Y-9829460D01*
X10519944Y-9829460D02*
X10510420Y-9781841D01*
X10510420Y-9781841D02*
X10510420Y-9743746D01*
X10510420Y-9743746D02*
X10519944Y-9696127D01*
X10519944Y-9696127D02*
X10529468Y-9667555D01*
X10529468Y-9667555D02*
X10538991Y-9648508D01*
X10538991Y-9648508D02*
X10558039Y-9619936D01*
X10558039Y-9619936D02*
X10567563Y-9610412D01*
X10634230Y-9658031D02*
X10643753Y-9648508D01*
X10643753Y-9648508D02*
X10662801Y-9638984D01*
X10662801Y-9638984D02*
X10710420Y-9638984D01*
X10710420Y-9638984D02*
X10729468Y-9648508D01*
X10729468Y-9648508D02*
X10738991Y-9658031D01*
X10738991Y-9658031D02*
X10748515Y-9677079D01*
X10748515Y-9677079D02*
X10748515Y-9696127D01*
X10748515Y-9696127D02*
X10738991Y-9724698D01*
X10738991Y-9724698D02*
X10624706Y-9838984D01*
X10624706Y-9838984D02*
X10748515Y-9838984D01*
X10986611Y-9838984D02*
X10986611Y-9638984D01*
X11072325Y-9838984D02*
X11072325Y-9734222D01*
X11072325Y-9734222D02*
X11062801Y-9715174D01*
X11062801Y-9715174D02*
X11043753Y-9705650D01*
X11043753Y-9705650D02*
X11015182Y-9705650D01*
X11015182Y-9705650D02*
X10996134Y-9715174D01*
X10996134Y-9715174D02*
X10986611Y-9724698D01*
X11196134Y-9838984D02*
X11177087Y-9829460D01*
X11177087Y-9829460D02*
X11167563Y-9819936D01*
X11167563Y-9819936D02*
X11158039Y-9800889D01*
X11158039Y-9800889D02*
X11158039Y-9743746D01*
X11158039Y-9743746D02*
X11167563Y-9724698D01*
X11167563Y-9724698D02*
X11177087Y-9715174D01*
X11177087Y-9715174D02*
X11196134Y-9705650D01*
X11196134Y-9705650D02*
X11224706Y-9705650D01*
X11224706Y-9705650D02*
X11243753Y-9715174D01*
X11243753Y-9715174D02*
X11253277Y-9724698D01*
X11253277Y-9724698D02*
X11262801Y-9743746D01*
X11262801Y-9743746D02*
X11262801Y-9800889D01*
X11262801Y-9800889D02*
X11253277Y-9819936D01*
X11253277Y-9819936D02*
X11243753Y-9829460D01*
X11243753Y-9829460D02*
X11224706Y-9838984D01*
X11224706Y-9838984D02*
X11196134Y-9838984D01*
X11377087Y-9838984D02*
X11358039Y-9829460D01*
X11358039Y-9829460D02*
X11348515Y-9810412D01*
X11348515Y-9810412D02*
X11348515Y-9638984D01*
X11529468Y-9829460D02*
X11510420Y-9838984D01*
X11510420Y-9838984D02*
X11472325Y-9838984D01*
X11472325Y-9838984D02*
X11453277Y-9829460D01*
X11453277Y-9829460D02*
X11443753Y-9810412D01*
X11443753Y-9810412D02*
X11443753Y-9734222D01*
X11443753Y-9734222D02*
X11453277Y-9715174D01*
X11453277Y-9715174D02*
X11472325Y-9705650D01*
X11472325Y-9705650D02*
X11510420Y-9705650D01*
X11510420Y-9705650D02*
X11529468Y-9715174D01*
X11529468Y-9715174D02*
X11538991Y-9734222D01*
X11538991Y-9734222D02*
X11538991Y-9753270D01*
X11538991Y-9753270D02*
X11443753Y-9772317D01*
X11615182Y-9829460D02*
X11634230Y-9838984D01*
X11634230Y-9838984D02*
X11672325Y-9838984D01*
X11672325Y-9838984D02*
X11691372Y-9829460D01*
X11691372Y-9829460D02*
X11700896Y-9810412D01*
X11700896Y-9810412D02*
X11700896Y-9800889D01*
X11700896Y-9800889D02*
X11691372Y-9781841D01*
X11691372Y-9781841D02*
X11672325Y-9772317D01*
X11672325Y-9772317D02*
X11643753Y-9772317D01*
X11643753Y-9772317D02*
X11624706Y-9762793D01*
X11624706Y-9762793D02*
X11615182Y-9743746D01*
X11615182Y-9743746D02*
X11615182Y-9734222D01*
X11615182Y-9734222D02*
X11624706Y-9715174D01*
X11624706Y-9715174D02*
X11643753Y-9705650D01*
X11643753Y-9705650D02*
X11672325Y-9705650D01*
X11672325Y-9705650D02*
X11691372Y-9715174D01*
X11767563Y-9915174D02*
X11777087Y-9905650D01*
X11777087Y-9905650D02*
X11796134Y-9877079D01*
X11796134Y-9877079D02*
X11805658Y-9858031D01*
X11805658Y-9858031D02*
X11815182Y-9829460D01*
X11815182Y-9829460D02*
X11824706Y-9781841D01*
X11824706Y-9781841D02*
X11824706Y-9743746D01*
X11824706Y-9743746D02*
X11815182Y-9696127D01*
X11815182Y-9696127D02*
X11805658Y-9667555D01*
X11805658Y-9667555D02*
X11796134Y-9648508D01*
X11796134Y-9648508D02*
X11777087Y-9619936D01*
X11777087Y-9619936D02*
X11767563Y-9610412D01*
X12129468Y-9915174D02*
X12119944Y-9905650D01*
X12119944Y-9905650D02*
X12100896Y-9877079D01*
X12100896Y-9877079D02*
X12091372Y-9858031D01*
X12091372Y-9858031D02*
X12081849Y-9829460D01*
X12081849Y-9829460D02*
X12072325Y-9781841D01*
X12072325Y-9781841D02*
X12072325Y-9743746D01*
X12072325Y-9743746D02*
X12081849Y-9696127D01*
X12081849Y-9696127D02*
X12091372Y-9667555D01*
X12091372Y-9667555D02*
X12100896Y-9648508D01*
X12100896Y-9648508D02*
X12119944Y-9619936D01*
X12119944Y-9619936D02*
X12129468Y-9610412D01*
X12205658Y-9705650D02*
X12205658Y-9838984D01*
X12205658Y-9724698D02*
X12215182Y-9715174D01*
X12215182Y-9715174D02*
X12234230Y-9705650D01*
X12234230Y-9705650D02*
X12262801Y-9705650D01*
X12262801Y-9705650D02*
X12281849Y-9715174D01*
X12281849Y-9715174D02*
X12291372Y-9734222D01*
X12291372Y-9734222D02*
X12291372Y-9838984D01*
X12415182Y-9838984D02*
X12396134Y-9829460D01*
X12396134Y-9829460D02*
X12386611Y-9819936D01*
X12386611Y-9819936D02*
X12377087Y-9800889D01*
X12377087Y-9800889D02*
X12377087Y-9743746D01*
X12377087Y-9743746D02*
X12386611Y-9724698D01*
X12386611Y-9724698D02*
X12396134Y-9715174D01*
X12396134Y-9715174D02*
X12415182Y-9705650D01*
X12415182Y-9705650D02*
X12443753Y-9705650D01*
X12443753Y-9705650D02*
X12462801Y-9715174D01*
X12462801Y-9715174D02*
X12472325Y-9724698D01*
X12472325Y-9724698D02*
X12481849Y-9743746D01*
X12481849Y-9743746D02*
X12481849Y-9800889D01*
X12481849Y-9800889D02*
X12472325Y-9819936D01*
X12472325Y-9819936D02*
X12462801Y-9829460D01*
X12462801Y-9829460D02*
X12443753Y-9838984D01*
X12443753Y-9838984D02*
X12415182Y-9838984D01*
X12538992Y-9705650D02*
X12615182Y-9705650D01*
X12567563Y-9638984D02*
X12567563Y-9810412D01*
X12567563Y-9810412D02*
X12577087Y-9829460D01*
X12577087Y-9829460D02*
X12596134Y-9838984D01*
X12596134Y-9838984D02*
X12615182Y-9838984D01*
X12834230Y-9705650D02*
X12834230Y-9905650D01*
X12834230Y-9715174D02*
X12853277Y-9705650D01*
X12853277Y-9705650D02*
X12891373Y-9705650D01*
X12891373Y-9705650D02*
X12910420Y-9715174D01*
X12910420Y-9715174D02*
X12919944Y-9724698D01*
X12919944Y-9724698D02*
X12929468Y-9743746D01*
X12929468Y-9743746D02*
X12929468Y-9800889D01*
X12929468Y-9800889D02*
X12919944Y-9819936D01*
X12919944Y-9819936D02*
X12910420Y-9829460D01*
X12910420Y-9829460D02*
X12891373Y-9838984D01*
X12891373Y-9838984D02*
X12853277Y-9838984D01*
X12853277Y-9838984D02*
X12834230Y-9829460D01*
X13043753Y-9838984D02*
X13024706Y-9829460D01*
X13024706Y-9829460D02*
X13015182Y-9810412D01*
X13015182Y-9810412D02*
X13015182Y-9638984D01*
X13205658Y-9838984D02*
X13205658Y-9734222D01*
X13205658Y-9734222D02*
X13196134Y-9715174D01*
X13196134Y-9715174D02*
X13177087Y-9705650D01*
X13177087Y-9705650D02*
X13138992Y-9705650D01*
X13138992Y-9705650D02*
X13119944Y-9715174D01*
X13205658Y-9829460D02*
X13186611Y-9838984D01*
X13186611Y-9838984D02*
X13138992Y-9838984D01*
X13138992Y-9838984D02*
X13119944Y-9829460D01*
X13119944Y-9829460D02*
X13110420Y-9810412D01*
X13110420Y-9810412D02*
X13110420Y-9791365D01*
X13110420Y-9791365D02*
X13119944Y-9772317D01*
X13119944Y-9772317D02*
X13138992Y-9762793D01*
X13138992Y-9762793D02*
X13186611Y-9762793D01*
X13186611Y-9762793D02*
X13205658Y-9753270D01*
X13272325Y-9705650D02*
X13348515Y-9705650D01*
X13300896Y-9638984D02*
X13300896Y-9810412D01*
X13300896Y-9810412D02*
X13310420Y-9829460D01*
X13310420Y-9829460D02*
X13329468Y-9838984D01*
X13329468Y-9838984D02*
X13348515Y-9838984D01*
X13491373Y-9829460D02*
X13472325Y-9838984D01*
X13472325Y-9838984D02*
X13434230Y-9838984D01*
X13434230Y-9838984D02*
X13415182Y-9829460D01*
X13415182Y-9829460D02*
X13405658Y-9810412D01*
X13405658Y-9810412D02*
X13405658Y-9734222D01*
X13405658Y-9734222D02*
X13415182Y-9715174D01*
X13415182Y-9715174D02*
X13434230Y-9705650D01*
X13434230Y-9705650D02*
X13472325Y-9705650D01*
X13472325Y-9705650D02*
X13491373Y-9715174D01*
X13491373Y-9715174D02*
X13500896Y-9734222D01*
X13500896Y-9734222D02*
X13500896Y-9753270D01*
X13500896Y-9753270D02*
X13405658Y-9772317D01*
X13672325Y-9838984D02*
X13672325Y-9638984D01*
X13672325Y-9829460D02*
X13653277Y-9838984D01*
X13653277Y-9838984D02*
X13615182Y-9838984D01*
X13615182Y-9838984D02*
X13596134Y-9829460D01*
X13596134Y-9829460D02*
X13586611Y-9819936D01*
X13586611Y-9819936D02*
X13577087Y-9800889D01*
X13577087Y-9800889D02*
X13577087Y-9743746D01*
X13577087Y-9743746D02*
X13586611Y-9724698D01*
X13586611Y-9724698D02*
X13596134Y-9715174D01*
X13596134Y-9715174D02*
X13615182Y-9705650D01*
X13615182Y-9705650D02*
X13653277Y-9705650D01*
X13653277Y-9705650D02*
X13672325Y-9715174D01*
X13748515Y-9915174D02*
X13758039Y-9905650D01*
X13758039Y-9905650D02*
X13777087Y-9877079D01*
X13777087Y-9877079D02*
X13786611Y-9858031D01*
X13786611Y-9858031D02*
X13796134Y-9829460D01*
X13796134Y-9829460D02*
X13805658Y-9781841D01*
X13805658Y-9781841D02*
X13805658Y-9743746D01*
X13805658Y-9743746D02*
X13796134Y-9696127D01*
X13796134Y-9696127D02*
X13786611Y-9667555D01*
X13786611Y-9667555D02*
X13777087Y-9648508D01*
X13777087Y-9648508D02*
X13758039Y-9619936D01*
X13758039Y-9619936D02*
X13748515Y-9610412D01*
M02*
