%TF.GenerationSoftware,KiCad,Pcbnew,9.0.6*%
%TF.CreationDate,2026-01-19T14:32:23-05:00*%
%TF.ProjectId,cablight-project,6361626c-6967-4687-942d-70726f6a6563,rev?*%
%TF.SameCoordinates,Original*%
%TF.FileFunction,Drillmap*%
%TF.FilePolarity,Positive*%
%FSLAX45Y45*%
G04 Gerber Fmt 4.5, Leading zero omitted, Abs format (unit mm)*
G04 Created by KiCad (PCBNEW 9.0.6) date 2026-01-19 14:32:23*
%MOMM*%
%LPD*%
G01*
G04 APERTURE LIST*
%ADD10C,0.150000*%
%ADD11C,0.200000*%
%ADD12C,0.100000*%
%ADD13C,0.110000*%
%ADD14C,0.120000*%
%ADD15C,0.270000*%
G04 APERTURE END LIST*
D10*
X7650000Y-5100000D02*
X7650000Y-5350000D01*
X13300000Y-5100000D02*
X7650000Y-5100000D01*
X14000000Y-8450000D02*
X14000000Y-5900000D01*
X7800000Y-8300000D02*
X7150000Y-8300000D01*
X13200000Y-9100000D02*
X13200000Y-8850000D01*
X13200000Y-8850000D02*
G75*
G02*
X13600000Y-8450000I400000J0D01*
G01*
X7800000Y-7100000D02*
X7800000Y-8300000D01*
X7550000Y-6850000D02*
X7800000Y-7100000D01*
X7150000Y-8300000D02*
X7150000Y-9100000D01*
X7650000Y-5350000D02*
G75*
G02*
X7250000Y-5750000I-400000J0D01*
G01*
X13700000Y-5900000D02*
G75*
G02*
X13300000Y-5500000I0J400000D01*
G01*
X7250000Y-5750000D02*
X7000000Y-5750000D01*
X7150000Y-9100000D02*
X13200000Y-9100000D01*
X13600000Y-8450000D02*
X14000000Y-8450000D01*
X14000000Y-5900000D02*
X13700000Y-5900000D01*
X13300000Y-5500000D02*
X13300000Y-5100000D01*
X7000000Y-5750000D02*
X7000000Y-6850000D01*
X7000000Y-6850000D02*
X7550000Y-6850000D01*
D11*
D12*
X12820450Y-6695231D02*
X12840450Y-6715231D01*
X12840450Y-6695231D02*
X12820450Y-6715231D01*
X12890500Y-6805512D02*
X12910500Y-6825512D01*
X12910500Y-6805512D02*
X12890500Y-6825512D01*
X7955000Y-8710000D02*
G75*
G02*
X7925000Y-8710000I-15000J0D01*
G01*
X7925000Y-8710000D02*
G75*
G02*
X7955000Y-8710000I15000J0D01*
G01*
X8010000Y-7620000D02*
G75*
G02*
X7980000Y-7620000I-15000J0D01*
G01*
X7980000Y-7620000D02*
G75*
G02*
X8010000Y-7620000I15000J0D01*
G01*
X8010000Y-8135000D02*
G75*
G02*
X7980000Y-8135000I-15000J0D01*
G01*
X7980000Y-8135000D02*
G75*
G02*
X8010000Y-8135000I15000J0D01*
G01*
X8250000Y-5235000D02*
G75*
G02*
X8220000Y-5235000I-15000J0D01*
G01*
X8220000Y-5235000D02*
G75*
G02*
X8250000Y-5235000I15000J0D01*
G01*
X8280000Y-5910000D02*
G75*
G02*
X8250000Y-5910000I-15000J0D01*
G01*
X8250000Y-5910000D02*
G75*
G02*
X8280000Y-5910000I15000J0D01*
G01*
X8560000Y-5790000D02*
G75*
G02*
X8530000Y-5790000I-15000J0D01*
G01*
X8530000Y-5790000D02*
G75*
G02*
X8560000Y-5790000I15000J0D01*
G01*
X8610000Y-6695000D02*
G75*
G02*
X8580000Y-6695000I-15000J0D01*
G01*
X8580000Y-6695000D02*
G75*
G02*
X8610000Y-6695000I15000J0D01*
G01*
X8617500Y-5577500D02*
G75*
G02*
X8587500Y-5577500I-15000J0D01*
G01*
X8587500Y-5577500D02*
G75*
G02*
X8617500Y-5577500I15000J0D01*
G01*
X8780000Y-8080000D02*
G75*
G02*
X8750000Y-8080000I-15000J0D01*
G01*
X8750000Y-8080000D02*
G75*
G02*
X8780000Y-8080000I15000J0D01*
G01*
X8780000Y-8250000D02*
G75*
G02*
X8750000Y-8250000I-15000J0D01*
G01*
X8750000Y-8250000D02*
G75*
G02*
X8780000Y-8250000I15000J0D01*
G01*
X8797500Y-7785000D02*
G75*
G02*
X8767500Y-7785000I-15000J0D01*
G01*
X8767500Y-7785000D02*
G75*
G02*
X8797500Y-7785000I15000J0D01*
G01*
X8875000Y-6695000D02*
G75*
G02*
X8845000Y-6695000I-15000J0D01*
G01*
X8845000Y-6695000D02*
G75*
G02*
X8875000Y-6695000I15000J0D01*
G01*
X9057500Y-7690000D02*
G75*
G02*
X9027500Y-7690000I-15000J0D01*
G01*
X9027500Y-7690000D02*
G75*
G02*
X9057500Y-7690000I15000J0D01*
G01*
X9087500Y-5887500D02*
G75*
G02*
X9057500Y-5887500I-15000J0D01*
G01*
X9057500Y-5887500D02*
G75*
G02*
X9087500Y-5887500I15000J0D01*
G01*
X9170000Y-7840000D02*
G75*
G02*
X9140000Y-7840000I-15000J0D01*
G01*
X9140000Y-7840000D02*
G75*
G02*
X9170000Y-7840000I15000J0D01*
G01*
X9170000Y-8050000D02*
G75*
G02*
X9140000Y-8050000I-15000J0D01*
G01*
X9140000Y-8050000D02*
G75*
G02*
X9170000Y-8050000I15000J0D01*
G01*
X9170000Y-8275000D02*
G75*
G02*
X9140000Y-8275000I-15000J0D01*
G01*
X9140000Y-8275000D02*
G75*
G02*
X9170000Y-8275000I15000J0D01*
G01*
X9185000Y-5415000D02*
G75*
G02*
X9155000Y-5415000I-15000J0D01*
G01*
X9155000Y-5415000D02*
G75*
G02*
X9185000Y-5415000I15000J0D01*
G01*
X9190000Y-7075000D02*
G75*
G02*
X9160000Y-7075000I-15000J0D01*
G01*
X9160000Y-7075000D02*
G75*
G02*
X9190000Y-7075000I15000J0D01*
G01*
X9191500Y-5770000D02*
G75*
G02*
X9161500Y-5770000I-15000J0D01*
G01*
X9161500Y-5770000D02*
G75*
G02*
X9191500Y-5770000I15000J0D01*
G01*
X9205000Y-5210000D02*
G75*
G02*
X9175000Y-5210000I-15000J0D01*
G01*
X9175000Y-5210000D02*
G75*
G02*
X9205000Y-5210000I15000J0D01*
G01*
X9207500Y-5617500D02*
G75*
G02*
X9177500Y-5617500I-15000J0D01*
G01*
X9177500Y-5617500D02*
G75*
G02*
X9207500Y-5617500I15000J0D01*
G01*
X9267500Y-5930000D02*
G75*
G02*
X9237500Y-5930000I-15000J0D01*
G01*
X9237500Y-5930000D02*
G75*
G02*
X9267500Y-5930000I15000J0D01*
G01*
X9317500Y-5507500D02*
G75*
G02*
X9287500Y-5507500I-15000J0D01*
G01*
X9287500Y-5507500D02*
G75*
G02*
X9317500Y-5507500I15000J0D01*
G01*
X9350000Y-8030000D02*
G75*
G02*
X9320000Y-8030000I-15000J0D01*
G01*
X9320000Y-8030000D02*
G75*
G02*
X9350000Y-8030000I15000J0D01*
G01*
X9370000Y-5585000D02*
G75*
G02*
X9340000Y-5585000I-15000J0D01*
G01*
X9340000Y-5585000D02*
G75*
G02*
X9370000Y-5585000I15000J0D01*
G01*
X9611500Y-5580000D02*
G75*
G02*
X9581500Y-5580000I-15000J0D01*
G01*
X9581500Y-5580000D02*
G75*
G02*
X9611500Y-5580000I15000J0D01*
G01*
X9625000Y-8065000D02*
G75*
G02*
X9595000Y-8065000I-15000J0D01*
G01*
X9595000Y-8065000D02*
G75*
G02*
X9625000Y-8065000I15000J0D01*
G01*
X9920000Y-7720000D02*
G75*
G02*
X9890000Y-7720000I-15000J0D01*
G01*
X9890000Y-7720000D02*
G75*
G02*
X9920000Y-7720000I15000J0D01*
G01*
X9965000Y-7840000D02*
G75*
G02*
X9935000Y-7840000I-15000J0D01*
G01*
X9935000Y-7840000D02*
G75*
G02*
X9965000Y-7840000I15000J0D01*
G01*
X10015000Y-5475000D02*
G75*
G02*
X9985000Y-5475000I-15000J0D01*
G01*
X9985000Y-5475000D02*
G75*
G02*
X10015000Y-5475000I15000J0D01*
G01*
X10015000Y-5910000D02*
G75*
G02*
X9985000Y-5910000I-15000J0D01*
G01*
X9985000Y-5910000D02*
G75*
G02*
X10015000Y-5910000I15000J0D01*
G01*
X10175000Y-7115000D02*
G75*
G02*
X10145000Y-7115000I-15000J0D01*
G01*
X10145000Y-7115000D02*
G75*
G02*
X10175000Y-7115000I15000J0D01*
G01*
X10175000Y-7195000D02*
G75*
G02*
X10145000Y-7195000I-15000J0D01*
G01*
X10145000Y-7195000D02*
G75*
G02*
X10175000Y-7195000I15000J0D01*
G01*
X10290000Y-5225000D02*
G75*
G02*
X10260000Y-5225000I-15000J0D01*
G01*
X10260000Y-5225000D02*
G75*
G02*
X10290000Y-5225000I15000J0D01*
G01*
X10315000Y-8420000D02*
G75*
G02*
X10285000Y-8420000I-15000J0D01*
G01*
X10285000Y-8420000D02*
G75*
G02*
X10315000Y-8420000I15000J0D01*
G01*
X10350000Y-7705000D02*
G75*
G02*
X10320000Y-7705000I-15000J0D01*
G01*
X10320000Y-7705000D02*
G75*
G02*
X10350000Y-7705000I15000J0D01*
G01*
X10350000Y-8585000D02*
G75*
G02*
X10320000Y-8585000I-15000J0D01*
G01*
X10320000Y-8585000D02*
G75*
G02*
X10350000Y-8585000I15000J0D01*
G01*
X10360000Y-5870000D02*
G75*
G02*
X10330000Y-5870000I-15000J0D01*
G01*
X10330000Y-5870000D02*
G75*
G02*
X10360000Y-5870000I15000J0D01*
G01*
X10390000Y-5770000D02*
G75*
G02*
X10360000Y-5770000I-15000J0D01*
G01*
X10360000Y-5770000D02*
G75*
G02*
X10390000Y-5770000I15000J0D01*
G01*
X10395000Y-5580000D02*
G75*
G02*
X10365000Y-5580000I-15000J0D01*
G01*
X10365000Y-5580000D02*
G75*
G02*
X10395000Y-5580000I15000J0D01*
G01*
X10410000Y-7795000D02*
G75*
G02*
X10380000Y-7795000I-15000J0D01*
G01*
X10380000Y-7795000D02*
G75*
G02*
X10410000Y-7795000I15000J0D01*
G01*
X10465000Y-7705000D02*
G75*
G02*
X10435000Y-7705000I-15000J0D01*
G01*
X10435000Y-7705000D02*
G75*
G02*
X10465000Y-7705000I15000J0D01*
G01*
X10525000Y-7795000D02*
G75*
G02*
X10495000Y-7795000I-15000J0D01*
G01*
X10495000Y-7795000D02*
G75*
G02*
X10525000Y-7795000I15000J0D01*
G01*
X10540000Y-7900000D02*
G75*
G02*
X10510000Y-7900000I-15000J0D01*
G01*
X10510000Y-7900000D02*
G75*
G02*
X10540000Y-7900000I15000J0D01*
G01*
X10590000Y-7705000D02*
G75*
G02*
X10560000Y-7705000I-15000J0D01*
G01*
X10560000Y-7705000D02*
G75*
G02*
X10590000Y-7705000I15000J0D01*
G01*
X10595000Y-6810000D02*
G75*
G02*
X10565000Y-6810000I-15000J0D01*
G01*
X10565000Y-6810000D02*
G75*
G02*
X10595000Y-6810000I15000J0D01*
G01*
X10600000Y-8020000D02*
G75*
G02*
X10570000Y-8020000I-15000J0D01*
G01*
X10570000Y-8020000D02*
G75*
G02*
X10600000Y-8020000I15000J0D01*
G01*
X10620000Y-6395000D02*
G75*
G02*
X10590000Y-6395000I-15000J0D01*
G01*
X10590000Y-6395000D02*
G75*
G02*
X10620000Y-6395000I15000J0D01*
G01*
X10645000Y-7810000D02*
G75*
G02*
X10615000Y-7810000I-15000J0D01*
G01*
X10615000Y-7810000D02*
G75*
G02*
X10645000Y-7810000I15000J0D01*
G01*
X10660000Y-7910000D02*
G75*
G02*
X10630000Y-7910000I-15000J0D01*
G01*
X10630000Y-7910000D02*
G75*
G02*
X10660000Y-7910000I15000J0D01*
G01*
X10690000Y-5570000D02*
G75*
G02*
X10660000Y-5570000I-15000J0D01*
G01*
X10660000Y-5570000D02*
G75*
G02*
X10690000Y-5570000I15000J0D01*
G01*
X10720000Y-5470000D02*
G75*
G02*
X10690000Y-5470000I-15000J0D01*
G01*
X10690000Y-5470000D02*
G75*
G02*
X10720000Y-5470000I15000J0D01*
G01*
X10720000Y-6395000D02*
G75*
G02*
X10690000Y-6395000I-15000J0D01*
G01*
X10690000Y-6395000D02*
G75*
G02*
X10720000Y-6395000I15000J0D01*
G01*
X10721500Y-6810000D02*
G75*
G02*
X10691500Y-6810000I-15000J0D01*
G01*
X10691500Y-6810000D02*
G75*
G02*
X10721500Y-6810000I15000J0D01*
G01*
X10955000Y-7285000D02*
G75*
G02*
X10925000Y-7285000I-15000J0D01*
G01*
X10925000Y-7285000D02*
G75*
G02*
X10955000Y-7285000I15000J0D01*
G01*
X11020000Y-7860000D02*
G75*
G02*
X10990000Y-7860000I-15000J0D01*
G01*
X10990000Y-7860000D02*
G75*
G02*
X11020000Y-7860000I15000J0D01*
G01*
X11097500Y-6335000D02*
G75*
G02*
X11067500Y-6335000I-15000J0D01*
G01*
X11067500Y-6335000D02*
G75*
G02*
X11097500Y-6335000I15000J0D01*
G01*
X11098500Y-6195000D02*
G75*
G02*
X11068500Y-6195000I-15000J0D01*
G01*
X11068500Y-6195000D02*
G75*
G02*
X11098500Y-6195000I15000J0D01*
G01*
X11100000Y-8265000D02*
G75*
G02*
X11070000Y-8265000I-15000J0D01*
G01*
X11070000Y-8265000D02*
G75*
G02*
X11100000Y-8265000I15000J0D01*
G01*
X11150000Y-7250000D02*
G75*
G02*
X11120000Y-7250000I-15000J0D01*
G01*
X11120000Y-7250000D02*
G75*
G02*
X11150000Y-7250000I15000J0D01*
G01*
X11166500Y-6265000D02*
G75*
G02*
X11136500Y-6265000I-15000J0D01*
G01*
X11136500Y-6265000D02*
G75*
G02*
X11166500Y-6265000I15000J0D01*
G01*
X11167500Y-6125000D02*
G75*
G02*
X11137500Y-6125000I-15000J0D01*
G01*
X11137500Y-6125000D02*
G75*
G02*
X11167500Y-6125000I15000J0D01*
G01*
X11167500Y-6405000D02*
G75*
G02*
X11137500Y-6405000I-15000J0D01*
G01*
X11137500Y-6405000D02*
G75*
G02*
X11167500Y-6405000I15000J0D01*
G01*
X11205000Y-7560000D02*
G75*
G02*
X11175000Y-7560000I-15000J0D01*
G01*
X11175000Y-7560000D02*
G75*
G02*
X11205000Y-7560000I15000J0D01*
G01*
X11215000Y-8265000D02*
G75*
G02*
X11185000Y-8265000I-15000J0D01*
G01*
X11185000Y-8265000D02*
G75*
G02*
X11215000Y-8265000I15000J0D01*
G01*
X11226500Y-7195000D02*
G75*
G02*
X11196500Y-7195000I-15000J0D01*
G01*
X11196500Y-7195000D02*
G75*
G02*
X11226500Y-7195000I15000J0D01*
G01*
X11237500Y-6335000D02*
G75*
G02*
X11207500Y-6335000I-15000J0D01*
G01*
X11207500Y-6335000D02*
G75*
G02*
X11237500Y-6335000I15000J0D01*
G01*
X11238500Y-6195000D02*
G75*
G02*
X11208500Y-6195000I-15000J0D01*
G01*
X11208500Y-6195000D02*
G75*
G02*
X11238500Y-6195000I15000J0D01*
G01*
X11307500Y-6125000D02*
G75*
G02*
X11277500Y-6125000I-15000J0D01*
G01*
X11277500Y-6125000D02*
G75*
G02*
X11307500Y-6125000I15000J0D01*
G01*
X11307500Y-6265000D02*
G75*
G02*
X11277500Y-6265000I-15000J0D01*
G01*
X11277500Y-6265000D02*
G75*
G02*
X11307500Y-6265000I15000J0D01*
G01*
X11307500Y-6405000D02*
G75*
G02*
X11277500Y-6405000I-15000J0D01*
G01*
X11277500Y-6405000D02*
G75*
G02*
X11307500Y-6405000I15000J0D01*
G01*
X11376500Y-6335000D02*
G75*
G02*
X11346500Y-6335000I-15000J0D01*
G01*
X11346500Y-6335000D02*
G75*
G02*
X11376500Y-6335000I15000J0D01*
G01*
X11377500Y-6195000D02*
G75*
G02*
X11347500Y-6195000I-15000J0D01*
G01*
X11347500Y-6195000D02*
G75*
G02*
X11377500Y-6195000I15000J0D01*
G01*
X11390000Y-5605000D02*
G75*
G02*
X11360000Y-5605000I-15000J0D01*
G01*
X11360000Y-5605000D02*
G75*
G02*
X11390000Y-5605000I15000J0D01*
G01*
X11482500Y-7150000D02*
G75*
G02*
X11452500Y-7150000I-15000J0D01*
G01*
X11452500Y-7150000D02*
G75*
G02*
X11482500Y-7150000I15000J0D01*
G01*
X11495000Y-7285000D02*
G75*
G02*
X11465000Y-7285000I-15000J0D01*
G01*
X11465000Y-7285000D02*
G75*
G02*
X11495000Y-7285000I15000J0D01*
G01*
X11560000Y-6000000D02*
G75*
G02*
X11530000Y-6000000I-15000J0D01*
G01*
X11530000Y-6000000D02*
G75*
G02*
X11560000Y-6000000I15000J0D01*
G01*
X11611500Y-7150000D02*
G75*
G02*
X11581500Y-7150000I-15000J0D01*
G01*
X11581500Y-7150000D02*
G75*
G02*
X11611500Y-7150000I15000J0D01*
G01*
X11695000Y-6110000D02*
G75*
G02*
X11665000Y-6110000I-15000J0D01*
G01*
X11665000Y-6110000D02*
G75*
G02*
X11695000Y-6110000I15000J0D01*
G01*
X11695000Y-7535000D02*
G75*
G02*
X11665000Y-7535000I-15000J0D01*
G01*
X11665000Y-7535000D02*
G75*
G02*
X11695000Y-7535000I15000J0D01*
G01*
X11705000Y-5905000D02*
G75*
G02*
X11675000Y-5905000I-15000J0D01*
G01*
X11675000Y-5905000D02*
G75*
G02*
X11705000Y-5905000I15000J0D01*
G01*
X11741500Y-7150000D02*
G75*
G02*
X11711500Y-7150000I-15000J0D01*
G01*
X11711500Y-7150000D02*
G75*
G02*
X11741500Y-7150000I15000J0D01*
G01*
X11850000Y-6180000D02*
G75*
G02*
X11820000Y-6180000I-15000J0D01*
G01*
X11820000Y-6180000D02*
G75*
G02*
X11850000Y-6180000I15000J0D01*
G01*
X11861500Y-7150000D02*
G75*
G02*
X11831500Y-7150000I-15000J0D01*
G01*
X11831500Y-7150000D02*
G75*
G02*
X11861500Y-7150000I15000J0D01*
G01*
X11945000Y-6255000D02*
G75*
G02*
X11915000Y-6255000I-15000J0D01*
G01*
X11915000Y-6255000D02*
G75*
G02*
X11945000Y-6255000I15000J0D01*
G01*
X11945000Y-6485000D02*
G75*
G02*
X11915000Y-6485000I-15000J0D01*
G01*
X11915000Y-6485000D02*
G75*
G02*
X11945000Y-6485000I15000J0D01*
G01*
X11965000Y-7235000D02*
G75*
G02*
X11935000Y-7235000I-15000J0D01*
G01*
X11935000Y-7235000D02*
G75*
G02*
X11965000Y-7235000I15000J0D01*
G01*
X12020000Y-5605000D02*
G75*
G02*
X11990000Y-5605000I-15000J0D01*
G01*
X11990000Y-5605000D02*
G75*
G02*
X12020000Y-5605000I15000J0D01*
G01*
X12062500Y-6730000D02*
G75*
G02*
X12032500Y-6730000I-15000J0D01*
G01*
X12032500Y-6730000D02*
G75*
G02*
X12062500Y-6730000I15000J0D01*
G01*
X12470000Y-7695000D02*
G75*
G02*
X12440000Y-7695000I-15000J0D01*
G01*
X12440000Y-7695000D02*
G75*
G02*
X12470000Y-7695000I15000J0D01*
G01*
X12500000Y-5300000D02*
G75*
G02*
X12470000Y-5300000I-15000J0D01*
G01*
X12470000Y-5300000D02*
G75*
G02*
X12500000Y-5300000I15000J0D01*
G01*
X12500000Y-7385000D02*
G75*
G02*
X12470000Y-7385000I-15000J0D01*
G01*
X12470000Y-7385000D02*
G75*
G02*
X12500000Y-7385000I15000J0D01*
G01*
X12505000Y-5735000D02*
G75*
G02*
X12475000Y-5735000I-15000J0D01*
G01*
X12475000Y-5735000D02*
G75*
G02*
X12505000Y-5735000I15000J0D01*
G01*
X12542250Y-6965000D02*
G75*
G02*
X12512250Y-6965000I-15000J0D01*
G01*
X12512250Y-6965000D02*
G75*
G02*
X12542250Y-6965000I15000J0D01*
G01*
X12547500Y-7160000D02*
G75*
G02*
X12517500Y-7160000I-15000J0D01*
G01*
X12517500Y-7160000D02*
G75*
G02*
X12547500Y-7160000I15000J0D01*
G01*
X12576867Y-6669900D02*
G75*
G02*
X12546867Y-6669900I-15000J0D01*
G01*
X12546867Y-6669900D02*
G75*
G02*
X12576867Y-6669900I15000J0D01*
G01*
X12577500Y-6790000D02*
G75*
G02*
X12547500Y-6790000I-15000J0D01*
G01*
X12547500Y-6790000D02*
G75*
G02*
X12577500Y-6790000I15000J0D01*
G01*
X12645000Y-7980000D02*
G75*
G02*
X12615000Y-7980000I-15000J0D01*
G01*
X12615000Y-7980000D02*
G75*
G02*
X12645000Y-7980000I15000J0D01*
G01*
X12735000Y-5935000D02*
G75*
G02*
X12705000Y-5935000I-15000J0D01*
G01*
X12705000Y-5935000D02*
G75*
G02*
X12735000Y-5935000I15000J0D01*
G01*
X12777500Y-7585000D02*
G75*
G02*
X12747500Y-7585000I-15000J0D01*
G01*
X12747500Y-7585000D02*
G75*
G02*
X12777500Y-7585000I15000J0D01*
G01*
X12802488Y-7860000D02*
G75*
G02*
X12772488Y-7860000I-15000J0D01*
G01*
X12772488Y-7860000D02*
G75*
G02*
X12802488Y-7860000I15000J0D01*
G01*
X12980000Y-6095000D02*
G75*
G02*
X12950000Y-6095000I-15000J0D01*
G01*
X12950000Y-6095000D02*
G75*
G02*
X12980000Y-6095000I15000J0D01*
G01*
X13070000Y-7385000D02*
G75*
G02*
X13040000Y-7385000I-15000J0D01*
G01*
X13040000Y-7385000D02*
G75*
G02*
X13070000Y-7385000I15000J0D01*
G01*
X13085000Y-6095000D02*
G75*
G02*
X13055000Y-6095000I-15000J0D01*
G01*
X13055000Y-6095000D02*
G75*
G02*
X13085000Y-6095000I15000J0D01*
G01*
X13180000Y-5650000D02*
G75*
G02*
X13150000Y-5650000I-15000J0D01*
G01*
X13150000Y-5650000D02*
G75*
G02*
X13180000Y-5650000I15000J0D01*
G01*
X13185450Y-6790000D02*
G75*
G02*
X13155450Y-6790000I-15000J0D01*
G01*
X13155450Y-6790000D02*
G75*
G02*
X13185450Y-6790000I15000J0D01*
G01*
X13190450Y-6690512D02*
G75*
G02*
X13160450Y-6690512I-15000J0D01*
G01*
X13160450Y-6690512D02*
G75*
G02*
X13190450Y-6690512I15000J0D01*
G01*
X13350000Y-6085000D02*
G75*
G02*
X13320000Y-6085000I-15000J0D01*
G01*
X13320000Y-6085000D02*
G75*
G02*
X13350000Y-6085000I15000J0D01*
G01*
X11671500Y-8095000D02*
X11671500Y-8145000D01*
X11646500Y-8120000D02*
X11696500Y-8120000D01*
X11646500Y-8145000D02*
X11696500Y-8145000D01*
X11696500Y-8095000D02*
G75*
G02*
X11696500Y-8145000I0J-25000D01*
G01*
X11696500Y-8095000D02*
X11646500Y-8095000D01*
X11646500Y-8095000D02*
G75*
G03*
X11646500Y-8145000I0J-25000D01*
G01*
X11671500Y-8847000D02*
X11671500Y-8897000D01*
X11646500Y-8872000D02*
X11696500Y-8872000D01*
X11646500Y-8897000D02*
X11696500Y-8897000D01*
X11696500Y-8847000D02*
G75*
G02*
X11696500Y-8897000I0J-25000D01*
G01*
X11696500Y-8847000D02*
X11646500Y-8847000D01*
X11646500Y-8847000D02*
G75*
G03*
X11646500Y-8897000I0J-25000D01*
G01*
X11925500Y-8095000D02*
X11925500Y-8145000D01*
X11900500Y-8120000D02*
X11950500Y-8120000D01*
X11900500Y-8145000D02*
X11950500Y-8145000D01*
X11950500Y-8095000D02*
G75*
G02*
X11950500Y-8145000I0J-25000D01*
G01*
X11950500Y-8095000D02*
X11900500Y-8095000D01*
X11900500Y-8095000D02*
G75*
G03*
X11900500Y-8145000I0J-25000D01*
G01*
X11925500Y-8847000D02*
X11925500Y-8897000D01*
X11900500Y-8872000D02*
X11950500Y-8872000D01*
X11900500Y-8897000D02*
X11950500Y-8897000D01*
X11950500Y-8847000D02*
G75*
G02*
X11950500Y-8897000I0J-25000D01*
G01*
X11950500Y-8847000D02*
X11900500Y-8847000D01*
X11900500Y-8847000D02*
G75*
G03*
X11900500Y-8897000I0J-25000D01*
G01*
X12179500Y-8095000D02*
X12179500Y-8145000D01*
X12154500Y-8120000D02*
X12204500Y-8120000D01*
X12154500Y-8145000D02*
X12204500Y-8145000D01*
X12204500Y-8095000D02*
G75*
G02*
X12204500Y-8145000I0J-25000D01*
G01*
X12204500Y-8095000D02*
X12154500Y-8095000D01*
X12154500Y-8095000D02*
G75*
G03*
X12154500Y-8145000I0J-25000D01*
G01*
X12179500Y-8847000D02*
X12179500Y-8897000D01*
X12154500Y-8872000D02*
X12204500Y-8872000D01*
X12154500Y-8897000D02*
X12204500Y-8897000D01*
X12204500Y-8847000D02*
G75*
G02*
X12204500Y-8897000I0J-25000D01*
G01*
X12204500Y-8847000D02*
X12154500Y-8847000D01*
X12154500Y-8847000D02*
G75*
G03*
X12154500Y-8897000I0J-25000D01*
G01*
X12433500Y-8095000D02*
X12433500Y-8145000D01*
X12408500Y-8120000D02*
X12458500Y-8120000D01*
X12408500Y-8145000D02*
X12458500Y-8145000D01*
X12458500Y-8095000D02*
G75*
G02*
X12458500Y-8145000I0J-25000D01*
G01*
X12458500Y-8095000D02*
X12408500Y-8095000D01*
X12408500Y-8095000D02*
G75*
G03*
X12408500Y-8145000I0J-25000D01*
G01*
X12433500Y-8847000D02*
X12433500Y-8897000D01*
X12408500Y-8872000D02*
X12458500Y-8872000D01*
X12408500Y-8897000D02*
X12458500Y-8897000D01*
X12458500Y-8847000D02*
G75*
G02*
X12458500Y-8897000I0J-25000D01*
G01*
X12458500Y-8847000D02*
X12408500Y-8847000D01*
X12408500Y-8847000D02*
G75*
G03*
X12408500Y-8897000I0J-25000D01*
G01*
X12830000Y-8710000D02*
X12830000Y-8760000D01*
X12805000Y-8735000D02*
X12855000Y-8735000D01*
X13025000Y-8515000D02*
X13025000Y-8565000D01*
X13000000Y-8540000D02*
X13050000Y-8540000D01*
X13205000Y-8340000D02*
X13205000Y-8390000D01*
X13180000Y-8365000D02*
X13230000Y-8365000D01*
X12746713Y-6351213D02*
X12746713Y-6308787D01*
X12704287Y-6308787D01*
X12704287Y-6351213D01*
X12746713Y-6351213D01*
X12695500Y-6305000D02*
X12695500Y-6355000D01*
X12755500Y-6355000D02*
G75*
G02*
X12695500Y-6355000I-30000J0D01*
G01*
X12755500Y-6355000D02*
X12755500Y-6305000D01*
X12755500Y-6305000D02*
G75*
G03*
X12695500Y-6305000I-30000J0D01*
G01*
X12746713Y-7151213D02*
X12746713Y-7108787D01*
X12704287Y-7108787D01*
X12704287Y-7151213D01*
X12746713Y-7151213D01*
X12695500Y-7105000D02*
X12695500Y-7155000D01*
X12755500Y-7155000D02*
G75*
G02*
X12695500Y-7155000I-30000J0D01*
G01*
X12755500Y-7155000D02*
X12755500Y-7105000D01*
X12755500Y-7105000D02*
G75*
G03*
X12695500Y-7105000I-30000J0D01*
G01*
X13032713Y-6351213D02*
X13032713Y-6308787D01*
X12990287Y-6308787D01*
X12990287Y-6351213D01*
X13032713Y-6351213D01*
X12981500Y-6305000D02*
X12981500Y-6355000D01*
X13041500Y-6355000D02*
G75*
G02*
X12981500Y-6355000I-30000J0D01*
G01*
X13041500Y-6355000D02*
X13041500Y-6305000D01*
X13041500Y-6305000D02*
G75*
G03*
X12981500Y-6305000I-30000J0D01*
G01*
X13032713Y-7151213D02*
X13032713Y-7108787D01*
X12990287Y-7108787D01*
X12990287Y-7151213D01*
X13032713Y-7151213D01*
X12981500Y-7105000D02*
X12981500Y-7155000D01*
X13041500Y-7155000D02*
G75*
G02*
X12981500Y-7155000I-30000J0D01*
G01*
X13041500Y-7155000D02*
X13041500Y-7105000D01*
X13041500Y-7105000D02*
G75*
G03*
X12981500Y-7105000I-30000J0D01*
G01*
X13698000Y-7040000D02*
X13733000Y-7005000D01*
X13698000Y-6970000D01*
X13663000Y-7005000D01*
X13698000Y-7040000D01*
X13700000Y-6840000D02*
X13735000Y-6805000D01*
X13700000Y-6770000D01*
X13665000Y-6805000D01*
X13700000Y-6840000D01*
X13700000Y-7240000D02*
X13735000Y-7205000D01*
X13700000Y-7170000D01*
X13665000Y-7205000D01*
X13700000Y-7240000D01*
X13700000Y-7440000D02*
X13735000Y-7405000D01*
X13700000Y-7370000D01*
X13665000Y-7405000D01*
X13700000Y-7440000D01*
X7245000Y-6010000D02*
X7325000Y-6090000D01*
X7325000Y-6010000D02*
X7245000Y-6090000D01*
X7325000Y-6050000D02*
G75*
G02*
X7245000Y-6050000I-40000J0D01*
G01*
X7245000Y-6050000D02*
G75*
G02*
X7325000Y-6050000I40000J0D01*
G01*
X7245000Y-6040000D02*
X7245000Y-6060000D01*
X7325000Y-6060000D02*
G75*
G02*
X7245000Y-6060000I-40000J0D01*
G01*
X7325000Y-6060000D02*
X7325000Y-6040000D01*
X7325000Y-6040000D02*
G75*
G03*
X7245000Y-6040000I-40000J0D01*
G01*
X7245000Y-6460000D02*
X7325000Y-6540000D01*
X7325000Y-6460000D02*
X7245000Y-6540000D01*
X7325000Y-6500000D02*
G75*
G02*
X7245000Y-6500000I-40000J0D01*
G01*
X7245000Y-6500000D02*
G75*
G02*
X7325000Y-6500000I40000J0D01*
G01*
X7245000Y-6490000D02*
X7245000Y-6510000D01*
X7325000Y-6510000D02*
G75*
G02*
X7245000Y-6510000I-40000J0D01*
G01*
X7325000Y-6510000D02*
X7325000Y-6490000D01*
X7325000Y-6490000D02*
G75*
G03*
X7245000Y-6490000I-40000J0D01*
G01*
X7495000Y-5885000D02*
X7575000Y-5965000D01*
X7575000Y-5885000D02*
X7495000Y-5965000D01*
X7575000Y-5925000D02*
G75*
G02*
X7495000Y-5925000I-40000J0D01*
G01*
X7495000Y-5925000D02*
G75*
G02*
X7575000Y-5925000I40000J0D01*
G01*
X7525000Y-5965000D02*
X7545000Y-5965000D01*
X7545000Y-5885000D02*
G75*
G02*
X7545000Y-5965000I0J-40000D01*
G01*
X7545000Y-5885000D02*
X7525000Y-5885000D01*
X7525000Y-5885000D02*
G75*
G03*
X7525000Y-5965000I0J-40000D01*
G01*
X7495000Y-6585000D02*
X7575000Y-6665000D01*
X7575000Y-6585000D02*
X7495000Y-6665000D01*
X7575000Y-6625000D02*
G75*
G02*
X7495000Y-6625000I-40000J0D01*
G01*
X7495000Y-6625000D02*
G75*
G02*
X7575000Y-6625000I40000J0D01*
G01*
X7525000Y-6665000D02*
X7545000Y-6665000D01*
X7545000Y-6585000D02*
G75*
G02*
X7545000Y-6665000I0J-40000D01*
G01*
X7545000Y-6585000D02*
X7525000Y-6585000D01*
X7525000Y-6585000D02*
G75*
G03*
X7525000Y-6665000I0J-40000D01*
G01*
X7965000Y-5916000D02*
X8045000Y-5996000D01*
X8045000Y-5916000D02*
X7965000Y-5996000D01*
X8045000Y-5956000D02*
G75*
G02*
X7965000Y-5956000I-40000J0D01*
G01*
X7965000Y-5956000D02*
G75*
G02*
X8045000Y-5956000I40000J0D01*
G01*
X7965000Y-6170000D02*
X8045000Y-6250000D01*
X8045000Y-6170000D02*
X7965000Y-6250000D01*
X8045000Y-6210000D02*
G75*
G02*
X7965000Y-6210000I-40000J0D01*
G01*
X7965000Y-6210000D02*
G75*
G02*
X8045000Y-6210000I40000J0D01*
G01*
D13*
X7950000Y-6545000D02*
X8060000Y-6655000D01*
X8060000Y-6545000D02*
X7950000Y-6655000D01*
X8005000Y-6545000D02*
X8005000Y-6655000D01*
X7950000Y-6600000D02*
X8060000Y-6600000D01*
X8204000Y-6545000D02*
X8314000Y-6655000D01*
X8314000Y-6545000D02*
X8204000Y-6655000D01*
X8259000Y-6545000D02*
X8259000Y-6655000D01*
X8204000Y-6600000D02*
X8314000Y-6600000D01*
X8927500Y-7165000D02*
X9037500Y-7275000D01*
X9037500Y-7165000D02*
X8927500Y-7275000D01*
X8982500Y-7165000D02*
X8982500Y-7275000D01*
X8927500Y-7220000D02*
X9037500Y-7220000D01*
X8927500Y-7419000D02*
X9037500Y-7529000D01*
X9037500Y-7419000D02*
X8927500Y-7529000D01*
X8982500Y-7419000D02*
X8982500Y-7529000D01*
X8927500Y-7474000D02*
X9037500Y-7474000D01*
X9372798Y-7540335D02*
X9482798Y-7650335D01*
X9482798Y-7540335D02*
X9372798Y-7650335D01*
X9427798Y-7540335D02*
X9427798Y-7650335D01*
X9372798Y-7595335D02*
X9482798Y-7595335D01*
X9470000Y-7775000D02*
X9580000Y-7885000D01*
X9580000Y-7775000D02*
X9470000Y-7885000D01*
X9525000Y-7775000D02*
X9525000Y-7885000D01*
X9470000Y-7830000D02*
X9580000Y-7830000D01*
D14*
X9402500Y-8186000D02*
X9522500Y-8306000D01*
X9522500Y-8186000D02*
X9402500Y-8306000D01*
X9504927Y-8288427D02*
X9504927Y-8203573D01*
X9420073Y-8203573D01*
X9420073Y-8288427D01*
X9504927Y-8288427D01*
X9402500Y-8440000D02*
X9522500Y-8560000D01*
X9522500Y-8440000D02*
X9402500Y-8560000D01*
X9504927Y-8542427D02*
X9504927Y-8457573D01*
X9420073Y-8457573D01*
X9420073Y-8542427D01*
X9504927Y-8542427D01*
X9402500Y-8694000D02*
X9522500Y-8814000D01*
X9522500Y-8694000D02*
X9402500Y-8814000D01*
X9504927Y-8796427D02*
X9504927Y-8711573D01*
X9420073Y-8711573D01*
X9420073Y-8796427D01*
X9504927Y-8796427D01*
D10*
X8357500Y-7045000D02*
X8507500Y-7195000D01*
X8507500Y-7045000D02*
X8357500Y-7195000D01*
X8432500Y-7195000D02*
X8507500Y-7120000D01*
X8432500Y-7045000D01*
X8357500Y-7120000D01*
X8432500Y-7195000D01*
X8357500Y-7545000D02*
X8507500Y-7695000D01*
X8507500Y-7545000D02*
X8357500Y-7695000D01*
X8432500Y-7695000D02*
X8507500Y-7620000D01*
X8432500Y-7545000D01*
X8357500Y-7620000D01*
X8432500Y-7695000D01*
X8357500Y-8045000D02*
X8507500Y-8195000D01*
X8507500Y-8045000D02*
X8357500Y-8195000D01*
X8432500Y-8195000D02*
X8507500Y-8120000D01*
X8432500Y-8045000D01*
X8357500Y-8120000D01*
X8432500Y-8195000D01*
X8357500Y-8545000D02*
X8507500Y-8695000D01*
X8507500Y-8545000D02*
X8357500Y-8695000D01*
X8432500Y-8695000D02*
X8507500Y-8620000D01*
X8432500Y-8545000D01*
X8357500Y-8620000D01*
X8432500Y-8695000D01*
D15*
X7500000Y-8565000D02*
X7500000Y-8835000D01*
X7365000Y-8700000D02*
X7635000Y-8700000D01*
X7635000Y-8700000D02*
G75*
G02*
X7365000Y-8700000I-135000J0D01*
G01*
X7365000Y-8700000D02*
G75*
G02*
X7635000Y-8700000I135000J0D01*
G01*
X7995000Y-5315000D02*
X7995000Y-5585000D01*
X7860000Y-5450000D02*
X8130000Y-5450000D01*
X8130000Y-5450000D02*
G75*
G02*
X7860000Y-5450000I-135000J0D01*
G01*
X7860000Y-5450000D02*
G75*
G02*
X8130000Y-5450000I135000J0D01*
G01*
X12875000Y-5320000D02*
X12875000Y-5590000D01*
X12740000Y-5455000D02*
X13010000Y-5455000D01*
X13010000Y-5455000D02*
G75*
G02*
X12740000Y-5455000I-135000J0D01*
G01*
X12740000Y-5455000D02*
G75*
G02*
X13010000Y-5455000I135000J0D01*
G01*
X13655000Y-7865000D02*
X13655000Y-8135000D01*
X13520000Y-8000000D02*
X13790000Y-8000000D01*
X13790000Y-8000000D02*
G75*
G02*
X13520000Y-8000000I-135000J0D01*
G01*
X13520000Y-8000000D02*
G75*
G02*
X13790000Y-8000000I135000J0D01*
G01*
D11*
X7253277Y-9418984D02*
X7253277Y-9218984D01*
X7253277Y-9218984D02*
X7300896Y-9218984D01*
X7300896Y-9218984D02*
X7329467Y-9228508D01*
X7329467Y-9228508D02*
X7348515Y-9247555D01*
X7348515Y-9247555D02*
X7358039Y-9266603D01*
X7358039Y-9266603D02*
X7367562Y-9304698D01*
X7367562Y-9304698D02*
X7367562Y-9333270D01*
X7367562Y-9333270D02*
X7358039Y-9371365D01*
X7358039Y-9371365D02*
X7348515Y-9390412D01*
X7348515Y-9390412D02*
X7329467Y-9409460D01*
X7329467Y-9409460D02*
X7300896Y-9418984D01*
X7300896Y-9418984D02*
X7253277Y-9418984D01*
X7453277Y-9418984D02*
X7453277Y-9285650D01*
X7453277Y-9323746D02*
X7462801Y-9304698D01*
X7462801Y-9304698D02*
X7472324Y-9295174D01*
X7472324Y-9295174D02*
X7491372Y-9285650D01*
X7491372Y-9285650D02*
X7510420Y-9285650D01*
X7577086Y-9418984D02*
X7577086Y-9285650D01*
X7577086Y-9218984D02*
X7567562Y-9228508D01*
X7567562Y-9228508D02*
X7577086Y-9238031D01*
X7577086Y-9238031D02*
X7586610Y-9228508D01*
X7586610Y-9228508D02*
X7577086Y-9218984D01*
X7577086Y-9218984D02*
X7577086Y-9238031D01*
X7700896Y-9418984D02*
X7681848Y-9409460D01*
X7681848Y-9409460D02*
X7672324Y-9390412D01*
X7672324Y-9390412D02*
X7672324Y-9218984D01*
X7805658Y-9418984D02*
X7786610Y-9409460D01*
X7786610Y-9409460D02*
X7777086Y-9390412D01*
X7777086Y-9390412D02*
X7777086Y-9218984D01*
X8034229Y-9418984D02*
X8034229Y-9218984D01*
X8034229Y-9218984D02*
X8100896Y-9361841D01*
X8100896Y-9361841D02*
X8167562Y-9218984D01*
X8167562Y-9218984D02*
X8167562Y-9418984D01*
X8348515Y-9418984D02*
X8348515Y-9314222D01*
X8348515Y-9314222D02*
X8338991Y-9295174D01*
X8338991Y-9295174D02*
X8319943Y-9285650D01*
X8319943Y-9285650D02*
X8281848Y-9285650D01*
X8281848Y-9285650D02*
X8262801Y-9295174D01*
X8348515Y-9409460D02*
X8329467Y-9418984D01*
X8329467Y-9418984D02*
X8281848Y-9418984D01*
X8281848Y-9418984D02*
X8262801Y-9409460D01*
X8262801Y-9409460D02*
X8253277Y-9390412D01*
X8253277Y-9390412D02*
X8253277Y-9371365D01*
X8253277Y-9371365D02*
X8262801Y-9352317D01*
X8262801Y-9352317D02*
X8281848Y-9342793D01*
X8281848Y-9342793D02*
X8329467Y-9342793D01*
X8329467Y-9342793D02*
X8348515Y-9333270D01*
X8443753Y-9285650D02*
X8443753Y-9485650D01*
X8443753Y-9295174D02*
X8462801Y-9285650D01*
X8462801Y-9285650D02*
X8500896Y-9285650D01*
X8500896Y-9285650D02*
X8519944Y-9295174D01*
X8519944Y-9295174D02*
X8529467Y-9304698D01*
X8529467Y-9304698D02*
X8538991Y-9323746D01*
X8538991Y-9323746D02*
X8538991Y-9380889D01*
X8538991Y-9380889D02*
X8529467Y-9399936D01*
X8529467Y-9399936D02*
X8519944Y-9409460D01*
X8519944Y-9409460D02*
X8500896Y-9418984D01*
X8500896Y-9418984D02*
X8462801Y-9418984D01*
X8462801Y-9418984D02*
X8443753Y-9409460D01*
X8624705Y-9399936D02*
X8634229Y-9409460D01*
X8634229Y-9409460D02*
X8624705Y-9418984D01*
X8624705Y-9418984D02*
X8615182Y-9409460D01*
X8615182Y-9409460D02*
X8624705Y-9399936D01*
X8624705Y-9399936D02*
X8624705Y-9418984D01*
X8624705Y-9295174D02*
X8634229Y-9304698D01*
X8634229Y-9304698D02*
X8624705Y-9314222D01*
X8624705Y-9314222D02*
X8615182Y-9304698D01*
X8615182Y-9304698D02*
X8624705Y-9295174D01*
X8624705Y-9295174D02*
X8624705Y-9314222D01*
D12*
X6972500Y-9737500D02*
X6992500Y-9757500D01*
X6992500Y-9737500D02*
X6972500Y-9757500D01*
D11*
X7291372Y-9638984D02*
X7310420Y-9638984D01*
X7310420Y-9638984D02*
X7329467Y-9648508D01*
X7329467Y-9648508D02*
X7338991Y-9658031D01*
X7338991Y-9658031D02*
X7348515Y-9677079D01*
X7348515Y-9677079D02*
X7358039Y-9715174D01*
X7358039Y-9715174D02*
X7358039Y-9762793D01*
X7358039Y-9762793D02*
X7348515Y-9800889D01*
X7348515Y-9800889D02*
X7338991Y-9819936D01*
X7338991Y-9819936D02*
X7329467Y-9829460D01*
X7329467Y-9829460D02*
X7310420Y-9838984D01*
X7310420Y-9838984D02*
X7291372Y-9838984D01*
X7291372Y-9838984D02*
X7272324Y-9829460D01*
X7272324Y-9829460D02*
X7262801Y-9819936D01*
X7262801Y-9819936D02*
X7253277Y-9800889D01*
X7253277Y-9800889D02*
X7243753Y-9762793D01*
X7243753Y-9762793D02*
X7243753Y-9715174D01*
X7243753Y-9715174D02*
X7253277Y-9677079D01*
X7253277Y-9677079D02*
X7262801Y-9658031D01*
X7262801Y-9658031D02*
X7272324Y-9648508D01*
X7272324Y-9648508D02*
X7291372Y-9638984D01*
X7443753Y-9819936D02*
X7453277Y-9829460D01*
X7453277Y-9829460D02*
X7443753Y-9838984D01*
X7443753Y-9838984D02*
X7434229Y-9829460D01*
X7434229Y-9829460D02*
X7443753Y-9819936D01*
X7443753Y-9819936D02*
X7443753Y-9838984D01*
X7529467Y-9658031D02*
X7538991Y-9648508D01*
X7538991Y-9648508D02*
X7558039Y-9638984D01*
X7558039Y-9638984D02*
X7605658Y-9638984D01*
X7605658Y-9638984D02*
X7624705Y-9648508D01*
X7624705Y-9648508D02*
X7634229Y-9658031D01*
X7634229Y-9658031D02*
X7643753Y-9677079D01*
X7643753Y-9677079D02*
X7643753Y-9696127D01*
X7643753Y-9696127D02*
X7634229Y-9724698D01*
X7634229Y-9724698D02*
X7519943Y-9838984D01*
X7519943Y-9838984D02*
X7643753Y-9838984D01*
X7767562Y-9638984D02*
X7786610Y-9638984D01*
X7786610Y-9638984D02*
X7805658Y-9648508D01*
X7805658Y-9648508D02*
X7815182Y-9658031D01*
X7815182Y-9658031D02*
X7824705Y-9677079D01*
X7824705Y-9677079D02*
X7834229Y-9715174D01*
X7834229Y-9715174D02*
X7834229Y-9762793D01*
X7834229Y-9762793D02*
X7824705Y-9800889D01*
X7824705Y-9800889D02*
X7815182Y-9819936D01*
X7815182Y-9819936D02*
X7805658Y-9829460D01*
X7805658Y-9829460D02*
X7786610Y-9838984D01*
X7786610Y-9838984D02*
X7767562Y-9838984D01*
X7767562Y-9838984D02*
X7748515Y-9829460D01*
X7748515Y-9829460D02*
X7738991Y-9819936D01*
X7738991Y-9819936D02*
X7729467Y-9800889D01*
X7729467Y-9800889D02*
X7719943Y-9762793D01*
X7719943Y-9762793D02*
X7719943Y-9715174D01*
X7719943Y-9715174D02*
X7729467Y-9677079D01*
X7729467Y-9677079D02*
X7738991Y-9658031D01*
X7738991Y-9658031D02*
X7748515Y-9648508D01*
X7748515Y-9648508D02*
X7767562Y-9638984D01*
X7958039Y-9638984D02*
X7977086Y-9638984D01*
X7977086Y-9638984D02*
X7996134Y-9648508D01*
X7996134Y-9648508D02*
X8005658Y-9658031D01*
X8005658Y-9658031D02*
X8015182Y-9677079D01*
X8015182Y-9677079D02*
X8024705Y-9715174D01*
X8024705Y-9715174D02*
X8024705Y-9762793D01*
X8024705Y-9762793D02*
X8015182Y-9800889D01*
X8015182Y-9800889D02*
X8005658Y-9819936D01*
X8005658Y-9819936D02*
X7996134Y-9829460D01*
X7996134Y-9829460D02*
X7977086Y-9838984D01*
X7977086Y-9838984D02*
X7958039Y-9838984D01*
X7958039Y-9838984D02*
X7938991Y-9829460D01*
X7938991Y-9829460D02*
X7929467Y-9819936D01*
X7929467Y-9819936D02*
X7919943Y-9800889D01*
X7919943Y-9800889D02*
X7910420Y-9762793D01*
X7910420Y-9762793D02*
X7910420Y-9715174D01*
X7910420Y-9715174D02*
X7919943Y-9677079D01*
X7919943Y-9677079D02*
X7929467Y-9658031D01*
X7929467Y-9658031D02*
X7938991Y-9648508D01*
X7938991Y-9648508D02*
X7958039Y-9638984D01*
X8110420Y-9838984D02*
X8110420Y-9705650D01*
X8110420Y-9724698D02*
X8119943Y-9715174D01*
X8119943Y-9715174D02*
X8138991Y-9705650D01*
X8138991Y-9705650D02*
X8167563Y-9705650D01*
X8167563Y-9705650D02*
X8186610Y-9715174D01*
X8186610Y-9715174D02*
X8196134Y-9734222D01*
X8196134Y-9734222D02*
X8196134Y-9838984D01*
X8196134Y-9734222D02*
X8205658Y-9715174D01*
X8205658Y-9715174D02*
X8224705Y-9705650D01*
X8224705Y-9705650D02*
X8253277Y-9705650D01*
X8253277Y-9705650D02*
X8272324Y-9715174D01*
X8272324Y-9715174D02*
X8281848Y-9734222D01*
X8281848Y-9734222D02*
X8281848Y-9838984D01*
X8377086Y-9838984D02*
X8377086Y-9705650D01*
X8377086Y-9724698D02*
X8386610Y-9715174D01*
X8386610Y-9715174D02*
X8405658Y-9705650D01*
X8405658Y-9705650D02*
X8434229Y-9705650D01*
X8434229Y-9705650D02*
X8453277Y-9715174D01*
X8453277Y-9715174D02*
X8462801Y-9734222D01*
X8462801Y-9734222D02*
X8462801Y-9838984D01*
X8462801Y-9734222D02*
X8472325Y-9715174D01*
X8472325Y-9715174D02*
X8491372Y-9705650D01*
X8491372Y-9705650D02*
X8519944Y-9705650D01*
X8519944Y-9705650D02*
X8538991Y-9715174D01*
X8538991Y-9715174D02*
X8548515Y-9734222D01*
X8548515Y-9734222D02*
X8548515Y-9838984D01*
X8938991Y-9629460D02*
X8767563Y-9886603D01*
X9196134Y-9638984D02*
X9215182Y-9638984D01*
X9215182Y-9638984D02*
X9234229Y-9648508D01*
X9234229Y-9648508D02*
X9243753Y-9658031D01*
X9243753Y-9658031D02*
X9253277Y-9677079D01*
X9253277Y-9677079D02*
X9262801Y-9715174D01*
X9262801Y-9715174D02*
X9262801Y-9762793D01*
X9262801Y-9762793D02*
X9253277Y-9800889D01*
X9253277Y-9800889D02*
X9243753Y-9819936D01*
X9243753Y-9819936D02*
X9234229Y-9829460D01*
X9234229Y-9829460D02*
X9215182Y-9838984D01*
X9215182Y-9838984D02*
X9196134Y-9838984D01*
X9196134Y-9838984D02*
X9177087Y-9829460D01*
X9177087Y-9829460D02*
X9167563Y-9819936D01*
X9167563Y-9819936D02*
X9158039Y-9800889D01*
X9158039Y-9800889D02*
X9148515Y-9762793D01*
X9148515Y-9762793D02*
X9148515Y-9715174D01*
X9148515Y-9715174D02*
X9158039Y-9677079D01*
X9158039Y-9677079D02*
X9167563Y-9658031D01*
X9167563Y-9658031D02*
X9177087Y-9648508D01*
X9177087Y-9648508D02*
X9196134Y-9638984D01*
X9348515Y-9819936D02*
X9358039Y-9829460D01*
X9358039Y-9829460D02*
X9348515Y-9838984D01*
X9348515Y-9838984D02*
X9338991Y-9829460D01*
X9338991Y-9829460D02*
X9348515Y-9819936D01*
X9348515Y-9819936D02*
X9348515Y-9838984D01*
X9481848Y-9638984D02*
X9500896Y-9638984D01*
X9500896Y-9638984D02*
X9519944Y-9648508D01*
X9519944Y-9648508D02*
X9529468Y-9658031D01*
X9529468Y-9658031D02*
X9538991Y-9677079D01*
X9538991Y-9677079D02*
X9548515Y-9715174D01*
X9548515Y-9715174D02*
X9548515Y-9762793D01*
X9548515Y-9762793D02*
X9538991Y-9800889D01*
X9538991Y-9800889D02*
X9529468Y-9819936D01*
X9529468Y-9819936D02*
X9519944Y-9829460D01*
X9519944Y-9829460D02*
X9500896Y-9838984D01*
X9500896Y-9838984D02*
X9481848Y-9838984D01*
X9481848Y-9838984D02*
X9462801Y-9829460D01*
X9462801Y-9829460D02*
X9453277Y-9819936D01*
X9453277Y-9819936D02*
X9443753Y-9800889D01*
X9443753Y-9800889D02*
X9434229Y-9762793D01*
X9434229Y-9762793D02*
X9434229Y-9715174D01*
X9434229Y-9715174D02*
X9443753Y-9677079D01*
X9443753Y-9677079D02*
X9453277Y-9658031D01*
X9453277Y-9658031D02*
X9462801Y-9648508D01*
X9462801Y-9648508D02*
X9481848Y-9638984D01*
X9672325Y-9638984D02*
X9691372Y-9638984D01*
X9691372Y-9638984D02*
X9710420Y-9648508D01*
X9710420Y-9648508D02*
X9719944Y-9658031D01*
X9719944Y-9658031D02*
X9729468Y-9677079D01*
X9729468Y-9677079D02*
X9738991Y-9715174D01*
X9738991Y-9715174D02*
X9738991Y-9762793D01*
X9738991Y-9762793D02*
X9729468Y-9800889D01*
X9729468Y-9800889D02*
X9719944Y-9819936D01*
X9719944Y-9819936D02*
X9710420Y-9829460D01*
X9710420Y-9829460D02*
X9691372Y-9838984D01*
X9691372Y-9838984D02*
X9672325Y-9838984D01*
X9672325Y-9838984D02*
X9653277Y-9829460D01*
X9653277Y-9829460D02*
X9643753Y-9819936D01*
X9643753Y-9819936D02*
X9634229Y-9800889D01*
X9634229Y-9800889D02*
X9624706Y-9762793D01*
X9624706Y-9762793D02*
X9624706Y-9715174D01*
X9624706Y-9715174D02*
X9634229Y-9677079D01*
X9634229Y-9677079D02*
X9643753Y-9658031D01*
X9643753Y-9658031D02*
X9653277Y-9648508D01*
X9653277Y-9648508D02*
X9672325Y-9638984D01*
X9805658Y-9638984D02*
X9938991Y-9638984D01*
X9938991Y-9638984D02*
X9853277Y-9838984D01*
X10024706Y-9838984D02*
X10062801Y-9838984D01*
X10062801Y-9838984D02*
X10081849Y-9829460D01*
X10081849Y-9829460D02*
X10091372Y-9819936D01*
X10091372Y-9819936D02*
X10110420Y-9791365D01*
X10110420Y-9791365D02*
X10119944Y-9753270D01*
X10119944Y-9753270D02*
X10119944Y-9677079D01*
X10119944Y-9677079D02*
X10110420Y-9658031D01*
X10110420Y-9658031D02*
X10100896Y-9648508D01*
X10100896Y-9648508D02*
X10081849Y-9638984D01*
X10081849Y-9638984D02*
X10043753Y-9638984D01*
X10043753Y-9638984D02*
X10024706Y-9648508D01*
X10024706Y-9648508D02*
X10015182Y-9658031D01*
X10015182Y-9658031D02*
X10005658Y-9677079D01*
X10005658Y-9677079D02*
X10005658Y-9724698D01*
X10005658Y-9724698D02*
X10015182Y-9743746D01*
X10015182Y-9743746D02*
X10024706Y-9753270D01*
X10024706Y-9753270D02*
X10043753Y-9762793D01*
X10043753Y-9762793D02*
X10081849Y-9762793D01*
X10081849Y-9762793D02*
X10100896Y-9753270D01*
X10100896Y-9753270D02*
X10110420Y-9743746D01*
X10110420Y-9743746D02*
X10119944Y-9724698D01*
X10196134Y-9638984D02*
X10196134Y-9677079D01*
X10272325Y-9638984D02*
X10272325Y-9677079D01*
X10567563Y-9915174D02*
X10558039Y-9905650D01*
X10558039Y-9905650D02*
X10538991Y-9877079D01*
X10538991Y-9877079D02*
X10529468Y-9858031D01*
X10529468Y-9858031D02*
X10519944Y-9829460D01*
X10519944Y-9829460D02*
X10510420Y-9781841D01*
X10510420Y-9781841D02*
X10510420Y-9743746D01*
X10510420Y-9743746D02*
X10519944Y-9696127D01*
X10519944Y-9696127D02*
X10529468Y-9667555D01*
X10529468Y-9667555D02*
X10538991Y-9648508D01*
X10538991Y-9648508D02*
X10558039Y-9619936D01*
X10558039Y-9619936D02*
X10567563Y-9610412D01*
X10634230Y-9658031D02*
X10643753Y-9648508D01*
X10643753Y-9648508D02*
X10662801Y-9638984D01*
X10662801Y-9638984D02*
X10710420Y-9638984D01*
X10710420Y-9638984D02*
X10729468Y-9648508D01*
X10729468Y-9648508D02*
X10738991Y-9658031D01*
X10738991Y-9658031D02*
X10748515Y-9677079D01*
X10748515Y-9677079D02*
X10748515Y-9696127D01*
X10748515Y-9696127D02*
X10738991Y-9724698D01*
X10738991Y-9724698D02*
X10624706Y-9838984D01*
X10624706Y-9838984D02*
X10748515Y-9838984D01*
X10986611Y-9838984D02*
X10986611Y-9638984D01*
X11072325Y-9838984D02*
X11072325Y-9734222D01*
X11072325Y-9734222D02*
X11062801Y-9715174D01*
X11062801Y-9715174D02*
X11043753Y-9705650D01*
X11043753Y-9705650D02*
X11015182Y-9705650D01*
X11015182Y-9705650D02*
X10996134Y-9715174D01*
X10996134Y-9715174D02*
X10986611Y-9724698D01*
X11196134Y-9838984D02*
X11177087Y-9829460D01*
X11177087Y-9829460D02*
X11167563Y-9819936D01*
X11167563Y-9819936D02*
X11158039Y-9800889D01*
X11158039Y-9800889D02*
X11158039Y-9743746D01*
X11158039Y-9743746D02*
X11167563Y-9724698D01*
X11167563Y-9724698D02*
X11177087Y-9715174D01*
X11177087Y-9715174D02*
X11196134Y-9705650D01*
X11196134Y-9705650D02*
X11224706Y-9705650D01*
X11224706Y-9705650D02*
X11243753Y-9715174D01*
X11243753Y-9715174D02*
X11253277Y-9724698D01*
X11253277Y-9724698D02*
X11262801Y-9743746D01*
X11262801Y-9743746D02*
X11262801Y-9800889D01*
X11262801Y-9800889D02*
X11253277Y-9819936D01*
X11253277Y-9819936D02*
X11243753Y-9829460D01*
X11243753Y-9829460D02*
X11224706Y-9838984D01*
X11224706Y-9838984D02*
X11196134Y-9838984D01*
X11377087Y-9838984D02*
X11358039Y-9829460D01*
X11358039Y-9829460D02*
X11348515Y-9810412D01*
X11348515Y-9810412D02*
X11348515Y-9638984D01*
X11529468Y-9829460D02*
X11510420Y-9838984D01*
X11510420Y-9838984D02*
X11472325Y-9838984D01*
X11472325Y-9838984D02*
X11453277Y-9829460D01*
X11453277Y-9829460D02*
X11443753Y-9810412D01*
X11443753Y-9810412D02*
X11443753Y-9734222D01*
X11443753Y-9734222D02*
X11453277Y-9715174D01*
X11453277Y-9715174D02*
X11472325Y-9705650D01*
X11472325Y-9705650D02*
X11510420Y-9705650D01*
X11510420Y-9705650D02*
X11529468Y-9715174D01*
X11529468Y-9715174D02*
X11538991Y-9734222D01*
X11538991Y-9734222D02*
X11538991Y-9753270D01*
X11538991Y-9753270D02*
X11443753Y-9772317D01*
X11615182Y-9829460D02*
X11634230Y-9838984D01*
X11634230Y-9838984D02*
X11672325Y-9838984D01*
X11672325Y-9838984D02*
X11691372Y-9829460D01*
X11691372Y-9829460D02*
X11700896Y-9810412D01*
X11700896Y-9810412D02*
X11700896Y-9800889D01*
X11700896Y-9800889D02*
X11691372Y-9781841D01*
X11691372Y-9781841D02*
X11672325Y-9772317D01*
X11672325Y-9772317D02*
X11643753Y-9772317D01*
X11643753Y-9772317D02*
X11624706Y-9762793D01*
X11624706Y-9762793D02*
X11615182Y-9743746D01*
X11615182Y-9743746D02*
X11615182Y-9734222D01*
X11615182Y-9734222D02*
X11624706Y-9715174D01*
X11624706Y-9715174D02*
X11643753Y-9705650D01*
X11643753Y-9705650D02*
X11672325Y-9705650D01*
X11672325Y-9705650D02*
X11691372Y-9715174D01*
X11767563Y-9915174D02*
X11777087Y-9905650D01*
X11777087Y-9905650D02*
X11796134Y-9877079D01*
X11796134Y-9877079D02*
X11805658Y-9858031D01*
X11805658Y-9858031D02*
X11815182Y-9829460D01*
X11815182Y-9829460D02*
X11824706Y-9781841D01*
X11824706Y-9781841D02*
X11824706Y-9743746D01*
X11824706Y-9743746D02*
X11815182Y-9696127D01*
X11815182Y-9696127D02*
X11805658Y-9667555D01*
X11805658Y-9667555D02*
X11796134Y-9648508D01*
X11796134Y-9648508D02*
X11777087Y-9619936D01*
X11777087Y-9619936D02*
X11767563Y-9610412D01*
D12*
X6992500Y-10011500D02*
G75*
G02*
X6962500Y-10011500I-15000J0D01*
G01*
X6962500Y-10011500D02*
G75*
G02*
X6992500Y-10011500I15000J0D01*
G01*
D11*
X7291372Y-9902984D02*
X7310420Y-9902984D01*
X7310420Y-9902984D02*
X7329467Y-9912508D01*
X7329467Y-9912508D02*
X7338991Y-9922031D01*
X7338991Y-9922031D02*
X7348515Y-9941079D01*
X7348515Y-9941079D02*
X7358039Y-9979174D01*
X7358039Y-9979174D02*
X7358039Y-10026793D01*
X7358039Y-10026793D02*
X7348515Y-10064889D01*
X7348515Y-10064889D02*
X7338991Y-10083936D01*
X7338991Y-10083936D02*
X7329467Y-10093460D01*
X7329467Y-10093460D02*
X7310420Y-10102984D01*
X7310420Y-10102984D02*
X7291372Y-10102984D01*
X7291372Y-10102984D02*
X7272324Y-10093460D01*
X7272324Y-10093460D02*
X7262801Y-10083936D01*
X7262801Y-10083936D02*
X7253277Y-10064889D01*
X7253277Y-10064889D02*
X7243753Y-10026793D01*
X7243753Y-10026793D02*
X7243753Y-9979174D01*
X7243753Y-9979174D02*
X7253277Y-9941079D01*
X7253277Y-9941079D02*
X7262801Y-9922031D01*
X7262801Y-9922031D02*
X7272324Y-9912508D01*
X7272324Y-9912508D02*
X7291372Y-9902984D01*
X7443753Y-10083936D02*
X7453277Y-10093460D01*
X7453277Y-10093460D02*
X7443753Y-10102984D01*
X7443753Y-10102984D02*
X7434229Y-10093460D01*
X7434229Y-10093460D02*
X7443753Y-10083936D01*
X7443753Y-10083936D02*
X7443753Y-10102984D01*
X7519943Y-9902984D02*
X7643753Y-9902984D01*
X7643753Y-9902984D02*
X7577086Y-9979174D01*
X7577086Y-9979174D02*
X7605658Y-9979174D01*
X7605658Y-9979174D02*
X7624705Y-9988698D01*
X7624705Y-9988698D02*
X7634229Y-9998222D01*
X7634229Y-9998222D02*
X7643753Y-10017270D01*
X7643753Y-10017270D02*
X7643753Y-10064889D01*
X7643753Y-10064889D02*
X7634229Y-10083936D01*
X7634229Y-10083936D02*
X7624705Y-10093460D01*
X7624705Y-10093460D02*
X7605658Y-10102984D01*
X7605658Y-10102984D02*
X7548515Y-10102984D01*
X7548515Y-10102984D02*
X7529467Y-10093460D01*
X7529467Y-10093460D02*
X7519943Y-10083936D01*
X7767562Y-9902984D02*
X7786610Y-9902984D01*
X7786610Y-9902984D02*
X7805658Y-9912508D01*
X7805658Y-9912508D02*
X7815182Y-9922031D01*
X7815182Y-9922031D02*
X7824705Y-9941079D01*
X7824705Y-9941079D02*
X7834229Y-9979174D01*
X7834229Y-9979174D02*
X7834229Y-10026793D01*
X7834229Y-10026793D02*
X7824705Y-10064889D01*
X7824705Y-10064889D02*
X7815182Y-10083936D01*
X7815182Y-10083936D02*
X7805658Y-10093460D01*
X7805658Y-10093460D02*
X7786610Y-10102984D01*
X7786610Y-10102984D02*
X7767562Y-10102984D01*
X7767562Y-10102984D02*
X7748515Y-10093460D01*
X7748515Y-10093460D02*
X7738991Y-10083936D01*
X7738991Y-10083936D02*
X7729467Y-10064889D01*
X7729467Y-10064889D02*
X7719943Y-10026793D01*
X7719943Y-10026793D02*
X7719943Y-9979174D01*
X7719943Y-9979174D02*
X7729467Y-9941079D01*
X7729467Y-9941079D02*
X7738991Y-9922031D01*
X7738991Y-9922031D02*
X7748515Y-9912508D01*
X7748515Y-9912508D02*
X7767562Y-9902984D01*
X7958039Y-9902984D02*
X7977086Y-9902984D01*
X7977086Y-9902984D02*
X7996134Y-9912508D01*
X7996134Y-9912508D02*
X8005658Y-9922031D01*
X8005658Y-9922031D02*
X8015182Y-9941079D01*
X8015182Y-9941079D02*
X8024705Y-9979174D01*
X8024705Y-9979174D02*
X8024705Y-10026793D01*
X8024705Y-10026793D02*
X8015182Y-10064889D01*
X8015182Y-10064889D02*
X8005658Y-10083936D01*
X8005658Y-10083936D02*
X7996134Y-10093460D01*
X7996134Y-10093460D02*
X7977086Y-10102984D01*
X7977086Y-10102984D02*
X7958039Y-10102984D01*
X7958039Y-10102984D02*
X7938991Y-10093460D01*
X7938991Y-10093460D02*
X7929467Y-10083936D01*
X7929467Y-10083936D02*
X7919943Y-10064889D01*
X7919943Y-10064889D02*
X7910420Y-10026793D01*
X7910420Y-10026793D02*
X7910420Y-9979174D01*
X7910420Y-9979174D02*
X7919943Y-9941079D01*
X7919943Y-9941079D02*
X7929467Y-9922031D01*
X7929467Y-9922031D02*
X7938991Y-9912508D01*
X7938991Y-9912508D02*
X7958039Y-9902984D01*
X8110420Y-10102984D02*
X8110420Y-9969650D01*
X8110420Y-9988698D02*
X8119943Y-9979174D01*
X8119943Y-9979174D02*
X8138991Y-9969650D01*
X8138991Y-9969650D02*
X8167563Y-9969650D01*
X8167563Y-9969650D02*
X8186610Y-9979174D01*
X8186610Y-9979174D02*
X8196134Y-9998222D01*
X8196134Y-9998222D02*
X8196134Y-10102984D01*
X8196134Y-9998222D02*
X8205658Y-9979174D01*
X8205658Y-9979174D02*
X8224705Y-9969650D01*
X8224705Y-9969650D02*
X8253277Y-9969650D01*
X8253277Y-9969650D02*
X8272324Y-9979174D01*
X8272324Y-9979174D02*
X8281848Y-9998222D01*
X8281848Y-9998222D02*
X8281848Y-10102984D01*
X8377086Y-10102984D02*
X8377086Y-9969650D01*
X8377086Y-9988698D02*
X8386610Y-9979174D01*
X8386610Y-9979174D02*
X8405658Y-9969650D01*
X8405658Y-9969650D02*
X8434229Y-9969650D01*
X8434229Y-9969650D02*
X8453277Y-9979174D01*
X8453277Y-9979174D02*
X8462801Y-9998222D01*
X8462801Y-9998222D02*
X8462801Y-10102984D01*
X8462801Y-9998222D02*
X8472325Y-9979174D01*
X8472325Y-9979174D02*
X8491372Y-9969650D01*
X8491372Y-9969650D02*
X8519944Y-9969650D01*
X8519944Y-9969650D02*
X8538991Y-9979174D01*
X8538991Y-9979174D02*
X8548515Y-9998222D01*
X8548515Y-9998222D02*
X8548515Y-10102984D01*
X8938991Y-9893460D02*
X8767563Y-10150603D01*
X9196134Y-9902984D02*
X9215182Y-9902984D01*
X9215182Y-9902984D02*
X9234229Y-9912508D01*
X9234229Y-9912508D02*
X9243753Y-9922031D01*
X9243753Y-9922031D02*
X9253277Y-9941079D01*
X9253277Y-9941079D02*
X9262801Y-9979174D01*
X9262801Y-9979174D02*
X9262801Y-10026793D01*
X9262801Y-10026793D02*
X9253277Y-10064889D01*
X9253277Y-10064889D02*
X9243753Y-10083936D01*
X9243753Y-10083936D02*
X9234229Y-10093460D01*
X9234229Y-10093460D02*
X9215182Y-10102984D01*
X9215182Y-10102984D02*
X9196134Y-10102984D01*
X9196134Y-10102984D02*
X9177087Y-10093460D01*
X9177087Y-10093460D02*
X9167563Y-10083936D01*
X9167563Y-10083936D02*
X9158039Y-10064889D01*
X9158039Y-10064889D02*
X9148515Y-10026793D01*
X9148515Y-10026793D02*
X9148515Y-9979174D01*
X9148515Y-9979174D02*
X9158039Y-9941079D01*
X9158039Y-9941079D02*
X9167563Y-9922031D01*
X9167563Y-9922031D02*
X9177087Y-9912508D01*
X9177087Y-9912508D02*
X9196134Y-9902984D01*
X9348515Y-10083936D02*
X9358039Y-10093460D01*
X9358039Y-10093460D02*
X9348515Y-10102984D01*
X9348515Y-10102984D02*
X9338991Y-10093460D01*
X9338991Y-10093460D02*
X9348515Y-10083936D01*
X9348515Y-10083936D02*
X9348515Y-10102984D01*
X9481848Y-9902984D02*
X9500896Y-9902984D01*
X9500896Y-9902984D02*
X9519944Y-9912508D01*
X9519944Y-9912508D02*
X9529468Y-9922031D01*
X9529468Y-9922031D02*
X9538991Y-9941079D01*
X9538991Y-9941079D02*
X9548515Y-9979174D01*
X9548515Y-9979174D02*
X9548515Y-10026793D01*
X9548515Y-10026793D02*
X9538991Y-10064889D01*
X9538991Y-10064889D02*
X9529468Y-10083936D01*
X9529468Y-10083936D02*
X9519944Y-10093460D01*
X9519944Y-10093460D02*
X9500896Y-10102984D01*
X9500896Y-10102984D02*
X9481848Y-10102984D01*
X9481848Y-10102984D02*
X9462801Y-10093460D01*
X9462801Y-10093460D02*
X9453277Y-10083936D01*
X9453277Y-10083936D02*
X9443753Y-10064889D01*
X9443753Y-10064889D02*
X9434229Y-10026793D01*
X9434229Y-10026793D02*
X9434229Y-9979174D01*
X9434229Y-9979174D02*
X9443753Y-9941079D01*
X9443753Y-9941079D02*
X9453277Y-9922031D01*
X9453277Y-9922031D02*
X9462801Y-9912508D01*
X9462801Y-9912508D02*
X9481848Y-9902984D01*
X9738991Y-10102984D02*
X9624706Y-10102984D01*
X9681848Y-10102984D02*
X9681848Y-9902984D01*
X9681848Y-9902984D02*
X9662801Y-9931555D01*
X9662801Y-9931555D02*
X9643753Y-9950603D01*
X9643753Y-9950603D02*
X9624706Y-9960127D01*
X9929468Y-10102984D02*
X9815182Y-10102984D01*
X9872325Y-10102984D02*
X9872325Y-9902984D01*
X9872325Y-9902984D02*
X9853277Y-9931555D01*
X9853277Y-9931555D02*
X9834229Y-9950603D01*
X9834229Y-9950603D02*
X9815182Y-9960127D01*
X10043753Y-9988698D02*
X10024706Y-9979174D01*
X10024706Y-9979174D02*
X10015182Y-9969650D01*
X10015182Y-9969650D02*
X10005658Y-9950603D01*
X10005658Y-9950603D02*
X10005658Y-9941079D01*
X10005658Y-9941079D02*
X10015182Y-9922031D01*
X10015182Y-9922031D02*
X10024706Y-9912508D01*
X10024706Y-9912508D02*
X10043753Y-9902984D01*
X10043753Y-9902984D02*
X10081849Y-9902984D01*
X10081849Y-9902984D02*
X10100896Y-9912508D01*
X10100896Y-9912508D02*
X10110420Y-9922031D01*
X10110420Y-9922031D02*
X10119944Y-9941079D01*
X10119944Y-9941079D02*
X10119944Y-9950603D01*
X10119944Y-9950603D02*
X10110420Y-9969650D01*
X10110420Y-9969650D02*
X10100896Y-9979174D01*
X10100896Y-9979174D02*
X10081849Y-9988698D01*
X10081849Y-9988698D02*
X10043753Y-9988698D01*
X10043753Y-9988698D02*
X10024706Y-9998222D01*
X10024706Y-9998222D02*
X10015182Y-10007746D01*
X10015182Y-10007746D02*
X10005658Y-10026793D01*
X10005658Y-10026793D02*
X10005658Y-10064889D01*
X10005658Y-10064889D02*
X10015182Y-10083936D01*
X10015182Y-10083936D02*
X10024706Y-10093460D01*
X10024706Y-10093460D02*
X10043753Y-10102984D01*
X10043753Y-10102984D02*
X10081849Y-10102984D01*
X10081849Y-10102984D02*
X10100896Y-10093460D01*
X10100896Y-10093460D02*
X10110420Y-10083936D01*
X10110420Y-10083936D02*
X10119944Y-10064889D01*
X10119944Y-10064889D02*
X10119944Y-10026793D01*
X10119944Y-10026793D02*
X10110420Y-10007746D01*
X10110420Y-10007746D02*
X10100896Y-9998222D01*
X10100896Y-9998222D02*
X10081849Y-9988698D01*
X10196134Y-9902984D02*
X10196134Y-9941079D01*
X10272325Y-9902984D02*
X10272325Y-9941079D01*
X10567563Y-10179174D02*
X10558039Y-10169650D01*
X10558039Y-10169650D02*
X10538991Y-10141079D01*
X10538991Y-10141079D02*
X10529468Y-10122031D01*
X10529468Y-10122031D02*
X10519944Y-10093460D01*
X10519944Y-10093460D02*
X10510420Y-10045841D01*
X10510420Y-10045841D02*
X10510420Y-10007746D01*
X10510420Y-10007746D02*
X10519944Y-9960127D01*
X10519944Y-9960127D02*
X10529468Y-9931555D01*
X10529468Y-9931555D02*
X10538991Y-9912508D01*
X10538991Y-9912508D02*
X10558039Y-9883936D01*
X10558039Y-9883936D02*
X10567563Y-9874412D01*
X10748515Y-10102984D02*
X10634230Y-10102984D01*
X10691372Y-10102984D02*
X10691372Y-9902984D01*
X10691372Y-9902984D02*
X10672325Y-9931555D01*
X10672325Y-9931555D02*
X10653277Y-9950603D01*
X10653277Y-9950603D02*
X10634230Y-9960127D01*
X10872325Y-9902984D02*
X10891372Y-9902984D01*
X10891372Y-9902984D02*
X10910420Y-9912508D01*
X10910420Y-9912508D02*
X10919944Y-9922031D01*
X10919944Y-9922031D02*
X10929468Y-9941079D01*
X10929468Y-9941079D02*
X10938991Y-9979174D01*
X10938991Y-9979174D02*
X10938991Y-10026793D01*
X10938991Y-10026793D02*
X10929468Y-10064889D01*
X10929468Y-10064889D02*
X10919944Y-10083936D01*
X10919944Y-10083936D02*
X10910420Y-10093460D01*
X10910420Y-10093460D02*
X10891372Y-10102984D01*
X10891372Y-10102984D02*
X10872325Y-10102984D01*
X10872325Y-10102984D02*
X10853277Y-10093460D01*
X10853277Y-10093460D02*
X10843753Y-10083936D01*
X10843753Y-10083936D02*
X10834230Y-10064889D01*
X10834230Y-10064889D02*
X10824706Y-10026793D01*
X10824706Y-10026793D02*
X10824706Y-9979174D01*
X10824706Y-9979174D02*
X10834230Y-9941079D01*
X10834230Y-9941079D02*
X10843753Y-9922031D01*
X10843753Y-9922031D02*
X10853277Y-9912508D01*
X10853277Y-9912508D02*
X10872325Y-9902984D01*
X11034230Y-10102984D02*
X11072325Y-10102984D01*
X11072325Y-10102984D02*
X11091372Y-10093460D01*
X11091372Y-10093460D02*
X11100896Y-10083936D01*
X11100896Y-10083936D02*
X11119944Y-10055365D01*
X11119944Y-10055365D02*
X11129468Y-10017270D01*
X11129468Y-10017270D02*
X11129468Y-9941079D01*
X11129468Y-9941079D02*
X11119944Y-9922031D01*
X11119944Y-9922031D02*
X11110420Y-9912508D01*
X11110420Y-9912508D02*
X11091372Y-9902984D01*
X11091372Y-9902984D02*
X11053277Y-9902984D01*
X11053277Y-9902984D02*
X11034230Y-9912508D01*
X11034230Y-9912508D02*
X11024706Y-9922031D01*
X11024706Y-9922031D02*
X11015182Y-9941079D01*
X11015182Y-9941079D02*
X11015182Y-9988698D01*
X11015182Y-9988698D02*
X11024706Y-10007746D01*
X11024706Y-10007746D02*
X11034230Y-10017270D01*
X11034230Y-10017270D02*
X11053277Y-10026793D01*
X11053277Y-10026793D02*
X11091372Y-10026793D01*
X11091372Y-10026793D02*
X11110420Y-10017270D01*
X11110420Y-10017270D02*
X11119944Y-10007746D01*
X11119944Y-10007746D02*
X11129468Y-9988698D01*
X11367563Y-10102984D02*
X11367563Y-9902984D01*
X11453277Y-10102984D02*
X11453277Y-9998222D01*
X11453277Y-9998222D02*
X11443753Y-9979174D01*
X11443753Y-9979174D02*
X11424706Y-9969650D01*
X11424706Y-9969650D02*
X11396134Y-9969650D01*
X11396134Y-9969650D02*
X11377087Y-9979174D01*
X11377087Y-9979174D02*
X11367563Y-9988698D01*
X11577087Y-10102984D02*
X11558039Y-10093460D01*
X11558039Y-10093460D02*
X11548515Y-10083936D01*
X11548515Y-10083936D02*
X11538991Y-10064889D01*
X11538991Y-10064889D02*
X11538991Y-10007746D01*
X11538991Y-10007746D02*
X11548515Y-9988698D01*
X11548515Y-9988698D02*
X11558039Y-9979174D01*
X11558039Y-9979174D02*
X11577087Y-9969650D01*
X11577087Y-9969650D02*
X11605658Y-9969650D01*
X11605658Y-9969650D02*
X11624706Y-9979174D01*
X11624706Y-9979174D02*
X11634230Y-9988698D01*
X11634230Y-9988698D02*
X11643753Y-10007746D01*
X11643753Y-10007746D02*
X11643753Y-10064889D01*
X11643753Y-10064889D02*
X11634230Y-10083936D01*
X11634230Y-10083936D02*
X11624706Y-10093460D01*
X11624706Y-10093460D02*
X11605658Y-10102984D01*
X11605658Y-10102984D02*
X11577087Y-10102984D01*
X11758039Y-10102984D02*
X11738991Y-10093460D01*
X11738991Y-10093460D02*
X11729468Y-10074412D01*
X11729468Y-10074412D02*
X11729468Y-9902984D01*
X11910420Y-10093460D02*
X11891372Y-10102984D01*
X11891372Y-10102984D02*
X11853277Y-10102984D01*
X11853277Y-10102984D02*
X11834230Y-10093460D01*
X11834230Y-10093460D02*
X11824706Y-10074412D01*
X11824706Y-10074412D02*
X11824706Y-9998222D01*
X11824706Y-9998222D02*
X11834230Y-9979174D01*
X11834230Y-9979174D02*
X11853277Y-9969650D01*
X11853277Y-9969650D02*
X11891372Y-9969650D01*
X11891372Y-9969650D02*
X11910420Y-9979174D01*
X11910420Y-9979174D02*
X11919944Y-9998222D01*
X11919944Y-9998222D02*
X11919944Y-10017270D01*
X11919944Y-10017270D02*
X11824706Y-10036317D01*
X11996134Y-10093460D02*
X12015182Y-10102984D01*
X12015182Y-10102984D02*
X12053277Y-10102984D01*
X12053277Y-10102984D02*
X12072325Y-10093460D01*
X12072325Y-10093460D02*
X12081849Y-10074412D01*
X12081849Y-10074412D02*
X12081849Y-10064889D01*
X12081849Y-10064889D02*
X12072325Y-10045841D01*
X12072325Y-10045841D02*
X12053277Y-10036317D01*
X12053277Y-10036317D02*
X12024706Y-10036317D01*
X12024706Y-10036317D02*
X12005658Y-10026793D01*
X12005658Y-10026793D02*
X11996134Y-10007746D01*
X11996134Y-10007746D02*
X11996134Y-9998222D01*
X11996134Y-9998222D02*
X12005658Y-9979174D01*
X12005658Y-9979174D02*
X12024706Y-9969650D01*
X12024706Y-9969650D02*
X12053277Y-9969650D01*
X12053277Y-9969650D02*
X12072325Y-9979174D01*
X12148515Y-10179174D02*
X12158039Y-10169650D01*
X12158039Y-10169650D02*
X12177087Y-10141079D01*
X12177087Y-10141079D02*
X12186611Y-10122031D01*
X12186611Y-10122031D02*
X12196134Y-10093460D01*
X12196134Y-10093460D02*
X12205658Y-10045841D01*
X12205658Y-10045841D02*
X12205658Y-10007746D01*
X12205658Y-10007746D02*
X12196134Y-9960127D01*
X12196134Y-9960127D02*
X12186611Y-9931555D01*
X12186611Y-9931555D02*
X12177087Y-9912508D01*
X12177087Y-9912508D02*
X12158039Y-9883936D01*
X12158039Y-9883936D02*
X12148515Y-9874412D01*
D12*
X6967500Y-10250500D02*
X6967500Y-10300500D01*
X6942500Y-10275500D02*
X6992500Y-10275500D01*
D11*
X7291372Y-10166984D02*
X7310420Y-10166984D01*
X7310420Y-10166984D02*
X7329467Y-10176508D01*
X7329467Y-10176508D02*
X7338991Y-10186031D01*
X7338991Y-10186031D02*
X7348515Y-10205079D01*
X7348515Y-10205079D02*
X7358039Y-10243174D01*
X7358039Y-10243174D02*
X7358039Y-10290793D01*
X7358039Y-10290793D02*
X7348515Y-10328889D01*
X7348515Y-10328889D02*
X7338991Y-10347936D01*
X7338991Y-10347936D02*
X7329467Y-10357460D01*
X7329467Y-10357460D02*
X7310420Y-10366984D01*
X7310420Y-10366984D02*
X7291372Y-10366984D01*
X7291372Y-10366984D02*
X7272324Y-10357460D01*
X7272324Y-10357460D02*
X7262801Y-10347936D01*
X7262801Y-10347936D02*
X7253277Y-10328889D01*
X7253277Y-10328889D02*
X7243753Y-10290793D01*
X7243753Y-10290793D02*
X7243753Y-10243174D01*
X7243753Y-10243174D02*
X7253277Y-10205079D01*
X7253277Y-10205079D02*
X7262801Y-10186031D01*
X7262801Y-10186031D02*
X7272324Y-10176508D01*
X7272324Y-10176508D02*
X7291372Y-10166984D01*
X7443753Y-10347936D02*
X7453277Y-10357460D01*
X7453277Y-10357460D02*
X7443753Y-10366984D01*
X7443753Y-10366984D02*
X7434229Y-10357460D01*
X7434229Y-10357460D02*
X7443753Y-10347936D01*
X7443753Y-10347936D02*
X7443753Y-10366984D01*
X7634229Y-10166984D02*
X7538991Y-10166984D01*
X7538991Y-10166984D02*
X7529467Y-10262222D01*
X7529467Y-10262222D02*
X7538991Y-10252698D01*
X7538991Y-10252698D02*
X7558039Y-10243174D01*
X7558039Y-10243174D02*
X7605658Y-10243174D01*
X7605658Y-10243174D02*
X7624705Y-10252698D01*
X7624705Y-10252698D02*
X7634229Y-10262222D01*
X7634229Y-10262222D02*
X7643753Y-10281270D01*
X7643753Y-10281270D02*
X7643753Y-10328889D01*
X7643753Y-10328889D02*
X7634229Y-10347936D01*
X7634229Y-10347936D02*
X7624705Y-10357460D01*
X7624705Y-10357460D02*
X7605658Y-10366984D01*
X7605658Y-10366984D02*
X7558039Y-10366984D01*
X7558039Y-10366984D02*
X7538991Y-10357460D01*
X7538991Y-10357460D02*
X7529467Y-10347936D01*
X7767562Y-10166984D02*
X7786610Y-10166984D01*
X7786610Y-10166984D02*
X7805658Y-10176508D01*
X7805658Y-10176508D02*
X7815182Y-10186031D01*
X7815182Y-10186031D02*
X7824705Y-10205079D01*
X7824705Y-10205079D02*
X7834229Y-10243174D01*
X7834229Y-10243174D02*
X7834229Y-10290793D01*
X7834229Y-10290793D02*
X7824705Y-10328889D01*
X7824705Y-10328889D02*
X7815182Y-10347936D01*
X7815182Y-10347936D02*
X7805658Y-10357460D01*
X7805658Y-10357460D02*
X7786610Y-10366984D01*
X7786610Y-10366984D02*
X7767562Y-10366984D01*
X7767562Y-10366984D02*
X7748515Y-10357460D01*
X7748515Y-10357460D02*
X7738991Y-10347936D01*
X7738991Y-10347936D02*
X7729467Y-10328889D01*
X7729467Y-10328889D02*
X7719943Y-10290793D01*
X7719943Y-10290793D02*
X7719943Y-10243174D01*
X7719943Y-10243174D02*
X7729467Y-10205079D01*
X7729467Y-10205079D02*
X7738991Y-10186031D01*
X7738991Y-10186031D02*
X7748515Y-10176508D01*
X7748515Y-10176508D02*
X7767562Y-10166984D01*
X7958039Y-10166984D02*
X7977086Y-10166984D01*
X7977086Y-10166984D02*
X7996134Y-10176508D01*
X7996134Y-10176508D02*
X8005658Y-10186031D01*
X8005658Y-10186031D02*
X8015182Y-10205079D01*
X8015182Y-10205079D02*
X8024705Y-10243174D01*
X8024705Y-10243174D02*
X8024705Y-10290793D01*
X8024705Y-10290793D02*
X8015182Y-10328889D01*
X8015182Y-10328889D02*
X8005658Y-10347936D01*
X8005658Y-10347936D02*
X7996134Y-10357460D01*
X7996134Y-10357460D02*
X7977086Y-10366984D01*
X7977086Y-10366984D02*
X7958039Y-10366984D01*
X7958039Y-10366984D02*
X7938991Y-10357460D01*
X7938991Y-10357460D02*
X7929467Y-10347936D01*
X7929467Y-10347936D02*
X7919943Y-10328889D01*
X7919943Y-10328889D02*
X7910420Y-10290793D01*
X7910420Y-10290793D02*
X7910420Y-10243174D01*
X7910420Y-10243174D02*
X7919943Y-10205079D01*
X7919943Y-10205079D02*
X7929467Y-10186031D01*
X7929467Y-10186031D02*
X7938991Y-10176508D01*
X7938991Y-10176508D02*
X7958039Y-10166984D01*
X8110420Y-10366984D02*
X8110420Y-10233650D01*
X8110420Y-10252698D02*
X8119943Y-10243174D01*
X8119943Y-10243174D02*
X8138991Y-10233650D01*
X8138991Y-10233650D02*
X8167563Y-10233650D01*
X8167563Y-10233650D02*
X8186610Y-10243174D01*
X8186610Y-10243174D02*
X8196134Y-10262222D01*
X8196134Y-10262222D02*
X8196134Y-10366984D01*
X8196134Y-10262222D02*
X8205658Y-10243174D01*
X8205658Y-10243174D02*
X8224705Y-10233650D01*
X8224705Y-10233650D02*
X8253277Y-10233650D01*
X8253277Y-10233650D02*
X8272324Y-10243174D01*
X8272324Y-10243174D02*
X8281848Y-10262222D01*
X8281848Y-10262222D02*
X8281848Y-10366984D01*
X8377086Y-10366984D02*
X8377086Y-10233650D01*
X8377086Y-10252698D02*
X8386610Y-10243174D01*
X8386610Y-10243174D02*
X8405658Y-10233650D01*
X8405658Y-10233650D02*
X8434229Y-10233650D01*
X8434229Y-10233650D02*
X8453277Y-10243174D01*
X8453277Y-10243174D02*
X8462801Y-10262222D01*
X8462801Y-10262222D02*
X8462801Y-10366984D01*
X8462801Y-10262222D02*
X8472325Y-10243174D01*
X8472325Y-10243174D02*
X8491372Y-10233650D01*
X8491372Y-10233650D02*
X8519944Y-10233650D01*
X8519944Y-10233650D02*
X8538991Y-10243174D01*
X8538991Y-10243174D02*
X8548515Y-10262222D01*
X8548515Y-10262222D02*
X8548515Y-10366984D01*
X8938991Y-10157460D02*
X8767563Y-10414603D01*
X9196134Y-10166984D02*
X9215182Y-10166984D01*
X9215182Y-10166984D02*
X9234229Y-10176508D01*
X9234229Y-10176508D02*
X9243753Y-10186031D01*
X9243753Y-10186031D02*
X9253277Y-10205079D01*
X9253277Y-10205079D02*
X9262801Y-10243174D01*
X9262801Y-10243174D02*
X9262801Y-10290793D01*
X9262801Y-10290793D02*
X9253277Y-10328889D01*
X9253277Y-10328889D02*
X9243753Y-10347936D01*
X9243753Y-10347936D02*
X9234229Y-10357460D01*
X9234229Y-10357460D02*
X9215182Y-10366984D01*
X9215182Y-10366984D02*
X9196134Y-10366984D01*
X9196134Y-10366984D02*
X9177087Y-10357460D01*
X9177087Y-10357460D02*
X9167563Y-10347936D01*
X9167563Y-10347936D02*
X9158039Y-10328889D01*
X9158039Y-10328889D02*
X9148515Y-10290793D01*
X9148515Y-10290793D02*
X9148515Y-10243174D01*
X9148515Y-10243174D02*
X9158039Y-10205079D01*
X9158039Y-10205079D02*
X9167563Y-10186031D01*
X9167563Y-10186031D02*
X9177087Y-10176508D01*
X9177087Y-10176508D02*
X9196134Y-10166984D01*
X9348515Y-10347936D02*
X9358039Y-10357460D01*
X9358039Y-10357460D02*
X9348515Y-10366984D01*
X9348515Y-10366984D02*
X9338991Y-10357460D01*
X9338991Y-10357460D02*
X9348515Y-10347936D01*
X9348515Y-10347936D02*
X9348515Y-10366984D01*
X9481848Y-10166984D02*
X9500896Y-10166984D01*
X9500896Y-10166984D02*
X9519944Y-10176508D01*
X9519944Y-10176508D02*
X9529468Y-10186031D01*
X9529468Y-10186031D02*
X9538991Y-10205079D01*
X9538991Y-10205079D02*
X9548515Y-10243174D01*
X9548515Y-10243174D02*
X9548515Y-10290793D01*
X9548515Y-10290793D02*
X9538991Y-10328889D01*
X9538991Y-10328889D02*
X9529468Y-10347936D01*
X9529468Y-10347936D02*
X9519944Y-10357460D01*
X9519944Y-10357460D02*
X9500896Y-10366984D01*
X9500896Y-10366984D02*
X9481848Y-10366984D01*
X9481848Y-10366984D02*
X9462801Y-10357460D01*
X9462801Y-10357460D02*
X9453277Y-10347936D01*
X9453277Y-10347936D02*
X9443753Y-10328889D01*
X9443753Y-10328889D02*
X9434229Y-10290793D01*
X9434229Y-10290793D02*
X9434229Y-10243174D01*
X9434229Y-10243174D02*
X9443753Y-10205079D01*
X9443753Y-10205079D02*
X9453277Y-10186031D01*
X9453277Y-10186031D02*
X9462801Y-10176508D01*
X9462801Y-10176508D02*
X9481848Y-10166984D01*
X9738991Y-10366984D02*
X9624706Y-10366984D01*
X9681848Y-10366984D02*
X9681848Y-10166984D01*
X9681848Y-10166984D02*
X9662801Y-10195555D01*
X9662801Y-10195555D02*
X9643753Y-10214603D01*
X9643753Y-10214603D02*
X9624706Y-10224127D01*
X9834229Y-10366984D02*
X9872325Y-10366984D01*
X9872325Y-10366984D02*
X9891372Y-10357460D01*
X9891372Y-10357460D02*
X9900896Y-10347936D01*
X9900896Y-10347936D02*
X9919944Y-10319365D01*
X9919944Y-10319365D02*
X9929468Y-10281270D01*
X9929468Y-10281270D02*
X9929468Y-10205079D01*
X9929468Y-10205079D02*
X9919944Y-10186031D01*
X9919944Y-10186031D02*
X9910420Y-10176508D01*
X9910420Y-10176508D02*
X9891372Y-10166984D01*
X9891372Y-10166984D02*
X9853277Y-10166984D01*
X9853277Y-10166984D02*
X9834229Y-10176508D01*
X9834229Y-10176508D02*
X9824706Y-10186031D01*
X9824706Y-10186031D02*
X9815182Y-10205079D01*
X9815182Y-10205079D02*
X9815182Y-10252698D01*
X9815182Y-10252698D02*
X9824706Y-10271746D01*
X9824706Y-10271746D02*
X9834229Y-10281270D01*
X9834229Y-10281270D02*
X9853277Y-10290793D01*
X9853277Y-10290793D02*
X9891372Y-10290793D01*
X9891372Y-10290793D02*
X9910420Y-10281270D01*
X9910420Y-10281270D02*
X9919944Y-10271746D01*
X9919944Y-10271746D02*
X9929468Y-10252698D01*
X9996134Y-10166984D02*
X10129468Y-10166984D01*
X10129468Y-10166984D02*
X10043753Y-10366984D01*
X10196134Y-10166984D02*
X10196134Y-10205079D01*
X10272325Y-10166984D02*
X10272325Y-10205079D01*
X10567563Y-10443174D02*
X10558039Y-10433650D01*
X10558039Y-10433650D02*
X10538991Y-10405079D01*
X10538991Y-10405079D02*
X10529468Y-10386031D01*
X10529468Y-10386031D02*
X10519944Y-10357460D01*
X10519944Y-10357460D02*
X10510420Y-10309841D01*
X10510420Y-10309841D02*
X10510420Y-10271746D01*
X10510420Y-10271746D02*
X10519944Y-10224127D01*
X10519944Y-10224127D02*
X10529468Y-10195555D01*
X10529468Y-10195555D02*
X10538991Y-10176508D01*
X10538991Y-10176508D02*
X10558039Y-10147936D01*
X10558039Y-10147936D02*
X10567563Y-10138412D01*
X10624706Y-10166984D02*
X10748515Y-10166984D01*
X10748515Y-10166984D02*
X10681849Y-10243174D01*
X10681849Y-10243174D02*
X10710420Y-10243174D01*
X10710420Y-10243174D02*
X10729468Y-10252698D01*
X10729468Y-10252698D02*
X10738991Y-10262222D01*
X10738991Y-10262222D02*
X10748515Y-10281270D01*
X10748515Y-10281270D02*
X10748515Y-10328889D01*
X10748515Y-10328889D02*
X10738991Y-10347936D01*
X10738991Y-10347936D02*
X10729468Y-10357460D01*
X10729468Y-10357460D02*
X10710420Y-10366984D01*
X10710420Y-10366984D02*
X10653277Y-10366984D01*
X10653277Y-10366984D02*
X10634230Y-10357460D01*
X10634230Y-10357460D02*
X10624706Y-10347936D01*
X10986611Y-10366984D02*
X10986611Y-10166984D01*
X11072325Y-10366984D02*
X11072325Y-10262222D01*
X11072325Y-10262222D02*
X11062801Y-10243174D01*
X11062801Y-10243174D02*
X11043753Y-10233650D01*
X11043753Y-10233650D02*
X11015182Y-10233650D01*
X11015182Y-10233650D02*
X10996134Y-10243174D01*
X10996134Y-10243174D02*
X10986611Y-10252698D01*
X11196134Y-10366984D02*
X11177087Y-10357460D01*
X11177087Y-10357460D02*
X11167563Y-10347936D01*
X11167563Y-10347936D02*
X11158039Y-10328889D01*
X11158039Y-10328889D02*
X11158039Y-10271746D01*
X11158039Y-10271746D02*
X11167563Y-10252698D01*
X11167563Y-10252698D02*
X11177087Y-10243174D01*
X11177087Y-10243174D02*
X11196134Y-10233650D01*
X11196134Y-10233650D02*
X11224706Y-10233650D01*
X11224706Y-10233650D02*
X11243753Y-10243174D01*
X11243753Y-10243174D02*
X11253277Y-10252698D01*
X11253277Y-10252698D02*
X11262801Y-10271746D01*
X11262801Y-10271746D02*
X11262801Y-10328889D01*
X11262801Y-10328889D02*
X11253277Y-10347936D01*
X11253277Y-10347936D02*
X11243753Y-10357460D01*
X11243753Y-10357460D02*
X11224706Y-10366984D01*
X11224706Y-10366984D02*
X11196134Y-10366984D01*
X11377087Y-10366984D02*
X11358039Y-10357460D01*
X11358039Y-10357460D02*
X11348515Y-10338412D01*
X11348515Y-10338412D02*
X11348515Y-10166984D01*
X11529468Y-10357460D02*
X11510420Y-10366984D01*
X11510420Y-10366984D02*
X11472325Y-10366984D01*
X11472325Y-10366984D02*
X11453277Y-10357460D01*
X11453277Y-10357460D02*
X11443753Y-10338412D01*
X11443753Y-10338412D02*
X11443753Y-10262222D01*
X11443753Y-10262222D02*
X11453277Y-10243174D01*
X11453277Y-10243174D02*
X11472325Y-10233650D01*
X11472325Y-10233650D02*
X11510420Y-10233650D01*
X11510420Y-10233650D02*
X11529468Y-10243174D01*
X11529468Y-10243174D02*
X11538991Y-10262222D01*
X11538991Y-10262222D02*
X11538991Y-10281270D01*
X11538991Y-10281270D02*
X11443753Y-10300317D01*
X11615182Y-10357460D02*
X11634230Y-10366984D01*
X11634230Y-10366984D02*
X11672325Y-10366984D01*
X11672325Y-10366984D02*
X11691372Y-10357460D01*
X11691372Y-10357460D02*
X11700896Y-10338412D01*
X11700896Y-10338412D02*
X11700896Y-10328889D01*
X11700896Y-10328889D02*
X11691372Y-10309841D01*
X11691372Y-10309841D02*
X11672325Y-10300317D01*
X11672325Y-10300317D02*
X11643753Y-10300317D01*
X11643753Y-10300317D02*
X11624706Y-10290793D01*
X11624706Y-10290793D02*
X11615182Y-10271746D01*
X11615182Y-10271746D02*
X11615182Y-10262222D01*
X11615182Y-10262222D02*
X11624706Y-10243174D01*
X11624706Y-10243174D02*
X11643753Y-10233650D01*
X11643753Y-10233650D02*
X11672325Y-10233650D01*
X11672325Y-10233650D02*
X11691372Y-10243174D01*
X11938992Y-10290793D02*
X12091373Y-10290793D01*
X12015182Y-10366984D02*
X12015182Y-10214603D01*
X12367563Y-10252698D02*
X12348515Y-10243174D01*
X12348515Y-10243174D02*
X12338992Y-10233650D01*
X12338992Y-10233650D02*
X12329468Y-10214603D01*
X12329468Y-10214603D02*
X12329468Y-10205079D01*
X12329468Y-10205079D02*
X12338992Y-10186031D01*
X12338992Y-10186031D02*
X12348515Y-10176508D01*
X12348515Y-10176508D02*
X12367563Y-10166984D01*
X12367563Y-10166984D02*
X12405658Y-10166984D01*
X12405658Y-10166984D02*
X12424706Y-10176508D01*
X12424706Y-10176508D02*
X12434230Y-10186031D01*
X12434230Y-10186031D02*
X12443753Y-10205079D01*
X12443753Y-10205079D02*
X12443753Y-10214603D01*
X12443753Y-10214603D02*
X12434230Y-10233650D01*
X12434230Y-10233650D02*
X12424706Y-10243174D01*
X12424706Y-10243174D02*
X12405658Y-10252698D01*
X12405658Y-10252698D02*
X12367563Y-10252698D01*
X12367563Y-10252698D02*
X12348515Y-10262222D01*
X12348515Y-10262222D02*
X12338992Y-10271746D01*
X12338992Y-10271746D02*
X12329468Y-10290793D01*
X12329468Y-10290793D02*
X12329468Y-10328889D01*
X12329468Y-10328889D02*
X12338992Y-10347936D01*
X12338992Y-10347936D02*
X12348515Y-10357460D01*
X12348515Y-10357460D02*
X12367563Y-10366984D01*
X12367563Y-10366984D02*
X12405658Y-10366984D01*
X12405658Y-10366984D02*
X12424706Y-10357460D01*
X12424706Y-10357460D02*
X12434230Y-10347936D01*
X12434230Y-10347936D02*
X12443753Y-10328889D01*
X12443753Y-10328889D02*
X12443753Y-10290793D01*
X12443753Y-10290793D02*
X12434230Y-10271746D01*
X12434230Y-10271746D02*
X12424706Y-10262222D01*
X12424706Y-10262222D02*
X12405658Y-10252698D01*
X12672325Y-10357460D02*
X12691373Y-10366984D01*
X12691373Y-10366984D02*
X12729468Y-10366984D01*
X12729468Y-10366984D02*
X12748515Y-10357460D01*
X12748515Y-10357460D02*
X12758039Y-10338412D01*
X12758039Y-10338412D02*
X12758039Y-10328889D01*
X12758039Y-10328889D02*
X12748515Y-10309841D01*
X12748515Y-10309841D02*
X12729468Y-10300317D01*
X12729468Y-10300317D02*
X12700896Y-10300317D01*
X12700896Y-10300317D02*
X12681849Y-10290793D01*
X12681849Y-10290793D02*
X12672325Y-10271746D01*
X12672325Y-10271746D02*
X12672325Y-10262222D01*
X12672325Y-10262222D02*
X12681849Y-10243174D01*
X12681849Y-10243174D02*
X12700896Y-10233650D01*
X12700896Y-10233650D02*
X12729468Y-10233650D01*
X12729468Y-10233650D02*
X12748515Y-10243174D01*
X12872325Y-10366984D02*
X12853277Y-10357460D01*
X12853277Y-10357460D02*
X12843754Y-10338412D01*
X12843754Y-10338412D02*
X12843754Y-10166984D01*
X12977087Y-10366984D02*
X12958039Y-10357460D01*
X12958039Y-10357460D02*
X12948515Y-10347936D01*
X12948515Y-10347936D02*
X12938992Y-10328889D01*
X12938992Y-10328889D02*
X12938992Y-10271746D01*
X12938992Y-10271746D02*
X12948515Y-10252698D01*
X12948515Y-10252698D02*
X12958039Y-10243174D01*
X12958039Y-10243174D02*
X12977087Y-10233650D01*
X12977087Y-10233650D02*
X13005658Y-10233650D01*
X13005658Y-10233650D02*
X13024706Y-10243174D01*
X13024706Y-10243174D02*
X13034230Y-10252698D01*
X13034230Y-10252698D02*
X13043754Y-10271746D01*
X13043754Y-10271746D02*
X13043754Y-10328889D01*
X13043754Y-10328889D02*
X13034230Y-10347936D01*
X13034230Y-10347936D02*
X13024706Y-10357460D01*
X13024706Y-10357460D02*
X13005658Y-10366984D01*
X13005658Y-10366984D02*
X12977087Y-10366984D01*
X13100896Y-10233650D02*
X13177087Y-10233650D01*
X13129468Y-10166984D02*
X13129468Y-10338412D01*
X13129468Y-10338412D02*
X13138992Y-10357460D01*
X13138992Y-10357460D02*
X13158039Y-10366984D01*
X13158039Y-10366984D02*
X13177087Y-10366984D01*
X13234230Y-10357460D02*
X13253277Y-10366984D01*
X13253277Y-10366984D02*
X13291373Y-10366984D01*
X13291373Y-10366984D02*
X13310420Y-10357460D01*
X13310420Y-10357460D02*
X13319944Y-10338412D01*
X13319944Y-10338412D02*
X13319944Y-10328889D01*
X13319944Y-10328889D02*
X13310420Y-10309841D01*
X13310420Y-10309841D02*
X13291373Y-10300317D01*
X13291373Y-10300317D02*
X13262801Y-10300317D01*
X13262801Y-10300317D02*
X13243754Y-10290793D01*
X13243754Y-10290793D02*
X13234230Y-10271746D01*
X13234230Y-10271746D02*
X13234230Y-10262222D01*
X13234230Y-10262222D02*
X13243754Y-10243174D01*
X13243754Y-10243174D02*
X13262801Y-10233650D01*
X13262801Y-10233650D02*
X13291373Y-10233650D01*
X13291373Y-10233650D02*
X13310420Y-10243174D01*
X13386611Y-10443174D02*
X13396135Y-10433650D01*
X13396135Y-10433650D02*
X13415182Y-10405079D01*
X13415182Y-10405079D02*
X13424706Y-10386031D01*
X13424706Y-10386031D02*
X13434230Y-10357460D01*
X13434230Y-10357460D02*
X13443754Y-10309841D01*
X13443754Y-10309841D02*
X13443754Y-10271746D01*
X13443754Y-10271746D02*
X13434230Y-10224127D01*
X13434230Y-10224127D02*
X13424706Y-10195555D01*
X13424706Y-10195555D02*
X13415182Y-10176508D01*
X13415182Y-10176508D02*
X13396135Y-10147936D01*
X13396135Y-10147936D02*
X13386611Y-10138412D01*
D12*
X6983713Y-10560713D02*
X6983713Y-10518287D01*
X6941287Y-10518287D01*
X6941287Y-10560713D01*
X6983713Y-10560713D01*
D11*
X7291372Y-10430984D02*
X7310420Y-10430984D01*
X7310420Y-10430984D02*
X7329467Y-10440508D01*
X7329467Y-10440508D02*
X7338991Y-10450031D01*
X7338991Y-10450031D02*
X7348515Y-10469079D01*
X7348515Y-10469079D02*
X7358039Y-10507174D01*
X7358039Y-10507174D02*
X7358039Y-10554793D01*
X7358039Y-10554793D02*
X7348515Y-10592889D01*
X7348515Y-10592889D02*
X7338991Y-10611936D01*
X7338991Y-10611936D02*
X7329467Y-10621460D01*
X7329467Y-10621460D02*
X7310420Y-10630984D01*
X7310420Y-10630984D02*
X7291372Y-10630984D01*
X7291372Y-10630984D02*
X7272324Y-10621460D01*
X7272324Y-10621460D02*
X7262801Y-10611936D01*
X7262801Y-10611936D02*
X7253277Y-10592889D01*
X7253277Y-10592889D02*
X7243753Y-10554793D01*
X7243753Y-10554793D02*
X7243753Y-10507174D01*
X7243753Y-10507174D02*
X7253277Y-10469079D01*
X7253277Y-10469079D02*
X7262801Y-10450031D01*
X7262801Y-10450031D02*
X7272324Y-10440508D01*
X7272324Y-10440508D02*
X7291372Y-10430984D01*
X7443753Y-10611936D02*
X7453277Y-10621460D01*
X7453277Y-10621460D02*
X7443753Y-10630984D01*
X7443753Y-10630984D02*
X7434229Y-10621460D01*
X7434229Y-10621460D02*
X7443753Y-10611936D01*
X7443753Y-10611936D02*
X7443753Y-10630984D01*
X7624705Y-10430984D02*
X7586610Y-10430984D01*
X7586610Y-10430984D02*
X7567562Y-10440508D01*
X7567562Y-10440508D02*
X7558039Y-10450031D01*
X7558039Y-10450031D02*
X7538991Y-10478603D01*
X7538991Y-10478603D02*
X7529467Y-10516698D01*
X7529467Y-10516698D02*
X7529467Y-10592889D01*
X7529467Y-10592889D02*
X7538991Y-10611936D01*
X7538991Y-10611936D02*
X7548515Y-10621460D01*
X7548515Y-10621460D02*
X7567562Y-10630984D01*
X7567562Y-10630984D02*
X7605658Y-10630984D01*
X7605658Y-10630984D02*
X7624705Y-10621460D01*
X7624705Y-10621460D02*
X7634229Y-10611936D01*
X7634229Y-10611936D02*
X7643753Y-10592889D01*
X7643753Y-10592889D02*
X7643753Y-10545270D01*
X7643753Y-10545270D02*
X7634229Y-10526222D01*
X7634229Y-10526222D02*
X7624705Y-10516698D01*
X7624705Y-10516698D02*
X7605658Y-10507174D01*
X7605658Y-10507174D02*
X7567562Y-10507174D01*
X7567562Y-10507174D02*
X7548515Y-10516698D01*
X7548515Y-10516698D02*
X7538991Y-10526222D01*
X7538991Y-10526222D02*
X7529467Y-10545270D01*
X7767562Y-10430984D02*
X7786610Y-10430984D01*
X7786610Y-10430984D02*
X7805658Y-10440508D01*
X7805658Y-10440508D02*
X7815182Y-10450031D01*
X7815182Y-10450031D02*
X7824705Y-10469079D01*
X7824705Y-10469079D02*
X7834229Y-10507174D01*
X7834229Y-10507174D02*
X7834229Y-10554793D01*
X7834229Y-10554793D02*
X7824705Y-10592889D01*
X7824705Y-10592889D02*
X7815182Y-10611936D01*
X7815182Y-10611936D02*
X7805658Y-10621460D01*
X7805658Y-10621460D02*
X7786610Y-10630984D01*
X7786610Y-10630984D02*
X7767562Y-10630984D01*
X7767562Y-10630984D02*
X7748515Y-10621460D01*
X7748515Y-10621460D02*
X7738991Y-10611936D01*
X7738991Y-10611936D02*
X7729467Y-10592889D01*
X7729467Y-10592889D02*
X7719943Y-10554793D01*
X7719943Y-10554793D02*
X7719943Y-10507174D01*
X7719943Y-10507174D02*
X7729467Y-10469079D01*
X7729467Y-10469079D02*
X7738991Y-10450031D01*
X7738991Y-10450031D02*
X7748515Y-10440508D01*
X7748515Y-10440508D02*
X7767562Y-10430984D01*
X7958039Y-10430984D02*
X7977086Y-10430984D01*
X7977086Y-10430984D02*
X7996134Y-10440508D01*
X7996134Y-10440508D02*
X8005658Y-10450031D01*
X8005658Y-10450031D02*
X8015182Y-10469079D01*
X8015182Y-10469079D02*
X8024705Y-10507174D01*
X8024705Y-10507174D02*
X8024705Y-10554793D01*
X8024705Y-10554793D02*
X8015182Y-10592889D01*
X8015182Y-10592889D02*
X8005658Y-10611936D01*
X8005658Y-10611936D02*
X7996134Y-10621460D01*
X7996134Y-10621460D02*
X7977086Y-10630984D01*
X7977086Y-10630984D02*
X7958039Y-10630984D01*
X7958039Y-10630984D02*
X7938991Y-10621460D01*
X7938991Y-10621460D02*
X7929467Y-10611936D01*
X7929467Y-10611936D02*
X7919943Y-10592889D01*
X7919943Y-10592889D02*
X7910420Y-10554793D01*
X7910420Y-10554793D02*
X7910420Y-10507174D01*
X7910420Y-10507174D02*
X7919943Y-10469079D01*
X7919943Y-10469079D02*
X7929467Y-10450031D01*
X7929467Y-10450031D02*
X7938991Y-10440508D01*
X7938991Y-10440508D02*
X7958039Y-10430984D01*
X8110420Y-10630984D02*
X8110420Y-10497650D01*
X8110420Y-10516698D02*
X8119943Y-10507174D01*
X8119943Y-10507174D02*
X8138991Y-10497650D01*
X8138991Y-10497650D02*
X8167563Y-10497650D01*
X8167563Y-10497650D02*
X8186610Y-10507174D01*
X8186610Y-10507174D02*
X8196134Y-10526222D01*
X8196134Y-10526222D02*
X8196134Y-10630984D01*
X8196134Y-10526222D02*
X8205658Y-10507174D01*
X8205658Y-10507174D02*
X8224705Y-10497650D01*
X8224705Y-10497650D02*
X8253277Y-10497650D01*
X8253277Y-10497650D02*
X8272324Y-10507174D01*
X8272324Y-10507174D02*
X8281848Y-10526222D01*
X8281848Y-10526222D02*
X8281848Y-10630984D01*
X8377086Y-10630984D02*
X8377086Y-10497650D01*
X8377086Y-10516698D02*
X8386610Y-10507174D01*
X8386610Y-10507174D02*
X8405658Y-10497650D01*
X8405658Y-10497650D02*
X8434229Y-10497650D01*
X8434229Y-10497650D02*
X8453277Y-10507174D01*
X8453277Y-10507174D02*
X8462801Y-10526222D01*
X8462801Y-10526222D02*
X8462801Y-10630984D01*
X8462801Y-10526222D02*
X8472325Y-10507174D01*
X8472325Y-10507174D02*
X8491372Y-10497650D01*
X8491372Y-10497650D02*
X8519944Y-10497650D01*
X8519944Y-10497650D02*
X8538991Y-10507174D01*
X8538991Y-10507174D02*
X8548515Y-10526222D01*
X8548515Y-10526222D02*
X8548515Y-10630984D01*
X8938991Y-10421460D02*
X8767563Y-10678603D01*
X9196134Y-10430984D02*
X9215182Y-10430984D01*
X9215182Y-10430984D02*
X9234229Y-10440508D01*
X9234229Y-10440508D02*
X9243753Y-10450031D01*
X9243753Y-10450031D02*
X9253277Y-10469079D01*
X9253277Y-10469079D02*
X9262801Y-10507174D01*
X9262801Y-10507174D02*
X9262801Y-10554793D01*
X9262801Y-10554793D02*
X9253277Y-10592889D01*
X9253277Y-10592889D02*
X9243753Y-10611936D01*
X9243753Y-10611936D02*
X9234229Y-10621460D01*
X9234229Y-10621460D02*
X9215182Y-10630984D01*
X9215182Y-10630984D02*
X9196134Y-10630984D01*
X9196134Y-10630984D02*
X9177087Y-10621460D01*
X9177087Y-10621460D02*
X9167563Y-10611936D01*
X9167563Y-10611936D02*
X9158039Y-10592889D01*
X9158039Y-10592889D02*
X9148515Y-10554793D01*
X9148515Y-10554793D02*
X9148515Y-10507174D01*
X9148515Y-10507174D02*
X9158039Y-10469079D01*
X9158039Y-10469079D02*
X9167563Y-10450031D01*
X9167563Y-10450031D02*
X9177087Y-10440508D01*
X9177087Y-10440508D02*
X9196134Y-10430984D01*
X9348515Y-10611936D02*
X9358039Y-10621460D01*
X9358039Y-10621460D02*
X9348515Y-10630984D01*
X9348515Y-10630984D02*
X9338991Y-10621460D01*
X9338991Y-10621460D02*
X9348515Y-10611936D01*
X9348515Y-10611936D02*
X9348515Y-10630984D01*
X9481848Y-10430984D02*
X9500896Y-10430984D01*
X9500896Y-10430984D02*
X9519944Y-10440508D01*
X9519944Y-10440508D02*
X9529468Y-10450031D01*
X9529468Y-10450031D02*
X9538991Y-10469079D01*
X9538991Y-10469079D02*
X9548515Y-10507174D01*
X9548515Y-10507174D02*
X9548515Y-10554793D01*
X9548515Y-10554793D02*
X9538991Y-10592889D01*
X9538991Y-10592889D02*
X9529468Y-10611936D01*
X9529468Y-10611936D02*
X9519944Y-10621460D01*
X9519944Y-10621460D02*
X9500896Y-10630984D01*
X9500896Y-10630984D02*
X9481848Y-10630984D01*
X9481848Y-10630984D02*
X9462801Y-10621460D01*
X9462801Y-10621460D02*
X9453277Y-10611936D01*
X9453277Y-10611936D02*
X9443753Y-10592889D01*
X9443753Y-10592889D02*
X9434229Y-10554793D01*
X9434229Y-10554793D02*
X9434229Y-10507174D01*
X9434229Y-10507174D02*
X9443753Y-10469079D01*
X9443753Y-10469079D02*
X9453277Y-10450031D01*
X9453277Y-10450031D02*
X9462801Y-10440508D01*
X9462801Y-10440508D02*
X9481848Y-10430984D01*
X9624706Y-10450031D02*
X9634229Y-10440508D01*
X9634229Y-10440508D02*
X9653277Y-10430984D01*
X9653277Y-10430984D02*
X9700896Y-10430984D01*
X9700896Y-10430984D02*
X9719944Y-10440508D01*
X9719944Y-10440508D02*
X9729468Y-10450031D01*
X9729468Y-10450031D02*
X9738991Y-10469079D01*
X9738991Y-10469079D02*
X9738991Y-10488127D01*
X9738991Y-10488127D02*
X9729468Y-10516698D01*
X9729468Y-10516698D02*
X9615182Y-10630984D01*
X9615182Y-10630984D02*
X9738991Y-10630984D01*
X9805658Y-10430984D02*
X9929468Y-10430984D01*
X9929468Y-10430984D02*
X9862801Y-10507174D01*
X9862801Y-10507174D02*
X9891372Y-10507174D01*
X9891372Y-10507174D02*
X9910420Y-10516698D01*
X9910420Y-10516698D02*
X9919944Y-10526222D01*
X9919944Y-10526222D02*
X9929468Y-10545270D01*
X9929468Y-10545270D02*
X9929468Y-10592889D01*
X9929468Y-10592889D02*
X9919944Y-10611936D01*
X9919944Y-10611936D02*
X9910420Y-10621460D01*
X9910420Y-10621460D02*
X9891372Y-10630984D01*
X9891372Y-10630984D02*
X9834229Y-10630984D01*
X9834229Y-10630984D02*
X9815182Y-10621460D01*
X9815182Y-10621460D02*
X9805658Y-10611936D01*
X10100896Y-10430984D02*
X10062801Y-10430984D01*
X10062801Y-10430984D02*
X10043753Y-10440508D01*
X10043753Y-10440508D02*
X10034229Y-10450031D01*
X10034229Y-10450031D02*
X10015182Y-10478603D01*
X10015182Y-10478603D02*
X10005658Y-10516698D01*
X10005658Y-10516698D02*
X10005658Y-10592889D01*
X10005658Y-10592889D02*
X10015182Y-10611936D01*
X10015182Y-10611936D02*
X10024706Y-10621460D01*
X10024706Y-10621460D02*
X10043753Y-10630984D01*
X10043753Y-10630984D02*
X10081849Y-10630984D01*
X10081849Y-10630984D02*
X10100896Y-10621460D01*
X10100896Y-10621460D02*
X10110420Y-10611936D01*
X10110420Y-10611936D02*
X10119944Y-10592889D01*
X10119944Y-10592889D02*
X10119944Y-10545270D01*
X10119944Y-10545270D02*
X10110420Y-10526222D01*
X10110420Y-10526222D02*
X10100896Y-10516698D01*
X10100896Y-10516698D02*
X10081849Y-10507174D01*
X10081849Y-10507174D02*
X10043753Y-10507174D01*
X10043753Y-10507174D02*
X10024706Y-10516698D01*
X10024706Y-10516698D02*
X10015182Y-10526222D01*
X10015182Y-10526222D02*
X10005658Y-10545270D01*
X10196134Y-10430984D02*
X10196134Y-10469079D01*
X10272325Y-10430984D02*
X10272325Y-10469079D01*
X10567563Y-10707174D02*
X10558039Y-10697650D01*
X10558039Y-10697650D02*
X10538991Y-10669079D01*
X10538991Y-10669079D02*
X10529468Y-10650031D01*
X10529468Y-10650031D02*
X10519944Y-10621460D01*
X10519944Y-10621460D02*
X10510420Y-10573841D01*
X10510420Y-10573841D02*
X10510420Y-10535746D01*
X10510420Y-10535746D02*
X10519944Y-10488127D01*
X10519944Y-10488127D02*
X10529468Y-10459555D01*
X10529468Y-10459555D02*
X10538991Y-10440508D01*
X10538991Y-10440508D02*
X10558039Y-10411936D01*
X10558039Y-10411936D02*
X10567563Y-10402412D01*
X10681849Y-10430984D02*
X10700896Y-10430984D01*
X10700896Y-10430984D02*
X10719944Y-10440508D01*
X10719944Y-10440508D02*
X10729468Y-10450031D01*
X10729468Y-10450031D02*
X10738991Y-10469079D01*
X10738991Y-10469079D02*
X10748515Y-10507174D01*
X10748515Y-10507174D02*
X10748515Y-10554793D01*
X10748515Y-10554793D02*
X10738991Y-10592889D01*
X10738991Y-10592889D02*
X10729468Y-10611936D01*
X10729468Y-10611936D02*
X10719944Y-10621460D01*
X10719944Y-10621460D02*
X10700896Y-10630984D01*
X10700896Y-10630984D02*
X10681849Y-10630984D01*
X10681849Y-10630984D02*
X10662801Y-10621460D01*
X10662801Y-10621460D02*
X10653277Y-10611936D01*
X10653277Y-10611936D02*
X10643753Y-10592889D01*
X10643753Y-10592889D02*
X10634230Y-10554793D01*
X10634230Y-10554793D02*
X10634230Y-10507174D01*
X10634230Y-10507174D02*
X10643753Y-10469079D01*
X10643753Y-10469079D02*
X10653277Y-10450031D01*
X10653277Y-10450031D02*
X10662801Y-10440508D01*
X10662801Y-10440508D02*
X10681849Y-10430984D01*
X10986611Y-10630984D02*
X10986611Y-10430984D01*
X11072325Y-10630984D02*
X11072325Y-10526222D01*
X11072325Y-10526222D02*
X11062801Y-10507174D01*
X11062801Y-10507174D02*
X11043753Y-10497650D01*
X11043753Y-10497650D02*
X11015182Y-10497650D01*
X11015182Y-10497650D02*
X10996134Y-10507174D01*
X10996134Y-10507174D02*
X10986611Y-10516698D01*
X11196134Y-10630984D02*
X11177087Y-10621460D01*
X11177087Y-10621460D02*
X11167563Y-10611936D01*
X11167563Y-10611936D02*
X11158039Y-10592889D01*
X11158039Y-10592889D02*
X11158039Y-10535746D01*
X11158039Y-10535746D02*
X11167563Y-10516698D01*
X11167563Y-10516698D02*
X11177087Y-10507174D01*
X11177087Y-10507174D02*
X11196134Y-10497650D01*
X11196134Y-10497650D02*
X11224706Y-10497650D01*
X11224706Y-10497650D02*
X11243753Y-10507174D01*
X11243753Y-10507174D02*
X11253277Y-10516698D01*
X11253277Y-10516698D02*
X11262801Y-10535746D01*
X11262801Y-10535746D02*
X11262801Y-10592889D01*
X11262801Y-10592889D02*
X11253277Y-10611936D01*
X11253277Y-10611936D02*
X11243753Y-10621460D01*
X11243753Y-10621460D02*
X11224706Y-10630984D01*
X11224706Y-10630984D02*
X11196134Y-10630984D01*
X11377087Y-10630984D02*
X11358039Y-10621460D01*
X11358039Y-10621460D02*
X11348515Y-10602412D01*
X11348515Y-10602412D02*
X11348515Y-10430984D01*
X11529468Y-10621460D02*
X11510420Y-10630984D01*
X11510420Y-10630984D02*
X11472325Y-10630984D01*
X11472325Y-10630984D02*
X11453277Y-10621460D01*
X11453277Y-10621460D02*
X11443753Y-10602412D01*
X11443753Y-10602412D02*
X11443753Y-10526222D01*
X11443753Y-10526222D02*
X11453277Y-10507174D01*
X11453277Y-10507174D02*
X11472325Y-10497650D01*
X11472325Y-10497650D02*
X11510420Y-10497650D01*
X11510420Y-10497650D02*
X11529468Y-10507174D01*
X11529468Y-10507174D02*
X11538991Y-10526222D01*
X11538991Y-10526222D02*
X11538991Y-10545270D01*
X11538991Y-10545270D02*
X11443753Y-10564317D01*
X11615182Y-10621460D02*
X11634230Y-10630984D01*
X11634230Y-10630984D02*
X11672325Y-10630984D01*
X11672325Y-10630984D02*
X11691372Y-10621460D01*
X11691372Y-10621460D02*
X11700896Y-10602412D01*
X11700896Y-10602412D02*
X11700896Y-10592889D01*
X11700896Y-10592889D02*
X11691372Y-10573841D01*
X11691372Y-10573841D02*
X11672325Y-10564317D01*
X11672325Y-10564317D02*
X11643753Y-10564317D01*
X11643753Y-10564317D02*
X11624706Y-10554793D01*
X11624706Y-10554793D02*
X11615182Y-10535746D01*
X11615182Y-10535746D02*
X11615182Y-10526222D01*
X11615182Y-10526222D02*
X11624706Y-10507174D01*
X11624706Y-10507174D02*
X11643753Y-10497650D01*
X11643753Y-10497650D02*
X11672325Y-10497650D01*
X11672325Y-10497650D02*
X11691372Y-10507174D01*
X11938992Y-10554793D02*
X12091373Y-10554793D01*
X12015182Y-10630984D02*
X12015182Y-10478603D01*
X12424706Y-10497650D02*
X12424706Y-10630984D01*
X12377087Y-10421460D02*
X12329468Y-10564317D01*
X12329468Y-10564317D02*
X12453277Y-10564317D01*
X12672325Y-10621460D02*
X12691373Y-10630984D01*
X12691373Y-10630984D02*
X12729468Y-10630984D01*
X12729468Y-10630984D02*
X12748515Y-10621460D01*
X12748515Y-10621460D02*
X12758039Y-10602412D01*
X12758039Y-10602412D02*
X12758039Y-10592889D01*
X12758039Y-10592889D02*
X12748515Y-10573841D01*
X12748515Y-10573841D02*
X12729468Y-10564317D01*
X12729468Y-10564317D02*
X12700896Y-10564317D01*
X12700896Y-10564317D02*
X12681849Y-10554793D01*
X12681849Y-10554793D02*
X12672325Y-10535746D01*
X12672325Y-10535746D02*
X12672325Y-10526222D01*
X12672325Y-10526222D02*
X12681849Y-10507174D01*
X12681849Y-10507174D02*
X12700896Y-10497650D01*
X12700896Y-10497650D02*
X12729468Y-10497650D01*
X12729468Y-10497650D02*
X12748515Y-10507174D01*
X12872325Y-10630984D02*
X12853277Y-10621460D01*
X12853277Y-10621460D02*
X12843754Y-10602412D01*
X12843754Y-10602412D02*
X12843754Y-10430984D01*
X12977087Y-10630984D02*
X12958039Y-10621460D01*
X12958039Y-10621460D02*
X12948515Y-10611936D01*
X12948515Y-10611936D02*
X12938992Y-10592889D01*
X12938992Y-10592889D02*
X12938992Y-10535746D01*
X12938992Y-10535746D02*
X12948515Y-10516698D01*
X12948515Y-10516698D02*
X12958039Y-10507174D01*
X12958039Y-10507174D02*
X12977087Y-10497650D01*
X12977087Y-10497650D02*
X13005658Y-10497650D01*
X13005658Y-10497650D02*
X13024706Y-10507174D01*
X13024706Y-10507174D02*
X13034230Y-10516698D01*
X13034230Y-10516698D02*
X13043754Y-10535746D01*
X13043754Y-10535746D02*
X13043754Y-10592889D01*
X13043754Y-10592889D02*
X13034230Y-10611936D01*
X13034230Y-10611936D02*
X13024706Y-10621460D01*
X13024706Y-10621460D02*
X13005658Y-10630984D01*
X13005658Y-10630984D02*
X12977087Y-10630984D01*
X13100896Y-10497650D02*
X13177087Y-10497650D01*
X13129468Y-10430984D02*
X13129468Y-10602412D01*
X13129468Y-10602412D02*
X13138992Y-10621460D01*
X13138992Y-10621460D02*
X13158039Y-10630984D01*
X13158039Y-10630984D02*
X13177087Y-10630984D01*
X13234230Y-10621460D02*
X13253277Y-10630984D01*
X13253277Y-10630984D02*
X13291373Y-10630984D01*
X13291373Y-10630984D02*
X13310420Y-10621460D01*
X13310420Y-10621460D02*
X13319944Y-10602412D01*
X13319944Y-10602412D02*
X13319944Y-10592889D01*
X13319944Y-10592889D02*
X13310420Y-10573841D01*
X13310420Y-10573841D02*
X13291373Y-10564317D01*
X13291373Y-10564317D02*
X13262801Y-10564317D01*
X13262801Y-10564317D02*
X13243754Y-10554793D01*
X13243754Y-10554793D02*
X13234230Y-10535746D01*
X13234230Y-10535746D02*
X13234230Y-10526222D01*
X13234230Y-10526222D02*
X13243754Y-10507174D01*
X13243754Y-10507174D02*
X13262801Y-10497650D01*
X13262801Y-10497650D02*
X13291373Y-10497650D01*
X13291373Y-10497650D02*
X13310420Y-10507174D01*
X13386611Y-10707174D02*
X13396135Y-10697650D01*
X13396135Y-10697650D02*
X13415182Y-10669079D01*
X13415182Y-10669079D02*
X13424706Y-10650031D01*
X13424706Y-10650031D02*
X13434230Y-10621460D01*
X13434230Y-10621460D02*
X13443754Y-10573841D01*
X13443754Y-10573841D02*
X13443754Y-10535746D01*
X13443754Y-10535746D02*
X13434230Y-10488127D01*
X13434230Y-10488127D02*
X13424706Y-10459555D01*
X13424706Y-10459555D02*
X13415182Y-10440508D01*
X13415182Y-10440508D02*
X13396135Y-10411936D01*
X13396135Y-10411936D02*
X13386611Y-10402412D01*
D12*
X6957500Y-10838500D02*
X6992500Y-10803500D01*
X6957500Y-10768500D01*
X6922500Y-10803500D01*
X6957500Y-10838500D01*
D11*
X7291372Y-10694984D02*
X7310420Y-10694984D01*
X7310420Y-10694984D02*
X7329467Y-10704508D01*
X7329467Y-10704508D02*
X7338991Y-10714031D01*
X7338991Y-10714031D02*
X7348515Y-10733079D01*
X7348515Y-10733079D02*
X7358039Y-10771174D01*
X7358039Y-10771174D02*
X7358039Y-10818793D01*
X7358039Y-10818793D02*
X7348515Y-10856889D01*
X7348515Y-10856889D02*
X7338991Y-10875936D01*
X7338991Y-10875936D02*
X7329467Y-10885460D01*
X7329467Y-10885460D02*
X7310420Y-10894984D01*
X7310420Y-10894984D02*
X7291372Y-10894984D01*
X7291372Y-10894984D02*
X7272324Y-10885460D01*
X7272324Y-10885460D02*
X7262801Y-10875936D01*
X7262801Y-10875936D02*
X7253277Y-10856889D01*
X7253277Y-10856889D02*
X7243753Y-10818793D01*
X7243753Y-10818793D02*
X7243753Y-10771174D01*
X7243753Y-10771174D02*
X7253277Y-10733079D01*
X7253277Y-10733079D02*
X7262801Y-10714031D01*
X7262801Y-10714031D02*
X7272324Y-10704508D01*
X7272324Y-10704508D02*
X7291372Y-10694984D01*
X7443753Y-10875936D02*
X7453277Y-10885460D01*
X7453277Y-10885460D02*
X7443753Y-10894984D01*
X7443753Y-10894984D02*
X7434229Y-10885460D01*
X7434229Y-10885460D02*
X7443753Y-10875936D01*
X7443753Y-10875936D02*
X7443753Y-10894984D01*
X7519943Y-10694984D02*
X7653277Y-10694984D01*
X7653277Y-10694984D02*
X7567562Y-10894984D01*
X7767562Y-10694984D02*
X7786610Y-10694984D01*
X7786610Y-10694984D02*
X7805658Y-10704508D01*
X7805658Y-10704508D02*
X7815182Y-10714031D01*
X7815182Y-10714031D02*
X7824705Y-10733079D01*
X7824705Y-10733079D02*
X7834229Y-10771174D01*
X7834229Y-10771174D02*
X7834229Y-10818793D01*
X7834229Y-10818793D02*
X7824705Y-10856889D01*
X7824705Y-10856889D02*
X7815182Y-10875936D01*
X7815182Y-10875936D02*
X7805658Y-10885460D01*
X7805658Y-10885460D02*
X7786610Y-10894984D01*
X7786610Y-10894984D02*
X7767562Y-10894984D01*
X7767562Y-10894984D02*
X7748515Y-10885460D01*
X7748515Y-10885460D02*
X7738991Y-10875936D01*
X7738991Y-10875936D02*
X7729467Y-10856889D01*
X7729467Y-10856889D02*
X7719943Y-10818793D01*
X7719943Y-10818793D02*
X7719943Y-10771174D01*
X7719943Y-10771174D02*
X7729467Y-10733079D01*
X7729467Y-10733079D02*
X7738991Y-10714031D01*
X7738991Y-10714031D02*
X7748515Y-10704508D01*
X7748515Y-10704508D02*
X7767562Y-10694984D01*
X7958039Y-10694984D02*
X7977086Y-10694984D01*
X7977086Y-10694984D02*
X7996134Y-10704508D01*
X7996134Y-10704508D02*
X8005658Y-10714031D01*
X8005658Y-10714031D02*
X8015182Y-10733079D01*
X8015182Y-10733079D02*
X8024705Y-10771174D01*
X8024705Y-10771174D02*
X8024705Y-10818793D01*
X8024705Y-10818793D02*
X8015182Y-10856889D01*
X8015182Y-10856889D02*
X8005658Y-10875936D01*
X8005658Y-10875936D02*
X7996134Y-10885460D01*
X7996134Y-10885460D02*
X7977086Y-10894984D01*
X7977086Y-10894984D02*
X7958039Y-10894984D01*
X7958039Y-10894984D02*
X7938991Y-10885460D01*
X7938991Y-10885460D02*
X7929467Y-10875936D01*
X7929467Y-10875936D02*
X7919943Y-10856889D01*
X7919943Y-10856889D02*
X7910420Y-10818793D01*
X7910420Y-10818793D02*
X7910420Y-10771174D01*
X7910420Y-10771174D02*
X7919943Y-10733079D01*
X7919943Y-10733079D02*
X7929467Y-10714031D01*
X7929467Y-10714031D02*
X7938991Y-10704508D01*
X7938991Y-10704508D02*
X7958039Y-10694984D01*
X8110420Y-10894984D02*
X8110420Y-10761650D01*
X8110420Y-10780698D02*
X8119943Y-10771174D01*
X8119943Y-10771174D02*
X8138991Y-10761650D01*
X8138991Y-10761650D02*
X8167563Y-10761650D01*
X8167563Y-10761650D02*
X8186610Y-10771174D01*
X8186610Y-10771174D02*
X8196134Y-10790222D01*
X8196134Y-10790222D02*
X8196134Y-10894984D01*
X8196134Y-10790222D02*
X8205658Y-10771174D01*
X8205658Y-10771174D02*
X8224705Y-10761650D01*
X8224705Y-10761650D02*
X8253277Y-10761650D01*
X8253277Y-10761650D02*
X8272324Y-10771174D01*
X8272324Y-10771174D02*
X8281848Y-10790222D01*
X8281848Y-10790222D02*
X8281848Y-10894984D01*
X8377086Y-10894984D02*
X8377086Y-10761650D01*
X8377086Y-10780698D02*
X8386610Y-10771174D01*
X8386610Y-10771174D02*
X8405658Y-10761650D01*
X8405658Y-10761650D02*
X8434229Y-10761650D01*
X8434229Y-10761650D02*
X8453277Y-10771174D01*
X8453277Y-10771174D02*
X8462801Y-10790222D01*
X8462801Y-10790222D02*
X8462801Y-10894984D01*
X8462801Y-10790222D02*
X8472325Y-10771174D01*
X8472325Y-10771174D02*
X8491372Y-10761650D01*
X8491372Y-10761650D02*
X8519944Y-10761650D01*
X8519944Y-10761650D02*
X8538991Y-10771174D01*
X8538991Y-10771174D02*
X8548515Y-10790222D01*
X8548515Y-10790222D02*
X8548515Y-10894984D01*
X8938991Y-10685460D02*
X8767563Y-10942603D01*
X9196134Y-10694984D02*
X9215182Y-10694984D01*
X9215182Y-10694984D02*
X9234229Y-10704508D01*
X9234229Y-10704508D02*
X9243753Y-10714031D01*
X9243753Y-10714031D02*
X9253277Y-10733079D01*
X9253277Y-10733079D02*
X9262801Y-10771174D01*
X9262801Y-10771174D02*
X9262801Y-10818793D01*
X9262801Y-10818793D02*
X9253277Y-10856889D01*
X9253277Y-10856889D02*
X9243753Y-10875936D01*
X9243753Y-10875936D02*
X9234229Y-10885460D01*
X9234229Y-10885460D02*
X9215182Y-10894984D01*
X9215182Y-10894984D02*
X9196134Y-10894984D01*
X9196134Y-10894984D02*
X9177087Y-10885460D01*
X9177087Y-10885460D02*
X9167563Y-10875936D01*
X9167563Y-10875936D02*
X9158039Y-10856889D01*
X9158039Y-10856889D02*
X9148515Y-10818793D01*
X9148515Y-10818793D02*
X9148515Y-10771174D01*
X9148515Y-10771174D02*
X9158039Y-10733079D01*
X9158039Y-10733079D02*
X9167563Y-10714031D01*
X9167563Y-10714031D02*
X9177087Y-10704508D01*
X9177087Y-10704508D02*
X9196134Y-10694984D01*
X9348515Y-10875936D02*
X9358039Y-10885460D01*
X9358039Y-10885460D02*
X9348515Y-10894984D01*
X9348515Y-10894984D02*
X9338991Y-10885460D01*
X9338991Y-10885460D02*
X9348515Y-10875936D01*
X9348515Y-10875936D02*
X9348515Y-10894984D01*
X9481848Y-10694984D02*
X9500896Y-10694984D01*
X9500896Y-10694984D02*
X9519944Y-10704508D01*
X9519944Y-10704508D02*
X9529468Y-10714031D01*
X9529468Y-10714031D02*
X9538991Y-10733079D01*
X9538991Y-10733079D02*
X9548515Y-10771174D01*
X9548515Y-10771174D02*
X9548515Y-10818793D01*
X9548515Y-10818793D02*
X9538991Y-10856889D01*
X9538991Y-10856889D02*
X9529468Y-10875936D01*
X9529468Y-10875936D02*
X9519944Y-10885460D01*
X9519944Y-10885460D02*
X9500896Y-10894984D01*
X9500896Y-10894984D02*
X9481848Y-10894984D01*
X9481848Y-10894984D02*
X9462801Y-10885460D01*
X9462801Y-10885460D02*
X9453277Y-10875936D01*
X9453277Y-10875936D02*
X9443753Y-10856889D01*
X9443753Y-10856889D02*
X9434229Y-10818793D01*
X9434229Y-10818793D02*
X9434229Y-10771174D01*
X9434229Y-10771174D02*
X9443753Y-10733079D01*
X9443753Y-10733079D02*
X9453277Y-10714031D01*
X9453277Y-10714031D02*
X9462801Y-10704508D01*
X9462801Y-10704508D02*
X9481848Y-10694984D01*
X9624706Y-10714031D02*
X9634229Y-10704508D01*
X9634229Y-10704508D02*
X9653277Y-10694984D01*
X9653277Y-10694984D02*
X9700896Y-10694984D01*
X9700896Y-10694984D02*
X9719944Y-10704508D01*
X9719944Y-10704508D02*
X9729468Y-10714031D01*
X9729468Y-10714031D02*
X9738991Y-10733079D01*
X9738991Y-10733079D02*
X9738991Y-10752127D01*
X9738991Y-10752127D02*
X9729468Y-10780698D01*
X9729468Y-10780698D02*
X9615182Y-10894984D01*
X9615182Y-10894984D02*
X9738991Y-10894984D01*
X9805658Y-10694984D02*
X9938991Y-10694984D01*
X9938991Y-10694984D02*
X9853277Y-10894984D01*
X10100896Y-10694984D02*
X10062801Y-10694984D01*
X10062801Y-10694984D02*
X10043753Y-10704508D01*
X10043753Y-10704508D02*
X10034229Y-10714031D01*
X10034229Y-10714031D02*
X10015182Y-10742603D01*
X10015182Y-10742603D02*
X10005658Y-10780698D01*
X10005658Y-10780698D02*
X10005658Y-10856889D01*
X10005658Y-10856889D02*
X10015182Y-10875936D01*
X10015182Y-10875936D02*
X10024706Y-10885460D01*
X10024706Y-10885460D02*
X10043753Y-10894984D01*
X10043753Y-10894984D02*
X10081849Y-10894984D01*
X10081849Y-10894984D02*
X10100896Y-10885460D01*
X10100896Y-10885460D02*
X10110420Y-10875936D01*
X10110420Y-10875936D02*
X10119944Y-10856889D01*
X10119944Y-10856889D02*
X10119944Y-10809270D01*
X10119944Y-10809270D02*
X10110420Y-10790222D01*
X10110420Y-10790222D02*
X10100896Y-10780698D01*
X10100896Y-10780698D02*
X10081849Y-10771174D01*
X10081849Y-10771174D02*
X10043753Y-10771174D01*
X10043753Y-10771174D02*
X10024706Y-10780698D01*
X10024706Y-10780698D02*
X10015182Y-10790222D01*
X10015182Y-10790222D02*
X10005658Y-10809270D01*
X10196134Y-10694984D02*
X10196134Y-10733079D01*
X10272325Y-10694984D02*
X10272325Y-10733079D01*
X10567563Y-10971174D02*
X10558039Y-10961650D01*
X10558039Y-10961650D02*
X10538991Y-10933079D01*
X10538991Y-10933079D02*
X10529468Y-10914031D01*
X10529468Y-10914031D02*
X10519944Y-10885460D01*
X10519944Y-10885460D02*
X10510420Y-10837841D01*
X10510420Y-10837841D02*
X10510420Y-10799746D01*
X10510420Y-10799746D02*
X10519944Y-10752127D01*
X10519944Y-10752127D02*
X10529468Y-10723555D01*
X10529468Y-10723555D02*
X10538991Y-10704508D01*
X10538991Y-10704508D02*
X10558039Y-10675936D01*
X10558039Y-10675936D02*
X10567563Y-10666412D01*
X10729468Y-10761650D02*
X10729468Y-10894984D01*
X10681849Y-10685460D02*
X10634230Y-10828317D01*
X10634230Y-10828317D02*
X10758039Y-10828317D01*
X10986611Y-10894984D02*
X10986611Y-10694984D01*
X11072325Y-10894984D02*
X11072325Y-10790222D01*
X11072325Y-10790222D02*
X11062801Y-10771174D01*
X11062801Y-10771174D02*
X11043753Y-10761650D01*
X11043753Y-10761650D02*
X11015182Y-10761650D01*
X11015182Y-10761650D02*
X10996134Y-10771174D01*
X10996134Y-10771174D02*
X10986611Y-10780698D01*
X11196134Y-10894984D02*
X11177087Y-10885460D01*
X11177087Y-10885460D02*
X11167563Y-10875936D01*
X11167563Y-10875936D02*
X11158039Y-10856889D01*
X11158039Y-10856889D02*
X11158039Y-10799746D01*
X11158039Y-10799746D02*
X11167563Y-10780698D01*
X11167563Y-10780698D02*
X11177087Y-10771174D01*
X11177087Y-10771174D02*
X11196134Y-10761650D01*
X11196134Y-10761650D02*
X11224706Y-10761650D01*
X11224706Y-10761650D02*
X11243753Y-10771174D01*
X11243753Y-10771174D02*
X11253277Y-10780698D01*
X11253277Y-10780698D02*
X11262801Y-10799746D01*
X11262801Y-10799746D02*
X11262801Y-10856889D01*
X11262801Y-10856889D02*
X11253277Y-10875936D01*
X11253277Y-10875936D02*
X11243753Y-10885460D01*
X11243753Y-10885460D02*
X11224706Y-10894984D01*
X11224706Y-10894984D02*
X11196134Y-10894984D01*
X11377087Y-10894984D02*
X11358039Y-10885460D01*
X11358039Y-10885460D02*
X11348515Y-10866412D01*
X11348515Y-10866412D02*
X11348515Y-10694984D01*
X11529468Y-10885460D02*
X11510420Y-10894984D01*
X11510420Y-10894984D02*
X11472325Y-10894984D01*
X11472325Y-10894984D02*
X11453277Y-10885460D01*
X11453277Y-10885460D02*
X11443753Y-10866412D01*
X11443753Y-10866412D02*
X11443753Y-10790222D01*
X11443753Y-10790222D02*
X11453277Y-10771174D01*
X11453277Y-10771174D02*
X11472325Y-10761650D01*
X11472325Y-10761650D02*
X11510420Y-10761650D01*
X11510420Y-10761650D02*
X11529468Y-10771174D01*
X11529468Y-10771174D02*
X11538991Y-10790222D01*
X11538991Y-10790222D02*
X11538991Y-10809270D01*
X11538991Y-10809270D02*
X11443753Y-10828317D01*
X11615182Y-10885460D02*
X11634230Y-10894984D01*
X11634230Y-10894984D02*
X11672325Y-10894984D01*
X11672325Y-10894984D02*
X11691372Y-10885460D01*
X11691372Y-10885460D02*
X11700896Y-10866412D01*
X11700896Y-10866412D02*
X11700896Y-10856889D01*
X11700896Y-10856889D02*
X11691372Y-10837841D01*
X11691372Y-10837841D02*
X11672325Y-10828317D01*
X11672325Y-10828317D02*
X11643753Y-10828317D01*
X11643753Y-10828317D02*
X11624706Y-10818793D01*
X11624706Y-10818793D02*
X11615182Y-10799746D01*
X11615182Y-10799746D02*
X11615182Y-10790222D01*
X11615182Y-10790222D02*
X11624706Y-10771174D01*
X11624706Y-10771174D02*
X11643753Y-10761650D01*
X11643753Y-10761650D02*
X11672325Y-10761650D01*
X11672325Y-10761650D02*
X11691372Y-10771174D01*
X11767563Y-10971174D02*
X11777087Y-10961650D01*
X11777087Y-10961650D02*
X11796134Y-10933079D01*
X11796134Y-10933079D02*
X11805658Y-10914031D01*
X11805658Y-10914031D02*
X11815182Y-10885460D01*
X11815182Y-10885460D02*
X11824706Y-10837841D01*
X11824706Y-10837841D02*
X11824706Y-10799746D01*
X11824706Y-10799746D02*
X11815182Y-10752127D01*
X11815182Y-10752127D02*
X11805658Y-10723555D01*
X11805658Y-10723555D02*
X11796134Y-10704508D01*
X11796134Y-10704508D02*
X11777087Y-10675936D01*
X11777087Y-10675936D02*
X11767563Y-10666412D01*
D12*
X6912500Y-11027500D02*
X6992500Y-11107500D01*
X6992500Y-11027500D02*
X6912500Y-11107500D01*
X6992500Y-11067500D02*
G75*
G02*
X6912500Y-11067500I-40000J0D01*
G01*
X6912500Y-11067500D02*
G75*
G02*
X6992500Y-11067500I40000J0D01*
G01*
D11*
X7291372Y-10958984D02*
X7310420Y-10958984D01*
X7310420Y-10958984D02*
X7329467Y-10968508D01*
X7329467Y-10968508D02*
X7338991Y-10978031D01*
X7338991Y-10978031D02*
X7348515Y-10997079D01*
X7348515Y-10997079D02*
X7358039Y-11035174D01*
X7358039Y-11035174D02*
X7358039Y-11082793D01*
X7358039Y-11082793D02*
X7348515Y-11120889D01*
X7348515Y-11120889D02*
X7338991Y-11139936D01*
X7338991Y-11139936D02*
X7329467Y-11149460D01*
X7329467Y-11149460D02*
X7310420Y-11158984D01*
X7310420Y-11158984D02*
X7291372Y-11158984D01*
X7291372Y-11158984D02*
X7272324Y-11149460D01*
X7272324Y-11149460D02*
X7262801Y-11139936D01*
X7262801Y-11139936D02*
X7253277Y-11120889D01*
X7253277Y-11120889D02*
X7243753Y-11082793D01*
X7243753Y-11082793D02*
X7243753Y-11035174D01*
X7243753Y-11035174D02*
X7253277Y-10997079D01*
X7253277Y-10997079D02*
X7262801Y-10978031D01*
X7262801Y-10978031D02*
X7272324Y-10968508D01*
X7272324Y-10968508D02*
X7291372Y-10958984D01*
X7443753Y-11139936D02*
X7453277Y-11149460D01*
X7453277Y-11149460D02*
X7443753Y-11158984D01*
X7443753Y-11158984D02*
X7434229Y-11149460D01*
X7434229Y-11149460D02*
X7443753Y-11139936D01*
X7443753Y-11139936D02*
X7443753Y-11158984D01*
X7567562Y-11044698D02*
X7548515Y-11035174D01*
X7548515Y-11035174D02*
X7538991Y-11025650D01*
X7538991Y-11025650D02*
X7529467Y-11006603D01*
X7529467Y-11006603D02*
X7529467Y-10997079D01*
X7529467Y-10997079D02*
X7538991Y-10978031D01*
X7538991Y-10978031D02*
X7548515Y-10968508D01*
X7548515Y-10968508D02*
X7567562Y-10958984D01*
X7567562Y-10958984D02*
X7605658Y-10958984D01*
X7605658Y-10958984D02*
X7624705Y-10968508D01*
X7624705Y-10968508D02*
X7634229Y-10978031D01*
X7634229Y-10978031D02*
X7643753Y-10997079D01*
X7643753Y-10997079D02*
X7643753Y-11006603D01*
X7643753Y-11006603D02*
X7634229Y-11025650D01*
X7634229Y-11025650D02*
X7624705Y-11035174D01*
X7624705Y-11035174D02*
X7605658Y-11044698D01*
X7605658Y-11044698D02*
X7567562Y-11044698D01*
X7567562Y-11044698D02*
X7548515Y-11054222D01*
X7548515Y-11054222D02*
X7538991Y-11063746D01*
X7538991Y-11063746D02*
X7529467Y-11082793D01*
X7529467Y-11082793D02*
X7529467Y-11120889D01*
X7529467Y-11120889D02*
X7538991Y-11139936D01*
X7538991Y-11139936D02*
X7548515Y-11149460D01*
X7548515Y-11149460D02*
X7567562Y-11158984D01*
X7567562Y-11158984D02*
X7605658Y-11158984D01*
X7605658Y-11158984D02*
X7624705Y-11149460D01*
X7624705Y-11149460D02*
X7634229Y-11139936D01*
X7634229Y-11139936D02*
X7643753Y-11120889D01*
X7643753Y-11120889D02*
X7643753Y-11082793D01*
X7643753Y-11082793D02*
X7634229Y-11063746D01*
X7634229Y-11063746D02*
X7624705Y-11054222D01*
X7624705Y-11054222D02*
X7605658Y-11044698D01*
X7767562Y-10958984D02*
X7786610Y-10958984D01*
X7786610Y-10958984D02*
X7805658Y-10968508D01*
X7805658Y-10968508D02*
X7815182Y-10978031D01*
X7815182Y-10978031D02*
X7824705Y-10997079D01*
X7824705Y-10997079D02*
X7834229Y-11035174D01*
X7834229Y-11035174D02*
X7834229Y-11082793D01*
X7834229Y-11082793D02*
X7824705Y-11120889D01*
X7824705Y-11120889D02*
X7815182Y-11139936D01*
X7815182Y-11139936D02*
X7805658Y-11149460D01*
X7805658Y-11149460D02*
X7786610Y-11158984D01*
X7786610Y-11158984D02*
X7767562Y-11158984D01*
X7767562Y-11158984D02*
X7748515Y-11149460D01*
X7748515Y-11149460D02*
X7738991Y-11139936D01*
X7738991Y-11139936D02*
X7729467Y-11120889D01*
X7729467Y-11120889D02*
X7719943Y-11082793D01*
X7719943Y-11082793D02*
X7719943Y-11035174D01*
X7719943Y-11035174D02*
X7729467Y-10997079D01*
X7729467Y-10997079D02*
X7738991Y-10978031D01*
X7738991Y-10978031D02*
X7748515Y-10968508D01*
X7748515Y-10968508D02*
X7767562Y-10958984D01*
X7958039Y-10958984D02*
X7977086Y-10958984D01*
X7977086Y-10958984D02*
X7996134Y-10968508D01*
X7996134Y-10968508D02*
X8005658Y-10978031D01*
X8005658Y-10978031D02*
X8015182Y-10997079D01*
X8015182Y-10997079D02*
X8024705Y-11035174D01*
X8024705Y-11035174D02*
X8024705Y-11082793D01*
X8024705Y-11082793D02*
X8015182Y-11120889D01*
X8015182Y-11120889D02*
X8005658Y-11139936D01*
X8005658Y-11139936D02*
X7996134Y-11149460D01*
X7996134Y-11149460D02*
X7977086Y-11158984D01*
X7977086Y-11158984D02*
X7958039Y-11158984D01*
X7958039Y-11158984D02*
X7938991Y-11149460D01*
X7938991Y-11149460D02*
X7929467Y-11139936D01*
X7929467Y-11139936D02*
X7919943Y-11120889D01*
X7919943Y-11120889D02*
X7910420Y-11082793D01*
X7910420Y-11082793D02*
X7910420Y-11035174D01*
X7910420Y-11035174D02*
X7919943Y-10997079D01*
X7919943Y-10997079D02*
X7929467Y-10978031D01*
X7929467Y-10978031D02*
X7938991Y-10968508D01*
X7938991Y-10968508D02*
X7958039Y-10958984D01*
X8110420Y-11158984D02*
X8110420Y-11025650D01*
X8110420Y-11044698D02*
X8119943Y-11035174D01*
X8119943Y-11035174D02*
X8138991Y-11025650D01*
X8138991Y-11025650D02*
X8167563Y-11025650D01*
X8167563Y-11025650D02*
X8186610Y-11035174D01*
X8186610Y-11035174D02*
X8196134Y-11054222D01*
X8196134Y-11054222D02*
X8196134Y-11158984D01*
X8196134Y-11054222D02*
X8205658Y-11035174D01*
X8205658Y-11035174D02*
X8224705Y-11025650D01*
X8224705Y-11025650D02*
X8253277Y-11025650D01*
X8253277Y-11025650D02*
X8272324Y-11035174D01*
X8272324Y-11035174D02*
X8281848Y-11054222D01*
X8281848Y-11054222D02*
X8281848Y-11158984D01*
X8377086Y-11158984D02*
X8377086Y-11025650D01*
X8377086Y-11044698D02*
X8386610Y-11035174D01*
X8386610Y-11035174D02*
X8405658Y-11025650D01*
X8405658Y-11025650D02*
X8434229Y-11025650D01*
X8434229Y-11025650D02*
X8453277Y-11035174D01*
X8453277Y-11035174D02*
X8462801Y-11054222D01*
X8462801Y-11054222D02*
X8462801Y-11158984D01*
X8462801Y-11054222D02*
X8472325Y-11035174D01*
X8472325Y-11035174D02*
X8491372Y-11025650D01*
X8491372Y-11025650D02*
X8519944Y-11025650D01*
X8519944Y-11025650D02*
X8538991Y-11035174D01*
X8538991Y-11035174D02*
X8548515Y-11054222D01*
X8548515Y-11054222D02*
X8548515Y-11158984D01*
X8938991Y-10949460D02*
X8767563Y-11206603D01*
X9196134Y-10958984D02*
X9215182Y-10958984D01*
X9215182Y-10958984D02*
X9234229Y-10968508D01*
X9234229Y-10968508D02*
X9243753Y-10978031D01*
X9243753Y-10978031D02*
X9253277Y-10997079D01*
X9253277Y-10997079D02*
X9262801Y-11035174D01*
X9262801Y-11035174D02*
X9262801Y-11082793D01*
X9262801Y-11082793D02*
X9253277Y-11120889D01*
X9253277Y-11120889D02*
X9243753Y-11139936D01*
X9243753Y-11139936D02*
X9234229Y-11149460D01*
X9234229Y-11149460D02*
X9215182Y-11158984D01*
X9215182Y-11158984D02*
X9196134Y-11158984D01*
X9196134Y-11158984D02*
X9177087Y-11149460D01*
X9177087Y-11149460D02*
X9167563Y-11139936D01*
X9167563Y-11139936D02*
X9158039Y-11120889D01*
X9158039Y-11120889D02*
X9148515Y-11082793D01*
X9148515Y-11082793D02*
X9148515Y-11035174D01*
X9148515Y-11035174D02*
X9158039Y-10997079D01*
X9158039Y-10997079D02*
X9167563Y-10978031D01*
X9167563Y-10978031D02*
X9177087Y-10968508D01*
X9177087Y-10968508D02*
X9196134Y-10958984D01*
X9348515Y-11139936D02*
X9358039Y-11149460D01*
X9358039Y-11149460D02*
X9348515Y-11158984D01*
X9348515Y-11158984D02*
X9338991Y-11149460D01*
X9338991Y-11149460D02*
X9348515Y-11139936D01*
X9348515Y-11139936D02*
X9348515Y-11158984D01*
X9481848Y-10958984D02*
X9500896Y-10958984D01*
X9500896Y-10958984D02*
X9519944Y-10968508D01*
X9519944Y-10968508D02*
X9529468Y-10978031D01*
X9529468Y-10978031D02*
X9538991Y-10997079D01*
X9538991Y-10997079D02*
X9548515Y-11035174D01*
X9548515Y-11035174D02*
X9548515Y-11082793D01*
X9548515Y-11082793D02*
X9538991Y-11120889D01*
X9538991Y-11120889D02*
X9529468Y-11139936D01*
X9529468Y-11139936D02*
X9519944Y-11149460D01*
X9519944Y-11149460D02*
X9500896Y-11158984D01*
X9500896Y-11158984D02*
X9481848Y-11158984D01*
X9481848Y-11158984D02*
X9462801Y-11149460D01*
X9462801Y-11149460D02*
X9453277Y-11139936D01*
X9453277Y-11139936D02*
X9443753Y-11120889D01*
X9443753Y-11120889D02*
X9434229Y-11082793D01*
X9434229Y-11082793D02*
X9434229Y-11035174D01*
X9434229Y-11035174D02*
X9443753Y-10997079D01*
X9443753Y-10997079D02*
X9453277Y-10978031D01*
X9453277Y-10978031D02*
X9462801Y-10968508D01*
X9462801Y-10968508D02*
X9481848Y-10958984D01*
X9615182Y-10958984D02*
X9738991Y-10958984D01*
X9738991Y-10958984D02*
X9672325Y-11035174D01*
X9672325Y-11035174D02*
X9700896Y-11035174D01*
X9700896Y-11035174D02*
X9719944Y-11044698D01*
X9719944Y-11044698D02*
X9729468Y-11054222D01*
X9729468Y-11054222D02*
X9738991Y-11073270D01*
X9738991Y-11073270D02*
X9738991Y-11120889D01*
X9738991Y-11120889D02*
X9729468Y-11139936D01*
X9729468Y-11139936D02*
X9719944Y-11149460D01*
X9719944Y-11149460D02*
X9700896Y-11158984D01*
X9700896Y-11158984D02*
X9643753Y-11158984D01*
X9643753Y-11158984D02*
X9624706Y-11149460D01*
X9624706Y-11149460D02*
X9615182Y-11139936D01*
X9929468Y-11158984D02*
X9815182Y-11158984D01*
X9872325Y-11158984D02*
X9872325Y-10958984D01*
X9872325Y-10958984D02*
X9853277Y-10987555D01*
X9853277Y-10987555D02*
X9834229Y-11006603D01*
X9834229Y-11006603D02*
X9815182Y-11016127D01*
X10110420Y-10958984D02*
X10015182Y-10958984D01*
X10015182Y-10958984D02*
X10005658Y-11054222D01*
X10005658Y-11054222D02*
X10015182Y-11044698D01*
X10015182Y-11044698D02*
X10034229Y-11035174D01*
X10034229Y-11035174D02*
X10081849Y-11035174D01*
X10081849Y-11035174D02*
X10100896Y-11044698D01*
X10100896Y-11044698D02*
X10110420Y-11054222D01*
X10110420Y-11054222D02*
X10119944Y-11073270D01*
X10119944Y-11073270D02*
X10119944Y-11120889D01*
X10119944Y-11120889D02*
X10110420Y-11139936D01*
X10110420Y-11139936D02*
X10100896Y-11149460D01*
X10100896Y-11149460D02*
X10081849Y-11158984D01*
X10081849Y-11158984D02*
X10034229Y-11158984D01*
X10034229Y-11158984D02*
X10015182Y-11149460D01*
X10015182Y-11149460D02*
X10005658Y-11139936D01*
X10196134Y-10958984D02*
X10196134Y-10997079D01*
X10272325Y-10958984D02*
X10272325Y-10997079D01*
X10567563Y-11235174D02*
X10558039Y-11225650D01*
X10558039Y-11225650D02*
X10538991Y-11197079D01*
X10538991Y-11197079D02*
X10529468Y-11178031D01*
X10529468Y-11178031D02*
X10519944Y-11149460D01*
X10519944Y-11149460D02*
X10510420Y-11101841D01*
X10510420Y-11101841D02*
X10510420Y-11063746D01*
X10510420Y-11063746D02*
X10519944Y-11016127D01*
X10519944Y-11016127D02*
X10529468Y-10987555D01*
X10529468Y-10987555D02*
X10538991Y-10968508D01*
X10538991Y-10968508D02*
X10558039Y-10939936D01*
X10558039Y-10939936D02*
X10567563Y-10930412D01*
X10634230Y-10978031D02*
X10643753Y-10968508D01*
X10643753Y-10968508D02*
X10662801Y-10958984D01*
X10662801Y-10958984D02*
X10710420Y-10958984D01*
X10710420Y-10958984D02*
X10729468Y-10968508D01*
X10729468Y-10968508D02*
X10738991Y-10978031D01*
X10738991Y-10978031D02*
X10748515Y-10997079D01*
X10748515Y-10997079D02*
X10748515Y-11016127D01*
X10748515Y-11016127D02*
X10738991Y-11044698D01*
X10738991Y-11044698D02*
X10624706Y-11158984D01*
X10624706Y-11158984D02*
X10748515Y-11158984D01*
X10986611Y-11158984D02*
X10986611Y-10958984D01*
X11072325Y-11158984D02*
X11072325Y-11054222D01*
X11072325Y-11054222D02*
X11062801Y-11035174D01*
X11062801Y-11035174D02*
X11043753Y-11025650D01*
X11043753Y-11025650D02*
X11015182Y-11025650D01*
X11015182Y-11025650D02*
X10996134Y-11035174D01*
X10996134Y-11035174D02*
X10986611Y-11044698D01*
X11196134Y-11158984D02*
X11177087Y-11149460D01*
X11177087Y-11149460D02*
X11167563Y-11139936D01*
X11167563Y-11139936D02*
X11158039Y-11120889D01*
X11158039Y-11120889D02*
X11158039Y-11063746D01*
X11158039Y-11063746D02*
X11167563Y-11044698D01*
X11167563Y-11044698D02*
X11177087Y-11035174D01*
X11177087Y-11035174D02*
X11196134Y-11025650D01*
X11196134Y-11025650D02*
X11224706Y-11025650D01*
X11224706Y-11025650D02*
X11243753Y-11035174D01*
X11243753Y-11035174D02*
X11253277Y-11044698D01*
X11253277Y-11044698D02*
X11262801Y-11063746D01*
X11262801Y-11063746D02*
X11262801Y-11120889D01*
X11262801Y-11120889D02*
X11253277Y-11139936D01*
X11253277Y-11139936D02*
X11243753Y-11149460D01*
X11243753Y-11149460D02*
X11224706Y-11158984D01*
X11224706Y-11158984D02*
X11196134Y-11158984D01*
X11377087Y-11158984D02*
X11358039Y-11149460D01*
X11358039Y-11149460D02*
X11348515Y-11130412D01*
X11348515Y-11130412D02*
X11348515Y-10958984D01*
X11529468Y-11149460D02*
X11510420Y-11158984D01*
X11510420Y-11158984D02*
X11472325Y-11158984D01*
X11472325Y-11158984D02*
X11453277Y-11149460D01*
X11453277Y-11149460D02*
X11443753Y-11130412D01*
X11443753Y-11130412D02*
X11443753Y-11054222D01*
X11443753Y-11054222D02*
X11453277Y-11035174D01*
X11453277Y-11035174D02*
X11472325Y-11025650D01*
X11472325Y-11025650D02*
X11510420Y-11025650D01*
X11510420Y-11025650D02*
X11529468Y-11035174D01*
X11529468Y-11035174D02*
X11538991Y-11054222D01*
X11538991Y-11054222D02*
X11538991Y-11073270D01*
X11538991Y-11073270D02*
X11443753Y-11092317D01*
X11615182Y-11149460D02*
X11634230Y-11158984D01*
X11634230Y-11158984D02*
X11672325Y-11158984D01*
X11672325Y-11158984D02*
X11691372Y-11149460D01*
X11691372Y-11149460D02*
X11700896Y-11130412D01*
X11700896Y-11130412D02*
X11700896Y-11120889D01*
X11700896Y-11120889D02*
X11691372Y-11101841D01*
X11691372Y-11101841D02*
X11672325Y-11092317D01*
X11672325Y-11092317D02*
X11643753Y-11092317D01*
X11643753Y-11092317D02*
X11624706Y-11082793D01*
X11624706Y-11082793D02*
X11615182Y-11063746D01*
X11615182Y-11063746D02*
X11615182Y-11054222D01*
X11615182Y-11054222D02*
X11624706Y-11035174D01*
X11624706Y-11035174D02*
X11643753Y-11025650D01*
X11643753Y-11025650D02*
X11672325Y-11025650D01*
X11672325Y-11025650D02*
X11691372Y-11035174D01*
X11938992Y-11082793D02*
X12091373Y-11082793D01*
X12015182Y-11158984D02*
X12015182Y-11006603D01*
X12424706Y-11025650D02*
X12424706Y-11158984D01*
X12377087Y-10949460D02*
X12329468Y-11092317D01*
X12329468Y-11092317D02*
X12453277Y-11092317D01*
X12672325Y-11149460D02*
X12691373Y-11158984D01*
X12691373Y-11158984D02*
X12729468Y-11158984D01*
X12729468Y-11158984D02*
X12748515Y-11149460D01*
X12748515Y-11149460D02*
X12758039Y-11130412D01*
X12758039Y-11130412D02*
X12758039Y-11120889D01*
X12758039Y-11120889D02*
X12748515Y-11101841D01*
X12748515Y-11101841D02*
X12729468Y-11092317D01*
X12729468Y-11092317D02*
X12700896Y-11092317D01*
X12700896Y-11092317D02*
X12681849Y-11082793D01*
X12681849Y-11082793D02*
X12672325Y-11063746D01*
X12672325Y-11063746D02*
X12672325Y-11054222D01*
X12672325Y-11054222D02*
X12681849Y-11035174D01*
X12681849Y-11035174D02*
X12700896Y-11025650D01*
X12700896Y-11025650D02*
X12729468Y-11025650D01*
X12729468Y-11025650D02*
X12748515Y-11035174D01*
X12872325Y-11158984D02*
X12853277Y-11149460D01*
X12853277Y-11149460D02*
X12843754Y-11130412D01*
X12843754Y-11130412D02*
X12843754Y-10958984D01*
X12977087Y-11158984D02*
X12958039Y-11149460D01*
X12958039Y-11149460D02*
X12948515Y-11139936D01*
X12948515Y-11139936D02*
X12938992Y-11120889D01*
X12938992Y-11120889D02*
X12938992Y-11063746D01*
X12938992Y-11063746D02*
X12948515Y-11044698D01*
X12948515Y-11044698D02*
X12958039Y-11035174D01*
X12958039Y-11035174D02*
X12977087Y-11025650D01*
X12977087Y-11025650D02*
X13005658Y-11025650D01*
X13005658Y-11025650D02*
X13024706Y-11035174D01*
X13024706Y-11035174D02*
X13034230Y-11044698D01*
X13034230Y-11044698D02*
X13043754Y-11063746D01*
X13043754Y-11063746D02*
X13043754Y-11120889D01*
X13043754Y-11120889D02*
X13034230Y-11139936D01*
X13034230Y-11139936D02*
X13024706Y-11149460D01*
X13024706Y-11149460D02*
X13005658Y-11158984D01*
X13005658Y-11158984D02*
X12977087Y-11158984D01*
X13100896Y-11025650D02*
X13177087Y-11025650D01*
X13129468Y-10958984D02*
X13129468Y-11130412D01*
X13129468Y-11130412D02*
X13138992Y-11149460D01*
X13138992Y-11149460D02*
X13158039Y-11158984D01*
X13158039Y-11158984D02*
X13177087Y-11158984D01*
X13234230Y-11149460D02*
X13253277Y-11158984D01*
X13253277Y-11158984D02*
X13291373Y-11158984D01*
X13291373Y-11158984D02*
X13310420Y-11149460D01*
X13310420Y-11149460D02*
X13319944Y-11130412D01*
X13319944Y-11130412D02*
X13319944Y-11120889D01*
X13319944Y-11120889D02*
X13310420Y-11101841D01*
X13310420Y-11101841D02*
X13291373Y-11092317D01*
X13291373Y-11092317D02*
X13262801Y-11092317D01*
X13262801Y-11092317D02*
X13243754Y-11082793D01*
X13243754Y-11082793D02*
X13234230Y-11063746D01*
X13234230Y-11063746D02*
X13234230Y-11054222D01*
X13234230Y-11054222D02*
X13243754Y-11035174D01*
X13243754Y-11035174D02*
X13262801Y-11025650D01*
X13262801Y-11025650D02*
X13291373Y-11025650D01*
X13291373Y-11025650D02*
X13310420Y-11035174D01*
X13386611Y-11235174D02*
X13396135Y-11225650D01*
X13396135Y-11225650D02*
X13415182Y-11197079D01*
X13415182Y-11197079D02*
X13424706Y-11178031D01*
X13424706Y-11178031D02*
X13434230Y-11149460D01*
X13434230Y-11149460D02*
X13443754Y-11101841D01*
X13443754Y-11101841D02*
X13443754Y-11063746D01*
X13443754Y-11063746D02*
X13434230Y-11016127D01*
X13434230Y-11016127D02*
X13424706Y-10987555D01*
X13424706Y-10987555D02*
X13415182Y-10968508D01*
X13415182Y-10968508D02*
X13396135Y-10939936D01*
X13396135Y-10939936D02*
X13386611Y-10930412D01*
D13*
X6882500Y-11276500D02*
X6992500Y-11386500D01*
X6992500Y-11276500D02*
X6882500Y-11386500D01*
X6937500Y-11276500D02*
X6937500Y-11386500D01*
X6882500Y-11331500D02*
X6992500Y-11331500D01*
D11*
X7358039Y-11422984D02*
X7243753Y-11422984D01*
X7300896Y-11422984D02*
X7300896Y-11222984D01*
X7300896Y-11222984D02*
X7281848Y-11251555D01*
X7281848Y-11251555D02*
X7262801Y-11270603D01*
X7262801Y-11270603D02*
X7243753Y-11280127D01*
X7443753Y-11403936D02*
X7453277Y-11413460D01*
X7453277Y-11413460D02*
X7443753Y-11422984D01*
X7443753Y-11422984D02*
X7434229Y-11413460D01*
X7434229Y-11413460D02*
X7443753Y-11403936D01*
X7443753Y-11403936D02*
X7443753Y-11422984D01*
X7643753Y-11422984D02*
X7529467Y-11422984D01*
X7586610Y-11422984D02*
X7586610Y-11222984D01*
X7586610Y-11222984D02*
X7567562Y-11251555D01*
X7567562Y-11251555D02*
X7548515Y-11270603D01*
X7548515Y-11270603D02*
X7529467Y-11280127D01*
X7767562Y-11222984D02*
X7786610Y-11222984D01*
X7786610Y-11222984D02*
X7805658Y-11232508D01*
X7805658Y-11232508D02*
X7815182Y-11242031D01*
X7815182Y-11242031D02*
X7824705Y-11261079D01*
X7824705Y-11261079D02*
X7834229Y-11299174D01*
X7834229Y-11299174D02*
X7834229Y-11346793D01*
X7834229Y-11346793D02*
X7824705Y-11384888D01*
X7824705Y-11384888D02*
X7815182Y-11403936D01*
X7815182Y-11403936D02*
X7805658Y-11413460D01*
X7805658Y-11413460D02*
X7786610Y-11422984D01*
X7786610Y-11422984D02*
X7767562Y-11422984D01*
X7767562Y-11422984D02*
X7748515Y-11413460D01*
X7748515Y-11413460D02*
X7738991Y-11403936D01*
X7738991Y-11403936D02*
X7729467Y-11384888D01*
X7729467Y-11384888D02*
X7719943Y-11346793D01*
X7719943Y-11346793D02*
X7719943Y-11299174D01*
X7719943Y-11299174D02*
X7729467Y-11261079D01*
X7729467Y-11261079D02*
X7738991Y-11242031D01*
X7738991Y-11242031D02*
X7748515Y-11232508D01*
X7748515Y-11232508D02*
X7767562Y-11222984D01*
X7958039Y-11222984D02*
X7977086Y-11222984D01*
X7977086Y-11222984D02*
X7996134Y-11232508D01*
X7996134Y-11232508D02*
X8005658Y-11242031D01*
X8005658Y-11242031D02*
X8015182Y-11261079D01*
X8015182Y-11261079D02*
X8024705Y-11299174D01*
X8024705Y-11299174D02*
X8024705Y-11346793D01*
X8024705Y-11346793D02*
X8015182Y-11384888D01*
X8015182Y-11384888D02*
X8005658Y-11403936D01*
X8005658Y-11403936D02*
X7996134Y-11413460D01*
X7996134Y-11413460D02*
X7977086Y-11422984D01*
X7977086Y-11422984D02*
X7958039Y-11422984D01*
X7958039Y-11422984D02*
X7938991Y-11413460D01*
X7938991Y-11413460D02*
X7929467Y-11403936D01*
X7929467Y-11403936D02*
X7919943Y-11384888D01*
X7919943Y-11384888D02*
X7910420Y-11346793D01*
X7910420Y-11346793D02*
X7910420Y-11299174D01*
X7910420Y-11299174D02*
X7919943Y-11261079D01*
X7919943Y-11261079D02*
X7929467Y-11242031D01*
X7929467Y-11242031D02*
X7938991Y-11232508D01*
X7938991Y-11232508D02*
X7958039Y-11222984D01*
X8110420Y-11422984D02*
X8110420Y-11289650D01*
X8110420Y-11308698D02*
X8119943Y-11299174D01*
X8119943Y-11299174D02*
X8138991Y-11289650D01*
X8138991Y-11289650D02*
X8167563Y-11289650D01*
X8167563Y-11289650D02*
X8186610Y-11299174D01*
X8186610Y-11299174D02*
X8196134Y-11318222D01*
X8196134Y-11318222D02*
X8196134Y-11422984D01*
X8196134Y-11318222D02*
X8205658Y-11299174D01*
X8205658Y-11299174D02*
X8224705Y-11289650D01*
X8224705Y-11289650D02*
X8253277Y-11289650D01*
X8253277Y-11289650D02*
X8272324Y-11299174D01*
X8272324Y-11299174D02*
X8281848Y-11318222D01*
X8281848Y-11318222D02*
X8281848Y-11422984D01*
X8377086Y-11422984D02*
X8377086Y-11289650D01*
X8377086Y-11308698D02*
X8386610Y-11299174D01*
X8386610Y-11299174D02*
X8405658Y-11289650D01*
X8405658Y-11289650D02*
X8434229Y-11289650D01*
X8434229Y-11289650D02*
X8453277Y-11299174D01*
X8453277Y-11299174D02*
X8462801Y-11318222D01*
X8462801Y-11318222D02*
X8462801Y-11422984D01*
X8462801Y-11318222D02*
X8472325Y-11299174D01*
X8472325Y-11299174D02*
X8491372Y-11289650D01*
X8491372Y-11289650D02*
X8519944Y-11289650D01*
X8519944Y-11289650D02*
X8538991Y-11299174D01*
X8538991Y-11299174D02*
X8548515Y-11318222D01*
X8548515Y-11318222D02*
X8548515Y-11422984D01*
X8938991Y-11213460D02*
X8767563Y-11470603D01*
X9196134Y-11222984D02*
X9215182Y-11222984D01*
X9215182Y-11222984D02*
X9234229Y-11232508D01*
X9234229Y-11232508D02*
X9243753Y-11242031D01*
X9243753Y-11242031D02*
X9253277Y-11261079D01*
X9253277Y-11261079D02*
X9262801Y-11299174D01*
X9262801Y-11299174D02*
X9262801Y-11346793D01*
X9262801Y-11346793D02*
X9253277Y-11384888D01*
X9253277Y-11384888D02*
X9243753Y-11403936D01*
X9243753Y-11403936D02*
X9234229Y-11413460D01*
X9234229Y-11413460D02*
X9215182Y-11422984D01*
X9215182Y-11422984D02*
X9196134Y-11422984D01*
X9196134Y-11422984D02*
X9177087Y-11413460D01*
X9177087Y-11413460D02*
X9167563Y-11403936D01*
X9167563Y-11403936D02*
X9158039Y-11384888D01*
X9158039Y-11384888D02*
X9148515Y-11346793D01*
X9148515Y-11346793D02*
X9148515Y-11299174D01*
X9148515Y-11299174D02*
X9158039Y-11261079D01*
X9158039Y-11261079D02*
X9167563Y-11242031D01*
X9167563Y-11242031D02*
X9177087Y-11232508D01*
X9177087Y-11232508D02*
X9196134Y-11222984D01*
X9348515Y-11403936D02*
X9358039Y-11413460D01*
X9358039Y-11413460D02*
X9348515Y-11422984D01*
X9348515Y-11422984D02*
X9338991Y-11413460D01*
X9338991Y-11413460D02*
X9348515Y-11403936D01*
X9348515Y-11403936D02*
X9348515Y-11422984D01*
X9481848Y-11222984D02*
X9500896Y-11222984D01*
X9500896Y-11222984D02*
X9519944Y-11232508D01*
X9519944Y-11232508D02*
X9529468Y-11242031D01*
X9529468Y-11242031D02*
X9538991Y-11261079D01*
X9538991Y-11261079D02*
X9548515Y-11299174D01*
X9548515Y-11299174D02*
X9548515Y-11346793D01*
X9548515Y-11346793D02*
X9538991Y-11384888D01*
X9538991Y-11384888D02*
X9529468Y-11403936D01*
X9529468Y-11403936D02*
X9519944Y-11413460D01*
X9519944Y-11413460D02*
X9500896Y-11422984D01*
X9500896Y-11422984D02*
X9481848Y-11422984D01*
X9481848Y-11422984D02*
X9462801Y-11413460D01*
X9462801Y-11413460D02*
X9453277Y-11403936D01*
X9453277Y-11403936D02*
X9443753Y-11384888D01*
X9443753Y-11384888D02*
X9434229Y-11346793D01*
X9434229Y-11346793D02*
X9434229Y-11299174D01*
X9434229Y-11299174D02*
X9443753Y-11261079D01*
X9443753Y-11261079D02*
X9453277Y-11242031D01*
X9453277Y-11242031D02*
X9462801Y-11232508D01*
X9462801Y-11232508D02*
X9481848Y-11222984D01*
X9719944Y-11289650D02*
X9719944Y-11422984D01*
X9672325Y-11213460D02*
X9624706Y-11356317D01*
X9624706Y-11356317D02*
X9748515Y-11356317D01*
X9805658Y-11222984D02*
X9929468Y-11222984D01*
X9929468Y-11222984D02*
X9862801Y-11299174D01*
X9862801Y-11299174D02*
X9891372Y-11299174D01*
X9891372Y-11299174D02*
X9910420Y-11308698D01*
X9910420Y-11308698D02*
X9919944Y-11318222D01*
X9919944Y-11318222D02*
X9929468Y-11337269D01*
X9929468Y-11337269D02*
X9929468Y-11384888D01*
X9929468Y-11384888D02*
X9919944Y-11403936D01*
X9919944Y-11403936D02*
X9910420Y-11413460D01*
X9910420Y-11413460D02*
X9891372Y-11422984D01*
X9891372Y-11422984D02*
X9834229Y-11422984D01*
X9834229Y-11422984D02*
X9815182Y-11413460D01*
X9815182Y-11413460D02*
X9805658Y-11403936D01*
X9996134Y-11222984D02*
X10119944Y-11222984D01*
X10119944Y-11222984D02*
X10053277Y-11299174D01*
X10053277Y-11299174D02*
X10081849Y-11299174D01*
X10081849Y-11299174D02*
X10100896Y-11308698D01*
X10100896Y-11308698D02*
X10110420Y-11318222D01*
X10110420Y-11318222D02*
X10119944Y-11337269D01*
X10119944Y-11337269D02*
X10119944Y-11384888D01*
X10119944Y-11384888D02*
X10110420Y-11403936D01*
X10110420Y-11403936D02*
X10100896Y-11413460D01*
X10100896Y-11413460D02*
X10081849Y-11422984D01*
X10081849Y-11422984D02*
X10024706Y-11422984D01*
X10024706Y-11422984D02*
X10005658Y-11413460D01*
X10005658Y-11413460D02*
X9996134Y-11403936D01*
X10196134Y-11222984D02*
X10196134Y-11261079D01*
X10272325Y-11222984D02*
X10272325Y-11261079D01*
X10567563Y-11499174D02*
X10558039Y-11489650D01*
X10558039Y-11489650D02*
X10538991Y-11461079D01*
X10538991Y-11461079D02*
X10529468Y-11442031D01*
X10529468Y-11442031D02*
X10519944Y-11413460D01*
X10519944Y-11413460D02*
X10510420Y-11365841D01*
X10510420Y-11365841D02*
X10510420Y-11327746D01*
X10510420Y-11327746D02*
X10519944Y-11280127D01*
X10519944Y-11280127D02*
X10529468Y-11251555D01*
X10529468Y-11251555D02*
X10538991Y-11232508D01*
X10538991Y-11232508D02*
X10558039Y-11203936D01*
X10558039Y-11203936D02*
X10567563Y-11194412D01*
X10729468Y-11222984D02*
X10691372Y-11222984D01*
X10691372Y-11222984D02*
X10672325Y-11232508D01*
X10672325Y-11232508D02*
X10662801Y-11242031D01*
X10662801Y-11242031D02*
X10643753Y-11270603D01*
X10643753Y-11270603D02*
X10634230Y-11308698D01*
X10634230Y-11308698D02*
X10634230Y-11384888D01*
X10634230Y-11384888D02*
X10643753Y-11403936D01*
X10643753Y-11403936D02*
X10653277Y-11413460D01*
X10653277Y-11413460D02*
X10672325Y-11422984D01*
X10672325Y-11422984D02*
X10710420Y-11422984D01*
X10710420Y-11422984D02*
X10729468Y-11413460D01*
X10729468Y-11413460D02*
X10738991Y-11403936D01*
X10738991Y-11403936D02*
X10748515Y-11384888D01*
X10748515Y-11384888D02*
X10748515Y-11337269D01*
X10748515Y-11337269D02*
X10738991Y-11318222D01*
X10738991Y-11318222D02*
X10729468Y-11308698D01*
X10729468Y-11308698D02*
X10710420Y-11299174D01*
X10710420Y-11299174D02*
X10672325Y-11299174D01*
X10672325Y-11299174D02*
X10653277Y-11308698D01*
X10653277Y-11308698D02*
X10643753Y-11318222D01*
X10643753Y-11318222D02*
X10634230Y-11337269D01*
X10986611Y-11422984D02*
X10986611Y-11222984D01*
X11072325Y-11422984D02*
X11072325Y-11318222D01*
X11072325Y-11318222D02*
X11062801Y-11299174D01*
X11062801Y-11299174D02*
X11043753Y-11289650D01*
X11043753Y-11289650D02*
X11015182Y-11289650D01*
X11015182Y-11289650D02*
X10996134Y-11299174D01*
X10996134Y-11299174D02*
X10986611Y-11308698D01*
X11196134Y-11422984D02*
X11177087Y-11413460D01*
X11177087Y-11413460D02*
X11167563Y-11403936D01*
X11167563Y-11403936D02*
X11158039Y-11384888D01*
X11158039Y-11384888D02*
X11158039Y-11327746D01*
X11158039Y-11327746D02*
X11167563Y-11308698D01*
X11167563Y-11308698D02*
X11177087Y-11299174D01*
X11177087Y-11299174D02*
X11196134Y-11289650D01*
X11196134Y-11289650D02*
X11224706Y-11289650D01*
X11224706Y-11289650D02*
X11243753Y-11299174D01*
X11243753Y-11299174D02*
X11253277Y-11308698D01*
X11253277Y-11308698D02*
X11262801Y-11327746D01*
X11262801Y-11327746D02*
X11262801Y-11384888D01*
X11262801Y-11384888D02*
X11253277Y-11403936D01*
X11253277Y-11403936D02*
X11243753Y-11413460D01*
X11243753Y-11413460D02*
X11224706Y-11422984D01*
X11224706Y-11422984D02*
X11196134Y-11422984D01*
X11377087Y-11422984D02*
X11358039Y-11413460D01*
X11358039Y-11413460D02*
X11348515Y-11394412D01*
X11348515Y-11394412D02*
X11348515Y-11222984D01*
X11529468Y-11413460D02*
X11510420Y-11422984D01*
X11510420Y-11422984D02*
X11472325Y-11422984D01*
X11472325Y-11422984D02*
X11453277Y-11413460D01*
X11453277Y-11413460D02*
X11443753Y-11394412D01*
X11443753Y-11394412D02*
X11443753Y-11318222D01*
X11443753Y-11318222D02*
X11453277Y-11299174D01*
X11453277Y-11299174D02*
X11472325Y-11289650D01*
X11472325Y-11289650D02*
X11510420Y-11289650D01*
X11510420Y-11289650D02*
X11529468Y-11299174D01*
X11529468Y-11299174D02*
X11538991Y-11318222D01*
X11538991Y-11318222D02*
X11538991Y-11337269D01*
X11538991Y-11337269D02*
X11443753Y-11356317D01*
X11615182Y-11413460D02*
X11634230Y-11422984D01*
X11634230Y-11422984D02*
X11672325Y-11422984D01*
X11672325Y-11422984D02*
X11691372Y-11413460D01*
X11691372Y-11413460D02*
X11700896Y-11394412D01*
X11700896Y-11394412D02*
X11700896Y-11384888D01*
X11700896Y-11384888D02*
X11691372Y-11365841D01*
X11691372Y-11365841D02*
X11672325Y-11356317D01*
X11672325Y-11356317D02*
X11643753Y-11356317D01*
X11643753Y-11356317D02*
X11624706Y-11346793D01*
X11624706Y-11346793D02*
X11615182Y-11327746D01*
X11615182Y-11327746D02*
X11615182Y-11318222D01*
X11615182Y-11318222D02*
X11624706Y-11299174D01*
X11624706Y-11299174D02*
X11643753Y-11289650D01*
X11643753Y-11289650D02*
X11672325Y-11289650D01*
X11672325Y-11289650D02*
X11691372Y-11299174D01*
X11767563Y-11499174D02*
X11777087Y-11489650D01*
X11777087Y-11489650D02*
X11796134Y-11461079D01*
X11796134Y-11461079D02*
X11805658Y-11442031D01*
X11805658Y-11442031D02*
X11815182Y-11413460D01*
X11815182Y-11413460D02*
X11824706Y-11365841D01*
X11824706Y-11365841D02*
X11824706Y-11327746D01*
X11824706Y-11327746D02*
X11815182Y-11280127D01*
X11815182Y-11280127D02*
X11805658Y-11251555D01*
X11805658Y-11251555D02*
X11796134Y-11232508D01*
X11796134Y-11232508D02*
X11777087Y-11203936D01*
X11777087Y-11203936D02*
X11767563Y-11194412D01*
D14*
X6872500Y-11535500D02*
X6992500Y-11655500D01*
X6992500Y-11535500D02*
X6872500Y-11655500D01*
X6974927Y-11637927D02*
X6974927Y-11553073D01*
X6890073Y-11553073D01*
X6890073Y-11637927D01*
X6974927Y-11637927D01*
D11*
X7358039Y-11686984D02*
X7243753Y-11686984D01*
X7300896Y-11686984D02*
X7300896Y-11486984D01*
X7300896Y-11486984D02*
X7281848Y-11515555D01*
X7281848Y-11515555D02*
X7262801Y-11534603D01*
X7262801Y-11534603D02*
X7243753Y-11544127D01*
X7443753Y-11667936D02*
X7453277Y-11677460D01*
X7453277Y-11677460D02*
X7443753Y-11686984D01*
X7443753Y-11686984D02*
X7434229Y-11677460D01*
X7434229Y-11677460D02*
X7443753Y-11667936D01*
X7443753Y-11667936D02*
X7443753Y-11686984D01*
X7529467Y-11506031D02*
X7538991Y-11496508D01*
X7538991Y-11496508D02*
X7558039Y-11486984D01*
X7558039Y-11486984D02*
X7605658Y-11486984D01*
X7605658Y-11486984D02*
X7624705Y-11496508D01*
X7624705Y-11496508D02*
X7634229Y-11506031D01*
X7634229Y-11506031D02*
X7643753Y-11525079D01*
X7643753Y-11525079D02*
X7643753Y-11544127D01*
X7643753Y-11544127D02*
X7634229Y-11572698D01*
X7634229Y-11572698D02*
X7519943Y-11686984D01*
X7519943Y-11686984D02*
X7643753Y-11686984D01*
X7767562Y-11486984D02*
X7786610Y-11486984D01*
X7786610Y-11486984D02*
X7805658Y-11496508D01*
X7805658Y-11496508D02*
X7815182Y-11506031D01*
X7815182Y-11506031D02*
X7824705Y-11525079D01*
X7824705Y-11525079D02*
X7834229Y-11563174D01*
X7834229Y-11563174D02*
X7834229Y-11610793D01*
X7834229Y-11610793D02*
X7824705Y-11648888D01*
X7824705Y-11648888D02*
X7815182Y-11667936D01*
X7815182Y-11667936D02*
X7805658Y-11677460D01*
X7805658Y-11677460D02*
X7786610Y-11686984D01*
X7786610Y-11686984D02*
X7767562Y-11686984D01*
X7767562Y-11686984D02*
X7748515Y-11677460D01*
X7748515Y-11677460D02*
X7738991Y-11667936D01*
X7738991Y-11667936D02*
X7729467Y-11648888D01*
X7729467Y-11648888D02*
X7719943Y-11610793D01*
X7719943Y-11610793D02*
X7719943Y-11563174D01*
X7719943Y-11563174D02*
X7729467Y-11525079D01*
X7729467Y-11525079D02*
X7738991Y-11506031D01*
X7738991Y-11506031D02*
X7748515Y-11496508D01*
X7748515Y-11496508D02*
X7767562Y-11486984D01*
X7958039Y-11486984D02*
X7977086Y-11486984D01*
X7977086Y-11486984D02*
X7996134Y-11496508D01*
X7996134Y-11496508D02*
X8005658Y-11506031D01*
X8005658Y-11506031D02*
X8015182Y-11525079D01*
X8015182Y-11525079D02*
X8024705Y-11563174D01*
X8024705Y-11563174D02*
X8024705Y-11610793D01*
X8024705Y-11610793D02*
X8015182Y-11648888D01*
X8015182Y-11648888D02*
X8005658Y-11667936D01*
X8005658Y-11667936D02*
X7996134Y-11677460D01*
X7996134Y-11677460D02*
X7977086Y-11686984D01*
X7977086Y-11686984D02*
X7958039Y-11686984D01*
X7958039Y-11686984D02*
X7938991Y-11677460D01*
X7938991Y-11677460D02*
X7929467Y-11667936D01*
X7929467Y-11667936D02*
X7919943Y-11648888D01*
X7919943Y-11648888D02*
X7910420Y-11610793D01*
X7910420Y-11610793D02*
X7910420Y-11563174D01*
X7910420Y-11563174D02*
X7919943Y-11525079D01*
X7919943Y-11525079D02*
X7929467Y-11506031D01*
X7929467Y-11506031D02*
X7938991Y-11496508D01*
X7938991Y-11496508D02*
X7958039Y-11486984D01*
X8110420Y-11686984D02*
X8110420Y-11553650D01*
X8110420Y-11572698D02*
X8119943Y-11563174D01*
X8119943Y-11563174D02*
X8138991Y-11553650D01*
X8138991Y-11553650D02*
X8167563Y-11553650D01*
X8167563Y-11553650D02*
X8186610Y-11563174D01*
X8186610Y-11563174D02*
X8196134Y-11582222D01*
X8196134Y-11582222D02*
X8196134Y-11686984D01*
X8196134Y-11582222D02*
X8205658Y-11563174D01*
X8205658Y-11563174D02*
X8224705Y-11553650D01*
X8224705Y-11553650D02*
X8253277Y-11553650D01*
X8253277Y-11553650D02*
X8272324Y-11563174D01*
X8272324Y-11563174D02*
X8281848Y-11582222D01*
X8281848Y-11582222D02*
X8281848Y-11686984D01*
X8377086Y-11686984D02*
X8377086Y-11553650D01*
X8377086Y-11572698D02*
X8386610Y-11563174D01*
X8386610Y-11563174D02*
X8405658Y-11553650D01*
X8405658Y-11553650D02*
X8434229Y-11553650D01*
X8434229Y-11553650D02*
X8453277Y-11563174D01*
X8453277Y-11563174D02*
X8462801Y-11582222D01*
X8462801Y-11582222D02*
X8462801Y-11686984D01*
X8462801Y-11582222D02*
X8472325Y-11563174D01*
X8472325Y-11563174D02*
X8491372Y-11553650D01*
X8491372Y-11553650D02*
X8519944Y-11553650D01*
X8519944Y-11553650D02*
X8538991Y-11563174D01*
X8538991Y-11563174D02*
X8548515Y-11582222D01*
X8548515Y-11582222D02*
X8548515Y-11686984D01*
X8938991Y-11477460D02*
X8767563Y-11734603D01*
X9196134Y-11486984D02*
X9215182Y-11486984D01*
X9215182Y-11486984D02*
X9234229Y-11496508D01*
X9234229Y-11496508D02*
X9243753Y-11506031D01*
X9243753Y-11506031D02*
X9253277Y-11525079D01*
X9253277Y-11525079D02*
X9262801Y-11563174D01*
X9262801Y-11563174D02*
X9262801Y-11610793D01*
X9262801Y-11610793D02*
X9253277Y-11648888D01*
X9253277Y-11648888D02*
X9243753Y-11667936D01*
X9243753Y-11667936D02*
X9234229Y-11677460D01*
X9234229Y-11677460D02*
X9215182Y-11686984D01*
X9215182Y-11686984D02*
X9196134Y-11686984D01*
X9196134Y-11686984D02*
X9177087Y-11677460D01*
X9177087Y-11677460D02*
X9167563Y-11667936D01*
X9167563Y-11667936D02*
X9158039Y-11648888D01*
X9158039Y-11648888D02*
X9148515Y-11610793D01*
X9148515Y-11610793D02*
X9148515Y-11563174D01*
X9148515Y-11563174D02*
X9158039Y-11525079D01*
X9158039Y-11525079D02*
X9167563Y-11506031D01*
X9167563Y-11506031D02*
X9177087Y-11496508D01*
X9177087Y-11496508D02*
X9196134Y-11486984D01*
X9348515Y-11667936D02*
X9358039Y-11677460D01*
X9358039Y-11677460D02*
X9348515Y-11686984D01*
X9348515Y-11686984D02*
X9338991Y-11677460D01*
X9338991Y-11677460D02*
X9348515Y-11667936D01*
X9348515Y-11667936D02*
X9348515Y-11686984D01*
X9481848Y-11486984D02*
X9500896Y-11486984D01*
X9500896Y-11486984D02*
X9519944Y-11496508D01*
X9519944Y-11496508D02*
X9529468Y-11506031D01*
X9529468Y-11506031D02*
X9538991Y-11525079D01*
X9538991Y-11525079D02*
X9548515Y-11563174D01*
X9548515Y-11563174D02*
X9548515Y-11610793D01*
X9548515Y-11610793D02*
X9538991Y-11648888D01*
X9538991Y-11648888D02*
X9529468Y-11667936D01*
X9529468Y-11667936D02*
X9519944Y-11677460D01*
X9519944Y-11677460D02*
X9500896Y-11686984D01*
X9500896Y-11686984D02*
X9481848Y-11686984D01*
X9481848Y-11686984D02*
X9462801Y-11677460D01*
X9462801Y-11677460D02*
X9453277Y-11667936D01*
X9453277Y-11667936D02*
X9443753Y-11648888D01*
X9443753Y-11648888D02*
X9434229Y-11610793D01*
X9434229Y-11610793D02*
X9434229Y-11563174D01*
X9434229Y-11563174D02*
X9443753Y-11525079D01*
X9443753Y-11525079D02*
X9453277Y-11506031D01*
X9453277Y-11506031D02*
X9462801Y-11496508D01*
X9462801Y-11496508D02*
X9481848Y-11486984D01*
X9719944Y-11553650D02*
X9719944Y-11686984D01*
X9672325Y-11477460D02*
X9624706Y-11620317D01*
X9624706Y-11620317D02*
X9748515Y-11620317D01*
X9805658Y-11486984D02*
X9938991Y-11486984D01*
X9938991Y-11486984D02*
X9853277Y-11686984D01*
X10005658Y-11506031D02*
X10015182Y-11496508D01*
X10015182Y-11496508D02*
X10034229Y-11486984D01*
X10034229Y-11486984D02*
X10081849Y-11486984D01*
X10081849Y-11486984D02*
X10100896Y-11496508D01*
X10100896Y-11496508D02*
X10110420Y-11506031D01*
X10110420Y-11506031D02*
X10119944Y-11525079D01*
X10119944Y-11525079D02*
X10119944Y-11544127D01*
X10119944Y-11544127D02*
X10110420Y-11572698D01*
X10110420Y-11572698D02*
X9996134Y-11686984D01*
X9996134Y-11686984D02*
X10119944Y-11686984D01*
X10196134Y-11486984D02*
X10196134Y-11525079D01*
X10272325Y-11486984D02*
X10272325Y-11525079D01*
X10567563Y-11763174D02*
X10558039Y-11753650D01*
X10558039Y-11753650D02*
X10538991Y-11725079D01*
X10538991Y-11725079D02*
X10529468Y-11706031D01*
X10529468Y-11706031D02*
X10519944Y-11677460D01*
X10519944Y-11677460D02*
X10510420Y-11629841D01*
X10510420Y-11629841D02*
X10510420Y-11591746D01*
X10510420Y-11591746D02*
X10519944Y-11544127D01*
X10519944Y-11544127D02*
X10529468Y-11515555D01*
X10529468Y-11515555D02*
X10538991Y-11496508D01*
X10538991Y-11496508D02*
X10558039Y-11467936D01*
X10558039Y-11467936D02*
X10567563Y-11458412D01*
X10624706Y-11486984D02*
X10748515Y-11486984D01*
X10748515Y-11486984D02*
X10681849Y-11563174D01*
X10681849Y-11563174D02*
X10710420Y-11563174D01*
X10710420Y-11563174D02*
X10729468Y-11572698D01*
X10729468Y-11572698D02*
X10738991Y-11582222D01*
X10738991Y-11582222D02*
X10748515Y-11601269D01*
X10748515Y-11601269D02*
X10748515Y-11648888D01*
X10748515Y-11648888D02*
X10738991Y-11667936D01*
X10738991Y-11667936D02*
X10729468Y-11677460D01*
X10729468Y-11677460D02*
X10710420Y-11686984D01*
X10710420Y-11686984D02*
X10653277Y-11686984D01*
X10653277Y-11686984D02*
X10634230Y-11677460D01*
X10634230Y-11677460D02*
X10624706Y-11667936D01*
X10986611Y-11686984D02*
X10986611Y-11486984D01*
X11072325Y-11686984D02*
X11072325Y-11582222D01*
X11072325Y-11582222D02*
X11062801Y-11563174D01*
X11062801Y-11563174D02*
X11043753Y-11553650D01*
X11043753Y-11553650D02*
X11015182Y-11553650D01*
X11015182Y-11553650D02*
X10996134Y-11563174D01*
X10996134Y-11563174D02*
X10986611Y-11572698D01*
X11196134Y-11686984D02*
X11177087Y-11677460D01*
X11177087Y-11677460D02*
X11167563Y-11667936D01*
X11167563Y-11667936D02*
X11158039Y-11648888D01*
X11158039Y-11648888D02*
X11158039Y-11591746D01*
X11158039Y-11591746D02*
X11167563Y-11572698D01*
X11167563Y-11572698D02*
X11177087Y-11563174D01*
X11177087Y-11563174D02*
X11196134Y-11553650D01*
X11196134Y-11553650D02*
X11224706Y-11553650D01*
X11224706Y-11553650D02*
X11243753Y-11563174D01*
X11243753Y-11563174D02*
X11253277Y-11572698D01*
X11253277Y-11572698D02*
X11262801Y-11591746D01*
X11262801Y-11591746D02*
X11262801Y-11648888D01*
X11262801Y-11648888D02*
X11253277Y-11667936D01*
X11253277Y-11667936D02*
X11243753Y-11677460D01*
X11243753Y-11677460D02*
X11224706Y-11686984D01*
X11224706Y-11686984D02*
X11196134Y-11686984D01*
X11377087Y-11686984D02*
X11358039Y-11677460D01*
X11358039Y-11677460D02*
X11348515Y-11658412D01*
X11348515Y-11658412D02*
X11348515Y-11486984D01*
X11529468Y-11677460D02*
X11510420Y-11686984D01*
X11510420Y-11686984D02*
X11472325Y-11686984D01*
X11472325Y-11686984D02*
X11453277Y-11677460D01*
X11453277Y-11677460D02*
X11443753Y-11658412D01*
X11443753Y-11658412D02*
X11443753Y-11582222D01*
X11443753Y-11582222D02*
X11453277Y-11563174D01*
X11453277Y-11563174D02*
X11472325Y-11553650D01*
X11472325Y-11553650D02*
X11510420Y-11553650D01*
X11510420Y-11553650D02*
X11529468Y-11563174D01*
X11529468Y-11563174D02*
X11538991Y-11582222D01*
X11538991Y-11582222D02*
X11538991Y-11601269D01*
X11538991Y-11601269D02*
X11443753Y-11620317D01*
X11615182Y-11677460D02*
X11634230Y-11686984D01*
X11634230Y-11686984D02*
X11672325Y-11686984D01*
X11672325Y-11686984D02*
X11691372Y-11677460D01*
X11691372Y-11677460D02*
X11700896Y-11658412D01*
X11700896Y-11658412D02*
X11700896Y-11648888D01*
X11700896Y-11648888D02*
X11691372Y-11629841D01*
X11691372Y-11629841D02*
X11672325Y-11620317D01*
X11672325Y-11620317D02*
X11643753Y-11620317D01*
X11643753Y-11620317D02*
X11624706Y-11610793D01*
X11624706Y-11610793D02*
X11615182Y-11591746D01*
X11615182Y-11591746D02*
X11615182Y-11582222D01*
X11615182Y-11582222D02*
X11624706Y-11563174D01*
X11624706Y-11563174D02*
X11643753Y-11553650D01*
X11643753Y-11553650D02*
X11672325Y-11553650D01*
X11672325Y-11553650D02*
X11691372Y-11563174D01*
X11767563Y-11763174D02*
X11777087Y-11753650D01*
X11777087Y-11753650D02*
X11796134Y-11725079D01*
X11796134Y-11725079D02*
X11805658Y-11706031D01*
X11805658Y-11706031D02*
X11815182Y-11677460D01*
X11815182Y-11677460D02*
X11824706Y-11629841D01*
X11824706Y-11629841D02*
X11824706Y-11591746D01*
X11824706Y-11591746D02*
X11815182Y-11544127D01*
X11815182Y-11544127D02*
X11805658Y-11515555D01*
X11805658Y-11515555D02*
X11796134Y-11496508D01*
X11796134Y-11496508D02*
X11777087Y-11467936D01*
X11777087Y-11467936D02*
X11767563Y-11458412D01*
D10*
X6842500Y-11784500D02*
X6992500Y-11934500D01*
X6992500Y-11784500D02*
X6842500Y-11934500D01*
X6917500Y-11934500D02*
X6992500Y-11859500D01*
X6917500Y-11784500D01*
X6842500Y-11859500D01*
X6917500Y-11934500D01*
D11*
X7358039Y-11950984D02*
X7243753Y-11950984D01*
X7300896Y-11950984D02*
X7300896Y-11750984D01*
X7300896Y-11750984D02*
X7281848Y-11779555D01*
X7281848Y-11779555D02*
X7262801Y-11798603D01*
X7262801Y-11798603D02*
X7243753Y-11808127D01*
X7443753Y-11931936D02*
X7453277Y-11941460D01*
X7453277Y-11941460D02*
X7443753Y-11950984D01*
X7443753Y-11950984D02*
X7434229Y-11941460D01*
X7434229Y-11941460D02*
X7443753Y-11931936D01*
X7443753Y-11931936D02*
X7443753Y-11950984D01*
X7634229Y-11750984D02*
X7538991Y-11750984D01*
X7538991Y-11750984D02*
X7529467Y-11846222D01*
X7529467Y-11846222D02*
X7538991Y-11836698D01*
X7538991Y-11836698D02*
X7558039Y-11827174D01*
X7558039Y-11827174D02*
X7605658Y-11827174D01*
X7605658Y-11827174D02*
X7624705Y-11836698D01*
X7624705Y-11836698D02*
X7634229Y-11846222D01*
X7634229Y-11846222D02*
X7643753Y-11865269D01*
X7643753Y-11865269D02*
X7643753Y-11912888D01*
X7643753Y-11912888D02*
X7634229Y-11931936D01*
X7634229Y-11931936D02*
X7624705Y-11941460D01*
X7624705Y-11941460D02*
X7605658Y-11950984D01*
X7605658Y-11950984D02*
X7558039Y-11950984D01*
X7558039Y-11950984D02*
X7538991Y-11941460D01*
X7538991Y-11941460D02*
X7529467Y-11931936D01*
X7767562Y-11750984D02*
X7786610Y-11750984D01*
X7786610Y-11750984D02*
X7805658Y-11760508D01*
X7805658Y-11760508D02*
X7815182Y-11770031D01*
X7815182Y-11770031D02*
X7824705Y-11789079D01*
X7824705Y-11789079D02*
X7834229Y-11827174D01*
X7834229Y-11827174D02*
X7834229Y-11874793D01*
X7834229Y-11874793D02*
X7824705Y-11912888D01*
X7824705Y-11912888D02*
X7815182Y-11931936D01*
X7815182Y-11931936D02*
X7805658Y-11941460D01*
X7805658Y-11941460D02*
X7786610Y-11950984D01*
X7786610Y-11950984D02*
X7767562Y-11950984D01*
X7767562Y-11950984D02*
X7748515Y-11941460D01*
X7748515Y-11941460D02*
X7738991Y-11931936D01*
X7738991Y-11931936D02*
X7729467Y-11912888D01*
X7729467Y-11912888D02*
X7719943Y-11874793D01*
X7719943Y-11874793D02*
X7719943Y-11827174D01*
X7719943Y-11827174D02*
X7729467Y-11789079D01*
X7729467Y-11789079D02*
X7738991Y-11770031D01*
X7738991Y-11770031D02*
X7748515Y-11760508D01*
X7748515Y-11760508D02*
X7767562Y-11750984D01*
X7958039Y-11750984D02*
X7977086Y-11750984D01*
X7977086Y-11750984D02*
X7996134Y-11760508D01*
X7996134Y-11760508D02*
X8005658Y-11770031D01*
X8005658Y-11770031D02*
X8015182Y-11789079D01*
X8015182Y-11789079D02*
X8024705Y-11827174D01*
X8024705Y-11827174D02*
X8024705Y-11874793D01*
X8024705Y-11874793D02*
X8015182Y-11912888D01*
X8015182Y-11912888D02*
X8005658Y-11931936D01*
X8005658Y-11931936D02*
X7996134Y-11941460D01*
X7996134Y-11941460D02*
X7977086Y-11950984D01*
X7977086Y-11950984D02*
X7958039Y-11950984D01*
X7958039Y-11950984D02*
X7938991Y-11941460D01*
X7938991Y-11941460D02*
X7929467Y-11931936D01*
X7929467Y-11931936D02*
X7919943Y-11912888D01*
X7919943Y-11912888D02*
X7910420Y-11874793D01*
X7910420Y-11874793D02*
X7910420Y-11827174D01*
X7910420Y-11827174D02*
X7919943Y-11789079D01*
X7919943Y-11789079D02*
X7929467Y-11770031D01*
X7929467Y-11770031D02*
X7938991Y-11760508D01*
X7938991Y-11760508D02*
X7958039Y-11750984D01*
X8110420Y-11950984D02*
X8110420Y-11817650D01*
X8110420Y-11836698D02*
X8119943Y-11827174D01*
X8119943Y-11827174D02*
X8138991Y-11817650D01*
X8138991Y-11817650D02*
X8167563Y-11817650D01*
X8167563Y-11817650D02*
X8186610Y-11827174D01*
X8186610Y-11827174D02*
X8196134Y-11846222D01*
X8196134Y-11846222D02*
X8196134Y-11950984D01*
X8196134Y-11846222D02*
X8205658Y-11827174D01*
X8205658Y-11827174D02*
X8224705Y-11817650D01*
X8224705Y-11817650D02*
X8253277Y-11817650D01*
X8253277Y-11817650D02*
X8272324Y-11827174D01*
X8272324Y-11827174D02*
X8281848Y-11846222D01*
X8281848Y-11846222D02*
X8281848Y-11950984D01*
X8377086Y-11950984D02*
X8377086Y-11817650D01*
X8377086Y-11836698D02*
X8386610Y-11827174D01*
X8386610Y-11827174D02*
X8405658Y-11817650D01*
X8405658Y-11817650D02*
X8434229Y-11817650D01*
X8434229Y-11817650D02*
X8453277Y-11827174D01*
X8453277Y-11827174D02*
X8462801Y-11846222D01*
X8462801Y-11846222D02*
X8462801Y-11950984D01*
X8462801Y-11846222D02*
X8472325Y-11827174D01*
X8472325Y-11827174D02*
X8491372Y-11817650D01*
X8491372Y-11817650D02*
X8519944Y-11817650D01*
X8519944Y-11817650D02*
X8538991Y-11827174D01*
X8538991Y-11827174D02*
X8548515Y-11846222D01*
X8548515Y-11846222D02*
X8548515Y-11950984D01*
X8938991Y-11741460D02*
X8767563Y-11998603D01*
X9196134Y-11750984D02*
X9215182Y-11750984D01*
X9215182Y-11750984D02*
X9234229Y-11760508D01*
X9234229Y-11760508D02*
X9243753Y-11770031D01*
X9243753Y-11770031D02*
X9253277Y-11789079D01*
X9253277Y-11789079D02*
X9262801Y-11827174D01*
X9262801Y-11827174D02*
X9262801Y-11874793D01*
X9262801Y-11874793D02*
X9253277Y-11912888D01*
X9253277Y-11912888D02*
X9243753Y-11931936D01*
X9243753Y-11931936D02*
X9234229Y-11941460D01*
X9234229Y-11941460D02*
X9215182Y-11950984D01*
X9215182Y-11950984D02*
X9196134Y-11950984D01*
X9196134Y-11950984D02*
X9177087Y-11941460D01*
X9177087Y-11941460D02*
X9167563Y-11931936D01*
X9167563Y-11931936D02*
X9158039Y-11912888D01*
X9158039Y-11912888D02*
X9148515Y-11874793D01*
X9148515Y-11874793D02*
X9148515Y-11827174D01*
X9148515Y-11827174D02*
X9158039Y-11789079D01*
X9158039Y-11789079D02*
X9167563Y-11770031D01*
X9167563Y-11770031D02*
X9177087Y-11760508D01*
X9177087Y-11760508D02*
X9196134Y-11750984D01*
X9348515Y-11931936D02*
X9358039Y-11941460D01*
X9358039Y-11941460D02*
X9348515Y-11950984D01*
X9348515Y-11950984D02*
X9338991Y-11941460D01*
X9338991Y-11941460D02*
X9348515Y-11931936D01*
X9348515Y-11931936D02*
X9348515Y-11950984D01*
X9481848Y-11750984D02*
X9500896Y-11750984D01*
X9500896Y-11750984D02*
X9519944Y-11760508D01*
X9519944Y-11760508D02*
X9529468Y-11770031D01*
X9529468Y-11770031D02*
X9538991Y-11789079D01*
X9538991Y-11789079D02*
X9548515Y-11827174D01*
X9548515Y-11827174D02*
X9548515Y-11874793D01*
X9548515Y-11874793D02*
X9538991Y-11912888D01*
X9538991Y-11912888D02*
X9529468Y-11931936D01*
X9529468Y-11931936D02*
X9519944Y-11941460D01*
X9519944Y-11941460D02*
X9500896Y-11950984D01*
X9500896Y-11950984D02*
X9481848Y-11950984D01*
X9481848Y-11950984D02*
X9462801Y-11941460D01*
X9462801Y-11941460D02*
X9453277Y-11931936D01*
X9453277Y-11931936D02*
X9443753Y-11912888D01*
X9443753Y-11912888D02*
X9434229Y-11874793D01*
X9434229Y-11874793D02*
X9434229Y-11827174D01*
X9434229Y-11827174D02*
X9443753Y-11789079D01*
X9443753Y-11789079D02*
X9453277Y-11770031D01*
X9453277Y-11770031D02*
X9462801Y-11760508D01*
X9462801Y-11760508D02*
X9481848Y-11750984D01*
X9729468Y-11750984D02*
X9634229Y-11750984D01*
X9634229Y-11750984D02*
X9624706Y-11846222D01*
X9624706Y-11846222D02*
X9634229Y-11836698D01*
X9634229Y-11836698D02*
X9653277Y-11827174D01*
X9653277Y-11827174D02*
X9700896Y-11827174D01*
X9700896Y-11827174D02*
X9719944Y-11836698D01*
X9719944Y-11836698D02*
X9729468Y-11846222D01*
X9729468Y-11846222D02*
X9738991Y-11865269D01*
X9738991Y-11865269D02*
X9738991Y-11912888D01*
X9738991Y-11912888D02*
X9729468Y-11931936D01*
X9729468Y-11931936D02*
X9719944Y-11941460D01*
X9719944Y-11941460D02*
X9700896Y-11950984D01*
X9700896Y-11950984D02*
X9653277Y-11950984D01*
X9653277Y-11950984D02*
X9634229Y-11941460D01*
X9634229Y-11941460D02*
X9624706Y-11931936D01*
X9834229Y-11950984D02*
X9872325Y-11950984D01*
X9872325Y-11950984D02*
X9891372Y-11941460D01*
X9891372Y-11941460D02*
X9900896Y-11931936D01*
X9900896Y-11931936D02*
X9919944Y-11903365D01*
X9919944Y-11903365D02*
X9929468Y-11865269D01*
X9929468Y-11865269D02*
X9929468Y-11789079D01*
X9929468Y-11789079D02*
X9919944Y-11770031D01*
X9919944Y-11770031D02*
X9910420Y-11760508D01*
X9910420Y-11760508D02*
X9891372Y-11750984D01*
X9891372Y-11750984D02*
X9853277Y-11750984D01*
X9853277Y-11750984D02*
X9834229Y-11760508D01*
X9834229Y-11760508D02*
X9824706Y-11770031D01*
X9824706Y-11770031D02*
X9815182Y-11789079D01*
X9815182Y-11789079D02*
X9815182Y-11836698D01*
X9815182Y-11836698D02*
X9824706Y-11855746D01*
X9824706Y-11855746D02*
X9834229Y-11865269D01*
X9834229Y-11865269D02*
X9853277Y-11874793D01*
X9853277Y-11874793D02*
X9891372Y-11874793D01*
X9891372Y-11874793D02*
X9910420Y-11865269D01*
X9910420Y-11865269D02*
X9919944Y-11855746D01*
X9919944Y-11855746D02*
X9929468Y-11836698D01*
X10119944Y-11950984D02*
X10005658Y-11950984D01*
X10062801Y-11950984D02*
X10062801Y-11750984D01*
X10062801Y-11750984D02*
X10043753Y-11779555D01*
X10043753Y-11779555D02*
X10024706Y-11798603D01*
X10024706Y-11798603D02*
X10005658Y-11808127D01*
X10196134Y-11750984D02*
X10196134Y-11789079D01*
X10272325Y-11750984D02*
X10272325Y-11789079D01*
X10567563Y-12027174D02*
X10558039Y-12017650D01*
X10558039Y-12017650D02*
X10538991Y-11989079D01*
X10538991Y-11989079D02*
X10529468Y-11970031D01*
X10529468Y-11970031D02*
X10519944Y-11941460D01*
X10519944Y-11941460D02*
X10510420Y-11893841D01*
X10510420Y-11893841D02*
X10510420Y-11855746D01*
X10510420Y-11855746D02*
X10519944Y-11808127D01*
X10519944Y-11808127D02*
X10529468Y-11779555D01*
X10529468Y-11779555D02*
X10538991Y-11760508D01*
X10538991Y-11760508D02*
X10558039Y-11731936D01*
X10558039Y-11731936D02*
X10567563Y-11722412D01*
X10729468Y-11817650D02*
X10729468Y-11950984D01*
X10681849Y-11741460D02*
X10634230Y-11884317D01*
X10634230Y-11884317D02*
X10758039Y-11884317D01*
X10986611Y-11950984D02*
X10986611Y-11750984D01*
X11072325Y-11950984D02*
X11072325Y-11846222D01*
X11072325Y-11846222D02*
X11062801Y-11827174D01*
X11062801Y-11827174D02*
X11043753Y-11817650D01*
X11043753Y-11817650D02*
X11015182Y-11817650D01*
X11015182Y-11817650D02*
X10996134Y-11827174D01*
X10996134Y-11827174D02*
X10986611Y-11836698D01*
X11196134Y-11950984D02*
X11177087Y-11941460D01*
X11177087Y-11941460D02*
X11167563Y-11931936D01*
X11167563Y-11931936D02*
X11158039Y-11912888D01*
X11158039Y-11912888D02*
X11158039Y-11855746D01*
X11158039Y-11855746D02*
X11167563Y-11836698D01*
X11167563Y-11836698D02*
X11177087Y-11827174D01*
X11177087Y-11827174D02*
X11196134Y-11817650D01*
X11196134Y-11817650D02*
X11224706Y-11817650D01*
X11224706Y-11817650D02*
X11243753Y-11827174D01*
X11243753Y-11827174D02*
X11253277Y-11836698D01*
X11253277Y-11836698D02*
X11262801Y-11855746D01*
X11262801Y-11855746D02*
X11262801Y-11912888D01*
X11262801Y-11912888D02*
X11253277Y-11931936D01*
X11253277Y-11931936D02*
X11243753Y-11941460D01*
X11243753Y-11941460D02*
X11224706Y-11950984D01*
X11224706Y-11950984D02*
X11196134Y-11950984D01*
X11377087Y-11950984D02*
X11358039Y-11941460D01*
X11358039Y-11941460D02*
X11348515Y-11922412D01*
X11348515Y-11922412D02*
X11348515Y-11750984D01*
X11529468Y-11941460D02*
X11510420Y-11950984D01*
X11510420Y-11950984D02*
X11472325Y-11950984D01*
X11472325Y-11950984D02*
X11453277Y-11941460D01*
X11453277Y-11941460D02*
X11443753Y-11922412D01*
X11443753Y-11922412D02*
X11443753Y-11846222D01*
X11443753Y-11846222D02*
X11453277Y-11827174D01*
X11453277Y-11827174D02*
X11472325Y-11817650D01*
X11472325Y-11817650D02*
X11510420Y-11817650D01*
X11510420Y-11817650D02*
X11529468Y-11827174D01*
X11529468Y-11827174D02*
X11538991Y-11846222D01*
X11538991Y-11846222D02*
X11538991Y-11865269D01*
X11538991Y-11865269D02*
X11443753Y-11884317D01*
X11615182Y-11941460D02*
X11634230Y-11950984D01*
X11634230Y-11950984D02*
X11672325Y-11950984D01*
X11672325Y-11950984D02*
X11691372Y-11941460D01*
X11691372Y-11941460D02*
X11700896Y-11922412D01*
X11700896Y-11922412D02*
X11700896Y-11912888D01*
X11700896Y-11912888D02*
X11691372Y-11893841D01*
X11691372Y-11893841D02*
X11672325Y-11884317D01*
X11672325Y-11884317D02*
X11643753Y-11884317D01*
X11643753Y-11884317D02*
X11624706Y-11874793D01*
X11624706Y-11874793D02*
X11615182Y-11855746D01*
X11615182Y-11855746D02*
X11615182Y-11846222D01*
X11615182Y-11846222D02*
X11624706Y-11827174D01*
X11624706Y-11827174D02*
X11643753Y-11817650D01*
X11643753Y-11817650D02*
X11672325Y-11817650D01*
X11672325Y-11817650D02*
X11691372Y-11827174D01*
X11767563Y-12027174D02*
X11777087Y-12017650D01*
X11777087Y-12017650D02*
X11796134Y-11989079D01*
X11796134Y-11989079D02*
X11805658Y-11970031D01*
X11805658Y-11970031D02*
X11815182Y-11941460D01*
X11815182Y-11941460D02*
X11824706Y-11893841D01*
X11824706Y-11893841D02*
X11824706Y-11855746D01*
X11824706Y-11855746D02*
X11815182Y-11808127D01*
X11815182Y-11808127D02*
X11805658Y-11779555D01*
X11805658Y-11779555D02*
X11796134Y-11760508D01*
X11796134Y-11760508D02*
X11777087Y-11731936D01*
X11777087Y-11731936D02*
X11767563Y-11722412D01*
X6892500Y-12029500D02*
X6892500Y-12229500D01*
X6792500Y-12129500D02*
X6992500Y-12129500D01*
X6992500Y-12129500D02*
G75*
G02*
X6792500Y-12129500I-100000J0D01*
G01*
X6792500Y-12129500D02*
G75*
G02*
X6992500Y-12129500I100000J0D01*
G01*
X7243753Y-12040031D02*
X7253277Y-12030508D01*
X7253277Y-12030508D02*
X7272324Y-12020984D01*
X7272324Y-12020984D02*
X7319943Y-12020984D01*
X7319943Y-12020984D02*
X7338991Y-12030508D01*
X7338991Y-12030508D02*
X7348515Y-12040031D01*
X7348515Y-12040031D02*
X7358039Y-12059079D01*
X7358039Y-12059079D02*
X7358039Y-12078127D01*
X7358039Y-12078127D02*
X7348515Y-12106698D01*
X7348515Y-12106698D02*
X7234229Y-12220984D01*
X7234229Y-12220984D02*
X7358039Y-12220984D01*
X7443753Y-12201936D02*
X7453277Y-12211460D01*
X7453277Y-12211460D02*
X7443753Y-12220984D01*
X7443753Y-12220984D02*
X7434229Y-12211460D01*
X7434229Y-12211460D02*
X7443753Y-12201936D01*
X7443753Y-12201936D02*
X7443753Y-12220984D01*
X7519943Y-12020984D02*
X7653277Y-12020984D01*
X7653277Y-12020984D02*
X7567562Y-12220984D01*
X7767562Y-12020984D02*
X7786610Y-12020984D01*
X7786610Y-12020984D02*
X7805658Y-12030508D01*
X7805658Y-12030508D02*
X7815182Y-12040031D01*
X7815182Y-12040031D02*
X7824705Y-12059079D01*
X7824705Y-12059079D02*
X7834229Y-12097174D01*
X7834229Y-12097174D02*
X7834229Y-12144793D01*
X7834229Y-12144793D02*
X7824705Y-12182888D01*
X7824705Y-12182888D02*
X7815182Y-12201936D01*
X7815182Y-12201936D02*
X7805658Y-12211460D01*
X7805658Y-12211460D02*
X7786610Y-12220984D01*
X7786610Y-12220984D02*
X7767562Y-12220984D01*
X7767562Y-12220984D02*
X7748515Y-12211460D01*
X7748515Y-12211460D02*
X7738991Y-12201936D01*
X7738991Y-12201936D02*
X7729467Y-12182888D01*
X7729467Y-12182888D02*
X7719943Y-12144793D01*
X7719943Y-12144793D02*
X7719943Y-12097174D01*
X7719943Y-12097174D02*
X7729467Y-12059079D01*
X7729467Y-12059079D02*
X7738991Y-12040031D01*
X7738991Y-12040031D02*
X7748515Y-12030508D01*
X7748515Y-12030508D02*
X7767562Y-12020984D01*
X7958039Y-12020984D02*
X7977086Y-12020984D01*
X7977086Y-12020984D02*
X7996134Y-12030508D01*
X7996134Y-12030508D02*
X8005658Y-12040031D01*
X8005658Y-12040031D02*
X8015182Y-12059079D01*
X8015182Y-12059079D02*
X8024705Y-12097174D01*
X8024705Y-12097174D02*
X8024705Y-12144793D01*
X8024705Y-12144793D02*
X8015182Y-12182888D01*
X8015182Y-12182888D02*
X8005658Y-12201936D01*
X8005658Y-12201936D02*
X7996134Y-12211460D01*
X7996134Y-12211460D02*
X7977086Y-12220984D01*
X7977086Y-12220984D02*
X7958039Y-12220984D01*
X7958039Y-12220984D02*
X7938991Y-12211460D01*
X7938991Y-12211460D02*
X7929467Y-12201936D01*
X7929467Y-12201936D02*
X7919943Y-12182888D01*
X7919943Y-12182888D02*
X7910420Y-12144793D01*
X7910420Y-12144793D02*
X7910420Y-12097174D01*
X7910420Y-12097174D02*
X7919943Y-12059079D01*
X7919943Y-12059079D02*
X7929467Y-12040031D01*
X7929467Y-12040031D02*
X7938991Y-12030508D01*
X7938991Y-12030508D02*
X7958039Y-12020984D01*
X8110420Y-12220984D02*
X8110420Y-12087650D01*
X8110420Y-12106698D02*
X8119943Y-12097174D01*
X8119943Y-12097174D02*
X8138991Y-12087650D01*
X8138991Y-12087650D02*
X8167563Y-12087650D01*
X8167563Y-12087650D02*
X8186610Y-12097174D01*
X8186610Y-12097174D02*
X8196134Y-12116222D01*
X8196134Y-12116222D02*
X8196134Y-12220984D01*
X8196134Y-12116222D02*
X8205658Y-12097174D01*
X8205658Y-12097174D02*
X8224705Y-12087650D01*
X8224705Y-12087650D02*
X8253277Y-12087650D01*
X8253277Y-12087650D02*
X8272324Y-12097174D01*
X8272324Y-12097174D02*
X8281848Y-12116222D01*
X8281848Y-12116222D02*
X8281848Y-12220984D01*
X8377086Y-12220984D02*
X8377086Y-12087650D01*
X8377086Y-12106698D02*
X8386610Y-12097174D01*
X8386610Y-12097174D02*
X8405658Y-12087650D01*
X8405658Y-12087650D02*
X8434229Y-12087650D01*
X8434229Y-12087650D02*
X8453277Y-12097174D01*
X8453277Y-12097174D02*
X8462801Y-12116222D01*
X8462801Y-12116222D02*
X8462801Y-12220984D01*
X8462801Y-12116222D02*
X8472325Y-12097174D01*
X8472325Y-12097174D02*
X8491372Y-12087650D01*
X8491372Y-12087650D02*
X8519944Y-12087650D01*
X8519944Y-12087650D02*
X8538991Y-12097174D01*
X8538991Y-12097174D02*
X8548515Y-12116222D01*
X8548515Y-12116222D02*
X8548515Y-12220984D01*
X8938991Y-12011460D02*
X8767563Y-12268603D01*
X9196134Y-12020984D02*
X9215182Y-12020984D01*
X9215182Y-12020984D02*
X9234229Y-12030508D01*
X9234229Y-12030508D02*
X9243753Y-12040031D01*
X9243753Y-12040031D02*
X9253277Y-12059079D01*
X9253277Y-12059079D02*
X9262801Y-12097174D01*
X9262801Y-12097174D02*
X9262801Y-12144793D01*
X9262801Y-12144793D02*
X9253277Y-12182888D01*
X9253277Y-12182888D02*
X9243753Y-12201936D01*
X9243753Y-12201936D02*
X9234229Y-12211460D01*
X9234229Y-12211460D02*
X9215182Y-12220984D01*
X9215182Y-12220984D02*
X9196134Y-12220984D01*
X9196134Y-12220984D02*
X9177087Y-12211460D01*
X9177087Y-12211460D02*
X9167563Y-12201936D01*
X9167563Y-12201936D02*
X9158039Y-12182888D01*
X9158039Y-12182888D02*
X9148515Y-12144793D01*
X9148515Y-12144793D02*
X9148515Y-12097174D01*
X9148515Y-12097174D02*
X9158039Y-12059079D01*
X9158039Y-12059079D02*
X9167563Y-12040031D01*
X9167563Y-12040031D02*
X9177087Y-12030508D01*
X9177087Y-12030508D02*
X9196134Y-12020984D01*
X9348515Y-12201936D02*
X9358039Y-12211460D01*
X9358039Y-12211460D02*
X9348515Y-12220984D01*
X9348515Y-12220984D02*
X9338991Y-12211460D01*
X9338991Y-12211460D02*
X9348515Y-12201936D01*
X9348515Y-12201936D02*
X9348515Y-12220984D01*
X9548515Y-12220984D02*
X9434229Y-12220984D01*
X9491372Y-12220984D02*
X9491372Y-12020984D01*
X9491372Y-12020984D02*
X9472325Y-12049555D01*
X9472325Y-12049555D02*
X9453277Y-12068603D01*
X9453277Y-12068603D02*
X9434229Y-12078127D01*
X9672325Y-12020984D02*
X9691372Y-12020984D01*
X9691372Y-12020984D02*
X9710420Y-12030508D01*
X9710420Y-12030508D02*
X9719944Y-12040031D01*
X9719944Y-12040031D02*
X9729468Y-12059079D01*
X9729468Y-12059079D02*
X9738991Y-12097174D01*
X9738991Y-12097174D02*
X9738991Y-12144793D01*
X9738991Y-12144793D02*
X9729468Y-12182888D01*
X9729468Y-12182888D02*
X9719944Y-12201936D01*
X9719944Y-12201936D02*
X9710420Y-12211460D01*
X9710420Y-12211460D02*
X9691372Y-12220984D01*
X9691372Y-12220984D02*
X9672325Y-12220984D01*
X9672325Y-12220984D02*
X9653277Y-12211460D01*
X9653277Y-12211460D02*
X9643753Y-12201936D01*
X9643753Y-12201936D02*
X9634229Y-12182888D01*
X9634229Y-12182888D02*
X9624706Y-12144793D01*
X9624706Y-12144793D02*
X9624706Y-12097174D01*
X9624706Y-12097174D02*
X9634229Y-12059079D01*
X9634229Y-12059079D02*
X9643753Y-12040031D01*
X9643753Y-12040031D02*
X9653277Y-12030508D01*
X9653277Y-12030508D02*
X9672325Y-12020984D01*
X9910420Y-12020984D02*
X9872325Y-12020984D01*
X9872325Y-12020984D02*
X9853277Y-12030508D01*
X9853277Y-12030508D02*
X9843753Y-12040031D01*
X9843753Y-12040031D02*
X9824706Y-12068603D01*
X9824706Y-12068603D02*
X9815182Y-12106698D01*
X9815182Y-12106698D02*
X9815182Y-12182888D01*
X9815182Y-12182888D02*
X9824706Y-12201936D01*
X9824706Y-12201936D02*
X9834229Y-12211460D01*
X9834229Y-12211460D02*
X9853277Y-12220984D01*
X9853277Y-12220984D02*
X9891372Y-12220984D01*
X9891372Y-12220984D02*
X9910420Y-12211460D01*
X9910420Y-12211460D02*
X9919944Y-12201936D01*
X9919944Y-12201936D02*
X9929468Y-12182888D01*
X9929468Y-12182888D02*
X9929468Y-12135269D01*
X9929468Y-12135269D02*
X9919944Y-12116222D01*
X9919944Y-12116222D02*
X9910420Y-12106698D01*
X9910420Y-12106698D02*
X9891372Y-12097174D01*
X9891372Y-12097174D02*
X9853277Y-12097174D01*
X9853277Y-12097174D02*
X9834229Y-12106698D01*
X9834229Y-12106698D02*
X9824706Y-12116222D01*
X9824706Y-12116222D02*
X9815182Y-12135269D01*
X9996134Y-12020984D02*
X10119944Y-12020984D01*
X10119944Y-12020984D02*
X10053277Y-12097174D01*
X10053277Y-12097174D02*
X10081849Y-12097174D01*
X10081849Y-12097174D02*
X10100896Y-12106698D01*
X10100896Y-12106698D02*
X10110420Y-12116222D01*
X10110420Y-12116222D02*
X10119944Y-12135269D01*
X10119944Y-12135269D02*
X10119944Y-12182888D01*
X10119944Y-12182888D02*
X10110420Y-12201936D01*
X10110420Y-12201936D02*
X10100896Y-12211460D01*
X10100896Y-12211460D02*
X10081849Y-12220984D01*
X10081849Y-12220984D02*
X10024706Y-12220984D01*
X10024706Y-12220984D02*
X10005658Y-12211460D01*
X10005658Y-12211460D02*
X9996134Y-12201936D01*
X10196134Y-12020984D02*
X10196134Y-12059079D01*
X10272325Y-12020984D02*
X10272325Y-12059079D01*
X10567563Y-12297174D02*
X10558039Y-12287650D01*
X10558039Y-12287650D02*
X10538991Y-12259079D01*
X10538991Y-12259079D02*
X10529468Y-12240031D01*
X10529468Y-12240031D02*
X10519944Y-12211460D01*
X10519944Y-12211460D02*
X10510420Y-12163841D01*
X10510420Y-12163841D02*
X10510420Y-12125746D01*
X10510420Y-12125746D02*
X10519944Y-12078127D01*
X10519944Y-12078127D02*
X10529468Y-12049555D01*
X10529468Y-12049555D02*
X10538991Y-12030508D01*
X10538991Y-12030508D02*
X10558039Y-12001936D01*
X10558039Y-12001936D02*
X10567563Y-11992412D01*
X10729468Y-12087650D02*
X10729468Y-12220984D01*
X10681849Y-12011460D02*
X10634230Y-12154317D01*
X10634230Y-12154317D02*
X10758039Y-12154317D01*
X10986611Y-12220984D02*
X10986611Y-12020984D01*
X11072325Y-12220984D02*
X11072325Y-12116222D01*
X11072325Y-12116222D02*
X11062801Y-12097174D01*
X11062801Y-12097174D02*
X11043753Y-12087650D01*
X11043753Y-12087650D02*
X11015182Y-12087650D01*
X11015182Y-12087650D02*
X10996134Y-12097174D01*
X10996134Y-12097174D02*
X10986611Y-12106698D01*
X11196134Y-12220984D02*
X11177087Y-12211460D01*
X11177087Y-12211460D02*
X11167563Y-12201936D01*
X11167563Y-12201936D02*
X11158039Y-12182888D01*
X11158039Y-12182888D02*
X11158039Y-12125746D01*
X11158039Y-12125746D02*
X11167563Y-12106698D01*
X11167563Y-12106698D02*
X11177087Y-12097174D01*
X11177087Y-12097174D02*
X11196134Y-12087650D01*
X11196134Y-12087650D02*
X11224706Y-12087650D01*
X11224706Y-12087650D02*
X11243753Y-12097174D01*
X11243753Y-12097174D02*
X11253277Y-12106698D01*
X11253277Y-12106698D02*
X11262801Y-12125746D01*
X11262801Y-12125746D02*
X11262801Y-12182888D01*
X11262801Y-12182888D02*
X11253277Y-12201936D01*
X11253277Y-12201936D02*
X11243753Y-12211460D01*
X11243753Y-12211460D02*
X11224706Y-12220984D01*
X11224706Y-12220984D02*
X11196134Y-12220984D01*
X11377087Y-12220984D02*
X11358039Y-12211460D01*
X11358039Y-12211460D02*
X11348515Y-12192412D01*
X11348515Y-12192412D02*
X11348515Y-12020984D01*
X11529468Y-12211460D02*
X11510420Y-12220984D01*
X11510420Y-12220984D02*
X11472325Y-12220984D01*
X11472325Y-12220984D02*
X11453277Y-12211460D01*
X11453277Y-12211460D02*
X11443753Y-12192412D01*
X11443753Y-12192412D02*
X11443753Y-12116222D01*
X11443753Y-12116222D02*
X11453277Y-12097174D01*
X11453277Y-12097174D02*
X11472325Y-12087650D01*
X11472325Y-12087650D02*
X11510420Y-12087650D01*
X11510420Y-12087650D02*
X11529468Y-12097174D01*
X11529468Y-12097174D02*
X11538991Y-12116222D01*
X11538991Y-12116222D02*
X11538991Y-12135269D01*
X11538991Y-12135269D02*
X11443753Y-12154317D01*
X11615182Y-12211460D02*
X11634230Y-12220984D01*
X11634230Y-12220984D02*
X11672325Y-12220984D01*
X11672325Y-12220984D02*
X11691372Y-12211460D01*
X11691372Y-12211460D02*
X11700896Y-12192412D01*
X11700896Y-12192412D02*
X11700896Y-12182888D01*
X11700896Y-12182888D02*
X11691372Y-12163841D01*
X11691372Y-12163841D02*
X11672325Y-12154317D01*
X11672325Y-12154317D02*
X11643753Y-12154317D01*
X11643753Y-12154317D02*
X11624706Y-12144793D01*
X11624706Y-12144793D02*
X11615182Y-12125746D01*
X11615182Y-12125746D02*
X11615182Y-12116222D01*
X11615182Y-12116222D02*
X11624706Y-12097174D01*
X11624706Y-12097174D02*
X11643753Y-12087650D01*
X11643753Y-12087650D02*
X11672325Y-12087650D01*
X11672325Y-12087650D02*
X11691372Y-12097174D01*
X11767563Y-12297174D02*
X11777087Y-12287650D01*
X11777087Y-12287650D02*
X11796134Y-12259079D01*
X11796134Y-12259079D02*
X11805658Y-12240031D01*
X11805658Y-12240031D02*
X11815182Y-12211460D01*
X11815182Y-12211460D02*
X11824706Y-12163841D01*
X11824706Y-12163841D02*
X11824706Y-12125746D01*
X11824706Y-12125746D02*
X11815182Y-12078127D01*
X11815182Y-12078127D02*
X11805658Y-12049555D01*
X11805658Y-12049555D02*
X11796134Y-12030508D01*
X11796134Y-12030508D02*
X11777087Y-12001936D01*
X11777087Y-12001936D02*
X11767563Y-11992412D01*
M02*
