%TF.GenerationSoftware,KiCad,Pcbnew,9.0.6*%
%TF.CreationDate,2025-12-01T18:27:25-05:00*%
%TF.ProjectId,cablight-project,6361626c-6967-4687-942d-70726f6a6563,rev?*%
%TF.SameCoordinates,Original*%
%TF.FileFunction,Copper,L3,Inr*%
%TF.FilePolarity,Positive*%
%FSLAX46Y46*%
G04 Gerber Fmt 4.6, Leading zero omitted, Abs format (unit mm)*
G04 Created by KiCad (PCBNEW 9.0.6) date 2025-12-01 18:27:25*
%MOMM*%
%LPD*%
G01*
G04 APERTURE LIST*
%TA.AperFunction,ComponentPad*%
%ADD10C,3.100000*%
%TD*%
%TA.AperFunction,ComponentPad*%
%ADD11O,2.200000X2.200000*%
%TD*%
%TA.AperFunction,ComponentPad*%
%ADD12R,2.200000X2.200000*%
%TD*%
%TA.AperFunction,ComponentPad*%
%ADD13C,1.000000*%
%TD*%
%TA.AperFunction,ComponentPad*%
%ADD14R,1.400000X1.400000*%
%TD*%
%TA.AperFunction,ComponentPad*%
%ADD15C,1.400000*%
%TD*%
%TA.AperFunction,ComponentPad*%
%ADD16O,1.500000X2.000000*%
%TD*%
%TA.AperFunction,ComponentPad*%
%ADD17O,2.000000X1.500000*%
%TD*%
%TA.AperFunction,ComponentPad*%
%ADD18O,1.100000X1.600000*%
%TD*%
%TA.AperFunction,ComponentPad*%
%ADD19C,1.600000*%
%TD*%
%TA.AperFunction,ComponentPad*%
%ADD20R,2.000000X1.900000*%
%TD*%
%TA.AperFunction,ComponentPad*%
%ADD21O,2.500000X1.900000*%
%TD*%
%TA.AperFunction,ComponentPad*%
%ADD22R,1.700000X1.700000*%
%TD*%
%TA.AperFunction,ComponentPad*%
%ADD23C,1.700000*%
%TD*%
%TA.AperFunction,ComponentPad*%
%ADD24C,3.600000*%
%TD*%
%TA.AperFunction,ComponentPad*%
%ADD25R,3.000000X3.000000*%
%TD*%
%TA.AperFunction,ComponentPad*%
%ADD26C,3.000000*%
%TD*%
%TA.AperFunction,ViaPad*%
%ADD27C,0.600000*%
%TD*%
%TA.AperFunction,ViaPad*%
%ADD28C,0.500000*%
%TD*%
%TA.AperFunction,ViaPad*%
%ADD29C,1.000000*%
%TD*%
%TA.AperFunction,Conductor*%
%ADD30C,0.800000*%
%TD*%
%TA.AperFunction,Profile*%
%ADD31C,0.150000*%
%TD*%
G04 APERTURE END LIST*
D10*
%TO.N,N/C*%
%TO.C,M2.5*%
X-24400000Y-3400000D03*
%TD*%
D11*
%TO.N,/VBUS*%
%TO.C,D2*%
X-30200000Y-2500000D03*
D12*
%TO.N,5V*%
X-32740000Y-2500000D03*
%TD*%
%TO.N,24VDC*%
%TO.C,D10*%
X-66090000Y-23740000D03*
D11*
%TO.N,Net-(D10-A)*%
X-66090000Y-21200000D03*
%TD*%
D13*
%TO.N,GND*%
%TO.C,TP2*%
X-36150000Y-5100000D03*
%TD*%
D14*
%TO.N,3.3V*%
%TO.C,RCWL-1601*%
X-24000000Y-17050000D03*
D15*
%TO.N,TRIG*%
X-24020000Y-19050000D03*
%TO.N,ECHO*%
X-24000000Y-21050000D03*
%TO.N,GND*%
X-24000000Y-23050000D03*
%TD*%
D16*
%TO.N,BTN*%
%TO.C,BTN1*%
X-89790000Y-9500000D03*
%TO.N,GND*%
X-89790000Y-14000000D03*
D17*
X-87290000Y-8250000D03*
X-87290000Y-15250000D03*
%TD*%
D10*
%TO.N,N/C*%
%TO.C,M2.5*%
X-83700000Y-36350000D03*
%TD*%
D18*
%TO.N,GND*%
%TO.C,USBC-V1*%
X-31960000Y-14350000D03*
X-34820000Y-14350000D03*
X-31960000Y-22350000D03*
X-34820000Y-22350000D03*
%TD*%
D19*
%TO.N,LEDSIG*%
%TO.C,DIP1*%
X-39240000Y-37720000D03*
%TO.N,GND*%
X-36700000Y-37720000D03*
X-34160000Y-37720000D03*
X-31620000Y-37720000D03*
%TO.N,DIP3*%
X-31620000Y-30200000D03*
%TO.N,DIP2*%
X-34160000Y-30200000D03*
%TO.N,DIP1*%
X-36700000Y-30200000D03*
%TO.N,3.3V*%
X-39240000Y-30200000D03*
%TD*%
D10*
%TO.N,N/C*%
%TO.C,M2.5*%
X-82650000Y-3200000D03*
%TD*%
D20*
%TO.N,Net-(Q1-G)*%
%TO.C,Q1*%
X-64350000Y-31460000D03*
D21*
%TO.N,/LED-*%
X-64350000Y-34000000D03*
%TO.N,GND*%
X-64350000Y-36540000D03*
%TD*%
D10*
%TO.N,N/C*%
%TO.C,M2.5*%
X-24400000Y-29700000D03*
%TD*%
D12*
%TO.N,Net-(D1-K)*%
%TO.C,D1*%
X-69850000Y-21200000D03*
D11*
%TO.N,24VDC*%
X-69850000Y-23740000D03*
%TD*%
D22*
%TO.N,Net-(D1-K)*%
%TO.C,SW3*%
X-82650000Y-12800000D03*
D23*
%TO.N,5V*%
X-82650000Y-10260000D03*
%TD*%
D24*
%TO.N,N/C*%
%TO.C,REF\u002A\u002A*%
X-47050000Y-34000000D03*
%TD*%
D25*
%TO.N,GND*%
%TO.C,J3*%
X-74650000Y-20200000D03*
D26*
%TO.N,24VDC*%
X-74650000Y-25200000D03*
%TO.N,/LED+*%
X-74650000Y-30200000D03*
%TO.N,/LED-*%
X-74650000Y-35200000D03*
%TD*%
D13*
%TO.N,3.3V*%
%TO.C,TP1*%
X-61850000Y-5000000D03*
%TD*%
D27*
%TO.N,GND*%
X-58750000Y-2700000D03*
X-58350000Y-800000D03*
X-65850000Y-4800000D03*
X-51200000Y-33350000D03*
X-43100000Y-34250000D03*
X-48300000Y-30500000D03*
X-53950000Y-32800000D03*
X-50300000Y-37100000D03*
X-80100000Y-13700000D03*
X-64550000Y-18950000D03*
X-46350000Y-22150000D03*
X-38900000Y-18900000D03*
X-70050000Y-3350000D03*
%TO.N,DIP3*%
X-43350000Y-20500000D03*
%TO.N,GND*%
X-31750000Y-5100000D03*
X-57750000Y-37250000D03*
X-61600000Y-32650000D03*
X-60200000Y-30350000D03*
%TO.N,3.3V*%
X-52450000Y-28700000D03*
%TO.N,GND*%
X-51150000Y-21050000D03*
X-50950000Y-29650000D03*
X-44500000Y-31100000D03*
X-48500000Y-20600000D03*
%TO.N,BTN*%
X-54800000Y-3500000D03*
%TO.N,GND*%
X-38600000Y-23400000D03*
X-50300000Y-13600000D03*
X-69350000Y-8400000D03*
X-48900000Y-13600000D03*
X-68400000Y-17700000D03*
X-51750000Y-13600000D03*
X-44850000Y-37450000D03*
X-51700000Y-9450000D03*
X-62250000Y-8650000D03*
X-48900000Y-12250000D03*
X-47500000Y-9450000D03*
X-64700000Y-29100000D03*
X-51750000Y-10850000D03*
X-27750000Y-1650000D03*
X-50300000Y-12250000D03*
X-80100000Y-9750000D03*
X-47500000Y-12250000D03*
X-57400000Y-4550000D03*
X-42700000Y-15450000D03*
X-47500000Y-10850000D03*
X-50300000Y-10850000D03*
D28*
X-37850000Y-21400000D03*
D27*
X-73440000Y-14400000D03*
X-47500000Y-13600000D03*
X-56950000Y-10200000D03*
X-48900000Y-9450000D03*
X-48900000Y-10850000D03*
X-48850000Y-4900000D03*
X-27750000Y-4800000D03*
X-52950000Y-34450000D03*
X-54050000Y-21700000D03*
X-79900000Y-27250000D03*
X-43150000Y-6500000D03*
X-62850000Y-3650000D03*
X-76650000Y-1450000D03*
X-73440000Y-9000000D03*
X-51700000Y-12250000D03*
X-54300000Y-8200000D03*
X-55250000Y-29500000D03*
X-49550000Y-16500000D03*
X-50300000Y-9450000D03*
%TO.N,Net-(U3-GPIO0{slash}BOOT)*%
X-42250000Y-4000000D03*
X-46550000Y-23650000D03*
%TO.N,5V*%
X-76950000Y-3875000D03*
%TO.N,3.3V*%
X-50650000Y-5800000D03*
D29*
X-60050000Y-5800000D03*
D27*
X-43650000Y-28700000D03*
%TO.N,PG*%
X-70150000Y-6600000D03*
X-54750000Y-17100000D03*
X-50450000Y-24500000D03*
%TO.N,Net-(LED-OK1-K)*%
X-63550000Y-27800000D03*
%TO.N,Net-(LED-W1-A)*%
X-63550000Y-23100000D03*
%TO.N,Net-(USBC-V1-SBU2)*%
X-36456331Y-17749000D03*
%TO.N,Net-(USBC-V1-SBU1)*%
X-30370500Y-18950000D03*
%TO.N,/LED+*%
X-67400000Y-31750000D03*
X-67400000Y-29500000D03*
X-71400000Y-31700000D03*
X-71550000Y-29800000D03*
%TO.N,LEDSIG*%
X-49700000Y-20300000D03*
D28*
%TO.N,D-*%
X-33770500Y-18102308D03*
X-33070000Y-19205116D03*
D27*
%TO.N,24VDC*%
X-67200000Y-27700000D03*
X-66750000Y-26150000D03*
X-68550000Y-25900000D03*
X-71150000Y-26850000D03*
%TO.N,Net-(T1-BOOT)*%
X-78250000Y-9900000D03*
X-75790000Y-4775000D03*
%TO.N,Net-(T1-FB)*%
X-69890000Y-5175000D03*
X-68790000Y-4075000D03*
%TO.N,Net-(USBC-V1-CC2)*%
X-36450000Y-18950000D03*
%TO.N,Net-(USBC-V1-CC1)*%
X-30320500Y-17955116D03*
%TO.N,Net-(T1-EN)*%
X-76750000Y-7875000D03*
X-71090000Y-7875000D03*
%TO.N,ECHO*%
X-33400000Y-8200000D03*
%TO.N,TRIG*%
X-33372500Y-6827500D03*
%TO.N,DIP1*%
X-45850000Y-20500000D03*
%TO.N,DIP2*%
X-44550000Y-20500000D03*
%TD*%
D30*
%TO.N,5V*%
X-76525000Y-3875000D02*
X-74350000Y-1700000D01*
X-76950000Y-3875000D02*
X-76525000Y-3875000D01*
X-33540000Y-1700000D02*
X-32740000Y-2500000D01*
X-74350000Y-1700000D02*
X-33540000Y-1700000D01*
%TO.N,3.3V*%
X-60050000Y-5800000D02*
X-50650000Y-5800000D01*
%TD*%
%TA.AperFunction,Conductor*%
%TO.N,GND*%
G36*
X-21993077Y-501280D02*
G01*
X-21979223Y-502840D01*
X-21902729Y-511459D01*
X-21875668Y-517635D01*
X-21796457Y-545353D01*
X-21771453Y-557393D01*
X-21700389Y-602046D01*
X-21678690Y-619351D01*
X-21619351Y-678690D01*
X-21602046Y-700389D01*
X-21557393Y-771453D01*
X-21545353Y-796457D01*
X-21517635Y-875668D01*
X-21511459Y-902729D01*
X-21502840Y-979223D01*
X-21501280Y-993077D01*
X-21500500Y-1006959D01*
X-21500500Y-5743040D01*
X-21501280Y-5756922D01*
X-21502724Y-5769737D01*
X-21509958Y-5833954D01*
X-21511458Y-5847264D01*
X-21517636Y-5874333D01*
X-21545351Y-5953539D01*
X-21557395Y-5978549D01*
X-21591924Y-6033501D01*
X-21602042Y-6049604D01*
X-21619355Y-6071313D01*
X-21678686Y-6130644D01*
X-21700395Y-6147957D01*
X-21771447Y-6192602D01*
X-21796464Y-6204649D01*
X-21875662Y-6232362D01*
X-21902734Y-6238541D01*
X-21993076Y-6248720D01*
X-22006959Y-6249500D01*
X-27607317Y-6249500D01*
X-27819769Y-6280044D01*
X-28025715Y-6340516D01*
X-28220938Y-6429671D01*
X-28220954Y-6429680D01*
X-28401512Y-6545718D01*
X-28563724Y-6686275D01*
X-28704281Y-6848487D01*
X-28820319Y-7029045D01*
X-28820328Y-7029061D01*
X-28909483Y-7224284D01*
X-28969955Y-7430230D01*
X-28974346Y-7460775D01*
X-29000500Y-7642683D01*
X-29000500Y-7684108D01*
X-29000500Y-13834107D01*
X-29000500Y-13899999D01*
X-29000500Y-14007317D01*
X-28969955Y-14219769D01*
X-28909485Y-14425710D01*
X-28909483Y-14425713D01*
X-28909483Y-14425715D01*
X-28820328Y-14620938D01*
X-28820325Y-14620942D01*
X-28820322Y-14620950D01*
X-28704281Y-14801513D01*
X-28563724Y-14963724D01*
X-28401513Y-15104281D01*
X-28220950Y-15220322D01*
X-28220942Y-15220325D01*
X-28220938Y-15220328D01*
X-28025715Y-15309483D01*
X-28025713Y-15309483D01*
X-28025710Y-15309485D01*
X-27819769Y-15369955D01*
X-27607317Y-15400500D01*
X-27565892Y-15400500D01*
X-22065892Y-15400500D01*
X-22006959Y-15400500D01*
X-21993077Y-15401280D01*
X-21979223Y-15402840D01*
X-21902729Y-15411459D01*
X-21875668Y-15417635D01*
X-21796457Y-15445353D01*
X-21771453Y-15457393D01*
X-21700389Y-15502046D01*
X-21678690Y-15519351D01*
X-21619351Y-15578690D01*
X-21602046Y-15600389D01*
X-21557393Y-15671453D01*
X-21545353Y-15696457D01*
X-21517635Y-15775668D01*
X-21511459Y-15802729D01*
X-21502840Y-15879223D01*
X-21501280Y-15893077D01*
X-21500500Y-15906959D01*
X-21500500Y-32393040D01*
X-21501280Y-32406922D01*
X-21506701Y-32455044D01*
X-21511458Y-32497264D01*
X-21517636Y-32524333D01*
X-21545351Y-32603539D01*
X-21557395Y-32628549D01*
X-21602042Y-32699604D01*
X-21619355Y-32721313D01*
X-21678686Y-32780644D01*
X-21700395Y-32797957D01*
X-21771447Y-32842602D01*
X-21796464Y-32854649D01*
X-21875662Y-32882362D01*
X-21902734Y-32888541D01*
X-21993076Y-32898720D01*
X-22006959Y-32899500D01*
X-24607414Y-32899500D01*
X-25020657Y-32935654D01*
X-25020661Y-32935654D01*
X-25429166Y-33007685D01*
X-25429170Y-33007685D01*
X-25429176Y-33007687D01*
X-25429183Y-33007689D01*
X-25829853Y-33115047D01*
X-25829863Y-33115050D01*
X-25829864Y-33115051D01*
X-26219670Y-33256929D01*
X-26219672Y-33256930D01*
X-26219683Y-33256934D01*
X-26595609Y-33432230D01*
X-26595633Y-33432243D01*
X-26848144Y-33578030D01*
X-26954874Y-33639651D01*
X-26954877Y-33639653D01*
X-26954880Y-33639655D01*
X-27294683Y-33877588D01*
X-27514398Y-34061952D01*
X-27612449Y-34144227D01*
X-27905773Y-34437551D01*
X-27973625Y-34518414D01*
X-28172411Y-34755316D01*
X-28172415Y-34755322D01*
X-28172416Y-34755323D01*
X-28410349Y-35095126D01*
X-28596161Y-35416963D01*
X-28617756Y-35454366D01*
X-28617769Y-35454390D01*
X-28793065Y-35830316D01*
X-28793066Y-35830321D01*
X-28793071Y-35830330D01*
X-28934949Y-36220136D01*
X-28934950Y-36220142D01*
X-28934952Y-36220146D01*
X-28945129Y-36258127D01*
X-29042313Y-36620824D01*
X-29114346Y-37029345D01*
X-29150499Y-37442587D01*
X-29150500Y-37442588D01*
X-29150500Y-38993040D01*
X-29151280Y-39006922D01*
X-29161458Y-39097268D01*
X-29167636Y-39124333D01*
X-29195351Y-39203539D01*
X-29207397Y-39228552D01*
X-29252042Y-39299604D01*
X-29269355Y-39321313D01*
X-29328686Y-39380644D01*
X-29350395Y-39397957D01*
X-29421447Y-39442602D01*
X-29446464Y-39454649D01*
X-29525662Y-39482362D01*
X-29552734Y-39488541D01*
X-29643076Y-39498720D01*
X-29656959Y-39499500D01*
X-86293041Y-39499500D01*
X-86306922Y-39498720D01*
X-86332898Y-39495793D01*
X-86397266Y-39488541D01*
X-86424337Y-39482362D01*
X-86503535Y-39454649D01*
X-86528552Y-39442602D01*
X-86599604Y-39397957D01*
X-86621313Y-39380644D01*
X-86680644Y-39321313D01*
X-86697957Y-39299604D01*
X-86742602Y-39228552D01*
X-86754649Y-39203535D01*
X-86782362Y-39124337D01*
X-86788541Y-39097265D01*
X-86798720Y-39006923D01*
X-86799500Y-38993040D01*
X-86799500Y-36231989D01*
X-85500500Y-36231989D01*
X-85500500Y-36468011D01*
X-85469693Y-36702014D01*
X-85408606Y-36929993D01*
X-85318284Y-37148049D01*
X-85200273Y-37352450D01*
X-85056592Y-37539699D01*
X-84889699Y-37706592D01*
X-84702450Y-37850273D01*
X-84498049Y-37968284D01*
X-84279993Y-38058606D01*
X-84052014Y-38119693D01*
X-83818011Y-38150500D01*
X-83818004Y-38150500D01*
X-83581996Y-38150500D01*
X-83581989Y-38150500D01*
X-83347986Y-38119693D01*
X-83120007Y-38058606D01*
X-82901951Y-37968284D01*
X-82901948Y-37968282D01*
X-82901943Y-37968280D01*
X-82778096Y-37896776D01*
X-82697550Y-37850273D01*
X-82620306Y-37791001D01*
X-82510302Y-37706593D01*
X-82510295Y-37706587D01*
X-82343412Y-37539704D01*
X-82343406Y-37539697D01*
X-82199730Y-37352454D01*
X-82199729Y-37352453D01*
X-82199727Y-37352450D01*
X-82124781Y-37222640D01*
X-82081719Y-37148056D01*
X-82081714Y-37148045D01*
X-81991394Y-36929993D01*
X-81932412Y-36709870D01*
X-81930307Y-36702014D01*
X-81924059Y-36654561D01*
X-81899501Y-36468020D01*
X-81899500Y-36468004D01*
X-81899500Y-36231995D01*
X-81899501Y-36231979D01*
X-81930306Y-35997989D01*
X-81991394Y-35770006D01*
X-82081714Y-35551954D01*
X-82081719Y-35551943D01*
X-82199730Y-35347545D01*
X-82343406Y-35160302D01*
X-82343412Y-35160295D01*
X-82344651Y-35159057D01*
X-82428272Y-35075435D01*
X-76550500Y-35075435D01*
X-76550500Y-35324565D01*
X-76517982Y-35571565D01*
X-76453502Y-35812207D01*
X-76358164Y-36042373D01*
X-76233599Y-36258127D01*
X-76081938Y-36455776D01*
X-75905776Y-36631938D01*
X-75708127Y-36783599D01*
X-75492373Y-36908164D01*
X-75262207Y-37003502D01*
X-75021565Y-37067982D01*
X-74774565Y-37100500D01*
X-74774558Y-37100500D01*
X-74525442Y-37100500D01*
X-74525435Y-37100500D01*
X-74278435Y-37067982D01*
X-74037793Y-37003502D01*
X-73906825Y-36949253D01*
X-73807638Y-36908169D01*
X-73807623Y-36908162D01*
X-73591873Y-36783599D01*
X-73423711Y-36654565D01*
X-73423707Y-36654561D01*
X-73394224Y-36631938D01*
X-73394222Y-36631936D01*
X-73394218Y-36631933D01*
X-73218066Y-36455781D01*
X-73218060Y-36455774D01*
X-73066400Y-36258126D01*
X-72941837Y-36042376D01*
X-72941830Y-36042361D01*
X-72846498Y-35812207D01*
X-72796253Y-35624689D01*
X-72782018Y-35571565D01*
X-72779435Y-35551951D01*
X-72749501Y-35324575D01*
X-72749500Y-35324558D01*
X-72749500Y-35075441D01*
X-72749501Y-35075424D01*
X-72782017Y-34828438D01*
X-72846498Y-34587792D01*
X-72941830Y-34357638D01*
X-72941837Y-34357623D01*
X-73066400Y-34141873D01*
X-73202636Y-33964327D01*
X-73218060Y-33944225D01*
X-73218066Y-33944218D01*
X-73268571Y-33893713D01*
X-66000500Y-33893713D01*
X-66000500Y-34106287D01*
X-65967246Y-34316243D01*
X-65901557Y-34518412D01*
X-65805051Y-34707816D01*
X-65805048Y-34707820D01*
X-65680109Y-34879786D01*
X-65680106Y-34879788D01*
X-65680104Y-34879792D01*
X-65529792Y-35030104D01*
X-65529788Y-35030106D01*
X-65529786Y-35030109D01*
X-65467414Y-35075424D01*
X-65357816Y-35155051D01*
X-65183301Y-35243970D01*
X-65132507Y-35291943D01*
X-65115711Y-35359764D01*
X-65138248Y-35425899D01*
X-65183302Y-35464939D01*
X-65278940Y-35513670D01*
X-65431741Y-35624685D01*
X-65431746Y-35624689D01*
X-65565310Y-35758253D01*
X-65565314Y-35758258D01*
X-65676329Y-35911059D01*
X-65762085Y-36079362D01*
X-65820451Y-36258997D01*
X-65825362Y-36290000D01*
X-64898482Y-36290000D01*
X-64909111Y-36308409D01*
X-64950000Y-36461009D01*
X-64950000Y-36618991D01*
X-64909111Y-36771591D01*
X-64898482Y-36790000D01*
X-65825362Y-36790000D01*
X-65820451Y-36821002D01*
X-65762085Y-37000637D01*
X-65676329Y-37168940D01*
X-65565314Y-37321741D01*
X-65565310Y-37321746D01*
X-65431746Y-37455310D01*
X-65431741Y-37455314D01*
X-65278940Y-37566329D01*
X-65110637Y-37652085D01*
X-64931002Y-37710451D01*
X-64744447Y-37740000D01*
X-64600000Y-37740000D01*
X-64600000Y-37088482D01*
X-64581591Y-37099111D01*
X-64428991Y-37140000D01*
X-64271009Y-37140000D01*
X-64118409Y-37099111D01*
X-64100000Y-37088482D01*
X-64100000Y-37740000D01*
X-63955553Y-37740000D01*
X-63768997Y-37710451D01*
X-63589362Y-37652085D01*
X-63519592Y-37616535D01*
X-40290500Y-37616535D01*
X-40290500Y-37823465D01*
X-40250130Y-38026420D01*
X-40170941Y-38217598D01*
X-40055977Y-38389655D01*
X-39909655Y-38535977D01*
X-39737598Y-38650941D01*
X-39546420Y-38730130D01*
X-39343467Y-38770499D01*
X-39343466Y-38770500D01*
X-39343465Y-38770500D01*
X-39136534Y-38770500D01*
X-39136530Y-38770499D01*
X-39134016Y-38769999D01*
X-38933580Y-38730130D01*
X-38742402Y-38650941D01*
X-38570345Y-38535977D01*
X-38570342Y-38535975D01*
X-38424024Y-38389657D01*
X-38309058Y-38217596D01*
X-38229870Y-38026420D01*
X-38229868Y-38026412D01*
X-38189500Y-37823469D01*
X-38189500Y-37616583D01*
X-37750000Y-37616583D01*
X-37750000Y-37823417D01*
X-37749999Y-37823420D01*
X-37709651Y-38026266D01*
X-37709649Y-38026274D01*
X-37630499Y-38217359D01*
X-37527814Y-38371038D01*
X-37089564Y-37932788D01*
X-36999728Y-37970000D01*
X-36773225Y-37970000D01*
X-37351038Y-38547814D01*
X-37197359Y-38650499D01*
X-37006274Y-38729649D01*
X-37006266Y-38729651D01*
X-36803420Y-38769999D01*
X-36803417Y-38770000D01*
X-36596583Y-38770000D01*
X-36596579Y-38769999D01*
X-36393733Y-38729651D01*
X-36393725Y-38729649D01*
X-36202640Y-38650499D01*
X-36048961Y-38547814D01*
X-36626776Y-37970000D01*
X-36400272Y-37970000D01*
X-36310434Y-37932788D01*
X-35872185Y-38371037D01*
X-35872184Y-38371037D01*
X-35769505Y-38217368D01*
X-35769500Y-38217358D01*
X-35690350Y-38026274D01*
X-35690348Y-38026266D01*
X-35650000Y-37823420D01*
X-35650000Y-37616583D01*
X-35210000Y-37616583D01*
X-35210000Y-37823417D01*
X-35209999Y-37823420D01*
X-35169651Y-38026266D01*
X-35169649Y-38026274D01*
X-35090499Y-38217359D01*
X-34987814Y-38371038D01*
X-34549564Y-37932788D01*
X-34459728Y-37970000D01*
X-34233225Y-37970000D01*
X-34811038Y-38547814D01*
X-34657359Y-38650499D01*
X-34466274Y-38729649D01*
X-34466266Y-38729651D01*
X-34263420Y-38769999D01*
X-34263417Y-38770000D01*
X-34056583Y-38770000D01*
X-34056579Y-38769999D01*
X-33853733Y-38729651D01*
X-33853725Y-38729649D01*
X-33662640Y-38650499D01*
X-33508961Y-38547814D01*
X-34086776Y-37970000D01*
X-33860272Y-37970000D01*
X-33770434Y-37932788D01*
X-33332185Y-38371037D01*
X-33332184Y-38371037D01*
X-33229505Y-38217368D01*
X-33229500Y-38217358D01*
X-33150350Y-38026274D01*
X-33150348Y-38026266D01*
X-33110000Y-37823420D01*
X-33110000Y-37616583D01*
X-32670000Y-37616583D01*
X-32670000Y-37823417D01*
X-32669999Y-37823420D01*
X-32629651Y-38026266D01*
X-32629649Y-38026274D01*
X-32550499Y-38217359D01*
X-32447814Y-38371038D01*
X-32009564Y-37932788D01*
X-31919728Y-37970000D01*
X-31693225Y-37970000D01*
X-32271038Y-38547814D01*
X-32117359Y-38650499D01*
X-31926274Y-38729649D01*
X-31926266Y-38729651D01*
X-31723420Y-38769999D01*
X-31723417Y-38770000D01*
X-31516583Y-38770000D01*
X-31516579Y-38769999D01*
X-31313733Y-38729651D01*
X-31313725Y-38729649D01*
X-31122640Y-38650499D01*
X-30968961Y-38547814D01*
X-31546776Y-37970000D01*
X-31320272Y-37970000D01*
X-31230434Y-37932788D01*
X-30792185Y-38371037D01*
X-30792184Y-38371037D01*
X-30689505Y-38217368D01*
X-30689500Y-38217358D01*
X-30610350Y-38026274D01*
X-30610348Y-38026266D01*
X-30570000Y-37823420D01*
X-30570000Y-37616579D01*
X-30610348Y-37413733D01*
X-30610350Y-37413725D01*
X-30689502Y-37222636D01*
X-30689502Y-37222635D01*
X-30792183Y-37068961D01*
X-30792185Y-37068961D01*
X-31230435Y-37507211D01*
X-31320272Y-37470000D01*
X-31546776Y-37470000D01*
X-30968961Y-36892185D01*
X-30968961Y-36892183D01*
X-31122636Y-36789502D01*
X-31313725Y-36710350D01*
X-31313733Y-36710348D01*
X-31516579Y-36670000D01*
X-31723420Y-36670000D01*
X-31926266Y-36710348D01*
X-31926274Y-36710350D01*
X-32117358Y-36789500D01*
X-32117368Y-36789505D01*
X-32271037Y-36892184D01*
X-32271037Y-36892185D01*
X-31693225Y-37470000D01*
X-31919728Y-37470000D01*
X-32009564Y-37507210D01*
X-32447814Y-37068961D01*
X-32550499Y-37222640D01*
X-32629649Y-37413725D01*
X-32629651Y-37413733D01*
X-32669999Y-37616579D01*
X-32670000Y-37616583D01*
X-33110000Y-37616583D01*
X-33110000Y-37616579D01*
X-33150348Y-37413733D01*
X-33150350Y-37413725D01*
X-33229502Y-37222636D01*
X-33229502Y-37222635D01*
X-33332183Y-37068961D01*
X-33332185Y-37068961D01*
X-33770435Y-37507211D01*
X-33860272Y-37470000D01*
X-34086776Y-37470000D01*
X-33508961Y-36892185D01*
X-33508961Y-36892183D01*
X-33662636Y-36789502D01*
X-33853725Y-36710350D01*
X-33853733Y-36710348D01*
X-34056579Y-36670000D01*
X-34263420Y-36670000D01*
X-34466266Y-36710348D01*
X-34466274Y-36710350D01*
X-34657358Y-36789500D01*
X-34657368Y-36789505D01*
X-34811037Y-36892184D01*
X-34811037Y-36892185D01*
X-34233225Y-37470000D01*
X-34459728Y-37470000D01*
X-34549564Y-37507210D01*
X-34987814Y-37068961D01*
X-35090499Y-37222640D01*
X-35169649Y-37413725D01*
X-35169651Y-37413733D01*
X-35209999Y-37616579D01*
X-35210000Y-37616583D01*
X-35650000Y-37616583D01*
X-35650000Y-37616579D01*
X-35690348Y-37413733D01*
X-35690350Y-37413725D01*
X-35769502Y-37222636D01*
X-35769502Y-37222635D01*
X-35872183Y-37068961D01*
X-35872185Y-37068961D01*
X-36310435Y-37507211D01*
X-36400272Y-37470000D01*
X-36626776Y-37470000D01*
X-36048961Y-36892185D01*
X-36048961Y-36892183D01*
X-36202636Y-36789502D01*
X-36393725Y-36710350D01*
X-36393733Y-36710348D01*
X-36596579Y-36670000D01*
X-36803420Y-36670000D01*
X-37006266Y-36710348D01*
X-37006274Y-36710350D01*
X-37197358Y-36789500D01*
X-37197368Y-36789505D01*
X-37351037Y-36892184D01*
X-37351037Y-36892185D01*
X-36773225Y-37470000D01*
X-36999728Y-37470000D01*
X-37089564Y-37507210D01*
X-37527814Y-37068961D01*
X-37630499Y-37222640D01*
X-37709649Y-37413725D01*
X-37709651Y-37413733D01*
X-37749999Y-37616579D01*
X-37750000Y-37616583D01*
X-38189500Y-37616583D01*
X-38189500Y-37616530D01*
X-38229868Y-37413587D01*
X-38229870Y-37413579D01*
X-38309058Y-37222403D01*
X-38424024Y-37050342D01*
X-38424025Y-37050341D01*
X-38448290Y-37026077D01*
X-38570341Y-36904025D01*
X-38570342Y-36904024D01*
X-38742403Y-36789058D01*
X-38933579Y-36709870D01*
X-38933587Y-36709868D01*
X-39136530Y-36669500D01*
X-39136535Y-36669500D01*
X-39343465Y-36669500D01*
X-39343469Y-36669500D01*
X-39546412Y-36709868D01*
X-39546420Y-36709870D01*
X-39724416Y-36783599D01*
X-39737598Y-36789059D01*
X-39738258Y-36789500D01*
X-39909657Y-36904024D01*
X-40055975Y-37050342D01*
X-40055977Y-37050345D01*
X-40170941Y-37222402D01*
X-40250130Y-37413580D01*
X-40290500Y-37616535D01*
X-63519592Y-37616535D01*
X-63421059Y-37566329D01*
X-63343699Y-37510125D01*
X-63268258Y-37455314D01*
X-63268253Y-37455310D01*
X-63134689Y-37321746D01*
X-63134685Y-37321741D01*
X-63023670Y-37168940D01*
X-62937914Y-37000637D01*
X-62879548Y-36821002D01*
X-62874638Y-36790000D01*
X-63801518Y-36790000D01*
X-63790889Y-36771591D01*
X-63750000Y-36618991D01*
X-63750000Y-36461009D01*
X-63790889Y-36308409D01*
X-63801518Y-36290000D01*
X-62874638Y-36290000D01*
X-62879548Y-36258997D01*
X-62937914Y-36079362D01*
X-63023670Y-35911059D01*
X-63134685Y-35758258D01*
X-63134689Y-35758253D01*
X-63268253Y-35624689D01*
X-63268258Y-35624685D01*
X-63421061Y-35513668D01*
X-63516698Y-35464938D01*
X-63567493Y-35416963D01*
X-63584288Y-35349142D01*
X-63561750Y-35283008D01*
X-63516696Y-35243969D01*
X-63342182Y-35155050D01*
X-63170213Y-35030109D01*
X-63019890Y-34879786D01*
X-62894951Y-34707820D01*
X-62798444Y-34518414D01*
X-62760576Y-34401871D01*
X-62732754Y-34316243D01*
X-62699500Y-34106287D01*
X-62699500Y-33893713D01*
X-62701522Y-33880942D01*
X-62703951Y-33865603D01*
X-49100500Y-33865603D01*
X-49100500Y-34134397D01*
X-49065416Y-34400891D01*
X-48995847Y-34660526D01*
X-48918417Y-34847457D01*
X-48905027Y-34879786D01*
X-48892984Y-34908859D01*
X-48758587Y-35141641D01*
X-48594956Y-35354890D01*
X-48404890Y-35544956D01*
X-48191641Y-35708587D01*
X-47958859Y-35842984D01*
X-47958853Y-35842986D01*
X-47958850Y-35842988D01*
X-47897457Y-35868417D01*
X-47710526Y-35945847D01*
X-47450891Y-36015416D01*
X-47246220Y-36042361D01*
X-47184398Y-36050500D01*
X-47184397Y-36050500D01*
X-46915602Y-36050500D01*
X-46837319Y-36040193D01*
X-46649109Y-36015416D01*
X-46389474Y-35945847D01*
X-46236536Y-35882498D01*
X-46141149Y-35842988D01*
X-46141133Y-35842980D01*
X-46057968Y-35794964D01*
X-45908359Y-35708587D01*
X-45820387Y-35641084D01*
X-45695111Y-35544957D01*
X-45695104Y-35544951D01*
X-45505048Y-35354895D01*
X-45505042Y-35354888D01*
X-45341416Y-35141645D01*
X-45341415Y-35141644D01*
X-45341413Y-35141641D01*
X-45277017Y-35030104D01*
X-45207019Y-34908866D01*
X-45207011Y-34908850D01*
X-45104152Y-34660524D01*
X-45066074Y-34518412D01*
X-45034584Y-34400891D01*
X-45034583Y-34400885D01*
X-45034582Y-34400880D01*
X-44999500Y-34134397D01*
X-44999500Y-33865602D01*
X-45034582Y-33599119D01*
X-45034585Y-33599106D01*
X-45045310Y-33559081D01*
X-45063329Y-33491830D01*
X-45104152Y-33339475D01*
X-45207011Y-33091149D01*
X-45207019Y-33091133D01*
X-45341416Y-32858354D01*
X-45505042Y-32645111D01*
X-45505048Y-32645104D01*
X-45695104Y-32455048D01*
X-45695111Y-32455042D01*
X-45908354Y-32291416D01*
X-46141133Y-32157019D01*
X-46141149Y-32157011D01*
X-46389475Y-32054152D01*
X-46594239Y-31999286D01*
X-46649109Y-31984584D01*
X-46649112Y-31984583D01*
X-46649119Y-31984582D01*
X-46915602Y-31949500D01*
X-46915603Y-31949500D01*
X-47184397Y-31949500D01*
X-47184398Y-31949500D01*
X-47450880Y-31984582D01*
X-47450885Y-31984583D01*
X-47450891Y-31984584D01*
X-47580708Y-32019368D01*
X-47710524Y-32054152D01*
X-47958850Y-32157011D01*
X-47958866Y-32157019D01*
X-48098832Y-32237830D01*
X-48191641Y-32291413D01*
X-48191644Y-32291415D01*
X-48191645Y-32291416D01*
X-48404888Y-32455042D01*
X-48404895Y-32455048D01*
X-48594951Y-32645104D01*
X-48594956Y-32645110D01*
X-48758587Y-32858359D01*
X-48822982Y-32969894D01*
X-48892980Y-33091133D01*
X-48892988Y-33091149D01*
X-48957132Y-33246008D01*
X-48995847Y-33339474D01*
X-49065416Y-33599109D01*
X-49100500Y-33865603D01*
X-62703951Y-33865603D01*
X-62732753Y-33683760D01*
X-62798444Y-33481585D01*
X-62894951Y-33292179D01*
X-63019890Y-33120213D01*
X-63170209Y-32969894D01*
X-63170214Y-32969890D01*
X-63308519Y-32869406D01*
X-63351185Y-32814076D01*
X-63357164Y-32744463D01*
X-63324558Y-32682668D01*
X-63263720Y-32648311D01*
X-63259834Y-32647472D01*
X-63252260Y-32645966D01*
X-63169399Y-32590601D01*
X-63132405Y-32535235D01*
X-63114033Y-32507739D01*
X-63114032Y-32507735D01*
X-63099500Y-32434678D01*
X-63099500Y-30485321D01*
X-63114032Y-30412264D01*
X-63114033Y-30412260D01*
X-63169399Y-30329399D01*
X-63252260Y-30274033D01*
X-63252264Y-30274032D01*
X-63325323Y-30259500D01*
X-63325326Y-30259500D01*
X-65374674Y-30259500D01*
X-65374677Y-30259500D01*
X-65447735Y-30274032D01*
X-65447739Y-30274033D01*
X-65466562Y-30286610D01*
X-65530601Y-30329399D01*
X-65569960Y-30388305D01*
X-65585966Y-30412260D01*
X-65585967Y-30412264D01*
X-65600499Y-30485321D01*
X-65600500Y-30485323D01*
X-65600500Y-30485326D01*
X-65600500Y-32434674D01*
X-65585966Y-32507740D01*
X-65530601Y-32590601D01*
X-65447740Y-32645966D01*
X-65440177Y-32647470D01*
X-65378266Y-32679853D01*
X-65343690Y-32740567D01*
X-65347427Y-32810337D01*
X-65388291Y-32867010D01*
X-65391480Y-32869406D01*
X-65529785Y-32969890D01*
X-65529790Y-32969894D01*
X-65680109Y-33120213D01*
X-65805048Y-33292179D01*
X-65805049Y-33292181D01*
X-65805051Y-33292184D01*
X-65901557Y-33481588D01*
X-65967246Y-33683757D01*
X-66000500Y-33893713D01*
X-73268571Y-33893713D01*
X-73394218Y-33768066D01*
X-73394225Y-33768060D01*
X-73591873Y-33616400D01*
X-73807623Y-33491837D01*
X-73807638Y-33491830D01*
X-74037792Y-33396498D01*
X-74278438Y-33332017D01*
X-74525424Y-33299501D01*
X-74525429Y-33299500D01*
X-74525435Y-33299500D01*
X-74774565Y-33299500D01*
X-74774570Y-33299500D01*
X-74774575Y-33299501D01*
X-75021561Y-33332017D01*
X-75262207Y-33396498D01*
X-75492361Y-33491830D01*
X-75492376Y-33491837D01*
X-75708126Y-33616400D01*
X-75905774Y-33768060D01*
X-75905781Y-33768066D01*
X-76081933Y-33944218D01*
X-76081939Y-33944225D01*
X-76233599Y-34141873D01*
X-76358162Y-34357623D01*
X-76358169Y-34357638D01*
X-76378544Y-34406828D01*
X-76453502Y-34587793D01*
X-76517982Y-34828435D01*
X-76550500Y-35075435D01*
X-82428272Y-35075435D01*
X-82510295Y-34993412D01*
X-82510302Y-34993406D01*
X-82697545Y-34849730D01*
X-82901943Y-34731719D01*
X-82901954Y-34731714D01*
X-83120006Y-34641394D01*
X-83347989Y-34580306D01*
X-83581979Y-34549501D01*
X-83581983Y-34549500D01*
X-83581989Y-34549500D01*
X-83818011Y-34549500D01*
X-83818017Y-34549500D01*
X-83818020Y-34549501D01*
X-84052010Y-34580306D01*
X-84279993Y-34641394D01*
X-84498045Y-34731714D01*
X-84498056Y-34731719D01*
X-84608743Y-34795625D01*
X-84702450Y-34849727D01*
X-84702453Y-34849729D01*
X-84702454Y-34849730D01*
X-84889697Y-34993406D01*
X-84889704Y-34993412D01*
X-85056587Y-35160295D01*
X-85056592Y-35160301D01*
X-85200273Y-35347550D01*
X-85276118Y-35478918D01*
X-85318280Y-35551943D01*
X-85318282Y-35551948D01*
X-85318284Y-35551951D01*
X-85408606Y-35770007D01*
X-85469693Y-35997986D01*
X-85500500Y-36231989D01*
X-86799500Y-36231989D01*
X-86799500Y-34810036D01*
X-86798660Y-34795625D01*
X-86787694Y-34701907D01*
X-86781041Y-34673867D01*
X-86751232Y-34592055D01*
X-86738285Y-34566305D01*
X-86690391Y-34493580D01*
X-86671851Y-34471517D01*
X-86603172Y-34406828D01*
X-86592106Y-34397559D01*
X-86538362Y-34357627D01*
X-82156112Y-31101564D01*
X-82076172Y-31042352D01*
X-81932509Y-30902763D01*
X-81932508Y-30902762D01*
X-81932506Y-30902760D01*
X-81808673Y-30745320D01*
X-81706857Y-30572810D01*
X-81706854Y-30572805D01*
X-81628873Y-30388303D01*
X-81576102Y-30195069D01*
X-81576102Y-30195068D01*
X-81560061Y-30075435D01*
X-76550500Y-30075435D01*
X-76550500Y-30324565D01*
X-76517982Y-30571565D01*
X-76453502Y-30812207D01*
X-76358164Y-31042373D01*
X-76233599Y-31258127D01*
X-76081938Y-31455776D01*
X-75905776Y-31631938D01*
X-75708127Y-31783599D01*
X-75492373Y-31908164D01*
X-75262207Y-32003502D01*
X-75021565Y-32067982D01*
X-74774565Y-32100500D01*
X-74774558Y-32100500D01*
X-74525442Y-32100500D01*
X-74525435Y-32100500D01*
X-74278435Y-32067982D01*
X-74037793Y-32003502D01*
X-73906825Y-31949253D01*
X-73807638Y-31908169D01*
X-73807623Y-31908162D01*
X-73591873Y-31783599D01*
X-73394225Y-31631939D01*
X-73394218Y-31631933D01*
X-73393289Y-31631004D01*
X-72100500Y-31631004D01*
X-72100500Y-31631007D01*
X-72100500Y-31768993D01*
X-72073580Y-31904328D01*
X-72020775Y-32031811D01*
X-71944114Y-32146542D01*
X-71846542Y-32244114D01*
X-71731811Y-32320775D01*
X-71604328Y-32373580D01*
X-71560041Y-32382389D01*
X-71468995Y-32400500D01*
X-71468993Y-32400500D01*
X-71331004Y-32400500D01*
X-71195677Y-32373581D01*
X-71195676Y-32373580D01*
X-71195672Y-32373580D01*
X-71188890Y-32370771D01*
X-71068195Y-32320778D01*
X-71068182Y-32320771D01*
X-70953458Y-32244114D01*
X-70953454Y-32244111D01*
X-70855888Y-32146545D01*
X-70855885Y-32146541D01*
X-70779228Y-32031817D01*
X-70779221Y-32031804D01*
X-70726421Y-31904332D01*
X-70726418Y-31904322D01*
X-70699500Y-31768995D01*
X-70699500Y-31681004D01*
X-68100500Y-31681004D01*
X-68100500Y-31681007D01*
X-68100500Y-31818993D01*
X-68073580Y-31954328D01*
X-68020775Y-32081811D01*
X-67944114Y-32196542D01*
X-67846542Y-32294114D01*
X-67731811Y-32370775D01*
X-67604328Y-32423580D01*
X-67560041Y-32432389D01*
X-67468995Y-32450500D01*
X-67468993Y-32450500D01*
X-67331004Y-32450500D01*
X-67195677Y-32423581D01*
X-67195676Y-32423580D01*
X-67195672Y-32423580D01*
X-67195667Y-32423578D01*
X-67068195Y-32370778D01*
X-67068182Y-32370771D01*
X-66953458Y-32294114D01*
X-66953454Y-32294111D01*
X-66855888Y-32196545D01*
X-66855885Y-32196541D01*
X-66779228Y-32081817D01*
X-66779221Y-32081804D01*
X-66726421Y-31954332D01*
X-66726418Y-31954322D01*
X-66699500Y-31818995D01*
X-66699500Y-31681004D01*
X-66699499Y-31681004D01*
X-66726418Y-31545677D01*
X-66726421Y-31545667D01*
X-66779221Y-31418195D01*
X-66779228Y-31418182D01*
X-66855885Y-31303458D01*
X-66855888Y-31303454D01*
X-66953454Y-31205888D01*
X-66953458Y-31205885D01*
X-67068182Y-31129228D01*
X-67068195Y-31129221D01*
X-67195667Y-31076421D01*
X-67195677Y-31076418D01*
X-67331005Y-31049500D01*
X-67331007Y-31049500D01*
X-67468993Y-31049500D01*
X-67468995Y-31049500D01*
X-67604322Y-31076418D01*
X-67604332Y-31076421D01*
X-67731804Y-31129221D01*
X-67731817Y-31129228D01*
X-67846541Y-31205885D01*
X-67846545Y-31205888D01*
X-67944111Y-31303454D01*
X-67944114Y-31303458D01*
X-68020771Y-31418182D01*
X-68020778Y-31418195D01*
X-68054869Y-31500500D01*
X-68073580Y-31545672D01*
X-68073580Y-31545676D01*
X-68073581Y-31545677D01*
X-68100500Y-31681004D01*
X-70699500Y-31681004D01*
X-70699500Y-31631004D01*
X-70699499Y-31631004D01*
X-70726418Y-31495677D01*
X-70726421Y-31495667D01*
X-70779221Y-31368195D01*
X-70779228Y-31368182D01*
X-70855885Y-31253458D01*
X-70855888Y-31253454D01*
X-70953454Y-31155888D01*
X-70953458Y-31155885D01*
X-71068182Y-31079228D01*
X-71068195Y-31079221D01*
X-71195667Y-31026421D01*
X-71195677Y-31026418D01*
X-71331005Y-30999500D01*
X-71331007Y-30999500D01*
X-71468993Y-30999500D01*
X-71468995Y-30999500D01*
X-71604322Y-31026418D01*
X-71604332Y-31026421D01*
X-71731804Y-31079221D01*
X-71731817Y-31079228D01*
X-71846541Y-31155885D01*
X-71846545Y-31155888D01*
X-71944111Y-31253454D01*
X-71944114Y-31253458D01*
X-72020771Y-31368182D01*
X-72020778Y-31368195D01*
X-72041483Y-31418182D01*
X-72073580Y-31495672D01*
X-72073580Y-31495676D01*
X-72073581Y-31495677D01*
X-72100500Y-31631004D01*
X-73393289Y-31631004D01*
X-73218066Y-31455781D01*
X-73218060Y-31455774D01*
X-73066400Y-31258126D01*
X-72941837Y-31042376D01*
X-72941830Y-31042361D01*
X-72846498Y-30812207D01*
X-72782017Y-30571561D01*
X-72749501Y-30324575D01*
X-72749500Y-30324558D01*
X-72749500Y-30075441D01*
X-72749501Y-30075424D01*
X-72782017Y-29828436D01*
X-72801157Y-29757008D01*
X-72808125Y-29731004D01*
X-72250500Y-29731004D01*
X-72250500Y-29868995D01*
X-72235918Y-29942302D01*
X-72223580Y-30004328D01*
X-72170775Y-30131811D01*
X-72094114Y-30246542D01*
X-71996542Y-30344114D01*
X-71881811Y-30420775D01*
X-71754328Y-30473580D01*
X-71710041Y-30482389D01*
X-71618995Y-30500500D01*
X-71618993Y-30500500D01*
X-71481004Y-30500500D01*
X-71345677Y-30473581D01*
X-71345676Y-30473580D01*
X-71345672Y-30473580D01*
X-71345667Y-30473578D01*
X-71218195Y-30420778D01*
X-71218182Y-30420771D01*
X-71103458Y-30344114D01*
X-71103454Y-30344111D01*
X-71005888Y-30246545D01*
X-71005885Y-30246541D01*
X-70929228Y-30131817D01*
X-70929221Y-30131804D01*
X-70876421Y-30004332D01*
X-70876418Y-30004322D01*
X-70849500Y-29868995D01*
X-70849500Y-29731004D01*
X-70849499Y-29731004D01*
X-70876418Y-29595677D01*
X-70876421Y-29595667D01*
X-70927482Y-29472393D01*
X-70927495Y-29472366D01*
X-70929224Y-29468189D01*
X-70929228Y-29468182D01*
X-70954070Y-29431004D01*
X-68100500Y-29431004D01*
X-68100500Y-29568995D01*
X-68095194Y-29595667D01*
X-68073580Y-29704328D01*
X-68020775Y-29831811D01*
X-67944114Y-29946542D01*
X-67846542Y-30044114D01*
X-67731811Y-30120775D01*
X-67604328Y-30173580D01*
X-67560041Y-30182389D01*
X-67468995Y-30200500D01*
X-67468993Y-30200500D01*
X-67331004Y-30200500D01*
X-67195677Y-30173581D01*
X-67195676Y-30173580D01*
X-67195672Y-30173580D01*
X-67195667Y-30173578D01*
X-67068195Y-30120778D01*
X-67068182Y-30120771D01*
X-67057134Y-30113389D01*
X-40340500Y-30113389D01*
X-40340500Y-30286611D01*
X-40313402Y-30457701D01*
X-40259873Y-30622445D01*
X-40181232Y-30776788D01*
X-40079414Y-30916928D01*
X-39956928Y-31039414D01*
X-39816788Y-31141232D01*
X-39662445Y-31219873D01*
X-39497701Y-31273402D01*
X-39326611Y-31300500D01*
X-39326610Y-31300500D01*
X-39153390Y-31300500D01*
X-39153389Y-31300500D01*
X-38982299Y-31273402D01*
X-38817555Y-31219873D01*
X-38663212Y-31141232D01*
X-38523072Y-31039414D01*
X-38400586Y-30916928D01*
X-38298768Y-30776788D01*
X-38220127Y-30622445D01*
X-38166598Y-30457701D01*
X-38139500Y-30286611D01*
X-38139500Y-30113389D01*
X-38140062Y-30109838D01*
X-38140062Y-30109837D01*
X-38142169Y-30096535D01*
X-37750500Y-30096535D01*
X-37750500Y-30303465D01*
X-37710130Y-30506420D01*
X-37630941Y-30697598D01*
X-37515977Y-30869655D01*
X-37369655Y-31015977D01*
X-37197598Y-31130941D01*
X-37006420Y-31210130D01*
X-36803467Y-31250499D01*
X-36803466Y-31250500D01*
X-36803465Y-31250500D01*
X-36596534Y-31250500D01*
X-36596530Y-31250499D01*
X-36393580Y-31210130D01*
X-36202402Y-31130941D01*
X-36030345Y-31015977D01*
X-36030342Y-31015975D01*
X-35884024Y-30869657D01*
X-35769058Y-30697596D01*
X-35689870Y-30506420D01*
X-35689868Y-30506412D01*
X-35649500Y-30303469D01*
X-35649500Y-30096535D01*
X-35210500Y-30096535D01*
X-35210500Y-30303465D01*
X-35170130Y-30506420D01*
X-35090941Y-30697598D01*
X-34975977Y-30869655D01*
X-34829655Y-31015977D01*
X-34657598Y-31130941D01*
X-34466420Y-31210130D01*
X-34263467Y-31250499D01*
X-34263466Y-31250500D01*
X-34263465Y-31250500D01*
X-34056534Y-31250500D01*
X-34056530Y-31250499D01*
X-33853580Y-31210130D01*
X-33662402Y-31130941D01*
X-33490345Y-31015977D01*
X-33490342Y-31015975D01*
X-33344024Y-30869657D01*
X-33229058Y-30697596D01*
X-33149870Y-30506420D01*
X-33149868Y-30506412D01*
X-33109500Y-30303469D01*
X-33109500Y-30096535D01*
X-32670500Y-30096535D01*
X-32670500Y-30303465D01*
X-32630130Y-30506420D01*
X-32550941Y-30697598D01*
X-32435977Y-30869655D01*
X-32289655Y-31015977D01*
X-32117598Y-31130941D01*
X-31926420Y-31210130D01*
X-31723467Y-31250499D01*
X-31723466Y-31250500D01*
X-31723465Y-31250500D01*
X-31516534Y-31250500D01*
X-31516530Y-31250499D01*
X-31313580Y-31210130D01*
X-31122402Y-31130941D01*
X-30950345Y-31015977D01*
X-30950342Y-31015975D01*
X-30804024Y-30869657D01*
X-30689058Y-30697596D01*
X-30609870Y-30506420D01*
X-30609868Y-30506412D01*
X-30569500Y-30303469D01*
X-30569500Y-30096530D01*
X-30609868Y-29893587D01*
X-30609870Y-29893579D01*
X-30689058Y-29702402D01*
X-30726197Y-29646821D01*
X-30726197Y-29646820D01*
X-30760373Y-29595672D01*
X-30769515Y-29581989D01*
X-26200500Y-29581989D01*
X-26200500Y-29818011D01*
X-26169693Y-30052014D01*
X-26108606Y-30279993D01*
X-26018284Y-30498049D01*
X-25900273Y-30702450D01*
X-25756592Y-30889699D01*
X-25589699Y-31056592D01*
X-25402450Y-31200273D01*
X-25198049Y-31318284D01*
X-24979993Y-31408606D01*
X-24752014Y-31469693D01*
X-24518011Y-31500500D01*
X-24518004Y-31500500D01*
X-24281996Y-31500500D01*
X-24281989Y-31500500D01*
X-24047986Y-31469693D01*
X-23820007Y-31408606D01*
X-23601951Y-31318284D01*
X-23601948Y-31318282D01*
X-23601943Y-31318280D01*
X-23524213Y-31273402D01*
X-23397550Y-31200273D01*
X-23239792Y-31079221D01*
X-23210302Y-31056593D01*
X-23210295Y-31056587D01*
X-23043412Y-30889704D01*
X-23043406Y-30889697D01*
X-22899730Y-30702454D01*
X-22899729Y-30702453D01*
X-22899727Y-30702450D01*
X-22824158Y-30571561D01*
X-22781719Y-30498056D01*
X-22781714Y-30498045D01*
X-22691394Y-30279993D01*
X-22646752Y-30113389D01*
X-22630307Y-30052014D01*
X-22629266Y-30044114D01*
X-22599501Y-29818020D01*
X-22599500Y-29818004D01*
X-22599500Y-29581995D01*
X-22599501Y-29581979D01*
X-22630306Y-29347989D01*
X-22691394Y-29120006D01*
X-22781714Y-28901954D01*
X-22781719Y-28901943D01*
X-22899730Y-28697545D01*
X-23043406Y-28510302D01*
X-23043412Y-28510295D01*
X-23210295Y-28343412D01*
X-23210302Y-28343406D01*
X-23397545Y-28199730D01*
X-23601943Y-28081719D01*
X-23601954Y-28081714D01*
X-23820006Y-27991394D01*
X-24047989Y-27930306D01*
X-24281979Y-27899501D01*
X-24281983Y-27899500D01*
X-24281989Y-27899500D01*
X-24518011Y-27899500D01*
X-24518017Y-27899500D01*
X-24518020Y-27899501D01*
X-24752010Y-27930306D01*
X-24979993Y-27991394D01*
X-25198045Y-28081714D01*
X-25198056Y-28081719D01*
X-25299885Y-28140511D01*
X-25402450Y-28199727D01*
X-25402453Y-28199729D01*
X-25402454Y-28199730D01*
X-25589697Y-28343406D01*
X-25589704Y-28343412D01*
X-25756587Y-28510295D01*
X-25756592Y-28510301D01*
X-25900273Y-28697550D01*
X-25947331Y-28779057D01*
X-26018280Y-28901943D01*
X-26018282Y-28901948D01*
X-26018284Y-28901951D01*
X-26108606Y-29120007D01*
X-26169693Y-29347986D01*
X-26200500Y-29581989D01*
X-30769515Y-29581989D01*
X-30804024Y-29530342D01*
X-30950342Y-29384024D01*
X-31122403Y-29269058D01*
X-31313579Y-29189870D01*
X-31313587Y-29189868D01*
X-31516530Y-29149500D01*
X-31516535Y-29149500D01*
X-31723465Y-29149500D01*
X-31723469Y-29149500D01*
X-31926412Y-29189868D01*
X-31926420Y-29189870D01*
X-32094704Y-29259576D01*
X-32117598Y-29269059D01*
X-32164653Y-29300500D01*
X-32289657Y-29384024D01*
X-32435975Y-29530342D01*
X-32435977Y-29530345D01*
X-32550941Y-29702402D01*
X-32630130Y-29893580D01*
X-32670500Y-30096535D01*
X-33109500Y-30096535D01*
X-33109500Y-30096530D01*
X-33149868Y-29893587D01*
X-33149870Y-29893579D01*
X-33229058Y-29702403D01*
X-33344024Y-29530342D01*
X-33490342Y-29384024D01*
X-33662403Y-29269058D01*
X-33853579Y-29189870D01*
X-33853587Y-29189868D01*
X-34056530Y-29149500D01*
X-34056535Y-29149500D01*
X-34263465Y-29149500D01*
X-34263469Y-29149500D01*
X-34466412Y-29189868D01*
X-34466420Y-29189870D01*
X-34634704Y-29259576D01*
X-34657598Y-29269059D01*
X-34704653Y-29300500D01*
X-34829657Y-29384024D01*
X-34975975Y-29530342D01*
X-34975977Y-29530345D01*
X-35090941Y-29702402D01*
X-35170130Y-29893580D01*
X-35210500Y-30096535D01*
X-35649500Y-30096535D01*
X-35649500Y-30096530D01*
X-35689868Y-29893587D01*
X-35689870Y-29893579D01*
X-35769058Y-29702403D01*
X-35884024Y-29530342D01*
X-36030342Y-29384024D01*
X-36202403Y-29269058D01*
X-36393579Y-29189870D01*
X-36393587Y-29189868D01*
X-36596530Y-29149500D01*
X-36596535Y-29149500D01*
X-36803465Y-29149500D01*
X-36803469Y-29149500D01*
X-37006412Y-29189868D01*
X-37006420Y-29189870D01*
X-37174704Y-29259576D01*
X-37197598Y-29269059D01*
X-37244653Y-29300500D01*
X-37369657Y-29384024D01*
X-37515975Y-29530342D01*
X-37515977Y-29530345D01*
X-37630941Y-29702402D01*
X-37710130Y-29893580D01*
X-37750500Y-30096535D01*
X-38142169Y-30096535D01*
X-38166597Y-29942302D01*
X-38220128Y-29777552D01*
X-38298768Y-29623211D01*
X-38366242Y-29530342D01*
X-38400586Y-29483072D01*
X-38400588Y-29483070D01*
X-38400588Y-29483069D01*
X-38523069Y-29360588D01*
X-38663211Y-29258768D01*
X-38817552Y-29180128D01*
X-38982302Y-29126597D01*
X-38982301Y-29126597D01*
X-39121192Y-29104599D01*
X-39153389Y-29099500D01*
X-39326611Y-29099500D01*
X-39378239Y-29107677D01*
X-39497697Y-29126597D01*
X-39497699Y-29126597D01*
X-39497701Y-29126598D01*
X-39662445Y-29180127D01*
X-39816788Y-29258768D01*
X-39956928Y-29360586D01*
X-40079414Y-29483072D01*
X-40181232Y-29623212D01*
X-40259873Y-29777555D01*
X-40313402Y-29942299D01*
X-40340500Y-30113389D01*
X-67057134Y-30113389D01*
X-66953458Y-30044114D01*
X-66953454Y-30044111D01*
X-66855888Y-29946545D01*
X-66855885Y-29946541D01*
X-66779228Y-29831817D01*
X-66779221Y-29831804D01*
X-66726421Y-29704332D01*
X-66726418Y-29704322D01*
X-66699500Y-29568995D01*
X-66699500Y-29431004D01*
X-66699499Y-29431004D01*
X-66726418Y-29295677D01*
X-66726421Y-29295667D01*
X-66779221Y-29168195D01*
X-66779228Y-29168182D01*
X-66855885Y-29053458D01*
X-66855888Y-29053454D01*
X-66953454Y-28955888D01*
X-66953458Y-28955885D01*
X-67068182Y-28879228D01*
X-67068195Y-28879221D01*
X-67195667Y-28826421D01*
X-67195677Y-28826418D01*
X-67331005Y-28799500D01*
X-67331007Y-28799500D01*
X-67468993Y-28799500D01*
X-67468995Y-28799500D01*
X-67604322Y-28826418D01*
X-67604332Y-28826421D01*
X-67731804Y-28879221D01*
X-67731817Y-28879228D01*
X-67846541Y-28955885D01*
X-67846545Y-28955888D01*
X-67944111Y-29053454D01*
X-67944114Y-29053458D01*
X-68020771Y-29168182D01*
X-68020778Y-29168195D01*
X-68058629Y-29259576D01*
X-68073580Y-29295672D01*
X-68073580Y-29295676D01*
X-68073581Y-29295677D01*
X-68100500Y-29431004D01*
X-70954070Y-29431004D01*
X-71005885Y-29353458D01*
X-71005888Y-29353454D01*
X-71103454Y-29255888D01*
X-71103458Y-29255885D01*
X-71218182Y-29179228D01*
X-71218195Y-29179221D01*
X-71345667Y-29126421D01*
X-71345677Y-29126418D01*
X-71481005Y-29099500D01*
X-71481007Y-29099500D01*
X-71618993Y-29099500D01*
X-71618995Y-29099500D01*
X-71754322Y-29126418D01*
X-71754332Y-29126421D01*
X-71881804Y-29179221D01*
X-71881817Y-29179228D01*
X-71996541Y-29255885D01*
X-71996545Y-29255888D01*
X-72094111Y-29353454D01*
X-72094114Y-29353458D01*
X-72170771Y-29468182D01*
X-72170778Y-29468195D01*
X-72223578Y-29595667D01*
X-72223580Y-29595672D01*
X-72223580Y-29595676D01*
X-72223581Y-29595677D01*
X-72250500Y-29731004D01*
X-72808125Y-29731004D01*
X-72846498Y-29587792D01*
X-72941830Y-29357638D01*
X-72941837Y-29357623D01*
X-73066400Y-29141873D01*
X-73218060Y-28944225D01*
X-73218066Y-28944218D01*
X-73394218Y-28768066D01*
X-73394225Y-28768060D01*
X-73468338Y-28711192D01*
X-73585952Y-28620943D01*
X-53050500Y-28620943D01*
X-53050500Y-28779057D01*
X-53009577Y-28931784D01*
X-52930520Y-29068716D01*
X-52818716Y-29180520D01*
X-52681784Y-29259577D01*
X-52529057Y-29300500D01*
X-52529055Y-29300500D01*
X-52370945Y-29300500D01*
X-52370943Y-29300500D01*
X-52218216Y-29259577D01*
X-52211821Y-29255885D01*
X-52081290Y-29180524D01*
X-52081286Y-29180521D01*
X-52081284Y-29180520D01*
X-51969480Y-29068716D01*
X-51969479Y-29068714D01*
X-51969475Y-29068709D01*
X-51890426Y-28931790D01*
X-51890423Y-28931783D01*
X-51882429Y-28901951D01*
X-51849500Y-28779057D01*
X-51849500Y-28620943D01*
X-44250500Y-28620943D01*
X-44250500Y-28779057D01*
X-44209577Y-28931784D01*
X-44130520Y-29068716D01*
X-44018716Y-29180520D01*
X-43881784Y-29259577D01*
X-43729057Y-29300500D01*
X-43729055Y-29300500D01*
X-43570945Y-29300500D01*
X-43570943Y-29300500D01*
X-43418216Y-29259577D01*
X-43411821Y-29255885D01*
X-43281290Y-29180524D01*
X-43281286Y-29180521D01*
X-43281284Y-29180520D01*
X-43169480Y-29068716D01*
X-43169479Y-29068714D01*
X-43169475Y-29068709D01*
X-43090426Y-28931790D01*
X-43090423Y-28931783D01*
X-43082429Y-28901951D01*
X-43049500Y-28779057D01*
X-43049500Y-28620943D01*
X-43090423Y-28468216D01*
X-43090426Y-28468209D01*
X-43169475Y-28331290D01*
X-43169481Y-28331282D01*
X-43281282Y-28219481D01*
X-43281290Y-28219475D01*
X-43418209Y-28140426D01*
X-43418216Y-28140423D01*
X-43570943Y-28099500D01*
X-43729057Y-28099500D01*
X-43881784Y-28140423D01*
X-43881786Y-28140424D01*
X-43881790Y-28140426D01*
X-44018709Y-28219475D01*
X-44018717Y-28219481D01*
X-44130518Y-28331282D01*
X-44130524Y-28331290D01*
X-44168171Y-28396498D01*
X-44209577Y-28468216D01*
X-44250500Y-28620943D01*
X-51849500Y-28620943D01*
X-51890423Y-28468216D01*
X-51890426Y-28468209D01*
X-51969475Y-28331290D01*
X-51969481Y-28331282D01*
X-52081282Y-28219481D01*
X-52081290Y-28219475D01*
X-52218209Y-28140426D01*
X-52218216Y-28140423D01*
X-52370943Y-28099500D01*
X-52529057Y-28099500D01*
X-52681784Y-28140423D01*
X-52681786Y-28140424D01*
X-52681790Y-28140426D01*
X-52818709Y-28219475D01*
X-52818717Y-28219481D01*
X-52930518Y-28331282D01*
X-52930524Y-28331290D01*
X-52968171Y-28396498D01*
X-53009577Y-28468216D01*
X-53050500Y-28620943D01*
X-73585952Y-28620943D01*
X-73591873Y-28616400D01*
X-73807623Y-28491837D01*
X-73807638Y-28491830D01*
X-74037792Y-28396498D01*
X-74278438Y-28332017D01*
X-74525424Y-28299501D01*
X-74525429Y-28299500D01*
X-74525435Y-28299500D01*
X-74774565Y-28299500D01*
X-74774570Y-28299500D01*
X-74774575Y-28299501D01*
X-75021561Y-28332017D01*
X-75021564Y-28332017D01*
X-75021565Y-28332018D01*
X-75262207Y-28396498D01*
X-75492361Y-28491830D01*
X-75492376Y-28491837D01*
X-75708126Y-28616400D01*
X-75905774Y-28768060D01*
X-75905781Y-28768066D01*
X-76081933Y-28944218D01*
X-76081939Y-28944225D01*
X-76233599Y-29141873D01*
X-76358162Y-29357623D01*
X-76358169Y-29357638D01*
X-76369098Y-29384023D01*
X-76453502Y-29587793D01*
X-76517982Y-29828435D01*
X-76550500Y-30075435D01*
X-81560061Y-30075435D01*
X-81557987Y-30059970D01*
X-81549481Y-29996537D01*
X-81549500Y-29896382D01*
X-81549500Y-29830490D01*
X-81549500Y-27627525D01*
X-67750500Y-27627525D01*
X-67750500Y-27772475D01*
X-67712984Y-27912485D01*
X-67640509Y-28038015D01*
X-67538015Y-28140509D01*
X-67412488Y-28212982D01*
X-67412487Y-28212982D01*
X-67412485Y-28212984D01*
X-67272475Y-28250500D01*
X-67272472Y-28250500D01*
X-67127528Y-28250500D01*
X-67127525Y-28250500D01*
X-66987515Y-28212984D01*
X-66987512Y-28212982D01*
X-66987511Y-28212982D01*
X-66861988Y-28140511D01*
X-66861986Y-28140510D01*
X-66861985Y-28140509D01*
X-66759491Y-28038015D01*
X-66759490Y-28038013D01*
X-66759488Y-28038011D01*
X-66687017Y-27912488D01*
X-66683537Y-27899500D01*
X-66649500Y-27772475D01*
X-66649500Y-27727525D01*
X-64100500Y-27727525D01*
X-64100500Y-27872475D01*
X-64062984Y-28012485D01*
X-63990509Y-28138015D01*
X-63888015Y-28240509D01*
X-63762488Y-28312982D01*
X-63762487Y-28312982D01*
X-63762485Y-28312984D01*
X-63622475Y-28350500D01*
X-63622472Y-28350500D01*
X-63477528Y-28350500D01*
X-63477525Y-28350500D01*
X-63337515Y-28312984D01*
X-63337512Y-28312982D01*
X-63337511Y-28312982D01*
X-63211988Y-28240511D01*
X-63211986Y-28240510D01*
X-63211985Y-28240509D01*
X-63109491Y-28138015D01*
X-63109490Y-28138013D01*
X-63109488Y-28138011D01*
X-63037017Y-28012488D01*
X-63031365Y-27991394D01*
X-62999500Y-27872475D01*
X-62999500Y-27727525D01*
X-63037016Y-27587515D01*
X-63037015Y-27587515D01*
X-63037017Y-27587511D01*
X-63109488Y-27461988D01*
X-63109493Y-27461982D01*
X-63211982Y-27359493D01*
X-63211988Y-27359488D01*
X-63337511Y-27287017D01*
X-63337510Y-27287017D01*
X-63379108Y-27275870D01*
X-63477525Y-27249500D01*
X-63622475Y-27249500D01*
X-63762485Y-27287016D01*
X-63762488Y-27287017D01*
X-63888011Y-27359488D01*
X-63888017Y-27359493D01*
X-63990506Y-27461982D01*
X-63990511Y-27461988D01*
X-64005246Y-27487511D01*
X-64062984Y-27587515D01*
X-64100500Y-27727525D01*
X-66649500Y-27727525D01*
X-66649500Y-27627525D01*
X-66687016Y-27487515D01*
X-66687015Y-27487515D01*
X-66687017Y-27487511D01*
X-66759488Y-27361988D01*
X-66759493Y-27361982D01*
X-66861982Y-27259493D01*
X-66861988Y-27259488D01*
X-66987511Y-27187017D01*
X-66987510Y-27187017D01*
X-67029108Y-27175870D01*
X-67127525Y-27149500D01*
X-67272475Y-27149500D01*
X-67412485Y-27187016D01*
X-67412488Y-27187017D01*
X-67538011Y-27259488D01*
X-67538017Y-27259493D01*
X-67640506Y-27361982D01*
X-67640511Y-27361988D01*
X-67698244Y-27461985D01*
X-67712984Y-27487515D01*
X-67750500Y-27627525D01*
X-81549500Y-27627525D01*
X-81549500Y-25085266D01*
X-76400500Y-25085266D01*
X-76400500Y-25314734D01*
X-76370548Y-25542238D01*
X-76311158Y-25763887D01*
X-76223344Y-25975888D01*
X-76108611Y-26174612D01*
X-75968919Y-26356661D01*
X-75968914Y-26356665D01*
X-75968911Y-26356670D01*
X-75806670Y-26518911D01*
X-75806665Y-26518914D01*
X-75806661Y-26518919D01*
X-75624612Y-26658611D01*
X-75425888Y-26773344D01*
X-75213887Y-26861158D01*
X-74992238Y-26920548D01*
X-74764734Y-26950500D01*
X-74764727Y-26950500D01*
X-74535273Y-26950500D01*
X-74535266Y-26950500D01*
X-74307762Y-26920548D01*
X-74086113Y-26861158D01*
X-73965480Y-26811190D01*
X-73884205Y-26777525D01*
X-71700500Y-26777525D01*
X-71700500Y-26922475D01*
X-71662984Y-27062485D01*
X-71590509Y-27188015D01*
X-71488015Y-27290509D01*
X-71362488Y-27362982D01*
X-71362487Y-27362982D01*
X-71362485Y-27362984D01*
X-71222475Y-27400500D01*
X-71222472Y-27400500D01*
X-71077528Y-27400500D01*
X-71077525Y-27400500D01*
X-70937515Y-27362984D01*
X-70937512Y-27362982D01*
X-70937511Y-27362982D01*
X-70811988Y-27290511D01*
X-70811986Y-27290510D01*
X-70811985Y-27290509D01*
X-70709491Y-27188015D01*
X-70709490Y-27188013D01*
X-70709488Y-27188011D01*
X-70637017Y-27062488D01*
X-70637016Y-27062485D01*
X-70599500Y-26922475D01*
X-70599500Y-26777525D01*
X-70637016Y-26637515D01*
X-70637015Y-26637515D01*
X-70637017Y-26637511D01*
X-70709488Y-26511988D01*
X-70709493Y-26511982D01*
X-70811982Y-26409493D01*
X-70811988Y-26409488D01*
X-70937511Y-26337017D01*
X-70937510Y-26337017D01*
X-70979108Y-26325870D01*
X-71077525Y-26299500D01*
X-71222475Y-26299500D01*
X-71362485Y-26337016D01*
X-71362488Y-26337017D01*
X-71488011Y-26409488D01*
X-71488017Y-26409493D01*
X-71590506Y-26511982D01*
X-71590511Y-26511988D01*
X-71635843Y-26590506D01*
X-71662984Y-26637515D01*
X-71700500Y-26777525D01*
X-73884205Y-26777525D01*
X-73874123Y-26773349D01*
X-73874117Y-26773346D01*
X-73874112Y-26773344D01*
X-73675388Y-26658611D01*
X-73675385Y-26658608D01*
X-73675382Y-26658607D01*
X-73493338Y-26518918D01*
X-73493330Y-26518911D01*
X-73331089Y-26356670D01*
X-73331081Y-26356661D01*
X-73191392Y-26174617D01*
X-73076657Y-25975890D01*
X-73076653Y-25975881D01*
X-73015202Y-25827525D01*
X-69100500Y-25827525D01*
X-69100500Y-25972475D01*
X-69062984Y-26112485D01*
X-68990509Y-26238015D01*
X-68888015Y-26340509D01*
X-68762488Y-26412982D01*
X-68762487Y-26412982D01*
X-68762485Y-26412984D01*
X-68622475Y-26450500D01*
X-68622472Y-26450500D01*
X-68477528Y-26450500D01*
X-68477525Y-26450500D01*
X-68337515Y-26412984D01*
X-68337512Y-26412982D01*
X-68337511Y-26412982D01*
X-68211988Y-26340511D01*
X-68211986Y-26340510D01*
X-68211985Y-26340509D01*
X-68109491Y-26238015D01*
X-68109490Y-26238013D01*
X-68109488Y-26238011D01*
X-68037017Y-26112488D01*
X-68037017Y-26112487D01*
X-68027649Y-26077527D01*
X-68027648Y-26077525D01*
X-67300500Y-26077525D01*
X-67300500Y-26222475D01*
X-67262984Y-26362485D01*
X-67190509Y-26488015D01*
X-67088015Y-26590509D01*
X-66962488Y-26662982D01*
X-66962487Y-26662982D01*
X-66962485Y-26662984D01*
X-66822475Y-26700500D01*
X-66822472Y-26700500D01*
X-66677528Y-26700500D01*
X-66677525Y-26700500D01*
X-66537515Y-26662984D01*
X-66537512Y-26662982D01*
X-66537511Y-26662982D01*
X-66411988Y-26590511D01*
X-66411986Y-26590510D01*
X-66411985Y-26590509D01*
X-66309491Y-26488015D01*
X-66309490Y-26488013D01*
X-66309488Y-26488011D01*
X-66237017Y-26362488D01*
X-66235458Y-26356670D01*
X-66199500Y-26222475D01*
X-66199500Y-26077525D01*
X-66237016Y-25937515D01*
X-66237015Y-25937515D01*
X-66237017Y-25937511D01*
X-66309488Y-25811988D01*
X-66309493Y-25811982D01*
X-66411982Y-25709493D01*
X-66411988Y-25709488D01*
X-66537511Y-25637017D01*
X-66537510Y-25637017D01*
X-66579108Y-25625870D01*
X-66677525Y-25599500D01*
X-66822475Y-25599500D01*
X-66962485Y-25637016D01*
X-66962488Y-25637017D01*
X-67088011Y-25709488D01*
X-67088013Y-25709490D01*
X-67088015Y-25709491D01*
X-67190509Y-25811985D01*
X-67262984Y-25937515D01*
X-67300500Y-26077525D01*
X-68027648Y-26077525D01*
X-67999500Y-25972475D01*
X-67999500Y-25827525D01*
X-68037016Y-25687515D01*
X-68037015Y-25687515D01*
X-68037017Y-25687511D01*
X-68109488Y-25561988D01*
X-68109493Y-25561982D01*
X-68211982Y-25459493D01*
X-68211988Y-25459488D01*
X-68337511Y-25387017D01*
X-68337510Y-25387017D01*
X-68379108Y-25375870D01*
X-68477525Y-25349500D01*
X-68622475Y-25349500D01*
X-68762485Y-25387016D01*
X-68762488Y-25387017D01*
X-68888011Y-25459488D01*
X-68888017Y-25459493D01*
X-68990506Y-25561982D01*
X-68990511Y-25561988D01*
X-69033828Y-25637016D01*
X-69062984Y-25687515D01*
X-69100500Y-25827525D01*
X-73015202Y-25827525D01*
X-72992180Y-25771945D01*
X-72988842Y-25763887D01*
X-72929452Y-25542238D01*
X-72918558Y-25459491D01*
X-72899500Y-25314741D01*
X-72899500Y-25085258D01*
X-72929451Y-24857770D01*
X-72929453Y-24857759D01*
X-72988842Y-24636112D01*
X-73076650Y-24424123D01*
X-73076657Y-24424109D01*
X-73191392Y-24225382D01*
X-73331081Y-24043338D01*
X-73493338Y-23881081D01*
X-73675382Y-23741392D01*
X-73874109Y-23626657D01*
X-73874123Y-23626650D01*
X-74086112Y-23538842D01*
X-74231109Y-23499991D01*
X-74307762Y-23479452D01*
X-74318715Y-23478009D01*
X-74535258Y-23449500D01*
X-74535266Y-23449500D01*
X-74764734Y-23449500D01*
X-74764741Y-23449500D01*
X-74954215Y-23474446D01*
X-74992238Y-23479452D01*
X-75213887Y-23538842D01*
X-75425876Y-23626650D01*
X-75425888Y-23626656D01*
X-75600399Y-23727410D01*
X-75624617Y-23741392D01*
X-75806661Y-23881081D01*
X-75806670Y-23881089D01*
X-75968911Y-24043330D01*
X-75968918Y-24043338D01*
X-75968919Y-24043339D01*
X-75981313Y-24059491D01*
X-76108607Y-24225382D01*
X-76108608Y-24225385D01*
X-76108611Y-24225388D01*
X-76223344Y-24424112D01*
X-76223346Y-24424117D01*
X-76223349Y-24424123D01*
X-76261190Y-24515480D01*
X-76311158Y-24636113D01*
X-76370548Y-24857762D01*
X-76400500Y-25085266D01*
X-81549500Y-25085266D01*
X-81549500Y-20380032D01*
X-81549504Y-20380014D01*
X-81549506Y-20372401D01*
X-81549505Y-20372398D01*
X-81549506Y-20372387D01*
X-81549509Y-20340857D01*
X-81578795Y-20132765D01*
X-81636794Y-19930792D01*
X-81636800Y-19930776D01*
X-81722378Y-19738864D01*
X-81722379Y-19738863D01*
X-81833879Y-19560733D01*
X-81969105Y-19399896D01*
X-81979556Y-19390506D01*
X-81992428Y-19378939D01*
X-81992512Y-19378854D01*
X-82679722Y-18761530D01*
X-82775632Y-18675373D01*
X-76400000Y-18675373D01*
X-76400000Y-19950000D01*
X-75358241Y-19950000D01*
X-75371178Y-19981233D01*
X-75400000Y-20126131D01*
X-75400000Y-20273869D01*
X-75371178Y-20418767D01*
X-75358241Y-20450000D01*
X-76400000Y-20450000D01*
X-76400000Y-21724626D01*
X-76399999Y-21724628D01*
X-76385496Y-21797540D01*
X-76385494Y-21797544D01*
X-76330239Y-21880239D01*
X-76247544Y-21935494D01*
X-76247540Y-21935496D01*
X-76174628Y-21949999D01*
X-76174626Y-21950000D01*
X-74900000Y-21950000D01*
X-74900000Y-20908240D01*
X-74868767Y-20921178D01*
X-74723869Y-20950000D01*
X-74576131Y-20950000D01*
X-74431233Y-20921178D01*
X-74400000Y-20908240D01*
X-74400000Y-21950000D01*
X-73125374Y-21950000D01*
X-73125371Y-21949999D01*
X-73052459Y-21935496D01*
X-73052455Y-21935494D01*
X-72969760Y-21880239D01*
X-72914505Y-21797544D01*
X-72914503Y-21797540D01*
X-72900000Y-21724628D01*
X-72900000Y-20450000D01*
X-73941759Y-20450000D01*
X-73928822Y-20418767D01*
X-73900000Y-20273869D01*
X-73900000Y-20126131D01*
X-73910106Y-20075323D01*
X-71200500Y-20075323D01*
X-71200500Y-20075326D01*
X-71200500Y-22324674D01*
X-71185966Y-22397740D01*
X-71130601Y-22480601D01*
X-71047740Y-22535966D01*
X-70974677Y-22550499D01*
X-70974676Y-22550500D01*
X-70974674Y-22550500D01*
X-70869758Y-22550500D01*
X-70802719Y-22570185D01*
X-70756964Y-22622989D01*
X-70747020Y-22692147D01*
X-70776045Y-22755703D01*
X-70782077Y-22762181D01*
X-70880109Y-22860213D01*
X-71005048Y-23032179D01*
X-71005049Y-23032181D01*
X-71005051Y-23032184D01*
X-71101557Y-23221588D01*
X-71167246Y-23423757D01*
X-71200500Y-23633713D01*
X-71200500Y-23846287D01*
X-71167246Y-24056243D01*
X-71101557Y-24258412D01*
X-71005051Y-24447816D01*
X-71005048Y-24447820D01*
X-70880109Y-24619786D01*
X-70880106Y-24619788D01*
X-70880104Y-24619792D01*
X-70729792Y-24770104D01*
X-70729788Y-24770106D01*
X-70729786Y-24770109D01*
X-70609140Y-24857762D01*
X-70557816Y-24895051D01*
X-70368412Y-24991557D01*
X-70166243Y-25057246D01*
X-69956287Y-25090500D01*
X-69956286Y-25090500D01*
X-69743714Y-25090500D01*
X-69743713Y-25090500D01*
X-69533757Y-25057246D01*
X-69331588Y-24991557D01*
X-69142184Y-24895051D01*
X-69142181Y-24895049D01*
X-69142179Y-24895048D01*
X-68970213Y-24770109D01*
X-68819890Y-24619786D01*
X-68694951Y-24447820D01*
X-68598444Y-24258414D01*
X-68567436Y-24162984D01*
X-68532754Y-24056243D01*
X-68530708Y-24043330D01*
X-68499500Y-23846286D01*
X-68499500Y-23633713D01*
X-68532753Y-23423760D01*
X-68598444Y-23221585D01*
X-68694951Y-23032179D01*
X-68819890Y-22860213D01*
X-68819894Y-22860209D01*
X-68917923Y-22762181D01*
X-68951408Y-22700858D01*
X-68946424Y-22631166D01*
X-68904552Y-22575233D01*
X-68839088Y-22550816D01*
X-68830242Y-22550500D01*
X-68725324Y-22550500D01*
X-68725321Y-22550499D01*
X-68652264Y-22535967D01*
X-68652260Y-22535966D01*
X-68569399Y-22480601D01*
X-68514034Y-22397740D01*
X-68514033Y-22397739D01*
X-68514032Y-22397735D01*
X-68499500Y-22324678D01*
X-68499500Y-21093713D01*
X-67440500Y-21093713D01*
X-67440500Y-21306287D01*
X-67407246Y-21516243D01*
X-67341557Y-21718412D01*
X-67245051Y-21907816D01*
X-67245048Y-21907820D01*
X-67120109Y-22079786D01*
X-67120106Y-22079788D01*
X-67120104Y-22079792D01*
X-67041098Y-22158798D01*
X-67022077Y-22177819D01*
X-66988592Y-22239142D01*
X-66993576Y-22308834D01*
X-67035448Y-22364767D01*
X-67100912Y-22389184D01*
X-67109758Y-22389500D01*
X-67214677Y-22389500D01*
X-67287735Y-22404032D01*
X-67287739Y-22404033D01*
X-67287740Y-22404034D01*
X-67370601Y-22459399D01*
X-67421761Y-22535967D01*
X-67425966Y-22542260D01*
X-67425967Y-22542264D01*
X-67440499Y-22615321D01*
X-67440500Y-22615323D01*
X-67440500Y-22615326D01*
X-67440500Y-24864674D01*
X-67425966Y-24937740D01*
X-67370601Y-25020601D01*
X-67287740Y-25075966D01*
X-67214677Y-25090499D01*
X-67214676Y-25090500D01*
X-67214674Y-25090500D01*
X-64965324Y-25090500D01*
X-64965321Y-25090499D01*
X-64892264Y-25075967D01*
X-64892260Y-25075966D01*
X-64809399Y-25020601D01*
X-64754034Y-24937740D01*
X-64754033Y-24937739D01*
X-64754032Y-24937735D01*
X-64739500Y-24864678D01*
X-64739500Y-24427525D01*
X-51000500Y-24427525D01*
X-51000500Y-24572475D01*
X-50962984Y-24712485D01*
X-50890509Y-24838015D01*
X-50788015Y-24940509D01*
X-50662488Y-25012982D01*
X-50662487Y-25012982D01*
X-50662485Y-25012984D01*
X-50522475Y-25050500D01*
X-50522472Y-25050500D01*
X-50377528Y-25050500D01*
X-50377525Y-25050500D01*
X-50237515Y-25012984D01*
X-50237512Y-25012982D01*
X-50237511Y-25012982D01*
X-50111988Y-24940511D01*
X-50111986Y-24940510D01*
X-50111985Y-24940509D01*
X-50009491Y-24838015D01*
X-50009490Y-24838013D01*
X-50009488Y-24838011D01*
X-49937017Y-24712488D01*
X-49912179Y-24619792D01*
X-49899500Y-24572475D01*
X-49899500Y-24427525D01*
X-49937016Y-24287515D01*
X-49937015Y-24287515D01*
X-49937017Y-24287511D01*
X-50009488Y-24161988D01*
X-50009493Y-24161982D01*
X-50111982Y-24059493D01*
X-50111988Y-24059488D01*
X-50237511Y-23987017D01*
X-50237510Y-23987017D01*
X-50279108Y-23975870D01*
X-50377525Y-23949500D01*
X-50522475Y-23949500D01*
X-50662485Y-23987016D01*
X-50662488Y-23987017D01*
X-50788011Y-24059488D01*
X-50788017Y-24059493D01*
X-50890506Y-24161982D01*
X-50890511Y-24161988D01*
X-50946182Y-24258414D01*
X-50962984Y-24287515D01*
X-51000500Y-24427525D01*
X-64739500Y-24427525D01*
X-64739500Y-23027525D01*
X-64100500Y-23027525D01*
X-64100500Y-23172475D01*
X-64062984Y-23312485D01*
X-63990509Y-23438015D01*
X-63888015Y-23540509D01*
X-63762488Y-23612982D01*
X-63762487Y-23612982D01*
X-63762485Y-23612984D01*
X-63622475Y-23650500D01*
X-63622472Y-23650500D01*
X-63477528Y-23650500D01*
X-63477525Y-23650500D01*
X-63337515Y-23612984D01*
X-63337512Y-23612982D01*
X-63337511Y-23612982D01*
X-63276098Y-23577525D01*
X-47100500Y-23577525D01*
X-47100500Y-23722475D01*
X-47062984Y-23862485D01*
X-46990509Y-23988015D01*
X-46888015Y-24090509D01*
X-46762488Y-24162982D01*
X-46762487Y-24162982D01*
X-46762485Y-24162984D01*
X-46622475Y-24200500D01*
X-46622472Y-24200500D01*
X-46477528Y-24200500D01*
X-46477525Y-24200500D01*
X-46337515Y-24162984D01*
X-46337512Y-24162982D01*
X-46337511Y-24162982D01*
X-46211988Y-24090511D01*
X-46211986Y-24090510D01*
X-46211985Y-24090509D01*
X-46109491Y-23988015D01*
X-46109490Y-23988013D01*
X-46109488Y-23988011D01*
X-46037017Y-23862488D01*
X-46032676Y-23846287D01*
X-45999500Y-23722475D01*
X-45999500Y-23577525D01*
X-46037016Y-23437515D01*
X-46037015Y-23437515D01*
X-46037017Y-23437511D01*
X-46109488Y-23311988D01*
X-46109493Y-23311982D01*
X-46211982Y-23209493D01*
X-46211988Y-23209488D01*
X-46337511Y-23137017D01*
X-46337510Y-23137017D01*
X-46379108Y-23125870D01*
X-46477525Y-23099500D01*
X-46622475Y-23099500D01*
X-46762485Y-23137016D01*
X-46762488Y-23137017D01*
X-46888011Y-23209488D01*
X-46888017Y-23209493D01*
X-46990506Y-23311982D01*
X-46990511Y-23311988D01*
X-47000950Y-23330070D01*
X-47062984Y-23437515D01*
X-47100500Y-23577525D01*
X-63276098Y-23577525D01*
X-63211988Y-23540511D01*
X-63211986Y-23540510D01*
X-63211985Y-23540509D01*
X-63109491Y-23438015D01*
X-63109490Y-23438013D01*
X-63109488Y-23438011D01*
X-63037017Y-23312488D01*
X-63036881Y-23311982D01*
X-62999500Y-23172475D01*
X-62999500Y-23027525D01*
X-63037016Y-22887515D01*
X-63037015Y-22887515D01*
X-63037017Y-22887511D01*
X-63109488Y-22761988D01*
X-63109493Y-22761982D01*
X-63211982Y-22659493D01*
X-63211988Y-22659488D01*
X-63337511Y-22587017D01*
X-63337510Y-22587017D01*
X-63381489Y-22575233D01*
X-63477525Y-22549500D01*
X-63622475Y-22549500D01*
X-63762485Y-22587016D01*
X-63762488Y-22587017D01*
X-63888011Y-22659488D01*
X-63888017Y-22659493D01*
X-63990506Y-22761982D01*
X-63990511Y-22761988D01*
X-64054732Y-22873223D01*
X-64062984Y-22887515D01*
X-64100500Y-23027525D01*
X-64739500Y-23027525D01*
X-64739500Y-22615321D01*
X-64754032Y-22542264D01*
X-64754035Y-22542256D01*
X-64787261Y-22492530D01*
X-64787262Y-22492528D01*
X-64809399Y-22459399D01*
X-64892260Y-22404033D01*
X-64892264Y-22404032D01*
X-64965323Y-22389500D01*
X-64965326Y-22389500D01*
X-65070242Y-22389500D01*
X-65137281Y-22369815D01*
X-65183036Y-22317011D01*
X-65192980Y-22247853D01*
X-65163955Y-22184297D01*
X-65157923Y-22177819D01*
X-65059894Y-22079790D01*
X-65059890Y-22079785D01*
X-65017330Y-22021206D01*
X-35620000Y-22021206D01*
X-35620000Y-22225000D01*
X-35120000Y-22225000D01*
X-35120000Y-22475000D01*
X-35620000Y-22475000D01*
X-35620000Y-22678794D01*
X-35619999Y-22678797D01*
X-35589258Y-22833343D01*
X-35589256Y-22833351D01*
X-35528952Y-22978939D01*
X-35528947Y-22978948D01*
X-35441401Y-23109969D01*
X-35441398Y-23109973D01*
X-35329973Y-23221398D01*
X-35329969Y-23221401D01*
X-35198948Y-23308947D01*
X-35198939Y-23308952D01*
X-35053351Y-23369256D01*
X-35053343Y-23369258D01*
X-34945000Y-23390809D01*
X-34945000Y-22874242D01*
X-34935796Y-22879556D01*
X-34859496Y-22900000D01*
X-34780504Y-22900000D01*
X-34704204Y-22879556D01*
X-34695000Y-22874242D01*
X-34695000Y-23390809D01*
X-34694999Y-23390809D01*
X-34586656Y-23369258D01*
X-34586648Y-23369256D01*
X-34441060Y-23308952D01*
X-34441051Y-23308947D01*
X-34310030Y-23221401D01*
X-34310026Y-23221398D01*
X-34198601Y-23109973D01*
X-34198598Y-23109969D01*
X-34111052Y-22978948D01*
X-34111047Y-22978938D01*
X-34058180Y-22851307D01*
X-34014339Y-22796904D01*
X-33948044Y-22774839D01*
X-33880345Y-22792119D01*
X-33855938Y-22811079D01*
X-33807857Y-22859160D01*
X-33700496Y-22930897D01*
X-33581202Y-22980310D01*
X-33581197Y-22980310D01*
X-33581194Y-22980312D01*
X-33496774Y-22997103D01*
X-33454563Y-23005499D01*
X-33454562Y-23005500D01*
X-33454561Y-23005500D01*
X-33325438Y-23005500D01*
X-33325434Y-23005499D01*
X-33198805Y-22980312D01*
X-33198800Y-22980310D01*
X-33198798Y-22980310D01*
X-33141146Y-22956430D01*
X-33079508Y-22930899D01*
X-33079506Y-22930898D01*
X-33079505Y-22930897D01*
X-33079504Y-22930897D01*
X-32972143Y-22859160D01*
X-32972139Y-22859157D01*
X-32924061Y-22811079D01*
X-32862738Y-22777594D01*
X-32793046Y-22782578D01*
X-32737113Y-22824450D01*
X-32721819Y-22851308D01*
X-32668954Y-22978935D01*
X-32668947Y-22978948D01*
X-32581401Y-23109969D01*
X-32581398Y-23109973D01*
X-32469973Y-23221398D01*
X-32469969Y-23221401D01*
X-32338948Y-23308947D01*
X-32338939Y-23308952D01*
X-32193351Y-23369256D01*
X-32193343Y-23369258D01*
X-32085000Y-23390809D01*
X-32085000Y-22874242D01*
X-32075796Y-22879556D01*
X-31999496Y-22900000D01*
X-31920504Y-22900000D01*
X-31844204Y-22879556D01*
X-31835000Y-22874242D01*
X-31835000Y-23390809D01*
X-31834999Y-23390809D01*
X-31726656Y-23369258D01*
X-31726648Y-23369256D01*
X-31581060Y-23308952D01*
X-31581051Y-23308947D01*
X-31450030Y-23221401D01*
X-31450026Y-23221398D01*
X-31338601Y-23109973D01*
X-31338598Y-23109969D01*
X-31251052Y-22978948D01*
X-31251047Y-22978938D01*
X-31219546Y-22902888D01*
X-31219545Y-22902886D01*
X-31190744Y-22833355D01*
X-31190741Y-22833343D01*
X-31160000Y-22678797D01*
X-31160000Y-22475000D01*
X-31660000Y-22475000D01*
X-31660000Y-22225000D01*
X-31160000Y-22225000D01*
X-31160000Y-22021202D01*
X-31190741Y-21866656D01*
X-31190743Y-21866648D01*
X-31251047Y-21721060D01*
X-31251052Y-21721051D01*
X-31338598Y-21590030D01*
X-31338601Y-21590026D01*
X-31450026Y-21478601D01*
X-31450030Y-21478598D01*
X-31581051Y-21391052D01*
X-31581060Y-21391047D01*
X-31726648Y-21330743D01*
X-31726654Y-21330741D01*
X-31834999Y-21309189D01*
X-31835000Y-21309190D01*
X-31835000Y-21825757D01*
X-31844204Y-21820444D01*
X-31920504Y-21800000D01*
X-31999496Y-21800000D01*
X-32075796Y-21820444D01*
X-32085000Y-21825757D01*
X-32085000Y-21309189D01*
X-32193345Y-21330741D01*
X-32193351Y-21330743D01*
X-32338939Y-21391047D01*
X-32338948Y-21391052D01*
X-32469969Y-21478598D01*
X-32469973Y-21478601D01*
X-32581398Y-21590026D01*
X-32581401Y-21590030D01*
X-32668947Y-21721051D01*
X-32668952Y-21721060D01*
X-32721819Y-21848692D01*
X-32765660Y-21903095D01*
X-32831954Y-21925160D01*
X-32899654Y-21907881D01*
X-32924060Y-21888921D01*
X-32972138Y-21840843D01*
X-32972143Y-21840839D01*
X-33079506Y-21769101D01*
X-33079508Y-21769100D01*
X-33198796Y-21719690D01*
X-33198805Y-21719687D01*
X-33325434Y-21694500D01*
X-33325439Y-21694500D01*
X-33454561Y-21694500D01*
X-33454565Y-21694500D01*
X-33581194Y-21719687D01*
X-33581203Y-21719690D01*
X-33700491Y-21769100D01*
X-33700493Y-21769101D01*
X-33807856Y-21840839D01*
X-33807860Y-21840842D01*
X-33855938Y-21888920D01*
X-33917261Y-21922405D01*
X-33986953Y-21917421D01*
X-34042886Y-21875549D01*
X-34058180Y-21848693D01*
X-34111049Y-21721057D01*
X-34111052Y-21721051D01*
X-34198598Y-21590030D01*
X-34198601Y-21590026D01*
X-34310026Y-21478601D01*
X-34310030Y-21478598D01*
X-34441051Y-21391052D01*
X-34441060Y-21391047D01*
X-34586648Y-21330743D01*
X-34586654Y-21330741D01*
X-34694999Y-21309189D01*
X-34695000Y-21309190D01*
X-34695000Y-21825757D01*
X-34704204Y-21820444D01*
X-34780504Y-21800000D01*
X-34859496Y-21800000D01*
X-34935796Y-21820444D01*
X-34945000Y-21825757D01*
X-34945000Y-21309189D01*
X-35053345Y-21330741D01*
X-35053351Y-21330743D01*
X-35198939Y-21391047D01*
X-35198948Y-21391052D01*
X-35329969Y-21478598D01*
X-35329973Y-21478601D01*
X-35441398Y-21590026D01*
X-35441401Y-21590030D01*
X-35528947Y-21721051D01*
X-35528952Y-21721060D01*
X-35589256Y-21866648D01*
X-35589258Y-21866656D01*
X-35619999Y-22021202D01*
X-35620000Y-22021206D01*
X-65017330Y-22021206D01*
X-64959951Y-21942230D01*
X-64934950Y-21907818D01*
X-64838444Y-21718414D01*
X-64830673Y-21694500D01*
X-64772754Y-21516243D01*
X-64766791Y-21478598D01*
X-64749534Y-21369644D01*
X-64739500Y-21306287D01*
X-64739500Y-21093713D01*
X-64752286Y-21012984D01*
X-64772753Y-20883760D01*
X-64838444Y-20681585D01*
X-64934951Y-20492179D01*
X-65059890Y-20320213D01*
X-65059894Y-20320209D01*
X-65073025Y-20307079D01*
X-65152578Y-20227525D01*
X-50250500Y-20227525D01*
X-50250500Y-20372475D01*
X-50212984Y-20512485D01*
X-50140509Y-20638015D01*
X-50038015Y-20740509D01*
X-49912488Y-20812982D01*
X-49912487Y-20812982D01*
X-49912485Y-20812984D01*
X-49772475Y-20850500D01*
X-49772472Y-20850500D01*
X-49627528Y-20850500D01*
X-49627525Y-20850500D01*
X-49487515Y-20812984D01*
X-49487512Y-20812982D01*
X-49487511Y-20812982D01*
X-49361988Y-20740511D01*
X-49361986Y-20740510D01*
X-49361985Y-20740509D01*
X-49259491Y-20638015D01*
X-49259490Y-20638013D01*
X-49259488Y-20638011D01*
X-49187017Y-20512488D01*
X-49187016Y-20512485D01*
X-49164251Y-20427525D01*
X-46400500Y-20427525D01*
X-46400500Y-20572475D01*
X-46362984Y-20712485D01*
X-46290509Y-20838015D01*
X-46188015Y-20940509D01*
X-46062488Y-21012982D01*
X-46062487Y-21012982D01*
X-46062485Y-21012984D01*
X-45922475Y-21050500D01*
X-45922472Y-21050500D01*
X-45777528Y-21050500D01*
X-45777525Y-21050500D01*
X-45637515Y-21012984D01*
X-45637512Y-21012982D01*
X-45637511Y-21012982D01*
X-45511988Y-20940511D01*
X-45511986Y-20940510D01*
X-45511985Y-20940509D01*
X-45409491Y-20838015D01*
X-45409490Y-20838013D01*
X-45409488Y-20838011D01*
X-45337017Y-20712488D01*
X-45328737Y-20681588D01*
X-45319773Y-20648137D01*
X-45283410Y-20588479D01*
X-45220563Y-20557950D01*
X-45151187Y-20566245D01*
X-45097309Y-20610730D01*
X-45080226Y-20648135D01*
X-45062984Y-20712485D01*
X-44990509Y-20838015D01*
X-44888015Y-20940509D01*
X-44762488Y-21012982D01*
X-44762487Y-21012982D01*
X-44762485Y-21012984D01*
X-44622475Y-21050500D01*
X-44622472Y-21050500D01*
X-44477528Y-21050500D01*
X-44477525Y-21050500D01*
X-44337515Y-21012984D01*
X-44337512Y-21012982D01*
X-44337511Y-21012982D01*
X-44211988Y-20940511D01*
X-44211986Y-20940510D01*
X-44211985Y-20940509D01*
X-44109491Y-20838015D01*
X-44077476Y-20782563D01*
X-44057387Y-20747769D01*
X-44006820Y-20699553D01*
X-43938213Y-20686331D01*
X-43873348Y-20712299D01*
X-43842612Y-20747769D01*
X-43790509Y-20838015D01*
X-43688015Y-20940509D01*
X-43562488Y-21012982D01*
X-43562487Y-21012982D01*
X-43562485Y-21012984D01*
X-43422475Y-21050500D01*
X-43422472Y-21050500D01*
X-43277528Y-21050500D01*
X-43277525Y-21050500D01*
X-43137515Y-21012984D01*
X-43137512Y-21012982D01*
X-43137511Y-21012982D01*
X-43011988Y-20940511D01*
X-43011986Y-20940510D01*
X-43011985Y-20940509D01*
X-42909491Y-20838015D01*
X-42909490Y-20838013D01*
X-42909488Y-20838011D01*
X-42837017Y-20712488D01*
X-42828737Y-20681588D01*
X-42799500Y-20572475D01*
X-42799500Y-20427525D01*
X-42837016Y-20287515D01*
X-42837015Y-20287515D01*
X-42837017Y-20287511D01*
X-42909488Y-20161988D01*
X-42909493Y-20161982D01*
X-43011982Y-20059493D01*
X-43011988Y-20059488D01*
X-43137511Y-19987017D01*
X-43137510Y-19987017D01*
X-43179108Y-19975870D01*
X-43277525Y-19949500D01*
X-43422475Y-19949500D01*
X-43562485Y-19987016D01*
X-43562488Y-19987017D01*
X-43688011Y-20059488D01*
X-43688013Y-20059490D01*
X-43688015Y-20059491D01*
X-43790509Y-20161985D01*
X-43828349Y-20227525D01*
X-43842613Y-20252231D01*
X-43893181Y-20300446D01*
X-43961788Y-20313668D01*
X-44026653Y-20287700D01*
X-44057387Y-20252231D01*
X-44109491Y-20161985D01*
X-44109493Y-20161982D01*
X-44211982Y-20059493D01*
X-44211988Y-20059488D01*
X-44337511Y-19987017D01*
X-44337510Y-19987017D01*
X-44379108Y-19975870D01*
X-44477525Y-19949500D01*
X-44622475Y-19949500D01*
X-44762485Y-19987016D01*
X-44762488Y-19987017D01*
X-44888011Y-20059488D01*
X-44888017Y-20059493D01*
X-44990506Y-20161982D01*
X-44990511Y-20161988D01*
X-45055105Y-20273869D01*
X-45062984Y-20287515D01*
X-45080225Y-20351860D01*
X-45116591Y-20411520D01*
X-45179438Y-20442049D01*
X-45248813Y-20433754D01*
X-45302691Y-20389268D01*
X-45319775Y-20351860D01*
X-45322436Y-20341930D01*
X-45337016Y-20287515D01*
X-45337015Y-20287515D01*
X-45337017Y-20287511D01*
X-45409488Y-20161988D01*
X-45409493Y-20161982D01*
X-45511982Y-20059493D01*
X-45511988Y-20059488D01*
X-45637511Y-19987017D01*
X-45637510Y-19987017D01*
X-45679108Y-19975870D01*
X-45777525Y-19949500D01*
X-45922475Y-19949500D01*
X-46062485Y-19987016D01*
X-46062488Y-19987017D01*
X-46188011Y-20059488D01*
X-46188017Y-20059493D01*
X-46290506Y-20161982D01*
X-46290511Y-20161988D01*
X-46355105Y-20273869D01*
X-46362984Y-20287515D01*
X-46400500Y-20427525D01*
X-49164251Y-20427525D01*
X-49149500Y-20372475D01*
X-49149500Y-20227525D01*
X-49187016Y-20087515D01*
X-49187015Y-20087515D01*
X-49187017Y-20087511D01*
X-49259488Y-19961988D01*
X-49259493Y-19961982D01*
X-49361982Y-19859493D01*
X-49361988Y-19859488D01*
X-49487511Y-19787017D01*
X-49487510Y-19787017D01*
X-49529108Y-19775870D01*
X-49627525Y-19749500D01*
X-49772475Y-19749500D01*
X-49912485Y-19787016D01*
X-49912488Y-19787017D01*
X-50038011Y-19859488D01*
X-50038017Y-19859493D01*
X-50140506Y-19961982D01*
X-50140511Y-19961988D01*
X-50196805Y-20059493D01*
X-50212984Y-20087515D01*
X-50250500Y-20227525D01*
X-65152578Y-20227525D01*
X-65210209Y-20169894D01*
X-65210213Y-20169890D01*
X-65382179Y-20044951D01*
X-65571585Y-19948444D01*
X-65773760Y-19882753D01*
X-65773759Y-19882753D01*
X-65944202Y-19855757D01*
X-65983713Y-19849500D01*
X-66196287Y-19849500D01*
X-66259348Y-19859488D01*
X-66406239Y-19882753D01*
X-66406241Y-19882753D01*
X-66406243Y-19882754D01*
X-66608412Y-19948443D01*
X-66608413Y-19948443D01*
X-66608414Y-19948444D01*
X-66797820Y-20044951D01*
X-66969786Y-20169890D01*
X-67120109Y-20320213D01*
X-67245048Y-20492179D01*
X-67245049Y-20492181D01*
X-67245051Y-20492184D01*
X-67341557Y-20681588D01*
X-67407246Y-20883757D01*
X-67440500Y-21093713D01*
X-68499500Y-21093713D01*
X-68499500Y-20075321D01*
X-68514032Y-20002264D01*
X-68514033Y-20002260D01*
X-68569399Y-19919399D01*
X-68652260Y-19864033D01*
X-68652264Y-19864032D01*
X-68725323Y-19849500D01*
X-68725326Y-19849500D01*
X-70974674Y-19849500D01*
X-70974677Y-19849500D01*
X-71047735Y-19864032D01*
X-71047739Y-19864033D01*
X-71047740Y-19864034D01*
X-71130601Y-19919399D01*
X-71171916Y-19981233D01*
X-71185966Y-20002260D01*
X-71185967Y-20002264D01*
X-71200499Y-20075321D01*
X-71200500Y-20075323D01*
X-73910106Y-20075323D01*
X-73928822Y-19981233D01*
X-73941759Y-19950000D01*
X-72900000Y-19950000D01*
X-72900000Y-18675371D01*
X-72914503Y-18602459D01*
X-72914505Y-18602455D01*
X-72969760Y-18519760D01*
X-73052455Y-18464505D01*
X-73052459Y-18464503D01*
X-73125373Y-18450000D01*
X-74400000Y-18450000D01*
X-74400000Y-19491759D01*
X-74431233Y-19478822D01*
X-74576131Y-19450000D01*
X-74723869Y-19450000D01*
X-74868767Y-19478822D01*
X-74900000Y-19491759D01*
X-74900000Y-18450000D01*
X-76174627Y-18450000D01*
X-76247540Y-18464503D01*
X-76247544Y-18464505D01*
X-76330239Y-18519760D01*
X-76385494Y-18602455D01*
X-76385496Y-18602459D01*
X-76399999Y-18675371D01*
X-76400000Y-18675373D01*
X-82775632Y-18675373D01*
X-83887556Y-17676525D01*
X-37006831Y-17676525D01*
X-37006831Y-17821475D01*
X-36969315Y-17961485D01*
X-36896840Y-18087015D01*
X-36794346Y-18189509D01*
X-36700066Y-18243941D01*
X-36651853Y-18294507D01*
X-36638629Y-18363114D01*
X-36664597Y-18427978D01*
X-36700067Y-18458714D01*
X-36788015Y-18509491D01*
X-36890509Y-18611985D01*
X-36962984Y-18737515D01*
X-37000500Y-18877525D01*
X-37000500Y-19022475D01*
X-36962984Y-19162485D01*
X-36890509Y-19288015D01*
X-36788015Y-19390509D01*
X-36662488Y-19462982D01*
X-36662487Y-19462982D01*
X-36662485Y-19462984D01*
X-36522475Y-19500500D01*
X-36522472Y-19500500D01*
X-36377528Y-19500500D01*
X-36377525Y-19500500D01*
X-36237515Y-19462984D01*
X-36237512Y-19462982D01*
X-36237511Y-19462982D01*
X-36111988Y-19390511D01*
X-36111986Y-19390510D01*
X-36111985Y-19390509D01*
X-36009491Y-19288015D01*
X-36009490Y-19288013D01*
X-36009488Y-19288011D01*
X-35937017Y-19162489D01*
X-35930783Y-19139224D01*
X-33570500Y-19139224D01*
X-33570500Y-19271008D01*
X-33536392Y-19398302D01*
X-33470500Y-19512430D01*
X-33377314Y-19605616D01*
X-33263186Y-19671508D01*
X-33135892Y-19705616D01*
X-33135890Y-19705616D01*
X-33004110Y-19705616D01*
X-33004108Y-19705616D01*
X-32876814Y-19671508D01*
X-32762686Y-19605616D01*
X-32669500Y-19512430D01*
X-32604528Y-19399896D01*
X-32603608Y-19398303D01*
X-32569500Y-19271007D01*
X-32569500Y-19139224D01*
X-32603609Y-19011927D01*
X-32603609Y-19011926D01*
X-32650101Y-18931400D01*
X-32650103Y-18931399D01*
X-32669500Y-18897802D01*
X-32669502Y-18897799D01*
X-32689776Y-18877525D01*
X-30921000Y-18877525D01*
X-30921000Y-19022475D01*
X-30883484Y-19162485D01*
X-30811009Y-19288015D01*
X-30708515Y-19390509D01*
X-30582988Y-19462982D01*
X-30582987Y-19462982D01*
X-30582985Y-19462984D01*
X-30442975Y-19500500D01*
X-30442972Y-19500500D01*
X-30298028Y-19500500D01*
X-30298025Y-19500500D01*
X-30158015Y-19462984D01*
X-30158012Y-19462982D01*
X-30158011Y-19462982D01*
X-30032488Y-19390511D01*
X-30032486Y-19390510D01*
X-30032485Y-19390509D01*
X-29929991Y-19288015D01*
X-29929990Y-19288013D01*
X-29929988Y-19288011D01*
X-29857517Y-19162488D01*
X-29852461Y-19143620D01*
X-29820000Y-19022475D01*
X-29820000Y-18877525D01*
X-29857516Y-18737515D01*
X-29857515Y-18737515D01*
X-29857517Y-18737511D01*
X-29929988Y-18611988D01*
X-29929991Y-18611985D01*
X-29976738Y-18565237D01*
X-30010222Y-18503913D01*
X-30005236Y-18434221D01*
X-29976736Y-18389876D01*
X-29879993Y-18293133D01*
X-29879988Y-18293127D01*
X-29807517Y-18167604D01*
X-29799056Y-18136027D01*
X-29770000Y-18027591D01*
X-29770000Y-17882641D01*
X-29807516Y-17742631D01*
X-29807515Y-17742631D01*
X-29807517Y-17742627D01*
X-29879988Y-17617104D01*
X-29879993Y-17617098D01*
X-29982482Y-17514609D01*
X-29982488Y-17514604D01*
X-30108011Y-17442133D01*
X-30108010Y-17442133D01*
X-30149608Y-17430986D01*
X-30248025Y-17404616D01*
X-30392975Y-17404616D01*
X-30532985Y-17442132D01*
X-30532988Y-17442133D01*
X-30658511Y-17514604D01*
X-30658517Y-17514609D01*
X-30761006Y-17617098D01*
X-30761011Y-17617104D01*
X-30791736Y-17670322D01*
X-30833484Y-17742631D01*
X-30871000Y-17882641D01*
X-30871000Y-18027591D01*
X-30833484Y-18167601D01*
X-30761009Y-18293131D01*
X-30718256Y-18335884D01*
X-30714263Y-18339877D01*
X-30680778Y-18401200D01*
X-30685762Y-18470892D01*
X-30714263Y-18515239D01*
X-30811009Y-18611985D01*
X-30883484Y-18737515D01*
X-30921000Y-18877525D01*
X-32689776Y-18877525D01*
X-32762683Y-18804618D01*
X-32762686Y-18804616D01*
X-32876812Y-18738724D01*
X-33004108Y-18704616D01*
X-33135892Y-18704616D01*
X-33199539Y-18721670D01*
X-33263187Y-18738724D01*
X-33302687Y-18761530D01*
X-33377314Y-18804616D01*
X-33470500Y-18897802D01*
X-33536392Y-19011930D01*
X-33570500Y-19139224D01*
X-35930783Y-19139224D01*
X-35920006Y-19099002D01*
X-35920005Y-19099000D01*
X-35899500Y-19022474D01*
X-35899500Y-18877527D01*
X-35899500Y-18877525D01*
X-35937016Y-18737515D01*
X-35937015Y-18737515D01*
X-35937017Y-18737511D01*
X-36009488Y-18611988D01*
X-36009493Y-18611982D01*
X-36111982Y-18509493D01*
X-36111985Y-18509491D01*
X-36206263Y-18455059D01*
X-36254478Y-18404491D01*
X-36267700Y-18335884D01*
X-36241732Y-18271019D01*
X-36206262Y-18240285D01*
X-36149786Y-18207678D01*
X-36118316Y-18189509D01*
X-36015822Y-18087015D01*
X-35986609Y-18036416D01*
X-34271000Y-18036416D01*
X-34271000Y-18168200D01*
X-34236892Y-18295494D01*
X-34171000Y-18409622D01*
X-34077814Y-18502808D01*
X-33963686Y-18568700D01*
X-33836392Y-18602808D01*
X-33836390Y-18602808D01*
X-33704610Y-18602808D01*
X-33704608Y-18602808D01*
X-33577314Y-18568700D01*
X-33463186Y-18502808D01*
X-33370000Y-18409622D01*
X-33337054Y-18352558D01*
X-33304108Y-18295495D01*
X-33270000Y-18168199D01*
X-33270000Y-18036416D01*
X-33304108Y-17909120D01*
X-33370000Y-17794994D01*
X-33370002Y-17794991D01*
X-33463183Y-17701810D01*
X-33463186Y-17701808D01*
X-33577312Y-17635916D01*
X-33704608Y-17601808D01*
X-33836392Y-17601808D01*
X-33893467Y-17617101D01*
X-33963687Y-17635916D01*
X-34020750Y-17668862D01*
X-34077814Y-17701808D01*
X-34171000Y-17794994D01*
X-34236892Y-17909122D01*
X-34271000Y-18036416D01*
X-35986609Y-18036416D01*
X-35946120Y-17966288D01*
X-35946118Y-17966286D01*
X-35943348Y-17961488D01*
X-35932972Y-17922764D01*
X-35905831Y-17821475D01*
X-35905831Y-17676525D01*
X-35943347Y-17536515D01*
X-35943346Y-17536515D01*
X-35943348Y-17536511D01*
X-36015819Y-17410988D01*
X-36015824Y-17410982D01*
X-36118313Y-17308493D01*
X-36118319Y-17308488D01*
X-36243842Y-17236017D01*
X-36243841Y-17236017D01*
X-36285439Y-17224870D01*
X-36383856Y-17198500D01*
X-36528806Y-17198500D01*
X-36668816Y-17236016D01*
X-36668819Y-17236017D01*
X-36794342Y-17308488D01*
X-36794348Y-17308493D01*
X-36896837Y-17410982D01*
X-36896842Y-17410988D01*
X-36956666Y-17514607D01*
X-36969315Y-17536515D01*
X-37006831Y-17676525D01*
X-83887556Y-17676525D01*
X-84431101Y-17188255D01*
X-84431192Y-17188187D01*
X-84462314Y-17160238D01*
X-84521642Y-17120899D01*
X-84521654Y-17120891D01*
X-84645687Y-17038650D01*
X-84645697Y-17038644D01*
X-84669369Y-17027525D01*
X-55300500Y-17027525D01*
X-55300500Y-17172475D01*
X-55262984Y-17312485D01*
X-55190509Y-17438015D01*
X-55088015Y-17540509D01*
X-54962488Y-17612982D01*
X-54962487Y-17612982D01*
X-54962485Y-17612984D01*
X-54822475Y-17650500D01*
X-54822472Y-17650500D01*
X-54677528Y-17650500D01*
X-54677525Y-17650500D01*
X-54537515Y-17612984D01*
X-54537512Y-17612982D01*
X-54537511Y-17612982D01*
X-54503210Y-17593178D01*
X-54411985Y-17540509D01*
X-54309491Y-17438015D01*
X-54309490Y-17438013D01*
X-54309488Y-17438011D01*
X-54237017Y-17312488D01*
X-54237016Y-17312485D01*
X-54199500Y-17172475D01*
X-54199500Y-17027525D01*
X-54237016Y-16887515D01*
X-54237015Y-16887515D01*
X-54237017Y-16887511D01*
X-54309488Y-16761988D01*
X-54309493Y-16761982D01*
X-54411982Y-16659493D01*
X-54411988Y-16659488D01*
X-54537511Y-16587017D01*
X-54537510Y-16587017D01*
X-54579108Y-16575870D01*
X-54677525Y-16549500D01*
X-54822475Y-16549500D01*
X-54962485Y-16587016D01*
X-54962488Y-16587017D01*
X-55088011Y-16659488D01*
X-55088017Y-16659493D01*
X-55190506Y-16761982D01*
X-55190511Y-16761988D01*
X-55259572Y-16881606D01*
X-55262984Y-16887515D01*
X-55300500Y-17027525D01*
X-84669369Y-17027525D01*
X-84844836Y-16945106D01*
X-84844851Y-16945100D01*
X-85055511Y-16881605D01*
X-85235542Y-16855063D01*
X-85273183Y-16849514D01*
X-85273313Y-16849513D01*
X-85309646Y-16849509D01*
X-85309794Y-16849500D01*
X-85317306Y-16849500D01*
X-90683041Y-16849500D01*
X-90696922Y-16848720D01*
X-90722898Y-16845793D01*
X-90787266Y-16838541D01*
X-90814337Y-16832362D01*
X-90893535Y-16804649D01*
X-90918552Y-16792602D01*
X-90989604Y-16747957D01*
X-91011313Y-16730644D01*
X-91070644Y-16671313D01*
X-91087957Y-16649604D01*
X-91132602Y-16578552D01*
X-91144649Y-16553535D01*
X-91172362Y-16474337D01*
X-91178541Y-16447265D01*
X-91188720Y-16356923D01*
X-91189500Y-16343040D01*
X-91189500Y-16305135D01*
X-25000500Y-16305135D01*
X-25000499Y-17794864D01*
X-25000497Y-17794879D01*
X-25000497Y-17794882D01*
X-24997586Y-17819987D01*
X-24997585Y-17819988D01*
X-24997585Y-17819991D01*
X-24952206Y-17922765D01*
X-24872765Y-18002206D01*
X-24769991Y-18047585D01*
X-24744865Y-18050500D01*
X-24643768Y-18050499D01*
X-24576733Y-18070183D01*
X-24530977Y-18122986D01*
X-24521033Y-18192145D01*
X-24550057Y-18255701D01*
X-24574879Y-18277601D01*
X-24625911Y-18311700D01*
X-24758299Y-18444088D01*
X-24758302Y-18444092D01*
X-24862318Y-18599762D01*
X-24862323Y-18599771D01*
X-24863581Y-18602808D01*
X-24933973Y-18772749D01*
X-24970500Y-18956384D01*
X-24970500Y-19143616D01*
X-24933973Y-19327251D01*
X-24862322Y-19500231D01*
X-24758302Y-19655908D01*
X-24625908Y-19788302D01*
X-24470231Y-19892322D01*
X-24470224Y-19892324D01*
X-24470224Y-19892325D01*
X-24356138Y-19939581D01*
X-24301734Y-19983422D01*
X-24279669Y-20049716D01*
X-24296948Y-20117415D01*
X-24348085Y-20165026D01*
X-24356132Y-20168700D01*
X-24375385Y-20176675D01*
X-24450228Y-20207676D01*
X-24450237Y-20207681D01*
X-24605907Y-20311697D01*
X-24605911Y-20311700D01*
X-24738299Y-20444088D01*
X-24738302Y-20444092D01*
X-24842318Y-20599762D01*
X-24842321Y-20599768D01*
X-24842322Y-20599769D01*
X-24913973Y-20772749D01*
X-24950500Y-20956384D01*
X-24950500Y-21143616D01*
X-24913973Y-21327251D01*
X-24842322Y-21500231D01*
X-24738302Y-21655908D01*
X-24605908Y-21788302D01*
X-24450231Y-21892322D01*
X-24345483Y-21935709D01*
X-24291081Y-21979549D01*
X-24269016Y-22045843D01*
X-24286295Y-22113543D01*
X-24337432Y-22161154D01*
X-24345484Y-22164831D01*
X-24449990Y-22208119D01*
X-24449999Y-22208124D01*
X-24578940Y-22294280D01*
X-24578940Y-22294281D01*
X-24144145Y-22729077D01*
X-24214905Y-22769930D01*
X-24280070Y-22835095D01*
X-24320922Y-22905853D01*
X-24755718Y-22471057D01*
X-24841880Y-22600008D01*
X-24913491Y-22772894D01*
X-24913493Y-22772902D01*
X-24949999Y-22956428D01*
X-24950000Y-22956430D01*
X-24950000Y-23143569D01*
X-24949999Y-23143571D01*
X-24913493Y-23327097D01*
X-24913491Y-23327105D01*
X-24841880Y-23499991D01*
X-24755718Y-23628941D01*
X-24755717Y-23628941D01*
X-24320922Y-23194146D01*
X-24280070Y-23264905D01*
X-24214905Y-23330070D01*
X-24144146Y-23370922D01*
X-24578941Y-23805717D01*
X-24578941Y-23805718D01*
X-24449991Y-23891880D01*
X-24277105Y-23963491D01*
X-24277097Y-23963493D01*
X-24093571Y-23999999D01*
X-24093569Y-24000000D01*
X-23906431Y-24000000D01*
X-23906428Y-23999999D01*
X-23722902Y-23963493D01*
X-23722894Y-23963491D01*
X-23550008Y-23891880D01*
X-23421057Y-23805718D01*
X-23855853Y-23370922D01*
X-23785095Y-23330070D01*
X-23719930Y-23264905D01*
X-23679077Y-23194145D01*
X-23244281Y-23628940D01*
X-23244280Y-23628940D01*
X-23158124Y-23499999D01*
X-23158119Y-23499991D01*
X-23086508Y-23327105D01*
X-23086506Y-23327097D01*
X-23050000Y-23143571D01*
X-23050000Y-22956428D01*
X-23086506Y-22772902D01*
X-23086508Y-22772894D01*
X-23158121Y-22600003D01*
X-23244279Y-22471058D01*
X-23244281Y-22471058D01*
X-23679077Y-22905854D01*
X-23719930Y-22835095D01*
X-23785095Y-22769930D01*
X-23855854Y-22729077D01*
X-23421058Y-22294281D01*
X-23421058Y-22294279D01*
X-23550004Y-22208121D01*
X-23654515Y-22164831D01*
X-23708919Y-22120989D01*
X-23730983Y-22054695D01*
X-23713703Y-21986996D01*
X-23662566Y-21939386D01*
X-23654514Y-21935709D01*
X-23549775Y-21892325D01*
X-23549762Y-21892318D01*
X-23394092Y-21788302D01*
X-23394088Y-21788299D01*
X-23261700Y-21655911D01*
X-23261697Y-21655907D01*
X-23157681Y-21500237D01*
X-23157676Y-21500228D01*
X-23086027Y-21327251D01*
X-23086025Y-21327243D01*
X-23049500Y-21143620D01*
X-23049500Y-20956379D01*
X-23086025Y-20772756D01*
X-23086027Y-20772748D01*
X-23157676Y-20599771D01*
X-23157681Y-20599762D01*
X-23261697Y-20444092D01*
X-23261700Y-20444088D01*
X-23394088Y-20311700D01*
X-23394092Y-20311697D01*
X-23549762Y-20207681D01*
X-23549768Y-20207678D01*
X-23663863Y-20160418D01*
X-23718266Y-20116576D01*
X-23740330Y-20050282D01*
X-23723050Y-19982583D01*
X-23671913Y-19934973D01*
X-23663869Y-19931299D01*
X-23624739Y-19915091D01*
X-23569775Y-19892325D01*
X-23569762Y-19892318D01*
X-23414092Y-19788302D01*
X-23414088Y-19788299D01*
X-23281700Y-19655911D01*
X-23281697Y-19655907D01*
X-23177681Y-19500237D01*
X-23177676Y-19500228D01*
X-23106027Y-19327251D01*
X-23106025Y-19327243D01*
X-23069500Y-19143620D01*
X-23069500Y-18956379D01*
X-23106025Y-18772756D01*
X-23106027Y-18772748D01*
X-23177676Y-18599771D01*
X-23177681Y-18599762D01*
X-23281697Y-18444092D01*
X-23281700Y-18444088D01*
X-23414088Y-18311700D01*
X-23465121Y-18277601D01*
X-23509925Y-18223988D01*
X-23518632Y-18154663D01*
X-23488477Y-18091636D01*
X-23429033Y-18054917D01*
X-23396229Y-18050499D01*
X-23255136Y-18050499D01*
X-23255121Y-18050497D01*
X-23255117Y-18050497D01*
X-23230012Y-18047586D01*
X-23230010Y-18047585D01*
X-23230009Y-18047585D01*
X-23127235Y-18002206D01*
X-23047794Y-17922765D01*
X-23030078Y-17882643D01*
X-23002415Y-17819993D01*
X-23002415Y-17819991D01*
X-22999500Y-17794868D01*
X-22999500Y-16305143D01*
X-22999502Y-16305117D01*
X-23002413Y-16280012D01*
X-23002415Y-16280008D01*
X-23047793Y-16177235D01*
X-23127234Y-16097794D01*
X-23230007Y-16052415D01*
X-23255134Y-16049500D01*
X-24744856Y-16049500D01*
X-24744882Y-16049502D01*
X-24769987Y-16052413D01*
X-24769991Y-16052415D01*
X-24872764Y-16097793D01*
X-24872765Y-16097794D01*
X-24952206Y-16177235D01*
X-24997585Y-16280009D01*
X-25000500Y-16305135D01*
X-91189500Y-16305135D01*
X-91189500Y-13651508D01*
X-90790000Y-13651508D01*
X-90790000Y-13875000D01*
X-90190000Y-13875000D01*
X-90190000Y-14125000D01*
X-90790000Y-14125000D01*
X-90790000Y-14348492D01*
X-90789999Y-14348495D01*
X-90751572Y-14541681D01*
X-90751569Y-14541693D01*
X-90676192Y-14723671D01*
X-90676185Y-14723684D01*
X-90566751Y-14887462D01*
X-90566748Y-14887466D01*
X-90427466Y-15026748D01*
X-90427462Y-15026751D01*
X-90263684Y-15136185D01*
X-90263671Y-15136192D01*
X-90081693Y-15211569D01*
X-90081681Y-15211572D01*
X-89915000Y-15244727D01*
X-89915000Y-14480617D01*
X-89842661Y-14500000D01*
X-89737339Y-14500000D01*
X-89665000Y-14480617D01*
X-89665000Y-15244727D01*
X-89664999Y-15244727D01*
X-89540951Y-15220053D01*
X-89498318Y-15211572D01*
X-89498306Y-15211569D01*
X-89316328Y-15136192D01*
X-89316315Y-15136185D01*
X-89299576Y-15125000D01*
X-88534728Y-15125000D01*
X-87770617Y-15125000D01*
X-87790000Y-15197339D01*
X-87790000Y-15302661D01*
X-87770617Y-15375000D01*
X-88534727Y-15375000D01*
X-88501572Y-15541681D01*
X-88501569Y-15541693D01*
X-88426192Y-15723671D01*
X-88426185Y-15723684D01*
X-88316751Y-15887462D01*
X-88316748Y-15887466D01*
X-88177466Y-16026748D01*
X-88177462Y-16026751D01*
X-88013684Y-16136185D01*
X-88013671Y-16136192D01*
X-87831693Y-16211569D01*
X-87831681Y-16211572D01*
X-87638495Y-16249999D01*
X-87638492Y-16250000D01*
X-87415000Y-16250000D01*
X-87415000Y-15650000D01*
X-87165000Y-15650000D01*
X-87165000Y-16250000D01*
X-86941508Y-16250000D01*
X-86941504Y-16249999D01*
X-86748318Y-16211572D01*
X-86748306Y-16211569D01*
X-86688975Y-16186993D01*
X-86688974Y-16186993D01*
X-86566324Y-16136190D01*
X-86566315Y-16136185D01*
X-86402537Y-16026751D01*
X-86402533Y-16026748D01*
X-86263251Y-15887466D01*
X-86263248Y-15887462D01*
X-86153814Y-15723684D01*
X-86153807Y-15723671D01*
X-86078430Y-15541693D01*
X-86078427Y-15541681D01*
X-86045272Y-15375000D01*
X-86809383Y-15375000D01*
X-86790000Y-15302661D01*
X-86790000Y-15197339D01*
X-86809383Y-15125000D01*
X-86045272Y-15125000D01*
X-86045272Y-15124999D01*
X-86078427Y-14958318D01*
X-86078430Y-14958306D01*
X-86153807Y-14776328D01*
X-86153814Y-14776315D01*
X-86263248Y-14612537D01*
X-86263251Y-14612533D01*
X-86364466Y-14511319D01*
X-86402533Y-14473251D01*
X-86402537Y-14473248D01*
X-86566315Y-14363814D01*
X-86566328Y-14363807D01*
X-86748306Y-14288430D01*
X-86748318Y-14288427D01*
X-86941504Y-14250000D01*
X-87165000Y-14250000D01*
X-87165000Y-14850000D01*
X-87415000Y-14850000D01*
X-87415000Y-14250000D01*
X-87638495Y-14250000D01*
X-87831681Y-14288427D01*
X-87831693Y-14288430D01*
X-88013671Y-14363807D01*
X-88013684Y-14363814D01*
X-88177462Y-14473248D01*
X-88177466Y-14473251D01*
X-88316748Y-14612533D01*
X-88316751Y-14612537D01*
X-88426185Y-14776315D01*
X-88426192Y-14776328D01*
X-88501569Y-14958306D01*
X-88501572Y-14958318D01*
X-88534727Y-15124999D01*
X-88534728Y-15125000D01*
X-89299576Y-15125000D01*
X-89195155Y-15055228D01*
X-89152537Y-15026751D01*
X-89152533Y-15026748D01*
X-89013251Y-14887466D01*
X-89013248Y-14887462D01*
X-88903814Y-14723684D01*
X-88903807Y-14723671D01*
X-88828430Y-14541693D01*
X-88828427Y-14541681D01*
X-88790000Y-14348495D01*
X-88790000Y-14125000D01*
X-89390000Y-14125000D01*
X-89390000Y-14021206D01*
X-35620000Y-14021206D01*
X-35620000Y-14225000D01*
X-35120000Y-14225000D01*
X-35120000Y-14475000D01*
X-35620000Y-14475000D01*
X-35620000Y-14678794D01*
X-35619999Y-14678797D01*
X-35589258Y-14833343D01*
X-35589256Y-14833351D01*
X-35528952Y-14978939D01*
X-35528947Y-14978948D01*
X-35441401Y-15109969D01*
X-35441398Y-15109973D01*
X-35329973Y-15221398D01*
X-35329969Y-15221401D01*
X-35198948Y-15308947D01*
X-35198939Y-15308952D01*
X-35053351Y-15369256D01*
X-35053343Y-15369258D01*
X-34945000Y-15390809D01*
X-34945000Y-14874242D01*
X-34935796Y-14879556D01*
X-34859496Y-14900000D01*
X-34780504Y-14900000D01*
X-34704204Y-14879556D01*
X-34695000Y-14874242D01*
X-34695000Y-15390809D01*
X-34694999Y-15390809D01*
X-34586656Y-15369258D01*
X-34586648Y-15369256D01*
X-34441060Y-15308952D01*
X-34441051Y-15308947D01*
X-34310030Y-15221401D01*
X-34310026Y-15221398D01*
X-34198601Y-15109973D01*
X-34198598Y-15109969D01*
X-34111052Y-14978948D01*
X-34111047Y-14978938D01*
X-34058180Y-14851307D01*
X-34014339Y-14796904D01*
X-33948044Y-14774839D01*
X-33880345Y-14792119D01*
X-33855938Y-14811079D01*
X-33807857Y-14859160D01*
X-33700496Y-14930897D01*
X-33581202Y-14980310D01*
X-33581197Y-14980310D01*
X-33581194Y-14980312D01*
X-33496774Y-14997103D01*
X-33454563Y-15005499D01*
X-33454562Y-15005500D01*
X-33454561Y-15005500D01*
X-33325438Y-15005500D01*
X-33325434Y-15005499D01*
X-33198805Y-14980312D01*
X-33198800Y-14980310D01*
X-33198798Y-14980310D01*
X-33145675Y-14958306D01*
X-33079508Y-14930899D01*
X-33079506Y-14930898D01*
X-33079505Y-14930897D01*
X-33079504Y-14930897D01*
X-32972143Y-14859160D01*
X-32972139Y-14859157D01*
X-32924061Y-14811079D01*
X-32862738Y-14777594D01*
X-32793046Y-14782578D01*
X-32737113Y-14824450D01*
X-32721819Y-14851308D01*
X-32668954Y-14978935D01*
X-32668947Y-14978948D01*
X-32581401Y-15109969D01*
X-32581398Y-15109973D01*
X-32469973Y-15221398D01*
X-32469969Y-15221401D01*
X-32338948Y-15308947D01*
X-32338939Y-15308952D01*
X-32193351Y-15369256D01*
X-32193343Y-15369258D01*
X-32085000Y-15390809D01*
X-32085000Y-14874242D01*
X-32075796Y-14879556D01*
X-31999496Y-14900000D01*
X-31920504Y-14900000D01*
X-31844204Y-14879556D01*
X-31835000Y-14874242D01*
X-31835000Y-15390809D01*
X-31834999Y-15390809D01*
X-31726656Y-15369258D01*
X-31726648Y-15369256D01*
X-31581060Y-15308952D01*
X-31581051Y-15308947D01*
X-31450030Y-15221401D01*
X-31450026Y-15221398D01*
X-31338601Y-15109973D01*
X-31338598Y-15109969D01*
X-31251052Y-14978948D01*
X-31251047Y-14978939D01*
X-31190743Y-14833351D01*
X-31190741Y-14833343D01*
X-31160000Y-14678797D01*
X-31160000Y-14475000D01*
X-31660000Y-14475000D01*
X-31660000Y-14225000D01*
X-31160000Y-14225000D01*
X-31160000Y-14021202D01*
X-31190741Y-13866656D01*
X-31190743Y-13866648D01*
X-31251047Y-13721060D01*
X-31251052Y-13721051D01*
X-31338598Y-13590030D01*
X-31338601Y-13590026D01*
X-31450026Y-13478601D01*
X-31450030Y-13478598D01*
X-31581051Y-13391052D01*
X-31581060Y-13391047D01*
X-31726648Y-13330743D01*
X-31726654Y-13330741D01*
X-31834999Y-13309189D01*
X-31835000Y-13309190D01*
X-31835000Y-13825757D01*
X-31844204Y-13820444D01*
X-31920504Y-13800000D01*
X-31999496Y-13800000D01*
X-32075796Y-13820444D01*
X-32085000Y-13825757D01*
X-32085000Y-13309189D01*
X-32193345Y-13330741D01*
X-32193351Y-13330743D01*
X-32338939Y-13391047D01*
X-32338948Y-13391052D01*
X-32469969Y-13478598D01*
X-32469973Y-13478601D01*
X-32581398Y-13590026D01*
X-32581401Y-13590030D01*
X-32668947Y-13721051D01*
X-32668952Y-13721060D01*
X-32721819Y-13848692D01*
X-32765660Y-13903095D01*
X-32831954Y-13925160D01*
X-32899654Y-13907881D01*
X-32924060Y-13888921D01*
X-32972138Y-13840843D01*
X-32972143Y-13840839D01*
X-33079506Y-13769101D01*
X-33079508Y-13769100D01*
X-33198796Y-13719690D01*
X-33198805Y-13719687D01*
X-33325434Y-13694500D01*
X-33325439Y-13694500D01*
X-33454561Y-13694500D01*
X-33454565Y-13694500D01*
X-33581194Y-13719687D01*
X-33581203Y-13719690D01*
X-33700491Y-13769100D01*
X-33700493Y-13769101D01*
X-33807856Y-13840839D01*
X-33807860Y-13840842D01*
X-33855938Y-13888920D01*
X-33917261Y-13922405D01*
X-33986953Y-13917421D01*
X-34042886Y-13875549D01*
X-34058180Y-13848693D01*
X-34111049Y-13721057D01*
X-34111052Y-13721051D01*
X-34198598Y-13590030D01*
X-34198601Y-13590026D01*
X-34310026Y-13478601D01*
X-34310030Y-13478598D01*
X-34441051Y-13391052D01*
X-34441060Y-13391047D01*
X-34586648Y-13330743D01*
X-34586654Y-13330741D01*
X-34694999Y-13309189D01*
X-34695000Y-13309190D01*
X-34695000Y-13825757D01*
X-34704204Y-13820444D01*
X-34780504Y-13800000D01*
X-34859496Y-13800000D01*
X-34935796Y-13820444D01*
X-34945000Y-13825757D01*
X-34945000Y-13309189D01*
X-35053345Y-13330741D01*
X-35053351Y-13330743D01*
X-35198939Y-13391047D01*
X-35198948Y-13391052D01*
X-35329969Y-13478598D01*
X-35329973Y-13478601D01*
X-35441398Y-13590026D01*
X-35441401Y-13590030D01*
X-35528947Y-13721051D01*
X-35528952Y-13721060D01*
X-35589256Y-13866648D01*
X-35589258Y-13866656D01*
X-35619999Y-14021202D01*
X-35620000Y-14021206D01*
X-89390000Y-14021206D01*
X-89390000Y-13875000D01*
X-88790000Y-13875000D01*
X-88790000Y-13651504D01*
X-88828427Y-13458318D01*
X-88828430Y-13458306D01*
X-88903807Y-13276328D01*
X-88903814Y-13276315D01*
X-89013248Y-13112537D01*
X-89013251Y-13112533D01*
X-89152533Y-12973251D01*
X-89152537Y-12973248D01*
X-89316315Y-12863814D01*
X-89316328Y-12863807D01*
X-89498306Y-12788430D01*
X-89498318Y-12788427D01*
X-89664999Y-12755271D01*
X-89665000Y-12755272D01*
X-89665000Y-13519382D01*
X-89737339Y-13500000D01*
X-89842661Y-13500000D01*
X-89915000Y-13519382D01*
X-89915000Y-12755271D01*
X-90081681Y-12788427D01*
X-90081693Y-12788430D01*
X-90263671Y-12863807D01*
X-90263684Y-12863814D01*
X-90427462Y-12973248D01*
X-90427466Y-12973251D01*
X-90566748Y-13112533D01*
X-90566751Y-13112537D01*
X-90676185Y-13276315D01*
X-90676192Y-13276328D01*
X-90751569Y-13458306D01*
X-90751572Y-13458318D01*
X-90789999Y-13651504D01*
X-90790000Y-13651508D01*
X-91189500Y-13651508D01*
X-91189500Y-11925323D01*
X-83750500Y-11925323D01*
X-83750500Y-11925326D01*
X-83750500Y-13674674D01*
X-83735966Y-13747740D01*
X-83680601Y-13830601D01*
X-83597740Y-13885966D01*
X-83524677Y-13900499D01*
X-83524676Y-13900500D01*
X-83524674Y-13900500D01*
X-81775323Y-13900500D01*
X-81740123Y-13893498D01*
X-81740121Y-13893497D01*
X-81723466Y-13890184D01*
X-81702264Y-13885967D01*
X-81702260Y-13885966D01*
X-81685848Y-13875000D01*
X-81619399Y-13830601D01*
X-81564034Y-13747740D01*
X-81564033Y-13747739D01*
X-81564032Y-13747735D01*
X-81549500Y-13674678D01*
X-81549500Y-11925321D01*
X-81564032Y-11852264D01*
X-81564033Y-11852260D01*
X-81619399Y-11769399D01*
X-81702260Y-11714033D01*
X-81702264Y-11714032D01*
X-81775323Y-11699500D01*
X-81775326Y-11699500D01*
X-83524674Y-11699500D01*
X-83524677Y-11699500D01*
X-83597735Y-11714032D01*
X-83597739Y-11714033D01*
X-83597740Y-11714034D01*
X-83680601Y-11769399D01*
X-83735966Y-11852260D01*
X-83735967Y-11852264D01*
X-83750499Y-11925321D01*
X-83750500Y-11925323D01*
X-91189500Y-11925323D01*
X-91189500Y-9151456D01*
X-90790500Y-9151456D01*
X-90790500Y-9848543D01*
X-90765848Y-9972472D01*
X-90752051Y-10041835D01*
X-90676632Y-10223914D01*
X-90567139Y-10387782D01*
X-90427782Y-10527139D01*
X-90263914Y-10636632D01*
X-90081835Y-10712051D01*
X-90018582Y-10724632D01*
X-89888543Y-10750500D01*
X-89888541Y-10750500D01*
X-89691456Y-10750500D01*
X-89498170Y-10712052D01*
X-89498169Y-10712051D01*
X-89498165Y-10712051D01*
X-89498160Y-10712049D01*
X-89316092Y-10636635D01*
X-89316079Y-10636628D01*
X-89152218Y-10527139D01*
X-89152214Y-10527136D01*
X-89012863Y-10387785D01*
X-89012860Y-10387781D01*
X-88903371Y-10223920D01*
X-88903366Y-10223911D01*
X-88882439Y-10173389D01*
X-83750500Y-10173389D01*
X-83750500Y-10346611D01*
X-83723402Y-10517701D01*
X-83669873Y-10682445D01*
X-83591232Y-10836788D01*
X-83489414Y-10976928D01*
X-83366928Y-11099414D01*
X-83226788Y-11201232D01*
X-83072445Y-11279873D01*
X-82907701Y-11333402D01*
X-82736611Y-11360500D01*
X-82736610Y-11360500D01*
X-82563390Y-11360500D01*
X-82563389Y-11360500D01*
X-82392299Y-11333402D01*
X-82227555Y-11279873D01*
X-82073212Y-11201232D01*
X-81933072Y-11099414D01*
X-81810586Y-10976928D01*
X-81708768Y-10836788D01*
X-81630127Y-10682445D01*
X-81576598Y-10517701D01*
X-81549500Y-10346611D01*
X-81549500Y-10173389D01*
X-81576598Y-10002299D01*
X-81630127Y-9837555D01*
X-81630128Y-9837552D01*
X-81630129Y-9837550D01*
X-81635237Y-9827525D01*
X-78800500Y-9827525D01*
X-78800500Y-9972475D01*
X-78762984Y-10112485D01*
X-78690509Y-10238015D01*
X-78588015Y-10340509D01*
X-78462488Y-10412982D01*
X-78462487Y-10412982D01*
X-78462485Y-10412984D01*
X-78322475Y-10450500D01*
X-78322472Y-10450500D01*
X-78177528Y-10450500D01*
X-78177525Y-10450500D01*
X-78037515Y-10412984D01*
X-78037512Y-10412982D01*
X-78037511Y-10412982D01*
X-77911988Y-10340511D01*
X-77911986Y-10340510D01*
X-77911985Y-10340509D01*
X-77809491Y-10238015D01*
X-77809490Y-10238013D01*
X-77809488Y-10238011D01*
X-77737017Y-10112488D01*
X-77737016Y-10112485D01*
X-77699500Y-9972475D01*
X-77699500Y-9827525D01*
X-77737016Y-9687515D01*
X-77737015Y-9687515D01*
X-77737017Y-9687511D01*
X-77809488Y-9561988D01*
X-77809493Y-9561982D01*
X-77911982Y-9459493D01*
X-77911988Y-9459488D01*
X-78037511Y-9387017D01*
X-78037510Y-9387017D01*
X-78079108Y-9375870D01*
X-78177525Y-9349500D01*
X-78322475Y-9349500D01*
X-78462485Y-9387016D01*
X-78462488Y-9387017D01*
X-78588011Y-9459488D01*
X-78588013Y-9459490D01*
X-78588015Y-9459491D01*
X-78690509Y-9561985D01*
X-78762984Y-9687515D01*
X-78800500Y-9827525D01*
X-81635237Y-9827525D01*
X-81708768Y-9683211D01*
X-81796847Y-9561982D01*
X-81810586Y-9543072D01*
X-81810588Y-9543070D01*
X-81810588Y-9543069D01*
X-81933069Y-9420588D01*
X-82073211Y-9318768D01*
X-82227552Y-9240128D01*
X-82392302Y-9186597D01*
X-82392301Y-9186597D01*
X-82531192Y-9164599D01*
X-82563389Y-9159500D01*
X-82736611Y-9159500D01*
X-82788239Y-9167677D01*
X-82907697Y-9186597D01*
X-82907699Y-9186597D01*
X-82907701Y-9186598D01*
X-83072445Y-9240127D01*
X-83226788Y-9318768D01*
X-83366928Y-9420586D01*
X-83489414Y-9543072D01*
X-83591232Y-9683212D01*
X-83669873Y-9837555D01*
X-83723402Y-10002299D01*
X-83750500Y-10173389D01*
X-88882439Y-10173389D01*
X-88860768Y-10121069D01*
X-88860767Y-10121065D01*
X-88827947Y-10041830D01*
X-88827947Y-10041829D01*
X-88789500Y-9848543D01*
X-88789500Y-9151456D01*
X-88789499Y-9151456D01*
X-88827947Y-8958170D01*
X-88827950Y-8958160D01*
X-88903364Y-8776092D01*
X-88903371Y-8776079D01*
X-89012860Y-8612218D01*
X-89012863Y-8612214D01*
X-89152214Y-8472863D01*
X-89152222Y-8472857D01*
X-89194207Y-8444804D01*
X-89194256Y-8444772D01*
X-89316079Y-8363371D01*
X-89316092Y-8363364D01*
X-89498160Y-8287950D01*
X-89498172Y-8287947D01*
X-89538390Y-8279947D01*
X-89538392Y-8279947D01*
X-89691457Y-8249500D01*
X-89691459Y-8249500D01*
X-89888541Y-8249500D01*
X-89888543Y-8249500D01*
X-90081829Y-8287947D01*
X-90081839Y-8287950D01*
X-90263907Y-8363364D01*
X-90263920Y-8363371D01*
X-90427781Y-8472860D01*
X-90427785Y-8472863D01*
X-90567136Y-8612214D01*
X-90567139Y-8612218D01*
X-90676628Y-8776079D01*
X-90676635Y-8776092D01*
X-90722765Y-8887462D01*
X-90752051Y-8958165D01*
X-90752051Y-8958169D01*
X-90752052Y-8958170D01*
X-90790500Y-9151456D01*
X-91189500Y-9151456D01*
X-91189500Y-8125000D01*
X-88534728Y-8125000D01*
X-87770617Y-8125000D01*
X-87790000Y-8197339D01*
X-87790000Y-8302661D01*
X-87770617Y-8375000D01*
X-88534727Y-8375000D01*
X-88501572Y-8541681D01*
X-88501569Y-8541693D01*
X-88426192Y-8723671D01*
X-88426185Y-8723684D01*
X-88316751Y-8887462D01*
X-88316748Y-8887466D01*
X-88177466Y-9026748D01*
X-88177462Y-9026751D01*
X-88013684Y-9136185D01*
X-88013671Y-9136192D01*
X-87831693Y-9211569D01*
X-87831681Y-9211572D01*
X-87638495Y-9249999D01*
X-87638492Y-9250000D01*
X-87415000Y-9250000D01*
X-87415000Y-8650000D01*
X-87165000Y-8650000D01*
X-87165000Y-9250000D01*
X-86941508Y-9250000D01*
X-86941504Y-9249999D01*
X-86748318Y-9211572D01*
X-86748306Y-9211569D01*
X-86566328Y-9136192D01*
X-86566315Y-9136185D01*
X-86402537Y-9026751D01*
X-86402533Y-9026748D01*
X-86263251Y-8887466D01*
X-86263248Y-8887462D01*
X-86153814Y-8723684D01*
X-86153807Y-8723671D01*
X-86078430Y-8541693D01*
X-86078427Y-8541681D01*
X-86045272Y-8375000D01*
X-86809383Y-8375000D01*
X-86790000Y-8302661D01*
X-86790000Y-8197339D01*
X-86809383Y-8125000D01*
X-86045272Y-8125000D01*
X-86045272Y-8124999D01*
X-86078427Y-7958318D01*
X-86078430Y-7958306D01*
X-86126668Y-7841850D01*
X-86142956Y-7802525D01*
X-77300500Y-7802525D01*
X-77300500Y-7947475D01*
X-77262984Y-8087485D01*
X-77190509Y-8213015D01*
X-77088015Y-8315509D01*
X-76962488Y-8387982D01*
X-76962487Y-8387982D01*
X-76962485Y-8387984D01*
X-76822475Y-8425500D01*
X-76822472Y-8425500D01*
X-76677528Y-8425500D01*
X-76677525Y-8425500D01*
X-76537515Y-8387984D01*
X-76537512Y-8387982D01*
X-76537511Y-8387982D01*
X-76411988Y-8315511D01*
X-76411986Y-8315510D01*
X-76411985Y-8315509D01*
X-76309491Y-8213015D01*
X-76309490Y-8213013D01*
X-76309488Y-8213011D01*
X-76237017Y-8087488D01*
X-76237016Y-8087485D01*
X-76199500Y-7947475D01*
X-76199500Y-7802525D01*
X-71640500Y-7802525D01*
X-71640500Y-7947475D01*
X-71602984Y-8087485D01*
X-71530509Y-8213015D01*
X-71428015Y-8315509D01*
X-71302488Y-8387982D01*
X-71302487Y-8387982D01*
X-71302485Y-8387984D01*
X-71162475Y-8425500D01*
X-71162472Y-8425500D01*
X-71017528Y-8425500D01*
X-71017525Y-8425500D01*
X-70877515Y-8387984D01*
X-70877512Y-8387982D01*
X-70877511Y-8387982D01*
X-70751988Y-8315511D01*
X-70751986Y-8315510D01*
X-70751985Y-8315509D01*
X-70649491Y-8213015D01*
X-70649490Y-8213013D01*
X-70649488Y-8213011D01*
X-70600132Y-8127525D01*
X-33950500Y-8127525D01*
X-33950500Y-8272475D01*
X-33912984Y-8412485D01*
X-33840509Y-8538015D01*
X-33738015Y-8640509D01*
X-33612488Y-8712982D01*
X-33612487Y-8712982D01*
X-33612485Y-8712984D01*
X-33472475Y-8750500D01*
X-33472472Y-8750500D01*
X-33327528Y-8750500D01*
X-33327525Y-8750500D01*
X-33187515Y-8712984D01*
X-33187512Y-8712982D01*
X-33187511Y-8712982D01*
X-33061988Y-8640511D01*
X-33061986Y-8640510D01*
X-33061985Y-8640509D01*
X-32959491Y-8538015D01*
X-32959490Y-8538013D01*
X-32959488Y-8538011D01*
X-32887017Y-8412488D01*
X-32880451Y-8387984D01*
X-32849500Y-8272475D01*
X-32849500Y-8127525D01*
X-32887016Y-7987515D01*
X-32887015Y-7987515D01*
X-32887017Y-7987511D01*
X-32959488Y-7861988D01*
X-32959493Y-7861982D01*
X-33061982Y-7759493D01*
X-33061988Y-7759488D01*
X-33187511Y-7687017D01*
X-33187510Y-7687017D01*
X-33229108Y-7675870D01*
X-33327525Y-7649500D01*
X-33472475Y-7649500D01*
X-33612485Y-7687016D01*
X-33612488Y-7687017D01*
X-33738011Y-7759488D01*
X-33738017Y-7759493D01*
X-33840506Y-7861982D01*
X-33840511Y-7861988D01*
X-33879731Y-7929920D01*
X-33912984Y-7987515D01*
X-33950500Y-8127525D01*
X-70600132Y-8127525D01*
X-70577017Y-8087488D01*
X-70577015Y-8087483D01*
X-70576970Y-8087315D01*
X-70576968Y-8087304D01*
X-70539500Y-7947475D01*
X-70539500Y-7802525D01*
X-70577016Y-7662515D01*
X-70577015Y-7662515D01*
X-70577017Y-7662511D01*
X-70649488Y-7536988D01*
X-70649493Y-7536982D01*
X-70751982Y-7434493D01*
X-70751988Y-7434488D01*
X-70877511Y-7362017D01*
X-70877510Y-7362017D01*
X-70919108Y-7350870D01*
X-71017525Y-7324500D01*
X-71162475Y-7324500D01*
X-71302485Y-7362016D01*
X-71302488Y-7362017D01*
X-71428011Y-7434488D01*
X-71428017Y-7434493D01*
X-71530506Y-7536982D01*
X-71530511Y-7536988D01*
X-71591533Y-7642682D01*
X-71602984Y-7662515D01*
X-71640500Y-7802525D01*
X-76199500Y-7802525D01*
X-76237016Y-7662515D01*
X-76237015Y-7662515D01*
X-76237017Y-7662511D01*
X-76309488Y-7536988D01*
X-76309493Y-7536982D01*
X-76411982Y-7434493D01*
X-76411988Y-7434488D01*
X-76537511Y-7362017D01*
X-76537510Y-7362017D01*
X-76579108Y-7350870D01*
X-76677525Y-7324500D01*
X-76822475Y-7324500D01*
X-76962485Y-7362016D01*
X-76962488Y-7362017D01*
X-77088011Y-7434488D01*
X-77088017Y-7434493D01*
X-77190506Y-7536982D01*
X-77190511Y-7536988D01*
X-77251533Y-7642682D01*
X-77262984Y-7662515D01*
X-77300500Y-7802525D01*
X-86142956Y-7802525D01*
X-86153807Y-7776328D01*
X-86153814Y-7776315D01*
X-86263248Y-7612537D01*
X-86263251Y-7612533D01*
X-86402533Y-7473251D01*
X-86402537Y-7473248D01*
X-86566315Y-7363814D01*
X-86566328Y-7363807D01*
X-86748306Y-7288430D01*
X-86748318Y-7288427D01*
X-86941504Y-7250000D01*
X-87165000Y-7250000D01*
X-87165000Y-7850000D01*
X-87415000Y-7850000D01*
X-87415000Y-7250000D01*
X-87638495Y-7250000D01*
X-87831681Y-7288427D01*
X-87831693Y-7288430D01*
X-88013671Y-7363807D01*
X-88013684Y-7363814D01*
X-88177462Y-7473248D01*
X-88177466Y-7473251D01*
X-88316748Y-7612533D01*
X-88316751Y-7612537D01*
X-88426185Y-7776315D01*
X-88426192Y-7776328D01*
X-88501569Y-7958306D01*
X-88501572Y-7958318D01*
X-88534727Y-8124999D01*
X-88534728Y-8125000D01*
X-91189500Y-8125000D01*
X-91189500Y-7406959D01*
X-91188720Y-7393076D01*
X-91178541Y-7302734D01*
X-91172362Y-7275662D01*
X-91144649Y-7196464D01*
X-91132602Y-7171447D01*
X-91087957Y-7100395D01*
X-91070644Y-7078686D01*
X-91011313Y-7019355D01*
X-90989606Y-7002043D01*
X-90918549Y-6957395D01*
X-90893539Y-6945351D01*
X-90814333Y-6917636D01*
X-90787268Y-6911458D01*
X-90713412Y-6903137D01*
X-90696923Y-6901280D01*
X-90683041Y-6900500D01*
X-89205049Y-6900500D01*
X-89205046Y-6900500D01*
X-89014262Y-6882821D01*
X-88836723Y-6866370D01*
X-88836722Y-6866369D01*
X-88836715Y-6866369D01*
X-88473105Y-6798399D01*
X-88117317Y-6697168D01*
X-87772388Y-6563542D01*
X-87772387Y-6563541D01*
X-87772383Y-6563540D01*
X-87772382Y-6563539D01*
X-87700056Y-6527525D01*
X-70700500Y-6527525D01*
X-70700500Y-6672475D01*
X-70662984Y-6812485D01*
X-70590509Y-6938015D01*
X-70488015Y-7040509D01*
X-70362488Y-7112982D01*
X-70362487Y-7112982D01*
X-70362485Y-7112984D01*
X-70222475Y-7150500D01*
X-70222472Y-7150500D01*
X-70077528Y-7150500D01*
X-70077525Y-7150500D01*
X-69937515Y-7112984D01*
X-69937512Y-7112982D01*
X-69937511Y-7112982D01*
X-69811988Y-7040511D01*
X-69811986Y-7040510D01*
X-69811985Y-7040509D01*
X-69709491Y-6938015D01*
X-69709490Y-6938013D01*
X-69709488Y-6938011D01*
X-69637017Y-6812488D01*
X-69633241Y-6798396D01*
X-69621620Y-6755025D01*
X-33923000Y-6755025D01*
X-33923000Y-6899975D01*
X-33885484Y-7039985D01*
X-33813009Y-7165515D01*
X-33710515Y-7268009D01*
X-33584988Y-7340482D01*
X-33584987Y-7340482D01*
X-33584985Y-7340484D01*
X-33444975Y-7378000D01*
X-33444972Y-7378000D01*
X-33300028Y-7378000D01*
X-33300025Y-7378000D01*
X-33160015Y-7340484D01*
X-33160012Y-7340482D01*
X-33160011Y-7340482D01*
X-33034488Y-7268011D01*
X-33034486Y-7268010D01*
X-33034485Y-7268009D01*
X-32931991Y-7165515D01*
X-32931990Y-7165513D01*
X-32931988Y-7165511D01*
X-32859517Y-7039988D01*
X-32849349Y-7002042D01*
X-32822000Y-6899975D01*
X-32822000Y-6755025D01*
X-32859516Y-6615015D01*
X-32859515Y-6615015D01*
X-32859517Y-6615011D01*
X-32931988Y-6489488D01*
X-32931993Y-6489482D01*
X-33034482Y-6386993D01*
X-33034488Y-6386988D01*
X-33160011Y-6314517D01*
X-33160010Y-6314517D01*
X-33201608Y-6303370D01*
X-33300025Y-6277000D01*
X-33444975Y-6277000D01*
X-33584985Y-6314516D01*
X-33584988Y-6314517D01*
X-33710511Y-6386988D01*
X-33710517Y-6386993D01*
X-33813006Y-6489482D01*
X-33813011Y-6489488D01*
X-33859343Y-6569738D01*
X-33885484Y-6615015D01*
X-33923000Y-6755025D01*
X-69621620Y-6755025D01*
X-69599500Y-6672475D01*
X-69599500Y-6527525D01*
X-69637016Y-6387515D01*
X-69637015Y-6387515D01*
X-69637017Y-6387511D01*
X-69709488Y-6261988D01*
X-69709493Y-6261982D01*
X-69811982Y-6159493D01*
X-69811988Y-6159488D01*
X-69937511Y-6087017D01*
X-69937510Y-6087017D01*
X-69996119Y-6071313D01*
X-70077525Y-6049500D01*
X-70222475Y-6049500D01*
X-70362485Y-6087016D01*
X-70362488Y-6087017D01*
X-70488011Y-6159488D01*
X-70488017Y-6159493D01*
X-70590506Y-6261982D01*
X-70590511Y-6261988D01*
X-70662681Y-6386991D01*
X-70662984Y-6387515D01*
X-70700500Y-6527525D01*
X-87700056Y-6527525D01*
X-87460817Y-6408399D01*
X-87460816Y-6408398D01*
X-87441259Y-6398660D01*
X-87126757Y-6203928D01*
X-86862449Y-6004332D01*
X-86831568Y-5981012D01*
X-86831560Y-5981005D01*
X-86815895Y-5966725D01*
X-86719495Y-5878844D01*
X-86558197Y-5731802D01*
X-86308994Y-5458439D01*
X-86308987Y-5458431D01*
X-86125543Y-5215511D01*
X-86086072Y-5163243D01*
X-85891340Y-4848741D01*
X-85850394Y-4766510D01*
X-85726460Y-4517617D01*
X-85726459Y-4517616D01*
X-85656880Y-4338011D01*
X-85592832Y-4172683D01*
X-85580910Y-4130784D01*
X-85491603Y-3816902D01*
X-85491601Y-3816895D01*
X-85423631Y-3453285D01*
X-85423630Y-3453277D01*
X-85423629Y-3453276D01*
X-85389500Y-3084951D01*
X-85389500Y-3081989D01*
X-84450500Y-3081989D01*
X-84450500Y-3318011D01*
X-84419693Y-3552014D01*
X-84358606Y-3779993D01*
X-84268284Y-3998049D01*
X-84150273Y-4202450D01*
X-84006592Y-4389699D01*
X-83839699Y-4556592D01*
X-83652450Y-4700273D01*
X-83448049Y-4818284D01*
X-83229993Y-4908606D01*
X-83002014Y-4969693D01*
X-82768011Y-5000500D01*
X-82768004Y-5000500D01*
X-82531996Y-5000500D01*
X-82531989Y-5000500D01*
X-82297986Y-4969693D01*
X-82070007Y-4908606D01*
X-81851951Y-4818284D01*
X-81851948Y-4818282D01*
X-81851943Y-4818280D01*
X-81762255Y-4766498D01*
X-81647550Y-4700273D01*
X-81550104Y-4625500D01*
X-81460302Y-4556593D01*
X-81460295Y-4556587D01*
X-81293412Y-4389704D01*
X-81293406Y-4389697D01*
X-81149730Y-4202454D01*
X-81149729Y-4202453D01*
X-81149727Y-4202450D01*
X-81102677Y-4120957D01*
X-81031719Y-3998056D01*
X-81031714Y-3998045D01*
X-80954207Y-3810928D01*
X-77600500Y-3810928D01*
X-77600500Y-3939071D01*
X-77587877Y-4002527D01*
X-77575501Y-4064744D01*
X-77526465Y-4183127D01*
X-77455276Y-4289669D01*
X-77364669Y-4380276D01*
X-77258127Y-4451465D01*
X-77139744Y-4500501D01*
X-77098615Y-4508682D01*
X-77014071Y-4525500D01*
X-76454839Y-4525500D01*
X-76454839Y-4528410D01*
X-76398457Y-4538951D01*
X-76347622Y-4586884D01*
X-76330770Y-4654691D01*
X-76334885Y-4681570D01*
X-76340500Y-4702525D01*
X-76340500Y-4847475D01*
X-76302984Y-4987485D01*
X-76230509Y-5113015D01*
X-76128015Y-5215509D01*
X-76002488Y-5287982D01*
X-76002487Y-5287982D01*
X-76002485Y-5287984D01*
X-75862475Y-5325500D01*
X-75862472Y-5325500D01*
X-75717528Y-5325500D01*
X-75717525Y-5325500D01*
X-75577515Y-5287984D01*
X-75577512Y-5287982D01*
X-75577511Y-5287982D01*
X-75451988Y-5215511D01*
X-75451986Y-5215510D01*
X-75451985Y-5215509D01*
X-75349491Y-5113015D01*
X-75343435Y-5102525D01*
X-70440500Y-5102525D01*
X-70440500Y-5247475D01*
X-70402984Y-5387485D01*
X-70330509Y-5513015D01*
X-70228015Y-5615509D01*
X-70102488Y-5687982D01*
X-70102487Y-5687982D01*
X-70102485Y-5687984D01*
X-69962475Y-5725500D01*
X-69962472Y-5725500D01*
X-69817528Y-5725500D01*
X-69817525Y-5725500D01*
X-69677515Y-5687984D01*
X-69677512Y-5687982D01*
X-69677511Y-5687982D01*
X-69551988Y-5615511D01*
X-69551986Y-5615510D01*
X-69551985Y-5615509D01*
X-69449491Y-5513015D01*
X-69449490Y-5513013D01*
X-69449488Y-5513011D01*
X-69377017Y-5387488D01*
X-69374792Y-5379185D01*
X-69339500Y-5247475D01*
X-69339500Y-5102525D01*
X-69377016Y-4962515D01*
X-69377017Y-4962512D01*
X-69377018Y-4962510D01*
X-69400894Y-4921155D01*
X-62650500Y-4921155D01*
X-62650500Y-4921158D01*
X-62650500Y-5078842D01*
X-62619737Y-5233497D01*
X-62559394Y-5379179D01*
X-62471789Y-5510289D01*
X-62360289Y-5621789D01*
X-62229179Y-5709394D01*
X-62083497Y-5769737D01*
X-61928845Y-5800499D01*
X-61928844Y-5800500D01*
X-61928842Y-5800500D01*
X-61771156Y-5800500D01*
X-61771153Y-5800499D01*
X-61616503Y-5769737D01*
X-61604202Y-5764642D01*
X-61499214Y-5721155D01*
X-60850500Y-5721155D01*
X-60850500Y-5721158D01*
X-60850500Y-5878842D01*
X-60819737Y-6033497D01*
X-60759394Y-6179179D01*
X-60671789Y-6310289D01*
X-60560289Y-6421789D01*
X-60429179Y-6509394D01*
X-60283497Y-6569737D01*
X-60128845Y-6600499D01*
X-60128844Y-6600500D01*
X-60128842Y-6600500D01*
X-59971156Y-6600500D01*
X-59971153Y-6600499D01*
X-59816503Y-6569737D01*
X-59801542Y-6563540D01*
X-59672136Y-6509939D01*
X-59624684Y-6500500D01*
X-50581004Y-6500500D01*
X-50445677Y-6473581D01*
X-50445676Y-6473580D01*
X-50445672Y-6473580D01*
X-50445667Y-6473578D01*
X-50318195Y-6420778D01*
X-50318182Y-6420771D01*
X-50203458Y-6344114D01*
X-50203454Y-6344111D01*
X-50105888Y-6246545D01*
X-50105885Y-6246541D01*
X-50029228Y-6131817D01*
X-50029221Y-6131804D01*
X-49976421Y-6004332D01*
X-49976418Y-6004322D01*
X-49949500Y-5868995D01*
X-49949500Y-5731007D01*
X-49957755Y-5689505D01*
X-49957754Y-5689502D01*
X-49976418Y-5595677D01*
X-49976421Y-5595667D01*
X-50029221Y-5468195D01*
X-50029228Y-5468182D01*
X-50105885Y-5353458D01*
X-50105888Y-5353454D01*
X-50203454Y-5255888D01*
X-50203458Y-5255885D01*
X-50318182Y-5179228D01*
X-50318195Y-5179221D01*
X-50425923Y-5134600D01*
X-50445667Y-5126421D01*
X-50445677Y-5126418D01*
X-50581005Y-5099500D01*
X-50581007Y-5099500D01*
X-59624684Y-5099500D01*
X-59672136Y-5090061D01*
X-59816498Y-5030264D01*
X-59816510Y-5030261D01*
X-59837288Y-5026128D01*
X-36900000Y-5026128D01*
X-36900000Y-5173871D01*
X-36899999Y-5173873D01*
X-36871179Y-5318759D01*
X-36871177Y-5318767D01*
X-36814642Y-5455255D01*
X-36761525Y-5534749D01*
X-36393118Y-5166342D01*
X-36361940Y-5241614D01*
X-36291614Y-5311940D01*
X-36216342Y-5343117D01*
X-36584749Y-5711525D01*
X-36505255Y-5764642D01*
X-36368767Y-5821177D01*
X-36368759Y-5821179D01*
X-36223873Y-5849999D01*
X-36223871Y-5850000D01*
X-36076129Y-5850000D01*
X-36076126Y-5849999D01*
X-35931240Y-5821179D01*
X-35931232Y-5821177D01*
X-35794743Y-5764642D01*
X-35715249Y-5711526D01*
X-35715249Y-5711525D01*
X-36083657Y-5343118D01*
X-36008386Y-5311940D01*
X-35938060Y-5241614D01*
X-35906881Y-5166342D01*
X-35538474Y-5534750D01*
X-35538473Y-5534749D01*
X-35485358Y-5455256D01*
X-35428822Y-5318767D01*
X-35428820Y-5318759D01*
X-35400000Y-5173873D01*
X-35400000Y-5026126D01*
X-35428820Y-4881240D01*
X-35428822Y-4881232D01*
X-35485359Y-4744741D01*
X-35538472Y-4665249D01*
X-35538473Y-4665248D01*
X-35906882Y-5033657D01*
X-35938060Y-4958386D01*
X-36008386Y-4888060D01*
X-36083657Y-4856881D01*
X-35715248Y-4488473D01*
X-35715249Y-4488472D01*
X-35794741Y-4435359D01*
X-35931232Y-4378822D01*
X-35931240Y-4378820D01*
X-36076128Y-4350000D01*
X-36223872Y-4350000D01*
X-36368759Y-4378820D01*
X-36368767Y-4378822D01*
X-36505256Y-4435358D01*
X-36584749Y-4488473D01*
X-36584750Y-4488474D01*
X-36216342Y-4856882D01*
X-36291614Y-4888060D01*
X-36361940Y-4958386D01*
X-36393117Y-5033656D01*
X-36761525Y-4665249D01*
X-36761526Y-4665249D01*
X-36814642Y-4744743D01*
X-36871177Y-4881232D01*
X-36871179Y-4881240D01*
X-36899999Y-5026126D01*
X-36900000Y-5026128D01*
X-59837288Y-5026128D01*
X-59971155Y-4999500D01*
X-59971158Y-4999500D01*
X-60128842Y-4999500D01*
X-60128845Y-4999500D01*
X-60283489Y-5030261D01*
X-60283501Y-5030264D01*
X-60429172Y-5090602D01*
X-60429185Y-5090609D01*
X-60560288Y-5178210D01*
X-60560292Y-5178213D01*
X-60671786Y-5289707D01*
X-60671789Y-5289711D01*
X-60759390Y-5420814D01*
X-60759397Y-5420827D01*
X-60796452Y-5510288D01*
X-60819737Y-5566503D01*
X-60830734Y-5621788D01*
X-60850499Y-5721153D01*
X-60850500Y-5721155D01*
X-61499214Y-5721155D01*
X-61470827Y-5709397D01*
X-61470814Y-5709390D01*
X-61339709Y-5621788D01*
X-61228213Y-5510292D01*
X-61228210Y-5510288D01*
X-61140609Y-5379185D01*
X-61140602Y-5379172D01*
X-61080264Y-5233501D01*
X-61080261Y-5233489D01*
X-61049500Y-5078846D01*
X-61049500Y-4921153D01*
X-61080261Y-4766510D01*
X-61080264Y-4766498D01*
X-61140602Y-4620827D01*
X-61140609Y-4620814D01*
X-61228210Y-4489711D01*
X-61228213Y-4489707D01*
X-61339707Y-4378213D01*
X-61339711Y-4378210D01*
X-61470814Y-4290609D01*
X-61470827Y-4290602D01*
X-61616498Y-4230264D01*
X-61616510Y-4230261D01*
X-61771155Y-4199500D01*
X-61771158Y-4199500D01*
X-61928842Y-4199500D01*
X-61928845Y-4199500D01*
X-62083489Y-4230261D01*
X-62083501Y-4230264D01*
X-62229172Y-4290602D01*
X-62229185Y-4290609D01*
X-62360288Y-4378210D01*
X-62360292Y-4378213D01*
X-62471786Y-4489707D01*
X-62471789Y-4489711D01*
X-62559390Y-4620814D01*
X-62559397Y-4620827D01*
X-62606476Y-4734488D01*
X-62619737Y-4766503D01*
X-62636095Y-4848739D01*
X-62650499Y-4921153D01*
X-62650500Y-4921155D01*
X-69400894Y-4921155D01*
X-69449488Y-4836988D01*
X-69449493Y-4836982D01*
X-69551982Y-4734493D01*
X-69551988Y-4734488D01*
X-69677511Y-4662017D01*
X-69677510Y-4662017D01*
X-69719108Y-4650870D01*
X-69817525Y-4624500D01*
X-69962475Y-4624500D01*
X-70102485Y-4662016D01*
X-70102488Y-4662017D01*
X-70228011Y-4734488D01*
X-70228017Y-4734493D01*
X-70330506Y-4836982D01*
X-70330511Y-4836988D01*
X-70402982Y-4962510D01*
X-70402982Y-4962512D01*
X-70402984Y-4962515D01*
X-70440500Y-5102525D01*
X-75343435Y-5102525D01*
X-75302946Y-5032397D01*
X-75302944Y-5032395D01*
X-75277017Y-4987488D01*
X-75272249Y-4969693D01*
X-75239500Y-4847475D01*
X-75239500Y-4702525D01*
X-75277016Y-4562515D01*
X-75277015Y-4562515D01*
X-75277017Y-4562511D01*
X-75349488Y-4436988D01*
X-75349493Y-4436982D01*
X-75451982Y-4334493D01*
X-75451988Y-4334488D01*
X-75577511Y-4262017D01*
X-75577516Y-4262015D01*
X-75697009Y-4229996D01*
X-75702191Y-4226837D01*
X-75708248Y-4226404D01*
X-75731678Y-4208863D01*
X-75756669Y-4193631D01*
X-75759321Y-4188169D01*
X-75764181Y-4184532D01*
X-75774408Y-4157111D01*
X-75787197Y-4130784D01*
X-75786476Y-4124756D01*
X-75788598Y-4119068D01*
X-75782376Y-4090469D01*
X-75778902Y-4061408D01*
X-75774706Y-4055208D01*
X-75773746Y-4050795D01*
X-75752595Y-4022541D01*
X-75732579Y-4002525D01*
X-69340500Y-4002525D01*
X-69340500Y-4147475D01*
X-69302984Y-4287485D01*
X-69230509Y-4413015D01*
X-69128015Y-4515509D01*
X-69002488Y-4587982D01*
X-69002487Y-4587982D01*
X-69002485Y-4587984D01*
X-68862475Y-4625500D01*
X-68862472Y-4625500D01*
X-68717528Y-4625500D01*
X-68717525Y-4625500D01*
X-68577515Y-4587984D01*
X-68577512Y-4587982D01*
X-68577511Y-4587982D01*
X-68451988Y-4515511D01*
X-68451986Y-4515510D01*
X-68451985Y-4515509D01*
X-68349491Y-4413015D01*
X-68349490Y-4413013D01*
X-68349488Y-4413011D01*
X-68277017Y-4287488D01*
X-68270192Y-4262016D01*
X-68239500Y-4147475D01*
X-68239500Y-4002525D01*
X-68277016Y-3862515D01*
X-68277015Y-3862515D01*
X-68277017Y-3862511D01*
X-68349488Y-3736988D01*
X-68349493Y-3736982D01*
X-68451982Y-3634493D01*
X-68451988Y-3634488D01*
X-68577511Y-3562017D01*
X-68577510Y-3562017D01*
X-68614850Y-3552012D01*
X-68717525Y-3524500D01*
X-68862475Y-3524500D01*
X-69002485Y-3562016D01*
X-69002488Y-3562017D01*
X-69128011Y-3634488D01*
X-69128017Y-3634493D01*
X-69230506Y-3736982D01*
X-69230511Y-3736988D01*
X-69288838Y-3838014D01*
X-69302984Y-3862515D01*
X-69340500Y-4002525D01*
X-75732579Y-4002525D01*
X-75157579Y-3427525D01*
X-55350500Y-3427525D01*
X-55350500Y-3572475D01*
X-55312984Y-3712485D01*
X-55240509Y-3838015D01*
X-55138015Y-3940509D01*
X-55012488Y-4012982D01*
X-55012487Y-4012982D01*
X-55012485Y-4012984D01*
X-54872475Y-4050500D01*
X-54872472Y-4050500D01*
X-54727528Y-4050500D01*
X-54727525Y-4050500D01*
X-54587515Y-4012984D01*
X-54587512Y-4012982D01*
X-54587511Y-4012982D01*
X-54461988Y-3940511D01*
X-54461986Y-3940510D01*
X-54461985Y-3940509D01*
X-54449001Y-3927525D01*
X-42800500Y-3927525D01*
X-42800500Y-4072475D01*
X-42762984Y-4212485D01*
X-42690509Y-4338015D01*
X-42588015Y-4440509D01*
X-42462488Y-4512982D01*
X-42462487Y-4512982D01*
X-42462485Y-4512984D01*
X-42322475Y-4550500D01*
X-42322472Y-4550500D01*
X-42177528Y-4550500D01*
X-42177525Y-4550500D01*
X-42037515Y-4512984D01*
X-42037512Y-4512982D01*
X-42037511Y-4512982D01*
X-41911985Y-4440509D01*
X-41809493Y-4338017D01*
X-41809488Y-4338011D01*
X-41737017Y-4212488D01*
X-41737016Y-4212485D01*
X-41699500Y-4072475D01*
X-41699500Y-3927525D01*
X-41737016Y-3787515D01*
X-41737015Y-3787515D01*
X-41737017Y-3787511D01*
X-41809488Y-3661988D01*
X-41809493Y-3661982D01*
X-41911982Y-3559493D01*
X-41911988Y-3559488D01*
X-42037511Y-3487017D01*
X-42037510Y-3487017D01*
X-42079108Y-3475870D01*
X-42177525Y-3449500D01*
X-42322475Y-3449500D01*
X-42462485Y-3487016D01*
X-42462488Y-3487017D01*
X-42588011Y-3559488D01*
X-42588017Y-3559493D01*
X-42690506Y-3661982D01*
X-42690511Y-3661988D01*
X-42754455Y-3772743D01*
X-42762984Y-3787515D01*
X-42800500Y-3927525D01*
X-54449001Y-3927525D01*
X-54359491Y-3838015D01*
X-54359490Y-3838014D01*
X-54287017Y-3712488D01*
X-54283064Y-3697735D01*
X-54249500Y-3572475D01*
X-54249500Y-3427525D01*
X-54287016Y-3287515D01*
X-54287015Y-3287515D01*
X-54287017Y-3287511D01*
X-54359488Y-3161988D01*
X-54359493Y-3161982D01*
X-54461982Y-3059493D01*
X-54461988Y-3059488D01*
X-54587511Y-2987017D01*
X-54587510Y-2987017D01*
X-54629108Y-2975870D01*
X-54727525Y-2949500D01*
X-54872475Y-2949500D01*
X-55012485Y-2987016D01*
X-55012488Y-2987017D01*
X-55138011Y-3059488D01*
X-55138017Y-3059493D01*
X-55240506Y-3161982D01*
X-55240511Y-3161988D01*
X-55291035Y-3249499D01*
X-55312984Y-3287515D01*
X-55350500Y-3427525D01*
X-75157579Y-3427525D01*
X-74116873Y-2386819D01*
X-74055550Y-2353334D01*
X-74029192Y-2350500D01*
X-34214500Y-2350500D01*
X-34147461Y-2370185D01*
X-34101706Y-2422989D01*
X-34090500Y-2474500D01*
X-34090500Y-3624674D01*
X-34075966Y-3697740D01*
X-34020601Y-3780601D01*
X-33937740Y-3835966D01*
X-33864677Y-3850499D01*
X-33864676Y-3850500D01*
X-33864674Y-3850500D01*
X-31615324Y-3850500D01*
X-31615321Y-3850499D01*
X-31542264Y-3835967D01*
X-31542260Y-3835966D01*
X-31528687Y-3826897D01*
X-31459399Y-3780601D01*
X-31404034Y-3697740D01*
X-31404033Y-3697739D01*
X-31404032Y-3697735D01*
X-31389500Y-3624678D01*
X-31389500Y-3519758D01*
X-31369815Y-3452719D01*
X-31317011Y-3406964D01*
X-31247853Y-3397020D01*
X-31184297Y-3426045D01*
X-31177819Y-3432077D01*
X-31079792Y-3530104D01*
X-31079788Y-3530106D01*
X-31079786Y-3530109D01*
X-31021473Y-3572475D01*
X-30907816Y-3655051D01*
X-30718412Y-3751557D01*
X-30516243Y-3817246D01*
X-30306287Y-3850500D01*
X-30306286Y-3850500D01*
X-30093714Y-3850500D01*
X-30093713Y-3850500D01*
X-29883757Y-3817246D01*
X-29681588Y-3751557D01*
X-29492184Y-3655051D01*
X-29492181Y-3655049D01*
X-29492179Y-3655048D01*
X-29320213Y-3530109D01*
X-29169890Y-3379786D01*
X-29098837Y-3281989D01*
X-26200500Y-3281989D01*
X-26200500Y-3518011D01*
X-26169693Y-3752014D01*
X-26108606Y-3979993D01*
X-26018284Y-4198049D01*
X-25900273Y-4402450D01*
X-25756592Y-4589699D01*
X-25589699Y-4756592D01*
X-25402450Y-4900273D01*
X-25198049Y-5018284D01*
X-24979993Y-5108606D01*
X-24752014Y-5169693D01*
X-24518011Y-5200500D01*
X-24518004Y-5200500D01*
X-24281996Y-5200500D01*
X-24281989Y-5200500D01*
X-24047986Y-5169693D01*
X-23820007Y-5108606D01*
X-23601951Y-5018284D01*
X-23601948Y-5018282D01*
X-23601943Y-5018280D01*
X-23517789Y-4969693D01*
X-23397550Y-4900273D01*
X-23210301Y-4756592D01*
X-23210295Y-4756587D01*
X-23043412Y-4589704D01*
X-23043406Y-4589697D01*
X-22899730Y-4402454D01*
X-22899729Y-4402453D01*
X-22899727Y-4402450D01*
X-22852677Y-4320957D01*
X-22781719Y-4198056D01*
X-22781714Y-4198045D01*
X-22691394Y-3979993D01*
X-22646093Y-3810928D01*
X-22630307Y-3752014D01*
X-22630246Y-3751557D01*
X-22599501Y-3518020D01*
X-22599500Y-3518004D01*
X-22599500Y-3281995D01*
X-22599501Y-3281979D01*
X-22630306Y-3047989D01*
X-22691394Y-2820006D01*
X-22781714Y-2601954D01*
X-22781719Y-2601943D01*
X-22899730Y-2397545D01*
X-23043406Y-2210302D01*
X-23043412Y-2210295D01*
X-23210295Y-2043412D01*
X-23210302Y-2043406D01*
X-23397545Y-1899730D01*
X-23601943Y-1781719D01*
X-23601954Y-1781714D01*
X-23820006Y-1691394D01*
X-24047989Y-1630306D01*
X-24281979Y-1599501D01*
X-24281983Y-1599500D01*
X-24281989Y-1599500D01*
X-24518011Y-1599500D01*
X-24518017Y-1599500D01*
X-24518020Y-1599501D01*
X-24752010Y-1630306D01*
X-24979993Y-1691394D01*
X-25198045Y-1781714D01*
X-25198056Y-1781719D01*
X-25304899Y-1843406D01*
X-25402450Y-1899727D01*
X-25402453Y-1899729D01*
X-25402454Y-1899730D01*
X-25589697Y-2043406D01*
X-25589704Y-2043412D01*
X-25756587Y-2210295D01*
X-25756592Y-2210301D01*
X-25900273Y-2397550D01*
X-25944700Y-2474500D01*
X-26018280Y-2601943D01*
X-26018282Y-2601948D01*
X-26018284Y-2601951D01*
X-26108606Y-2820007D01*
X-26169693Y-3047986D01*
X-26200500Y-3281989D01*
X-29098837Y-3281989D01*
X-29044951Y-3207820D01*
X-28948444Y-3018414D01*
X-28909968Y-2900000D01*
X-28882754Y-2816243D01*
X-28849500Y-2606287D01*
X-28849500Y-2393713D01*
X-28856344Y-2350500D01*
X-28882753Y-2183760D01*
X-28939114Y-2010301D01*
X-28948443Y-1981588D01*
X-28948443Y-1981587D01*
X-28948444Y-1981585D01*
X-29044951Y-1792179D01*
X-29169890Y-1620213D01*
X-29320213Y-1469890D01*
X-29492179Y-1344951D01*
X-29681585Y-1248444D01*
X-29883760Y-1182753D01*
X-29883759Y-1182753D01*
X-30054202Y-1155757D01*
X-30093713Y-1149500D01*
X-30306287Y-1149500D01*
X-30369644Y-1159534D01*
X-30516239Y-1182753D01*
X-30516241Y-1182753D01*
X-30516243Y-1182754D01*
X-30718412Y-1248443D01*
X-30718413Y-1248443D01*
X-30718414Y-1248444D01*
X-30907820Y-1344951D01*
X-31079786Y-1469890D01*
X-31177819Y-1567923D01*
X-31239142Y-1601408D01*
X-31308834Y-1596424D01*
X-31364767Y-1554552D01*
X-31389184Y-1489088D01*
X-31389500Y-1480242D01*
X-31389500Y-1375321D01*
X-31404032Y-1302264D01*
X-31404033Y-1302260D01*
X-31459399Y-1219399D01*
X-31542260Y-1164033D01*
X-31542264Y-1164032D01*
X-31615323Y-1149500D01*
X-31615326Y-1149500D01*
X-33155398Y-1149500D01*
X-33222437Y-1129815D01*
X-33224286Y-1128604D01*
X-33231872Y-1123534D01*
X-33350255Y-1074499D01*
X-33350261Y-1074497D01*
X-33475929Y-1049500D01*
X-33475931Y-1049500D01*
X-74414069Y-1049500D01*
X-74414071Y-1049500D01*
X-74539738Y-1074497D01*
X-74539744Y-1074499D01*
X-74658129Y-1123535D01*
X-74764668Y-1194722D01*
X-74764675Y-1194728D01*
X-76758127Y-3188181D01*
X-76819450Y-3221666D01*
X-76845808Y-3224500D01*
X-77014071Y-3224500D01*
X-77139738Y-3249497D01*
X-77139744Y-3249499D01*
X-77258124Y-3298533D01*
X-77258133Y-3298538D01*
X-77364668Y-3369723D01*
X-77364672Y-3369726D01*
X-77455273Y-3460327D01*
X-77455276Y-3460331D01*
X-77526461Y-3566866D01*
X-77526466Y-3566875D01*
X-77537574Y-3593692D01*
X-77575501Y-3685256D01*
X-77575501Y-3685260D01*
X-77575502Y-3685261D01*
X-77600500Y-3810928D01*
X-80954207Y-3810928D01*
X-80941392Y-3779989D01*
X-80939451Y-3772743D01*
X-80880306Y-3552012D01*
X-80849501Y-3318020D01*
X-80849500Y-3318004D01*
X-80849500Y-3081995D01*
X-80849501Y-3081979D01*
X-80880306Y-2847989D01*
X-80941394Y-2620006D01*
X-81031714Y-2401954D01*
X-81031719Y-2401943D01*
X-81149730Y-2197545D01*
X-81293406Y-2010302D01*
X-81293412Y-2010295D01*
X-81460295Y-1843412D01*
X-81460302Y-1843406D01*
X-81647545Y-1699730D01*
X-81851943Y-1581719D01*
X-81851954Y-1581714D01*
X-82070006Y-1491394D01*
X-82297989Y-1430306D01*
X-82531979Y-1399501D01*
X-82531983Y-1399500D01*
X-82531989Y-1399500D01*
X-82768011Y-1399500D01*
X-82768017Y-1399500D01*
X-82768020Y-1399501D01*
X-83002010Y-1430306D01*
X-83229993Y-1491394D01*
X-83448045Y-1581714D01*
X-83448056Y-1581719D01*
X-83570957Y-1652677D01*
X-83652450Y-1699727D01*
X-83652453Y-1699729D01*
X-83652454Y-1699730D01*
X-83839697Y-1843406D01*
X-83839704Y-1843412D01*
X-84006587Y-2010295D01*
X-84006592Y-2010301D01*
X-84150273Y-2197550D01*
X-84226118Y-2328918D01*
X-84268280Y-2401943D01*
X-84268282Y-2401948D01*
X-84268284Y-2401951D01*
X-84358606Y-2620007D01*
X-84419693Y-2847986D01*
X-84450500Y-3081989D01*
X-85389500Y-3081989D01*
X-85389500Y-1006959D01*
X-85388720Y-993076D01*
X-85378541Y-902734D01*
X-85372362Y-875662D01*
X-85344649Y-796464D01*
X-85332602Y-771447D01*
X-85287957Y-700395D01*
X-85270644Y-678686D01*
X-85211313Y-619355D01*
X-85189606Y-602043D01*
X-85118549Y-557395D01*
X-85093539Y-545351D01*
X-85014333Y-517636D01*
X-84987268Y-511458D01*
X-84913412Y-503137D01*
X-84896923Y-501280D01*
X-84883041Y-500500D01*
X-84824108Y-500500D01*
X-28565892Y-500500D01*
X-22065892Y-500500D01*
X-22006959Y-500500D01*
X-21993077Y-501280D01*
G37*
%TD.AperFunction*%
%TD*%
D31*
X-87300000Y-34802808D02*
G75*
G02*
X-86896404Y-34000123I999996J3D01*
G01*
X-82050000Y-29896382D02*
G75*
G02*
X-82454634Y-30699837I-1000000J0D01*
G01*
X-86896404Y-34000123D02*
X-82454634Y-30699837D01*
X-85383198Y-17350000D02*
G75*
G02*
X-84714930Y-17606079I-2J-1000006D01*
G01*
X-82381732Y-19702003D02*
G75*
G02*
X-82050000Y-20445924I-668261J-743918D01*
G01*
X-82381732Y-19702003D02*
X-84714930Y-17606079D01*
X-21000000Y-32400000D02*
G75*
G02*
X-22000000Y-33400000I-999999J-1D01*
G01*
X-28650000Y-39000000D02*
G75*
G02*
X-29650000Y-40000000I-999999J-1D01*
G01*
X-21000000Y-15900000D02*
X-21000000Y-32400000D01*
X-24400000Y-33400000D02*
X-22000000Y-33400000D01*
X-28650000Y-37650000D02*
X-28650000Y-39000000D01*
X-28650000Y-37650000D02*
G75*
G02*
X-24400000Y-33400000I4250000J0D01*
G01*
X-20300000Y-10803611D02*
G75*
G02*
X-28307222Y-10803611I-4003611J0D01*
G01*
X-28307222Y-10803611D02*
G75*
G02*
X-20300000Y-10803611I4003611J0D01*
G01*
X-22000000Y-14900000D02*
G75*
G02*
X-21000000Y-15900000I1J-999999D01*
G01*
X-27500000Y-14900000D02*
X-22000000Y-14900000D01*
X-27500000Y-14900000D02*
G75*
G02*
X-28500000Y-13900000I-1J999999D01*
G01*
X-21000000Y-5750000D02*
G75*
G02*
X-22000000Y-6750000I-999999J-1D01*
G01*
X-90690001Y-6400000D02*
X-89389999Y-6400000D01*
X-28500000Y-7750000D02*
X-28500000Y-13900000D01*
X-90690000Y-17350000D02*
G75*
G02*
X-91690000Y-16350000I-1J999999D01*
G01*
X-91690000Y-7400000D02*
G75*
G02*
X-90690000Y-6400000I999999J1D01*
G01*
X-85890000Y-2900000D02*
G75*
G02*
X-89390000Y-6400000I-3499999J-1D01*
G01*
X-82050000Y-29896382D02*
X-82050000Y-20445924D01*
X-21000000Y-5750000D02*
X-21000000Y-1000000D01*
X-22000000Y0D02*
G75*
G02*
X-21000000Y-1000000I1J-999999D01*
G01*
X-87300000Y-39000000D02*
X-87300000Y-34802808D01*
X-86300000Y-40000000D02*
G75*
G02*
X-87300000Y-39000000I-1J999999D01*
G01*
X-85890000Y-1000000D02*
X-85890000Y-2900000D01*
X-91690000Y-7400000D02*
X-91690000Y-16350000D01*
X-22000000Y0D02*
X-28500000Y0D01*
X-28500000Y0D02*
X-84890000Y0D01*
X-90690000Y-17350000D02*
X-85383198Y-17350000D01*
X-28500000Y-7750000D02*
G75*
G02*
X-27500000Y-6750000I999999J1D01*
G01*
X-29650000Y-40000000D02*
X-86300000Y-40000000D01*
X-27500000Y-6750000D02*
X-22000000Y-6750000D01*
X-85890000Y-1000000D02*
G75*
G02*
X-84890000Y0I999999J1D01*
G01*
M02*
