%TF.GenerationSoftware,KiCad,Pcbnew,9.0.6*%
%TF.CreationDate,2025-12-01T18:27:25-05:00*%
%TF.ProjectId,cablight-project,6361626c-6967-4687-942d-70726f6a6563,rev?*%
%TF.SameCoordinates,Original*%
%TF.FileFunction,Legend,Top*%
%TF.FilePolarity,Positive*%
%FSLAX46Y46*%
G04 Gerber Fmt 4.6, Leading zero omitted, Abs format (unit mm)*
G04 Created by KiCad (PCBNEW 9.0.6) date 2025-12-01 18:27:25*
%MOMM*%
%LPD*%
G01*
G04 APERTURE LIST*
G04 Aperture macros list*
%AMRoundRect*
0 Rectangle with rounded corners*
0 $1 Rounding radius*
0 $2 $3 $4 $5 $6 $7 $8 $9 X,Y pos of 4 corners*
0 Add a 4 corners polygon primitive as box body*
4,1,4,$2,$3,$4,$5,$6,$7,$8,$9,$2,$3,0*
0 Add four circle primitives for the rounded corners*
1,1,$1+$1,$2,$3*
1,1,$1+$1,$4,$5*
1,1,$1+$1,$6,$7*
1,1,$1+$1,$8,$9*
0 Add four rect primitives between the rounded corners*
20,1,$1+$1,$2,$3,$4,$5,0*
20,1,$1+$1,$4,$5,$6,$7,0*
20,1,$1+$1,$6,$7,$8,$9,0*
20,1,$1+$1,$8,$9,$2,$3,0*%
G04 Aperture macros list end*
%ADD10C,0.150000*%
%ADD11C,0.200000*%
%ADD12C,4.500000*%
%ADD13C,3.100000*%
%ADD14RoundRect,0.250000X-0.475000X0.337500X-0.475000X-0.337500X0.475000X-0.337500X0.475000X0.337500X0*%
%ADD15O,2.200000X2.200000*%
%ADD16R,2.200000X2.200000*%
%ADD17RoundRect,0.250000X0.337500X0.475000X-0.337500X0.475000X-0.337500X-0.475000X0.337500X-0.475000X0*%
%ADD18C,1.000000*%
%ADD19R,1.400000X1.400000*%
%ADD20C,1.400000*%
%ADD21RoundRect,0.250000X0.475000X-0.337500X0.475000X0.337500X-0.475000X0.337500X-0.475000X-0.337500X0*%
%ADD22O,1.500000X2.000000*%
%ADD23O,2.000000X1.500000*%
%ADD24RoundRect,0.150000X0.450000X0.350000X-0.450000X0.350000X-0.450000X-0.350000X0.450000X-0.350000X0*%
%ADD25RoundRect,0.237500X-0.237500X0.287500X-0.237500X-0.287500X0.237500X-0.287500X0.237500X0.287500X0*%
%ADD26C,0.710000*%
%ADD27RoundRect,0.050000X-0.750000X0.150000X-0.750000X-0.150000X0.750000X-0.150000X0.750000X0.150000X0*%
%ADD28O,1.304000X1.804000*%
%ADD29C,1.600000*%
%ADD30R,1.600000X4.500000*%
%ADD31R,1.700000X3.300000*%
%ADD32R,0.600000X0.250000*%
%ADD33R,2.000000X1.900000*%
%ADD34O,2.500000X1.900000*%
%ADD35RoundRect,0.237500X0.237500X-0.287500X0.237500X0.287500X-0.237500X0.287500X-0.237500X-0.287500X0*%
%ADD36R,0.900000X1.500000*%
%ADD37R,1.500000X0.900000*%
%ADD38R,0.900000X0.900000*%
%ADD39RoundRect,0.250001X-0.624999X0.462499X-0.624999X-0.462499X0.624999X-0.462499X0.624999X0.462499X0*%
%ADD40R,1.700000X1.700000*%
%ADD41C,1.700000*%
%ADD42C,3.600000*%
%ADD43C,5.600000*%
%ADD44R,0.606400X0.200000*%
%ADD45RoundRect,0.250000X0.350000X0.450000X-0.350000X0.450000X-0.350000X-0.450000X0.350000X-0.450000X0*%
%ADD46R,3.000000X3.000000*%
%ADD47C,3.000000*%
%ADD48RoundRect,0.250000X0.450000X-0.350000X0.450000X0.350000X-0.450000X0.350000X-0.450000X-0.350000X0*%
%TA.AperFunction,Profile*%
%ADD49C,0.150000*%
%TD*%
G04 APERTURE END LIST*
D10*
X-67700000Y-25775000D02*
X-63700000Y-25775000D01*
X-63700000Y-28025000D01*
X-67700000Y-28025000D01*
X-67700000Y-25775000D01*
X-65800000Y-4800000D02*
X-66300000Y-4450000D01*
X-63800000Y-18450000D02*
X-60050000Y-18450000D01*
X-60050000Y-20500000D01*
X-63800000Y-20500000D01*
X-63800000Y-18450000D01*
X-63550000Y-4800000D02*
X-65800000Y-4800000D01*
X-70591792Y-16574580D02*
X-70639411Y-16622200D01*
X-70639411Y-16622200D02*
X-70782268Y-16669819D01*
X-70782268Y-16669819D02*
X-70877506Y-16669819D01*
X-70877506Y-16669819D02*
X-71020363Y-16622200D01*
X-71020363Y-16622200D02*
X-71115601Y-16526961D01*
X-71115601Y-16526961D02*
X-71163220Y-16431723D01*
X-71163220Y-16431723D02*
X-71210839Y-16241247D01*
X-71210839Y-16241247D02*
X-71210839Y-16098390D01*
X-71210839Y-16098390D02*
X-71163220Y-15907914D01*
X-71163220Y-15907914D02*
X-71115601Y-15812676D01*
X-71115601Y-15812676D02*
X-71020363Y-15717438D01*
X-71020363Y-15717438D02*
X-70877506Y-15669819D01*
X-70877506Y-15669819D02*
X-70782268Y-15669819D01*
X-70782268Y-15669819D02*
X-70639411Y-15717438D01*
X-70639411Y-15717438D02*
X-70591792Y-15765057D01*
X-69639411Y-16669819D02*
X-70210839Y-16669819D01*
X-69925125Y-16669819D02*
X-69925125Y-15669819D01*
X-69925125Y-15669819D02*
X-70020363Y-15812676D01*
X-70020363Y-15812676D02*
X-70115601Y-15907914D01*
X-70115601Y-15907914D02*
X-70210839Y-15955533D01*
X-68687030Y-16669819D02*
X-69258458Y-16669819D01*
X-68972744Y-16669819D02*
X-68972744Y-15669819D01*
X-68972744Y-15669819D02*
X-69067982Y-15812676D01*
X-69067982Y-15812676D02*
X-69163220Y-15907914D01*
X-69163220Y-15907914D02*
X-69258458Y-15955533D01*
X-68401315Y-16288866D02*
X-68353696Y-16241247D01*
X-68353696Y-16241247D02*
X-68258458Y-16193628D01*
X-68258458Y-16193628D02*
X-68067982Y-16288866D01*
X-68067982Y-16288866D02*
X-67972744Y-16241247D01*
X-67972744Y-16241247D02*
X-67925125Y-16193628D01*
D11*
X-63238094Y-19536266D02*
X-62476190Y-19536266D01*
X-62857142Y-19917219D02*
X-62857142Y-19155314D01*
X-61999999Y-19536266D02*
X-61238095Y-19536266D01*
X-60761904Y-19821980D02*
X-60714285Y-19869600D01*
X-60714285Y-19869600D02*
X-60761904Y-19917219D01*
X-60761904Y-19917219D02*
X-60809523Y-19869600D01*
X-60809523Y-19869600D02*
X-60761904Y-19821980D01*
X-60761904Y-19821980D02*
X-60761904Y-19917219D01*
X-60761904Y-19536266D02*
X-60809523Y-18964838D01*
X-60809523Y-18964838D02*
X-60761904Y-18917219D01*
X-60761904Y-18917219D02*
X-60714285Y-18964838D01*
X-60714285Y-18964838D02*
X-60761904Y-19536266D01*
X-60761904Y-19536266D02*
X-60761904Y-18917219D01*
X-80711999Y-32202219D02*
X-80521523Y-32202219D01*
X-80521523Y-32202219D02*
X-80426285Y-32249838D01*
X-80426285Y-32249838D02*
X-80331047Y-32345076D01*
X-80331047Y-32345076D02*
X-80283428Y-32535552D01*
X-80283428Y-32535552D02*
X-80283428Y-32868885D01*
X-80283428Y-32868885D02*
X-80331047Y-33059361D01*
X-80331047Y-33059361D02*
X-80426285Y-33154600D01*
X-80426285Y-33154600D02*
X-80521523Y-33202219D01*
X-80521523Y-33202219D02*
X-80711999Y-33202219D01*
X-80711999Y-33202219D02*
X-80807237Y-33154600D01*
X-80807237Y-33154600D02*
X-80902475Y-33059361D01*
X-80902475Y-33059361D02*
X-80950094Y-32868885D01*
X-80950094Y-32868885D02*
X-80950094Y-32535552D01*
X-80950094Y-32535552D02*
X-80902475Y-32345076D01*
X-80902475Y-32345076D02*
X-80807237Y-32249838D01*
X-80807237Y-32249838D02*
X-80711999Y-32202219D01*
X-79854856Y-32202219D02*
X-79854856Y-33011742D01*
X-79854856Y-33011742D02*
X-79807237Y-33106980D01*
X-79807237Y-33106980D02*
X-79759618Y-33154600D01*
X-79759618Y-33154600D02*
X-79664380Y-33202219D01*
X-79664380Y-33202219D02*
X-79473904Y-33202219D01*
X-79473904Y-33202219D02*
X-79378666Y-33154600D01*
X-79378666Y-33154600D02*
X-79331047Y-33106980D01*
X-79331047Y-33106980D02*
X-79283428Y-33011742D01*
X-79283428Y-33011742D02*
X-79283428Y-32202219D01*
X-78950094Y-32202219D02*
X-78378666Y-32202219D01*
X-78664380Y-33202219D02*
X-78664380Y-32202219D01*
X-67030326Y-27442219D02*
X-67030326Y-26442219D01*
X-67030326Y-26442219D02*
X-66649374Y-26442219D01*
X-66649374Y-26442219D02*
X-66554136Y-26489838D01*
X-66554136Y-26489838D02*
X-66506517Y-26537457D01*
X-66506517Y-26537457D02*
X-66458898Y-26632695D01*
X-66458898Y-26632695D02*
X-66458898Y-26775552D01*
X-66458898Y-26775552D02*
X-66506517Y-26870790D01*
X-66506517Y-26870790D02*
X-66554136Y-26918409D01*
X-66554136Y-26918409D02*
X-66649374Y-26966028D01*
X-66649374Y-26966028D02*
X-67030326Y-26966028D01*
X-66125564Y-26442219D02*
X-65887469Y-27442219D01*
X-65887469Y-27442219D02*
X-65696993Y-26727933D01*
X-65696993Y-26727933D02*
X-65506517Y-27442219D01*
X-65506517Y-27442219D02*
X-65268422Y-26442219D01*
X-64316041Y-27442219D02*
X-64649374Y-26966028D01*
X-64887469Y-27442219D02*
X-64887469Y-26442219D01*
X-64887469Y-26442219D02*
X-64506517Y-26442219D01*
X-64506517Y-26442219D02*
X-64411279Y-26489838D01*
X-64411279Y-26489838D02*
X-64363660Y-26537457D01*
X-64363660Y-26537457D02*
X-64316041Y-26632695D01*
X-64316041Y-26632695D02*
X-64316041Y-26775552D01*
X-64316041Y-26775552D02*
X-64363660Y-26870790D01*
X-64363660Y-26870790D02*
X-64411279Y-26918409D01*
X-64411279Y-26918409D02*
X-64506517Y-26966028D01*
X-64506517Y-26966028D02*
X-64887469Y-26966028D01*
X-80461904Y-35933171D02*
X-80509523Y-35885552D01*
X-80509523Y-35885552D02*
X-80604761Y-35742695D01*
X-80604761Y-35742695D02*
X-80652380Y-35647457D01*
X-80652380Y-35647457D02*
X-80699999Y-35504600D01*
X-80699999Y-35504600D02*
X-80747618Y-35266504D01*
X-80747618Y-35266504D02*
X-80747618Y-35076028D01*
X-80747618Y-35076028D02*
X-80699999Y-34837933D01*
X-80699999Y-34837933D02*
X-80652380Y-34695076D01*
X-80652380Y-34695076D02*
X-80604761Y-34599838D01*
X-80604761Y-34599838D02*
X-80509523Y-34456980D01*
X-80509523Y-34456980D02*
X-80461904Y-34409361D01*
X-80080951Y-35171266D02*
X-79319047Y-35171266D01*
X-78938094Y-35933171D02*
X-78890475Y-35885552D01*
X-78890475Y-35885552D02*
X-78795237Y-35742695D01*
X-78795237Y-35742695D02*
X-78747618Y-35647457D01*
X-78747618Y-35647457D02*
X-78699999Y-35504600D01*
X-78699999Y-35504600D02*
X-78652380Y-35266504D01*
X-78652380Y-35266504D02*
X-78652380Y-35076028D01*
X-78652380Y-35076028D02*
X-78699999Y-34837933D01*
X-78699999Y-34837933D02*
X-78747618Y-34695076D01*
X-78747618Y-34695076D02*
X-78795237Y-34599838D01*
X-78795237Y-34599838D02*
X-78890475Y-34456980D01*
X-78890475Y-34456980D02*
X-78938094Y-34409361D01*
X-80461904Y-30933171D02*
X-80509523Y-30885552D01*
X-80509523Y-30885552D02*
X-80604761Y-30742695D01*
X-80604761Y-30742695D02*
X-80652380Y-30647457D01*
X-80652380Y-30647457D02*
X-80699999Y-30504600D01*
X-80699999Y-30504600D02*
X-80747618Y-30266504D01*
X-80747618Y-30266504D02*
X-80747618Y-30076028D01*
X-80747618Y-30076028D02*
X-80699999Y-29837933D01*
X-80699999Y-29837933D02*
X-80652380Y-29695076D01*
X-80652380Y-29695076D02*
X-80604761Y-29599838D01*
X-80604761Y-29599838D02*
X-80509523Y-29456980D01*
X-80509523Y-29456980D02*
X-80461904Y-29409361D01*
X-80080951Y-30171266D02*
X-79319047Y-30171266D01*
X-79699999Y-30552219D02*
X-79699999Y-29790314D01*
X-78938094Y-30933171D02*
X-78890475Y-30885552D01*
X-78890475Y-30885552D02*
X-78795237Y-30742695D01*
X-78795237Y-30742695D02*
X-78747618Y-30647457D01*
X-78747618Y-30647457D02*
X-78699999Y-30504600D01*
X-78699999Y-30504600D02*
X-78652380Y-30266504D01*
X-78652380Y-30266504D02*
X-78652380Y-30076028D01*
X-78652380Y-30076028D02*
X-78699999Y-29837933D01*
X-78699999Y-29837933D02*
X-78747618Y-29695076D01*
X-78747618Y-29695076D02*
X-78795237Y-29599838D01*
X-78795237Y-29599838D02*
X-78890475Y-29456980D01*
X-78890475Y-29456980D02*
X-78938094Y-29409361D01*
X-80223808Y-23052219D02*
X-80223808Y-22052219D01*
X-79747618Y-23052219D02*
X-79747618Y-22052219D01*
X-79747618Y-22052219D02*
X-79176190Y-23052219D01*
X-79176190Y-23052219D02*
X-79176190Y-22052219D01*
X-70452381Y-34037303D02*
X-70785714Y-33561112D01*
X-71023809Y-34037303D02*
X-71023809Y-33037303D01*
X-71023809Y-33037303D02*
X-70642857Y-33037303D01*
X-70642857Y-33037303D02*
X-70547619Y-33084922D01*
X-70547619Y-33084922D02*
X-70500000Y-33132541D01*
X-70500000Y-33132541D02*
X-70452381Y-33227779D01*
X-70452381Y-33227779D02*
X-70452381Y-33370636D01*
X-70452381Y-33370636D02*
X-70500000Y-33465874D01*
X-70500000Y-33465874D02*
X-70547619Y-33513493D01*
X-70547619Y-33513493D02*
X-70642857Y-33561112D01*
X-70642857Y-33561112D02*
X-71023809Y-33561112D01*
X-70071428Y-33751588D02*
X-69595238Y-33751588D01*
X-70166666Y-34037303D02*
X-69833333Y-33037303D01*
X-69833333Y-33037303D02*
X-69500000Y-34037303D01*
X-69309523Y-33037303D02*
X-68738095Y-33037303D01*
X-69023809Y-34037303D02*
X-69023809Y-33037303D01*
X-68404761Y-33513493D02*
X-68071428Y-33513493D01*
X-67928571Y-34037303D02*
X-68404761Y-34037303D01*
X-68404761Y-34037303D02*
X-68404761Y-33037303D01*
X-68404761Y-33037303D02*
X-67928571Y-33037303D01*
X-67499999Y-34037303D02*
X-67499999Y-33037303D01*
X-67499999Y-33037303D02*
X-67261904Y-33037303D01*
X-67261904Y-33037303D02*
X-67119047Y-33084922D01*
X-67119047Y-33084922D02*
X-67023809Y-33180160D01*
X-67023809Y-33180160D02*
X-66976190Y-33275398D01*
X-66976190Y-33275398D02*
X-66928571Y-33465874D01*
X-66928571Y-33465874D02*
X-66928571Y-33608731D01*
X-66928571Y-33608731D02*
X-66976190Y-33799207D01*
X-66976190Y-33799207D02*
X-67023809Y-33894445D01*
X-67023809Y-33894445D02*
X-67119047Y-33989684D01*
X-67119047Y-33989684D02*
X-67261904Y-34037303D01*
X-67261904Y-34037303D02*
X-67499999Y-34037303D01*
X-70761904Y-34647247D02*
X-71238094Y-34647247D01*
X-71238094Y-34647247D02*
X-71285713Y-35123437D01*
X-71285713Y-35123437D02*
X-71238094Y-35075818D01*
X-71238094Y-35075818D02*
X-71142856Y-35028199D01*
X-71142856Y-35028199D02*
X-70904761Y-35028199D01*
X-70904761Y-35028199D02*
X-70809523Y-35075818D01*
X-70809523Y-35075818D02*
X-70761904Y-35123437D01*
X-70761904Y-35123437D02*
X-70714285Y-35218675D01*
X-70714285Y-35218675D02*
X-70714285Y-35456770D01*
X-70714285Y-35456770D02*
X-70761904Y-35552008D01*
X-70761904Y-35552008D02*
X-70809523Y-35599628D01*
X-70809523Y-35599628D02*
X-70904761Y-35647247D01*
X-70904761Y-35647247D02*
X-71142856Y-35647247D01*
X-71142856Y-35647247D02*
X-71238094Y-35599628D01*
X-71238094Y-35599628D02*
X-71285713Y-35552008D01*
X-70285713Y-35266294D02*
X-69523809Y-35266294D01*
X-69095237Y-34742485D02*
X-69047618Y-34694866D01*
X-69047618Y-34694866D02*
X-68952380Y-34647247D01*
X-68952380Y-34647247D02*
X-68714285Y-34647247D01*
X-68714285Y-34647247D02*
X-68619047Y-34694866D01*
X-68619047Y-34694866D02*
X-68571428Y-34742485D01*
X-68571428Y-34742485D02*
X-68523809Y-34837723D01*
X-68523809Y-34837723D02*
X-68523809Y-34932961D01*
X-68523809Y-34932961D02*
X-68571428Y-35075818D01*
X-68571428Y-35075818D02*
X-69142856Y-35647247D01*
X-69142856Y-35647247D02*
X-68523809Y-35647247D01*
X-67666666Y-34980580D02*
X-67666666Y-35647247D01*
X-67904761Y-34599628D02*
X-68142856Y-35313913D01*
X-68142856Y-35313913D02*
X-67523809Y-35313913D01*
X-67285713Y-34647247D02*
X-66952380Y-35647247D01*
X-66952380Y-35647247D02*
X-66619047Y-34647247D01*
X-69761904Y-37257191D02*
X-69761904Y-36257191D01*
X-69761904Y-36257191D02*
X-69523809Y-36257191D01*
X-69523809Y-36257191D02*
X-69380952Y-36304810D01*
X-69380952Y-36304810D02*
X-69285714Y-36400048D01*
X-69285714Y-36400048D02*
X-69238095Y-36495286D01*
X-69238095Y-36495286D02*
X-69190476Y-36685762D01*
X-69190476Y-36685762D02*
X-69190476Y-36828619D01*
X-69190476Y-36828619D02*
X-69238095Y-37019095D01*
X-69238095Y-37019095D02*
X-69285714Y-37114333D01*
X-69285714Y-37114333D02*
X-69380952Y-37209572D01*
X-69380952Y-37209572D02*
X-69523809Y-37257191D01*
X-69523809Y-37257191D02*
X-69761904Y-37257191D01*
X-68190476Y-37161952D02*
X-68238095Y-37209572D01*
X-68238095Y-37209572D02*
X-68380952Y-37257191D01*
X-68380952Y-37257191D02*
X-68476190Y-37257191D01*
X-68476190Y-37257191D02*
X-68619047Y-37209572D01*
X-68619047Y-37209572D02*
X-68714285Y-37114333D01*
X-68714285Y-37114333D02*
X-68761904Y-37019095D01*
X-68761904Y-37019095D02*
X-68809523Y-36828619D01*
X-68809523Y-36828619D02*
X-68809523Y-36685762D01*
X-68809523Y-36685762D02*
X-68761904Y-36495286D01*
X-68761904Y-36495286D02*
X-68714285Y-36400048D01*
X-68714285Y-36400048D02*
X-68619047Y-36304810D01*
X-68619047Y-36304810D02*
X-68476190Y-36257191D01*
X-68476190Y-36257191D02*
X-68380952Y-36257191D01*
X-68380952Y-36257191D02*
X-68238095Y-36304810D01*
X-68238095Y-36304810D02*
X-68190476Y-36352429D01*
X-69190476Y-37867135D02*
X-69666666Y-37867135D01*
X-69666666Y-37867135D02*
X-69714285Y-38343325D01*
X-69714285Y-38343325D02*
X-69666666Y-38295706D01*
X-69666666Y-38295706D02*
X-69571428Y-38248087D01*
X-69571428Y-38248087D02*
X-69333333Y-38248087D01*
X-69333333Y-38248087D02*
X-69238095Y-38295706D01*
X-69238095Y-38295706D02*
X-69190476Y-38343325D01*
X-69190476Y-38343325D02*
X-69142857Y-38438563D01*
X-69142857Y-38438563D02*
X-69142857Y-38676658D01*
X-69142857Y-38676658D02*
X-69190476Y-38771896D01*
X-69190476Y-38771896D02*
X-69238095Y-38819516D01*
X-69238095Y-38819516D02*
X-69333333Y-38867135D01*
X-69333333Y-38867135D02*
X-69571428Y-38867135D01*
X-69571428Y-38867135D02*
X-69666666Y-38819516D01*
X-69666666Y-38819516D02*
X-69714285Y-38771896D01*
X-68761904Y-38581420D02*
X-68285714Y-38581420D01*
X-68857142Y-38867135D02*
X-68523809Y-37867135D01*
X-68523809Y-37867135D02*
X-68190476Y-38867135D01*
X-80461904Y-20933171D02*
X-80509523Y-20885552D01*
X-80509523Y-20885552D02*
X-80604761Y-20742695D01*
X-80604761Y-20742695D02*
X-80652380Y-20647457D01*
X-80652380Y-20647457D02*
X-80699999Y-20504600D01*
X-80699999Y-20504600D02*
X-80747618Y-20266504D01*
X-80747618Y-20266504D02*
X-80747618Y-20076028D01*
X-80747618Y-20076028D02*
X-80699999Y-19837933D01*
X-80699999Y-19837933D02*
X-80652380Y-19695076D01*
X-80652380Y-19695076D02*
X-80604761Y-19599838D01*
X-80604761Y-19599838D02*
X-80509523Y-19456980D01*
X-80509523Y-19456980D02*
X-80461904Y-19409361D01*
X-80080951Y-20171266D02*
X-79319047Y-20171266D01*
X-78938094Y-20933171D02*
X-78890475Y-20885552D01*
X-78890475Y-20885552D02*
X-78795237Y-20742695D01*
X-78795237Y-20742695D02*
X-78747618Y-20647457D01*
X-78747618Y-20647457D02*
X-78699999Y-20504600D01*
X-78699999Y-20504600D02*
X-78652380Y-20266504D01*
X-78652380Y-20266504D02*
X-78652380Y-20076028D01*
X-78652380Y-20076028D02*
X-78699999Y-19837933D01*
X-78699999Y-19837933D02*
X-78747618Y-19695076D01*
X-78747618Y-19695076D02*
X-78795237Y-19599838D01*
X-78795237Y-19599838D02*
X-78890475Y-19456980D01*
X-78890475Y-19456980D02*
X-78938094Y-19409361D01*
X-80461904Y-25933171D02*
X-80509523Y-25885552D01*
X-80509523Y-25885552D02*
X-80604761Y-25742695D01*
X-80604761Y-25742695D02*
X-80652380Y-25647457D01*
X-80652380Y-25647457D02*
X-80699999Y-25504600D01*
X-80699999Y-25504600D02*
X-80747618Y-25266504D01*
X-80747618Y-25266504D02*
X-80747618Y-25076028D01*
X-80747618Y-25076028D02*
X-80699999Y-24837933D01*
X-80699999Y-24837933D02*
X-80652380Y-24695076D01*
X-80652380Y-24695076D02*
X-80604761Y-24599838D01*
X-80604761Y-24599838D02*
X-80509523Y-24456980D01*
X-80509523Y-24456980D02*
X-80461904Y-24409361D01*
X-80080951Y-25171266D02*
X-79319047Y-25171266D01*
X-79699999Y-25552219D02*
X-79699999Y-24790314D01*
X-78938094Y-25933171D02*
X-78890475Y-25885552D01*
X-78890475Y-25885552D02*
X-78795237Y-25742695D01*
X-78795237Y-25742695D02*
X-78747618Y-25647457D01*
X-78747618Y-25647457D02*
X-78699999Y-25504600D01*
X-78699999Y-25504600D02*
X-78652380Y-25266504D01*
X-78652380Y-25266504D02*
X-78652380Y-25076028D01*
X-78652380Y-25076028D02*
X-78699999Y-24837933D01*
X-78699999Y-24837933D02*
X-78747618Y-24695076D01*
X-78747618Y-24695076D02*
X-78795237Y-24599838D01*
X-78795237Y-24599838D02*
X-78890475Y-24456980D01*
X-78890475Y-24456980D02*
X-78938094Y-24409361D01*
D10*
X-28392857Y-21272080D02*
X-28440476Y-21319700D01*
X-28440476Y-21319700D02*
X-28583333Y-21367319D01*
X-28583333Y-21367319D02*
X-28678571Y-21367319D01*
X-28678571Y-21367319D02*
X-28821428Y-21319700D01*
X-28821428Y-21319700D02*
X-28916666Y-21224461D01*
X-28916666Y-21224461D02*
X-28964285Y-21129223D01*
X-28964285Y-21129223D02*
X-29011904Y-20938747D01*
X-29011904Y-20938747D02*
X-29011904Y-20795890D01*
X-29011904Y-20795890D02*
X-28964285Y-20605414D01*
X-28964285Y-20605414D02*
X-28916666Y-20510176D01*
X-28916666Y-20510176D02*
X-28821428Y-20414938D01*
X-28821428Y-20414938D02*
X-28678571Y-20367319D01*
X-28678571Y-20367319D02*
X-28583333Y-20367319D01*
X-28583333Y-20367319D02*
X-28440476Y-20414938D01*
X-28440476Y-20414938D02*
X-28392857Y-20462557D01*
X-27440476Y-21367319D02*
X-28011904Y-21367319D01*
X-27726190Y-21367319D02*
X-27726190Y-20367319D01*
X-27726190Y-20367319D02*
X-27821428Y-20510176D01*
X-27821428Y-20510176D02*
X-27916666Y-20605414D01*
X-27916666Y-20605414D02*
X-28011904Y-20653033D01*
X-26583333Y-20700652D02*
X-26583333Y-21367319D01*
X-26821428Y-20319700D02*
X-27059523Y-21033985D01*
X-27059523Y-21033985D02*
X-26440476Y-21033985D01*
X-36238094Y-2954819D02*
X-36238094Y-1954819D01*
X-36238094Y-1954819D02*
X-35999999Y-1954819D01*
X-35999999Y-1954819D02*
X-35857142Y-2002438D01*
X-35857142Y-2002438D02*
X-35761904Y-2097676D01*
X-35761904Y-2097676D02*
X-35714285Y-2192914D01*
X-35714285Y-2192914D02*
X-35666666Y-2383390D01*
X-35666666Y-2383390D02*
X-35666666Y-2526247D01*
X-35666666Y-2526247D02*
X-35714285Y-2716723D01*
X-35714285Y-2716723D02*
X-35761904Y-2811961D01*
X-35761904Y-2811961D02*
X-35857142Y-2907200D01*
X-35857142Y-2907200D02*
X-35999999Y-2954819D01*
X-35999999Y-2954819D02*
X-36238094Y-2954819D01*
X-35285713Y-2050057D02*
X-35238094Y-2002438D01*
X-35238094Y-2002438D02*
X-35142856Y-1954819D01*
X-35142856Y-1954819D02*
X-34904761Y-1954819D01*
X-34904761Y-1954819D02*
X-34809523Y-2002438D01*
X-34809523Y-2002438D02*
X-34761904Y-2050057D01*
X-34761904Y-2050057D02*
X-34714285Y-2145295D01*
X-34714285Y-2145295D02*
X-34714285Y-2240533D01*
X-34714285Y-2240533D02*
X-34761904Y-2383390D01*
X-34761904Y-2383390D02*
X-35333332Y-2954819D01*
X-35333332Y-2954819D02*
X-34714285Y-2954819D01*
X-56159580Y-22633333D02*
X-56207200Y-22585714D01*
X-56207200Y-22585714D02*
X-56254819Y-22442857D01*
X-56254819Y-22442857D02*
X-56254819Y-22347619D01*
X-56254819Y-22347619D02*
X-56207200Y-22204762D01*
X-56207200Y-22204762D02*
X-56111961Y-22109524D01*
X-56111961Y-22109524D02*
X-56016723Y-22061905D01*
X-56016723Y-22061905D02*
X-55826247Y-22014286D01*
X-55826247Y-22014286D02*
X-55683390Y-22014286D01*
X-55683390Y-22014286D02*
X-55492914Y-22061905D01*
X-55492914Y-22061905D02*
X-55397676Y-22109524D01*
X-55397676Y-22109524D02*
X-55302438Y-22204762D01*
X-55302438Y-22204762D02*
X-55254819Y-22347619D01*
X-55254819Y-22347619D02*
X-55254819Y-22442857D01*
X-55254819Y-22442857D02*
X-55302438Y-22585714D01*
X-55302438Y-22585714D02*
X-55350057Y-22633333D01*
X-55254819Y-23538095D02*
X-55254819Y-23061905D01*
X-55254819Y-23061905D02*
X-55731009Y-23014286D01*
X-55731009Y-23014286D02*
X-55683390Y-23061905D01*
X-55683390Y-23061905D02*
X-55635771Y-23157143D01*
X-55635771Y-23157143D02*
X-55635771Y-23395238D01*
X-55635771Y-23395238D02*
X-55683390Y-23490476D01*
X-55683390Y-23490476D02*
X-55731009Y-23538095D01*
X-55731009Y-23538095D02*
X-55826247Y-23585714D01*
X-55826247Y-23585714D02*
X-56064342Y-23585714D01*
X-56064342Y-23585714D02*
X-56159580Y-23538095D01*
X-56159580Y-23538095D02*
X-56207200Y-23490476D01*
X-56207200Y-23490476D02*
X-56254819Y-23395238D01*
X-56254819Y-23395238D02*
X-56254819Y-23157143D01*
X-56254819Y-23157143D02*
X-56207200Y-23061905D01*
X-56207200Y-23061905D02*
X-56159580Y-23014286D01*
X-69064285Y-19254819D02*
X-69064285Y-18254819D01*
X-69064285Y-18254819D02*
X-68826190Y-18254819D01*
X-68826190Y-18254819D02*
X-68683333Y-18302438D01*
X-68683333Y-18302438D02*
X-68588095Y-18397676D01*
X-68588095Y-18397676D02*
X-68540476Y-18492914D01*
X-68540476Y-18492914D02*
X-68492857Y-18683390D01*
X-68492857Y-18683390D02*
X-68492857Y-18826247D01*
X-68492857Y-18826247D02*
X-68540476Y-19016723D01*
X-68540476Y-19016723D02*
X-68588095Y-19111961D01*
X-68588095Y-19111961D02*
X-68683333Y-19207200D01*
X-68683333Y-19207200D02*
X-68826190Y-19254819D01*
X-68826190Y-19254819D02*
X-69064285Y-19254819D01*
X-67540476Y-19254819D02*
X-68111904Y-19254819D01*
X-67826190Y-19254819D02*
X-67826190Y-18254819D01*
X-67826190Y-18254819D02*
X-67921428Y-18397676D01*
X-67921428Y-18397676D02*
X-68016666Y-18492914D01*
X-68016666Y-18492914D02*
X-68111904Y-18540533D01*
X-66921428Y-18254819D02*
X-66826190Y-18254819D01*
X-66826190Y-18254819D02*
X-66730952Y-18302438D01*
X-66730952Y-18302438D02*
X-66683333Y-18350057D01*
X-66683333Y-18350057D02*
X-66635714Y-18445295D01*
X-66635714Y-18445295D02*
X-66588095Y-18635771D01*
X-66588095Y-18635771D02*
X-66588095Y-18873866D01*
X-66588095Y-18873866D02*
X-66635714Y-19064342D01*
X-66635714Y-19064342D02*
X-66683333Y-19159580D01*
X-66683333Y-19159580D02*
X-66730952Y-19207200D01*
X-66730952Y-19207200D02*
X-66826190Y-19254819D01*
X-66826190Y-19254819D02*
X-66921428Y-19254819D01*
X-66921428Y-19254819D02*
X-67016666Y-19207200D01*
X-67016666Y-19207200D02*
X-67064285Y-19159580D01*
X-67064285Y-19159580D02*
X-67111904Y-19064342D01*
X-67111904Y-19064342D02*
X-67159523Y-18873866D01*
X-67159523Y-18873866D02*
X-67159523Y-18635771D01*
X-67159523Y-18635771D02*
X-67111904Y-18445295D01*
X-67111904Y-18445295D02*
X-67064285Y-18350057D01*
X-67064285Y-18350057D02*
X-67016666Y-18302438D01*
X-67016666Y-18302438D02*
X-66921428Y-18254819D01*
X-34311904Y-4602438D02*
X-34407142Y-4554819D01*
X-34407142Y-4554819D02*
X-34549999Y-4554819D01*
X-34549999Y-4554819D02*
X-34692856Y-4602438D01*
X-34692856Y-4602438D02*
X-34788094Y-4697676D01*
X-34788094Y-4697676D02*
X-34835713Y-4792914D01*
X-34835713Y-4792914D02*
X-34883332Y-4983390D01*
X-34883332Y-4983390D02*
X-34883332Y-5126247D01*
X-34883332Y-5126247D02*
X-34835713Y-5316723D01*
X-34835713Y-5316723D02*
X-34788094Y-5411961D01*
X-34788094Y-5411961D02*
X-34692856Y-5507200D01*
X-34692856Y-5507200D02*
X-34549999Y-5554819D01*
X-34549999Y-5554819D02*
X-34454761Y-5554819D01*
X-34454761Y-5554819D02*
X-34311904Y-5507200D01*
X-34311904Y-5507200D02*
X-34264285Y-5459580D01*
X-34264285Y-5459580D02*
X-34264285Y-5126247D01*
X-34264285Y-5126247D02*
X-34454761Y-5126247D01*
X-33835713Y-5554819D02*
X-33835713Y-4554819D01*
X-33835713Y-4554819D02*
X-33264285Y-5554819D01*
X-33264285Y-5554819D02*
X-33264285Y-4554819D01*
X-32788094Y-5554819D02*
X-32788094Y-4554819D01*
X-32788094Y-4554819D02*
X-32549999Y-4554819D01*
X-32549999Y-4554819D02*
X-32407142Y-4602438D01*
X-32407142Y-4602438D02*
X-32311904Y-4697676D01*
X-32311904Y-4697676D02*
X-32264285Y-4792914D01*
X-32264285Y-4792914D02*
X-32216666Y-4983390D01*
X-32216666Y-4983390D02*
X-32216666Y-5126247D01*
X-32216666Y-5126247D02*
X-32264285Y-5316723D01*
X-32264285Y-5316723D02*
X-32311904Y-5411961D01*
X-32311904Y-5411961D02*
X-32407142Y-5507200D01*
X-32407142Y-5507200D02*
X-32549999Y-5554819D01*
X-32549999Y-5554819D02*
X-32788094Y-5554819D01*
X-76240419Y-2066666D02*
X-76192800Y-2114285D01*
X-76192800Y-2114285D02*
X-76145180Y-2257142D01*
X-76145180Y-2257142D02*
X-76145180Y-2352380D01*
X-76145180Y-2352380D02*
X-76192800Y-2495237D01*
X-76192800Y-2495237D02*
X-76288038Y-2590475D01*
X-76288038Y-2590475D02*
X-76383276Y-2638094D01*
X-76383276Y-2638094D02*
X-76573752Y-2685713D01*
X-76573752Y-2685713D02*
X-76716609Y-2685713D01*
X-76716609Y-2685713D02*
X-76907085Y-2638094D01*
X-76907085Y-2638094D02*
X-77002323Y-2590475D01*
X-77002323Y-2590475D02*
X-77097561Y-2495237D01*
X-77097561Y-2495237D02*
X-77145180Y-2352380D01*
X-77145180Y-2352380D02*
X-77145180Y-2257142D01*
X-77145180Y-2257142D02*
X-77097561Y-2114285D01*
X-77097561Y-2114285D02*
X-77049942Y-2066666D01*
X-76145180Y-1590475D02*
X-76145180Y-1399999D01*
X-76145180Y-1399999D02*
X-76192800Y-1304761D01*
X-76192800Y-1304761D02*
X-76240419Y-1257142D01*
X-76240419Y-1257142D02*
X-76383276Y-1161904D01*
X-76383276Y-1161904D02*
X-76573752Y-1114285D01*
X-76573752Y-1114285D02*
X-76954704Y-1114285D01*
X-76954704Y-1114285D02*
X-77049942Y-1161904D01*
X-77049942Y-1161904D02*
X-77097561Y-1209523D01*
X-77097561Y-1209523D02*
X-77145180Y-1304761D01*
X-77145180Y-1304761D02*
X-77145180Y-1495237D01*
X-77145180Y-1495237D02*
X-77097561Y-1590475D01*
X-77097561Y-1590475D02*
X-77049942Y-1638094D01*
X-77049942Y-1638094D02*
X-76954704Y-1685713D01*
X-76954704Y-1685713D02*
X-76716609Y-1685713D01*
X-76716609Y-1685713D02*
X-76621371Y-1638094D01*
X-76621371Y-1638094D02*
X-76573752Y-1590475D01*
X-76573752Y-1590475D02*
X-76526133Y-1495237D01*
X-76526133Y-1495237D02*
X-76526133Y-1304761D01*
X-76526133Y-1304761D02*
X-76573752Y-1209523D01*
X-76573752Y-1209523D02*
X-76621371Y-1161904D01*
X-76621371Y-1161904D02*
X-76716609Y-1114285D01*
X-44933333Y-22081009D02*
X-44790476Y-22128628D01*
X-44790476Y-22128628D02*
X-44742857Y-22176247D01*
X-44742857Y-22176247D02*
X-44695238Y-22271485D01*
X-44695238Y-22271485D02*
X-44695238Y-22414342D01*
X-44695238Y-22414342D02*
X-44742857Y-22509580D01*
X-44742857Y-22509580D02*
X-44790476Y-22557200D01*
X-44790476Y-22557200D02*
X-44885714Y-22604819D01*
X-44885714Y-22604819D02*
X-45266666Y-22604819D01*
X-45266666Y-22604819D02*
X-45266666Y-21604819D01*
X-45266666Y-21604819D02*
X-44933333Y-21604819D01*
X-44933333Y-21604819D02*
X-44838095Y-21652438D01*
X-44838095Y-21652438D02*
X-44790476Y-21700057D01*
X-44790476Y-21700057D02*
X-44742857Y-21795295D01*
X-44742857Y-21795295D02*
X-44742857Y-21890533D01*
X-44742857Y-21890533D02*
X-44790476Y-21985771D01*
X-44790476Y-21985771D02*
X-44838095Y-22033390D01*
X-44838095Y-22033390D02*
X-44933333Y-22081009D01*
X-44933333Y-22081009D02*
X-45266666Y-22081009D01*
X-44076190Y-21604819D02*
X-43885714Y-21604819D01*
X-43885714Y-21604819D02*
X-43790476Y-21652438D01*
X-43790476Y-21652438D02*
X-43695238Y-21747676D01*
X-43695238Y-21747676D02*
X-43647619Y-21938152D01*
X-43647619Y-21938152D02*
X-43647619Y-22271485D01*
X-43647619Y-22271485D02*
X-43695238Y-22461961D01*
X-43695238Y-22461961D02*
X-43790476Y-22557200D01*
X-43790476Y-22557200D02*
X-43885714Y-22604819D01*
X-43885714Y-22604819D02*
X-44076190Y-22604819D01*
X-44076190Y-22604819D02*
X-44171428Y-22557200D01*
X-44171428Y-22557200D02*
X-44266666Y-22461961D01*
X-44266666Y-22461961D02*
X-44314285Y-22271485D01*
X-44314285Y-22271485D02*
X-44314285Y-21938152D01*
X-44314285Y-21938152D02*
X-44266666Y-21747676D01*
X-44266666Y-21747676D02*
X-44171428Y-21652438D01*
X-44171428Y-21652438D02*
X-44076190Y-21604819D01*
X-43028571Y-21604819D02*
X-42838095Y-21604819D01*
X-42838095Y-21604819D02*
X-42742857Y-21652438D01*
X-42742857Y-21652438D02*
X-42647619Y-21747676D01*
X-42647619Y-21747676D02*
X-42600000Y-21938152D01*
X-42600000Y-21938152D02*
X-42600000Y-22271485D01*
X-42600000Y-22271485D02*
X-42647619Y-22461961D01*
X-42647619Y-22461961D02*
X-42742857Y-22557200D01*
X-42742857Y-22557200D02*
X-42838095Y-22604819D01*
X-42838095Y-22604819D02*
X-43028571Y-22604819D01*
X-43028571Y-22604819D02*
X-43123809Y-22557200D01*
X-43123809Y-22557200D02*
X-43219047Y-22461961D01*
X-43219047Y-22461961D02*
X-43266666Y-22271485D01*
X-43266666Y-22271485D02*
X-43266666Y-21938152D01*
X-43266666Y-21938152D02*
X-43219047Y-21747676D01*
X-43219047Y-21747676D02*
X-43123809Y-21652438D01*
X-43123809Y-21652438D02*
X-43028571Y-21604819D01*
X-42314285Y-21604819D02*
X-41742857Y-21604819D01*
X-42028571Y-22604819D02*
X-42028571Y-21604819D01*
X-40885714Y-22604819D02*
X-41457142Y-22604819D01*
X-41171428Y-22604819D02*
X-41171428Y-21604819D01*
X-41171428Y-21604819D02*
X-41266666Y-21747676D01*
X-41266666Y-21747676D02*
X-41361904Y-21842914D01*
X-41361904Y-21842914D02*
X-41457142Y-21890533D01*
X-81323808Y-39204819D02*
X-81323808Y-38204819D01*
X-81323808Y-38204819D02*
X-80990475Y-38919104D01*
X-80990475Y-38919104D02*
X-80657142Y-38204819D01*
X-80657142Y-38204819D02*
X-80657142Y-39204819D01*
X-80228570Y-38300057D02*
X-80180951Y-38252438D01*
X-80180951Y-38252438D02*
X-80085713Y-38204819D01*
X-80085713Y-38204819D02*
X-79847618Y-38204819D01*
X-79847618Y-38204819D02*
X-79752380Y-38252438D01*
X-79752380Y-38252438D02*
X-79704761Y-38300057D01*
X-79704761Y-38300057D02*
X-79657142Y-38395295D01*
X-79657142Y-38395295D02*
X-79657142Y-38490533D01*
X-79657142Y-38490533D02*
X-79704761Y-38633390D01*
X-79704761Y-38633390D02*
X-80276189Y-39204819D01*
X-80276189Y-39204819D02*
X-79657142Y-39204819D01*
X-79228570Y-39109580D02*
X-79180951Y-39157200D01*
X-79180951Y-39157200D02*
X-79228570Y-39204819D01*
X-79228570Y-39204819D02*
X-79276189Y-39157200D01*
X-79276189Y-39157200D02*
X-79228570Y-39109580D01*
X-79228570Y-39109580D02*
X-79228570Y-39204819D01*
X-78276190Y-38204819D02*
X-78752380Y-38204819D01*
X-78752380Y-38204819D02*
X-78799999Y-38681009D01*
X-78799999Y-38681009D02*
X-78752380Y-38633390D01*
X-78752380Y-38633390D02*
X-78657142Y-38585771D01*
X-78657142Y-38585771D02*
X-78419047Y-38585771D01*
X-78419047Y-38585771D02*
X-78323809Y-38633390D01*
X-78323809Y-38633390D02*
X-78276190Y-38681009D01*
X-78276190Y-38681009D02*
X-78228571Y-38776247D01*
X-78228571Y-38776247D02*
X-78228571Y-39014342D01*
X-78228571Y-39014342D02*
X-78276190Y-39109580D01*
X-78276190Y-39109580D02*
X-78323809Y-39157200D01*
X-78323809Y-39157200D02*
X-78419047Y-39204819D01*
X-78419047Y-39204819D02*
X-78657142Y-39204819D01*
X-78657142Y-39204819D02*
X-78752380Y-39157200D01*
X-78752380Y-39157200D02*
X-78799999Y-39109580D01*
X-73556666Y-16179819D02*
X-74032856Y-16179819D01*
X-74032856Y-16179819D02*
X-74032856Y-15179819D01*
X-72699523Y-16179819D02*
X-73270951Y-16179819D01*
X-72985237Y-16179819D02*
X-72985237Y-15179819D01*
X-72985237Y-15179819D02*
X-73080475Y-15322676D01*
X-73080475Y-15322676D02*
X-73175713Y-15417914D01*
X-73175713Y-15417914D02*
X-73270951Y-15465533D01*
X-78892857Y-16059580D02*
X-78940476Y-16107200D01*
X-78940476Y-16107200D02*
X-79083333Y-16154819D01*
X-79083333Y-16154819D02*
X-79178571Y-16154819D01*
X-79178571Y-16154819D02*
X-79321428Y-16107200D01*
X-79321428Y-16107200D02*
X-79416666Y-16011961D01*
X-79416666Y-16011961D02*
X-79464285Y-15916723D01*
X-79464285Y-15916723D02*
X-79511904Y-15726247D01*
X-79511904Y-15726247D02*
X-79511904Y-15583390D01*
X-79511904Y-15583390D02*
X-79464285Y-15392914D01*
X-79464285Y-15392914D02*
X-79416666Y-15297676D01*
X-79416666Y-15297676D02*
X-79321428Y-15202438D01*
X-79321428Y-15202438D02*
X-79178571Y-15154819D01*
X-79178571Y-15154819D02*
X-79083333Y-15154819D01*
X-79083333Y-15154819D02*
X-78940476Y-15202438D01*
X-78940476Y-15202438D02*
X-78892857Y-15250057D01*
X-77940476Y-16154819D02*
X-78511904Y-16154819D01*
X-78226190Y-16154819D02*
X-78226190Y-15154819D01*
X-78226190Y-15154819D02*
X-78321428Y-15297676D01*
X-78321428Y-15297676D02*
X-78416666Y-15392914D01*
X-78416666Y-15392914D02*
X-78511904Y-15440533D01*
X-77321428Y-15154819D02*
X-77226190Y-15154819D01*
X-77226190Y-15154819D02*
X-77130952Y-15202438D01*
X-77130952Y-15202438D02*
X-77083333Y-15250057D01*
X-77083333Y-15250057D02*
X-77035714Y-15345295D01*
X-77035714Y-15345295D02*
X-76988095Y-15535771D01*
X-76988095Y-15535771D02*
X-76988095Y-15773866D01*
X-76988095Y-15773866D02*
X-77035714Y-15964342D01*
X-77035714Y-15964342D02*
X-77083333Y-16059580D01*
X-77083333Y-16059580D02*
X-77130952Y-16107200D01*
X-77130952Y-16107200D02*
X-77226190Y-16154819D01*
X-77226190Y-16154819D02*
X-77321428Y-16154819D01*
X-77321428Y-16154819D02*
X-77416666Y-16107200D01*
X-77416666Y-16107200D02*
X-77464285Y-16059580D01*
X-77464285Y-16059580D02*
X-77511904Y-15964342D01*
X-77511904Y-15964342D02*
X-77559523Y-15773866D01*
X-77559523Y-15773866D02*
X-77559523Y-15535771D01*
X-77559523Y-15535771D02*
X-77511904Y-15345295D01*
X-77511904Y-15345295D02*
X-77464285Y-15250057D01*
X-77464285Y-15250057D02*
X-77416666Y-15202438D01*
X-77416666Y-15202438D02*
X-77321428Y-15154819D01*
X-69992857Y-8759580D02*
X-70040476Y-8807200D01*
X-70040476Y-8807200D02*
X-70183333Y-8854819D01*
X-70183333Y-8854819D02*
X-70278571Y-8854819D01*
X-70278571Y-8854819D02*
X-70421428Y-8807200D01*
X-70421428Y-8807200D02*
X-70516666Y-8711961D01*
X-70516666Y-8711961D02*
X-70564285Y-8616723D01*
X-70564285Y-8616723D02*
X-70611904Y-8426247D01*
X-70611904Y-8426247D02*
X-70611904Y-8283390D01*
X-70611904Y-8283390D02*
X-70564285Y-8092914D01*
X-70564285Y-8092914D02*
X-70516666Y-7997676D01*
X-70516666Y-7997676D02*
X-70421428Y-7902438D01*
X-70421428Y-7902438D02*
X-70278571Y-7854819D01*
X-70278571Y-7854819D02*
X-70183333Y-7854819D01*
X-70183333Y-7854819D02*
X-70040476Y-7902438D01*
X-70040476Y-7902438D02*
X-69992857Y-7950057D01*
X-69040476Y-8854819D02*
X-69611904Y-8854819D01*
X-69326190Y-8854819D02*
X-69326190Y-7854819D01*
X-69326190Y-7854819D02*
X-69421428Y-7997676D01*
X-69421428Y-7997676D02*
X-69516666Y-8092914D01*
X-69516666Y-8092914D02*
X-69611904Y-8140533D01*
X-68088095Y-8854819D02*
X-68659523Y-8854819D01*
X-68373809Y-8854819D02*
X-68373809Y-7854819D01*
X-68373809Y-7854819D02*
X-68469047Y-7997676D01*
X-68469047Y-7997676D02*
X-68564285Y-8092914D01*
X-68564285Y-8092914D02*
X-68659523Y-8140533D01*
X-67131009Y-28966666D02*
X-67131009Y-28633333D01*
X-67654819Y-28633333D02*
X-66654819Y-28633333D01*
X-66654819Y-28633333D02*
X-66654819Y-29109523D01*
X-67654819Y-30014285D02*
X-67654819Y-29442857D01*
X-67654819Y-29728571D02*
X-66654819Y-29728571D01*
X-66654819Y-29728571D02*
X-66797676Y-29633333D01*
X-66797676Y-29633333D02*
X-66892914Y-29538095D01*
X-66892914Y-29538095D02*
X-66940533Y-29442857D01*
X-71788094Y-19254819D02*
X-71788094Y-18254819D01*
X-71788094Y-18254819D02*
X-71549999Y-18254819D01*
X-71549999Y-18254819D02*
X-71407142Y-18302438D01*
X-71407142Y-18302438D02*
X-71311904Y-18397676D01*
X-71311904Y-18397676D02*
X-71264285Y-18492914D01*
X-71264285Y-18492914D02*
X-71216666Y-18683390D01*
X-71216666Y-18683390D02*
X-71216666Y-18826247D01*
X-71216666Y-18826247D02*
X-71264285Y-19016723D01*
X-71264285Y-19016723D02*
X-71311904Y-19111961D01*
X-71311904Y-19111961D02*
X-71407142Y-19207200D01*
X-71407142Y-19207200D02*
X-71549999Y-19254819D01*
X-71549999Y-19254819D02*
X-71788094Y-19254819D01*
X-70264285Y-19254819D02*
X-70835713Y-19254819D01*
X-70549999Y-19254819D02*
X-70549999Y-18254819D01*
X-70549999Y-18254819D02*
X-70645237Y-18397676D01*
X-70645237Y-18397676D02*
X-70740475Y-18492914D01*
X-70740475Y-18492914D02*
X-70835713Y-18540533D01*
X-36379166Y-10759580D02*
X-36426785Y-10807200D01*
X-36426785Y-10807200D02*
X-36569642Y-10854819D01*
X-36569642Y-10854819D02*
X-36664880Y-10854819D01*
X-36664880Y-10854819D02*
X-36807737Y-10807200D01*
X-36807737Y-10807200D02*
X-36902975Y-10711961D01*
X-36902975Y-10711961D02*
X-36950594Y-10616723D01*
X-36950594Y-10616723D02*
X-36998213Y-10426247D01*
X-36998213Y-10426247D02*
X-36998213Y-10283390D01*
X-36998213Y-10283390D02*
X-36950594Y-10092914D01*
X-36950594Y-10092914D02*
X-36902975Y-9997676D01*
X-36902975Y-9997676D02*
X-36807737Y-9902438D01*
X-36807737Y-9902438D02*
X-36664880Y-9854819D01*
X-36664880Y-9854819D02*
X-36569642Y-9854819D01*
X-36569642Y-9854819D02*
X-36426785Y-9902438D01*
X-36426785Y-9902438D02*
X-36379166Y-9950057D01*
X-35807737Y-10283390D02*
X-35902975Y-10235771D01*
X-35902975Y-10235771D02*
X-35950594Y-10188152D01*
X-35950594Y-10188152D02*
X-35998213Y-10092914D01*
X-35998213Y-10092914D02*
X-35998213Y-10045295D01*
X-35998213Y-10045295D02*
X-35950594Y-9950057D01*
X-35950594Y-9950057D02*
X-35902975Y-9902438D01*
X-35902975Y-9902438D02*
X-35807737Y-9854819D01*
X-35807737Y-9854819D02*
X-35617261Y-9854819D01*
X-35617261Y-9854819D02*
X-35522023Y-9902438D01*
X-35522023Y-9902438D02*
X-35474404Y-9950057D01*
X-35474404Y-9950057D02*
X-35426785Y-10045295D01*
X-35426785Y-10045295D02*
X-35426785Y-10092914D01*
X-35426785Y-10092914D02*
X-35474404Y-10188152D01*
X-35474404Y-10188152D02*
X-35522023Y-10235771D01*
X-35522023Y-10235771D02*
X-35617261Y-10283390D01*
X-35617261Y-10283390D02*
X-35807737Y-10283390D01*
X-35807737Y-10283390D02*
X-35902975Y-10331009D01*
X-35902975Y-10331009D02*
X-35950594Y-10378628D01*
X-35950594Y-10378628D02*
X-35998213Y-10473866D01*
X-35998213Y-10473866D02*
X-35998213Y-10664342D01*
X-35998213Y-10664342D02*
X-35950594Y-10759580D01*
X-35950594Y-10759580D02*
X-35902975Y-10807200D01*
X-35902975Y-10807200D02*
X-35807737Y-10854819D01*
X-35807737Y-10854819D02*
X-35617261Y-10854819D01*
X-35617261Y-10854819D02*
X-35522023Y-10807200D01*
X-35522023Y-10807200D02*
X-35474404Y-10759580D01*
X-35474404Y-10759580D02*
X-35426785Y-10664342D01*
X-35426785Y-10664342D02*
X-35426785Y-10473866D01*
X-35426785Y-10473866D02*
X-35474404Y-10378628D01*
X-35474404Y-10378628D02*
X-35522023Y-10331009D01*
X-35522023Y-10331009D02*
X-35617261Y-10283390D01*
X-71292857Y-3304819D02*
X-71626190Y-2828628D01*
X-71864285Y-3304819D02*
X-71864285Y-2304819D01*
X-71864285Y-2304819D02*
X-71483333Y-2304819D01*
X-71483333Y-2304819D02*
X-71388095Y-2352438D01*
X-71388095Y-2352438D02*
X-71340476Y-2400057D01*
X-71340476Y-2400057D02*
X-71292857Y-2495295D01*
X-71292857Y-2495295D02*
X-71292857Y-2638152D01*
X-71292857Y-2638152D02*
X-71340476Y-2733390D01*
X-71340476Y-2733390D02*
X-71388095Y-2781009D01*
X-71388095Y-2781009D02*
X-71483333Y-2828628D01*
X-71483333Y-2828628D02*
X-71864285Y-2828628D01*
X-70340476Y-3304819D02*
X-70911904Y-3304819D01*
X-70626190Y-3304819D02*
X-70626190Y-2304819D01*
X-70626190Y-2304819D02*
X-70721428Y-2447676D01*
X-70721428Y-2447676D02*
X-70816666Y-2542914D01*
X-70816666Y-2542914D02*
X-70911904Y-2590533D01*
X-69721428Y-2304819D02*
X-69626190Y-2304819D01*
X-69626190Y-2304819D02*
X-69530952Y-2352438D01*
X-69530952Y-2352438D02*
X-69483333Y-2400057D01*
X-69483333Y-2400057D02*
X-69435714Y-2495295D01*
X-69435714Y-2495295D02*
X-69388095Y-2685771D01*
X-69388095Y-2685771D02*
X-69388095Y-2923866D01*
X-69388095Y-2923866D02*
X-69435714Y-3114342D01*
X-69435714Y-3114342D02*
X-69483333Y-3209580D01*
X-69483333Y-3209580D02*
X-69530952Y-3257200D01*
X-69530952Y-3257200D02*
X-69626190Y-3304819D01*
X-69626190Y-3304819D02*
X-69721428Y-3304819D01*
X-69721428Y-3304819D02*
X-69816666Y-3257200D01*
X-69816666Y-3257200D02*
X-69864285Y-3209580D01*
X-69864285Y-3209580D02*
X-69911904Y-3114342D01*
X-69911904Y-3114342D02*
X-69959523Y-2923866D01*
X-69959523Y-2923866D02*
X-69959523Y-2685771D01*
X-69959523Y-2685771D02*
X-69911904Y-2495295D01*
X-69911904Y-2495295D02*
X-69864285Y-2400057D01*
X-69864285Y-2400057D02*
X-69816666Y-2352438D01*
X-69816666Y-2352438D02*
X-69721428Y-2304819D01*
X-56159580Y-24833333D02*
X-56207200Y-24785714D01*
X-56207200Y-24785714D02*
X-56254819Y-24642857D01*
X-56254819Y-24642857D02*
X-56254819Y-24547619D01*
X-56254819Y-24547619D02*
X-56207200Y-24404762D01*
X-56207200Y-24404762D02*
X-56111961Y-24309524D01*
X-56111961Y-24309524D02*
X-56016723Y-24261905D01*
X-56016723Y-24261905D02*
X-55826247Y-24214286D01*
X-55826247Y-24214286D02*
X-55683390Y-24214286D01*
X-55683390Y-24214286D02*
X-55492914Y-24261905D01*
X-55492914Y-24261905D02*
X-55397676Y-24309524D01*
X-55397676Y-24309524D02*
X-55302438Y-24404762D01*
X-55302438Y-24404762D02*
X-55254819Y-24547619D01*
X-55254819Y-24547619D02*
X-55254819Y-24642857D01*
X-55254819Y-24642857D02*
X-55302438Y-24785714D01*
X-55302438Y-24785714D02*
X-55350057Y-24833333D01*
X-55254819Y-25166667D02*
X-55254819Y-25785714D01*
X-55254819Y-25785714D02*
X-55635771Y-25452381D01*
X-55635771Y-25452381D02*
X-55635771Y-25595238D01*
X-55635771Y-25595238D02*
X-55683390Y-25690476D01*
X-55683390Y-25690476D02*
X-55731009Y-25738095D01*
X-55731009Y-25738095D02*
X-55826247Y-25785714D01*
X-55826247Y-25785714D02*
X-56064342Y-25785714D01*
X-56064342Y-25785714D02*
X-56159580Y-25738095D01*
X-56159580Y-25738095D02*
X-56207200Y-25690476D01*
X-56207200Y-25690476D02*
X-56254819Y-25595238D01*
X-56254819Y-25595238D02*
X-56254819Y-25309524D01*
X-56254819Y-25309524D02*
X-56207200Y-25214286D01*
X-56207200Y-25214286D02*
X-56159580Y-25166667D01*
X-52028571Y-22554819D02*
X-52361904Y-22078628D01*
X-52599999Y-22554819D02*
X-52599999Y-21554819D01*
X-52599999Y-21554819D02*
X-52219047Y-21554819D01*
X-52219047Y-21554819D02*
X-52123809Y-21602438D01*
X-52123809Y-21602438D02*
X-52076190Y-21650057D01*
X-52076190Y-21650057D02*
X-52028571Y-21745295D01*
X-52028571Y-21745295D02*
X-52028571Y-21888152D01*
X-52028571Y-21888152D02*
X-52076190Y-21983390D01*
X-52076190Y-21983390D02*
X-52123809Y-22031009D01*
X-52123809Y-22031009D02*
X-52219047Y-22078628D01*
X-52219047Y-22078628D02*
X-52599999Y-22078628D01*
X-51599999Y-22031009D02*
X-51266666Y-22031009D01*
X-51123809Y-22554819D02*
X-51599999Y-22554819D01*
X-51599999Y-22554819D02*
X-51599999Y-21554819D01*
X-51599999Y-21554819D02*
X-51123809Y-21554819D01*
X-50742856Y-22507200D02*
X-50599999Y-22554819D01*
X-50599999Y-22554819D02*
X-50361904Y-22554819D01*
X-50361904Y-22554819D02*
X-50266666Y-22507200D01*
X-50266666Y-22507200D02*
X-50219047Y-22459580D01*
X-50219047Y-22459580D02*
X-50171428Y-22364342D01*
X-50171428Y-22364342D02*
X-50171428Y-22269104D01*
X-50171428Y-22269104D02*
X-50219047Y-22173866D01*
X-50219047Y-22173866D02*
X-50266666Y-22126247D01*
X-50266666Y-22126247D02*
X-50361904Y-22078628D01*
X-50361904Y-22078628D02*
X-50552380Y-22031009D01*
X-50552380Y-22031009D02*
X-50647618Y-21983390D01*
X-50647618Y-21983390D02*
X-50695237Y-21935771D01*
X-50695237Y-21935771D02*
X-50742856Y-21840533D01*
X-50742856Y-21840533D02*
X-50742856Y-21745295D01*
X-50742856Y-21745295D02*
X-50695237Y-21650057D01*
X-50695237Y-21650057D02*
X-50647618Y-21602438D01*
X-50647618Y-21602438D02*
X-50552380Y-21554819D01*
X-50552380Y-21554819D02*
X-50314285Y-21554819D01*
X-50314285Y-21554819D02*
X-50171428Y-21602438D01*
X-49742856Y-22031009D02*
X-49409523Y-22031009D01*
X-49266666Y-22554819D02*
X-49742856Y-22554819D01*
X-49742856Y-22554819D02*
X-49742856Y-21554819D01*
X-49742856Y-21554819D02*
X-49266666Y-21554819D01*
X-48980951Y-21554819D02*
X-48409523Y-21554819D01*
X-48695237Y-22554819D02*
X-48695237Y-21554819D01*
X-47552380Y-22554819D02*
X-48123808Y-22554819D01*
X-47838094Y-22554819D02*
X-47838094Y-21554819D01*
X-47838094Y-21554819D02*
X-47933332Y-21697676D01*
X-47933332Y-21697676D02*
X-48028570Y-21792914D01*
X-48028570Y-21792914D02*
X-48123808Y-21840533D01*
X-70242857Y-1609580D02*
X-70290476Y-1657200D01*
X-70290476Y-1657200D02*
X-70433333Y-1704819D01*
X-70433333Y-1704819D02*
X-70528571Y-1704819D01*
X-70528571Y-1704819D02*
X-70671428Y-1657200D01*
X-70671428Y-1657200D02*
X-70766666Y-1561961D01*
X-70766666Y-1561961D02*
X-70814285Y-1466723D01*
X-70814285Y-1466723D02*
X-70861904Y-1276247D01*
X-70861904Y-1276247D02*
X-70861904Y-1133390D01*
X-70861904Y-1133390D02*
X-70814285Y-942914D01*
X-70814285Y-942914D02*
X-70766666Y-847676D01*
X-70766666Y-847676D02*
X-70671428Y-752438D01*
X-70671428Y-752438D02*
X-70528571Y-704819D01*
X-70528571Y-704819D02*
X-70433333Y-704819D01*
X-70433333Y-704819D02*
X-70290476Y-752438D01*
X-70290476Y-752438D02*
X-70242857Y-800057D01*
X-69290476Y-1704819D02*
X-69861904Y-1704819D01*
X-69576190Y-1704819D02*
X-69576190Y-704819D01*
X-69576190Y-704819D02*
X-69671428Y-847676D01*
X-69671428Y-847676D02*
X-69766666Y-942914D01*
X-69766666Y-942914D02*
X-69861904Y-990533D01*
X-68909523Y-800057D02*
X-68861904Y-752438D01*
X-68861904Y-752438D02*
X-68766666Y-704819D01*
X-68766666Y-704819D02*
X-68528571Y-704819D01*
X-68528571Y-704819D02*
X-68433333Y-752438D01*
X-68433333Y-752438D02*
X-68385714Y-800057D01*
X-68385714Y-800057D02*
X-68338095Y-895295D01*
X-68338095Y-895295D02*
X-68338095Y-990533D01*
X-68338095Y-990533D02*
X-68385714Y-1133390D01*
X-68385714Y-1133390D02*
X-68957142Y-1704819D01*
X-68957142Y-1704819D02*
X-68338095Y-1704819D01*
X-62656666Y-3329819D02*
X-62989999Y-2853628D01*
X-63228094Y-3329819D02*
X-63228094Y-2329819D01*
X-63228094Y-2329819D02*
X-62847142Y-2329819D01*
X-62847142Y-2329819D02*
X-62751904Y-2377438D01*
X-62751904Y-2377438D02*
X-62704285Y-2425057D01*
X-62704285Y-2425057D02*
X-62656666Y-2520295D01*
X-62656666Y-2520295D02*
X-62656666Y-2663152D01*
X-62656666Y-2663152D02*
X-62704285Y-2758390D01*
X-62704285Y-2758390D02*
X-62751904Y-2806009D01*
X-62751904Y-2806009D02*
X-62847142Y-2853628D01*
X-62847142Y-2853628D02*
X-63228094Y-2853628D01*
X-62085237Y-2758390D02*
X-62180475Y-2710771D01*
X-62180475Y-2710771D02*
X-62228094Y-2663152D01*
X-62228094Y-2663152D02*
X-62275713Y-2567914D01*
X-62275713Y-2567914D02*
X-62275713Y-2520295D01*
X-62275713Y-2520295D02*
X-62228094Y-2425057D01*
X-62228094Y-2425057D02*
X-62180475Y-2377438D01*
X-62180475Y-2377438D02*
X-62085237Y-2329819D01*
X-62085237Y-2329819D02*
X-61894761Y-2329819D01*
X-61894761Y-2329819D02*
X-61799523Y-2377438D01*
X-61799523Y-2377438D02*
X-61751904Y-2425057D01*
X-61751904Y-2425057D02*
X-61704285Y-2520295D01*
X-61704285Y-2520295D02*
X-61704285Y-2567914D01*
X-61704285Y-2567914D02*
X-61751904Y-2663152D01*
X-61751904Y-2663152D02*
X-61799523Y-2710771D01*
X-61799523Y-2710771D02*
X-61894761Y-2758390D01*
X-61894761Y-2758390D02*
X-62085237Y-2758390D01*
X-62085237Y-2758390D02*
X-62180475Y-2806009D01*
X-62180475Y-2806009D02*
X-62228094Y-2853628D01*
X-62228094Y-2853628D02*
X-62275713Y-2948866D01*
X-62275713Y-2948866D02*
X-62275713Y-3139342D01*
X-62275713Y-3139342D02*
X-62228094Y-3234580D01*
X-62228094Y-3234580D02*
X-62180475Y-3282200D01*
X-62180475Y-3282200D02*
X-62085237Y-3329819D01*
X-62085237Y-3329819D02*
X-61894761Y-3329819D01*
X-61894761Y-3329819D02*
X-61799523Y-3282200D01*
X-61799523Y-3282200D02*
X-61751904Y-3234580D01*
X-61751904Y-3234580D02*
X-61704285Y-3139342D01*
X-61704285Y-3139342D02*
X-61704285Y-2948866D01*
X-61704285Y-2948866D02*
X-61751904Y-2853628D01*
X-61751904Y-2853628D02*
X-61799523Y-2806009D01*
X-61799523Y-2806009D02*
X-61894761Y-2758390D01*
X-79735180Y-7417857D02*
X-80211371Y-7751190D01*
X-79735180Y-7989285D02*
X-80735180Y-7989285D01*
X-80735180Y-7989285D02*
X-80735180Y-7608333D01*
X-80735180Y-7608333D02*
X-80687561Y-7513095D01*
X-80687561Y-7513095D02*
X-80639942Y-7465476D01*
X-80639942Y-7465476D02*
X-80544704Y-7417857D01*
X-80544704Y-7417857D02*
X-80401847Y-7417857D01*
X-80401847Y-7417857D02*
X-80306609Y-7465476D01*
X-80306609Y-7465476D02*
X-80258990Y-7513095D01*
X-80258990Y-7513095D02*
X-80211371Y-7608333D01*
X-80211371Y-7608333D02*
X-80211371Y-7989285D01*
X-79735180Y-6465476D02*
X-79735180Y-7036904D01*
X-79735180Y-6751190D02*
X-80735180Y-6751190D01*
X-80735180Y-6751190D02*
X-80592323Y-6846428D01*
X-80592323Y-6846428D02*
X-80497085Y-6941666D01*
X-80497085Y-6941666D02*
X-80449466Y-7036904D01*
X-79735180Y-5513095D02*
X-79735180Y-6084523D01*
X-79735180Y-5798809D02*
X-80735180Y-5798809D01*
X-80735180Y-5798809D02*
X-80592323Y-5894047D01*
X-80592323Y-5894047D02*
X-80497085Y-5989285D01*
X-80497085Y-5989285D02*
X-80449466Y-6084523D01*
X-63088094Y-6154819D02*
X-62469047Y-6154819D01*
X-62469047Y-6154819D02*
X-62802380Y-6535771D01*
X-62802380Y-6535771D02*
X-62659523Y-6535771D01*
X-62659523Y-6535771D02*
X-62564285Y-6583390D01*
X-62564285Y-6583390D02*
X-62516666Y-6631009D01*
X-62516666Y-6631009D02*
X-62469047Y-6726247D01*
X-62469047Y-6726247D02*
X-62469047Y-6964342D01*
X-62469047Y-6964342D02*
X-62516666Y-7059580D01*
X-62516666Y-7059580D02*
X-62564285Y-7107200D01*
X-62564285Y-7107200D02*
X-62659523Y-7154819D01*
X-62659523Y-7154819D02*
X-62945237Y-7154819D01*
X-62945237Y-7154819D02*
X-63040475Y-7107200D01*
X-63040475Y-7107200D02*
X-63088094Y-7059580D01*
X-62183332Y-6154819D02*
X-61849999Y-7154819D01*
X-61849999Y-7154819D02*
X-61516666Y-6154819D01*
X-61278570Y-6154819D02*
X-60659523Y-6154819D01*
X-60659523Y-6154819D02*
X-60992856Y-6535771D01*
X-60992856Y-6535771D02*
X-60849999Y-6535771D01*
X-60849999Y-6535771D02*
X-60754761Y-6583390D01*
X-60754761Y-6583390D02*
X-60707142Y-6631009D01*
X-60707142Y-6631009D02*
X-60659523Y-6726247D01*
X-60659523Y-6726247D02*
X-60659523Y-6964342D01*
X-60659523Y-6964342D02*
X-60707142Y-7059580D01*
X-60707142Y-7059580D02*
X-60754761Y-7107200D01*
X-60754761Y-7107200D02*
X-60849999Y-7154819D01*
X-60849999Y-7154819D02*
X-61135713Y-7154819D01*
X-61135713Y-7154819D02*
X-61230951Y-7107200D01*
X-61230951Y-7107200D02*
X-61278570Y-7059580D01*
X-62656666Y-8854819D02*
X-62989999Y-8378628D01*
X-63228094Y-8854819D02*
X-63228094Y-7854819D01*
X-63228094Y-7854819D02*
X-62847142Y-7854819D01*
X-62847142Y-7854819D02*
X-62751904Y-7902438D01*
X-62751904Y-7902438D02*
X-62704285Y-7950057D01*
X-62704285Y-7950057D02*
X-62656666Y-8045295D01*
X-62656666Y-8045295D02*
X-62656666Y-8188152D01*
X-62656666Y-8188152D02*
X-62704285Y-8283390D01*
X-62704285Y-8283390D02*
X-62751904Y-8331009D01*
X-62751904Y-8331009D02*
X-62847142Y-8378628D01*
X-62847142Y-8378628D02*
X-63228094Y-8378628D01*
X-62180475Y-8854819D02*
X-61989999Y-8854819D01*
X-61989999Y-8854819D02*
X-61894761Y-8807200D01*
X-61894761Y-8807200D02*
X-61847142Y-8759580D01*
X-61847142Y-8759580D02*
X-61751904Y-8616723D01*
X-61751904Y-8616723D02*
X-61704285Y-8426247D01*
X-61704285Y-8426247D02*
X-61704285Y-8045295D01*
X-61704285Y-8045295D02*
X-61751904Y-7950057D01*
X-61751904Y-7950057D02*
X-61799523Y-7902438D01*
X-61799523Y-7902438D02*
X-61894761Y-7854819D01*
X-61894761Y-7854819D02*
X-62085237Y-7854819D01*
X-62085237Y-7854819D02*
X-62180475Y-7902438D01*
X-62180475Y-7902438D02*
X-62228094Y-7950057D01*
X-62228094Y-7950057D02*
X-62275713Y-8045295D01*
X-62275713Y-8045295D02*
X-62275713Y-8283390D01*
X-62275713Y-8283390D02*
X-62228094Y-8378628D01*
X-62228094Y-8378628D02*
X-62180475Y-8426247D01*
X-62180475Y-8426247D02*
X-62085237Y-8473866D01*
X-62085237Y-8473866D02*
X-61894761Y-8473866D01*
X-61894761Y-8473866D02*
X-61799523Y-8426247D01*
X-61799523Y-8426247D02*
X-61751904Y-8378628D01*
X-61751904Y-8378628D02*
X-61704285Y-8283390D01*
%TO.C,C14*%
X-27015000Y-17838748D02*
X-27015000Y-18361252D01*
X-28485000Y-17838748D02*
X-28485000Y-18361252D01*
%TO.C,D2*%
X-31511153Y-1400000D02*
G75*
G02*
X-31451551Y-3667366I1311153J-1100000D01*
G01*
%TO.C,C5*%
X-58776248Y-23535000D02*
X-59298752Y-23535000D01*
X-58776248Y-22065000D02*
X-59298752Y-22065000D01*
%TO.C,D10*%
X-67190000Y-22511153D02*
G75*
G02*
X-64922634Y-22451551I1100000J1311153D01*
G01*
%TO.C,TP2*%
X-35450000Y-5100000D02*
G75*
G02*
X-36850000Y-5100000I-700000J0D01*
G01*
X-36850000Y-5100000D02*
G75*
G02*
X-35450000Y-5100000I700000J0D01*
G01*
%TO.C,CP6*%
X-67285000Y-15951248D02*
X-67285000Y-16473752D01*
X-65815000Y-15951248D02*
X-65815000Y-16473752D01*
%TO.C,RCWL-1601*%
X-22600000Y-16050000D02*
X-25400000Y-16050000D01*
X-25400000Y-24050000D01*
X-22600000Y-24050000D01*
X-22600000Y-16050000D01*
%TO.C,C9*%
X-79025000Y-3098752D02*
X-79025000Y-2576248D01*
X-77555000Y-3098752D02*
X-77555000Y-2576248D01*
%TO.C,CP4*%
X-62685000Y-15951248D02*
X-62685000Y-16473752D01*
X-61215000Y-15951248D02*
X-61215000Y-16473752D01*
%TO.C,CP5*%
X-64985000Y-15951248D02*
X-64985000Y-16473752D01*
X-63515000Y-15951248D02*
X-63515000Y-16473752D01*
%TO.C,CP2*%
X-67285000Y-11998752D02*
X-67285000Y-11476248D01*
X-65815000Y-11998752D02*
X-65815000Y-11476248D01*
%TO.C,LED-W1*%
X-63035000Y-21115000D02*
X-63035000Y-23575000D01*
X-61565000Y-21115000D02*
X-63035000Y-21115000D01*
X-61565000Y-23575000D02*
X-61565000Y-21115000D01*
%TO.C,USBC-V1*%
X-30470000Y-15600000D02*
G75*
G02*
X-30670000Y-15600000I-100000J0D01*
G01*
X-30670000Y-15600000D02*
G75*
G02*
X-30470000Y-15600000I100000J0D01*
G01*
%TO.C,DIP1*%
X-40490000Y-31700000D02*
X-40490000Y-33206667D01*
X-30370000Y-31700001D02*
X-40490000Y-31700000D01*
X-40130000Y-33206667D02*
X-40130000Y-34713333D01*
X-40490000Y-33206667D02*
X-40130000Y-33206667D01*
X-40130000Y-34713333D02*
X-40490000Y-34713333D01*
X-40490000Y-34713333D02*
X-40490000Y-36219999D01*
X-40490000Y-36219999D02*
X-30370000Y-36220000D01*
X-30370000Y-36220000D02*
X-30370000Y-31700001D01*
%TO.C,CP1*%
X-69585000Y-11998752D02*
X-69585000Y-11476248D01*
X-68115000Y-11998752D02*
X-68115000Y-11476248D01*
%TO.C,C10*%
X-78985000Y-12923752D02*
X-78985000Y-12401248D01*
X-77515000Y-12923752D02*
X-77515000Y-12401248D01*
%TO.C,LED-OK1*%
X-63035000Y-26112500D02*
X-63035000Y-28572500D01*
X-63035000Y-28572500D02*
X-61565000Y-28572500D01*
X-61565000Y-28572500D02*
X-61565000Y-26112500D01*
%TO.C,C11*%
X-67925000Y-6651248D02*
X-67925000Y-7173752D01*
X-66455000Y-6651248D02*
X-66455000Y-7173752D01*
%TO.C,U3*%
X-58500000Y-1150000D02*
X-58500000Y-19150000D01*
X-58500000Y-1150000D02*
X-58050000Y-1150000D01*
X-58500000Y-19150000D02*
X-58050000Y-19150000D01*
X-40050000Y-1150000D02*
X-39300000Y-1150000D01*
X-40050000Y-19150000D02*
X-39300000Y-19150000D01*
X-39300000Y-1150000D02*
X-39300000Y-2150000D01*
X-39300000Y-19150000D02*
X-39300000Y-18150000D01*
%TO.C,F1*%
X-70110000Y-28697936D02*
X-70110000Y-29902064D01*
X-68290000Y-28697936D02*
X-68290000Y-29902064D01*
%TO.C,D1*%
X-68750000Y-22428847D02*
G75*
G02*
X-71017366Y-22488449I-1100000J-1311153D01*
G01*
%TO.C,SW3*%
X-84030000Y-11530000D02*
X-84030000Y-8880000D01*
X-81270000Y-8880000D02*
X-84030000Y-8880000D01*
X-81270000Y-11530000D02*
X-84030000Y-11530000D01*
X-81270000Y-11530000D02*
X-81270000Y-8880000D01*
X-81270000Y-12800000D02*
X-81270000Y-14180000D01*
X-81270000Y-14180000D02*
X-82650000Y-14180000D01*
%TO.C,CP3*%
X-64985000Y-11998752D02*
X-64985000Y-11476248D01*
X-63515000Y-11998752D02*
X-63515000Y-11476248D01*
%TO.C,C8*%
X-32888748Y-9665000D02*
X-33411252Y-9665000D01*
X-32888748Y-11135000D02*
X-33411252Y-11135000D01*
%TO.C,R10*%
X-73762936Y-1140000D02*
X-74217064Y-1140000D01*
X-73762936Y-2610000D02*
X-74217064Y-2610000D01*
%TO.C,C3*%
X-58776248Y-24265000D02*
X-59298752Y-24265000D01*
X-58776248Y-25735000D02*
X-59298752Y-25735000D01*
%TO.C,J3*%
X-72650000Y-17700000D02*
X-76650000Y-17700000D01*
X-76650000Y-37700000D01*
X-72650000Y-37700000D01*
X-72650000Y-17700000D01*
%TO.C,C12*%
X-67925000Y-2476248D02*
X-67925000Y-2998752D01*
X-66455000Y-2476248D02*
X-66455000Y-2998752D01*
%TO.C,R8*%
X-65325000Y-3002064D02*
X-65325000Y-2547936D01*
X-63855000Y-3002064D02*
X-63855000Y-2547936D01*
%TO.C,CP7*%
X-62685000Y-11998752D02*
X-62685000Y-11476248D01*
X-61215000Y-11998752D02*
X-61215000Y-11476248D01*
%TO.C,R11*%
X-79025000Y-7102064D02*
X-79025000Y-6647936D01*
X-77555000Y-7102064D02*
X-77555000Y-6647936D01*
%TO.C,TP1*%
X-61150000Y-5000000D02*
G75*
G02*
X-62550000Y-5000000I-700000J0D01*
G01*
X-62550000Y-5000000D02*
G75*
G02*
X-61150000Y-5000000I700000J0D01*
G01*
%TO.C,R9*%
X-65325000Y-7102064D02*
X-65325000Y-6647936D01*
X-63855000Y-7102064D02*
X-63855000Y-6647936D01*
%TD*%
%LPC*%
D12*
%TO.C,M2.5*%
X-24400000Y-3400000D03*
D13*
X-24400000Y-3400000D03*
%TD*%
D14*
%TO.C,C14*%
X-27750000Y-19137500D03*
X-27750000Y-17062500D03*
%TD*%
D15*
%TO.C,D2*%
X-30200000Y-2500000D03*
D16*
X-32740000Y-2500000D03*
%TD*%
D17*
%TO.C,C5*%
X-60075000Y-22800000D03*
X-58000000Y-22800000D03*
%TD*%
D16*
%TO.C,D10*%
X-66090000Y-23740000D03*
D15*
X-66090000Y-21200000D03*
%TD*%
D18*
%TO.C,TP2*%
X-36150000Y-5100000D03*
%TD*%
D14*
%TO.C,CP6*%
X-66550000Y-15175000D03*
X-66550000Y-17250000D03*
%TD*%
D19*
%TO.C,RCWL-1601*%
X-24000000Y-17050000D03*
D20*
X-24020000Y-19050000D03*
X-24000000Y-21050000D03*
X-24000000Y-23050000D03*
%TD*%
D21*
%TO.C,C9*%
X-78290000Y-3875000D03*
X-78290000Y-1800000D03*
%TD*%
D14*
%TO.C,CP4*%
X-61950000Y-15175000D03*
X-61950000Y-17250000D03*
%TD*%
D22*
%TO.C,BTN1*%
X-89790000Y-9500000D03*
X-89790000Y-14000000D03*
D23*
X-87290000Y-8250000D03*
X-87290000Y-15250000D03*
%TD*%
D14*
%TO.C,CP5*%
X-64250000Y-15175000D03*
X-64250000Y-17250000D03*
%TD*%
D21*
%TO.C,CP2*%
X-66550000Y-12775000D03*
X-66550000Y-10700000D03*
%TD*%
D24*
%TO.C,BOOT1*%
X-40700000Y-25850000D03*
X-45200000Y-25850000D03*
X-40700000Y-23650000D03*
X-45200000Y-23650000D03*
%TD*%
D25*
%TO.C,LED-W1*%
X-62300000Y-21900000D03*
X-62300000Y-23650000D03*
%TD*%
D13*
%TO.C,M2.5*%
X-83700000Y-36350000D03*
D12*
X-83700000Y-36350000D03*
%TD*%
D26*
%TO.C,USBC-V1*%
X-33390000Y-14350000D03*
X-33390000Y-22350000D03*
D27*
X-31730000Y-15600000D03*
X-31730000Y-17100000D03*
X-31730000Y-17600000D03*
X-31730000Y-18100000D03*
X-31730000Y-18600000D03*
X-31730000Y-19100000D03*
X-31730000Y-19600000D03*
X-31730000Y-21100000D03*
X-35050000Y-21100000D03*
X-35050000Y-19600000D03*
X-35050000Y-19100000D03*
X-35050000Y-18600000D03*
X-35050000Y-18100000D03*
X-35050000Y-17600000D03*
X-35050000Y-17100000D03*
X-35050000Y-15600000D03*
D28*
X-31960000Y-14350000D03*
X-34820000Y-14350000D03*
X-31960000Y-22350000D03*
X-34820000Y-22350000D03*
%TD*%
D29*
%TO.C,DIP1*%
X-39240000Y-37720000D03*
X-36700000Y-37720000D03*
X-34160000Y-37720000D03*
X-31620000Y-37720000D03*
X-31620000Y-30200000D03*
X-34160000Y-30200000D03*
X-36700000Y-30200000D03*
X-39240000Y-30200000D03*
%TD*%
D30*
%TO.C,L1*%
X-75390000Y-11725000D03*
X-71490000Y-11725000D03*
%TD*%
D31*
%TO.C,T1*%
X-72566000Y-5625000D03*
D32*
X-73966000Y-4375000D03*
X-73966000Y-4875000D03*
X-73966000Y-5375000D03*
X-73966000Y-5875000D03*
X-73966000Y-6375000D03*
X-73966000Y-6875000D03*
X-71166000Y-6875000D03*
X-71166000Y-6375000D03*
X-71166000Y-5875000D03*
X-71166000Y-5375000D03*
X-71166000Y-4875000D03*
X-71166000Y-4375000D03*
%TD*%
D21*
%TO.C,CP1*%
X-68850000Y-12775000D03*
X-68850000Y-10700000D03*
%TD*%
%TO.C,C10*%
X-78250000Y-13700000D03*
X-78250000Y-11625000D03*
%TD*%
D13*
%TO.C,M2.5*%
X-82650000Y-3200000D03*
D12*
X-82650000Y-3200000D03*
%TD*%
D33*
%TO.C,Q1*%
X-64350000Y-31460000D03*
D34*
X-64350000Y-34000000D03*
X-64350000Y-36540000D03*
%TD*%
D35*
%TO.C,LED-OK1*%
X-62300000Y-27787500D03*
X-62300000Y-26037500D03*
%TD*%
D14*
%TO.C,C11*%
X-67190000Y-5875000D03*
X-67190000Y-7950000D03*
%TD*%
D36*
%TO.C,U3*%
X-57310000Y-18900000D03*
X-56040000Y-18900000D03*
X-54770000Y-18900000D03*
X-53500000Y-18900000D03*
X-52230000Y-18900000D03*
X-50960000Y-18900000D03*
X-49690000Y-18900000D03*
X-48420000Y-18900000D03*
X-47150000Y-18900000D03*
X-45880000Y-18900000D03*
X-44610000Y-18900000D03*
X-43340000Y-18900000D03*
X-42070000Y-18900000D03*
X-40800000Y-18900000D03*
D37*
X-39550000Y-17135000D03*
X-39550000Y-15865000D03*
X-39550000Y-14595000D03*
X-39550000Y-13325000D03*
X-39550000Y-12055000D03*
X-39550000Y-10785000D03*
X-39550000Y-9515000D03*
X-39550000Y-8245000D03*
X-39550000Y-6975000D03*
X-39550000Y-5705000D03*
X-39550000Y-4435000D03*
X-39550000Y-3165000D03*
D36*
X-40800000Y-1400000D03*
X-42070000Y-1400000D03*
X-43340000Y-1400000D03*
X-44610000Y-1400000D03*
X-45880000Y-1400000D03*
X-47150000Y-1400000D03*
X-48420000Y-1400000D03*
X-49690000Y-1400000D03*
X-50960000Y-1400000D03*
X-52230000Y-1400000D03*
X-53500000Y-1400000D03*
X-54770000Y-1400000D03*
X-56040000Y-1400000D03*
X-57310000Y-1400000D03*
D38*
X-50990000Y-13050000D03*
X-49590000Y-13050000D03*
X-48190000Y-13050000D03*
X-48190000Y-13050000D03*
X-50990000Y-11650000D03*
X-50990000Y-11650000D03*
X-49590000Y-11650000D03*
X-48190000Y-11650000D03*
X-50990000Y-10250000D03*
X-49590000Y-10250000D03*
X-48190000Y-10250000D03*
%TD*%
D13*
%TO.C,M2.5*%
X-24400000Y-29700000D03*
D12*
X-24400000Y-29700000D03*
%TD*%
D39*
%TO.C,F1*%
X-69200000Y-27812500D03*
X-69200000Y-30787500D03*
%TD*%
D16*
%TO.C,D1*%
X-69850000Y-21200000D03*
D15*
X-69850000Y-23740000D03*
%TD*%
D40*
%TO.C,SW3*%
X-82650000Y-12800000D03*
D41*
X-82650000Y-10260000D03*
%TD*%
D21*
%TO.C,CP3*%
X-64250000Y-12775000D03*
X-64250000Y-10700000D03*
%TD*%
D42*
%TO.C,REF\u002A\u002A*%
X-47050000Y-34000000D03*
D43*
X-47050000Y-34000000D03*
%TD*%
D44*
%TO.C,U1*%
X-39600000Y-21050000D03*
X-39600000Y-21749998D03*
X-38860200Y-21399999D03*
%TD*%
D17*
%TO.C,C8*%
X-32112500Y-10400000D03*
X-34187500Y-10400000D03*
%TD*%
D45*
%TO.C,R10*%
X-72990000Y-1875000D03*
X-74990000Y-1875000D03*
%TD*%
D17*
%TO.C,C3*%
X-58000000Y-25000000D03*
X-60075000Y-25000000D03*
%TD*%
D46*
%TO.C,J3*%
X-74650000Y-20200000D03*
D47*
X-74650000Y-25200000D03*
X-74650000Y-30200000D03*
X-74650000Y-35200000D03*
%TD*%
D24*
%TO.C,RESET1*%
X-48100000Y-25850000D03*
X-52600000Y-25850000D03*
X-48100000Y-23650000D03*
X-52600000Y-23650000D03*
%TD*%
D14*
%TO.C,C12*%
X-67190000Y-1700000D03*
X-67190000Y-3775000D03*
%TD*%
D48*
%TO.C,R8*%
X-64590000Y-3775000D03*
X-64590000Y-1775000D03*
%TD*%
D21*
%TO.C,CP7*%
X-61950000Y-12775000D03*
X-61950000Y-10700000D03*
%TD*%
D48*
%TO.C,R11*%
X-78290000Y-7875000D03*
X-78290000Y-5875000D03*
%TD*%
D18*
%TO.C,TP1*%
X-61850000Y-5000000D03*
%TD*%
D48*
%TO.C,R9*%
X-64590000Y-7875000D03*
X-64590000Y-5875000D03*
%TD*%
%LPD*%
D49*
X-87300000Y-34802808D02*
G75*
G02*
X-86896404Y-34000123I999996J3D01*
G01*
X-82050000Y-29896382D02*
G75*
G02*
X-82454634Y-30699837I-1000000J0D01*
G01*
X-86896404Y-34000123D02*
X-82454634Y-30699837D01*
X-85383198Y-17350000D02*
G75*
G02*
X-84714930Y-17606079I-2J-1000006D01*
G01*
X-82381732Y-19702003D02*
G75*
G02*
X-82050000Y-20445924I-668261J-743918D01*
G01*
X-82381732Y-19702003D02*
X-84714930Y-17606079D01*
X-21000000Y-32400000D02*
G75*
G02*
X-22000000Y-33400000I-999999J-1D01*
G01*
X-28650000Y-39000000D02*
G75*
G02*
X-29650000Y-40000000I-999999J-1D01*
G01*
X-21000000Y-15900000D02*
X-21000000Y-32400000D01*
X-24400000Y-33400000D02*
X-22000000Y-33400000D01*
X-28650000Y-37650000D02*
X-28650000Y-39000000D01*
X-28650000Y-37650000D02*
G75*
G02*
X-24400000Y-33400000I4250000J0D01*
G01*
X-20300000Y-10803611D02*
G75*
G02*
X-28307222Y-10803611I-4003611J0D01*
G01*
X-28307222Y-10803611D02*
G75*
G02*
X-20300000Y-10803611I4003611J0D01*
G01*
X-22000000Y-14900000D02*
G75*
G02*
X-21000000Y-15900000I1J-999999D01*
G01*
X-27500000Y-14900000D02*
X-22000000Y-14900000D01*
X-27500000Y-14900000D02*
G75*
G02*
X-28500000Y-13900000I-1J999999D01*
G01*
X-21000000Y-5750000D02*
G75*
G02*
X-22000000Y-6750000I-999999J-1D01*
G01*
X-90690001Y-6400000D02*
X-89389999Y-6400000D01*
X-28500000Y-7750000D02*
X-28500000Y-13900000D01*
X-90690000Y-17350000D02*
G75*
G02*
X-91690000Y-16350000I-1J999999D01*
G01*
X-91690000Y-7400000D02*
G75*
G02*
X-90690000Y-6400000I999999J1D01*
G01*
X-85890000Y-2900000D02*
G75*
G02*
X-89390000Y-6400000I-3499999J-1D01*
G01*
X-82050000Y-29896382D02*
X-82050000Y-20445924D01*
X-21000000Y-5750000D02*
X-21000000Y-1000000D01*
X-22000000Y0D02*
G75*
G02*
X-21000000Y-1000000I1J-999999D01*
G01*
X-87300000Y-39000000D02*
X-87300000Y-34802808D01*
X-86300000Y-40000000D02*
G75*
G02*
X-87300000Y-39000000I-1J999999D01*
G01*
X-85890000Y-1000000D02*
X-85890000Y-2900000D01*
X-91690000Y-7400000D02*
X-91690000Y-16350000D01*
X-22000000Y0D02*
X-28500000Y0D01*
X-28500000Y0D02*
X-84890000Y0D01*
X-90690000Y-17350000D02*
X-85383198Y-17350000D01*
X-28500000Y-7750000D02*
G75*
G02*
X-27500000Y-6750000I999999J1D01*
G01*
X-29650000Y-40000000D02*
X-86300000Y-40000000D01*
X-27500000Y-6750000D02*
X-22000000Y-6750000D01*
X-85890000Y-1000000D02*
G75*
G02*
X-84890000Y0I999999J1D01*
G01*
M02*
