%TF.GenerationSoftware,KiCad,Pcbnew,9.0.1*%
%TF.CreationDate,2025-07-07T12:26:20-04:00*%
%TF.ProjectId,cablight-project,6361626c-6967-4687-942d-70726f6a6563,rev?*%
%TF.SameCoordinates,Original*%
%TF.FileFunction,Drillmap*%
%TF.FilePolarity,Positive*%
%FSLAX45Y45*%
G04 Gerber Fmt 4.5, Leading zero omitted, Abs format (unit mm)*
G04 Created by KiCad (PCBNEW 9.0.1) date 2025-07-07 12:26:20*
%MOMM*%
%LPD*%
G01*
G04 APERTURE LIST*
%ADD10C,0.150000*%
%ADD11C,0.200000*%
%ADD12C,0.100000*%
%ADD13C,0.110000*%
%ADD14C,0.120000*%
%ADD15C,0.270000*%
G04 APERTURE END LIST*
D10*
X-6300000Y-1700000D02*
X-6300000Y-3311722D01*
X-7100000Y-3588278D02*
G75*
G02*
X-7012403Y-3489052I100000J-2D01*
G01*
X-6300000Y-3311722D02*
G75*
G02*
X-6387597Y-3410948I-100000J2D01*
G01*
X-1870000Y-4200000D02*
X0Y-4200000D01*
X-7800000Y-1141421D02*
G75*
G02*
X-7770711Y-1070710I100000J1D01*
G01*
X-2930000Y-3980000D02*
X-2930000Y-4000000D01*
X0Y0D02*
X0Y-4200000D01*
X-2930000Y-3980000D02*
G75*
G02*
X-2070000Y-3980000I430000J0D01*
G01*
X-7700000Y-1600000D02*
X-6400000Y-1600000D01*
X-1870000Y-4200000D02*
G75*
G02*
X-2070000Y-4000000I0J200000D01*
G01*
X-6729289Y-29289D02*
X-7770711Y-1070711D01*
X-2523800Y-493000D02*
G75*
G02*
X-3323800Y-493000I-400000J0D01*
G01*
X-3323800Y-493000D02*
G75*
G02*
X-2523800Y-493000I400000J0D01*
G01*
X-7800000Y-1141421D02*
X-7800000Y-1500000D01*
X0Y0D02*
X-6658579Y0D01*
X-6400000Y-1600000D02*
G75*
G02*
X-6300000Y-1700000I0J-100000D01*
G01*
X-7700000Y-1600000D02*
G75*
G02*
X-7800000Y-1500000I0J100000D01*
G01*
X-7100000Y-3588278D02*
X-7100000Y-4100000D01*
X-2930000Y-4000000D02*
G75*
G02*
X-3130000Y-4200000I-200000J0D01*
G01*
X-6729289Y-29289D02*
G75*
G02*
X-6658579Y-4I70709J-70721D01*
G01*
X-7000000Y-4200000D02*
G75*
G02*
X-7100000Y-4100000I0J100000D01*
G01*
X-3130000Y-4200000D02*
X-7000000Y-4200000D01*
X-6387596Y-3410950D02*
X-7012403Y-3489050D01*
X-2070000Y-4000000D02*
X-2070000Y-3980000D01*
D11*
D12*
X-6465000Y-1285000D02*
X-6435000Y-1315000D01*
X-6435000Y-1285000D02*
X-6465000Y-1315000D01*
X-6115000Y-2735000D02*
X-6085000Y-2765000D01*
X-6085000Y-2735000D02*
X-6115000Y-2765000D01*
X-6115000Y-3505000D02*
X-6085000Y-3535000D01*
X-6085000Y-3505000D02*
X-6115000Y-3535000D01*
X-4365000Y-2285000D02*
X-4335000Y-2315000D01*
X-4335000Y-2285000D02*
X-4365000Y-2315000D01*
X-3665000Y-2285000D02*
X-3635000Y-2315000D01*
X-3635000Y-2285000D02*
X-3665000Y-2315000D01*
X-3465000Y-3135000D02*
X-3435000Y-3165000D01*
X-3435000Y-3135000D02*
X-3465000Y-3165000D01*
X-3465000Y-3810000D02*
X-3435000Y-3840000D01*
X-3435000Y-3810000D02*
X-3465000Y-3840000D01*
X-3415000Y-1935000D02*
X-3385000Y-1965000D01*
X-3385000Y-1935000D02*
X-3415000Y-1965000D01*
X-2865000Y-1385000D02*
X-2835000Y-1415000D01*
X-2835000Y-1385000D02*
X-2865000Y-1415000D01*
X-2865000Y-1935000D02*
X-2835000Y-1965000D01*
X-2835000Y-1935000D02*
X-2865000Y-1965000D01*
X-2865000Y-2285000D02*
X-2835000Y-2315000D01*
X-2835000Y-2285000D02*
X-2865000Y-2315000D01*
X-2365000Y-1935000D02*
X-2335000Y-1965000D01*
X-2335000Y-1935000D02*
X-2365000Y-1965000D01*
X-2315000Y-1385000D02*
X-2285000Y-1415000D01*
X-2285000Y-1385000D02*
X-2315000Y-1415000D01*
X-2290000Y-835000D02*
X-2260000Y-865000D01*
X-2260000Y-835000D02*
X-2290000Y-865000D01*
X-1740000Y-1385000D02*
X-1710000Y-1415000D01*
X-1710000Y-1385000D02*
X-1740000Y-1415000D01*
X-1540000Y-835000D02*
X-1510000Y-865000D01*
X-1510000Y-835000D02*
X-1540000Y-865000D01*
X-1040000Y-1385000D02*
X-1010000Y-1415000D01*
X-1010000Y-1385000D02*
X-1040000Y-1415000D01*
X-1040000Y-1960000D02*
X-1010000Y-1990000D01*
X-1010000Y-1960000D02*
X-1040000Y-1990000D01*
X-4675000Y-395800D02*
G75*
G02*
X-4745000Y-395800I-35000J0D01*
G01*
X-4745000Y-395800D02*
G75*
G02*
X-4675000Y-395800I35000J0D01*
G01*
X-3515000Y-395800D02*
G75*
G02*
X-3585000Y-395800I-35000J0D01*
G01*
X-3585000Y-395800D02*
G75*
G02*
X-3515000Y-395800I35000J0D01*
G01*
X-5289400Y-212800D02*
X-5289400Y-292800D01*
X-5329400Y-252800D02*
X-5249400Y-252800D01*
X-5289400Y-466800D02*
X-5289400Y-546800D01*
X-5329400Y-506800D02*
X-5249400Y-506800D01*
X-5289400Y-720800D02*
X-5289400Y-800800D01*
X-5329400Y-760800D02*
X-5249400Y-760800D01*
X-5289400Y-974800D02*
X-5289400Y-1054800D01*
X-5329400Y-1014800D02*
X-5249400Y-1014800D01*
X-5289400Y-1228800D02*
X-5289400Y-1308800D01*
X-5329400Y-1268800D02*
X-5249400Y-1268800D01*
X-5060800Y-1942500D02*
X-5060800Y-2022500D01*
X-5100800Y-1982500D02*
X-5020800Y-1982500D01*
X-5060800Y-2892500D02*
X-5060800Y-2972500D01*
X-5100800Y-2932500D02*
X-5020800Y-2932500D01*
X-4616300Y-1625000D02*
X-4616300Y-1705000D01*
X-4656300Y-1665000D02*
X-4576300Y-1665000D01*
X-4616300Y-2575000D02*
X-4616300Y-2655000D01*
X-4656300Y-2615000D02*
X-4576300Y-2615000D01*
X-1770000Y-202000D02*
X-1770000Y-282000D01*
X-1810000Y-242000D02*
X-1730000Y-242000D01*
X-1770000Y-3932000D02*
X-1770000Y-4012000D01*
X-1810000Y-3972000D02*
X-1730000Y-3972000D01*
X-1758800Y-1686000D02*
X-1758800Y-1766000D01*
X-1798800Y-1726000D02*
X-1718800Y-1726000D01*
X-1758800Y-1940000D02*
X-1758800Y-2020000D01*
X-1798800Y-1980000D02*
X-1718800Y-1980000D01*
X-1758800Y-2194000D02*
X-1758800Y-2274000D01*
X-1798800Y-2234000D02*
X-1718800Y-2234000D01*
X-1758800Y-2448000D02*
X-1758800Y-2528000D01*
X-1798800Y-2488000D02*
X-1718800Y-2488000D01*
X-230000Y-202000D02*
X-230000Y-282000D01*
X-270000Y-242000D02*
X-190000Y-242000D01*
X-230000Y-3929500D02*
X-230000Y-4009500D01*
X-270000Y-3969500D02*
X-190000Y-3969500D01*
X-4398180Y-427620D02*
X-4398180Y-363980D01*
X-4461820Y-363980D01*
X-4461820Y-427620D01*
X-4398180Y-427620D01*
X-4098180Y-427620D02*
X-4098180Y-363980D01*
X-4161820Y-363980D01*
X-4161820Y-427620D01*
X-4098180Y-427620D01*
X-3798180Y-427620D02*
X-3798180Y-363980D01*
X-3861820Y-363980D01*
X-3861820Y-427620D01*
X-3798180Y-427620D01*
X-3867000Y-1141000D02*
X-3817000Y-1091000D01*
X-3867000Y-1041000D01*
X-3917000Y-1091000D01*
X-3867000Y-1141000D01*
X-3867000Y-2665000D02*
X-3817000Y-2615000D01*
X-3867000Y-2565000D01*
X-3917000Y-2615000D01*
X-3867000Y-2665000D01*
X-3613000Y-1141000D02*
X-3563000Y-1091000D01*
X-3613000Y-1041000D01*
X-3663000Y-1091000D01*
X-3613000Y-1141000D01*
X-3613000Y-2665000D02*
X-3563000Y-2615000D01*
X-3613000Y-2565000D01*
X-3663000Y-2615000D01*
X-3613000Y-2665000D01*
X-3359000Y-1141000D02*
X-3309000Y-1091000D01*
X-3359000Y-1041000D01*
X-3409000Y-1091000D01*
X-3359000Y-1141000D01*
X-3359000Y-2665000D02*
X-3309000Y-2615000D01*
X-3359000Y-2565000D01*
X-3409000Y-2615000D01*
X-3359000Y-2665000D01*
X-3105000Y-1141000D02*
X-3055000Y-1091000D01*
X-3105000Y-1041000D01*
X-3155000Y-1091000D01*
X-3105000Y-1141000D01*
X-3105000Y-2665000D02*
X-3055000Y-2615000D01*
X-3105000Y-2565000D01*
X-3155000Y-2615000D01*
X-3105000Y-2665000D01*
X-2851000Y-1141000D02*
X-2801000Y-1091000D01*
X-2851000Y-1041000D01*
X-2901000Y-1091000D01*
X-2851000Y-1141000D01*
X-2851000Y-2665000D02*
X-2801000Y-2615000D01*
X-2851000Y-2565000D01*
X-2901000Y-2615000D01*
X-2851000Y-2665000D01*
X-2597000Y-1141000D02*
X-2547000Y-1091000D01*
X-2597000Y-1041000D01*
X-2647000Y-1091000D01*
X-2597000Y-1141000D01*
X-2597000Y-2665000D02*
X-2547000Y-2615000D01*
X-2597000Y-2565000D01*
X-2647000Y-2615000D01*
X-2597000Y-2665000D01*
X-2343000Y-1141000D02*
X-2293000Y-1091000D01*
X-2343000Y-1041000D01*
X-2393000Y-1091000D01*
X-2343000Y-1141000D01*
X-2343000Y-2665000D02*
X-2293000Y-2615000D01*
X-2343000Y-2565000D01*
X-2393000Y-2615000D01*
X-2343000Y-2665000D01*
D13*
X-4734800Y-985200D02*
X-4624800Y-1095200D01*
X-4624800Y-985200D02*
X-4734800Y-1095200D01*
X-4624800Y-1040200D02*
G75*
G02*
X-4734800Y-1040200I-55000J0D01*
G01*
X-4734800Y-1040200D02*
G75*
G02*
X-4624800Y-1040200I55000J0D01*
G01*
X-4480800Y-985200D02*
X-4370800Y-1095200D01*
X-4370800Y-985200D02*
X-4480800Y-1095200D01*
X-4370800Y-1040200D02*
G75*
G02*
X-4480800Y-1040200I-55000J0D01*
G01*
X-4480800Y-1040200D02*
G75*
G02*
X-4370800Y-1040200I55000J0D01*
G01*
D14*
X-5120800Y-3186000D02*
X-5000800Y-3306000D01*
X-5000800Y-3186000D02*
X-5120800Y-3306000D01*
X-5060800Y-3186000D02*
X-5060800Y-3306000D01*
X-5120800Y-3246000D02*
X-5000800Y-3246000D01*
X-5120800Y-3440000D02*
X-5000800Y-3560000D01*
X-5000800Y-3440000D02*
X-5120800Y-3560000D01*
X-5060800Y-3440000D02*
X-5060800Y-3560000D01*
X-5120800Y-3500000D02*
X-5000800Y-3500000D01*
X-5120800Y-3694000D02*
X-5000800Y-3814000D01*
X-5000800Y-3694000D02*
X-5120800Y-3814000D01*
X-5060800Y-3694000D02*
X-5060800Y-3814000D01*
X-5120800Y-3754000D02*
X-5000800Y-3754000D01*
D10*
X-5834300Y-1841500D02*
X-5684300Y-1991500D01*
X-5684300Y-1841500D02*
X-5834300Y-1991500D01*
X-5706266Y-1969533D02*
X-5706266Y-1863466D01*
X-5812333Y-1863466D01*
X-5812333Y-1969533D01*
X-5706266Y-1969533D01*
X-5834300Y-2341500D02*
X-5684300Y-2491500D01*
X-5684300Y-2341500D02*
X-5834300Y-2491500D01*
X-5706266Y-2469534D02*
X-5706266Y-2363467D01*
X-5812333Y-2363467D01*
X-5812333Y-2469534D01*
X-5706266Y-2469534D01*
X-5834300Y-2841500D02*
X-5684300Y-2991500D01*
X-5684300Y-2841500D02*
X-5834300Y-2991500D01*
X-5706266Y-2969533D02*
X-5706266Y-2863466D01*
X-5812333Y-2863466D01*
X-5812333Y-2969533D01*
X-5706266Y-2969533D01*
X-5834300Y-3341500D02*
X-5684300Y-3491500D01*
X-5684300Y-3341500D02*
X-5834300Y-3491500D01*
X-5706266Y-3469533D02*
X-5706266Y-3363466D01*
X-5812333Y-3363466D01*
X-5812333Y-3469533D01*
X-5706266Y-3469533D01*
D15*
X-7535000Y-1065000D02*
X-7265000Y-1335000D01*
X-7265000Y-1065000D02*
X-7535000Y-1335000D01*
X-7400000Y-1335000D02*
X-7265000Y-1200000D01*
X-7400000Y-1065000D01*
X-7535000Y-1200000D01*
X-7400000Y-1335000D01*
X-6835000Y-3715000D02*
X-6565000Y-3985000D01*
X-6565000Y-3715000D02*
X-6835000Y-3985000D01*
X-6700000Y-3985000D02*
X-6565000Y-3850000D01*
X-6700000Y-3715000D01*
X-6835000Y-3850000D01*
X-6700000Y-3985000D01*
X-2635000Y-3015000D02*
X-2365000Y-3285000D01*
X-2365000Y-3015000D02*
X-2635000Y-3285000D01*
X-2500000Y-3285000D02*
X-2365000Y-3150000D01*
X-2500000Y-3015000D01*
X-2635000Y-3150000D01*
X-2500000Y-3285000D01*
X-2348800Y-198000D02*
X-2078800Y-468000D01*
X-2078800Y-198000D02*
X-2348800Y-468000D01*
X-2213800Y-468000D02*
X-2078800Y-333000D01*
X-2213800Y-198000D01*
X-2348800Y-333000D01*
X-2213800Y-468000D01*
D11*
X-7546723Y-4518984D02*
X-7546723Y-4318984D01*
X-7546723Y-4318984D02*
X-7499104Y-4318984D01*
X-7499104Y-4318984D02*
X-7470533Y-4328508D01*
X-7470533Y-4328508D02*
X-7451485Y-4347555D01*
X-7451485Y-4347555D02*
X-7441961Y-4366603D01*
X-7441961Y-4366603D02*
X-7432437Y-4404698D01*
X-7432437Y-4404698D02*
X-7432437Y-4433270D01*
X-7432437Y-4433270D02*
X-7441961Y-4471365D01*
X-7441961Y-4471365D02*
X-7451485Y-4490412D01*
X-7451485Y-4490412D02*
X-7470533Y-4509460D01*
X-7470533Y-4509460D02*
X-7499104Y-4518984D01*
X-7499104Y-4518984D02*
X-7546723Y-4518984D01*
X-7346723Y-4518984D02*
X-7346723Y-4385650D01*
X-7346723Y-4423746D02*
X-7337199Y-4404698D01*
X-7337199Y-4404698D02*
X-7327675Y-4395174D01*
X-7327675Y-4395174D02*
X-7308628Y-4385650D01*
X-7308628Y-4385650D02*
X-7289580Y-4385650D01*
X-7222914Y-4518984D02*
X-7222914Y-4385650D01*
X-7222914Y-4318984D02*
X-7232437Y-4328508D01*
X-7232437Y-4328508D02*
X-7222914Y-4338031D01*
X-7222914Y-4338031D02*
X-7213390Y-4328508D01*
X-7213390Y-4328508D02*
X-7222914Y-4318984D01*
X-7222914Y-4318984D02*
X-7222914Y-4338031D01*
X-7099104Y-4518984D02*
X-7118152Y-4509460D01*
X-7118152Y-4509460D02*
X-7127675Y-4490412D01*
X-7127675Y-4490412D02*
X-7127675Y-4318984D01*
X-6994342Y-4518984D02*
X-7013390Y-4509460D01*
X-7013390Y-4509460D02*
X-7022914Y-4490412D01*
X-7022914Y-4490412D02*
X-7022914Y-4318984D01*
X-6765771Y-4518984D02*
X-6765771Y-4318984D01*
X-6765771Y-4318984D02*
X-6699104Y-4461841D01*
X-6699104Y-4461841D02*
X-6632437Y-4318984D01*
X-6632437Y-4318984D02*
X-6632437Y-4518984D01*
X-6451485Y-4518984D02*
X-6451485Y-4414222D01*
X-6451485Y-4414222D02*
X-6461009Y-4395174D01*
X-6461009Y-4395174D02*
X-6480056Y-4385650D01*
X-6480056Y-4385650D02*
X-6518152Y-4385650D01*
X-6518152Y-4385650D02*
X-6537199Y-4395174D01*
X-6451485Y-4509460D02*
X-6470533Y-4518984D01*
X-6470533Y-4518984D02*
X-6518152Y-4518984D01*
X-6518152Y-4518984D02*
X-6537199Y-4509460D01*
X-6537199Y-4509460D02*
X-6546723Y-4490412D01*
X-6546723Y-4490412D02*
X-6546723Y-4471365D01*
X-6546723Y-4471365D02*
X-6537199Y-4452317D01*
X-6537199Y-4452317D02*
X-6518152Y-4442793D01*
X-6518152Y-4442793D02*
X-6470533Y-4442793D01*
X-6470533Y-4442793D02*
X-6451485Y-4433270D01*
X-6356247Y-4385650D02*
X-6356247Y-4585650D01*
X-6356247Y-4395174D02*
X-6337199Y-4385650D01*
X-6337199Y-4385650D02*
X-6299104Y-4385650D01*
X-6299104Y-4385650D02*
X-6280056Y-4395174D01*
X-6280056Y-4395174D02*
X-6270533Y-4404698D01*
X-6270533Y-4404698D02*
X-6261009Y-4423746D01*
X-6261009Y-4423746D02*
X-6261009Y-4480889D01*
X-6261009Y-4480889D02*
X-6270533Y-4499936D01*
X-6270533Y-4499936D02*
X-6280056Y-4509460D01*
X-6280056Y-4509460D02*
X-6299104Y-4518984D01*
X-6299104Y-4518984D02*
X-6337199Y-4518984D01*
X-6337199Y-4518984D02*
X-6356247Y-4509460D01*
X-6175294Y-4499936D02*
X-6165771Y-4509460D01*
X-6165771Y-4509460D02*
X-6175294Y-4518984D01*
X-6175294Y-4518984D02*
X-6184818Y-4509460D01*
X-6184818Y-4509460D02*
X-6175294Y-4499936D01*
X-6175294Y-4499936D02*
X-6175294Y-4518984D01*
X-6175294Y-4395174D02*
X-6165771Y-4404698D01*
X-6165771Y-4404698D02*
X-6175294Y-4414222D01*
X-6175294Y-4414222D02*
X-6184818Y-4404698D01*
X-6184818Y-4404698D02*
X-6175294Y-4395174D01*
X-6175294Y-4395174D02*
X-6175294Y-4414222D01*
D12*
X-7837500Y-4832500D02*
X-7807500Y-4862500D01*
X-7807500Y-4832500D02*
X-7837500Y-4862500D01*
D11*
X-7508628Y-4738984D02*
X-7489580Y-4738984D01*
X-7489580Y-4738984D02*
X-7470533Y-4748508D01*
X-7470533Y-4748508D02*
X-7461009Y-4758031D01*
X-7461009Y-4758031D02*
X-7451485Y-4777079D01*
X-7451485Y-4777079D02*
X-7441961Y-4815174D01*
X-7441961Y-4815174D02*
X-7441961Y-4862793D01*
X-7441961Y-4862793D02*
X-7451485Y-4900889D01*
X-7451485Y-4900889D02*
X-7461009Y-4919936D01*
X-7461009Y-4919936D02*
X-7470533Y-4929460D01*
X-7470533Y-4929460D02*
X-7489580Y-4938984D01*
X-7489580Y-4938984D02*
X-7508628Y-4938984D01*
X-7508628Y-4938984D02*
X-7527675Y-4929460D01*
X-7527675Y-4929460D02*
X-7537199Y-4919936D01*
X-7537199Y-4919936D02*
X-7546723Y-4900889D01*
X-7546723Y-4900889D02*
X-7556247Y-4862793D01*
X-7556247Y-4862793D02*
X-7556247Y-4815174D01*
X-7556247Y-4815174D02*
X-7546723Y-4777079D01*
X-7546723Y-4777079D02*
X-7537199Y-4758031D01*
X-7537199Y-4758031D02*
X-7527675Y-4748508D01*
X-7527675Y-4748508D02*
X-7508628Y-4738984D01*
X-7356247Y-4919936D02*
X-7346723Y-4929460D01*
X-7346723Y-4929460D02*
X-7356247Y-4938984D01*
X-7356247Y-4938984D02*
X-7365771Y-4929460D01*
X-7365771Y-4929460D02*
X-7356247Y-4919936D01*
X-7356247Y-4919936D02*
X-7356247Y-4938984D01*
X-7280056Y-4738984D02*
X-7156247Y-4738984D01*
X-7156247Y-4738984D02*
X-7222914Y-4815174D01*
X-7222914Y-4815174D02*
X-7194342Y-4815174D01*
X-7194342Y-4815174D02*
X-7175294Y-4824698D01*
X-7175294Y-4824698D02*
X-7165771Y-4834222D01*
X-7165771Y-4834222D02*
X-7156247Y-4853270D01*
X-7156247Y-4853270D02*
X-7156247Y-4900889D01*
X-7156247Y-4900889D02*
X-7165771Y-4919936D01*
X-7165771Y-4919936D02*
X-7175294Y-4929460D01*
X-7175294Y-4929460D02*
X-7194342Y-4938984D01*
X-7194342Y-4938984D02*
X-7251485Y-4938984D01*
X-7251485Y-4938984D02*
X-7270533Y-4929460D01*
X-7270533Y-4929460D02*
X-7280056Y-4919936D01*
X-7032437Y-4738984D02*
X-7013390Y-4738984D01*
X-7013390Y-4738984D02*
X-6994342Y-4748508D01*
X-6994342Y-4748508D02*
X-6984818Y-4758031D01*
X-6984818Y-4758031D02*
X-6975294Y-4777079D01*
X-6975294Y-4777079D02*
X-6965771Y-4815174D01*
X-6965771Y-4815174D02*
X-6965771Y-4862793D01*
X-6965771Y-4862793D02*
X-6975294Y-4900889D01*
X-6975294Y-4900889D02*
X-6984818Y-4919936D01*
X-6984818Y-4919936D02*
X-6994342Y-4929460D01*
X-6994342Y-4929460D02*
X-7013390Y-4938984D01*
X-7013390Y-4938984D02*
X-7032437Y-4938984D01*
X-7032437Y-4938984D02*
X-7051485Y-4929460D01*
X-7051485Y-4929460D02*
X-7061009Y-4919936D01*
X-7061009Y-4919936D02*
X-7070533Y-4900889D01*
X-7070533Y-4900889D02*
X-7080056Y-4862793D01*
X-7080056Y-4862793D02*
X-7080056Y-4815174D01*
X-7080056Y-4815174D02*
X-7070533Y-4777079D01*
X-7070533Y-4777079D02*
X-7061009Y-4758031D01*
X-7061009Y-4758031D02*
X-7051485Y-4748508D01*
X-7051485Y-4748508D02*
X-7032437Y-4738984D01*
X-6841961Y-4738984D02*
X-6822913Y-4738984D01*
X-6822913Y-4738984D02*
X-6803866Y-4748508D01*
X-6803866Y-4748508D02*
X-6794342Y-4758031D01*
X-6794342Y-4758031D02*
X-6784818Y-4777079D01*
X-6784818Y-4777079D02*
X-6775294Y-4815174D01*
X-6775294Y-4815174D02*
X-6775294Y-4862793D01*
X-6775294Y-4862793D02*
X-6784818Y-4900889D01*
X-6784818Y-4900889D02*
X-6794342Y-4919936D01*
X-6794342Y-4919936D02*
X-6803866Y-4929460D01*
X-6803866Y-4929460D02*
X-6822913Y-4938984D01*
X-6822913Y-4938984D02*
X-6841961Y-4938984D01*
X-6841961Y-4938984D02*
X-6861009Y-4929460D01*
X-6861009Y-4929460D02*
X-6870533Y-4919936D01*
X-6870533Y-4919936D02*
X-6880056Y-4900889D01*
X-6880056Y-4900889D02*
X-6889580Y-4862793D01*
X-6889580Y-4862793D02*
X-6889580Y-4815174D01*
X-6889580Y-4815174D02*
X-6880056Y-4777079D01*
X-6880056Y-4777079D02*
X-6870533Y-4758031D01*
X-6870533Y-4758031D02*
X-6861009Y-4748508D01*
X-6861009Y-4748508D02*
X-6841961Y-4738984D01*
X-6689580Y-4938984D02*
X-6689580Y-4805650D01*
X-6689580Y-4824698D02*
X-6680056Y-4815174D01*
X-6680056Y-4815174D02*
X-6661009Y-4805650D01*
X-6661009Y-4805650D02*
X-6632437Y-4805650D01*
X-6632437Y-4805650D02*
X-6613390Y-4815174D01*
X-6613390Y-4815174D02*
X-6603866Y-4834222D01*
X-6603866Y-4834222D02*
X-6603866Y-4938984D01*
X-6603866Y-4834222D02*
X-6594342Y-4815174D01*
X-6594342Y-4815174D02*
X-6575294Y-4805650D01*
X-6575294Y-4805650D02*
X-6546723Y-4805650D01*
X-6546723Y-4805650D02*
X-6527675Y-4815174D01*
X-6527675Y-4815174D02*
X-6518152Y-4834222D01*
X-6518152Y-4834222D02*
X-6518152Y-4938984D01*
X-6422913Y-4938984D02*
X-6422913Y-4805650D01*
X-6422913Y-4824698D02*
X-6413390Y-4815174D01*
X-6413390Y-4815174D02*
X-6394342Y-4805650D01*
X-6394342Y-4805650D02*
X-6365771Y-4805650D01*
X-6365771Y-4805650D02*
X-6346723Y-4815174D01*
X-6346723Y-4815174D02*
X-6337199Y-4834222D01*
X-6337199Y-4834222D02*
X-6337199Y-4938984D01*
X-6337199Y-4834222D02*
X-6327675Y-4815174D01*
X-6327675Y-4815174D02*
X-6308628Y-4805650D01*
X-6308628Y-4805650D02*
X-6280056Y-4805650D01*
X-6280056Y-4805650D02*
X-6261009Y-4815174D01*
X-6261009Y-4815174D02*
X-6251485Y-4834222D01*
X-6251485Y-4834222D02*
X-6251485Y-4938984D01*
X-5861009Y-4729460D02*
X-6032437Y-4986603D01*
X-5603866Y-4738984D02*
X-5584818Y-4738984D01*
X-5584818Y-4738984D02*
X-5565771Y-4748508D01*
X-5565771Y-4748508D02*
X-5556247Y-4758031D01*
X-5556247Y-4758031D02*
X-5546723Y-4777079D01*
X-5546723Y-4777079D02*
X-5537199Y-4815174D01*
X-5537199Y-4815174D02*
X-5537199Y-4862793D01*
X-5537199Y-4862793D02*
X-5546723Y-4900889D01*
X-5546723Y-4900889D02*
X-5556247Y-4919936D01*
X-5556247Y-4919936D02*
X-5565771Y-4929460D01*
X-5565771Y-4929460D02*
X-5584818Y-4938984D01*
X-5584818Y-4938984D02*
X-5603866Y-4938984D01*
X-5603866Y-4938984D02*
X-5622913Y-4929460D01*
X-5622913Y-4929460D02*
X-5632437Y-4919936D01*
X-5632437Y-4919936D02*
X-5641961Y-4900889D01*
X-5641961Y-4900889D02*
X-5651485Y-4862793D01*
X-5651485Y-4862793D02*
X-5651485Y-4815174D01*
X-5651485Y-4815174D02*
X-5641961Y-4777079D01*
X-5641961Y-4777079D02*
X-5632437Y-4758031D01*
X-5632437Y-4758031D02*
X-5622913Y-4748508D01*
X-5622913Y-4748508D02*
X-5603866Y-4738984D01*
X-5451485Y-4919936D02*
X-5441961Y-4929460D01*
X-5441961Y-4929460D02*
X-5451485Y-4938984D01*
X-5451485Y-4938984D02*
X-5461009Y-4929460D01*
X-5461009Y-4929460D02*
X-5451485Y-4919936D01*
X-5451485Y-4919936D02*
X-5451485Y-4938984D01*
X-5318152Y-4738984D02*
X-5299104Y-4738984D01*
X-5299104Y-4738984D02*
X-5280056Y-4748508D01*
X-5280056Y-4748508D02*
X-5270532Y-4758031D01*
X-5270532Y-4758031D02*
X-5261009Y-4777079D01*
X-5261009Y-4777079D02*
X-5251485Y-4815174D01*
X-5251485Y-4815174D02*
X-5251485Y-4862793D01*
X-5251485Y-4862793D02*
X-5261009Y-4900889D01*
X-5261009Y-4900889D02*
X-5270532Y-4919936D01*
X-5270532Y-4919936D02*
X-5280056Y-4929460D01*
X-5280056Y-4929460D02*
X-5299104Y-4938984D01*
X-5299104Y-4938984D02*
X-5318152Y-4938984D01*
X-5318152Y-4938984D02*
X-5337199Y-4929460D01*
X-5337199Y-4929460D02*
X-5346723Y-4919936D01*
X-5346723Y-4919936D02*
X-5356247Y-4900889D01*
X-5356247Y-4900889D02*
X-5365771Y-4862793D01*
X-5365771Y-4862793D02*
X-5365771Y-4815174D01*
X-5365771Y-4815174D02*
X-5356247Y-4777079D01*
X-5356247Y-4777079D02*
X-5346723Y-4758031D01*
X-5346723Y-4758031D02*
X-5337199Y-4748508D01*
X-5337199Y-4748508D02*
X-5318152Y-4738984D01*
X-5061009Y-4938984D02*
X-5175294Y-4938984D01*
X-5118152Y-4938984D02*
X-5118152Y-4738984D01*
X-5118152Y-4738984D02*
X-5137199Y-4767555D01*
X-5137199Y-4767555D02*
X-5156247Y-4786603D01*
X-5156247Y-4786603D02*
X-5175294Y-4796127D01*
X-4870532Y-4938984D02*
X-4984818Y-4938984D01*
X-4927675Y-4938984D02*
X-4927675Y-4738984D01*
X-4927675Y-4738984D02*
X-4946723Y-4767555D01*
X-4946723Y-4767555D02*
X-4965771Y-4786603D01*
X-4965771Y-4786603D02*
X-4984818Y-4796127D01*
X-4756247Y-4824698D02*
X-4775294Y-4815174D01*
X-4775294Y-4815174D02*
X-4784818Y-4805650D01*
X-4784818Y-4805650D02*
X-4794342Y-4786603D01*
X-4794342Y-4786603D02*
X-4794342Y-4777079D01*
X-4794342Y-4777079D02*
X-4784818Y-4758031D01*
X-4784818Y-4758031D02*
X-4775294Y-4748508D01*
X-4775294Y-4748508D02*
X-4756247Y-4738984D01*
X-4756247Y-4738984D02*
X-4718151Y-4738984D01*
X-4718151Y-4738984D02*
X-4699104Y-4748508D01*
X-4699104Y-4748508D02*
X-4689580Y-4758031D01*
X-4689580Y-4758031D02*
X-4680056Y-4777079D01*
X-4680056Y-4777079D02*
X-4680056Y-4786603D01*
X-4680056Y-4786603D02*
X-4689580Y-4805650D01*
X-4689580Y-4805650D02*
X-4699104Y-4815174D01*
X-4699104Y-4815174D02*
X-4718151Y-4824698D01*
X-4718151Y-4824698D02*
X-4756247Y-4824698D01*
X-4756247Y-4824698D02*
X-4775294Y-4834222D01*
X-4775294Y-4834222D02*
X-4784818Y-4843746D01*
X-4784818Y-4843746D02*
X-4794342Y-4862793D01*
X-4794342Y-4862793D02*
X-4794342Y-4900889D01*
X-4794342Y-4900889D02*
X-4784818Y-4919936D01*
X-4784818Y-4919936D02*
X-4775294Y-4929460D01*
X-4775294Y-4929460D02*
X-4756247Y-4938984D01*
X-4756247Y-4938984D02*
X-4718151Y-4938984D01*
X-4718151Y-4938984D02*
X-4699104Y-4929460D01*
X-4699104Y-4929460D02*
X-4689580Y-4919936D01*
X-4689580Y-4919936D02*
X-4680056Y-4900889D01*
X-4680056Y-4900889D02*
X-4680056Y-4862793D01*
X-4680056Y-4862793D02*
X-4689580Y-4843746D01*
X-4689580Y-4843746D02*
X-4699104Y-4834222D01*
X-4699104Y-4834222D02*
X-4718151Y-4824698D01*
X-4603866Y-4738984D02*
X-4603866Y-4777079D01*
X-4527675Y-4738984D02*
X-4527675Y-4777079D01*
X-4232437Y-5015174D02*
X-4241961Y-5005650D01*
X-4241961Y-5005650D02*
X-4261009Y-4977079D01*
X-4261009Y-4977079D02*
X-4270532Y-4958031D01*
X-4270532Y-4958031D02*
X-4280056Y-4929460D01*
X-4280056Y-4929460D02*
X-4289580Y-4881841D01*
X-4289580Y-4881841D02*
X-4289580Y-4843746D01*
X-4289580Y-4843746D02*
X-4280056Y-4796127D01*
X-4280056Y-4796127D02*
X-4270532Y-4767555D01*
X-4270532Y-4767555D02*
X-4261009Y-4748508D01*
X-4261009Y-4748508D02*
X-4241961Y-4719936D01*
X-4241961Y-4719936D02*
X-4232437Y-4710412D01*
X-4051485Y-4938984D02*
X-4165770Y-4938984D01*
X-4108628Y-4938984D02*
X-4108628Y-4738984D01*
X-4108628Y-4738984D02*
X-4127675Y-4767555D01*
X-4127675Y-4767555D02*
X-4146723Y-4786603D01*
X-4146723Y-4786603D02*
X-4165770Y-4796127D01*
X-3937199Y-4824698D02*
X-3956247Y-4815174D01*
X-3956247Y-4815174D02*
X-3965770Y-4805650D01*
X-3965770Y-4805650D02*
X-3975294Y-4786603D01*
X-3975294Y-4786603D02*
X-3975294Y-4777079D01*
X-3975294Y-4777079D02*
X-3965770Y-4758031D01*
X-3965770Y-4758031D02*
X-3956247Y-4748508D01*
X-3956247Y-4748508D02*
X-3937199Y-4738984D01*
X-3937199Y-4738984D02*
X-3899104Y-4738984D01*
X-3899104Y-4738984D02*
X-3880056Y-4748508D01*
X-3880056Y-4748508D02*
X-3870532Y-4758031D01*
X-3870532Y-4758031D02*
X-3861008Y-4777079D01*
X-3861008Y-4777079D02*
X-3861008Y-4786603D01*
X-3861008Y-4786603D02*
X-3870532Y-4805650D01*
X-3870532Y-4805650D02*
X-3880056Y-4815174D01*
X-3880056Y-4815174D02*
X-3899104Y-4824698D01*
X-3899104Y-4824698D02*
X-3937199Y-4824698D01*
X-3937199Y-4824698D02*
X-3956247Y-4834222D01*
X-3956247Y-4834222D02*
X-3965770Y-4843746D01*
X-3965770Y-4843746D02*
X-3975294Y-4862793D01*
X-3975294Y-4862793D02*
X-3975294Y-4900889D01*
X-3975294Y-4900889D02*
X-3965770Y-4919936D01*
X-3965770Y-4919936D02*
X-3956247Y-4929460D01*
X-3956247Y-4929460D02*
X-3937199Y-4938984D01*
X-3937199Y-4938984D02*
X-3899104Y-4938984D01*
X-3899104Y-4938984D02*
X-3880056Y-4929460D01*
X-3880056Y-4929460D02*
X-3870532Y-4919936D01*
X-3870532Y-4919936D02*
X-3861008Y-4900889D01*
X-3861008Y-4900889D02*
X-3861008Y-4862793D01*
X-3861008Y-4862793D02*
X-3870532Y-4843746D01*
X-3870532Y-4843746D02*
X-3880056Y-4834222D01*
X-3880056Y-4834222D02*
X-3899104Y-4824698D01*
X-3622913Y-4938984D02*
X-3622913Y-4738984D01*
X-3537199Y-4938984D02*
X-3537199Y-4834222D01*
X-3537199Y-4834222D02*
X-3546723Y-4815174D01*
X-3546723Y-4815174D02*
X-3565770Y-4805650D01*
X-3565770Y-4805650D02*
X-3594342Y-4805650D01*
X-3594342Y-4805650D02*
X-3613389Y-4815174D01*
X-3613389Y-4815174D02*
X-3622913Y-4824698D01*
X-3413389Y-4938984D02*
X-3432437Y-4929460D01*
X-3432437Y-4929460D02*
X-3441961Y-4919936D01*
X-3441961Y-4919936D02*
X-3451485Y-4900889D01*
X-3451485Y-4900889D02*
X-3451485Y-4843746D01*
X-3451485Y-4843746D02*
X-3441961Y-4824698D01*
X-3441961Y-4824698D02*
X-3432437Y-4815174D01*
X-3432437Y-4815174D02*
X-3413389Y-4805650D01*
X-3413389Y-4805650D02*
X-3384818Y-4805650D01*
X-3384818Y-4805650D02*
X-3365770Y-4815174D01*
X-3365770Y-4815174D02*
X-3356246Y-4824698D01*
X-3356246Y-4824698D02*
X-3346723Y-4843746D01*
X-3346723Y-4843746D02*
X-3346723Y-4900889D01*
X-3346723Y-4900889D02*
X-3356246Y-4919936D01*
X-3356246Y-4919936D02*
X-3365770Y-4929460D01*
X-3365770Y-4929460D02*
X-3384818Y-4938984D01*
X-3384818Y-4938984D02*
X-3413389Y-4938984D01*
X-3232437Y-4938984D02*
X-3251485Y-4929460D01*
X-3251485Y-4929460D02*
X-3261008Y-4910412D01*
X-3261008Y-4910412D02*
X-3261008Y-4738984D01*
X-3080056Y-4929460D02*
X-3099104Y-4938984D01*
X-3099104Y-4938984D02*
X-3137199Y-4938984D01*
X-3137199Y-4938984D02*
X-3156246Y-4929460D01*
X-3156246Y-4929460D02*
X-3165770Y-4910412D01*
X-3165770Y-4910412D02*
X-3165770Y-4834222D01*
X-3165770Y-4834222D02*
X-3156246Y-4815174D01*
X-3156246Y-4815174D02*
X-3137199Y-4805650D01*
X-3137199Y-4805650D02*
X-3099104Y-4805650D01*
X-3099104Y-4805650D02*
X-3080056Y-4815174D01*
X-3080056Y-4815174D02*
X-3070532Y-4834222D01*
X-3070532Y-4834222D02*
X-3070532Y-4853270D01*
X-3070532Y-4853270D02*
X-3165770Y-4872317D01*
X-2994342Y-4929460D02*
X-2975294Y-4938984D01*
X-2975294Y-4938984D02*
X-2937199Y-4938984D01*
X-2937199Y-4938984D02*
X-2918151Y-4929460D01*
X-2918151Y-4929460D02*
X-2908627Y-4910412D01*
X-2908627Y-4910412D02*
X-2908627Y-4900889D01*
X-2908627Y-4900889D02*
X-2918151Y-4881841D01*
X-2918151Y-4881841D02*
X-2937199Y-4872317D01*
X-2937199Y-4872317D02*
X-2965770Y-4872317D01*
X-2965770Y-4872317D02*
X-2984818Y-4862793D01*
X-2984818Y-4862793D02*
X-2994342Y-4843746D01*
X-2994342Y-4843746D02*
X-2994342Y-4834222D01*
X-2994342Y-4834222D02*
X-2984818Y-4815174D01*
X-2984818Y-4815174D02*
X-2965770Y-4805650D01*
X-2965770Y-4805650D02*
X-2937199Y-4805650D01*
X-2937199Y-4805650D02*
X-2918151Y-4815174D01*
X-2841961Y-5015174D02*
X-2832437Y-5005650D01*
X-2832437Y-5005650D02*
X-2813389Y-4977079D01*
X-2813389Y-4977079D02*
X-2803865Y-4958031D01*
X-2803865Y-4958031D02*
X-2794342Y-4929460D01*
X-2794342Y-4929460D02*
X-2784818Y-4881841D01*
X-2784818Y-4881841D02*
X-2784818Y-4843746D01*
X-2784818Y-4843746D02*
X-2794342Y-4796127D01*
X-2794342Y-4796127D02*
X-2803865Y-4767555D01*
X-2803865Y-4767555D02*
X-2813389Y-4748508D01*
X-2813389Y-4748508D02*
X-2832437Y-4719936D01*
X-2832437Y-4719936D02*
X-2841961Y-4710412D01*
D12*
X-7807500Y-5111500D02*
G75*
G02*
X-7877500Y-5111500I-35000J0D01*
G01*
X-7877500Y-5111500D02*
G75*
G02*
X-7807500Y-5111500I35000J0D01*
G01*
D11*
X-7508628Y-5002984D02*
X-7489580Y-5002984D01*
X-7489580Y-5002984D02*
X-7470533Y-5012508D01*
X-7470533Y-5012508D02*
X-7461009Y-5022031D01*
X-7461009Y-5022031D02*
X-7451485Y-5041079D01*
X-7451485Y-5041079D02*
X-7441961Y-5079174D01*
X-7441961Y-5079174D02*
X-7441961Y-5126793D01*
X-7441961Y-5126793D02*
X-7451485Y-5164889D01*
X-7451485Y-5164889D02*
X-7461009Y-5183936D01*
X-7461009Y-5183936D02*
X-7470533Y-5193460D01*
X-7470533Y-5193460D02*
X-7489580Y-5202984D01*
X-7489580Y-5202984D02*
X-7508628Y-5202984D01*
X-7508628Y-5202984D02*
X-7527675Y-5193460D01*
X-7527675Y-5193460D02*
X-7537199Y-5183936D01*
X-7537199Y-5183936D02*
X-7546723Y-5164889D01*
X-7546723Y-5164889D02*
X-7556247Y-5126793D01*
X-7556247Y-5126793D02*
X-7556247Y-5079174D01*
X-7556247Y-5079174D02*
X-7546723Y-5041079D01*
X-7546723Y-5041079D02*
X-7537199Y-5022031D01*
X-7537199Y-5022031D02*
X-7527675Y-5012508D01*
X-7527675Y-5012508D02*
X-7508628Y-5002984D01*
X-7356247Y-5183936D02*
X-7346723Y-5193460D01*
X-7346723Y-5193460D02*
X-7356247Y-5202984D01*
X-7356247Y-5202984D02*
X-7365771Y-5193460D01*
X-7365771Y-5193460D02*
X-7356247Y-5183936D01*
X-7356247Y-5183936D02*
X-7356247Y-5202984D01*
X-7280056Y-5002984D02*
X-7146723Y-5002984D01*
X-7146723Y-5002984D02*
X-7232437Y-5202984D01*
X-7032437Y-5002984D02*
X-7013390Y-5002984D01*
X-7013390Y-5002984D02*
X-6994342Y-5012508D01*
X-6994342Y-5012508D02*
X-6984818Y-5022031D01*
X-6984818Y-5022031D02*
X-6975294Y-5041079D01*
X-6975294Y-5041079D02*
X-6965771Y-5079174D01*
X-6965771Y-5079174D02*
X-6965771Y-5126793D01*
X-6965771Y-5126793D02*
X-6975294Y-5164889D01*
X-6975294Y-5164889D02*
X-6984818Y-5183936D01*
X-6984818Y-5183936D02*
X-6994342Y-5193460D01*
X-6994342Y-5193460D02*
X-7013390Y-5202984D01*
X-7013390Y-5202984D02*
X-7032437Y-5202984D01*
X-7032437Y-5202984D02*
X-7051485Y-5193460D01*
X-7051485Y-5193460D02*
X-7061009Y-5183936D01*
X-7061009Y-5183936D02*
X-7070533Y-5164889D01*
X-7070533Y-5164889D02*
X-7080056Y-5126793D01*
X-7080056Y-5126793D02*
X-7080056Y-5079174D01*
X-7080056Y-5079174D02*
X-7070533Y-5041079D01*
X-7070533Y-5041079D02*
X-7061009Y-5022031D01*
X-7061009Y-5022031D02*
X-7051485Y-5012508D01*
X-7051485Y-5012508D02*
X-7032437Y-5002984D01*
X-6841961Y-5002984D02*
X-6822913Y-5002984D01*
X-6822913Y-5002984D02*
X-6803866Y-5012508D01*
X-6803866Y-5012508D02*
X-6794342Y-5022031D01*
X-6794342Y-5022031D02*
X-6784818Y-5041079D01*
X-6784818Y-5041079D02*
X-6775294Y-5079174D01*
X-6775294Y-5079174D02*
X-6775294Y-5126793D01*
X-6775294Y-5126793D02*
X-6784818Y-5164889D01*
X-6784818Y-5164889D02*
X-6794342Y-5183936D01*
X-6794342Y-5183936D02*
X-6803866Y-5193460D01*
X-6803866Y-5193460D02*
X-6822913Y-5202984D01*
X-6822913Y-5202984D02*
X-6841961Y-5202984D01*
X-6841961Y-5202984D02*
X-6861009Y-5193460D01*
X-6861009Y-5193460D02*
X-6870533Y-5183936D01*
X-6870533Y-5183936D02*
X-6880056Y-5164889D01*
X-6880056Y-5164889D02*
X-6889580Y-5126793D01*
X-6889580Y-5126793D02*
X-6889580Y-5079174D01*
X-6889580Y-5079174D02*
X-6880056Y-5041079D01*
X-6880056Y-5041079D02*
X-6870533Y-5022031D01*
X-6870533Y-5022031D02*
X-6861009Y-5012508D01*
X-6861009Y-5012508D02*
X-6841961Y-5002984D01*
X-6689580Y-5202984D02*
X-6689580Y-5069650D01*
X-6689580Y-5088698D02*
X-6680056Y-5079174D01*
X-6680056Y-5079174D02*
X-6661009Y-5069650D01*
X-6661009Y-5069650D02*
X-6632437Y-5069650D01*
X-6632437Y-5069650D02*
X-6613390Y-5079174D01*
X-6613390Y-5079174D02*
X-6603866Y-5098222D01*
X-6603866Y-5098222D02*
X-6603866Y-5202984D01*
X-6603866Y-5098222D02*
X-6594342Y-5079174D01*
X-6594342Y-5079174D02*
X-6575294Y-5069650D01*
X-6575294Y-5069650D02*
X-6546723Y-5069650D01*
X-6546723Y-5069650D02*
X-6527675Y-5079174D01*
X-6527675Y-5079174D02*
X-6518152Y-5098222D01*
X-6518152Y-5098222D02*
X-6518152Y-5202984D01*
X-6422913Y-5202984D02*
X-6422913Y-5069650D01*
X-6422913Y-5088698D02*
X-6413390Y-5079174D01*
X-6413390Y-5079174D02*
X-6394342Y-5069650D01*
X-6394342Y-5069650D02*
X-6365771Y-5069650D01*
X-6365771Y-5069650D02*
X-6346723Y-5079174D01*
X-6346723Y-5079174D02*
X-6337199Y-5098222D01*
X-6337199Y-5098222D02*
X-6337199Y-5202984D01*
X-6337199Y-5098222D02*
X-6327675Y-5079174D01*
X-6327675Y-5079174D02*
X-6308628Y-5069650D01*
X-6308628Y-5069650D02*
X-6280056Y-5069650D01*
X-6280056Y-5069650D02*
X-6261009Y-5079174D01*
X-6261009Y-5079174D02*
X-6251485Y-5098222D01*
X-6251485Y-5098222D02*
X-6251485Y-5202984D01*
X-5861009Y-4993460D02*
X-6032437Y-5250603D01*
X-5603866Y-5002984D02*
X-5584818Y-5002984D01*
X-5584818Y-5002984D02*
X-5565771Y-5012508D01*
X-5565771Y-5012508D02*
X-5556247Y-5022031D01*
X-5556247Y-5022031D02*
X-5546723Y-5041079D01*
X-5546723Y-5041079D02*
X-5537199Y-5079174D01*
X-5537199Y-5079174D02*
X-5537199Y-5126793D01*
X-5537199Y-5126793D02*
X-5546723Y-5164889D01*
X-5546723Y-5164889D02*
X-5556247Y-5183936D01*
X-5556247Y-5183936D02*
X-5565771Y-5193460D01*
X-5565771Y-5193460D02*
X-5584818Y-5202984D01*
X-5584818Y-5202984D02*
X-5603866Y-5202984D01*
X-5603866Y-5202984D02*
X-5622913Y-5193460D01*
X-5622913Y-5193460D02*
X-5632437Y-5183936D01*
X-5632437Y-5183936D02*
X-5641961Y-5164889D01*
X-5641961Y-5164889D02*
X-5651485Y-5126793D01*
X-5651485Y-5126793D02*
X-5651485Y-5079174D01*
X-5651485Y-5079174D02*
X-5641961Y-5041079D01*
X-5641961Y-5041079D02*
X-5632437Y-5022031D01*
X-5632437Y-5022031D02*
X-5622913Y-5012508D01*
X-5622913Y-5012508D02*
X-5603866Y-5002984D01*
X-5451485Y-5183936D02*
X-5441961Y-5193460D01*
X-5441961Y-5193460D02*
X-5451485Y-5202984D01*
X-5451485Y-5202984D02*
X-5461009Y-5193460D01*
X-5461009Y-5193460D02*
X-5451485Y-5183936D01*
X-5451485Y-5183936D02*
X-5451485Y-5202984D01*
X-5318152Y-5002984D02*
X-5299104Y-5002984D01*
X-5299104Y-5002984D02*
X-5280056Y-5012508D01*
X-5280056Y-5012508D02*
X-5270532Y-5022031D01*
X-5270532Y-5022031D02*
X-5261009Y-5041079D01*
X-5261009Y-5041079D02*
X-5251485Y-5079174D01*
X-5251485Y-5079174D02*
X-5251485Y-5126793D01*
X-5251485Y-5126793D02*
X-5261009Y-5164889D01*
X-5261009Y-5164889D02*
X-5270532Y-5183936D01*
X-5270532Y-5183936D02*
X-5280056Y-5193460D01*
X-5280056Y-5193460D02*
X-5299104Y-5202984D01*
X-5299104Y-5202984D02*
X-5318152Y-5202984D01*
X-5318152Y-5202984D02*
X-5337199Y-5193460D01*
X-5337199Y-5193460D02*
X-5346723Y-5183936D01*
X-5346723Y-5183936D02*
X-5356247Y-5164889D01*
X-5356247Y-5164889D02*
X-5365771Y-5126793D01*
X-5365771Y-5126793D02*
X-5365771Y-5079174D01*
X-5365771Y-5079174D02*
X-5356247Y-5041079D01*
X-5356247Y-5041079D02*
X-5346723Y-5022031D01*
X-5346723Y-5022031D02*
X-5337199Y-5012508D01*
X-5337199Y-5012508D02*
X-5318152Y-5002984D01*
X-5175294Y-5022031D02*
X-5165771Y-5012508D01*
X-5165771Y-5012508D02*
X-5146723Y-5002984D01*
X-5146723Y-5002984D02*
X-5099104Y-5002984D01*
X-5099104Y-5002984D02*
X-5080056Y-5012508D01*
X-5080056Y-5012508D02*
X-5070532Y-5022031D01*
X-5070532Y-5022031D02*
X-5061009Y-5041079D01*
X-5061009Y-5041079D02*
X-5061009Y-5060127D01*
X-5061009Y-5060127D02*
X-5070532Y-5088698D01*
X-5070532Y-5088698D02*
X-5184818Y-5202984D01*
X-5184818Y-5202984D02*
X-5061009Y-5202984D01*
X-4994342Y-5002984D02*
X-4861009Y-5002984D01*
X-4861009Y-5002984D02*
X-4946723Y-5202984D01*
X-4699104Y-5002984D02*
X-4737199Y-5002984D01*
X-4737199Y-5002984D02*
X-4756247Y-5012508D01*
X-4756247Y-5012508D02*
X-4765771Y-5022031D01*
X-4765771Y-5022031D02*
X-4784818Y-5050603D01*
X-4784818Y-5050603D02*
X-4794342Y-5088698D01*
X-4794342Y-5088698D02*
X-4794342Y-5164889D01*
X-4794342Y-5164889D02*
X-4784818Y-5183936D01*
X-4784818Y-5183936D02*
X-4775294Y-5193460D01*
X-4775294Y-5193460D02*
X-4756247Y-5202984D01*
X-4756247Y-5202984D02*
X-4718151Y-5202984D01*
X-4718151Y-5202984D02*
X-4699104Y-5193460D01*
X-4699104Y-5193460D02*
X-4689580Y-5183936D01*
X-4689580Y-5183936D02*
X-4680056Y-5164889D01*
X-4680056Y-5164889D02*
X-4680056Y-5117270D01*
X-4680056Y-5117270D02*
X-4689580Y-5098222D01*
X-4689580Y-5098222D02*
X-4699104Y-5088698D01*
X-4699104Y-5088698D02*
X-4718151Y-5079174D01*
X-4718151Y-5079174D02*
X-4756247Y-5079174D01*
X-4756247Y-5079174D02*
X-4775294Y-5088698D01*
X-4775294Y-5088698D02*
X-4784818Y-5098222D01*
X-4784818Y-5098222D02*
X-4794342Y-5117270D01*
X-4603866Y-5002984D02*
X-4603866Y-5041079D01*
X-4527675Y-5002984D02*
X-4527675Y-5041079D01*
X-4232437Y-5279174D02*
X-4241961Y-5269650D01*
X-4241961Y-5269650D02*
X-4261009Y-5241079D01*
X-4261009Y-5241079D02*
X-4270532Y-5222031D01*
X-4270532Y-5222031D02*
X-4280056Y-5193460D01*
X-4280056Y-5193460D02*
X-4289580Y-5145841D01*
X-4289580Y-5145841D02*
X-4289580Y-5107746D01*
X-4289580Y-5107746D02*
X-4280056Y-5060127D01*
X-4280056Y-5060127D02*
X-4270532Y-5031555D01*
X-4270532Y-5031555D02*
X-4261009Y-5012508D01*
X-4261009Y-5012508D02*
X-4241961Y-4983936D01*
X-4241961Y-4983936D02*
X-4232437Y-4974412D01*
X-4165770Y-5022031D02*
X-4156247Y-5012508D01*
X-4156247Y-5012508D02*
X-4137199Y-5002984D01*
X-4137199Y-5002984D02*
X-4089580Y-5002984D01*
X-4089580Y-5002984D02*
X-4070532Y-5012508D01*
X-4070532Y-5012508D02*
X-4061008Y-5022031D01*
X-4061008Y-5022031D02*
X-4051485Y-5041079D01*
X-4051485Y-5041079D02*
X-4051485Y-5060127D01*
X-4051485Y-5060127D02*
X-4061008Y-5088698D01*
X-4061008Y-5088698D02*
X-4175294Y-5202984D01*
X-4175294Y-5202984D02*
X-4051485Y-5202984D01*
X-3813389Y-5202984D02*
X-3813389Y-5002984D01*
X-3727675Y-5202984D02*
X-3727675Y-5098222D01*
X-3727675Y-5098222D02*
X-3737199Y-5079174D01*
X-3737199Y-5079174D02*
X-3756246Y-5069650D01*
X-3756246Y-5069650D02*
X-3784818Y-5069650D01*
X-3784818Y-5069650D02*
X-3803866Y-5079174D01*
X-3803866Y-5079174D02*
X-3813389Y-5088698D01*
X-3603866Y-5202984D02*
X-3622913Y-5193460D01*
X-3622913Y-5193460D02*
X-3632437Y-5183936D01*
X-3632437Y-5183936D02*
X-3641961Y-5164889D01*
X-3641961Y-5164889D02*
X-3641961Y-5107746D01*
X-3641961Y-5107746D02*
X-3632437Y-5088698D01*
X-3632437Y-5088698D02*
X-3622913Y-5079174D01*
X-3622913Y-5079174D02*
X-3603866Y-5069650D01*
X-3603866Y-5069650D02*
X-3575294Y-5069650D01*
X-3575294Y-5069650D02*
X-3556246Y-5079174D01*
X-3556246Y-5079174D02*
X-3546723Y-5088698D01*
X-3546723Y-5088698D02*
X-3537199Y-5107746D01*
X-3537199Y-5107746D02*
X-3537199Y-5164889D01*
X-3537199Y-5164889D02*
X-3546723Y-5183936D01*
X-3546723Y-5183936D02*
X-3556246Y-5193460D01*
X-3556246Y-5193460D02*
X-3575294Y-5202984D01*
X-3575294Y-5202984D02*
X-3603866Y-5202984D01*
X-3422913Y-5202984D02*
X-3441961Y-5193460D01*
X-3441961Y-5193460D02*
X-3451485Y-5174412D01*
X-3451485Y-5174412D02*
X-3451485Y-5002984D01*
X-3270532Y-5193460D02*
X-3289580Y-5202984D01*
X-3289580Y-5202984D02*
X-3327675Y-5202984D01*
X-3327675Y-5202984D02*
X-3346723Y-5193460D01*
X-3346723Y-5193460D02*
X-3356246Y-5174412D01*
X-3356246Y-5174412D02*
X-3356246Y-5098222D01*
X-3356246Y-5098222D02*
X-3346723Y-5079174D01*
X-3346723Y-5079174D02*
X-3327675Y-5069650D01*
X-3327675Y-5069650D02*
X-3289580Y-5069650D01*
X-3289580Y-5069650D02*
X-3270532Y-5079174D01*
X-3270532Y-5079174D02*
X-3261008Y-5098222D01*
X-3261008Y-5098222D02*
X-3261008Y-5117270D01*
X-3261008Y-5117270D02*
X-3356246Y-5136317D01*
X-3184818Y-5193460D02*
X-3165770Y-5202984D01*
X-3165770Y-5202984D02*
X-3127675Y-5202984D01*
X-3127675Y-5202984D02*
X-3108627Y-5193460D01*
X-3108627Y-5193460D02*
X-3099104Y-5174412D01*
X-3099104Y-5174412D02*
X-3099104Y-5164889D01*
X-3099104Y-5164889D02*
X-3108627Y-5145841D01*
X-3108627Y-5145841D02*
X-3127675Y-5136317D01*
X-3127675Y-5136317D02*
X-3156246Y-5136317D01*
X-3156246Y-5136317D02*
X-3175294Y-5126793D01*
X-3175294Y-5126793D02*
X-3184818Y-5107746D01*
X-3184818Y-5107746D02*
X-3184818Y-5098222D01*
X-3184818Y-5098222D02*
X-3175294Y-5079174D01*
X-3175294Y-5079174D02*
X-3156246Y-5069650D01*
X-3156246Y-5069650D02*
X-3127675Y-5069650D01*
X-3127675Y-5069650D02*
X-3108627Y-5079174D01*
X-3032437Y-5279174D02*
X-3022913Y-5269650D01*
X-3022913Y-5269650D02*
X-3003865Y-5241079D01*
X-3003865Y-5241079D02*
X-2994342Y-5222031D01*
X-2994342Y-5222031D02*
X-2984818Y-5193460D01*
X-2984818Y-5193460D02*
X-2975294Y-5145841D01*
X-2975294Y-5145841D02*
X-2975294Y-5107746D01*
X-2975294Y-5107746D02*
X-2984818Y-5060127D01*
X-2984818Y-5060127D02*
X-2994342Y-5031555D01*
X-2994342Y-5031555D02*
X-3003865Y-5012508D01*
X-3003865Y-5012508D02*
X-3022913Y-4983936D01*
X-3022913Y-4983936D02*
X-3032437Y-4974412D01*
D12*
X-7847500Y-5335500D02*
X-7847500Y-5415500D01*
X-7887500Y-5375500D02*
X-7807500Y-5375500D01*
D11*
X-7508628Y-5266984D02*
X-7489580Y-5266984D01*
X-7489580Y-5266984D02*
X-7470533Y-5276508D01*
X-7470533Y-5276508D02*
X-7461009Y-5286031D01*
X-7461009Y-5286031D02*
X-7451485Y-5305079D01*
X-7451485Y-5305079D02*
X-7441961Y-5343174D01*
X-7441961Y-5343174D02*
X-7441961Y-5390793D01*
X-7441961Y-5390793D02*
X-7451485Y-5428889D01*
X-7451485Y-5428889D02*
X-7461009Y-5447936D01*
X-7461009Y-5447936D02*
X-7470533Y-5457460D01*
X-7470533Y-5457460D02*
X-7489580Y-5466984D01*
X-7489580Y-5466984D02*
X-7508628Y-5466984D01*
X-7508628Y-5466984D02*
X-7527675Y-5457460D01*
X-7527675Y-5457460D02*
X-7537199Y-5447936D01*
X-7537199Y-5447936D02*
X-7546723Y-5428889D01*
X-7546723Y-5428889D02*
X-7556247Y-5390793D01*
X-7556247Y-5390793D02*
X-7556247Y-5343174D01*
X-7556247Y-5343174D02*
X-7546723Y-5305079D01*
X-7546723Y-5305079D02*
X-7537199Y-5286031D01*
X-7537199Y-5286031D02*
X-7527675Y-5276508D01*
X-7527675Y-5276508D02*
X-7508628Y-5266984D01*
X-7356247Y-5447936D02*
X-7346723Y-5457460D01*
X-7346723Y-5457460D02*
X-7356247Y-5466984D01*
X-7356247Y-5466984D02*
X-7365771Y-5457460D01*
X-7365771Y-5457460D02*
X-7356247Y-5447936D01*
X-7356247Y-5447936D02*
X-7356247Y-5466984D01*
X-7232437Y-5352698D02*
X-7251485Y-5343174D01*
X-7251485Y-5343174D02*
X-7261009Y-5333650D01*
X-7261009Y-5333650D02*
X-7270533Y-5314603D01*
X-7270533Y-5314603D02*
X-7270533Y-5305079D01*
X-7270533Y-5305079D02*
X-7261009Y-5286031D01*
X-7261009Y-5286031D02*
X-7251485Y-5276508D01*
X-7251485Y-5276508D02*
X-7232437Y-5266984D01*
X-7232437Y-5266984D02*
X-7194342Y-5266984D01*
X-7194342Y-5266984D02*
X-7175294Y-5276508D01*
X-7175294Y-5276508D02*
X-7165771Y-5286031D01*
X-7165771Y-5286031D02*
X-7156247Y-5305079D01*
X-7156247Y-5305079D02*
X-7156247Y-5314603D01*
X-7156247Y-5314603D02*
X-7165771Y-5333650D01*
X-7165771Y-5333650D02*
X-7175294Y-5343174D01*
X-7175294Y-5343174D02*
X-7194342Y-5352698D01*
X-7194342Y-5352698D02*
X-7232437Y-5352698D01*
X-7232437Y-5352698D02*
X-7251485Y-5362222D01*
X-7251485Y-5362222D02*
X-7261009Y-5371746D01*
X-7261009Y-5371746D02*
X-7270533Y-5390793D01*
X-7270533Y-5390793D02*
X-7270533Y-5428889D01*
X-7270533Y-5428889D02*
X-7261009Y-5447936D01*
X-7261009Y-5447936D02*
X-7251485Y-5457460D01*
X-7251485Y-5457460D02*
X-7232437Y-5466984D01*
X-7232437Y-5466984D02*
X-7194342Y-5466984D01*
X-7194342Y-5466984D02*
X-7175294Y-5457460D01*
X-7175294Y-5457460D02*
X-7165771Y-5447936D01*
X-7165771Y-5447936D02*
X-7156247Y-5428889D01*
X-7156247Y-5428889D02*
X-7156247Y-5390793D01*
X-7156247Y-5390793D02*
X-7165771Y-5371746D01*
X-7165771Y-5371746D02*
X-7175294Y-5362222D01*
X-7175294Y-5362222D02*
X-7194342Y-5352698D01*
X-7032437Y-5266984D02*
X-7013390Y-5266984D01*
X-7013390Y-5266984D02*
X-6994342Y-5276508D01*
X-6994342Y-5276508D02*
X-6984818Y-5286031D01*
X-6984818Y-5286031D02*
X-6975294Y-5305079D01*
X-6975294Y-5305079D02*
X-6965771Y-5343174D01*
X-6965771Y-5343174D02*
X-6965771Y-5390793D01*
X-6965771Y-5390793D02*
X-6975294Y-5428889D01*
X-6975294Y-5428889D02*
X-6984818Y-5447936D01*
X-6984818Y-5447936D02*
X-6994342Y-5457460D01*
X-6994342Y-5457460D02*
X-7013390Y-5466984D01*
X-7013390Y-5466984D02*
X-7032437Y-5466984D01*
X-7032437Y-5466984D02*
X-7051485Y-5457460D01*
X-7051485Y-5457460D02*
X-7061009Y-5447936D01*
X-7061009Y-5447936D02*
X-7070533Y-5428889D01*
X-7070533Y-5428889D02*
X-7080056Y-5390793D01*
X-7080056Y-5390793D02*
X-7080056Y-5343174D01*
X-7080056Y-5343174D02*
X-7070533Y-5305079D01*
X-7070533Y-5305079D02*
X-7061009Y-5286031D01*
X-7061009Y-5286031D02*
X-7051485Y-5276508D01*
X-7051485Y-5276508D02*
X-7032437Y-5266984D01*
X-6841961Y-5266984D02*
X-6822913Y-5266984D01*
X-6822913Y-5266984D02*
X-6803866Y-5276508D01*
X-6803866Y-5276508D02*
X-6794342Y-5286031D01*
X-6794342Y-5286031D02*
X-6784818Y-5305079D01*
X-6784818Y-5305079D02*
X-6775294Y-5343174D01*
X-6775294Y-5343174D02*
X-6775294Y-5390793D01*
X-6775294Y-5390793D02*
X-6784818Y-5428889D01*
X-6784818Y-5428889D02*
X-6794342Y-5447936D01*
X-6794342Y-5447936D02*
X-6803866Y-5457460D01*
X-6803866Y-5457460D02*
X-6822913Y-5466984D01*
X-6822913Y-5466984D02*
X-6841961Y-5466984D01*
X-6841961Y-5466984D02*
X-6861009Y-5457460D01*
X-6861009Y-5457460D02*
X-6870533Y-5447936D01*
X-6870533Y-5447936D02*
X-6880056Y-5428889D01*
X-6880056Y-5428889D02*
X-6889580Y-5390793D01*
X-6889580Y-5390793D02*
X-6889580Y-5343174D01*
X-6889580Y-5343174D02*
X-6880056Y-5305079D01*
X-6880056Y-5305079D02*
X-6870533Y-5286031D01*
X-6870533Y-5286031D02*
X-6861009Y-5276508D01*
X-6861009Y-5276508D02*
X-6841961Y-5266984D01*
X-6689580Y-5466984D02*
X-6689580Y-5333650D01*
X-6689580Y-5352698D02*
X-6680056Y-5343174D01*
X-6680056Y-5343174D02*
X-6661009Y-5333650D01*
X-6661009Y-5333650D02*
X-6632437Y-5333650D01*
X-6632437Y-5333650D02*
X-6613390Y-5343174D01*
X-6613390Y-5343174D02*
X-6603866Y-5362222D01*
X-6603866Y-5362222D02*
X-6603866Y-5466984D01*
X-6603866Y-5362222D02*
X-6594342Y-5343174D01*
X-6594342Y-5343174D02*
X-6575294Y-5333650D01*
X-6575294Y-5333650D02*
X-6546723Y-5333650D01*
X-6546723Y-5333650D02*
X-6527675Y-5343174D01*
X-6527675Y-5343174D02*
X-6518152Y-5362222D01*
X-6518152Y-5362222D02*
X-6518152Y-5466984D01*
X-6422913Y-5466984D02*
X-6422913Y-5333650D01*
X-6422913Y-5352698D02*
X-6413390Y-5343174D01*
X-6413390Y-5343174D02*
X-6394342Y-5333650D01*
X-6394342Y-5333650D02*
X-6365771Y-5333650D01*
X-6365771Y-5333650D02*
X-6346723Y-5343174D01*
X-6346723Y-5343174D02*
X-6337199Y-5362222D01*
X-6337199Y-5362222D02*
X-6337199Y-5466984D01*
X-6337199Y-5362222D02*
X-6327675Y-5343174D01*
X-6327675Y-5343174D02*
X-6308628Y-5333650D01*
X-6308628Y-5333650D02*
X-6280056Y-5333650D01*
X-6280056Y-5333650D02*
X-6261009Y-5343174D01*
X-6261009Y-5343174D02*
X-6251485Y-5362222D01*
X-6251485Y-5362222D02*
X-6251485Y-5466984D01*
X-5861009Y-5257460D02*
X-6032437Y-5514603D01*
X-5603866Y-5266984D02*
X-5584818Y-5266984D01*
X-5584818Y-5266984D02*
X-5565771Y-5276508D01*
X-5565771Y-5276508D02*
X-5556247Y-5286031D01*
X-5556247Y-5286031D02*
X-5546723Y-5305079D01*
X-5546723Y-5305079D02*
X-5537199Y-5343174D01*
X-5537199Y-5343174D02*
X-5537199Y-5390793D01*
X-5537199Y-5390793D02*
X-5546723Y-5428889D01*
X-5546723Y-5428889D02*
X-5556247Y-5447936D01*
X-5556247Y-5447936D02*
X-5565771Y-5457460D01*
X-5565771Y-5457460D02*
X-5584818Y-5466984D01*
X-5584818Y-5466984D02*
X-5603866Y-5466984D01*
X-5603866Y-5466984D02*
X-5622913Y-5457460D01*
X-5622913Y-5457460D02*
X-5632437Y-5447936D01*
X-5632437Y-5447936D02*
X-5641961Y-5428889D01*
X-5641961Y-5428889D02*
X-5651485Y-5390793D01*
X-5651485Y-5390793D02*
X-5651485Y-5343174D01*
X-5651485Y-5343174D02*
X-5641961Y-5305079D01*
X-5641961Y-5305079D02*
X-5632437Y-5286031D01*
X-5632437Y-5286031D02*
X-5622913Y-5276508D01*
X-5622913Y-5276508D02*
X-5603866Y-5266984D01*
X-5451485Y-5447936D02*
X-5441961Y-5457460D01*
X-5441961Y-5457460D02*
X-5451485Y-5466984D01*
X-5451485Y-5466984D02*
X-5461009Y-5457460D01*
X-5461009Y-5457460D02*
X-5451485Y-5447936D01*
X-5451485Y-5447936D02*
X-5451485Y-5466984D01*
X-5318152Y-5266984D02*
X-5299104Y-5266984D01*
X-5299104Y-5266984D02*
X-5280056Y-5276508D01*
X-5280056Y-5276508D02*
X-5270532Y-5286031D01*
X-5270532Y-5286031D02*
X-5261009Y-5305079D01*
X-5261009Y-5305079D02*
X-5251485Y-5343174D01*
X-5251485Y-5343174D02*
X-5251485Y-5390793D01*
X-5251485Y-5390793D02*
X-5261009Y-5428889D01*
X-5261009Y-5428889D02*
X-5270532Y-5447936D01*
X-5270532Y-5447936D02*
X-5280056Y-5457460D01*
X-5280056Y-5457460D02*
X-5299104Y-5466984D01*
X-5299104Y-5466984D02*
X-5318152Y-5466984D01*
X-5318152Y-5466984D02*
X-5337199Y-5457460D01*
X-5337199Y-5457460D02*
X-5346723Y-5447936D01*
X-5346723Y-5447936D02*
X-5356247Y-5428889D01*
X-5356247Y-5428889D02*
X-5365771Y-5390793D01*
X-5365771Y-5390793D02*
X-5365771Y-5343174D01*
X-5365771Y-5343174D02*
X-5356247Y-5305079D01*
X-5356247Y-5305079D02*
X-5346723Y-5286031D01*
X-5346723Y-5286031D02*
X-5337199Y-5276508D01*
X-5337199Y-5276508D02*
X-5318152Y-5266984D01*
X-5184818Y-5266984D02*
X-5061009Y-5266984D01*
X-5061009Y-5266984D02*
X-5127675Y-5343174D01*
X-5127675Y-5343174D02*
X-5099104Y-5343174D01*
X-5099104Y-5343174D02*
X-5080056Y-5352698D01*
X-5080056Y-5352698D02*
X-5070532Y-5362222D01*
X-5070532Y-5362222D02*
X-5061009Y-5381270D01*
X-5061009Y-5381270D02*
X-5061009Y-5428889D01*
X-5061009Y-5428889D02*
X-5070532Y-5447936D01*
X-5070532Y-5447936D02*
X-5080056Y-5457460D01*
X-5080056Y-5457460D02*
X-5099104Y-5466984D01*
X-5099104Y-5466984D02*
X-5156247Y-5466984D01*
X-5156247Y-5466984D02*
X-5175294Y-5457460D01*
X-5175294Y-5457460D02*
X-5184818Y-5447936D01*
X-4870532Y-5466984D02*
X-4984818Y-5466984D01*
X-4927675Y-5466984D02*
X-4927675Y-5266984D01*
X-4927675Y-5266984D02*
X-4946723Y-5295555D01*
X-4946723Y-5295555D02*
X-4965771Y-5314603D01*
X-4965771Y-5314603D02*
X-4984818Y-5324127D01*
X-4689580Y-5266984D02*
X-4784818Y-5266984D01*
X-4784818Y-5266984D02*
X-4794342Y-5362222D01*
X-4794342Y-5362222D02*
X-4784818Y-5352698D01*
X-4784818Y-5352698D02*
X-4765771Y-5343174D01*
X-4765771Y-5343174D02*
X-4718151Y-5343174D01*
X-4718151Y-5343174D02*
X-4699104Y-5352698D01*
X-4699104Y-5352698D02*
X-4689580Y-5362222D01*
X-4689580Y-5362222D02*
X-4680056Y-5381270D01*
X-4680056Y-5381270D02*
X-4680056Y-5428889D01*
X-4680056Y-5428889D02*
X-4689580Y-5447936D01*
X-4689580Y-5447936D02*
X-4699104Y-5457460D01*
X-4699104Y-5457460D02*
X-4718151Y-5466984D01*
X-4718151Y-5466984D02*
X-4765771Y-5466984D01*
X-4765771Y-5466984D02*
X-4784818Y-5457460D01*
X-4784818Y-5457460D02*
X-4794342Y-5447936D01*
X-4603866Y-5266984D02*
X-4603866Y-5305079D01*
X-4527675Y-5266984D02*
X-4527675Y-5305079D01*
X-4232437Y-5543174D02*
X-4241961Y-5533650D01*
X-4241961Y-5533650D02*
X-4261009Y-5505079D01*
X-4261009Y-5505079D02*
X-4270532Y-5486031D01*
X-4270532Y-5486031D02*
X-4280056Y-5457460D01*
X-4280056Y-5457460D02*
X-4289580Y-5409841D01*
X-4289580Y-5409841D02*
X-4289580Y-5371746D01*
X-4289580Y-5371746D02*
X-4280056Y-5324127D01*
X-4280056Y-5324127D02*
X-4270532Y-5295555D01*
X-4270532Y-5295555D02*
X-4261009Y-5276508D01*
X-4261009Y-5276508D02*
X-4241961Y-5247936D01*
X-4241961Y-5247936D02*
X-4232437Y-5238412D01*
X-4051485Y-5466984D02*
X-4165770Y-5466984D01*
X-4108628Y-5466984D02*
X-4108628Y-5266984D01*
X-4108628Y-5266984D02*
X-4127675Y-5295555D01*
X-4127675Y-5295555D02*
X-4146723Y-5314603D01*
X-4146723Y-5314603D02*
X-4165770Y-5324127D01*
X-3984818Y-5266984D02*
X-3851485Y-5266984D01*
X-3851485Y-5266984D02*
X-3937199Y-5466984D01*
X-3622913Y-5466984D02*
X-3622913Y-5266984D01*
X-3537199Y-5466984D02*
X-3537199Y-5362222D01*
X-3537199Y-5362222D02*
X-3546723Y-5343174D01*
X-3546723Y-5343174D02*
X-3565770Y-5333650D01*
X-3565770Y-5333650D02*
X-3594342Y-5333650D01*
X-3594342Y-5333650D02*
X-3613389Y-5343174D01*
X-3613389Y-5343174D02*
X-3622913Y-5352698D01*
X-3413389Y-5466984D02*
X-3432437Y-5457460D01*
X-3432437Y-5457460D02*
X-3441961Y-5447936D01*
X-3441961Y-5447936D02*
X-3451485Y-5428889D01*
X-3451485Y-5428889D02*
X-3451485Y-5371746D01*
X-3451485Y-5371746D02*
X-3441961Y-5352698D01*
X-3441961Y-5352698D02*
X-3432437Y-5343174D01*
X-3432437Y-5343174D02*
X-3413389Y-5333650D01*
X-3413389Y-5333650D02*
X-3384818Y-5333650D01*
X-3384818Y-5333650D02*
X-3365770Y-5343174D01*
X-3365770Y-5343174D02*
X-3356246Y-5352698D01*
X-3356246Y-5352698D02*
X-3346723Y-5371746D01*
X-3346723Y-5371746D02*
X-3346723Y-5428889D01*
X-3346723Y-5428889D02*
X-3356246Y-5447936D01*
X-3356246Y-5447936D02*
X-3365770Y-5457460D01*
X-3365770Y-5457460D02*
X-3384818Y-5466984D01*
X-3384818Y-5466984D02*
X-3413389Y-5466984D01*
X-3232437Y-5466984D02*
X-3251485Y-5457460D01*
X-3251485Y-5457460D02*
X-3261008Y-5438412D01*
X-3261008Y-5438412D02*
X-3261008Y-5266984D01*
X-3080056Y-5457460D02*
X-3099104Y-5466984D01*
X-3099104Y-5466984D02*
X-3137199Y-5466984D01*
X-3137199Y-5466984D02*
X-3156246Y-5457460D01*
X-3156246Y-5457460D02*
X-3165770Y-5438412D01*
X-3165770Y-5438412D02*
X-3165770Y-5362222D01*
X-3165770Y-5362222D02*
X-3156246Y-5343174D01*
X-3156246Y-5343174D02*
X-3137199Y-5333650D01*
X-3137199Y-5333650D02*
X-3099104Y-5333650D01*
X-3099104Y-5333650D02*
X-3080056Y-5343174D01*
X-3080056Y-5343174D02*
X-3070532Y-5362222D01*
X-3070532Y-5362222D02*
X-3070532Y-5381270D01*
X-3070532Y-5381270D02*
X-3165770Y-5400317D01*
X-2994342Y-5457460D02*
X-2975294Y-5466984D01*
X-2975294Y-5466984D02*
X-2937199Y-5466984D01*
X-2937199Y-5466984D02*
X-2918151Y-5457460D01*
X-2918151Y-5457460D02*
X-2908627Y-5438412D01*
X-2908627Y-5438412D02*
X-2908627Y-5428889D01*
X-2908627Y-5428889D02*
X-2918151Y-5409841D01*
X-2918151Y-5409841D02*
X-2937199Y-5400317D01*
X-2937199Y-5400317D02*
X-2965770Y-5400317D01*
X-2965770Y-5400317D02*
X-2984818Y-5390793D01*
X-2984818Y-5390793D02*
X-2994342Y-5371746D01*
X-2994342Y-5371746D02*
X-2994342Y-5362222D01*
X-2994342Y-5362222D02*
X-2984818Y-5343174D01*
X-2984818Y-5343174D02*
X-2965770Y-5333650D01*
X-2965770Y-5333650D02*
X-2937199Y-5333650D01*
X-2937199Y-5333650D02*
X-2918151Y-5343174D01*
X-2841961Y-5543174D02*
X-2832437Y-5533650D01*
X-2832437Y-5533650D02*
X-2813389Y-5505079D01*
X-2813389Y-5505079D02*
X-2803865Y-5486031D01*
X-2803865Y-5486031D02*
X-2794342Y-5457460D01*
X-2794342Y-5457460D02*
X-2784818Y-5409841D01*
X-2784818Y-5409841D02*
X-2784818Y-5371746D01*
X-2784818Y-5371746D02*
X-2794342Y-5324127D01*
X-2794342Y-5324127D02*
X-2803865Y-5295555D01*
X-2803865Y-5295555D02*
X-2813389Y-5276508D01*
X-2813389Y-5276508D02*
X-2832437Y-5247936D01*
X-2832437Y-5247936D02*
X-2841961Y-5238412D01*
D12*
X-7820680Y-5671320D02*
X-7820680Y-5607680D01*
X-7884320Y-5607680D01*
X-7884320Y-5671320D01*
X-7820680Y-5671320D01*
D11*
X-7508628Y-5530984D02*
X-7489580Y-5530984D01*
X-7489580Y-5530984D02*
X-7470533Y-5540508D01*
X-7470533Y-5540508D02*
X-7461009Y-5550031D01*
X-7461009Y-5550031D02*
X-7451485Y-5569079D01*
X-7451485Y-5569079D02*
X-7441961Y-5607174D01*
X-7441961Y-5607174D02*
X-7441961Y-5654793D01*
X-7441961Y-5654793D02*
X-7451485Y-5692888D01*
X-7451485Y-5692888D02*
X-7461009Y-5711936D01*
X-7461009Y-5711936D02*
X-7470533Y-5721460D01*
X-7470533Y-5721460D02*
X-7489580Y-5730984D01*
X-7489580Y-5730984D02*
X-7508628Y-5730984D01*
X-7508628Y-5730984D02*
X-7527675Y-5721460D01*
X-7527675Y-5721460D02*
X-7537199Y-5711936D01*
X-7537199Y-5711936D02*
X-7546723Y-5692888D01*
X-7546723Y-5692888D02*
X-7556247Y-5654793D01*
X-7556247Y-5654793D02*
X-7556247Y-5607174D01*
X-7556247Y-5607174D02*
X-7546723Y-5569079D01*
X-7546723Y-5569079D02*
X-7537199Y-5550031D01*
X-7537199Y-5550031D02*
X-7527675Y-5540508D01*
X-7527675Y-5540508D02*
X-7508628Y-5530984D01*
X-7356247Y-5711936D02*
X-7346723Y-5721460D01*
X-7346723Y-5721460D02*
X-7356247Y-5730984D01*
X-7356247Y-5730984D02*
X-7365771Y-5721460D01*
X-7365771Y-5721460D02*
X-7356247Y-5711936D01*
X-7356247Y-5711936D02*
X-7356247Y-5730984D01*
X-7251485Y-5730984D02*
X-7213390Y-5730984D01*
X-7213390Y-5730984D02*
X-7194342Y-5721460D01*
X-7194342Y-5721460D02*
X-7184818Y-5711936D01*
X-7184818Y-5711936D02*
X-7165771Y-5683365D01*
X-7165771Y-5683365D02*
X-7156247Y-5645269D01*
X-7156247Y-5645269D02*
X-7156247Y-5569079D01*
X-7156247Y-5569079D02*
X-7165771Y-5550031D01*
X-7165771Y-5550031D02*
X-7175294Y-5540508D01*
X-7175294Y-5540508D02*
X-7194342Y-5530984D01*
X-7194342Y-5530984D02*
X-7232437Y-5530984D01*
X-7232437Y-5530984D02*
X-7251485Y-5540508D01*
X-7251485Y-5540508D02*
X-7261009Y-5550031D01*
X-7261009Y-5550031D02*
X-7270533Y-5569079D01*
X-7270533Y-5569079D02*
X-7270533Y-5616698D01*
X-7270533Y-5616698D02*
X-7261009Y-5635746D01*
X-7261009Y-5635746D02*
X-7251485Y-5645269D01*
X-7251485Y-5645269D02*
X-7232437Y-5654793D01*
X-7232437Y-5654793D02*
X-7194342Y-5654793D01*
X-7194342Y-5654793D02*
X-7175294Y-5645269D01*
X-7175294Y-5645269D02*
X-7165771Y-5635746D01*
X-7165771Y-5635746D02*
X-7156247Y-5616698D01*
X-7032437Y-5530984D02*
X-7013390Y-5530984D01*
X-7013390Y-5530984D02*
X-6994342Y-5540508D01*
X-6994342Y-5540508D02*
X-6984818Y-5550031D01*
X-6984818Y-5550031D02*
X-6975294Y-5569079D01*
X-6975294Y-5569079D02*
X-6965771Y-5607174D01*
X-6965771Y-5607174D02*
X-6965771Y-5654793D01*
X-6965771Y-5654793D02*
X-6975294Y-5692888D01*
X-6975294Y-5692888D02*
X-6984818Y-5711936D01*
X-6984818Y-5711936D02*
X-6994342Y-5721460D01*
X-6994342Y-5721460D02*
X-7013390Y-5730984D01*
X-7013390Y-5730984D02*
X-7032437Y-5730984D01*
X-7032437Y-5730984D02*
X-7051485Y-5721460D01*
X-7051485Y-5721460D02*
X-7061009Y-5711936D01*
X-7061009Y-5711936D02*
X-7070533Y-5692888D01*
X-7070533Y-5692888D02*
X-7080056Y-5654793D01*
X-7080056Y-5654793D02*
X-7080056Y-5607174D01*
X-7080056Y-5607174D02*
X-7070533Y-5569079D01*
X-7070533Y-5569079D02*
X-7061009Y-5550031D01*
X-7061009Y-5550031D02*
X-7051485Y-5540508D01*
X-7051485Y-5540508D02*
X-7032437Y-5530984D01*
X-6841961Y-5530984D02*
X-6822913Y-5530984D01*
X-6822913Y-5530984D02*
X-6803866Y-5540508D01*
X-6803866Y-5540508D02*
X-6794342Y-5550031D01*
X-6794342Y-5550031D02*
X-6784818Y-5569079D01*
X-6784818Y-5569079D02*
X-6775294Y-5607174D01*
X-6775294Y-5607174D02*
X-6775294Y-5654793D01*
X-6775294Y-5654793D02*
X-6784818Y-5692888D01*
X-6784818Y-5692888D02*
X-6794342Y-5711936D01*
X-6794342Y-5711936D02*
X-6803866Y-5721460D01*
X-6803866Y-5721460D02*
X-6822913Y-5730984D01*
X-6822913Y-5730984D02*
X-6841961Y-5730984D01*
X-6841961Y-5730984D02*
X-6861009Y-5721460D01*
X-6861009Y-5721460D02*
X-6870533Y-5711936D01*
X-6870533Y-5711936D02*
X-6880056Y-5692888D01*
X-6880056Y-5692888D02*
X-6889580Y-5654793D01*
X-6889580Y-5654793D02*
X-6889580Y-5607174D01*
X-6889580Y-5607174D02*
X-6880056Y-5569079D01*
X-6880056Y-5569079D02*
X-6870533Y-5550031D01*
X-6870533Y-5550031D02*
X-6861009Y-5540508D01*
X-6861009Y-5540508D02*
X-6841961Y-5530984D01*
X-6689580Y-5730984D02*
X-6689580Y-5597650D01*
X-6689580Y-5616698D02*
X-6680056Y-5607174D01*
X-6680056Y-5607174D02*
X-6661009Y-5597650D01*
X-6661009Y-5597650D02*
X-6632437Y-5597650D01*
X-6632437Y-5597650D02*
X-6613390Y-5607174D01*
X-6613390Y-5607174D02*
X-6603866Y-5626222D01*
X-6603866Y-5626222D02*
X-6603866Y-5730984D01*
X-6603866Y-5626222D02*
X-6594342Y-5607174D01*
X-6594342Y-5607174D02*
X-6575294Y-5597650D01*
X-6575294Y-5597650D02*
X-6546723Y-5597650D01*
X-6546723Y-5597650D02*
X-6527675Y-5607174D01*
X-6527675Y-5607174D02*
X-6518152Y-5626222D01*
X-6518152Y-5626222D02*
X-6518152Y-5730984D01*
X-6422913Y-5730984D02*
X-6422913Y-5597650D01*
X-6422913Y-5616698D02*
X-6413390Y-5607174D01*
X-6413390Y-5607174D02*
X-6394342Y-5597650D01*
X-6394342Y-5597650D02*
X-6365771Y-5597650D01*
X-6365771Y-5597650D02*
X-6346723Y-5607174D01*
X-6346723Y-5607174D02*
X-6337199Y-5626222D01*
X-6337199Y-5626222D02*
X-6337199Y-5730984D01*
X-6337199Y-5626222D02*
X-6327675Y-5607174D01*
X-6327675Y-5607174D02*
X-6308628Y-5597650D01*
X-6308628Y-5597650D02*
X-6280056Y-5597650D01*
X-6280056Y-5597650D02*
X-6261009Y-5607174D01*
X-6261009Y-5607174D02*
X-6251485Y-5626222D01*
X-6251485Y-5626222D02*
X-6251485Y-5730984D01*
X-5861009Y-5521460D02*
X-6032437Y-5778603D01*
X-5603866Y-5530984D02*
X-5584818Y-5530984D01*
X-5584818Y-5530984D02*
X-5565771Y-5540508D01*
X-5565771Y-5540508D02*
X-5556247Y-5550031D01*
X-5556247Y-5550031D02*
X-5546723Y-5569079D01*
X-5546723Y-5569079D02*
X-5537199Y-5607174D01*
X-5537199Y-5607174D02*
X-5537199Y-5654793D01*
X-5537199Y-5654793D02*
X-5546723Y-5692888D01*
X-5546723Y-5692888D02*
X-5556247Y-5711936D01*
X-5556247Y-5711936D02*
X-5565771Y-5721460D01*
X-5565771Y-5721460D02*
X-5584818Y-5730984D01*
X-5584818Y-5730984D02*
X-5603866Y-5730984D01*
X-5603866Y-5730984D02*
X-5622913Y-5721460D01*
X-5622913Y-5721460D02*
X-5632437Y-5711936D01*
X-5632437Y-5711936D02*
X-5641961Y-5692888D01*
X-5641961Y-5692888D02*
X-5651485Y-5654793D01*
X-5651485Y-5654793D02*
X-5651485Y-5607174D01*
X-5651485Y-5607174D02*
X-5641961Y-5569079D01*
X-5641961Y-5569079D02*
X-5632437Y-5550031D01*
X-5632437Y-5550031D02*
X-5622913Y-5540508D01*
X-5622913Y-5540508D02*
X-5603866Y-5530984D01*
X-5451485Y-5711936D02*
X-5441961Y-5721460D01*
X-5441961Y-5721460D02*
X-5451485Y-5730984D01*
X-5451485Y-5730984D02*
X-5461009Y-5721460D01*
X-5461009Y-5721460D02*
X-5451485Y-5711936D01*
X-5451485Y-5711936D02*
X-5451485Y-5730984D01*
X-5318152Y-5530984D02*
X-5299104Y-5530984D01*
X-5299104Y-5530984D02*
X-5280056Y-5540508D01*
X-5280056Y-5540508D02*
X-5270532Y-5550031D01*
X-5270532Y-5550031D02*
X-5261009Y-5569079D01*
X-5261009Y-5569079D02*
X-5251485Y-5607174D01*
X-5251485Y-5607174D02*
X-5251485Y-5654793D01*
X-5251485Y-5654793D02*
X-5261009Y-5692888D01*
X-5261009Y-5692888D02*
X-5270532Y-5711936D01*
X-5270532Y-5711936D02*
X-5280056Y-5721460D01*
X-5280056Y-5721460D02*
X-5299104Y-5730984D01*
X-5299104Y-5730984D02*
X-5318152Y-5730984D01*
X-5318152Y-5730984D02*
X-5337199Y-5721460D01*
X-5337199Y-5721460D02*
X-5346723Y-5711936D01*
X-5346723Y-5711936D02*
X-5356247Y-5692888D01*
X-5356247Y-5692888D02*
X-5365771Y-5654793D01*
X-5365771Y-5654793D02*
X-5365771Y-5607174D01*
X-5365771Y-5607174D02*
X-5356247Y-5569079D01*
X-5356247Y-5569079D02*
X-5346723Y-5550031D01*
X-5346723Y-5550031D02*
X-5337199Y-5540508D01*
X-5337199Y-5540508D02*
X-5318152Y-5530984D01*
X-5184818Y-5530984D02*
X-5061009Y-5530984D01*
X-5061009Y-5530984D02*
X-5127675Y-5607174D01*
X-5127675Y-5607174D02*
X-5099104Y-5607174D01*
X-5099104Y-5607174D02*
X-5080056Y-5616698D01*
X-5080056Y-5616698D02*
X-5070532Y-5626222D01*
X-5070532Y-5626222D02*
X-5061009Y-5645269D01*
X-5061009Y-5645269D02*
X-5061009Y-5692888D01*
X-5061009Y-5692888D02*
X-5070532Y-5711936D01*
X-5070532Y-5711936D02*
X-5080056Y-5721460D01*
X-5080056Y-5721460D02*
X-5099104Y-5730984D01*
X-5099104Y-5730984D02*
X-5156247Y-5730984D01*
X-5156247Y-5730984D02*
X-5175294Y-5721460D01*
X-5175294Y-5721460D02*
X-5184818Y-5711936D01*
X-4880056Y-5530984D02*
X-4975294Y-5530984D01*
X-4975294Y-5530984D02*
X-4984818Y-5626222D01*
X-4984818Y-5626222D02*
X-4975294Y-5616698D01*
X-4975294Y-5616698D02*
X-4956247Y-5607174D01*
X-4956247Y-5607174D02*
X-4908628Y-5607174D01*
X-4908628Y-5607174D02*
X-4889580Y-5616698D01*
X-4889580Y-5616698D02*
X-4880056Y-5626222D01*
X-4880056Y-5626222D02*
X-4870532Y-5645269D01*
X-4870532Y-5645269D02*
X-4870532Y-5692888D01*
X-4870532Y-5692888D02*
X-4880056Y-5711936D01*
X-4880056Y-5711936D02*
X-4889580Y-5721460D01*
X-4889580Y-5721460D02*
X-4908628Y-5730984D01*
X-4908628Y-5730984D02*
X-4956247Y-5730984D01*
X-4956247Y-5730984D02*
X-4975294Y-5721460D01*
X-4975294Y-5721460D02*
X-4984818Y-5711936D01*
X-4699104Y-5597650D02*
X-4699104Y-5730984D01*
X-4746723Y-5521460D02*
X-4794342Y-5664317D01*
X-4794342Y-5664317D02*
X-4670532Y-5664317D01*
X-4603866Y-5530984D02*
X-4603866Y-5569079D01*
X-4527675Y-5530984D02*
X-4527675Y-5569079D01*
X-4232437Y-5807174D02*
X-4241961Y-5797650D01*
X-4241961Y-5797650D02*
X-4261009Y-5769079D01*
X-4261009Y-5769079D02*
X-4270532Y-5750031D01*
X-4270532Y-5750031D02*
X-4280056Y-5721460D01*
X-4280056Y-5721460D02*
X-4289580Y-5673841D01*
X-4289580Y-5673841D02*
X-4289580Y-5635746D01*
X-4289580Y-5635746D02*
X-4280056Y-5588127D01*
X-4280056Y-5588127D02*
X-4270532Y-5559555D01*
X-4270532Y-5559555D02*
X-4261009Y-5540508D01*
X-4261009Y-5540508D02*
X-4241961Y-5511936D01*
X-4241961Y-5511936D02*
X-4232437Y-5502412D01*
X-4175294Y-5530984D02*
X-4051485Y-5530984D01*
X-4051485Y-5530984D02*
X-4118151Y-5607174D01*
X-4118151Y-5607174D02*
X-4089580Y-5607174D01*
X-4089580Y-5607174D02*
X-4070532Y-5616698D01*
X-4070532Y-5616698D02*
X-4061008Y-5626222D01*
X-4061008Y-5626222D02*
X-4051485Y-5645269D01*
X-4051485Y-5645269D02*
X-4051485Y-5692888D01*
X-4051485Y-5692888D02*
X-4061008Y-5711936D01*
X-4061008Y-5711936D02*
X-4070532Y-5721460D01*
X-4070532Y-5721460D02*
X-4089580Y-5730984D01*
X-4089580Y-5730984D02*
X-4146723Y-5730984D01*
X-4146723Y-5730984D02*
X-4165770Y-5721460D01*
X-4165770Y-5721460D02*
X-4175294Y-5711936D01*
X-3813389Y-5730984D02*
X-3813389Y-5530984D01*
X-3727675Y-5730984D02*
X-3727675Y-5626222D01*
X-3727675Y-5626222D02*
X-3737199Y-5607174D01*
X-3737199Y-5607174D02*
X-3756246Y-5597650D01*
X-3756246Y-5597650D02*
X-3784818Y-5597650D01*
X-3784818Y-5597650D02*
X-3803866Y-5607174D01*
X-3803866Y-5607174D02*
X-3813389Y-5616698D01*
X-3603866Y-5730984D02*
X-3622913Y-5721460D01*
X-3622913Y-5721460D02*
X-3632437Y-5711936D01*
X-3632437Y-5711936D02*
X-3641961Y-5692888D01*
X-3641961Y-5692888D02*
X-3641961Y-5635746D01*
X-3641961Y-5635746D02*
X-3632437Y-5616698D01*
X-3632437Y-5616698D02*
X-3622913Y-5607174D01*
X-3622913Y-5607174D02*
X-3603866Y-5597650D01*
X-3603866Y-5597650D02*
X-3575294Y-5597650D01*
X-3575294Y-5597650D02*
X-3556246Y-5607174D01*
X-3556246Y-5607174D02*
X-3546723Y-5616698D01*
X-3546723Y-5616698D02*
X-3537199Y-5635746D01*
X-3537199Y-5635746D02*
X-3537199Y-5692888D01*
X-3537199Y-5692888D02*
X-3546723Y-5711936D01*
X-3546723Y-5711936D02*
X-3556246Y-5721460D01*
X-3556246Y-5721460D02*
X-3575294Y-5730984D01*
X-3575294Y-5730984D02*
X-3603866Y-5730984D01*
X-3422913Y-5730984D02*
X-3441961Y-5721460D01*
X-3441961Y-5721460D02*
X-3451485Y-5702412D01*
X-3451485Y-5702412D02*
X-3451485Y-5530984D01*
X-3270532Y-5721460D02*
X-3289580Y-5730984D01*
X-3289580Y-5730984D02*
X-3327675Y-5730984D01*
X-3327675Y-5730984D02*
X-3346723Y-5721460D01*
X-3346723Y-5721460D02*
X-3356246Y-5702412D01*
X-3356246Y-5702412D02*
X-3356246Y-5626222D01*
X-3356246Y-5626222D02*
X-3346723Y-5607174D01*
X-3346723Y-5607174D02*
X-3327675Y-5597650D01*
X-3327675Y-5597650D02*
X-3289580Y-5597650D01*
X-3289580Y-5597650D02*
X-3270532Y-5607174D01*
X-3270532Y-5607174D02*
X-3261008Y-5626222D01*
X-3261008Y-5626222D02*
X-3261008Y-5645269D01*
X-3261008Y-5645269D02*
X-3356246Y-5664317D01*
X-3184818Y-5721460D02*
X-3165770Y-5730984D01*
X-3165770Y-5730984D02*
X-3127675Y-5730984D01*
X-3127675Y-5730984D02*
X-3108627Y-5721460D01*
X-3108627Y-5721460D02*
X-3099104Y-5702412D01*
X-3099104Y-5702412D02*
X-3099104Y-5692888D01*
X-3099104Y-5692888D02*
X-3108627Y-5673841D01*
X-3108627Y-5673841D02*
X-3127675Y-5664317D01*
X-3127675Y-5664317D02*
X-3156246Y-5664317D01*
X-3156246Y-5664317D02*
X-3175294Y-5654793D01*
X-3175294Y-5654793D02*
X-3184818Y-5635746D01*
X-3184818Y-5635746D02*
X-3184818Y-5626222D01*
X-3184818Y-5626222D02*
X-3175294Y-5607174D01*
X-3175294Y-5607174D02*
X-3156246Y-5597650D01*
X-3156246Y-5597650D02*
X-3127675Y-5597650D01*
X-3127675Y-5597650D02*
X-3108627Y-5607174D01*
X-3032437Y-5807174D02*
X-3022913Y-5797650D01*
X-3022913Y-5797650D02*
X-3003865Y-5769079D01*
X-3003865Y-5769079D02*
X-2994342Y-5750031D01*
X-2994342Y-5750031D02*
X-2984818Y-5721460D01*
X-2984818Y-5721460D02*
X-2975294Y-5673841D01*
X-2975294Y-5673841D02*
X-2975294Y-5635746D01*
X-2975294Y-5635746D02*
X-2984818Y-5588127D01*
X-2984818Y-5588127D02*
X-2994342Y-5559555D01*
X-2994342Y-5559555D02*
X-3003865Y-5540508D01*
X-3003865Y-5540508D02*
X-3022913Y-5511936D01*
X-3022913Y-5511936D02*
X-3032437Y-5502412D01*
D12*
X-7857500Y-5953500D02*
X-7807500Y-5903500D01*
X-7857500Y-5853500D01*
X-7907500Y-5903500D01*
X-7857500Y-5953500D01*
D11*
X-7441961Y-5994984D02*
X-7556247Y-5994984D01*
X-7499104Y-5994984D02*
X-7499104Y-5794984D01*
X-7499104Y-5794984D02*
X-7518152Y-5823555D01*
X-7518152Y-5823555D02*
X-7537199Y-5842603D01*
X-7537199Y-5842603D02*
X-7556247Y-5852127D01*
X-7356247Y-5975936D02*
X-7346723Y-5985460D01*
X-7346723Y-5985460D02*
X-7356247Y-5994984D01*
X-7356247Y-5994984D02*
X-7365771Y-5985460D01*
X-7365771Y-5985460D02*
X-7356247Y-5975936D01*
X-7356247Y-5975936D02*
X-7356247Y-5994984D01*
X-7222914Y-5794984D02*
X-7203866Y-5794984D01*
X-7203866Y-5794984D02*
X-7184818Y-5804508D01*
X-7184818Y-5804508D02*
X-7175294Y-5814031D01*
X-7175294Y-5814031D02*
X-7165771Y-5833079D01*
X-7165771Y-5833079D02*
X-7156247Y-5871174D01*
X-7156247Y-5871174D02*
X-7156247Y-5918793D01*
X-7156247Y-5918793D02*
X-7165771Y-5956888D01*
X-7165771Y-5956888D02*
X-7175294Y-5975936D01*
X-7175294Y-5975936D02*
X-7184818Y-5985460D01*
X-7184818Y-5985460D02*
X-7203866Y-5994984D01*
X-7203866Y-5994984D02*
X-7222914Y-5994984D01*
X-7222914Y-5994984D02*
X-7241961Y-5985460D01*
X-7241961Y-5985460D02*
X-7251485Y-5975936D01*
X-7251485Y-5975936D02*
X-7261009Y-5956888D01*
X-7261009Y-5956888D02*
X-7270533Y-5918793D01*
X-7270533Y-5918793D02*
X-7270533Y-5871174D01*
X-7270533Y-5871174D02*
X-7261009Y-5833079D01*
X-7261009Y-5833079D02*
X-7251485Y-5814031D01*
X-7251485Y-5814031D02*
X-7241961Y-5804508D01*
X-7241961Y-5804508D02*
X-7222914Y-5794984D01*
X-7032437Y-5794984D02*
X-7013390Y-5794984D01*
X-7013390Y-5794984D02*
X-6994342Y-5804508D01*
X-6994342Y-5804508D02*
X-6984818Y-5814031D01*
X-6984818Y-5814031D02*
X-6975294Y-5833079D01*
X-6975294Y-5833079D02*
X-6965771Y-5871174D01*
X-6965771Y-5871174D02*
X-6965771Y-5918793D01*
X-6965771Y-5918793D02*
X-6975294Y-5956888D01*
X-6975294Y-5956888D02*
X-6984818Y-5975936D01*
X-6984818Y-5975936D02*
X-6994342Y-5985460D01*
X-6994342Y-5985460D02*
X-7013390Y-5994984D01*
X-7013390Y-5994984D02*
X-7032437Y-5994984D01*
X-7032437Y-5994984D02*
X-7051485Y-5985460D01*
X-7051485Y-5985460D02*
X-7061009Y-5975936D01*
X-7061009Y-5975936D02*
X-7070533Y-5956888D01*
X-7070533Y-5956888D02*
X-7080056Y-5918793D01*
X-7080056Y-5918793D02*
X-7080056Y-5871174D01*
X-7080056Y-5871174D02*
X-7070533Y-5833079D01*
X-7070533Y-5833079D02*
X-7061009Y-5814031D01*
X-7061009Y-5814031D02*
X-7051485Y-5804508D01*
X-7051485Y-5804508D02*
X-7032437Y-5794984D01*
X-6841961Y-5794984D02*
X-6822913Y-5794984D01*
X-6822913Y-5794984D02*
X-6803866Y-5804508D01*
X-6803866Y-5804508D02*
X-6794342Y-5814031D01*
X-6794342Y-5814031D02*
X-6784818Y-5833079D01*
X-6784818Y-5833079D02*
X-6775294Y-5871174D01*
X-6775294Y-5871174D02*
X-6775294Y-5918793D01*
X-6775294Y-5918793D02*
X-6784818Y-5956888D01*
X-6784818Y-5956888D02*
X-6794342Y-5975936D01*
X-6794342Y-5975936D02*
X-6803866Y-5985460D01*
X-6803866Y-5985460D02*
X-6822913Y-5994984D01*
X-6822913Y-5994984D02*
X-6841961Y-5994984D01*
X-6841961Y-5994984D02*
X-6861009Y-5985460D01*
X-6861009Y-5985460D02*
X-6870533Y-5975936D01*
X-6870533Y-5975936D02*
X-6880056Y-5956888D01*
X-6880056Y-5956888D02*
X-6889580Y-5918793D01*
X-6889580Y-5918793D02*
X-6889580Y-5871174D01*
X-6889580Y-5871174D02*
X-6880056Y-5833079D01*
X-6880056Y-5833079D02*
X-6870533Y-5814031D01*
X-6870533Y-5814031D02*
X-6861009Y-5804508D01*
X-6861009Y-5804508D02*
X-6841961Y-5794984D01*
X-6689580Y-5994984D02*
X-6689580Y-5861650D01*
X-6689580Y-5880698D02*
X-6680056Y-5871174D01*
X-6680056Y-5871174D02*
X-6661009Y-5861650D01*
X-6661009Y-5861650D02*
X-6632437Y-5861650D01*
X-6632437Y-5861650D02*
X-6613390Y-5871174D01*
X-6613390Y-5871174D02*
X-6603866Y-5890222D01*
X-6603866Y-5890222D02*
X-6603866Y-5994984D01*
X-6603866Y-5890222D02*
X-6594342Y-5871174D01*
X-6594342Y-5871174D02*
X-6575294Y-5861650D01*
X-6575294Y-5861650D02*
X-6546723Y-5861650D01*
X-6546723Y-5861650D02*
X-6527675Y-5871174D01*
X-6527675Y-5871174D02*
X-6518152Y-5890222D01*
X-6518152Y-5890222D02*
X-6518152Y-5994984D01*
X-6422913Y-5994984D02*
X-6422913Y-5861650D01*
X-6422913Y-5880698D02*
X-6413390Y-5871174D01*
X-6413390Y-5871174D02*
X-6394342Y-5861650D01*
X-6394342Y-5861650D02*
X-6365771Y-5861650D01*
X-6365771Y-5861650D02*
X-6346723Y-5871174D01*
X-6346723Y-5871174D02*
X-6337199Y-5890222D01*
X-6337199Y-5890222D02*
X-6337199Y-5994984D01*
X-6337199Y-5890222D02*
X-6327675Y-5871174D01*
X-6327675Y-5871174D02*
X-6308628Y-5861650D01*
X-6308628Y-5861650D02*
X-6280056Y-5861650D01*
X-6280056Y-5861650D02*
X-6261009Y-5871174D01*
X-6261009Y-5871174D02*
X-6251485Y-5890222D01*
X-6251485Y-5890222D02*
X-6251485Y-5994984D01*
X-5861009Y-5785460D02*
X-6032437Y-6042603D01*
X-5603866Y-5794984D02*
X-5584818Y-5794984D01*
X-5584818Y-5794984D02*
X-5565771Y-5804508D01*
X-5565771Y-5804508D02*
X-5556247Y-5814031D01*
X-5556247Y-5814031D02*
X-5546723Y-5833079D01*
X-5546723Y-5833079D02*
X-5537199Y-5871174D01*
X-5537199Y-5871174D02*
X-5537199Y-5918793D01*
X-5537199Y-5918793D02*
X-5546723Y-5956888D01*
X-5546723Y-5956888D02*
X-5556247Y-5975936D01*
X-5556247Y-5975936D02*
X-5565771Y-5985460D01*
X-5565771Y-5985460D02*
X-5584818Y-5994984D01*
X-5584818Y-5994984D02*
X-5603866Y-5994984D01*
X-5603866Y-5994984D02*
X-5622913Y-5985460D01*
X-5622913Y-5985460D02*
X-5632437Y-5975936D01*
X-5632437Y-5975936D02*
X-5641961Y-5956888D01*
X-5641961Y-5956888D02*
X-5651485Y-5918793D01*
X-5651485Y-5918793D02*
X-5651485Y-5871174D01*
X-5651485Y-5871174D02*
X-5641961Y-5833079D01*
X-5641961Y-5833079D02*
X-5632437Y-5814031D01*
X-5632437Y-5814031D02*
X-5622913Y-5804508D01*
X-5622913Y-5804508D02*
X-5603866Y-5794984D01*
X-5451485Y-5975936D02*
X-5441961Y-5985460D01*
X-5441961Y-5985460D02*
X-5451485Y-5994984D01*
X-5451485Y-5994984D02*
X-5461009Y-5985460D01*
X-5461009Y-5985460D02*
X-5451485Y-5975936D01*
X-5451485Y-5975936D02*
X-5451485Y-5994984D01*
X-5318152Y-5794984D02*
X-5299104Y-5794984D01*
X-5299104Y-5794984D02*
X-5280056Y-5804508D01*
X-5280056Y-5804508D02*
X-5270532Y-5814031D01*
X-5270532Y-5814031D02*
X-5261009Y-5833079D01*
X-5261009Y-5833079D02*
X-5251485Y-5871174D01*
X-5251485Y-5871174D02*
X-5251485Y-5918793D01*
X-5251485Y-5918793D02*
X-5261009Y-5956888D01*
X-5261009Y-5956888D02*
X-5270532Y-5975936D01*
X-5270532Y-5975936D02*
X-5280056Y-5985460D01*
X-5280056Y-5985460D02*
X-5299104Y-5994984D01*
X-5299104Y-5994984D02*
X-5318152Y-5994984D01*
X-5318152Y-5994984D02*
X-5337199Y-5985460D01*
X-5337199Y-5985460D02*
X-5346723Y-5975936D01*
X-5346723Y-5975936D02*
X-5356247Y-5956888D01*
X-5356247Y-5956888D02*
X-5365771Y-5918793D01*
X-5365771Y-5918793D02*
X-5365771Y-5871174D01*
X-5365771Y-5871174D02*
X-5356247Y-5833079D01*
X-5356247Y-5833079D02*
X-5346723Y-5814031D01*
X-5346723Y-5814031D02*
X-5337199Y-5804508D01*
X-5337199Y-5804508D02*
X-5318152Y-5794984D01*
X-5184818Y-5794984D02*
X-5061009Y-5794984D01*
X-5061009Y-5794984D02*
X-5127675Y-5871174D01*
X-5127675Y-5871174D02*
X-5099104Y-5871174D01*
X-5099104Y-5871174D02*
X-5080056Y-5880698D01*
X-5080056Y-5880698D02*
X-5070532Y-5890222D01*
X-5070532Y-5890222D02*
X-5061009Y-5909269D01*
X-5061009Y-5909269D02*
X-5061009Y-5956888D01*
X-5061009Y-5956888D02*
X-5070532Y-5975936D01*
X-5070532Y-5975936D02*
X-5080056Y-5985460D01*
X-5080056Y-5985460D02*
X-5099104Y-5994984D01*
X-5099104Y-5994984D02*
X-5156247Y-5994984D01*
X-5156247Y-5994984D02*
X-5175294Y-5985460D01*
X-5175294Y-5985460D02*
X-5184818Y-5975936D01*
X-4965771Y-5994984D02*
X-4927675Y-5994984D01*
X-4927675Y-5994984D02*
X-4908628Y-5985460D01*
X-4908628Y-5985460D02*
X-4899104Y-5975936D01*
X-4899104Y-5975936D02*
X-4880056Y-5947365D01*
X-4880056Y-5947365D02*
X-4870532Y-5909269D01*
X-4870532Y-5909269D02*
X-4870532Y-5833079D01*
X-4870532Y-5833079D02*
X-4880056Y-5814031D01*
X-4880056Y-5814031D02*
X-4889580Y-5804508D01*
X-4889580Y-5804508D02*
X-4908628Y-5794984D01*
X-4908628Y-5794984D02*
X-4946723Y-5794984D01*
X-4946723Y-5794984D02*
X-4965771Y-5804508D01*
X-4965771Y-5804508D02*
X-4975294Y-5814031D01*
X-4975294Y-5814031D02*
X-4984818Y-5833079D01*
X-4984818Y-5833079D02*
X-4984818Y-5880698D01*
X-4984818Y-5880698D02*
X-4975294Y-5899746D01*
X-4975294Y-5899746D02*
X-4965771Y-5909269D01*
X-4965771Y-5909269D02*
X-4946723Y-5918793D01*
X-4946723Y-5918793D02*
X-4908628Y-5918793D01*
X-4908628Y-5918793D02*
X-4889580Y-5909269D01*
X-4889580Y-5909269D02*
X-4880056Y-5899746D01*
X-4880056Y-5899746D02*
X-4870532Y-5880698D01*
X-4699104Y-5861650D02*
X-4699104Y-5994984D01*
X-4746723Y-5785460D02*
X-4794342Y-5928317D01*
X-4794342Y-5928317D02*
X-4670532Y-5928317D01*
X-4603866Y-5794984D02*
X-4603866Y-5833079D01*
X-4527675Y-5794984D02*
X-4527675Y-5833079D01*
X-4232437Y-6071174D02*
X-4241961Y-6061650D01*
X-4241961Y-6061650D02*
X-4261009Y-6033079D01*
X-4261009Y-6033079D02*
X-4270532Y-6014031D01*
X-4270532Y-6014031D02*
X-4280056Y-5985460D01*
X-4280056Y-5985460D02*
X-4289580Y-5937841D01*
X-4289580Y-5937841D02*
X-4289580Y-5899746D01*
X-4289580Y-5899746D02*
X-4280056Y-5852127D01*
X-4280056Y-5852127D02*
X-4270532Y-5823555D01*
X-4270532Y-5823555D02*
X-4261009Y-5804508D01*
X-4261009Y-5804508D02*
X-4241961Y-5775936D01*
X-4241961Y-5775936D02*
X-4232437Y-5766412D01*
X-4051485Y-5994984D02*
X-4165770Y-5994984D01*
X-4108628Y-5994984D02*
X-4108628Y-5794984D01*
X-4108628Y-5794984D02*
X-4127675Y-5823555D01*
X-4127675Y-5823555D02*
X-4146723Y-5842603D01*
X-4146723Y-5842603D02*
X-4165770Y-5852127D01*
X-3880056Y-5861650D02*
X-3880056Y-5994984D01*
X-3927675Y-5785460D02*
X-3975294Y-5928317D01*
X-3975294Y-5928317D02*
X-3851485Y-5928317D01*
X-3622913Y-5994984D02*
X-3622913Y-5794984D01*
X-3537199Y-5994984D02*
X-3537199Y-5890222D01*
X-3537199Y-5890222D02*
X-3546723Y-5871174D01*
X-3546723Y-5871174D02*
X-3565770Y-5861650D01*
X-3565770Y-5861650D02*
X-3594342Y-5861650D01*
X-3594342Y-5861650D02*
X-3613389Y-5871174D01*
X-3613389Y-5871174D02*
X-3622913Y-5880698D01*
X-3413389Y-5994984D02*
X-3432437Y-5985460D01*
X-3432437Y-5985460D02*
X-3441961Y-5975936D01*
X-3441961Y-5975936D02*
X-3451485Y-5956888D01*
X-3451485Y-5956888D02*
X-3451485Y-5899746D01*
X-3451485Y-5899746D02*
X-3441961Y-5880698D01*
X-3441961Y-5880698D02*
X-3432437Y-5871174D01*
X-3432437Y-5871174D02*
X-3413389Y-5861650D01*
X-3413389Y-5861650D02*
X-3384818Y-5861650D01*
X-3384818Y-5861650D02*
X-3365770Y-5871174D01*
X-3365770Y-5871174D02*
X-3356246Y-5880698D01*
X-3356246Y-5880698D02*
X-3346723Y-5899746D01*
X-3346723Y-5899746D02*
X-3346723Y-5956888D01*
X-3346723Y-5956888D02*
X-3356246Y-5975936D01*
X-3356246Y-5975936D02*
X-3365770Y-5985460D01*
X-3365770Y-5985460D02*
X-3384818Y-5994984D01*
X-3384818Y-5994984D02*
X-3413389Y-5994984D01*
X-3232437Y-5994984D02*
X-3251485Y-5985460D01*
X-3251485Y-5985460D02*
X-3261008Y-5966412D01*
X-3261008Y-5966412D02*
X-3261008Y-5794984D01*
X-3080056Y-5985460D02*
X-3099104Y-5994984D01*
X-3099104Y-5994984D02*
X-3137199Y-5994984D01*
X-3137199Y-5994984D02*
X-3156246Y-5985460D01*
X-3156246Y-5985460D02*
X-3165770Y-5966412D01*
X-3165770Y-5966412D02*
X-3165770Y-5890222D01*
X-3165770Y-5890222D02*
X-3156246Y-5871174D01*
X-3156246Y-5871174D02*
X-3137199Y-5861650D01*
X-3137199Y-5861650D02*
X-3099104Y-5861650D01*
X-3099104Y-5861650D02*
X-3080056Y-5871174D01*
X-3080056Y-5871174D02*
X-3070532Y-5890222D01*
X-3070532Y-5890222D02*
X-3070532Y-5909269D01*
X-3070532Y-5909269D02*
X-3165770Y-5928317D01*
X-2994342Y-5985460D02*
X-2975294Y-5994984D01*
X-2975294Y-5994984D02*
X-2937199Y-5994984D01*
X-2937199Y-5994984D02*
X-2918151Y-5985460D01*
X-2918151Y-5985460D02*
X-2908627Y-5966412D01*
X-2908627Y-5966412D02*
X-2908627Y-5956888D01*
X-2908627Y-5956888D02*
X-2918151Y-5937841D01*
X-2918151Y-5937841D02*
X-2937199Y-5928317D01*
X-2937199Y-5928317D02*
X-2965770Y-5928317D01*
X-2965770Y-5928317D02*
X-2984818Y-5918793D01*
X-2984818Y-5918793D02*
X-2994342Y-5899746D01*
X-2994342Y-5899746D02*
X-2994342Y-5890222D01*
X-2994342Y-5890222D02*
X-2984818Y-5871174D01*
X-2984818Y-5871174D02*
X-2965770Y-5861650D01*
X-2965770Y-5861650D02*
X-2937199Y-5861650D01*
X-2937199Y-5861650D02*
X-2918151Y-5871174D01*
X-2841961Y-6071174D02*
X-2832437Y-6061650D01*
X-2832437Y-6061650D02*
X-2813389Y-6033079D01*
X-2813389Y-6033079D02*
X-2803865Y-6014031D01*
X-2803865Y-6014031D02*
X-2794342Y-5985460D01*
X-2794342Y-5985460D02*
X-2784818Y-5937841D01*
X-2784818Y-5937841D02*
X-2784818Y-5899746D01*
X-2784818Y-5899746D02*
X-2794342Y-5852127D01*
X-2794342Y-5852127D02*
X-2803865Y-5823555D01*
X-2803865Y-5823555D02*
X-2813389Y-5804508D01*
X-2813389Y-5804508D02*
X-2832437Y-5775936D01*
X-2832437Y-5775936D02*
X-2841961Y-5766412D01*
D13*
X-7917500Y-6112500D02*
X-7807500Y-6222500D01*
X-7807500Y-6112500D02*
X-7917500Y-6222500D01*
X-7807500Y-6167500D02*
G75*
G02*
X-7917500Y-6167500I-55000J0D01*
G01*
X-7917500Y-6167500D02*
G75*
G02*
X-7807500Y-6167500I55000J0D01*
G01*
D11*
X-7441961Y-6258984D02*
X-7556247Y-6258984D01*
X-7499104Y-6258984D02*
X-7499104Y-6058984D01*
X-7499104Y-6058984D02*
X-7518152Y-6087555D01*
X-7518152Y-6087555D02*
X-7537199Y-6106603D01*
X-7537199Y-6106603D02*
X-7556247Y-6116127D01*
X-7356247Y-6239936D02*
X-7346723Y-6249460D01*
X-7346723Y-6249460D02*
X-7356247Y-6258984D01*
X-7356247Y-6258984D02*
X-7365771Y-6249460D01*
X-7365771Y-6249460D02*
X-7356247Y-6239936D01*
X-7356247Y-6239936D02*
X-7356247Y-6258984D01*
X-7156247Y-6258984D02*
X-7270533Y-6258984D01*
X-7213390Y-6258984D02*
X-7213390Y-6058984D01*
X-7213390Y-6058984D02*
X-7232437Y-6087555D01*
X-7232437Y-6087555D02*
X-7251485Y-6106603D01*
X-7251485Y-6106603D02*
X-7270533Y-6116127D01*
X-7032437Y-6058984D02*
X-7013390Y-6058984D01*
X-7013390Y-6058984D02*
X-6994342Y-6068508D01*
X-6994342Y-6068508D02*
X-6984818Y-6078031D01*
X-6984818Y-6078031D02*
X-6975294Y-6097079D01*
X-6975294Y-6097079D02*
X-6965771Y-6135174D01*
X-6965771Y-6135174D02*
X-6965771Y-6182793D01*
X-6965771Y-6182793D02*
X-6975294Y-6220888D01*
X-6975294Y-6220888D02*
X-6984818Y-6239936D01*
X-6984818Y-6239936D02*
X-6994342Y-6249460D01*
X-6994342Y-6249460D02*
X-7013390Y-6258984D01*
X-7013390Y-6258984D02*
X-7032437Y-6258984D01*
X-7032437Y-6258984D02*
X-7051485Y-6249460D01*
X-7051485Y-6249460D02*
X-7061009Y-6239936D01*
X-7061009Y-6239936D02*
X-7070533Y-6220888D01*
X-7070533Y-6220888D02*
X-7080056Y-6182793D01*
X-7080056Y-6182793D02*
X-7080056Y-6135174D01*
X-7080056Y-6135174D02*
X-7070533Y-6097079D01*
X-7070533Y-6097079D02*
X-7061009Y-6078031D01*
X-7061009Y-6078031D02*
X-7051485Y-6068508D01*
X-7051485Y-6068508D02*
X-7032437Y-6058984D01*
X-6841961Y-6058984D02*
X-6822913Y-6058984D01*
X-6822913Y-6058984D02*
X-6803866Y-6068508D01*
X-6803866Y-6068508D02*
X-6794342Y-6078031D01*
X-6794342Y-6078031D02*
X-6784818Y-6097079D01*
X-6784818Y-6097079D02*
X-6775294Y-6135174D01*
X-6775294Y-6135174D02*
X-6775294Y-6182793D01*
X-6775294Y-6182793D02*
X-6784818Y-6220888D01*
X-6784818Y-6220888D02*
X-6794342Y-6239936D01*
X-6794342Y-6239936D02*
X-6803866Y-6249460D01*
X-6803866Y-6249460D02*
X-6822913Y-6258984D01*
X-6822913Y-6258984D02*
X-6841961Y-6258984D01*
X-6841961Y-6258984D02*
X-6861009Y-6249460D01*
X-6861009Y-6249460D02*
X-6870533Y-6239936D01*
X-6870533Y-6239936D02*
X-6880056Y-6220888D01*
X-6880056Y-6220888D02*
X-6889580Y-6182793D01*
X-6889580Y-6182793D02*
X-6889580Y-6135174D01*
X-6889580Y-6135174D02*
X-6880056Y-6097079D01*
X-6880056Y-6097079D02*
X-6870533Y-6078031D01*
X-6870533Y-6078031D02*
X-6861009Y-6068508D01*
X-6861009Y-6068508D02*
X-6841961Y-6058984D01*
X-6689580Y-6258984D02*
X-6689580Y-6125650D01*
X-6689580Y-6144698D02*
X-6680056Y-6135174D01*
X-6680056Y-6135174D02*
X-6661009Y-6125650D01*
X-6661009Y-6125650D02*
X-6632437Y-6125650D01*
X-6632437Y-6125650D02*
X-6613390Y-6135174D01*
X-6613390Y-6135174D02*
X-6603866Y-6154222D01*
X-6603866Y-6154222D02*
X-6603866Y-6258984D01*
X-6603866Y-6154222D02*
X-6594342Y-6135174D01*
X-6594342Y-6135174D02*
X-6575294Y-6125650D01*
X-6575294Y-6125650D02*
X-6546723Y-6125650D01*
X-6546723Y-6125650D02*
X-6527675Y-6135174D01*
X-6527675Y-6135174D02*
X-6518152Y-6154222D01*
X-6518152Y-6154222D02*
X-6518152Y-6258984D01*
X-6422913Y-6258984D02*
X-6422913Y-6125650D01*
X-6422913Y-6144698D02*
X-6413390Y-6135174D01*
X-6413390Y-6135174D02*
X-6394342Y-6125650D01*
X-6394342Y-6125650D02*
X-6365771Y-6125650D01*
X-6365771Y-6125650D02*
X-6346723Y-6135174D01*
X-6346723Y-6135174D02*
X-6337199Y-6154222D01*
X-6337199Y-6154222D02*
X-6337199Y-6258984D01*
X-6337199Y-6154222D02*
X-6327675Y-6135174D01*
X-6327675Y-6135174D02*
X-6308628Y-6125650D01*
X-6308628Y-6125650D02*
X-6280056Y-6125650D01*
X-6280056Y-6125650D02*
X-6261009Y-6135174D01*
X-6261009Y-6135174D02*
X-6251485Y-6154222D01*
X-6251485Y-6154222D02*
X-6251485Y-6258984D01*
X-5861009Y-6049460D02*
X-6032437Y-6306603D01*
X-5603866Y-6058984D02*
X-5584818Y-6058984D01*
X-5584818Y-6058984D02*
X-5565771Y-6068508D01*
X-5565771Y-6068508D02*
X-5556247Y-6078031D01*
X-5556247Y-6078031D02*
X-5546723Y-6097079D01*
X-5546723Y-6097079D02*
X-5537199Y-6135174D01*
X-5537199Y-6135174D02*
X-5537199Y-6182793D01*
X-5537199Y-6182793D02*
X-5546723Y-6220888D01*
X-5546723Y-6220888D02*
X-5556247Y-6239936D01*
X-5556247Y-6239936D02*
X-5565771Y-6249460D01*
X-5565771Y-6249460D02*
X-5584818Y-6258984D01*
X-5584818Y-6258984D02*
X-5603866Y-6258984D01*
X-5603866Y-6258984D02*
X-5622913Y-6249460D01*
X-5622913Y-6249460D02*
X-5632437Y-6239936D01*
X-5632437Y-6239936D02*
X-5641961Y-6220888D01*
X-5641961Y-6220888D02*
X-5651485Y-6182793D01*
X-5651485Y-6182793D02*
X-5651485Y-6135174D01*
X-5651485Y-6135174D02*
X-5641961Y-6097079D01*
X-5641961Y-6097079D02*
X-5632437Y-6078031D01*
X-5632437Y-6078031D02*
X-5622913Y-6068508D01*
X-5622913Y-6068508D02*
X-5603866Y-6058984D01*
X-5451485Y-6239936D02*
X-5441961Y-6249460D01*
X-5441961Y-6249460D02*
X-5451485Y-6258984D01*
X-5451485Y-6258984D02*
X-5461009Y-6249460D01*
X-5461009Y-6249460D02*
X-5451485Y-6239936D01*
X-5451485Y-6239936D02*
X-5451485Y-6258984D01*
X-5318152Y-6058984D02*
X-5299104Y-6058984D01*
X-5299104Y-6058984D02*
X-5280056Y-6068508D01*
X-5280056Y-6068508D02*
X-5270532Y-6078031D01*
X-5270532Y-6078031D02*
X-5261009Y-6097079D01*
X-5261009Y-6097079D02*
X-5251485Y-6135174D01*
X-5251485Y-6135174D02*
X-5251485Y-6182793D01*
X-5251485Y-6182793D02*
X-5261009Y-6220888D01*
X-5261009Y-6220888D02*
X-5270532Y-6239936D01*
X-5270532Y-6239936D02*
X-5280056Y-6249460D01*
X-5280056Y-6249460D02*
X-5299104Y-6258984D01*
X-5299104Y-6258984D02*
X-5318152Y-6258984D01*
X-5318152Y-6258984D02*
X-5337199Y-6249460D01*
X-5337199Y-6249460D02*
X-5346723Y-6239936D01*
X-5346723Y-6239936D02*
X-5356247Y-6220888D01*
X-5356247Y-6220888D02*
X-5365771Y-6182793D01*
X-5365771Y-6182793D02*
X-5365771Y-6135174D01*
X-5365771Y-6135174D02*
X-5356247Y-6097079D01*
X-5356247Y-6097079D02*
X-5346723Y-6078031D01*
X-5346723Y-6078031D02*
X-5337199Y-6068508D01*
X-5337199Y-6068508D02*
X-5318152Y-6058984D01*
X-5080056Y-6125650D02*
X-5080056Y-6258984D01*
X-5127675Y-6049460D02*
X-5175294Y-6192317D01*
X-5175294Y-6192317D02*
X-5051485Y-6192317D01*
X-4994342Y-6058984D02*
X-4870532Y-6058984D01*
X-4870532Y-6058984D02*
X-4937199Y-6135174D01*
X-4937199Y-6135174D02*
X-4908628Y-6135174D01*
X-4908628Y-6135174D02*
X-4889580Y-6144698D01*
X-4889580Y-6144698D02*
X-4880056Y-6154222D01*
X-4880056Y-6154222D02*
X-4870532Y-6173269D01*
X-4870532Y-6173269D02*
X-4870532Y-6220888D01*
X-4870532Y-6220888D02*
X-4880056Y-6239936D01*
X-4880056Y-6239936D02*
X-4889580Y-6249460D01*
X-4889580Y-6249460D02*
X-4908628Y-6258984D01*
X-4908628Y-6258984D02*
X-4965771Y-6258984D01*
X-4965771Y-6258984D02*
X-4984818Y-6249460D01*
X-4984818Y-6249460D02*
X-4994342Y-6239936D01*
X-4803866Y-6058984D02*
X-4680056Y-6058984D01*
X-4680056Y-6058984D02*
X-4746723Y-6135174D01*
X-4746723Y-6135174D02*
X-4718151Y-6135174D01*
X-4718151Y-6135174D02*
X-4699104Y-6144698D01*
X-4699104Y-6144698D02*
X-4689580Y-6154222D01*
X-4689580Y-6154222D02*
X-4680056Y-6173269D01*
X-4680056Y-6173269D02*
X-4680056Y-6220888D01*
X-4680056Y-6220888D02*
X-4689580Y-6239936D01*
X-4689580Y-6239936D02*
X-4699104Y-6249460D01*
X-4699104Y-6249460D02*
X-4718151Y-6258984D01*
X-4718151Y-6258984D02*
X-4775294Y-6258984D01*
X-4775294Y-6258984D02*
X-4794342Y-6249460D01*
X-4794342Y-6249460D02*
X-4803866Y-6239936D01*
X-4603866Y-6058984D02*
X-4603866Y-6097079D01*
X-4527675Y-6058984D02*
X-4527675Y-6097079D01*
X-4232437Y-6335174D02*
X-4241961Y-6325650D01*
X-4241961Y-6325650D02*
X-4261009Y-6297079D01*
X-4261009Y-6297079D02*
X-4270532Y-6278031D01*
X-4270532Y-6278031D02*
X-4280056Y-6249460D01*
X-4280056Y-6249460D02*
X-4289580Y-6201841D01*
X-4289580Y-6201841D02*
X-4289580Y-6163746D01*
X-4289580Y-6163746D02*
X-4280056Y-6116127D01*
X-4280056Y-6116127D02*
X-4270532Y-6087555D01*
X-4270532Y-6087555D02*
X-4261009Y-6068508D01*
X-4261009Y-6068508D02*
X-4241961Y-6039936D01*
X-4241961Y-6039936D02*
X-4232437Y-6030412D01*
X-4165770Y-6078031D02*
X-4156247Y-6068508D01*
X-4156247Y-6068508D02*
X-4137199Y-6058984D01*
X-4137199Y-6058984D02*
X-4089580Y-6058984D01*
X-4089580Y-6058984D02*
X-4070532Y-6068508D01*
X-4070532Y-6068508D02*
X-4061008Y-6078031D01*
X-4061008Y-6078031D02*
X-4051485Y-6097079D01*
X-4051485Y-6097079D02*
X-4051485Y-6116127D01*
X-4051485Y-6116127D02*
X-4061008Y-6144698D01*
X-4061008Y-6144698D02*
X-4175294Y-6258984D01*
X-4175294Y-6258984D02*
X-4051485Y-6258984D01*
X-3813389Y-6258984D02*
X-3813389Y-6058984D01*
X-3727675Y-6258984D02*
X-3727675Y-6154222D01*
X-3727675Y-6154222D02*
X-3737199Y-6135174D01*
X-3737199Y-6135174D02*
X-3756246Y-6125650D01*
X-3756246Y-6125650D02*
X-3784818Y-6125650D01*
X-3784818Y-6125650D02*
X-3803866Y-6135174D01*
X-3803866Y-6135174D02*
X-3813389Y-6144698D01*
X-3603866Y-6258984D02*
X-3622913Y-6249460D01*
X-3622913Y-6249460D02*
X-3632437Y-6239936D01*
X-3632437Y-6239936D02*
X-3641961Y-6220888D01*
X-3641961Y-6220888D02*
X-3641961Y-6163746D01*
X-3641961Y-6163746D02*
X-3632437Y-6144698D01*
X-3632437Y-6144698D02*
X-3622913Y-6135174D01*
X-3622913Y-6135174D02*
X-3603866Y-6125650D01*
X-3603866Y-6125650D02*
X-3575294Y-6125650D01*
X-3575294Y-6125650D02*
X-3556246Y-6135174D01*
X-3556246Y-6135174D02*
X-3546723Y-6144698D01*
X-3546723Y-6144698D02*
X-3537199Y-6163746D01*
X-3537199Y-6163746D02*
X-3537199Y-6220888D01*
X-3537199Y-6220888D02*
X-3546723Y-6239936D01*
X-3546723Y-6239936D02*
X-3556246Y-6249460D01*
X-3556246Y-6249460D02*
X-3575294Y-6258984D01*
X-3575294Y-6258984D02*
X-3603866Y-6258984D01*
X-3422913Y-6258984D02*
X-3441961Y-6249460D01*
X-3441961Y-6249460D02*
X-3451485Y-6230412D01*
X-3451485Y-6230412D02*
X-3451485Y-6058984D01*
X-3270532Y-6249460D02*
X-3289580Y-6258984D01*
X-3289580Y-6258984D02*
X-3327675Y-6258984D01*
X-3327675Y-6258984D02*
X-3346723Y-6249460D01*
X-3346723Y-6249460D02*
X-3356246Y-6230412D01*
X-3356246Y-6230412D02*
X-3356246Y-6154222D01*
X-3356246Y-6154222D02*
X-3346723Y-6135174D01*
X-3346723Y-6135174D02*
X-3327675Y-6125650D01*
X-3327675Y-6125650D02*
X-3289580Y-6125650D01*
X-3289580Y-6125650D02*
X-3270532Y-6135174D01*
X-3270532Y-6135174D02*
X-3261008Y-6154222D01*
X-3261008Y-6154222D02*
X-3261008Y-6173269D01*
X-3261008Y-6173269D02*
X-3356246Y-6192317D01*
X-3184818Y-6249460D02*
X-3165770Y-6258984D01*
X-3165770Y-6258984D02*
X-3127675Y-6258984D01*
X-3127675Y-6258984D02*
X-3108627Y-6249460D01*
X-3108627Y-6249460D02*
X-3099104Y-6230412D01*
X-3099104Y-6230412D02*
X-3099104Y-6220888D01*
X-3099104Y-6220888D02*
X-3108627Y-6201841D01*
X-3108627Y-6201841D02*
X-3127675Y-6192317D01*
X-3127675Y-6192317D02*
X-3156246Y-6192317D01*
X-3156246Y-6192317D02*
X-3175294Y-6182793D01*
X-3175294Y-6182793D02*
X-3184818Y-6163746D01*
X-3184818Y-6163746D02*
X-3184818Y-6154222D01*
X-3184818Y-6154222D02*
X-3175294Y-6135174D01*
X-3175294Y-6135174D02*
X-3156246Y-6125650D01*
X-3156246Y-6125650D02*
X-3127675Y-6125650D01*
X-3127675Y-6125650D02*
X-3108627Y-6135174D01*
X-3032437Y-6335174D02*
X-3022913Y-6325650D01*
X-3022913Y-6325650D02*
X-3003865Y-6297079D01*
X-3003865Y-6297079D02*
X-2994342Y-6278031D01*
X-2994342Y-6278031D02*
X-2984818Y-6249460D01*
X-2984818Y-6249460D02*
X-2975294Y-6201841D01*
X-2975294Y-6201841D02*
X-2975294Y-6163746D01*
X-2975294Y-6163746D02*
X-2984818Y-6116127D01*
X-2984818Y-6116127D02*
X-2994342Y-6087555D01*
X-2994342Y-6087555D02*
X-3003865Y-6068508D01*
X-3003865Y-6068508D02*
X-3022913Y-6039936D01*
X-3022913Y-6039936D02*
X-3032437Y-6030412D01*
D14*
X-7927500Y-6371500D02*
X-7807500Y-6491500D01*
X-7807500Y-6371500D02*
X-7927500Y-6491500D01*
X-7867500Y-6371500D02*
X-7867500Y-6491500D01*
X-7927500Y-6431500D02*
X-7807500Y-6431500D01*
D11*
X-7441961Y-6522984D02*
X-7556247Y-6522984D01*
X-7499104Y-6522984D02*
X-7499104Y-6322984D01*
X-7499104Y-6322984D02*
X-7518152Y-6351555D01*
X-7518152Y-6351555D02*
X-7537199Y-6370603D01*
X-7537199Y-6370603D02*
X-7556247Y-6380127D01*
X-7356247Y-6503936D02*
X-7346723Y-6513460D01*
X-7346723Y-6513460D02*
X-7356247Y-6522984D01*
X-7356247Y-6522984D02*
X-7365771Y-6513460D01*
X-7365771Y-6513460D02*
X-7356247Y-6503936D01*
X-7356247Y-6503936D02*
X-7356247Y-6522984D01*
X-7270533Y-6342031D02*
X-7261009Y-6332508D01*
X-7261009Y-6332508D02*
X-7241961Y-6322984D01*
X-7241961Y-6322984D02*
X-7194342Y-6322984D01*
X-7194342Y-6322984D02*
X-7175294Y-6332508D01*
X-7175294Y-6332508D02*
X-7165771Y-6342031D01*
X-7165771Y-6342031D02*
X-7156247Y-6361079D01*
X-7156247Y-6361079D02*
X-7156247Y-6380127D01*
X-7156247Y-6380127D02*
X-7165771Y-6408698D01*
X-7165771Y-6408698D02*
X-7280056Y-6522984D01*
X-7280056Y-6522984D02*
X-7156247Y-6522984D01*
X-7032437Y-6322984D02*
X-7013390Y-6322984D01*
X-7013390Y-6322984D02*
X-6994342Y-6332508D01*
X-6994342Y-6332508D02*
X-6984818Y-6342031D01*
X-6984818Y-6342031D02*
X-6975294Y-6361079D01*
X-6975294Y-6361079D02*
X-6965771Y-6399174D01*
X-6965771Y-6399174D02*
X-6965771Y-6446793D01*
X-6965771Y-6446793D02*
X-6975294Y-6484888D01*
X-6975294Y-6484888D02*
X-6984818Y-6503936D01*
X-6984818Y-6503936D02*
X-6994342Y-6513460D01*
X-6994342Y-6513460D02*
X-7013390Y-6522984D01*
X-7013390Y-6522984D02*
X-7032437Y-6522984D01*
X-7032437Y-6522984D02*
X-7051485Y-6513460D01*
X-7051485Y-6513460D02*
X-7061009Y-6503936D01*
X-7061009Y-6503936D02*
X-7070533Y-6484888D01*
X-7070533Y-6484888D02*
X-7080056Y-6446793D01*
X-7080056Y-6446793D02*
X-7080056Y-6399174D01*
X-7080056Y-6399174D02*
X-7070533Y-6361079D01*
X-7070533Y-6361079D02*
X-7061009Y-6342031D01*
X-7061009Y-6342031D02*
X-7051485Y-6332508D01*
X-7051485Y-6332508D02*
X-7032437Y-6322984D01*
X-6841961Y-6322984D02*
X-6822913Y-6322984D01*
X-6822913Y-6322984D02*
X-6803866Y-6332508D01*
X-6803866Y-6332508D02*
X-6794342Y-6342031D01*
X-6794342Y-6342031D02*
X-6784818Y-6361079D01*
X-6784818Y-6361079D02*
X-6775294Y-6399174D01*
X-6775294Y-6399174D02*
X-6775294Y-6446793D01*
X-6775294Y-6446793D02*
X-6784818Y-6484888D01*
X-6784818Y-6484888D02*
X-6794342Y-6503936D01*
X-6794342Y-6503936D02*
X-6803866Y-6513460D01*
X-6803866Y-6513460D02*
X-6822913Y-6522984D01*
X-6822913Y-6522984D02*
X-6841961Y-6522984D01*
X-6841961Y-6522984D02*
X-6861009Y-6513460D01*
X-6861009Y-6513460D02*
X-6870533Y-6503936D01*
X-6870533Y-6503936D02*
X-6880056Y-6484888D01*
X-6880056Y-6484888D02*
X-6889580Y-6446793D01*
X-6889580Y-6446793D02*
X-6889580Y-6399174D01*
X-6889580Y-6399174D02*
X-6880056Y-6361079D01*
X-6880056Y-6361079D02*
X-6870533Y-6342031D01*
X-6870533Y-6342031D02*
X-6861009Y-6332508D01*
X-6861009Y-6332508D02*
X-6841961Y-6322984D01*
X-6689580Y-6522984D02*
X-6689580Y-6389650D01*
X-6689580Y-6408698D02*
X-6680056Y-6399174D01*
X-6680056Y-6399174D02*
X-6661009Y-6389650D01*
X-6661009Y-6389650D02*
X-6632437Y-6389650D01*
X-6632437Y-6389650D02*
X-6613390Y-6399174D01*
X-6613390Y-6399174D02*
X-6603866Y-6418222D01*
X-6603866Y-6418222D02*
X-6603866Y-6522984D01*
X-6603866Y-6418222D02*
X-6594342Y-6399174D01*
X-6594342Y-6399174D02*
X-6575294Y-6389650D01*
X-6575294Y-6389650D02*
X-6546723Y-6389650D01*
X-6546723Y-6389650D02*
X-6527675Y-6399174D01*
X-6527675Y-6399174D02*
X-6518152Y-6418222D01*
X-6518152Y-6418222D02*
X-6518152Y-6522984D01*
X-6422913Y-6522984D02*
X-6422913Y-6389650D01*
X-6422913Y-6408698D02*
X-6413390Y-6399174D01*
X-6413390Y-6399174D02*
X-6394342Y-6389650D01*
X-6394342Y-6389650D02*
X-6365771Y-6389650D01*
X-6365771Y-6389650D02*
X-6346723Y-6399174D01*
X-6346723Y-6399174D02*
X-6337199Y-6418222D01*
X-6337199Y-6418222D02*
X-6337199Y-6522984D01*
X-6337199Y-6418222D02*
X-6327675Y-6399174D01*
X-6327675Y-6399174D02*
X-6308628Y-6389650D01*
X-6308628Y-6389650D02*
X-6280056Y-6389650D01*
X-6280056Y-6389650D02*
X-6261009Y-6399174D01*
X-6261009Y-6399174D02*
X-6251485Y-6418222D01*
X-6251485Y-6418222D02*
X-6251485Y-6522984D01*
X-5861009Y-6313460D02*
X-6032437Y-6570603D01*
X-5603866Y-6322984D02*
X-5584818Y-6322984D01*
X-5584818Y-6322984D02*
X-5565771Y-6332508D01*
X-5565771Y-6332508D02*
X-5556247Y-6342031D01*
X-5556247Y-6342031D02*
X-5546723Y-6361079D01*
X-5546723Y-6361079D02*
X-5537199Y-6399174D01*
X-5537199Y-6399174D02*
X-5537199Y-6446793D01*
X-5537199Y-6446793D02*
X-5546723Y-6484888D01*
X-5546723Y-6484888D02*
X-5556247Y-6503936D01*
X-5556247Y-6503936D02*
X-5565771Y-6513460D01*
X-5565771Y-6513460D02*
X-5584818Y-6522984D01*
X-5584818Y-6522984D02*
X-5603866Y-6522984D01*
X-5603866Y-6522984D02*
X-5622913Y-6513460D01*
X-5622913Y-6513460D02*
X-5632437Y-6503936D01*
X-5632437Y-6503936D02*
X-5641961Y-6484888D01*
X-5641961Y-6484888D02*
X-5651485Y-6446793D01*
X-5651485Y-6446793D02*
X-5651485Y-6399174D01*
X-5651485Y-6399174D02*
X-5641961Y-6361079D01*
X-5641961Y-6361079D02*
X-5632437Y-6342031D01*
X-5632437Y-6342031D02*
X-5622913Y-6332508D01*
X-5622913Y-6332508D02*
X-5603866Y-6322984D01*
X-5451485Y-6503936D02*
X-5441961Y-6513460D01*
X-5441961Y-6513460D02*
X-5451485Y-6522984D01*
X-5451485Y-6522984D02*
X-5461009Y-6513460D01*
X-5461009Y-6513460D02*
X-5451485Y-6503936D01*
X-5451485Y-6503936D02*
X-5451485Y-6522984D01*
X-5318152Y-6322984D02*
X-5299104Y-6322984D01*
X-5299104Y-6322984D02*
X-5280056Y-6332508D01*
X-5280056Y-6332508D02*
X-5270532Y-6342031D01*
X-5270532Y-6342031D02*
X-5261009Y-6361079D01*
X-5261009Y-6361079D02*
X-5251485Y-6399174D01*
X-5251485Y-6399174D02*
X-5251485Y-6446793D01*
X-5251485Y-6446793D02*
X-5261009Y-6484888D01*
X-5261009Y-6484888D02*
X-5270532Y-6503936D01*
X-5270532Y-6503936D02*
X-5280056Y-6513460D01*
X-5280056Y-6513460D02*
X-5299104Y-6522984D01*
X-5299104Y-6522984D02*
X-5318152Y-6522984D01*
X-5318152Y-6522984D02*
X-5337199Y-6513460D01*
X-5337199Y-6513460D02*
X-5346723Y-6503936D01*
X-5346723Y-6503936D02*
X-5356247Y-6484888D01*
X-5356247Y-6484888D02*
X-5365771Y-6446793D01*
X-5365771Y-6446793D02*
X-5365771Y-6399174D01*
X-5365771Y-6399174D02*
X-5356247Y-6361079D01*
X-5356247Y-6361079D02*
X-5346723Y-6342031D01*
X-5346723Y-6342031D02*
X-5337199Y-6332508D01*
X-5337199Y-6332508D02*
X-5318152Y-6322984D01*
X-5080056Y-6389650D02*
X-5080056Y-6522984D01*
X-5127675Y-6313460D02*
X-5175294Y-6456317D01*
X-5175294Y-6456317D02*
X-5051485Y-6456317D01*
X-4994342Y-6322984D02*
X-4861009Y-6322984D01*
X-4861009Y-6322984D02*
X-4946723Y-6522984D01*
X-4794342Y-6342031D02*
X-4784818Y-6332508D01*
X-4784818Y-6332508D02*
X-4765771Y-6322984D01*
X-4765771Y-6322984D02*
X-4718151Y-6322984D01*
X-4718151Y-6322984D02*
X-4699104Y-6332508D01*
X-4699104Y-6332508D02*
X-4689580Y-6342031D01*
X-4689580Y-6342031D02*
X-4680056Y-6361079D01*
X-4680056Y-6361079D02*
X-4680056Y-6380127D01*
X-4680056Y-6380127D02*
X-4689580Y-6408698D01*
X-4689580Y-6408698D02*
X-4803866Y-6522984D01*
X-4803866Y-6522984D02*
X-4680056Y-6522984D01*
X-4603866Y-6322984D02*
X-4603866Y-6361079D01*
X-4527675Y-6322984D02*
X-4527675Y-6361079D01*
X-4232437Y-6599174D02*
X-4241961Y-6589650D01*
X-4241961Y-6589650D02*
X-4261009Y-6561079D01*
X-4261009Y-6561079D02*
X-4270532Y-6542031D01*
X-4270532Y-6542031D02*
X-4280056Y-6513460D01*
X-4280056Y-6513460D02*
X-4289580Y-6465841D01*
X-4289580Y-6465841D02*
X-4289580Y-6427746D01*
X-4289580Y-6427746D02*
X-4280056Y-6380127D01*
X-4280056Y-6380127D02*
X-4270532Y-6351555D01*
X-4270532Y-6351555D02*
X-4261009Y-6332508D01*
X-4261009Y-6332508D02*
X-4241961Y-6303936D01*
X-4241961Y-6303936D02*
X-4232437Y-6294412D01*
X-4175294Y-6322984D02*
X-4051485Y-6322984D01*
X-4051485Y-6322984D02*
X-4118151Y-6399174D01*
X-4118151Y-6399174D02*
X-4089580Y-6399174D01*
X-4089580Y-6399174D02*
X-4070532Y-6408698D01*
X-4070532Y-6408698D02*
X-4061008Y-6418222D01*
X-4061008Y-6418222D02*
X-4051485Y-6437269D01*
X-4051485Y-6437269D02*
X-4051485Y-6484888D01*
X-4051485Y-6484888D02*
X-4061008Y-6503936D01*
X-4061008Y-6503936D02*
X-4070532Y-6513460D01*
X-4070532Y-6513460D02*
X-4089580Y-6522984D01*
X-4089580Y-6522984D02*
X-4146723Y-6522984D01*
X-4146723Y-6522984D02*
X-4165770Y-6513460D01*
X-4165770Y-6513460D02*
X-4175294Y-6503936D01*
X-3813389Y-6522984D02*
X-3813389Y-6322984D01*
X-3727675Y-6522984D02*
X-3727675Y-6418222D01*
X-3727675Y-6418222D02*
X-3737199Y-6399174D01*
X-3737199Y-6399174D02*
X-3756246Y-6389650D01*
X-3756246Y-6389650D02*
X-3784818Y-6389650D01*
X-3784818Y-6389650D02*
X-3803866Y-6399174D01*
X-3803866Y-6399174D02*
X-3813389Y-6408698D01*
X-3603866Y-6522984D02*
X-3622913Y-6513460D01*
X-3622913Y-6513460D02*
X-3632437Y-6503936D01*
X-3632437Y-6503936D02*
X-3641961Y-6484888D01*
X-3641961Y-6484888D02*
X-3641961Y-6427746D01*
X-3641961Y-6427746D02*
X-3632437Y-6408698D01*
X-3632437Y-6408698D02*
X-3622913Y-6399174D01*
X-3622913Y-6399174D02*
X-3603866Y-6389650D01*
X-3603866Y-6389650D02*
X-3575294Y-6389650D01*
X-3575294Y-6389650D02*
X-3556246Y-6399174D01*
X-3556246Y-6399174D02*
X-3546723Y-6408698D01*
X-3546723Y-6408698D02*
X-3537199Y-6427746D01*
X-3537199Y-6427746D02*
X-3537199Y-6484888D01*
X-3537199Y-6484888D02*
X-3546723Y-6503936D01*
X-3546723Y-6503936D02*
X-3556246Y-6513460D01*
X-3556246Y-6513460D02*
X-3575294Y-6522984D01*
X-3575294Y-6522984D02*
X-3603866Y-6522984D01*
X-3422913Y-6522984D02*
X-3441961Y-6513460D01*
X-3441961Y-6513460D02*
X-3451485Y-6494412D01*
X-3451485Y-6494412D02*
X-3451485Y-6322984D01*
X-3270532Y-6513460D02*
X-3289580Y-6522984D01*
X-3289580Y-6522984D02*
X-3327675Y-6522984D01*
X-3327675Y-6522984D02*
X-3346723Y-6513460D01*
X-3346723Y-6513460D02*
X-3356246Y-6494412D01*
X-3356246Y-6494412D02*
X-3356246Y-6418222D01*
X-3356246Y-6418222D02*
X-3346723Y-6399174D01*
X-3346723Y-6399174D02*
X-3327675Y-6389650D01*
X-3327675Y-6389650D02*
X-3289580Y-6389650D01*
X-3289580Y-6389650D02*
X-3270532Y-6399174D01*
X-3270532Y-6399174D02*
X-3261008Y-6418222D01*
X-3261008Y-6418222D02*
X-3261008Y-6437269D01*
X-3261008Y-6437269D02*
X-3356246Y-6456317D01*
X-3184818Y-6513460D02*
X-3165770Y-6522984D01*
X-3165770Y-6522984D02*
X-3127675Y-6522984D01*
X-3127675Y-6522984D02*
X-3108627Y-6513460D01*
X-3108627Y-6513460D02*
X-3099104Y-6494412D01*
X-3099104Y-6494412D02*
X-3099104Y-6484888D01*
X-3099104Y-6484888D02*
X-3108627Y-6465841D01*
X-3108627Y-6465841D02*
X-3127675Y-6456317D01*
X-3127675Y-6456317D02*
X-3156246Y-6456317D01*
X-3156246Y-6456317D02*
X-3175294Y-6446793D01*
X-3175294Y-6446793D02*
X-3184818Y-6427746D01*
X-3184818Y-6427746D02*
X-3184818Y-6418222D01*
X-3184818Y-6418222D02*
X-3175294Y-6399174D01*
X-3175294Y-6399174D02*
X-3156246Y-6389650D01*
X-3156246Y-6389650D02*
X-3127675Y-6389650D01*
X-3127675Y-6389650D02*
X-3108627Y-6399174D01*
X-3032437Y-6599174D02*
X-3022913Y-6589650D01*
X-3022913Y-6589650D02*
X-3003865Y-6561079D01*
X-3003865Y-6561079D02*
X-2994342Y-6542031D01*
X-2994342Y-6542031D02*
X-2984818Y-6513460D01*
X-2984818Y-6513460D02*
X-2975294Y-6465841D01*
X-2975294Y-6465841D02*
X-2975294Y-6427746D01*
X-2975294Y-6427746D02*
X-2984818Y-6380127D01*
X-2984818Y-6380127D02*
X-2994342Y-6351555D01*
X-2994342Y-6351555D02*
X-3003865Y-6332508D01*
X-3003865Y-6332508D02*
X-3022913Y-6303936D01*
X-3022913Y-6303936D02*
X-3032437Y-6294412D01*
D10*
X-7957500Y-6620500D02*
X-7807500Y-6770500D01*
X-7807500Y-6620500D02*
X-7957500Y-6770500D01*
X-7829466Y-6748533D02*
X-7829466Y-6642466D01*
X-7935533Y-6642466D01*
X-7935533Y-6748533D01*
X-7829466Y-6748533D01*
D11*
X-7441961Y-6786984D02*
X-7556247Y-6786984D01*
X-7499104Y-6786984D02*
X-7499104Y-6586984D01*
X-7499104Y-6586984D02*
X-7518152Y-6615555D01*
X-7518152Y-6615555D02*
X-7537199Y-6634603D01*
X-7537199Y-6634603D02*
X-7556247Y-6644127D01*
X-7356247Y-6767936D02*
X-7346723Y-6777460D01*
X-7346723Y-6777460D02*
X-7356247Y-6786984D01*
X-7356247Y-6786984D02*
X-7365771Y-6777460D01*
X-7365771Y-6777460D02*
X-7356247Y-6767936D01*
X-7356247Y-6767936D02*
X-7356247Y-6786984D01*
X-7165771Y-6586984D02*
X-7261009Y-6586984D01*
X-7261009Y-6586984D02*
X-7270533Y-6682222D01*
X-7270533Y-6682222D02*
X-7261009Y-6672698D01*
X-7261009Y-6672698D02*
X-7241961Y-6663174D01*
X-7241961Y-6663174D02*
X-7194342Y-6663174D01*
X-7194342Y-6663174D02*
X-7175294Y-6672698D01*
X-7175294Y-6672698D02*
X-7165771Y-6682222D01*
X-7165771Y-6682222D02*
X-7156247Y-6701269D01*
X-7156247Y-6701269D02*
X-7156247Y-6748888D01*
X-7156247Y-6748888D02*
X-7165771Y-6767936D01*
X-7165771Y-6767936D02*
X-7175294Y-6777460D01*
X-7175294Y-6777460D02*
X-7194342Y-6786984D01*
X-7194342Y-6786984D02*
X-7241961Y-6786984D01*
X-7241961Y-6786984D02*
X-7261009Y-6777460D01*
X-7261009Y-6777460D02*
X-7270533Y-6767936D01*
X-7032437Y-6586984D02*
X-7013390Y-6586984D01*
X-7013390Y-6586984D02*
X-6994342Y-6596508D01*
X-6994342Y-6596508D02*
X-6984818Y-6606031D01*
X-6984818Y-6606031D02*
X-6975294Y-6625079D01*
X-6975294Y-6625079D02*
X-6965771Y-6663174D01*
X-6965771Y-6663174D02*
X-6965771Y-6710793D01*
X-6965771Y-6710793D02*
X-6975294Y-6748888D01*
X-6975294Y-6748888D02*
X-6984818Y-6767936D01*
X-6984818Y-6767936D02*
X-6994342Y-6777460D01*
X-6994342Y-6777460D02*
X-7013390Y-6786984D01*
X-7013390Y-6786984D02*
X-7032437Y-6786984D01*
X-7032437Y-6786984D02*
X-7051485Y-6777460D01*
X-7051485Y-6777460D02*
X-7061009Y-6767936D01*
X-7061009Y-6767936D02*
X-7070533Y-6748888D01*
X-7070533Y-6748888D02*
X-7080056Y-6710793D01*
X-7080056Y-6710793D02*
X-7080056Y-6663174D01*
X-7080056Y-6663174D02*
X-7070533Y-6625079D01*
X-7070533Y-6625079D02*
X-7061009Y-6606031D01*
X-7061009Y-6606031D02*
X-7051485Y-6596508D01*
X-7051485Y-6596508D02*
X-7032437Y-6586984D01*
X-6841961Y-6586984D02*
X-6822913Y-6586984D01*
X-6822913Y-6586984D02*
X-6803866Y-6596508D01*
X-6803866Y-6596508D02*
X-6794342Y-6606031D01*
X-6794342Y-6606031D02*
X-6784818Y-6625079D01*
X-6784818Y-6625079D02*
X-6775294Y-6663174D01*
X-6775294Y-6663174D02*
X-6775294Y-6710793D01*
X-6775294Y-6710793D02*
X-6784818Y-6748888D01*
X-6784818Y-6748888D02*
X-6794342Y-6767936D01*
X-6794342Y-6767936D02*
X-6803866Y-6777460D01*
X-6803866Y-6777460D02*
X-6822913Y-6786984D01*
X-6822913Y-6786984D02*
X-6841961Y-6786984D01*
X-6841961Y-6786984D02*
X-6861009Y-6777460D01*
X-6861009Y-6777460D02*
X-6870533Y-6767936D01*
X-6870533Y-6767936D02*
X-6880056Y-6748888D01*
X-6880056Y-6748888D02*
X-6889580Y-6710793D01*
X-6889580Y-6710793D02*
X-6889580Y-6663174D01*
X-6889580Y-6663174D02*
X-6880056Y-6625079D01*
X-6880056Y-6625079D02*
X-6870533Y-6606031D01*
X-6870533Y-6606031D02*
X-6861009Y-6596508D01*
X-6861009Y-6596508D02*
X-6841961Y-6586984D01*
X-6689580Y-6786984D02*
X-6689580Y-6653650D01*
X-6689580Y-6672698D02*
X-6680056Y-6663174D01*
X-6680056Y-6663174D02*
X-6661009Y-6653650D01*
X-6661009Y-6653650D02*
X-6632437Y-6653650D01*
X-6632437Y-6653650D02*
X-6613390Y-6663174D01*
X-6613390Y-6663174D02*
X-6603866Y-6682222D01*
X-6603866Y-6682222D02*
X-6603866Y-6786984D01*
X-6603866Y-6682222D02*
X-6594342Y-6663174D01*
X-6594342Y-6663174D02*
X-6575294Y-6653650D01*
X-6575294Y-6653650D02*
X-6546723Y-6653650D01*
X-6546723Y-6653650D02*
X-6527675Y-6663174D01*
X-6527675Y-6663174D02*
X-6518152Y-6682222D01*
X-6518152Y-6682222D02*
X-6518152Y-6786984D01*
X-6422913Y-6786984D02*
X-6422913Y-6653650D01*
X-6422913Y-6672698D02*
X-6413390Y-6663174D01*
X-6413390Y-6663174D02*
X-6394342Y-6653650D01*
X-6394342Y-6653650D02*
X-6365771Y-6653650D01*
X-6365771Y-6653650D02*
X-6346723Y-6663174D01*
X-6346723Y-6663174D02*
X-6337199Y-6682222D01*
X-6337199Y-6682222D02*
X-6337199Y-6786984D01*
X-6337199Y-6682222D02*
X-6327675Y-6663174D01*
X-6327675Y-6663174D02*
X-6308628Y-6653650D01*
X-6308628Y-6653650D02*
X-6280056Y-6653650D01*
X-6280056Y-6653650D02*
X-6261009Y-6663174D01*
X-6261009Y-6663174D02*
X-6251485Y-6682222D01*
X-6251485Y-6682222D02*
X-6251485Y-6786984D01*
X-5861009Y-6577460D02*
X-6032437Y-6834603D01*
X-5603866Y-6586984D02*
X-5584818Y-6586984D01*
X-5584818Y-6586984D02*
X-5565771Y-6596508D01*
X-5565771Y-6596508D02*
X-5556247Y-6606031D01*
X-5556247Y-6606031D02*
X-5546723Y-6625079D01*
X-5546723Y-6625079D02*
X-5537199Y-6663174D01*
X-5537199Y-6663174D02*
X-5537199Y-6710793D01*
X-5537199Y-6710793D02*
X-5546723Y-6748888D01*
X-5546723Y-6748888D02*
X-5556247Y-6767936D01*
X-5556247Y-6767936D02*
X-5565771Y-6777460D01*
X-5565771Y-6777460D02*
X-5584818Y-6786984D01*
X-5584818Y-6786984D02*
X-5603866Y-6786984D01*
X-5603866Y-6786984D02*
X-5622913Y-6777460D01*
X-5622913Y-6777460D02*
X-5632437Y-6767936D01*
X-5632437Y-6767936D02*
X-5641961Y-6748888D01*
X-5641961Y-6748888D02*
X-5651485Y-6710793D01*
X-5651485Y-6710793D02*
X-5651485Y-6663174D01*
X-5651485Y-6663174D02*
X-5641961Y-6625079D01*
X-5641961Y-6625079D02*
X-5632437Y-6606031D01*
X-5632437Y-6606031D02*
X-5622913Y-6596508D01*
X-5622913Y-6596508D02*
X-5603866Y-6586984D01*
X-5451485Y-6767936D02*
X-5441961Y-6777460D01*
X-5441961Y-6777460D02*
X-5451485Y-6786984D01*
X-5451485Y-6786984D02*
X-5461009Y-6777460D01*
X-5461009Y-6777460D02*
X-5451485Y-6767936D01*
X-5451485Y-6767936D02*
X-5451485Y-6786984D01*
X-5318152Y-6586984D02*
X-5299104Y-6586984D01*
X-5299104Y-6586984D02*
X-5280056Y-6596508D01*
X-5280056Y-6596508D02*
X-5270532Y-6606031D01*
X-5270532Y-6606031D02*
X-5261009Y-6625079D01*
X-5261009Y-6625079D02*
X-5251485Y-6663174D01*
X-5251485Y-6663174D02*
X-5251485Y-6710793D01*
X-5251485Y-6710793D02*
X-5261009Y-6748888D01*
X-5261009Y-6748888D02*
X-5270532Y-6767936D01*
X-5270532Y-6767936D02*
X-5280056Y-6777460D01*
X-5280056Y-6777460D02*
X-5299104Y-6786984D01*
X-5299104Y-6786984D02*
X-5318152Y-6786984D01*
X-5318152Y-6786984D02*
X-5337199Y-6777460D01*
X-5337199Y-6777460D02*
X-5346723Y-6767936D01*
X-5346723Y-6767936D02*
X-5356247Y-6748888D01*
X-5356247Y-6748888D02*
X-5365771Y-6710793D01*
X-5365771Y-6710793D02*
X-5365771Y-6663174D01*
X-5365771Y-6663174D02*
X-5356247Y-6625079D01*
X-5356247Y-6625079D02*
X-5346723Y-6606031D01*
X-5346723Y-6606031D02*
X-5337199Y-6596508D01*
X-5337199Y-6596508D02*
X-5318152Y-6586984D01*
X-5070532Y-6586984D02*
X-5165771Y-6586984D01*
X-5165771Y-6586984D02*
X-5175294Y-6682222D01*
X-5175294Y-6682222D02*
X-5165771Y-6672698D01*
X-5165771Y-6672698D02*
X-5146723Y-6663174D01*
X-5146723Y-6663174D02*
X-5099104Y-6663174D01*
X-5099104Y-6663174D02*
X-5080056Y-6672698D01*
X-5080056Y-6672698D02*
X-5070532Y-6682222D01*
X-5070532Y-6682222D02*
X-5061009Y-6701269D01*
X-5061009Y-6701269D02*
X-5061009Y-6748888D01*
X-5061009Y-6748888D02*
X-5070532Y-6767936D01*
X-5070532Y-6767936D02*
X-5080056Y-6777460D01*
X-5080056Y-6777460D02*
X-5099104Y-6786984D01*
X-5099104Y-6786984D02*
X-5146723Y-6786984D01*
X-5146723Y-6786984D02*
X-5165771Y-6777460D01*
X-5165771Y-6777460D02*
X-5175294Y-6767936D01*
X-4965771Y-6786984D02*
X-4927675Y-6786984D01*
X-4927675Y-6786984D02*
X-4908628Y-6777460D01*
X-4908628Y-6777460D02*
X-4899104Y-6767936D01*
X-4899104Y-6767936D02*
X-4880056Y-6739365D01*
X-4880056Y-6739365D02*
X-4870532Y-6701269D01*
X-4870532Y-6701269D02*
X-4870532Y-6625079D01*
X-4870532Y-6625079D02*
X-4880056Y-6606031D01*
X-4880056Y-6606031D02*
X-4889580Y-6596508D01*
X-4889580Y-6596508D02*
X-4908628Y-6586984D01*
X-4908628Y-6586984D02*
X-4946723Y-6586984D01*
X-4946723Y-6586984D02*
X-4965771Y-6596508D01*
X-4965771Y-6596508D02*
X-4975294Y-6606031D01*
X-4975294Y-6606031D02*
X-4984818Y-6625079D01*
X-4984818Y-6625079D02*
X-4984818Y-6672698D01*
X-4984818Y-6672698D02*
X-4975294Y-6691746D01*
X-4975294Y-6691746D02*
X-4965771Y-6701269D01*
X-4965771Y-6701269D02*
X-4946723Y-6710793D01*
X-4946723Y-6710793D02*
X-4908628Y-6710793D01*
X-4908628Y-6710793D02*
X-4889580Y-6701269D01*
X-4889580Y-6701269D02*
X-4880056Y-6691746D01*
X-4880056Y-6691746D02*
X-4870532Y-6672698D01*
X-4680056Y-6786984D02*
X-4794342Y-6786984D01*
X-4737199Y-6786984D02*
X-4737199Y-6586984D01*
X-4737199Y-6586984D02*
X-4756247Y-6615555D01*
X-4756247Y-6615555D02*
X-4775294Y-6634603D01*
X-4775294Y-6634603D02*
X-4794342Y-6644127D01*
X-4603866Y-6586984D02*
X-4603866Y-6625079D01*
X-4527675Y-6586984D02*
X-4527675Y-6625079D01*
X-4232437Y-6863174D02*
X-4241961Y-6853650D01*
X-4241961Y-6853650D02*
X-4261009Y-6825079D01*
X-4261009Y-6825079D02*
X-4270532Y-6806031D01*
X-4270532Y-6806031D02*
X-4280056Y-6777460D01*
X-4280056Y-6777460D02*
X-4289580Y-6729841D01*
X-4289580Y-6729841D02*
X-4289580Y-6691746D01*
X-4289580Y-6691746D02*
X-4280056Y-6644127D01*
X-4280056Y-6644127D02*
X-4270532Y-6615555D01*
X-4270532Y-6615555D02*
X-4261009Y-6596508D01*
X-4261009Y-6596508D02*
X-4241961Y-6567936D01*
X-4241961Y-6567936D02*
X-4232437Y-6558412D01*
X-4070532Y-6653650D02*
X-4070532Y-6786984D01*
X-4118151Y-6577460D02*
X-4165770Y-6720317D01*
X-4165770Y-6720317D02*
X-4041961Y-6720317D01*
X-3813389Y-6786984D02*
X-3813389Y-6586984D01*
X-3727675Y-6786984D02*
X-3727675Y-6682222D01*
X-3727675Y-6682222D02*
X-3737199Y-6663174D01*
X-3737199Y-6663174D02*
X-3756246Y-6653650D01*
X-3756246Y-6653650D02*
X-3784818Y-6653650D01*
X-3784818Y-6653650D02*
X-3803866Y-6663174D01*
X-3803866Y-6663174D02*
X-3813389Y-6672698D01*
X-3603866Y-6786984D02*
X-3622913Y-6777460D01*
X-3622913Y-6777460D02*
X-3632437Y-6767936D01*
X-3632437Y-6767936D02*
X-3641961Y-6748888D01*
X-3641961Y-6748888D02*
X-3641961Y-6691746D01*
X-3641961Y-6691746D02*
X-3632437Y-6672698D01*
X-3632437Y-6672698D02*
X-3622913Y-6663174D01*
X-3622913Y-6663174D02*
X-3603866Y-6653650D01*
X-3603866Y-6653650D02*
X-3575294Y-6653650D01*
X-3575294Y-6653650D02*
X-3556246Y-6663174D01*
X-3556246Y-6663174D02*
X-3546723Y-6672698D01*
X-3546723Y-6672698D02*
X-3537199Y-6691746D01*
X-3537199Y-6691746D02*
X-3537199Y-6748888D01*
X-3537199Y-6748888D02*
X-3546723Y-6767936D01*
X-3546723Y-6767936D02*
X-3556246Y-6777460D01*
X-3556246Y-6777460D02*
X-3575294Y-6786984D01*
X-3575294Y-6786984D02*
X-3603866Y-6786984D01*
X-3422913Y-6786984D02*
X-3441961Y-6777460D01*
X-3441961Y-6777460D02*
X-3451485Y-6758412D01*
X-3451485Y-6758412D02*
X-3451485Y-6586984D01*
X-3270532Y-6777460D02*
X-3289580Y-6786984D01*
X-3289580Y-6786984D02*
X-3327675Y-6786984D01*
X-3327675Y-6786984D02*
X-3346723Y-6777460D01*
X-3346723Y-6777460D02*
X-3356246Y-6758412D01*
X-3356246Y-6758412D02*
X-3356246Y-6682222D01*
X-3356246Y-6682222D02*
X-3346723Y-6663174D01*
X-3346723Y-6663174D02*
X-3327675Y-6653650D01*
X-3327675Y-6653650D02*
X-3289580Y-6653650D01*
X-3289580Y-6653650D02*
X-3270532Y-6663174D01*
X-3270532Y-6663174D02*
X-3261008Y-6682222D01*
X-3261008Y-6682222D02*
X-3261008Y-6701269D01*
X-3261008Y-6701269D02*
X-3356246Y-6720317D01*
X-3184818Y-6777460D02*
X-3165770Y-6786984D01*
X-3165770Y-6786984D02*
X-3127675Y-6786984D01*
X-3127675Y-6786984D02*
X-3108627Y-6777460D01*
X-3108627Y-6777460D02*
X-3099104Y-6758412D01*
X-3099104Y-6758412D02*
X-3099104Y-6748888D01*
X-3099104Y-6748888D02*
X-3108627Y-6729841D01*
X-3108627Y-6729841D02*
X-3127675Y-6720317D01*
X-3127675Y-6720317D02*
X-3156246Y-6720317D01*
X-3156246Y-6720317D02*
X-3175294Y-6710793D01*
X-3175294Y-6710793D02*
X-3184818Y-6691746D01*
X-3184818Y-6691746D02*
X-3184818Y-6682222D01*
X-3184818Y-6682222D02*
X-3175294Y-6663174D01*
X-3175294Y-6663174D02*
X-3156246Y-6653650D01*
X-3156246Y-6653650D02*
X-3127675Y-6653650D01*
X-3127675Y-6653650D02*
X-3108627Y-6663174D01*
X-3032437Y-6863174D02*
X-3022913Y-6853650D01*
X-3022913Y-6853650D02*
X-3003865Y-6825079D01*
X-3003865Y-6825079D02*
X-2994342Y-6806031D01*
X-2994342Y-6806031D02*
X-2984818Y-6777460D01*
X-2984818Y-6777460D02*
X-2975294Y-6729841D01*
X-2975294Y-6729841D02*
X-2975294Y-6691746D01*
X-2975294Y-6691746D02*
X-2984818Y-6644127D01*
X-2984818Y-6644127D02*
X-2994342Y-6615555D01*
X-2994342Y-6615555D02*
X-3003865Y-6596508D01*
X-3003865Y-6596508D02*
X-3022913Y-6567936D01*
X-3022913Y-6567936D02*
X-3032437Y-6558412D01*
X-8007500Y-6865500D02*
X-7807500Y-7065500D01*
X-7807500Y-6865500D02*
X-8007500Y-7065500D01*
X-7907500Y-7065500D02*
X-7807500Y-6965500D01*
X-7907500Y-6865500D01*
X-8007500Y-6965500D01*
X-7907500Y-7065500D01*
X-7556247Y-6876031D02*
X-7546723Y-6866508D01*
X-7546723Y-6866508D02*
X-7527675Y-6856984D01*
X-7527675Y-6856984D02*
X-7480056Y-6856984D01*
X-7480056Y-6856984D02*
X-7461009Y-6866508D01*
X-7461009Y-6866508D02*
X-7451485Y-6876031D01*
X-7451485Y-6876031D02*
X-7441961Y-6895079D01*
X-7441961Y-6895079D02*
X-7441961Y-6914127D01*
X-7441961Y-6914127D02*
X-7451485Y-6942698D01*
X-7451485Y-6942698D02*
X-7565771Y-7056984D01*
X-7565771Y-7056984D02*
X-7441961Y-7056984D01*
X-7356247Y-7037936D02*
X-7346723Y-7047460D01*
X-7346723Y-7047460D02*
X-7356247Y-7056984D01*
X-7356247Y-7056984D02*
X-7365771Y-7047460D01*
X-7365771Y-7047460D02*
X-7356247Y-7037936D01*
X-7356247Y-7037936D02*
X-7356247Y-7056984D01*
X-7280056Y-6856984D02*
X-7146723Y-6856984D01*
X-7146723Y-6856984D02*
X-7232437Y-7056984D01*
X-7032437Y-6856984D02*
X-7013390Y-6856984D01*
X-7013390Y-6856984D02*
X-6994342Y-6866508D01*
X-6994342Y-6866508D02*
X-6984818Y-6876031D01*
X-6984818Y-6876031D02*
X-6975294Y-6895079D01*
X-6975294Y-6895079D02*
X-6965771Y-6933174D01*
X-6965771Y-6933174D02*
X-6965771Y-6980793D01*
X-6965771Y-6980793D02*
X-6975294Y-7018888D01*
X-6975294Y-7018888D02*
X-6984818Y-7037936D01*
X-6984818Y-7037936D02*
X-6994342Y-7047460D01*
X-6994342Y-7047460D02*
X-7013390Y-7056984D01*
X-7013390Y-7056984D02*
X-7032437Y-7056984D01*
X-7032437Y-7056984D02*
X-7051485Y-7047460D01*
X-7051485Y-7047460D02*
X-7061009Y-7037936D01*
X-7061009Y-7037936D02*
X-7070533Y-7018888D01*
X-7070533Y-7018888D02*
X-7080056Y-6980793D01*
X-7080056Y-6980793D02*
X-7080056Y-6933174D01*
X-7080056Y-6933174D02*
X-7070533Y-6895079D01*
X-7070533Y-6895079D02*
X-7061009Y-6876031D01*
X-7061009Y-6876031D02*
X-7051485Y-6866508D01*
X-7051485Y-6866508D02*
X-7032437Y-6856984D01*
X-6841961Y-6856984D02*
X-6822913Y-6856984D01*
X-6822913Y-6856984D02*
X-6803866Y-6866508D01*
X-6803866Y-6866508D02*
X-6794342Y-6876031D01*
X-6794342Y-6876031D02*
X-6784818Y-6895079D01*
X-6784818Y-6895079D02*
X-6775294Y-6933174D01*
X-6775294Y-6933174D02*
X-6775294Y-6980793D01*
X-6775294Y-6980793D02*
X-6784818Y-7018888D01*
X-6784818Y-7018888D02*
X-6794342Y-7037936D01*
X-6794342Y-7037936D02*
X-6803866Y-7047460D01*
X-6803866Y-7047460D02*
X-6822913Y-7056984D01*
X-6822913Y-7056984D02*
X-6841961Y-7056984D01*
X-6841961Y-7056984D02*
X-6861009Y-7047460D01*
X-6861009Y-7047460D02*
X-6870533Y-7037936D01*
X-6870533Y-7037936D02*
X-6880056Y-7018888D01*
X-6880056Y-7018888D02*
X-6889580Y-6980793D01*
X-6889580Y-6980793D02*
X-6889580Y-6933174D01*
X-6889580Y-6933174D02*
X-6880056Y-6895079D01*
X-6880056Y-6895079D02*
X-6870533Y-6876031D01*
X-6870533Y-6876031D02*
X-6861009Y-6866508D01*
X-6861009Y-6866508D02*
X-6841961Y-6856984D01*
X-6689580Y-7056984D02*
X-6689580Y-6923650D01*
X-6689580Y-6942698D02*
X-6680056Y-6933174D01*
X-6680056Y-6933174D02*
X-6661009Y-6923650D01*
X-6661009Y-6923650D02*
X-6632437Y-6923650D01*
X-6632437Y-6923650D02*
X-6613390Y-6933174D01*
X-6613390Y-6933174D02*
X-6603866Y-6952222D01*
X-6603866Y-6952222D02*
X-6603866Y-7056984D01*
X-6603866Y-6952222D02*
X-6594342Y-6933174D01*
X-6594342Y-6933174D02*
X-6575294Y-6923650D01*
X-6575294Y-6923650D02*
X-6546723Y-6923650D01*
X-6546723Y-6923650D02*
X-6527675Y-6933174D01*
X-6527675Y-6933174D02*
X-6518152Y-6952222D01*
X-6518152Y-6952222D02*
X-6518152Y-7056984D01*
X-6422913Y-7056984D02*
X-6422913Y-6923650D01*
X-6422913Y-6942698D02*
X-6413390Y-6933174D01*
X-6413390Y-6933174D02*
X-6394342Y-6923650D01*
X-6394342Y-6923650D02*
X-6365771Y-6923650D01*
X-6365771Y-6923650D02*
X-6346723Y-6933174D01*
X-6346723Y-6933174D02*
X-6337199Y-6952222D01*
X-6337199Y-6952222D02*
X-6337199Y-7056984D01*
X-6337199Y-6952222D02*
X-6327675Y-6933174D01*
X-6327675Y-6933174D02*
X-6308628Y-6923650D01*
X-6308628Y-6923650D02*
X-6280056Y-6923650D01*
X-6280056Y-6923650D02*
X-6261009Y-6933174D01*
X-6261009Y-6933174D02*
X-6251485Y-6952222D01*
X-6251485Y-6952222D02*
X-6251485Y-7056984D01*
X-5861009Y-6847460D02*
X-6032437Y-7104603D01*
X-5603866Y-6856984D02*
X-5584818Y-6856984D01*
X-5584818Y-6856984D02*
X-5565771Y-6866508D01*
X-5565771Y-6866508D02*
X-5556247Y-6876031D01*
X-5556247Y-6876031D02*
X-5546723Y-6895079D01*
X-5546723Y-6895079D02*
X-5537199Y-6933174D01*
X-5537199Y-6933174D02*
X-5537199Y-6980793D01*
X-5537199Y-6980793D02*
X-5546723Y-7018888D01*
X-5546723Y-7018888D02*
X-5556247Y-7037936D01*
X-5556247Y-7037936D02*
X-5565771Y-7047460D01*
X-5565771Y-7047460D02*
X-5584818Y-7056984D01*
X-5584818Y-7056984D02*
X-5603866Y-7056984D01*
X-5603866Y-7056984D02*
X-5622913Y-7047460D01*
X-5622913Y-7047460D02*
X-5632437Y-7037936D01*
X-5632437Y-7037936D02*
X-5641961Y-7018888D01*
X-5641961Y-7018888D02*
X-5651485Y-6980793D01*
X-5651485Y-6980793D02*
X-5651485Y-6933174D01*
X-5651485Y-6933174D02*
X-5641961Y-6895079D01*
X-5641961Y-6895079D02*
X-5632437Y-6876031D01*
X-5632437Y-6876031D02*
X-5622913Y-6866508D01*
X-5622913Y-6866508D02*
X-5603866Y-6856984D01*
X-5451485Y-7037936D02*
X-5441961Y-7047460D01*
X-5441961Y-7047460D02*
X-5451485Y-7056984D01*
X-5451485Y-7056984D02*
X-5461009Y-7047460D01*
X-5461009Y-7047460D02*
X-5451485Y-7037936D01*
X-5451485Y-7037936D02*
X-5451485Y-7056984D01*
X-5251485Y-7056984D02*
X-5365771Y-7056984D01*
X-5308628Y-7056984D02*
X-5308628Y-6856984D01*
X-5308628Y-6856984D02*
X-5327675Y-6885555D01*
X-5327675Y-6885555D02*
X-5346723Y-6904603D01*
X-5346723Y-6904603D02*
X-5365771Y-6914127D01*
X-5127675Y-6856984D02*
X-5108628Y-6856984D01*
X-5108628Y-6856984D02*
X-5089580Y-6866508D01*
X-5089580Y-6866508D02*
X-5080056Y-6876031D01*
X-5080056Y-6876031D02*
X-5070532Y-6895079D01*
X-5070532Y-6895079D02*
X-5061009Y-6933174D01*
X-5061009Y-6933174D02*
X-5061009Y-6980793D01*
X-5061009Y-6980793D02*
X-5070532Y-7018888D01*
X-5070532Y-7018888D02*
X-5080056Y-7037936D01*
X-5080056Y-7037936D02*
X-5089580Y-7047460D01*
X-5089580Y-7047460D02*
X-5108628Y-7056984D01*
X-5108628Y-7056984D02*
X-5127675Y-7056984D01*
X-5127675Y-7056984D02*
X-5146723Y-7047460D01*
X-5146723Y-7047460D02*
X-5156247Y-7037936D01*
X-5156247Y-7037936D02*
X-5165771Y-7018888D01*
X-5165771Y-7018888D02*
X-5175294Y-6980793D01*
X-5175294Y-6980793D02*
X-5175294Y-6933174D01*
X-5175294Y-6933174D02*
X-5165771Y-6895079D01*
X-5165771Y-6895079D02*
X-5156247Y-6876031D01*
X-5156247Y-6876031D02*
X-5146723Y-6866508D01*
X-5146723Y-6866508D02*
X-5127675Y-6856984D01*
X-4889580Y-6856984D02*
X-4927675Y-6856984D01*
X-4927675Y-6856984D02*
X-4946723Y-6866508D01*
X-4946723Y-6866508D02*
X-4956247Y-6876031D01*
X-4956247Y-6876031D02*
X-4975294Y-6904603D01*
X-4975294Y-6904603D02*
X-4984818Y-6942698D01*
X-4984818Y-6942698D02*
X-4984818Y-7018888D01*
X-4984818Y-7018888D02*
X-4975294Y-7037936D01*
X-4975294Y-7037936D02*
X-4965771Y-7047460D01*
X-4965771Y-7047460D02*
X-4946723Y-7056984D01*
X-4946723Y-7056984D02*
X-4908628Y-7056984D01*
X-4908628Y-7056984D02*
X-4889580Y-7047460D01*
X-4889580Y-7047460D02*
X-4880056Y-7037936D01*
X-4880056Y-7037936D02*
X-4870532Y-7018888D01*
X-4870532Y-7018888D02*
X-4870532Y-6971269D01*
X-4870532Y-6971269D02*
X-4880056Y-6952222D01*
X-4880056Y-6952222D02*
X-4889580Y-6942698D01*
X-4889580Y-6942698D02*
X-4908628Y-6933174D01*
X-4908628Y-6933174D02*
X-4946723Y-6933174D01*
X-4946723Y-6933174D02*
X-4965771Y-6942698D01*
X-4965771Y-6942698D02*
X-4975294Y-6952222D01*
X-4975294Y-6952222D02*
X-4984818Y-6971269D01*
X-4803866Y-6856984D02*
X-4680056Y-6856984D01*
X-4680056Y-6856984D02*
X-4746723Y-6933174D01*
X-4746723Y-6933174D02*
X-4718151Y-6933174D01*
X-4718151Y-6933174D02*
X-4699104Y-6942698D01*
X-4699104Y-6942698D02*
X-4689580Y-6952222D01*
X-4689580Y-6952222D02*
X-4680056Y-6971269D01*
X-4680056Y-6971269D02*
X-4680056Y-7018888D01*
X-4680056Y-7018888D02*
X-4689580Y-7037936D01*
X-4689580Y-7037936D02*
X-4699104Y-7047460D01*
X-4699104Y-7047460D02*
X-4718151Y-7056984D01*
X-4718151Y-7056984D02*
X-4775294Y-7056984D01*
X-4775294Y-7056984D02*
X-4794342Y-7047460D01*
X-4794342Y-7047460D02*
X-4803866Y-7037936D01*
X-4603866Y-6856984D02*
X-4603866Y-6895079D01*
X-4527675Y-6856984D02*
X-4527675Y-6895079D01*
X-4232437Y-7133174D02*
X-4241961Y-7123650D01*
X-4241961Y-7123650D02*
X-4261009Y-7095079D01*
X-4261009Y-7095079D02*
X-4270532Y-7076031D01*
X-4270532Y-7076031D02*
X-4280056Y-7047460D01*
X-4280056Y-7047460D02*
X-4289580Y-6999841D01*
X-4289580Y-6999841D02*
X-4289580Y-6961746D01*
X-4289580Y-6961746D02*
X-4280056Y-6914127D01*
X-4280056Y-6914127D02*
X-4270532Y-6885555D01*
X-4270532Y-6885555D02*
X-4261009Y-6866508D01*
X-4261009Y-6866508D02*
X-4241961Y-6837936D01*
X-4241961Y-6837936D02*
X-4232437Y-6828412D01*
X-4070532Y-6923650D02*
X-4070532Y-7056984D01*
X-4118151Y-6847460D02*
X-4165770Y-6990317D01*
X-4165770Y-6990317D02*
X-4041961Y-6990317D01*
X-3813389Y-7056984D02*
X-3813389Y-6856984D01*
X-3727675Y-7056984D02*
X-3727675Y-6952222D01*
X-3727675Y-6952222D02*
X-3737199Y-6933174D01*
X-3737199Y-6933174D02*
X-3756246Y-6923650D01*
X-3756246Y-6923650D02*
X-3784818Y-6923650D01*
X-3784818Y-6923650D02*
X-3803866Y-6933174D01*
X-3803866Y-6933174D02*
X-3813389Y-6942698D01*
X-3603866Y-7056984D02*
X-3622913Y-7047460D01*
X-3622913Y-7047460D02*
X-3632437Y-7037936D01*
X-3632437Y-7037936D02*
X-3641961Y-7018888D01*
X-3641961Y-7018888D02*
X-3641961Y-6961746D01*
X-3641961Y-6961746D02*
X-3632437Y-6942698D01*
X-3632437Y-6942698D02*
X-3622913Y-6933174D01*
X-3622913Y-6933174D02*
X-3603866Y-6923650D01*
X-3603866Y-6923650D02*
X-3575294Y-6923650D01*
X-3575294Y-6923650D02*
X-3556246Y-6933174D01*
X-3556246Y-6933174D02*
X-3546723Y-6942698D01*
X-3546723Y-6942698D02*
X-3537199Y-6961746D01*
X-3537199Y-6961746D02*
X-3537199Y-7018888D01*
X-3537199Y-7018888D02*
X-3546723Y-7037936D01*
X-3546723Y-7037936D02*
X-3556246Y-7047460D01*
X-3556246Y-7047460D02*
X-3575294Y-7056984D01*
X-3575294Y-7056984D02*
X-3603866Y-7056984D01*
X-3422913Y-7056984D02*
X-3441961Y-7047460D01*
X-3441961Y-7047460D02*
X-3451485Y-7028412D01*
X-3451485Y-7028412D02*
X-3451485Y-6856984D01*
X-3270532Y-7047460D02*
X-3289580Y-7056984D01*
X-3289580Y-7056984D02*
X-3327675Y-7056984D01*
X-3327675Y-7056984D02*
X-3346723Y-7047460D01*
X-3346723Y-7047460D02*
X-3356246Y-7028412D01*
X-3356246Y-7028412D02*
X-3356246Y-6952222D01*
X-3356246Y-6952222D02*
X-3346723Y-6933174D01*
X-3346723Y-6933174D02*
X-3327675Y-6923650D01*
X-3327675Y-6923650D02*
X-3289580Y-6923650D01*
X-3289580Y-6923650D02*
X-3270532Y-6933174D01*
X-3270532Y-6933174D02*
X-3261008Y-6952222D01*
X-3261008Y-6952222D02*
X-3261008Y-6971269D01*
X-3261008Y-6971269D02*
X-3356246Y-6990317D01*
X-3184818Y-7047460D02*
X-3165770Y-7056984D01*
X-3165770Y-7056984D02*
X-3127675Y-7056984D01*
X-3127675Y-7056984D02*
X-3108627Y-7047460D01*
X-3108627Y-7047460D02*
X-3099104Y-7028412D01*
X-3099104Y-7028412D02*
X-3099104Y-7018888D01*
X-3099104Y-7018888D02*
X-3108627Y-6999841D01*
X-3108627Y-6999841D02*
X-3127675Y-6990317D01*
X-3127675Y-6990317D02*
X-3156246Y-6990317D01*
X-3156246Y-6990317D02*
X-3175294Y-6980793D01*
X-3175294Y-6980793D02*
X-3184818Y-6961746D01*
X-3184818Y-6961746D02*
X-3184818Y-6952222D01*
X-3184818Y-6952222D02*
X-3175294Y-6933174D01*
X-3175294Y-6933174D02*
X-3156246Y-6923650D01*
X-3156246Y-6923650D02*
X-3127675Y-6923650D01*
X-3127675Y-6923650D02*
X-3108627Y-6933174D01*
X-3032437Y-7133174D02*
X-3022913Y-7123650D01*
X-3022913Y-7123650D02*
X-3003865Y-7095079D01*
X-3003865Y-7095079D02*
X-2994342Y-7076031D01*
X-2994342Y-7076031D02*
X-2984818Y-7047460D01*
X-2984818Y-7047460D02*
X-2975294Y-6999841D01*
X-2975294Y-6999841D02*
X-2975294Y-6961746D01*
X-2975294Y-6961746D02*
X-2984818Y-6914127D01*
X-2984818Y-6914127D02*
X-2994342Y-6885555D01*
X-2994342Y-6885555D02*
X-3003865Y-6866508D01*
X-3003865Y-6866508D02*
X-3022913Y-6837936D01*
X-3022913Y-6837936D02*
X-3032437Y-6828412D01*
M02*
