%TF.GenerationSoftware,KiCad,Pcbnew,9.0.1*%
%TF.CreationDate,2025-07-07T12:26:16-04:00*%
%TF.ProjectId,cablight-project,6361626c-6967-4687-942d-70726f6a6563,rev?*%
%TF.SameCoordinates,Original*%
%TF.FileFunction,Paste,Bot*%
%TF.FilePolarity,Positive*%
%FSLAX46Y46*%
G04 Gerber Fmt 4.6, Leading zero omitted, Abs format (unit mm)*
G04 Created by KiCad (PCBNEW 9.0.1) date 2025-07-07 12:26:16*
%MOMM*%
%LPD*%
G01*
G04 APERTURE LIST*
%TA.AperFunction,Profile*%
%ADD10C,0.150000*%
%TD*%
G04 APERTURE END LIST*
D10*
X-63000000Y-17000000D02*
X-63000000Y-33117218D01*
X-71000000Y-35882782D02*
G75*
G02*
X-70124033Y-34890522I1000000J-18D01*
G01*
X-63000000Y-33117218D02*
G75*
G02*
X-63875967Y-34109478I-1000000J18D01*
G01*
X-18700000Y-42000000D02*
X0Y-42000000D01*
X-78000000Y-11414214D02*
G75*
G02*
X-77707114Y-10707100I1000000J14D01*
G01*
X-29300000Y-39800000D02*
X-29300000Y-40000000D01*
X0Y0D02*
X0Y-42000000D01*
X-29300000Y-39800000D02*
G75*
G02*
X-20700000Y-39800000I4300000J0D01*
G01*
X-77000000Y-16000000D02*
X-64000000Y-16000000D01*
X-18700000Y-42000000D02*
G75*
G02*
X-20700000Y-40000000I0J2000000D01*
G01*
X-67292893Y-292893D02*
X-77707107Y-10707107D01*
X-25238000Y-4930000D02*
G75*
G02*
X-33238000Y-4930000I-4000000J0D01*
G01*
X-33238000Y-4930000D02*
G75*
G02*
X-25238000Y-4930000I4000000J0D01*
G01*
X-78000000Y-11414214D02*
X-78000000Y-15000000D01*
X0Y0D02*
X-66585786Y0D01*
X-64000000Y-16000000D02*
G75*
G02*
X-63000000Y-17000000I0J-1000000D01*
G01*
X-77000000Y-16000000D02*
G75*
G02*
X-78000000Y-15000000I0J1000000D01*
G01*
X-71000000Y-35882782D02*
X-71000000Y-41000000D01*
X-29300000Y-40000000D02*
G75*
G02*
X-31300000Y-42000000I-2000000J0D01*
G01*
X-67292893Y-292893D02*
G75*
G02*
X-66585786Y-39I707093J-707207D01*
G01*
X-70000000Y-42000000D02*
G75*
G02*
X-71000000Y-41000000I0J1000000D01*
G01*
X-31300000Y-42000000D02*
X-70000000Y-42000000D01*
X-63875965Y-34109496D02*
X-70124035Y-34890504D01*
X-20700000Y-40000000D02*
X-20700000Y-39800000D01*
M02*
