%TF.GenerationSoftware,KiCad,Pcbnew,9.0.6*%
%TF.CreationDate,2026-01-19T14:33:31-05:00*%
%TF.ProjectId,cablight-project,6361626c-6967-4687-942d-70726f6a6563,rev?*%
%TF.SameCoordinates,Original*%
%TF.FileFunction,Soldermask,Top*%
%TF.FilePolarity,Negative*%
%FSLAX46Y46*%
G04 Gerber Fmt 4.6, Leading zero omitted, Abs format (unit mm)*
G04 Created by KiCad (PCBNEW 9.0.6) date 2026-01-19 14:33:31*
%MOMM*%
%LPD*%
G01*
G04 APERTURE LIST*
G04 Aperture macros list*
%AMRoundRect*
0 Rectangle with rounded corners*
0 $1 Rounding radius*
0 $2 $3 $4 $5 $6 $7 $8 $9 X,Y pos of 4 corners*
0 Add a 4 corners polygon primitive as box body*
4,1,4,$2,$3,$4,$5,$6,$7,$8,$9,$2,$3,0*
0 Add four circle primitives for the rounded corners*
1,1,$1+$1,$2,$3*
1,1,$1+$1,$4,$5*
1,1,$1+$1,$6,$7*
1,1,$1+$1,$8,$9*
0 Add four rect primitives between the rounded corners*
20,1,$1+$1,$2,$3,$4,$5,0*
20,1,$1+$1,$4,$5,$6,$7,0*
20,1,$1+$1,$6,$7,$8,$9,0*
20,1,$1+$1,$8,$9,$2,$3,0*%
%AMHorizOval*
0 Thick line with rounded ends*
0 $1 width*
0 $2 $3 position (X,Y) of the first rounded end (center of the circle)*
0 $4 $5 position (X,Y) of the second rounded end (center of the circle)*
0 Add line between two ends*
20,1,$1,$2,$3,$4,$5,0*
0 Add two circle primitives to create the rounded ends*
1,1,$1,$2,$3*
1,1,$1,$4,$5*%
G04 Aperture macros list end*
%ADD10R,2.200000X2.200000*%
%ADD11O,2.200000X2.200000*%
%ADD12C,1.000000*%
%ADD13RoundRect,0.250000X0.337500X0.475000X-0.337500X0.475000X-0.337500X-0.475000X0.337500X-0.475000X0*%
%ADD14RoundRect,0.237500X0.035355X0.371231X-0.371231X-0.035355X-0.035355X-0.371231X0.371231X0.035355X0*%
%ADD15R,1.400000X1.400000*%
%ADD16C,1.400000*%
%ADD17RoundRect,0.250000X-0.475000X0.337500X-0.475000X-0.337500X0.475000X-0.337500X0.475000X0.337500X0*%
%ADD18RoundRect,0.250000X0.475000X-0.337500X0.475000X0.337500X-0.475000X0.337500X-0.475000X-0.337500X0*%
%ADD19O,1.500000X2.000000*%
%ADD20O,2.000000X1.500000*%
%ADD21RoundRect,0.150000X0.450000X0.350000X-0.450000X0.350000X-0.450000X-0.350000X0.450000X-0.350000X0*%
%ADD22C,3.100000*%
%ADD23C,4.500000*%
%ADD24C,0.700000*%
%ADD25RoundRect,0.050000X-0.750000X0.150000X-0.750000X-0.150000X0.750000X-0.150000X0.750000X0.150000X0*%
%ADD26O,1.304000X1.804000*%
%ADD27C,1.600000*%
%ADD28R,1.600000X4.500000*%
%ADD29R,0.600000X0.250000*%
%ADD30R,1.700000X3.300000*%
%ADD31C,2.200000*%
%ADD32HorizOval,2.200000X0.000000X0.000000X0.000000X0.000000X0*%
%ADD33R,2.000000X1.900000*%
%ADD34O,2.500000X1.900000*%
%ADD35R,0.900000X1.500000*%
%ADD36R,1.500000X0.900000*%
%ADD37R,0.900000X0.900000*%
%ADD38RoundRect,0.150000X-0.512500X-0.150000X0.512500X-0.150000X0.512500X0.150000X-0.512500X0.150000X0*%
%ADD39RoundRect,0.250001X-0.624999X0.462499X-0.624999X-0.462499X0.624999X-0.462499X0.624999X0.462499X0*%
%ADD40RoundRect,0.237500X-0.287500X-0.237500X0.287500X-0.237500X0.287500X0.237500X-0.287500X0.237500X0*%
%ADD41RoundRect,0.200000X-0.550000X0.200000X-0.550000X-0.200000X0.550000X-0.200000X0.550000X0.200000X0*%
%ADD42RoundRect,0.250000X0.350000X0.450000X-0.350000X0.450000X-0.350000X-0.450000X0.350000X-0.450000X0*%
%ADD43R,3.000000X3.000000*%
%ADD44C,3.000000*%
%ADD45RoundRect,0.250000X0.450000X-0.350000X0.450000X0.350000X-0.450000X0.350000X-0.450000X-0.350000X0*%
%TA.AperFunction,Profile*%
%ADD46C,0.150000*%
%TD*%
G04 APERTURE END LIST*
D10*
%TO.C,D2*%
X89825000Y-74740000D03*
D11*
X89825000Y-72200000D03*
%TD*%
D12*
%TO.C,TP1*%
X132050000Y-83650000D03*
%TD*%
D13*
%TO.C,CP6*%
X99025000Y-67400000D03*
X96950000Y-67400000D03*
%TD*%
D14*
%TO.C,LED2*%
X128887438Y-79612562D03*
X127650000Y-80850000D03*
%TD*%
D15*
%TO.C,J2*%
X137000000Y-68050000D03*
D16*
X136980000Y-70050000D03*
X137000000Y-72050000D03*
X137000000Y-74050000D03*
%TD*%
D17*
%TO.C,C5*%
X103600000Y-73300000D03*
X103600000Y-75375000D03*
%TD*%
D18*
%TO.C,C9*%
X84300000Y-54787500D03*
X84300000Y-52712500D03*
%TD*%
%TO.C,C14*%
X137000000Y-63737500D03*
X137000000Y-61662500D03*
%TD*%
D13*
%TO.C,CP4*%
X99025000Y-71800000D03*
X96950000Y-71800000D03*
%TD*%
D19*
%TO.C,BTN1*%
X72850000Y-60500000D03*
X72850000Y-65000000D03*
D20*
X75350000Y-59250000D03*
X75350000Y-66250000D03*
%TD*%
D13*
%TO.C,CP5*%
X99025000Y-69600000D03*
X96950000Y-69600000D03*
%TD*%
D12*
%TO.C,TP3*%
X128300000Y-87350000D03*
%TD*%
D18*
%TO.C,CP2*%
X95265000Y-63775000D03*
X95265000Y-61700000D03*
%TD*%
D21*
%TO.C,B2*%
X119900000Y-76550000D03*
X115400000Y-76550000D03*
X119900000Y-74350000D03*
X115400000Y-74350000D03*
%TD*%
D22*
%TO.C,M2.5*%
X75000000Y-87000000D03*
D23*
X75000000Y-87000000D03*
%TD*%
D22*
%TO.C,M2.5*%
X128750000Y-54550000D03*
D23*
X128750000Y-54550000D03*
%TD*%
D24*
%TO.C,USBC1*%
X128685000Y-63300000D03*
X128685000Y-71300000D03*
D25*
X130345000Y-64550000D03*
X130345000Y-66050000D03*
X130345000Y-66550000D03*
X130345000Y-67050000D03*
X130345000Y-67550000D03*
X130345000Y-68050000D03*
X130345000Y-68550000D03*
X130345000Y-70050000D03*
X127025000Y-70050000D03*
X127025000Y-68550000D03*
X127025000Y-68050000D03*
X127025000Y-67550000D03*
X127025000Y-67050000D03*
X127025000Y-66550000D03*
X127025000Y-66050000D03*
X127025000Y-64550000D03*
D26*
X130115000Y-63300000D03*
X127255000Y-63300000D03*
X130115000Y-71300000D03*
X127255000Y-71300000D03*
%TD*%
D27*
%TO.C,DIP1*%
X116715000Y-88720000D03*
X119255000Y-88720000D03*
X121795000Y-88720000D03*
X124335000Y-88720000D03*
X124335000Y-81200000D03*
X121795000Y-81200000D03*
X119255000Y-81200000D03*
X116715000Y-81200000D03*
%TD*%
D28*
%TO.C,L1*%
X86425000Y-62725000D03*
X90325000Y-62725000D03*
%TD*%
D29*
%TO.C,T1*%
X87849000Y-55375000D03*
X87849000Y-55875000D03*
X87849000Y-56375000D03*
X87849000Y-56875000D03*
X87849000Y-57375000D03*
X87849000Y-57875000D03*
X90649000Y-57875000D03*
X90649000Y-57375000D03*
X90649000Y-56875000D03*
X90649000Y-56375000D03*
X90649000Y-55875000D03*
X90649000Y-55375000D03*
D30*
X89249000Y-56625000D03*
%TD*%
D18*
%TO.C,CP1*%
X92965000Y-63775000D03*
X92965000Y-61700000D03*
%TD*%
D31*
%TO.C,D3*%
X95250000Y-78300000D03*
D32*
X94277984Y-75953346D03*
%TD*%
D18*
%TO.C,C10*%
X83700000Y-63175000D03*
X83700000Y-61100000D03*
%TD*%
D22*
%TO.C,M2.5*%
X79950000Y-54500000D03*
D23*
X79950000Y-54500000D03*
%TD*%
D33*
%TO.C,Q1*%
X94625000Y-82460000D03*
D34*
X94625000Y-85000000D03*
X94625000Y-87540000D03*
%TD*%
D17*
%TO.C,C11*%
X94625000Y-56875000D03*
X94625000Y-58950000D03*
%TD*%
D35*
%TO.C,U3*%
X104505000Y-69900000D03*
X105775000Y-69900000D03*
X107045000Y-69900000D03*
X108315000Y-69900000D03*
X109585000Y-69900000D03*
X110855000Y-69900000D03*
X112125000Y-69900000D03*
X113395000Y-69900000D03*
X114665000Y-69900000D03*
X115935000Y-69900000D03*
X117205000Y-69900000D03*
X118475000Y-69900000D03*
X119745000Y-69900000D03*
X121015000Y-69900000D03*
D36*
X122265000Y-68135000D03*
X122265000Y-66865000D03*
X122265000Y-65595000D03*
X122265000Y-64325000D03*
X122265000Y-63055000D03*
X122265000Y-61785000D03*
X122265000Y-60515000D03*
X122265000Y-59245000D03*
X122265000Y-57975000D03*
X122265000Y-56705000D03*
X122265000Y-55435000D03*
X122265000Y-54165000D03*
D35*
X121015000Y-52400000D03*
X119745000Y-52400000D03*
X118475000Y-52400000D03*
X117205000Y-52400000D03*
X115935000Y-52400000D03*
X114665000Y-52400000D03*
X113395000Y-52400000D03*
X112125000Y-52400000D03*
X110855000Y-52400000D03*
X109585000Y-52400000D03*
X108315000Y-52400000D03*
X107045000Y-52400000D03*
X105775000Y-52400000D03*
X104505000Y-52400000D03*
D37*
X110825000Y-64050000D03*
X112225000Y-64050000D03*
X113625000Y-64050000D03*
X113625000Y-64050000D03*
X110825000Y-62650000D03*
X110825000Y-62650000D03*
X112225000Y-62650000D03*
X113625000Y-62650000D03*
X110825000Y-61250000D03*
X112225000Y-61250000D03*
X113625000Y-61250000D03*
%TD*%
D38*
%TO.C,U5*%
X99025000Y-74200000D03*
X99025000Y-75150000D03*
X99025000Y-76100000D03*
X101300000Y-74200000D03*
X101300000Y-76100000D03*
%TD*%
D22*
%TO.C,M2.5*%
X136550000Y-80000000D03*
D23*
X136550000Y-80000000D03*
%TD*%
D39*
%TO.C,F1*%
X89775000Y-78812500D03*
X89775000Y-81787500D03*
%TD*%
D10*
%TO.C,D1*%
X80050000Y-66000000D03*
D11*
X82590000Y-66000000D03*
%TD*%
D27*
%TO.C,SW1*%
X80050000Y-62100000D03*
X80050000Y-59560000D03*
%TD*%
D40*
%TO.C,LED1*%
X88950000Y-69200000D03*
X90700000Y-69200000D03*
%TD*%
D18*
%TO.C,CP3*%
X97565000Y-63775000D03*
X97565000Y-61700000D03*
%TD*%
D41*
%TO.C,U1*%
X126775000Y-74900000D03*
X126775000Y-76800000D03*
X128875000Y-75850000D03*
%TD*%
D13*
%TO.C,C8*%
X131300000Y-58950000D03*
X129225000Y-58950000D03*
%TD*%
D42*
%TO.C,R10*%
X89625000Y-52875000D03*
X87625000Y-52875000D03*
%TD*%
D17*
%TO.C,C3*%
X105800000Y-73300000D03*
X105800000Y-75375000D03*
%TD*%
D43*
%TO.C,J1*%
X84325000Y-71200000D03*
D44*
X84325000Y-76200000D03*
X84325000Y-81200000D03*
X84325000Y-86200000D03*
%TD*%
D21*
%TO.C,B1*%
X113325000Y-76500000D03*
X108825000Y-76500000D03*
X113325000Y-74300000D03*
X108825000Y-74300000D03*
%TD*%
D17*
%TO.C,C12*%
X94625000Y-52700000D03*
X94625000Y-54775000D03*
%TD*%
D45*
%TO.C,R8*%
X97225000Y-54775000D03*
X97225000Y-52775000D03*
%TD*%
D18*
%TO.C,CP7*%
X99865000Y-63775000D03*
X99865000Y-61700000D03*
%TD*%
D45*
%TO.C,R11*%
X84300000Y-58850000D03*
X84300000Y-56850000D03*
%TD*%
D12*
%TO.C,TP2*%
X130250000Y-85400000D03*
%TD*%
D45*
%TO.C,R9*%
X97225000Y-58875000D03*
X97225000Y-56875000D03*
%TD*%
D46*
X76500000Y-51000000D02*
X76500000Y-53500000D01*
X133000000Y-51000000D02*
X76500000Y-51000000D01*
X140000000Y-84500000D02*
X140000000Y-59000000D01*
X78000000Y-83000000D02*
X71500000Y-83000000D01*
X132000000Y-91000000D02*
X132000000Y-88500000D01*
X132000000Y-88500000D02*
G75*
G02*
X136000000Y-84500000I4000000J0D01*
G01*
X78000000Y-71000000D02*
X78000000Y-83000000D01*
X75500000Y-68500000D02*
X78000000Y-71000000D01*
X71500000Y-83000000D02*
X71500000Y-91000000D01*
X76500000Y-53500000D02*
G75*
G02*
X72500000Y-57500000I-4000000J0D01*
G01*
X137000000Y-59000000D02*
G75*
G02*
X133000000Y-55000000I0J4000000D01*
G01*
X72500000Y-57500000D02*
X70000000Y-57500000D01*
X71500000Y-91000000D02*
X132000000Y-91000000D01*
X136000000Y-84500000D02*
X140000000Y-84500000D01*
X140000000Y-59000000D02*
X137000000Y-59000000D01*
X133000000Y-55000000D02*
X133000000Y-51000000D01*
X70000000Y-57500000D02*
X70000000Y-68500000D01*
X70000000Y-68500000D02*
X75500000Y-68500000D01*
M02*
