%TF.GenerationSoftware,KiCad,Pcbnew,9.0.6*%
%TF.CreationDate,2026-01-19T14:33:31-05:00*%
%TF.ProjectId,cablight-project,6361626c-6967-4687-942d-70726f6a6563,rev?*%
%TF.SameCoordinates,Original*%
%TF.FileFunction,Soldermask,Bot*%
%TF.FilePolarity,Negative*%
%FSLAX46Y46*%
G04 Gerber Fmt 4.6, Leading zero omitted, Abs format (unit mm)*
G04 Created by KiCad (PCBNEW 9.0.6) date 2026-01-19 14:33:31*
%MOMM*%
%LPD*%
G01*
G04 APERTURE LIST*
G04 Aperture macros list*
%AMRoundRect*
0 Rectangle with rounded corners*
0 $1 Rounding radius*
0 $2 $3 $4 $5 $6 $7 $8 $9 X,Y pos of 4 corners*
0 Add a 4 corners polygon primitive as box body*
4,1,4,$2,$3,$4,$5,$6,$7,$8,$9,$2,$3,0*
0 Add four circle primitives for the rounded corners*
1,1,$1+$1,$2,$3*
1,1,$1+$1,$4,$5*
1,1,$1+$1,$6,$7*
1,1,$1+$1,$8,$9*
0 Add four rect primitives between the rounded corners*
20,1,$1+$1,$2,$3,$4,$5,0*
20,1,$1+$1,$4,$5,$6,$7,0*
20,1,$1+$1,$6,$7,$8,$9,0*
20,1,$1+$1,$8,$9,$2,$3,0*%
%AMHorizOval*
0 Thick line with rounded ends*
0 $1 width*
0 $2 $3 position (X,Y) of the first rounded end (center of the circle)*
0 $4 $5 position (X,Y) of the second rounded end (center of the circle)*
0 Add line between two ends*
20,1,$1,$2,$3,$4,$5,0*
0 Add two circle primitives to create the rounded ends*
1,1,$1,$2,$3*
1,1,$1,$4,$5*%
G04 Aperture macros list end*
%ADD10RoundRect,0.250000X0.350000X0.450000X-0.350000X0.450000X-0.350000X-0.450000X0.350000X-0.450000X0*%
%ADD11R,2.200000X2.200000*%
%ADD12O,2.200000X2.200000*%
%ADD13C,1.000000*%
%ADD14R,1.400000X1.400000*%
%ADD15C,1.400000*%
%ADD16O,1.500000X2.000000*%
%ADD17O,2.000000X1.500000*%
%ADD18C,3.100000*%
%ADD19C,0.700000*%
%ADD20O,1.304000X1.804000*%
%ADD21C,1.600000*%
%ADD22C,2.200000*%
%ADD23HorizOval,2.200000X0.000000X0.000000X0.000000X0.000000X0*%
%ADD24R,2.000000X1.900000*%
%ADD25O,2.500000X1.900000*%
%ADD26R,3.000000X3.000000*%
%ADD27C,3.000000*%
%ADD28RoundRect,0.250000X0.337500X0.475000X-0.337500X0.475000X-0.337500X-0.475000X0.337500X-0.475000X0*%
%ADD29RoundRect,0.250000X-0.450000X0.350000X-0.450000X-0.350000X0.450000X-0.350000X0.450000X0.350000X0*%
%ADD30RoundRect,0.250000X-0.350000X-0.450000X0.350000X-0.450000X0.350000X0.450000X-0.350000X0.450000X0*%
%ADD31RoundRect,0.250000X0.475000X-0.337500X0.475000X0.337500X-0.475000X0.337500X-0.475000X-0.337500X0*%
%ADD32RoundRect,0.250000X0.450000X-0.350000X0.450000X0.350000X-0.450000X0.350000X-0.450000X-0.350000X0*%
%ADD33RoundRect,0.250000X-0.337500X-0.475000X0.337500X-0.475000X0.337500X0.475000X-0.337500X0.475000X0*%
%ADD34RoundRect,0.150000X-0.150000X0.512500X-0.150000X-0.512500X0.150000X-0.512500X0.150000X0.512500X0*%
%TA.AperFunction,Profile*%
%ADD35C,0.150000*%
%TD*%
G04 APERTURE END LIST*
D10*
%TO.C,R5*%
X99350000Y-85000000D03*
X101350000Y-85000000D03*
%TD*%
D11*
%TO.C,D2*%
X89825000Y-74740000D03*
D12*
X89825000Y-72200000D03*
%TD*%
D13*
%TO.C,TP1*%
X132050000Y-83650000D03*
%TD*%
D14*
%TO.C,J2*%
X137000000Y-68050000D03*
D15*
X136980000Y-70050000D03*
X137000000Y-72050000D03*
X137000000Y-74050000D03*
%TD*%
D16*
%TO.C,BTN1*%
X72850000Y-60500000D03*
X72850000Y-65000000D03*
D17*
X75350000Y-59250000D03*
X75350000Y-66250000D03*
%TD*%
D13*
%TO.C,TP3*%
X128300000Y-87350000D03*
%TD*%
D18*
%TO.C,M2.5*%
X75000000Y-87000000D03*
%TD*%
%TO.C,M2.5*%
X128750000Y-54550000D03*
%TD*%
D19*
%TO.C,USBC1*%
X128685000Y-63300000D03*
X128685000Y-71300000D03*
D20*
X130115000Y-63300000D03*
X127255000Y-63300000D03*
X130115000Y-71300000D03*
X127255000Y-71300000D03*
%TD*%
D21*
%TO.C,DIP1*%
X116715000Y-88720000D03*
X119255000Y-88720000D03*
X121795000Y-88720000D03*
X124335000Y-88720000D03*
X124335000Y-81200000D03*
X121795000Y-81200000D03*
X119255000Y-81200000D03*
X116715000Y-81200000D03*
%TD*%
D22*
%TO.C,D3*%
X95250000Y-78300000D03*
D23*
X94277984Y-75953346D03*
%TD*%
D18*
%TO.C,M2.5*%
X79950000Y-54500000D03*
%TD*%
D24*
%TO.C,Q1*%
X94625000Y-82460000D03*
D25*
X94625000Y-85000000D03*
X94625000Y-87540000D03*
%TD*%
D18*
%TO.C,M2.5*%
X136550000Y-80000000D03*
%TD*%
D11*
%TO.C,D1*%
X80050000Y-66000000D03*
D12*
X82590000Y-66000000D03*
%TD*%
D21*
%TO.C,SW1*%
X80050000Y-62100000D03*
X80050000Y-59560000D03*
%TD*%
D26*
%TO.C,J1*%
X84325000Y-71200000D03*
D27*
X84325000Y-76200000D03*
X84325000Y-81200000D03*
X84325000Y-86200000D03*
%TD*%
D13*
%TO.C,TP2*%
X130250000Y-85400000D03*
%TD*%
D28*
%TO.C,C4*%
X106675000Y-66450000D03*
X104600000Y-66450000D03*
%TD*%
D29*
%TO.C,R15*%
X91450000Y-66250000D03*
X91450000Y-68250000D03*
%TD*%
D30*
%TO.C,R14*%
X130000000Y-78000000D03*
X132000002Y-78000000D03*
%TD*%
D31*
%TO.C,C2*%
X103200000Y-82250000D03*
X103200000Y-80175000D03*
%TD*%
D32*
%TO.C,R16*%
X93650000Y-68250000D03*
X93650000Y-66250000D03*
%TD*%
D10*
%TO.C,R12*%
X122785000Y-65200000D03*
X120785000Y-65200000D03*
%TD*%
%TO.C,R2*%
X113950000Y-80300000D03*
X111950000Y-80300000D03*
%TD*%
%TO.C,R3*%
X109400000Y-71150000D03*
X107400000Y-71150000D03*
%TD*%
%TO.C,R7*%
X122775000Y-62500000D03*
X120775000Y-62500000D03*
%TD*%
D29*
%TO.C,R6*%
X123525000Y-67900000D03*
X123525000Y-69900000D03*
%TD*%
D28*
%TO.C,C7*%
X113950000Y-77900000D03*
X111875000Y-77900000D03*
%TD*%
D33*
%TO.C,C6*%
X109400000Y-66500000D03*
X111475000Y-66500000D03*
%TD*%
D32*
%TO.C,R13*%
X133925000Y-65250000D03*
X133925000Y-63250000D03*
%TD*%
D31*
%TO.C,C1*%
X100800000Y-82250000D03*
X100800000Y-80175000D03*
%TD*%
D34*
%TO.C,U2*%
X105300000Y-82375000D03*
X106250000Y-82375000D03*
X107200000Y-82375000D03*
X107200000Y-84650000D03*
X106250000Y-84650000D03*
X105300000Y-84650000D03*
%TD*%
D10*
%TO.C,R17*%
X132000000Y-80550000D03*
X130000000Y-80550000D03*
%TD*%
D30*
%TO.C,R1*%
X108600000Y-54700000D03*
X110600000Y-54700000D03*
%TD*%
D35*
X76500000Y-51000000D02*
X76500000Y-53500000D01*
X133000000Y-51000000D02*
X76500000Y-51000000D01*
X140000000Y-84500000D02*
X140000000Y-59000000D01*
X78000000Y-83000000D02*
X71500000Y-83000000D01*
X132000000Y-91000000D02*
X132000000Y-88500000D01*
X132000000Y-88500000D02*
G75*
G02*
X136000000Y-84500000I4000000J0D01*
G01*
X78000000Y-71000000D02*
X78000000Y-83000000D01*
X75500000Y-68500000D02*
X78000000Y-71000000D01*
X71500000Y-83000000D02*
X71500000Y-91000000D01*
X76500000Y-53500000D02*
G75*
G02*
X72500000Y-57500000I-4000000J0D01*
G01*
X137000000Y-59000000D02*
G75*
G02*
X133000000Y-55000000I0J4000000D01*
G01*
X72500000Y-57500000D02*
X70000000Y-57500000D01*
X71500000Y-91000000D02*
X132000000Y-91000000D01*
X136000000Y-84500000D02*
X140000000Y-84500000D01*
X140000000Y-59000000D02*
X137000000Y-59000000D01*
X133000000Y-55000000D02*
X133000000Y-51000000D01*
X70000000Y-57500000D02*
X70000000Y-68500000D01*
X70000000Y-68500000D02*
X75500000Y-68500000D01*
M02*
