%TF.GenerationSoftware,KiCad,Pcbnew,9.0.1*%
%TF.CreationDate,2025-07-07T12:26:16-04:00*%
%TF.ProjectId,cablight-project,6361626c-6967-4687-942d-70726f6a6563,rev?*%
%TF.SameCoordinates,Original*%
%TF.FileFunction,Soldermask,Bot*%
%TF.FilePolarity,Negative*%
%FSLAX46Y46*%
G04 Gerber Fmt 4.6, Leading zero omitted, Abs format (unit mm)*
G04 Created by KiCad (PCBNEW 9.0.1) date 2025-07-07 12:26:16*
%MOMM*%
%LPD*%
G01*
G04 APERTURE LIST*
%ADD10R,3.000000X3.000000*%
%ADD11C,3.000000*%
%ADD12R,2.200000X2.200000*%
%ADD13O,2.200000X2.200000*%
%ADD14C,1.600000*%
%ADD15O,1.600000X1.600000*%
%ADD16C,1.901600*%
%ADD17O,2.500000X1.900000*%
%ADD18R,2.000000X1.900000*%
%ADD19C,3.100000*%
%ADD20R,1.600000X1.600000*%
%ADD21O,1.500000X3.000000*%
%ADD22C,2.000000*%
%TA.AperFunction,Profile*%
%ADD23C,0.150000*%
%TD*%
G04 APERTURE END LIST*
D10*
%TO.C,J3*%
X-57593000Y-19165000D03*
D11*
X-57593000Y-24165000D03*
X-57593000Y-29165000D03*
X-57593000Y-34165000D03*
%TD*%
D12*
%TO.C,D1*%
X-44258000Y-10402000D03*
D13*
X-46798000Y-10402000D03*
%TD*%
D14*
%TO.C,R4*%
X-46163000Y-26150000D03*
D15*
X-46163000Y-16650000D03*
%TD*%
D14*
%TO.C,R5*%
X-50608000Y-19825000D03*
D15*
X-50608000Y-29325000D03*
%TD*%
D16*
%TO.C,U1*%
X-38670000Y-26150000D03*
X-36130000Y-26150000D03*
X-33590000Y-26150000D03*
X-31050000Y-26150000D03*
X-28510000Y-26150000D03*
X-25970000Y-26150000D03*
X-23430000Y-26150000D03*
X-23430000Y-10910000D03*
X-25970000Y-10910000D03*
X-28510000Y-10910000D03*
X-31050000Y-10910000D03*
X-33590000Y-10910000D03*
X-36130000Y-10910000D03*
X-38670000Y-10910000D03*
%TD*%
D14*
%TO.C,S1*%
X-17588000Y-24880000D03*
X-17588000Y-22340000D03*
X-17588000Y-19800000D03*
X-17588000Y-17260000D03*
X-17700000Y-39720000D03*
X-2300000Y-39695000D03*
X-17700000Y-2420000D03*
X-2300000Y-2420000D03*
%TD*%
D17*
%TO.C,Q1*%
X-50608000Y-35000000D03*
D18*
X-50608000Y-32460000D03*
D17*
X-50608000Y-37540000D03*
%TD*%
D19*
%TO.C,M2.5*%
X-67000000Y-38500000D03*
%TD*%
%TO.C,M2.5*%
X-25000000Y-31500000D03*
%TD*%
%TO.C,M2.5*%
X-74000000Y-12000000D03*
%TD*%
%TO.C,M2.5*%
X-22138000Y-3330000D03*
%TD*%
D20*
%TO.C,P1*%
X-52894000Y-12688000D03*
D14*
X-52894000Y-10148000D03*
X-52894000Y-7608000D03*
X-52894000Y-5068000D03*
X-52894000Y-2528000D03*
%TD*%
D21*
%TO.C,SW3*%
X-47100000Y-3958000D03*
D22*
X-38300000Y-3958000D03*
D21*
X-35500000Y-3958000D03*
D22*
X-41300000Y-3958000D03*
X-44300000Y-3958000D03*
%TD*%
D23*
X-63000000Y-17000000D02*
X-63000000Y-33117218D01*
X-71000000Y-35882782D02*
G75*
G02*
X-70124033Y-34890522I1000000J-18D01*
G01*
X-63000000Y-33117218D02*
G75*
G02*
X-63875967Y-34109478I-1000000J18D01*
G01*
X-18700000Y-42000000D02*
X0Y-42000000D01*
X-78000000Y-11414214D02*
G75*
G02*
X-77707114Y-10707100I1000000J14D01*
G01*
X-29300000Y-39800000D02*
X-29300000Y-40000000D01*
X0Y0D02*
X0Y-42000000D01*
X-29300000Y-39800000D02*
G75*
G02*
X-20700000Y-39800000I4300000J0D01*
G01*
X-77000000Y-16000000D02*
X-64000000Y-16000000D01*
X-18700000Y-42000000D02*
G75*
G02*
X-20700000Y-40000000I0J2000000D01*
G01*
X-67292893Y-292893D02*
X-77707107Y-10707107D01*
X-25238000Y-4930000D02*
G75*
G02*
X-33238000Y-4930000I-4000000J0D01*
G01*
X-33238000Y-4930000D02*
G75*
G02*
X-25238000Y-4930000I4000000J0D01*
G01*
X-78000000Y-11414214D02*
X-78000000Y-15000000D01*
X0Y0D02*
X-66585786Y0D01*
X-64000000Y-16000000D02*
G75*
G02*
X-63000000Y-17000000I0J-1000000D01*
G01*
X-77000000Y-16000000D02*
G75*
G02*
X-78000000Y-15000000I0J1000000D01*
G01*
X-71000000Y-35882782D02*
X-71000000Y-41000000D01*
X-29300000Y-40000000D02*
G75*
G02*
X-31300000Y-42000000I-2000000J0D01*
G01*
X-67292893Y-292893D02*
G75*
G02*
X-66585786Y-39I707093J-707207D01*
G01*
X-70000000Y-42000000D02*
G75*
G02*
X-71000000Y-41000000I0J1000000D01*
G01*
X-31300000Y-42000000D02*
X-70000000Y-42000000D01*
X-63875965Y-34109496D02*
X-70124035Y-34890504D01*
X-20700000Y-40000000D02*
X-20700000Y-39800000D01*
M02*
