%TF.GenerationSoftware,KiCad,Pcbnew,9.0.6*%
%TF.CreationDate,2026-01-19T14:33:31-05:00*%
%TF.ProjectId,cablight-project,6361626c-6967-4687-942d-70726f6a6563,rev?*%
%TF.SameCoordinates,Original*%
%TF.FileFunction,Paste,Bot*%
%TF.FilePolarity,Positive*%
%FSLAX46Y46*%
G04 Gerber Fmt 4.6, Leading zero omitted, Abs format (unit mm)*
G04 Created by KiCad (PCBNEW 9.0.6) date 2026-01-19 14:33:31*
%MOMM*%
%LPD*%
G01*
G04 APERTURE LIST*
G04 Aperture macros list*
%AMRoundRect*
0 Rectangle with rounded corners*
0 $1 Rounding radius*
0 $2 $3 $4 $5 $6 $7 $8 $9 X,Y pos of 4 corners*
0 Add a 4 corners polygon primitive as box body*
4,1,4,$2,$3,$4,$5,$6,$7,$8,$9,$2,$3,0*
0 Add four circle primitives for the rounded corners*
1,1,$1+$1,$2,$3*
1,1,$1+$1,$4,$5*
1,1,$1+$1,$6,$7*
1,1,$1+$1,$8,$9*
0 Add four rect primitives between the rounded corners*
20,1,$1+$1,$2,$3,$4,$5,0*
20,1,$1+$1,$4,$5,$6,$7,0*
20,1,$1+$1,$6,$7,$8,$9,0*
20,1,$1+$1,$8,$9,$2,$3,0*%
G04 Aperture macros list end*
%ADD10RoundRect,0.250000X0.350000X0.450000X-0.350000X0.450000X-0.350000X-0.450000X0.350000X-0.450000X0*%
%ADD11RoundRect,0.250000X0.337500X0.475000X-0.337500X0.475000X-0.337500X-0.475000X0.337500X-0.475000X0*%
%ADD12RoundRect,0.250000X-0.450000X0.350000X-0.450000X-0.350000X0.450000X-0.350000X0.450000X0.350000X0*%
%ADD13RoundRect,0.250000X-0.350000X-0.450000X0.350000X-0.450000X0.350000X0.450000X-0.350000X0.450000X0*%
%ADD14RoundRect,0.250000X0.475000X-0.337500X0.475000X0.337500X-0.475000X0.337500X-0.475000X-0.337500X0*%
%ADD15RoundRect,0.250000X0.450000X-0.350000X0.450000X0.350000X-0.450000X0.350000X-0.450000X-0.350000X0*%
%ADD16RoundRect,0.250000X-0.337500X-0.475000X0.337500X-0.475000X0.337500X0.475000X-0.337500X0.475000X0*%
%ADD17RoundRect,0.150000X-0.150000X0.512500X-0.150000X-0.512500X0.150000X-0.512500X0.150000X0.512500X0*%
%TA.AperFunction,Profile*%
%ADD18C,0.150000*%
%TD*%
G04 APERTURE END LIST*
D10*
%TO.C,R5*%
X99350000Y-85000000D03*
X101350000Y-85000000D03*
%TD*%
D11*
%TO.C,C4*%
X106675000Y-66450000D03*
X104600000Y-66450000D03*
%TD*%
D12*
%TO.C,R15*%
X91450000Y-66250000D03*
X91450000Y-68250000D03*
%TD*%
D13*
%TO.C,R14*%
X130000000Y-78000000D03*
X132000002Y-78000000D03*
%TD*%
D14*
%TO.C,C2*%
X103200000Y-82250000D03*
X103200000Y-80175000D03*
%TD*%
D15*
%TO.C,R16*%
X93650000Y-68250000D03*
X93650000Y-66250000D03*
%TD*%
D10*
%TO.C,R12*%
X122785000Y-65200000D03*
X120785000Y-65200000D03*
%TD*%
%TO.C,R2*%
X113950000Y-80300000D03*
X111950000Y-80300000D03*
%TD*%
%TO.C,R3*%
X109400000Y-71150000D03*
X107400000Y-71150000D03*
%TD*%
%TO.C,R7*%
X122775000Y-62500000D03*
X120775000Y-62500000D03*
%TD*%
D12*
%TO.C,R6*%
X123525000Y-67900000D03*
X123525000Y-69900000D03*
%TD*%
D11*
%TO.C,C7*%
X113950000Y-77900000D03*
X111875000Y-77900000D03*
%TD*%
D16*
%TO.C,C6*%
X109400000Y-66500000D03*
X111475000Y-66500000D03*
%TD*%
D15*
%TO.C,R13*%
X133925000Y-65250000D03*
X133925000Y-63250000D03*
%TD*%
D14*
%TO.C,C1*%
X100800000Y-82250000D03*
X100800000Y-80175000D03*
%TD*%
D17*
%TO.C,U2*%
X105300000Y-82375000D03*
X106250000Y-82375000D03*
X107200000Y-82375000D03*
X107200000Y-84650000D03*
X106250000Y-84650000D03*
X105300000Y-84650000D03*
%TD*%
D10*
%TO.C,R17*%
X132000000Y-80550000D03*
X130000000Y-80550000D03*
%TD*%
D13*
%TO.C,R1*%
X108600000Y-54700000D03*
X110600000Y-54700000D03*
%TD*%
D18*
X76500000Y-51000000D02*
X76500000Y-53500000D01*
X133000000Y-51000000D02*
X76500000Y-51000000D01*
X140000000Y-84500000D02*
X140000000Y-59000000D01*
X78000000Y-83000000D02*
X71500000Y-83000000D01*
X132000000Y-91000000D02*
X132000000Y-88500000D01*
X132000000Y-88500000D02*
G75*
G02*
X136000000Y-84500000I4000000J0D01*
G01*
X78000000Y-71000000D02*
X78000000Y-83000000D01*
X75500000Y-68500000D02*
X78000000Y-71000000D01*
X71500000Y-83000000D02*
X71500000Y-91000000D01*
X76500000Y-53500000D02*
G75*
G02*
X72500000Y-57500000I-4000000J0D01*
G01*
X137000000Y-59000000D02*
G75*
G02*
X133000000Y-55000000I0J4000000D01*
G01*
X72500000Y-57500000D02*
X70000000Y-57500000D01*
X71500000Y-91000000D02*
X132000000Y-91000000D01*
X136000000Y-84500000D02*
X140000000Y-84500000D01*
X140000000Y-59000000D02*
X137000000Y-59000000D01*
X133000000Y-55000000D02*
X133000000Y-51000000D01*
X70000000Y-57500000D02*
X70000000Y-68500000D01*
X70000000Y-68500000D02*
X75500000Y-68500000D01*
M02*
