%TF.GenerationSoftware,KiCad,Pcbnew,9.0.6*%
%TF.CreationDate,2026-01-19T14:33:31-05:00*%
%TF.ProjectId,cablight-project,6361626c-6967-4687-942d-70726f6a6563,rev?*%
%TF.SameCoordinates,Original*%
%TF.FileFunction,Legend,Bot*%
%TF.FilePolarity,Positive*%
%FSLAX46Y46*%
G04 Gerber Fmt 4.6, Leading zero omitted, Abs format (unit mm)*
G04 Created by KiCad (PCBNEW 9.0.6) date 2026-01-19 14:33:31*
%MOMM*%
%LPD*%
G01*
G04 APERTURE LIST*
G04 Aperture macros list*
%AMRoundRect*
0 Rectangle with rounded corners*
0 $1 Rounding radius*
0 $2 $3 $4 $5 $6 $7 $8 $9 X,Y pos of 4 corners*
0 Add a 4 corners polygon primitive as box body*
4,1,4,$2,$3,$4,$5,$6,$7,$8,$9,$2,$3,0*
0 Add four circle primitives for the rounded corners*
1,1,$1+$1,$2,$3*
1,1,$1+$1,$4,$5*
1,1,$1+$1,$6,$7*
1,1,$1+$1,$8,$9*
0 Add four rect primitives between the rounded corners*
20,1,$1+$1,$2,$3,$4,$5,0*
20,1,$1+$1,$4,$5,$6,$7,0*
20,1,$1+$1,$6,$7,$8,$9,0*
20,1,$1+$1,$8,$9,$2,$3,0*%
%AMHorizOval*
0 Thick line with rounded ends*
0 $1 width*
0 $2 $3 position (X,Y) of the first rounded end (center of the circle)*
0 $4 $5 position (X,Y) of the second rounded end (center of the circle)*
0 Add line between two ends*
20,1,$1,$2,$3,$4,$5,0*
0 Add two circle primitives to create the rounded ends*
1,1,$1,$2,$3*
1,1,$1,$4,$5*%
G04 Aperture macros list end*
%ADD10C,0.200000*%
%ADD11C,0.150000*%
%ADD12RoundRect,0.250000X0.350000X0.450000X-0.350000X0.450000X-0.350000X-0.450000X0.350000X-0.450000X0*%
%ADD13R,2.200000X2.200000*%
%ADD14O,2.200000X2.200000*%
%ADD15C,1.000000*%
%ADD16R,1.400000X1.400000*%
%ADD17C,1.400000*%
%ADD18O,1.500000X2.000000*%
%ADD19O,2.000000X1.500000*%
%ADD20C,3.100000*%
%ADD21C,0.700000*%
%ADD22O,1.304000X1.804000*%
%ADD23C,1.600000*%
%ADD24C,2.200000*%
%ADD25HorizOval,2.200000X0.000000X0.000000X0.000000X0.000000X0*%
%ADD26R,2.000000X1.900000*%
%ADD27O,2.500000X1.900000*%
%ADD28R,3.000000X3.000000*%
%ADD29C,3.000000*%
%ADD30RoundRect,0.250000X0.337500X0.475000X-0.337500X0.475000X-0.337500X-0.475000X0.337500X-0.475000X0*%
%ADD31RoundRect,0.250000X-0.450000X0.350000X-0.450000X-0.350000X0.450000X-0.350000X0.450000X0.350000X0*%
%ADD32RoundRect,0.250000X-0.350000X-0.450000X0.350000X-0.450000X0.350000X0.450000X-0.350000X0.450000X0*%
%ADD33RoundRect,0.250000X0.475000X-0.337500X0.475000X0.337500X-0.475000X0.337500X-0.475000X-0.337500X0*%
%ADD34RoundRect,0.250000X0.450000X-0.350000X0.450000X0.350000X-0.450000X0.350000X-0.450000X-0.350000X0*%
%ADD35RoundRect,0.250000X-0.337500X-0.475000X0.337500X-0.475000X0.337500X0.475000X-0.337500X0.475000X0*%
%ADD36RoundRect,0.150000X-0.150000X0.512500X-0.150000X-0.512500X0.150000X-0.512500X0.150000X0.512500X0*%
%TA.AperFunction,Profile*%
%ADD37C,0.150000*%
%TD*%
G04 APERTURE END LIST*
D10*
G36*
X100932044Y-64369641D02*
G01*
X100932044Y-64210199D01*
X100009026Y-64210199D01*
X100009026Y-64369641D01*
X100932044Y-64369641D01*
G37*
G36*
X100009392Y-64369641D02*
G01*
X100009392Y-64210199D01*
X99086374Y-64210199D01*
X99086374Y-64369641D01*
X100009392Y-64369641D01*
G37*
G36*
X101601392Y-66226199D02*
G01*
X101795638Y-66226199D01*
X101223524Y-64889702D01*
X101028398Y-64889702D01*
X101601392Y-66226199D01*
G37*
G36*
X100640198Y-64889702D02*
G01*
X100067205Y-66226199D01*
X100262330Y-66226199D01*
X100834518Y-64889702D01*
X100640198Y-64889702D01*
G37*
G36*
X98794895Y-64889702D02*
G01*
X98221901Y-66226199D01*
X98417027Y-66226199D01*
X98989214Y-64889702D01*
X98794895Y-64889702D01*
G37*
G36*
X102524043Y-68242199D02*
G01*
X102718290Y-68242199D01*
X102146175Y-66905702D01*
X101951050Y-66905702D01*
X102524043Y-68242199D01*
G37*
G36*
X100678740Y-68242199D02*
G01*
X100872986Y-68242199D01*
X100300872Y-66905702D01*
X100105746Y-66905702D01*
X100678740Y-68242199D01*
G37*
G36*
X99717547Y-66905702D02*
G01*
X99144553Y-68242199D01*
X99339678Y-68242199D01*
X99911866Y-66905702D01*
X99717547Y-66905702D01*
G37*
G36*
X97872243Y-66905702D02*
G01*
X97299249Y-68242199D01*
X97494375Y-68242199D01*
X98066563Y-66905702D01*
X97872243Y-66905702D01*
G37*
G36*
X103446695Y-70258199D02*
G01*
X103640942Y-70258199D01*
X103068827Y-68921702D01*
X102873702Y-68921702D01*
X103446695Y-70258199D01*
G37*
G36*
X101601392Y-70258199D02*
G01*
X101795638Y-70258199D01*
X101223524Y-68921702D01*
X101028398Y-68921702D01*
X101601392Y-70258199D01*
G37*
G36*
X100932044Y-70417641D02*
G01*
X100932044Y-70258199D01*
X100009026Y-70258199D01*
X100009026Y-70417641D01*
X100932044Y-70417641D01*
G37*
G36*
X100009392Y-70417641D02*
G01*
X100009392Y-70258199D01*
X99086374Y-70258199D01*
X99086374Y-70417641D01*
X100009392Y-70417641D01*
G37*
G36*
X98794895Y-68921702D02*
G01*
X98221901Y-70258199D01*
X98417027Y-70258199D01*
X98989214Y-68921702D01*
X98794895Y-68921702D01*
G37*
G36*
X96949591Y-68921702D02*
G01*
X96376598Y-70258199D01*
X96571723Y-70258199D01*
X97143911Y-68921702D01*
X96949591Y-68921702D01*
G37*
G36*
X103408154Y-70937702D02*
G01*
X102835160Y-72274199D01*
X103030286Y-72274199D01*
X103602473Y-70937702D01*
X103408154Y-70937702D01*
G37*
G36*
X102524043Y-72274199D02*
G01*
X102718290Y-72274199D01*
X102146175Y-70937702D01*
X101951050Y-70937702D01*
X102524043Y-72274199D01*
G37*
G36*
X101854696Y-72433641D02*
G01*
X101854696Y-72274199D01*
X100931678Y-72274199D01*
X100931678Y-72433641D01*
X101854696Y-72433641D01*
G37*
G36*
X100932044Y-72433641D02*
G01*
X100932044Y-72274199D01*
X100009026Y-72274199D01*
X100009026Y-72433641D01*
X100932044Y-72433641D01*
G37*
G36*
X100009392Y-72433641D02*
G01*
X100009392Y-72274199D01*
X99086374Y-72274199D01*
X99086374Y-72433641D01*
X100009392Y-72433641D01*
G37*
G36*
X99086741Y-72433641D02*
G01*
X99086741Y-72274199D01*
X98163722Y-72274199D01*
X98163722Y-72433641D01*
X99086741Y-72433641D01*
G37*
G36*
X97872243Y-70937702D02*
G01*
X97299249Y-72274199D01*
X97494375Y-72274199D01*
X98066563Y-70937702D01*
X97872243Y-70937702D01*
G37*
G36*
X96988133Y-72274199D02*
G01*
X97182379Y-72274199D01*
X96610265Y-70937702D01*
X96415139Y-70937702D01*
X96988133Y-72274199D01*
G37*
D11*
X104763220Y-55130043D02*
X104763220Y-55939566D01*
X104763220Y-55939566D02*
X104715601Y-56034804D01*
X104715601Y-56034804D02*
X104667982Y-56082424D01*
X104667982Y-56082424D02*
X104572744Y-56130043D01*
X104572744Y-56130043D02*
X104382268Y-56130043D01*
X104382268Y-56130043D02*
X104287030Y-56082424D01*
X104287030Y-56082424D02*
X104239411Y-56034804D01*
X104239411Y-56034804D02*
X104191792Y-55939566D01*
X104191792Y-55939566D02*
X104191792Y-55130043D01*
X103572744Y-56130043D02*
X103667982Y-56082424D01*
X103667982Y-56082424D02*
X103715601Y-55987185D01*
X103715601Y-55987185D02*
X103715601Y-55130043D01*
X103334648Y-55463376D02*
X102953696Y-55463376D01*
X103191791Y-55130043D02*
X103191791Y-55987185D01*
X103191791Y-55987185D02*
X103144172Y-56082424D01*
X103144172Y-56082424D02*
X103048934Y-56130043D01*
X103048934Y-56130043D02*
X102953696Y-56130043D01*
X102620362Y-56130043D02*
X102620362Y-55463376D01*
X102620362Y-55653852D02*
X102572743Y-55558614D01*
X102572743Y-55558614D02*
X102525124Y-55510995D01*
X102525124Y-55510995D02*
X102429886Y-55463376D01*
X102429886Y-55463376D02*
X102334648Y-55463376D01*
X101572743Y-56130043D02*
X101572743Y-55606233D01*
X101572743Y-55606233D02*
X101620362Y-55510995D01*
X101620362Y-55510995D02*
X101715600Y-55463376D01*
X101715600Y-55463376D02*
X101906076Y-55463376D01*
X101906076Y-55463376D02*
X102001314Y-55510995D01*
X101572743Y-56082424D02*
X101667981Y-56130043D01*
X101667981Y-56130043D02*
X101906076Y-56130043D01*
X101906076Y-56130043D02*
X102001314Y-56082424D01*
X102001314Y-56082424D02*
X102048933Y-55987185D01*
X102048933Y-55987185D02*
X102048933Y-55891947D01*
X102048933Y-55891947D02*
X102001314Y-55796709D01*
X102001314Y-55796709D02*
X101906076Y-55749090D01*
X101906076Y-55749090D02*
X101667981Y-55749090D01*
X101667981Y-55749090D02*
X101572743Y-55701471D01*
X101144171Y-56082424D02*
X101048933Y-56130043D01*
X101048933Y-56130043D02*
X100858457Y-56130043D01*
X100858457Y-56130043D02*
X100763219Y-56082424D01*
X100763219Y-56082424D02*
X100715600Y-55987185D01*
X100715600Y-55987185D02*
X100715600Y-55939566D01*
X100715600Y-55939566D02*
X100763219Y-55844328D01*
X100763219Y-55844328D02*
X100858457Y-55796709D01*
X100858457Y-55796709D02*
X101001314Y-55796709D01*
X101001314Y-55796709D02*
X101096552Y-55749090D01*
X101096552Y-55749090D02*
X101144171Y-55653852D01*
X101144171Y-55653852D02*
X101144171Y-55606233D01*
X101144171Y-55606233D02*
X101096552Y-55510995D01*
X101096552Y-55510995D02*
X101001314Y-55463376D01*
X101001314Y-55463376D02*
X100858457Y-55463376D01*
X100858457Y-55463376D02*
X100763219Y-55510995D01*
X100144171Y-56130043D02*
X100239409Y-56082424D01*
X100239409Y-56082424D02*
X100287028Y-56034804D01*
X100287028Y-56034804D02*
X100334647Y-55939566D01*
X100334647Y-55939566D02*
X100334647Y-55653852D01*
X100334647Y-55653852D02*
X100287028Y-55558614D01*
X100287028Y-55558614D02*
X100239409Y-55510995D01*
X100239409Y-55510995D02*
X100144171Y-55463376D01*
X100144171Y-55463376D02*
X100001314Y-55463376D01*
X100001314Y-55463376D02*
X99906076Y-55510995D01*
X99906076Y-55510995D02*
X99858457Y-55558614D01*
X99858457Y-55558614D02*
X99810838Y-55653852D01*
X99810838Y-55653852D02*
X99810838Y-55939566D01*
X99810838Y-55939566D02*
X99858457Y-56034804D01*
X99858457Y-56034804D02*
X99906076Y-56082424D01*
X99906076Y-56082424D02*
X100001314Y-56130043D01*
X100001314Y-56130043D02*
X100144171Y-56130043D01*
X99382266Y-55463376D02*
X99382266Y-56130043D01*
X99382266Y-55558614D02*
X99334647Y-55510995D01*
X99334647Y-55510995D02*
X99239409Y-55463376D01*
X99239409Y-55463376D02*
X99096552Y-55463376D01*
X99096552Y-55463376D02*
X99001314Y-55510995D01*
X99001314Y-55510995D02*
X98953695Y-55606233D01*
X98953695Y-55606233D02*
X98953695Y-56130043D01*
X98477504Y-56130043D02*
X98477504Y-55463376D01*
X98477504Y-55130043D02*
X98525123Y-55177662D01*
X98525123Y-55177662D02*
X98477504Y-55225281D01*
X98477504Y-55225281D02*
X98429885Y-55177662D01*
X98429885Y-55177662D02*
X98477504Y-55130043D01*
X98477504Y-55130043D02*
X98477504Y-55225281D01*
X97572743Y-56082424D02*
X97667981Y-56130043D01*
X97667981Y-56130043D02*
X97858457Y-56130043D01*
X97858457Y-56130043D02*
X97953695Y-56082424D01*
X97953695Y-56082424D02*
X98001314Y-56034804D01*
X98001314Y-56034804D02*
X98048933Y-55939566D01*
X98048933Y-55939566D02*
X98048933Y-55653852D01*
X98048933Y-55653852D02*
X98001314Y-55558614D01*
X98001314Y-55558614D02*
X97953695Y-55510995D01*
X97953695Y-55510995D02*
X97858457Y-55463376D01*
X97858457Y-55463376D02*
X97667981Y-55463376D01*
X97667981Y-55463376D02*
X97572743Y-55510995D01*
X95906076Y-56130043D02*
X96382266Y-56130043D01*
X96382266Y-56130043D02*
X96382266Y-55130043D01*
X95572742Y-55606233D02*
X95239409Y-55606233D01*
X95096552Y-56130043D02*
X95572742Y-56130043D01*
X95572742Y-56130043D02*
X95572742Y-55130043D01*
X95572742Y-55130043D02*
X95096552Y-55130043D01*
X94667980Y-56130043D02*
X94667980Y-55130043D01*
X94667980Y-55130043D02*
X94429885Y-55130043D01*
X94429885Y-55130043D02*
X94287028Y-55177662D01*
X94287028Y-55177662D02*
X94191790Y-55272900D01*
X94191790Y-55272900D02*
X94144171Y-55368138D01*
X94144171Y-55368138D02*
X94096552Y-55558614D01*
X94096552Y-55558614D02*
X94096552Y-55701471D01*
X94096552Y-55701471D02*
X94144171Y-55891947D01*
X94144171Y-55891947D02*
X94191790Y-55987185D01*
X94191790Y-55987185D02*
X94287028Y-56082424D01*
X94287028Y-56082424D02*
X94429885Y-56130043D01*
X94429885Y-56130043D02*
X94667980Y-56130043D01*
X92334647Y-56034804D02*
X92382266Y-56082424D01*
X92382266Y-56082424D02*
X92525123Y-56130043D01*
X92525123Y-56130043D02*
X92620361Y-56130043D01*
X92620361Y-56130043D02*
X92763218Y-56082424D01*
X92763218Y-56082424D02*
X92858456Y-55987185D01*
X92858456Y-55987185D02*
X92906075Y-55891947D01*
X92906075Y-55891947D02*
X92953694Y-55701471D01*
X92953694Y-55701471D02*
X92953694Y-55558614D01*
X92953694Y-55558614D02*
X92906075Y-55368138D01*
X92906075Y-55368138D02*
X92858456Y-55272900D01*
X92858456Y-55272900D02*
X92763218Y-55177662D01*
X92763218Y-55177662D02*
X92620361Y-55130043D01*
X92620361Y-55130043D02*
X92525123Y-55130043D01*
X92525123Y-55130043D02*
X92382266Y-55177662D01*
X92382266Y-55177662D02*
X92334647Y-55225281D01*
X91763218Y-56130043D02*
X91858456Y-56082424D01*
X91858456Y-56082424D02*
X91906075Y-56034804D01*
X91906075Y-56034804D02*
X91953694Y-55939566D01*
X91953694Y-55939566D02*
X91953694Y-55653852D01*
X91953694Y-55653852D02*
X91906075Y-55558614D01*
X91906075Y-55558614D02*
X91858456Y-55510995D01*
X91858456Y-55510995D02*
X91763218Y-55463376D01*
X91763218Y-55463376D02*
X91620361Y-55463376D01*
X91620361Y-55463376D02*
X91525123Y-55510995D01*
X91525123Y-55510995D02*
X91477504Y-55558614D01*
X91477504Y-55558614D02*
X91429885Y-55653852D01*
X91429885Y-55653852D02*
X91429885Y-55939566D01*
X91429885Y-55939566D02*
X91477504Y-56034804D01*
X91477504Y-56034804D02*
X91525123Y-56082424D01*
X91525123Y-56082424D02*
X91620361Y-56130043D01*
X91620361Y-56130043D02*
X91763218Y-56130043D01*
X91001313Y-55463376D02*
X91001313Y-56130043D01*
X91001313Y-55558614D02*
X90953694Y-55510995D01*
X90953694Y-55510995D02*
X90858456Y-55463376D01*
X90858456Y-55463376D02*
X90715599Y-55463376D01*
X90715599Y-55463376D02*
X90620361Y-55510995D01*
X90620361Y-55510995D02*
X90572742Y-55606233D01*
X90572742Y-55606233D02*
X90572742Y-56130043D01*
X90239408Y-55463376D02*
X89858456Y-55463376D01*
X90096551Y-55130043D02*
X90096551Y-55987185D01*
X90096551Y-55987185D02*
X90048932Y-56082424D01*
X90048932Y-56082424D02*
X89953694Y-56130043D01*
X89953694Y-56130043D02*
X89858456Y-56130043D01*
X89525122Y-56130043D02*
X89525122Y-55463376D01*
X89525122Y-55653852D02*
X89477503Y-55558614D01*
X89477503Y-55558614D02*
X89429884Y-55510995D01*
X89429884Y-55510995D02*
X89334646Y-55463376D01*
X89334646Y-55463376D02*
X89239408Y-55463376D01*
X88763217Y-56130043D02*
X88858455Y-56082424D01*
X88858455Y-56082424D02*
X88906074Y-56034804D01*
X88906074Y-56034804D02*
X88953693Y-55939566D01*
X88953693Y-55939566D02*
X88953693Y-55653852D01*
X88953693Y-55653852D02*
X88906074Y-55558614D01*
X88906074Y-55558614D02*
X88858455Y-55510995D01*
X88858455Y-55510995D02*
X88763217Y-55463376D01*
X88763217Y-55463376D02*
X88620360Y-55463376D01*
X88620360Y-55463376D02*
X88525122Y-55510995D01*
X88525122Y-55510995D02*
X88477503Y-55558614D01*
X88477503Y-55558614D02*
X88429884Y-55653852D01*
X88429884Y-55653852D02*
X88429884Y-55939566D01*
X88429884Y-55939566D02*
X88477503Y-56034804D01*
X88477503Y-56034804D02*
X88525122Y-56082424D01*
X88525122Y-56082424D02*
X88620360Y-56130043D01*
X88620360Y-56130043D02*
X88763217Y-56130043D01*
X87858455Y-56130043D02*
X87953693Y-56082424D01*
X87953693Y-56082424D02*
X88001312Y-55987185D01*
X88001312Y-55987185D02*
X88001312Y-55130043D01*
X87334645Y-56130043D02*
X87429883Y-56082424D01*
X87429883Y-56082424D02*
X87477502Y-55987185D01*
X87477502Y-55987185D02*
X87477502Y-55130043D01*
X86572740Y-56082424D02*
X86667978Y-56130043D01*
X86667978Y-56130043D02*
X86858454Y-56130043D01*
X86858454Y-56130043D02*
X86953692Y-56082424D01*
X86953692Y-56082424D02*
X87001311Y-55987185D01*
X87001311Y-55987185D02*
X87001311Y-55606233D01*
X87001311Y-55606233D02*
X86953692Y-55510995D01*
X86953692Y-55510995D02*
X86858454Y-55463376D01*
X86858454Y-55463376D02*
X86667978Y-55463376D01*
X86667978Y-55463376D02*
X86572740Y-55510995D01*
X86572740Y-55510995D02*
X86525121Y-55606233D01*
X86525121Y-55606233D02*
X86525121Y-55701471D01*
X86525121Y-55701471D02*
X87001311Y-55796709D01*
X86096549Y-56130043D02*
X86096549Y-55463376D01*
X86096549Y-55653852D02*
X86048930Y-55558614D01*
X86048930Y-55558614D02*
X86001311Y-55510995D01*
X86001311Y-55510995D02*
X85906073Y-55463376D01*
X85906073Y-55463376D02*
X85810835Y-55463376D01*
X104763220Y-57739987D02*
X104763220Y-56739987D01*
X104763220Y-56739987D02*
X104525125Y-56739987D01*
X104525125Y-56739987D02*
X104382268Y-56787606D01*
X104382268Y-56787606D02*
X104287030Y-56882844D01*
X104287030Y-56882844D02*
X104239411Y-56978082D01*
X104239411Y-56978082D02*
X104191792Y-57168558D01*
X104191792Y-57168558D02*
X104191792Y-57311415D01*
X104191792Y-57311415D02*
X104239411Y-57501891D01*
X104239411Y-57501891D02*
X104287030Y-57597129D01*
X104287030Y-57597129D02*
X104382268Y-57692368D01*
X104382268Y-57692368D02*
X104525125Y-57739987D01*
X104525125Y-57739987D02*
X104763220Y-57739987D01*
X103382268Y-57692368D02*
X103477506Y-57739987D01*
X103477506Y-57739987D02*
X103667982Y-57739987D01*
X103667982Y-57739987D02*
X103763220Y-57692368D01*
X103763220Y-57692368D02*
X103810839Y-57597129D01*
X103810839Y-57597129D02*
X103810839Y-57216177D01*
X103810839Y-57216177D02*
X103763220Y-57120939D01*
X103763220Y-57120939D02*
X103667982Y-57073320D01*
X103667982Y-57073320D02*
X103477506Y-57073320D01*
X103477506Y-57073320D02*
X103382268Y-57120939D01*
X103382268Y-57120939D02*
X103334649Y-57216177D01*
X103334649Y-57216177D02*
X103334649Y-57311415D01*
X103334649Y-57311415D02*
X103810839Y-57406653D01*
X102953696Y-57692368D02*
X102858458Y-57739987D01*
X102858458Y-57739987D02*
X102667982Y-57739987D01*
X102667982Y-57739987D02*
X102572744Y-57692368D01*
X102572744Y-57692368D02*
X102525125Y-57597129D01*
X102525125Y-57597129D02*
X102525125Y-57549510D01*
X102525125Y-57549510D02*
X102572744Y-57454272D01*
X102572744Y-57454272D02*
X102667982Y-57406653D01*
X102667982Y-57406653D02*
X102810839Y-57406653D01*
X102810839Y-57406653D02*
X102906077Y-57359034D01*
X102906077Y-57359034D02*
X102953696Y-57263796D01*
X102953696Y-57263796D02*
X102953696Y-57216177D01*
X102953696Y-57216177D02*
X102906077Y-57120939D01*
X102906077Y-57120939D02*
X102810839Y-57073320D01*
X102810839Y-57073320D02*
X102667982Y-57073320D01*
X102667982Y-57073320D02*
X102572744Y-57120939D01*
X102096553Y-57739987D02*
X102096553Y-57073320D01*
X102096553Y-56739987D02*
X102144172Y-56787606D01*
X102144172Y-56787606D02*
X102096553Y-56835225D01*
X102096553Y-56835225D02*
X102048934Y-56787606D01*
X102048934Y-56787606D02*
X102096553Y-56739987D01*
X102096553Y-56739987D02*
X102096553Y-56835225D01*
X101191792Y-57073320D02*
X101191792Y-57882844D01*
X101191792Y-57882844D02*
X101239411Y-57978082D01*
X101239411Y-57978082D02*
X101287030Y-58025701D01*
X101287030Y-58025701D02*
X101382268Y-58073320D01*
X101382268Y-58073320D02*
X101525125Y-58073320D01*
X101525125Y-58073320D02*
X101620363Y-58025701D01*
X101191792Y-57692368D02*
X101287030Y-57739987D01*
X101287030Y-57739987D02*
X101477506Y-57739987D01*
X101477506Y-57739987D02*
X101572744Y-57692368D01*
X101572744Y-57692368D02*
X101620363Y-57644748D01*
X101620363Y-57644748D02*
X101667982Y-57549510D01*
X101667982Y-57549510D02*
X101667982Y-57263796D01*
X101667982Y-57263796D02*
X101620363Y-57168558D01*
X101620363Y-57168558D02*
X101572744Y-57120939D01*
X101572744Y-57120939D02*
X101477506Y-57073320D01*
X101477506Y-57073320D02*
X101287030Y-57073320D01*
X101287030Y-57073320D02*
X101191792Y-57120939D01*
X100715601Y-57073320D02*
X100715601Y-57739987D01*
X100715601Y-57168558D02*
X100667982Y-57120939D01*
X100667982Y-57120939D02*
X100572744Y-57073320D01*
X100572744Y-57073320D02*
X100429887Y-57073320D01*
X100429887Y-57073320D02*
X100334649Y-57120939D01*
X100334649Y-57120939D02*
X100287030Y-57216177D01*
X100287030Y-57216177D02*
X100287030Y-57739987D01*
X99429887Y-57692368D02*
X99525125Y-57739987D01*
X99525125Y-57739987D02*
X99715601Y-57739987D01*
X99715601Y-57739987D02*
X99810839Y-57692368D01*
X99810839Y-57692368D02*
X99858458Y-57597129D01*
X99858458Y-57597129D02*
X99858458Y-57216177D01*
X99858458Y-57216177D02*
X99810839Y-57120939D01*
X99810839Y-57120939D02*
X99715601Y-57073320D01*
X99715601Y-57073320D02*
X99525125Y-57073320D01*
X99525125Y-57073320D02*
X99429887Y-57120939D01*
X99429887Y-57120939D02*
X99382268Y-57216177D01*
X99382268Y-57216177D02*
X99382268Y-57311415D01*
X99382268Y-57311415D02*
X99858458Y-57406653D01*
X98525125Y-57739987D02*
X98525125Y-56739987D01*
X98525125Y-57692368D02*
X98620363Y-57739987D01*
X98620363Y-57739987D02*
X98810839Y-57739987D01*
X98810839Y-57739987D02*
X98906077Y-57692368D01*
X98906077Y-57692368D02*
X98953696Y-57644748D01*
X98953696Y-57644748D02*
X99001315Y-57549510D01*
X99001315Y-57549510D02*
X99001315Y-57263796D01*
X99001315Y-57263796D02*
X98953696Y-57168558D01*
X98953696Y-57168558D02*
X98906077Y-57120939D01*
X98906077Y-57120939D02*
X98810839Y-57073320D01*
X98810839Y-57073320D02*
X98620363Y-57073320D01*
X98620363Y-57073320D02*
X98525125Y-57120939D01*
X97287029Y-57739987D02*
X97287029Y-56739987D01*
X97287029Y-57120939D02*
X97191791Y-57073320D01*
X97191791Y-57073320D02*
X97001315Y-57073320D01*
X97001315Y-57073320D02*
X96906077Y-57120939D01*
X96906077Y-57120939D02*
X96858458Y-57168558D01*
X96858458Y-57168558D02*
X96810839Y-57263796D01*
X96810839Y-57263796D02*
X96810839Y-57549510D01*
X96810839Y-57549510D02*
X96858458Y-57644748D01*
X96858458Y-57644748D02*
X96906077Y-57692368D01*
X96906077Y-57692368D02*
X97001315Y-57739987D01*
X97001315Y-57739987D02*
X97191791Y-57739987D01*
X97191791Y-57739987D02*
X97287029Y-57692368D01*
X96477505Y-57073320D02*
X96239410Y-57739987D01*
X96001315Y-57073320D02*
X96239410Y-57739987D01*
X96239410Y-57739987D02*
X96334648Y-57978082D01*
X96334648Y-57978082D02*
X96382267Y-58025701D01*
X96382267Y-58025701D02*
X96477505Y-58073320D01*
X94334648Y-56787606D02*
X94429886Y-56739987D01*
X94429886Y-56739987D02*
X94572743Y-56739987D01*
X94572743Y-56739987D02*
X94715600Y-56787606D01*
X94715600Y-56787606D02*
X94810838Y-56882844D01*
X94810838Y-56882844D02*
X94858457Y-56978082D01*
X94858457Y-56978082D02*
X94906076Y-57168558D01*
X94906076Y-57168558D02*
X94906076Y-57311415D01*
X94906076Y-57311415D02*
X94858457Y-57501891D01*
X94858457Y-57501891D02*
X94810838Y-57597129D01*
X94810838Y-57597129D02*
X94715600Y-57692368D01*
X94715600Y-57692368D02*
X94572743Y-57739987D01*
X94572743Y-57739987D02*
X94477505Y-57739987D01*
X94477505Y-57739987D02*
X94334648Y-57692368D01*
X94334648Y-57692368D02*
X94287029Y-57644748D01*
X94287029Y-57644748D02*
X94287029Y-57311415D01*
X94287029Y-57311415D02*
X94477505Y-57311415D01*
X93477505Y-57692368D02*
X93572743Y-57739987D01*
X93572743Y-57739987D02*
X93763219Y-57739987D01*
X93763219Y-57739987D02*
X93858457Y-57692368D01*
X93858457Y-57692368D02*
X93906076Y-57597129D01*
X93906076Y-57597129D02*
X93906076Y-57216177D01*
X93906076Y-57216177D02*
X93858457Y-57120939D01*
X93858457Y-57120939D02*
X93763219Y-57073320D01*
X93763219Y-57073320D02*
X93572743Y-57073320D01*
X93572743Y-57073320D02*
X93477505Y-57120939D01*
X93477505Y-57120939D02*
X93429886Y-57216177D01*
X93429886Y-57216177D02*
X93429886Y-57311415D01*
X93429886Y-57311415D02*
X93906076Y-57406653D01*
X92858457Y-57739987D02*
X92953695Y-57692368D01*
X92953695Y-57692368D02*
X93001314Y-57644748D01*
X93001314Y-57644748D02*
X93048933Y-57549510D01*
X93048933Y-57549510D02*
X93048933Y-57263796D01*
X93048933Y-57263796D02*
X93001314Y-57168558D01*
X93001314Y-57168558D02*
X92953695Y-57120939D01*
X92953695Y-57120939D02*
X92858457Y-57073320D01*
X92858457Y-57073320D02*
X92715600Y-57073320D01*
X92715600Y-57073320D02*
X92620362Y-57120939D01*
X92620362Y-57120939D02*
X92572743Y-57168558D01*
X92572743Y-57168558D02*
X92525124Y-57263796D01*
X92525124Y-57263796D02*
X92525124Y-57549510D01*
X92525124Y-57549510D02*
X92572743Y-57644748D01*
X92572743Y-57644748D02*
X92620362Y-57692368D01*
X92620362Y-57692368D02*
X92715600Y-57739987D01*
X92715600Y-57739987D02*
X92858457Y-57739987D01*
X92096552Y-57739987D02*
X92096552Y-57073320D01*
X92096552Y-57263796D02*
X92048933Y-57168558D01*
X92048933Y-57168558D02*
X92001314Y-57120939D01*
X92001314Y-57120939D02*
X91906076Y-57073320D01*
X91906076Y-57073320D02*
X91810838Y-57073320D01*
X91048933Y-57073320D02*
X91048933Y-57882844D01*
X91048933Y-57882844D02*
X91096552Y-57978082D01*
X91096552Y-57978082D02*
X91144171Y-58025701D01*
X91144171Y-58025701D02*
X91239409Y-58073320D01*
X91239409Y-58073320D02*
X91382266Y-58073320D01*
X91382266Y-58073320D02*
X91477504Y-58025701D01*
X91048933Y-57692368D02*
X91144171Y-57739987D01*
X91144171Y-57739987D02*
X91334647Y-57739987D01*
X91334647Y-57739987D02*
X91429885Y-57692368D01*
X91429885Y-57692368D02*
X91477504Y-57644748D01*
X91477504Y-57644748D02*
X91525123Y-57549510D01*
X91525123Y-57549510D02*
X91525123Y-57263796D01*
X91525123Y-57263796D02*
X91477504Y-57168558D01*
X91477504Y-57168558D02*
X91429885Y-57120939D01*
X91429885Y-57120939D02*
X91334647Y-57073320D01*
X91334647Y-57073320D02*
X91144171Y-57073320D01*
X91144171Y-57073320D02*
X91048933Y-57120939D01*
X90191790Y-57692368D02*
X90287028Y-57739987D01*
X90287028Y-57739987D02*
X90477504Y-57739987D01*
X90477504Y-57739987D02*
X90572742Y-57692368D01*
X90572742Y-57692368D02*
X90620361Y-57597129D01*
X90620361Y-57597129D02*
X90620361Y-57216177D01*
X90620361Y-57216177D02*
X90572742Y-57120939D01*
X90572742Y-57120939D02*
X90477504Y-57073320D01*
X90477504Y-57073320D02*
X90287028Y-57073320D01*
X90287028Y-57073320D02*
X90191790Y-57120939D01*
X90191790Y-57120939D02*
X90144171Y-57216177D01*
X90144171Y-57216177D02*
X90144171Y-57311415D01*
X90144171Y-57311415D02*
X90620361Y-57406653D01*
X88382266Y-57739987D02*
X88715599Y-57263796D01*
X88953694Y-57739987D02*
X88953694Y-56739987D01*
X88953694Y-56739987D02*
X88572742Y-56739987D01*
X88572742Y-56739987D02*
X88477504Y-56787606D01*
X88477504Y-56787606D02*
X88429885Y-56835225D01*
X88429885Y-56835225D02*
X88382266Y-56930463D01*
X88382266Y-56930463D02*
X88382266Y-57073320D01*
X88382266Y-57073320D02*
X88429885Y-57168558D01*
X88429885Y-57168558D02*
X88477504Y-57216177D01*
X88477504Y-57216177D02*
X88572742Y-57263796D01*
X88572742Y-57263796D02*
X88953694Y-57263796D01*
X87953694Y-57644748D02*
X87906075Y-57692368D01*
X87906075Y-57692368D02*
X87953694Y-57739987D01*
X87953694Y-57739987D02*
X88001313Y-57692368D01*
X88001313Y-57692368D02*
X87953694Y-57644748D01*
X87953694Y-57644748D02*
X87953694Y-57739987D01*
X86715599Y-57739987D02*
X86715599Y-56739987D01*
X86144171Y-57739987D02*
X86572742Y-57168558D01*
X86144171Y-56739987D02*
X86715599Y-57311415D01*
X85287028Y-57073320D02*
X85287028Y-57739987D01*
X85715599Y-57073320D02*
X85715599Y-57597129D01*
X85715599Y-57597129D02*
X85667980Y-57692368D01*
X85667980Y-57692368D02*
X85572742Y-57739987D01*
X85572742Y-57739987D02*
X85429885Y-57739987D01*
X85429885Y-57739987D02*
X85334647Y-57692368D01*
X85334647Y-57692368D02*
X85287028Y-57644748D01*
X84429885Y-57692368D02*
X84525123Y-57739987D01*
X84525123Y-57739987D02*
X84715599Y-57739987D01*
X84715599Y-57739987D02*
X84810837Y-57692368D01*
X84810837Y-57692368D02*
X84858456Y-57597129D01*
X84858456Y-57597129D02*
X84858456Y-57216177D01*
X84858456Y-57216177D02*
X84810837Y-57120939D01*
X84810837Y-57120939D02*
X84715599Y-57073320D01*
X84715599Y-57073320D02*
X84525123Y-57073320D01*
X84525123Y-57073320D02*
X84429885Y-57120939D01*
X84429885Y-57120939D02*
X84382266Y-57216177D01*
X84382266Y-57216177D02*
X84382266Y-57311415D01*
X84382266Y-57311415D02*
X84858456Y-57406653D01*
X83525123Y-57073320D02*
X83525123Y-57882844D01*
X83525123Y-57882844D02*
X83572742Y-57978082D01*
X83572742Y-57978082D02*
X83620361Y-58025701D01*
X83620361Y-58025701D02*
X83715599Y-58073320D01*
X83715599Y-58073320D02*
X83858456Y-58073320D01*
X83858456Y-58073320D02*
X83953694Y-58025701D01*
X83525123Y-57692368D02*
X83620361Y-57739987D01*
X83620361Y-57739987D02*
X83810837Y-57739987D01*
X83810837Y-57739987D02*
X83906075Y-57692368D01*
X83906075Y-57692368D02*
X83953694Y-57644748D01*
X83953694Y-57644748D02*
X84001313Y-57549510D01*
X84001313Y-57549510D02*
X84001313Y-57263796D01*
X84001313Y-57263796D02*
X83953694Y-57168558D01*
X83953694Y-57168558D02*
X83906075Y-57120939D01*
X83906075Y-57120939D02*
X83810837Y-57073320D01*
X83810837Y-57073320D02*
X83620361Y-57073320D01*
X83620361Y-57073320D02*
X83525123Y-57120939D01*
X82906075Y-57739987D02*
X83001313Y-57692368D01*
X83001313Y-57692368D02*
X83048932Y-57597129D01*
X83048932Y-57597129D02*
X83048932Y-56739987D01*
X82144170Y-57692368D02*
X82239408Y-57739987D01*
X82239408Y-57739987D02*
X82429884Y-57739987D01*
X82429884Y-57739987D02*
X82525122Y-57692368D01*
X82525122Y-57692368D02*
X82572741Y-57597129D01*
X82572741Y-57597129D02*
X82572741Y-57216177D01*
X82572741Y-57216177D02*
X82525122Y-57120939D01*
X82525122Y-57120939D02*
X82429884Y-57073320D01*
X82429884Y-57073320D02*
X82239408Y-57073320D01*
X82239408Y-57073320D02*
X82144170Y-57120939D01*
X82144170Y-57120939D02*
X82096551Y-57216177D01*
X82096551Y-57216177D02*
X82096551Y-57311415D01*
X82096551Y-57311415D02*
X82572741Y-57406653D01*
X81667979Y-57739987D02*
X81667979Y-57073320D01*
X81667979Y-57263796D02*
X81620360Y-57168558D01*
X81620360Y-57168558D02*
X81572741Y-57120939D01*
X81572741Y-57120939D02*
X81477503Y-57073320D01*
X81477503Y-57073320D02*
X81382265Y-57073320D01*
X104858458Y-58683264D02*
X104620363Y-59349931D01*
X104620363Y-59349931D02*
X104382268Y-58683264D01*
X103572744Y-58683264D02*
X103572744Y-59349931D01*
X103810839Y-58302312D02*
X104048934Y-59016597D01*
X104048934Y-59016597D02*
X103429887Y-59016597D01*
X103048934Y-59254692D02*
X103001315Y-59302312D01*
X103001315Y-59302312D02*
X103048934Y-59349931D01*
X103048934Y-59349931D02*
X103096553Y-59302312D01*
X103096553Y-59302312D02*
X103048934Y-59254692D01*
X103048934Y-59254692D02*
X103048934Y-59349931D01*
X102382268Y-58349931D02*
X102287030Y-58349931D01*
X102287030Y-58349931D02*
X102191792Y-58397550D01*
X102191792Y-58397550D02*
X102144173Y-58445169D01*
X102144173Y-58445169D02*
X102096554Y-58540407D01*
X102096554Y-58540407D02*
X102048935Y-58730883D01*
X102048935Y-58730883D02*
X102048935Y-58968978D01*
X102048935Y-58968978D02*
X102096554Y-59159454D01*
X102096554Y-59159454D02*
X102144173Y-59254692D01*
X102144173Y-59254692D02*
X102191792Y-59302312D01*
X102191792Y-59302312D02*
X102287030Y-59349931D01*
X102287030Y-59349931D02*
X102382268Y-59349931D01*
X102382268Y-59349931D02*
X102477506Y-59302312D01*
X102477506Y-59302312D02*
X102525125Y-59254692D01*
X102525125Y-59254692D02*
X102572744Y-59159454D01*
X102572744Y-59159454D02*
X102620363Y-58968978D01*
X102620363Y-58968978D02*
X102620363Y-58730883D01*
X102620363Y-58730883D02*
X102572744Y-58540407D01*
X102572744Y-58540407D02*
X102525125Y-58445169D01*
X102525125Y-58445169D02*
X102477506Y-58397550D01*
X102477506Y-58397550D02*
X102382268Y-58349931D01*
X100906077Y-58445169D02*
X100858458Y-58397550D01*
X100858458Y-58397550D02*
X100763220Y-58349931D01*
X100763220Y-58349931D02*
X100525125Y-58349931D01*
X100525125Y-58349931D02*
X100429887Y-58397550D01*
X100429887Y-58397550D02*
X100382268Y-58445169D01*
X100382268Y-58445169D02*
X100334649Y-58540407D01*
X100334649Y-58540407D02*
X100334649Y-58635645D01*
X100334649Y-58635645D02*
X100382268Y-58778502D01*
X100382268Y-58778502D02*
X100953696Y-59349931D01*
X100953696Y-59349931D02*
X100334649Y-59349931D01*
X99715601Y-58349931D02*
X99620363Y-58349931D01*
X99620363Y-58349931D02*
X99525125Y-58397550D01*
X99525125Y-58397550D02*
X99477506Y-58445169D01*
X99477506Y-58445169D02*
X99429887Y-58540407D01*
X99429887Y-58540407D02*
X99382268Y-58730883D01*
X99382268Y-58730883D02*
X99382268Y-58968978D01*
X99382268Y-58968978D02*
X99429887Y-59159454D01*
X99429887Y-59159454D02*
X99477506Y-59254692D01*
X99477506Y-59254692D02*
X99525125Y-59302312D01*
X99525125Y-59302312D02*
X99620363Y-59349931D01*
X99620363Y-59349931D02*
X99715601Y-59349931D01*
X99715601Y-59349931D02*
X99810839Y-59302312D01*
X99810839Y-59302312D02*
X99858458Y-59254692D01*
X99858458Y-59254692D02*
X99906077Y-59159454D01*
X99906077Y-59159454D02*
X99953696Y-58968978D01*
X99953696Y-58968978D02*
X99953696Y-58730883D01*
X99953696Y-58730883D02*
X99906077Y-58540407D01*
X99906077Y-58540407D02*
X99858458Y-58445169D01*
X99858458Y-58445169D02*
X99810839Y-58397550D01*
X99810839Y-58397550D02*
X99715601Y-58349931D01*
X99001315Y-58445169D02*
X98953696Y-58397550D01*
X98953696Y-58397550D02*
X98858458Y-58349931D01*
X98858458Y-58349931D02*
X98620363Y-58349931D01*
X98620363Y-58349931D02*
X98525125Y-58397550D01*
X98525125Y-58397550D02*
X98477506Y-58445169D01*
X98477506Y-58445169D02*
X98429887Y-58540407D01*
X98429887Y-58540407D02*
X98429887Y-58635645D01*
X98429887Y-58635645D02*
X98477506Y-58778502D01*
X98477506Y-58778502D02*
X99048934Y-59349931D01*
X99048934Y-59349931D02*
X98429887Y-59349931D01*
X97572744Y-58349931D02*
X97763220Y-58349931D01*
X97763220Y-58349931D02*
X97858458Y-58397550D01*
X97858458Y-58397550D02*
X97906077Y-58445169D01*
X97906077Y-58445169D02*
X98001315Y-58588026D01*
X98001315Y-58588026D02*
X98048934Y-58778502D01*
X98048934Y-58778502D02*
X98048934Y-59159454D01*
X98048934Y-59159454D02*
X98001315Y-59254692D01*
X98001315Y-59254692D02*
X97953696Y-59302312D01*
X97953696Y-59302312D02*
X97858458Y-59349931D01*
X97858458Y-59349931D02*
X97667982Y-59349931D01*
X97667982Y-59349931D02*
X97572744Y-59302312D01*
X97572744Y-59302312D02*
X97525125Y-59254692D01*
X97525125Y-59254692D02*
X97477506Y-59159454D01*
X97477506Y-59159454D02*
X97477506Y-58921359D01*
X97477506Y-58921359D02*
X97525125Y-58826121D01*
X97525125Y-58826121D02*
X97572744Y-58778502D01*
X97572744Y-58778502D02*
X97667982Y-58730883D01*
X97667982Y-58730883D02*
X97858458Y-58730883D01*
X97858458Y-58730883D02*
X97953696Y-58778502D01*
X97953696Y-58778502D02*
X98001315Y-58826121D01*
X98001315Y-58826121D02*
X98048934Y-58921359D01*
X97048934Y-58968978D02*
X96287030Y-58968978D01*
X95620363Y-58349931D02*
X95525125Y-58349931D01*
X95525125Y-58349931D02*
X95429887Y-58397550D01*
X95429887Y-58397550D02*
X95382268Y-58445169D01*
X95382268Y-58445169D02*
X95334649Y-58540407D01*
X95334649Y-58540407D02*
X95287030Y-58730883D01*
X95287030Y-58730883D02*
X95287030Y-58968978D01*
X95287030Y-58968978D02*
X95334649Y-59159454D01*
X95334649Y-59159454D02*
X95382268Y-59254692D01*
X95382268Y-59254692D02*
X95429887Y-59302312D01*
X95429887Y-59302312D02*
X95525125Y-59349931D01*
X95525125Y-59349931D02*
X95620363Y-59349931D01*
X95620363Y-59349931D02*
X95715601Y-59302312D01*
X95715601Y-59302312D02*
X95763220Y-59254692D01*
X95763220Y-59254692D02*
X95810839Y-59159454D01*
X95810839Y-59159454D02*
X95858458Y-58968978D01*
X95858458Y-58968978D02*
X95858458Y-58730883D01*
X95858458Y-58730883D02*
X95810839Y-58540407D01*
X95810839Y-58540407D02*
X95763220Y-58445169D01*
X95763220Y-58445169D02*
X95715601Y-58397550D01*
X95715601Y-58397550D02*
X95620363Y-58349931D01*
X94334649Y-59349931D02*
X94906077Y-59349931D01*
X94620363Y-59349931D02*
X94620363Y-58349931D01*
X94620363Y-58349931D02*
X94715601Y-58492788D01*
X94715601Y-58492788D02*
X94810839Y-58588026D01*
X94810839Y-58588026D02*
X94906077Y-58635645D01*
X93906077Y-58968978D02*
X93144173Y-58968978D01*
X92144173Y-59349931D02*
X92715601Y-59349931D01*
X92429887Y-59349931D02*
X92429887Y-58349931D01*
X92429887Y-58349931D02*
X92525125Y-58492788D01*
X92525125Y-58492788D02*
X92620363Y-58588026D01*
X92620363Y-58588026D02*
X92715601Y-58635645D01*
X91287030Y-58349931D02*
X91477506Y-58349931D01*
X91477506Y-58349931D02*
X91572744Y-58397550D01*
X91572744Y-58397550D02*
X91620363Y-58445169D01*
X91620363Y-58445169D02*
X91715601Y-58588026D01*
X91715601Y-58588026D02*
X91763220Y-58778502D01*
X91763220Y-58778502D02*
X91763220Y-59159454D01*
X91763220Y-59159454D02*
X91715601Y-59254692D01*
X91715601Y-59254692D02*
X91667982Y-59302312D01*
X91667982Y-59302312D02*
X91572744Y-59349931D01*
X91572744Y-59349931D02*
X91382268Y-59349931D01*
X91382268Y-59349931D02*
X91287030Y-59302312D01*
X91287030Y-59302312D02*
X91239411Y-59254692D01*
X91239411Y-59254692D02*
X91191792Y-59159454D01*
X91191792Y-59159454D02*
X91191792Y-58921359D01*
X91191792Y-58921359D02*
X91239411Y-58826121D01*
X91239411Y-58826121D02*
X91287030Y-58778502D01*
X91287030Y-58778502D02*
X91382268Y-58730883D01*
X91382268Y-58730883D02*
X91572744Y-58730883D01*
X91572744Y-58730883D02*
X91667982Y-58778502D01*
X91667982Y-58778502D02*
X91715601Y-58826121D01*
X91715601Y-58826121D02*
X91763220Y-58921359D01*
X104763220Y-60959875D02*
X104763220Y-59959875D01*
X104763220Y-60436065D02*
X104191792Y-60436065D01*
X104191792Y-60959875D02*
X104191792Y-59959875D01*
X103287030Y-60959875D02*
X103287030Y-60436065D01*
X103287030Y-60436065D02*
X103334649Y-60340827D01*
X103334649Y-60340827D02*
X103429887Y-60293208D01*
X103429887Y-60293208D02*
X103620363Y-60293208D01*
X103620363Y-60293208D02*
X103715601Y-60340827D01*
X103287030Y-60912256D02*
X103382268Y-60959875D01*
X103382268Y-60959875D02*
X103620363Y-60959875D01*
X103620363Y-60959875D02*
X103715601Y-60912256D01*
X103715601Y-60912256D02*
X103763220Y-60817017D01*
X103763220Y-60817017D02*
X103763220Y-60721779D01*
X103763220Y-60721779D02*
X103715601Y-60626541D01*
X103715601Y-60626541D02*
X103620363Y-60578922D01*
X103620363Y-60578922D02*
X103382268Y-60578922D01*
X103382268Y-60578922D02*
X103287030Y-60531303D01*
X102906077Y-60293208D02*
X102667982Y-60959875D01*
X102667982Y-60959875D02*
X102429887Y-60293208D01*
X101667982Y-60912256D02*
X101763220Y-60959875D01*
X101763220Y-60959875D02*
X101953696Y-60959875D01*
X101953696Y-60959875D02*
X102048934Y-60912256D01*
X102048934Y-60912256D02*
X102096553Y-60817017D01*
X102096553Y-60817017D02*
X102096553Y-60436065D01*
X102096553Y-60436065D02*
X102048934Y-60340827D01*
X102048934Y-60340827D02*
X101953696Y-60293208D01*
X101953696Y-60293208D02*
X101763220Y-60293208D01*
X101763220Y-60293208D02*
X101667982Y-60340827D01*
X101667982Y-60340827D02*
X101620363Y-60436065D01*
X101620363Y-60436065D02*
X101620363Y-60531303D01*
X101620363Y-60531303D02*
X102096553Y-60626541D01*
X101191791Y-60959875D02*
X101191791Y-60293208D01*
X101191791Y-60483684D02*
X101144172Y-60388446D01*
X101144172Y-60388446D02*
X101096553Y-60340827D01*
X101096553Y-60340827D02*
X101001315Y-60293208D01*
X101001315Y-60293208D02*
X100906077Y-60293208D01*
X100572743Y-60959875D02*
X100572743Y-59959875D01*
X100144172Y-60959875D02*
X100144172Y-60436065D01*
X100144172Y-60436065D02*
X100191791Y-60340827D01*
X100191791Y-60340827D02*
X100287029Y-60293208D01*
X100287029Y-60293208D02*
X100429886Y-60293208D01*
X100429886Y-60293208D02*
X100525124Y-60340827D01*
X100525124Y-60340827D02*
X100572743Y-60388446D01*
X99667981Y-60959875D02*
X99667981Y-60293208D01*
X99667981Y-59959875D02*
X99715600Y-60007494D01*
X99715600Y-60007494D02*
X99667981Y-60055113D01*
X99667981Y-60055113D02*
X99620362Y-60007494D01*
X99620362Y-60007494D02*
X99667981Y-59959875D01*
X99667981Y-59959875D02*
X99667981Y-60055113D01*
X99048934Y-60959875D02*
X99144172Y-60912256D01*
X99144172Y-60912256D02*
X99191791Y-60817017D01*
X99191791Y-60817017D02*
X99191791Y-59959875D01*
X98525124Y-60959875D02*
X98620362Y-60912256D01*
X98620362Y-60912256D02*
X98667981Y-60817017D01*
X98667981Y-60817017D02*
X98667981Y-59959875D01*
X98096552Y-60912256D02*
X98096552Y-60959875D01*
X98096552Y-60959875D02*
X98144171Y-61055113D01*
X98144171Y-61055113D02*
X98191790Y-61102732D01*
X96906076Y-60959875D02*
X96906076Y-59959875D01*
X96906076Y-59959875D02*
X96572743Y-60674160D01*
X96572743Y-60674160D02*
X96239410Y-59959875D01*
X96239410Y-59959875D02*
X96239410Y-60959875D01*
X95810838Y-60674160D02*
X95334648Y-60674160D01*
X95906076Y-60959875D02*
X95572743Y-59959875D01*
X95572743Y-59959875D02*
X95239410Y-60959875D01*
X104334649Y-61903152D02*
X104334649Y-62712676D01*
X104334649Y-62712676D02*
X104382268Y-62807914D01*
X104382268Y-62807914D02*
X104429887Y-62855533D01*
X104429887Y-62855533D02*
X104525125Y-62903152D01*
X104525125Y-62903152D02*
X104667982Y-62903152D01*
X104667982Y-62903152D02*
X104763220Y-62855533D01*
X104334649Y-62522200D02*
X104429887Y-62569819D01*
X104429887Y-62569819D02*
X104620363Y-62569819D01*
X104620363Y-62569819D02*
X104715601Y-62522200D01*
X104715601Y-62522200D02*
X104763220Y-62474580D01*
X104763220Y-62474580D02*
X104810839Y-62379342D01*
X104810839Y-62379342D02*
X104810839Y-62093628D01*
X104810839Y-62093628D02*
X104763220Y-61998390D01*
X104763220Y-61998390D02*
X104715601Y-61950771D01*
X104715601Y-61950771D02*
X104620363Y-61903152D01*
X104620363Y-61903152D02*
X104429887Y-61903152D01*
X104429887Y-61903152D02*
X104334649Y-61950771D01*
X103858458Y-62569819D02*
X103858458Y-61903152D01*
X103858458Y-61569819D02*
X103906077Y-61617438D01*
X103906077Y-61617438D02*
X103858458Y-61665057D01*
X103858458Y-61665057D02*
X103810839Y-61617438D01*
X103810839Y-61617438D02*
X103858458Y-61569819D01*
X103858458Y-61569819D02*
X103858458Y-61665057D01*
X103525125Y-61903152D02*
X103144173Y-61903152D01*
X103382268Y-61569819D02*
X103382268Y-62426961D01*
X103382268Y-62426961D02*
X103334649Y-62522200D01*
X103334649Y-62522200D02*
X103239411Y-62569819D01*
X103239411Y-62569819D02*
X103144173Y-62569819D01*
X102810839Y-62569819D02*
X102810839Y-61569819D01*
X102382268Y-62569819D02*
X102382268Y-62046009D01*
X102382268Y-62046009D02*
X102429887Y-61950771D01*
X102429887Y-61950771D02*
X102525125Y-61903152D01*
X102525125Y-61903152D02*
X102667982Y-61903152D01*
X102667982Y-61903152D02*
X102763220Y-61950771D01*
X102763220Y-61950771D02*
X102810839Y-61998390D01*
X101477506Y-61903152D02*
X101477506Y-62569819D01*
X101906077Y-61903152D02*
X101906077Y-62426961D01*
X101906077Y-62426961D02*
X101858458Y-62522200D01*
X101858458Y-62522200D02*
X101763220Y-62569819D01*
X101763220Y-62569819D02*
X101620363Y-62569819D01*
X101620363Y-62569819D02*
X101525125Y-62522200D01*
X101525125Y-62522200D02*
X101477506Y-62474580D01*
X101001315Y-62569819D02*
X101001315Y-61569819D01*
X101001315Y-61950771D02*
X100906077Y-61903152D01*
X100906077Y-61903152D02*
X100715601Y-61903152D01*
X100715601Y-61903152D02*
X100620363Y-61950771D01*
X100620363Y-61950771D02*
X100572744Y-61998390D01*
X100572744Y-61998390D02*
X100525125Y-62093628D01*
X100525125Y-62093628D02*
X100525125Y-62379342D01*
X100525125Y-62379342D02*
X100572744Y-62474580D01*
X100572744Y-62474580D02*
X100620363Y-62522200D01*
X100620363Y-62522200D02*
X100715601Y-62569819D01*
X100715601Y-62569819D02*
X100906077Y-62569819D01*
X100906077Y-62569819D02*
X101001315Y-62522200D01*
X100096553Y-62474580D02*
X100048934Y-62522200D01*
X100048934Y-62522200D02*
X100096553Y-62569819D01*
X100096553Y-62569819D02*
X100144172Y-62522200D01*
X100144172Y-62522200D02*
X100096553Y-62474580D01*
X100096553Y-62474580D02*
X100096553Y-62569819D01*
X99191792Y-62522200D02*
X99287030Y-62569819D01*
X99287030Y-62569819D02*
X99477506Y-62569819D01*
X99477506Y-62569819D02*
X99572744Y-62522200D01*
X99572744Y-62522200D02*
X99620363Y-62474580D01*
X99620363Y-62474580D02*
X99667982Y-62379342D01*
X99667982Y-62379342D02*
X99667982Y-62093628D01*
X99667982Y-62093628D02*
X99620363Y-61998390D01*
X99620363Y-61998390D02*
X99572744Y-61950771D01*
X99572744Y-61950771D02*
X99477506Y-61903152D01*
X99477506Y-61903152D02*
X99287030Y-61903152D01*
X99287030Y-61903152D02*
X99191792Y-61950771D01*
X98620363Y-62569819D02*
X98715601Y-62522200D01*
X98715601Y-62522200D02*
X98763220Y-62474580D01*
X98763220Y-62474580D02*
X98810839Y-62379342D01*
X98810839Y-62379342D02*
X98810839Y-62093628D01*
X98810839Y-62093628D02*
X98763220Y-61998390D01*
X98763220Y-61998390D02*
X98715601Y-61950771D01*
X98715601Y-61950771D02*
X98620363Y-61903152D01*
X98620363Y-61903152D02*
X98477506Y-61903152D01*
X98477506Y-61903152D02*
X98382268Y-61950771D01*
X98382268Y-61950771D02*
X98334649Y-61998390D01*
X98334649Y-61998390D02*
X98287030Y-62093628D01*
X98287030Y-62093628D02*
X98287030Y-62379342D01*
X98287030Y-62379342D02*
X98334649Y-62474580D01*
X98334649Y-62474580D02*
X98382268Y-62522200D01*
X98382268Y-62522200D02*
X98477506Y-62569819D01*
X98477506Y-62569819D02*
X98620363Y-62569819D01*
X97858458Y-62569819D02*
X97858458Y-61903152D01*
X97858458Y-61998390D02*
X97810839Y-61950771D01*
X97810839Y-61950771D02*
X97715601Y-61903152D01*
X97715601Y-61903152D02*
X97572744Y-61903152D01*
X97572744Y-61903152D02*
X97477506Y-61950771D01*
X97477506Y-61950771D02*
X97429887Y-62046009D01*
X97429887Y-62046009D02*
X97429887Y-62569819D01*
X97429887Y-62046009D02*
X97382268Y-61950771D01*
X97382268Y-61950771D02*
X97287030Y-61903152D01*
X97287030Y-61903152D02*
X97144173Y-61903152D01*
X97144173Y-61903152D02*
X97048934Y-61950771D01*
X97048934Y-61950771D02*
X97001315Y-62046009D01*
X97001315Y-62046009D02*
X97001315Y-62569819D01*
X95810840Y-61522200D02*
X96667982Y-62807914D01*
X95048935Y-61903152D02*
X95048935Y-62712676D01*
X95048935Y-62712676D02*
X95096554Y-62807914D01*
X95096554Y-62807914D02*
X95144173Y-62855533D01*
X95144173Y-62855533D02*
X95239411Y-62903152D01*
X95239411Y-62903152D02*
X95382268Y-62903152D01*
X95382268Y-62903152D02*
X95477506Y-62855533D01*
X95048935Y-62522200D02*
X95144173Y-62569819D01*
X95144173Y-62569819D02*
X95334649Y-62569819D01*
X95334649Y-62569819D02*
X95429887Y-62522200D01*
X95429887Y-62522200D02*
X95477506Y-62474580D01*
X95477506Y-62474580D02*
X95525125Y-62379342D01*
X95525125Y-62379342D02*
X95525125Y-62093628D01*
X95525125Y-62093628D02*
X95477506Y-61998390D01*
X95477506Y-61998390D02*
X95429887Y-61950771D01*
X95429887Y-61950771D02*
X95334649Y-61903152D01*
X95334649Y-61903152D02*
X95144173Y-61903152D01*
X95144173Y-61903152D02*
X95048935Y-61950771D01*
X94572744Y-62569819D02*
X94572744Y-61569819D01*
X94477506Y-62188866D02*
X94191792Y-62569819D01*
X94191792Y-61903152D02*
X94572744Y-62284104D01*
X93334649Y-61903152D02*
X93334649Y-62569819D01*
X93763220Y-61903152D02*
X93763220Y-62426961D01*
X93763220Y-62426961D02*
X93715601Y-62522200D01*
X93715601Y-62522200D02*
X93620363Y-62569819D01*
X93620363Y-62569819D02*
X93477506Y-62569819D01*
X93477506Y-62569819D02*
X93382268Y-62522200D01*
X93382268Y-62522200D02*
X93334649Y-62474580D01*
X92477506Y-62522200D02*
X92572744Y-62569819D01*
X92572744Y-62569819D02*
X92763220Y-62569819D01*
X92763220Y-62569819D02*
X92858458Y-62522200D01*
X92858458Y-62522200D02*
X92906077Y-62426961D01*
X92906077Y-62426961D02*
X92906077Y-62046009D01*
X92906077Y-62046009D02*
X92858458Y-61950771D01*
X92858458Y-61950771D02*
X92763220Y-61903152D01*
X92763220Y-61903152D02*
X92572744Y-61903152D01*
X92572744Y-61903152D02*
X92477506Y-61950771D01*
X92477506Y-61950771D02*
X92429887Y-62046009D01*
X92429887Y-62046009D02*
X92429887Y-62141247D01*
X92429887Y-62141247D02*
X92906077Y-62236485D01*
X91572744Y-61903152D02*
X91572744Y-62712676D01*
X91572744Y-62712676D02*
X91620363Y-62807914D01*
X91620363Y-62807914D02*
X91667982Y-62855533D01*
X91667982Y-62855533D02*
X91763220Y-62903152D01*
X91763220Y-62903152D02*
X91906077Y-62903152D01*
X91906077Y-62903152D02*
X92001315Y-62855533D01*
X91572744Y-62522200D02*
X91667982Y-62569819D01*
X91667982Y-62569819D02*
X91858458Y-62569819D01*
X91858458Y-62569819D02*
X91953696Y-62522200D01*
X91953696Y-62522200D02*
X92001315Y-62474580D01*
X92001315Y-62474580D02*
X92048934Y-62379342D01*
X92048934Y-62379342D02*
X92048934Y-62093628D01*
X92048934Y-62093628D02*
X92001315Y-61998390D01*
X92001315Y-61998390D02*
X91953696Y-61950771D01*
X91953696Y-61950771D02*
X91858458Y-61903152D01*
X91858458Y-61903152D02*
X91667982Y-61903152D01*
X91667982Y-61903152D02*
X91572744Y-61950771D01*
X90953696Y-62569819D02*
X91048934Y-62522200D01*
X91048934Y-62522200D02*
X91096553Y-62426961D01*
X91096553Y-62426961D02*
X91096553Y-61569819D01*
X90191791Y-62522200D02*
X90287029Y-62569819D01*
X90287029Y-62569819D02*
X90477505Y-62569819D01*
X90477505Y-62569819D02*
X90572743Y-62522200D01*
X90572743Y-62522200D02*
X90620362Y-62426961D01*
X90620362Y-62426961D02*
X90620362Y-62046009D01*
X90620362Y-62046009D02*
X90572743Y-61950771D01*
X90572743Y-61950771D02*
X90477505Y-61903152D01*
X90477505Y-61903152D02*
X90287029Y-61903152D01*
X90287029Y-61903152D02*
X90191791Y-61950771D01*
X90191791Y-61950771D02*
X90144172Y-62046009D01*
X90144172Y-62046009D02*
X90144172Y-62141247D01*
X90144172Y-62141247D02*
X90620362Y-62236485D01*
X89715600Y-62569819D02*
X89715600Y-61903152D01*
X89715600Y-62093628D02*
X89667981Y-61998390D01*
X89667981Y-61998390D02*
X89620362Y-61950771D01*
X89620362Y-61950771D02*
X89525124Y-61903152D01*
X89525124Y-61903152D02*
X89429886Y-61903152D01*
X100516666Y-87404819D02*
X100849999Y-86928628D01*
X101088094Y-87404819D02*
X101088094Y-86404819D01*
X101088094Y-86404819D02*
X100707142Y-86404819D01*
X100707142Y-86404819D02*
X100611904Y-86452438D01*
X100611904Y-86452438D02*
X100564285Y-86500057D01*
X100564285Y-86500057D02*
X100516666Y-86595295D01*
X100516666Y-86595295D02*
X100516666Y-86738152D01*
X100516666Y-86738152D02*
X100564285Y-86833390D01*
X100564285Y-86833390D02*
X100611904Y-86881009D01*
X100611904Y-86881009D02*
X100707142Y-86928628D01*
X100707142Y-86928628D02*
X101088094Y-86928628D01*
X99611904Y-86404819D02*
X100088094Y-86404819D01*
X100088094Y-86404819D02*
X100135713Y-86881009D01*
X100135713Y-86881009D02*
X100088094Y-86833390D01*
X100088094Y-86833390D02*
X99992856Y-86785771D01*
X99992856Y-86785771D02*
X99754761Y-86785771D01*
X99754761Y-86785771D02*
X99659523Y-86833390D01*
X99659523Y-86833390D02*
X99611904Y-86881009D01*
X99611904Y-86881009D02*
X99564285Y-86976247D01*
X99564285Y-86976247D02*
X99564285Y-87214342D01*
X99564285Y-87214342D02*
X99611904Y-87309580D01*
X99611904Y-87309580D02*
X99659523Y-87357200D01*
X99659523Y-87357200D02*
X99754761Y-87404819D01*
X99754761Y-87404819D02*
X99992856Y-87404819D01*
X99992856Y-87404819D02*
X100088094Y-87357200D01*
X100088094Y-87357200D02*
X100135713Y-87309580D01*
X105766666Y-64859580D02*
X105814285Y-64907200D01*
X105814285Y-64907200D02*
X105957142Y-64954819D01*
X105957142Y-64954819D02*
X106052380Y-64954819D01*
X106052380Y-64954819D02*
X106195237Y-64907200D01*
X106195237Y-64907200D02*
X106290475Y-64811961D01*
X106290475Y-64811961D02*
X106338094Y-64716723D01*
X106338094Y-64716723D02*
X106385713Y-64526247D01*
X106385713Y-64526247D02*
X106385713Y-64383390D01*
X106385713Y-64383390D02*
X106338094Y-64192914D01*
X106338094Y-64192914D02*
X106290475Y-64097676D01*
X106290475Y-64097676D02*
X106195237Y-64002438D01*
X106195237Y-64002438D02*
X106052380Y-63954819D01*
X106052380Y-63954819D02*
X105957142Y-63954819D01*
X105957142Y-63954819D02*
X105814285Y-64002438D01*
X105814285Y-64002438D02*
X105766666Y-64050057D01*
X104909523Y-64288152D02*
X104909523Y-64954819D01*
X105147618Y-63907200D02*
X105385713Y-64621485D01*
X105385713Y-64621485D02*
X104766666Y-64621485D01*
X88945180Y-67842857D02*
X89421371Y-68176190D01*
X88945180Y-68414285D02*
X89945180Y-68414285D01*
X89945180Y-68414285D02*
X89945180Y-68033333D01*
X89945180Y-68033333D02*
X89897561Y-67938095D01*
X89897561Y-67938095D02*
X89849942Y-67890476D01*
X89849942Y-67890476D02*
X89754704Y-67842857D01*
X89754704Y-67842857D02*
X89611847Y-67842857D01*
X89611847Y-67842857D02*
X89516609Y-67890476D01*
X89516609Y-67890476D02*
X89468990Y-67938095D01*
X89468990Y-67938095D02*
X89421371Y-68033333D01*
X89421371Y-68033333D02*
X89421371Y-68414285D01*
X88945180Y-66890476D02*
X88945180Y-67461904D01*
X88945180Y-67176190D02*
X89945180Y-67176190D01*
X89945180Y-67176190D02*
X89802323Y-67271428D01*
X89802323Y-67271428D02*
X89707085Y-67366666D01*
X89707085Y-67366666D02*
X89659466Y-67461904D01*
X89945180Y-65985714D02*
X89945180Y-66461904D01*
X89945180Y-66461904D02*
X89468990Y-66509523D01*
X89468990Y-66509523D02*
X89516609Y-66461904D01*
X89516609Y-66461904D02*
X89564228Y-66366666D01*
X89564228Y-66366666D02*
X89564228Y-66128571D01*
X89564228Y-66128571D02*
X89516609Y-66033333D01*
X89516609Y-66033333D02*
X89468990Y-65985714D01*
X89468990Y-65985714D02*
X89373752Y-65938095D01*
X89373752Y-65938095D02*
X89135657Y-65938095D01*
X89135657Y-65938095D02*
X89040419Y-65985714D01*
X89040419Y-65985714D02*
X88992800Y-66033333D01*
X88992800Y-66033333D02*
X88945180Y-66128571D01*
X88945180Y-66128571D02*
X88945180Y-66366666D01*
X88945180Y-66366666D02*
X88992800Y-66461904D01*
X88992800Y-66461904D02*
X89040419Y-66509523D01*
X130342857Y-82954819D02*
X130676190Y-82478628D01*
X130914285Y-82954819D02*
X130914285Y-81954819D01*
X130914285Y-81954819D02*
X130533333Y-81954819D01*
X130533333Y-81954819D02*
X130438095Y-82002438D01*
X130438095Y-82002438D02*
X130390476Y-82050057D01*
X130390476Y-82050057D02*
X130342857Y-82145295D01*
X130342857Y-82145295D02*
X130342857Y-82288152D01*
X130342857Y-82288152D02*
X130390476Y-82383390D01*
X130390476Y-82383390D02*
X130438095Y-82431009D01*
X130438095Y-82431009D02*
X130533333Y-82478628D01*
X130533333Y-82478628D02*
X130914285Y-82478628D01*
X129390476Y-82954819D02*
X129961904Y-82954819D01*
X129676190Y-82954819D02*
X129676190Y-81954819D01*
X129676190Y-81954819D02*
X129771428Y-82097676D01*
X129771428Y-82097676D02*
X129866666Y-82192914D01*
X129866666Y-82192914D02*
X129961904Y-82240533D01*
X128533333Y-82288152D02*
X128533333Y-82954819D01*
X128771428Y-81907200D02*
X129009523Y-82621485D01*
X129009523Y-82621485D02*
X128390476Y-82621485D01*
X103366666Y-78859580D02*
X103414285Y-78907200D01*
X103414285Y-78907200D02*
X103557142Y-78954819D01*
X103557142Y-78954819D02*
X103652380Y-78954819D01*
X103652380Y-78954819D02*
X103795237Y-78907200D01*
X103795237Y-78907200D02*
X103890475Y-78811961D01*
X103890475Y-78811961D02*
X103938094Y-78716723D01*
X103938094Y-78716723D02*
X103985713Y-78526247D01*
X103985713Y-78526247D02*
X103985713Y-78383390D01*
X103985713Y-78383390D02*
X103938094Y-78192914D01*
X103938094Y-78192914D02*
X103890475Y-78097676D01*
X103890475Y-78097676D02*
X103795237Y-78002438D01*
X103795237Y-78002438D02*
X103652380Y-77954819D01*
X103652380Y-77954819D02*
X103557142Y-77954819D01*
X103557142Y-77954819D02*
X103414285Y-78002438D01*
X103414285Y-78002438D02*
X103366666Y-78050057D01*
X102985713Y-78050057D02*
X102938094Y-78002438D01*
X102938094Y-78002438D02*
X102842856Y-77954819D01*
X102842856Y-77954819D02*
X102604761Y-77954819D01*
X102604761Y-77954819D02*
X102509523Y-78002438D01*
X102509523Y-78002438D02*
X102461904Y-78050057D01*
X102461904Y-78050057D02*
X102414285Y-78145295D01*
X102414285Y-78145295D02*
X102414285Y-78240533D01*
X102414285Y-78240533D02*
X102461904Y-78383390D01*
X102461904Y-78383390D02*
X103033332Y-78954819D01*
X103033332Y-78954819D02*
X102414285Y-78954819D01*
X95045180Y-67842857D02*
X95521371Y-68176190D01*
X95045180Y-68414285D02*
X96045180Y-68414285D01*
X96045180Y-68414285D02*
X96045180Y-68033333D01*
X96045180Y-68033333D02*
X95997561Y-67938095D01*
X95997561Y-67938095D02*
X95949942Y-67890476D01*
X95949942Y-67890476D02*
X95854704Y-67842857D01*
X95854704Y-67842857D02*
X95711847Y-67842857D01*
X95711847Y-67842857D02*
X95616609Y-67890476D01*
X95616609Y-67890476D02*
X95568990Y-67938095D01*
X95568990Y-67938095D02*
X95521371Y-68033333D01*
X95521371Y-68033333D02*
X95521371Y-68414285D01*
X95045180Y-66890476D02*
X95045180Y-67461904D01*
X95045180Y-67176190D02*
X96045180Y-67176190D01*
X96045180Y-67176190D02*
X95902323Y-67271428D01*
X95902323Y-67271428D02*
X95807085Y-67366666D01*
X95807085Y-67366666D02*
X95759466Y-67461904D01*
X96045180Y-66033333D02*
X96045180Y-66223809D01*
X96045180Y-66223809D02*
X95997561Y-66319047D01*
X95997561Y-66319047D02*
X95949942Y-66366666D01*
X95949942Y-66366666D02*
X95807085Y-66461904D01*
X95807085Y-66461904D02*
X95616609Y-66509523D01*
X95616609Y-66509523D02*
X95235657Y-66509523D01*
X95235657Y-66509523D02*
X95140419Y-66461904D01*
X95140419Y-66461904D02*
X95092800Y-66414285D01*
X95092800Y-66414285D02*
X95045180Y-66319047D01*
X95045180Y-66319047D02*
X95045180Y-66128571D01*
X95045180Y-66128571D02*
X95092800Y-66033333D01*
X95092800Y-66033333D02*
X95140419Y-65985714D01*
X95140419Y-65985714D02*
X95235657Y-65938095D01*
X95235657Y-65938095D02*
X95473752Y-65938095D01*
X95473752Y-65938095D02*
X95568990Y-65985714D01*
X95568990Y-65985714D02*
X95616609Y-66033333D01*
X95616609Y-66033333D02*
X95664228Y-66128571D01*
X95664228Y-66128571D02*
X95664228Y-66319047D01*
X95664228Y-66319047D02*
X95616609Y-66414285D01*
X95616609Y-66414285D02*
X95568990Y-66461904D01*
X95568990Y-66461904D02*
X95473752Y-66509523D01*
X118577857Y-65654819D02*
X118911190Y-65178628D01*
X119149285Y-65654819D02*
X119149285Y-64654819D01*
X119149285Y-64654819D02*
X118768333Y-64654819D01*
X118768333Y-64654819D02*
X118673095Y-64702438D01*
X118673095Y-64702438D02*
X118625476Y-64750057D01*
X118625476Y-64750057D02*
X118577857Y-64845295D01*
X118577857Y-64845295D02*
X118577857Y-64988152D01*
X118577857Y-64988152D02*
X118625476Y-65083390D01*
X118625476Y-65083390D02*
X118673095Y-65131009D01*
X118673095Y-65131009D02*
X118768333Y-65178628D01*
X118768333Y-65178628D02*
X119149285Y-65178628D01*
X117625476Y-65654819D02*
X118196904Y-65654819D01*
X117911190Y-65654819D02*
X117911190Y-64654819D01*
X117911190Y-64654819D02*
X118006428Y-64797676D01*
X118006428Y-64797676D02*
X118101666Y-64892914D01*
X118101666Y-64892914D02*
X118196904Y-64940533D01*
X117244523Y-64750057D02*
X117196904Y-64702438D01*
X117196904Y-64702438D02*
X117101666Y-64654819D01*
X117101666Y-64654819D02*
X116863571Y-64654819D01*
X116863571Y-64654819D02*
X116768333Y-64702438D01*
X116768333Y-64702438D02*
X116720714Y-64750057D01*
X116720714Y-64750057D02*
X116673095Y-64845295D01*
X116673095Y-64845295D02*
X116673095Y-64940533D01*
X116673095Y-64940533D02*
X116720714Y-65083390D01*
X116720714Y-65083390D02*
X117292142Y-65654819D01*
X117292142Y-65654819D02*
X116673095Y-65654819D01*
X113166666Y-76354819D02*
X113499999Y-75878628D01*
X113738094Y-76354819D02*
X113738094Y-75354819D01*
X113738094Y-75354819D02*
X113357142Y-75354819D01*
X113357142Y-75354819D02*
X113261904Y-75402438D01*
X113261904Y-75402438D02*
X113214285Y-75450057D01*
X113214285Y-75450057D02*
X113166666Y-75545295D01*
X113166666Y-75545295D02*
X113166666Y-75688152D01*
X113166666Y-75688152D02*
X113214285Y-75783390D01*
X113214285Y-75783390D02*
X113261904Y-75831009D01*
X113261904Y-75831009D02*
X113357142Y-75878628D01*
X113357142Y-75878628D02*
X113738094Y-75878628D01*
X112785713Y-75450057D02*
X112738094Y-75402438D01*
X112738094Y-75402438D02*
X112642856Y-75354819D01*
X112642856Y-75354819D02*
X112404761Y-75354819D01*
X112404761Y-75354819D02*
X112309523Y-75402438D01*
X112309523Y-75402438D02*
X112261904Y-75450057D01*
X112261904Y-75450057D02*
X112214285Y-75545295D01*
X112214285Y-75545295D02*
X112214285Y-75640533D01*
X112214285Y-75640533D02*
X112261904Y-75783390D01*
X112261904Y-75783390D02*
X112833332Y-76354819D01*
X112833332Y-76354819D02*
X112214285Y-76354819D01*
X108566666Y-69654819D02*
X108899999Y-69178628D01*
X109138094Y-69654819D02*
X109138094Y-68654819D01*
X109138094Y-68654819D02*
X108757142Y-68654819D01*
X108757142Y-68654819D02*
X108661904Y-68702438D01*
X108661904Y-68702438D02*
X108614285Y-68750057D01*
X108614285Y-68750057D02*
X108566666Y-68845295D01*
X108566666Y-68845295D02*
X108566666Y-68988152D01*
X108566666Y-68988152D02*
X108614285Y-69083390D01*
X108614285Y-69083390D02*
X108661904Y-69131009D01*
X108661904Y-69131009D02*
X108757142Y-69178628D01*
X108757142Y-69178628D02*
X109138094Y-69178628D01*
X108233332Y-68654819D02*
X107614285Y-68654819D01*
X107614285Y-68654819D02*
X107947618Y-69035771D01*
X107947618Y-69035771D02*
X107804761Y-69035771D01*
X107804761Y-69035771D02*
X107709523Y-69083390D01*
X107709523Y-69083390D02*
X107661904Y-69131009D01*
X107661904Y-69131009D02*
X107614285Y-69226247D01*
X107614285Y-69226247D02*
X107614285Y-69464342D01*
X107614285Y-69464342D02*
X107661904Y-69559580D01*
X107661904Y-69559580D02*
X107709523Y-69607200D01*
X107709523Y-69607200D02*
X107804761Y-69654819D01*
X107804761Y-69654819D02*
X108090475Y-69654819D01*
X108090475Y-69654819D02*
X108185713Y-69607200D01*
X108185713Y-69607200D02*
X108233332Y-69559580D01*
X118641666Y-62954819D02*
X118974999Y-62478628D01*
X119213094Y-62954819D02*
X119213094Y-61954819D01*
X119213094Y-61954819D02*
X118832142Y-61954819D01*
X118832142Y-61954819D02*
X118736904Y-62002438D01*
X118736904Y-62002438D02*
X118689285Y-62050057D01*
X118689285Y-62050057D02*
X118641666Y-62145295D01*
X118641666Y-62145295D02*
X118641666Y-62288152D01*
X118641666Y-62288152D02*
X118689285Y-62383390D01*
X118689285Y-62383390D02*
X118736904Y-62431009D01*
X118736904Y-62431009D02*
X118832142Y-62478628D01*
X118832142Y-62478628D02*
X119213094Y-62478628D01*
X118308332Y-61954819D02*
X117641666Y-61954819D01*
X117641666Y-61954819D02*
X118070237Y-62954819D01*
X121170180Y-69066666D02*
X121646371Y-69399999D01*
X121170180Y-69638094D02*
X122170180Y-69638094D01*
X122170180Y-69638094D02*
X122170180Y-69257142D01*
X122170180Y-69257142D02*
X122122561Y-69161904D01*
X122122561Y-69161904D02*
X122074942Y-69114285D01*
X122074942Y-69114285D02*
X121979704Y-69066666D01*
X121979704Y-69066666D02*
X121836847Y-69066666D01*
X121836847Y-69066666D02*
X121741609Y-69114285D01*
X121741609Y-69114285D02*
X121693990Y-69161904D01*
X121693990Y-69161904D02*
X121646371Y-69257142D01*
X121646371Y-69257142D02*
X121646371Y-69638094D01*
X122170180Y-68209523D02*
X122170180Y-68399999D01*
X122170180Y-68399999D02*
X122122561Y-68495237D01*
X122122561Y-68495237D02*
X122074942Y-68542856D01*
X122074942Y-68542856D02*
X121932085Y-68638094D01*
X121932085Y-68638094D02*
X121741609Y-68685713D01*
X121741609Y-68685713D02*
X121360657Y-68685713D01*
X121360657Y-68685713D02*
X121265419Y-68638094D01*
X121265419Y-68638094D02*
X121217800Y-68590475D01*
X121217800Y-68590475D02*
X121170180Y-68495237D01*
X121170180Y-68495237D02*
X121170180Y-68304761D01*
X121170180Y-68304761D02*
X121217800Y-68209523D01*
X121217800Y-68209523D02*
X121265419Y-68161904D01*
X121265419Y-68161904D02*
X121360657Y-68114285D01*
X121360657Y-68114285D02*
X121598752Y-68114285D01*
X121598752Y-68114285D02*
X121693990Y-68161904D01*
X121693990Y-68161904D02*
X121741609Y-68209523D01*
X121741609Y-68209523D02*
X121789228Y-68304761D01*
X121789228Y-68304761D02*
X121789228Y-68495237D01*
X121789228Y-68495237D02*
X121741609Y-68590475D01*
X121741609Y-68590475D02*
X121693990Y-68638094D01*
X121693990Y-68638094D02*
X121598752Y-68685713D01*
X113166666Y-82559580D02*
X113214285Y-82607200D01*
X113214285Y-82607200D02*
X113357142Y-82654819D01*
X113357142Y-82654819D02*
X113452380Y-82654819D01*
X113452380Y-82654819D02*
X113595237Y-82607200D01*
X113595237Y-82607200D02*
X113690475Y-82511961D01*
X113690475Y-82511961D02*
X113738094Y-82416723D01*
X113738094Y-82416723D02*
X113785713Y-82226247D01*
X113785713Y-82226247D02*
X113785713Y-82083390D01*
X113785713Y-82083390D02*
X113738094Y-81892914D01*
X113738094Y-81892914D02*
X113690475Y-81797676D01*
X113690475Y-81797676D02*
X113595237Y-81702438D01*
X113595237Y-81702438D02*
X113452380Y-81654819D01*
X113452380Y-81654819D02*
X113357142Y-81654819D01*
X113357142Y-81654819D02*
X113214285Y-81702438D01*
X113214285Y-81702438D02*
X113166666Y-81750057D01*
X112833332Y-81654819D02*
X112166666Y-81654819D01*
X112166666Y-81654819D02*
X112595237Y-82654819D01*
X110566666Y-64859580D02*
X110614285Y-64907200D01*
X110614285Y-64907200D02*
X110757142Y-64954819D01*
X110757142Y-64954819D02*
X110852380Y-64954819D01*
X110852380Y-64954819D02*
X110995237Y-64907200D01*
X110995237Y-64907200D02*
X111090475Y-64811961D01*
X111090475Y-64811961D02*
X111138094Y-64716723D01*
X111138094Y-64716723D02*
X111185713Y-64526247D01*
X111185713Y-64526247D02*
X111185713Y-64383390D01*
X111185713Y-64383390D02*
X111138094Y-64192914D01*
X111138094Y-64192914D02*
X111090475Y-64097676D01*
X111090475Y-64097676D02*
X110995237Y-64002438D01*
X110995237Y-64002438D02*
X110852380Y-63954819D01*
X110852380Y-63954819D02*
X110757142Y-63954819D01*
X110757142Y-63954819D02*
X110614285Y-64002438D01*
X110614285Y-64002438D02*
X110566666Y-64050057D01*
X109709523Y-63954819D02*
X109899999Y-63954819D01*
X109899999Y-63954819D02*
X109995237Y-64002438D01*
X109995237Y-64002438D02*
X110042856Y-64050057D01*
X110042856Y-64050057D02*
X110138094Y-64192914D01*
X110138094Y-64192914D02*
X110185713Y-64383390D01*
X110185713Y-64383390D02*
X110185713Y-64764342D01*
X110185713Y-64764342D02*
X110138094Y-64859580D01*
X110138094Y-64859580D02*
X110090475Y-64907200D01*
X110090475Y-64907200D02*
X109995237Y-64954819D01*
X109995237Y-64954819D02*
X109804761Y-64954819D01*
X109804761Y-64954819D02*
X109709523Y-64907200D01*
X109709523Y-64907200D02*
X109661904Y-64859580D01*
X109661904Y-64859580D02*
X109614285Y-64764342D01*
X109614285Y-64764342D02*
X109614285Y-64526247D01*
X109614285Y-64526247D02*
X109661904Y-64431009D01*
X109661904Y-64431009D02*
X109709523Y-64383390D01*
X109709523Y-64383390D02*
X109804761Y-64335771D01*
X109804761Y-64335771D02*
X109995237Y-64335771D01*
X109995237Y-64335771D02*
X110090475Y-64383390D01*
X110090475Y-64383390D02*
X110138094Y-64431009D01*
X110138094Y-64431009D02*
X110185713Y-64526247D01*
X131570180Y-64892857D02*
X132046371Y-65226190D01*
X131570180Y-65464285D02*
X132570180Y-65464285D01*
X132570180Y-65464285D02*
X132570180Y-65083333D01*
X132570180Y-65083333D02*
X132522561Y-64988095D01*
X132522561Y-64988095D02*
X132474942Y-64940476D01*
X132474942Y-64940476D02*
X132379704Y-64892857D01*
X132379704Y-64892857D02*
X132236847Y-64892857D01*
X132236847Y-64892857D02*
X132141609Y-64940476D01*
X132141609Y-64940476D02*
X132093990Y-64988095D01*
X132093990Y-64988095D02*
X132046371Y-65083333D01*
X132046371Y-65083333D02*
X132046371Y-65464285D01*
X131570180Y-63940476D02*
X131570180Y-64511904D01*
X131570180Y-64226190D02*
X132570180Y-64226190D01*
X132570180Y-64226190D02*
X132427323Y-64321428D01*
X132427323Y-64321428D02*
X132332085Y-64416666D01*
X132332085Y-64416666D02*
X132284466Y-64511904D01*
X132570180Y-63607142D02*
X132570180Y-62988095D01*
X132570180Y-62988095D02*
X132189228Y-63321428D01*
X132189228Y-63321428D02*
X132189228Y-63178571D01*
X132189228Y-63178571D02*
X132141609Y-63083333D01*
X132141609Y-63083333D02*
X132093990Y-63035714D01*
X132093990Y-63035714D02*
X131998752Y-62988095D01*
X131998752Y-62988095D02*
X131760657Y-62988095D01*
X131760657Y-62988095D02*
X131665419Y-63035714D01*
X131665419Y-63035714D02*
X131617800Y-63083333D01*
X131617800Y-63083333D02*
X131570180Y-63178571D01*
X131570180Y-63178571D02*
X131570180Y-63464285D01*
X131570180Y-63464285D02*
X131617800Y-63559523D01*
X131617800Y-63559523D02*
X131665419Y-63607142D01*
X100966666Y-78859580D02*
X101014285Y-78907200D01*
X101014285Y-78907200D02*
X101157142Y-78954819D01*
X101157142Y-78954819D02*
X101252380Y-78954819D01*
X101252380Y-78954819D02*
X101395237Y-78907200D01*
X101395237Y-78907200D02*
X101490475Y-78811961D01*
X101490475Y-78811961D02*
X101538094Y-78716723D01*
X101538094Y-78716723D02*
X101585713Y-78526247D01*
X101585713Y-78526247D02*
X101585713Y-78383390D01*
X101585713Y-78383390D02*
X101538094Y-78192914D01*
X101538094Y-78192914D02*
X101490475Y-78097676D01*
X101490475Y-78097676D02*
X101395237Y-78002438D01*
X101395237Y-78002438D02*
X101252380Y-77954819D01*
X101252380Y-77954819D02*
X101157142Y-77954819D01*
X101157142Y-77954819D02*
X101014285Y-78002438D01*
X101014285Y-78002438D02*
X100966666Y-78050057D01*
X100014285Y-78954819D02*
X100585713Y-78954819D01*
X100299999Y-78954819D02*
X100299999Y-77954819D01*
X100299999Y-77954819D02*
X100395237Y-78097676D01*
X100395237Y-78097676D02*
X100490475Y-78192914D01*
X100490475Y-78192914D02*
X100585713Y-78240533D01*
X110261904Y-82454819D02*
X110261904Y-83264342D01*
X110261904Y-83264342D02*
X110214285Y-83359580D01*
X110214285Y-83359580D02*
X110166666Y-83407200D01*
X110166666Y-83407200D02*
X110071428Y-83454819D01*
X110071428Y-83454819D02*
X109880952Y-83454819D01*
X109880952Y-83454819D02*
X109785714Y-83407200D01*
X109785714Y-83407200D02*
X109738095Y-83359580D01*
X109738095Y-83359580D02*
X109690476Y-83264342D01*
X109690476Y-83264342D02*
X109690476Y-82454819D01*
X109261904Y-82550057D02*
X109214285Y-82502438D01*
X109214285Y-82502438D02*
X109119047Y-82454819D01*
X109119047Y-82454819D02*
X108880952Y-82454819D01*
X108880952Y-82454819D02*
X108785714Y-82502438D01*
X108785714Y-82502438D02*
X108738095Y-82550057D01*
X108738095Y-82550057D02*
X108690476Y-82645295D01*
X108690476Y-82645295D02*
X108690476Y-82740533D01*
X108690476Y-82740533D02*
X108738095Y-82883390D01*
X108738095Y-82883390D02*
X109309523Y-83454819D01*
X109309523Y-83454819D02*
X108690476Y-83454819D01*
X131642857Y-76454819D02*
X131976190Y-75978628D01*
X132214285Y-76454819D02*
X132214285Y-75454819D01*
X132214285Y-75454819D02*
X131833333Y-75454819D01*
X131833333Y-75454819D02*
X131738095Y-75502438D01*
X131738095Y-75502438D02*
X131690476Y-75550057D01*
X131690476Y-75550057D02*
X131642857Y-75645295D01*
X131642857Y-75645295D02*
X131642857Y-75788152D01*
X131642857Y-75788152D02*
X131690476Y-75883390D01*
X131690476Y-75883390D02*
X131738095Y-75931009D01*
X131738095Y-75931009D02*
X131833333Y-75978628D01*
X131833333Y-75978628D02*
X132214285Y-75978628D01*
X130690476Y-76454819D02*
X131261904Y-76454819D01*
X130976190Y-76454819D02*
X130976190Y-75454819D01*
X130976190Y-75454819D02*
X131071428Y-75597676D01*
X131071428Y-75597676D02*
X131166666Y-75692914D01*
X131166666Y-75692914D02*
X131261904Y-75740533D01*
X130357142Y-75454819D02*
X129690476Y-75454819D01*
X129690476Y-75454819D02*
X130119047Y-76454819D01*
X109766666Y-57154819D02*
X110099999Y-56678628D01*
X110338094Y-57154819D02*
X110338094Y-56154819D01*
X110338094Y-56154819D02*
X109957142Y-56154819D01*
X109957142Y-56154819D02*
X109861904Y-56202438D01*
X109861904Y-56202438D02*
X109814285Y-56250057D01*
X109814285Y-56250057D02*
X109766666Y-56345295D01*
X109766666Y-56345295D02*
X109766666Y-56488152D01*
X109766666Y-56488152D02*
X109814285Y-56583390D01*
X109814285Y-56583390D02*
X109861904Y-56631009D01*
X109861904Y-56631009D02*
X109957142Y-56678628D01*
X109957142Y-56678628D02*
X110338094Y-56678628D01*
X108814285Y-57154819D02*
X109385713Y-57154819D01*
X109099999Y-57154819D02*
X109099999Y-56154819D01*
X109099999Y-56154819D02*
X109195237Y-56297676D01*
X109195237Y-56297676D02*
X109290475Y-56392914D01*
X109290475Y-56392914D02*
X109385713Y-56440533D01*
%TO.C,R5*%
X100577064Y-85735000D02*
X100122936Y-85735000D01*
X100577064Y-84265000D02*
X100122936Y-84265000D01*
%TO.C,C4*%
X105898752Y-65715000D02*
X105376248Y-65715000D01*
X105898752Y-67185000D02*
X105376248Y-67185000D01*
%TO.C,R15*%
X90715000Y-67022936D02*
X90715000Y-67477064D01*
X92185000Y-67022936D02*
X92185000Y-67477064D01*
%TO.C,R14*%
X130772937Y-77265000D02*
X131227065Y-77265000D01*
X130772937Y-78735000D02*
X131227065Y-78735000D01*
%TO.C,C2*%
X102465000Y-81473752D02*
X102465000Y-80951248D01*
X103935000Y-81473752D02*
X103935000Y-80951248D01*
%TO.C,R16*%
X92915000Y-67477064D02*
X92915000Y-67022936D01*
X94385000Y-67477064D02*
X94385000Y-67022936D01*
%TO.C,R12*%
X122012064Y-64465000D02*
X121557936Y-64465000D01*
X122012064Y-65935000D02*
X121557936Y-65935000D01*
%TO.C,R2*%
X113177064Y-79565000D02*
X112722936Y-79565000D01*
X113177064Y-81035000D02*
X112722936Y-81035000D01*
%TO.C,R3*%
X108627064Y-70415000D02*
X108172936Y-70415000D01*
X108627064Y-71885000D02*
X108172936Y-71885000D01*
%TO.C,R7*%
X122002064Y-61765000D02*
X121547936Y-61765000D01*
X122002064Y-63235000D02*
X121547936Y-63235000D01*
%TO.C,R6*%
X122790000Y-68672936D02*
X122790000Y-69127064D01*
X124260000Y-68672936D02*
X124260000Y-69127064D01*
%TO.C,C7*%
X113173752Y-77165000D02*
X112651248Y-77165000D01*
X113173752Y-78635000D02*
X112651248Y-78635000D01*
%TO.C,C6*%
X110176248Y-65765000D02*
X110698752Y-65765000D01*
X110176248Y-67235000D02*
X110698752Y-67235000D01*
%TO.C,R13*%
X133190000Y-64477064D02*
X133190000Y-64022936D01*
X134660000Y-64477064D02*
X134660000Y-64022936D01*
%TO.C,C1*%
X100065000Y-81473752D02*
X100065000Y-80951248D01*
X101535000Y-81473752D02*
X101535000Y-80951248D01*
%TO.C,U2*%
X104690000Y-82602500D02*
X104690000Y-84422500D01*
X104690000Y-84422500D02*
X104740000Y-84422500D01*
X104740000Y-82602500D02*
X104690000Y-82602500D01*
X107760000Y-84422500D02*
X107810000Y-84422500D01*
X107810000Y-82602500D02*
X107760000Y-82602500D01*
X107810000Y-84422500D02*
X107810000Y-82602500D01*
X104740000Y-82062500D02*
X104410000Y-82302500D01*
X104410000Y-81822500D01*
X104740000Y-82062500D01*
G36*
X104740000Y-82062500D02*
G01*
X104410000Y-82302500D01*
X104410000Y-81822500D01*
X104740000Y-82062500D01*
G37*
%TO.C,R17*%
X131227064Y-79815000D02*
X130772936Y-79815000D01*
X131227064Y-81285000D02*
X130772936Y-81285000D01*
%TO.C,R1*%
X109372936Y-53965000D02*
X109827064Y-53965000D01*
X109372936Y-55435000D02*
X109827064Y-55435000D01*
%TD*%
%LPC*%
D12*
%TO.C,R5*%
X99350000Y-85000000D03*
X101350000Y-85000000D03*
%TD*%
D13*
%TO.C,D2*%
X89825000Y-74740000D03*
D14*
X89825000Y-72200000D03*
%TD*%
D15*
%TO.C,TP1*%
X132050000Y-83650000D03*
%TD*%
D16*
%TO.C,J2*%
X137000000Y-68050000D03*
D17*
X136980000Y-70050000D03*
X137000000Y-72050000D03*
X137000000Y-74050000D03*
%TD*%
D18*
%TO.C,BTN1*%
X72850000Y-60500000D03*
X72850000Y-65000000D03*
D19*
X75350000Y-59250000D03*
X75350000Y-66250000D03*
%TD*%
D15*
%TO.C,TP3*%
X128300000Y-87350000D03*
%TD*%
D20*
%TO.C,M2.5*%
X75000000Y-87000000D03*
%TD*%
%TO.C,M2.5*%
X128750000Y-54550000D03*
%TD*%
D21*
%TO.C,USBC1*%
X128685000Y-63300000D03*
X128685000Y-71300000D03*
D22*
X130115000Y-63300000D03*
X127255000Y-63300000D03*
X130115000Y-71300000D03*
X127255000Y-71300000D03*
%TD*%
D23*
%TO.C,DIP1*%
X116715000Y-88720000D03*
X119255000Y-88720000D03*
X121795000Y-88720000D03*
X124335000Y-88720000D03*
X124335000Y-81200000D03*
X121795000Y-81200000D03*
X119255000Y-81200000D03*
X116715000Y-81200000D03*
%TD*%
D24*
%TO.C,D3*%
X95250000Y-78300000D03*
D25*
X94277984Y-75953346D03*
%TD*%
D20*
%TO.C,M2.5*%
X79950000Y-54500000D03*
%TD*%
D26*
%TO.C,Q1*%
X94625000Y-82460000D03*
D27*
X94625000Y-85000000D03*
X94625000Y-87540000D03*
%TD*%
D20*
%TO.C,M2.5*%
X136550000Y-80000000D03*
%TD*%
D13*
%TO.C,D1*%
X80050000Y-66000000D03*
D14*
X82590000Y-66000000D03*
%TD*%
D23*
%TO.C,SW1*%
X80050000Y-62100000D03*
X80050000Y-59560000D03*
%TD*%
D28*
%TO.C,J1*%
X84325000Y-71200000D03*
D29*
X84325000Y-76200000D03*
X84325000Y-81200000D03*
X84325000Y-86200000D03*
%TD*%
D15*
%TO.C,TP2*%
X130250000Y-85400000D03*
%TD*%
D30*
%TO.C,C4*%
X106675000Y-66450000D03*
X104600000Y-66450000D03*
%TD*%
D31*
%TO.C,R15*%
X91450000Y-66250000D03*
X91450000Y-68250000D03*
%TD*%
D32*
%TO.C,R14*%
X130000000Y-78000000D03*
X132000002Y-78000000D03*
%TD*%
D33*
%TO.C,C2*%
X103200000Y-82250000D03*
X103200000Y-80175000D03*
%TD*%
D34*
%TO.C,R16*%
X93650000Y-68250000D03*
X93650000Y-66250000D03*
%TD*%
D12*
%TO.C,R12*%
X122785000Y-65200000D03*
X120785000Y-65200000D03*
%TD*%
%TO.C,R2*%
X113950000Y-80300000D03*
X111950000Y-80300000D03*
%TD*%
%TO.C,R3*%
X109400000Y-71150000D03*
X107400000Y-71150000D03*
%TD*%
%TO.C,R7*%
X122775000Y-62500000D03*
X120775000Y-62500000D03*
%TD*%
D31*
%TO.C,R6*%
X123525000Y-67900000D03*
X123525000Y-69900000D03*
%TD*%
D30*
%TO.C,C7*%
X113950000Y-77900000D03*
X111875000Y-77900000D03*
%TD*%
D35*
%TO.C,C6*%
X109400000Y-66500000D03*
X111475000Y-66500000D03*
%TD*%
D34*
%TO.C,R13*%
X133925000Y-65250000D03*
X133925000Y-63250000D03*
%TD*%
D33*
%TO.C,C1*%
X100800000Y-82250000D03*
X100800000Y-80175000D03*
%TD*%
D36*
%TO.C,U2*%
X105300000Y-82375000D03*
X106250000Y-82375000D03*
X107200000Y-82375000D03*
X107200000Y-84650000D03*
X106250000Y-84650000D03*
X105300000Y-84650000D03*
%TD*%
D12*
%TO.C,R17*%
X132000000Y-80550000D03*
X130000000Y-80550000D03*
%TD*%
D32*
%TO.C,R1*%
X108600000Y-54700000D03*
X110600000Y-54700000D03*
%TD*%
%LPD*%
D37*
X76500000Y-51000000D02*
X76500000Y-53500000D01*
X133000000Y-51000000D02*
X76500000Y-51000000D01*
X140000000Y-84500000D02*
X140000000Y-59000000D01*
X78000000Y-83000000D02*
X71500000Y-83000000D01*
X132000000Y-91000000D02*
X132000000Y-88500000D01*
X132000000Y-88500000D02*
G75*
G02*
X136000000Y-84500000I4000000J0D01*
G01*
X78000000Y-71000000D02*
X78000000Y-83000000D01*
X75500000Y-68500000D02*
X78000000Y-71000000D01*
X71500000Y-83000000D02*
X71500000Y-91000000D01*
X76500000Y-53500000D02*
G75*
G02*
X72500000Y-57500000I-4000000J0D01*
G01*
X137000000Y-59000000D02*
G75*
G02*
X133000000Y-55000000I0J4000000D01*
G01*
X72500000Y-57500000D02*
X70000000Y-57500000D01*
X71500000Y-91000000D02*
X132000000Y-91000000D01*
X136000000Y-84500000D02*
X140000000Y-84500000D01*
X140000000Y-59000000D02*
X137000000Y-59000000D01*
X133000000Y-55000000D02*
X133000000Y-51000000D01*
X70000000Y-57500000D02*
X70000000Y-68500000D01*
X70000000Y-68500000D02*
X75500000Y-68500000D01*
M02*
