%TF.GenerationSoftware,KiCad,Pcbnew,9.0.6*%
%TF.CreationDate,2025-12-01T18:27:25-05:00*%
%TF.ProjectId,cablight-project,6361626c-6967-4687-942d-70726f6a6563,rev?*%
%TF.SameCoordinates,Original*%
%TF.FileFunction,Copper,L4,Bot*%
%TF.FilePolarity,Positive*%
%FSLAX46Y46*%
G04 Gerber Fmt 4.6, Leading zero omitted, Abs format (unit mm)*
G04 Created by KiCad (PCBNEW 9.0.6) date 2025-12-01 18:27:25*
%MOMM*%
%LPD*%
G01*
G04 APERTURE LIST*
G04 Aperture macros list*
%AMRoundRect*
0 Rectangle with rounded corners*
0 $1 Rounding radius*
0 $2 $3 $4 $5 $6 $7 $8 $9 X,Y pos of 4 corners*
0 Add a 4 corners polygon primitive as box body*
4,1,4,$2,$3,$4,$5,$6,$7,$8,$9,$2,$3,0*
0 Add four circle primitives for the rounded corners*
1,1,$1+$1,$2,$3*
1,1,$1+$1,$4,$5*
1,1,$1+$1,$6,$7*
1,1,$1+$1,$8,$9*
0 Add four rect primitives between the rounded corners*
20,1,$1+$1,$2,$3,$4,$5,0*
20,1,$1+$1,$4,$5,$6,$7,0*
20,1,$1+$1,$6,$7,$8,$9,0*
20,1,$1+$1,$8,$9,$2,$3,0*%
G04 Aperture macros list end*
%TA.AperFunction,ComponentPad*%
%ADD10C,3.100000*%
%TD*%
%TA.AperFunction,ComponentPad*%
%ADD11O,2.200000X2.200000*%
%TD*%
%TA.AperFunction,ComponentPad*%
%ADD12R,2.200000X2.200000*%
%TD*%
%TA.AperFunction,SMDPad,CuDef*%
%ADD13RoundRect,0.250000X0.350000X0.450000X-0.350000X0.450000X-0.350000X-0.450000X0.350000X-0.450000X0*%
%TD*%
%TA.AperFunction,SMDPad,CuDef*%
%ADD14RoundRect,0.250000X-0.350000X-0.450000X0.350000X-0.450000X0.350000X0.450000X-0.350000X0.450000X0*%
%TD*%
%TA.AperFunction,ComponentPad*%
%ADD15C,1.000000*%
%TD*%
%TA.AperFunction,ComponentPad*%
%ADD16R,1.400000X1.400000*%
%TD*%
%TA.AperFunction,ComponentPad*%
%ADD17C,1.400000*%
%TD*%
%TA.AperFunction,ComponentPad*%
%ADD18O,1.500000X2.000000*%
%TD*%
%TA.AperFunction,ComponentPad*%
%ADD19O,2.000000X1.500000*%
%TD*%
%TA.AperFunction,ComponentPad*%
%ADD20O,1.100000X1.600000*%
%TD*%
%TA.AperFunction,ComponentPad*%
%ADD21C,1.600000*%
%TD*%
%TA.AperFunction,ComponentPad*%
%ADD22R,2.000000X1.900000*%
%TD*%
%TA.AperFunction,ComponentPad*%
%ADD23O,2.500000X1.900000*%
%TD*%
%TA.AperFunction,ComponentPad*%
%ADD24R,1.700000X1.700000*%
%TD*%
%TA.AperFunction,ComponentPad*%
%ADD25C,1.700000*%
%TD*%
%TA.AperFunction,ComponentPad*%
%ADD26C,3.600000*%
%TD*%
%TA.AperFunction,ConnectorPad*%
%ADD27C,5.600000*%
%TD*%
%TA.AperFunction,ComponentPad*%
%ADD28R,3.000000X3.000000*%
%TD*%
%TA.AperFunction,ComponentPad*%
%ADD29C,3.000000*%
%TD*%
%TA.AperFunction,SMDPad,CuDef*%
%ADD30RoundRect,0.250000X0.337500X0.475000X-0.337500X0.475000X-0.337500X-0.475000X0.337500X-0.475000X0*%
%TD*%
%TA.AperFunction,SMDPad,CuDef*%
%ADD31RoundRect,0.250000X-0.337500X-0.475000X0.337500X-0.475000X0.337500X0.475000X-0.337500X0.475000X0*%
%TD*%
%TA.AperFunction,ViaPad*%
%ADD32C,0.600000*%
%TD*%
%TA.AperFunction,ViaPad*%
%ADD33C,0.500000*%
%TD*%
%TA.AperFunction,ViaPad*%
%ADD34C,1.000000*%
%TD*%
%TA.AperFunction,Conductor*%
%ADD35C,0.400000*%
%TD*%
%TA.AperFunction,Conductor*%
%ADD36C,0.300000*%
%TD*%
%TA.AperFunction,Conductor*%
%ADD37C,0.500000*%
%TD*%
%TA.AperFunction,Conductor*%
%ADD38C,0.200000*%
%TD*%
%TA.AperFunction,Conductor*%
%ADD39C,0.800000*%
%TD*%
%TA.AperFunction,Profile*%
%ADD40C,0.150000*%
%TD*%
G04 APERTURE END LIST*
D10*
%TO.P,M2.5,1*%
%TO.N,N/C*%
X-24400000Y-3400000D03*
%TD*%
D11*
%TO.P,D2,2,A*%
%TO.N,/VBUS*%
X-30200000Y-2500000D03*
D12*
%TO.P,D2,1,K*%
%TO.N,5V*%
X-32740000Y-2500000D03*
%TD*%
D13*
%TO.P,R4,2*%
%TO.N,GND*%
X-57750000Y-33900000D03*
%TO.P,R4,1*%
%TO.N,LEDSIG*%
X-55750000Y-33900000D03*
%TD*%
%TO.P,R5,2*%
%TO.N,Net-(Q1-G)*%
X-57750000Y-31500000D03*
%TO.P,R5,1*%
%TO.N,LEDSIG*%
X-55750000Y-31500000D03*
%TD*%
%TO.P,R17,2,2*%
%TO.N,GND*%
X-59450000Y-25450000D03*
%TO.P,R17,1,1*%
%TO.N,Net-(R14-Pad2)*%
X-57450000Y-25450000D03*
%TD*%
%TO.P,R15,2,2*%
%TO.N,GND*%
X-59450000Y-20900000D03*
%TO.P,R15,1,1*%
%TO.N,Net-(R15-Pad1)*%
X-57450000Y-20900000D03*
%TD*%
D14*
%TO.P,R16,1,1*%
%TO.N,Net-(LED-W1-A)*%
X-59450000Y-23100000D03*
%TO.P,R16,2,2*%
%TO.N,Net-(R15-Pad1)*%
X-57450000Y-23100000D03*
%TD*%
%TO.P,R14,1*%
%TO.N,Net-(LED-OK1-K)*%
X-59450000Y-27800000D03*
%TO.P,R14,2*%
%TO.N,Net-(R14-Pad2)*%
X-57450000Y-27800000D03*
%TD*%
D12*
%TO.P,D10,1,K*%
%TO.N,24VDC*%
X-66090000Y-23740000D03*
D11*
%TO.P,D10,2,A*%
%TO.N,Net-(D10-A)*%
X-66090000Y-21200000D03*
%TD*%
D15*
%TO.P,TP2,1,1*%
%TO.N,GND*%
X-36150000Y-5100000D03*
%TD*%
D16*
%TO.P,RCWL-1601,1,Vin*%
%TO.N,3.3V*%
X-24000000Y-17050000D03*
D17*
%TO.P,RCWL-1601,2,Trig*%
%TO.N,TRIG*%
X-24020000Y-19050000D03*
%TO.P,RCWL-1601,3,Echo*%
%TO.N,ECHO*%
X-24000000Y-21050000D03*
%TO.P,RCWL-1601,4,GND*%
%TO.N,GND*%
X-24000000Y-23050000D03*
%TD*%
D18*
%TO.P,BTN1,1,1*%
%TO.N,BTN*%
X-89790000Y-9500000D03*
%TO.P,BTN1,2,2*%
%TO.N,GND*%
X-89790000Y-14000000D03*
D19*
%TO.P,BTN1,GND,GND*%
X-87290000Y-8250000D03*
X-87290000Y-15250000D03*
%TD*%
D10*
%TO.P,M2.5,1*%
%TO.N,N/C*%
X-83700000Y-36350000D03*
%TD*%
D20*
%TO.P,USBC-V1,S1,SHEILD*%
%TO.N,GND*%
X-31960000Y-14350000D03*
X-34820000Y-14350000D03*
X-31960000Y-22350000D03*
X-34820000Y-22350000D03*
%TD*%
D21*
%TO.P,DIP1,1*%
%TO.N,LEDSIG*%
X-39240000Y-37720000D03*
%TO.P,DIP1,2*%
%TO.N,GND*%
X-36700000Y-37720000D03*
%TO.P,DIP1,3*%
X-34160000Y-37720000D03*
%TO.P,DIP1,4*%
X-31620000Y-37720000D03*
%TO.P,DIP1,5*%
%TO.N,DIP3*%
X-31620000Y-30200000D03*
%TO.P,DIP1,6*%
%TO.N,DIP2*%
X-34160000Y-30200000D03*
%TO.P,DIP1,7*%
%TO.N,DIP1*%
X-36700000Y-30200000D03*
%TO.P,DIP1,8*%
%TO.N,3.3V*%
X-39240000Y-30200000D03*
%TD*%
D10*
%TO.P,M2.5,1*%
%TO.N,N/C*%
X-82650000Y-3200000D03*
%TD*%
D22*
%TO.P,Q1,1,G*%
%TO.N,Net-(Q1-G)*%
X-64350000Y-31460000D03*
D23*
%TO.P,Q1,2,D*%
%TO.N,/LED-*%
X-64350000Y-34000000D03*
%TO.P,Q1,3,S*%
%TO.N,GND*%
X-64350000Y-36540000D03*
%TD*%
D10*
%TO.P,M2.5,1*%
%TO.N,N/C*%
X-24400000Y-29700000D03*
%TD*%
D12*
%TO.P,D1,1,K*%
%TO.N,Net-(D1-K)*%
X-69850000Y-21200000D03*
D11*
%TO.P,D1,2,A*%
%TO.N,24VDC*%
X-69850000Y-23740000D03*
%TD*%
D24*
%TO.P,SW3,1,A*%
%TO.N,Net-(D1-K)*%
X-82650000Y-12800000D03*
D25*
%TO.P,SW3,2,B*%
%TO.N,5V*%
X-82650000Y-10260000D03*
%TD*%
D26*
%TO.P,REF\u002A\u002A,1*%
%TO.N,N/C*%
X-47050000Y-34000000D03*
D27*
X-47050000Y-34000000D03*
%TD*%
D28*
%TO.P,J3,1,Pin_1*%
%TO.N,GND*%
X-74650000Y-20200000D03*
D29*
%TO.P,J3,2,Pin_2*%
%TO.N,24VDC*%
X-74650000Y-25200000D03*
%TO.P,J3,3,Pin_3*%
%TO.N,/LED+*%
X-74650000Y-30200000D03*
%TO.P,J3,4,Pin_4*%
%TO.N,/LED-*%
X-74650000Y-35200000D03*
%TD*%
D15*
%TO.P,TP1,1,1*%
%TO.N,3.3V*%
X-61850000Y-5000000D03*
%TD*%
D30*
%TO.P,C4,1,1*%
%TO.N,PG*%
X-54750000Y-15100000D03*
%TO.P,C4,2,2*%
%TO.N,GND*%
X-56825000Y-15100000D03*
%TD*%
D13*
%TO.P,R12,1,1*%
%TO.N,Net-(USBC-V1-SBU2)*%
X-39150000Y-11000000D03*
%TO.P,R12,2,2*%
%TO.N,GND*%
X-41150000Y-11000000D03*
%TD*%
D14*
%TO.P,R2,1,1*%
%TO.N,Net-(U3-GPIO0{slash}BOOT)*%
X-47050000Y-28650000D03*
%TO.P,R2,2,2*%
%TO.N,3.3V*%
X-45050000Y-28650000D03*
%TD*%
D30*
%TO.P,C6,1,1*%
%TO.N,PG*%
X-50450000Y-23050000D03*
%TO.P,C6,2,2*%
%TO.N,GND*%
X-52525000Y-23050000D03*
%TD*%
D13*
%TO.P,R7,1,1*%
%TO.N,Net-(USBC-V1-CC1)*%
X-36450000Y-8100000D03*
%TO.P,R7,2,2*%
%TO.N,GND*%
X-38450000Y-8100000D03*
%TD*%
%TO.P,R3,1,1*%
%TO.N,PG*%
X-50450000Y-25850000D03*
%TO.P,R3,2,2*%
%TO.N,3.3V*%
X-52450000Y-25850000D03*
%TD*%
D14*
%TO.P,R6,1,1*%
%TO.N,Net-(USBC-V1-CC2)*%
X-36450000Y-25900000D03*
%TO.P,R6,2,2*%
%TO.N,GND*%
X-34450000Y-25900000D03*
%TD*%
D31*
%TO.P,C7,1,1*%
%TO.N,Net-(U3-GPIO0{slash}BOOT)*%
X-47050000Y-26150000D03*
%TO.P,C7,2,2*%
%TO.N,GND*%
X-44975000Y-26150000D03*
%TD*%
D13*
%TO.P,R13,1,1*%
%TO.N,Net-(USBC-V1-SBU1)*%
X-29250000Y-25900000D03*
%TO.P,R13,2,2*%
%TO.N,GND*%
X-31250000Y-25900000D03*
%TD*%
D14*
%TO.P,R1,1,1*%
%TO.N,BTN*%
X-54800000Y-5800000D03*
%TO.P,R1,2,2*%
%TO.N,3.3V*%
X-52800000Y-5800000D03*
%TD*%
D32*
%TO.N,GND*%
X-58750000Y-2700000D03*
X-58350000Y-800000D03*
X-65850000Y-4800000D03*
X-51200000Y-33350000D03*
X-43100000Y-34250000D03*
X-48300000Y-30500000D03*
X-53950000Y-32800000D03*
X-50300000Y-37100000D03*
X-80100000Y-13700000D03*
X-64550000Y-18950000D03*
X-46350000Y-22150000D03*
X-38900000Y-18900000D03*
X-70050000Y-3350000D03*
%TO.N,DIP3*%
X-43350000Y-20500000D03*
%TO.N,GND*%
X-31750000Y-5100000D03*
X-57750000Y-37250000D03*
X-61600000Y-32650000D03*
X-60200000Y-30350000D03*
%TO.N,3.3V*%
X-52450000Y-28700000D03*
%TO.N,GND*%
X-51150000Y-21050000D03*
X-50950000Y-29650000D03*
X-44500000Y-31100000D03*
X-48500000Y-20600000D03*
%TO.N,BTN*%
X-54800000Y-3500000D03*
%TO.N,GND*%
X-38600000Y-23400000D03*
X-50300000Y-13600000D03*
X-69350000Y-8400000D03*
X-48900000Y-13600000D03*
X-68400000Y-17700000D03*
X-51750000Y-13600000D03*
X-44850000Y-37450000D03*
X-51700000Y-9450000D03*
X-62250000Y-8650000D03*
X-48900000Y-12250000D03*
X-47500000Y-9450000D03*
X-64700000Y-29100000D03*
X-51750000Y-10850000D03*
X-27750000Y-1650000D03*
X-50300000Y-12250000D03*
X-80100000Y-9750000D03*
X-47500000Y-12250000D03*
X-57400000Y-4550000D03*
X-42700000Y-15450000D03*
X-47500000Y-10850000D03*
X-50300000Y-10850000D03*
D33*
X-37850000Y-21400000D03*
D32*
X-73440000Y-14400000D03*
X-47500000Y-13600000D03*
X-56950000Y-10200000D03*
X-48900000Y-9450000D03*
X-48900000Y-10850000D03*
X-48850000Y-4900000D03*
X-27750000Y-4800000D03*
X-52950000Y-34450000D03*
X-54050000Y-21700000D03*
X-79900000Y-27250000D03*
X-43150000Y-6500000D03*
X-62850000Y-3650000D03*
X-76650000Y-1450000D03*
X-73440000Y-9000000D03*
X-51700000Y-12250000D03*
X-54300000Y-8200000D03*
X-55250000Y-29500000D03*
X-49550000Y-16500000D03*
X-50300000Y-9450000D03*
%TO.N,Net-(U3-GPIO0{slash}BOOT)*%
X-42250000Y-4000000D03*
X-46550000Y-23650000D03*
%TO.N,5V*%
X-76950000Y-3875000D03*
%TO.N,3.3V*%
X-50650000Y-5800000D03*
D34*
X-60050000Y-5800000D03*
D32*
X-43650000Y-28700000D03*
%TO.N,PG*%
X-70150000Y-6600000D03*
X-54750000Y-17100000D03*
X-50450000Y-24500000D03*
%TO.N,Net-(LED-OK1-K)*%
X-63550000Y-27800000D03*
%TO.N,Net-(LED-W1-A)*%
X-63550000Y-23100000D03*
%TO.N,Net-(USBC-V1-SBU2)*%
X-36456331Y-17749000D03*
%TO.N,Net-(USBC-V1-SBU1)*%
X-30370500Y-18950000D03*
%TO.N,/LED+*%
X-67400000Y-31750000D03*
X-67400000Y-29500000D03*
X-71400000Y-31700000D03*
X-71550000Y-29800000D03*
%TO.N,LEDSIG*%
X-49700000Y-20300000D03*
D33*
%TO.N,D-*%
X-33770500Y-18102308D03*
X-33070000Y-19205116D03*
D32*
%TO.N,24VDC*%
X-67200000Y-27700000D03*
X-66750000Y-26150000D03*
X-68550000Y-25900000D03*
X-71150000Y-26850000D03*
%TO.N,Net-(T1-BOOT)*%
X-78250000Y-9900000D03*
X-75790000Y-4775000D03*
%TO.N,Net-(T1-FB)*%
X-69890000Y-5175000D03*
X-68790000Y-4075000D03*
%TO.N,Net-(USBC-V1-CC2)*%
X-36450000Y-18950000D03*
%TO.N,Net-(USBC-V1-CC1)*%
X-30320500Y-17955116D03*
%TO.N,Net-(T1-EN)*%
X-76750000Y-7875000D03*
X-71090000Y-7875000D03*
%TO.N,ECHO*%
X-33400000Y-8200000D03*
%TO.N,TRIG*%
X-33372500Y-6827500D03*
%TO.N,DIP1*%
X-45850000Y-20500000D03*
%TO.N,DIP2*%
X-44550000Y-20500000D03*
%TD*%
D35*
%TO.N,Net-(USBC-V1-SBU1)*%
X-29250000Y-22150000D02*
X-29250000Y-25900000D01*
X-30370500Y-21029500D02*
X-29250000Y-22150000D01*
X-30370500Y-18950000D02*
X-30370500Y-21029500D01*
%TO.N,Net-(USBC-V1-CC2)*%
X-36450000Y-18950000D02*
X-36450000Y-25900000D01*
D36*
%TO.N,LEDSIG*%
X-40020000Y-38500000D02*
X-51150000Y-38500000D01*
X-39240000Y-37720000D02*
X-40020000Y-38500000D01*
X-51150000Y-38500000D02*
X-55750000Y-33900000D01*
%TO.N,BTN*%
X-89240000Y-10050000D02*
X-89790000Y-9500000D01*
X-81550000Y-6600000D02*
X-83000000Y-6600000D01*
X-77600000Y-2650000D02*
X-81550000Y-6600000D01*
X-62000000Y-2650000D02*
X-77600000Y-2650000D01*
X-61150000Y-3500000D02*
X-62000000Y-2650000D01*
X-54800000Y-3500000D02*
X-61150000Y-3500000D01*
X-83000000Y-6600000D02*
X-86450000Y-10050000D01*
X-86450000Y-10050000D02*
X-89240000Y-10050000D01*
X-54800000Y-3500000D02*
X-54800000Y-5800000D01*
%TO.N,DIP3*%
X-43350000Y-20500000D02*
X-43350000Y-22132960D01*
X-31650000Y-30200000D02*
X-31620000Y-30200000D01*
X-37282960Y-28200000D02*
X-33650000Y-28200000D01*
X-43350000Y-22132960D02*
X-37282960Y-28200000D01*
X-33650000Y-28200000D02*
X-31650000Y-30200000D01*
%TO.N,DIP2*%
X-35660000Y-28700000D02*
X-34160000Y-30200000D01*
X-44550000Y-21641480D02*
X-37491480Y-28700000D01*
X-37491480Y-28700000D02*
X-35660000Y-28700000D01*
X-44550000Y-20500000D02*
X-44550000Y-21641480D01*
%TO.N,DIP1*%
X-45850000Y-21050000D02*
X-45850000Y-20500000D01*
X-36700000Y-30200000D02*
X-45850000Y-21050000D01*
%TO.N,DIP3*%
X-31090000Y-30140000D02*
X-31370000Y-29860000D01*
%TO.N,ECHO*%
X-24508521Y-21050000D02*
X-24000000Y-21050000D01*
X-30250000Y-15308521D02*
X-24508521Y-21050000D01*
X-30250000Y-8258520D02*
X-30250000Y-15308521D01*
X-30308520Y-8200000D02*
X-30250000Y-8258520D01*
X-33400000Y-8200000D02*
X-30308520Y-8200000D01*
%TO.N,Net-(U3-GPIO0{slash}BOOT)*%
X-46550000Y-25450000D02*
X-47050000Y-25950000D01*
X-47050000Y-25950000D02*
X-47050000Y-26150000D01*
X-46550000Y-23650000D02*
X-46550000Y-25450000D01*
D37*
%TO.N,3.3V*%
X-52450000Y-28650000D02*
X-52450000Y-25850000D01*
D36*
%TO.N,Net-(U3-GPIO0{slash}BOOT)*%
X-47450000Y-22750000D02*
X-46550000Y-23650000D01*
X-45550000Y-14900000D02*
X-47450000Y-16800000D01*
X-45550000Y-5550000D02*
X-45550000Y-14900000D01*
X-47450000Y-16800000D02*
X-47450000Y-22750000D01*
X-42250000Y-4000000D02*
X-44000000Y-4000000D01*
X-44000000Y-4000000D02*
X-45550000Y-5550000D01*
%TO.N,PG*%
X-69850000Y-6900000D02*
X-70150000Y-6600000D01*
X-57800000Y-6900000D02*
X-69850000Y-6900000D01*
X-54750000Y-9950000D02*
X-57800000Y-6900000D01*
X-54750000Y-15100000D02*
X-54750000Y-9950000D01*
%TO.N,3.3V*%
X-50650000Y-5800000D02*
X-52800000Y-5800000D01*
%TO.N,LEDSIG*%
X-55750000Y-31500000D02*
X-55750000Y-33900000D01*
D37*
%TO.N,Net-(LED-OK1-K)*%
X-63550000Y-27800000D02*
X-59450000Y-27800000D01*
%TO.N,Net-(LED-W1-A)*%
X-59500000Y-23100000D02*
X-63550000Y-23100000D01*
D36*
%TO.N,PG*%
X-50450000Y-24500000D02*
X-50450000Y-22600000D01*
X-50450000Y-24500000D02*
X-50450000Y-25850000D01*
D37*
%TO.N,3.3V*%
X-44550000Y-28650000D02*
X-45050000Y-28650000D01*
X-43650000Y-28700000D02*
X-44500000Y-28700000D01*
X-44500000Y-28700000D02*
X-44550000Y-28650000D01*
D36*
%TO.N,Net-(U3-GPIO0{slash}BOOT)*%
X-47050000Y-28650000D02*
X-47050000Y-26150000D01*
%TO.N,PG*%
X-54750000Y-17100000D02*
X-54750000Y-15100000D01*
D35*
%TO.N,Net-(USBC-V1-SBU2)*%
X-37950000Y-16166517D02*
X-37950000Y-12200000D01*
X-36456331Y-17749000D02*
X-36456331Y-17660186D01*
X-36456331Y-17660186D02*
X-37950000Y-16166517D01*
X-37950000Y-12200000D02*
X-39150000Y-11000000D01*
D36*
%TO.N,Net-(USBC-V1-SBU1)*%
X-29250000Y-25900000D02*
X-29500000Y-25650000D01*
D38*
%TO.N,D-*%
X-33770500Y-18102308D02*
X-33770500Y-18105116D01*
X-33070000Y-18805616D02*
X-33070000Y-19205116D01*
X-33770500Y-18105116D02*
X-33070000Y-18805616D01*
D37*
%TO.N,Net-(T1-BOOT)*%
X-76425000Y-4775000D02*
X-75790000Y-4775000D01*
X-78250000Y-6600000D02*
X-76425000Y-4775000D01*
X-78250000Y-9900000D02*
X-78250000Y-6600000D01*
D36*
%TO.N,Net-(T1-FB)*%
X-69890000Y-5175000D02*
X-68990000Y-4275000D01*
X-68990000Y-4275000D02*
X-68790000Y-4075000D01*
D35*
%TO.N,Net-(USBC-V1-CC1)*%
X-30320500Y-17955116D02*
X-30320500Y-16999500D01*
X-36450000Y-15970000D02*
X-36450000Y-8100000D01*
X-30920000Y-16400000D02*
X-36020000Y-16400000D01*
X-30920000Y-16400000D02*
X-30320500Y-16999500D01*
X-36020000Y-16400000D02*
X-36450000Y-15970000D01*
D37*
%TO.N,Net-(T1-EN)*%
X-76750000Y-7875000D02*
X-71090000Y-7875000D01*
D36*
%TO.N,TRIG*%
X-25800000Y-19050000D02*
X-29749000Y-15101000D01*
X-29749000Y-15101000D02*
X-29749000Y-8050999D01*
X-30972500Y-6827500D02*
X-33372500Y-6827500D01*
X-29749000Y-8050999D02*
X-30972500Y-6827500D01*
X-24020000Y-19050000D02*
X-25800000Y-19050000D01*
D39*
%TO.N,Net-(D1-K)*%
X-69850000Y-18000000D02*
X-69850000Y-21200000D01*
X-81150000Y-16200000D02*
X-71650000Y-16200000D01*
X-82650000Y-14700000D02*
X-81150000Y-16200000D01*
X-71650000Y-16200000D02*
X-69850000Y-18000000D01*
X-82650000Y-12800000D02*
X-82650000Y-14700000D01*
D37*
%TO.N,Net-(R15-Pad1)*%
X-57450000Y-23100000D02*
X-57450000Y-20900000D01*
%TO.N,Net-(R14-Pad2)*%
X-57450000Y-27800000D02*
X-57450000Y-25450000D01*
D36*
%TO.N,Net-(Q1-G)*%
X-64350000Y-31460000D02*
X-57790000Y-31460000D01*
%TO.N,LEDSIG*%
X-48800000Y-21750000D02*
X-48800000Y-29400000D01*
X-49700000Y-20300000D02*
X-49700000Y-20850000D01*
X-50900000Y-31500000D02*
X-55750000Y-31500000D01*
%TO.N,Net-(Q1-G)*%
X-57790000Y-31460000D02*
X-57750000Y-31500000D01*
%TO.N,LEDSIG*%
X-48800000Y-29400000D02*
X-50900000Y-31500000D01*
X-49700000Y-20850000D02*
X-48800000Y-21750000D01*
%TD*%
%TA.AperFunction,Conductor*%
%TO.N,GND*%
G36*
X-21993077Y-501280D02*
G01*
X-21979223Y-502840D01*
X-21902729Y-511459D01*
X-21875668Y-517635D01*
X-21796457Y-545353D01*
X-21771453Y-557393D01*
X-21700389Y-602046D01*
X-21678690Y-619351D01*
X-21619351Y-678690D01*
X-21602046Y-700389D01*
X-21557393Y-771453D01*
X-21545353Y-796457D01*
X-21517635Y-875668D01*
X-21511459Y-902729D01*
X-21502840Y-979223D01*
X-21501280Y-993077D01*
X-21500500Y-1006959D01*
X-21500500Y-5743040D01*
X-21501280Y-5756922D01*
X-21502724Y-5769737D01*
X-21509958Y-5833954D01*
X-21511458Y-5847264D01*
X-21517636Y-5874333D01*
X-21545351Y-5953539D01*
X-21557395Y-5978549D01*
X-21591924Y-6033501D01*
X-21602042Y-6049604D01*
X-21619355Y-6071313D01*
X-21678686Y-6130644D01*
X-21700395Y-6147957D01*
X-21771447Y-6192602D01*
X-21796464Y-6204649D01*
X-21875662Y-6232362D01*
X-21902734Y-6238541D01*
X-21993076Y-6248720D01*
X-22006959Y-6249500D01*
X-27607317Y-6249500D01*
X-27819769Y-6280044D01*
X-28025715Y-6340516D01*
X-28220938Y-6429671D01*
X-28220954Y-6429680D01*
X-28401512Y-6545718D01*
X-28563724Y-6686275D01*
X-28704281Y-6848487D01*
X-28820319Y-7029045D01*
X-28820328Y-7029061D01*
X-28909483Y-7224284D01*
X-28909484Y-7224288D01*
X-28909485Y-7224290D01*
X-28922321Y-7268006D01*
X-28969955Y-7430230D01*
X-28974346Y-7460775D01*
X-29000500Y-7642683D01*
X-29000500Y-7684108D01*
X-29000500Y-13834107D01*
X-29000500Y-13899999D01*
X-29000500Y-14007317D01*
X-28969955Y-14219769D01*
X-28909485Y-14425710D01*
X-28909483Y-14425713D01*
X-28909483Y-14425715D01*
X-28820328Y-14620938D01*
X-28820325Y-14620942D01*
X-28820322Y-14620950D01*
X-28704281Y-14801513D01*
X-28563724Y-14963724D01*
X-28401513Y-15104281D01*
X-28220950Y-15220322D01*
X-28220942Y-15220325D01*
X-28220938Y-15220328D01*
X-28025715Y-15309483D01*
X-28025713Y-15309483D01*
X-28025710Y-15309485D01*
X-27819769Y-15369955D01*
X-27607317Y-15400500D01*
X-27565892Y-15400500D01*
X-22065892Y-15400500D01*
X-22006959Y-15400500D01*
X-21993077Y-15401280D01*
X-21979223Y-15402840D01*
X-21902729Y-15411459D01*
X-21875668Y-15417635D01*
X-21796457Y-15445353D01*
X-21771453Y-15457393D01*
X-21700389Y-15502046D01*
X-21678690Y-15519351D01*
X-21619351Y-15578690D01*
X-21602046Y-15600389D01*
X-21557393Y-15671453D01*
X-21545353Y-15696457D01*
X-21517635Y-15775668D01*
X-21511459Y-15802729D01*
X-21502840Y-15879223D01*
X-21501280Y-15893077D01*
X-21500500Y-15906959D01*
X-21500500Y-32393040D01*
X-21501280Y-32406922D01*
X-21503296Y-32424815D01*
X-21509189Y-32477127D01*
X-21511458Y-32497264D01*
X-21517636Y-32524333D01*
X-21545351Y-32603539D01*
X-21557395Y-32628549D01*
X-21598395Y-32693800D01*
X-21602042Y-32699604D01*
X-21619355Y-32721313D01*
X-21678686Y-32780644D01*
X-21700395Y-32797957D01*
X-21771447Y-32842602D01*
X-21796464Y-32854649D01*
X-21875662Y-32882362D01*
X-21902734Y-32888541D01*
X-21993076Y-32898720D01*
X-22006959Y-32899500D01*
X-24607414Y-32899500D01*
X-25020657Y-32935654D01*
X-25020661Y-32935654D01*
X-25429166Y-33007685D01*
X-25429170Y-33007685D01*
X-25429176Y-33007687D01*
X-25429183Y-33007689D01*
X-25829853Y-33115047D01*
X-25829863Y-33115050D01*
X-25829864Y-33115051D01*
X-26219670Y-33256929D01*
X-26219672Y-33256930D01*
X-26219683Y-33256934D01*
X-26595609Y-33432230D01*
X-26595633Y-33432243D01*
X-26848144Y-33578030D01*
X-26954874Y-33639651D01*
X-26954877Y-33639653D01*
X-26954880Y-33639655D01*
X-27294683Y-33877588D01*
X-27470360Y-34025000D01*
X-27612449Y-34144227D01*
X-27905773Y-34437551D01*
X-27973625Y-34518414D01*
X-28172411Y-34755316D01*
X-28172415Y-34755322D01*
X-28172416Y-34755323D01*
X-28410349Y-35095126D01*
X-28556083Y-35347545D01*
X-28617756Y-35454366D01*
X-28617769Y-35454390D01*
X-28793065Y-35830316D01*
X-28793066Y-35830321D01*
X-28793071Y-35830330D01*
X-28934949Y-36220136D01*
X-28934950Y-36220142D01*
X-28934952Y-36220146D01*
X-28938125Y-36231989D01*
X-29042313Y-36620824D01*
X-29077915Y-36822735D01*
X-29111312Y-37012141D01*
X-29114346Y-37029345D01*
X-29150499Y-37442587D01*
X-29150500Y-37442588D01*
X-29150500Y-38993040D01*
X-29151280Y-39006922D01*
X-29161458Y-39097268D01*
X-29167636Y-39124333D01*
X-29195351Y-39203539D01*
X-29207397Y-39228552D01*
X-29252042Y-39299604D01*
X-29269355Y-39321313D01*
X-29328686Y-39380644D01*
X-29350395Y-39397957D01*
X-29421447Y-39442602D01*
X-29446464Y-39454649D01*
X-29525662Y-39482362D01*
X-29552734Y-39488541D01*
X-29643076Y-39498720D01*
X-29656959Y-39499500D01*
X-86293041Y-39499500D01*
X-86306922Y-39498720D01*
X-86332898Y-39495793D01*
X-86397266Y-39488541D01*
X-86424337Y-39482362D01*
X-86503535Y-39454649D01*
X-86528552Y-39442602D01*
X-86599604Y-39397957D01*
X-86621313Y-39380644D01*
X-86680644Y-39321313D01*
X-86697957Y-39299604D01*
X-86742602Y-39228552D01*
X-86754649Y-39203535D01*
X-86782362Y-39124337D01*
X-86788541Y-39097265D01*
X-86798720Y-39006923D01*
X-86799500Y-38993040D01*
X-86799500Y-36231989D01*
X-85500500Y-36231989D01*
X-85500500Y-36468011D01*
X-85469693Y-36702014D01*
X-85408606Y-36929993D01*
X-85318284Y-37148049D01*
X-85200273Y-37352450D01*
X-85056592Y-37539699D01*
X-84889699Y-37706592D01*
X-84702450Y-37850273D01*
X-84498049Y-37968284D01*
X-84279993Y-38058606D01*
X-84052014Y-38119693D01*
X-83818011Y-38150500D01*
X-83818004Y-38150500D01*
X-83581996Y-38150500D01*
X-83581989Y-38150500D01*
X-83347986Y-38119693D01*
X-83120007Y-38058606D01*
X-82901951Y-37968284D01*
X-82901948Y-37968282D01*
X-82901943Y-37968280D01*
X-82778096Y-37896776D01*
X-82697550Y-37850273D01*
X-82620306Y-37791001D01*
X-82510302Y-37706593D01*
X-82510295Y-37706587D01*
X-82343412Y-37539704D01*
X-82343406Y-37539697D01*
X-82199730Y-37352454D01*
X-82199729Y-37352453D01*
X-82199727Y-37352450D01*
X-82124781Y-37222640D01*
X-82081719Y-37148056D01*
X-82081714Y-37148045D01*
X-81991394Y-36929993D01*
X-81981263Y-36892183D01*
X-81930307Y-36702014D01*
X-81930121Y-36700605D01*
X-81899501Y-36468020D01*
X-81899500Y-36468004D01*
X-81899500Y-36231995D01*
X-81899501Y-36231979D01*
X-81930306Y-35997989D01*
X-81991394Y-35770006D01*
X-82081714Y-35551954D01*
X-82081719Y-35551943D01*
X-82199730Y-35347545D01*
X-82343406Y-35160302D01*
X-82343412Y-35160295D01*
X-82510295Y-34993412D01*
X-82510302Y-34993406D01*
X-82697545Y-34849730D01*
X-82901943Y-34731719D01*
X-82901954Y-34731714D01*
X-83120006Y-34641394D01*
X-83347989Y-34580306D01*
X-83581979Y-34549501D01*
X-83581983Y-34549500D01*
X-83581989Y-34549500D01*
X-83818011Y-34549500D01*
X-83818017Y-34549500D01*
X-83818020Y-34549501D01*
X-84052010Y-34580306D01*
X-84052013Y-34580306D01*
X-84052014Y-34580307D01*
X-84096000Y-34592093D01*
X-84279993Y-34641394D01*
X-84498045Y-34731714D01*
X-84498056Y-34731719D01*
X-84608743Y-34795625D01*
X-84702450Y-34849727D01*
X-84702453Y-34849729D01*
X-84702454Y-34849730D01*
X-84889697Y-34993406D01*
X-84889704Y-34993412D01*
X-85056587Y-35160295D01*
X-85056592Y-35160301D01*
X-85200273Y-35347550D01*
X-85261943Y-35454366D01*
X-85318280Y-35551943D01*
X-85318282Y-35551948D01*
X-85318284Y-35551951D01*
X-85408606Y-35770007D01*
X-85469693Y-35997986D01*
X-85500500Y-36231989D01*
X-86799500Y-36231989D01*
X-86799500Y-34810036D01*
X-86798660Y-34795625D01*
X-86798445Y-34793793D01*
X-86793944Y-34755323D01*
X-86787694Y-34701907D01*
X-86781041Y-34673867D01*
X-86751232Y-34592055D01*
X-86738285Y-34566305D01*
X-86690391Y-34493580D01*
X-86671851Y-34471517D01*
X-86603172Y-34406828D01*
X-86592106Y-34397559D01*
X-86482659Y-34316239D01*
X-82156112Y-31101564D01*
X-82076172Y-31042352D01*
X-81932509Y-30902763D01*
X-81932508Y-30902762D01*
X-81932506Y-30902760D01*
X-81808673Y-30745320D01*
X-81706857Y-30572810D01*
X-81706854Y-30572805D01*
X-81628873Y-30388303D01*
X-81576102Y-30195069D01*
X-81549480Y-29996534D01*
X-81549500Y-29896382D01*
X-81549500Y-20398638D01*
X-81549500Y-20380032D01*
X-81549504Y-20380014D01*
X-81549506Y-20372401D01*
X-81549505Y-20372398D01*
X-81549506Y-20372387D01*
X-81549509Y-20340857D01*
X-81578795Y-20132765D01*
X-81636794Y-19930792D01*
X-81636800Y-19930776D01*
X-81722378Y-19738864D01*
X-81722379Y-19738863D01*
X-81833879Y-19560733D01*
X-81969105Y-19399896D01*
X-81992427Y-19378941D01*
X-81992512Y-19378854D01*
X-82679722Y-18761530D01*
X-82775632Y-18675373D01*
X-76400000Y-18675373D01*
X-76400000Y-19950000D01*
X-75358241Y-19950000D01*
X-75371178Y-19981233D01*
X-75400000Y-20126131D01*
X-75400000Y-20273869D01*
X-75371178Y-20418767D01*
X-75358241Y-20450000D01*
X-76400000Y-20450000D01*
X-76400000Y-21724626D01*
X-76399999Y-21724628D01*
X-76385496Y-21797540D01*
X-76385494Y-21797544D01*
X-76330239Y-21880239D01*
X-76247544Y-21935494D01*
X-76247540Y-21935496D01*
X-76174628Y-21949999D01*
X-76174626Y-21950000D01*
X-74900000Y-21950000D01*
X-74900000Y-20908240D01*
X-74868767Y-20921178D01*
X-74723869Y-20950000D01*
X-74576131Y-20950000D01*
X-74431233Y-20921178D01*
X-74400000Y-20908240D01*
X-74400000Y-21950000D01*
X-73125374Y-21950000D01*
X-73125371Y-21949999D01*
X-73052459Y-21935496D01*
X-73052455Y-21935494D01*
X-72969760Y-21880239D01*
X-72914505Y-21797544D01*
X-72914503Y-21797540D01*
X-72900000Y-21724628D01*
X-72900000Y-20450000D01*
X-73941759Y-20450000D01*
X-73928822Y-20418767D01*
X-73900000Y-20273869D01*
X-73900000Y-20126131D01*
X-73928822Y-19981233D01*
X-73941759Y-19950000D01*
X-72900000Y-19950000D01*
X-72900000Y-18675371D01*
X-72914503Y-18602459D01*
X-72914505Y-18602455D01*
X-72969760Y-18519760D01*
X-73052455Y-18464505D01*
X-73052459Y-18464503D01*
X-73125373Y-18450000D01*
X-74400000Y-18450000D01*
X-74400000Y-19491759D01*
X-74431233Y-19478822D01*
X-74576131Y-19450000D01*
X-74723869Y-19450000D01*
X-74868767Y-19478822D01*
X-74900000Y-19491759D01*
X-74900000Y-18450000D01*
X-76174627Y-18450000D01*
X-76247540Y-18464503D01*
X-76247544Y-18464505D01*
X-76330239Y-18519760D01*
X-76385494Y-18602455D01*
X-76385496Y-18602459D01*
X-76399999Y-18675371D01*
X-76400000Y-18675373D01*
X-82775632Y-18675373D01*
X-84435299Y-17184484D01*
X-84435424Y-17184385D01*
X-84462311Y-17160240D01*
X-84645687Y-17038650D01*
X-84645697Y-17038644D01*
X-84844836Y-16945106D01*
X-84844851Y-16945100D01*
X-85055511Y-16881605D01*
X-85235542Y-16855063D01*
X-85273183Y-16849514D01*
X-85273313Y-16849513D01*
X-85309646Y-16849509D01*
X-85309794Y-16849500D01*
X-85317306Y-16849500D01*
X-90683041Y-16849500D01*
X-90696922Y-16848720D01*
X-90722898Y-16845793D01*
X-90787266Y-16838541D01*
X-90814337Y-16832362D01*
X-90893535Y-16804649D01*
X-90918552Y-16792602D01*
X-90989604Y-16747957D01*
X-91011313Y-16730644D01*
X-91070644Y-16671313D01*
X-91087957Y-16649604D01*
X-91132602Y-16578552D01*
X-91144649Y-16553535D01*
X-91172362Y-16474337D01*
X-91178541Y-16447265D01*
X-91188720Y-16356923D01*
X-91189500Y-16343040D01*
X-91189500Y-13651508D01*
X-90790000Y-13651508D01*
X-90790000Y-13875000D01*
X-90190000Y-13875000D01*
X-90190000Y-14125000D01*
X-90790000Y-14125000D01*
X-90790000Y-14348492D01*
X-90789999Y-14348495D01*
X-90751572Y-14541681D01*
X-90751569Y-14541693D01*
X-90676192Y-14723671D01*
X-90676185Y-14723684D01*
X-90566751Y-14887462D01*
X-90566748Y-14887466D01*
X-90427466Y-15026748D01*
X-90427462Y-15026751D01*
X-90263684Y-15136185D01*
X-90263671Y-15136192D01*
X-90081693Y-15211569D01*
X-90081681Y-15211572D01*
X-89915000Y-15244727D01*
X-89915000Y-14480617D01*
X-89842661Y-14500000D01*
X-89737339Y-14500000D01*
X-89665000Y-14480617D01*
X-89665000Y-15244727D01*
X-89664999Y-15244727D01*
X-89540951Y-15220053D01*
X-89498318Y-15211572D01*
X-89498306Y-15211569D01*
X-89316328Y-15136192D01*
X-89316315Y-15136185D01*
X-89299576Y-15125000D01*
X-88534728Y-15125000D01*
X-87770617Y-15125000D01*
X-87790000Y-15197339D01*
X-87790000Y-15302661D01*
X-87770617Y-15375000D01*
X-88534727Y-15375000D01*
X-88501572Y-15541681D01*
X-88501569Y-15541693D01*
X-88426192Y-15723671D01*
X-88426185Y-15723684D01*
X-88316751Y-15887462D01*
X-88316748Y-15887466D01*
X-88177466Y-16026748D01*
X-88177462Y-16026751D01*
X-88013684Y-16136185D01*
X-88013671Y-16136192D01*
X-87831693Y-16211569D01*
X-87831681Y-16211572D01*
X-87638495Y-16249999D01*
X-87638492Y-16250000D01*
X-87415000Y-16250000D01*
X-87415000Y-15650000D01*
X-87165000Y-15650000D01*
X-87165000Y-16250000D01*
X-86941508Y-16250000D01*
X-86941504Y-16249999D01*
X-86748318Y-16211572D01*
X-86748306Y-16211569D01*
X-86566328Y-16136192D01*
X-86566315Y-16136185D01*
X-86402537Y-16026751D01*
X-86402533Y-16026748D01*
X-86263251Y-15887466D01*
X-86263248Y-15887462D01*
X-86153814Y-15723684D01*
X-86153807Y-15723671D01*
X-86078430Y-15541693D01*
X-86078427Y-15541681D01*
X-86045272Y-15375000D01*
X-86809383Y-15375000D01*
X-86790000Y-15302661D01*
X-86790000Y-15197339D01*
X-86809383Y-15125000D01*
X-86045272Y-15125000D01*
X-86045272Y-15124999D01*
X-86078427Y-14958318D01*
X-86078430Y-14958306D01*
X-86153807Y-14776328D01*
X-86153814Y-14776315D01*
X-86263248Y-14612537D01*
X-86263251Y-14612533D01*
X-86402533Y-14473251D01*
X-86402537Y-14473248D01*
X-86566315Y-14363814D01*
X-86566328Y-14363807D01*
X-86748306Y-14288430D01*
X-86748318Y-14288427D01*
X-86941504Y-14250000D01*
X-87165000Y-14250000D01*
X-87165000Y-14850000D01*
X-87415000Y-14850000D01*
X-87415000Y-14250000D01*
X-87638495Y-14250000D01*
X-87831681Y-14288427D01*
X-87831693Y-14288430D01*
X-88013671Y-14363807D01*
X-88013684Y-14363814D01*
X-88177462Y-14473248D01*
X-88177466Y-14473251D01*
X-88316748Y-14612533D01*
X-88316751Y-14612537D01*
X-88426185Y-14776315D01*
X-88426192Y-14776328D01*
X-88501569Y-14958306D01*
X-88501572Y-14958318D01*
X-88534727Y-15124999D01*
X-88534728Y-15125000D01*
X-89299576Y-15125000D01*
X-89195155Y-15055228D01*
X-89152537Y-15026751D01*
X-89152533Y-15026748D01*
X-89013251Y-14887466D01*
X-89013248Y-14887462D01*
X-88903814Y-14723684D01*
X-88903807Y-14723671D01*
X-88828430Y-14541693D01*
X-88828427Y-14541681D01*
X-88790000Y-14348495D01*
X-88790000Y-14125000D01*
X-89390000Y-14125000D01*
X-89390000Y-13875000D01*
X-88790000Y-13875000D01*
X-88790000Y-13651504D01*
X-88828427Y-13458318D01*
X-88828430Y-13458306D01*
X-88903807Y-13276328D01*
X-88903814Y-13276315D01*
X-89013248Y-13112537D01*
X-89013251Y-13112533D01*
X-89152533Y-12973251D01*
X-89152537Y-12973248D01*
X-89316315Y-12863814D01*
X-89316328Y-12863807D01*
X-89498306Y-12788430D01*
X-89498318Y-12788427D01*
X-89664999Y-12755271D01*
X-89665000Y-12755272D01*
X-89665000Y-13519382D01*
X-89737339Y-13500000D01*
X-89842661Y-13500000D01*
X-89915000Y-13519382D01*
X-89915000Y-12755271D01*
X-90081681Y-12788427D01*
X-90081693Y-12788430D01*
X-90263671Y-12863807D01*
X-90263684Y-12863814D01*
X-90427462Y-12973248D01*
X-90427466Y-12973251D01*
X-90566748Y-13112533D01*
X-90566751Y-13112537D01*
X-90676185Y-13276315D01*
X-90676192Y-13276328D01*
X-90751569Y-13458306D01*
X-90751572Y-13458318D01*
X-90789999Y-13651504D01*
X-90790000Y-13651508D01*
X-91189500Y-13651508D01*
X-91189500Y-11925323D01*
X-83750500Y-11925323D01*
X-83750500Y-11925326D01*
X-83750500Y-13674674D01*
X-83735966Y-13747740D01*
X-83680601Y-13830601D01*
X-83597740Y-13885966D01*
X-83524677Y-13900499D01*
X-83524676Y-13900500D01*
X-83524674Y-13900500D01*
X-83424500Y-13900500D01*
X-83357461Y-13920185D01*
X-83311706Y-13972989D01*
X-83300500Y-14024500D01*
X-83300500Y-14764071D01*
X-83293969Y-14796904D01*
X-83275501Y-14889744D01*
X-83226465Y-15008127D01*
X-83155277Y-15114669D01*
X-81564670Y-16705276D01*
X-81479798Y-16761985D01*
X-81458127Y-16776465D01*
X-81339744Y-16825501D01*
X-81305252Y-16832362D01*
X-81214071Y-16850500D01*
X-81214069Y-16850500D01*
X-71970808Y-16850500D01*
X-71903769Y-16870185D01*
X-71883127Y-16886819D01*
X-70536819Y-18233127D01*
X-70503334Y-18294450D01*
X-70500500Y-18320808D01*
X-70500500Y-19725500D01*
X-70520185Y-19792539D01*
X-70572989Y-19838294D01*
X-70624500Y-19849500D01*
X-70974677Y-19849500D01*
X-71047735Y-19864032D01*
X-71047739Y-19864033D01*
X-71047740Y-19864034D01*
X-71130601Y-19919399D01*
X-71171916Y-19981233D01*
X-71185966Y-20002260D01*
X-71185967Y-20002264D01*
X-71200499Y-20075321D01*
X-71200500Y-20075323D01*
X-71200500Y-20075326D01*
X-71200500Y-22324674D01*
X-71185966Y-22397740D01*
X-71183380Y-22401610D01*
X-71162503Y-22468288D01*
X-71180988Y-22535668D01*
X-71232968Y-22582358D01*
X-71286483Y-22594500D01*
X-77326000Y-22594500D01*
X-77326009Y-22594501D01*
X-77390935Y-22601481D01*
X-77390947Y-22601483D01*
X-77442453Y-22612688D01*
X-77480654Y-22623644D01*
X-77480658Y-22623646D01*
X-77574958Y-22678797D01*
X-77577571Y-22680325D01*
X-77622925Y-22719625D01*
X-77630376Y-22726081D01*
X-77630387Y-22726091D01*
X-77672548Y-22770807D01*
X-77672549Y-22770809D01*
X-77672553Y-22770813D01*
X-77723439Y-22870889D01*
X-77743124Y-22937928D01*
X-77755500Y-23024000D01*
X-77755500Y-25105324D01*
X-77755500Y-27276000D01*
X-77748518Y-27340941D01*
X-77737312Y-27392452D01*
X-77726354Y-27430658D01*
X-77715526Y-27449172D01*
X-77698672Y-27516978D01*
X-77721153Y-27583133D01*
X-77730012Y-27594298D01*
X-77765042Y-27633577D01*
X-77765042Y-27633578D01*
X-77765043Y-27633579D01*
X-77809581Y-27727527D01*
X-77819389Y-27748215D01*
X-77839074Y-27815254D01*
X-77855500Y-27929500D01*
X-77855500Y-28906318D01*
X-77855500Y-30111882D01*
X-77855500Y-31493680D01*
X-77855500Y-32420500D01*
X-77846232Y-32506699D01*
X-77835026Y-32558210D01*
X-77812310Y-32629860D01*
X-77808287Y-32636320D01*
X-77789561Y-32703631D01*
X-77801502Y-32754984D01*
X-77813666Y-32780644D01*
X-77819389Y-32792715D01*
X-77839074Y-32859754D01*
X-77855500Y-32974000D01*
X-77855500Y-34544500D01*
X-77855500Y-35166066D01*
X-77855500Y-35845783D01*
X-77855500Y-35855500D01*
X-77855500Y-38076000D01*
X-77846232Y-38162199D01*
X-77835026Y-38213710D01*
X-77812310Y-38285360D01*
X-77745250Y-38393057D01*
X-77699495Y-38445861D01*
X-77621923Y-38515042D01*
X-77507285Y-38569389D01*
X-77440246Y-38589074D01*
X-77326000Y-38605500D01*
X-77325997Y-38605500D01*
X-67429056Y-38605500D01*
X-67429053Y-38605500D01*
X-67316229Y-38589488D01*
X-67316223Y-38589486D01*
X-67316221Y-38589486D01*
X-67249951Y-38570289D01*
X-67196633Y-38547200D01*
X-67155910Y-38529566D01*
X-67058261Y-38448572D01*
X-67012119Y-38396098D01*
X-67012119Y-38396097D01*
X-66949019Y-38299468D01*
X-66595333Y-37539697D01*
X-66028596Y-36322262D01*
X-65982459Y-36269794D01*
X-65915278Y-36250598D01*
X-65848383Y-36270771D01*
X-65826512Y-36290000D01*
X-64898482Y-36290000D01*
X-64909111Y-36308409D01*
X-64950000Y-36461009D01*
X-64950000Y-36618991D01*
X-64909111Y-36771591D01*
X-64898482Y-36790000D01*
X-65825362Y-36790000D01*
X-65820451Y-36821002D01*
X-65762085Y-37000637D01*
X-65676329Y-37168940D01*
X-65565314Y-37321741D01*
X-65565310Y-37321746D01*
X-65431746Y-37455310D01*
X-65431741Y-37455314D01*
X-65278940Y-37566329D01*
X-65110637Y-37652085D01*
X-64931002Y-37710451D01*
X-64744447Y-37740000D01*
X-64600000Y-37740000D01*
X-64600000Y-37088482D01*
X-64581591Y-37099111D01*
X-64428991Y-37140000D01*
X-64271009Y-37140000D01*
X-64118409Y-37099111D01*
X-64100000Y-37088482D01*
X-64100000Y-37740000D01*
X-63955553Y-37740000D01*
X-63768997Y-37710451D01*
X-63589362Y-37652085D01*
X-63421059Y-37566329D01*
X-63268258Y-37455314D01*
X-63268253Y-37455310D01*
X-63134689Y-37321746D01*
X-63134685Y-37321741D01*
X-63023670Y-37168940D01*
X-62937914Y-37000637D01*
X-62879548Y-36821002D01*
X-62874638Y-36790000D01*
X-63801518Y-36790000D01*
X-63790889Y-36771591D01*
X-63750000Y-36618991D01*
X-63750000Y-36461009D01*
X-63790889Y-36308409D01*
X-63801518Y-36290000D01*
X-62874638Y-36290000D01*
X-62879548Y-36258997D01*
X-62937914Y-36079362D01*
X-63023670Y-35911059D01*
X-63134685Y-35758258D01*
X-63134689Y-35758253D01*
X-63268253Y-35624689D01*
X-63268258Y-35624685D01*
X-63421061Y-35513668D01*
X-63516698Y-35464938D01*
X-63567493Y-35416963D01*
X-63584288Y-35349142D01*
X-63561750Y-35283008D01*
X-63516696Y-35243969D01*
X-63342182Y-35155050D01*
X-63170213Y-35030109D01*
X-63019890Y-34879786D01*
X-62894951Y-34707820D01*
X-62798444Y-34518414D01*
X-62796284Y-34511768D01*
X-62759262Y-34397827D01*
X-58600000Y-34397827D01*
X-58599999Y-34397844D01*
X-58593598Y-34457372D01*
X-58593596Y-34457379D01*
X-58543354Y-34592086D01*
X-58543350Y-34592093D01*
X-58457190Y-34707187D01*
X-58457187Y-34707190D01*
X-58342093Y-34793350D01*
X-58342086Y-34793354D01*
X-58207379Y-34843596D01*
X-58207372Y-34843598D01*
X-58147844Y-34849999D01*
X-58147828Y-34850000D01*
X-57875000Y-34850000D01*
X-57625000Y-34850000D01*
X-57352172Y-34850000D01*
X-57352155Y-34849999D01*
X-57292627Y-34843598D01*
X-57292620Y-34843596D01*
X-57157913Y-34793354D01*
X-57157906Y-34793350D01*
X-57042812Y-34707190D01*
X-57042809Y-34707187D01*
X-56956649Y-34592093D01*
X-56956645Y-34592086D01*
X-56906403Y-34457379D01*
X-56906401Y-34457372D01*
X-56900000Y-34397844D01*
X-56900000Y-34025000D01*
X-57625000Y-34025000D01*
X-57625000Y-34850000D01*
X-57875000Y-34850000D01*
X-57875000Y-34025000D01*
X-58600000Y-34025000D01*
X-58600000Y-34397827D01*
X-62759262Y-34397827D01*
X-62732754Y-34316243D01*
X-62699500Y-34106287D01*
X-62699500Y-33893713D01*
X-62718302Y-33775000D01*
X-62732753Y-33683760D01*
X-62798444Y-33481583D01*
X-62811915Y-33455147D01*
X-62811916Y-33455146D01*
X-62823586Y-33432243D01*
X-62838908Y-33402172D01*
X-58600000Y-33402172D01*
X-58600000Y-33775000D01*
X-57875000Y-33775000D01*
X-57625000Y-33775000D01*
X-56900000Y-33775000D01*
X-56900000Y-33402155D01*
X-56906401Y-33342627D01*
X-56906403Y-33342620D01*
X-56956645Y-33207913D01*
X-56956649Y-33207906D01*
X-57042809Y-33092812D01*
X-57042812Y-33092809D01*
X-57157906Y-33006649D01*
X-57157913Y-33006645D01*
X-57292620Y-32956403D01*
X-57292627Y-32956401D01*
X-57352155Y-32950000D01*
X-57625000Y-32950000D01*
X-57625000Y-33775000D01*
X-57875000Y-33775000D01*
X-57875000Y-32950000D01*
X-58147844Y-32950000D01*
X-58207372Y-32956401D01*
X-58207379Y-32956403D01*
X-58342086Y-33006645D01*
X-58342093Y-33006649D01*
X-58457187Y-33092809D01*
X-58457190Y-33092812D01*
X-58543350Y-33207906D01*
X-58543354Y-33207913D01*
X-58593596Y-33342620D01*
X-58593598Y-33342627D01*
X-58599999Y-33402155D01*
X-58600000Y-33402172D01*
X-62838908Y-33402172D01*
X-62869247Y-33342627D01*
X-62894951Y-33292179D01*
X-63019890Y-33120213D01*
X-63170209Y-32969894D01*
X-63170214Y-32969890D01*
X-63308519Y-32869406D01*
X-63351185Y-32814076D01*
X-63357164Y-32744463D01*
X-63324558Y-32682668D01*
X-63263720Y-32648311D01*
X-63259834Y-32647472D01*
X-63252260Y-32645966D01*
X-63169399Y-32590601D01*
X-63132405Y-32535235D01*
X-63114033Y-32507739D01*
X-63114032Y-32507735D01*
X-63099500Y-32434678D01*
X-63099500Y-31984500D01*
X-63079815Y-31917461D01*
X-63027011Y-31871706D01*
X-62975500Y-31860500D01*
X-58724499Y-31860500D01*
X-58657460Y-31880185D01*
X-58611705Y-31932989D01*
X-58600499Y-31984500D01*
X-58600499Y-31997872D01*
X-58594091Y-32057483D01*
X-58543796Y-32192331D01*
X-58457546Y-32307546D01*
X-58342331Y-32393796D01*
X-58207483Y-32444091D01*
X-58147873Y-32450500D01*
X-57352128Y-32450499D01*
X-57303757Y-32445299D01*
X-57292516Y-32444091D01*
X-57157671Y-32393797D01*
X-57157664Y-32393793D01*
X-57042455Y-32307547D01*
X-57042452Y-32307544D01*
X-56956206Y-32192335D01*
X-56956202Y-32192328D01*
X-56905908Y-32057482D01*
X-56899501Y-31997883D01*
X-56899500Y-31997881D01*
X-56899500Y-31997873D01*
X-56899500Y-31500498D01*
X-56899500Y-31002130D01*
X-56899500Y-31002127D01*
X-56600500Y-31002127D01*
X-56600499Y-31997872D01*
X-56594091Y-32057483D01*
X-56543796Y-32192331D01*
X-56457546Y-32307546D01*
X-56342331Y-32393796D01*
X-56342326Y-32393797D01*
X-56342326Y-32393798D01*
X-56270953Y-32420418D01*
X-56232721Y-32434678D01*
X-56231168Y-32435257D01*
X-56175234Y-32477127D01*
X-56150816Y-32542592D01*
X-56150500Y-32551439D01*
X-56150500Y-32848560D01*
X-56170185Y-32915599D01*
X-56222989Y-32961354D01*
X-56231167Y-32964742D01*
X-56342328Y-33006202D01*
X-56342335Y-33006206D01*
X-56457544Y-33092452D01*
X-56457547Y-33092455D01*
X-56543793Y-33207664D01*
X-56543797Y-33207671D01*
X-56543887Y-33207913D01*
X-56594091Y-33342517D01*
X-56600500Y-33402127D01*
X-56600499Y-34397872D01*
X-56594091Y-34457483D01*
X-56543796Y-34592331D01*
X-56457546Y-34707546D01*
X-56342331Y-34793796D01*
X-56207483Y-34844091D01*
X-56147873Y-34850500D01*
X-55417253Y-34850499D01*
X-55350215Y-34870183D01*
X-55329578Y-34886813D01*
X-51470481Y-38745912D01*
X-51470480Y-38745913D01*
X-51395913Y-38820480D01*
X-51304587Y-38873207D01*
X-51202727Y-38900500D01*
X-51202725Y-38900500D01*
X-39967275Y-38900500D01*
X-39967273Y-38900500D01*
X-39865412Y-38873207D01*
X-39865408Y-38873205D01*
X-39853174Y-38866141D01*
X-39774087Y-38820480D01*
X-39702104Y-38748497D01*
X-39640781Y-38715012D01*
X-39571089Y-38719996D01*
X-39566982Y-38721612D01*
X-39546420Y-38730130D01*
X-39343467Y-38770499D01*
X-39343466Y-38770500D01*
X-39343465Y-38770500D01*
X-39136534Y-38770500D01*
X-39136530Y-38770499D01*
X-39134016Y-38769999D01*
X-38933580Y-38730130D01*
X-38742402Y-38650941D01*
X-38570345Y-38535977D01*
X-38570342Y-38535975D01*
X-38424024Y-38389657D01*
X-38309058Y-38217596D01*
X-38229870Y-38026420D01*
X-38229868Y-38026412D01*
X-38189500Y-37823469D01*
X-38189500Y-37616583D01*
X-37750000Y-37616583D01*
X-37750000Y-37823417D01*
X-37749999Y-37823420D01*
X-37709651Y-38026266D01*
X-37709649Y-38026274D01*
X-37630499Y-38217359D01*
X-37527814Y-38371038D01*
X-37089564Y-37932788D01*
X-36999728Y-37970000D01*
X-36773225Y-37970000D01*
X-37351038Y-38547814D01*
X-37197359Y-38650499D01*
X-37006274Y-38729649D01*
X-37006266Y-38729651D01*
X-36803420Y-38769999D01*
X-36803417Y-38770000D01*
X-36596583Y-38770000D01*
X-36596579Y-38769999D01*
X-36393733Y-38729651D01*
X-36393725Y-38729649D01*
X-36202640Y-38650499D01*
X-36048961Y-38547814D01*
X-36626776Y-37970000D01*
X-36400272Y-37970000D01*
X-36310434Y-37932788D01*
X-35872185Y-38371037D01*
X-35872184Y-38371037D01*
X-35769505Y-38217368D01*
X-35769500Y-38217358D01*
X-35690350Y-38026274D01*
X-35690348Y-38026266D01*
X-35650000Y-37823420D01*
X-35650000Y-37616583D01*
X-35210000Y-37616583D01*
X-35210000Y-37823417D01*
X-35209999Y-37823420D01*
X-35169651Y-38026266D01*
X-35169649Y-38026274D01*
X-35090499Y-38217359D01*
X-34987814Y-38371038D01*
X-34549564Y-37932788D01*
X-34459728Y-37970000D01*
X-34233225Y-37970000D01*
X-34811038Y-38547814D01*
X-34657359Y-38650499D01*
X-34466274Y-38729649D01*
X-34466266Y-38729651D01*
X-34263420Y-38769999D01*
X-34263417Y-38770000D01*
X-34056583Y-38770000D01*
X-34056579Y-38769999D01*
X-33853733Y-38729651D01*
X-33853725Y-38729649D01*
X-33662640Y-38650499D01*
X-33508961Y-38547814D01*
X-34086776Y-37970000D01*
X-33860272Y-37970000D01*
X-33770434Y-37932788D01*
X-33332185Y-38371037D01*
X-33332184Y-38371037D01*
X-33229505Y-38217368D01*
X-33229500Y-38217358D01*
X-33150350Y-38026274D01*
X-33150348Y-38026266D01*
X-33110000Y-37823420D01*
X-33110000Y-37616583D01*
X-32670000Y-37616583D01*
X-32670000Y-37823417D01*
X-32669999Y-37823420D01*
X-32629651Y-38026266D01*
X-32629649Y-38026274D01*
X-32550499Y-38217359D01*
X-32447814Y-38371038D01*
X-32009564Y-37932788D01*
X-31919728Y-37970000D01*
X-31693225Y-37970000D01*
X-32271038Y-38547814D01*
X-32117359Y-38650499D01*
X-31926274Y-38729649D01*
X-31926266Y-38729651D01*
X-31723420Y-38769999D01*
X-31723417Y-38770000D01*
X-31516583Y-38770000D01*
X-31516579Y-38769999D01*
X-31313733Y-38729651D01*
X-31313725Y-38729649D01*
X-31122640Y-38650499D01*
X-30968961Y-38547814D01*
X-31546776Y-37970000D01*
X-31320272Y-37970000D01*
X-31230434Y-37932788D01*
X-30792185Y-38371037D01*
X-30792184Y-38371037D01*
X-30689505Y-38217368D01*
X-30689500Y-38217358D01*
X-30610350Y-38026274D01*
X-30610348Y-38026266D01*
X-30570000Y-37823420D01*
X-30570000Y-37616579D01*
X-30610348Y-37413733D01*
X-30610350Y-37413725D01*
X-30689502Y-37222636D01*
X-30689502Y-37222635D01*
X-30792183Y-37068961D01*
X-30792185Y-37068961D01*
X-31230435Y-37507211D01*
X-31320272Y-37470000D01*
X-31546776Y-37470000D01*
X-30968961Y-36892185D01*
X-30968961Y-36892183D01*
X-31122636Y-36789502D01*
X-31313725Y-36710350D01*
X-31313733Y-36710348D01*
X-31516579Y-36670000D01*
X-31723420Y-36670000D01*
X-31926266Y-36710348D01*
X-31926274Y-36710350D01*
X-32117358Y-36789500D01*
X-32117368Y-36789505D01*
X-32271037Y-36892184D01*
X-32271037Y-36892185D01*
X-31693225Y-37470000D01*
X-31919728Y-37470000D01*
X-32009564Y-37507210D01*
X-32447814Y-37068961D01*
X-32550499Y-37222640D01*
X-32629649Y-37413725D01*
X-32629651Y-37413733D01*
X-32669999Y-37616579D01*
X-32670000Y-37616583D01*
X-33110000Y-37616583D01*
X-33110000Y-37616579D01*
X-33150348Y-37413733D01*
X-33150350Y-37413725D01*
X-33229502Y-37222636D01*
X-33229502Y-37222635D01*
X-33332183Y-37068961D01*
X-33332185Y-37068961D01*
X-33770435Y-37507211D01*
X-33860272Y-37470000D01*
X-34086776Y-37470000D01*
X-33508961Y-36892185D01*
X-33508961Y-36892183D01*
X-33662636Y-36789502D01*
X-33853725Y-36710350D01*
X-33853733Y-36710348D01*
X-34056579Y-36670000D01*
X-34263420Y-36670000D01*
X-34466266Y-36710348D01*
X-34466274Y-36710350D01*
X-34657358Y-36789500D01*
X-34657368Y-36789505D01*
X-34811037Y-36892184D01*
X-34811037Y-36892185D01*
X-34233225Y-37470000D01*
X-34459728Y-37470000D01*
X-34549564Y-37507210D01*
X-34987814Y-37068961D01*
X-35090499Y-37222640D01*
X-35169649Y-37413725D01*
X-35169651Y-37413733D01*
X-35209999Y-37616579D01*
X-35210000Y-37616583D01*
X-35650000Y-37616583D01*
X-35650000Y-37616579D01*
X-35690348Y-37413733D01*
X-35690350Y-37413725D01*
X-35769502Y-37222636D01*
X-35769502Y-37222635D01*
X-35872183Y-37068961D01*
X-35872185Y-37068961D01*
X-36310435Y-37507211D01*
X-36400272Y-37470000D01*
X-36626776Y-37470000D01*
X-36048961Y-36892185D01*
X-36048961Y-36892183D01*
X-36202636Y-36789502D01*
X-36393725Y-36710350D01*
X-36393733Y-36710348D01*
X-36596579Y-36670000D01*
X-36803420Y-36670000D01*
X-37006266Y-36710348D01*
X-37006274Y-36710350D01*
X-37197358Y-36789500D01*
X-37197368Y-36789505D01*
X-37351037Y-36892184D01*
X-37351037Y-36892185D01*
X-36773225Y-37470000D01*
X-36999728Y-37470000D01*
X-37089564Y-37507210D01*
X-37527814Y-37068961D01*
X-37630499Y-37222640D01*
X-37709649Y-37413725D01*
X-37709651Y-37413733D01*
X-37749999Y-37616579D01*
X-37750000Y-37616583D01*
X-38189500Y-37616583D01*
X-38189500Y-37616530D01*
X-38229868Y-37413587D01*
X-38229870Y-37413579D01*
X-38309058Y-37222403D01*
X-38424024Y-37050342D01*
X-38424025Y-37050341D01*
X-38448290Y-37026077D01*
X-38570341Y-36904025D01*
X-38570342Y-36904024D01*
X-38742403Y-36789058D01*
X-38933579Y-36709870D01*
X-38933587Y-36709868D01*
X-39136530Y-36669500D01*
X-39136535Y-36669500D01*
X-39343465Y-36669500D01*
X-39343469Y-36669500D01*
X-39546412Y-36709868D01*
X-39546420Y-36709870D01*
X-39737598Y-36789059D01*
X-39823626Y-36846541D01*
X-39909657Y-36904024D01*
X-40055975Y-37050342D01*
X-40055977Y-37050345D01*
X-40170941Y-37222402D01*
X-40250130Y-37413580D01*
X-40280513Y-37566329D01*
X-40290499Y-37616530D01*
X-40290500Y-37616534D01*
X-40290500Y-37823466D01*
X-40290499Y-37823469D01*
X-40265071Y-37951309D01*
X-40271298Y-38020901D01*
X-40314161Y-38076078D01*
X-40380051Y-38099322D01*
X-40386688Y-38099500D01*
X-50932745Y-38099500D01*
X-50999784Y-38079815D01*
X-51020426Y-38063181D01*
X-54863181Y-34220424D01*
X-54896666Y-34159101D01*
X-54899500Y-34132743D01*
X-54899500Y-33828688D01*
X-50100500Y-33828688D01*
X-50100500Y-34171312D01*
X-50084700Y-34311541D01*
X-50062957Y-34504528D01*
X-50062139Y-34511783D01*
X-49985897Y-34845817D01*
X-49872736Y-35169215D01*
X-49724076Y-35477910D01*
X-49541789Y-35768018D01*
X-49328166Y-36035893D01*
X-49085893Y-36278166D01*
X-48818018Y-36491789D01*
X-48527910Y-36674076D01*
X-48219215Y-36822736D01*
X-47895817Y-36935897D01*
X-47561783Y-37012139D01*
X-47561771Y-37012140D01*
X-47561768Y-37012141D01*
X-47409134Y-37029338D01*
X-47221316Y-37050499D01*
X-47221315Y-37050500D01*
X-47221312Y-37050500D01*
X-46878685Y-37050500D01*
X-46878682Y-37050499D01*
X-46765197Y-37037713D01*
X-46538231Y-37012141D01*
X-46538226Y-37012140D01*
X-46538217Y-37012139D01*
X-46204183Y-36935897D01*
X-45880785Y-36822736D01*
X-45572090Y-36674076D01*
X-45281982Y-36491789D01*
X-45014107Y-36278166D01*
X-44771834Y-36035893D01*
X-44558211Y-35768018D01*
X-44375924Y-35477910D01*
X-44375922Y-35477907D01*
X-44227264Y-35169216D01*
X-44114103Y-34845818D01*
X-44114102Y-34845816D01*
X-44053071Y-34578422D01*
X-44037861Y-34511783D01*
X-44037860Y-34511780D01*
X-44037858Y-34511768D01*
X-43999500Y-34171318D01*
X-43999500Y-33828681D01*
X-44037858Y-33488231D01*
X-44037861Y-33488217D01*
X-44114102Y-33154183D01*
X-44114103Y-33154181D01*
X-44227264Y-32830783D01*
X-44375922Y-32522092D01*
X-44558210Y-32231983D01*
X-44771833Y-31964107D01*
X-45014107Y-31721833D01*
X-45281983Y-31508210D01*
X-45572092Y-31325922D01*
X-45880783Y-31177264D01*
X-46204181Y-31064103D01*
X-46204183Y-31064102D01*
X-46538217Y-30987861D01*
X-46538231Y-30987858D01*
X-46878681Y-30949500D01*
X-46878688Y-30949500D01*
X-47221312Y-30949500D01*
X-47221318Y-30949500D01*
X-47561768Y-30987858D01*
X-47561780Y-30987860D01*
X-47561783Y-30987861D01*
X-47624290Y-31002128D01*
X-47895816Y-31064102D01*
X-47895818Y-31064103D01*
X-48219216Y-31177264D01*
X-48527907Y-31325922D01*
X-48527910Y-31325924D01*
X-48818018Y-31508211D01*
X-49085893Y-31721834D01*
X-49328166Y-31964107D01*
X-49541789Y-32231982D01*
X-49724076Y-32522090D01*
X-49872736Y-32830785D01*
X-49985897Y-33154183D01*
X-50062139Y-33488217D01*
X-50100500Y-33828688D01*
X-54899500Y-33828688D01*
X-54899500Y-33402129D01*
X-54899501Y-33402123D01*
X-54905908Y-33342516D01*
X-54956202Y-33207671D01*
X-54956206Y-33207664D01*
X-55042452Y-33092455D01*
X-55042455Y-33092452D01*
X-55157664Y-33006206D01*
X-55157670Y-33006203D01*
X-55268834Y-32964741D01*
X-55324767Y-32922869D01*
X-55349184Y-32857405D01*
X-55349500Y-32848559D01*
X-55349500Y-32551439D01*
X-55329815Y-32484400D01*
X-55277011Y-32438645D01*
X-55268832Y-32435257D01*
X-55267279Y-32434678D01*
X-55240835Y-32424815D01*
X-55157673Y-32393798D01*
X-55157664Y-32393793D01*
X-55042455Y-32307547D01*
X-55042452Y-32307544D01*
X-54956206Y-32192335D01*
X-54956202Y-32192328D01*
X-54905910Y-32057486D01*
X-54905909Y-32057485D01*
X-54905909Y-32057483D01*
X-54900937Y-32011242D01*
X-54874201Y-31946694D01*
X-54816809Y-31906846D01*
X-54777649Y-31900500D01*
X-50847275Y-31900500D01*
X-50847273Y-31900500D01*
X-50745412Y-31873207D01*
X-50654087Y-31820480D01*
X-48946996Y-30113389D01*
X-40340500Y-30113389D01*
X-40340500Y-30286611D01*
X-40313402Y-30457701D01*
X-40259873Y-30622445D01*
X-40181232Y-30776788D01*
X-40079414Y-30916928D01*
X-39956928Y-31039414D01*
X-39816788Y-31141232D01*
X-39662445Y-31219873D01*
X-39497701Y-31273402D01*
X-39326611Y-31300500D01*
X-39326610Y-31300500D01*
X-39153390Y-31300500D01*
X-39153389Y-31300500D01*
X-38982299Y-31273402D01*
X-38817555Y-31219873D01*
X-38663212Y-31141232D01*
X-38523072Y-31039414D01*
X-38400586Y-30916928D01*
X-38298768Y-30776788D01*
X-38220127Y-30622445D01*
X-38166598Y-30457701D01*
X-38139500Y-30286611D01*
X-38139500Y-30113389D01*
X-38155583Y-30011846D01*
X-38166597Y-29942302D01*
X-38220128Y-29777552D01*
X-38298768Y-29623211D01*
X-38393430Y-29492922D01*
X-38400586Y-29483072D01*
X-38400588Y-29483070D01*
X-38400588Y-29483069D01*
X-38523069Y-29360588D01*
X-38663211Y-29258768D01*
X-38817552Y-29180128D01*
X-38982302Y-29126597D01*
X-38982301Y-29126597D01*
X-39121192Y-29104599D01*
X-39153389Y-29099500D01*
X-39326611Y-29099500D01*
X-39360819Y-29104918D01*
X-39497697Y-29126597D01*
X-39497699Y-29126597D01*
X-39497701Y-29126598D01*
X-39662445Y-29180127D01*
X-39816788Y-29258768D01*
X-39956928Y-29360586D01*
X-40079414Y-29483072D01*
X-40181232Y-29623212D01*
X-40259873Y-29777555D01*
X-40313402Y-29942299D01*
X-40340500Y-30113389D01*
X-48946996Y-30113389D01*
X-48479520Y-29645913D01*
X-48479519Y-29645912D01*
X-48479517Y-29645909D01*
X-48451284Y-29597007D01*
X-48451284Y-29597006D01*
X-48426793Y-29554588D01*
X-48399500Y-29452726D01*
X-48399500Y-28152127D01*
X-47900500Y-28152127D01*
X-47900499Y-29147872D01*
X-47894091Y-29207483D01*
X-47843796Y-29342331D01*
X-47757546Y-29457546D01*
X-47642331Y-29543796D01*
X-47507483Y-29594091D01*
X-47447873Y-29600500D01*
X-46652128Y-29600499D01*
X-46603757Y-29595299D01*
X-46592516Y-29594091D01*
X-46457671Y-29543797D01*
X-46457664Y-29543793D01*
X-46342455Y-29457547D01*
X-46342452Y-29457544D01*
X-46256206Y-29342335D01*
X-46256202Y-29342328D01*
X-46205908Y-29207482D01*
X-46199501Y-29147883D01*
X-46199500Y-29147881D01*
X-46199500Y-29147873D01*
X-46199501Y-28156898D01*
X-45950500Y-28156898D01*
X-45950500Y-29143102D01*
X-45939877Y-29231564D01*
X-45884361Y-29372342D01*
X-45792922Y-29492922D01*
X-45672342Y-29584361D01*
X-45531564Y-29639877D01*
X-45443102Y-29650500D01*
X-45443097Y-29650500D01*
X-44656903Y-29650500D01*
X-44656898Y-29650500D01*
X-44568436Y-29639877D01*
X-44427658Y-29584361D01*
X-44427657Y-29584360D01*
X-44427656Y-29584360D01*
X-44307077Y-29492922D01*
X-44215638Y-29372341D01*
X-44215637Y-29372339D01*
X-44198550Y-29329010D01*
X-44185642Y-29312421D01*
X-44176909Y-29293297D01*
X-44164615Y-29285396D01*
X-44155644Y-29273866D01*
X-44135816Y-29266888D01*
X-44118131Y-29255523D01*
X-44093422Y-29251970D01*
X-44089736Y-29250673D01*
X-44083196Y-29250500D01*
X-43928363Y-29250500D01*
X-43889820Y-29258165D01*
X-43889635Y-29257473D01*
X-43881785Y-29259576D01*
X-43881784Y-29259577D01*
X-43729057Y-29300500D01*
X-43729055Y-29300500D01*
X-43570945Y-29300500D01*
X-43570943Y-29300500D01*
X-43418216Y-29259577D01*
X-43374100Y-29234107D01*
X-43281290Y-29180524D01*
X-43281286Y-29180521D01*
X-43281284Y-29180520D01*
X-43169480Y-29068716D01*
X-43169479Y-29068714D01*
X-43169475Y-29068709D01*
X-43090426Y-28931790D01*
X-43090423Y-28931783D01*
X-43083599Y-28906318D01*
X-43049500Y-28779057D01*
X-43049500Y-28620943D01*
X-43090423Y-28468216D01*
X-43090426Y-28468209D01*
X-43169475Y-28331290D01*
X-43169481Y-28331282D01*
X-43281282Y-28219481D01*
X-43281290Y-28219475D01*
X-43418209Y-28140426D01*
X-43418216Y-28140423D01*
X-43570943Y-28099500D01*
X-43729057Y-28099500D01*
X-43881784Y-28140423D01*
X-43881785Y-28140423D01*
X-43889635Y-28142527D01*
X-43889746Y-28142111D01*
X-43893428Y-28144477D01*
X-43928363Y-28149500D01*
X-44043761Y-28149500D01*
X-44110800Y-28129815D01*
X-44156555Y-28077011D01*
X-44159115Y-28070990D01*
X-44215637Y-27927660D01*
X-44215638Y-27927658D01*
X-44307077Y-27807077D01*
X-44427656Y-27715639D01*
X-44568438Y-27660122D01*
X-44617853Y-27654188D01*
X-44656898Y-27649500D01*
X-45443102Y-27649500D01*
X-45485926Y-27654642D01*
X-45531561Y-27660122D01*
X-45672343Y-27715639D01*
X-45792922Y-27807077D01*
X-45884360Y-27927656D01*
X-45884360Y-27927657D01*
X-45884361Y-27927658D01*
X-45939877Y-28068436D01*
X-45950500Y-28156898D01*
X-46199501Y-28156898D01*
X-46199501Y-28152128D01*
X-46199501Y-28152127D01*
X-46199501Y-28152123D01*
X-46205908Y-28092516D01*
X-46256202Y-27957671D01*
X-46256206Y-27957664D01*
X-46342452Y-27842455D01*
X-46342455Y-27842452D01*
X-46457664Y-27756206D01*
X-46457670Y-27756203D01*
X-46568834Y-27714741D01*
X-46624767Y-27672869D01*
X-46649184Y-27607405D01*
X-46649500Y-27598559D01*
X-46649500Y-27221777D01*
X-46629815Y-27154738D01*
X-46577011Y-27108983D01*
X-46568832Y-27105595D01*
X-46470173Y-27068798D01*
X-46470164Y-27068793D01*
X-46354955Y-26982547D01*
X-46354952Y-26982544D01*
X-46268706Y-26867335D01*
X-46268702Y-26867328D01*
X-46218408Y-26732482D01*
X-46212001Y-26672883D01*
X-46212000Y-26672881D01*
X-46212000Y-26672873D01*
X-46212000Y-26672827D01*
X-45812500Y-26672827D01*
X-45812499Y-26672844D01*
X-45806098Y-26732372D01*
X-45806096Y-26732379D01*
X-45755854Y-26867086D01*
X-45755850Y-26867093D01*
X-45669690Y-26982187D01*
X-45669687Y-26982190D01*
X-45554593Y-27068350D01*
X-45554586Y-27068354D01*
X-45419879Y-27118596D01*
X-45419872Y-27118598D01*
X-45360344Y-27124999D01*
X-45360328Y-27125000D01*
X-45100000Y-27125000D01*
X-44850000Y-27125000D01*
X-44589672Y-27125000D01*
X-44589655Y-27124999D01*
X-44530127Y-27118598D01*
X-44530120Y-27118596D01*
X-44395413Y-27068354D01*
X-44395406Y-27068350D01*
X-44280312Y-26982190D01*
X-44280309Y-26982187D01*
X-44194149Y-26867093D01*
X-44194145Y-26867086D01*
X-44143903Y-26732379D01*
X-44143901Y-26732372D01*
X-44137500Y-26672844D01*
X-44137500Y-26275000D01*
X-44850000Y-26275000D01*
X-44850000Y-27125000D01*
X-45100000Y-27125000D01*
X-45100000Y-26275000D01*
X-45812500Y-26275000D01*
X-45812500Y-26672827D01*
X-46212000Y-26672827D01*
X-46212000Y-25698794D01*
X-46195387Y-25636794D01*
X-46189832Y-25627172D01*
X-45812500Y-25627172D01*
X-45812500Y-26025000D01*
X-45100000Y-26025000D01*
X-44850000Y-26025000D01*
X-44137500Y-26025000D01*
X-44137500Y-25627155D01*
X-44143901Y-25567627D01*
X-44143903Y-25567620D01*
X-44194145Y-25432913D01*
X-44194149Y-25432906D01*
X-44280309Y-25317812D01*
X-44280312Y-25317809D01*
X-44395406Y-25231649D01*
X-44395413Y-25231645D01*
X-44530120Y-25181403D01*
X-44530127Y-25181401D01*
X-44589655Y-25175000D01*
X-44850000Y-25175000D01*
X-44850000Y-26025000D01*
X-45100000Y-26025000D01*
X-45100000Y-25175000D01*
X-45360344Y-25175000D01*
X-45419872Y-25181401D01*
X-45419879Y-25181403D01*
X-45554586Y-25231645D01*
X-45554593Y-25231649D01*
X-45669687Y-25317809D01*
X-45669690Y-25317812D01*
X-45755850Y-25432906D01*
X-45755854Y-25432913D01*
X-45806096Y-25567620D01*
X-45806098Y-25567627D01*
X-45812499Y-25627155D01*
X-45812500Y-25627172D01*
X-46189832Y-25627172D01*
X-46180313Y-25610685D01*
X-46180311Y-25610685D01*
X-46180310Y-25610679D01*
X-46176794Y-25604590D01*
X-46176790Y-25604581D01*
X-46173354Y-25591756D01*
X-46149500Y-25502728D01*
X-46149500Y-24079386D01*
X-46129815Y-24012347D01*
X-46113181Y-23991705D01*
X-46109493Y-23988017D01*
X-46109488Y-23988011D01*
X-46037017Y-23862488D01*
X-46037016Y-23862485D01*
X-45999500Y-23722475D01*
X-45999500Y-23577525D01*
X-46037016Y-23437515D01*
X-46037015Y-23437515D01*
X-46037017Y-23437511D01*
X-46109488Y-23311988D01*
X-46109493Y-23311982D01*
X-46211982Y-23209493D01*
X-46211988Y-23209488D01*
X-46337511Y-23137017D01*
X-46337510Y-23137017D01*
X-46379108Y-23125870D01*
X-46477525Y-23099500D01*
X-46477528Y-23099500D01*
X-46482745Y-23099500D01*
X-46549784Y-23079815D01*
X-46570426Y-23063181D01*
X-47013181Y-22620426D01*
X-47046666Y-22559103D01*
X-47049500Y-22532745D01*
X-47049500Y-20427525D01*
X-46400500Y-20427525D01*
X-46400500Y-20572475D01*
X-46362984Y-20712485D01*
X-46290509Y-20838015D01*
X-46286819Y-20841705D01*
X-46253334Y-20903028D01*
X-46250500Y-20929386D01*
X-46250500Y-20997273D01*
X-46250500Y-21102727D01*
X-46223207Y-21204588D01*
X-46170480Y-21295913D01*
X-37728495Y-29737896D01*
X-37695012Y-29799217D01*
X-37699996Y-29868909D01*
X-37701617Y-29873027D01*
X-37708698Y-29890123D01*
X-37710130Y-29893580D01*
X-37750500Y-30096535D01*
X-37750500Y-30303465D01*
X-37710130Y-30506420D01*
X-37630941Y-30697598D01*
X-37515977Y-30869655D01*
X-37369655Y-31015977D01*
X-37197598Y-31130941D01*
X-37006420Y-31210130D01*
X-36803467Y-31250499D01*
X-36803466Y-31250500D01*
X-36803465Y-31250500D01*
X-36596534Y-31250500D01*
X-36596530Y-31250499D01*
X-36393580Y-31210130D01*
X-36202402Y-31130941D01*
X-36030345Y-31015977D01*
X-36030342Y-31015975D01*
X-35884024Y-30869657D01*
X-35769058Y-30697596D01*
X-35689870Y-30506420D01*
X-35689868Y-30506412D01*
X-35649500Y-30303469D01*
X-35649500Y-30096530D01*
X-35689868Y-29893587D01*
X-35689870Y-29893579D01*
X-35769058Y-29702403D01*
X-35884024Y-29530342D01*
X-36030341Y-29384025D01*
X-36030349Y-29384019D01*
X-36114784Y-29327602D01*
X-36159590Y-29273990D01*
X-36168297Y-29204665D01*
X-36138143Y-29141638D01*
X-36078700Y-29104918D01*
X-36045894Y-29100500D01*
X-35877255Y-29100500D01*
X-35810216Y-29120185D01*
X-35789573Y-29136819D01*
X-35188495Y-29737896D01*
X-35155012Y-29799217D01*
X-35159996Y-29868908D01*
X-35161617Y-29873027D01*
X-35168698Y-29890123D01*
X-35170130Y-29893580D01*
X-35210500Y-30096535D01*
X-35210500Y-30303465D01*
X-35170130Y-30506420D01*
X-35090941Y-30697598D01*
X-34975977Y-30869655D01*
X-34829655Y-31015977D01*
X-34657598Y-31130941D01*
X-34466420Y-31210130D01*
X-34263467Y-31250499D01*
X-34263466Y-31250500D01*
X-34263465Y-31250500D01*
X-34056534Y-31250500D01*
X-34056530Y-31250499D01*
X-33853580Y-31210130D01*
X-33662402Y-31130941D01*
X-33490345Y-31015977D01*
X-33490342Y-31015975D01*
X-33344024Y-30869657D01*
X-33229058Y-30697596D01*
X-33149870Y-30506420D01*
X-33149868Y-30506412D01*
X-33109500Y-30303469D01*
X-33109500Y-30096530D01*
X-33149868Y-29893587D01*
X-33149870Y-29893579D01*
X-33229058Y-29702403D01*
X-33344024Y-29530342D01*
X-33490342Y-29384024D01*
X-33662403Y-29269058D01*
X-33853579Y-29189870D01*
X-33853587Y-29189868D01*
X-34056530Y-29149500D01*
X-34056535Y-29149500D01*
X-34263465Y-29149500D01*
X-34263469Y-29149500D01*
X-34466412Y-29189868D01*
X-34466420Y-29189870D01*
X-34486969Y-29198382D01*
X-34556438Y-29205851D01*
X-34618917Y-29174576D01*
X-34622103Y-29171502D01*
X-34981426Y-28812181D01*
X-35014911Y-28750858D01*
X-35009927Y-28681167D01*
X-34968056Y-28625233D01*
X-34902591Y-28600816D01*
X-34893745Y-28600500D01*
X-33867255Y-28600500D01*
X-33800216Y-28620185D01*
X-33779573Y-28636819D01*
X-33208910Y-29207483D01*
X-32657284Y-29759108D01*
X-32623799Y-29820431D01*
X-32628608Y-29887678D01*
X-32628362Y-29887753D01*
X-32628691Y-29888837D01*
X-32628783Y-29890123D01*
X-32630083Y-29893427D01*
X-32630126Y-29893570D01*
X-32630130Y-29893580D01*
X-32670500Y-30096535D01*
X-32670500Y-30303465D01*
X-32630130Y-30506420D01*
X-32550941Y-30697598D01*
X-32435977Y-30869655D01*
X-32289655Y-31015977D01*
X-32117598Y-31130941D01*
X-31926420Y-31210130D01*
X-31723467Y-31250499D01*
X-31723466Y-31250500D01*
X-31723465Y-31250500D01*
X-31516534Y-31250500D01*
X-31516530Y-31250499D01*
X-31313580Y-31210130D01*
X-31122402Y-31130941D01*
X-30950345Y-31015977D01*
X-30950342Y-31015975D01*
X-30804024Y-30869657D01*
X-30689058Y-30697596D01*
X-30609870Y-30506420D01*
X-30609868Y-30506412D01*
X-30569500Y-30303469D01*
X-30569500Y-30096530D01*
X-30609868Y-29893587D01*
X-30609870Y-29893579D01*
X-30689058Y-29702402D01*
X-30726197Y-29646821D01*
X-30726197Y-29646820D01*
X-30759482Y-29597006D01*
X-30769516Y-29581989D01*
X-26200500Y-29581989D01*
X-26200500Y-29818011D01*
X-26169693Y-30052014D01*
X-26108606Y-30279993D01*
X-26018284Y-30498049D01*
X-25900273Y-30702450D01*
X-25756592Y-30889699D01*
X-25589699Y-31056592D01*
X-25402450Y-31200273D01*
X-25198049Y-31318284D01*
X-24979993Y-31408606D01*
X-24752014Y-31469693D01*
X-24518011Y-31500500D01*
X-24518004Y-31500500D01*
X-24281996Y-31500500D01*
X-24281989Y-31500500D01*
X-24047986Y-31469693D01*
X-23820007Y-31408606D01*
X-23601951Y-31318284D01*
X-23601948Y-31318282D01*
X-23601943Y-31318280D01*
X-23484546Y-31250500D01*
X-23397550Y-31200273D01*
X-23266220Y-31099500D01*
X-23210302Y-31056593D01*
X-23210295Y-31056587D01*
X-23043412Y-30889704D01*
X-23043406Y-30889697D01*
X-22899730Y-30702454D01*
X-22899729Y-30702453D01*
X-22899727Y-30702450D01*
X-22815121Y-30555909D01*
X-22781719Y-30498056D01*
X-22781714Y-30498045D01*
X-22691394Y-30279993D01*
X-22630306Y-30052010D01*
X-22599501Y-29818020D01*
X-22599500Y-29818004D01*
X-22599500Y-29581995D01*
X-22599501Y-29581979D01*
X-22630306Y-29347989D01*
X-22691394Y-29120006D01*
X-22781714Y-28901954D01*
X-22781719Y-28901943D01*
X-22899730Y-28697545D01*
X-23043406Y-28510302D01*
X-23043412Y-28510295D01*
X-23210295Y-28343412D01*
X-23210302Y-28343406D01*
X-23397545Y-28199730D01*
X-23601943Y-28081719D01*
X-23601954Y-28081714D01*
X-23820006Y-27991394D01*
X-24047989Y-27930306D01*
X-24281979Y-27899501D01*
X-24281983Y-27899500D01*
X-24281989Y-27899500D01*
X-24518011Y-27899500D01*
X-24518017Y-27899500D01*
X-24518020Y-27899501D01*
X-24752010Y-27930306D01*
X-24979993Y-27991394D01*
X-25198045Y-28081714D01*
X-25198056Y-28081719D01*
X-25299738Y-28140426D01*
X-25402450Y-28199727D01*
X-25402453Y-28199729D01*
X-25402454Y-28199730D01*
X-25589697Y-28343406D01*
X-25589704Y-28343412D01*
X-25756587Y-28510295D01*
X-25756592Y-28510301D01*
X-25900273Y-28697550D01*
X-25947331Y-28779057D01*
X-26018280Y-28901943D01*
X-26018282Y-28901948D01*
X-26018284Y-28901951D01*
X-26108606Y-29120007D01*
X-26169693Y-29347986D01*
X-26200500Y-29581989D01*
X-30769516Y-29581989D01*
X-30804024Y-29530342D01*
X-30950342Y-29384024D01*
X-31122403Y-29269058D01*
X-31313579Y-29189870D01*
X-31313587Y-29189868D01*
X-31516530Y-29149500D01*
X-31516535Y-29149500D01*
X-31723465Y-29149500D01*
X-31723469Y-29149500D01*
X-31926412Y-29189868D01*
X-31926416Y-29189869D01*
X-31926420Y-29189870D01*
X-31968183Y-29207169D01*
X-32037651Y-29214638D01*
X-32100130Y-29183364D01*
X-32103316Y-29180289D01*
X-33404084Y-27879522D01*
X-33404087Y-27879520D01*
X-33495410Y-27826793D01*
X-33597273Y-27799500D01*
X-37065705Y-27799500D01*
X-37132744Y-27779815D01*
X-37153386Y-27763181D01*
X-42913181Y-22003386D01*
X-42946666Y-21942063D01*
X-42949500Y-21915705D01*
X-42949500Y-20929386D01*
X-42929815Y-20862347D01*
X-42913181Y-20841705D01*
X-42909493Y-20838017D01*
X-42909488Y-20838011D01*
X-42837017Y-20712488D01*
X-42833551Y-20699553D01*
X-42799500Y-20572475D01*
X-42799500Y-20427525D01*
X-42837016Y-20287515D01*
X-42837015Y-20287515D01*
X-42837017Y-20287511D01*
X-42909488Y-20161988D01*
X-42909493Y-20161982D01*
X-43011982Y-20059493D01*
X-43011988Y-20059488D01*
X-43137511Y-19987017D01*
X-43137510Y-19987017D01*
X-43179108Y-19975870D01*
X-43277525Y-19949500D01*
X-43422475Y-19949500D01*
X-43562485Y-19987016D01*
X-43562488Y-19987017D01*
X-43688011Y-20059488D01*
X-43688013Y-20059490D01*
X-43688015Y-20059491D01*
X-43790509Y-20161985D01*
X-43828349Y-20227525D01*
X-43842613Y-20252231D01*
X-43893181Y-20300446D01*
X-43961788Y-20313668D01*
X-44026653Y-20287700D01*
X-44057387Y-20252231D01*
X-44109491Y-20161985D01*
X-44109493Y-20161982D01*
X-44211982Y-20059493D01*
X-44211988Y-20059488D01*
X-44337511Y-19987017D01*
X-44337510Y-19987017D01*
X-44379108Y-19975870D01*
X-44477525Y-19949500D01*
X-44622475Y-19949500D01*
X-44762485Y-19987016D01*
X-44762488Y-19987017D01*
X-44888011Y-20059488D01*
X-44888017Y-20059493D01*
X-44990506Y-20161982D01*
X-44990511Y-20161988D01*
X-45055105Y-20273869D01*
X-45062984Y-20287515D01*
X-45077751Y-20342627D01*
X-45080225Y-20351860D01*
X-45116591Y-20411520D01*
X-45179438Y-20442049D01*
X-45248813Y-20433754D01*
X-45302691Y-20389268D01*
X-45319775Y-20351860D01*
X-45322251Y-20342620D01*
X-45337016Y-20287515D01*
X-45337015Y-20287515D01*
X-45337017Y-20287511D01*
X-45409488Y-20161988D01*
X-45409493Y-20161982D01*
X-45511982Y-20059493D01*
X-45511988Y-20059488D01*
X-45637511Y-19987017D01*
X-45637510Y-19987017D01*
X-45679108Y-19975870D01*
X-45777525Y-19949500D01*
X-45922475Y-19949500D01*
X-46062485Y-19987016D01*
X-46062488Y-19987017D01*
X-46188011Y-20059488D01*
X-46188017Y-20059493D01*
X-46290506Y-20161982D01*
X-46290511Y-20161988D01*
X-46355105Y-20273869D01*
X-46362984Y-20287515D01*
X-46400500Y-20427525D01*
X-47049500Y-20427525D01*
X-47049500Y-17017254D01*
X-47029815Y-16950215D01*
X-47013181Y-16929573D01*
X-45315395Y-15231787D01*
X-45304089Y-15220481D01*
X-45304087Y-15220480D01*
X-45229520Y-15145913D01*
X-45199078Y-15093186D01*
X-45193942Y-15084291D01*
X-45176793Y-15054589D01*
X-45156891Y-14980310D01*
X-45149500Y-14952727D01*
X-45149500Y-14847273D01*
X-45149500Y-11497827D01*
X-42000000Y-11497827D01*
X-41999999Y-11497844D01*
X-41993598Y-11557372D01*
X-41993596Y-11557379D01*
X-41943354Y-11692086D01*
X-41943350Y-11692093D01*
X-41857190Y-11807187D01*
X-41857187Y-11807190D01*
X-41742093Y-11893350D01*
X-41742086Y-11893354D01*
X-41607379Y-11943596D01*
X-41607372Y-11943598D01*
X-41547844Y-11949999D01*
X-41547828Y-11950000D01*
X-41275000Y-11950000D01*
X-41025000Y-11950000D01*
X-40752172Y-11950000D01*
X-40752155Y-11949999D01*
X-40692627Y-11943598D01*
X-40692620Y-11943596D01*
X-40557913Y-11893354D01*
X-40557906Y-11893350D01*
X-40442812Y-11807190D01*
X-40442809Y-11807187D01*
X-40356649Y-11692093D01*
X-40356645Y-11692086D01*
X-40306403Y-11557379D01*
X-40306401Y-11557372D01*
X-40300000Y-11497844D01*
X-40300000Y-11125000D01*
X-41025000Y-11125000D01*
X-41025000Y-11950000D01*
X-41275000Y-11950000D01*
X-41275000Y-11125000D01*
X-42000000Y-11125000D01*
X-42000000Y-11497827D01*
X-45149500Y-11497827D01*
X-45149500Y-10502172D01*
X-42000000Y-10502172D01*
X-42000000Y-10875000D01*
X-41275000Y-10875000D01*
X-41025000Y-10875000D01*
X-40300000Y-10875000D01*
X-40300000Y-10502164D01*
X-40300004Y-10502127D01*
X-40000500Y-10502127D01*
X-40000499Y-11497872D01*
X-39994091Y-11557483D01*
X-39943796Y-11692331D01*
X-39857546Y-11807546D01*
X-39742331Y-11893796D01*
X-39607483Y-11944091D01*
X-39547873Y-11950500D01*
X-38887964Y-11950499D01*
X-38820926Y-11970183D01*
X-38800284Y-11986817D01*
X-38436817Y-12350285D01*
X-38403334Y-12411606D01*
X-38400500Y-12437964D01*
X-38400500Y-16225826D01*
X-38384883Y-16284108D01*
X-38369799Y-16340404D01*
X-38310489Y-16443131D01*
X-37603836Y-17149784D01*
X-37043150Y-17710470D01*
X-37009665Y-17771793D01*
X-37006831Y-17798151D01*
X-37006831Y-17821475D01*
X-36969315Y-17961485D01*
X-36896840Y-18087015D01*
X-36794346Y-18189509D01*
X-36700066Y-18243941D01*
X-36651853Y-18294507D01*
X-36638629Y-18363114D01*
X-36664597Y-18427978D01*
X-36700067Y-18458714D01*
X-36788015Y-18509491D01*
X-36788017Y-18509493D01*
X-36890506Y-18611982D01*
X-36890511Y-18611988D01*
X-36924193Y-18670328D01*
X-36962984Y-18737515D01*
X-37000500Y-18877525D01*
X-37000500Y-19022475D01*
X-36962984Y-19162485D01*
X-36917112Y-19241936D01*
X-36900500Y-19303935D01*
X-36900500Y-24867209D01*
X-36920185Y-24934248D01*
X-36972989Y-24980003D01*
X-36981167Y-24983391D01*
X-37042328Y-25006202D01*
X-37042335Y-25006206D01*
X-37157544Y-25092452D01*
X-37157547Y-25092455D01*
X-37243793Y-25207664D01*
X-37243797Y-25207671D01*
X-37284876Y-25317809D01*
X-37294091Y-25342517D01*
X-37300500Y-25402127D01*
X-37300499Y-26397872D01*
X-37294091Y-26457483D01*
X-37243796Y-26592331D01*
X-37157546Y-26707546D01*
X-37042331Y-26793796D01*
X-36907483Y-26844091D01*
X-36847873Y-26850500D01*
X-36052128Y-26850499D01*
X-36003757Y-26845299D01*
X-35992516Y-26844091D01*
X-35857671Y-26793797D01*
X-35857664Y-26793793D01*
X-35742455Y-26707547D01*
X-35742452Y-26707544D01*
X-35656206Y-26592335D01*
X-35656202Y-26592328D01*
X-35605908Y-26457482D01*
X-35599501Y-26397883D01*
X-35599500Y-26397881D01*
X-35599500Y-26397873D01*
X-35599500Y-26397827D01*
X-35300000Y-26397827D01*
X-35299999Y-26397844D01*
X-35293598Y-26457372D01*
X-35293596Y-26457379D01*
X-35243354Y-26592086D01*
X-35243350Y-26592093D01*
X-35157190Y-26707187D01*
X-35157187Y-26707190D01*
X-35042093Y-26793350D01*
X-35042086Y-26793354D01*
X-34907379Y-26843596D01*
X-34907372Y-26843598D01*
X-34847844Y-26849999D01*
X-34847828Y-26850000D01*
X-34575000Y-26850000D01*
X-34325000Y-26850000D01*
X-34052172Y-26850000D01*
X-34052155Y-26849999D01*
X-33992627Y-26843598D01*
X-33992620Y-26843596D01*
X-33857913Y-26793354D01*
X-33857906Y-26793350D01*
X-33742812Y-26707190D01*
X-33742809Y-26707187D01*
X-33656649Y-26592093D01*
X-33656645Y-26592086D01*
X-33606403Y-26457379D01*
X-33606401Y-26457372D01*
X-33600000Y-26397844D01*
X-33600000Y-26397827D01*
X-32100000Y-26397827D01*
X-32099999Y-26397844D01*
X-32093598Y-26457372D01*
X-32093596Y-26457379D01*
X-32043354Y-26592086D01*
X-32043350Y-26592093D01*
X-31957190Y-26707187D01*
X-31957187Y-26707190D01*
X-31842093Y-26793350D01*
X-31842086Y-26793354D01*
X-31707379Y-26843596D01*
X-31707372Y-26843598D01*
X-31647844Y-26849999D01*
X-31647828Y-26850000D01*
X-31375000Y-26850000D01*
X-31125000Y-26850000D01*
X-30852172Y-26850000D01*
X-30852155Y-26849999D01*
X-30792627Y-26843598D01*
X-30792620Y-26843596D01*
X-30657913Y-26793354D01*
X-30657906Y-26793350D01*
X-30542812Y-26707190D01*
X-30542809Y-26707187D01*
X-30456649Y-26592093D01*
X-30456645Y-26592086D01*
X-30406403Y-26457379D01*
X-30406401Y-26457372D01*
X-30400000Y-26397844D01*
X-30400000Y-26025000D01*
X-31125000Y-26025000D01*
X-31125000Y-26850000D01*
X-31375000Y-26850000D01*
X-31375000Y-26025000D01*
X-32100000Y-26025000D01*
X-32100000Y-26397827D01*
X-33600000Y-26397827D01*
X-33600000Y-26025000D01*
X-34325000Y-26025000D01*
X-34325000Y-26850000D01*
X-34575000Y-26850000D01*
X-34575000Y-26025000D01*
X-35300000Y-26025000D01*
X-35300000Y-26397827D01*
X-35599500Y-26397827D01*
X-35599500Y-25947827D01*
X-35599500Y-25402172D01*
X-35300000Y-25402172D01*
X-35300000Y-25775000D01*
X-34575000Y-25775000D01*
X-34325000Y-25775000D01*
X-33600000Y-25775000D01*
X-33600000Y-25402172D01*
X-32100000Y-25402172D01*
X-32100000Y-25775000D01*
X-31375000Y-25775000D01*
X-31125000Y-25775000D01*
X-30400000Y-25775000D01*
X-30400000Y-25402155D01*
X-30406401Y-25342627D01*
X-30406403Y-25342620D01*
X-30456645Y-25207913D01*
X-30456649Y-25207906D01*
X-30542809Y-25092812D01*
X-30542812Y-25092809D01*
X-30657906Y-25006649D01*
X-30657913Y-25006645D01*
X-30792620Y-24956403D01*
X-30792627Y-24956401D01*
X-30852155Y-24950000D01*
X-31125000Y-24950000D01*
X-31125000Y-25775000D01*
X-31375000Y-25775000D01*
X-31375000Y-24950000D01*
X-31647844Y-24950000D01*
X-31707372Y-24956401D01*
X-31707379Y-24956403D01*
X-31842086Y-25006645D01*
X-31842093Y-25006649D01*
X-31957187Y-25092809D01*
X-31957190Y-25092812D01*
X-32043350Y-25207906D01*
X-32043354Y-25207913D01*
X-32093596Y-25342620D01*
X-32093598Y-25342627D01*
X-32099999Y-25402155D01*
X-32100000Y-25402172D01*
X-33600000Y-25402172D01*
X-33600000Y-25402155D01*
X-33606401Y-25342627D01*
X-33606403Y-25342620D01*
X-33656645Y-25207913D01*
X-33656649Y-25207906D01*
X-33742809Y-25092812D01*
X-33742812Y-25092809D01*
X-33857906Y-25006649D01*
X-33857913Y-25006645D01*
X-33992620Y-24956403D01*
X-33992627Y-24956401D01*
X-34052155Y-24950000D01*
X-34325000Y-24950000D01*
X-34325000Y-25775000D01*
X-34575000Y-25775000D01*
X-34575000Y-24950000D01*
X-34847844Y-24950000D01*
X-34907372Y-24956401D01*
X-34907379Y-24956403D01*
X-35042086Y-25006645D01*
X-35042093Y-25006649D01*
X-35157187Y-25092809D01*
X-35157190Y-25092812D01*
X-35243350Y-25207906D01*
X-35243354Y-25207913D01*
X-35293596Y-25342620D01*
X-35293598Y-25342627D01*
X-35299999Y-25402155D01*
X-35300000Y-25402172D01*
X-35599500Y-25402172D01*
X-35599500Y-25402129D01*
X-35599501Y-25402123D01*
X-35605908Y-25342516D01*
X-35656202Y-25207671D01*
X-35656206Y-25207664D01*
X-35742452Y-25092455D01*
X-35742455Y-25092452D01*
X-35857664Y-25006206D01*
X-35857671Y-25006202D01*
X-35918833Y-24983391D01*
X-35974767Y-24941520D01*
X-35999184Y-24876056D01*
X-35999500Y-24867209D01*
X-35999500Y-22021206D01*
X-35620000Y-22021206D01*
X-35620000Y-22225000D01*
X-35120000Y-22225000D01*
X-35120000Y-22475000D01*
X-35620000Y-22475000D01*
X-35620000Y-22678794D01*
X-35619999Y-22678797D01*
X-35589258Y-22833343D01*
X-35589256Y-22833351D01*
X-35528952Y-22978939D01*
X-35528947Y-22978948D01*
X-35441401Y-23109969D01*
X-35441398Y-23109973D01*
X-35329973Y-23221398D01*
X-35329969Y-23221401D01*
X-35198948Y-23308947D01*
X-35198939Y-23308952D01*
X-35053351Y-23369256D01*
X-35053343Y-23369258D01*
X-34945000Y-23390809D01*
X-34945000Y-22874242D01*
X-34935796Y-22879556D01*
X-34859496Y-22900000D01*
X-34780504Y-22900000D01*
X-34704204Y-22879556D01*
X-34695000Y-22874242D01*
X-34695000Y-23390809D01*
X-34694999Y-23390809D01*
X-34586656Y-23369258D01*
X-34586648Y-23369256D01*
X-34441060Y-23308952D01*
X-34441051Y-23308947D01*
X-34310030Y-23221401D01*
X-34310026Y-23221398D01*
X-34198601Y-23109973D01*
X-34198598Y-23109969D01*
X-34111052Y-22978948D01*
X-34111047Y-22978938D01*
X-34058180Y-22851307D01*
X-34014339Y-22796904D01*
X-33948044Y-22774839D01*
X-33880345Y-22792119D01*
X-33855938Y-22811079D01*
X-33807857Y-22859160D01*
X-33700496Y-22930897D01*
X-33581202Y-22980310D01*
X-33581197Y-22980310D01*
X-33581194Y-22980312D01*
X-33502764Y-22995912D01*
X-33454563Y-23005499D01*
X-33454562Y-23005500D01*
X-33454561Y-23005500D01*
X-33325438Y-23005500D01*
X-33325434Y-23005499D01*
X-33198805Y-22980312D01*
X-33198800Y-22980310D01*
X-33198798Y-22980310D01*
X-33141146Y-22956430D01*
X-33079508Y-22930899D01*
X-33079506Y-22930898D01*
X-33079505Y-22930897D01*
X-33079504Y-22930897D01*
X-32972143Y-22859160D01*
X-32972139Y-22859157D01*
X-32924061Y-22811079D01*
X-32862738Y-22777594D01*
X-32793046Y-22782578D01*
X-32737113Y-22824450D01*
X-32721819Y-22851308D01*
X-32668954Y-22978935D01*
X-32668947Y-22978948D01*
X-32581401Y-23109969D01*
X-32581398Y-23109973D01*
X-32469973Y-23221398D01*
X-32469969Y-23221401D01*
X-32338948Y-23308947D01*
X-32338939Y-23308952D01*
X-32193351Y-23369256D01*
X-32193343Y-23369258D01*
X-32085000Y-23390809D01*
X-32085000Y-22874242D01*
X-32075796Y-22879556D01*
X-31999496Y-22900000D01*
X-31920504Y-22900000D01*
X-31844204Y-22879556D01*
X-31835000Y-22874242D01*
X-31835000Y-23390809D01*
X-31834999Y-23390809D01*
X-31726656Y-23369258D01*
X-31726648Y-23369256D01*
X-31581060Y-23308952D01*
X-31581051Y-23308947D01*
X-31450030Y-23221401D01*
X-31450026Y-23221398D01*
X-31338601Y-23109973D01*
X-31338598Y-23109969D01*
X-31251052Y-22978948D01*
X-31251047Y-22978939D01*
X-31190743Y-22833351D01*
X-31190741Y-22833343D01*
X-31160000Y-22678797D01*
X-31160000Y-22475000D01*
X-31660000Y-22475000D01*
X-31660000Y-22225000D01*
X-31160000Y-22225000D01*
X-31160000Y-22021202D01*
X-31190741Y-21866656D01*
X-31190743Y-21866648D01*
X-31251047Y-21721060D01*
X-31251052Y-21721051D01*
X-31338598Y-21590030D01*
X-31338601Y-21590026D01*
X-31450026Y-21478601D01*
X-31450030Y-21478598D01*
X-31581051Y-21391052D01*
X-31581060Y-21391047D01*
X-31726648Y-21330743D01*
X-31726654Y-21330741D01*
X-31834999Y-21309189D01*
X-31835000Y-21309190D01*
X-31835000Y-21825757D01*
X-31844204Y-21820444D01*
X-31920504Y-21800000D01*
X-31999496Y-21800000D01*
X-32075796Y-21820444D01*
X-32085000Y-21825757D01*
X-32085000Y-21309189D01*
X-32193345Y-21330741D01*
X-32193351Y-21330743D01*
X-32338939Y-21391047D01*
X-32338948Y-21391052D01*
X-32469969Y-21478598D01*
X-32469973Y-21478601D01*
X-32581398Y-21590026D01*
X-32581401Y-21590030D01*
X-32668947Y-21721051D01*
X-32668952Y-21721060D01*
X-32721819Y-21848692D01*
X-32765660Y-21903095D01*
X-32831954Y-21925160D01*
X-32899654Y-21907881D01*
X-32924060Y-21888921D01*
X-32972138Y-21840843D01*
X-32972143Y-21840839D01*
X-33079506Y-21769101D01*
X-33079508Y-21769100D01*
X-33198796Y-21719690D01*
X-33198805Y-21719687D01*
X-33325434Y-21694500D01*
X-33325439Y-21694500D01*
X-33454561Y-21694500D01*
X-33454565Y-21694500D01*
X-33581194Y-21719687D01*
X-33581203Y-21719690D01*
X-33700491Y-21769100D01*
X-33700493Y-21769101D01*
X-33807856Y-21840839D01*
X-33807860Y-21840842D01*
X-33855938Y-21888920D01*
X-33917261Y-21922405D01*
X-33986953Y-21917421D01*
X-34042886Y-21875549D01*
X-34058180Y-21848693D01*
X-34111049Y-21721057D01*
X-34111052Y-21721051D01*
X-34198598Y-21590030D01*
X-34198601Y-21590026D01*
X-34310026Y-21478601D01*
X-34310030Y-21478598D01*
X-34441051Y-21391052D01*
X-34441060Y-21391047D01*
X-34586648Y-21330743D01*
X-34586654Y-21330741D01*
X-34694999Y-21309189D01*
X-34695000Y-21309190D01*
X-34695000Y-21825757D01*
X-34704204Y-21820444D01*
X-34780504Y-21800000D01*
X-34859496Y-21800000D01*
X-34935796Y-21820444D01*
X-34945000Y-21825757D01*
X-34945000Y-21309189D01*
X-35053345Y-21330741D01*
X-35053351Y-21330743D01*
X-35198939Y-21391047D01*
X-35198948Y-21391052D01*
X-35329969Y-21478598D01*
X-35329973Y-21478601D01*
X-35441398Y-21590026D01*
X-35441401Y-21590030D01*
X-35528947Y-21721051D01*
X-35528952Y-21721060D01*
X-35589256Y-21866648D01*
X-35589258Y-21866656D01*
X-35619999Y-22021202D01*
X-35620000Y-22021206D01*
X-35999500Y-22021206D01*
X-35999500Y-19303935D01*
X-35982887Y-19241936D01*
X-35937016Y-19162485D01*
X-35899500Y-19022475D01*
X-35899500Y-18877525D01*
X-35937016Y-18737515D01*
X-35937015Y-18737515D01*
X-35937017Y-18737511D01*
X-36009488Y-18611988D01*
X-36009493Y-18611982D01*
X-36111982Y-18509493D01*
X-36111985Y-18509491D01*
X-36206263Y-18455059D01*
X-36254478Y-18404491D01*
X-36267700Y-18335884D01*
X-36241732Y-18271019D01*
X-36206262Y-18240285D01*
X-36149786Y-18207678D01*
X-36118316Y-18189509D01*
X-36015822Y-18087015D01*
X-35986609Y-18036416D01*
X-34271000Y-18036416D01*
X-34271000Y-18168200D01*
X-34236892Y-18295494D01*
X-34171000Y-18409622D01*
X-34077814Y-18502808D01*
X-33963686Y-18568700D01*
X-33836392Y-18602808D01*
X-33819852Y-18602808D01*
X-33752813Y-18622493D01*
X-33732175Y-18639122D01*
X-33538873Y-18832423D01*
X-33505391Y-18893742D01*
X-33510375Y-18963434D01*
X-33519171Y-18982103D01*
X-33536391Y-19011927D01*
X-33536391Y-19011928D01*
X-33536392Y-19011930D01*
X-33570500Y-19139224D01*
X-33570500Y-19271008D01*
X-33536392Y-19398302D01*
X-33470500Y-19512430D01*
X-33377314Y-19605616D01*
X-33263186Y-19671508D01*
X-33135892Y-19705616D01*
X-33135890Y-19705616D01*
X-33004110Y-19705616D01*
X-33004108Y-19705616D01*
X-32876814Y-19671508D01*
X-32762686Y-19605616D01*
X-32669500Y-19512430D01*
X-32604528Y-19399896D01*
X-32603608Y-19398303D01*
X-32569500Y-19271007D01*
X-32569500Y-19139224D01*
X-32603608Y-19011928D01*
X-32669500Y-18897802D01*
X-32669502Y-18897799D01*
X-32683181Y-18884121D01*
X-32715758Y-18826671D01*
X-32719500Y-18811785D01*
X-32719500Y-18759472D01*
X-32743386Y-18670328D01*
X-32755411Y-18649500D01*
X-32764061Y-18634515D01*
X-32764063Y-18634512D01*
X-32789525Y-18590410D01*
X-32789531Y-18590402D01*
X-33233681Y-18146253D01*
X-33267166Y-18084930D01*
X-33270000Y-18058572D01*
X-33270000Y-18036416D01*
X-33304108Y-17909120D01*
X-33370000Y-17794994D01*
X-33370002Y-17794991D01*
X-33463183Y-17701810D01*
X-33463186Y-17701808D01*
X-33577312Y-17635916D01*
X-33704608Y-17601808D01*
X-33836392Y-17601808D01*
X-33900039Y-17618862D01*
X-33963687Y-17635916D01*
X-34010905Y-17663178D01*
X-34077814Y-17701808D01*
X-34171000Y-17794994D01*
X-34236892Y-17909122D01*
X-34271000Y-18036416D01*
X-35986609Y-18036416D01*
X-35946120Y-17966288D01*
X-35946118Y-17966286D01*
X-35943348Y-17961488D01*
X-35932972Y-17922764D01*
X-35905831Y-17821475D01*
X-35905831Y-17676525D01*
X-35943347Y-17536515D01*
X-35943346Y-17536515D01*
X-35943348Y-17536511D01*
X-36015819Y-17410988D01*
X-36015824Y-17410982D01*
X-36118313Y-17308493D01*
X-36118319Y-17308489D01*
X-36228651Y-17244787D01*
X-36229016Y-17244403D01*
X-36254330Y-17225082D01*
X-37463181Y-16016232D01*
X-37496666Y-15954909D01*
X-37499500Y-15928551D01*
X-37499500Y-12140693D01*
X-37499500Y-12140691D01*
X-37530201Y-12026114D01*
X-37573857Y-11950500D01*
X-37573858Y-11950498D01*
X-37589508Y-11923389D01*
X-37589512Y-11923384D01*
X-38263181Y-11249714D01*
X-38296666Y-11188391D01*
X-38299500Y-11162033D01*
X-38299500Y-10502129D01*
X-38299501Y-10502123D01*
X-38305908Y-10442516D01*
X-38356202Y-10307671D01*
X-38356206Y-10307664D01*
X-38442452Y-10192455D01*
X-38442455Y-10192452D01*
X-38557664Y-10106206D01*
X-38557671Y-10106202D01*
X-38692517Y-10055908D01*
X-38692516Y-10055908D01*
X-38752116Y-10049501D01*
X-38752119Y-10049500D01*
X-38752127Y-10049500D01*
X-38752134Y-10049500D01*
X-38752135Y-10049500D01*
X-39547870Y-10049500D01*
X-39547876Y-10049501D01*
X-39607483Y-10055908D01*
X-39742328Y-10106202D01*
X-39742335Y-10106206D01*
X-39857544Y-10192452D01*
X-39857547Y-10192455D01*
X-39943793Y-10307664D01*
X-39943797Y-10307671D01*
X-39986889Y-10423207D01*
X-39994091Y-10442517D01*
X-40000500Y-10502127D01*
X-40300004Y-10502127D01*
X-40306401Y-10442627D01*
X-40306403Y-10442620D01*
X-40356645Y-10307913D01*
X-40356649Y-10307906D01*
X-40442809Y-10192812D01*
X-40442812Y-10192809D01*
X-40557906Y-10106649D01*
X-40557913Y-10106645D01*
X-40692620Y-10056403D01*
X-40692627Y-10056401D01*
X-40752155Y-10050000D01*
X-41025000Y-10050000D01*
X-41025000Y-10875000D01*
X-41275000Y-10875000D01*
X-41275000Y-10050000D01*
X-41547844Y-10050000D01*
X-41607372Y-10056401D01*
X-41607379Y-10056403D01*
X-41742086Y-10106645D01*
X-41742093Y-10106649D01*
X-41857187Y-10192809D01*
X-41857190Y-10192812D01*
X-41943350Y-10307906D01*
X-41943354Y-10307913D01*
X-41993596Y-10442620D01*
X-41993598Y-10442627D01*
X-41999999Y-10502155D01*
X-42000000Y-10502172D01*
X-45149500Y-10502172D01*
X-45149500Y-8597827D01*
X-39300000Y-8597827D01*
X-39299999Y-8597844D01*
X-39293598Y-8657372D01*
X-39293596Y-8657379D01*
X-39243354Y-8792086D01*
X-39243350Y-8792093D01*
X-39157190Y-8907187D01*
X-39157187Y-8907190D01*
X-39042093Y-8993350D01*
X-39042086Y-8993354D01*
X-38907379Y-9043596D01*
X-38907372Y-9043598D01*
X-38847844Y-9049999D01*
X-38847828Y-9050000D01*
X-38575000Y-9050000D01*
X-38325000Y-9050000D01*
X-38052172Y-9050000D01*
X-38052155Y-9049999D01*
X-37992627Y-9043598D01*
X-37992620Y-9043596D01*
X-37857913Y-8993354D01*
X-37857906Y-8993350D01*
X-37742812Y-8907190D01*
X-37742809Y-8907187D01*
X-37656649Y-8792093D01*
X-37656645Y-8792086D01*
X-37606403Y-8657379D01*
X-37606401Y-8657372D01*
X-37600000Y-8597844D01*
X-37600000Y-8225000D01*
X-38325000Y-8225000D01*
X-38325000Y-9050000D01*
X-38575000Y-9050000D01*
X-38575000Y-8225000D01*
X-39300000Y-8225000D01*
X-39300000Y-8597827D01*
X-45149500Y-8597827D01*
X-45149500Y-7602172D01*
X-39300000Y-7602172D01*
X-39300000Y-7975000D01*
X-38575000Y-7975000D01*
X-38325000Y-7975000D01*
X-37600000Y-7975000D01*
X-37600000Y-7602164D01*
X-37600004Y-7602127D01*
X-37300500Y-7602127D01*
X-37300499Y-8597872D01*
X-37294091Y-8657483D01*
X-37243796Y-8792331D01*
X-37157546Y-8907546D01*
X-37042331Y-8993796D01*
X-36981166Y-9016608D01*
X-36925234Y-9058478D01*
X-36900816Y-9123942D01*
X-36900500Y-9132790D01*
X-36900500Y-16029309D01*
X-36889840Y-16069091D01*
X-36869799Y-16143887D01*
X-36810489Y-16246614D01*
X-36296614Y-16760490D01*
X-36193887Y-16819799D01*
X-36193885Y-16819799D01*
X-36193884Y-16819800D01*
X-36186793Y-16821699D01*
X-36172609Y-16825500D01*
X-36172607Y-16825501D01*
X-36156330Y-16829862D01*
X-36079309Y-16850500D01*
X-31157965Y-16850500D01*
X-31090926Y-16870185D01*
X-31070284Y-16886819D01*
X-30807319Y-17149784D01*
X-30773834Y-17211107D01*
X-30771000Y-17237465D01*
X-30771000Y-17601179D01*
X-30787613Y-17663178D01*
X-30814916Y-17710470D01*
X-30833484Y-17742631D01*
X-30871000Y-17882641D01*
X-30871000Y-18027591D01*
X-30833484Y-18167601D01*
X-30761009Y-18293131D01*
X-30733332Y-18320808D01*
X-30714263Y-18339877D01*
X-30680778Y-18401200D01*
X-30685762Y-18470892D01*
X-30714263Y-18515239D01*
X-30811006Y-18611982D01*
X-30811011Y-18611988D01*
X-30844693Y-18670328D01*
X-30883484Y-18737515D01*
X-30921000Y-18877525D01*
X-30921000Y-19022475D01*
X-30883484Y-19162485D01*
X-30837612Y-19241936D01*
X-30821000Y-19303935D01*
X-30821000Y-21088809D01*
X-30806314Y-21143616D01*
X-30790299Y-21203387D01*
X-30730989Y-21306114D01*
X-30225876Y-21811227D01*
X-29736819Y-22300284D01*
X-29703334Y-22361607D01*
X-29700500Y-22387965D01*
X-29700500Y-24867209D01*
X-29720185Y-24934248D01*
X-29772989Y-24980003D01*
X-29781167Y-24983391D01*
X-29842328Y-25006202D01*
X-29842335Y-25006206D01*
X-29957544Y-25092452D01*
X-29957547Y-25092455D01*
X-30043793Y-25207664D01*
X-30043797Y-25207671D01*
X-30084876Y-25317809D01*
X-30094091Y-25342517D01*
X-30100500Y-25402127D01*
X-30100499Y-26397872D01*
X-30094091Y-26457483D01*
X-30043796Y-26592331D01*
X-29957546Y-26707546D01*
X-29842331Y-26793796D01*
X-29707483Y-26844091D01*
X-29647873Y-26850500D01*
X-28852128Y-26850499D01*
X-28803757Y-26845299D01*
X-28792516Y-26844091D01*
X-28657671Y-26793797D01*
X-28657664Y-26793793D01*
X-28542455Y-26707547D01*
X-28542452Y-26707544D01*
X-28456206Y-26592335D01*
X-28456202Y-26592328D01*
X-28405908Y-26457482D01*
X-28399501Y-26397883D01*
X-28399500Y-26397881D01*
X-28399500Y-26397873D01*
X-28399500Y-25947827D01*
X-28399500Y-25402129D01*
X-28399501Y-25402123D01*
X-28405908Y-25342516D01*
X-28456202Y-25207671D01*
X-28456206Y-25207664D01*
X-28542452Y-25092455D01*
X-28542455Y-25092452D01*
X-28657664Y-25006206D01*
X-28657671Y-25006202D01*
X-28718833Y-24983391D01*
X-28774767Y-24941520D01*
X-28799184Y-24876056D01*
X-28799500Y-24867209D01*
X-28799500Y-22090693D01*
X-28799500Y-22090691D01*
X-28830201Y-21976114D01*
X-28830200Y-21976114D01*
X-28830202Y-21976110D01*
X-28871497Y-21904587D01*
X-28871498Y-21904586D01*
X-28889510Y-21873387D01*
X-28889512Y-21873384D01*
X-29883681Y-20879216D01*
X-29917166Y-20817893D01*
X-29920000Y-20791535D01*
X-29920000Y-19303935D01*
X-29903387Y-19241936D01*
X-29857516Y-19162485D01*
X-29820000Y-19022475D01*
X-29820000Y-18877525D01*
X-29857516Y-18737515D01*
X-29857515Y-18737515D01*
X-29857517Y-18737511D01*
X-29929988Y-18611988D01*
X-29929991Y-18611985D01*
X-29976738Y-18565237D01*
X-30010222Y-18503913D01*
X-30005236Y-18434221D01*
X-29976736Y-18389876D01*
X-29879993Y-18293133D01*
X-29879988Y-18293127D01*
X-29807517Y-18167604D01*
X-29799056Y-18136027D01*
X-29770000Y-18027591D01*
X-29770000Y-17882641D01*
X-29803000Y-17759485D01*
X-29807516Y-17742629D01*
X-29807519Y-17742624D01*
X-29853387Y-17663178D01*
X-29870000Y-17601179D01*
X-29870000Y-16940189D01*
X-29888301Y-16871885D01*
X-29888306Y-16871869D01*
X-29900701Y-16825614D01*
X-29900700Y-16825614D01*
X-29900701Y-16825613D01*
X-29960011Y-16722886D01*
X-29960013Y-16722883D01*
X-30643383Y-16039513D01*
X-30643386Y-16039511D01*
X-30746113Y-15980200D01*
X-30746116Y-15980199D01*
X-30770324Y-15973712D01*
X-30770325Y-15973713D01*
X-30860691Y-15949500D01*
X-35782034Y-15949500D01*
X-35811474Y-15940855D01*
X-35841461Y-15934332D01*
X-35846476Y-15930577D01*
X-35849073Y-15929815D01*
X-35869715Y-15913181D01*
X-35963181Y-15819715D01*
X-35996666Y-15758392D01*
X-35999500Y-15732034D01*
X-35999500Y-14021206D01*
X-35620000Y-14021206D01*
X-35620000Y-14225000D01*
X-35120000Y-14225000D01*
X-35120000Y-14475000D01*
X-35620000Y-14475000D01*
X-35620000Y-14678794D01*
X-35619999Y-14678797D01*
X-35589258Y-14833343D01*
X-35589256Y-14833351D01*
X-35528952Y-14978939D01*
X-35528947Y-14978948D01*
X-35441405Y-15109965D01*
X-35441398Y-15109973D01*
X-35329973Y-15221398D01*
X-35329969Y-15221401D01*
X-35198948Y-15308947D01*
X-35198939Y-15308952D01*
X-35053351Y-15369256D01*
X-35053343Y-15369258D01*
X-34945000Y-15390809D01*
X-34945000Y-14874242D01*
X-34935796Y-14879556D01*
X-34859496Y-14900000D01*
X-34780504Y-14900000D01*
X-34704204Y-14879556D01*
X-34695000Y-14874242D01*
X-34695000Y-15390809D01*
X-34694999Y-15390809D01*
X-34586656Y-15369258D01*
X-34586648Y-15369256D01*
X-34441060Y-15308952D01*
X-34441051Y-15308947D01*
X-34310030Y-15221401D01*
X-34310026Y-15221398D01*
X-34198601Y-15109973D01*
X-34198595Y-15109965D01*
X-34111052Y-14978948D01*
X-34111047Y-14978938D01*
X-34058180Y-14851307D01*
X-34014339Y-14796904D01*
X-33948044Y-14774839D01*
X-33880345Y-14792119D01*
X-33855938Y-14811079D01*
X-33807857Y-14859160D01*
X-33700496Y-14930897D01*
X-33581202Y-14980310D01*
X-33581197Y-14980310D01*
X-33581194Y-14980312D01*
X-33496774Y-14997103D01*
X-33454563Y-15005499D01*
X-33454562Y-15005500D01*
X-33454561Y-15005500D01*
X-33325438Y-15005500D01*
X-33325434Y-15005499D01*
X-33198805Y-14980312D01*
X-33198800Y-14980310D01*
X-33198798Y-14980310D01*
X-33132204Y-14952726D01*
X-33079508Y-14930899D01*
X-33079506Y-14930898D01*
X-33079505Y-14930897D01*
X-33079504Y-14930897D01*
X-32972143Y-14859160D01*
X-32972139Y-14859157D01*
X-32924061Y-14811079D01*
X-32862738Y-14777594D01*
X-32793046Y-14782578D01*
X-32737113Y-14824450D01*
X-32721819Y-14851308D01*
X-32668954Y-14978935D01*
X-32668947Y-14978948D01*
X-32581405Y-15109965D01*
X-32581398Y-15109973D01*
X-32469973Y-15221398D01*
X-32469969Y-15221401D01*
X-32338948Y-15308947D01*
X-32338939Y-15308952D01*
X-32193351Y-15369256D01*
X-32193343Y-15369258D01*
X-32085000Y-15390809D01*
X-32085000Y-14874242D01*
X-32075796Y-14879556D01*
X-31999496Y-14900000D01*
X-31920504Y-14900000D01*
X-31844204Y-14879556D01*
X-31835000Y-14874242D01*
X-31835000Y-15390809D01*
X-31834999Y-15390809D01*
X-31726656Y-15369258D01*
X-31726648Y-15369256D01*
X-31581060Y-15308952D01*
X-31581051Y-15308947D01*
X-31450030Y-15221401D01*
X-31450026Y-15221398D01*
X-31338601Y-15109973D01*
X-31338595Y-15109965D01*
X-31251052Y-14978948D01*
X-31251047Y-14978939D01*
X-31190743Y-14833351D01*
X-31190741Y-14833343D01*
X-31160000Y-14678797D01*
X-31160000Y-14475000D01*
X-31660000Y-14475000D01*
X-31660000Y-14225000D01*
X-31160000Y-14225000D01*
X-31160000Y-14021202D01*
X-31190741Y-13866656D01*
X-31190743Y-13866648D01*
X-31251047Y-13721060D01*
X-31251052Y-13721051D01*
X-31338598Y-13590030D01*
X-31338601Y-13590026D01*
X-31450026Y-13478601D01*
X-31450030Y-13478598D01*
X-31581051Y-13391052D01*
X-31581060Y-13391047D01*
X-31726648Y-13330743D01*
X-31726654Y-13330741D01*
X-31834999Y-13309189D01*
X-31835000Y-13309190D01*
X-31835000Y-13825757D01*
X-31844204Y-13820444D01*
X-31920504Y-13800000D01*
X-31999496Y-13800000D01*
X-32075796Y-13820444D01*
X-32085000Y-13825757D01*
X-32085000Y-13309189D01*
X-32193345Y-13330741D01*
X-32193351Y-13330743D01*
X-32338939Y-13391047D01*
X-32338948Y-13391052D01*
X-32469969Y-13478598D01*
X-32469973Y-13478601D01*
X-32581398Y-13590026D01*
X-32581401Y-13590030D01*
X-32668947Y-13721051D01*
X-32668952Y-13721060D01*
X-32721819Y-13848692D01*
X-32765660Y-13903095D01*
X-32831954Y-13925160D01*
X-32899654Y-13907881D01*
X-32924060Y-13888921D01*
X-32972138Y-13840843D01*
X-32972143Y-13840839D01*
X-33079506Y-13769101D01*
X-33079508Y-13769100D01*
X-33198796Y-13719690D01*
X-33198805Y-13719687D01*
X-33325434Y-13694500D01*
X-33325439Y-13694500D01*
X-33454561Y-13694500D01*
X-33454565Y-13694500D01*
X-33581194Y-13719687D01*
X-33581203Y-13719690D01*
X-33700491Y-13769100D01*
X-33700493Y-13769101D01*
X-33807856Y-13840839D01*
X-33807860Y-13840842D01*
X-33855938Y-13888920D01*
X-33917261Y-13922405D01*
X-33986953Y-13917421D01*
X-34042886Y-13875549D01*
X-34058180Y-13848693D01*
X-34111049Y-13721057D01*
X-34111052Y-13721051D01*
X-34198598Y-13590030D01*
X-34198601Y-13590026D01*
X-34310026Y-13478601D01*
X-34310030Y-13478598D01*
X-34441051Y-13391052D01*
X-34441060Y-13391047D01*
X-34586648Y-13330743D01*
X-34586654Y-13330741D01*
X-34694999Y-13309189D01*
X-34695000Y-13309190D01*
X-34695000Y-13825757D01*
X-34704204Y-13820444D01*
X-34780504Y-13800000D01*
X-34859496Y-13800000D01*
X-34935796Y-13820444D01*
X-34945000Y-13825757D01*
X-34945000Y-13309189D01*
X-35053345Y-13330741D01*
X-35053351Y-13330743D01*
X-35198939Y-13391047D01*
X-35198948Y-13391052D01*
X-35329969Y-13478598D01*
X-35329973Y-13478601D01*
X-35441398Y-13590026D01*
X-35441401Y-13590030D01*
X-35528947Y-13721051D01*
X-35528952Y-13721060D01*
X-35589256Y-13866648D01*
X-35589258Y-13866656D01*
X-35619999Y-14021202D01*
X-35620000Y-14021206D01*
X-35999500Y-14021206D01*
X-35999500Y-9132790D01*
X-35979815Y-9065751D01*
X-35927011Y-9019996D01*
X-35918853Y-9016616D01*
X-35857669Y-8993796D01*
X-35857664Y-8993793D01*
X-35742455Y-8907547D01*
X-35742452Y-8907544D01*
X-35656206Y-8792335D01*
X-35656202Y-8792328D01*
X-35605908Y-8657482D01*
X-35599501Y-8597883D01*
X-35599500Y-8597881D01*
X-35599500Y-8597873D01*
X-35599500Y-8127525D01*
X-33950500Y-8127525D01*
X-33950500Y-8272475D01*
X-33912984Y-8412485D01*
X-33840509Y-8538015D01*
X-33738015Y-8640509D01*
X-33612488Y-8712982D01*
X-33612487Y-8712982D01*
X-33612485Y-8712984D01*
X-33472475Y-8750500D01*
X-33472472Y-8750500D01*
X-33327528Y-8750500D01*
X-33327525Y-8750500D01*
X-33187515Y-8712984D01*
X-33187512Y-8712982D01*
X-33187511Y-8712982D01*
X-33061988Y-8640511D01*
X-33061986Y-8640510D01*
X-33061985Y-8640509D01*
X-33058295Y-8636819D01*
X-32996972Y-8603334D01*
X-32970614Y-8600500D01*
X-30774500Y-8600500D01*
X-30707461Y-8620185D01*
X-30661706Y-8672989D01*
X-30650500Y-8724500D01*
X-30650500Y-15255794D01*
X-30650500Y-15361248D01*
X-30623207Y-15463109D01*
X-30570480Y-15554434D01*
X-24969448Y-21155464D01*
X-24935965Y-21216785D01*
X-24935534Y-21218848D01*
X-24913973Y-21327251D01*
X-24842322Y-21500231D01*
X-24738302Y-21655908D01*
X-24605908Y-21788302D01*
X-24450231Y-21892322D01*
X-24345483Y-21935709D01*
X-24291081Y-21979549D01*
X-24269016Y-22045843D01*
X-24286295Y-22113543D01*
X-24337432Y-22161154D01*
X-24345484Y-22164831D01*
X-24449990Y-22208119D01*
X-24449999Y-22208124D01*
X-24578940Y-22294280D01*
X-24578940Y-22294281D01*
X-24144145Y-22729077D01*
X-24214905Y-22769930D01*
X-24280070Y-22835095D01*
X-24320922Y-22905853D01*
X-24755718Y-22471057D01*
X-24841880Y-22600008D01*
X-24913491Y-22772894D01*
X-24913493Y-22772902D01*
X-24949999Y-22956428D01*
X-24950000Y-22956430D01*
X-24950000Y-23143569D01*
X-24949999Y-23143571D01*
X-24913493Y-23327097D01*
X-24913491Y-23327105D01*
X-24841880Y-23499991D01*
X-24755718Y-23628941D01*
X-24755717Y-23628941D01*
X-24320922Y-23194146D01*
X-24280070Y-23264905D01*
X-24214905Y-23330070D01*
X-24144146Y-23370922D01*
X-24578941Y-23805717D01*
X-24578941Y-23805718D01*
X-24449991Y-23891880D01*
X-24277105Y-23963491D01*
X-24277097Y-23963493D01*
X-24093571Y-23999999D01*
X-24093569Y-24000000D01*
X-23906431Y-24000000D01*
X-23906428Y-23999999D01*
X-23722902Y-23963493D01*
X-23722894Y-23963491D01*
X-23550008Y-23891880D01*
X-23421057Y-23805718D01*
X-23855853Y-23370922D01*
X-23785095Y-23330070D01*
X-23719930Y-23264905D01*
X-23679077Y-23194145D01*
X-23244281Y-23628940D01*
X-23244280Y-23628940D01*
X-23158124Y-23499999D01*
X-23158119Y-23499991D01*
X-23086508Y-23327105D01*
X-23086506Y-23327097D01*
X-23050000Y-23143571D01*
X-23050000Y-22956428D01*
X-23086506Y-22772902D01*
X-23086508Y-22772894D01*
X-23158121Y-22600003D01*
X-23244279Y-22471058D01*
X-23244281Y-22471058D01*
X-23679077Y-22905854D01*
X-23719930Y-22835095D01*
X-23785095Y-22769930D01*
X-23855854Y-22729077D01*
X-23421058Y-22294281D01*
X-23421058Y-22294279D01*
X-23550004Y-22208121D01*
X-23654515Y-22164831D01*
X-23708919Y-22120989D01*
X-23730983Y-22054695D01*
X-23713703Y-21986996D01*
X-23662566Y-21939386D01*
X-23654514Y-21935709D01*
X-23549775Y-21892325D01*
X-23549762Y-21892318D01*
X-23394092Y-21788302D01*
X-23394088Y-21788299D01*
X-23261700Y-21655911D01*
X-23261697Y-21655907D01*
X-23157681Y-21500237D01*
X-23157676Y-21500228D01*
X-23086027Y-21327251D01*
X-23086025Y-21327243D01*
X-23049500Y-21143618D01*
X-23049500Y-20956379D01*
X-23086025Y-20772756D01*
X-23086027Y-20772748D01*
X-23157676Y-20599771D01*
X-23157681Y-20599762D01*
X-23261697Y-20444092D01*
X-23261700Y-20444088D01*
X-23394088Y-20311700D01*
X-23394092Y-20311697D01*
X-23549762Y-20207681D01*
X-23549768Y-20207678D01*
X-23663863Y-20160418D01*
X-23718266Y-20116576D01*
X-23740330Y-20050282D01*
X-23723050Y-19982583D01*
X-23671913Y-19934973D01*
X-23663869Y-19931299D01*
X-23624739Y-19915091D01*
X-23569775Y-19892325D01*
X-23569762Y-19892318D01*
X-23414092Y-19788302D01*
X-23414088Y-19788299D01*
X-23281700Y-19655911D01*
X-23281697Y-19655907D01*
X-23177681Y-19500237D01*
X-23177676Y-19500228D01*
X-23106027Y-19327251D01*
X-23106025Y-19327243D01*
X-23069500Y-19143620D01*
X-23069500Y-18956379D01*
X-23106025Y-18772756D01*
X-23106027Y-18772748D01*
X-23177676Y-18599771D01*
X-23177681Y-18599762D01*
X-23281697Y-18444092D01*
X-23281700Y-18444088D01*
X-23414088Y-18311700D01*
X-23465121Y-18277601D01*
X-23509925Y-18223988D01*
X-23518632Y-18154663D01*
X-23488477Y-18091636D01*
X-23429033Y-18054917D01*
X-23396229Y-18050499D01*
X-23255136Y-18050499D01*
X-23255121Y-18050497D01*
X-23255117Y-18050497D01*
X-23230012Y-18047586D01*
X-23230010Y-18047585D01*
X-23230009Y-18047585D01*
X-23127235Y-18002206D01*
X-23047794Y-17922765D01*
X-23030078Y-17882643D01*
X-23002415Y-17819993D01*
X-23002415Y-17819991D01*
X-22999500Y-17794868D01*
X-22999500Y-16305143D01*
X-22999502Y-16305117D01*
X-23002413Y-16280012D01*
X-23002415Y-16280008D01*
X-23047793Y-16177235D01*
X-23127234Y-16097794D01*
X-23230007Y-16052415D01*
X-23255134Y-16049500D01*
X-24744856Y-16049500D01*
X-24744882Y-16049502D01*
X-24769987Y-16052413D01*
X-24769991Y-16052415D01*
X-24872764Y-16097793D01*
X-24872765Y-16097794D01*
X-24952206Y-16177235D01*
X-24997585Y-16280009D01*
X-25000500Y-16305135D01*
X-25000499Y-17794864D01*
X-25000497Y-17794879D01*
X-25000497Y-17794882D01*
X-24997586Y-17819987D01*
X-24997585Y-17819988D01*
X-24997585Y-17819991D01*
X-24952206Y-17922765D01*
X-24872765Y-18002206D01*
X-24769991Y-18047585D01*
X-24744865Y-18050500D01*
X-24643768Y-18050499D01*
X-24576733Y-18070183D01*
X-24530977Y-18122986D01*
X-24521033Y-18192145D01*
X-24550057Y-18255701D01*
X-24574879Y-18277601D01*
X-24625911Y-18311700D01*
X-24758299Y-18444088D01*
X-24758302Y-18444092D01*
X-24858729Y-18594391D01*
X-24912341Y-18639196D01*
X-24961831Y-18649500D01*
X-25582745Y-18649500D01*
X-25649784Y-18629815D01*
X-25670426Y-18613181D01*
X-29312181Y-14971426D01*
X-29345666Y-14910103D01*
X-29348500Y-14883745D01*
X-29348500Y-8113728D01*
X-29348499Y-8113715D01*
X-29348499Y-7998274D01*
X-29348498Y-7998274D01*
X-29375793Y-7896411D01*
X-29408645Y-7839510D01*
X-29428517Y-7805089D01*
X-29428521Y-7805084D01*
X-29503089Y-7730517D01*
X-30726584Y-6507022D01*
X-30726587Y-6507020D01*
X-30817910Y-6454293D01*
X-30919773Y-6427000D01*
X-32943114Y-6427000D01*
X-33010153Y-6407315D01*
X-33030795Y-6390681D01*
X-33034482Y-6386993D01*
X-33034488Y-6386988D01*
X-33160011Y-6314517D01*
X-33160010Y-6314517D01*
X-33201608Y-6303370D01*
X-33300025Y-6277000D01*
X-33444975Y-6277000D01*
X-33584985Y-6314516D01*
X-33584988Y-6314517D01*
X-33710511Y-6386988D01*
X-33710517Y-6386993D01*
X-33813006Y-6489482D01*
X-33813011Y-6489488D01*
X-33881172Y-6607547D01*
X-33885484Y-6615015D01*
X-33923000Y-6755025D01*
X-33923000Y-6899975D01*
X-33885484Y-7039985D01*
X-33813009Y-7165515D01*
X-33710515Y-7268009D01*
X-33584988Y-7340482D01*
X-33584987Y-7340482D01*
X-33584985Y-7340484D01*
X-33444975Y-7378000D01*
X-33444972Y-7378000D01*
X-33300028Y-7378000D01*
X-33300025Y-7378000D01*
X-33160015Y-7340484D01*
X-33160012Y-7340482D01*
X-33160011Y-7340482D01*
X-33034488Y-7268011D01*
X-33034486Y-7268010D01*
X-33034485Y-7268009D01*
X-33030795Y-7264319D01*
X-32969472Y-7230834D01*
X-32943114Y-7228000D01*
X-31189755Y-7228000D01*
X-31122716Y-7247685D01*
X-31102073Y-7264319D01*
X-30858783Y-7507610D01*
X-30778573Y-7587819D01*
X-30745088Y-7649142D01*
X-30750072Y-7718833D01*
X-30791943Y-7774767D01*
X-30857408Y-7799184D01*
X-30866254Y-7799500D01*
X-32970614Y-7799500D01*
X-33037653Y-7779815D01*
X-33058295Y-7763181D01*
X-33061982Y-7759493D01*
X-33061988Y-7759488D01*
X-33187511Y-7687017D01*
X-33187510Y-7687017D01*
X-33229108Y-7675870D01*
X-33327525Y-7649500D01*
X-33472475Y-7649500D01*
X-33612485Y-7687016D01*
X-33612488Y-7687017D01*
X-33738011Y-7759488D01*
X-33738017Y-7759493D01*
X-33840506Y-7861982D01*
X-33840511Y-7861988D01*
X-33905758Y-7975000D01*
X-33912984Y-7987515D01*
X-33950500Y-8127525D01*
X-35599500Y-8127525D01*
X-35599500Y-8103726D01*
X-35599500Y-7602129D01*
X-35599501Y-7602123D01*
X-35605908Y-7542516D01*
X-35656202Y-7407671D01*
X-35656206Y-7407664D01*
X-35742452Y-7292455D01*
X-35742455Y-7292452D01*
X-35857664Y-7206206D01*
X-35857671Y-7206202D01*
X-35992517Y-7155908D01*
X-35992516Y-7155908D01*
X-36052116Y-7149501D01*
X-36052119Y-7149500D01*
X-36052127Y-7149500D01*
X-36052134Y-7149500D01*
X-36052135Y-7149500D01*
X-36847870Y-7149500D01*
X-36847876Y-7149501D01*
X-36907483Y-7155908D01*
X-37042328Y-7206202D01*
X-37042335Y-7206206D01*
X-37157544Y-7292452D01*
X-37157547Y-7292455D01*
X-37243793Y-7407664D01*
X-37243797Y-7407671D01*
X-37270650Y-7479668D01*
X-37294091Y-7542517D01*
X-37300500Y-7602127D01*
X-37600004Y-7602127D01*
X-37606401Y-7542627D01*
X-37606403Y-7542620D01*
X-37656645Y-7407913D01*
X-37656649Y-7407906D01*
X-37742809Y-7292812D01*
X-37742812Y-7292809D01*
X-37857906Y-7206649D01*
X-37857913Y-7206645D01*
X-37992620Y-7156403D01*
X-37992627Y-7156401D01*
X-38052155Y-7150000D01*
X-38325000Y-7150000D01*
X-38325000Y-7975000D01*
X-38575000Y-7975000D01*
X-38575000Y-7150000D01*
X-38847844Y-7150000D01*
X-38907372Y-7156401D01*
X-38907379Y-7156403D01*
X-39042086Y-7206645D01*
X-39042093Y-7206649D01*
X-39157187Y-7292809D01*
X-39157190Y-7292812D01*
X-39243350Y-7407906D01*
X-39243354Y-7407913D01*
X-39293596Y-7542620D01*
X-39293598Y-7542627D01*
X-39299999Y-7602155D01*
X-39300000Y-7602172D01*
X-45149500Y-7602172D01*
X-45149500Y-5767255D01*
X-45140855Y-5737814D01*
X-45134332Y-5707828D01*
X-45130577Y-5702812D01*
X-45129815Y-5700216D01*
X-45113181Y-5679574D01*
X-44459735Y-5026128D01*
X-36900000Y-5026128D01*
X-36900000Y-5173871D01*
X-36899999Y-5173873D01*
X-36871179Y-5318759D01*
X-36871177Y-5318767D01*
X-36814642Y-5455255D01*
X-36761525Y-5534749D01*
X-36393118Y-5166342D01*
X-36361940Y-5241614D01*
X-36291614Y-5311940D01*
X-36216342Y-5343117D01*
X-36584749Y-5711525D01*
X-36505255Y-5764642D01*
X-36368767Y-5821177D01*
X-36368759Y-5821179D01*
X-36223873Y-5849999D01*
X-36223871Y-5850000D01*
X-36076129Y-5850000D01*
X-36076126Y-5849999D01*
X-35931240Y-5821179D01*
X-35931232Y-5821177D01*
X-35794743Y-5764642D01*
X-35715249Y-5711526D01*
X-35715249Y-5711525D01*
X-36083657Y-5343118D01*
X-36008386Y-5311940D01*
X-35938060Y-5241614D01*
X-35906881Y-5166342D01*
X-35538474Y-5534750D01*
X-35538473Y-5534749D01*
X-35485358Y-5455256D01*
X-35428822Y-5318767D01*
X-35428820Y-5318759D01*
X-35400000Y-5173873D01*
X-35400000Y-5026126D01*
X-35428820Y-4881240D01*
X-35428822Y-4881232D01*
X-35485359Y-4744741D01*
X-35538472Y-4665249D01*
X-35538473Y-4665248D01*
X-35906882Y-5033657D01*
X-35938060Y-4958386D01*
X-36008386Y-4888060D01*
X-36083657Y-4856881D01*
X-35715248Y-4488473D01*
X-35715249Y-4488472D01*
X-35794741Y-4435359D01*
X-35931232Y-4378822D01*
X-35931240Y-4378820D01*
X-36076128Y-4350000D01*
X-36223872Y-4350000D01*
X-36368759Y-4378820D01*
X-36368767Y-4378822D01*
X-36505256Y-4435358D01*
X-36584749Y-4488473D01*
X-36584750Y-4488474D01*
X-36216342Y-4856882D01*
X-36291614Y-4888060D01*
X-36361940Y-4958386D01*
X-36393117Y-5033656D01*
X-36761525Y-4665249D01*
X-36761526Y-4665249D01*
X-36814642Y-4744743D01*
X-36871177Y-4881232D01*
X-36871179Y-4881240D01*
X-36899999Y-5026126D01*
X-36900000Y-5026128D01*
X-44459735Y-5026128D01*
X-43870426Y-4436819D01*
X-43809103Y-4403334D01*
X-43782745Y-4400500D01*
X-42679386Y-4400500D01*
X-42612347Y-4420185D01*
X-42591705Y-4436819D01*
X-42588015Y-4440509D01*
X-42462488Y-4512982D01*
X-42462487Y-4512982D01*
X-42462485Y-4512984D01*
X-42322475Y-4550500D01*
X-42322472Y-4550500D01*
X-42177528Y-4550500D01*
X-42177525Y-4550500D01*
X-42037515Y-4512984D01*
X-42037512Y-4512982D01*
X-42037511Y-4512982D01*
X-41911985Y-4440509D01*
X-41809493Y-4338017D01*
X-41809488Y-4338011D01*
X-41737017Y-4212488D01*
X-41734327Y-4202450D01*
X-41699500Y-4072475D01*
X-41699500Y-3927525D01*
X-41732583Y-3804055D01*
X-41737017Y-3787511D01*
X-41809488Y-3661988D01*
X-41809493Y-3661982D01*
X-41911982Y-3559493D01*
X-41911988Y-3559488D01*
X-42037511Y-3487017D01*
X-42037510Y-3487017D01*
X-42079108Y-3475870D01*
X-42177525Y-3449500D01*
X-42322475Y-3449500D01*
X-42462485Y-3487016D01*
X-42462488Y-3487017D01*
X-42588011Y-3559488D01*
X-42588017Y-3559493D01*
X-42591705Y-3563181D01*
X-42653028Y-3596666D01*
X-42679386Y-3599500D01*
X-43947273Y-3599500D01*
X-44052727Y-3599500D01*
X-44103657Y-3613146D01*
X-44154589Y-3626793D01*
X-44167925Y-3634493D01*
X-44245913Y-3679520D01*
X-45870480Y-5304087D01*
X-45923207Y-5395412D01*
X-45935023Y-5439511D01*
X-45940094Y-5458439D01*
X-45950499Y-5497271D01*
X-45950500Y-5497275D01*
X-45950500Y-14682745D01*
X-45970185Y-14749784D01*
X-45986819Y-14770426D01*
X-47770480Y-16554087D01*
X-47823207Y-16645412D01*
X-47829733Y-16669769D01*
X-47850500Y-16747273D01*
X-47850500Y-22697273D01*
X-47850500Y-22802727D01*
X-47823207Y-22904588D01*
X-47770480Y-22995913D01*
X-47439296Y-23327097D01*
X-47136819Y-23629574D01*
X-47103334Y-23690897D01*
X-47100500Y-23717255D01*
X-47100500Y-23722475D01*
X-47062984Y-23862485D01*
X-46990509Y-23988015D01*
X-46986819Y-23991705D01*
X-46953334Y-24053028D01*
X-46950500Y-24079386D01*
X-46950500Y-25050500D01*
X-46970185Y-25117539D01*
X-47022989Y-25163294D01*
X-47074500Y-25174500D01*
X-47435369Y-25174500D01*
X-47435376Y-25174501D01*
X-47494983Y-25180908D01*
X-47629828Y-25231202D01*
X-47629835Y-25231206D01*
X-47745044Y-25317452D01*
X-47745047Y-25317455D01*
X-47831293Y-25432664D01*
X-47831297Y-25432671D01*
X-47831387Y-25432913D01*
X-47881591Y-25567517D01*
X-47888000Y-25627127D01*
X-47887999Y-26672872D01*
X-47881591Y-26732483D01*
X-47831296Y-26867331D01*
X-47745046Y-26982546D01*
X-47629831Y-27068796D01*
X-47629826Y-27068797D01*
X-47629826Y-27068798D01*
X-47531168Y-27105595D01*
X-47475234Y-27147466D01*
X-47450816Y-27212930D01*
X-47450500Y-27221777D01*
X-47450500Y-27598560D01*
X-47470185Y-27665599D01*
X-47522989Y-27711354D01*
X-47531167Y-27714742D01*
X-47642328Y-27756202D01*
X-47642335Y-27756206D01*
X-47757544Y-27842452D01*
X-47757547Y-27842455D01*
X-47843793Y-27957664D01*
X-47843797Y-27957671D01*
X-47890064Y-28081719D01*
X-47894091Y-28092517D01*
X-47900500Y-28152127D01*
X-48399500Y-28152127D01*
X-48399500Y-21697270D01*
X-48405334Y-21675499D01*
X-48426792Y-21595413D01*
X-48479520Y-21504087D01*
X-48479522Y-21504084D01*
X-49223725Y-20759881D01*
X-49257210Y-20698558D01*
X-49252226Y-20628866D01*
X-49243431Y-20610200D01*
X-49187017Y-20512488D01*
X-49187016Y-20512485D01*
X-49149500Y-20372475D01*
X-49149500Y-20227525D01*
X-49187016Y-20087515D01*
X-49187015Y-20087515D01*
X-49187017Y-20087511D01*
X-49259488Y-19961988D01*
X-49259493Y-19961982D01*
X-49361982Y-19859493D01*
X-49361988Y-19859488D01*
X-49487511Y-19787017D01*
X-49487510Y-19787017D01*
X-49529108Y-19775870D01*
X-49627525Y-19749500D01*
X-49772475Y-19749500D01*
X-49912485Y-19787016D01*
X-49912488Y-19787017D01*
X-50038011Y-19859488D01*
X-50038017Y-19859493D01*
X-50140506Y-19961982D01*
X-50140511Y-19961988D01*
X-50196805Y-20059493D01*
X-50212984Y-20087515D01*
X-50250500Y-20227525D01*
X-50250500Y-20372475D01*
X-50212984Y-20512485D01*
X-50140509Y-20638015D01*
X-50136819Y-20641705D01*
X-50103334Y-20703028D01*
X-50100500Y-20729386D01*
X-50100500Y-20797273D01*
X-50100500Y-20902727D01*
X-50073207Y-21004588D01*
X-50020480Y-21095913D01*
X-49616165Y-21500228D01*
X-49236819Y-21879574D01*
X-49203334Y-21940897D01*
X-49200500Y-21967255D01*
X-49200500Y-29182745D01*
X-49220185Y-29249784D01*
X-49236819Y-29270426D01*
X-51029574Y-31063181D01*
X-51090897Y-31096666D01*
X-51117255Y-31099500D01*
X-54777649Y-31099500D01*
X-54844688Y-31079815D01*
X-54890443Y-31027011D01*
X-54900939Y-30988752D01*
X-54905908Y-30942516D01*
X-54956202Y-30807671D01*
X-54956206Y-30807664D01*
X-55042452Y-30692455D01*
X-55042455Y-30692452D01*
X-55157664Y-30606206D01*
X-55157671Y-30606202D01*
X-55292517Y-30555908D01*
X-55292516Y-30555908D01*
X-55352116Y-30549501D01*
X-55352119Y-30549500D01*
X-55352127Y-30549500D01*
X-55352134Y-30549500D01*
X-55352135Y-30549500D01*
X-56147870Y-30549500D01*
X-56147876Y-30549501D01*
X-56207483Y-30555908D01*
X-56342328Y-30606202D01*
X-56342335Y-30606206D01*
X-56457544Y-30692452D01*
X-56457547Y-30692455D01*
X-56543793Y-30807664D01*
X-56543797Y-30807671D01*
X-56574391Y-30889699D01*
X-56594091Y-30942517D01*
X-56600500Y-31002127D01*
X-56899500Y-31002127D01*
X-56899501Y-31002122D01*
X-56905908Y-30942516D01*
X-56956202Y-30807671D01*
X-56956206Y-30807664D01*
X-57042452Y-30692455D01*
X-57042455Y-30692452D01*
X-57157664Y-30606206D01*
X-57157671Y-30606202D01*
X-57292517Y-30555908D01*
X-57292516Y-30555908D01*
X-57352116Y-30549501D01*
X-57352119Y-30549500D01*
X-57352127Y-30549500D01*
X-57352134Y-30549500D01*
X-57352135Y-30549500D01*
X-58147870Y-30549500D01*
X-58147876Y-30549501D01*
X-58207483Y-30555908D01*
X-58342328Y-30606202D01*
X-58342335Y-30606206D01*
X-58457544Y-30692452D01*
X-58457547Y-30692455D01*
X-58543793Y-30807664D01*
X-58543797Y-30807671D01*
X-58594091Y-30942516D01*
X-58594762Y-30948756D01*
X-58621500Y-31013307D01*
X-58678893Y-31053155D01*
X-58718051Y-31059500D01*
X-62975500Y-31059500D01*
X-63042539Y-31039815D01*
X-63088294Y-30987011D01*
X-63099500Y-30935500D01*
X-63099500Y-30485321D01*
X-63114032Y-30412264D01*
X-63114033Y-30412260D01*
X-63169399Y-30329399D01*
X-63252260Y-30274033D01*
X-63252264Y-30274032D01*
X-63325323Y-30259500D01*
X-63325326Y-30259500D01*
X-65374674Y-30259500D01*
X-65374677Y-30259500D01*
X-65447735Y-30274032D01*
X-65447739Y-30274033D01*
X-65466562Y-30286610D01*
X-65530601Y-30329399D01*
X-65569960Y-30388305D01*
X-65585966Y-30412260D01*
X-65585967Y-30412264D01*
X-65600499Y-30485321D01*
X-65600500Y-30485323D01*
X-65600500Y-32320500D01*
X-65620185Y-32387539D01*
X-65672989Y-32433294D01*
X-65724500Y-32444500D01*
X-66320500Y-32444500D01*
X-66387539Y-32424815D01*
X-66433294Y-32372011D01*
X-66444500Y-32320500D01*
X-66444500Y-29029491D01*
X-66453767Y-28943302D01*
X-66464973Y-28891793D01*
X-66464974Y-28891790D01*
X-66487690Y-28820140D01*
X-66487691Y-28820138D01*
X-66487691Y-28820137D01*
X-66557325Y-28708308D01*
X-66555410Y-28707115D01*
X-66576071Y-28650147D01*
X-66560600Y-28582012D01*
X-66558891Y-28579047D01*
X-66536124Y-28540762D01*
X-66536123Y-28540759D01*
X-66454148Y-28343412D01*
X-66198318Y-27727525D01*
X-64100500Y-27727525D01*
X-64100500Y-27872475D01*
X-64062984Y-28012485D01*
X-63990509Y-28138015D01*
X-63888015Y-28240509D01*
X-63762488Y-28312982D01*
X-63762487Y-28312982D01*
X-63762485Y-28312984D01*
X-63622475Y-28350500D01*
X-63622472Y-28350500D01*
X-63477528Y-28350500D01*
X-63477525Y-28350500D01*
X-63337515Y-28312984D01*
X-63337513Y-28312983D01*
X-63330162Y-28309938D01*
X-63282711Y-28300500D01*
X-60401440Y-28300500D01*
X-60334401Y-28320185D01*
X-60288646Y-28372989D01*
X-60285258Y-28381167D01*
X-60270163Y-28421637D01*
X-60243796Y-28492331D01*
X-60157546Y-28607546D01*
X-60042331Y-28693796D01*
X-59907483Y-28744091D01*
X-59847873Y-28750500D01*
X-59052128Y-28750499D01*
X-59003757Y-28745299D01*
X-58992516Y-28744091D01*
X-58857671Y-28693797D01*
X-58857664Y-28693793D01*
X-58742455Y-28607547D01*
X-58742452Y-28607544D01*
X-58656206Y-28492335D01*
X-58656202Y-28492328D01*
X-58605908Y-28357482D01*
X-58599501Y-28297883D01*
X-58599500Y-28297881D01*
X-58599500Y-28297873D01*
X-58599500Y-27807077D01*
X-58599500Y-27302129D01*
X-58599501Y-27302123D01*
X-58605908Y-27242516D01*
X-58656202Y-27107671D01*
X-58656206Y-27107664D01*
X-58742452Y-26992455D01*
X-58742455Y-26992452D01*
X-58857664Y-26906206D01*
X-58857671Y-26906202D01*
X-58992517Y-26855908D01*
X-58992516Y-26855908D01*
X-59052116Y-26849501D01*
X-59052119Y-26849500D01*
X-59052127Y-26849500D01*
X-59052134Y-26849500D01*
X-59052135Y-26849500D01*
X-59847870Y-26849500D01*
X-59847876Y-26849501D01*
X-59907483Y-26855908D01*
X-60042328Y-26906202D01*
X-60042335Y-26906206D01*
X-60157544Y-26992452D01*
X-60157547Y-26992455D01*
X-60243793Y-27107664D01*
X-60243797Y-27107671D01*
X-60285258Y-27218833D01*
X-60327129Y-27274767D01*
X-60392593Y-27299184D01*
X-60401440Y-27299500D01*
X-63282711Y-27299500D01*
X-63330162Y-27290062D01*
X-63337513Y-27287016D01*
X-63393519Y-27272009D01*
X-63477525Y-27249500D01*
X-63622475Y-27249500D01*
X-63762485Y-27287016D01*
X-63762488Y-27287017D01*
X-63888011Y-27359488D01*
X-63888017Y-27359493D01*
X-63990506Y-27461982D01*
X-63990511Y-27461988D01*
X-64022259Y-27516978D01*
X-64062984Y-27587515D01*
X-64100500Y-27727525D01*
X-66198318Y-27727525D01*
X-65459059Y-25947827D01*
X-60300000Y-25947827D01*
X-60299999Y-25947844D01*
X-60293598Y-26007372D01*
X-60293596Y-26007379D01*
X-60243354Y-26142086D01*
X-60243350Y-26142093D01*
X-60157190Y-26257187D01*
X-60157187Y-26257190D01*
X-60042093Y-26343350D01*
X-60042086Y-26343354D01*
X-59907379Y-26393596D01*
X-59907372Y-26393598D01*
X-59847844Y-26399999D01*
X-59847828Y-26400000D01*
X-59575000Y-26400000D01*
X-59325000Y-26400000D01*
X-59052172Y-26400000D01*
X-59052155Y-26399999D01*
X-58992627Y-26393598D01*
X-58992620Y-26393596D01*
X-58857913Y-26343354D01*
X-58857906Y-26343350D01*
X-58742812Y-26257190D01*
X-58742809Y-26257187D01*
X-58656649Y-26142093D01*
X-58656645Y-26142086D01*
X-58606403Y-26007379D01*
X-58606401Y-26007372D01*
X-58600000Y-25947844D01*
X-58600000Y-25575000D01*
X-59325000Y-25575000D01*
X-59325000Y-26400000D01*
X-59575000Y-26400000D01*
X-59575000Y-25575000D01*
X-60300000Y-25575000D01*
X-60300000Y-25947827D01*
X-65459059Y-25947827D01*
X-65263098Y-25476069D01*
X-65222684Y-25378777D01*
X-65222674Y-25378750D01*
X-65210228Y-25342530D01*
X-65202002Y-25312606D01*
X-65198905Y-25300346D01*
X-65198904Y-25300340D01*
X-65196018Y-25231645D01*
X-65195078Y-25209294D01*
X-65172597Y-25143141D01*
X-65117919Y-25099643D01*
X-65071188Y-25090500D01*
X-64965324Y-25090500D01*
X-64965321Y-25090499D01*
X-64892264Y-25075967D01*
X-64892260Y-25075966D01*
X-64854147Y-25050500D01*
X-64809399Y-25020601D01*
X-64763677Y-24952172D01*
X-60300000Y-24952172D01*
X-60300000Y-25325000D01*
X-59575000Y-25325000D01*
X-59325000Y-25325000D01*
X-58600000Y-25325000D01*
X-58600000Y-24952164D01*
X-58600004Y-24952127D01*
X-58300500Y-24952127D01*
X-58300499Y-25947872D01*
X-58294091Y-26007483D01*
X-58243796Y-26142331D01*
X-58157546Y-26257546D01*
X-58134230Y-26275000D01*
X-58042922Y-26343354D01*
X-58042331Y-26343796D01*
X-58031169Y-26347958D01*
X-57975236Y-26389826D01*
X-57950816Y-26455289D01*
X-57950500Y-26464141D01*
X-57950500Y-26785858D01*
X-57970185Y-26852897D01*
X-58022989Y-26898652D01*
X-58031152Y-26902034D01*
X-58042331Y-26906204D01*
X-58042332Y-26906205D01*
X-58042335Y-26906206D01*
X-58157544Y-26992452D01*
X-58157547Y-26992455D01*
X-58243793Y-27107664D01*
X-58243797Y-27107671D01*
X-58294091Y-27242516D01*
X-58294091Y-27242517D01*
X-58300500Y-27302127D01*
X-58300499Y-28297872D01*
X-58294091Y-28357483D01*
X-58243796Y-28492331D01*
X-58157546Y-28607546D01*
X-58042331Y-28693796D01*
X-57907483Y-28744091D01*
X-57847873Y-28750500D01*
X-57052128Y-28750499D01*
X-57003757Y-28745299D01*
X-56992516Y-28744091D01*
X-56857671Y-28693797D01*
X-56857664Y-28693793D01*
X-56742455Y-28607547D01*
X-56742452Y-28607544D01*
X-56656206Y-28492335D01*
X-56656202Y-28492328D01*
X-56605908Y-28357482D01*
X-56599501Y-28297883D01*
X-56599500Y-28297881D01*
X-56599500Y-28297873D01*
X-56599500Y-27807077D01*
X-56599500Y-27302129D01*
X-56599501Y-27302123D01*
X-56605908Y-27242516D01*
X-56656202Y-27107671D01*
X-56656206Y-27107664D01*
X-56742452Y-26992455D01*
X-56742455Y-26992452D01*
X-56857664Y-26906206D01*
X-56857669Y-26906204D01*
X-56868838Y-26902038D01*
X-56924769Y-26860166D01*
X-56949184Y-26794701D01*
X-56949500Y-26785858D01*
X-56949500Y-26464141D01*
X-56929815Y-26397102D01*
X-56877011Y-26351347D01*
X-56868850Y-26347966D01*
X-56857669Y-26343796D01*
X-56857667Y-26343794D01*
X-56857665Y-26343794D01*
X-56742455Y-26257547D01*
X-56742452Y-26257544D01*
X-56656206Y-26142335D01*
X-56656202Y-26142328D01*
X-56605908Y-26007482D01*
X-56599501Y-25947883D01*
X-56599500Y-25947881D01*
X-56599500Y-25947873D01*
X-56599501Y-25356898D01*
X-53350500Y-25356898D01*
X-53350500Y-26343102D01*
X-53339877Y-26431564D01*
X-53284361Y-26572342D01*
X-53192922Y-26692922D01*
X-53072342Y-26784361D01*
X-53072336Y-26784363D01*
X-53064950Y-26788517D01*
X-53066580Y-26791417D01*
X-53023912Y-26824573D01*
X-53000677Y-26890466D01*
X-53000500Y-26897085D01*
X-53000500Y-28421637D01*
X-53008165Y-28460179D01*
X-53007473Y-28460365D01*
X-53009576Y-28468214D01*
X-53009577Y-28468216D01*
X-53050500Y-28620943D01*
X-53050500Y-28779057D01*
X-53009577Y-28931784D01*
X-52930520Y-29068716D01*
X-52818716Y-29180520D01*
X-52681784Y-29259577D01*
X-52529057Y-29300500D01*
X-52529055Y-29300500D01*
X-52370945Y-29300500D01*
X-52370943Y-29300500D01*
X-52218216Y-29259577D01*
X-52174100Y-29234107D01*
X-52081290Y-29180524D01*
X-52081286Y-29180521D01*
X-52081284Y-29180520D01*
X-51969480Y-29068716D01*
X-51969479Y-29068714D01*
X-51969475Y-29068709D01*
X-51890426Y-28931790D01*
X-51890423Y-28931783D01*
X-51883599Y-28906318D01*
X-51849500Y-28779057D01*
X-51849500Y-28620943D01*
X-51890423Y-28468216D01*
X-51890423Y-28468214D01*
X-51892527Y-28460365D01*
X-51891834Y-28460179D01*
X-51899500Y-28421637D01*
X-51899500Y-26897085D01*
X-51879815Y-26830046D01*
X-51834014Y-26790359D01*
X-51835050Y-26788517D01*
X-51827659Y-26784361D01*
X-51827658Y-26784361D01*
X-51827655Y-26784359D01*
X-51707077Y-26692922D01*
X-51615639Y-26572343D01*
X-51560122Y-26431561D01*
X-51553696Y-26378046D01*
X-51549500Y-26343102D01*
X-51549500Y-25356898D01*
X-51550073Y-25352127D01*
X-51300500Y-25352127D01*
X-51300499Y-26347872D01*
X-51294091Y-26407483D01*
X-51243796Y-26542331D01*
X-51157546Y-26657546D01*
X-51042331Y-26743796D01*
X-50907483Y-26794091D01*
X-50847873Y-26800500D01*
X-50052128Y-26800499D01*
X-50003757Y-26795299D01*
X-49992516Y-26794091D01*
X-49857671Y-26743797D01*
X-49857664Y-26743793D01*
X-49742455Y-26657547D01*
X-49742452Y-26657544D01*
X-49656206Y-26542335D01*
X-49656202Y-26542328D01*
X-49605908Y-26407482D01*
X-49599501Y-26347883D01*
X-49599500Y-26347881D01*
X-49599500Y-26347873D01*
X-49599500Y-25947827D01*
X-49599500Y-25352129D01*
X-49599501Y-25352123D01*
X-49605908Y-25292516D01*
X-49656202Y-25157671D01*
X-49656206Y-25157664D01*
X-49742452Y-25042455D01*
X-49742455Y-25042452D01*
X-49857664Y-24956206D01*
X-49857670Y-24956203D01*
X-49901386Y-24939898D01*
X-49957319Y-24898026D01*
X-49981736Y-24832561D01*
X-49966884Y-24764289D01*
X-49965439Y-24761716D01*
X-49937017Y-24712488D01*
X-49918347Y-24642812D01*
X-49899500Y-24572475D01*
X-49899500Y-24427525D01*
X-49937016Y-24287515D01*
X-49937015Y-24287515D01*
X-49937017Y-24287511D01*
X-50003283Y-24172736D01*
X-50019756Y-24104836D01*
X-49996903Y-24038809D01*
X-49941982Y-23995618D01*
X-49939229Y-23994554D01*
X-49870171Y-23968797D01*
X-49870164Y-23968793D01*
X-49754955Y-23882547D01*
X-49754952Y-23882544D01*
X-49668706Y-23767335D01*
X-49668702Y-23767328D01*
X-49618408Y-23632482D01*
X-49612001Y-23572883D01*
X-49612000Y-23572881D01*
X-49612000Y-23572873D01*
X-49612000Y-23063181D01*
X-49612000Y-22527129D01*
X-49612001Y-22527123D01*
X-49618408Y-22467516D01*
X-49668702Y-22332671D01*
X-49668706Y-22332664D01*
X-49754952Y-22217455D01*
X-49754955Y-22217452D01*
X-49870164Y-22131206D01*
X-49870171Y-22131202D01*
X-50005013Y-22080910D01*
X-50005014Y-22080909D01*
X-50005017Y-22080909D01*
X-50064627Y-22074500D01*
X-50064635Y-22074500D01*
X-50064636Y-22074500D01*
X-50835370Y-22074500D01*
X-50835376Y-22074501D01*
X-50894983Y-22080908D01*
X-51029828Y-22131202D01*
X-51029835Y-22131206D01*
X-51145044Y-22217452D01*
X-51145047Y-22217455D01*
X-51231293Y-22332664D01*
X-51231297Y-22332671D01*
X-51259267Y-22407664D01*
X-51281591Y-22467517D01*
X-51288000Y-22527127D01*
X-51287999Y-23572872D01*
X-51281591Y-23632483D01*
X-51231296Y-23767331D01*
X-51145046Y-23882546D01*
X-51029831Y-23968796D01*
X-51029826Y-23968797D01*
X-51029826Y-23968798D01*
X-50960771Y-23994554D01*
X-50904837Y-24036425D01*
X-50880419Y-24101889D01*
X-50895270Y-24170162D01*
X-50896691Y-24172693D01*
X-50962984Y-24287515D01*
X-51000500Y-24427525D01*
X-51000500Y-24572475D01*
X-50962984Y-24712485D01*
X-50934560Y-24761715D01*
X-50918087Y-24829614D01*
X-50940939Y-24895642D01*
X-50995859Y-24938833D01*
X-50998614Y-24939898D01*
X-51042328Y-24956202D01*
X-51042335Y-24956206D01*
X-51157544Y-25042452D01*
X-51157547Y-25042455D01*
X-51243793Y-25157664D01*
X-51243797Y-25157671D01*
X-51271387Y-25231645D01*
X-51294091Y-25292517D01*
X-51300500Y-25352127D01*
X-51550073Y-25352127D01*
X-51557231Y-25292516D01*
X-51560122Y-25268438D01*
X-51615639Y-25127656D01*
X-51707077Y-25007077D01*
X-51827656Y-24915639D01*
X-51968438Y-24860122D01*
X-52017853Y-24854188D01*
X-52056898Y-24849500D01*
X-52843102Y-24849500D01*
X-52885926Y-24854642D01*
X-52931561Y-24860122D01*
X-52931563Y-24860122D01*
X-52931564Y-24860123D01*
X-52971967Y-24876056D01*
X-53072343Y-24915639D01*
X-53192922Y-25007077D01*
X-53284360Y-25127656D01*
X-53284360Y-25127657D01*
X-53284361Y-25127658D01*
X-53339877Y-25268436D01*
X-53350500Y-25356898D01*
X-56599501Y-25356898D01*
X-56599501Y-24952128D01*
X-56599501Y-24952127D01*
X-56599501Y-24952123D01*
X-56605908Y-24892516D01*
X-56656202Y-24757671D01*
X-56656206Y-24757664D01*
X-56742452Y-24642455D01*
X-56742455Y-24642452D01*
X-56857664Y-24556206D01*
X-56857671Y-24556202D01*
X-56992517Y-24505908D01*
X-56992516Y-24505908D01*
X-57052116Y-24499501D01*
X-57052119Y-24499500D01*
X-57052127Y-24499500D01*
X-57052134Y-24499500D01*
X-57052135Y-24499500D01*
X-57847870Y-24499500D01*
X-57847876Y-24499501D01*
X-57907483Y-24505908D01*
X-58042328Y-24556202D01*
X-58042335Y-24556206D01*
X-58157544Y-24642452D01*
X-58157547Y-24642455D01*
X-58243793Y-24757664D01*
X-58243797Y-24757671D01*
X-58282009Y-24860123D01*
X-58294091Y-24892517D01*
X-58300500Y-24952127D01*
X-58600004Y-24952127D01*
X-58606401Y-24892627D01*
X-58606403Y-24892620D01*
X-58656645Y-24757913D01*
X-58656649Y-24757906D01*
X-58742809Y-24642812D01*
X-58742812Y-24642809D01*
X-58857906Y-24556649D01*
X-58857913Y-24556645D01*
X-58992620Y-24506403D01*
X-58992627Y-24506401D01*
X-59052155Y-24500000D01*
X-59325000Y-24500000D01*
X-59325000Y-25325000D01*
X-59575000Y-25325000D01*
X-59575000Y-24500000D01*
X-59847844Y-24500000D01*
X-59907372Y-24506401D01*
X-59907379Y-24506403D01*
X-60042086Y-24556645D01*
X-60042093Y-24556649D01*
X-60157187Y-24642809D01*
X-60157190Y-24642812D01*
X-60243350Y-24757906D01*
X-60243354Y-24757913D01*
X-60293596Y-24892620D01*
X-60293598Y-24892627D01*
X-60299999Y-24952155D01*
X-60300000Y-24952172D01*
X-64763677Y-24952172D01*
X-64754033Y-24937739D01*
X-64754032Y-24937736D01*
X-64751431Y-24924658D01*
X-64751430Y-24924656D01*
X-64739500Y-24864678D01*
X-64739500Y-23027525D01*
X-64100500Y-23027525D01*
X-64100500Y-23172475D01*
X-64062984Y-23312485D01*
X-63990509Y-23438015D01*
X-63888015Y-23540509D01*
X-63762488Y-23612982D01*
X-63762487Y-23612982D01*
X-63762485Y-23612984D01*
X-63622475Y-23650500D01*
X-63622472Y-23650500D01*
X-63477528Y-23650500D01*
X-63477525Y-23650500D01*
X-63337515Y-23612984D01*
X-63337513Y-23612983D01*
X-63330162Y-23609938D01*
X-63282711Y-23600500D01*
X-60401440Y-23600500D01*
X-60334401Y-23620185D01*
X-60288646Y-23672989D01*
X-60285258Y-23681167D01*
X-60271798Y-23717255D01*
X-60243796Y-23792331D01*
X-60157546Y-23907546D01*
X-60042331Y-23993796D01*
X-59907483Y-24044091D01*
X-59847873Y-24050500D01*
X-59052128Y-24050499D01*
X-59003757Y-24045299D01*
X-58992516Y-24044091D01*
X-58857671Y-23993797D01*
X-58857664Y-23993793D01*
X-58742455Y-23907547D01*
X-58742452Y-23907544D01*
X-58656206Y-23792335D01*
X-58656202Y-23792328D01*
X-58605908Y-23657482D01*
X-58599501Y-23597883D01*
X-58599500Y-23597881D01*
X-58599500Y-23597873D01*
X-58599500Y-23109969D01*
X-58599500Y-22602129D01*
X-58599501Y-22602123D01*
X-58605908Y-22542516D01*
X-58656202Y-22407671D01*
X-58656206Y-22407664D01*
X-58742452Y-22292455D01*
X-58742455Y-22292452D01*
X-58857664Y-22206206D01*
X-58857671Y-22206202D01*
X-58992517Y-22155908D01*
X-58992516Y-22155908D01*
X-59052116Y-22149501D01*
X-59052119Y-22149500D01*
X-59052127Y-22149500D01*
X-59052134Y-22149500D01*
X-59052135Y-22149500D01*
X-59847870Y-22149500D01*
X-59847876Y-22149501D01*
X-59907483Y-22155908D01*
X-60042328Y-22206202D01*
X-60042335Y-22206206D01*
X-60157544Y-22292452D01*
X-60157547Y-22292455D01*
X-60243793Y-22407664D01*
X-60243797Y-22407671D01*
X-60285258Y-22518833D01*
X-60327129Y-22574767D01*
X-60392593Y-22599184D01*
X-60401440Y-22599500D01*
X-63282711Y-22599500D01*
X-63330162Y-22590062D01*
X-63337513Y-22587016D01*
X-63393519Y-22572009D01*
X-63477525Y-22549500D01*
X-63622475Y-22549500D01*
X-63762485Y-22587016D01*
X-63762488Y-22587017D01*
X-63888011Y-22659488D01*
X-63888017Y-22659493D01*
X-63990506Y-22761982D01*
X-63990511Y-22761988D01*
X-64054732Y-22873223D01*
X-64062984Y-22887515D01*
X-64100500Y-23027525D01*
X-64739500Y-23027525D01*
X-64739500Y-22615321D01*
X-64754032Y-22542264D01*
X-64754033Y-22542260D01*
X-64809399Y-22459399D01*
X-64892260Y-22404033D01*
X-64892264Y-22404032D01*
X-64965323Y-22389500D01*
X-64965326Y-22389500D01*
X-65070242Y-22389500D01*
X-65137281Y-22369815D01*
X-65183036Y-22317011D01*
X-65192980Y-22247853D01*
X-65163955Y-22184297D01*
X-65157923Y-22177819D01*
X-65059890Y-22079786D01*
X-64934951Y-21907820D01*
X-64838444Y-21718414D01*
X-64834912Y-21707546D01*
X-64772754Y-21516243D01*
X-64770828Y-21504087D01*
X-64753998Y-21397827D01*
X-60300000Y-21397827D01*
X-60299999Y-21397844D01*
X-60293598Y-21457372D01*
X-60293596Y-21457379D01*
X-60243354Y-21592086D01*
X-60243350Y-21592093D01*
X-60157190Y-21707187D01*
X-60157187Y-21707190D01*
X-60042093Y-21793350D01*
X-60042086Y-21793354D01*
X-59907379Y-21843596D01*
X-59907372Y-21843598D01*
X-59847844Y-21849999D01*
X-59847828Y-21850000D01*
X-59575000Y-21850000D01*
X-59325000Y-21850000D01*
X-59052172Y-21850000D01*
X-59052155Y-21849999D01*
X-58992627Y-21843598D01*
X-58992620Y-21843596D01*
X-58857913Y-21793354D01*
X-58857906Y-21793350D01*
X-58742812Y-21707190D01*
X-58742809Y-21707187D01*
X-58656649Y-21592093D01*
X-58656645Y-21592086D01*
X-58606403Y-21457379D01*
X-58606401Y-21457372D01*
X-58600000Y-21397844D01*
X-58600000Y-21025000D01*
X-59325000Y-21025000D01*
X-59325000Y-21850000D01*
X-59575000Y-21850000D01*
X-59575000Y-21025000D01*
X-60300000Y-21025000D01*
X-60300000Y-21397827D01*
X-64753998Y-21397827D01*
X-64749534Y-21369644D01*
X-64739500Y-21306287D01*
X-64739500Y-21093713D01*
X-64766827Y-20921178D01*
X-64772753Y-20883759D01*
X-64838444Y-20681585D01*
X-64934950Y-20492180D01*
X-64949805Y-20471735D01*
X-64949805Y-20471734D01*
X-65000344Y-20402172D01*
X-60300000Y-20402172D01*
X-60300000Y-20775000D01*
X-59575000Y-20775000D01*
X-59325000Y-20775000D01*
X-58600000Y-20775000D01*
X-58600000Y-20402164D01*
X-58600004Y-20402127D01*
X-58300500Y-20402127D01*
X-58300499Y-21397872D01*
X-58294091Y-21457483D01*
X-58243796Y-21592331D01*
X-58157546Y-21707546D01*
X-58134730Y-21724626D01*
X-58042922Y-21793354D01*
X-58042331Y-21793796D01*
X-58031169Y-21797958D01*
X-58013442Y-21811227D01*
X-57993297Y-21820428D01*
X-57986016Y-21831756D01*
X-57975236Y-21839826D01*
X-57967495Y-21860576D01*
X-57955523Y-21879206D01*
X-57952372Y-21901115D01*
X-57950816Y-21905289D01*
X-57950500Y-21914141D01*
X-57950500Y-22085858D01*
X-57970185Y-22152897D01*
X-58022989Y-22198652D01*
X-58031152Y-22202034D01*
X-58042331Y-22206204D01*
X-58042332Y-22206205D01*
X-58042335Y-22206206D01*
X-58157544Y-22292452D01*
X-58157547Y-22292455D01*
X-58243793Y-22407664D01*
X-58243797Y-22407671D01*
X-58291648Y-22535966D01*
X-58294091Y-22542517D01*
X-58300500Y-22602127D01*
X-58300499Y-23597872D01*
X-58294091Y-23657483D01*
X-58243796Y-23792331D01*
X-58157546Y-23907546D01*
X-58042331Y-23993796D01*
X-57907483Y-24044091D01*
X-57847873Y-24050500D01*
X-57052128Y-24050499D01*
X-57003757Y-24045299D01*
X-56992516Y-24044091D01*
X-56857671Y-23993797D01*
X-56857664Y-23993793D01*
X-56742455Y-23907547D01*
X-56742452Y-23907544D01*
X-56656206Y-23792335D01*
X-56656202Y-23792328D01*
X-56605908Y-23657482D01*
X-56599501Y-23597883D01*
X-56599500Y-23597881D01*
X-56599500Y-23597873D01*
X-56599500Y-23572827D01*
X-53362500Y-23572827D01*
X-53362499Y-23572844D01*
X-53356098Y-23632372D01*
X-53356096Y-23632379D01*
X-53305854Y-23767086D01*
X-53305850Y-23767093D01*
X-53219690Y-23882187D01*
X-53219687Y-23882190D01*
X-53104593Y-23968350D01*
X-53104586Y-23968354D01*
X-52969879Y-24018596D01*
X-52969872Y-24018598D01*
X-52910344Y-24024999D01*
X-52910328Y-24025000D01*
X-52650000Y-24025000D01*
X-52400000Y-24025000D01*
X-52139672Y-24025000D01*
X-52139655Y-24024999D01*
X-52080127Y-24018598D01*
X-52080120Y-24018596D01*
X-51945413Y-23968354D01*
X-51945406Y-23968350D01*
X-51830312Y-23882190D01*
X-51830309Y-23882187D01*
X-51744149Y-23767093D01*
X-51744145Y-23767086D01*
X-51693903Y-23632379D01*
X-51693901Y-23632372D01*
X-51687500Y-23572844D01*
X-51687500Y-23175000D01*
X-52400000Y-23175000D01*
X-52400000Y-24025000D01*
X-52650000Y-24025000D01*
X-52650000Y-23175000D01*
X-53362500Y-23175000D01*
X-53362500Y-23572827D01*
X-56599500Y-23572827D01*
X-56599500Y-23109969D01*
X-56599500Y-22602129D01*
X-56599501Y-22602125D01*
X-56605909Y-22542515D01*
X-56611632Y-22527172D01*
X-53362500Y-22527172D01*
X-53362500Y-22925000D01*
X-52650000Y-22925000D01*
X-52400000Y-22925000D01*
X-51687500Y-22925000D01*
X-51687500Y-22527155D01*
X-51693901Y-22467627D01*
X-51693903Y-22467620D01*
X-51744145Y-22332913D01*
X-51744149Y-22332906D01*
X-51830309Y-22217812D01*
X-51830312Y-22217809D01*
X-51945406Y-22131649D01*
X-51945413Y-22131645D01*
X-52080120Y-22081403D01*
X-52080127Y-22081401D01*
X-52139655Y-22075000D01*
X-52400000Y-22075000D01*
X-52400000Y-22925000D01*
X-52650000Y-22925000D01*
X-52650000Y-22075000D01*
X-52910344Y-22075000D01*
X-52969872Y-22081401D01*
X-52969879Y-22081403D01*
X-53104586Y-22131645D01*
X-53104593Y-22131649D01*
X-53219687Y-22217809D01*
X-53219690Y-22217812D01*
X-53305850Y-22332906D01*
X-53305854Y-22332913D01*
X-53356096Y-22467620D01*
X-53356098Y-22467627D01*
X-53362499Y-22527155D01*
X-53362500Y-22527172D01*
X-56611632Y-22527172D01*
X-56656202Y-22407671D01*
X-56656206Y-22407664D01*
X-56742452Y-22292455D01*
X-56742455Y-22292452D01*
X-56857664Y-22206206D01*
X-56857669Y-22206204D01*
X-56868838Y-22202038D01*
X-56886562Y-22188768D01*
X-56906703Y-22179571D01*
X-56913985Y-22168238D01*
X-56924769Y-22160166D01*
X-56932506Y-22139420D01*
X-56944477Y-22120793D01*
X-56947629Y-22098870D01*
X-56949184Y-22094701D01*
X-56949500Y-22085858D01*
X-56949500Y-21914141D01*
X-56929815Y-21847102D01*
X-56877011Y-21801347D01*
X-56868850Y-21797966D01*
X-56857669Y-21793796D01*
X-56857667Y-21793794D01*
X-56857665Y-21793794D01*
X-56742455Y-21707547D01*
X-56742452Y-21707544D01*
X-56656206Y-21592335D01*
X-56656202Y-21592328D01*
X-56605908Y-21457482D01*
X-56599501Y-21397883D01*
X-56599500Y-21397881D01*
X-56599500Y-21397873D01*
X-56599500Y-20900651D01*
X-56599500Y-20402129D01*
X-56599501Y-20402123D01*
X-56605908Y-20342516D01*
X-56656202Y-20207671D01*
X-56656206Y-20207664D01*
X-56742452Y-20092455D01*
X-56742455Y-20092452D01*
X-56857664Y-20006206D01*
X-56857671Y-20006202D01*
X-56992517Y-19955908D01*
X-56992516Y-19955908D01*
X-57052116Y-19949501D01*
X-57052119Y-19949500D01*
X-57052127Y-19949500D01*
X-57052134Y-19949500D01*
X-57052135Y-19949500D01*
X-57847870Y-19949500D01*
X-57847876Y-19949501D01*
X-57907483Y-19955908D01*
X-58042328Y-20006202D01*
X-58042335Y-20006206D01*
X-58157544Y-20092452D01*
X-58157547Y-20092455D01*
X-58243793Y-20207664D01*
X-58243797Y-20207671D01*
X-58273575Y-20287511D01*
X-58294091Y-20342517D01*
X-58300500Y-20402127D01*
X-58600004Y-20402127D01*
X-58606401Y-20342627D01*
X-58606403Y-20342620D01*
X-58656645Y-20207913D01*
X-58656649Y-20207906D01*
X-58742809Y-20092812D01*
X-58742812Y-20092809D01*
X-58857906Y-20006649D01*
X-58857913Y-20006645D01*
X-58992620Y-19956403D01*
X-58992627Y-19956401D01*
X-59052155Y-19950000D01*
X-59325000Y-19950000D01*
X-59325000Y-20775000D01*
X-59575000Y-20775000D01*
X-59575000Y-19950000D01*
X-59847844Y-19950000D01*
X-59907372Y-19956401D01*
X-59907379Y-19956403D01*
X-60042086Y-20006645D01*
X-60042093Y-20006649D01*
X-60157187Y-20092809D01*
X-60157190Y-20092812D01*
X-60243350Y-20207906D01*
X-60243354Y-20207913D01*
X-60293596Y-20342620D01*
X-60293598Y-20342627D01*
X-60299999Y-20402155D01*
X-60300000Y-20402172D01*
X-65000344Y-20402172D01*
X-65059890Y-20320214D01*
X-65059894Y-20320209D01*
X-65210213Y-20169890D01*
X-65382179Y-20044951D01*
X-65571585Y-19948444D01*
X-65773760Y-19882753D01*
X-65773759Y-19882753D01*
X-65944202Y-19855757D01*
X-65983713Y-19849500D01*
X-66196287Y-19849500D01*
X-66259348Y-19859488D01*
X-66406239Y-19882753D01*
X-66406241Y-19882753D01*
X-66406243Y-19882754D01*
X-66608412Y-19948443D01*
X-66608413Y-19948443D01*
X-66608414Y-19948444D01*
X-66797820Y-20044951D01*
X-66969786Y-20169890D01*
X-67120109Y-20320213D01*
X-67245048Y-20492179D01*
X-67245049Y-20492181D01*
X-67245051Y-20492184D01*
X-67341557Y-20681588D01*
X-67407246Y-20883757D01*
X-67440500Y-21093713D01*
X-67440500Y-21306287D01*
X-67407246Y-21516243D01*
X-67341557Y-21718412D01*
X-67245051Y-21907816D01*
X-67245048Y-21907820D01*
X-67120109Y-22079786D01*
X-67120106Y-22079788D01*
X-67120104Y-22079792D01*
X-67068694Y-22131202D01*
X-67022077Y-22177819D01*
X-66988592Y-22239142D01*
X-66993576Y-22308834D01*
X-67035448Y-22364767D01*
X-67100912Y-22389184D01*
X-67109758Y-22389500D01*
X-67214677Y-22389500D01*
X-67287735Y-22404032D01*
X-67287739Y-22404033D01*
X-67303495Y-22414561D01*
X-67370601Y-22459399D01*
X-67425966Y-22542260D01*
X-67425966Y-22542261D01*
X-67426500Y-22543060D01*
X-67480112Y-22587866D01*
X-67547247Y-22596908D01*
X-67563993Y-22594500D01*
X-67564000Y-22594500D01*
X-68413517Y-22594500D01*
X-68480556Y-22574815D01*
X-68526311Y-22522011D01*
X-68536255Y-22452853D01*
X-68516620Y-22401610D01*
X-68514033Y-22397739D01*
X-68514032Y-22397735D01*
X-68499500Y-22324678D01*
X-68499500Y-20075321D01*
X-68514032Y-20002264D01*
X-68514033Y-20002260D01*
X-68569399Y-19919399D01*
X-68652260Y-19864033D01*
X-68652264Y-19864032D01*
X-68725323Y-19849500D01*
X-68725326Y-19849500D01*
X-69075500Y-19849500D01*
X-69142539Y-19829815D01*
X-69188294Y-19777011D01*
X-69199500Y-19725500D01*
X-69199500Y-17935928D01*
X-69199499Y-17935928D01*
X-69224497Y-17810261D01*
X-69224499Y-17810255D01*
X-69273534Y-17691874D01*
X-69273536Y-17691870D01*
X-69274992Y-17689692D01*
X-69344725Y-17585327D01*
X-71235326Y-15694726D01*
X-71341874Y-15623534D01*
X-71343581Y-15622827D01*
X-57662500Y-15622827D01*
X-57662499Y-15622844D01*
X-57656098Y-15682372D01*
X-57656096Y-15682379D01*
X-57605854Y-15817086D01*
X-57605850Y-15817093D01*
X-57519690Y-15932187D01*
X-57519687Y-15932190D01*
X-57404593Y-16018350D01*
X-57404586Y-16018354D01*
X-57269879Y-16068596D01*
X-57269872Y-16068598D01*
X-57210344Y-16074999D01*
X-57210328Y-16075000D01*
X-56950000Y-16075000D01*
X-56700000Y-16075000D01*
X-56439672Y-16075000D01*
X-56439655Y-16074999D01*
X-56380127Y-16068598D01*
X-56380120Y-16068596D01*
X-56245413Y-16018354D01*
X-56245406Y-16018350D01*
X-56130312Y-15932190D01*
X-56130309Y-15932187D01*
X-56044149Y-15817093D01*
X-56044145Y-15817086D01*
X-55993903Y-15682379D01*
X-55993901Y-15682372D01*
X-55987500Y-15622844D01*
X-55987500Y-15225000D01*
X-56700000Y-15225000D01*
X-56700000Y-16075000D01*
X-56950000Y-16075000D01*
X-56950000Y-15225000D01*
X-57662500Y-15225000D01*
X-57662500Y-15622827D01*
X-71343581Y-15622827D01*
X-71460255Y-15574499D01*
X-71460261Y-15574497D01*
X-71585929Y-15549500D01*
X-71585931Y-15549500D01*
X-80829192Y-15549500D01*
X-80896231Y-15529815D01*
X-80916873Y-15513181D01*
X-81852882Y-14577172D01*
X-57662500Y-14577172D01*
X-57662500Y-14975000D01*
X-56950000Y-14975000D01*
X-56700000Y-14975000D01*
X-55987500Y-14975000D01*
X-55987500Y-14577155D01*
X-55993901Y-14517627D01*
X-55993903Y-14517620D01*
X-56044145Y-14382913D01*
X-56044149Y-14382906D01*
X-56130309Y-14267812D01*
X-56130312Y-14267809D01*
X-56245406Y-14181649D01*
X-56245413Y-14181645D01*
X-56380120Y-14131403D01*
X-56380127Y-14131401D01*
X-56439655Y-14125000D01*
X-56700000Y-14125000D01*
X-56700000Y-14975000D01*
X-56950000Y-14975000D01*
X-56950000Y-14125000D01*
X-57210344Y-14125000D01*
X-57269872Y-14131401D01*
X-57269879Y-14131403D01*
X-57404586Y-14181645D01*
X-57404593Y-14181649D01*
X-57519687Y-14267809D01*
X-57519690Y-14267812D01*
X-57605850Y-14382906D01*
X-57605854Y-14382913D01*
X-57656096Y-14517620D01*
X-57656098Y-14517627D01*
X-57662499Y-14577155D01*
X-57662500Y-14577172D01*
X-81852882Y-14577172D01*
X-81963181Y-14466873D01*
X-81996666Y-14405550D01*
X-81999500Y-14379192D01*
X-81999500Y-14024500D01*
X-81979815Y-13957461D01*
X-81927011Y-13911706D01*
X-81875500Y-13900500D01*
X-81775324Y-13900500D01*
X-81775321Y-13900499D01*
X-81702264Y-13885967D01*
X-81702260Y-13885966D01*
X-81685848Y-13875000D01*
X-81619399Y-13830601D01*
X-81564034Y-13747740D01*
X-81564033Y-13747739D01*
X-81564032Y-13747735D01*
X-81549500Y-13674678D01*
X-81549500Y-11925321D01*
X-81564032Y-11852264D01*
X-81564033Y-11852260D01*
X-81619399Y-11769399D01*
X-81702260Y-11714033D01*
X-81702264Y-11714032D01*
X-81775323Y-11699500D01*
X-81775326Y-11699500D01*
X-83524674Y-11699500D01*
X-83524677Y-11699500D01*
X-83597735Y-11714032D01*
X-83597739Y-11714033D01*
X-83597740Y-11714034D01*
X-83680601Y-11769399D01*
X-83706090Y-11807547D01*
X-83735966Y-11852260D01*
X-83735967Y-11852264D01*
X-83750499Y-11925321D01*
X-83750500Y-11925323D01*
X-91189500Y-11925323D01*
X-91189500Y-9151456D01*
X-90790500Y-9151456D01*
X-90790500Y-9848543D01*
X-90765848Y-9972472D01*
X-90752051Y-10041835D01*
X-90676632Y-10223914D01*
X-90567139Y-10387782D01*
X-90427782Y-10527139D01*
X-90263914Y-10636632D01*
X-90081835Y-10712051D01*
X-90018582Y-10724632D01*
X-89888543Y-10750500D01*
X-89888541Y-10750500D01*
X-89691456Y-10750500D01*
X-89498170Y-10712052D01*
X-89498169Y-10712051D01*
X-89498165Y-10712051D01*
X-89498160Y-10712049D01*
X-89316092Y-10636635D01*
X-89316079Y-10636628D01*
X-89152218Y-10527139D01*
X-89152214Y-10527136D01*
X-89111899Y-10486820D01*
X-89050576Y-10453334D01*
X-89024217Y-10450500D01*
X-86397275Y-10450500D01*
X-86397273Y-10450500D01*
X-86295412Y-10423207D01*
X-86204087Y-10370480D01*
X-86006996Y-10173389D01*
X-83750500Y-10173389D01*
X-83750500Y-10346611D01*
X-83723402Y-10517701D01*
X-83669873Y-10682445D01*
X-83591232Y-10836788D01*
X-83489414Y-10976928D01*
X-83366928Y-11099414D01*
X-83226788Y-11201232D01*
X-83072445Y-11279873D01*
X-82907701Y-11333402D01*
X-82736611Y-11360500D01*
X-82736610Y-11360500D01*
X-82563390Y-11360500D01*
X-82563389Y-11360500D01*
X-82392299Y-11333402D01*
X-82227555Y-11279873D01*
X-82073212Y-11201232D01*
X-81933072Y-11099414D01*
X-81810586Y-10976928D01*
X-81708768Y-10836788D01*
X-81630127Y-10682445D01*
X-81576598Y-10517701D01*
X-81574135Y-10502155D01*
X-81556021Y-10387781D01*
X-81549500Y-10346611D01*
X-81549500Y-10173389D01*
X-81559146Y-10112485D01*
X-81576597Y-10002304D01*
X-81576597Y-10002302D01*
X-81576598Y-10002299D01*
X-81630127Y-9837555D01*
X-81630128Y-9837552D01*
X-81630129Y-9837550D01*
X-81635237Y-9827525D01*
X-78800500Y-9827525D01*
X-78800500Y-9972475D01*
X-78762984Y-10112485D01*
X-78690509Y-10238015D01*
X-78588015Y-10340509D01*
X-78462488Y-10412982D01*
X-78462487Y-10412982D01*
X-78462485Y-10412984D01*
X-78322475Y-10450500D01*
X-78322472Y-10450500D01*
X-78177528Y-10450500D01*
X-78177525Y-10450500D01*
X-78037515Y-10412984D01*
X-78037512Y-10412982D01*
X-78037511Y-10412982D01*
X-77911988Y-10340511D01*
X-77911986Y-10340510D01*
X-77911985Y-10340509D01*
X-77809491Y-10238015D01*
X-77809490Y-10238013D01*
X-77809488Y-10238011D01*
X-77737017Y-10112488D01*
X-77735333Y-10106204D01*
X-77699500Y-9972475D01*
X-77699500Y-9827525D01*
X-77732576Y-9704085D01*
X-77737016Y-9687513D01*
X-77740063Y-9680159D01*
X-77749500Y-9632710D01*
X-77749500Y-7802525D01*
X-77300500Y-7802525D01*
X-77300500Y-7947475D01*
X-77262984Y-8087485D01*
X-77190509Y-8213015D01*
X-77088015Y-8315509D01*
X-76962488Y-8387982D01*
X-76962487Y-8387982D01*
X-76962485Y-8387984D01*
X-76822475Y-8425500D01*
X-76822472Y-8425500D01*
X-76677528Y-8425500D01*
X-76677525Y-8425500D01*
X-76537515Y-8387984D01*
X-76537513Y-8387983D01*
X-76530162Y-8384938D01*
X-76482711Y-8375500D01*
X-71357289Y-8375500D01*
X-71309838Y-8384938D01*
X-71302488Y-8387981D01*
X-71302485Y-8387984D01*
X-71162475Y-8425500D01*
X-71162472Y-8425500D01*
X-71017528Y-8425500D01*
X-71017525Y-8425500D01*
X-70877515Y-8387984D01*
X-70877512Y-8387982D01*
X-70877511Y-8387982D01*
X-70751988Y-8315511D01*
X-70751986Y-8315510D01*
X-70751985Y-8315509D01*
X-70649491Y-8213015D01*
X-70649490Y-8213013D01*
X-70649488Y-8213011D01*
X-70577017Y-8087488D01*
X-70553112Y-7998274D01*
X-70539500Y-7947475D01*
X-70539500Y-7802525D01*
X-70577016Y-7662515D01*
X-70577015Y-7662515D01*
X-70577017Y-7662511D01*
X-70649488Y-7536988D01*
X-70649493Y-7536982D01*
X-70751982Y-7434493D01*
X-70751988Y-7434488D01*
X-70877511Y-7362017D01*
X-70877510Y-7362017D01*
X-70919108Y-7350870D01*
X-71017525Y-7324500D01*
X-71162475Y-7324500D01*
X-71267482Y-7352637D01*
X-71302486Y-7362016D01*
X-71309838Y-7365062D01*
X-71357289Y-7374500D01*
X-76482711Y-7374500D01*
X-76530162Y-7365062D01*
X-76537513Y-7362016D01*
X-76617873Y-7340484D01*
X-76677525Y-7324500D01*
X-76822475Y-7324500D01*
X-76962485Y-7362016D01*
X-76962488Y-7362017D01*
X-77088011Y-7434488D01*
X-77088017Y-7434493D01*
X-77190506Y-7536982D01*
X-77190511Y-7536988D01*
X-77251533Y-7642682D01*
X-77262984Y-7662515D01*
X-77300500Y-7802525D01*
X-77749500Y-7802525D01*
X-77749500Y-6858676D01*
X-77729815Y-6791637D01*
X-77713181Y-6770995D01*
X-77469711Y-6527525D01*
X-70700500Y-6527525D01*
X-70700500Y-6672475D01*
X-70662984Y-6812485D01*
X-70590509Y-6938015D01*
X-70488015Y-7040509D01*
X-70362488Y-7112982D01*
X-70362487Y-7112982D01*
X-70362485Y-7112984D01*
X-70222475Y-7150500D01*
X-70217255Y-7150500D01*
X-70150216Y-7170185D01*
X-70129574Y-7186819D01*
X-70095913Y-7220480D01*
X-70004588Y-7273207D01*
X-69902727Y-7300500D01*
X-58017255Y-7300500D01*
X-57950216Y-7320185D01*
X-57929574Y-7336819D01*
X-55186819Y-10079574D01*
X-55153334Y-10140897D01*
X-55150500Y-10167255D01*
X-55150500Y-14028222D01*
X-55170185Y-14095261D01*
X-55222989Y-14141016D01*
X-55231167Y-14144404D01*
X-55329828Y-14181202D01*
X-55329835Y-14181206D01*
X-55445044Y-14267452D01*
X-55445047Y-14267455D01*
X-55531293Y-14382664D01*
X-55531297Y-14382671D01*
X-55547349Y-14425710D01*
X-55581591Y-14517517D01*
X-55588000Y-14577127D01*
X-55587999Y-15622872D01*
X-55581591Y-15682483D01*
X-55531296Y-15817331D01*
X-55445046Y-15932546D01*
X-55329831Y-16018796D01*
X-55329826Y-16018797D01*
X-55329826Y-16018798D01*
X-55231168Y-16055595D01*
X-55175234Y-16097466D01*
X-55150816Y-16162930D01*
X-55150500Y-16171777D01*
X-55150500Y-16670614D01*
X-55170185Y-16737653D01*
X-55186819Y-16758295D01*
X-55190509Y-16761985D01*
X-55190510Y-16761987D01*
X-55259572Y-16881606D01*
X-55262984Y-16887515D01*
X-55300500Y-17027525D01*
X-55300500Y-17172475D01*
X-55262984Y-17312485D01*
X-55190509Y-17438015D01*
X-55088015Y-17540509D01*
X-54962488Y-17612982D01*
X-54962487Y-17612982D01*
X-54962485Y-17612984D01*
X-54822475Y-17650500D01*
X-54822472Y-17650500D01*
X-54677528Y-17650500D01*
X-54677525Y-17650500D01*
X-54537515Y-17612984D01*
X-54537512Y-17612982D01*
X-54537511Y-17612982D01*
X-54411988Y-17540511D01*
X-54411986Y-17540510D01*
X-54411985Y-17540509D01*
X-54309491Y-17438015D01*
X-54309490Y-17438013D01*
X-54309488Y-17438011D01*
X-54237017Y-17312488D01*
X-54237016Y-17312485D01*
X-54199500Y-17172475D01*
X-54199500Y-17027525D01*
X-54237016Y-16887515D01*
X-54237015Y-16887515D01*
X-54237017Y-16887511D01*
X-54309490Y-16761987D01*
X-54309493Y-16761982D01*
X-54313181Y-16758295D01*
X-54346666Y-16696972D01*
X-54349500Y-16670614D01*
X-54349500Y-16171777D01*
X-54329815Y-16104738D01*
X-54277011Y-16058983D01*
X-54268832Y-16055595D01*
X-54170173Y-16018798D01*
X-54170164Y-16018793D01*
X-54054955Y-15932547D01*
X-54054952Y-15932544D01*
X-53968706Y-15817335D01*
X-53968702Y-15817328D01*
X-53918408Y-15682482D01*
X-53912001Y-15622883D01*
X-53912000Y-15622881D01*
X-53912000Y-15622873D01*
X-53912000Y-15104281D01*
X-53912000Y-14577129D01*
X-53912001Y-14577123D01*
X-53918408Y-14517516D01*
X-53968702Y-14382671D01*
X-53968706Y-14382664D01*
X-54054952Y-14267455D01*
X-54054955Y-14267452D01*
X-54170164Y-14181206D01*
X-54170171Y-14181202D01*
X-54268833Y-14144404D01*
X-54324767Y-14102533D01*
X-54349184Y-14037068D01*
X-54349500Y-14028222D01*
X-54349500Y-9897273D01*
X-54376793Y-9795413D01*
X-54376794Y-9795410D01*
X-54429521Y-9704085D01*
X-57554084Y-6579522D01*
X-57554087Y-6579520D01*
X-57645410Y-6526793D01*
X-57747273Y-6499500D01*
X-59322650Y-6499500D01*
X-59389689Y-6479815D01*
X-59435444Y-6427011D01*
X-59445388Y-6357853D01*
X-59425752Y-6306609D01*
X-59340609Y-6179185D01*
X-59340602Y-6179172D01*
X-59280264Y-6033501D01*
X-59280261Y-6033489D01*
X-59249500Y-5878846D01*
X-59249500Y-5721153D01*
X-59280261Y-5566510D01*
X-59280264Y-5566498D01*
X-59340602Y-5420827D01*
X-59340609Y-5420814D01*
X-59428210Y-5289711D01*
X-59428213Y-5289707D01*
X-59539707Y-5178213D01*
X-59539711Y-5178210D01*
X-59670814Y-5090609D01*
X-59670827Y-5090602D01*
X-59816498Y-5030264D01*
X-59816510Y-5030261D01*
X-59971155Y-4999500D01*
X-59971158Y-4999500D01*
X-60128842Y-4999500D01*
X-60128845Y-4999500D01*
X-60283489Y-5030261D01*
X-60283501Y-5030264D01*
X-60429172Y-5090602D01*
X-60429185Y-5090609D01*
X-60560288Y-5178210D01*
X-60560292Y-5178213D01*
X-60671786Y-5289707D01*
X-60671789Y-5289711D01*
X-60759390Y-5420814D01*
X-60759397Y-5420827D01*
X-60796452Y-5510288D01*
X-60819737Y-5566503D01*
X-60830734Y-5621789D01*
X-60850499Y-5721153D01*
X-60850500Y-5721155D01*
X-60850500Y-5721158D01*
X-60850500Y-5878842D01*
X-60819737Y-6033497D01*
X-60804713Y-6069769D01*
X-60763728Y-6168717D01*
X-60759394Y-6179179D01*
X-60759390Y-6179184D01*
X-60759390Y-6179185D01*
X-60674248Y-6306609D01*
X-60653370Y-6373286D01*
X-60671854Y-6440666D01*
X-60723833Y-6487357D01*
X-60777350Y-6499500D01*
X-69511861Y-6499500D01*
X-69578900Y-6479815D01*
X-69624655Y-6427011D01*
X-69631636Y-6407594D01*
X-69631711Y-6407315D01*
X-69633022Y-6402418D01*
X-69637016Y-6387512D01*
X-69637017Y-6387511D01*
X-69709488Y-6261988D01*
X-69709493Y-6261982D01*
X-69811982Y-6159493D01*
X-69811988Y-6159488D01*
X-69937511Y-6087017D01*
X-69937510Y-6087017D01*
X-69996119Y-6071313D01*
X-70077525Y-6049500D01*
X-70222475Y-6049500D01*
X-70362485Y-6087016D01*
X-70362488Y-6087017D01*
X-70488011Y-6159488D01*
X-70488017Y-6159493D01*
X-70590506Y-6261982D01*
X-70590511Y-6261988D01*
X-70662681Y-6386991D01*
X-70662984Y-6387515D01*
X-70700500Y-6527525D01*
X-77469711Y-6527525D01*
X-76254005Y-5311819D01*
X-76227077Y-5297115D01*
X-76201259Y-5280523D01*
X-76195058Y-5279631D01*
X-76192682Y-5278334D01*
X-76166324Y-5275500D01*
X-76057289Y-5275500D01*
X-76009838Y-5284938D01*
X-76002488Y-5287981D01*
X-76002485Y-5287984D01*
X-75862475Y-5325500D01*
X-75862472Y-5325500D01*
X-75717528Y-5325500D01*
X-75717525Y-5325500D01*
X-75577515Y-5287984D01*
X-75577512Y-5287982D01*
X-75577511Y-5287982D01*
X-75451988Y-5215511D01*
X-75451986Y-5215510D01*
X-75451985Y-5215509D01*
X-75349491Y-5113015D01*
X-75343435Y-5102525D01*
X-70440500Y-5102525D01*
X-70440500Y-5247475D01*
X-70402984Y-5387485D01*
X-70330509Y-5513015D01*
X-70228015Y-5615509D01*
X-70102488Y-5687982D01*
X-70102487Y-5687982D01*
X-70102485Y-5687984D01*
X-69962475Y-5725500D01*
X-69962472Y-5725500D01*
X-69817528Y-5725500D01*
X-69817525Y-5725500D01*
X-69677515Y-5687984D01*
X-69677512Y-5687982D01*
X-69677511Y-5687982D01*
X-69551988Y-5615511D01*
X-69551986Y-5615510D01*
X-69551985Y-5615509D01*
X-69449491Y-5513015D01*
X-69449490Y-5513013D01*
X-69449488Y-5513011D01*
X-69377017Y-5387488D01*
X-69374792Y-5379185D01*
X-69339500Y-5247475D01*
X-69339500Y-5242255D01*
X-69319815Y-5175216D01*
X-69303181Y-5154574D01*
X-69069762Y-4921155D01*
X-62650500Y-4921155D01*
X-62650500Y-4921158D01*
X-62650500Y-5078842D01*
X-62619737Y-5233497D01*
X-62559394Y-5379179D01*
X-62471789Y-5510289D01*
X-62360289Y-5621789D01*
X-62229179Y-5709394D01*
X-62083497Y-5769737D01*
X-61928845Y-5800499D01*
X-61928844Y-5800500D01*
X-61928842Y-5800500D01*
X-61771156Y-5800500D01*
X-61771153Y-5800499D01*
X-61616503Y-5769737D01*
X-61604202Y-5764642D01*
X-61470827Y-5709397D01*
X-61470814Y-5709390D01*
X-61339711Y-5621789D01*
X-61339707Y-5621786D01*
X-61228213Y-5510292D01*
X-61228210Y-5510288D01*
X-61140609Y-5379185D01*
X-61140602Y-5379172D01*
X-61080264Y-5233501D01*
X-61080261Y-5233489D01*
X-61049500Y-5078846D01*
X-61049500Y-4921153D01*
X-61080261Y-4766510D01*
X-61080264Y-4766498D01*
X-61140602Y-4620827D01*
X-61140609Y-4620814D01*
X-61228210Y-4489711D01*
X-61228213Y-4489707D01*
X-61339707Y-4378213D01*
X-61339711Y-4378210D01*
X-61470814Y-4290609D01*
X-61470827Y-4290602D01*
X-61616498Y-4230264D01*
X-61616510Y-4230261D01*
X-61771155Y-4199500D01*
X-61771158Y-4199500D01*
X-61928842Y-4199500D01*
X-61928845Y-4199500D01*
X-62083489Y-4230261D01*
X-62083501Y-4230264D01*
X-62229172Y-4290602D01*
X-62229185Y-4290609D01*
X-62360288Y-4378210D01*
X-62360292Y-4378213D01*
X-62471786Y-4489707D01*
X-62471789Y-4489711D01*
X-62559390Y-4620814D01*
X-62559397Y-4620827D01*
X-62612305Y-4748560D01*
X-62619737Y-4766503D01*
X-62642558Y-4881232D01*
X-62650499Y-4921153D01*
X-62650500Y-4921155D01*
X-69069762Y-4921155D01*
X-68810426Y-4661819D01*
X-68749103Y-4628334D01*
X-68722745Y-4625500D01*
X-68717528Y-4625500D01*
X-68717525Y-4625500D01*
X-68577515Y-4587984D01*
X-68577512Y-4587982D01*
X-68577511Y-4587982D01*
X-68451988Y-4515511D01*
X-68451986Y-4515510D01*
X-68451985Y-4515509D01*
X-68349491Y-4413015D01*
X-68349490Y-4413013D01*
X-68349488Y-4413011D01*
X-68277017Y-4287488D01*
X-68261684Y-4230264D01*
X-68239500Y-4147475D01*
X-68239500Y-4002525D01*
X-68277016Y-3862515D01*
X-68277015Y-3862515D01*
X-68277017Y-3862511D01*
X-68349488Y-3736988D01*
X-68349493Y-3736982D01*
X-68451982Y-3634493D01*
X-68451988Y-3634488D01*
X-68577511Y-3562017D01*
X-68577510Y-3562017D01*
X-68619108Y-3550870D01*
X-68717525Y-3524500D01*
X-68862475Y-3524500D01*
X-69002485Y-3562016D01*
X-69002488Y-3562017D01*
X-69128011Y-3634488D01*
X-69128017Y-3634493D01*
X-69230506Y-3736982D01*
X-69230511Y-3736988D01*
X-69301814Y-3860489D01*
X-69302984Y-3862515D01*
X-69340500Y-4002525D01*
X-69340500Y-4002527D01*
X-69340500Y-4007745D01*
X-69360185Y-4074784D01*
X-69376819Y-4095426D01*
X-69869574Y-4588181D01*
X-69930897Y-4621666D01*
X-69957255Y-4624500D01*
X-69962475Y-4624500D01*
X-70102485Y-4662016D01*
X-70102488Y-4662017D01*
X-70228011Y-4734488D01*
X-70228017Y-4734493D01*
X-70330506Y-4836982D01*
X-70330511Y-4836988D01*
X-70399844Y-4957077D01*
X-70402984Y-4962515D01*
X-70440500Y-5102525D01*
X-75343435Y-5102525D01*
X-75302946Y-5032397D01*
X-75302944Y-5032395D01*
X-75277017Y-4987488D01*
X-75272249Y-4969693D01*
X-75239500Y-4847475D01*
X-75239500Y-4702525D01*
X-75277016Y-4562515D01*
X-75277015Y-4562515D01*
X-75277017Y-4562511D01*
X-75349488Y-4436988D01*
X-75349493Y-4436982D01*
X-75451982Y-4334493D01*
X-75451988Y-4334488D01*
X-75577511Y-4262017D01*
X-75577510Y-4262017D01*
X-75619108Y-4250870D01*
X-75717525Y-4224500D01*
X-75862475Y-4224500D01*
X-75967482Y-4252637D01*
X-76002486Y-4262016D01*
X-76009838Y-4265062D01*
X-76057289Y-4274500D01*
X-76330214Y-4274500D01*
X-76397253Y-4254815D01*
X-76443008Y-4202011D01*
X-76452952Y-4132853D01*
X-76439885Y-4095099D01*
X-76440128Y-4094999D01*
X-76438442Y-4090928D01*
X-76437603Y-4088504D01*
X-76437018Y-4087492D01*
X-76437017Y-4087489D01*
X-76420139Y-4024500D01*
X-76399500Y-3947475D01*
X-76399500Y-3802525D01*
X-76437016Y-3662515D01*
X-76437015Y-3662515D01*
X-76437017Y-3662511D01*
X-76509488Y-3536988D01*
X-76509493Y-3536982D01*
X-76611982Y-3434493D01*
X-76611988Y-3434488D01*
X-76737511Y-3362017D01*
X-76737510Y-3362017D01*
X-76779108Y-3350870D01*
X-76877525Y-3324500D01*
X-77022475Y-3324500D01*
X-77162485Y-3362016D01*
X-77162488Y-3362017D01*
X-77288011Y-3434488D01*
X-77288017Y-3434493D01*
X-77390506Y-3536982D01*
X-77390511Y-3536988D01*
X-77462676Y-3661982D01*
X-77462984Y-3662515D01*
X-77500500Y-3802525D01*
X-77500500Y-3947475D01*
X-77462984Y-4087485D01*
X-77390509Y-4213015D01*
X-77288015Y-4315509D01*
X-77162485Y-4387984D01*
X-77041306Y-4420453D01*
X-76981649Y-4456817D01*
X-76951120Y-4519664D01*
X-76959415Y-4589039D01*
X-76985722Y-4627908D01*
X-78557314Y-6199500D01*
X-78650500Y-6292686D01*
X-78716392Y-6406814D01*
X-78750500Y-6534108D01*
X-78750500Y-6534110D01*
X-78750500Y-9632710D01*
X-78751474Y-9637611D01*
X-78754722Y-9664790D01*
X-78758925Y-9680485D01*
X-78762984Y-9687515D01*
X-78800500Y-9827525D01*
X-81635237Y-9827525D01*
X-81708768Y-9683211D01*
X-81785928Y-9577011D01*
X-81810586Y-9543072D01*
X-81810588Y-9543070D01*
X-81810588Y-9543069D01*
X-81933069Y-9420588D01*
X-82073211Y-9318768D01*
X-82227552Y-9240128D01*
X-82392302Y-9186597D01*
X-82392301Y-9186597D01*
X-82531192Y-9164599D01*
X-82563389Y-9159500D01*
X-82736611Y-9159500D01*
X-82788239Y-9167677D01*
X-82907697Y-9186597D01*
X-82907699Y-9186597D01*
X-82907701Y-9186598D01*
X-83072445Y-9240127D01*
X-83226788Y-9318768D01*
X-83366928Y-9420586D01*
X-83489414Y-9543072D01*
X-83591232Y-9683212D01*
X-83669873Y-9837555D01*
X-83723402Y-10002299D01*
X-83750500Y-10173389D01*
X-86006996Y-10173389D01*
X-84506596Y-8672989D01*
X-82870427Y-7036819D01*
X-82809104Y-7003334D01*
X-82782746Y-7000500D01*
X-81497275Y-7000500D01*
X-81497273Y-7000500D01*
X-81395412Y-6973207D01*
X-81304087Y-6920480D01*
X-77470426Y-3086818D01*
X-77409104Y-3053334D01*
X-77382746Y-3050500D01*
X-62217255Y-3050500D01*
X-62150216Y-3070185D01*
X-62129573Y-3086819D01*
X-61470481Y-3745910D01*
X-61470480Y-3745913D01*
X-61395913Y-3820480D01*
X-61326615Y-3860489D01*
X-61304587Y-3873207D01*
X-61202726Y-3900501D01*
X-61202723Y-3900501D01*
X-61089677Y-3900501D01*
X-61089661Y-3900500D01*
X-55324500Y-3900500D01*
X-55257461Y-3920185D01*
X-55211706Y-3972989D01*
X-55200500Y-4024500D01*
X-55200500Y-4748560D01*
X-55220185Y-4815599D01*
X-55272989Y-4861354D01*
X-55281167Y-4864742D01*
X-55392328Y-4906202D01*
X-55392335Y-4906206D01*
X-55507544Y-4992452D01*
X-55507547Y-4992455D01*
X-55593793Y-5107664D01*
X-55593797Y-5107671D01*
X-55620107Y-5178213D01*
X-55644091Y-5242517D01*
X-55650500Y-5302127D01*
X-55650499Y-6297872D01*
X-55644091Y-6357483D01*
X-55593796Y-6492331D01*
X-55507546Y-6607546D01*
X-55392331Y-6693796D01*
X-55257483Y-6744091D01*
X-55197873Y-6750500D01*
X-54402128Y-6750499D01*
X-54353757Y-6745299D01*
X-54342516Y-6744091D01*
X-54207671Y-6693797D01*
X-54207664Y-6693793D01*
X-54092455Y-6607547D01*
X-54092452Y-6607544D01*
X-54006206Y-6492335D01*
X-54006202Y-6492328D01*
X-53955908Y-6357482D01*
X-53949501Y-6297883D01*
X-53949500Y-6297881D01*
X-53949500Y-6297873D01*
X-53949501Y-5306898D01*
X-53700500Y-5306898D01*
X-53700500Y-6293102D01*
X-53689877Y-6381564D01*
X-53634361Y-6522342D01*
X-53542922Y-6642922D01*
X-53422342Y-6734361D01*
X-53281564Y-6789877D01*
X-53193102Y-6800500D01*
X-53193097Y-6800500D01*
X-52406903Y-6800500D01*
X-52406898Y-6800500D01*
X-52318436Y-6789877D01*
X-52177658Y-6734361D01*
X-52177657Y-6734360D01*
X-52177656Y-6734360D01*
X-52057077Y-6642922D01*
X-51965639Y-6522343D01*
X-51920080Y-6406812D01*
X-51910123Y-6381564D01*
X-51910122Y-6381563D01*
X-51910122Y-6381561D01*
X-51907500Y-6359718D01*
X-51879964Y-6295503D01*
X-51822082Y-6256369D01*
X-51784384Y-6250500D01*
X-51099931Y-6250500D01*
X-51032892Y-6270185D01*
X-51024443Y-6276125D01*
X-51018721Y-6280514D01*
X-51018716Y-6280520D01*
X-50881784Y-6359577D01*
X-50729057Y-6400500D01*
X-50729055Y-6400500D01*
X-50570945Y-6400500D01*
X-50570943Y-6400500D01*
X-50418216Y-6359577D01*
X-50340167Y-6314516D01*
X-50281290Y-6280524D01*
X-50281286Y-6280521D01*
X-50281284Y-6280520D01*
X-50169480Y-6168716D01*
X-50169479Y-6168714D01*
X-50169475Y-6168709D01*
X-50090426Y-6031790D01*
X-50090423Y-6031783D01*
X-50069456Y-5953535D01*
X-50049500Y-5879057D01*
X-50049500Y-5720943D01*
X-50090423Y-5568216D01*
X-50090426Y-5568209D01*
X-50169475Y-5431290D01*
X-50169481Y-5431282D01*
X-50281282Y-5319481D01*
X-50281290Y-5319475D01*
X-50418209Y-5240426D01*
X-50418216Y-5240423D01*
X-50570943Y-5199500D01*
X-50729057Y-5199500D01*
X-50881784Y-5240423D01*
X-50881786Y-5240424D01*
X-50881790Y-5240426D01*
X-51018709Y-5319475D01*
X-51024443Y-5323875D01*
X-51089612Y-5349070D01*
X-51099931Y-5349500D01*
X-51784384Y-5349500D01*
X-51851423Y-5329815D01*
X-51897178Y-5277011D01*
X-51907500Y-5240282D01*
X-51910122Y-5218438D01*
X-51965639Y-5077656D01*
X-52057077Y-4957077D01*
X-52177656Y-4865639D01*
X-52318438Y-4810122D01*
X-52367853Y-4804188D01*
X-52406898Y-4799500D01*
X-53193102Y-4799500D01*
X-53235926Y-4804642D01*
X-53281561Y-4810122D01*
X-53281563Y-4810122D01*
X-53281564Y-4810123D01*
X-53302261Y-4818285D01*
X-53422343Y-4865639D01*
X-53542922Y-4957077D01*
X-53634360Y-5077656D01*
X-53634360Y-5077657D01*
X-53634361Y-5077658D01*
X-53689877Y-5218436D01*
X-53700500Y-5306898D01*
X-53949501Y-5306898D01*
X-53949501Y-5302128D01*
X-53949501Y-5302127D01*
X-53949501Y-5302123D01*
X-53955908Y-5242516D01*
X-54006202Y-5107671D01*
X-54006206Y-5107664D01*
X-54092452Y-4992455D01*
X-54092455Y-4992452D01*
X-54207664Y-4906206D01*
X-54207670Y-4906203D01*
X-54318834Y-4864741D01*
X-54374767Y-4822869D01*
X-54399184Y-4757405D01*
X-54399500Y-4748559D01*
X-54399500Y-3929386D01*
X-54379815Y-3862347D01*
X-54363181Y-3841705D01*
X-54359493Y-3838017D01*
X-54359488Y-3838011D01*
X-54287017Y-3712488D01*
X-54283064Y-3697735D01*
X-54249500Y-3572475D01*
X-54249500Y-3427525D01*
X-54287016Y-3287515D01*
X-54287015Y-3287515D01*
X-54287017Y-3287511D01*
X-54359488Y-3161988D01*
X-54359493Y-3161982D01*
X-54461982Y-3059493D01*
X-54461988Y-3059488D01*
X-54587511Y-2987017D01*
X-54587510Y-2987017D01*
X-54629108Y-2975870D01*
X-54727525Y-2949500D01*
X-54872475Y-2949500D01*
X-55012485Y-2987016D01*
X-55012488Y-2987017D01*
X-55138011Y-3059488D01*
X-55138017Y-3059493D01*
X-55141705Y-3063181D01*
X-55203028Y-3096666D01*
X-55229386Y-3099500D01*
X-60932746Y-3099500D01*
X-60999785Y-3079815D01*
X-61020427Y-3063181D01*
X-61754084Y-2329522D01*
X-61754087Y-2329520D01*
X-61845410Y-2276793D01*
X-61947273Y-2249500D01*
X-77539661Y-2249500D01*
X-77539677Y-2249499D01*
X-77547273Y-2249499D01*
X-77652727Y-2249499D01*
X-77754587Y-2276793D01*
X-77845913Y-2329520D01*
X-77845915Y-2329522D01*
X-77927548Y-2411155D01*
X-77927550Y-2411158D01*
X-81679574Y-6163181D01*
X-81740897Y-6196666D01*
X-81767255Y-6199500D01*
X-82947273Y-6199500D01*
X-83052727Y-6199500D01*
X-83103657Y-6213146D01*
X-83154589Y-6226793D01*
X-83164234Y-6232362D01*
X-83193917Y-6249500D01*
X-83245913Y-6279520D01*
X-83320480Y-6354087D01*
X-83320481Y-6354089D01*
X-83331756Y-6365364D01*
X-86579574Y-9613181D01*
X-86640897Y-9646666D01*
X-86667255Y-9649500D01*
X-88665500Y-9649500D01*
X-88732539Y-9629815D01*
X-88778294Y-9577011D01*
X-88789500Y-9525500D01*
X-88789500Y-9151456D01*
X-88789499Y-9151456D01*
X-88827947Y-8958170D01*
X-88827950Y-8958160D01*
X-88903364Y-8776092D01*
X-88903371Y-8776079D01*
X-89012860Y-8612218D01*
X-89012863Y-8612214D01*
X-89152214Y-8472863D01*
X-89152222Y-8472857D01*
X-89194207Y-8444804D01*
X-89194256Y-8444772D01*
X-89316079Y-8363371D01*
X-89316092Y-8363364D01*
X-89498160Y-8287950D01*
X-89498172Y-8287947D01*
X-89538390Y-8279947D01*
X-89538392Y-8279947D01*
X-89691457Y-8249500D01*
X-89691459Y-8249500D01*
X-89888541Y-8249500D01*
X-89888543Y-8249500D01*
X-90081829Y-8287947D01*
X-90081839Y-8287950D01*
X-90263907Y-8363364D01*
X-90263920Y-8363371D01*
X-90427781Y-8472860D01*
X-90427785Y-8472863D01*
X-90567136Y-8612214D01*
X-90567139Y-8612218D01*
X-90676628Y-8776079D01*
X-90676635Y-8776092D01*
X-90730937Y-8907190D01*
X-90752051Y-8958165D01*
X-90752051Y-8958169D01*
X-90752052Y-8958170D01*
X-90790500Y-9151456D01*
X-91189500Y-9151456D01*
X-91189500Y-8125000D01*
X-88534728Y-8125000D01*
X-87770617Y-8125000D01*
X-87790000Y-8197339D01*
X-87790000Y-8302661D01*
X-87770617Y-8375000D01*
X-88534727Y-8375000D01*
X-88501572Y-8541681D01*
X-88501569Y-8541693D01*
X-88426192Y-8723671D01*
X-88426185Y-8723684D01*
X-88316751Y-8887462D01*
X-88316748Y-8887466D01*
X-88177466Y-9026748D01*
X-88177462Y-9026751D01*
X-88013684Y-9136185D01*
X-88013671Y-9136192D01*
X-87831693Y-9211569D01*
X-87831681Y-9211572D01*
X-87638495Y-9249999D01*
X-87638492Y-9250000D01*
X-87415000Y-9250000D01*
X-87415000Y-8650000D01*
X-87165000Y-8650000D01*
X-87165000Y-9250000D01*
X-86941508Y-9250000D01*
X-86941504Y-9249999D01*
X-86748318Y-9211572D01*
X-86748306Y-9211569D01*
X-86566328Y-9136192D01*
X-86566315Y-9136185D01*
X-86402537Y-9026751D01*
X-86402533Y-9026748D01*
X-86263251Y-8887466D01*
X-86263248Y-8887462D01*
X-86153814Y-8723684D01*
X-86153807Y-8723671D01*
X-86078430Y-8541693D01*
X-86078427Y-8541681D01*
X-86045272Y-8375000D01*
X-86809383Y-8375000D01*
X-86790000Y-8302661D01*
X-86790000Y-8197339D01*
X-86809383Y-8125000D01*
X-86045272Y-8125000D01*
X-86045272Y-8124999D01*
X-86078427Y-7958318D01*
X-86078430Y-7958306D01*
X-86153807Y-7776328D01*
X-86153814Y-7776315D01*
X-86263248Y-7612537D01*
X-86263251Y-7612533D01*
X-86402533Y-7473251D01*
X-86402537Y-7473248D01*
X-86566315Y-7363814D01*
X-86566328Y-7363807D01*
X-86748306Y-7288430D01*
X-86748318Y-7288427D01*
X-86941504Y-7250000D01*
X-87165000Y-7250000D01*
X-87165000Y-7850000D01*
X-87415000Y-7850000D01*
X-87415000Y-7250000D01*
X-87638495Y-7250000D01*
X-87831681Y-7288427D01*
X-87831693Y-7288430D01*
X-88013671Y-7363807D01*
X-88013684Y-7363814D01*
X-88177462Y-7473248D01*
X-88177466Y-7473251D01*
X-88316748Y-7612533D01*
X-88316751Y-7612537D01*
X-88426185Y-7776315D01*
X-88426192Y-7776328D01*
X-88501569Y-7958306D01*
X-88501572Y-7958318D01*
X-88534727Y-8124999D01*
X-88534728Y-8125000D01*
X-91189500Y-8125000D01*
X-91189500Y-7406959D01*
X-91188720Y-7393076D01*
X-91178541Y-7302734D01*
X-91172362Y-7275662D01*
X-91144649Y-7196464D01*
X-91132602Y-7171447D01*
X-91087957Y-7100395D01*
X-91070644Y-7078686D01*
X-91011313Y-7019355D01*
X-90989606Y-7002043D01*
X-90918549Y-6957395D01*
X-90893539Y-6945351D01*
X-90814333Y-6917636D01*
X-90787268Y-6911458D01*
X-90713412Y-6903137D01*
X-90696923Y-6901280D01*
X-90683041Y-6900500D01*
X-89205049Y-6900500D01*
X-89205046Y-6900500D01*
X-89014262Y-6882821D01*
X-88836723Y-6866370D01*
X-88836722Y-6866369D01*
X-88836715Y-6866369D01*
X-88473105Y-6798399D01*
X-88117317Y-6697168D01*
X-87772388Y-6563542D01*
X-87772387Y-6563541D01*
X-87772383Y-6563540D01*
X-87772382Y-6563539D01*
X-87441259Y-6398660D01*
X-87126757Y-6203928D01*
X-86831563Y-5981008D01*
X-86719495Y-5878844D01*
X-86558197Y-5731802D01*
X-86308994Y-5458439D01*
X-86308987Y-5458431D01*
X-86125543Y-5215511D01*
X-86086072Y-5163243D01*
X-85891340Y-4848741D01*
X-85850394Y-4766510D01*
X-85726460Y-4517617D01*
X-85726459Y-4517616D01*
X-85656880Y-4338011D01*
X-85592832Y-4172683D01*
X-85569570Y-4090928D01*
X-85491603Y-3816902D01*
X-85491601Y-3816895D01*
X-85423631Y-3453285D01*
X-85423630Y-3453277D01*
X-85423629Y-3453276D01*
X-85390848Y-3099500D01*
X-85389500Y-3084954D01*
X-85389500Y-3081989D01*
X-84450500Y-3081989D01*
X-84450500Y-3318011D01*
X-84419693Y-3552014D01*
X-84358606Y-3779993D01*
X-84268284Y-3998049D01*
X-84150273Y-4202450D01*
X-84006592Y-4389699D01*
X-83839699Y-4556592D01*
X-83652450Y-4700273D01*
X-83448049Y-4818284D01*
X-83229993Y-4908606D01*
X-83002014Y-4969693D01*
X-82768011Y-5000500D01*
X-82768004Y-5000500D01*
X-82531996Y-5000500D01*
X-82531989Y-5000500D01*
X-82297986Y-4969693D01*
X-82070007Y-4908606D01*
X-81851951Y-4818284D01*
X-81851948Y-4818282D01*
X-81851943Y-4818280D01*
X-81746506Y-4757405D01*
X-81647550Y-4700273D01*
X-81550104Y-4625500D01*
X-81460302Y-4556593D01*
X-81460295Y-4556587D01*
X-81293412Y-4389704D01*
X-81293406Y-4389697D01*
X-81149730Y-4202454D01*
X-81149729Y-4202453D01*
X-81149727Y-4202450D01*
X-81102677Y-4120957D01*
X-81031719Y-3998056D01*
X-81031714Y-3998045D01*
X-80941394Y-3779993D01*
X-80882311Y-3559493D01*
X-80880307Y-3552014D01*
X-80878328Y-3536988D01*
X-80849501Y-3318020D01*
X-80849500Y-3318004D01*
X-80849500Y-3081995D01*
X-80849501Y-3081979D01*
X-80880306Y-2847989D01*
X-80941394Y-2620006D01*
X-81031714Y-2401954D01*
X-81031719Y-2401943D01*
X-81149730Y-2197545D01*
X-81293406Y-2010302D01*
X-81293412Y-2010295D01*
X-81460295Y-1843412D01*
X-81460302Y-1843406D01*
X-81647545Y-1699730D01*
X-81851943Y-1581719D01*
X-81851954Y-1581714D01*
X-82070006Y-1491394D01*
X-82074266Y-1490252D01*
X-82078909Y-1489008D01*
X-82297987Y-1430306D01*
X-82531979Y-1399501D01*
X-82531983Y-1399500D01*
X-82531989Y-1399500D01*
X-82768011Y-1399500D01*
X-82768017Y-1399500D01*
X-82768020Y-1399501D01*
X-83002010Y-1430306D01*
X-83229993Y-1491394D01*
X-83448045Y-1581714D01*
X-83448056Y-1581719D01*
X-83570957Y-1652677D01*
X-83652450Y-1699727D01*
X-83652453Y-1699729D01*
X-83652454Y-1699730D01*
X-83839697Y-1843406D01*
X-83839704Y-1843412D01*
X-84006587Y-2010295D01*
X-84006592Y-2010301D01*
X-84150273Y-2197550D01*
X-84180266Y-2249500D01*
X-84268280Y-2401943D01*
X-84268282Y-2401948D01*
X-84268284Y-2401951D01*
X-84358606Y-2620007D01*
X-84419693Y-2847986D01*
X-84450500Y-3081989D01*
X-85389500Y-3081989D01*
X-85389500Y-2900000D01*
X-85389500Y-2834108D01*
X-85389500Y-1375323D01*
X-34090500Y-1375323D01*
X-34090500Y-1375326D01*
X-34090500Y-3624674D01*
X-34075966Y-3697740D01*
X-34020601Y-3780601D01*
X-33937740Y-3835966D01*
X-33864677Y-3850499D01*
X-33864676Y-3850500D01*
X-33864674Y-3850500D01*
X-31615324Y-3850500D01*
X-31615321Y-3850499D01*
X-31542264Y-3835967D01*
X-31542260Y-3835966D01*
X-31528687Y-3826897D01*
X-31459399Y-3780601D01*
X-31404034Y-3697740D01*
X-31404033Y-3697739D01*
X-31404032Y-3697735D01*
X-31389500Y-3624678D01*
X-31389500Y-3519758D01*
X-31369815Y-3452719D01*
X-31317011Y-3406964D01*
X-31247853Y-3397020D01*
X-31184297Y-3426045D01*
X-31177819Y-3432077D01*
X-31079792Y-3530104D01*
X-31079788Y-3530106D01*
X-31079786Y-3530109D01*
X-31021473Y-3572475D01*
X-30907816Y-3655051D01*
X-30718412Y-3751557D01*
X-30516243Y-3817246D01*
X-30306287Y-3850500D01*
X-30306286Y-3850500D01*
X-30093714Y-3850500D01*
X-30093713Y-3850500D01*
X-29883757Y-3817246D01*
X-29681588Y-3751557D01*
X-29492184Y-3655051D01*
X-29492181Y-3655049D01*
X-29492179Y-3655048D01*
X-29320213Y-3530109D01*
X-29169890Y-3379786D01*
X-29098837Y-3281989D01*
X-26200500Y-3281989D01*
X-26200500Y-3518011D01*
X-26169693Y-3752014D01*
X-26108606Y-3979993D01*
X-26018284Y-4198049D01*
X-25900273Y-4402450D01*
X-25756592Y-4589699D01*
X-25589699Y-4756592D01*
X-25402450Y-4900273D01*
X-25198049Y-5018284D01*
X-24979993Y-5108606D01*
X-24752014Y-5169693D01*
X-24518011Y-5200500D01*
X-24518004Y-5200500D01*
X-24281996Y-5200500D01*
X-24281989Y-5200500D01*
X-24047986Y-5169693D01*
X-23820007Y-5108606D01*
X-23601951Y-5018284D01*
X-23601948Y-5018282D01*
X-23601943Y-5018280D01*
X-23517789Y-4969693D01*
X-23397550Y-4900273D01*
X-23290694Y-4818280D01*
X-23210302Y-4756593D01*
X-23210295Y-4756587D01*
X-23043412Y-4589704D01*
X-23043406Y-4589697D01*
X-22899730Y-4402454D01*
X-22899729Y-4402453D01*
X-22899727Y-4402450D01*
X-22842778Y-4303812D01*
X-22781719Y-4198056D01*
X-22781714Y-4198045D01*
X-22691394Y-3979993D01*
X-22650372Y-3826897D01*
X-22630307Y-3752014D01*
X-22630246Y-3751557D01*
X-22599501Y-3518020D01*
X-22599500Y-3518004D01*
X-22599500Y-3281995D01*
X-22599501Y-3281979D01*
X-22630306Y-3047989D01*
X-22691394Y-2820006D01*
X-22781714Y-2601954D01*
X-22781719Y-2601943D01*
X-22899730Y-2397545D01*
X-23043406Y-2210302D01*
X-23043412Y-2210295D01*
X-23210295Y-2043412D01*
X-23210302Y-2043406D01*
X-23397545Y-1899730D01*
X-23601943Y-1781719D01*
X-23601954Y-1781714D01*
X-23820006Y-1691394D01*
X-24047989Y-1630306D01*
X-24281979Y-1599501D01*
X-24281983Y-1599500D01*
X-24281989Y-1599500D01*
X-24518011Y-1599500D01*
X-24518017Y-1599500D01*
X-24518020Y-1599501D01*
X-24752010Y-1630306D01*
X-24979993Y-1691394D01*
X-25198045Y-1781714D01*
X-25198056Y-1781719D01*
X-25304899Y-1843406D01*
X-25402450Y-1899727D01*
X-25402453Y-1899729D01*
X-25402454Y-1899730D01*
X-25589697Y-2043406D01*
X-25589704Y-2043412D01*
X-25756587Y-2210295D01*
X-25756593Y-2210302D01*
X-25807613Y-2276793D01*
X-25900273Y-2397550D01*
X-25976118Y-2528918D01*
X-26018280Y-2601943D01*
X-26018282Y-2601948D01*
X-26018284Y-2601951D01*
X-26108606Y-2820007D01*
X-26169693Y-3047986D01*
X-26200500Y-3281989D01*
X-29098837Y-3281989D01*
X-29044951Y-3207820D01*
X-28948444Y-3018414D01*
X-28909968Y-2900000D01*
X-28882754Y-2816243D01*
X-28849500Y-2606287D01*
X-28849500Y-2393713D01*
X-28872341Y-2249499D01*
X-28882753Y-2183760D01*
X-28939114Y-2010301D01*
X-28948443Y-1981588D01*
X-28948443Y-1981587D01*
X-28948444Y-1981585D01*
X-29044951Y-1792179D01*
X-29169890Y-1620213D01*
X-29320213Y-1469890D01*
X-29492179Y-1344951D01*
X-29681585Y-1248444D01*
X-29883760Y-1182753D01*
X-29883759Y-1182753D01*
X-30054202Y-1155757D01*
X-30093713Y-1149500D01*
X-30306287Y-1149500D01*
X-30369644Y-1159534D01*
X-30516239Y-1182753D01*
X-30516241Y-1182753D01*
X-30516243Y-1182754D01*
X-30718412Y-1248443D01*
X-30718413Y-1248443D01*
X-30718414Y-1248444D01*
X-30907820Y-1344951D01*
X-31079786Y-1469890D01*
X-31177819Y-1567923D01*
X-31239142Y-1601408D01*
X-31308834Y-1596424D01*
X-31364767Y-1554552D01*
X-31389184Y-1489088D01*
X-31389500Y-1480242D01*
X-31389500Y-1375321D01*
X-31404032Y-1302264D01*
X-31404033Y-1302260D01*
X-31459399Y-1219399D01*
X-31542260Y-1164033D01*
X-31542264Y-1164032D01*
X-31615323Y-1149500D01*
X-31615326Y-1149500D01*
X-33864674Y-1149500D01*
X-33864677Y-1149500D01*
X-33937735Y-1164032D01*
X-33937739Y-1164033D01*
X-33937740Y-1164034D01*
X-34020601Y-1219399D01*
X-34075966Y-1302260D01*
X-34075967Y-1302264D01*
X-34090499Y-1375321D01*
X-34090500Y-1375323D01*
X-85389500Y-1375323D01*
X-85389500Y-1006959D01*
X-85388720Y-993076D01*
X-85378541Y-902734D01*
X-85372362Y-875662D01*
X-85344649Y-796464D01*
X-85332602Y-771447D01*
X-85287957Y-700395D01*
X-85270644Y-678686D01*
X-85211313Y-619355D01*
X-85189606Y-602043D01*
X-85118549Y-557395D01*
X-85093539Y-545351D01*
X-85014333Y-517636D01*
X-84987268Y-511458D01*
X-84913412Y-503137D01*
X-84896923Y-501280D01*
X-84883041Y-500500D01*
X-84824108Y-500500D01*
X-28565892Y-500500D01*
X-22065892Y-500500D01*
X-22006959Y-500500D01*
X-21993077Y-501280D01*
G37*
%TD.AperFunction*%
%TD*%
%TA.AperFunction,Conductor*%
%TO.N,/LED-*%
G36*
X-65423318Y-32869685D02*
G01*
X-65377563Y-32922489D01*
X-65367619Y-32991647D01*
X-65396644Y-33055203D01*
X-65417472Y-33074319D01*
X-65431748Y-33084691D01*
X-65565310Y-33218253D01*
X-65565314Y-33218258D01*
X-65676329Y-33371058D01*
X-65742028Y-33499999D01*
X-65742028Y-33500000D01*
X-64683973Y-33500000D01*
X-64718408Y-33519881D01*
X-64830119Y-33631592D01*
X-64909111Y-33768409D01*
X-64950000Y-33921009D01*
X-64950000Y-34078991D01*
X-64909111Y-34231591D01*
X-64830119Y-34368408D01*
X-64718408Y-34480119D01*
X-64683973Y-34500000D01*
X-65742028Y-34500000D01*
X-65676329Y-34628941D01*
X-65565314Y-34781741D01*
X-65565310Y-34781746D01*
X-65431746Y-34915310D01*
X-65431741Y-34915314D01*
X-65278938Y-35026331D01*
X-65226348Y-35053127D01*
X-65175552Y-35101100D01*
X-65158756Y-35168921D01*
X-65181293Y-35235056D01*
X-65236007Y-35278508D01*
X-65280504Y-35287594D01*
X-65986423Y-35299765D01*
X-66000000Y-35300000D01*
X-67316637Y-38128332D01*
X-67362775Y-38180801D01*
X-67429053Y-38200000D01*
X-77326000Y-38200000D01*
X-77393039Y-38180315D01*
X-77438794Y-38127511D01*
X-77450000Y-38076000D01*
X-77450000Y-34949999D01*
X-76382188Y-34949999D01*
X-76382188Y-34950000D01*
X-75358241Y-34950000D01*
X-75371178Y-34981233D01*
X-75400000Y-35126131D01*
X-75400000Y-35273869D01*
X-75371178Y-35418767D01*
X-75358241Y-35450000D01*
X-76382188Y-35450000D01*
X-76370057Y-35542137D01*
X-76310681Y-35763730D01*
X-76222897Y-35975659D01*
X-76222893Y-35975668D01*
X-76108190Y-36174338D01*
X-75968544Y-36356329D01*
X-75968538Y-36356336D01*
X-75806336Y-36518538D01*
X-75806329Y-36518544D01*
X-75624338Y-36658190D01*
X-75425668Y-36772893D01*
X-75425659Y-36772897D01*
X-75213730Y-36860681D01*
X-74992140Y-36920056D01*
X-74992135Y-36920057D01*
X-74900000Y-36932186D01*
X-74900000Y-35908240D01*
X-74868767Y-35921178D01*
X-74723869Y-35950000D01*
X-74576131Y-35950000D01*
X-74431233Y-35921178D01*
X-74400000Y-35908240D01*
X-74400000Y-36932186D01*
X-74399999Y-36932186D01*
X-74307864Y-36920057D01*
X-74307859Y-36920056D01*
X-74086269Y-36860681D01*
X-73874340Y-36772897D01*
X-73874331Y-36772893D01*
X-73675661Y-36658190D01*
X-73493670Y-36518544D01*
X-73493663Y-36518538D01*
X-73331461Y-36356336D01*
X-73331455Y-36356329D01*
X-73191809Y-36174338D01*
X-73077106Y-35975668D01*
X-73077102Y-35975659D01*
X-72989318Y-35763730D01*
X-72929942Y-35542137D01*
X-72917812Y-35450000D01*
X-73941759Y-35450000D01*
X-73928822Y-35418767D01*
X-73900000Y-35273869D01*
X-73900000Y-35126131D01*
X-73928822Y-34981233D01*
X-73941759Y-34950000D01*
X-72917812Y-34950000D01*
X-72917811Y-34949999D01*
X-72929942Y-34857862D01*
X-72989318Y-34636269D01*
X-73077102Y-34424340D01*
X-73077106Y-34424331D01*
X-73191809Y-34225661D01*
X-73331455Y-34043670D01*
X-73331461Y-34043663D01*
X-73493663Y-33881461D01*
X-73493670Y-33881455D01*
X-73675661Y-33741809D01*
X-73874331Y-33627106D01*
X-73874340Y-33627102D01*
X-74086269Y-33539318D01*
X-74307862Y-33479942D01*
X-74399999Y-33467811D01*
X-74400000Y-33467811D01*
X-74400000Y-34491759D01*
X-74431233Y-34478822D01*
X-74576131Y-34450000D01*
X-74723869Y-34450000D01*
X-74868767Y-34478822D01*
X-74900000Y-34491759D01*
X-74900000Y-33467811D01*
X-74992137Y-33479942D01*
X-75213730Y-33539318D01*
X-75425659Y-33627102D01*
X-75425668Y-33627106D01*
X-75624338Y-33741809D01*
X-75806329Y-33881455D01*
X-75806336Y-33881461D01*
X-75968538Y-34043663D01*
X-75968544Y-34043670D01*
X-76108190Y-34225661D01*
X-76222893Y-34424331D01*
X-76222897Y-34424340D01*
X-76310681Y-34636269D01*
X-76370057Y-34857862D01*
X-76382188Y-34949999D01*
X-77450000Y-34949999D01*
X-77450000Y-32974000D01*
X-77430315Y-32906961D01*
X-77377511Y-32861206D01*
X-77326000Y-32850000D01*
X-65490357Y-32850000D01*
X-65423318Y-32869685D01*
G37*
%TD.AperFunction*%
%TD*%
%TA.AperFunction,Conductor*%
%TO.N,24VDC*%
G36*
X-71072449Y-22919685D02*
G01*
X-71026694Y-22972489D01*
X-71016750Y-23041647D01*
X-71029003Y-23080295D01*
X-71101095Y-23221782D01*
X-71166757Y-23423870D01*
X-71166757Y-23423873D01*
X-71177231Y-23490000D01*
X-70340748Y-23490000D01*
X-70362518Y-23527708D01*
X-70400000Y-23667591D01*
X-70400000Y-23812409D01*
X-70362518Y-23952292D01*
X-70340748Y-23990000D01*
X-71177231Y-23990000D01*
X-71166757Y-24056126D01*
X-71166757Y-24056129D01*
X-71101095Y-24258217D01*
X-71004620Y-24447557D01*
X-70879727Y-24619459D01*
X-70879723Y-24619464D01*
X-70729464Y-24769723D01*
X-70729459Y-24769727D01*
X-70557557Y-24894620D01*
X-70368217Y-24991095D01*
X-70166128Y-25056757D01*
X-70100000Y-25067230D01*
X-70100000Y-24230747D01*
X-70062292Y-24252518D01*
X-69922409Y-24290000D01*
X-69777591Y-24290000D01*
X-69637708Y-24252518D01*
X-69600000Y-24230747D01*
X-69600000Y-25067231D01*
X-69533873Y-25056757D01*
X-69533870Y-25056757D01*
X-69331782Y-24991095D01*
X-69142442Y-24894620D01*
X-68970540Y-24769727D01*
X-68970535Y-24769723D01*
X-68820276Y-24619464D01*
X-68820272Y-24619459D01*
X-68695379Y-24447557D01*
X-68598904Y-24258217D01*
X-68533242Y-24056129D01*
X-68533242Y-24056126D01*
X-68522769Y-23990000D01*
X-69359252Y-23990000D01*
X-69337482Y-23952292D01*
X-69300000Y-23812409D01*
X-69300000Y-23667591D01*
X-69337482Y-23527708D01*
X-69359252Y-23490000D01*
X-68522769Y-23490000D01*
X-68533242Y-23423873D01*
X-68533242Y-23423870D01*
X-68598904Y-23221782D01*
X-68670997Y-23080295D01*
X-68683893Y-23011626D01*
X-68657617Y-22946886D01*
X-68600511Y-22906628D01*
X-68560512Y-22900000D01*
X-67564000Y-22900000D01*
X-67496961Y-22919685D01*
X-67451206Y-22972489D01*
X-67440000Y-23024000D01*
X-67440000Y-23490000D01*
X-66580748Y-23490000D01*
X-66602518Y-23527708D01*
X-66640000Y-23667591D01*
X-66640000Y-23812409D01*
X-66602518Y-23952292D01*
X-66580748Y-23990000D01*
X-67440000Y-23990000D01*
X-67440000Y-24864626D01*
X-67439999Y-24864628D01*
X-67425496Y-24937540D01*
X-67425494Y-24937544D01*
X-67370239Y-25020239D01*
X-67287544Y-25075494D01*
X-67287540Y-25075496D01*
X-67214628Y-25089999D01*
X-67214626Y-25090000D01*
X-66340000Y-25090000D01*
X-66340000Y-24230747D01*
X-66302292Y-24252518D01*
X-66162409Y-24290000D01*
X-66017591Y-24290000D01*
X-65877708Y-24252518D01*
X-65840000Y-24230747D01*
X-65840000Y-25090000D01*
X-65619319Y-25090000D01*
X-65552280Y-25109685D01*
X-65506525Y-25162489D01*
X-65496581Y-25231647D01*
X-65504805Y-25261567D01*
X-66818251Y-28423567D01*
X-66862147Y-28477927D01*
X-66928463Y-28499925D01*
X-66932765Y-28500000D01*
X-71109406Y-28500000D01*
X-71176445Y-28480315D01*
X-71182735Y-28475994D01*
X-72649999Y-27400000D01*
X-72650000Y-27400000D01*
X-77326000Y-27400000D01*
X-77393039Y-27380315D01*
X-77438794Y-27327511D01*
X-77450000Y-27276000D01*
X-77450000Y-25085305D01*
X-76400000Y-25085305D01*
X-76400000Y-25314694D01*
X-76399998Y-25314710D01*
X-76370057Y-25542137D01*
X-76310681Y-25763730D01*
X-76222897Y-25975659D01*
X-76222893Y-25975668D01*
X-76108197Y-26174327D01*
X-76108192Y-26174334D01*
X-76051617Y-26248064D01*
X-75327578Y-25524025D01*
X-75314641Y-25555258D01*
X-75232563Y-25678097D01*
X-75128097Y-25782563D01*
X-75005258Y-25864641D01*
X-74974025Y-25877578D01*
X-75698064Y-26601617D01*
X-75624334Y-26658192D01*
X-75624327Y-26658197D01*
X-75425668Y-26772893D01*
X-75425659Y-26772897D01*
X-75213730Y-26860681D01*
X-74992137Y-26920057D01*
X-74764710Y-26949998D01*
X-74764694Y-26950000D01*
X-74535306Y-26950000D01*
X-74535289Y-26949998D01*
X-74307862Y-26920057D01*
X-74086269Y-26860681D01*
X-73874340Y-26772897D01*
X-73874330Y-26772893D01*
X-73675666Y-26658194D01*
X-73601934Y-26601618D01*
X-73601934Y-26601617D01*
X-74325974Y-25877578D01*
X-74294742Y-25864641D01*
X-74171903Y-25782563D01*
X-74067437Y-25678097D01*
X-73985359Y-25555258D01*
X-73972421Y-25524024D01*
X-73248381Y-26248064D01*
X-73248380Y-26248064D01*
X-73191805Y-26174331D01*
X-73191799Y-26174324D01*
X-73077106Y-25975669D01*
X-73077102Y-25975659D01*
X-72989318Y-25763730D01*
X-72929942Y-25542137D01*
X-72900001Y-25314710D01*
X-72900000Y-25314694D01*
X-72900000Y-25085305D01*
X-72900001Y-25085289D01*
X-72929942Y-24857862D01*
X-72989318Y-24636269D01*
X-73077102Y-24424340D01*
X-73077106Y-24424330D01*
X-73191801Y-24225673D01*
X-73191810Y-24225659D01*
X-73248380Y-24151934D01*
X-73972421Y-24875975D01*
X-73985359Y-24844742D01*
X-74067437Y-24721903D01*
X-74171903Y-24617437D01*
X-74294742Y-24535359D01*
X-74325974Y-24522421D01*
X-73601934Y-23798381D01*
X-73601934Y-23798380D01*
X-73675659Y-23741810D01*
X-73675673Y-23741801D01*
X-73874330Y-23627106D01*
X-73874340Y-23627102D01*
X-74086269Y-23539318D01*
X-74307862Y-23479942D01*
X-74535289Y-23450001D01*
X-74535306Y-23450000D01*
X-74764694Y-23450000D01*
X-74764710Y-23450001D01*
X-74992137Y-23479942D01*
X-75213730Y-23539318D01*
X-75425659Y-23627102D01*
X-75425669Y-23627106D01*
X-75624324Y-23741799D01*
X-75624331Y-23741805D01*
X-75698064Y-23798380D01*
X-75698064Y-23798381D01*
X-74974023Y-24522421D01*
X-75005258Y-24535359D01*
X-75128097Y-24617437D01*
X-75232563Y-24721903D01*
X-75314641Y-24844742D01*
X-75327577Y-24875973D01*
X-76051617Y-24151934D01*
X-76051618Y-24151934D01*
X-76108194Y-24225666D01*
X-76222893Y-24424330D01*
X-76222897Y-24424340D01*
X-76310681Y-24636269D01*
X-76370057Y-24857862D01*
X-76399998Y-25085289D01*
X-76400000Y-25085305D01*
X-77450000Y-25085305D01*
X-77450000Y-23024000D01*
X-77430315Y-22956961D01*
X-77377511Y-22911206D01*
X-77326000Y-22900000D01*
X-71139488Y-22900000D01*
X-71072449Y-22919685D01*
G37*
%TD.AperFunction*%
%TD*%
%TA.AperFunction,Conductor*%
%TO.N,/LED+*%
G36*
X-72756303Y-27825185D02*
G01*
X-72750013Y-27829506D01*
X-71422533Y-28802991D01*
X-71412341Y-28810227D01*
X-71412321Y-28810241D01*
X-71406157Y-28814476D01*
X-71405852Y-28814683D01*
X-71405329Y-28815042D01*
X-71290691Y-28869389D01*
X-71223652Y-28889074D01*
X-71109406Y-28905500D01*
X-71109403Y-28905500D01*
X-66974000Y-28905500D01*
X-66906961Y-28925185D01*
X-66861206Y-28977989D01*
X-66850000Y-29029500D01*
X-66850000Y-32420500D01*
X-66869685Y-32487539D01*
X-66922489Y-32533294D01*
X-66974000Y-32544500D01*
X-77326000Y-32544500D01*
X-77393039Y-32524815D01*
X-77438794Y-32472011D01*
X-77450000Y-32420500D01*
X-77450000Y-30085305D01*
X-76400000Y-30085305D01*
X-76400000Y-30314694D01*
X-76399998Y-30314710D01*
X-76370057Y-30542137D01*
X-76310681Y-30763730D01*
X-76222897Y-30975659D01*
X-76222893Y-30975668D01*
X-76108197Y-31174327D01*
X-76108192Y-31174334D01*
X-76051617Y-31248064D01*
X-75327578Y-30524025D01*
X-75314641Y-30555258D01*
X-75232563Y-30678097D01*
X-75128097Y-30782563D01*
X-75005258Y-30864641D01*
X-74974025Y-30877578D01*
X-75698064Y-31601617D01*
X-75624334Y-31658192D01*
X-75624327Y-31658197D01*
X-75425668Y-31772893D01*
X-75425659Y-31772897D01*
X-75213730Y-31860681D01*
X-74992137Y-31920057D01*
X-74764710Y-31949998D01*
X-74764694Y-31950000D01*
X-74535306Y-31950000D01*
X-74535289Y-31949998D01*
X-74307862Y-31920057D01*
X-74086269Y-31860681D01*
X-73874340Y-31772897D01*
X-73874330Y-31772893D01*
X-73675666Y-31658194D01*
X-73601934Y-31601618D01*
X-73601934Y-31601617D01*
X-74325974Y-30877578D01*
X-74294742Y-30864641D01*
X-74171903Y-30782563D01*
X-74067437Y-30678097D01*
X-73985359Y-30555258D01*
X-73972421Y-30524024D01*
X-73248381Y-31248064D01*
X-73248380Y-31248064D01*
X-73191805Y-31174331D01*
X-73191799Y-31174324D01*
X-73077106Y-30975669D01*
X-73077102Y-30975659D01*
X-72989318Y-30763730D01*
X-72929942Y-30542137D01*
X-72900001Y-30314710D01*
X-72900000Y-30314694D01*
X-72900000Y-30085305D01*
X-72900001Y-30085289D01*
X-72929942Y-29857862D01*
X-72989318Y-29636269D01*
X-73077102Y-29424340D01*
X-73077106Y-29424330D01*
X-73191801Y-29225673D01*
X-73191810Y-29225659D01*
X-73248380Y-29151934D01*
X-73972421Y-29875975D01*
X-73985359Y-29844742D01*
X-74067437Y-29721903D01*
X-74171903Y-29617437D01*
X-74294742Y-29535359D01*
X-74325975Y-29522421D01*
X-73601934Y-28798380D01*
X-73675659Y-28741810D01*
X-73675673Y-28741801D01*
X-73874330Y-28627106D01*
X-73874340Y-28627102D01*
X-74086269Y-28539318D01*
X-74307862Y-28479942D01*
X-74535289Y-28450001D01*
X-74535306Y-28450000D01*
X-74764694Y-28450000D01*
X-74764710Y-28450001D01*
X-74992137Y-28479942D01*
X-75213730Y-28539318D01*
X-75425659Y-28627102D01*
X-75425669Y-28627106D01*
X-75624324Y-28741799D01*
X-75624331Y-28741805D01*
X-75698064Y-28798380D01*
X-75698064Y-28798381D01*
X-74974023Y-29522421D01*
X-75005258Y-29535359D01*
X-75128097Y-29617437D01*
X-75232563Y-29721903D01*
X-75314641Y-29844742D01*
X-75327577Y-29875973D01*
X-76051617Y-29151934D01*
X-76051618Y-29151934D01*
X-76108194Y-29225666D01*
X-76222893Y-29424330D01*
X-76222897Y-29424340D01*
X-76310681Y-29636269D01*
X-76370057Y-29857862D01*
X-76399998Y-30085289D01*
X-76400000Y-30085305D01*
X-77450000Y-30085305D01*
X-77450000Y-27929500D01*
X-77430315Y-27862461D01*
X-77377511Y-27816706D01*
X-77326000Y-27805500D01*
X-72823342Y-27805500D01*
X-72756303Y-27825185D01*
G37*
%TD.AperFunction*%
%TD*%
D40*
X-87300000Y-34802808D02*
G75*
G02*
X-86896404Y-34000123I999996J3D01*
G01*
X-82050000Y-29896382D02*
G75*
G02*
X-82454634Y-30699837I-1000000J0D01*
G01*
X-86896404Y-34000123D02*
X-82454634Y-30699837D01*
X-85383198Y-17350000D02*
G75*
G02*
X-84714930Y-17606079I-2J-1000006D01*
G01*
X-82381732Y-19702003D02*
G75*
G02*
X-82050000Y-20445924I-668261J-743918D01*
G01*
X-82381732Y-19702003D02*
X-84714930Y-17606079D01*
X-21000000Y-32400000D02*
G75*
G02*
X-22000000Y-33400000I-999999J-1D01*
G01*
X-28650000Y-39000000D02*
G75*
G02*
X-29650000Y-40000000I-999999J-1D01*
G01*
X-21000000Y-15900000D02*
X-21000000Y-32400000D01*
X-24400000Y-33400000D02*
X-22000000Y-33400000D01*
X-28650000Y-37650000D02*
X-28650000Y-39000000D01*
X-28650000Y-37650000D02*
G75*
G02*
X-24400000Y-33400000I4250000J0D01*
G01*
X-20300000Y-10803611D02*
G75*
G02*
X-28307222Y-10803611I-4003611J0D01*
G01*
X-28307222Y-10803611D02*
G75*
G02*
X-20300000Y-10803611I4003611J0D01*
G01*
X-22000000Y-14900000D02*
G75*
G02*
X-21000000Y-15900000I1J-999999D01*
G01*
X-27500000Y-14900000D02*
X-22000000Y-14900000D01*
X-27500000Y-14900000D02*
G75*
G02*
X-28500000Y-13900000I-1J999999D01*
G01*
X-21000000Y-5750000D02*
G75*
G02*
X-22000000Y-6750000I-999999J-1D01*
G01*
X-90690001Y-6400000D02*
X-89389999Y-6400000D01*
X-28500000Y-7750000D02*
X-28500000Y-13900000D01*
X-90690000Y-17350000D02*
G75*
G02*
X-91690000Y-16350000I-1J999999D01*
G01*
X-91690000Y-7400000D02*
G75*
G02*
X-90690000Y-6400000I999999J1D01*
G01*
X-85890000Y-2900000D02*
G75*
G02*
X-89390000Y-6400000I-3499999J-1D01*
G01*
X-82050000Y-29896382D02*
X-82050000Y-20445924D01*
X-21000000Y-5750000D02*
X-21000000Y-1000000D01*
X-22000000Y0D02*
G75*
G02*
X-21000000Y-1000000I1J-999999D01*
G01*
X-87300000Y-39000000D02*
X-87300000Y-34802808D01*
X-86300000Y-40000000D02*
G75*
G02*
X-87300000Y-39000000I-1J999999D01*
G01*
X-85890000Y-1000000D02*
X-85890000Y-2900000D01*
X-91690000Y-7400000D02*
X-91690000Y-16350000D01*
X-22000000Y0D02*
X-28500000Y0D01*
X-28500000Y0D02*
X-84890000Y0D01*
X-90690000Y-17350000D02*
X-85383198Y-17350000D01*
X-28500000Y-7750000D02*
G75*
G02*
X-27500000Y-6750000I999999J1D01*
G01*
X-29650000Y-40000000D02*
X-86300000Y-40000000D01*
X-27500000Y-6750000D02*
X-22000000Y-6750000D01*
X-85890000Y-1000000D02*
G75*
G02*
X-84890000Y0I999999J1D01*
G01*
M02*
