M48
; DRILL file {KiCad 9.0.6} date 2026-01-19T14:32:23-0500
; FORMAT={-:-/ absolute / metric / decimal}
; #@! TF.CreationDate,2026-01-19T14:32:23-05:00
; #@! TF.GenerationSoftware,Kicad,Pcbnew,9.0.6
; #@! TF.FileFunction,Plated,1,4,PTH
FMAT,2
METRIC
; #@! TA.AperFunction,Plated,PTH,ViaDrill
T1C0.200
; #@! TA.AperFunction,Plated,PTH,ViaDrill
T2C0.300
; #@! TA.AperFunction,Plated,PTH,ComponentDrill
T3C0.500
; #@! TA.AperFunction,Plated,PTH,ComponentDrill
T4C0.600
; #@! TA.AperFunction,Plated,PTH,ComponentDrill
T5C0.700
; #@! TA.AperFunction,Plated,PTH,ComponentDrill
T6C0.800
; #@! TA.AperFunction,Plated,PTH,ComponentDrill
T7C1.100
; #@! TA.AperFunction,Plated,PTH,ComponentDrill
T8C1.200
; #@! TA.AperFunction,Plated,PTH,ComponentDrill
T9C1.500
; #@! TA.AperFunction,Plated,PTH,ComponentDrill
T10C2.700
%
G90
G05
T1
X128.304Y-67.052
X129.005Y-68.155
T2
X79.4Y-87.1
X79.95Y-76.2
X79.95Y-81.35
X82.35Y-52.35
X82.65Y-59.1
X85.45Y-57.9
X85.95Y-66.95
X86.025Y-55.775
X87.65Y-80.8
X87.65Y-82.5
X87.825Y-77.85
X88.6Y-66.95
X90.425Y-76.9
X90.725Y-58.875
X91.55Y-78.4
X91.55Y-80.5
X91.55Y-82.75
X91.7Y-54.15
X91.75Y-70.75
X91.765Y-57.7
X91.9Y-52.1
X91.925Y-56.175
X92.525Y-59.3
X93.025Y-55.075
X93.35Y-80.3
X93.55Y-55.85
X95.965Y-55.8
X96.1Y-80.65
X99.05Y-77.2
X99.5Y-78.4
X100.0Y-54.75
X100.0Y-59.1
X101.6Y-71.15
X101.6Y-71.95
X102.75Y-52.25
X103.0Y-84.2
X103.35Y-77.05
X103.35Y-85.85
X103.45Y-58.7
X103.75Y-57.7
X103.8Y-55.8
X103.95Y-77.95
X104.5Y-77.05
X105.1Y-77.95
X105.25Y-79.0
X105.75Y-77.05
X105.8Y-68.1
X105.85Y-80.2
X106.05Y-63.95
X106.3Y-78.1
X106.45Y-79.1
X106.75Y-55.7
X107.05Y-54.7
X107.05Y-63.95
X107.065Y-68.1
X109.4Y-72.85
X110.05Y-78.6
X110.825Y-63.35
X110.835Y-61.95
X110.85Y-82.65
X111.35Y-72.5
X111.515Y-62.65
X111.525Y-61.25
X111.525Y-64.05
X111.9Y-75.6
X112.0Y-82.65
X112.115Y-71.95
X112.225Y-63.35
X112.235Y-61.95
X112.925Y-61.25
X112.925Y-62.65
X112.925Y-64.05
X113.615Y-63.35
X113.625Y-61.95
X113.75Y-56.05
X114.675Y-71.5
X114.8Y-72.85
X115.45Y-60.0
X115.965Y-71.5
X116.8Y-61.1
X116.8Y-75.35
X116.9Y-59.05
X117.265Y-71.5
X118.35Y-61.8
X118.465Y-71.5
X119.3Y-62.55
X119.3Y-64.85
X119.5Y-72.35
X120.05Y-56.05
X120.475Y-67.3
X124.55Y-76.95
X124.85Y-53.0
X124.85Y-73.85
X124.9Y-57.35
X125.272Y-69.65
X125.325Y-71.6
X125.619Y-66.699
X125.625Y-67.9
X126.3Y-79.8
X127.2Y-59.35
X127.625Y-75.85
X127.875Y-78.6
X129.65Y-60.95
X130.55Y-73.85
X130.7Y-60.95
X131.65Y-56.5
X131.704Y-67.9
X131.755Y-66.905
X133.35Y-60.85
T3
X128.3Y-87.35
X130.25Y-85.4
X132.05Y-83.65
T5
X136.98Y-70.05
X137.0Y-68.05
X137.0Y-72.05
X137.0Y-74.05
T6
X80.05Y-59.56
X80.05Y-62.1
T7
X80.05Y-66.0
X82.59Y-66.0
X89.825Y-72.2
X89.825Y-74.74
X94.278Y-75.953
X95.25Y-78.3
T8
X94.625Y-82.46
X94.625Y-85.0
X94.625Y-87.54
T9
X84.325Y-71.2
X84.325Y-76.2
X84.325Y-81.2
X84.325Y-86.2
T10
X75.0Y-87.0
X79.95Y-54.5
X128.75Y-54.55
X136.55Y-80.0
T3
X116.465Y-81.2G85X116.965Y-81.2
G05
X116.465Y-88.72G85X116.965Y-88.72
G05
X119.005Y-81.2G85X119.505Y-81.2
G05
X119.005Y-88.72G85X119.505Y-88.72
G05
X121.545Y-81.2G85X122.045Y-81.2
G05
X121.545Y-88.72G85X122.045Y-88.72
G05
X124.085Y-81.2G85X124.585Y-81.2
G05
X124.085Y-88.72G85X124.585Y-88.72
G05
T4
X127.255Y-63.05G85X127.255Y-63.55
G05
X127.255Y-71.05G85X127.255Y-71.55
G05
X130.115Y-63.05G85X130.115Y-63.55
G05
X130.115Y-71.05G85X130.115Y-71.55
G05
T6
X72.85Y-60.4G85X72.85Y-60.6
G05
X72.85Y-64.9G85X72.85Y-65.1
G05
X75.25Y-59.25G85X75.45Y-59.25
G05
X75.25Y-66.25G85X75.45Y-66.25
G05
M30
