%TF.GenerationSoftware,KiCad,Pcbnew,9.0.1*%
%TF.CreationDate,2025-09-30T23:18:24-04:00*%
%TF.ProjectId,cablight-project,6361626c-6967-4687-942d-70726f6a6563,rev?*%
%TF.SameCoordinates,Original*%
%TF.FileFunction,Copper,L2,Bot*%
%TF.FilePolarity,Positive*%
%FSLAX46Y46*%
G04 Gerber Fmt 4.6, Leading zero omitted, Abs format (unit mm)*
G04 Created by KiCad (PCBNEW 9.0.1) date 2025-09-30 23:18:24*
%MOMM*%
%LPD*%
G01*
G04 APERTURE LIST*
G04 Aperture macros list*
%AMRoundRect*
0 Rectangle with rounded corners*
0 $1 Rounding radius*
0 $2 $3 $4 $5 $6 $7 $8 $9 X,Y pos of 4 corners*
0 Add a 4 corners polygon primitive as box body*
4,1,4,$2,$3,$4,$5,$6,$7,$8,$9,$2,$3,0*
0 Add four circle primitives for the rounded corners*
1,1,$1+$1,$2,$3*
1,1,$1+$1,$4,$5*
1,1,$1+$1,$6,$7*
1,1,$1+$1,$8,$9*
0 Add four rect primitives between the rounded corners*
20,1,$1+$1,$2,$3,$4,$5,0*
20,1,$1+$1,$4,$5,$6,$7,0*
20,1,$1+$1,$6,$7,$8,$9,0*
20,1,$1+$1,$8,$9,$2,$3,0*%
G04 Aperture macros list end*
%TA.AperFunction,ComponentPad*%
%ADD10O,1.900000X2.500000*%
%TD*%
%TA.AperFunction,ComponentPad*%
%ADD11R,1.900000X2.000000*%
%TD*%
%TA.AperFunction,ComponentPad*%
%ADD12C,1.600000*%
%TD*%
%TA.AperFunction,ComponentPad*%
%ADD13C,3.100000*%
%TD*%
%TA.AperFunction,ComponentPad*%
%ADD14C,1.800000*%
%TD*%
%TA.AperFunction,ComponentPad*%
%ADD15O,2.000000X1.500000*%
%TD*%
%TA.AperFunction,ComponentPad*%
%ADD16O,1.500000X2.000000*%
%TD*%
%TA.AperFunction,ComponentPad*%
%ADD17R,1.600000X1.600000*%
%TD*%
%TA.AperFunction,ComponentPad*%
%ADD18R,2.200000X2.200000*%
%TD*%
%TA.AperFunction,ComponentPad*%
%ADD19O,2.200000X2.200000*%
%TD*%
%TA.AperFunction,ComponentPad*%
%ADD20O,1.500000X3.000000*%
%TD*%
%TA.AperFunction,ComponentPad*%
%ADD21C,2.000000*%
%TD*%
%TA.AperFunction,ComponentPad*%
%ADD22R,3.000000X3.000000*%
%TD*%
%TA.AperFunction,ComponentPad*%
%ADD23C,3.000000*%
%TD*%
%TA.AperFunction,SMDPad,CuDef*%
%ADD24RoundRect,0.250000X0.450000X-0.350000X0.450000X0.350000X-0.450000X0.350000X-0.450000X-0.350000X0*%
%TD*%
%TA.AperFunction,SMDPad,CuDef*%
%ADD25RoundRect,0.250000X-0.450000X0.350000X-0.450000X-0.350000X0.450000X-0.350000X0.450000X0.350000X0*%
%TD*%
%TA.AperFunction,SMDPad,CuDef*%
%ADD26RoundRect,0.250000X0.350000X0.450000X-0.350000X0.450000X-0.350000X-0.450000X0.350000X-0.450000X0*%
%TD*%
%TA.AperFunction,ViaPad*%
%ADD27C,1.000000*%
%TD*%
%TA.AperFunction,Conductor*%
%ADD28C,0.600000*%
%TD*%
%TA.AperFunction,Profile*%
%ADD29C,0.150000*%
%TD*%
G04 APERTURE END LIST*
D10*
%TO.P,Q1,3,S*%
%TO.N,<NO NET>*%
X-47720000Y-38300000D03*
%TO.P,Q1,2,D*%
%TO.N,/LED-*%
X-50260000Y-38300000D03*
D11*
%TO.P,Q1,1,G*%
%TO.N,Net-(Q1-G)*%
X-52800000Y-38300000D03*
%TD*%
D12*
%TO.P,SW1,8*%
%TO.N,Net-(U1-GPIO_17)*%
X-40020000Y-30600000D03*
%TO.P,SW1,7*%
%TO.N,Net-(U1-GPIO_9)*%
X-37480000Y-30600000D03*
%TO.P,SW1,6*%
%TO.N,Net-(U1-GPIO_8)*%
X-34940000Y-30600000D03*
%TO.P,SW1,5*%
%TO.N,/SRO4 PWR*%
X-32400000Y-30600000D03*
%TO.P,SW1,4*%
%TO.N,Net-(U1-GPIO_18)*%
X-32400000Y-38120000D03*
%TO.P,SW1,3*%
%TO.N,<NO NET>*%
X-34940000Y-38120000D03*
%TO.P,SW1,2*%
X-37480000Y-38120000D03*
%TO.P,SW1,1*%
X-40020000Y-38120000D03*
%TD*%
D13*
%TO.P,M2.5,1*%
%TO.N,N/C*%
X-66050000Y-17350000D03*
%TD*%
D14*
%TO.P,U1,1,GPIO_18*%
%TO.N,Net-(U1-GPIO_18)*%
X-38650000Y-26600000D03*
%TO.P,U1,2,GPIO_17*%
%TO.N,Net-(U1-GPIO_17)*%
X-36110000Y-26600000D03*
%TO.P,U1,3,GPIO_9*%
%TO.N,Net-(U1-GPIO_9)*%
X-33570000Y-26600000D03*
%TO.P,U1,4,GPIO_8*%
%TO.N,Net-(U1-GPIO_8)*%
X-31030000Y-26600000D03*
%TO.P,U1,5,GPIO_7*%
%TO.N,/SRO4 PWR*%
X-28490000Y-26600000D03*
%TO.P,U1,6,GPIO_6*%
%TO.N,unconnected-(U1-GPIO_6-Pad6)*%
X-25950000Y-26600000D03*
%TO.P,U1,7,GPIO_5*%
%TO.N,/echo*%
X-23410000Y-26600000D03*
%TO.P,U1,8,GPIO_16*%
%TO.N,/trig*%
X-23410000Y-11360000D03*
%TO.P,U1,9,GPIO_36*%
%TO.N,unconnected-(U1-GPIO_36-Pad9)*%
X-25950000Y-11360000D03*
%TO.P,U1,10,GPIO_37*%
%TO.N,unconnected-(U1-GPIO_37-Pad10)*%
X-28490000Y-11360000D03*
%TO.P,U1,11,GPIO_35*%
%TO.N,Net-(U1-GPIO_35)*%
X-31030000Y-11360000D03*
%TO.P,U1,12,3.3V*%
%TO.N,/SRO4 PWR*%
X-33570000Y-11360000D03*
%TO.P,U1,13,GND*%
%TO.N,<NO NET>*%
X-36110000Y-11360000D03*
%TO.P,U1,14,5V*%
%TO.N,/5V_MCU*%
X-38650000Y-11360000D03*
%TD*%
D15*
%TO.P,BTN1,GND,GND*%
%TO.N,<NO NET>*%
X-69800000Y-14800000D03*
X-69800000Y-7800000D03*
D16*
%TO.P,BTN1,2,2*%
X-72300000Y-13550000D03*
%TO.P,BTN1,1,1*%
%TO.N,Net-(U1-GPIO_35)*%
X-72300000Y-9050000D03*
%TD*%
D13*
%TO.P,M2.5,1*%
%TO.N,N/C*%
X-67900000Y-38300000D03*
%TD*%
%TO.P,M2.5,1*%
%TO.N,N/C*%
X-25000000Y-31500000D03*
%TD*%
D12*
%TO.P,S1,*%
%TO.N,*%
X-2300000Y-2420000D03*
X-17700000Y-2420000D03*
X-2300000Y-39695000D03*
X-17700000Y-39720000D03*
%TO.P,S1,1,Vin*%
%TO.N,/SRO4 PWR*%
X-17588000Y-17260000D03*
%TO.P,S1,2,Trig*%
%TO.N,/trig*%
X-17588000Y-19800000D03*
%TO.P,S1,3,Echo*%
%TO.N,/echo*%
X-17588000Y-22340000D03*
%TO.P,S1,4,GND*%
%TO.N,<NO NET>*%
X-17588000Y-24880000D03*
%TD*%
D13*
%TO.P,M2.5,1*%
%TO.N,N/C*%
X-22138000Y-3330000D03*
%TD*%
D17*
%TO.P,P1,1,PG*%
%TO.N,unconnected-(P1-PG-Pad1)*%
X-50610000Y-12730000D03*
D12*
%TO.P,P1,2,SHDN*%
%TO.N,unconnected-(P1-SHDN-Pad2)*%
X-50610000Y-10190000D03*
%TO.P,P1,3,VIN_24V*%
%TO.N,/+24V*%
X-50610000Y-7650000D03*
%TO.P,P1,4,GND*%
%TO.N,<NO NET>*%
X-50610000Y-5110000D03*
%TO.P,P1,5,VOUT_5V*%
%TO.N,/+5V*%
X-50610000Y-2570000D03*
%TD*%
D18*
%TO.P,D1,1,K*%
%TO.N,/5V_MCU*%
X-43150000Y-10400000D03*
D19*
%TO.P,D1,2,A*%
%TO.N,/5V_sw*%
X-45690000Y-10400000D03*
%TD*%
D20*
%TO.P,SW3,*%
%TO.N,*%
X-47100000Y-3958000D03*
D21*
X-38300000Y-3958000D03*
D20*
X-35500000Y-3958000D03*
D21*
%TO.P,SW3,1*%
%TO.N,/+5V*%
X-41300000Y-3958000D03*
%TO.P,SW3,2*%
%TO.N,/5V_sw*%
X-44300000Y-3958000D03*
%TD*%
D22*
%TO.P,J3,1,Pin_1*%
%TO.N,<NO NET>*%
X-59800000Y-20500000D03*
D23*
%TO.P,J3,2,Pin_2*%
%TO.N,/+24V*%
X-59800000Y-25500000D03*
%TO.P,J3,3,Pin_3*%
X-59800000Y-30500000D03*
%TO.P,J3,4,Pin_4*%
%TO.N,/LED-*%
X-59800000Y-35500000D03*
%TD*%
D24*
%TO.P,R4,1*%
%TO.N,Net-(U1-GPIO_18)*%
X-46700000Y-26600000D03*
%TO.P,R4,2*%
%TO.N,<NO NET>*%
X-46700000Y-24600000D03*
%TD*%
D25*
%TO.P,R5,1*%
%TO.N,Net-(U1-GPIO_18)*%
X-52800000Y-26600000D03*
%TO.P,R5,2*%
%TO.N,Net-(Q1-G)*%
X-52800000Y-28600000D03*
%TD*%
D26*
%TO.P,R1,1,1*%
%TO.N,/SRO4 PWR*%
X-62900000Y-11400000D03*
%TO.P,R1,2,2*%
%TO.N,Net-(U1-GPIO_35)*%
X-64900000Y-11400000D03*
%TD*%
D27*
%TO.N,<NO NET>*%
X-53600000Y-21000000D03*
%TO.N,/SRO4 PWR*%
X-53100000Y-16100000D03*
%TO.N,Net-(U1-GPIO_18)*%
X-46700000Y-28600000D03*
%TO.N,<NO NET>*%
X-23000000Y-14000000D03*
X-12300000Y-37100000D03*
X-65200000Y-2900000D03*
X-3400000Y-8600000D03*
X-25000000Y-19100000D03*
X-53800000Y-12600000D03*
X-40900000Y-21000000D03*
X-60300000Y-40000000D03*
X-31800000Y-19600000D03*
X-38800000Y-1550000D03*
X-42850000Y-28800000D03*
X-63800000Y-28100000D03*
X-11600000Y-15150000D03*
X-41450000Y-7150000D03*
X-21750000Y-9100000D03*
X-30100000Y-23800000D03*
X-14900000Y-9100000D03*
X-12450000Y-20450000D03*
X-29150000Y-14100000D03*
X-58200000Y-2900000D03*
X-15100000Y-14550000D03*
X-25450000Y-23800000D03*
X-3400000Y-24000000D03*
X-3400000Y-33900000D03*
X-49650000Y-29500000D03*
X-56000000Y-30800000D03*
%TO.N,Net-(U1-GPIO_35)*%
X-30980000Y-14550000D03*
X-33750000Y-18400000D03*
X-53100000Y-18400000D03*
%TD*%
D28*
%TO.N,Net-(U1-GPIO_35)*%
X-69950000Y-11400000D02*
X-72300000Y-9050000D01*
X-64900000Y-11400000D02*
X-69950000Y-11400000D01*
%TO.N,/SRO4 PWR*%
X-55100000Y-14100000D02*
X-53100000Y-16100000D01*
X-60200000Y-14100000D02*
X-55100000Y-14100000D01*
X-62900000Y-11400000D02*
X-60200000Y-14100000D01*
%TO.N,Net-(Q1-G)*%
X-52800000Y-28600000D02*
X-52800000Y-38300000D01*
%TO.N,Net-(U1-GPIO_18)*%
X-46700000Y-26600000D02*
X-52800000Y-26600000D01*
X-38720000Y-26200000D02*
X-38670000Y-26150000D01*
X-46700000Y-26600000D02*
X-38650000Y-26600000D01*
X-46700000Y-28600000D02*
X-46700000Y-26600000D01*
%TO.N,Net-(U1-GPIO_35)*%
X-33750000Y-18400000D02*
X-30980000Y-15630000D01*
X-31000000Y-10960000D02*
X-31050000Y-10910000D01*
X-55600000Y-15900000D02*
X-53100000Y-18400000D01*
X-64900000Y-12800000D02*
X-61800000Y-15900000D01*
X-64900000Y-11400000D02*
X-64900000Y-12800000D01*
X-61800000Y-15900000D02*
X-55600000Y-15900000D01*
X-30980000Y-15630000D02*
X-30980000Y-14550000D01*
%TD*%
%TA.AperFunction,Conductor*%
%TO.N,<NO NET>*%
G36*
X-30349814Y-520185D02*
G01*
X-30304059Y-572989D01*
X-30294115Y-642147D01*
X-30323140Y-705703D01*
X-30381918Y-743477D01*
X-30384708Y-744260D01*
X-30593703Y-800261D01*
X-30963291Y-934780D01*
X-30963298Y-934783D01*
X-30963300Y-934784D01*
X-30963308Y-934787D01*
X-31319738Y-1100994D01*
X-31319754Y-1101002D01*
X-31559174Y-1239231D01*
X-31660363Y-1297652D01*
X-31660366Y-1297654D01*
X-31660369Y-1297656D01*
X-31982547Y-1523248D01*
X-32195423Y-1701873D01*
X-32283832Y-1776057D01*
X-32561943Y-2054168D01*
X-32575883Y-2070781D01*
X-32814751Y-2355452D01*
X-32814755Y-2355458D01*
X-32814756Y-2355459D01*
X-33040348Y-2677637D01*
X-33185540Y-2929119D01*
X-33236997Y-3018245D01*
X-33237005Y-3018261D01*
X-33368461Y-3300169D01*
X-33403220Y-3374709D01*
X-33537739Y-3744297D01*
X-33639535Y-4124203D01*
X-33685358Y-4384076D01*
X-33703199Y-4485262D01*
X-33707832Y-4511535D01*
X-33742111Y-4903346D01*
X-33742111Y-4928110D01*
X-33742111Y-5296654D01*
X-33707832Y-5688465D01*
X-33639535Y-6075797D01*
X-33537739Y-6455703D01*
X-33403220Y-6825291D01*
X-33237001Y-7181748D01*
X-33040348Y-7522363D01*
X-32814756Y-7844541D01*
X-32561943Y-8145832D01*
X-32283832Y-8423943D01*
X-31982541Y-8676756D01*
X-31660363Y-8902348D01*
X-31319748Y-9099001D01*
X-30963291Y-9265220D01*
X-30593703Y-9399739D01*
X-30213797Y-9501535D01*
X-29826465Y-9569832D01*
X-29434655Y-9604110D01*
X-29434655Y-9604111D01*
X-29434654Y-9604111D01*
X-29041345Y-9604111D01*
X-29041344Y-9604110D01*
X-28649535Y-9569832D01*
X-28649529Y-9569831D01*
X-28649528Y-9569831D01*
X-28539031Y-9550347D01*
X-28262203Y-9501535D01*
X-27882297Y-9399739D01*
X-27512709Y-9265220D01*
X-27512695Y-9265213D01*
X-27512691Y-9265212D01*
X-27251504Y-9143418D01*
X-27156252Y-9099001D01*
X-26815637Y-8902348D01*
X-26493459Y-8676756D01*
X-26493458Y-8676755D01*
X-26493452Y-8676751D01*
X-26229351Y-8455143D01*
X-26192168Y-8423943D01*
X-25914057Y-8145832D01*
X-25779398Y-7985352D01*
X-25661248Y-7844547D01*
X-25435656Y-7522369D01*
X-25435647Y-7522354D01*
X-25239002Y-7181754D01*
X-25238994Y-7181738D01*
X-25072787Y-6825308D01*
X-25072784Y-6825300D01*
X-25072783Y-6825298D01*
X-25072780Y-6825291D01*
X-24938261Y-6455703D01*
X-24836465Y-6075797D01*
X-24836463Y-6075787D01*
X-24768168Y-5688471D01*
X-24768168Y-5688467D01*
X-24733889Y-5296657D01*
X-24733889Y-4903342D01*
X-24768168Y-4511532D01*
X-24768168Y-4511528D01*
X-24836463Y-4124212D01*
X-24836465Y-4124201D01*
X-24904445Y-3870500D01*
X-24938261Y-3744297D01*
X-24943140Y-3730893D01*
X-25046275Y-3447532D01*
X-25072780Y-3374709D01*
X-25072781Y-3374705D01*
X-25072784Y-3374699D01*
X-25072787Y-3374691D01*
X-25133754Y-3243949D01*
X-25156298Y-3195603D01*
X-24188500Y-3195603D01*
X-24188500Y-3464397D01*
X-24153416Y-3730891D01*
X-24083847Y-3990526D01*
X-23980984Y-4238859D01*
X-23846587Y-4471641D01*
X-23682956Y-4684890D01*
X-23492890Y-4874956D01*
X-23279641Y-5038587D01*
X-23046859Y-5172984D01*
X-23046853Y-5172986D01*
X-23046850Y-5172988D01*
X-23010547Y-5188025D01*
X-22798526Y-5275847D01*
X-22538891Y-5345416D01*
X-22332905Y-5372534D01*
X-22272398Y-5380500D01*
X-22272397Y-5380500D01*
X-22003602Y-5380500D01*
X-21925319Y-5370193D01*
X-21737109Y-5345416D01*
X-21477474Y-5275847D01*
X-21324099Y-5212317D01*
X-21229149Y-5172988D01*
X-21229133Y-5172980D01*
X-21145968Y-5124964D01*
X-20996359Y-5038587D01*
X-20820107Y-4903345D01*
X-20783111Y-4874957D01*
X-20783104Y-4874951D01*
X-20593048Y-4684895D01*
X-20593042Y-4684888D01*
X-20429416Y-4471645D01*
X-20429415Y-4471644D01*
X-20429413Y-4471641D01*
X-20335724Y-4309368D01*
X-20295019Y-4238866D01*
X-20295011Y-4238850D01*
X-20192152Y-3990524D01*
X-20132751Y-3768834D01*
X-20122584Y-3730891D01*
X-20122583Y-3730885D01*
X-20122582Y-3730880D01*
X-20087500Y-3464397D01*
X-20087500Y-3195602D01*
X-20122582Y-2929119D01*
X-20122585Y-2929106D01*
X-20192152Y-2669475D01*
X-20295011Y-2421149D01*
X-20295021Y-2421129D01*
X-20321784Y-2374777D01*
X-20321785Y-2374776D01*
X-20354768Y-2317648D01*
X-19000500Y-2317648D01*
X-19000500Y-2522352D01*
X-18968477Y-2724534D01*
X-18905220Y-2919219D01*
X-18812287Y-3101610D01*
X-18761460Y-3171568D01*
X-18691971Y-3267213D01*
X-18691968Y-3267215D01*
X-18691966Y-3267219D01*
X-18547219Y-3411966D01*
X-18547215Y-3411968D01*
X-18547213Y-3411971D01*
X-18521383Y-3430737D01*
X-18381610Y-3532287D01*
X-18199219Y-3625220D01*
X-18004534Y-3688477D01*
X-17802352Y-3720500D01*
X-17802351Y-3720500D01*
X-17597649Y-3720500D01*
X-17597648Y-3720500D01*
X-17496557Y-3704488D01*
X-17395465Y-3688477D01*
X-17305137Y-3659127D01*
X-17200781Y-3625220D01*
X-17200778Y-3625218D01*
X-17200776Y-3625218D01*
X-17134607Y-3591503D01*
X-17018390Y-3532287D01*
X-17006476Y-3523631D01*
X-16852786Y-3411971D01*
X-16708028Y-3267213D01*
X-16587715Y-3101613D01*
X-16579226Y-3084954D01*
X-16525998Y-2980488D01*
X-16494781Y-2919223D01*
X-16431522Y-2724534D01*
X-16399500Y-2522351D01*
X-16399500Y-2317648D01*
X-3600500Y-2317648D01*
X-3600500Y-2522352D01*
X-3568477Y-2724534D01*
X-3505220Y-2919219D01*
X-3412287Y-3101610D01*
X-3361460Y-3171568D01*
X-3291971Y-3267213D01*
X-3291968Y-3267215D01*
X-3291966Y-3267219D01*
X-3147219Y-3411966D01*
X-3147215Y-3411968D01*
X-3147213Y-3411971D01*
X-3121383Y-3430737D01*
X-2981610Y-3532287D01*
X-2799219Y-3625220D01*
X-2604534Y-3688477D01*
X-2402352Y-3720500D01*
X-2402351Y-3720500D01*
X-2197649Y-3720500D01*
X-2197648Y-3720500D01*
X-2096557Y-3704488D01*
X-1995465Y-3688477D01*
X-1905137Y-3659127D01*
X-1800781Y-3625220D01*
X-1800778Y-3625218D01*
X-1800776Y-3625218D01*
X-1734607Y-3591503D01*
X-1618390Y-3532287D01*
X-1606476Y-3523631D01*
X-1452786Y-3411971D01*
X-1308028Y-3267213D01*
X-1187715Y-3101613D01*
X-1179226Y-3084954D01*
X-1125998Y-2980488D01*
X-1094781Y-2919223D01*
X-1031522Y-2724534D01*
X-999500Y-2522351D01*
X-999500Y-2317648D01*
X-1031522Y-2115465D01*
X-1094781Y-1920776D01*
X-1187715Y-1738386D01*
X-1308028Y-1572786D01*
X-1452786Y-1428028D01*
X-1618386Y-1307715D01*
X-1800776Y-1214781D01*
X-1995465Y-1151522D01*
X-2173329Y-1123351D01*
X-2197648Y-1119500D01*
X-2402352Y-1119500D01*
X-2429995Y-1123878D01*
X-2604534Y-1151522D01*
X-2799223Y-1214781D01*
X-2906613Y-1269500D01*
X-2981610Y-1307713D01*
X-2981612Y-1307714D01*
X-2981613Y-1307715D01*
X-3147213Y-1428028D01*
X-3291971Y-1572786D01*
X-3400950Y-1722786D01*
X-3412287Y-1738390D01*
X-3431479Y-1776057D01*
X-3505218Y-1920776D01*
X-3505218Y-1920778D01*
X-3505220Y-1920781D01*
X-3522873Y-1975111D01*
X-3568477Y-2115465D01*
X-3580022Y-2188354D01*
X-3600500Y-2317648D01*
X-16399500Y-2317648D01*
X-16431522Y-2115465D01*
X-16494781Y-1920776D01*
X-16587715Y-1738386D01*
X-16708028Y-1572786D01*
X-16852786Y-1428028D01*
X-17018386Y-1307715D01*
X-17200776Y-1214781D01*
X-17395465Y-1151522D01*
X-17573329Y-1123351D01*
X-17597648Y-1119500D01*
X-17802352Y-1119500D01*
X-17829995Y-1123878D01*
X-18004534Y-1151522D01*
X-18199223Y-1214781D01*
X-18306613Y-1269500D01*
X-18381610Y-1307713D01*
X-18381612Y-1307714D01*
X-18381613Y-1307715D01*
X-18547213Y-1428028D01*
X-18691971Y-1572786D01*
X-18800950Y-1722786D01*
X-18812287Y-1738390D01*
X-18831479Y-1776057D01*
X-18905218Y-1920776D01*
X-18905218Y-1920778D01*
X-18905220Y-1920781D01*
X-18922873Y-1975111D01*
X-18968477Y-2115465D01*
X-18980022Y-2188354D01*
X-19000500Y-2317648D01*
X-20354768Y-2317648D01*
X-20429416Y-2188354D01*
X-20593042Y-1975111D01*
X-20593048Y-1975104D01*
X-20783104Y-1785048D01*
X-20783111Y-1785042D01*
X-20996354Y-1621416D01*
X-21229133Y-1487019D01*
X-21229149Y-1487011D01*
X-21477475Y-1384152D01*
X-21682239Y-1329286D01*
X-21737109Y-1314584D01*
X-21737112Y-1314583D01*
X-21737119Y-1314582D01*
X-22003602Y-1279500D01*
X-22003603Y-1279500D01*
X-22272397Y-1279500D01*
X-22272398Y-1279500D01*
X-22538880Y-1314582D01*
X-22538885Y-1314583D01*
X-22538891Y-1314584D01*
X-22668708Y-1349368D01*
X-22798524Y-1384152D01*
X-23046850Y-1487011D01*
X-23046866Y-1487019D01*
X-23186832Y-1567830D01*
X-23279641Y-1621413D01*
X-23279644Y-1621415D01*
X-23279645Y-1621416D01*
X-23492888Y-1785042D01*
X-23492895Y-1785048D01*
X-23682951Y-1975104D01*
X-23682957Y-1975111D01*
X-23693070Y-1988291D01*
X-23846587Y-2188359D01*
X-23903119Y-2286275D01*
X-23980980Y-2421133D01*
X-23980988Y-2421149D01*
X-24015457Y-2504366D01*
X-24083847Y-2669474D01*
X-24153416Y-2929109D01*
X-24188500Y-3195603D01*
X-25156298Y-3195603D01*
X-25238994Y-3018261D01*
X-25239002Y-3018245D01*
X-25435647Y-2677645D01*
X-25435656Y-2677630D01*
X-25661248Y-2355452D01*
X-25914059Y-2054165D01*
X-26192166Y-1776059D01*
X-26192165Y-1776059D01*
X-26493452Y-1523248D01*
X-26815630Y-1297656D01*
X-26815645Y-1297647D01*
X-27156245Y-1101002D01*
X-27156261Y-1100994D01*
X-27512691Y-934787D01*
X-27512699Y-934784D01*
X-27512705Y-934781D01*
X-27512709Y-934780D01*
X-27882297Y-800261D01*
X-28091242Y-744273D01*
X-28150901Y-707910D01*
X-28181430Y-645063D01*
X-28173135Y-575687D01*
X-28128650Y-521809D01*
X-28062098Y-500535D01*
X-28059147Y-500500D01*
X-624500Y-500500D01*
X-557461Y-520185D01*
X-511706Y-572989D01*
X-500500Y-624500D01*
X-500500Y-41375500D01*
X-520185Y-41442539D01*
X-572989Y-41488294D01*
X-624500Y-41499500D01*
X-18695572Y-41499500D01*
X-18704417Y-41499184D01*
X-18723779Y-41497799D01*
X-18904557Y-41484869D01*
X-18922068Y-41482351D01*
X-19113787Y-41440646D01*
X-19130763Y-41435662D01*
X-19314609Y-41367090D01*
X-19330702Y-41359740D01*
X-19502908Y-41265709D01*
X-19517791Y-41256144D01*
X-19674864Y-41138561D01*
X-19688235Y-41126975D01*
X-19826975Y-40988235D01*
X-19838561Y-40974864D01*
X-19956144Y-40817791D01*
X-19965709Y-40802908D01*
X-20059740Y-40630702D01*
X-20067090Y-40614609D01*
X-20135662Y-40430763D01*
X-20140646Y-40413787D01*
X-20182351Y-40222068D01*
X-20184869Y-40204557D01*
X-20199184Y-40004419D01*
X-20199500Y-39995572D01*
X-20199500Y-39617648D01*
X-19000500Y-39617648D01*
X-19000500Y-39822352D01*
X-18968477Y-40024534D01*
X-18905220Y-40219219D01*
X-18812287Y-40401610D01*
X-18797140Y-40422458D01*
X-18691971Y-40567213D01*
X-18691968Y-40567215D01*
X-18691966Y-40567219D01*
X-18547219Y-40711966D01*
X-18547215Y-40711968D01*
X-18547213Y-40711971D01*
X-18501385Y-40745266D01*
X-18381610Y-40832287D01*
X-18199219Y-40925220D01*
X-18004534Y-40988477D01*
X-17802352Y-41020500D01*
X-17802351Y-41020500D01*
X-17597649Y-41020500D01*
X-17597648Y-41020500D01*
X-17496557Y-41004488D01*
X-17395465Y-40988477D01*
X-17305137Y-40959127D01*
X-17200781Y-40925220D01*
X-17200778Y-40925218D01*
X-17200776Y-40925218D01*
X-17134607Y-40891503D01*
X-17018390Y-40832287D01*
X-16977953Y-40802908D01*
X-16852786Y-40711971D01*
X-16708028Y-40567213D01*
X-16587715Y-40401613D01*
X-16574976Y-40376613D01*
X-16543794Y-40315414D01*
X-16494781Y-40219223D01*
X-16431522Y-40024534D01*
X-16399500Y-39822351D01*
X-16399500Y-39617647D01*
X-16399499Y-39617647D01*
X-16401159Y-39607173D01*
X-16403459Y-39592648D01*
X-3600500Y-39592648D01*
X-3600500Y-39797352D01*
X-3568477Y-39999534D01*
X-3505220Y-40194219D01*
X-3412287Y-40376610D01*
X-3344732Y-40469590D01*
X-3291971Y-40542213D01*
X-3291968Y-40542215D01*
X-3291966Y-40542219D01*
X-3147219Y-40686966D01*
X-3147215Y-40686968D01*
X-3147213Y-40686971D01*
X-3074590Y-40739732D01*
X-2981610Y-40807287D01*
X-2799219Y-40900220D01*
X-2604534Y-40963477D01*
X-2402352Y-40995500D01*
X-2402351Y-40995500D01*
X-2197649Y-40995500D01*
X-2197648Y-40995500D01*
X-2096557Y-40979488D01*
X-1995465Y-40963477D01*
X-1877717Y-40925218D01*
X-1800781Y-40900220D01*
X-1800778Y-40900218D01*
X-1800776Y-40900218D01*
X-1734607Y-40866503D01*
X-1618390Y-40807287D01*
X-1607749Y-40799556D01*
X-1452786Y-40686971D01*
X-1308028Y-40542213D01*
X-1187715Y-40376613D01*
X-1182283Y-40365954D01*
X-1156532Y-40315414D01*
X-1094781Y-40194223D01*
X-1031522Y-39999534D01*
X-999999Y-39800500D01*
X-999500Y-39797352D01*
X-999500Y-39592648D01*
X-1007469Y-39542335D01*
X-1031522Y-39390465D01*
X-1094781Y-39195776D01*
X-1187715Y-39013386D01*
X-1308028Y-38847786D01*
X-1452786Y-38703028D01*
X-1618386Y-38582715D01*
X-1800776Y-38489781D01*
X-1995465Y-38426522D01*
X-2173329Y-38398351D01*
X-2197648Y-38394500D01*
X-2402352Y-38394500D01*
X-2429995Y-38398878D01*
X-2604534Y-38426522D01*
X-2799223Y-38489781D01*
X-2881278Y-38531591D01*
X-2981610Y-38582713D01*
X-2981612Y-38582714D01*
X-2981613Y-38582715D01*
X-3147213Y-38703028D01*
X-3291971Y-38847786D01*
X-3378738Y-38967213D01*
X-3412287Y-39013390D01*
X-3463498Y-39113897D01*
X-3505218Y-39195776D01*
X-3505218Y-39195778D01*
X-3505220Y-39195781D01*
X-3539127Y-39300137D01*
X-3568477Y-39390465D01*
X-3576583Y-39441645D01*
X-3600500Y-39592648D01*
X-16403459Y-39592648D01*
X-16431522Y-39415465D01*
X-16494781Y-39220776D01*
X-16587715Y-39038386D01*
X-16708028Y-38872786D01*
X-16852786Y-38728028D01*
X-17018386Y-38607715D01*
X-17200776Y-38514781D01*
X-17395465Y-38451522D01*
X-17573329Y-38423351D01*
X-17597648Y-38419500D01*
X-17802352Y-38419500D01*
X-17829995Y-38423878D01*
X-18004534Y-38451522D01*
X-18199223Y-38514781D01*
X-18324653Y-38578691D01*
X-18381610Y-38607713D01*
X-18381612Y-38607714D01*
X-18381613Y-38607715D01*
X-18547213Y-38728028D01*
X-18691971Y-38872786D01*
X-18760579Y-38967219D01*
X-18812287Y-39038390D01*
X-18868845Y-39149391D01*
X-18905218Y-39220776D01*
X-18905218Y-39220778D01*
X-18905220Y-39220781D01*
X-18939003Y-39324755D01*
X-18968477Y-39415465D01*
X-18995923Y-39588749D01*
X-19000500Y-39617648D01*
X-20199500Y-39617648D01*
X-20199500Y-39584412D01*
X-20199500Y-39584409D01*
X-20238150Y-39154964D01*
X-20245603Y-39113897D01*
X-20315142Y-38730704D01*
X-20429847Y-38315080D01*
X-20429855Y-38315055D01*
X-20581354Y-37911386D01*
X-20581360Y-37911372D01*
X-20768436Y-37522906D01*
X-20768437Y-37522904D01*
X-20989599Y-37152743D01*
X-21243026Y-36803931D01*
X-21243039Y-36803914D01*
X-21526726Y-36479210D01*
X-21526730Y-36479205D01*
X-21838379Y-36181237D01*
X-21838392Y-36181225D01*
X-22175485Y-35912404D01*
X-22175498Y-35912394D01*
X-22535337Y-35674867D01*
X-22915044Y-35470537D01*
X-22915052Y-35470533D01*
X-23311519Y-35301076D01*
X-23311527Y-35301073D01*
X-23721608Y-35167830D01*
X-24141972Y-35071885D01*
X-24569253Y-35014006D01*
X-24569262Y-35014005D01*
X-24999997Y-34994661D01*
X-25000003Y-34994661D01*
X-25430737Y-35014005D01*
X-25430745Y-35014005D01*
X-25430747Y-35014006D01*
X-25644386Y-35042945D01*
X-25858027Y-35071885D01*
X-26278391Y-35167830D01*
X-26688472Y-35301073D01*
X-26688480Y-35301076D01*
X-27084947Y-35470533D01*
X-27084955Y-35470537D01*
X-27211523Y-35538647D01*
X-27464655Y-35674863D01*
X-27464661Y-35674867D01*
X-27464662Y-35674867D01*
X-27824501Y-35912394D01*
X-27824514Y-35912404D01*
X-28161607Y-36181225D01*
X-28161620Y-36181237D01*
X-28441823Y-36449140D01*
X-28473274Y-36479210D01*
X-28698553Y-36737062D01*
X-28756960Y-36803914D01*
X-28756973Y-36803931D01*
X-29008719Y-37150430D01*
X-29010407Y-37152753D01*
X-29231560Y-37522900D01*
X-29231562Y-37522904D01*
X-29231563Y-37522906D01*
X-29418639Y-37911372D01*
X-29418645Y-37911386D01*
X-29535351Y-38222351D01*
X-29570149Y-38315069D01*
X-29684859Y-38730711D01*
X-29761850Y-39154964D01*
X-29800500Y-39584409D01*
X-29800500Y-39584416D01*
X-29800500Y-39995572D01*
X-29800816Y-40004418D01*
X-29810726Y-40142984D01*
X-29815130Y-40204556D01*
X-29817647Y-40222063D01*
X-29859355Y-40413797D01*
X-29864334Y-40430755D01*
X-29905909Y-40542219D01*
X-29932909Y-40614609D01*
X-29940259Y-40630702D01*
X-30034290Y-40802908D01*
X-30043855Y-40817791D01*
X-30161438Y-40974864D01*
X-30173024Y-40988235D01*
X-30311764Y-41126975D01*
X-30325135Y-41138561D01*
X-30482208Y-41256144D01*
X-30497091Y-41265709D01*
X-30669297Y-41359740D01*
X-30685390Y-41367090D01*
X-30869236Y-41435662D01*
X-30886212Y-41440646D01*
X-31077931Y-41482351D01*
X-31095442Y-41484869D01*
X-31273622Y-41497613D01*
X-31295582Y-41499184D01*
X-31304428Y-41499500D01*
X-67896644Y-41499500D01*
X-67903355Y-41499318D01*
X-67929696Y-41497889D01*
X-68239217Y-41481107D01*
X-68252564Y-41479655D01*
X-68581162Y-41425784D01*
X-68594274Y-41422898D01*
X-68915125Y-41333815D01*
X-68927849Y-41329528D01*
X-69237182Y-41206279D01*
X-69249368Y-41200641D01*
X-69543583Y-41044658D01*
X-69555087Y-41037736D01*
X-69830686Y-40850875D01*
X-69841375Y-40842750D01*
X-70095165Y-40627179D01*
X-70104913Y-40617945D01*
X-70333918Y-40376186D01*
X-70342609Y-40365954D01*
X-70544121Y-40100871D01*
X-70551656Y-40089758D01*
X-70723332Y-39804431D01*
X-70729621Y-39792568D01*
X-70869436Y-39490361D01*
X-70874406Y-39477889D01*
X-70980731Y-39162329D01*
X-70984323Y-39149391D01*
X-71055905Y-38824185D01*
X-71058077Y-38810936D01*
X-71094081Y-38479901D01*
X-71094808Y-38466494D01*
X-71094808Y-38165603D01*
X-69950500Y-38165603D01*
X-69950500Y-38434397D01*
X-69915416Y-38700891D01*
X-69845847Y-38960526D01*
X-69768417Y-39147457D01*
X-69746872Y-39199474D01*
X-69742984Y-39208859D01*
X-69608587Y-39441641D01*
X-69444956Y-39654890D01*
X-69254890Y-39844956D01*
X-69041641Y-40008587D01*
X-68808859Y-40142984D01*
X-68808853Y-40142986D01*
X-68808850Y-40142988D01*
X-68747457Y-40168417D01*
X-68560526Y-40245847D01*
X-68300891Y-40315416D01*
X-68094905Y-40342534D01*
X-68034398Y-40350500D01*
X-68034397Y-40350500D01*
X-67765602Y-40350500D01*
X-67687319Y-40340193D01*
X-67499109Y-40315416D01*
X-67239474Y-40245847D01*
X-67139789Y-40204556D01*
X-66991149Y-40142988D01*
X-66991133Y-40142980D01*
X-66898951Y-40089758D01*
X-66758359Y-40008587D01*
X-66661296Y-39934108D01*
X-66545111Y-39844957D01*
X-66545104Y-39844951D01*
X-66355048Y-39654895D01*
X-66355042Y-39654888D01*
X-66191416Y-39441645D01*
X-66191415Y-39441644D01*
X-66191413Y-39441641D01*
X-66123929Y-39324755D01*
X-66057019Y-39208866D01*
X-66057011Y-39208850D01*
X-65954152Y-38960524D01*
X-65915862Y-38817621D01*
X-65884584Y-38700891D01*
X-65884583Y-38700885D01*
X-65884582Y-38700880D01*
X-65849500Y-38434397D01*
X-65849500Y-38165602D01*
X-65884582Y-37899119D01*
X-65884585Y-37899106D01*
X-65954152Y-37639475D01*
X-66057011Y-37391149D01*
X-66057019Y-37391133D01*
X-66191416Y-37158354D01*
X-66355042Y-36945111D01*
X-66355048Y-36945104D01*
X-66545104Y-36755048D01*
X-66545111Y-36755042D01*
X-66758354Y-36591416D01*
X-66769093Y-36585216D01*
X-66830954Y-36549500D01*
X-66991133Y-36457019D01*
X-66991149Y-36457011D01*
X-67239475Y-36354152D01*
X-67444239Y-36299286D01*
X-67499109Y-36284584D01*
X-67499112Y-36284583D01*
X-67499119Y-36284582D01*
X-67765602Y-36249500D01*
X-67765603Y-36249500D01*
X-68034397Y-36249500D01*
X-68034398Y-36249500D01*
X-68300880Y-36284582D01*
X-68300885Y-36284583D01*
X-68300891Y-36284584D01*
X-68430708Y-36319368D01*
X-68560524Y-36354152D01*
X-68808850Y-36457011D01*
X-68808866Y-36457019D01*
X-68948832Y-36537830D01*
X-69041641Y-36591413D01*
X-69041644Y-36591415D01*
X-69041645Y-36591416D01*
X-69254888Y-36755042D01*
X-69254895Y-36755048D01*
X-69444951Y-36945104D01*
X-69444957Y-36945111D01*
X-69492656Y-37007274D01*
X-69608587Y-37158359D01*
X-69689233Y-37298041D01*
X-69742980Y-37391133D01*
X-69742988Y-37391149D01*
X-69797562Y-37522904D01*
X-69845847Y-37639474D01*
X-69915416Y-37899109D01*
X-69917032Y-37911386D01*
X-69944496Y-38120001D01*
X-69950500Y-38165603D01*
X-71094808Y-38165603D01*
X-71094808Y-38133505D01*
X-71094081Y-38120098D01*
X-71058077Y-37789063D01*
X-71055905Y-37775814D01*
X-70984323Y-37450608D01*
X-70980731Y-37437670D01*
X-70967498Y-37398398D01*
X-70895691Y-37185282D01*
X-70874406Y-37122110D01*
X-70869436Y-37109638D01*
X-70729621Y-36807431D01*
X-70723332Y-36795568D01*
X-70701840Y-36759849D01*
X-70596767Y-36585216D01*
X-70551656Y-36510241D01*
X-70544121Y-36499128D01*
X-70342609Y-36234045D01*
X-70333918Y-36223813D01*
X-70104913Y-35982054D01*
X-70095165Y-35972820D01*
X-70024037Y-35912404D01*
X-69841375Y-35757249D01*
X-69830686Y-35749124D01*
X-69555087Y-35562263D01*
X-69543583Y-35555341D01*
X-69249368Y-35399358D01*
X-69237191Y-35393724D01*
X-69174837Y-35368880D01*
X-61800500Y-35368880D01*
X-61800500Y-35631120D01*
X-61766270Y-35891116D01*
X-61698398Y-36144419D01*
X-61598043Y-36386697D01*
X-61466924Y-36613803D01*
X-61307282Y-36821851D01*
X-61307277Y-36821855D01*
X-61307274Y-36821860D01*
X-61121860Y-37007274D01*
X-61121855Y-37007277D01*
X-61121851Y-37007282D01*
X-60913803Y-37166924D01*
X-60686697Y-37298043D01*
X-60444419Y-37398398D01*
X-60191116Y-37466270D01*
X-59931120Y-37500500D01*
X-59931113Y-37500500D01*
X-59668887Y-37500500D01*
X-59668880Y-37500500D01*
X-59408884Y-37466270D01*
X-59155581Y-37398398D01*
X-59145149Y-37394077D01*
X-58913309Y-37298046D01*
X-58913299Y-37298041D01*
X-58833773Y-37252127D01*
X-54250500Y-37252127D01*
X-54250499Y-39347872D01*
X-54244091Y-39407483D01*
X-54193796Y-39542331D01*
X-54107546Y-39657546D01*
X-53992331Y-39743796D01*
X-53857483Y-39794091D01*
X-53797873Y-39800500D01*
X-51802128Y-39800499D01*
X-51753757Y-39795299D01*
X-51742516Y-39794091D01*
X-51607671Y-39743797D01*
X-51607664Y-39743793D01*
X-51492456Y-39657548D01*
X-51492455Y-39657546D01*
X-51492454Y-39657546D01*
X-51476027Y-39635602D01*
X-51420095Y-39593733D01*
X-51350403Y-39588749D01*
X-51289084Y-39622231D01*
X-51204937Y-39706379D01*
X-51020228Y-39840579D01*
X-50816799Y-39944231D01*
X-50618732Y-40008587D01*
X-50599660Y-40014784D01*
X-50374162Y-40050500D01*
X-50374157Y-40050500D01*
X-50145838Y-40050500D01*
X-49920339Y-40014784D01*
X-49819592Y-39982049D01*
X-49703201Y-39944231D01*
X-49703198Y-39944229D01*
X-49703196Y-39944229D01*
X-49595884Y-39889550D01*
X-49499772Y-39840579D01*
X-49315063Y-39706379D01*
X-49153621Y-39544937D01*
X-49090006Y-39457380D01*
X-49034679Y-39414717D01*
X-48965066Y-39408738D01*
X-48903271Y-39441344D01*
X-48889373Y-39457383D01*
X-48826000Y-39544608D01*
X-48825995Y-39544614D01*
X-48664614Y-39705995D01*
X-48479966Y-39840150D01*
X-48276604Y-39943769D01*
X-48059544Y-40014295D01*
X-47970000Y-40028477D01*
X-47970000Y-38848482D01*
X-47951591Y-38859111D01*
X-47798991Y-38900000D01*
X-47641009Y-38900000D01*
X-47488409Y-38859111D01*
X-47470000Y-38848482D01*
X-47470000Y-40028478D01*
X-47380455Y-40014295D01*
X-47163395Y-39943769D01*
X-46960033Y-39840150D01*
X-46775385Y-39705995D01*
X-46614004Y-39544614D01*
X-46479849Y-39359966D01*
X-46398074Y-39199474D01*
X-40745921Y-39199474D01*
X-40701349Y-39231859D01*
X-40519031Y-39324755D01*
X-40324417Y-39387990D01*
X-40122317Y-39420000D01*
X-39917683Y-39420000D01*
X-39715582Y-39387990D01*
X-39520968Y-39324755D01*
X-39338650Y-39231859D01*
X-39294077Y-39199474D01*
X-39294076Y-39199474D01*
X-38205921Y-39199474D01*
X-38161349Y-39231859D01*
X-37979031Y-39324755D01*
X-37784417Y-39387990D01*
X-37582317Y-39420000D01*
X-37377683Y-39420000D01*
X-37175582Y-39387990D01*
X-36980968Y-39324755D01*
X-36798650Y-39231859D01*
X-36754077Y-39199474D01*
X-36754076Y-39199474D01*
X-35665921Y-39199474D01*
X-35621349Y-39231859D01*
X-35439031Y-39324755D01*
X-35244417Y-39387990D01*
X-35042317Y-39420000D01*
X-34837683Y-39420000D01*
X-34635582Y-39387990D01*
X-34440968Y-39324755D01*
X-34258650Y-39231859D01*
X-34214077Y-39199474D01*
X-34214076Y-39199474D01*
X-34940000Y-38473553D01*
X-35665921Y-39199474D01*
X-36754076Y-39199474D01*
X-37480000Y-38473553D01*
X-38205921Y-39199474D01*
X-39294076Y-39199474D01*
X-40020000Y-38473553D01*
X-40745921Y-39199474D01*
X-46398074Y-39199474D01*
X-46376230Y-39156604D01*
X-46362354Y-39113897D01*
X-46305704Y-38939544D01*
X-46270000Y-38714116D01*
X-46270000Y-38550000D01*
X-47171518Y-38550000D01*
X-47160889Y-38531591D01*
X-47120000Y-38378991D01*
X-47120000Y-38221009D01*
X-47160889Y-38068409D01*
X-47171518Y-38050000D01*
X-46270000Y-38050000D01*
X-46270000Y-38017682D01*
X-41320000Y-38017682D01*
X-41320000Y-38222317D01*
X-41287990Y-38424417D01*
X-41224755Y-38619031D01*
X-41131859Y-38801349D01*
X-41099474Y-38845921D01*
X-41099474Y-38845922D01*
X-40491671Y-38238119D01*
X-40481940Y-38261614D01*
X-40411614Y-38331940D01*
X-40319728Y-38370000D01*
X-39720272Y-38370000D01*
X-39628386Y-38331940D01*
X-39558060Y-38261614D01*
X-39548328Y-38238118D01*
X-38940524Y-38845922D01*
X-38940523Y-38845921D01*
X-38908147Y-38801359D01*
X-38908141Y-38801350D01*
X-38860485Y-38707819D01*
X-38812511Y-38657023D01*
X-38744690Y-38640228D01*
X-38678555Y-38662765D01*
X-38639515Y-38707820D01*
X-38591861Y-38801346D01*
X-38591861Y-38801347D01*
X-38559474Y-38845921D01*
X-38559474Y-38845922D01*
X-37951671Y-38238119D01*
X-37941940Y-38261614D01*
X-37871614Y-38331940D01*
X-37779728Y-38370000D01*
X-37180272Y-38370000D01*
X-37088386Y-38331940D01*
X-37018060Y-38261614D01*
X-37008328Y-38238118D01*
X-36400524Y-38845922D01*
X-36400523Y-38845921D01*
X-36368147Y-38801359D01*
X-36368141Y-38801350D01*
X-36320485Y-38707819D01*
X-36272511Y-38657023D01*
X-36204690Y-38640228D01*
X-36138555Y-38662765D01*
X-36099515Y-38707820D01*
X-36051861Y-38801346D01*
X-36051861Y-38801347D01*
X-36019474Y-38845921D01*
X-36019474Y-38845922D01*
X-35411671Y-38238119D01*
X-35401940Y-38261614D01*
X-35331614Y-38331940D01*
X-35239728Y-38370000D01*
X-34640272Y-38370000D01*
X-34548386Y-38331940D01*
X-34478060Y-38261614D01*
X-34468327Y-38238118D01*
X-33860524Y-38845922D01*
X-33860523Y-38845921D01*
X-33828147Y-38801359D01*
X-33828141Y-38801350D01*
X-33780765Y-38708369D01*
X-33732790Y-38657573D01*
X-33664969Y-38640778D01*
X-33598835Y-38663315D01*
X-33559795Y-38708369D01*
X-33512415Y-38801359D01*
X-33512286Y-38801611D01*
X-33391971Y-38967213D01*
X-33391968Y-38967215D01*
X-33391966Y-38967219D01*
X-33247219Y-39111966D01*
X-33247215Y-39111968D01*
X-33247213Y-39111971D01*
X-33188048Y-39154956D01*
X-33081610Y-39232287D01*
X-32899219Y-39325220D01*
X-32704534Y-39388477D01*
X-32502352Y-39420500D01*
X-32502351Y-39420500D01*
X-32297649Y-39420500D01*
X-32297648Y-39420500D01*
X-32196557Y-39404488D01*
X-32095465Y-39388477D01*
X-31970491Y-39347870D01*
X-31900781Y-39325220D01*
X-31900778Y-39325218D01*
X-31900776Y-39325218D01*
X-31834607Y-39291503D01*
X-31718390Y-39232287D01*
X-31668143Y-39195781D01*
X-31552786Y-39111971D01*
X-31408028Y-38967213D01*
X-31287715Y-38801613D01*
X-31287585Y-38801359D01*
X-31251588Y-38730711D01*
X-31194781Y-38619223D01*
X-31131522Y-38424534D01*
X-31099500Y-38222351D01*
X-31099500Y-38017648D01*
X-31131522Y-37815465D01*
X-31194781Y-37620776D01*
X-31287715Y-37438386D01*
X-31408028Y-37272786D01*
X-31552786Y-37128028D01*
X-31718386Y-37007715D01*
X-31900776Y-36914781D01*
X-32095465Y-36851522D01*
X-32282805Y-36821851D01*
X-32297648Y-36819500D01*
X-32502352Y-36819500D01*
X-32517195Y-36821851D01*
X-32704534Y-36851522D01*
X-32899223Y-36914781D01*
X-32996596Y-36964396D01*
X-33081610Y-37007713D01*
X-33081612Y-37007714D01*
X-33081613Y-37007715D01*
X-33247213Y-37128028D01*
X-33391971Y-37272786D01*
X-33512284Y-37438385D01*
X-33512285Y-37438387D01*
X-33512287Y-37438390D01*
X-33545793Y-37504149D01*
X-33559795Y-37531630D01*
X-33607770Y-37582426D01*
X-33675591Y-37599221D01*
X-33741725Y-37576684D01*
X-33780765Y-37531630D01*
X-33828143Y-37438644D01*
X-33860523Y-37394077D01*
X-33860524Y-37394077D01*
X-34468328Y-38001881D01*
X-34478060Y-37978386D01*
X-34548386Y-37908060D01*
X-34640272Y-37870000D01*
X-35239728Y-37870000D01*
X-35331614Y-37908060D01*
X-35401940Y-37978386D01*
X-35411671Y-38001880D01*
X-36019474Y-37394076D01*
X-36019474Y-37394077D01*
X-36051859Y-37438650D01*
X-36099515Y-37532180D01*
X-36147489Y-37582976D01*
X-36215310Y-37599771D01*
X-36281445Y-37577234D01*
X-36320485Y-37532180D01*
X-36368143Y-37438644D01*
X-36400523Y-37394077D01*
X-36400524Y-37394077D01*
X-37008328Y-38001881D01*
X-37018060Y-37978386D01*
X-37088386Y-37908060D01*
X-37180272Y-37870000D01*
X-37779728Y-37870000D01*
X-37871614Y-37908060D01*
X-37941940Y-37978386D01*
X-37951671Y-38001880D01*
X-38559474Y-37394076D01*
X-38559474Y-37394077D01*
X-38591859Y-37438650D01*
X-38639515Y-37532180D01*
X-38687489Y-37582976D01*
X-38755310Y-37599771D01*
X-38821445Y-37577234D01*
X-38860485Y-37532180D01*
X-38908143Y-37438644D01*
X-38940523Y-37394077D01*
X-38940524Y-37394077D01*
X-39548328Y-38001881D01*
X-39558060Y-37978386D01*
X-39628386Y-37908060D01*
X-39720272Y-37870000D01*
X-40319728Y-37870000D01*
X-40411614Y-37908060D01*
X-40481940Y-37978386D01*
X-40491671Y-38001880D01*
X-41099474Y-37394076D01*
X-41099474Y-37394077D01*
X-41131859Y-37438650D01*
X-41224755Y-37620968D01*
X-41287990Y-37815582D01*
X-41320000Y-38017682D01*
X-46270000Y-38017682D01*
X-46270000Y-37885883D01*
X-46305704Y-37660455D01*
X-46376230Y-37443395D01*
X-46479849Y-37240033D01*
X-46537511Y-37160670D01*
X-46537511Y-37160668D01*
X-46613999Y-37055391D01*
X-46614004Y-37055385D01*
X-46628865Y-37040524D01*
X-40745922Y-37040524D01*
X-40020000Y-37766446D01*
X-39294077Y-37040524D01*
X-38205922Y-37040524D01*
X-37480000Y-37766446D01*
X-36754077Y-37040524D01*
X-35665922Y-37040524D01*
X-34940000Y-37766446D01*
X-34214077Y-37040524D01*
X-34214077Y-37040523D01*
X-34258644Y-37008143D01*
X-34440968Y-36915244D01*
X-34635582Y-36852009D01*
X-34837683Y-36820000D01*
X-35042317Y-36820000D01*
X-35244417Y-36852009D01*
X-35439031Y-36915244D01*
X-35621350Y-37008141D01*
X-35621359Y-37008147D01*
X-35665921Y-37040523D01*
X-35665922Y-37040524D01*
X-36754077Y-37040524D01*
X-36754077Y-37040523D01*
X-36798644Y-37008143D01*
X-36980968Y-36915244D01*
X-37175582Y-36852009D01*
X-37377683Y-36820000D01*
X-37582317Y-36820000D01*
X-37784417Y-36852009D01*
X-37979031Y-36915244D01*
X-38161350Y-37008141D01*
X-38161359Y-37008147D01*
X-38205921Y-37040523D01*
X-38205922Y-37040524D01*
X-39294077Y-37040524D01*
X-39294077Y-37040523D01*
X-39338644Y-37008143D01*
X-39520968Y-36915244D01*
X-39715582Y-36852009D01*
X-39917683Y-36820000D01*
X-40122317Y-36820000D01*
X-40324417Y-36852009D01*
X-40519031Y-36915244D01*
X-40701350Y-37008141D01*
X-40701359Y-37008147D01*
X-40745921Y-37040523D01*
X-40745922Y-37040524D01*
X-46628865Y-37040524D01*
X-46775385Y-36894004D01*
X-46960033Y-36759849D01*
X-47163397Y-36656229D01*
X-47380458Y-36585703D01*
X-47469999Y-36571521D01*
X-47470000Y-36571521D01*
X-47470000Y-37751517D01*
X-47488409Y-37740889D01*
X-47641009Y-37700000D01*
X-47798991Y-37700000D01*
X-47951591Y-37740889D01*
X-47970000Y-37751517D01*
X-47970000Y-36571521D01*
X-48059541Y-36585703D01*
X-48276602Y-36656229D01*
X-48479966Y-36759849D01*
X-48664614Y-36894004D01*
X-48825995Y-37055385D01*
X-48826000Y-37055391D01*
X-48889373Y-37142616D01*
X-48944703Y-37185282D01*
X-49014316Y-37191261D01*
X-49076111Y-37158655D01*
X-49090009Y-37142617D01*
X-49100609Y-37128028D01*
X-49151726Y-37057671D01*
X-49153622Y-37055061D01*
X-49315061Y-36893622D01*
X-49499771Y-36759421D01*
X-49703196Y-36655770D01*
X-49920339Y-36585215D01*
X-50145838Y-36549500D01*
X-50145843Y-36549500D01*
X-50374157Y-36549500D01*
X-50374162Y-36549500D01*
X-50599660Y-36585215D01*
X-50816803Y-36655770D01*
X-51020228Y-36759421D01*
X-51153434Y-36856202D01*
X-51204938Y-36893622D01*
X-51289081Y-36977765D01*
X-51350404Y-37011250D01*
X-51420096Y-37006266D01*
X-51476028Y-36964396D01*
X-51492455Y-36942452D01*
X-51607664Y-36856206D01*
X-51607671Y-36856202D01*
X-51742517Y-36805908D01*
X-51742516Y-36805908D01*
X-51802116Y-36799501D01*
X-51802119Y-36799500D01*
X-51802127Y-36799500D01*
X-51802135Y-36799500D01*
X-51875500Y-36799500D01*
X-51942539Y-36779815D01*
X-51988294Y-36727011D01*
X-51999500Y-36675500D01*
X-51999500Y-30497648D01*
X-41320500Y-30497648D01*
X-41320500Y-30702352D01*
X-41288477Y-30904534D01*
X-41225220Y-31099219D01*
X-41132287Y-31281610D01*
X-41071264Y-31365602D01*
X-41011971Y-31447213D01*
X-41011968Y-31447215D01*
X-41011966Y-31447219D01*
X-40867219Y-31591966D01*
X-40867215Y-31591968D01*
X-40867213Y-31591971D01*
X-40837163Y-31613803D01*
X-40701610Y-31712287D01*
X-40519219Y-31805220D01*
X-40324534Y-31868477D01*
X-40122352Y-31900500D01*
X-40122351Y-31900500D01*
X-39917649Y-31900500D01*
X-39917648Y-31900500D01*
X-39816557Y-31884488D01*
X-39715465Y-31868477D01*
X-39571994Y-31821860D01*
X-39520781Y-31805220D01*
X-39520778Y-31805218D01*
X-39520776Y-31805218D01*
X-39454607Y-31771503D01*
X-39338390Y-31712287D01*
X-39327749Y-31704556D01*
X-39172786Y-31591971D01*
X-39028028Y-31447213D01*
X-38907715Y-31281614D01*
X-38860485Y-31188919D01*
X-38812511Y-31138123D01*
X-38744690Y-31121328D01*
X-38678555Y-31143865D01*
X-38639516Y-31188917D01*
X-38592287Y-31281610D01*
X-38592286Y-31281611D01*
X-38592284Y-31281614D01*
X-38471971Y-31447213D01*
X-38471968Y-31447215D01*
X-38471966Y-31447219D01*
X-38327219Y-31591966D01*
X-38327215Y-31591968D01*
X-38327213Y-31591971D01*
X-38297163Y-31613803D01*
X-38161610Y-31712287D01*
X-37979219Y-31805220D01*
X-37784534Y-31868477D01*
X-37582352Y-31900500D01*
X-37582351Y-31900500D01*
X-37377649Y-31900500D01*
X-37377648Y-31900500D01*
X-37276557Y-31884488D01*
X-37175465Y-31868477D01*
X-37031994Y-31821860D01*
X-36980781Y-31805220D01*
X-36980778Y-31805218D01*
X-36980776Y-31805218D01*
X-36914607Y-31771503D01*
X-36798390Y-31712287D01*
X-36787749Y-31704556D01*
X-36632786Y-31591971D01*
X-36488028Y-31447213D01*
X-36367715Y-31281614D01*
X-36320485Y-31188919D01*
X-36272511Y-31138123D01*
X-36204690Y-31121328D01*
X-36138555Y-31143865D01*
X-36099516Y-31188917D01*
X-36052287Y-31281610D01*
X-36052286Y-31281611D01*
X-36052284Y-31281614D01*
X-35931971Y-31447213D01*
X-35931968Y-31447215D01*
X-35931966Y-31447219D01*
X-35787219Y-31591966D01*
X-35787215Y-31591968D01*
X-35787213Y-31591971D01*
X-35757163Y-31613803D01*
X-35621610Y-31712287D01*
X-35439219Y-31805220D01*
X-35244534Y-31868477D01*
X-35042352Y-31900500D01*
X-35042351Y-31900500D01*
X-34837649Y-31900500D01*
X-34837648Y-31900500D01*
X-34736557Y-31884488D01*
X-34635465Y-31868477D01*
X-34491994Y-31821860D01*
X-34440781Y-31805220D01*
X-34440778Y-31805218D01*
X-34440776Y-31805218D01*
X-34374607Y-31771503D01*
X-34258390Y-31712287D01*
X-34247749Y-31704556D01*
X-34092786Y-31591971D01*
X-33948028Y-31447213D01*
X-33827715Y-31281614D01*
X-33780485Y-31188919D01*
X-33732511Y-31138123D01*
X-33664690Y-31121328D01*
X-33598555Y-31143865D01*
X-33559516Y-31188917D01*
X-33512287Y-31281610D01*
X-33512286Y-31281611D01*
X-33512284Y-31281614D01*
X-33391971Y-31447213D01*
X-33391968Y-31447215D01*
X-33391966Y-31447219D01*
X-33247219Y-31591966D01*
X-33247215Y-31591968D01*
X-33247213Y-31591971D01*
X-33217163Y-31613803D01*
X-33081610Y-31712287D01*
X-32899219Y-31805220D01*
X-32704534Y-31868477D01*
X-32502352Y-31900500D01*
X-32502351Y-31900500D01*
X-32297649Y-31900500D01*
X-32297648Y-31900500D01*
X-32196557Y-31884488D01*
X-32095465Y-31868477D01*
X-31951994Y-31821860D01*
X-31900781Y-31805220D01*
X-31900778Y-31805218D01*
X-31900776Y-31805218D01*
X-31834607Y-31771503D01*
X-31718390Y-31712287D01*
X-31707749Y-31704556D01*
X-31552786Y-31591971D01*
X-31408034Y-31447219D01*
X-31364063Y-31386697D01*
X-31348737Y-31365603D01*
X-27050500Y-31365603D01*
X-27050500Y-31634397D01*
X-27015416Y-31900891D01*
X-26945847Y-32160526D01*
X-26842984Y-32408859D01*
X-26708587Y-32641641D01*
X-26544956Y-32854890D01*
X-26354890Y-33044956D01*
X-26141641Y-33208587D01*
X-25908859Y-33342984D01*
X-25908853Y-33342986D01*
X-25908850Y-33342988D01*
X-25847457Y-33368417D01*
X-25660526Y-33445847D01*
X-25400891Y-33515416D01*
X-25194905Y-33542534D01*
X-25134398Y-33550500D01*
X-25134397Y-33550500D01*
X-24865602Y-33550500D01*
X-24787319Y-33540193D01*
X-24599109Y-33515416D01*
X-24339474Y-33445847D01*
X-24246008Y-33407132D01*
X-24091149Y-33342988D01*
X-24091133Y-33342980D01*
X-24007968Y-33294964D01*
X-23858359Y-33208587D01*
X-23645110Y-33044956D01*
X-23645104Y-33044951D01*
X-23455048Y-32854895D01*
X-23455042Y-32854888D01*
X-23291416Y-32641645D01*
X-23291415Y-32641644D01*
X-23291413Y-32641641D01*
X-23190162Y-32466270D01*
X-23157019Y-32408866D01*
X-23157011Y-32408850D01*
X-23054152Y-32160524D01*
X-22984585Y-31900893D01*
X-22984584Y-31900891D01*
X-22984583Y-31900885D01*
X-22984582Y-31900880D01*
X-22949500Y-31634397D01*
X-22949500Y-31365602D01*
X-22984582Y-31099119D01*
X-22984585Y-31099106D01*
X-23054152Y-30839475D01*
X-23157011Y-30591149D01*
X-23157019Y-30591133D01*
X-23291416Y-30358354D01*
X-23455042Y-30145111D01*
X-23455048Y-30145104D01*
X-23645104Y-29955048D01*
X-23645111Y-29955042D01*
X-23858354Y-29791416D01*
X-24091133Y-29657019D01*
X-24091149Y-29657011D01*
X-24339475Y-29554152D01*
X-24544239Y-29499286D01*
X-24599109Y-29484584D01*
X-24599112Y-29484583D01*
X-24599119Y-29484582D01*
X-24865602Y-29449500D01*
X-24865603Y-29449500D01*
X-25134397Y-29449500D01*
X-25134398Y-29449500D01*
X-25400880Y-29484582D01*
X-25400885Y-29484583D01*
X-25400891Y-29484584D01*
X-25530708Y-29519368D01*
X-25660524Y-29554152D01*
X-25908850Y-29657011D01*
X-25908866Y-29657019D01*
X-26048832Y-29737830D01*
X-26141641Y-29791413D01*
X-26141644Y-29791415D01*
X-26141645Y-29791416D01*
X-26354888Y-29955042D01*
X-26354895Y-29955048D01*
X-26544951Y-30145104D01*
X-26544956Y-30145110D01*
X-26708587Y-30358359D01*
X-26789006Y-30497648D01*
X-26842980Y-30591133D01*
X-26842988Y-30591149D01*
X-26859541Y-30631113D01*
X-26945847Y-30839474D01*
X-27015416Y-31099109D01*
X-27050500Y-31365603D01*
X-31348737Y-31365603D01*
X-31292232Y-31287830D01*
X-31287713Y-31281611D01*
X-31194781Y-31099223D01*
X-31131522Y-30904534D01*
X-31099500Y-30702351D01*
X-31099500Y-30497648D01*
X-31131522Y-30295465D01*
X-31194781Y-30100776D01*
X-31287715Y-29918386D01*
X-31408028Y-29752786D01*
X-31552786Y-29608028D01*
X-31718386Y-29487715D01*
X-31900776Y-29394781D01*
X-32095465Y-29331522D01*
X-32273329Y-29303351D01*
X-32297648Y-29299500D01*
X-32502352Y-29299500D01*
X-32529995Y-29303878D01*
X-32704534Y-29331522D01*
X-32899223Y-29394781D01*
X-33006613Y-29449500D01*
X-33081610Y-29487713D01*
X-33081612Y-29487714D01*
X-33081613Y-29487715D01*
X-33247213Y-29608028D01*
X-33391971Y-29752786D01*
X-33466647Y-29855571D01*
X-33512287Y-29918390D01*
X-33530962Y-29955042D01*
X-33559515Y-30011080D01*
X-33607490Y-30061876D01*
X-33675311Y-30078671D01*
X-33741446Y-30056134D01*
X-33780485Y-30011080D01*
X-33827715Y-29918386D01*
X-33948028Y-29752786D01*
X-34092786Y-29608028D01*
X-34258386Y-29487715D01*
X-34440776Y-29394781D01*
X-34635465Y-29331522D01*
X-34813329Y-29303351D01*
X-34837648Y-29299500D01*
X-35042352Y-29299500D01*
X-35069995Y-29303878D01*
X-35244534Y-29331522D01*
X-35439223Y-29394781D01*
X-35546613Y-29449500D01*
X-35621610Y-29487713D01*
X-35621612Y-29487714D01*
X-35621613Y-29487715D01*
X-35787213Y-29608028D01*
X-35931971Y-29752786D01*
X-36006647Y-29855571D01*
X-36052287Y-29918390D01*
X-36070962Y-29955042D01*
X-36099515Y-30011080D01*
X-36147490Y-30061876D01*
X-36215311Y-30078671D01*
X-36281446Y-30056134D01*
X-36320485Y-30011080D01*
X-36367715Y-29918386D01*
X-36488028Y-29752786D01*
X-36632786Y-29608028D01*
X-36798386Y-29487715D01*
X-36980776Y-29394781D01*
X-37175465Y-29331522D01*
X-37353329Y-29303351D01*
X-37377648Y-29299500D01*
X-37582352Y-29299500D01*
X-37609995Y-29303878D01*
X-37784534Y-29331522D01*
X-37979223Y-29394781D01*
X-38086613Y-29449500D01*
X-38161610Y-29487713D01*
X-38161612Y-29487714D01*
X-38161613Y-29487715D01*
X-38327213Y-29608028D01*
X-38471971Y-29752786D01*
X-38546647Y-29855571D01*
X-38592287Y-29918390D01*
X-38610962Y-29955042D01*
X-38639515Y-30011080D01*
X-38687490Y-30061876D01*
X-38755311Y-30078671D01*
X-38821446Y-30056134D01*
X-38860485Y-30011080D01*
X-38907715Y-29918386D01*
X-39028028Y-29752786D01*
X-39172786Y-29608028D01*
X-39338386Y-29487715D01*
X-39520776Y-29394781D01*
X-39715465Y-29331522D01*
X-39893329Y-29303351D01*
X-39917648Y-29299500D01*
X-40122352Y-29299500D01*
X-40149995Y-29303878D01*
X-40324534Y-29331522D01*
X-40519223Y-29394781D01*
X-40626613Y-29449500D01*
X-40701610Y-29487713D01*
X-40701612Y-29487714D01*
X-40701613Y-29487715D01*
X-40867213Y-29608028D01*
X-41011971Y-29752786D01*
X-41086647Y-29855571D01*
X-41132287Y-29918390D01*
X-41150963Y-29955044D01*
X-41225218Y-30100776D01*
X-41225218Y-30100778D01*
X-41225220Y-30100781D01*
X-41259127Y-30205137D01*
X-41288477Y-30295465D01*
X-41300104Y-30368872D01*
X-41320500Y-30497648D01*
X-51999500Y-30497648D01*
X-51999500Y-29684797D01*
X-51979815Y-29617758D01*
X-51940596Y-29579258D01*
X-51881344Y-29542712D01*
X-51757288Y-29418656D01*
X-51665186Y-29269334D01*
X-51610001Y-29102797D01*
X-51610001Y-29102795D01*
X-51610000Y-29102795D01*
X-51599500Y-29000016D01*
X-51599500Y-28199998D01*
X-51599501Y-28199980D01*
X-51610000Y-28097203D01*
X-51610001Y-28097200D01*
X-51665185Y-27930668D01*
X-51665187Y-27930663D01*
X-51757287Y-27781345D01*
X-51850951Y-27687681D01*
X-51855289Y-27679734D01*
X-51862536Y-27674310D01*
X-51871770Y-27649550D01*
X-51884435Y-27626357D01*
X-51883789Y-27617328D01*
X-51886953Y-27608846D01*
X-51881336Y-27583025D01*
X-51879451Y-27556666D01*
X-51873632Y-27547612D01*
X-51872101Y-27540573D01*
X-51850950Y-27512319D01*
X-51775450Y-27436819D01*
X-51714127Y-27403334D01*
X-51687769Y-27400500D01*
X-47812231Y-27400500D01*
X-47745192Y-27420185D01*
X-47724550Y-27436818D01*
X-47618656Y-27542712D01*
X-47559403Y-27579258D01*
X-47512679Y-27631204D01*
X-47500500Y-27684797D01*
X-47500500Y-27959565D01*
X-47520185Y-28026604D01*
X-47521398Y-28028456D01*
X-47586632Y-28126086D01*
X-47662051Y-28308165D01*
X-47662051Y-28308169D01*
X-47662052Y-28308170D01*
X-47700500Y-28501456D01*
X-47700500Y-28698543D01*
X-47674632Y-28828582D01*
X-47662051Y-28891835D01*
X-47586632Y-29073914D01*
X-47477139Y-29237782D01*
X-47337782Y-29377139D01*
X-47173914Y-29486632D01*
X-47173907Y-29486634D01*
X-47173907Y-29486635D01*
X-47132655Y-29503721D01*
X-46991835Y-29562051D01*
X-46928582Y-29574632D01*
X-46798543Y-29600500D01*
X-46798541Y-29600500D01*
X-46601456Y-29600500D01*
X-46408170Y-29562052D01*
X-46408169Y-29562051D01*
X-46408165Y-29562051D01*
X-46361476Y-29542712D01*
X-46226092Y-29486635D01*
X-46226079Y-29486628D01*
X-46062218Y-29377139D01*
X-46062214Y-29377136D01*
X-45922863Y-29237785D01*
X-45922860Y-29237781D01*
X-45813371Y-29073920D01*
X-45813364Y-29073907D01*
X-45737950Y-28891839D01*
X-45737947Y-28891829D01*
X-45699500Y-28698543D01*
X-45699500Y-28501456D01*
X-45699499Y-28501456D01*
X-45737947Y-28308170D01*
X-45737950Y-28308160D01*
X-45813366Y-28126088D01*
X-45878602Y-28028456D01*
X-45899480Y-27961778D01*
X-45899500Y-27959565D01*
X-45899500Y-27684797D01*
X-45879815Y-27617758D01*
X-45856020Y-27590497D01*
X-45848742Y-27584283D01*
X-45781344Y-27542712D01*
X-45672004Y-27433372D01*
X-45668289Y-27430200D01*
X-45640681Y-27417833D01*
X-45614127Y-27403334D01*
X-45606475Y-27402511D01*
X-45604524Y-27401637D01*
X-45601955Y-27402025D01*
X-45587769Y-27400500D01*
X-39862698Y-27400500D01*
X-39795659Y-27420185D01*
X-39762380Y-27451615D01*
X-39718247Y-27512359D01*
X-39718244Y-27512361D01*
X-39718242Y-27512365D01*
X-39562365Y-27668242D01*
X-39384022Y-27797815D01*
X-39187606Y-27897895D01*
X-38977951Y-27966015D01*
X-38760222Y-28000500D01*
X-38760221Y-28000500D01*
X-38539779Y-28000500D01*
X-38539778Y-28000500D01*
X-38322049Y-27966015D01*
X-38213245Y-27930663D01*
X-38112396Y-27897896D01*
X-38112393Y-27897895D01*
X-38044375Y-27863237D01*
X-37915978Y-27797815D01*
X-37893192Y-27781260D01*
X-37737641Y-27668247D01*
X-37737636Y-27668243D01*
X-37581756Y-27512363D01*
X-37581752Y-27512358D01*
X-37480318Y-27372745D01*
X-37424989Y-27330079D01*
X-37355375Y-27324100D01*
X-37293580Y-27356705D01*
X-37279682Y-27372745D01*
X-37237938Y-27430200D01*
X-37178242Y-27512365D01*
X-37022365Y-27668242D01*
X-36844022Y-27797815D01*
X-36647606Y-27897895D01*
X-36437951Y-27966015D01*
X-36220222Y-28000500D01*
X-36220221Y-28000500D01*
X-35999779Y-28000500D01*
X-35999778Y-28000500D01*
X-35782049Y-27966015D01*
X-35673245Y-27930663D01*
X-35572396Y-27897896D01*
X-35572393Y-27897895D01*
X-35504375Y-27863237D01*
X-35375978Y-27797815D01*
X-35353192Y-27781260D01*
X-35197641Y-27668247D01*
X-35197636Y-27668243D01*
X-35041756Y-27512363D01*
X-35041752Y-27512358D01*
X-34940318Y-27372745D01*
X-34884989Y-27330079D01*
X-34815375Y-27324100D01*
X-34753580Y-27356705D01*
X-34739682Y-27372745D01*
X-34697938Y-27430200D01*
X-34638242Y-27512365D01*
X-34482365Y-27668242D01*
X-34304022Y-27797815D01*
X-34107606Y-27897895D01*
X-33897951Y-27966015D01*
X-33680222Y-28000500D01*
X-33680221Y-28000500D01*
X-33459779Y-28000500D01*
X-33459778Y-28000500D01*
X-33242049Y-27966015D01*
X-33133245Y-27930663D01*
X-33032396Y-27897896D01*
X-33032393Y-27897895D01*
X-32964375Y-27863237D01*
X-32835978Y-27797815D01*
X-32813192Y-27781260D01*
X-32657641Y-27668247D01*
X-32657636Y-27668243D01*
X-32501756Y-27512363D01*
X-32501752Y-27512358D01*
X-32400318Y-27372745D01*
X-32344989Y-27330079D01*
X-32275375Y-27324100D01*
X-32213580Y-27356705D01*
X-32199682Y-27372745D01*
X-32157938Y-27430200D01*
X-32098242Y-27512365D01*
X-31942365Y-27668242D01*
X-31764022Y-27797815D01*
X-31567606Y-27897895D01*
X-31357951Y-27966015D01*
X-31140222Y-28000500D01*
X-31140221Y-28000500D01*
X-30919779Y-28000500D01*
X-30919778Y-28000500D01*
X-30702049Y-27966015D01*
X-30593245Y-27930663D01*
X-30492396Y-27897896D01*
X-30492393Y-27897895D01*
X-30424375Y-27863237D01*
X-30295978Y-27797815D01*
X-30273192Y-27781260D01*
X-30117641Y-27668247D01*
X-30117636Y-27668243D01*
X-29961756Y-27512363D01*
X-29961752Y-27512358D01*
X-29860318Y-27372745D01*
X-29804989Y-27330079D01*
X-29735375Y-27324100D01*
X-29673580Y-27356705D01*
X-29659682Y-27372745D01*
X-29617938Y-27430200D01*
X-29558242Y-27512365D01*
X-29402365Y-27668242D01*
X-29224022Y-27797815D01*
X-29027606Y-27897895D01*
X-28817951Y-27966015D01*
X-28600222Y-28000500D01*
X-28600221Y-28000500D01*
X-28379779Y-28000500D01*
X-28379778Y-28000500D01*
X-28162049Y-27966015D01*
X-28053245Y-27930663D01*
X-27952396Y-27897896D01*
X-27952393Y-27897895D01*
X-27884375Y-27863237D01*
X-27755978Y-27797815D01*
X-27733192Y-27781260D01*
X-27577641Y-27668247D01*
X-27577636Y-27668243D01*
X-27421756Y-27512363D01*
X-27421752Y-27512358D01*
X-27320318Y-27372745D01*
X-27264989Y-27330079D01*
X-27195375Y-27324100D01*
X-27133580Y-27356705D01*
X-27119682Y-27372745D01*
X-27077938Y-27430200D01*
X-27018242Y-27512365D01*
X-26862365Y-27668242D01*
X-26684022Y-27797815D01*
X-26487606Y-27897895D01*
X-26277951Y-27966015D01*
X-26060222Y-28000500D01*
X-26060221Y-28000500D01*
X-25839779Y-28000500D01*
X-25839778Y-28000500D01*
X-25622049Y-27966015D01*
X-25513245Y-27930663D01*
X-25412396Y-27897896D01*
X-25412393Y-27897895D01*
X-25344375Y-27863237D01*
X-25215978Y-27797815D01*
X-25193192Y-27781260D01*
X-25037641Y-27668247D01*
X-25037636Y-27668243D01*
X-24881756Y-27512363D01*
X-24881752Y-27512358D01*
X-24780318Y-27372745D01*
X-24724989Y-27330079D01*
X-24655375Y-27324100D01*
X-24593580Y-27356705D01*
X-24579682Y-27372745D01*
X-24537938Y-27430200D01*
X-24478242Y-27512365D01*
X-24322365Y-27668242D01*
X-24144022Y-27797815D01*
X-23947606Y-27897895D01*
X-23737951Y-27966015D01*
X-23520222Y-28000500D01*
X-23520221Y-28000500D01*
X-23299779Y-28000500D01*
X-23299778Y-28000500D01*
X-23082049Y-27966015D01*
X-22973245Y-27930663D01*
X-22872396Y-27897896D01*
X-22872393Y-27897895D01*
X-22804375Y-27863237D01*
X-22675978Y-27797815D01*
X-22653192Y-27781260D01*
X-22497641Y-27668247D01*
X-22497636Y-27668243D01*
X-22341756Y-27512363D01*
X-22341752Y-27512358D01*
X-22212187Y-27334025D01*
X-22207129Y-27324100D01*
X-22179223Y-27269331D01*
X-22112104Y-27137606D01*
X-22112103Y-27137603D01*
X-22043985Y-26927952D01*
X-22009500Y-26710221D01*
X-22009500Y-26489778D01*
X-22043985Y-26272047D01*
X-22112103Y-26062396D01*
X-22112106Y-26062388D01*
X-22190264Y-25909000D01*
X-22190263Y-25909000D01*
X-22210176Y-25869920D01*
X-22212187Y-25865973D01*
X-22341752Y-25687641D01*
X-22341756Y-25687636D01*
X-22497636Y-25531756D01*
X-22497641Y-25531752D01*
X-22675974Y-25402187D01*
X-22872393Y-25302104D01*
X-22872396Y-25302103D01*
X-23082047Y-25233985D01*
X-23227201Y-25210995D01*
X-23299778Y-25199500D01*
X-23520222Y-25199500D01*
X-23629086Y-25216742D01*
X-23737952Y-25233985D01*
X-23947603Y-25302103D01*
X-23947606Y-25302104D01*
X-24078642Y-25368872D01*
X-24144022Y-25402185D01*
X-24144024Y-25402186D01*
X-24144025Y-25402187D01*
X-24322358Y-25531752D01*
X-24322363Y-25531756D01*
X-24478243Y-25687636D01*
X-24478247Y-25687641D01*
X-24579682Y-25827254D01*
X-24635012Y-25869920D01*
X-24704625Y-25875899D01*
X-24766420Y-25843293D01*
X-24780318Y-25827254D01*
X-24881752Y-25687641D01*
X-24881756Y-25687636D01*
X-25037636Y-25531756D01*
X-25037641Y-25531752D01*
X-25215974Y-25402187D01*
X-25412393Y-25302104D01*
X-25412396Y-25302103D01*
X-25622047Y-25233985D01*
X-25767201Y-25210995D01*
X-25839778Y-25199500D01*
X-26060222Y-25199500D01*
X-26169086Y-25216742D01*
X-26277952Y-25233985D01*
X-26487603Y-25302103D01*
X-26487606Y-25302104D01*
X-26618642Y-25368872D01*
X-26684022Y-25402185D01*
X-26684024Y-25402186D01*
X-26684025Y-25402187D01*
X-26862358Y-25531752D01*
X-26862363Y-25531756D01*
X-27018243Y-25687636D01*
X-27018247Y-25687641D01*
X-27119682Y-25827254D01*
X-27175012Y-25869920D01*
X-27244625Y-25875899D01*
X-27306420Y-25843293D01*
X-27320318Y-25827254D01*
X-27421752Y-25687641D01*
X-27421756Y-25687636D01*
X-27577636Y-25531756D01*
X-27577641Y-25531752D01*
X-27755974Y-25402187D01*
X-27952393Y-25302104D01*
X-27952396Y-25302103D01*
X-28162047Y-25233985D01*
X-28307201Y-25210995D01*
X-28379778Y-25199500D01*
X-28600222Y-25199500D01*
X-28709086Y-25216742D01*
X-28817952Y-25233985D01*
X-29027603Y-25302103D01*
X-29027606Y-25302104D01*
X-29158642Y-25368872D01*
X-29224022Y-25402185D01*
X-29224024Y-25402186D01*
X-29224025Y-25402187D01*
X-29402358Y-25531752D01*
X-29402363Y-25531756D01*
X-29558243Y-25687636D01*
X-29558247Y-25687641D01*
X-29659682Y-25827254D01*
X-29715012Y-25869920D01*
X-29784625Y-25875899D01*
X-29846420Y-25843293D01*
X-29860318Y-25827254D01*
X-29961752Y-25687641D01*
X-29961756Y-25687636D01*
X-30117636Y-25531756D01*
X-30117641Y-25531752D01*
X-30295974Y-25402187D01*
X-30492393Y-25302104D01*
X-30492396Y-25302103D01*
X-30702047Y-25233985D01*
X-30847201Y-25210995D01*
X-30919778Y-25199500D01*
X-31140222Y-25199500D01*
X-31249086Y-25216742D01*
X-31357952Y-25233985D01*
X-31567603Y-25302103D01*
X-31567606Y-25302104D01*
X-31698642Y-25368872D01*
X-31764022Y-25402185D01*
X-31764024Y-25402186D01*
X-31764025Y-25402187D01*
X-31942358Y-25531752D01*
X-31942363Y-25531756D01*
X-32098243Y-25687636D01*
X-32098247Y-25687641D01*
X-32199682Y-25827254D01*
X-32255012Y-25869920D01*
X-32324625Y-25875899D01*
X-32386420Y-25843293D01*
X-32400318Y-25827254D01*
X-32501752Y-25687641D01*
X-32501756Y-25687636D01*
X-32657636Y-25531756D01*
X-32657641Y-25531752D01*
X-32835974Y-25402187D01*
X-33032393Y-25302104D01*
X-33032396Y-25302103D01*
X-33242047Y-25233985D01*
X-33387201Y-25210995D01*
X-33459778Y-25199500D01*
X-33680222Y-25199500D01*
X-33789086Y-25216742D01*
X-33897952Y-25233985D01*
X-34107603Y-25302103D01*
X-34107606Y-25302104D01*
X-34238642Y-25368872D01*
X-34304022Y-25402185D01*
X-34304024Y-25402186D01*
X-34304025Y-25402187D01*
X-34482358Y-25531752D01*
X-34482363Y-25531756D01*
X-34638243Y-25687636D01*
X-34638247Y-25687641D01*
X-34739682Y-25827254D01*
X-34795012Y-25869920D01*
X-34864625Y-25875899D01*
X-34926420Y-25843293D01*
X-34940318Y-25827254D01*
X-35041752Y-25687641D01*
X-35041756Y-25687636D01*
X-35197636Y-25531756D01*
X-35197641Y-25531752D01*
X-35375974Y-25402187D01*
X-35572393Y-25302104D01*
X-35572396Y-25302103D01*
X-35782047Y-25233985D01*
X-35927201Y-25210995D01*
X-35999778Y-25199500D01*
X-36220222Y-25199500D01*
X-36329086Y-25216742D01*
X-36437952Y-25233985D01*
X-36647603Y-25302103D01*
X-36647606Y-25302104D01*
X-36778642Y-25368872D01*
X-36844022Y-25402185D01*
X-36844024Y-25402186D01*
X-36844025Y-25402187D01*
X-37022358Y-25531752D01*
X-37022363Y-25531756D01*
X-37178243Y-25687636D01*
X-37178247Y-25687641D01*
X-37279682Y-25827254D01*
X-37335012Y-25869920D01*
X-37404625Y-25875899D01*
X-37466420Y-25843293D01*
X-37480318Y-25827254D01*
X-37581752Y-25687641D01*
X-37581756Y-25687636D01*
X-37737636Y-25531756D01*
X-37737641Y-25531752D01*
X-37915974Y-25402187D01*
X-38112393Y-25302104D01*
X-38112396Y-25302103D01*
X-38322047Y-25233985D01*
X-38467201Y-25210995D01*
X-38539778Y-25199500D01*
X-38760222Y-25199500D01*
X-38869086Y-25216742D01*
X-38977952Y-25233985D01*
X-39187603Y-25302103D01*
X-39187606Y-25302104D01*
X-39318642Y-25368872D01*
X-39384022Y-25402185D01*
X-39384024Y-25402186D01*
X-39384025Y-25402187D01*
X-39562358Y-25531752D01*
X-39562363Y-25531756D01*
X-39718247Y-25687640D01*
X-39762380Y-25748385D01*
X-39817709Y-25791051D01*
X-39862698Y-25799500D01*
X-45587769Y-25799500D01*
X-45617209Y-25790855D01*
X-45647196Y-25784332D01*
X-45652211Y-25780577D01*
X-45654808Y-25779815D01*
X-45675450Y-25763181D01*
X-45751304Y-25687327D01*
X-45784789Y-25626004D01*
X-45779805Y-25556312D01*
X-45751304Y-25511965D01*
X-45657684Y-25418345D01*
X-45565643Y-25269124D01*
X-45565641Y-25269119D01*
X-45510494Y-25102697D01*
X-45510493Y-25102690D01*
X-45500000Y-24999986D01*
X-45500000Y-24850000D01*
X-47899999Y-24850000D01*
X-47899999Y-24999971D01*
X-47899998Y-24999986D01*
X-47889505Y-25102697D01*
X-47834358Y-25269119D01*
X-47834356Y-25269124D01*
X-47742317Y-25418342D01*
X-47648695Y-25511964D01*
X-47644355Y-25519910D01*
X-47637108Y-25525336D01*
X-47627873Y-25550095D01*
X-47615210Y-25573287D01*
X-47615855Y-25582317D01*
X-47612692Y-25590801D01*
X-47618309Y-25616622D01*
X-47620194Y-25642979D01*
X-47626012Y-25652032D01*
X-47627544Y-25659074D01*
X-47648692Y-25687324D01*
X-47709753Y-25748385D01*
X-47724550Y-25763182D01*
X-47785874Y-25796666D01*
X-47812231Y-25799500D01*
X-51687769Y-25799500D01*
X-51754808Y-25779815D01*
X-51775450Y-25763182D01*
X-51881345Y-25657287D01*
X-52030663Y-25565187D01*
X-52030668Y-25565185D01*
X-52131563Y-25531752D01*
X-52197203Y-25510001D01*
X-52197204Y-25510000D01*
X-52299989Y-25499500D01*
X-53300001Y-25499500D01*
X-53300019Y-25499501D01*
X-53402796Y-25510000D01*
X-53402799Y-25510001D01*
X-53542554Y-25556312D01*
X-53569334Y-25565186D01*
X-53718656Y-25657288D01*
X-53842712Y-25781344D01*
X-53934814Y-25930666D01*
X-53989999Y-26097203D01*
X-54000500Y-26199991D01*
X-54000499Y-27000008D01*
X-53989999Y-27102797D01*
X-53934814Y-27269334D01*
X-53842712Y-27418656D01*
X-53795099Y-27466269D01*
X-53749049Y-27512319D01*
X-53715564Y-27573642D01*
X-53720548Y-27643334D01*
X-53749049Y-27687681D01*
X-53842712Y-27781344D01*
X-53934814Y-27930666D01*
X-53989999Y-28097203D01*
X-54000500Y-28199991D01*
X-54000499Y-29000008D01*
X-53989999Y-29102797D01*
X-53934814Y-29269334D01*
X-53842712Y-29418656D01*
X-53718656Y-29542712D01*
X-53659403Y-29579258D01*
X-53612679Y-29631204D01*
X-53600500Y-29684797D01*
X-53600500Y-36675500D01*
X-53620185Y-36742539D01*
X-53672989Y-36788294D01*
X-53724498Y-36799500D01*
X-53797869Y-36799500D01*
X-53797876Y-36799501D01*
X-53857483Y-36805908D01*
X-53992328Y-36856202D01*
X-53992335Y-36856206D01*
X-54107544Y-36942452D01*
X-54107547Y-36942455D01*
X-54193793Y-37057664D01*
X-54193797Y-37057671D01*
X-54225479Y-37142616D01*
X-54244091Y-37192517D01*
X-54250500Y-37252127D01*
X-58833773Y-37252127D01*
X-58728350Y-37191261D01*
X-58686197Y-37166924D01*
X-58664702Y-37150430D01*
X-58664701Y-37150430D01*
X-58483320Y-37011250D01*
X-58478149Y-37007282D01*
X-58478148Y-37007281D01*
X-58478140Y-37007274D01*
X-58292726Y-36821860D01*
X-58292718Y-36821851D01*
X-58133075Y-36613803D01*
X-58001958Y-36386700D01*
X-58001953Y-36386690D01*
X-57901605Y-36144428D01*
X-57901602Y-36144418D01*
X-57867942Y-36018796D01*
X-57833730Y-35891116D01*
X-57826123Y-35833339D01*
X-57799500Y-35631127D01*
X-57799500Y-35368872D01*
X-57832221Y-35120344D01*
X-57833730Y-35108884D01*
X-57901602Y-34855581D01*
X-57901605Y-34855571D01*
X-58001953Y-34613309D01*
X-58001958Y-34613299D01*
X-58133075Y-34386196D01*
X-58292718Y-34178148D01*
X-58478148Y-33992718D01*
X-58686196Y-33833075D01*
X-58913299Y-33701958D01*
X-58913309Y-33701953D01*
X-59155571Y-33601605D01*
X-59155581Y-33601602D01*
X-59161564Y-33599999D01*
X-59408884Y-33533730D01*
X-59437772Y-33529926D01*
X-59668872Y-33499500D01*
X-59668880Y-33499500D01*
X-59931120Y-33499500D01*
X-59931127Y-33499500D01*
X-60133339Y-33526123D01*
X-60191116Y-33533730D01*
X-60444419Y-33601602D01*
X-60444421Y-33601603D01*
X-60444428Y-33601605D01*
X-60686690Y-33701953D01*
X-60686700Y-33701958D01*
X-60913803Y-33833075D01*
X-61121851Y-33992718D01*
X-61121860Y-33992726D01*
X-61307274Y-34178140D01*
X-61307281Y-34178148D01*
X-61466924Y-34386196D01*
X-61598041Y-34613299D01*
X-61598046Y-34613309D01*
X-61677149Y-34804281D01*
X-61698398Y-34855581D01*
X-61766270Y-35108884D01*
X-61800500Y-35368880D01*
X-69174837Y-35368880D01*
X-68927835Y-35270466D01*
X-68915139Y-35266188D01*
X-68594273Y-35177100D01*
X-68581162Y-35174215D01*
X-68542215Y-35167830D01*
X-68252562Y-35120343D01*
X-68239218Y-35118892D01*
X-67903356Y-35100681D01*
X-67896644Y-35100500D01*
X-66392686Y-35100500D01*
X-66392683Y-35100500D01*
X-66210775Y-35074346D01*
X-66180230Y-35069955D01*
X-66066532Y-35036569D01*
X-65974290Y-35009485D01*
X-65974288Y-35009484D01*
X-65974284Y-35009483D01*
X-65779061Y-34920328D01*
X-65779045Y-34920319D01*
X-65598487Y-34804281D01*
X-65436275Y-34663724D01*
X-65295718Y-34501512D01*
X-65179680Y-34320954D01*
X-65179671Y-34320938D01*
X-65090516Y-34125715D01*
X-65030044Y-33919769D01*
X-64999500Y-33707317D01*
X-64999500Y-30368880D01*
X-61800500Y-30368880D01*
X-61800500Y-30631120D01*
X-61766270Y-30891116D01*
X-61698398Y-31144419D01*
X-61641571Y-31281611D01*
X-61606781Y-31365603D01*
X-61598043Y-31386697D01*
X-61466924Y-31613803D01*
X-61307282Y-31821851D01*
X-61307277Y-31821855D01*
X-61307274Y-31821860D01*
X-61121860Y-32007274D01*
X-61121855Y-32007277D01*
X-61121851Y-32007282D01*
X-60913803Y-32166924D01*
X-60686697Y-32298043D01*
X-60444419Y-32398398D01*
X-60191116Y-32466270D01*
X-59931120Y-32500500D01*
X-59931113Y-32500500D01*
X-59668887Y-32500500D01*
X-59668880Y-32500500D01*
X-59408884Y-32466270D01*
X-59155581Y-32398398D01*
X-59155571Y-32398394D01*
X-58913309Y-32298046D01*
X-58913299Y-32298041D01*
X-58686196Y-32166924D01*
X-58478148Y-32007281D01*
X-58478140Y-32007274D01*
X-58292726Y-31821860D01*
X-58292718Y-31821851D01*
X-58133075Y-31613803D01*
X-58001958Y-31386700D01*
X-58001953Y-31386690D01*
X-57901605Y-31144428D01*
X-57901602Y-31144418D01*
X-57889464Y-31099119D01*
X-57833730Y-30891116D01*
X-57808878Y-30702352D01*
X-57799500Y-30631127D01*
X-57799500Y-30368872D01*
X-57833730Y-30108885D01*
X-57859937Y-30011080D01*
X-57901602Y-29855581D01*
X-57901605Y-29855571D01*
X-58001953Y-29613309D01*
X-58001958Y-29613299D01*
X-58133075Y-29386196D01*
X-58292718Y-29178148D01*
X-58478148Y-28992718D01*
X-58686196Y-28833075D01*
X-58913299Y-28701958D01*
X-58913309Y-28701953D01*
X-59155571Y-28601605D01*
X-59155581Y-28601602D01*
X-59408884Y-28533730D01*
X-59437772Y-28529926D01*
X-59668872Y-28499500D01*
X-59668880Y-28499500D01*
X-59931120Y-28499500D01*
X-59931127Y-28499500D01*
X-60133339Y-28526123D01*
X-60191116Y-28533730D01*
X-60444419Y-28601602D01*
X-60444421Y-28601603D01*
X-60444428Y-28601605D01*
X-60686690Y-28701953D01*
X-60686700Y-28701958D01*
X-60913803Y-28833075D01*
X-61121851Y-28992718D01*
X-61121860Y-28992726D01*
X-61307274Y-29178140D01*
X-61307281Y-29178148D01*
X-61466924Y-29386196D01*
X-61598041Y-29613299D01*
X-61598046Y-29613309D01*
X-61616150Y-29657016D01*
X-61698398Y-29855581D01*
X-61766270Y-30108884D01*
X-61800500Y-30368880D01*
X-64999500Y-30368880D01*
X-64999500Y-25368880D01*
X-61800500Y-25368880D01*
X-61800500Y-25631120D01*
X-61766270Y-25891116D01*
X-61698398Y-26144419D01*
X-61598043Y-26386697D01*
X-61466924Y-26613803D01*
X-61307282Y-26821851D01*
X-61307277Y-26821855D01*
X-61307274Y-26821860D01*
X-61121860Y-27007274D01*
X-61121855Y-27007277D01*
X-61121851Y-27007282D01*
X-60913803Y-27166924D01*
X-60686697Y-27298043D01*
X-60444419Y-27398398D01*
X-60191116Y-27466270D01*
X-59931120Y-27500500D01*
X-59931113Y-27500500D01*
X-59668887Y-27500500D01*
X-59668880Y-27500500D01*
X-59408884Y-27466270D01*
X-59155581Y-27398398D01*
X-59054925Y-27356705D01*
X-58913309Y-27298046D01*
X-58913299Y-27298041D01*
X-58686196Y-27166924D01*
X-58478148Y-27007281D01*
X-58478140Y-27007274D01*
X-58292726Y-26821860D01*
X-58292718Y-26821851D01*
X-58133075Y-26613803D01*
X-58001958Y-26386700D01*
X-58001953Y-26386690D01*
X-57901605Y-26144428D01*
X-57901602Y-26144418D01*
X-57879622Y-26062388D01*
X-57833730Y-25891116D01*
X-57819278Y-25781344D01*
X-57799500Y-25631127D01*
X-57799500Y-25368872D01*
X-57829926Y-25137772D01*
X-57833730Y-25108884D01*
X-57901602Y-24855581D01*
X-57901605Y-24855571D01*
X-58001953Y-24613309D01*
X-58001958Y-24613299D01*
X-58133075Y-24386196D01*
X-58220431Y-24272354D01*
X-58220432Y-24272353D01*
X-58275931Y-24200026D01*
X-47900000Y-24200026D01*
X-47900000Y-24350000D01*
X-46950000Y-24350000D01*
X-46450000Y-24350000D01*
X-45500001Y-24350000D01*
X-45500001Y-24200013D01*
X-45510494Y-24097302D01*
X-45565641Y-23930880D01*
X-45565643Y-23930875D01*
X-45657684Y-23781654D01*
X-45781654Y-23657684D01*
X-45930875Y-23565643D01*
X-45930880Y-23565641D01*
X-46097302Y-23510494D01*
X-46097309Y-23510493D01*
X-46200013Y-23500000D01*
X-46450000Y-23500000D01*
X-46450000Y-24350000D01*
X-46950000Y-24350000D01*
X-46950000Y-23500000D01*
X-47199970Y-23500000D01*
X-47199987Y-23500001D01*
X-47302697Y-23510494D01*
X-47469119Y-23565641D01*
X-47469124Y-23565643D01*
X-47618345Y-23657684D01*
X-47742315Y-23781654D01*
X-47834356Y-23930875D01*
X-47834358Y-23930880D01*
X-47889505Y-24097302D01*
X-47889506Y-24097309D01*
X-47899999Y-24200013D01*
X-47900000Y-24200026D01*
X-58275931Y-24200026D01*
X-58292718Y-24178149D01*
X-58292719Y-24178147D01*
X-58292726Y-24178139D01*
X-58478140Y-23992726D01*
X-58478148Y-23992718D01*
X-58686196Y-23833075D01*
X-58913299Y-23701958D01*
X-58913309Y-23701953D01*
X-59155571Y-23601605D01*
X-59155581Y-23601602D01*
X-59408884Y-23533730D01*
X-59437772Y-23529926D01*
X-59668872Y-23499500D01*
X-59668880Y-23499500D01*
X-59931120Y-23499500D01*
X-59931127Y-23499500D01*
X-60133339Y-23526123D01*
X-60191116Y-23533730D01*
X-60444419Y-23601602D01*
X-60444421Y-23601603D01*
X-60444428Y-23601605D01*
X-60686690Y-23701953D01*
X-60686700Y-23701958D01*
X-60913803Y-23833075D01*
X-61121851Y-23992718D01*
X-61121860Y-23992726D01*
X-61307274Y-24178140D01*
X-61307281Y-24178148D01*
X-61466924Y-24386196D01*
X-61598041Y-24613299D01*
X-61598046Y-24613309D01*
X-61620645Y-24667868D01*
X-61698398Y-24855581D01*
X-61766270Y-25108884D01*
X-61800500Y-25368880D01*
X-64999500Y-25368880D01*
X-64999500Y-22049789D01*
X-65030044Y-21837337D01*
X-65090516Y-21631391D01*
X-65179671Y-21436168D01*
X-65179680Y-21436152D01*
X-65295718Y-21255594D01*
X-65436275Y-21093382D01*
X-65598487Y-20952825D01*
X-65779045Y-20836787D01*
X-65779050Y-20836785D01*
X-65834564Y-20811432D01*
X-65834566Y-20811430D01*
X-65974284Y-20747623D01*
X-66180230Y-20687151D01*
X-66392682Y-20656607D01*
X-66392683Y-20656607D01*
X-66434107Y-20656607D01*
X-68165580Y-20656607D01*
X-68177730Y-20656010D01*
X-68194445Y-20654364D01*
X-68256966Y-20648206D01*
X-68280806Y-20643464D01*
X-68315969Y-20632797D01*
X-68351135Y-20622129D01*
X-68373590Y-20612828D01*
X-68438404Y-20578184D01*
X-68458616Y-20564679D01*
X-68520161Y-20514170D01*
X-68529176Y-20505999D01*
X-68571460Y-20463716D01*
X-68571461Y-20463715D01*
X-71735950Y-17299225D01*
X-71819572Y-17215603D01*
X-68100500Y-17215603D01*
X-68100500Y-17484397D01*
X-68065416Y-17750891D01*
X-67995847Y-18010526D01*
X-67892984Y-18258859D01*
X-67758587Y-18491641D01*
X-67594956Y-18704890D01*
X-67404890Y-18894956D01*
X-67191641Y-19058587D01*
X-66958859Y-19192984D01*
X-66958853Y-19192986D01*
X-66958850Y-19192988D01*
X-66897457Y-19218417D01*
X-66710526Y-19295847D01*
X-66450891Y-19365416D01*
X-66244905Y-19392534D01*
X-66184398Y-19400500D01*
X-66184397Y-19400500D01*
X-65915602Y-19400500D01*
X-65837319Y-19390193D01*
X-65649109Y-19365416D01*
X-65389474Y-19295847D01*
X-65296008Y-19257132D01*
X-65141149Y-19192988D01*
X-65141133Y-19192980D01*
X-65011934Y-19118386D01*
X-64908359Y-19058587D01*
X-64769676Y-18952172D01*
X-61800000Y-18952172D01*
X-61800000Y-20250000D01*
X-60508241Y-20250000D01*
X-60521178Y-20281233D01*
X-60550000Y-20426131D01*
X-60550000Y-20573869D01*
X-60521178Y-20718767D01*
X-60508241Y-20750000D01*
X-61800000Y-20750000D01*
X-61800000Y-22047827D01*
X-61799999Y-22047844D01*
X-61793598Y-22107372D01*
X-61793596Y-22107379D01*
X-61743354Y-22242086D01*
X-61743350Y-22242093D01*
X-61657190Y-22357187D01*
X-61657187Y-22357190D01*
X-61542093Y-22443350D01*
X-61542086Y-22443354D01*
X-61407379Y-22493596D01*
X-61407372Y-22493598D01*
X-61347844Y-22499999D01*
X-61347828Y-22500000D01*
X-60050000Y-22500000D01*
X-60050000Y-21208240D01*
X-60018767Y-21221178D01*
X-59873869Y-21250000D01*
X-59726131Y-21250000D01*
X-59581233Y-21221178D01*
X-59550000Y-21208240D01*
X-59550000Y-22500000D01*
X-58252172Y-22500000D01*
X-58252155Y-22499999D01*
X-58192627Y-22493598D01*
X-58192620Y-22493596D01*
X-58057913Y-22443354D01*
X-58057906Y-22443350D01*
X-57942812Y-22357190D01*
X-57942809Y-22357187D01*
X-57856649Y-22242093D01*
X-57856645Y-22242086D01*
X-57806403Y-22107379D01*
X-57806401Y-22107372D01*
X-57800000Y-22047844D01*
X-57800000Y-20750000D01*
X-59091759Y-20750000D01*
X-59078822Y-20718767D01*
X-59050000Y-20573869D01*
X-59050000Y-20426131D01*
X-59078822Y-20281233D01*
X-59091759Y-20250000D01*
X-57800000Y-20250000D01*
X-57800000Y-18952155D01*
X-57806401Y-18892627D01*
X-57806403Y-18892620D01*
X-57856645Y-18757913D01*
X-57856649Y-18757906D01*
X-57942809Y-18642812D01*
X-57942812Y-18642809D01*
X-58057906Y-18556649D01*
X-58057913Y-18556645D01*
X-58192620Y-18506403D01*
X-58192627Y-18506401D01*
X-58252155Y-18500000D01*
X-59550000Y-18500000D01*
X-59550000Y-19791759D01*
X-59581233Y-19778822D01*
X-59726131Y-19750000D01*
X-59873869Y-19750000D01*
X-60018767Y-19778822D01*
X-60050000Y-19791759D01*
X-60050000Y-18500000D01*
X-61347844Y-18500000D01*
X-61407372Y-18506401D01*
X-61407379Y-18506403D01*
X-61542086Y-18556645D01*
X-61542093Y-18556649D01*
X-61657187Y-18642809D01*
X-61657190Y-18642812D01*
X-61743350Y-18757906D01*
X-61743354Y-18757913D01*
X-61793596Y-18892620D01*
X-61793598Y-18892627D01*
X-61799999Y-18952155D01*
X-61800000Y-18952172D01*
X-64769676Y-18952172D01*
X-64695111Y-18894957D01*
X-64695104Y-18894951D01*
X-64505048Y-18704895D01*
X-64505042Y-18704888D01*
X-64341416Y-18491645D01*
X-64341415Y-18491644D01*
X-64341413Y-18491641D01*
X-64272502Y-18372284D01*
X-64207019Y-18258866D01*
X-64207011Y-18258850D01*
X-64104152Y-18010524D01*
X-64036817Y-17759223D01*
X-64034584Y-17750891D01*
X-64034583Y-17750885D01*
X-64034582Y-17750880D01*
X-63999500Y-17484397D01*
X-63999500Y-17215602D01*
X-64034582Y-16949119D01*
X-64034585Y-16949106D01*
X-64104152Y-16689475D01*
X-64207011Y-16441149D01*
X-64207019Y-16441133D01*
X-64341416Y-16208354D01*
X-64505042Y-15995111D01*
X-64505048Y-15995104D01*
X-64695104Y-15805048D01*
X-64695111Y-15805042D01*
X-64908354Y-15641416D01*
X-65141133Y-15507019D01*
X-65141149Y-15507011D01*
X-65389475Y-15404152D01*
X-65594239Y-15349286D01*
X-65649109Y-15334584D01*
X-65649112Y-15334583D01*
X-65649119Y-15334582D01*
X-65915602Y-15299500D01*
X-65915603Y-15299500D01*
X-66184397Y-15299500D01*
X-66184398Y-15299500D01*
X-66450880Y-15334582D01*
X-66450885Y-15334583D01*
X-66450891Y-15334584D01*
X-66580708Y-15369368D01*
X-66710524Y-15404152D01*
X-66958850Y-15507011D01*
X-66958866Y-15507019D01*
X-67098832Y-15587830D01*
X-67191641Y-15641413D01*
X-67191644Y-15641415D01*
X-67191645Y-15641416D01*
X-67404888Y-15805042D01*
X-67404895Y-15805048D01*
X-67594951Y-15995104D01*
X-67594957Y-15995111D01*
X-67640742Y-16054780D01*
X-67758587Y-16208359D01*
X-67844964Y-16357968D01*
X-67892980Y-16441133D01*
X-67892988Y-16441149D01*
X-67957132Y-16596008D01*
X-67995847Y-16689474D01*
X-68065416Y-16949109D01*
X-68100500Y-17215603D01*
X-71819572Y-17215603D01*
X-73548887Y-15486288D01*
X-73557059Y-15477272D01*
X-73607570Y-15415725D01*
X-73621076Y-15395511D01*
X-73655721Y-15330692D01*
X-73665022Y-15308237D01*
X-73686355Y-15237913D01*
X-73691098Y-15214072D01*
X-73698903Y-15134831D01*
X-73699500Y-15122676D01*
X-73699500Y-14320769D01*
X-73679815Y-14253730D01*
X-73627011Y-14207975D01*
X-73557853Y-14198031D01*
X-73494297Y-14227056D01*
X-73461852Y-14275990D01*
X-73460281Y-14275340D01*
X-73458420Y-14279831D01*
X-73369095Y-14455143D01*
X-73253444Y-14614321D01*
X-73114321Y-14753444D01*
X-72955143Y-14869095D01*
X-72779837Y-14958418D01*
X-72592716Y-15019218D01*
X-72550000Y-15025983D01*
X-72550000Y-13965686D01*
X-72545606Y-13970080D01*
X-72454394Y-14022741D01*
X-72352661Y-14050000D01*
X-72247339Y-14050000D01*
X-72145606Y-14022741D01*
X-72054394Y-13970080D01*
X-72050000Y-13965686D01*
X-72050000Y-15025984D01*
X-72007283Y-15019218D01*
X-71820162Y-14958418D01*
X-71710321Y-14902451D01*
X-71710319Y-14902450D01*
X-71644858Y-14869097D01*
X-71485678Y-14753444D01*
X-71430000Y-14697766D01*
X-71430000Y-14674000D01*
X-71410315Y-14606961D01*
X-71357511Y-14561206D01*
X-71306000Y-14550000D01*
X-70215686Y-14550000D01*
X-70220080Y-14554394D01*
X-70272741Y-14645606D01*
X-70300000Y-14747339D01*
X-70300000Y-14852661D01*
X-70272741Y-14954394D01*
X-70220080Y-15045606D01*
X-70215686Y-15050000D01*
X-71275984Y-15050000D01*
X-71269218Y-15092716D01*
X-71208418Y-15279837D01*
X-71119095Y-15455143D01*
X-71003444Y-15614321D01*
X-70864321Y-15753444D01*
X-70705143Y-15869095D01*
X-70529835Y-15958418D01*
X-70342705Y-16019221D01*
X-70148382Y-16050000D01*
X-70050000Y-16050000D01*
X-70050000Y-15173918D01*
X-69952661Y-15200000D01*
X-69647339Y-15200000D01*
X-69550000Y-15173918D01*
X-69550000Y-16050000D01*
X-69451618Y-16050000D01*
X-69257294Y-16019221D01*
X-69070164Y-15958418D01*
X-68894856Y-15869095D01*
X-68735678Y-15753444D01*
X-68596555Y-15614321D01*
X-68480904Y-15455143D01*
X-68391581Y-15279837D01*
X-68330781Y-15092716D01*
X-68324016Y-15050000D01*
X-69384314Y-15050000D01*
X-69379920Y-15045606D01*
X-69327259Y-14954394D01*
X-69300000Y-14852661D01*
X-69300000Y-14747339D01*
X-69327259Y-14645606D01*
X-69379920Y-14554394D01*
X-69384314Y-14550000D01*
X-68324016Y-14550000D01*
X-68330781Y-14507283D01*
X-68391581Y-14320162D01*
X-68480904Y-14144856D01*
X-68596555Y-13985678D01*
X-68735678Y-13846555D01*
X-68894856Y-13730904D01*
X-69070164Y-13641581D01*
X-69257294Y-13580778D01*
X-69451618Y-13550000D01*
X-69550000Y-13550000D01*
X-69550000Y-14426081D01*
X-69647339Y-14400000D01*
X-69952661Y-14400000D01*
X-70050000Y-14426081D01*
X-70050000Y-13550000D01*
X-70148382Y-13550000D01*
X-70342705Y-13580778D01*
X-70529835Y-13641581D01*
X-70705143Y-13730904D01*
X-70859220Y-13842849D01*
X-70925026Y-13866329D01*
X-70993080Y-13850504D01*
X-71019787Y-13830213D01*
X-71050000Y-13800000D01*
X-71926082Y-13800000D01*
X-71900000Y-13702661D01*
X-71900000Y-13397339D01*
X-71926082Y-13300000D01*
X-71050000Y-13300000D01*
X-71050000Y-13201617D01*
X-71080778Y-13007294D01*
X-71141581Y-12820164D01*
X-71230904Y-12644856D01*
X-71346555Y-12485678D01*
X-71485678Y-12346555D01*
X-71644856Y-12230904D01*
X-71820164Y-12141581D01*
X-72007294Y-12080778D01*
X-72049999Y-12074014D01*
X-72050000Y-12074014D01*
X-72050000Y-13134314D01*
X-72054394Y-13129920D01*
X-72145606Y-13077259D01*
X-72247339Y-13050000D01*
X-72352661Y-13050000D01*
X-72454394Y-13077259D01*
X-72545606Y-13129920D01*
X-72550000Y-13134314D01*
X-72550000Y-12074014D01*
X-72592705Y-12080778D01*
X-72779835Y-12141581D01*
X-72955143Y-12230904D01*
X-73114321Y-12346555D01*
X-73253444Y-12485678D01*
X-73369095Y-12644856D01*
X-73458420Y-12820168D01*
X-73460281Y-12824660D01*
X-73461954Y-12823967D01*
X-73497019Y-12875234D01*
X-73561381Y-12902424D01*
X-73630226Y-12890500D01*
X-73681696Y-12843250D01*
X-73699500Y-12779230D01*
X-73699500Y-9822389D01*
X-73679815Y-9755350D01*
X-73627011Y-9709595D01*
X-73557853Y-9699651D01*
X-73494297Y-9728676D01*
X-73462697Y-9776340D01*
X-73460745Y-9775532D01*
X-73458887Y-9780015D01*
X-73458884Y-9780025D01*
X-73369524Y-9955405D01*
X-73253828Y-10114646D01*
X-73114646Y-10253828D01*
X-72955405Y-10369524D01*
X-72780025Y-10458884D01*
X-72626643Y-10508721D01*
X-72592826Y-10519709D01*
X-72398422Y-10550500D01*
X-72398417Y-10550500D01*
X-72201578Y-10550500D01*
X-72078922Y-10531072D01*
X-72030895Y-10523466D01*
X-71961604Y-10532420D01*
X-71923821Y-10558255D01*
X-70571789Y-11910289D01*
X-70460289Y-12021789D01*
X-70329179Y-12109394D01*
X-70183497Y-12169737D01*
X-70028845Y-12200499D01*
X-70028844Y-12200500D01*
X-70028842Y-12200500D01*
X-65984798Y-12200500D01*
X-65917759Y-12220185D01*
X-65890498Y-12243980D01*
X-65884282Y-12251258D01*
X-65842712Y-12318656D01*
X-65733367Y-12428000D01*
X-65730200Y-12431710D01*
X-65717830Y-12459324D01*
X-65703334Y-12485872D01*
X-65702511Y-12493521D01*
X-65701637Y-12495474D01*
X-65702025Y-12498042D01*
X-65700500Y-12512230D01*
X-65700500Y-12721158D01*
X-65700500Y-12878842D01*
X-65669737Y-13033497D01*
X-65609394Y-13179179D01*
X-65521789Y-13310289D01*
X-62421789Y-16410289D01*
X-62310289Y-16521789D01*
X-62179179Y-16609394D01*
X-62033497Y-16669737D01*
X-61878845Y-16700499D01*
X-61878844Y-16700500D01*
X-61878842Y-16700500D01*
X-55982940Y-16700500D01*
X-55915901Y-16720185D01*
X-55895258Y-16736819D01*
X-54118891Y-18513185D01*
X-54085408Y-18574506D01*
X-54084991Y-18576503D01*
X-54062051Y-18691835D01*
X-53986632Y-18873914D01*
X-53877139Y-19037782D01*
X-53737782Y-19177139D01*
X-53573914Y-19286632D01*
X-53391835Y-19362051D01*
X-53328582Y-19374632D01*
X-53198543Y-19400500D01*
X-53198541Y-19400500D01*
X-53001456Y-19400500D01*
X-52808170Y-19362052D01*
X-52808169Y-19362051D01*
X-52808165Y-19362051D01*
X-52808160Y-19362049D01*
X-52626092Y-19286635D01*
X-52626079Y-19286628D01*
X-52462218Y-19177139D01*
X-52462214Y-19177136D01*
X-52322863Y-19037785D01*
X-52322860Y-19037781D01*
X-52213371Y-18873920D01*
X-52213364Y-18873907D01*
X-52137950Y-18691839D01*
X-52137947Y-18691829D01*
X-52099500Y-18498543D01*
X-52099500Y-18301456D01*
X-52099499Y-18301456D01*
X-34750500Y-18301456D01*
X-34750500Y-18498543D01*
X-34734959Y-18576672D01*
X-34712051Y-18691835D01*
X-34636632Y-18873914D01*
X-34527139Y-19037782D01*
X-34387782Y-19177139D01*
X-34223914Y-19286632D01*
X-34041835Y-19362051D01*
X-33978582Y-19374632D01*
X-33848543Y-19400500D01*
X-33848541Y-19400500D01*
X-33651456Y-19400500D01*
X-33458170Y-19362052D01*
X-33458169Y-19362051D01*
X-33458165Y-19362051D01*
X-33458160Y-19362049D01*
X-33276092Y-19286635D01*
X-33276079Y-19286628D01*
X-33112218Y-19177139D01*
X-33112214Y-19177136D01*
X-32972863Y-19037785D01*
X-32972860Y-19037781D01*
X-32863371Y-18873920D01*
X-32863364Y-18873907D01*
X-32787950Y-18691839D01*
X-32787947Y-18691829D01*
X-32765041Y-18576672D01*
X-32732656Y-18514762D01*
X-32731105Y-18513183D01*
X-31375569Y-17157648D01*
X-18888500Y-17157648D01*
X-18888500Y-17362352D01*
X-18856477Y-17564534D01*
X-18793220Y-17759219D01*
X-18700287Y-17941610D01*
X-18650218Y-18010524D01*
X-18579971Y-18107213D01*
X-18579968Y-18107215D01*
X-18579966Y-18107219D01*
X-18435219Y-18251966D01*
X-18435215Y-18251968D01*
X-18435213Y-18251971D01*
X-18290770Y-18356913D01*
X-18269610Y-18372287D01*
X-18176917Y-18419516D01*
X-18126123Y-18467489D01*
X-18109328Y-18535310D01*
X-18131865Y-18601445D01*
X-18176917Y-18640483D01*
X-18263006Y-18684348D01*
X-18269614Y-18687715D01*
X-18435213Y-18808028D01*
X-18579971Y-18952786D01*
X-18641725Y-19037785D01*
X-18700287Y-19118390D01*
X-18759503Y-19234607D01*
X-18793218Y-19300776D01*
X-18793218Y-19300778D01*
X-18793220Y-19300781D01*
X-18856477Y-19495466D01*
X-18888500Y-19697648D01*
X-18888500Y-19902352D01*
X-18856477Y-20104534D01*
X-18793220Y-20299219D01*
X-18700287Y-20481610D01*
X-18639934Y-20564679D01*
X-18579971Y-20647213D01*
X-18579968Y-20647215D01*
X-18579966Y-20647219D01*
X-18435219Y-20791966D01*
X-18435215Y-20791968D01*
X-18435213Y-20791971D01*
X-18290770Y-20896913D01*
X-18269610Y-20912287D01*
X-18176917Y-20959516D01*
X-18126123Y-21007489D01*
X-18109328Y-21075310D01*
X-18131865Y-21141445D01*
X-18176917Y-21180483D01*
X-18250783Y-21218120D01*
X-18269614Y-21227715D01*
X-18435213Y-21348028D01*
X-18579971Y-21492786D01*
X-18680671Y-21631391D01*
X-18700287Y-21658390D01*
X-18725092Y-21707073D01*
X-18793218Y-21840776D01*
X-18793218Y-21840778D01*
X-18793220Y-21840781D01*
X-18856477Y-22035466D01*
X-18888500Y-22237648D01*
X-18888500Y-22442352D01*
X-18856477Y-22644534D01*
X-18793220Y-22839219D01*
X-18700287Y-23021610D01*
X-18632732Y-23114590D01*
X-18579971Y-23187213D01*
X-18579968Y-23187215D01*
X-18579966Y-23187219D01*
X-18435219Y-23331966D01*
X-18435215Y-23331968D01*
X-18435213Y-23331971D01*
X-18319144Y-23416298D01*
X-18269610Y-23452287D01*
X-18176949Y-23499500D01*
X-18176370Y-23499795D01*
X-18125573Y-23547769D01*
X-18108778Y-23615590D01*
X-18131315Y-23681725D01*
X-18176369Y-23720765D01*
X-18269350Y-23768141D01*
X-18269359Y-23768147D01*
X-18395831Y-23860033D01*
X-18395832Y-23860035D01*
X-17746334Y-24509534D01*
X-17833606Y-24559920D01*
X-17908080Y-24634394D01*
X-17958465Y-24721664D01*
X-18607963Y-24072166D01*
X-18607963Y-24072167D01*
X-18699859Y-24198650D01*
X-18792755Y-24380968D01*
X-18855990Y-24575582D01*
X-18888000Y-24777682D01*
X-18888000Y-24982317D01*
X-18855990Y-25184417D01*
X-18792755Y-25379031D01*
X-18699859Y-25561349D01*
X-18607963Y-25687831D01*
X-18607963Y-25687832D01*
X-17958466Y-25038334D01*
X-17908080Y-25125606D01*
X-17833606Y-25200080D01*
X-17746334Y-25250466D01*
X-18395832Y-25899963D01*
X-18269349Y-25991859D01*
X-18087031Y-26084755D01*
X-17892417Y-26147990D01*
X-17690317Y-26180000D01*
X-17485683Y-26180000D01*
X-17283582Y-26147990D01*
X-17088968Y-26084755D01*
X-16906650Y-25991859D01*
X-16780167Y-25899963D01*
X-16780166Y-25899963D01*
X-17429665Y-25250465D01*
X-17342394Y-25200080D01*
X-17267920Y-25125606D01*
X-17217533Y-25038334D01*
X-16568035Y-25687832D01*
X-16568033Y-25687831D01*
X-16476147Y-25561359D01*
X-16476141Y-25561350D01*
X-16383244Y-25379031D01*
X-16320009Y-25184417D01*
X-16288000Y-24982317D01*
X-16288000Y-24777682D01*
X-16320009Y-24575582D01*
X-16383244Y-24380968D01*
X-16476142Y-24198647D01*
X-16568034Y-24072167D01*
X-16568035Y-24072167D01*
X-17217533Y-24721665D01*
X-17267920Y-24634394D01*
X-17342394Y-24559920D01*
X-17429665Y-24509533D01*
X-16780167Y-23860035D01*
X-16780167Y-23860034D01*
X-16906648Y-23768142D01*
X-16999630Y-23720765D01*
X-17050426Y-23672790D01*
X-17067221Y-23604969D01*
X-17044683Y-23538834D01*
X-16999630Y-23499795D01*
X-16999051Y-23499500D01*
X-16906390Y-23452287D01*
X-16906387Y-23452285D01*
X-16906385Y-23452284D01*
X-16740786Y-23331971D01*
X-16596028Y-23187213D01*
X-16475715Y-23021613D01*
X-16382781Y-22839223D01*
X-16319522Y-22644534D01*
X-16287500Y-22442351D01*
X-16287500Y-22237648D01*
X-16319522Y-22035465D01*
X-16382781Y-21840776D01*
X-16475715Y-21658386D01*
X-16596028Y-21492786D01*
X-16740786Y-21348028D01*
X-16906386Y-21227715D01*
X-16999080Y-21180485D01*
X-17049876Y-21132510D01*
X-17066671Y-21064689D01*
X-17044134Y-20998554D01*
X-16999080Y-20959515D01*
X-16985950Y-20952825D01*
X-16906390Y-20912287D01*
X-16895749Y-20904556D01*
X-16740786Y-20791971D01*
X-16596028Y-20647213D01*
X-16475715Y-20481613D01*
X-16382781Y-20299223D01*
X-16319522Y-20104534D01*
X-16287500Y-19902351D01*
X-16287500Y-19697648D01*
X-16319522Y-19495465D01*
X-16382781Y-19300776D01*
X-16475715Y-19118386D01*
X-16596028Y-18952786D01*
X-16740786Y-18808028D01*
X-16906386Y-18687715D01*
X-16999080Y-18640485D01*
X-17049876Y-18592510D01*
X-17066671Y-18524689D01*
X-17044134Y-18458554D01*
X-16999080Y-18419515D01*
X-16997840Y-18418883D01*
X-16906390Y-18372287D01*
X-16895749Y-18364556D01*
X-16740786Y-18251971D01*
X-16596028Y-18107213D01*
X-16475715Y-17941613D01*
X-16467806Y-17926092D01*
X-16446691Y-17884653D01*
X-16382781Y-17759223D01*
X-16319522Y-17564534D01*
X-16287500Y-17362351D01*
X-16287500Y-17157648D01*
X-16319522Y-16955465D01*
X-16382781Y-16760776D01*
X-16475715Y-16578386D01*
X-16596028Y-16412786D01*
X-16740786Y-16268028D01*
X-16906386Y-16147715D01*
X-17088776Y-16054781D01*
X-17283465Y-15991522D01*
X-17461329Y-15963351D01*
X-17485648Y-15959500D01*
X-17690352Y-15959500D01*
X-17717995Y-15963878D01*
X-17892534Y-15991522D01*
X-18087223Y-16054781D01*
X-18212653Y-16118691D01*
X-18269610Y-16147713D01*
X-18269612Y-16147714D01*
X-18269613Y-16147715D01*
X-18435213Y-16268028D01*
X-18579971Y-16412786D01*
X-18659165Y-16521790D01*
X-18700287Y-16578390D01*
X-18746831Y-16669738D01*
X-18793218Y-16760776D01*
X-18856477Y-16955465D01*
X-18882809Y-17121718D01*
X-18888500Y-17157648D01*
X-31375569Y-17157648D01*
X-31283016Y-17065095D01*
X-30358213Y-16140292D01*
X-30358210Y-16140288D01*
X-30270609Y-16009185D01*
X-30270604Y-16009175D01*
X-30210262Y-15863497D01*
X-30210260Y-15863489D01*
X-30179500Y-15708846D01*
X-30179500Y-15190434D01*
X-30159815Y-15123395D01*
X-30158602Y-15121543D01*
X-30093371Y-15023919D01*
X-30093364Y-15023907D01*
X-30017950Y-14841839D01*
X-30017947Y-14841829D01*
X-29979500Y-14648543D01*
X-29979500Y-14451456D01*
X-29979499Y-14451456D01*
X-30017947Y-14258170D01*
X-30017950Y-14258160D01*
X-30093364Y-14076092D01*
X-30093371Y-14076079D01*
X-30202860Y-13912218D01*
X-30202863Y-13912214D01*
X-30342214Y-13772863D01*
X-30342218Y-13772860D01*
X-30506079Y-13663371D01*
X-30506092Y-13663364D01*
X-30688160Y-13587950D01*
X-30688170Y-13587947D01*
X-30881457Y-13549500D01*
X-30881459Y-13549500D01*
X-31078541Y-13549500D01*
X-31078543Y-13549500D01*
X-31271829Y-13587947D01*
X-31271839Y-13587950D01*
X-31453907Y-13663364D01*
X-31453920Y-13663371D01*
X-31617781Y-13772860D01*
X-31617785Y-13772863D01*
X-31757136Y-13912214D01*
X-31757139Y-13912218D01*
X-31866628Y-14076079D01*
X-31866635Y-14076092D01*
X-31917143Y-14198031D01*
X-31942051Y-14258165D01*
X-31942051Y-14258169D01*
X-31942052Y-14258170D01*
X-31980500Y-14451456D01*
X-31980500Y-14648543D01*
X-31965930Y-14721789D01*
X-31942051Y-14841835D01*
X-31866632Y-15023914D01*
X-31802376Y-15120080D01*
X-31801398Y-15121543D01*
X-31795747Y-15139589D01*
X-31785523Y-15155499D01*
X-31781071Y-15186458D01*
X-31780520Y-15188220D01*
X-31780500Y-15190434D01*
X-31780500Y-15247060D01*
X-31800185Y-15314099D01*
X-31816819Y-15334741D01*
X-33863183Y-17381105D01*
X-33924506Y-17414590D01*
X-33926672Y-17415041D01*
X-34041829Y-17437947D01*
X-34041839Y-17437950D01*
X-34223907Y-17513364D01*
X-34223920Y-17513371D01*
X-34387781Y-17622860D01*
X-34387785Y-17622863D01*
X-34527136Y-17762214D01*
X-34527139Y-17762218D01*
X-34636628Y-17926079D01*
X-34636635Y-17926092D01*
X-34671607Y-18010524D01*
X-34712051Y-18108165D01*
X-34712051Y-18108169D01*
X-34712052Y-18108170D01*
X-34750500Y-18301456D01*
X-52099499Y-18301456D01*
X-52137947Y-18108170D01*
X-52137950Y-18108160D01*
X-52213364Y-17926092D01*
X-52213371Y-17926079D01*
X-52322860Y-17762218D01*
X-52322863Y-17762214D01*
X-52462214Y-17622863D01*
X-52462218Y-17622860D01*
X-52626079Y-17513371D01*
X-52626092Y-17513364D01*
X-52808160Y-17437950D01*
X-52808170Y-17437947D01*
X-52923326Y-17415041D01*
X-52940082Y-17406275D01*
X-52958561Y-17402256D01*
X-52983597Y-17383513D01*
X-52985237Y-17382656D01*
X-52986815Y-17381105D01*
X-53059254Y-17308666D01*
X-53092739Y-17247343D01*
X-53087755Y-17177651D01*
X-53045883Y-17121718D01*
X-52995765Y-17099368D01*
X-52808170Y-17062052D01*
X-52808169Y-17062051D01*
X-52808165Y-17062051D01*
X-52808160Y-17062049D01*
X-52626092Y-16986635D01*
X-52626079Y-16986628D01*
X-52462218Y-16877139D01*
X-52462214Y-16877136D01*
X-52322863Y-16737785D01*
X-52322860Y-16737781D01*
X-52213371Y-16573920D01*
X-52213364Y-16573907D01*
X-52137950Y-16391839D01*
X-52137947Y-16391829D01*
X-52099500Y-16198543D01*
X-52099500Y-16001456D01*
X-52099499Y-16001456D01*
X-52137947Y-15808170D01*
X-52137950Y-15808160D01*
X-52213364Y-15626092D01*
X-52213371Y-15626079D01*
X-52322860Y-15462218D01*
X-52322863Y-15462214D01*
X-52462214Y-15322863D01*
X-52462218Y-15322860D01*
X-52626079Y-15213371D01*
X-52626092Y-15213364D01*
X-52808160Y-15137950D01*
X-52808170Y-15137947D01*
X-52923326Y-15115041D01*
X-52985237Y-15082656D01*
X-52986815Y-15081105D01*
X-54589707Y-13478213D01*
X-54589711Y-13478210D01*
X-54720814Y-13390609D01*
X-54720827Y-13390602D01*
X-54866498Y-13330264D01*
X-54866510Y-13330261D01*
X-55021155Y-13299500D01*
X-55021158Y-13299500D01*
X-59817060Y-13299500D01*
X-59884099Y-13279815D01*
X-59904741Y-13263181D01*
X-61763181Y-11404739D01*
X-61796666Y-11343416D01*
X-61799500Y-11317058D01*
X-61799500Y-10899998D01*
X-61799501Y-10899980D01*
X-61810000Y-10797203D01*
X-61810001Y-10797200D01*
X-61865185Y-10630668D01*
X-61865187Y-10630663D01*
X-61957289Y-10481342D01*
X-62081342Y-10357289D01*
X-62230663Y-10265187D01*
X-62230668Y-10265185D01*
X-62314670Y-10237349D01*
X-62397203Y-10210001D01*
X-62397204Y-10210000D01*
X-62499989Y-10199500D01*
X-63300001Y-10199500D01*
X-63300019Y-10199501D01*
X-63402796Y-10210000D01*
X-63402799Y-10210001D01*
X-63569331Y-10265185D01*
X-63569336Y-10265187D01*
X-63612405Y-10291752D01*
X-63718656Y-10357288D01*
X-63718657Y-10357289D01*
X-63812319Y-10450951D01*
X-63873642Y-10484436D01*
X-63943334Y-10479452D01*
X-63987681Y-10450951D01*
X-64081342Y-10357289D01*
X-64230663Y-10265187D01*
X-64230668Y-10265185D01*
X-64314670Y-10237349D01*
X-64397203Y-10210001D01*
X-64397204Y-10210000D01*
X-64499989Y-10199500D01*
X-65300001Y-10199500D01*
X-65300019Y-10199501D01*
X-65402796Y-10210000D01*
X-65402799Y-10210001D01*
X-65569331Y-10265185D01*
X-65569336Y-10265187D01*
X-65612405Y-10291752D01*
X-65718656Y-10357288D01*
X-65842712Y-10481344D01*
X-65879259Y-10540597D01*
X-65931207Y-10587321D01*
X-65984798Y-10599500D01*
X-69567060Y-10599500D01*
X-69634099Y-10579815D01*
X-69654741Y-10563181D01*
X-71013181Y-9204741D01*
X-71046666Y-9143418D01*
X-71049500Y-9117060D01*
X-71049500Y-8862268D01*
X-71029815Y-8795229D01*
X-70977011Y-8749474D01*
X-70907853Y-8739530D01*
X-70852614Y-8761951D01*
X-70705147Y-8869093D01*
X-70529835Y-8958418D01*
X-70342705Y-9019221D01*
X-70148382Y-9050000D01*
X-69451618Y-9050000D01*
X-69257294Y-9019221D01*
X-69070168Y-8958420D01*
X-69070161Y-8958417D01*
X-69020458Y-8933091D01*
X-69753550Y-8200000D01*
X-69647339Y-8200000D01*
X-69545606Y-8172741D01*
X-69454394Y-8120080D01*
X-69379920Y-8045606D01*
X-69327259Y-7954394D01*
X-69319819Y-7926628D01*
X-68614341Y-8632107D01*
X-68596555Y-8614321D01*
X-68480904Y-8455143D01*
X-68391581Y-8279835D01*
X-68330778Y-8092705D01*
X-68300000Y-7898382D01*
X-68300000Y-7701617D01*
X-68322086Y-7562174D01*
X-68330778Y-7507294D01*
X-68391581Y-7320164D01*
X-68480904Y-7144856D01*
X-68596555Y-6985678D01*
X-68596556Y-6985677D01*
X-68614341Y-6967893D01*
X-69319819Y-7673371D01*
X-69327259Y-7645606D01*
X-69379920Y-7554394D01*
X-69454394Y-7479920D01*
X-69545606Y-7427259D01*
X-69647339Y-7400000D01*
X-69753552Y-7400000D01*
X-69020458Y-6666906D01*
X-69070159Y-6641583D01*
X-69070169Y-6641579D01*
X-69257294Y-6580778D01*
X-69451618Y-6550000D01*
X-69759867Y-6550000D01*
X-69826906Y-6530315D01*
X-69872661Y-6477511D01*
X-69882605Y-6408353D01*
X-69853580Y-6344797D01*
X-69825145Y-6320573D01*
X-69805278Y-6308272D01*
X-69636757Y-6203928D01*
X-69341563Y-5981008D01*
X-69216373Y-5866882D01*
X-69068197Y-5731802D01*
X-68823656Y-5463553D01*
X-68818992Y-5458437D01*
X-68797577Y-5430080D01*
X-68614790Y-5188029D01*
X-68596072Y-5163243D01*
X-68401340Y-4848741D01*
X-68349401Y-4744433D01*
X-68236460Y-4517617D01*
X-68236459Y-4517616D01*
X-68132325Y-4248813D01*
X-68102832Y-4172683D01*
X-68089037Y-4124201D01*
X-68001603Y-3816902D01*
X-68001601Y-3816895D01*
X-67933631Y-3453285D01*
X-67933630Y-3453277D01*
X-67933629Y-3453276D01*
X-67901044Y-3101613D01*
X-67899500Y-3084954D01*
X-67899500Y-2900000D01*
X-67899500Y-2834108D01*
X-67899500Y-2467648D01*
X-51910500Y-2467648D01*
X-51910500Y-2672352D01*
X-51878477Y-2874534D01*
X-51815220Y-3069219D01*
X-51722287Y-3251610D01*
X-51687007Y-3300169D01*
X-51601971Y-3417213D01*
X-51601968Y-3417215D01*
X-51601966Y-3417219D01*
X-51457219Y-3561966D01*
X-51457215Y-3561968D01*
X-51457213Y-3561971D01*
X-51370157Y-3625220D01*
X-51291610Y-3682287D01*
X-51198370Y-3729795D01*
X-51147573Y-3777769D01*
X-51130778Y-3845590D01*
X-51153315Y-3911725D01*
X-51198369Y-3950765D01*
X-51291350Y-3998141D01*
X-51291359Y-3998147D01*
X-51335921Y-4030523D01*
X-51335922Y-4030524D01*
X-50656446Y-4710000D01*
X-50662661Y-4710000D01*
X-50764394Y-4737259D01*
X-50855606Y-4789920D01*
X-50930080Y-4864394D01*
X-50982741Y-4955606D01*
X-51010000Y-5057339D01*
X-51010000Y-5063551D01*
X-51689474Y-4384076D01*
X-51689474Y-4384077D01*
X-51721859Y-4428650D01*
X-51814755Y-4610968D01*
X-51877990Y-4805582D01*
X-51910000Y-5007682D01*
X-51910000Y-5212317D01*
X-51877990Y-5414417D01*
X-51814755Y-5609031D01*
X-51721859Y-5791349D01*
X-51689474Y-5835921D01*
X-51010000Y-5156447D01*
X-51010000Y-5162661D01*
X-50982741Y-5264394D01*
X-50930080Y-5355606D01*
X-50855606Y-5430080D01*
X-50764394Y-5482741D01*
X-50662661Y-5510000D01*
X-50656447Y-5510000D01*
X-51335921Y-6189474D01*
X-51291347Y-6221861D01*
X-51198371Y-6269234D01*
X-51147575Y-6317208D01*
X-51130779Y-6385028D01*
X-51153316Y-6451164D01*
X-51198369Y-6490203D01*
X-51291611Y-6537713D01*
X-51457213Y-6658028D01*
X-51601971Y-6802786D01*
X-51680924Y-6911458D01*
X-51722287Y-6968390D01*
X-51751324Y-7025379D01*
X-51815218Y-7150776D01*
X-51815218Y-7150778D01*
X-51815220Y-7150781D01*
X-51830063Y-7196464D01*
X-51878477Y-7345465D01*
X-51888217Y-7406959D01*
X-51910500Y-7547648D01*
X-51910500Y-7752352D01*
X-51878477Y-7954534D01*
X-51815220Y-8149219D01*
X-51722287Y-8331610D01*
X-51680690Y-8388864D01*
X-51601971Y-8497213D01*
X-51601968Y-8497215D01*
X-51601966Y-8497219D01*
X-51457219Y-8641966D01*
X-51457215Y-8641968D01*
X-51457213Y-8641971D01*
X-51375163Y-8701583D01*
X-51291610Y-8762287D01*
X-51198917Y-8809516D01*
X-51148123Y-8857489D01*
X-51131328Y-8925310D01*
X-51153865Y-8991445D01*
X-51198917Y-9030483D01*
X-51263768Y-9063527D01*
X-51291614Y-9077715D01*
X-51457213Y-9198028D01*
X-51601971Y-9342786D01*
X-51714556Y-9497749D01*
X-51722287Y-9508390D01*
X-51753593Y-9569832D01*
X-51815218Y-9690776D01*
X-51878477Y-9885465D01*
X-51910500Y-10087648D01*
X-51910500Y-10292352D01*
X-51878477Y-10494534D01*
X-51815220Y-10689219D01*
X-51722287Y-10871610D01*
X-51705965Y-10894075D01*
X-51601971Y-11037213D01*
X-51601968Y-11037215D01*
X-51601966Y-11037219D01*
X-51457219Y-11181966D01*
X-51420930Y-11208330D01*
X-51378265Y-11263658D01*
X-51372284Y-11333271D01*
X-51404889Y-11395067D01*
X-51465726Y-11429426D01*
X-51480559Y-11431938D01*
X-51517480Y-11435907D01*
X-51652328Y-11486202D01*
X-51652335Y-11486206D01*
X-51767544Y-11572452D01*
X-51767547Y-11572455D01*
X-51853793Y-11687664D01*
X-51853797Y-11687671D01*
X-51874184Y-11742331D01*
X-51904091Y-11822517D01*
X-51910500Y-11882127D01*
X-51910499Y-13577872D01*
X-51904091Y-13637483D01*
X-51853796Y-13772331D01*
X-51767546Y-13887546D01*
X-51652331Y-13973796D01*
X-51517483Y-14024091D01*
X-51457873Y-14030500D01*
X-49762128Y-14030499D01*
X-49713757Y-14025299D01*
X-49702516Y-14024091D01*
X-49567671Y-13973797D01*
X-49567664Y-13973793D01*
X-49452455Y-13887547D01*
X-49452452Y-13887544D01*
X-49366206Y-13772335D01*
X-49366202Y-13772328D01*
X-49315908Y-13637482D01*
X-49309501Y-13577883D01*
X-49309500Y-13577881D01*
X-49309500Y-13577873D01*
X-49309500Y-12760000D01*
X-49309500Y-11882129D01*
X-49309501Y-11882123D01*
X-49315908Y-11822516D01*
X-49366202Y-11687671D01*
X-49366206Y-11687664D01*
X-49452452Y-11572455D01*
X-49452455Y-11572452D01*
X-49567664Y-11486206D01*
X-49567671Y-11486202D01*
X-49702517Y-11435908D01*
X-49702515Y-11435908D01*
X-49739440Y-11431939D01*
X-49803991Y-11405201D01*
X-49843839Y-11347809D01*
X-49846332Y-11277983D01*
X-49810679Y-11217895D01*
X-49799070Y-11208332D01*
X-49762782Y-11181967D01*
X-49618028Y-11037213D01*
X-49497715Y-10871613D01*
X-49491797Y-10860000D01*
X-49444741Y-10767647D01*
X-49404781Y-10689223D01*
X-49341522Y-10494534D01*
X-49309500Y-10292351D01*
X-49309500Y-10274038D01*
X-47290500Y-10274038D01*
X-47290500Y-10525962D01*
X-47251090Y-10774785D01*
X-47173241Y-11014379D01*
X-47058870Y-11238845D01*
X-46910793Y-11442656D01*
X-46732656Y-11620793D01*
X-46528845Y-11768870D01*
X-46304379Y-11883241D01*
X-46064785Y-11961090D01*
X-45815962Y-12000500D01*
X-45815961Y-12000500D01*
X-45564039Y-12000500D01*
X-45564038Y-12000500D01*
X-45315215Y-11961090D01*
X-45075621Y-11883241D01*
X-45075618Y-11883239D01*
X-45075616Y-11883239D01*
X-44956441Y-11822516D01*
X-44851155Y-11768870D01*
X-44835257Y-11757319D01*
X-44769452Y-11733840D01*
X-44701398Y-11749665D01*
X-44663109Y-11783323D01*
X-44607546Y-11857546D01*
X-44492331Y-11943796D01*
X-44357483Y-11994091D01*
X-44297873Y-12000500D01*
X-42002128Y-12000499D01*
X-41953757Y-11995299D01*
X-41942516Y-11994091D01*
X-41807671Y-11943797D01*
X-41807664Y-11943793D01*
X-41692455Y-11857547D01*
X-41692452Y-11857544D01*
X-41606206Y-11742335D01*
X-41606202Y-11742328D01*
X-41555908Y-11607482D01*
X-41549501Y-11547883D01*
X-41549500Y-11547864D01*
X-41549500Y-11249778D01*
X-40050500Y-11249778D01*
X-40050500Y-11470222D01*
X-40016015Y-11687951D01*
X-39947895Y-11897606D01*
X-39847815Y-12094022D01*
X-39718242Y-12272365D01*
X-39562365Y-12428242D01*
X-39384022Y-12557815D01*
X-39187606Y-12657895D01*
X-38977951Y-12726015D01*
X-38760222Y-12760500D01*
X-38760221Y-12760500D01*
X-38539779Y-12760500D01*
X-38539778Y-12760500D01*
X-38322049Y-12726015D01*
X-38217221Y-12691955D01*
X-38112396Y-12657896D01*
X-38112393Y-12657895D01*
X-38038381Y-12620183D01*
X-37915978Y-12557815D01*
X-37827484Y-12493521D01*
X-37737641Y-12428247D01*
X-37737636Y-12428243D01*
X-37581756Y-12272363D01*
X-37581752Y-12272358D01*
X-37480008Y-12132319D01*
X-37424678Y-12089653D01*
X-37355065Y-12083674D01*
X-37293270Y-12116279D01*
X-37279372Y-12132318D01*
X-37231310Y-12198467D01*
X-37231309Y-12198468D01*
X-36578019Y-11545177D01*
X-36575925Y-11552993D01*
X-36510099Y-11667007D01*
X-36417007Y-11760099D01*
X-36302993Y-11825925D01*
X-36295178Y-11828019D01*
X-36948468Y-12481309D01*
X-36948467Y-12481310D01*
X-36843758Y-12557386D01*
X-36843752Y-12557390D01*
X-36647410Y-12657432D01*
X-36437835Y-12725526D01*
X-36220181Y-12760000D01*
X-35999819Y-12760000D01*
X-35782164Y-12725526D01*
X-35572589Y-12657432D01*
X-35376239Y-12557386D01*
X-35271531Y-12481310D01*
X-35271530Y-12481310D01*
X-35924822Y-11828019D01*
X-35917007Y-11825925D01*
X-35802993Y-11760099D01*
X-35709901Y-11667007D01*
X-35644075Y-11552993D01*
X-35641980Y-11545176D01*
X-34988689Y-12198468D01*
X-34988688Y-12198467D01*
X-34940627Y-12132318D01*
X-34885297Y-12089653D01*
X-34815683Y-12083674D01*
X-34753888Y-12116280D01*
X-34739994Y-12132313D01*
X-34638242Y-12272365D01*
X-34482365Y-12428242D01*
X-34304022Y-12557815D01*
X-34107606Y-12657895D01*
X-33897951Y-12726015D01*
X-33680222Y-12760500D01*
X-33680221Y-12760500D01*
X-33459779Y-12760500D01*
X-33459778Y-12760500D01*
X-33242049Y-12726015D01*
X-33137221Y-12691955D01*
X-33032396Y-12657896D01*
X-33032393Y-12657895D01*
X-32958381Y-12620183D01*
X-32835978Y-12557815D01*
X-32747484Y-12493521D01*
X-32657641Y-12428247D01*
X-32657636Y-12428243D01*
X-32501756Y-12272363D01*
X-32501752Y-12272358D01*
X-32400318Y-12132745D01*
X-32344989Y-12090079D01*
X-32275375Y-12084100D01*
X-32213580Y-12116705D01*
X-32199682Y-12132745D01*
X-32150455Y-12200500D01*
X-32098242Y-12272365D01*
X-31942365Y-12428242D01*
X-31764022Y-12557815D01*
X-31567606Y-12657895D01*
X-31357951Y-12726015D01*
X-31140222Y-12760500D01*
X-31140221Y-12760500D01*
X-30919779Y-12760500D01*
X-30919778Y-12760500D01*
X-30702049Y-12726015D01*
X-30597221Y-12691955D01*
X-30492396Y-12657896D01*
X-30492393Y-12657895D01*
X-30418381Y-12620183D01*
X-30295978Y-12557815D01*
X-30207484Y-12493521D01*
X-30117641Y-12428247D01*
X-30117636Y-12428243D01*
X-29961756Y-12272363D01*
X-29961752Y-12272358D01*
X-29860318Y-12132745D01*
X-29804989Y-12090079D01*
X-29735375Y-12084100D01*
X-29673580Y-12116705D01*
X-29659682Y-12132745D01*
X-29610455Y-12200500D01*
X-29558242Y-12272365D01*
X-29402365Y-12428242D01*
X-29224022Y-12557815D01*
X-29027606Y-12657895D01*
X-28817951Y-12726015D01*
X-28600222Y-12760500D01*
X-28600221Y-12760500D01*
X-28379779Y-12760500D01*
X-28379778Y-12760500D01*
X-28162049Y-12726015D01*
X-28057221Y-12691955D01*
X-27952396Y-12657896D01*
X-27952393Y-12657895D01*
X-27878381Y-12620183D01*
X-27755978Y-12557815D01*
X-27667484Y-12493521D01*
X-27577641Y-12428247D01*
X-27577636Y-12428243D01*
X-27421756Y-12272363D01*
X-27421752Y-12272358D01*
X-27320318Y-12132745D01*
X-27264989Y-12090079D01*
X-27195375Y-12084100D01*
X-27133580Y-12116705D01*
X-27119682Y-12132745D01*
X-27070455Y-12200500D01*
X-27018242Y-12272365D01*
X-26862365Y-12428242D01*
X-26684022Y-12557815D01*
X-26487606Y-12657895D01*
X-26277951Y-12726015D01*
X-26060222Y-12760500D01*
X-26060221Y-12760500D01*
X-25839779Y-12760500D01*
X-25839778Y-12760500D01*
X-25622049Y-12726015D01*
X-25517221Y-12691955D01*
X-25412396Y-12657896D01*
X-25412393Y-12657895D01*
X-25338381Y-12620183D01*
X-25215978Y-12557815D01*
X-25127484Y-12493521D01*
X-25037641Y-12428247D01*
X-25037636Y-12428243D01*
X-24881756Y-12272363D01*
X-24881752Y-12272358D01*
X-24780318Y-12132745D01*
X-24724989Y-12090079D01*
X-24655375Y-12084100D01*
X-24593580Y-12116705D01*
X-24579682Y-12132745D01*
X-24530455Y-12200500D01*
X-24478242Y-12272365D01*
X-24322365Y-12428242D01*
X-24144022Y-12557815D01*
X-23947606Y-12657895D01*
X-23737951Y-12726015D01*
X-23520222Y-12760500D01*
X-23520221Y-12760500D01*
X-23299779Y-12760500D01*
X-23299778Y-12760500D01*
X-23082049Y-12726015D01*
X-22977221Y-12691955D01*
X-22872396Y-12657896D01*
X-22872393Y-12657895D01*
X-22798381Y-12620183D01*
X-22675978Y-12557815D01*
X-22587484Y-12493521D01*
X-22497641Y-12428247D01*
X-22497636Y-12428243D01*
X-22341756Y-12272363D01*
X-22341752Y-12272358D01*
X-22212187Y-12094025D01*
X-22207129Y-12084100D01*
X-22175380Y-12021789D01*
X-22112104Y-11897606D01*
X-22112103Y-11897603D01*
X-22043985Y-11687952D01*
X-22009500Y-11470221D01*
X-22009500Y-11249778D01*
X-22043985Y-11032047D01*
X-22112103Y-10822396D01*
X-22112104Y-10822393D01*
X-22212187Y-10625974D01*
X-22341752Y-10447641D01*
X-22341756Y-10447636D01*
X-22497636Y-10291756D01*
X-22497641Y-10291752D01*
X-22675974Y-10162187D01*
X-22872393Y-10062104D01*
X-22872396Y-10062103D01*
X-23082047Y-9993985D01*
X-23227201Y-9970995D01*
X-23299778Y-9959500D01*
X-23520222Y-9959500D01*
X-23629086Y-9976742D01*
X-23737952Y-9993985D01*
X-23947603Y-10062103D01*
X-23947606Y-10062104D01*
X-24081096Y-10130122D01*
X-24144022Y-10162185D01*
X-24144024Y-10162186D01*
X-24144025Y-10162187D01*
X-24322358Y-10291752D01*
X-24322363Y-10291756D01*
X-24478243Y-10447636D01*
X-24478247Y-10447641D01*
X-24579682Y-10587254D01*
X-24635012Y-10629920D01*
X-24704625Y-10635899D01*
X-24766420Y-10603293D01*
X-24780318Y-10587254D01*
X-24881752Y-10447641D01*
X-24881756Y-10447636D01*
X-25037636Y-10291756D01*
X-25037641Y-10291752D01*
X-25215974Y-10162187D01*
X-25412393Y-10062104D01*
X-25412396Y-10062103D01*
X-25622047Y-9993985D01*
X-25767201Y-9970995D01*
X-25839778Y-9959500D01*
X-26060222Y-9959500D01*
X-26169086Y-9976742D01*
X-26277952Y-9993985D01*
X-26487603Y-10062103D01*
X-26487606Y-10062104D01*
X-26621096Y-10130122D01*
X-26684022Y-10162185D01*
X-26684024Y-10162186D01*
X-26684025Y-10162187D01*
X-26862358Y-10291752D01*
X-26862363Y-10291756D01*
X-27018243Y-10447636D01*
X-27018247Y-10447641D01*
X-27119682Y-10587254D01*
X-27175012Y-10629920D01*
X-27244625Y-10635899D01*
X-27306420Y-10603293D01*
X-27320318Y-10587254D01*
X-27421752Y-10447641D01*
X-27421756Y-10447636D01*
X-27577636Y-10291756D01*
X-27577641Y-10291752D01*
X-27755974Y-10162187D01*
X-27952393Y-10062104D01*
X-27952396Y-10062103D01*
X-28162047Y-9993985D01*
X-28307201Y-9970995D01*
X-28379778Y-9959500D01*
X-28600222Y-9959500D01*
X-28709086Y-9976742D01*
X-28817952Y-9993985D01*
X-29027603Y-10062103D01*
X-29027606Y-10062104D01*
X-29161096Y-10130122D01*
X-29224022Y-10162185D01*
X-29224024Y-10162186D01*
X-29224025Y-10162187D01*
X-29402358Y-10291752D01*
X-29402363Y-10291756D01*
X-29558243Y-10447636D01*
X-29558247Y-10447641D01*
X-29659682Y-10587254D01*
X-29715012Y-10629920D01*
X-29784625Y-10635899D01*
X-29846420Y-10603293D01*
X-29860318Y-10587254D01*
X-29961752Y-10447641D01*
X-29961756Y-10447636D01*
X-30117636Y-10291756D01*
X-30117641Y-10291752D01*
X-30295974Y-10162187D01*
X-30492393Y-10062104D01*
X-30492396Y-10062103D01*
X-30702047Y-9993985D01*
X-30847201Y-9970995D01*
X-30919778Y-9959500D01*
X-31140222Y-9959500D01*
X-31249086Y-9976742D01*
X-31357952Y-9993985D01*
X-31567603Y-10062103D01*
X-31567606Y-10062104D01*
X-31701096Y-10130122D01*
X-31764022Y-10162185D01*
X-31764024Y-10162186D01*
X-31764025Y-10162187D01*
X-31942358Y-10291752D01*
X-31942363Y-10291756D01*
X-32098243Y-10447636D01*
X-32098247Y-10447641D01*
X-32199682Y-10587254D01*
X-32255012Y-10629920D01*
X-32324625Y-10635899D01*
X-32386420Y-10603293D01*
X-32400318Y-10587254D01*
X-32501752Y-10447641D01*
X-32501756Y-10447636D01*
X-32657636Y-10291756D01*
X-32657641Y-10291752D01*
X-32835974Y-10162187D01*
X-33032393Y-10062104D01*
X-33032396Y-10062103D01*
X-33242047Y-9993985D01*
X-33387201Y-9970995D01*
X-33459778Y-9959500D01*
X-33680222Y-9959500D01*
X-33789086Y-9976742D01*
X-33897952Y-9993985D01*
X-34107603Y-10062103D01*
X-34107606Y-10062104D01*
X-34241096Y-10130122D01*
X-34304022Y-10162185D01*
X-34304024Y-10162186D01*
X-34304025Y-10162187D01*
X-34482358Y-10291752D01*
X-34482363Y-10291756D01*
X-34638243Y-10447636D01*
X-34638247Y-10447641D01*
X-34739991Y-10587680D01*
X-34795320Y-10630346D01*
X-34864934Y-10636325D01*
X-34926729Y-10603720D01*
X-34940627Y-10587680D01*
X-34988686Y-10521531D01*
X-34988688Y-10521530D01*
X-35641980Y-11174822D01*
X-35644075Y-11167007D01*
X-35709901Y-11052993D01*
X-35802993Y-10959901D01*
X-35917007Y-10894075D01*
X-35924823Y-10891980D01*
X-35271530Y-10238688D01*
X-35271531Y-10238687D01*
X-35376236Y-10162615D01*
X-35572589Y-10062567D01*
X-35782164Y-9994473D01*
X-35999819Y-9960000D01*
X-36220181Y-9960000D01*
X-36437835Y-9994473D01*
X-36647410Y-10062567D01*
X-36843760Y-10162613D01*
X-36948467Y-10238688D01*
X-36948468Y-10238689D01*
X-36295177Y-10891980D01*
X-36302993Y-10894075D01*
X-36417007Y-10959901D01*
X-36510099Y-11052993D01*
X-36575925Y-11167007D01*
X-36578019Y-11174821D01*
X-37231310Y-10521530D01*
X-37231310Y-10521531D01*
X-37279372Y-10587681D01*
X-37334702Y-10630346D01*
X-37404316Y-10636325D01*
X-37466111Y-10603719D01*
X-37480008Y-10587681D01*
X-37581756Y-10447636D01*
X-37655764Y-10373629D01*
X-37737636Y-10291756D01*
X-37737641Y-10291752D01*
X-37915974Y-10162187D01*
X-38112393Y-10062104D01*
X-38112396Y-10062103D01*
X-38322047Y-9993985D01*
X-38467201Y-9970995D01*
X-38539778Y-9959500D01*
X-38760222Y-9959500D01*
X-38869086Y-9976742D01*
X-38977952Y-9993985D01*
X-39187603Y-10062103D01*
X-39187606Y-10062104D01*
X-39321096Y-10130122D01*
X-39384022Y-10162185D01*
X-39384024Y-10162186D01*
X-39384025Y-10162187D01*
X-39562358Y-10291752D01*
X-39562363Y-10291756D01*
X-39718243Y-10447636D01*
X-39718247Y-10447641D01*
X-39798614Y-10558258D01*
X-39847815Y-10625978D01*
X-39880038Y-10689219D01*
X-39947895Y-10822393D01*
X-39947895Y-10822394D01*
X-40016015Y-11032049D01*
X-40050500Y-11249778D01*
X-41549500Y-11249778D01*
X-41549500Y-9252129D01*
X-41549501Y-9252123D01*
X-41555908Y-9192516D01*
X-41606202Y-9057671D01*
X-41606206Y-9057664D01*
X-41692452Y-8942455D01*
X-41692455Y-8942452D01*
X-41807664Y-8856206D01*
X-41807671Y-8856202D01*
X-41942517Y-8805908D01*
X-41942516Y-8805908D01*
X-42002116Y-8799501D01*
X-42002119Y-8799500D01*
X-42002127Y-8799500D01*
X-42002134Y-8799500D01*
X-42002135Y-8799500D01*
X-44297870Y-8799500D01*
X-44297876Y-8799501D01*
X-44357483Y-8805908D01*
X-44492328Y-8856202D01*
X-44492335Y-8856206D01*
X-44553977Y-8902352D01*
X-44607546Y-8942454D01*
X-44663106Y-9016673D01*
X-44719039Y-9058543D01*
X-44788731Y-9063527D01*
X-44835254Y-9042681D01*
X-44851149Y-9031132D01*
X-45075616Y-8916760D01*
X-45315214Y-8838910D01*
X-45439626Y-8819205D01*
X-45564038Y-8799500D01*
X-45815962Y-8799500D01*
X-46064785Y-8838910D01*
X-46304383Y-8916760D01*
X-46433423Y-8982510D01*
X-46528845Y-9031130D01*
X-46528847Y-9031131D01*
X-46528848Y-9031132D01*
X-46732649Y-9179201D01*
X-46732654Y-9179205D01*
X-46910794Y-9357345D01*
X-46910798Y-9357350D01*
X-46941595Y-9399739D01*
X-47058870Y-9561155D01*
X-47124915Y-9690776D01*
X-47173239Y-9785616D01*
X-47173239Y-9785618D01*
X-47173241Y-9785621D01*
X-47251090Y-10025215D01*
X-47290500Y-10274038D01*
X-49309500Y-10274038D01*
X-49309500Y-10087648D01*
X-49341522Y-9885465D01*
X-49404781Y-9690776D01*
X-49497715Y-9508386D01*
X-49618028Y-9342786D01*
X-49762786Y-9198028D01*
X-49928386Y-9077715D01*
X-50021080Y-9030485D01*
X-50071876Y-8982510D01*
X-50088671Y-8914689D01*
X-50066134Y-8848554D01*
X-50021080Y-8809515D01*
X-50014001Y-8805908D01*
X-49928390Y-8762287D01*
X-49844837Y-8701583D01*
X-49762786Y-8641971D01*
X-49618028Y-8497213D01*
X-49497715Y-8331613D01*
X-49491785Y-8319976D01*
X-49430654Y-8200000D01*
X-49404781Y-8149223D01*
X-49341522Y-7954534D01*
X-49309500Y-7752351D01*
X-49309500Y-7547648D01*
X-49341522Y-7345465D01*
X-49404781Y-7150776D01*
X-49497715Y-6968386D01*
X-49618028Y-6802786D01*
X-49762786Y-6658028D01*
X-49928388Y-6537713D01*
X-50021630Y-6490203D01*
X-50072426Y-6442228D01*
X-50089220Y-6374407D01*
X-50066682Y-6308272D01*
X-50021628Y-6269234D01*
X-49928652Y-6221861D01*
X-49884077Y-6189474D01*
X-49884076Y-6189474D01*
X-50563553Y-5510000D01*
X-50557339Y-5510000D01*
X-50455606Y-5482741D01*
X-50364394Y-5430080D01*
X-50289920Y-5355606D01*
X-50237259Y-5264394D01*
X-50210000Y-5162661D01*
X-50210000Y-5156446D01*
X-49530524Y-5835922D01*
X-49530523Y-5835921D01*
X-49498147Y-5791359D01*
X-49498141Y-5791350D01*
X-49405244Y-5609031D01*
X-49342009Y-5414417D01*
X-49310000Y-5212317D01*
X-49310000Y-5007682D01*
X-49342009Y-4805582D01*
X-49405244Y-4610968D01*
X-49498143Y-4428644D01*
X-49530523Y-4384077D01*
X-49530524Y-4384077D01*
X-50210000Y-5063553D01*
X-50210000Y-5057339D01*
X-50237259Y-4955606D01*
X-50289920Y-4864394D01*
X-50364394Y-4789920D01*
X-50455606Y-4737259D01*
X-50557339Y-4710000D01*
X-50563554Y-4710000D01*
X-49884077Y-4030524D01*
X-49884077Y-4030523D01*
X-49928644Y-3998143D01*
X-50021630Y-3950765D01*
X-50072426Y-3902790D01*
X-50089221Y-3834969D01*
X-50066683Y-3768834D01*
X-50021630Y-3729795D01*
X-49928390Y-3682287D01*
X-49928387Y-3682285D01*
X-49928385Y-3682284D01*
X-49762786Y-3561971D01*
X-49618028Y-3417213D01*
X-49497715Y-3251613D01*
X-49488601Y-3233727D01*
X-49454723Y-3167238D01*
X-49425343Y-3109577D01*
X-48350500Y-3109577D01*
X-48350500Y-4806422D01*
X-48331226Y-4928110D01*
X-48319709Y-5000826D01*
X-48258884Y-5188025D01*
X-48169524Y-5363405D01*
X-48053828Y-5522646D01*
X-47914646Y-5661828D01*
X-47755405Y-5777524D01*
X-47580025Y-5866884D01*
X-47392826Y-5927709D01*
X-47198422Y-5958500D01*
X-47198417Y-5958500D01*
X-47001578Y-5958500D01*
X-46807173Y-5927709D01*
X-46720317Y-5899487D01*
X-46619975Y-5866884D01*
X-46619972Y-5866882D01*
X-46619970Y-5866882D01*
X-46527455Y-5819743D01*
X-46444595Y-5777524D01*
X-46285354Y-5661828D01*
X-46146172Y-5522646D01*
X-46030476Y-5363405D01*
X-45996465Y-5296655D01*
X-45941117Y-5188029D01*
X-45880290Y-5000826D01*
X-45849500Y-4806422D01*
X-45849500Y-4738568D01*
X-45829815Y-4671529D01*
X-45777011Y-4625774D01*
X-45707853Y-4615830D01*
X-45644297Y-4644855D01*
X-45615015Y-4682272D01*
X-45583343Y-4744433D01*
X-45444517Y-4935510D01*
X-45277510Y-5102517D01*
X-45086433Y-5241343D01*
X-44875992Y-5348568D01*
X-44673330Y-5414417D01*
X-44651368Y-5421553D01*
X-44418097Y-5458500D01*
X-44418092Y-5458500D01*
X-44181903Y-5458500D01*
X-43948631Y-5421553D01*
X-43822284Y-5380500D01*
X-43724008Y-5348568D01*
X-43724005Y-5348566D01*
X-43724003Y-5348566D01*
X-43573519Y-5271890D01*
X-43513567Y-5241343D01*
X-43322490Y-5102517D01*
X-43155483Y-4935510D01*
X-43016657Y-4744433D01*
X-42910484Y-4536057D01*
X-42862511Y-4485262D01*
X-42794690Y-4468467D01*
X-42728555Y-4491004D01*
X-42689515Y-4536057D01*
X-42583343Y-4744433D01*
X-42444517Y-4935510D01*
X-42277510Y-5102517D01*
X-42086433Y-5241343D01*
X-41875992Y-5348568D01*
X-41673330Y-5414417D01*
X-41651368Y-5421553D01*
X-41418097Y-5458500D01*
X-41418092Y-5458500D01*
X-41181903Y-5458500D01*
X-40948631Y-5421553D01*
X-40822284Y-5380500D01*
X-40724008Y-5348568D01*
X-40724005Y-5348566D01*
X-40724003Y-5348566D01*
X-40573519Y-5271890D01*
X-40513567Y-5241343D01*
X-40322490Y-5102517D01*
X-40155483Y-4935510D01*
X-40016657Y-4744433D01*
X-39910484Y-4536057D01*
X-39862511Y-4485262D01*
X-39794690Y-4468467D01*
X-39728555Y-4491004D01*
X-39689515Y-4536057D01*
X-39583343Y-4744433D01*
X-39444517Y-4935510D01*
X-39277510Y-5102517D01*
X-39086433Y-5241343D01*
X-38875992Y-5348568D01*
X-38673330Y-5414417D01*
X-38651368Y-5421553D01*
X-38418097Y-5458500D01*
X-38418092Y-5458500D01*
X-38181903Y-5458500D01*
X-37948631Y-5421553D01*
X-37822284Y-5380500D01*
X-37724008Y-5348568D01*
X-37724005Y-5348566D01*
X-37724003Y-5348566D01*
X-37573519Y-5271890D01*
X-37513567Y-5241343D01*
X-37322490Y-5102517D01*
X-37155483Y-4935510D01*
X-37016657Y-4744433D01*
X-36984984Y-4682272D01*
X-36937010Y-4631477D01*
X-36869189Y-4614682D01*
X-36803054Y-4637219D01*
X-36759603Y-4691934D01*
X-36750500Y-4738568D01*
X-36750500Y-4806422D01*
X-36731226Y-4928110D01*
X-36719709Y-5000826D01*
X-36658884Y-5188025D01*
X-36569524Y-5363405D01*
X-36453828Y-5522646D01*
X-36314646Y-5661828D01*
X-36155405Y-5777524D01*
X-35980025Y-5866884D01*
X-35792826Y-5927709D01*
X-35598422Y-5958500D01*
X-35598417Y-5958500D01*
X-35401578Y-5958500D01*
X-35207173Y-5927709D01*
X-35120317Y-5899487D01*
X-35019975Y-5866884D01*
X-35019972Y-5866882D01*
X-35019970Y-5866882D01*
X-34927455Y-5819743D01*
X-34844595Y-5777524D01*
X-34685354Y-5661828D01*
X-34546172Y-5522646D01*
X-34430476Y-5363405D01*
X-34396465Y-5296655D01*
X-34341117Y-5188029D01*
X-34280290Y-5000826D01*
X-34249500Y-4806422D01*
X-34249500Y-3109577D01*
X-34280290Y-2915173D01*
X-34341117Y-2727970D01*
X-34430476Y-2552594D01*
X-34525978Y-2421149D01*
X-34546172Y-2393354D01*
X-34546174Y-2393352D01*
X-34546174Y-2393351D01*
X-34685351Y-2254174D01*
X-34844594Y-2138476D01*
X-35019970Y-2049117D01*
X-35207173Y-1988290D01*
X-35401578Y-1957500D01*
X-35401583Y-1957500D01*
X-35598417Y-1957500D01*
X-35598422Y-1957500D01*
X-35792826Y-1988290D01*
X-35980029Y-2049117D01*
X-36155405Y-2138476D01*
X-36314646Y-2254172D01*
X-36453828Y-2393354D01*
X-36569524Y-2552595D01*
X-36577084Y-2567433D01*
X-36658882Y-2727970D01*
X-36719709Y-2915173D01*
X-36750500Y-3109577D01*
X-36750500Y-3177431D01*
X-36770185Y-3244470D01*
X-36822989Y-3290225D01*
X-36892147Y-3300169D01*
X-36955703Y-3271144D01*
X-36984984Y-3233727D01*
X-37016655Y-3171568D01*
X-37128052Y-3018245D01*
X-37155483Y-2980490D01*
X-37155485Y-2980488D01*
X-37155485Y-2980487D01*
X-37322487Y-2813485D01*
X-37513566Y-2674657D01*
X-37724003Y-2567433D01*
X-37948631Y-2494446D01*
X-38181903Y-2457500D01*
X-38181908Y-2457500D01*
X-38418092Y-2457500D01*
X-38418097Y-2457500D01*
X-38651368Y-2494446D01*
X-38875996Y-2567433D01*
X-39076261Y-2669474D01*
X-39086433Y-2674657D01*
X-39277510Y-2813483D01*
X-39444517Y-2980490D01*
X-39583343Y-3171567D01*
X-39615015Y-3233727D01*
X-39689515Y-3379941D01*
X-39737490Y-3430737D01*
X-39805311Y-3447532D01*
X-39871446Y-3424995D01*
X-39910485Y-3379941D01*
X-40016657Y-3171566D01*
X-40128041Y-3018261D01*
X-40155483Y-2980490D01*
X-40155485Y-2980488D01*
X-40155485Y-2980487D01*
X-40322487Y-2813485D01*
X-40513566Y-2674657D01*
X-40724003Y-2567433D01*
X-40948631Y-2494446D01*
X-41181903Y-2457500D01*
X-41181908Y-2457500D01*
X-41418092Y-2457500D01*
X-41418097Y-2457500D01*
X-41651368Y-2494446D01*
X-41875996Y-2567433D01*
X-42076261Y-2669474D01*
X-42086433Y-2674657D01*
X-42277510Y-2813483D01*
X-42444517Y-2980490D01*
X-42583343Y-3171567D01*
X-42615015Y-3233727D01*
X-42689515Y-3379941D01*
X-42737490Y-3430737D01*
X-42805311Y-3447532D01*
X-42871446Y-3424995D01*
X-42910485Y-3379941D01*
X-43016657Y-3171566D01*
X-43128041Y-3018261D01*
X-43155483Y-2980490D01*
X-43155485Y-2980488D01*
X-43155485Y-2980487D01*
X-43322487Y-2813485D01*
X-43513566Y-2674657D01*
X-43724003Y-2567433D01*
X-43948631Y-2494446D01*
X-44181903Y-2457500D01*
X-44181908Y-2457500D01*
X-44418092Y-2457500D01*
X-44418097Y-2457500D01*
X-44651368Y-2494446D01*
X-44875996Y-2567433D01*
X-45076261Y-2669474D01*
X-45086433Y-2674657D01*
X-45277510Y-2813483D01*
X-45444517Y-2980490D01*
X-45532516Y-3101610D01*
X-45583344Y-3171568D01*
X-45615016Y-3233727D01*
X-45662990Y-3284522D01*
X-45730811Y-3301317D01*
X-45796946Y-3278779D01*
X-45840397Y-3224064D01*
X-45849500Y-3177431D01*
X-45849500Y-3109577D01*
X-45880290Y-2915173D01*
X-45941117Y-2727970D01*
X-46030476Y-2552594D01*
X-46125978Y-2421149D01*
X-46146172Y-2393354D01*
X-46146174Y-2393352D01*
X-46146174Y-2393351D01*
X-46285351Y-2254174D01*
X-46444594Y-2138476D01*
X-46619970Y-2049117D01*
X-46807173Y-1988290D01*
X-47001578Y-1957500D01*
X-47001583Y-1957500D01*
X-47198417Y-1957500D01*
X-47198422Y-1957500D01*
X-47392826Y-1988290D01*
X-47580029Y-2049117D01*
X-47755405Y-2138476D01*
X-47914646Y-2254172D01*
X-48053828Y-2393354D01*
X-48169524Y-2552595D01*
X-48177084Y-2567433D01*
X-48258882Y-2727970D01*
X-48319709Y-2915173D01*
X-48350500Y-3109577D01*
X-49425343Y-3109577D01*
X-49404782Y-3069224D01*
X-49404780Y-3069219D01*
X-49388220Y-3018252D01*
X-49341522Y-2874534D01*
X-49309500Y-2672351D01*
X-49309500Y-2467648D01*
X-49341522Y-2265465D01*
X-49404781Y-2070776D01*
X-49497715Y-1888386D01*
X-49618028Y-1722786D01*
X-49762786Y-1578028D01*
X-49928386Y-1457715D01*
X-50110776Y-1364781D01*
X-50305465Y-1301522D01*
X-50483329Y-1273351D01*
X-50507648Y-1269500D01*
X-50712352Y-1269500D01*
X-50739995Y-1273878D01*
X-50914534Y-1301522D01*
X-51109223Y-1364781D01*
X-51233350Y-1428028D01*
X-51291610Y-1457713D01*
X-51291612Y-1457714D01*
X-51291613Y-1457715D01*
X-51457213Y-1578028D01*
X-51601971Y-1722786D01*
X-51659280Y-1801667D01*
X-51722287Y-1888390D01*
X-51773189Y-1988290D01*
X-51815218Y-2070776D01*
X-51815218Y-2070778D01*
X-51815220Y-2070781D01*
X-51829739Y-2115466D01*
X-51878477Y-2265465D01*
X-51898733Y-2393354D01*
X-51910500Y-2467648D01*
X-67899500Y-2467648D01*
X-67899500Y-1006959D01*
X-67898720Y-993076D01*
X-67888541Y-902734D01*
X-67882362Y-875662D01*
X-67854649Y-796464D01*
X-67842602Y-771447D01*
X-67797957Y-700395D01*
X-67780644Y-678686D01*
X-67721313Y-619355D01*
X-67699606Y-602043D01*
X-67628549Y-557395D01*
X-67603539Y-545351D01*
X-67524333Y-517636D01*
X-67497268Y-511458D01*
X-67423412Y-503137D01*
X-67406923Y-501280D01*
X-67393041Y-500500D01*
X-67334108Y-500500D01*
X-30416853Y-500500D01*
X-30349814Y-520185D01*
G37*
%TD.AperFunction*%
%TD*%
D29*
X-73907107Y-15835883D02*
G75*
G02*
X-74200000Y-15128776I707101J707104D01*
G01*
X-68171669Y-21157107D02*
G75*
G02*
X-68878776Y-20864214I-3J999994D01*
G01*
X-68878776Y-20864214D02*
X-73907107Y-15835883D01*
X-73200001Y-6400000D02*
X-71899999Y-6400000D01*
X-65500000Y-22157107D02*
X-65500000Y-33600000D01*
X-67900000Y-42000000D02*
G75*
G02*
X-67900000Y-34600000I0J3700000D01*
G01*
X-66500000Y-21157107D02*
G75*
G02*
X-65500000Y-22157107I1J-999999D01*
G01*
X-18700000Y-42000000D02*
X0Y-42000000D01*
X-74200000Y-7400000D02*
G75*
G02*
X-73200000Y-6400000I999999J1D01*
G01*
X-68400000Y-2900000D02*
G75*
G02*
X-71900000Y-6400000I-3499999J-1D01*
G01*
X-29300000Y-39800000D02*
X-29300000Y-40000000D01*
X0Y0D02*
X0Y-42000000D01*
X-29300000Y-39800000D02*
G75*
G02*
X-20700000Y-39800000I4300000J0D01*
G01*
X-18700000Y-42000000D02*
G75*
G02*
X-20700000Y-40000000I-1J1999999D01*
G01*
X-67100000Y-34600000D02*
X-67900000Y-34600000D01*
X-25234389Y-5100000D02*
G75*
G02*
X-33241611Y-5100000I-4003611J0D01*
G01*
X-33241611Y-5100000D02*
G75*
G02*
X-25234389Y-5100000I4003611J0D01*
G01*
X-68400000Y-1000000D02*
X-68400000Y-2900000D01*
X-74200000Y-7400000D02*
X-74200000Y-15128776D01*
X0Y0D02*
X-67400000Y0D01*
X-66499999Y-34600000D02*
X-67100000Y-34600000D01*
X-29300000Y-40000000D02*
G75*
G02*
X-31300000Y-42000000I-1999999J-1D01*
G01*
X-68171669Y-21157107D02*
X-66499999Y-21157107D01*
X-65500000Y-33600000D02*
G75*
G02*
X-66500000Y-34600000I-999999J-1D01*
G01*
X-31300000Y-42000000D02*
X-67900000Y-42000000D01*
X-20700000Y-40000000D02*
X-20700000Y-39800000D01*
X-68400000Y-1000000D02*
G75*
G02*
X-67400000Y0I999999J1D01*
G01*
M02*
