%TF.GenerationSoftware,KiCad,Pcbnew,9.0.6*%
%TF.CreationDate,2025-12-01T18:27:25-05:00*%
%TF.ProjectId,cablight-project,6361626c-6967-4687-942d-70726f6a6563,rev?*%
%TF.SameCoordinates,Original*%
%TF.FileFunction,Soldermask,Bot*%
%TF.FilePolarity,Negative*%
%FSLAX46Y46*%
G04 Gerber Fmt 4.6, Leading zero omitted, Abs format (unit mm)*
G04 Created by KiCad (PCBNEW 9.0.6) date 2025-12-01 18:27:25*
%MOMM*%
%LPD*%
G01*
G04 APERTURE LIST*
G04 Aperture macros list*
%AMRoundRect*
0 Rectangle with rounded corners*
0 $1 Rounding radius*
0 $2 $3 $4 $5 $6 $7 $8 $9 X,Y pos of 4 corners*
0 Add a 4 corners polygon primitive as box body*
4,1,4,$2,$3,$4,$5,$6,$7,$8,$9,$2,$3,0*
0 Add four circle primitives for the rounded corners*
1,1,$1+$1,$2,$3*
1,1,$1+$1,$4,$5*
1,1,$1+$1,$6,$7*
1,1,$1+$1,$8,$9*
0 Add four rect primitives between the rounded corners*
20,1,$1+$1,$2,$3,$4,$5,0*
20,1,$1+$1,$4,$5,$6,$7,0*
20,1,$1+$1,$6,$7,$8,$9,0*
20,1,$1+$1,$8,$9,$2,$3,0*%
G04 Aperture macros list end*
%ADD10C,3.100000*%
%ADD11O,2.200000X2.200000*%
%ADD12R,2.200000X2.200000*%
%ADD13RoundRect,0.250000X0.350000X0.450000X-0.350000X0.450000X-0.350000X-0.450000X0.350000X-0.450000X0*%
%ADD14RoundRect,0.250000X-0.350000X-0.450000X0.350000X-0.450000X0.350000X0.450000X-0.350000X0.450000X0*%
%ADD15C,1.000000*%
%ADD16R,1.400000X1.400000*%
%ADD17C,1.400000*%
%ADD18O,1.500000X2.000000*%
%ADD19O,2.000000X1.500000*%
%ADD20C,0.710000*%
%ADD21O,1.304000X1.804000*%
%ADD22C,1.600000*%
%ADD23R,2.000000X1.900000*%
%ADD24O,2.500000X1.900000*%
%ADD25R,1.700000X1.700000*%
%ADD26C,1.700000*%
%ADD27C,3.600000*%
%ADD28C,5.600000*%
%ADD29R,3.000000X3.000000*%
%ADD30C,3.000000*%
%ADD31RoundRect,0.250000X0.337500X0.475000X-0.337500X0.475000X-0.337500X-0.475000X0.337500X-0.475000X0*%
%ADD32RoundRect,0.250000X-0.337500X-0.475000X0.337500X-0.475000X0.337500X0.475000X-0.337500X0.475000X0*%
%TA.AperFunction,Profile*%
%ADD33C,0.150000*%
%TD*%
G04 APERTURE END LIST*
D10*
%TO.C,M2.5*%
X-24400000Y-3400000D03*
%TD*%
D11*
%TO.C,D2*%
X-30200000Y-2500000D03*
D12*
X-32740000Y-2500000D03*
%TD*%
D13*
%TO.C,R4*%
X-57750000Y-33900000D03*
X-55750000Y-33900000D03*
%TD*%
%TO.C,R5*%
X-57750000Y-31500000D03*
X-55750000Y-31500000D03*
%TD*%
%TO.C,R17*%
X-59450000Y-25450000D03*
X-57450000Y-25450000D03*
%TD*%
%TO.C,R15*%
X-59450000Y-20900000D03*
X-57450000Y-20900000D03*
%TD*%
D14*
%TO.C,R16*%
X-59450000Y-23100000D03*
X-57450000Y-23100000D03*
%TD*%
%TO.C,R14*%
X-59450000Y-27800000D03*
X-57450000Y-27800000D03*
%TD*%
D12*
%TO.C,D10*%
X-66090000Y-23740000D03*
D11*
X-66090000Y-21200000D03*
%TD*%
D15*
%TO.C,TP2*%
X-36150000Y-5100000D03*
%TD*%
D16*
%TO.C,RCWL-1601*%
X-24000000Y-17050000D03*
D17*
X-24020000Y-19050000D03*
X-24000000Y-21050000D03*
X-24000000Y-23050000D03*
%TD*%
D18*
%TO.C,BTN1*%
X-89790000Y-9500000D03*
X-89790000Y-14000000D03*
D19*
X-87290000Y-8250000D03*
X-87290000Y-15250000D03*
%TD*%
D10*
%TO.C,M2.5*%
X-83700000Y-36350000D03*
%TD*%
D20*
%TO.C,USBC-V1*%
X-33390000Y-14350000D03*
X-33390000Y-22350000D03*
D21*
X-31960000Y-14350000D03*
X-34820000Y-14350000D03*
X-31960000Y-22350000D03*
X-34820000Y-22350000D03*
%TD*%
D22*
%TO.C,DIP1*%
X-39240000Y-37720000D03*
X-36700000Y-37720000D03*
X-34160000Y-37720000D03*
X-31620000Y-37720000D03*
X-31620000Y-30200000D03*
X-34160000Y-30200000D03*
X-36700000Y-30200000D03*
X-39240000Y-30200000D03*
%TD*%
D10*
%TO.C,M2.5*%
X-82650000Y-3200000D03*
%TD*%
D23*
%TO.C,Q1*%
X-64350000Y-31460000D03*
D24*
X-64350000Y-34000000D03*
X-64350000Y-36540000D03*
%TD*%
D10*
%TO.C,M2.5*%
X-24400000Y-29700000D03*
%TD*%
D12*
%TO.C,D1*%
X-69850000Y-21200000D03*
D11*
X-69850000Y-23740000D03*
%TD*%
D25*
%TO.C,SW3*%
X-82650000Y-12800000D03*
D26*
X-82650000Y-10260000D03*
%TD*%
D27*
%TO.C,REF\u002A\u002A*%
X-47050000Y-34000000D03*
D28*
X-47050000Y-34000000D03*
%TD*%
D29*
%TO.C,J3*%
X-74650000Y-20200000D03*
D30*
X-74650000Y-25200000D03*
X-74650000Y-30200000D03*
X-74650000Y-35200000D03*
%TD*%
D15*
%TO.C,TP1*%
X-61850000Y-5000000D03*
%TD*%
D31*
%TO.C,C4*%
X-54750000Y-15100000D03*
X-56825000Y-15100000D03*
%TD*%
D13*
%TO.C,R12*%
X-39150000Y-11000000D03*
X-41150000Y-11000000D03*
%TD*%
D14*
%TO.C,R2*%
X-47050000Y-28650000D03*
X-45050000Y-28650000D03*
%TD*%
D31*
%TO.C,C6*%
X-50450000Y-23050000D03*
X-52525000Y-23050000D03*
%TD*%
D13*
%TO.C,R7*%
X-36450000Y-8100000D03*
X-38450000Y-8100000D03*
%TD*%
%TO.C,R3*%
X-50450000Y-25850000D03*
X-52450000Y-25850000D03*
%TD*%
D14*
%TO.C,R6*%
X-36450000Y-25900000D03*
X-34450000Y-25900000D03*
%TD*%
D32*
%TO.C,C7*%
X-47050000Y-26150000D03*
X-44975000Y-26150000D03*
%TD*%
D13*
%TO.C,R13*%
X-29250000Y-25900000D03*
X-31250000Y-25900000D03*
%TD*%
D14*
%TO.C,R1*%
X-54800000Y-5800000D03*
X-52800000Y-5800000D03*
%TD*%
D33*
X-87300000Y-34802808D02*
G75*
G02*
X-86896404Y-34000123I999996J3D01*
G01*
X-82050000Y-29896382D02*
G75*
G02*
X-82454634Y-30699837I-1000000J0D01*
G01*
X-86896404Y-34000123D02*
X-82454634Y-30699837D01*
X-85383198Y-17350000D02*
G75*
G02*
X-84714930Y-17606079I-2J-1000006D01*
G01*
X-82381732Y-19702003D02*
G75*
G02*
X-82050000Y-20445924I-668261J-743918D01*
G01*
X-82381732Y-19702003D02*
X-84714930Y-17606079D01*
X-21000000Y-32400000D02*
G75*
G02*
X-22000000Y-33400000I-999999J-1D01*
G01*
X-28650000Y-39000000D02*
G75*
G02*
X-29650000Y-40000000I-999999J-1D01*
G01*
X-21000000Y-15900000D02*
X-21000000Y-32400000D01*
X-24400000Y-33400000D02*
X-22000000Y-33400000D01*
X-28650000Y-37650000D02*
X-28650000Y-39000000D01*
X-28650000Y-37650000D02*
G75*
G02*
X-24400000Y-33400000I4250000J0D01*
G01*
X-20300000Y-10803611D02*
G75*
G02*
X-28307222Y-10803611I-4003611J0D01*
G01*
X-28307222Y-10803611D02*
G75*
G02*
X-20300000Y-10803611I4003611J0D01*
G01*
X-22000000Y-14900000D02*
G75*
G02*
X-21000000Y-15900000I1J-999999D01*
G01*
X-27500000Y-14900000D02*
X-22000000Y-14900000D01*
X-27500000Y-14900000D02*
G75*
G02*
X-28500000Y-13900000I-1J999999D01*
G01*
X-21000000Y-5750000D02*
G75*
G02*
X-22000000Y-6750000I-999999J-1D01*
G01*
X-90690001Y-6400000D02*
X-89389999Y-6400000D01*
X-28500000Y-7750000D02*
X-28500000Y-13900000D01*
X-90690000Y-17350000D02*
G75*
G02*
X-91690000Y-16350000I-1J999999D01*
G01*
X-91690000Y-7400000D02*
G75*
G02*
X-90690000Y-6400000I999999J1D01*
G01*
X-85890000Y-2900000D02*
G75*
G02*
X-89390000Y-6400000I-3499999J-1D01*
G01*
X-82050000Y-29896382D02*
X-82050000Y-20445924D01*
X-21000000Y-5750000D02*
X-21000000Y-1000000D01*
X-22000000Y0D02*
G75*
G02*
X-21000000Y-1000000I1J-999999D01*
G01*
X-87300000Y-39000000D02*
X-87300000Y-34802808D01*
X-86300000Y-40000000D02*
G75*
G02*
X-87300000Y-39000000I-1J999999D01*
G01*
X-85890000Y-1000000D02*
X-85890000Y-2900000D01*
X-91690000Y-7400000D02*
X-91690000Y-16350000D01*
X-22000000Y0D02*
X-28500000Y0D01*
X-28500000Y0D02*
X-84890000Y0D01*
X-90690000Y-17350000D02*
X-85383198Y-17350000D01*
X-28500000Y-7750000D02*
G75*
G02*
X-27500000Y-6750000I999999J1D01*
G01*
X-29650000Y-40000000D02*
X-86300000Y-40000000D01*
X-27500000Y-6750000D02*
X-22000000Y-6750000D01*
X-85890000Y-1000000D02*
G75*
G02*
X-84890000Y0I999999J1D01*
G01*
M02*
