%TF.GenerationSoftware,KiCad,Pcbnew,9.0.1*%
%TF.CreationDate,2025-07-07T12:26:16-04:00*%
%TF.ProjectId,cablight-project,6361626c-6967-4687-942d-70726f6a6563,rev?*%
%TF.SameCoordinates,Original*%
%TF.FileFunction,Legend,Bot*%
%TF.FilePolarity,Positive*%
%FSLAX46Y46*%
G04 Gerber Fmt 4.6, Leading zero omitted, Abs format (unit mm)*
G04 Created by KiCad (PCBNEW 9.0.1) date 2025-07-07 12:26:16*
%MOMM*%
%LPD*%
G01*
G04 APERTURE LIST*
%ADD10C,0.200000*%
%ADD11R,3.000000X3.000000*%
%ADD12C,3.000000*%
%ADD13R,2.200000X2.200000*%
%ADD14O,2.200000X2.200000*%
%ADD15C,1.600000*%
%ADD16O,1.600000X1.600000*%
%ADD17C,1.901600*%
%ADD18O,2.500000X1.900000*%
%ADD19R,2.000000X1.900000*%
%ADD20C,3.100000*%
%ADD21R,1.600000X1.600000*%
%ADD22O,1.500000X3.000000*%
%ADD23C,2.000000*%
%TA.AperFunction,Profile*%
%ADD24C,0.150000*%
%TD*%
G04 APERTURE END LIST*
D10*
X-2146943Y-36682707D02*
X-3118372Y-36682707D01*
X-3118372Y-36682707D02*
X-3232658Y-36625564D01*
X-3232658Y-36625564D02*
X-3289801Y-36568422D01*
X-3289801Y-36568422D02*
X-3346943Y-36454136D01*
X-3346943Y-36454136D02*
X-3346943Y-36225564D01*
X-3346943Y-36225564D02*
X-3289801Y-36111279D01*
X-3289801Y-36111279D02*
X-3232658Y-36054136D01*
X-3232658Y-36054136D02*
X-3118372Y-35996993D01*
X-3118372Y-35996993D02*
X-2146943Y-35996993D01*
X-3346943Y-35254136D02*
X-3289801Y-35368421D01*
X-3289801Y-35368421D02*
X-3175515Y-35425564D01*
X-3175515Y-35425564D02*
X-2146943Y-35425564D01*
X-2546943Y-34968422D02*
X-2546943Y-34511279D01*
X-2146943Y-34796993D02*
X-3175515Y-34796993D01*
X-3175515Y-34796993D02*
X-3289801Y-34739850D01*
X-3289801Y-34739850D02*
X-3346943Y-34625565D01*
X-3346943Y-34625565D02*
X-3346943Y-34511279D01*
X-3346943Y-34111279D02*
X-2546943Y-34111279D01*
X-2775515Y-34111279D02*
X-2661229Y-34054136D01*
X-2661229Y-34054136D02*
X-2604086Y-33996994D01*
X-2604086Y-33996994D02*
X-2546943Y-33882708D01*
X-2546943Y-33882708D02*
X-2546943Y-33768422D01*
X-3346943Y-32854137D02*
X-2718372Y-32854137D01*
X-2718372Y-32854137D02*
X-2604086Y-32911279D01*
X-2604086Y-32911279D02*
X-2546943Y-33025565D01*
X-2546943Y-33025565D02*
X-2546943Y-33254137D01*
X-2546943Y-33254137D02*
X-2604086Y-33368422D01*
X-3289801Y-32854137D02*
X-3346943Y-32968422D01*
X-3346943Y-32968422D02*
X-3346943Y-33254137D01*
X-3346943Y-33254137D02*
X-3289801Y-33368422D01*
X-3289801Y-33368422D02*
X-3175515Y-33425565D01*
X-3175515Y-33425565D02*
X-3061229Y-33425565D01*
X-3061229Y-33425565D02*
X-2946943Y-33368422D01*
X-2946943Y-33368422D02*
X-2889801Y-33254137D01*
X-2889801Y-33254137D02*
X-2889801Y-32968422D01*
X-2889801Y-32968422D02*
X-2832658Y-32854137D01*
X-3289801Y-32339851D02*
X-3346943Y-32225565D01*
X-3346943Y-32225565D02*
X-3346943Y-31996994D01*
X-3346943Y-31996994D02*
X-3289801Y-31882708D01*
X-3289801Y-31882708D02*
X-3175515Y-31825565D01*
X-3175515Y-31825565D02*
X-3118372Y-31825565D01*
X-3118372Y-31825565D02*
X-3004086Y-31882708D01*
X-3004086Y-31882708D02*
X-2946943Y-31996994D01*
X-2946943Y-31996994D02*
X-2946943Y-32168423D01*
X-2946943Y-32168423D02*
X-2889801Y-32282708D01*
X-2889801Y-32282708D02*
X-2775515Y-32339851D01*
X-2775515Y-32339851D02*
X-2718372Y-32339851D01*
X-2718372Y-32339851D02*
X-2604086Y-32282708D01*
X-2604086Y-32282708D02*
X-2546943Y-32168423D01*
X-2546943Y-32168423D02*
X-2546943Y-31996994D01*
X-2546943Y-31996994D02*
X-2604086Y-31882708D01*
X-3346943Y-31139851D02*
X-3289801Y-31254136D01*
X-3289801Y-31254136D02*
X-3232658Y-31311279D01*
X-3232658Y-31311279D02*
X-3118372Y-31368422D01*
X-3118372Y-31368422D02*
X-2775515Y-31368422D01*
X-2775515Y-31368422D02*
X-2661229Y-31311279D01*
X-2661229Y-31311279D02*
X-2604086Y-31254136D01*
X-2604086Y-31254136D02*
X-2546943Y-31139851D01*
X-2546943Y-31139851D02*
X-2546943Y-30968422D01*
X-2546943Y-30968422D02*
X-2604086Y-30854136D01*
X-2604086Y-30854136D02*
X-2661229Y-30796994D01*
X-2661229Y-30796994D02*
X-2775515Y-30739851D01*
X-2775515Y-30739851D02*
X-3118372Y-30739851D01*
X-3118372Y-30739851D02*
X-3232658Y-30796994D01*
X-3232658Y-30796994D02*
X-3289801Y-30854136D01*
X-3289801Y-30854136D02*
X-3346943Y-30968422D01*
X-3346943Y-30968422D02*
X-3346943Y-31139851D01*
X-2546943Y-30225565D02*
X-3346943Y-30225565D01*
X-2661229Y-30225565D02*
X-2604086Y-30168422D01*
X-2604086Y-30168422D02*
X-2546943Y-30054137D01*
X-2546943Y-30054137D02*
X-2546943Y-29882708D01*
X-2546943Y-29882708D02*
X-2604086Y-29768422D01*
X-2604086Y-29768422D02*
X-2718372Y-29711280D01*
X-2718372Y-29711280D02*
X-3346943Y-29711280D01*
X-3346943Y-29139851D02*
X-2546943Y-29139851D01*
X-2146943Y-29139851D02*
X-2204086Y-29196994D01*
X-2204086Y-29196994D02*
X-2261229Y-29139851D01*
X-2261229Y-29139851D02*
X-2204086Y-29082708D01*
X-2204086Y-29082708D02*
X-2146943Y-29139851D01*
X-2146943Y-29139851D02*
X-2261229Y-29139851D01*
X-3289801Y-28054137D02*
X-3346943Y-28168422D01*
X-3346943Y-28168422D02*
X-3346943Y-28396994D01*
X-3346943Y-28396994D02*
X-3289801Y-28511279D01*
X-3289801Y-28511279D02*
X-3232658Y-28568422D01*
X-3232658Y-28568422D02*
X-3118372Y-28625565D01*
X-3118372Y-28625565D02*
X-2775515Y-28625565D01*
X-2775515Y-28625565D02*
X-2661229Y-28568422D01*
X-2661229Y-28568422D02*
X-2604086Y-28511279D01*
X-2604086Y-28511279D02*
X-2546943Y-28396994D01*
X-2546943Y-28396994D02*
X-2546943Y-28168422D01*
X-2546943Y-28168422D02*
X-2604086Y-28054137D01*
X-3346943Y-26054137D02*
X-3346943Y-26625565D01*
X-3346943Y-26625565D02*
X-2146943Y-26625565D01*
X-3346943Y-25654136D02*
X-2546943Y-25654136D01*
X-2146943Y-25654136D02*
X-2204086Y-25711279D01*
X-2204086Y-25711279D02*
X-2261229Y-25654136D01*
X-2261229Y-25654136D02*
X-2204086Y-25596993D01*
X-2204086Y-25596993D02*
X-2146943Y-25654136D01*
X-2146943Y-25654136D02*
X-2261229Y-25654136D01*
X-2546943Y-24568422D02*
X-3518372Y-24568422D01*
X-3518372Y-24568422D02*
X-3632658Y-24625564D01*
X-3632658Y-24625564D02*
X-3689801Y-24682707D01*
X-3689801Y-24682707D02*
X-3746943Y-24796993D01*
X-3746943Y-24796993D02*
X-3746943Y-24968422D01*
X-3746943Y-24968422D02*
X-3689801Y-25082707D01*
X-3289801Y-24568422D02*
X-3346943Y-24682707D01*
X-3346943Y-24682707D02*
X-3346943Y-24911279D01*
X-3346943Y-24911279D02*
X-3289801Y-25025564D01*
X-3289801Y-25025564D02*
X-3232658Y-25082707D01*
X-3232658Y-25082707D02*
X-3118372Y-25139850D01*
X-3118372Y-25139850D02*
X-2775515Y-25139850D01*
X-2775515Y-25139850D02*
X-2661229Y-25082707D01*
X-2661229Y-25082707D02*
X-2604086Y-25025564D01*
X-2604086Y-25025564D02*
X-2546943Y-24911279D01*
X-2546943Y-24911279D02*
X-2546943Y-24682707D01*
X-2546943Y-24682707D02*
X-2604086Y-24568422D01*
X-3346943Y-23996993D02*
X-2146943Y-23996993D01*
X-3346943Y-23482708D02*
X-2718372Y-23482708D01*
X-2718372Y-23482708D02*
X-2604086Y-23539850D01*
X-2604086Y-23539850D02*
X-2546943Y-23654136D01*
X-2546943Y-23654136D02*
X-2546943Y-23825565D01*
X-2546943Y-23825565D02*
X-2604086Y-23939850D01*
X-2604086Y-23939850D02*
X-2661229Y-23996993D01*
X-2546943Y-23082708D02*
X-2546943Y-22625565D01*
X-2146943Y-22911279D02*
X-3175515Y-22911279D01*
X-3175515Y-22911279D02*
X-3289801Y-22854136D01*
X-3289801Y-22854136D02*
X-3346943Y-22739851D01*
X-3346943Y-22739851D02*
X-3346943Y-22625565D01*
X-3346943Y-22225565D02*
X-2546943Y-22225565D01*
X-2146943Y-22225565D02*
X-2204086Y-22282708D01*
X-2204086Y-22282708D02*
X-2261229Y-22225565D01*
X-2261229Y-22225565D02*
X-2204086Y-22168422D01*
X-2204086Y-22168422D02*
X-2146943Y-22225565D01*
X-2146943Y-22225565D02*
X-2261229Y-22225565D01*
X-2546943Y-21654136D02*
X-3346943Y-21654136D01*
X-2661229Y-21654136D02*
X-2604086Y-21596993D01*
X-2604086Y-21596993D02*
X-2546943Y-21482708D01*
X-2546943Y-21482708D02*
X-2546943Y-21311279D01*
X-2546943Y-21311279D02*
X-2604086Y-21196993D01*
X-2604086Y-21196993D02*
X-2718372Y-21139851D01*
X-2718372Y-21139851D02*
X-3346943Y-21139851D01*
X-2546943Y-20054137D02*
X-3518372Y-20054137D01*
X-3518372Y-20054137D02*
X-3632658Y-20111279D01*
X-3632658Y-20111279D02*
X-3689801Y-20168422D01*
X-3689801Y-20168422D02*
X-3746943Y-20282708D01*
X-3746943Y-20282708D02*
X-3746943Y-20454137D01*
X-3746943Y-20454137D02*
X-3689801Y-20568422D01*
X-3289801Y-20054137D02*
X-3346943Y-20168422D01*
X-3346943Y-20168422D02*
X-3346943Y-20396994D01*
X-3346943Y-20396994D02*
X-3289801Y-20511279D01*
X-3289801Y-20511279D02*
X-3232658Y-20568422D01*
X-3232658Y-20568422D02*
X-3118372Y-20625565D01*
X-3118372Y-20625565D02*
X-2775515Y-20625565D01*
X-2775515Y-20625565D02*
X-2661229Y-20568422D01*
X-2661229Y-20568422D02*
X-2604086Y-20511279D01*
X-2604086Y-20511279D02*
X-2546943Y-20396994D01*
X-2546943Y-20396994D02*
X-2546943Y-20168422D01*
X-2546943Y-20168422D02*
X-2604086Y-20054137D01*
X-3232658Y-17882708D02*
X-3289801Y-17939851D01*
X-3289801Y-17939851D02*
X-3346943Y-18111279D01*
X-3346943Y-18111279D02*
X-3346943Y-18225565D01*
X-3346943Y-18225565D02*
X-3289801Y-18396994D01*
X-3289801Y-18396994D02*
X-3175515Y-18511279D01*
X-3175515Y-18511279D02*
X-3061229Y-18568422D01*
X-3061229Y-18568422D02*
X-2832658Y-18625565D01*
X-2832658Y-18625565D02*
X-2661229Y-18625565D01*
X-2661229Y-18625565D02*
X-2432658Y-18568422D01*
X-2432658Y-18568422D02*
X-2318372Y-18511279D01*
X-2318372Y-18511279D02*
X-2204086Y-18396994D01*
X-2204086Y-18396994D02*
X-2146943Y-18225565D01*
X-2146943Y-18225565D02*
X-2146943Y-18111279D01*
X-2146943Y-18111279D02*
X-2204086Y-17939851D01*
X-2204086Y-17939851D02*
X-2261229Y-17882708D01*
X-3346943Y-17196994D02*
X-3289801Y-17311279D01*
X-3289801Y-17311279D02*
X-3232658Y-17368422D01*
X-3232658Y-17368422D02*
X-3118372Y-17425565D01*
X-3118372Y-17425565D02*
X-2775515Y-17425565D01*
X-2775515Y-17425565D02*
X-2661229Y-17368422D01*
X-2661229Y-17368422D02*
X-2604086Y-17311279D01*
X-2604086Y-17311279D02*
X-2546943Y-17196994D01*
X-2546943Y-17196994D02*
X-2546943Y-17025565D01*
X-2546943Y-17025565D02*
X-2604086Y-16911279D01*
X-2604086Y-16911279D02*
X-2661229Y-16854137D01*
X-2661229Y-16854137D02*
X-2775515Y-16796994D01*
X-2775515Y-16796994D02*
X-3118372Y-16796994D01*
X-3118372Y-16796994D02*
X-3232658Y-16854137D01*
X-3232658Y-16854137D02*
X-3289801Y-16911279D01*
X-3289801Y-16911279D02*
X-3346943Y-17025565D01*
X-3346943Y-17025565D02*
X-3346943Y-17196994D01*
X-2546943Y-16282708D02*
X-3346943Y-16282708D01*
X-2661229Y-16282708D02*
X-2604086Y-16225565D01*
X-2604086Y-16225565D02*
X-2546943Y-16111280D01*
X-2546943Y-16111280D02*
X-2546943Y-15939851D01*
X-2546943Y-15939851D02*
X-2604086Y-15825565D01*
X-2604086Y-15825565D02*
X-2718372Y-15768423D01*
X-2718372Y-15768423D02*
X-3346943Y-15768423D01*
X-2546943Y-15368423D02*
X-2546943Y-14911280D01*
X-2146943Y-15196994D02*
X-3175515Y-15196994D01*
X-3175515Y-15196994D02*
X-3289801Y-15139851D01*
X-3289801Y-15139851D02*
X-3346943Y-15025566D01*
X-3346943Y-15025566D02*
X-3346943Y-14911280D01*
X-3346943Y-14511280D02*
X-2546943Y-14511280D01*
X-2775515Y-14511280D02*
X-2661229Y-14454137D01*
X-2661229Y-14454137D02*
X-2604086Y-14396995D01*
X-2604086Y-14396995D02*
X-2546943Y-14282709D01*
X-2546943Y-14282709D02*
X-2546943Y-14168423D01*
X-3346943Y-13596995D02*
X-3289801Y-13711280D01*
X-3289801Y-13711280D02*
X-3232658Y-13768423D01*
X-3232658Y-13768423D02*
X-3118372Y-13825566D01*
X-3118372Y-13825566D02*
X-2775515Y-13825566D01*
X-2775515Y-13825566D02*
X-2661229Y-13768423D01*
X-2661229Y-13768423D02*
X-2604086Y-13711280D01*
X-2604086Y-13711280D02*
X-2546943Y-13596995D01*
X-2546943Y-13596995D02*
X-2546943Y-13425566D01*
X-2546943Y-13425566D02*
X-2604086Y-13311280D01*
X-2604086Y-13311280D02*
X-2661229Y-13254138D01*
X-2661229Y-13254138D02*
X-2775515Y-13196995D01*
X-2775515Y-13196995D02*
X-3118372Y-13196995D01*
X-3118372Y-13196995D02*
X-3232658Y-13254138D01*
X-3232658Y-13254138D02*
X-3289801Y-13311280D01*
X-3289801Y-13311280D02*
X-3346943Y-13425566D01*
X-3346943Y-13425566D02*
X-3346943Y-13596995D01*
X-3346943Y-12511281D02*
X-3289801Y-12625566D01*
X-3289801Y-12625566D02*
X-3175515Y-12682709D01*
X-3175515Y-12682709D02*
X-2146943Y-12682709D01*
X-3289801Y-11596995D02*
X-3346943Y-11711281D01*
X-3346943Y-11711281D02*
X-3346943Y-11939853D01*
X-3346943Y-11939853D02*
X-3289801Y-12054138D01*
X-3289801Y-12054138D02*
X-3175515Y-12111281D01*
X-3175515Y-12111281D02*
X-2718372Y-12111281D01*
X-2718372Y-12111281D02*
X-2604086Y-12054138D01*
X-2604086Y-12054138D02*
X-2546943Y-11939853D01*
X-2546943Y-11939853D02*
X-2546943Y-11711281D01*
X-2546943Y-11711281D02*
X-2604086Y-11596995D01*
X-2604086Y-11596995D02*
X-2718372Y-11539853D01*
X-2718372Y-11539853D02*
X-2832658Y-11539853D01*
X-2832658Y-11539853D02*
X-2946943Y-12111281D01*
X-3346943Y-11025567D02*
X-2546943Y-11025567D01*
X-2775515Y-11025567D02*
X-2661229Y-10968424D01*
X-2661229Y-10968424D02*
X-2604086Y-10911282D01*
X-2604086Y-10911282D02*
X-2546943Y-10796996D01*
X-2546943Y-10796996D02*
X-2546943Y-10682710D01*
X-5278876Y-36682707D02*
X-4078876Y-36682707D01*
X-4078876Y-36682707D02*
X-4078876Y-36396993D01*
X-4078876Y-36396993D02*
X-4136019Y-36225564D01*
X-4136019Y-36225564D02*
X-4250305Y-36111279D01*
X-4250305Y-36111279D02*
X-4364591Y-36054136D01*
X-4364591Y-36054136D02*
X-4593162Y-35996993D01*
X-4593162Y-35996993D02*
X-4764591Y-35996993D01*
X-4764591Y-35996993D02*
X-4993162Y-36054136D01*
X-4993162Y-36054136D02*
X-5107448Y-36111279D01*
X-5107448Y-36111279D02*
X-5221734Y-36225564D01*
X-5221734Y-36225564D02*
X-5278876Y-36396993D01*
X-5278876Y-36396993D02*
X-5278876Y-36682707D01*
X-5221734Y-35025564D02*
X-5278876Y-35139850D01*
X-5278876Y-35139850D02*
X-5278876Y-35368422D01*
X-5278876Y-35368422D02*
X-5221734Y-35482707D01*
X-5221734Y-35482707D02*
X-5107448Y-35539850D01*
X-5107448Y-35539850D02*
X-4650305Y-35539850D01*
X-4650305Y-35539850D02*
X-4536019Y-35482707D01*
X-4536019Y-35482707D02*
X-4478876Y-35368422D01*
X-4478876Y-35368422D02*
X-4478876Y-35139850D01*
X-4478876Y-35139850D02*
X-4536019Y-35025564D01*
X-4536019Y-35025564D02*
X-4650305Y-34968422D01*
X-4650305Y-34968422D02*
X-4764591Y-34968422D01*
X-4764591Y-34968422D02*
X-4878876Y-35539850D01*
X-5221734Y-34511279D02*
X-5278876Y-34396993D01*
X-5278876Y-34396993D02*
X-5278876Y-34168422D01*
X-5278876Y-34168422D02*
X-5221734Y-34054136D01*
X-5221734Y-34054136D02*
X-5107448Y-33996993D01*
X-5107448Y-33996993D02*
X-5050305Y-33996993D01*
X-5050305Y-33996993D02*
X-4936019Y-34054136D01*
X-4936019Y-34054136D02*
X-4878876Y-34168422D01*
X-4878876Y-34168422D02*
X-4878876Y-34339851D01*
X-4878876Y-34339851D02*
X-4821734Y-34454136D01*
X-4821734Y-34454136D02*
X-4707448Y-34511279D01*
X-4707448Y-34511279D02*
X-4650305Y-34511279D01*
X-4650305Y-34511279D02*
X-4536019Y-34454136D01*
X-4536019Y-34454136D02*
X-4478876Y-34339851D01*
X-4478876Y-34339851D02*
X-4478876Y-34168422D01*
X-4478876Y-34168422D02*
X-4536019Y-34054136D01*
X-5278876Y-33482707D02*
X-4478876Y-33482707D01*
X-4078876Y-33482707D02*
X-4136019Y-33539850D01*
X-4136019Y-33539850D02*
X-4193162Y-33482707D01*
X-4193162Y-33482707D02*
X-4136019Y-33425564D01*
X-4136019Y-33425564D02*
X-4078876Y-33482707D01*
X-4078876Y-33482707D02*
X-4193162Y-33482707D01*
X-4478876Y-32396993D02*
X-5450305Y-32396993D01*
X-5450305Y-32396993D02*
X-5564591Y-32454135D01*
X-5564591Y-32454135D02*
X-5621734Y-32511278D01*
X-5621734Y-32511278D02*
X-5678876Y-32625564D01*
X-5678876Y-32625564D02*
X-5678876Y-32796993D01*
X-5678876Y-32796993D02*
X-5621734Y-32911278D01*
X-5221734Y-32396993D02*
X-5278876Y-32511278D01*
X-5278876Y-32511278D02*
X-5278876Y-32739850D01*
X-5278876Y-32739850D02*
X-5221734Y-32854135D01*
X-5221734Y-32854135D02*
X-5164591Y-32911278D01*
X-5164591Y-32911278D02*
X-5050305Y-32968421D01*
X-5050305Y-32968421D02*
X-4707448Y-32968421D01*
X-4707448Y-32968421D02*
X-4593162Y-32911278D01*
X-4593162Y-32911278D02*
X-4536019Y-32854135D01*
X-4536019Y-32854135D02*
X-4478876Y-32739850D01*
X-4478876Y-32739850D02*
X-4478876Y-32511278D01*
X-4478876Y-32511278D02*
X-4536019Y-32396993D01*
X-4478876Y-31825564D02*
X-5278876Y-31825564D01*
X-4593162Y-31825564D02*
X-4536019Y-31768421D01*
X-4536019Y-31768421D02*
X-4478876Y-31654136D01*
X-4478876Y-31654136D02*
X-4478876Y-31482707D01*
X-4478876Y-31482707D02*
X-4536019Y-31368421D01*
X-4536019Y-31368421D02*
X-4650305Y-31311279D01*
X-4650305Y-31311279D02*
X-5278876Y-31311279D01*
X-5221734Y-30282707D02*
X-5278876Y-30396993D01*
X-5278876Y-30396993D02*
X-5278876Y-30625565D01*
X-5278876Y-30625565D02*
X-5221734Y-30739850D01*
X-5221734Y-30739850D02*
X-5107448Y-30796993D01*
X-5107448Y-30796993D02*
X-4650305Y-30796993D01*
X-4650305Y-30796993D02*
X-4536019Y-30739850D01*
X-4536019Y-30739850D02*
X-4478876Y-30625565D01*
X-4478876Y-30625565D02*
X-4478876Y-30396993D01*
X-4478876Y-30396993D02*
X-4536019Y-30282707D01*
X-4536019Y-30282707D02*
X-4650305Y-30225565D01*
X-4650305Y-30225565D02*
X-4764591Y-30225565D01*
X-4764591Y-30225565D02*
X-4878876Y-30796993D01*
X-5278876Y-29196994D02*
X-4078876Y-29196994D01*
X-5221734Y-29196994D02*
X-5278876Y-29311279D01*
X-5278876Y-29311279D02*
X-5278876Y-29539851D01*
X-5278876Y-29539851D02*
X-5221734Y-29654136D01*
X-5221734Y-29654136D02*
X-5164591Y-29711279D01*
X-5164591Y-29711279D02*
X-5050305Y-29768422D01*
X-5050305Y-29768422D02*
X-4707448Y-29768422D01*
X-4707448Y-29768422D02*
X-4593162Y-29711279D01*
X-4593162Y-29711279D02*
X-4536019Y-29654136D01*
X-4536019Y-29654136D02*
X-4478876Y-29539851D01*
X-4478876Y-29539851D02*
X-4478876Y-29311279D01*
X-4478876Y-29311279D02*
X-4536019Y-29196994D01*
X-5278876Y-27711279D02*
X-4078876Y-27711279D01*
X-4536019Y-27711279D02*
X-4478876Y-27596994D01*
X-4478876Y-27596994D02*
X-4478876Y-27368422D01*
X-4478876Y-27368422D02*
X-4536019Y-27254136D01*
X-4536019Y-27254136D02*
X-4593162Y-27196994D01*
X-4593162Y-27196994D02*
X-4707448Y-27139851D01*
X-4707448Y-27139851D02*
X-5050305Y-27139851D01*
X-5050305Y-27139851D02*
X-5164591Y-27196994D01*
X-5164591Y-27196994D02*
X-5221734Y-27254136D01*
X-5221734Y-27254136D02*
X-5278876Y-27368422D01*
X-5278876Y-27368422D02*
X-5278876Y-27596994D01*
X-5278876Y-27596994D02*
X-5221734Y-27711279D01*
X-4478876Y-26739851D02*
X-5278876Y-26454137D01*
X-4478876Y-26168422D02*
X-5278876Y-26454137D01*
X-5278876Y-26454137D02*
X-5564591Y-26568422D01*
X-5564591Y-26568422D02*
X-5621734Y-26625565D01*
X-5621734Y-26625565D02*
X-5678876Y-26739851D01*
X-4136019Y-24168422D02*
X-4078876Y-24282708D01*
X-4078876Y-24282708D02*
X-4078876Y-24454136D01*
X-4078876Y-24454136D02*
X-4136019Y-24625565D01*
X-4136019Y-24625565D02*
X-4250305Y-24739850D01*
X-4250305Y-24739850D02*
X-4364591Y-24796993D01*
X-4364591Y-24796993D02*
X-4593162Y-24854136D01*
X-4593162Y-24854136D02*
X-4764591Y-24854136D01*
X-4764591Y-24854136D02*
X-4993162Y-24796993D01*
X-4993162Y-24796993D02*
X-5107448Y-24739850D01*
X-5107448Y-24739850D02*
X-5221734Y-24625565D01*
X-5221734Y-24625565D02*
X-5278876Y-24454136D01*
X-5278876Y-24454136D02*
X-5278876Y-24339850D01*
X-5278876Y-24339850D02*
X-5221734Y-24168422D01*
X-5221734Y-24168422D02*
X-5164591Y-24111279D01*
X-5164591Y-24111279D02*
X-4764591Y-24111279D01*
X-4764591Y-24111279D02*
X-4764591Y-24339850D01*
X-5221734Y-23139850D02*
X-5278876Y-23254136D01*
X-5278876Y-23254136D02*
X-5278876Y-23482708D01*
X-5278876Y-23482708D02*
X-5221734Y-23596993D01*
X-5221734Y-23596993D02*
X-5107448Y-23654136D01*
X-5107448Y-23654136D02*
X-4650305Y-23654136D01*
X-4650305Y-23654136D02*
X-4536019Y-23596993D01*
X-4536019Y-23596993D02*
X-4478876Y-23482708D01*
X-4478876Y-23482708D02*
X-4478876Y-23254136D01*
X-4478876Y-23254136D02*
X-4536019Y-23139850D01*
X-4536019Y-23139850D02*
X-4650305Y-23082708D01*
X-4650305Y-23082708D02*
X-4764591Y-23082708D01*
X-4764591Y-23082708D02*
X-4878876Y-23654136D01*
X-5278876Y-22396994D02*
X-5221734Y-22511279D01*
X-5221734Y-22511279D02*
X-5164591Y-22568422D01*
X-5164591Y-22568422D02*
X-5050305Y-22625565D01*
X-5050305Y-22625565D02*
X-4707448Y-22625565D01*
X-4707448Y-22625565D02*
X-4593162Y-22568422D01*
X-4593162Y-22568422D02*
X-4536019Y-22511279D01*
X-4536019Y-22511279D02*
X-4478876Y-22396994D01*
X-4478876Y-22396994D02*
X-4478876Y-22225565D01*
X-4478876Y-22225565D02*
X-4536019Y-22111279D01*
X-4536019Y-22111279D02*
X-4593162Y-22054137D01*
X-4593162Y-22054137D02*
X-4707448Y-21996994D01*
X-4707448Y-21996994D02*
X-5050305Y-21996994D01*
X-5050305Y-21996994D02*
X-5164591Y-22054137D01*
X-5164591Y-22054137D02*
X-5221734Y-22111279D01*
X-5221734Y-22111279D02*
X-5278876Y-22225565D01*
X-5278876Y-22225565D02*
X-5278876Y-22396994D01*
X-5278876Y-21482708D02*
X-4478876Y-21482708D01*
X-4707448Y-21482708D02*
X-4593162Y-21425565D01*
X-4593162Y-21425565D02*
X-4536019Y-21368423D01*
X-4536019Y-21368423D02*
X-4478876Y-21254137D01*
X-4478876Y-21254137D02*
X-4478876Y-21139851D01*
X-4478876Y-20225566D02*
X-5450305Y-20225566D01*
X-5450305Y-20225566D02*
X-5564591Y-20282708D01*
X-5564591Y-20282708D02*
X-5621734Y-20339851D01*
X-5621734Y-20339851D02*
X-5678876Y-20454137D01*
X-5678876Y-20454137D02*
X-5678876Y-20625566D01*
X-5678876Y-20625566D02*
X-5621734Y-20739851D01*
X-5221734Y-20225566D02*
X-5278876Y-20339851D01*
X-5278876Y-20339851D02*
X-5278876Y-20568423D01*
X-5278876Y-20568423D02*
X-5221734Y-20682708D01*
X-5221734Y-20682708D02*
X-5164591Y-20739851D01*
X-5164591Y-20739851D02*
X-5050305Y-20796994D01*
X-5050305Y-20796994D02*
X-4707448Y-20796994D01*
X-4707448Y-20796994D02*
X-4593162Y-20739851D01*
X-4593162Y-20739851D02*
X-4536019Y-20682708D01*
X-4536019Y-20682708D02*
X-4478876Y-20568423D01*
X-4478876Y-20568423D02*
X-4478876Y-20339851D01*
X-4478876Y-20339851D02*
X-4536019Y-20225566D01*
X-5221734Y-19196994D02*
X-5278876Y-19311280D01*
X-5278876Y-19311280D02*
X-5278876Y-19539852D01*
X-5278876Y-19539852D02*
X-5221734Y-19654137D01*
X-5221734Y-19654137D02*
X-5107448Y-19711280D01*
X-5107448Y-19711280D02*
X-4650305Y-19711280D01*
X-4650305Y-19711280D02*
X-4536019Y-19654137D01*
X-4536019Y-19654137D02*
X-4478876Y-19539852D01*
X-4478876Y-19539852D02*
X-4478876Y-19311280D01*
X-4478876Y-19311280D02*
X-4536019Y-19196994D01*
X-4536019Y-19196994D02*
X-4650305Y-19139852D01*
X-4650305Y-19139852D02*
X-4764591Y-19139852D01*
X-4764591Y-19139852D02*
X-4878876Y-19711280D01*
X-5278876Y-17025566D02*
X-4707448Y-17425566D01*
X-5278876Y-17711280D02*
X-4078876Y-17711280D01*
X-4078876Y-17711280D02*
X-4078876Y-17254137D01*
X-4078876Y-17254137D02*
X-4136019Y-17139852D01*
X-4136019Y-17139852D02*
X-4193162Y-17082709D01*
X-4193162Y-17082709D02*
X-4307448Y-17025566D01*
X-4307448Y-17025566D02*
X-4478876Y-17025566D01*
X-4478876Y-17025566D02*
X-4593162Y-17082709D01*
X-4593162Y-17082709D02*
X-4650305Y-17139852D01*
X-4650305Y-17139852D02*
X-4707448Y-17254137D01*
X-4707448Y-17254137D02*
X-4707448Y-17711280D01*
X-5164591Y-16511280D02*
X-5221734Y-16454137D01*
X-5221734Y-16454137D02*
X-5278876Y-16511280D01*
X-5278876Y-16511280D02*
X-5221734Y-16568423D01*
X-5221734Y-16568423D02*
X-5164591Y-16511280D01*
X-5164591Y-16511280D02*
X-5278876Y-16511280D01*
X-5278876Y-15025565D02*
X-4078876Y-15025565D01*
X-5278876Y-14339851D02*
X-4593162Y-14854137D01*
X-4078876Y-14339851D02*
X-4764591Y-15025565D01*
X-4478876Y-13311280D02*
X-5278876Y-13311280D01*
X-4478876Y-13825565D02*
X-5107448Y-13825565D01*
X-5107448Y-13825565D02*
X-5221734Y-13768422D01*
X-5221734Y-13768422D02*
X-5278876Y-13654137D01*
X-5278876Y-13654137D02*
X-5278876Y-13482708D01*
X-5278876Y-13482708D02*
X-5221734Y-13368422D01*
X-5221734Y-13368422D02*
X-5164591Y-13311280D01*
X-5221734Y-12282708D02*
X-5278876Y-12396994D01*
X-5278876Y-12396994D02*
X-5278876Y-12625566D01*
X-5278876Y-12625566D02*
X-5221734Y-12739851D01*
X-5221734Y-12739851D02*
X-5107448Y-12796994D01*
X-5107448Y-12796994D02*
X-4650305Y-12796994D01*
X-4650305Y-12796994D02*
X-4536019Y-12739851D01*
X-4536019Y-12739851D02*
X-4478876Y-12625566D01*
X-4478876Y-12625566D02*
X-4478876Y-12396994D01*
X-4478876Y-12396994D02*
X-4536019Y-12282708D01*
X-4536019Y-12282708D02*
X-4650305Y-12225566D01*
X-4650305Y-12225566D02*
X-4764591Y-12225566D01*
X-4764591Y-12225566D02*
X-4878876Y-12796994D01*
X-4478876Y-11196995D02*
X-5450305Y-11196995D01*
X-5450305Y-11196995D02*
X-5564591Y-11254137D01*
X-5564591Y-11254137D02*
X-5621734Y-11311280D01*
X-5621734Y-11311280D02*
X-5678876Y-11425566D01*
X-5678876Y-11425566D02*
X-5678876Y-11596995D01*
X-5678876Y-11596995D02*
X-5621734Y-11711280D01*
X-5221734Y-11196995D02*
X-5278876Y-11311280D01*
X-5278876Y-11311280D02*
X-5278876Y-11539852D01*
X-5278876Y-11539852D02*
X-5221734Y-11654137D01*
X-5221734Y-11654137D02*
X-5164591Y-11711280D01*
X-5164591Y-11711280D02*
X-5050305Y-11768423D01*
X-5050305Y-11768423D02*
X-4707448Y-11768423D01*
X-4707448Y-11768423D02*
X-4593162Y-11711280D01*
X-4593162Y-11711280D02*
X-4536019Y-11654137D01*
X-4536019Y-11654137D02*
X-4478876Y-11539852D01*
X-4478876Y-11539852D02*
X-4478876Y-11311280D01*
X-4478876Y-11311280D02*
X-4536019Y-11196995D01*
X-5278876Y-10454138D02*
X-5221734Y-10568423D01*
X-5221734Y-10568423D02*
X-5107448Y-10625566D01*
X-5107448Y-10625566D02*
X-4078876Y-10625566D01*
X-5221734Y-9539852D02*
X-5278876Y-9654138D01*
X-5278876Y-9654138D02*
X-5278876Y-9882710D01*
X-5278876Y-9882710D02*
X-5221734Y-9996995D01*
X-5221734Y-9996995D02*
X-5107448Y-10054138D01*
X-5107448Y-10054138D02*
X-4650305Y-10054138D01*
X-4650305Y-10054138D02*
X-4536019Y-9996995D01*
X-4536019Y-9996995D02*
X-4478876Y-9882710D01*
X-4478876Y-9882710D02*
X-4478876Y-9654138D01*
X-4478876Y-9654138D02*
X-4536019Y-9539852D01*
X-4536019Y-9539852D02*
X-4650305Y-9482710D01*
X-4650305Y-9482710D02*
X-4764591Y-9482710D01*
X-4764591Y-9482710D02*
X-4878876Y-10054138D01*
X-5278876Y-8968424D02*
X-4478876Y-8968424D01*
X-4707448Y-8968424D02*
X-4593162Y-8911281D01*
X-4593162Y-8911281D02*
X-4536019Y-8854139D01*
X-4536019Y-8854139D02*
X-4478876Y-8739853D01*
X-4478876Y-8739853D02*
X-4478876Y-8625567D01*
X-6410809Y-36796993D02*
X-7210809Y-36511279D01*
X-7210809Y-36511279D02*
X-6410809Y-36225564D01*
X-6125095Y-35825564D02*
X-6067952Y-35768421D01*
X-6067952Y-35768421D02*
X-6010809Y-35654136D01*
X-6010809Y-35654136D02*
X-6010809Y-35368421D01*
X-6010809Y-35368421D02*
X-6067952Y-35254136D01*
X-6067952Y-35254136D02*
X-6125095Y-35196993D01*
X-6125095Y-35196993D02*
X-6239381Y-35139850D01*
X-6239381Y-35139850D02*
X-6353667Y-35139850D01*
X-6353667Y-35139850D02*
X-6525095Y-35196993D01*
X-6525095Y-35196993D02*
X-7210809Y-35882707D01*
X-7210809Y-35882707D02*
X-7210809Y-35139850D01*
X-7096524Y-34625564D02*
X-7153667Y-34568421D01*
X-7153667Y-34568421D02*
X-7210809Y-34625564D01*
X-7210809Y-34625564D02*
X-7153667Y-34682707D01*
X-7153667Y-34682707D02*
X-7096524Y-34625564D01*
X-7096524Y-34625564D02*
X-7210809Y-34625564D01*
X-6010809Y-33825564D02*
X-6010809Y-33711278D01*
X-6010809Y-33711278D02*
X-6067952Y-33596992D01*
X-6067952Y-33596992D02*
X-6125095Y-33539850D01*
X-6125095Y-33539850D02*
X-6239381Y-33482707D01*
X-6239381Y-33482707D02*
X-6467952Y-33425564D01*
X-6467952Y-33425564D02*
X-6753667Y-33425564D01*
X-6753667Y-33425564D02*
X-6982238Y-33482707D01*
X-6982238Y-33482707D02*
X-7096524Y-33539850D01*
X-7096524Y-33539850D02*
X-7153667Y-33596992D01*
X-7153667Y-33596992D02*
X-7210809Y-33711278D01*
X-7210809Y-33711278D02*
X-7210809Y-33825564D01*
X-7210809Y-33825564D02*
X-7153667Y-33939850D01*
X-7153667Y-33939850D02*
X-7096524Y-33996992D01*
X-7096524Y-33996992D02*
X-6982238Y-34054135D01*
X-6982238Y-34054135D02*
X-6753667Y-34111278D01*
X-6753667Y-34111278D02*
X-6467952Y-34111278D01*
X-6467952Y-34111278D02*
X-6239381Y-34054135D01*
X-6239381Y-34054135D02*
X-6125095Y-33996992D01*
X-6125095Y-33996992D02*
X-6067952Y-33939850D01*
X-6067952Y-33939850D02*
X-6010809Y-33825564D01*
X-6753667Y-31996992D02*
X-6753667Y-31082707D01*
X-6125095Y-29654135D02*
X-6067952Y-29596992D01*
X-6067952Y-29596992D02*
X-6010809Y-29482707D01*
X-6010809Y-29482707D02*
X-6010809Y-29196992D01*
X-6010809Y-29196992D02*
X-6067952Y-29082707D01*
X-6067952Y-29082707D02*
X-6125095Y-29025564D01*
X-6125095Y-29025564D02*
X-6239381Y-28968421D01*
X-6239381Y-28968421D02*
X-6353667Y-28968421D01*
X-6353667Y-28968421D02*
X-6525095Y-29025564D01*
X-6525095Y-29025564D02*
X-7210809Y-29711278D01*
X-7210809Y-29711278D02*
X-7210809Y-28968421D01*
X-6010809Y-28225564D02*
X-6010809Y-28111278D01*
X-6010809Y-28111278D02*
X-6067952Y-27996992D01*
X-6067952Y-27996992D02*
X-6125095Y-27939850D01*
X-6125095Y-27939850D02*
X-6239381Y-27882707D01*
X-6239381Y-27882707D02*
X-6467952Y-27825564D01*
X-6467952Y-27825564D02*
X-6753667Y-27825564D01*
X-6753667Y-27825564D02*
X-6982238Y-27882707D01*
X-6982238Y-27882707D02*
X-7096524Y-27939850D01*
X-7096524Y-27939850D02*
X-7153667Y-27996992D01*
X-7153667Y-27996992D02*
X-7210809Y-28111278D01*
X-7210809Y-28111278D02*
X-7210809Y-28225564D01*
X-7210809Y-28225564D02*
X-7153667Y-28339850D01*
X-7153667Y-28339850D02*
X-7096524Y-28396992D01*
X-7096524Y-28396992D02*
X-6982238Y-28454135D01*
X-6982238Y-28454135D02*
X-6753667Y-28511278D01*
X-6753667Y-28511278D02*
X-6467952Y-28511278D01*
X-6467952Y-28511278D02*
X-6239381Y-28454135D01*
X-6239381Y-28454135D02*
X-6125095Y-28396992D01*
X-6125095Y-28396992D02*
X-6067952Y-28339850D01*
X-6067952Y-28339850D02*
X-6010809Y-28225564D01*
X-6125095Y-27368421D02*
X-6067952Y-27311278D01*
X-6067952Y-27311278D02*
X-6010809Y-27196993D01*
X-6010809Y-27196993D02*
X-6010809Y-26911278D01*
X-6010809Y-26911278D02*
X-6067952Y-26796993D01*
X-6067952Y-26796993D02*
X-6125095Y-26739850D01*
X-6125095Y-26739850D02*
X-6239381Y-26682707D01*
X-6239381Y-26682707D02*
X-6353667Y-26682707D01*
X-6353667Y-26682707D02*
X-6525095Y-26739850D01*
X-6525095Y-26739850D02*
X-7210809Y-27425564D01*
X-7210809Y-27425564D02*
X-7210809Y-26682707D01*
X-6010809Y-25596993D02*
X-6010809Y-26168421D01*
X-6010809Y-26168421D02*
X-6582238Y-26225564D01*
X-6582238Y-26225564D02*
X-6525095Y-26168421D01*
X-6525095Y-26168421D02*
X-6467952Y-26054136D01*
X-6467952Y-26054136D02*
X-6467952Y-25768421D01*
X-6467952Y-25768421D02*
X-6525095Y-25654136D01*
X-6525095Y-25654136D02*
X-6582238Y-25596993D01*
X-6582238Y-25596993D02*
X-6696524Y-25539850D01*
X-6696524Y-25539850D02*
X-6982238Y-25539850D01*
X-6982238Y-25539850D02*
X-7096524Y-25596993D01*
X-7096524Y-25596993D02*
X-7153667Y-25654136D01*
X-7153667Y-25654136D02*
X-7210809Y-25768421D01*
X-7210809Y-25768421D02*
X-7210809Y-26054136D01*
X-7210809Y-26054136D02*
X-7153667Y-26168421D01*
X-7153667Y-26168421D02*
X-7096524Y-26225564D01*
X-6753667Y-25025564D02*
X-6753667Y-24111279D01*
X-6010809Y-23311279D02*
X-6010809Y-23196993D01*
X-6010809Y-23196993D02*
X-6067952Y-23082707D01*
X-6067952Y-23082707D02*
X-6125095Y-23025565D01*
X-6125095Y-23025565D02*
X-6239381Y-22968422D01*
X-6239381Y-22968422D02*
X-6467952Y-22911279D01*
X-6467952Y-22911279D02*
X-6753667Y-22911279D01*
X-6753667Y-22911279D02*
X-6982238Y-22968422D01*
X-6982238Y-22968422D02*
X-7096524Y-23025565D01*
X-7096524Y-23025565D02*
X-7153667Y-23082707D01*
X-7153667Y-23082707D02*
X-7210809Y-23196993D01*
X-7210809Y-23196993D02*
X-7210809Y-23311279D01*
X-7210809Y-23311279D02*
X-7153667Y-23425565D01*
X-7153667Y-23425565D02*
X-7096524Y-23482707D01*
X-7096524Y-23482707D02*
X-6982238Y-23539850D01*
X-6982238Y-23539850D02*
X-6753667Y-23596993D01*
X-6753667Y-23596993D02*
X-6467952Y-23596993D01*
X-6467952Y-23596993D02*
X-6239381Y-23539850D01*
X-6239381Y-23539850D02*
X-6125095Y-23482707D01*
X-6125095Y-23482707D02*
X-6067952Y-23425565D01*
X-6067952Y-23425565D02*
X-6010809Y-23311279D01*
X-6010809Y-22511279D02*
X-6010809Y-21711279D01*
X-6010809Y-21711279D02*
X-7210809Y-22225565D01*
X-6753667Y-21254136D02*
X-6753667Y-20339851D01*
X-6010809Y-19539851D02*
X-6010809Y-19425565D01*
X-6010809Y-19425565D02*
X-6067952Y-19311279D01*
X-6067952Y-19311279D02*
X-6125095Y-19254137D01*
X-6125095Y-19254137D02*
X-6239381Y-19196994D01*
X-6239381Y-19196994D02*
X-6467952Y-19139851D01*
X-6467952Y-19139851D02*
X-6753667Y-19139851D01*
X-6753667Y-19139851D02*
X-6982238Y-19196994D01*
X-6982238Y-19196994D02*
X-7096524Y-19254137D01*
X-7096524Y-19254137D02*
X-7153667Y-19311279D01*
X-7153667Y-19311279D02*
X-7210809Y-19425565D01*
X-7210809Y-19425565D02*
X-7210809Y-19539851D01*
X-7210809Y-19539851D02*
X-7153667Y-19654137D01*
X-7153667Y-19654137D02*
X-7096524Y-19711279D01*
X-7096524Y-19711279D02*
X-6982238Y-19768422D01*
X-6982238Y-19768422D02*
X-6753667Y-19825565D01*
X-6753667Y-19825565D02*
X-6467952Y-19825565D01*
X-6467952Y-19825565D02*
X-6239381Y-19768422D01*
X-6239381Y-19768422D02*
X-6125095Y-19711279D01*
X-6125095Y-19711279D02*
X-6067952Y-19654137D01*
X-6067952Y-19654137D02*
X-6010809Y-19539851D01*
X-6010809Y-18739851D02*
X-6010809Y-17939851D01*
X-6010809Y-17939851D02*
X-7210809Y-18454137D01*
X-9142742Y-36682707D02*
X-7942742Y-36682707D01*
X-8514171Y-36682707D02*
X-8514171Y-35996993D01*
X-9142742Y-35996993D02*
X-7942742Y-35996993D01*
X-9142742Y-34911279D02*
X-8514171Y-34911279D01*
X-8514171Y-34911279D02*
X-8399885Y-34968421D01*
X-8399885Y-34968421D02*
X-8342742Y-35082707D01*
X-8342742Y-35082707D02*
X-8342742Y-35311279D01*
X-8342742Y-35311279D02*
X-8399885Y-35425564D01*
X-9085600Y-34911279D02*
X-9142742Y-35025564D01*
X-9142742Y-35025564D02*
X-9142742Y-35311279D01*
X-9142742Y-35311279D02*
X-9085600Y-35425564D01*
X-9085600Y-35425564D02*
X-8971314Y-35482707D01*
X-8971314Y-35482707D02*
X-8857028Y-35482707D01*
X-8857028Y-35482707D02*
X-8742742Y-35425564D01*
X-8742742Y-35425564D02*
X-8685600Y-35311279D01*
X-8685600Y-35311279D02*
X-8685600Y-35025564D01*
X-8685600Y-35025564D02*
X-8628457Y-34911279D01*
X-8342742Y-34454136D02*
X-9142742Y-34168422D01*
X-9142742Y-34168422D02*
X-8342742Y-33882707D01*
X-9085600Y-32968421D02*
X-9142742Y-33082707D01*
X-9142742Y-33082707D02*
X-9142742Y-33311279D01*
X-9142742Y-33311279D02*
X-9085600Y-33425564D01*
X-9085600Y-33425564D02*
X-8971314Y-33482707D01*
X-8971314Y-33482707D02*
X-8514171Y-33482707D01*
X-8514171Y-33482707D02*
X-8399885Y-33425564D01*
X-8399885Y-33425564D02*
X-8342742Y-33311279D01*
X-8342742Y-33311279D02*
X-8342742Y-33082707D01*
X-8342742Y-33082707D02*
X-8399885Y-32968421D01*
X-8399885Y-32968421D02*
X-8514171Y-32911279D01*
X-8514171Y-32911279D02*
X-8628457Y-32911279D01*
X-8628457Y-32911279D02*
X-8742742Y-33482707D01*
X-9142742Y-32396993D02*
X-8342742Y-32396993D01*
X-8571314Y-32396993D02*
X-8457028Y-32339850D01*
X-8457028Y-32339850D02*
X-8399885Y-32282708D01*
X-8399885Y-32282708D02*
X-8342742Y-32168422D01*
X-8342742Y-32168422D02*
X-8342742Y-32054136D01*
X-9142742Y-31654136D02*
X-7942742Y-31654136D01*
X-9142742Y-31139851D02*
X-8514171Y-31139851D01*
X-8514171Y-31139851D02*
X-8399885Y-31196993D01*
X-8399885Y-31196993D02*
X-8342742Y-31311279D01*
X-8342742Y-31311279D02*
X-8342742Y-31482708D01*
X-8342742Y-31482708D02*
X-8399885Y-31596993D01*
X-8399885Y-31596993D02*
X-8457028Y-31654136D01*
X-9142742Y-30568422D02*
X-8342742Y-30568422D01*
X-7942742Y-30568422D02*
X-7999885Y-30625565D01*
X-7999885Y-30625565D02*
X-8057028Y-30568422D01*
X-8057028Y-30568422D02*
X-7999885Y-30511279D01*
X-7999885Y-30511279D02*
X-7942742Y-30568422D01*
X-7942742Y-30568422D02*
X-8057028Y-30568422D01*
X-9142742Y-29825565D02*
X-9085600Y-29939850D01*
X-9085600Y-29939850D02*
X-8971314Y-29996993D01*
X-8971314Y-29996993D02*
X-7942742Y-29996993D01*
X-9142742Y-29196994D02*
X-9085600Y-29311279D01*
X-9085600Y-29311279D02*
X-8971314Y-29368422D01*
X-8971314Y-29368422D02*
X-7942742Y-29368422D01*
X-9085600Y-28682708D02*
X-9142742Y-28682708D01*
X-9142742Y-28682708D02*
X-9257028Y-28739851D01*
X-9257028Y-28739851D02*
X-9314171Y-28796994D01*
X-9142742Y-27254136D02*
X-7942742Y-27254136D01*
X-7942742Y-27254136D02*
X-8799885Y-26854136D01*
X-8799885Y-26854136D02*
X-7942742Y-26454136D01*
X-7942742Y-26454136D02*
X-9142742Y-26454136D01*
X-8799885Y-25939850D02*
X-8799885Y-25368422D01*
X-9142742Y-26054136D02*
X-7942742Y-25654136D01*
X-7942742Y-25654136D02*
X-9142742Y-25254136D01*
%LPC*%
D11*
%TO.C,J3*%
X-57593000Y-19165000D03*
D12*
X-57593000Y-24165000D03*
X-57593000Y-29165000D03*
X-57593000Y-34165000D03*
%TD*%
D13*
%TO.C,D1*%
X-44258000Y-10402000D03*
D14*
X-46798000Y-10402000D03*
%TD*%
D15*
%TO.C,R4*%
X-46163000Y-26150000D03*
D16*
X-46163000Y-16650000D03*
%TD*%
D15*
%TO.C,R5*%
X-50608000Y-19825000D03*
D16*
X-50608000Y-29325000D03*
%TD*%
D17*
%TO.C,U1*%
X-38670000Y-26150000D03*
X-36130000Y-26150000D03*
X-33590000Y-26150000D03*
X-31050000Y-26150000D03*
X-28510000Y-26150000D03*
X-25970000Y-26150000D03*
X-23430000Y-26150000D03*
X-23430000Y-10910000D03*
X-25970000Y-10910000D03*
X-28510000Y-10910000D03*
X-31050000Y-10910000D03*
X-33590000Y-10910000D03*
X-36130000Y-10910000D03*
X-38670000Y-10910000D03*
%TD*%
D15*
%TO.C,S1*%
X-17588000Y-24880000D03*
X-17588000Y-22340000D03*
X-17588000Y-19800000D03*
X-17588000Y-17260000D03*
X-17700000Y-39720000D03*
X-2300000Y-39695000D03*
X-17700000Y-2420000D03*
X-2300000Y-2420000D03*
%TD*%
D18*
%TO.C,Q1*%
X-50608000Y-35000000D03*
D19*
X-50608000Y-32460000D03*
D18*
X-50608000Y-37540000D03*
%TD*%
D20*
%TO.C,M2.5*%
X-67000000Y-38500000D03*
%TD*%
%TO.C,M2.5*%
X-25000000Y-31500000D03*
%TD*%
%TO.C,M2.5*%
X-74000000Y-12000000D03*
%TD*%
%TO.C,M2.5*%
X-22138000Y-3330000D03*
%TD*%
D21*
%TO.C,P1*%
X-52894000Y-12688000D03*
D15*
X-52894000Y-10148000D03*
X-52894000Y-7608000D03*
X-52894000Y-5068000D03*
X-52894000Y-2528000D03*
%TD*%
D22*
%TO.C,SW3*%
X-47100000Y-3958000D03*
D23*
X-38300000Y-3958000D03*
D22*
X-35500000Y-3958000D03*
D23*
X-41300000Y-3958000D03*
X-44300000Y-3958000D03*
%TD*%
%LPD*%
D24*
X-63000000Y-17000000D02*
X-63000000Y-33117218D01*
X-71000000Y-35882782D02*
G75*
G02*
X-70124033Y-34890522I1000000J-18D01*
G01*
X-63000000Y-33117218D02*
G75*
G02*
X-63875967Y-34109478I-1000000J18D01*
G01*
X-18700000Y-42000000D02*
X0Y-42000000D01*
X-78000000Y-11414214D02*
G75*
G02*
X-77707114Y-10707100I1000000J14D01*
G01*
X-29300000Y-39800000D02*
X-29300000Y-40000000D01*
X0Y0D02*
X0Y-42000000D01*
X-29300000Y-39800000D02*
G75*
G02*
X-20700000Y-39800000I4300000J0D01*
G01*
X-77000000Y-16000000D02*
X-64000000Y-16000000D01*
X-18700000Y-42000000D02*
G75*
G02*
X-20700000Y-40000000I0J2000000D01*
G01*
X-67292893Y-292893D02*
X-77707107Y-10707107D01*
X-25238000Y-4930000D02*
G75*
G02*
X-33238000Y-4930000I-4000000J0D01*
G01*
X-33238000Y-4930000D02*
G75*
G02*
X-25238000Y-4930000I4000000J0D01*
G01*
X-78000000Y-11414214D02*
X-78000000Y-15000000D01*
X0Y0D02*
X-66585786Y0D01*
X-64000000Y-16000000D02*
G75*
G02*
X-63000000Y-17000000I0J-1000000D01*
G01*
X-77000000Y-16000000D02*
G75*
G02*
X-78000000Y-15000000I0J1000000D01*
G01*
X-71000000Y-35882782D02*
X-71000000Y-41000000D01*
X-29300000Y-40000000D02*
G75*
G02*
X-31300000Y-42000000I-2000000J0D01*
G01*
X-67292893Y-292893D02*
G75*
G02*
X-66585786Y-39I707093J-707207D01*
G01*
X-70000000Y-42000000D02*
G75*
G02*
X-71000000Y-41000000I0J1000000D01*
G01*
X-31300000Y-42000000D02*
X-70000000Y-42000000D01*
X-63875965Y-34109496D02*
X-70124035Y-34890504D01*
X-20700000Y-40000000D02*
X-20700000Y-39800000D01*
M02*
