%TF.GenerationSoftware,KiCad,Pcbnew,9.0.1*%
%TF.CreationDate,2025-07-07T12:26:16-04:00*%
%TF.ProjectId,cablight-project,6361626c-6967-4687-942d-70726f6a6563,rev?*%
%TF.SameCoordinates,Original*%
%TF.FileFunction,Copper,L2,Bot*%
%TF.FilePolarity,Positive*%
%FSLAX46Y46*%
G04 Gerber Fmt 4.6, Leading zero omitted, Abs format (unit mm)*
G04 Created by KiCad (PCBNEW 9.0.1) date 2025-07-07 12:26:16*
%MOMM*%
%LPD*%
G01*
G04 APERTURE LIST*
%TA.AperFunction,ComponentPad*%
%ADD10R,3.000000X3.000000*%
%TD*%
%TA.AperFunction,ComponentPad*%
%ADD11C,3.000000*%
%TD*%
%TA.AperFunction,ComponentPad*%
%ADD12R,2.200000X2.200000*%
%TD*%
%TA.AperFunction,ComponentPad*%
%ADD13O,2.200000X2.200000*%
%TD*%
%TA.AperFunction,ComponentPad*%
%ADD14C,1.600000*%
%TD*%
%TA.AperFunction,ComponentPad*%
%ADD15O,1.600000X1.600000*%
%TD*%
%TA.AperFunction,ComponentPad*%
%ADD16C,1.800000*%
%TD*%
%TA.AperFunction,ComponentPad*%
%ADD17O,2.500000X1.900000*%
%TD*%
%TA.AperFunction,ComponentPad*%
%ADD18R,2.000000X1.900000*%
%TD*%
%TA.AperFunction,ComponentPad*%
%ADD19C,3.100000*%
%TD*%
%TA.AperFunction,ComponentPad*%
%ADD20R,1.600000X1.600000*%
%TD*%
%TA.AperFunction,ComponentPad*%
%ADD21O,1.500000X3.000000*%
%TD*%
%TA.AperFunction,ComponentPad*%
%ADD22C,2.000000*%
%TD*%
%TA.AperFunction,ViaPad*%
%ADD23C,0.800000*%
%TD*%
%TA.AperFunction,Profile*%
%ADD24C,0.150000*%
%TD*%
G04 APERTURE END LIST*
D10*
%TO.P,J3,1,Pin_1*%
%TO.N,<NO NET>*%
X-57593000Y-19165000D03*
D11*
%TO.P,J3,2,Pin_2*%
%TO.N,/+24V*%
X-57593000Y-24165000D03*
%TO.P,J3,3,Pin_3*%
X-57593000Y-29165000D03*
%TO.P,J3,4,Pin_4*%
%TO.N,/LED-*%
X-57593000Y-34165000D03*
%TD*%
D12*
%TO.P,D1,1,K*%
%TO.N,/5V_MCU*%
X-44258000Y-10402000D03*
D13*
%TO.P,D1,2,A*%
%TO.N,/5V_sw*%
X-46798000Y-10402000D03*
%TD*%
D14*
%TO.P,R4,1*%
%TO.N,Net-(U1-GPIO_18)*%
X-46163000Y-26150000D03*
D15*
%TO.P,R4,2*%
%TO.N,<NO NET>*%
X-46163000Y-16650000D03*
%TD*%
D14*
%TO.P,R5,1*%
%TO.N,Net-(U1-GPIO_18)*%
X-50608000Y-19825000D03*
D15*
%TO.P,R5,2*%
%TO.N,Net-(Q1-G)*%
X-50608000Y-29325000D03*
%TD*%
D16*
%TO.P,U1,1,GPIO_18*%
%TO.N,Net-(U1-GPIO_18)*%
X-38670000Y-26150000D03*
%TO.P,U1,2,GPIO_17*%
%TO.N,unconnected-(U1-GPIO_17-Pad2)*%
X-36130000Y-26150000D03*
%TO.P,U1,3,GPIO_9*%
%TO.N,unconnected-(U1-GPIO_9-Pad3)*%
X-33590000Y-26150000D03*
%TO.P,U1,4,GPIO_8*%
%TO.N,unconnected-(U1-GPIO_8-Pad4)*%
X-31050000Y-26150000D03*
%TO.P,U1,5,GPIO_7*%
%TO.N,unconnected-(U1-GPIO_7-Pad5)*%
X-28510000Y-26150000D03*
%TO.P,U1,6,GPIO_6*%
%TO.N,unconnected-(U1-GPIO_6-Pad6)*%
X-25970000Y-26150000D03*
%TO.P,U1,7,GPIO_5*%
%TO.N,/echo*%
X-23430000Y-26150000D03*
%TO.P,U1,8,GPIO_16*%
%TO.N,/trig*%
X-23430000Y-10910000D03*
%TO.P,U1,9,GPIO_36*%
%TO.N,unconnected-(U1-GPIO_36-Pad9)*%
X-25970000Y-10910000D03*
%TO.P,U1,10,GPIO_37*%
%TO.N,unconnected-(U1-GPIO_37-Pad10)*%
X-28510000Y-10910000D03*
%TO.P,U1,11,GPIO_35*%
%TO.N,unconnected-(U1-GPIO_35-Pad11)*%
X-31050000Y-10910000D03*
%TO.P,U1,12,3.3V*%
%TO.N,/SRO4 PWR*%
X-33590000Y-10910000D03*
%TO.P,U1,13,GND*%
%TO.N,<NO NET>*%
X-36130000Y-10910000D03*
%TO.P,U1,14,5V*%
%TO.N,/5V_MCU*%
X-38670000Y-10910000D03*
%TD*%
D14*
%TO.P,S1,4,GND*%
%TO.N,<NO NET>*%
X-17588000Y-24880000D03*
%TO.P,S1,3,Echo*%
%TO.N,/echo*%
X-17588000Y-22340000D03*
%TO.P,S1,2,Trig*%
%TO.N,/trig*%
X-17588000Y-19800000D03*
%TO.P,S1,1,Vin*%
%TO.N,/SRO4 PWR*%
X-17588000Y-17260000D03*
%TO.P,S1,*%
%TO.N,*%
X-17700000Y-39720000D03*
X-2300000Y-39695000D03*
X-17700000Y-2420000D03*
X-2300000Y-2420000D03*
%TD*%
D17*
%TO.P,Q1,2,D*%
%TO.N,/LED-*%
X-50608000Y-35000000D03*
D18*
%TO.P,Q1,1,G*%
%TO.N,Net-(Q1-G)*%
X-50608000Y-32460000D03*
D17*
%TO.P,Q1,3,S*%
%TO.N,<NO NET>*%
X-50608000Y-37540000D03*
%TD*%
D19*
%TO.P,M2.5,1*%
%TO.N,N/C*%
X-67000000Y-38500000D03*
%TD*%
%TO.P,M2.5,1*%
%TO.N,N/C*%
X-25000000Y-31500000D03*
%TD*%
%TO.P,M2.5,1*%
%TO.N,N/C*%
X-74000000Y-12000000D03*
%TD*%
%TO.P,M2.5,1*%
%TO.N,N/C*%
X-22138000Y-3330000D03*
%TD*%
D20*
%TO.P,P1,1,PG*%
%TO.N,unconnected-(P1-PG-Pad1)*%
X-52894000Y-12688000D03*
D14*
%TO.P,P1,2,SHDN*%
%TO.N,unconnected-(P1-SHDN-Pad2)*%
X-52894000Y-10148000D03*
%TO.P,P1,3,VIN_24V*%
%TO.N,/+24V*%
X-52894000Y-7608000D03*
%TO.P,P1,4,GND*%
%TO.N,<NO NET>*%
X-52894000Y-5068000D03*
%TO.P,P1,5,VOUT_5V*%
%TO.N,/+5V*%
X-52894000Y-2528000D03*
%TD*%
D21*
%TO.P,SW3,*%
%TO.N,*%
X-47100000Y-3958000D03*
D22*
X-38300000Y-3958000D03*
D21*
X-35500000Y-3958000D03*
D22*
%TO.P,SW3,1*%
%TO.N,/+5V*%
X-41300000Y-3958000D03*
%TO.P,SW3,2*%
%TO.N,/5V_sw*%
X-44300000Y-3958000D03*
%TD*%
D23*
%TO.N,<NO NET>*%
X-23000000Y-14000000D03*
X-34500000Y-38250000D03*
X-23500000Y-19500000D03*
X-64500000Y-13000000D03*
X-34500000Y-31500000D03*
X-61000000Y-27500000D03*
X-43500000Y-23000000D03*
X-10250000Y-14000000D03*
X-22750000Y-8500000D03*
X-15250000Y-8500000D03*
X-34000000Y-19500000D03*
X-28500000Y-23000000D03*
X-10250000Y-19750000D03*
X-28500000Y-14000000D03*
X-17250000Y-14000000D03*
X-61000000Y-35200000D03*
X-28500000Y-19500000D03*
X-36500000Y-23000000D03*
%TD*%
%TA.AperFunction,Conductor*%
%TO.N,<NO NET>*%
G36*
X-30862830Y-520185D02*
G01*
X-30817075Y-572989D01*
X-30807131Y-642147D01*
X-30836156Y-705703D01*
X-30887455Y-741020D01*
X-30961908Y-768119D01*
X-30961910Y-768120D01*
X-30961921Y-768124D01*
X-31318062Y-934195D01*
X-31318086Y-934207D01*
X-31557305Y-1072320D01*
X-31658421Y-1130700D01*
X-31658424Y-1130702D01*
X-31658427Y-1130704D01*
X-31980347Y-1356115D01*
X-32136351Y-1487019D01*
X-32281391Y-1608722D01*
X-32559278Y-1886609D01*
X-32644599Y-1988291D01*
X-32811884Y-2187652D01*
X-32811888Y-2187658D01*
X-32811889Y-2187659D01*
X-33037300Y-2509579D01*
X-33107028Y-2630352D01*
X-33233792Y-2849913D01*
X-33233804Y-2849937D01*
X-33399875Y-3206078D01*
X-33399876Y-3206083D01*
X-33399881Y-3206092D01*
X-33534293Y-3575384D01*
X-33636007Y-3954985D01*
X-33704249Y-4342007D01*
X-33738500Y-4733504D01*
X-33738500Y-4758288D01*
X-33738500Y-5126496D01*
X-33704249Y-5517993D01*
X-33636007Y-5905015D01*
X-33534293Y-6284616D01*
X-33399881Y-6653908D01*
X-33233796Y-7010080D01*
X-33037300Y-7350421D01*
X-32811889Y-7672341D01*
X-32559278Y-7973391D01*
X-32281391Y-8251278D01*
X-31980341Y-8503889D01*
X-31658421Y-8729300D01*
X-31318080Y-8925796D01*
X-30961908Y-9091881D01*
X-30592616Y-9226293D01*
X-30213015Y-9328007D01*
X-29825993Y-9396249D01*
X-29434497Y-9430499D01*
X-29434497Y-9430500D01*
X-29207683Y-9430500D01*
X-29140644Y-9450185D01*
X-29094889Y-9502989D01*
X-29084945Y-9572147D01*
X-29113970Y-9635703D01*
X-29151387Y-9664984D01*
X-29244023Y-9712185D01*
X-29422358Y-9841752D01*
X-29422363Y-9841756D01*
X-29578243Y-9997636D01*
X-29578247Y-9997641D01*
X-29679682Y-10137254D01*
X-29735012Y-10179920D01*
X-29804625Y-10185899D01*
X-29866420Y-10153293D01*
X-29880318Y-10137254D01*
X-29981752Y-9997641D01*
X-29981756Y-9997636D01*
X-30137636Y-9841756D01*
X-30137641Y-9841752D01*
X-30315974Y-9712187D01*
X-30512393Y-9612104D01*
X-30512396Y-9612103D01*
X-30722047Y-9543985D01*
X-30867201Y-9520995D01*
X-30939778Y-9509500D01*
X-31160222Y-9509500D01*
X-31269086Y-9526742D01*
X-31377952Y-9543985D01*
X-31587603Y-9612103D01*
X-31587606Y-9612104D01*
X-31691386Y-9664984D01*
X-31784022Y-9712185D01*
X-31784024Y-9712186D01*
X-31784025Y-9712187D01*
X-31962358Y-9841752D01*
X-31962363Y-9841756D01*
X-32118243Y-9997636D01*
X-32118247Y-9997641D01*
X-32219682Y-10137254D01*
X-32275012Y-10179920D01*
X-32344625Y-10185899D01*
X-32406420Y-10153293D01*
X-32420318Y-10137254D01*
X-32521752Y-9997641D01*
X-32521756Y-9997636D01*
X-32677636Y-9841756D01*
X-32677641Y-9841752D01*
X-32855974Y-9712187D01*
X-33052393Y-9612104D01*
X-33052396Y-9612103D01*
X-33262047Y-9543985D01*
X-33407201Y-9520995D01*
X-33479778Y-9509500D01*
X-33700222Y-9509500D01*
X-33809086Y-9526742D01*
X-33917952Y-9543985D01*
X-34127603Y-9612103D01*
X-34127606Y-9612104D01*
X-34231386Y-9664984D01*
X-34324022Y-9712185D01*
X-34324024Y-9712186D01*
X-34324025Y-9712187D01*
X-34502358Y-9841752D01*
X-34502363Y-9841756D01*
X-34658243Y-9997636D01*
X-34658247Y-9997641D01*
X-34759991Y-10137680D01*
X-34815320Y-10180346D01*
X-34884934Y-10186325D01*
X-34946729Y-10153720D01*
X-34960627Y-10137680D01*
X-35008686Y-10071531D01*
X-35008688Y-10071530D01*
X-35661980Y-10724822D01*
X-35664075Y-10717007D01*
X-35729901Y-10602993D01*
X-35822993Y-10509901D01*
X-35937007Y-10444075D01*
X-35944823Y-10441980D01*
X-35291530Y-9788688D01*
X-35291531Y-9788687D01*
X-35396236Y-9712615D01*
X-35592589Y-9612567D01*
X-35802164Y-9544473D01*
X-36019819Y-9510000D01*
X-36240181Y-9510000D01*
X-36457835Y-9544473D01*
X-36667410Y-9612567D01*
X-36863760Y-9712613D01*
X-36968467Y-9788688D01*
X-36968468Y-9788689D01*
X-36315177Y-10441980D01*
X-36322993Y-10444075D01*
X-36437007Y-10509901D01*
X-36530099Y-10602993D01*
X-36595925Y-10717007D01*
X-36598019Y-10724821D01*
X-37251310Y-10071530D01*
X-37251310Y-10071531D01*
X-37299372Y-10137681D01*
X-37354702Y-10180346D01*
X-37424316Y-10186325D01*
X-37486111Y-10153719D01*
X-37500008Y-10137681D01*
X-37601756Y-9997636D01*
X-37675764Y-9923629D01*
X-37757636Y-9841756D01*
X-37757641Y-9841752D01*
X-37935974Y-9712187D01*
X-38132393Y-9612104D01*
X-38132396Y-9612103D01*
X-38342047Y-9543985D01*
X-38487201Y-9520995D01*
X-38559778Y-9509500D01*
X-38780222Y-9509500D01*
X-38889086Y-9526742D01*
X-38997952Y-9543985D01*
X-39207603Y-9612103D01*
X-39207606Y-9612104D01*
X-39311386Y-9664984D01*
X-39404022Y-9712185D01*
X-39404024Y-9712186D01*
X-39404025Y-9712187D01*
X-39582358Y-9841752D01*
X-39582363Y-9841756D01*
X-39738243Y-9997636D01*
X-39738247Y-9997641D01*
X-39839681Y-10137254D01*
X-39867815Y-10175978D01*
X-39926633Y-10291413D01*
X-39967895Y-10372393D01*
X-39967895Y-10372394D01*
X-40036015Y-10582049D01*
X-40070500Y-10799778D01*
X-40070500Y-11020222D01*
X-40036015Y-11237951D01*
X-39980114Y-11410000D01*
X-39968854Y-11444656D01*
X-39967895Y-11447606D01*
X-39867815Y-11644022D01*
X-39738242Y-11822365D01*
X-39582365Y-11978242D01*
X-39404022Y-12107815D01*
X-39207606Y-12207895D01*
X-38997951Y-12276015D01*
X-38780222Y-12310500D01*
X-38780221Y-12310500D01*
X-38559779Y-12310500D01*
X-38559778Y-12310500D01*
X-38342049Y-12276015D01*
X-38237221Y-12241955D01*
X-38132396Y-12207896D01*
X-38132393Y-12207895D01*
X-38064375Y-12173237D01*
X-37935978Y-12107815D01*
X-37830677Y-12031310D01*
X-37757641Y-11978247D01*
X-37757636Y-11978243D01*
X-37601756Y-11822363D01*
X-37601752Y-11822358D01*
X-37500008Y-11682319D01*
X-37444678Y-11639653D01*
X-37375065Y-11633674D01*
X-37313270Y-11666279D01*
X-37299372Y-11682318D01*
X-37251310Y-11748467D01*
X-37251309Y-11748468D01*
X-36598019Y-11095177D01*
X-36595925Y-11102993D01*
X-36530099Y-11217007D01*
X-36437007Y-11310099D01*
X-36322993Y-11375925D01*
X-36315178Y-11378019D01*
X-36968468Y-12031309D01*
X-36968467Y-12031310D01*
X-36863758Y-12107386D01*
X-36863752Y-12107390D01*
X-36667410Y-12207432D01*
X-36457835Y-12275526D01*
X-36240181Y-12310000D01*
X-36019819Y-12310000D01*
X-35802164Y-12275526D01*
X-35592589Y-12207432D01*
X-35396239Y-12107386D01*
X-35291531Y-12031310D01*
X-35291530Y-12031310D01*
X-35944822Y-11378019D01*
X-35937007Y-11375925D01*
X-35822993Y-11310099D01*
X-35729901Y-11217007D01*
X-35664075Y-11102993D01*
X-35661980Y-11095176D01*
X-35008689Y-11748468D01*
X-35008688Y-11748467D01*
X-34960627Y-11682318D01*
X-34905297Y-11639653D01*
X-34835683Y-11633674D01*
X-34773888Y-11666280D01*
X-34759994Y-11682313D01*
X-34658242Y-11822365D01*
X-34502365Y-11978242D01*
X-34324022Y-12107815D01*
X-34127606Y-12207895D01*
X-33917951Y-12276015D01*
X-33700222Y-12310500D01*
X-33700221Y-12310500D01*
X-33479779Y-12310500D01*
X-33479778Y-12310500D01*
X-33262049Y-12276015D01*
X-33157221Y-12241955D01*
X-33052396Y-12207896D01*
X-33052393Y-12207895D01*
X-32984375Y-12173237D01*
X-32855978Y-12107815D01*
X-32750677Y-12031310D01*
X-32677641Y-11978247D01*
X-32677636Y-11978243D01*
X-32521756Y-11822363D01*
X-32521752Y-11822358D01*
X-32420318Y-11682745D01*
X-32364989Y-11640079D01*
X-32295375Y-11634100D01*
X-32233580Y-11666705D01*
X-32219682Y-11682745D01*
X-32164047Y-11759320D01*
X-32118242Y-11822365D01*
X-31962365Y-11978242D01*
X-31784022Y-12107815D01*
X-31587606Y-12207895D01*
X-31377951Y-12276015D01*
X-31160222Y-12310500D01*
X-31160221Y-12310500D01*
X-30939779Y-12310500D01*
X-30939778Y-12310500D01*
X-30722049Y-12276015D01*
X-30617221Y-12241955D01*
X-30512396Y-12207896D01*
X-30512393Y-12207895D01*
X-30444375Y-12173237D01*
X-30315978Y-12107815D01*
X-30210677Y-12031310D01*
X-30137641Y-11978247D01*
X-30137636Y-11978243D01*
X-29981756Y-11822363D01*
X-29981752Y-11822358D01*
X-29880318Y-11682745D01*
X-29824989Y-11640079D01*
X-29755375Y-11634100D01*
X-29693580Y-11666705D01*
X-29679682Y-11682745D01*
X-29624047Y-11759320D01*
X-29578242Y-11822365D01*
X-29422365Y-11978242D01*
X-29244022Y-12107815D01*
X-29047606Y-12207895D01*
X-28837951Y-12276015D01*
X-28620222Y-12310500D01*
X-28620221Y-12310500D01*
X-28399779Y-12310500D01*
X-28399778Y-12310500D01*
X-28182049Y-12276015D01*
X-28077221Y-12241955D01*
X-27972396Y-12207896D01*
X-27972393Y-12207895D01*
X-27904375Y-12173237D01*
X-27775978Y-12107815D01*
X-27670677Y-12031310D01*
X-27597641Y-11978247D01*
X-27597636Y-11978243D01*
X-27441756Y-11822363D01*
X-27441752Y-11822358D01*
X-27340318Y-11682745D01*
X-27284989Y-11640079D01*
X-27215375Y-11634100D01*
X-27153580Y-11666705D01*
X-27139682Y-11682745D01*
X-27084047Y-11759320D01*
X-27038242Y-11822365D01*
X-26882365Y-11978242D01*
X-26704022Y-12107815D01*
X-26507606Y-12207895D01*
X-26297951Y-12276015D01*
X-26080222Y-12310500D01*
X-26080221Y-12310500D01*
X-25859779Y-12310500D01*
X-25859778Y-12310500D01*
X-25642049Y-12276015D01*
X-25537221Y-12241955D01*
X-25432396Y-12207896D01*
X-25432393Y-12207895D01*
X-25364375Y-12173237D01*
X-25235978Y-12107815D01*
X-25130677Y-12031310D01*
X-25057641Y-11978247D01*
X-25057636Y-11978243D01*
X-24901756Y-11822363D01*
X-24901752Y-11822358D01*
X-24800318Y-11682745D01*
X-24744989Y-11640079D01*
X-24675375Y-11634100D01*
X-24613580Y-11666705D01*
X-24599682Y-11682745D01*
X-24544047Y-11759320D01*
X-24498242Y-11822365D01*
X-24342365Y-11978242D01*
X-24164022Y-12107815D01*
X-23967606Y-12207895D01*
X-23757951Y-12276015D01*
X-23540222Y-12310500D01*
X-23540221Y-12310500D01*
X-23319779Y-12310500D01*
X-23319778Y-12310500D01*
X-23102049Y-12276015D01*
X-22997221Y-12241955D01*
X-22892396Y-12207896D01*
X-22892393Y-12207895D01*
X-22824375Y-12173237D01*
X-22695978Y-12107815D01*
X-22590677Y-12031310D01*
X-22517641Y-11978247D01*
X-22517636Y-11978243D01*
X-22361756Y-11822363D01*
X-22361752Y-11822358D01*
X-22232187Y-11644025D01*
X-22227129Y-11634100D01*
X-22184213Y-11549873D01*
X-22132104Y-11447606D01*
X-22132103Y-11447603D01*
X-22063985Y-11237952D01*
X-22029500Y-11020221D01*
X-22029500Y-10799778D01*
X-22063985Y-10582047D01*
X-22132103Y-10372396D01*
X-22132104Y-10372393D01*
X-22232187Y-10175974D01*
X-22361752Y-9997641D01*
X-22361756Y-9997636D01*
X-22517636Y-9841756D01*
X-22517641Y-9841752D01*
X-22695974Y-9712187D01*
X-22892393Y-9612104D01*
X-22892396Y-9612103D01*
X-23102047Y-9543985D01*
X-23247201Y-9520995D01*
X-23319778Y-9509500D01*
X-23540222Y-9509500D01*
X-23649086Y-9526742D01*
X-23757952Y-9543985D01*
X-23967603Y-9612103D01*
X-23967606Y-9612104D01*
X-24071386Y-9664984D01*
X-24164022Y-9712185D01*
X-24164024Y-9712186D01*
X-24164025Y-9712187D01*
X-24342358Y-9841752D01*
X-24342363Y-9841756D01*
X-24498243Y-9997636D01*
X-24498247Y-9997641D01*
X-24599682Y-10137254D01*
X-24655012Y-10179920D01*
X-24724625Y-10185899D01*
X-24786420Y-10153293D01*
X-24800318Y-10137254D01*
X-24901752Y-9997641D01*
X-24901756Y-9997636D01*
X-25057636Y-9841756D01*
X-25057641Y-9841752D01*
X-25235974Y-9712187D01*
X-25432393Y-9612104D01*
X-25432396Y-9612103D01*
X-25642047Y-9543985D01*
X-25787201Y-9520995D01*
X-25859778Y-9509500D01*
X-26080222Y-9509500D01*
X-26189086Y-9526742D01*
X-26297952Y-9543985D01*
X-26507603Y-9612103D01*
X-26507606Y-9612104D01*
X-26611386Y-9664984D01*
X-26704022Y-9712185D01*
X-26704024Y-9712186D01*
X-26704025Y-9712187D01*
X-26882358Y-9841752D01*
X-26882363Y-9841756D01*
X-27038243Y-9997636D01*
X-27038247Y-9997641D01*
X-27139682Y-10137254D01*
X-27195012Y-10179920D01*
X-27264625Y-10185899D01*
X-27326420Y-10153293D01*
X-27340318Y-10137254D01*
X-27441752Y-9997641D01*
X-27441756Y-9997636D01*
X-27597636Y-9841756D01*
X-27597641Y-9841752D01*
X-27775974Y-9712187D01*
X-27972393Y-9612104D01*
X-27972396Y-9612103D01*
X-28184792Y-9543093D01*
X-28242467Y-9503656D01*
X-28269666Y-9439297D01*
X-28257752Y-9370451D01*
X-28210508Y-9318975D01*
X-28178571Y-9305388D01*
X-27883384Y-9226293D01*
X-27514092Y-9091881D01*
X-27514083Y-9091876D01*
X-27514078Y-9091875D01*
X-27157937Y-8925804D01*
X-27157934Y-8925802D01*
X-27157920Y-8925796D01*
X-26817579Y-8729300D01*
X-26495659Y-8503889D01*
X-26495658Y-8503888D01*
X-26495652Y-8503884D01*
X-26240295Y-8289613D01*
X-26194609Y-8251278D01*
X-25916722Y-7973391D01*
X-25856793Y-7901971D01*
X-25664115Y-7672347D01*
X-25438704Y-7350427D01*
X-25438695Y-7350412D01*
X-25242207Y-7010086D01*
X-25242195Y-7010062D01*
X-25076124Y-6653921D01*
X-25018540Y-6495713D01*
X-24941707Y-6284616D01*
X-24839993Y-5905015D01*
X-24839991Y-5905005D01*
X-24771751Y-5517999D01*
X-24771751Y-5517995D01*
X-24737500Y-5126500D01*
X-24737500Y-4733499D01*
X-24771751Y-4342004D01*
X-24771751Y-4342000D01*
X-24839991Y-3954994D01*
X-24839993Y-3954983D01*
X-24911404Y-3688477D01*
X-24941707Y-3575384D01*
X-24961876Y-3519971D01*
X-25012843Y-3379941D01*
X-25065978Y-3233954D01*
X-25065978Y-3233952D01*
X-25076121Y-3206086D01*
X-25076122Y-3206083D01*
X-25081009Y-3195603D01*
X-24188500Y-3195603D01*
X-24188500Y-3464397D01*
X-24153416Y-3730891D01*
X-24083847Y-3990526D01*
X-23980984Y-4238859D01*
X-23846587Y-4471641D01*
X-23682956Y-4684890D01*
X-23492890Y-4874956D01*
X-23279641Y-5038587D01*
X-23046859Y-5172984D01*
X-23046853Y-5172986D01*
X-23046850Y-5172988D01*
X-23010547Y-5188025D01*
X-22798526Y-5275847D01*
X-22538891Y-5345416D01*
X-22333795Y-5372417D01*
X-22272398Y-5380500D01*
X-22272397Y-5380500D01*
X-22003602Y-5380500D01*
X-21925319Y-5370193D01*
X-21737109Y-5345416D01*
X-21477474Y-5275847D01*
X-21348427Y-5222394D01*
X-21229149Y-5172988D01*
X-21229133Y-5172980D01*
X-21105695Y-5101712D01*
X-20996359Y-5038587D01*
X-20783110Y-4874956D01*
X-20783104Y-4874951D01*
X-20593048Y-4684895D01*
X-20593042Y-4684888D01*
X-20429416Y-4471645D01*
X-20429415Y-4471644D01*
X-20429413Y-4471641D01*
X-20354608Y-4342076D01*
X-20295019Y-4238866D01*
X-20295011Y-4238850D01*
X-20192152Y-3990524D01*
X-20127987Y-3751054D01*
X-20122584Y-3730891D01*
X-20122583Y-3730885D01*
X-20122582Y-3730880D01*
X-20087500Y-3464397D01*
X-20087500Y-3195602D01*
X-20122582Y-2929119D01*
X-20122585Y-2929106D01*
X-20192152Y-2669475D01*
X-20295011Y-2421149D01*
X-20295021Y-2421129D01*
X-20321784Y-2374777D01*
X-20321785Y-2374776D01*
X-20354768Y-2317648D01*
X-19000500Y-2317648D01*
X-19000500Y-2522352D01*
X-18968477Y-2724534D01*
X-18905220Y-2919219D01*
X-18812287Y-3101610D01*
X-18761460Y-3171568D01*
X-18691971Y-3267213D01*
X-18691968Y-3267215D01*
X-18691966Y-3267219D01*
X-18547219Y-3411966D01*
X-18547215Y-3411968D01*
X-18547213Y-3411971D01*
X-18521383Y-3430737D01*
X-18381610Y-3532287D01*
X-18199219Y-3625220D01*
X-18004534Y-3688477D01*
X-17802352Y-3720500D01*
X-17802351Y-3720500D01*
X-17597649Y-3720500D01*
X-17597648Y-3720500D01*
X-17496557Y-3704488D01*
X-17395465Y-3688477D01*
X-17305137Y-3659127D01*
X-17200781Y-3625220D01*
X-17200778Y-3625218D01*
X-17200776Y-3625218D01*
X-17134607Y-3591503D01*
X-17018390Y-3532287D01*
X-17001431Y-3519966D01*
X-16852786Y-3411971D01*
X-16708028Y-3267213D01*
X-16587715Y-3101613D01*
X-16494781Y-2919223D01*
X-16431522Y-2724534D01*
X-16399500Y-2522351D01*
X-16399500Y-2317648D01*
X-3600500Y-2317648D01*
X-3600500Y-2522352D01*
X-3568477Y-2724534D01*
X-3505220Y-2919219D01*
X-3412287Y-3101610D01*
X-3361460Y-3171568D01*
X-3291971Y-3267213D01*
X-3291968Y-3267215D01*
X-3291966Y-3267219D01*
X-3147219Y-3411966D01*
X-3147215Y-3411968D01*
X-3147213Y-3411971D01*
X-3121383Y-3430737D01*
X-2981610Y-3532287D01*
X-2799219Y-3625220D01*
X-2604534Y-3688477D01*
X-2402352Y-3720500D01*
X-2402351Y-3720500D01*
X-2197649Y-3720500D01*
X-2197648Y-3720500D01*
X-2096557Y-3704488D01*
X-1995465Y-3688477D01*
X-1905137Y-3659127D01*
X-1800781Y-3625220D01*
X-1800778Y-3625218D01*
X-1800776Y-3625218D01*
X-1734607Y-3591503D01*
X-1618390Y-3532287D01*
X-1601431Y-3519966D01*
X-1452786Y-3411971D01*
X-1308028Y-3267213D01*
X-1187715Y-3101613D01*
X-1094781Y-2919223D01*
X-1031522Y-2724534D01*
X-999500Y-2522351D01*
X-999500Y-2317648D01*
X-1031522Y-2115465D01*
X-1094781Y-1920776D01*
X-1187715Y-1738386D01*
X-1308028Y-1572786D01*
X-1452786Y-1428028D01*
X-1618386Y-1307715D01*
X-1800776Y-1214781D01*
X-1995465Y-1151522D01*
X-2173329Y-1123351D01*
X-2197648Y-1119500D01*
X-2402352Y-1119500D01*
X-2429995Y-1123878D01*
X-2604534Y-1151522D01*
X-2799223Y-1214781D01*
X-2924653Y-1278691D01*
X-2981610Y-1307713D01*
X-2981612Y-1307714D01*
X-2981613Y-1307715D01*
X-3147213Y-1428028D01*
X-3291971Y-1572786D01*
X-3370432Y-1680781D01*
X-3412287Y-1738390D01*
X-3436057Y-1785042D01*
X-3505218Y-1920776D01*
X-3505218Y-1920778D01*
X-3505220Y-1920781D01*
X-3522873Y-1975111D01*
X-3568477Y-2115465D01*
X-3580022Y-2188354D01*
X-3600500Y-2317648D01*
X-16399500Y-2317648D01*
X-16431522Y-2115465D01*
X-16494781Y-1920776D01*
X-16587715Y-1738386D01*
X-16708028Y-1572786D01*
X-16852786Y-1428028D01*
X-17018386Y-1307715D01*
X-17200776Y-1214781D01*
X-17395465Y-1151522D01*
X-17573329Y-1123351D01*
X-17597648Y-1119500D01*
X-17802352Y-1119500D01*
X-17829995Y-1123878D01*
X-18004534Y-1151522D01*
X-18199223Y-1214781D01*
X-18324653Y-1278691D01*
X-18381610Y-1307713D01*
X-18381612Y-1307714D01*
X-18381613Y-1307715D01*
X-18547213Y-1428028D01*
X-18691971Y-1572786D01*
X-18770432Y-1680781D01*
X-18812287Y-1738390D01*
X-18836057Y-1785042D01*
X-18905218Y-1920776D01*
X-18905218Y-1920778D01*
X-18905220Y-1920781D01*
X-18922873Y-1975111D01*
X-18968477Y-2115465D01*
X-18980022Y-2188354D01*
X-19000500Y-2317648D01*
X-20354768Y-2317648D01*
X-20429416Y-2188354D01*
X-20593042Y-1975111D01*
X-20593048Y-1975104D01*
X-20783104Y-1785048D01*
X-20783111Y-1785042D01*
X-20996354Y-1621416D01*
X-21229133Y-1487019D01*
X-21229149Y-1487011D01*
X-21477475Y-1384152D01*
X-21682239Y-1329286D01*
X-21737109Y-1314584D01*
X-21737112Y-1314583D01*
X-21737119Y-1314582D01*
X-22003602Y-1279500D01*
X-22003603Y-1279500D01*
X-22272397Y-1279500D01*
X-22272398Y-1279500D01*
X-22538880Y-1314582D01*
X-22538885Y-1314583D01*
X-22538891Y-1314584D01*
X-22668708Y-1349368D01*
X-22798524Y-1384152D01*
X-23046850Y-1487011D01*
X-23046866Y-1487019D01*
X-23131761Y-1536034D01*
X-23279641Y-1621413D01*
X-23279644Y-1621415D01*
X-23279645Y-1621416D01*
X-23492888Y-1785042D01*
X-23492895Y-1785048D01*
X-23682951Y-1975104D01*
X-23682957Y-1975111D01*
X-23693070Y-1988291D01*
X-23846587Y-2188359D01*
X-23884584Y-2254172D01*
X-23980980Y-2421133D01*
X-23980988Y-2421149D01*
X-24017620Y-2509587D01*
X-24083847Y-2669474D01*
X-24153416Y-2929109D01*
X-24188500Y-3195603D01*
X-25081009Y-3195603D01*
X-25242195Y-2849937D01*
X-25242207Y-2849913D01*
X-25438695Y-2509587D01*
X-25438704Y-2509572D01*
X-25664115Y-2187652D01*
X-25916724Y-1886606D01*
X-26194607Y-1608724D01*
X-26194606Y-1608724D01*
X-26495652Y-1356115D01*
X-26817572Y-1130704D01*
X-26817587Y-1130695D01*
X-27157913Y-934207D01*
X-27157937Y-934195D01*
X-27514078Y-768124D01*
X-27522744Y-764969D01*
X-27588543Y-741020D01*
X-27644806Y-699595D01*
X-27669741Y-634327D01*
X-27655431Y-565938D01*
X-27606419Y-516143D01*
X-27546131Y-500500D01*
X-624500Y-500500D01*
X-557461Y-520185D01*
X-511706Y-572989D01*
X-500500Y-624500D01*
X-500500Y-41375500D01*
X-520185Y-41442539D01*
X-572989Y-41488294D01*
X-624500Y-41499500D01*
X-18695572Y-41499500D01*
X-18704417Y-41499184D01*
X-18723779Y-41497799D01*
X-18904557Y-41484869D01*
X-18922068Y-41482351D01*
X-19113787Y-41440646D01*
X-19130763Y-41435662D01*
X-19314609Y-41367090D01*
X-19330702Y-41359740D01*
X-19502908Y-41265709D01*
X-19517791Y-41256144D01*
X-19674864Y-41138561D01*
X-19688235Y-41126975D01*
X-19826975Y-40988235D01*
X-19838561Y-40974864D01*
X-19956144Y-40817791D01*
X-19965709Y-40802908D01*
X-20059740Y-40630702D01*
X-20067090Y-40614609D01*
X-20135662Y-40430763D01*
X-20140646Y-40413787D01*
X-20182351Y-40222068D01*
X-20184869Y-40204557D01*
X-20199184Y-40004419D01*
X-20199500Y-39995572D01*
X-20199500Y-39617648D01*
X-19000500Y-39617648D01*
X-19000500Y-39822352D01*
X-18968477Y-40024534D01*
X-18905220Y-40219219D01*
X-18812287Y-40401610D01*
X-18797140Y-40422458D01*
X-18691971Y-40567213D01*
X-18691968Y-40567215D01*
X-18691966Y-40567219D01*
X-18547219Y-40711966D01*
X-18547215Y-40711968D01*
X-18547213Y-40711971D01*
X-18501385Y-40745266D01*
X-18381610Y-40832287D01*
X-18199219Y-40925220D01*
X-18004534Y-40988477D01*
X-17802352Y-41020500D01*
X-17802351Y-41020500D01*
X-17597649Y-41020500D01*
X-17597648Y-41020500D01*
X-17468212Y-40999999D01*
X-17395465Y-40988477D01*
X-17305137Y-40959127D01*
X-17200781Y-40925220D01*
X-17200778Y-40925218D01*
X-17200776Y-40925218D01*
X-17134607Y-40891503D01*
X-17018390Y-40832287D01*
X-16977953Y-40802908D01*
X-16852786Y-40711971D01*
X-16708028Y-40567213D01*
X-16587715Y-40401613D01*
X-16574976Y-40376613D01*
X-16557839Y-40342980D01*
X-16494781Y-40219223D01*
X-16431522Y-40024534D01*
X-16399500Y-39822351D01*
X-16399500Y-39617647D01*
X-16399499Y-39617647D01*
X-16401159Y-39607173D01*
X-16403459Y-39592648D01*
X-3600500Y-39592648D01*
X-3600500Y-39797352D01*
X-3568477Y-39999534D01*
X-3505220Y-40194219D01*
X-3412287Y-40376610D01*
X-3344732Y-40469590D01*
X-3291971Y-40542213D01*
X-3291968Y-40542215D01*
X-3291966Y-40542219D01*
X-3147219Y-40686966D01*
X-3147215Y-40686968D01*
X-3147213Y-40686971D01*
X-3074590Y-40739732D01*
X-2981610Y-40807287D01*
X-2799219Y-40900220D01*
X-2604534Y-40963477D01*
X-2402352Y-40995500D01*
X-2402351Y-40995500D01*
X-2197649Y-40995500D01*
X-2197648Y-40995500D01*
X-2096557Y-40979488D01*
X-1995465Y-40963477D01*
X-1877717Y-40925218D01*
X-1800781Y-40900220D01*
X-1800778Y-40900218D01*
X-1800776Y-40900218D01*
X-1734607Y-40866503D01*
X-1618390Y-40807287D01*
X-1607749Y-40799556D01*
X-1452786Y-40686971D01*
X-1308028Y-40542213D01*
X-1187715Y-40376613D01*
X-1094781Y-40194223D01*
X-1031522Y-39999534D01*
X-1003460Y-39822351D01*
X-999500Y-39797352D01*
X-999500Y-39592648D01*
X-1000805Y-39584409D01*
X-1031522Y-39390465D01*
X-1094781Y-39195776D01*
X-1187715Y-39013386D01*
X-1308028Y-38847786D01*
X-1452786Y-38703028D01*
X-1618386Y-38582715D01*
X-1800776Y-38489781D01*
X-1995465Y-38426522D01*
X-2173329Y-38398351D01*
X-2197648Y-38394500D01*
X-2402352Y-38394500D01*
X-2429995Y-38398878D01*
X-2604534Y-38426522D01*
X-2799223Y-38489781D01*
X-2924653Y-38553691D01*
X-2981610Y-38582713D01*
X-2981612Y-38582714D01*
X-2981613Y-38582715D01*
X-3147213Y-38703028D01*
X-3291971Y-38847786D01*
X-3381126Y-38970500D01*
X-3412287Y-39013390D01*
X-3435401Y-39058754D01*
X-3505218Y-39195776D01*
X-3505218Y-39195778D01*
X-3505220Y-39195781D01*
X-3568477Y-39390466D01*
X-3600500Y-39592648D01*
X-16403459Y-39592648D01*
X-16431522Y-39415465D01*
X-16494781Y-39220776D01*
X-16587715Y-39038386D01*
X-16708028Y-38872786D01*
X-16852786Y-38728028D01*
X-17018386Y-38607715D01*
X-17200776Y-38514781D01*
X-17395465Y-38451522D01*
X-17573329Y-38423351D01*
X-17597648Y-38419500D01*
X-17802352Y-38419500D01*
X-17829995Y-38423878D01*
X-18004534Y-38451522D01*
X-18199223Y-38514781D01*
X-18324653Y-38578691D01*
X-18381610Y-38607713D01*
X-18381612Y-38607714D01*
X-18381613Y-38607715D01*
X-18547213Y-38728028D01*
X-18691971Y-38872786D01*
X-18777130Y-38990000D01*
X-18812287Y-39038390D01*
X-18871503Y-39154607D01*
X-18905218Y-39220776D01*
X-18968477Y-39415465D01*
X-18996540Y-39592648D01*
X-19000500Y-39617648D01*
X-20199500Y-39617648D01*
X-20199500Y-39584412D01*
X-20199500Y-39584409D01*
X-20238150Y-39154964D01*
X-20255610Y-39058754D01*
X-20315142Y-38730704D01*
X-20429847Y-38315080D01*
X-20429855Y-38315055D01*
X-20581354Y-37911386D01*
X-20581360Y-37911372D01*
X-20768436Y-37522906D01*
X-20768437Y-37522904D01*
X-20989599Y-37152743D01*
X-21243026Y-36803931D01*
X-21243039Y-36803914D01*
X-21526726Y-36479210D01*
X-21526730Y-36479205D01*
X-21838379Y-36181237D01*
X-21838392Y-36181225D01*
X-22175485Y-35912404D01*
X-22175498Y-35912394D01*
X-22535337Y-35674867D01*
X-22915044Y-35470537D01*
X-22915052Y-35470533D01*
X-23311519Y-35301076D01*
X-23311527Y-35301073D01*
X-23721608Y-35167830D01*
X-24141972Y-35071885D01*
X-24569253Y-35014006D01*
X-24569262Y-35014005D01*
X-24999997Y-34994661D01*
X-25000003Y-34994661D01*
X-25430737Y-35014005D01*
X-25430745Y-35014005D01*
X-25430747Y-35014006D01*
X-25644386Y-35042945D01*
X-25858027Y-35071885D01*
X-26278391Y-35167830D01*
X-26688472Y-35301073D01*
X-26688480Y-35301076D01*
X-27084947Y-35470533D01*
X-27084955Y-35470537D01*
X-27211523Y-35538647D01*
X-27464655Y-35674863D01*
X-27464661Y-35674867D01*
X-27464662Y-35674867D01*
X-27824501Y-35912394D01*
X-27824514Y-35912404D01*
X-28161607Y-36181225D01*
X-28161620Y-36181237D01*
X-28441823Y-36449140D01*
X-28473274Y-36479210D01*
X-28628621Y-36657019D01*
X-28756960Y-36803914D01*
X-28756973Y-36803931D01*
X-28885540Y-36980889D01*
X-29010407Y-37152753D01*
X-29207728Y-37483012D01*
X-29231562Y-37522904D01*
X-29231563Y-37522906D01*
X-29417211Y-37908408D01*
X-29418643Y-37911381D01*
X-29570149Y-38315069D01*
X-29684859Y-38730711D01*
X-29761850Y-39154964D01*
X-29800500Y-39584409D01*
X-29800500Y-39584416D01*
X-29800500Y-39995572D01*
X-29800816Y-40004418D01*
X-29815130Y-40204556D01*
X-29817647Y-40222063D01*
X-29859355Y-40413797D01*
X-29864334Y-40430755D01*
X-29905909Y-40542219D01*
X-29932909Y-40614609D01*
X-29940259Y-40630702D01*
X-30034290Y-40802908D01*
X-30043855Y-40817791D01*
X-30161438Y-40974864D01*
X-30173024Y-40988235D01*
X-30311764Y-41126975D01*
X-30325135Y-41138561D01*
X-30482208Y-41256144D01*
X-30497091Y-41265709D01*
X-30669297Y-41359740D01*
X-30685390Y-41367090D01*
X-30869236Y-41435662D01*
X-30886212Y-41440646D01*
X-31077931Y-41482351D01*
X-31095442Y-41484869D01*
X-31273622Y-41497613D01*
X-31295582Y-41499184D01*
X-31304428Y-41499500D01*
X-69993041Y-41499500D01*
X-70006922Y-41498720D01*
X-70032898Y-41495793D01*
X-70097266Y-41488541D01*
X-70124337Y-41482362D01*
X-70203535Y-41454649D01*
X-70228552Y-41442602D01*
X-70299604Y-41397957D01*
X-70321313Y-41380644D01*
X-70380644Y-41321313D01*
X-70397957Y-41299604D01*
X-70442602Y-41228552D01*
X-70454649Y-41203535D01*
X-70482362Y-41124337D01*
X-70488541Y-41097265D01*
X-70498720Y-41006923D01*
X-70499500Y-40993040D01*
X-70499500Y-38365603D01*
X-69050500Y-38365603D01*
X-69050500Y-38634397D01*
X-69015416Y-38900891D01*
X-68945847Y-39160526D01*
X-68842984Y-39408859D01*
X-68708587Y-39641641D01*
X-68544956Y-39854890D01*
X-68354890Y-40044956D01*
X-68141641Y-40208587D01*
X-67908859Y-40342984D01*
X-67908853Y-40342986D01*
X-67908850Y-40342988D01*
X-67847457Y-40368417D01*
X-67660526Y-40445847D01*
X-67400891Y-40515416D01*
X-67194905Y-40542534D01*
X-67134398Y-40550500D01*
X-67134397Y-40550500D01*
X-66865602Y-40550500D01*
X-66787319Y-40540193D01*
X-66599109Y-40515416D01*
X-66339474Y-40445847D01*
X-66232684Y-40401613D01*
X-66091149Y-40342988D01*
X-66091133Y-40342980D01*
X-66007968Y-40294964D01*
X-65858359Y-40208587D01*
X-65645110Y-40044956D01*
X-65645104Y-40044951D01*
X-65455048Y-39854895D01*
X-65455042Y-39854888D01*
X-65291416Y-39641645D01*
X-65291415Y-39641644D01*
X-65291413Y-39641641D01*
X-65237830Y-39548832D01*
X-65157019Y-39408866D01*
X-65157011Y-39408850D01*
X-65054152Y-39160524D01*
X-64993163Y-38932907D01*
X-64984585Y-38900893D01*
X-64984584Y-38900891D01*
X-64984583Y-38900885D01*
X-64984582Y-38900880D01*
X-64949500Y-38634397D01*
X-64949500Y-38365602D01*
X-64984582Y-38099119D01*
X-64984585Y-38099106D01*
X-64985255Y-38096607D01*
X-65034884Y-37911386D01*
X-65054152Y-37839475D01*
X-65157011Y-37591149D01*
X-65157016Y-37591140D01*
X-65196415Y-37522900D01*
X-65219445Y-37483011D01*
X-65219445Y-37483010D01*
X-65291416Y-37358354D01*
X-65455042Y-37145111D01*
X-65455048Y-37145104D01*
X-65645104Y-36955048D01*
X-65645111Y-36955042D01*
X-65858354Y-36791416D01*
X-66091133Y-36657019D01*
X-66091149Y-36657011D01*
X-66339475Y-36554152D01*
X-66554250Y-36496604D01*
X-66599109Y-36484584D01*
X-66599112Y-36484583D01*
X-66599119Y-36484582D01*
X-66865602Y-36449500D01*
X-66865603Y-36449500D01*
X-67134397Y-36449500D01*
X-67134398Y-36449500D01*
X-67400880Y-36484582D01*
X-67400885Y-36484583D01*
X-67400891Y-36484584D01*
X-67530708Y-36519368D01*
X-67660524Y-36554152D01*
X-67908850Y-36657011D01*
X-67908866Y-36657019D01*
X-68048832Y-36737830D01*
X-68141641Y-36791413D01*
X-68141644Y-36791415D01*
X-68141645Y-36791416D01*
X-68354888Y-36955042D01*
X-68354895Y-36955048D01*
X-68544951Y-37145104D01*
X-68544956Y-37145110D01*
X-68708587Y-37358359D01*
X-68794964Y-37507968D01*
X-68842980Y-37591133D01*
X-68842988Y-37591149D01*
X-68883565Y-37689111D01*
X-68945847Y-37839474D01*
X-69015416Y-38099109D01*
X-69015417Y-38099119D01*
X-69047918Y-38345994D01*
X-69050500Y-38365603D01*
X-70499500Y-38365603D01*
X-70499500Y-35890283D01*
X-70498600Y-35875369D01*
X-70486858Y-35778450D01*
X-70479738Y-35749492D01*
X-70447864Y-35665230D01*
X-70434038Y-35638813D01*
X-70382968Y-35564591D01*
X-70363232Y-35542234D01*
X-70295923Y-35482356D01*
X-70271421Y-35465359D01*
X-70191760Y-35423280D01*
X-70163912Y-35412624D01*
X-70069194Y-35388949D01*
X-70054518Y-35386209D01*
X-63879268Y-34614303D01*
X-63879268Y-34614304D01*
X-63814396Y-34606194D01*
X-63813884Y-34606131D01*
X-63813884Y-34606132D01*
X-63705999Y-34592727D01*
X-63496389Y-34534942D01*
X-63396843Y-34491244D01*
X-63297301Y-34447548D01*
X-63297291Y-34447542D01*
X-63112885Y-34332368D01*
X-63112884Y-34332367D01*
X-63112882Y-34332366D01*
X-62946995Y-34191807D01*
X-62807579Y-34033880D01*
X-59593500Y-34033880D01*
X-59593500Y-34296120D01*
X-59559270Y-34556116D01*
X-59491398Y-34809419D01*
X-59391043Y-35051697D01*
X-59259924Y-35278803D01*
X-59100282Y-35486851D01*
X-59100277Y-35486855D01*
X-59100274Y-35486860D01*
X-58914860Y-35672274D01*
X-58914855Y-35672277D01*
X-58914851Y-35672282D01*
X-58706803Y-35831924D01*
X-58479697Y-35963043D01*
X-58237419Y-36063398D01*
X-57984116Y-36131270D01*
X-57724120Y-36165500D01*
X-57724113Y-36165500D01*
X-57461887Y-36165500D01*
X-57461880Y-36165500D01*
X-57201884Y-36131270D01*
X-56948581Y-36063398D01*
X-56840902Y-36018796D01*
X-56706309Y-35963046D01*
X-56706299Y-35963041D01*
X-56479196Y-35831924D01*
X-56271148Y-35672281D01*
X-56271140Y-35672274D01*
X-56085726Y-35486860D01*
X-56085718Y-35486851D01*
X-55926075Y-35278803D01*
X-55794958Y-35051700D01*
X-55794954Y-35051690D01*
X-55726255Y-34885837D01*
X-52358500Y-34885837D01*
X-52358500Y-35114162D01*
X-52328895Y-35301076D01*
X-52322784Y-35339660D01*
X-52252231Y-35556799D01*
X-52252229Y-35556802D01*
X-52252229Y-35556803D01*
X-52248425Y-35564268D01*
X-52148579Y-35760228D01*
X-52014379Y-35944937D01*
X-51852937Y-36106379D01*
X-51765380Y-36169992D01*
X-51722717Y-36225319D01*
X-51716738Y-36294933D01*
X-51749343Y-36356728D01*
X-51765382Y-36370626D01*
X-51852610Y-36434001D01*
X-51915214Y-36496604D01*
X-50957999Y-37049252D01*
X-50976408Y-37059881D01*
X-51088119Y-37171592D01*
X-51167111Y-37308409D01*
X-51208000Y-37461009D01*
X-51208000Y-37482262D01*
X-52210920Y-36903227D01*
X-52210921Y-36903227D01*
X-52251768Y-36983393D01*
X-52322295Y-37200455D01*
X-52358000Y-37425883D01*
X-52358000Y-37654116D01*
X-52322295Y-37879544D01*
X-52251769Y-38096604D01*
X-52148150Y-38299966D01*
X-52013995Y-38484614D01*
X-51852614Y-38645995D01*
X-51667970Y-38780147D01*
X-51667962Y-38780152D01*
X-51625243Y-38801918D01*
X-51625242Y-38801918D01*
X-51098746Y-37890000D01*
X-51088119Y-37908408D01*
X-50976408Y-38020119D01*
X-50839591Y-38099111D01*
X-50686991Y-38140000D01*
X-50665736Y-38140000D01*
X-51145225Y-38970500D01*
X-51145224Y-38970501D01*
X-51022116Y-38990000D01*
X-50193884Y-38990000D01*
X-49968455Y-38954295D01*
X-49751395Y-38883769D01*
X-49548033Y-38780150D01*
X-49363389Y-38645998D01*
X-49300785Y-38583395D01*
X-50257999Y-38030746D01*
X-50239592Y-38020119D01*
X-50127881Y-37908408D01*
X-50048889Y-37771591D01*
X-50008000Y-37618991D01*
X-50008000Y-37597733D01*
X-49005077Y-38176771D01*
X-48964232Y-38096607D01*
X-48964230Y-38096604D01*
X-48893704Y-37879544D01*
X-48858000Y-37654116D01*
X-48858000Y-37425883D01*
X-48893704Y-37200455D01*
X-48964230Y-36983395D01*
X-49067849Y-36780033D01*
X-49202004Y-36595385D01*
X-49363386Y-36434003D01*
X-49450617Y-36370626D01*
X-49493283Y-36315295D01*
X-49499261Y-36245682D01*
X-49466655Y-36183887D01*
X-49450619Y-36169992D01*
X-49363063Y-36106379D01*
X-49201621Y-35944937D01*
X-49067421Y-35760228D01*
X-49061951Y-35749492D01*
X-48963770Y-35556803D01*
X-48893215Y-35339660D01*
X-48857500Y-35114162D01*
X-48857500Y-34885837D01*
X-48893215Y-34660339D01*
X-48963770Y-34443196D01*
X-49067421Y-34239771D01*
X-49201622Y-34055061D01*
X-49201624Y-34055059D01*
X-49285765Y-33970917D01*
X-49319250Y-33909594D01*
X-49314264Y-33839902D01*
X-49272395Y-33783971D01*
X-49258922Y-33773885D01*
X-49250454Y-33767546D01*
X-49250453Y-33767544D01*
X-49250452Y-33767544D01*
X-49164206Y-33652335D01*
X-49164202Y-33652328D01*
X-49113908Y-33517482D01*
X-49107501Y-33457883D01*
X-49107500Y-33457881D01*
X-49107500Y-33457873D01*
X-49107500Y-32498075D01*
X-49107500Y-31462129D01*
X-49107501Y-31462123D01*
X-49113908Y-31402518D01*
X-49127676Y-31365603D01*
X-27050500Y-31365603D01*
X-27050500Y-31634397D01*
X-27015416Y-31900891D01*
X-26945847Y-32160526D01*
X-26842984Y-32408859D01*
X-26708587Y-32641641D01*
X-26544956Y-32854890D01*
X-26354890Y-33044956D01*
X-26141641Y-33208587D01*
X-25908859Y-33342984D01*
X-25908853Y-33342986D01*
X-25908850Y-33342988D01*
X-25894753Y-33348827D01*
X-25660526Y-33445847D01*
X-25400891Y-33515416D01*
X-25194905Y-33542534D01*
X-25134398Y-33550500D01*
X-25134397Y-33550500D01*
X-24865602Y-33550500D01*
X-24787319Y-33540193D01*
X-24599109Y-33515416D01*
X-24339474Y-33445847D01*
X-24246008Y-33407132D01*
X-24091149Y-33342988D01*
X-24091133Y-33342980D01*
X-23979121Y-33278309D01*
X-23858359Y-33208587D01*
X-23739283Y-33117217D01*
X-23645111Y-33044957D01*
X-23645104Y-33044951D01*
X-23455048Y-32854895D01*
X-23455042Y-32854888D01*
X-23291416Y-32641645D01*
X-23291415Y-32641644D01*
X-23291413Y-32641641D01*
X-23237830Y-32548832D01*
X-23157019Y-32408866D01*
X-23157011Y-32408850D01*
X-23054152Y-32160524D01*
X-22984585Y-31900893D01*
X-22984584Y-31900891D01*
X-22984583Y-31900885D01*
X-22984582Y-31900880D01*
X-22949500Y-31634397D01*
X-22949500Y-31365602D01*
X-22984582Y-31099119D01*
X-22984585Y-31099106D01*
X-23054152Y-30839475D01*
X-23157011Y-30591149D01*
X-23157019Y-30591133D01*
X-23291416Y-30358354D01*
X-23455042Y-30145111D01*
X-23455048Y-30145104D01*
X-23645104Y-29955048D01*
X-23645111Y-29955042D01*
X-23858354Y-29791416D01*
X-24091133Y-29657019D01*
X-24091149Y-29657011D01*
X-24339475Y-29554152D01*
X-24544239Y-29499286D01*
X-24599109Y-29484584D01*
X-24599112Y-29484583D01*
X-24599119Y-29484582D01*
X-24865602Y-29449500D01*
X-24865603Y-29449500D01*
X-25134397Y-29449500D01*
X-25134398Y-29449500D01*
X-25400880Y-29484582D01*
X-25400885Y-29484583D01*
X-25400891Y-29484584D01*
X-25530708Y-29519368D01*
X-25660524Y-29554152D01*
X-25908850Y-29657011D01*
X-25908866Y-29657019D01*
X-26048832Y-29737830D01*
X-26141641Y-29791413D01*
X-26141644Y-29791415D01*
X-26141645Y-29791416D01*
X-26354888Y-29955042D01*
X-26354895Y-29955048D01*
X-26544951Y-30145104D01*
X-26544957Y-30145111D01*
X-26641084Y-30270387D01*
X-26708587Y-30358359D01*
X-26754154Y-30437284D01*
X-26842980Y-30591133D01*
X-26842988Y-30591149D01*
X-26876594Y-30672282D01*
X-26945847Y-30839474D01*
X-27015416Y-31099109D01*
X-27050500Y-31365603D01*
X-49127676Y-31365603D01*
X-49164202Y-31267671D01*
X-49164206Y-31267664D01*
X-49250452Y-31152455D01*
X-49250455Y-31152452D01*
X-49365664Y-31066206D01*
X-49365671Y-31066202D01*
X-49500517Y-31015908D01*
X-49500516Y-31015908D01*
X-49560116Y-31009501D01*
X-49560119Y-31009500D01*
X-49560127Y-31009500D01*
X-49560134Y-31009500D01*
X-49560135Y-31009500D01*
X-51655870Y-31009500D01*
X-51655876Y-31009501D01*
X-51715483Y-31015908D01*
X-51850328Y-31066202D01*
X-51850335Y-31066206D01*
X-51965544Y-31152452D01*
X-51965547Y-31152455D01*
X-52051793Y-31267664D01*
X-52051795Y-31267668D01*
X-52051796Y-31267669D01*
X-52102091Y-31402517D01*
X-52108500Y-31462127D01*
X-52108499Y-33457872D01*
X-52102091Y-33517483D01*
X-52051796Y-33652331D01*
X-51965546Y-33767546D01*
X-51943603Y-33783971D01*
X-51901734Y-33839901D01*
X-51896748Y-33909593D01*
X-51930230Y-33970914D01*
X-52014379Y-34055063D01*
X-52148579Y-34239772D01*
X-52177293Y-34296127D01*
X-52252229Y-34443196D01*
X-52252229Y-34443198D01*
X-52252231Y-34443201D01*
X-52287733Y-34552465D01*
X-52322784Y-34660339D01*
X-52358500Y-34885837D01*
X-55726255Y-34885837D01*
X-55704584Y-34833518D01*
X-55694605Y-34809428D01*
X-55694602Y-34809418D01*
X-55654657Y-34660340D01*
X-55626730Y-34556116D01*
X-55612436Y-34447546D01*
X-55592500Y-34296127D01*
X-55592500Y-34033872D01*
X-55626730Y-33773885D01*
X-55628429Y-33767546D01*
X-55694602Y-33520581D01*
X-55694605Y-33520571D01*
X-55794953Y-33278309D01*
X-55794958Y-33278299D01*
X-55926075Y-33051196D01*
X-56085718Y-32843148D01*
X-56271148Y-32657718D01*
X-56479196Y-32498075D01*
X-56706299Y-32366958D01*
X-56706309Y-32366953D01*
X-56948571Y-32266605D01*
X-56948581Y-32266602D01*
X-57201884Y-32198730D01*
X-57230772Y-32194926D01*
X-57461872Y-32164500D01*
X-57461880Y-32164500D01*
X-57724120Y-32164500D01*
X-57724127Y-32164500D01*
X-57926339Y-32191123D01*
X-57984116Y-32198730D01*
X-58237419Y-32266602D01*
X-58237421Y-32266603D01*
X-58237428Y-32266605D01*
X-58479690Y-32366953D01*
X-58479700Y-32366958D01*
X-58706803Y-32498075D01*
X-58914851Y-32657718D01*
X-58914860Y-32657726D01*
X-59100274Y-32843140D01*
X-59100281Y-32843148D01*
X-59259924Y-33051196D01*
X-59391041Y-33278299D01*
X-59391046Y-33278309D01*
X-59465425Y-33457876D01*
X-59491398Y-33520581D01*
X-59559270Y-33773884D01*
X-59593500Y-34033880D01*
X-62807579Y-34033880D01*
X-62803099Y-34028805D01*
X-62684202Y-33846764D01*
X-62684200Y-33846761D01*
X-62684199Y-33846759D01*
X-62592785Y-33649485D01*
X-62592782Y-33649476D01*
X-62530764Y-33441107D01*
X-62530759Y-33441087D01*
X-62499419Y-33225935D01*
X-62499500Y-33117219D01*
X-62499500Y-29033880D01*
X-59593500Y-29033880D01*
X-59593500Y-29296120D01*
X-59559270Y-29556116D01*
X-59491398Y-29809419D01*
X-59391043Y-30051697D01*
X-59259924Y-30278803D01*
X-59100282Y-30486851D01*
X-59100277Y-30486855D01*
X-59100274Y-30486860D01*
X-58914860Y-30672274D01*
X-58914855Y-30672277D01*
X-58914851Y-30672282D01*
X-58706803Y-30831924D01*
X-58479697Y-30963043D01*
X-58237419Y-31063398D01*
X-57984116Y-31131270D01*
X-57724120Y-31165500D01*
X-57724113Y-31165500D01*
X-57461887Y-31165500D01*
X-57461880Y-31165500D01*
X-57201884Y-31131270D01*
X-56948581Y-31063398D01*
X-56948571Y-31063394D01*
X-56706309Y-30963046D01*
X-56706299Y-30963041D01*
X-56479196Y-30831924D01*
X-56271148Y-30672281D01*
X-56271140Y-30672274D01*
X-56085726Y-30486860D01*
X-56085718Y-30486851D01*
X-55926075Y-30278803D01*
X-55794958Y-30051700D01*
X-55794953Y-30051690D01*
X-55694605Y-29809428D01*
X-55694602Y-29809418D01*
X-55689778Y-29791416D01*
X-55626730Y-29556116D01*
X-55619123Y-29498339D01*
X-55592500Y-29296127D01*
X-55592500Y-29222648D01*
X-51908500Y-29222648D01*
X-51908500Y-29427352D01*
X-51876477Y-29629534D01*
X-51813220Y-29824219D01*
X-51720287Y-30006610D01*
X-51687527Y-30051700D01*
X-51599971Y-30172213D01*
X-51599968Y-30172215D01*
X-51599966Y-30172219D01*
X-51455219Y-30316966D01*
X-51455215Y-30316968D01*
X-51455213Y-30316971D01*
X-51398253Y-30358354D01*
X-51289610Y-30437287D01*
X-51107219Y-30530220D01*
X-50912534Y-30593477D01*
X-50710352Y-30625500D01*
X-50710351Y-30625500D01*
X-50505649Y-30625500D01*
X-50505648Y-30625500D01*
X-50404557Y-30609488D01*
X-50303465Y-30593477D01*
X-50213137Y-30564127D01*
X-50108781Y-30530220D01*
X-50108778Y-30530218D01*
X-50108776Y-30530218D01*
X-50042607Y-30496503D01*
X-49926390Y-30437287D01*
X-49915749Y-30429556D01*
X-49760786Y-30316971D01*
X-49616028Y-30172213D01*
X-49495715Y-30006613D01*
X-49402781Y-29824223D01*
X-49339522Y-29629534D01*
X-49307500Y-29427351D01*
X-49307500Y-29222648D01*
X-49339522Y-29020465D01*
X-49402781Y-28825776D01*
X-49495715Y-28643386D01*
X-49616028Y-28477786D01*
X-49760786Y-28333028D01*
X-49926386Y-28212715D01*
X-50108776Y-28119781D01*
X-50303465Y-28056522D01*
X-50481329Y-28028351D01*
X-50505648Y-28024500D01*
X-50710352Y-28024500D01*
X-50737995Y-28028878D01*
X-50912534Y-28056522D01*
X-51107223Y-28119781D01*
X-51232653Y-28183691D01*
X-51289610Y-28212713D01*
X-51289612Y-28212714D01*
X-51289613Y-28212715D01*
X-51455213Y-28333028D01*
X-51599971Y-28477786D01*
X-51712556Y-28632749D01*
X-51720287Y-28643390D01*
X-51779503Y-28759607D01*
X-51813218Y-28825776D01*
X-51813218Y-28825778D01*
X-51813220Y-28825781D01*
X-51876477Y-29020466D01*
X-51908500Y-29222648D01*
X-55592500Y-29222648D01*
X-55592500Y-29033872D01*
X-55626730Y-28773885D01*
X-55694602Y-28520581D01*
X-55694605Y-28520571D01*
X-55794953Y-28278309D01*
X-55794958Y-28278299D01*
X-55926075Y-28051196D01*
X-56085718Y-27843148D01*
X-56271148Y-27657718D01*
X-56479196Y-27498075D01*
X-56706299Y-27366958D01*
X-56706309Y-27366953D01*
X-56948571Y-27266605D01*
X-56948581Y-27266602D01*
X-56964696Y-27262284D01*
X-57201884Y-27198730D01*
X-57230772Y-27194926D01*
X-57461872Y-27164500D01*
X-57461880Y-27164500D01*
X-57724120Y-27164500D01*
X-57724127Y-27164500D01*
X-57926339Y-27191123D01*
X-57984116Y-27198730D01*
X-58237419Y-27266602D01*
X-58237421Y-27266603D01*
X-58237428Y-27266605D01*
X-58479690Y-27366953D01*
X-58479700Y-27366958D01*
X-58706803Y-27498075D01*
X-58914851Y-27657718D01*
X-58914860Y-27657726D01*
X-59100274Y-27843140D01*
X-59100281Y-27843148D01*
X-59259924Y-28051196D01*
X-59391041Y-28278299D01*
X-59391046Y-28278309D01*
X-59473670Y-28477781D01*
X-59491398Y-28520581D01*
X-59559270Y-28773884D01*
X-59593500Y-29033880D01*
X-62499500Y-29033880D01*
X-62499500Y-24033880D01*
X-59593500Y-24033880D01*
X-59593500Y-24296120D01*
X-59559270Y-24556116D01*
X-59491398Y-24809419D01*
X-59391043Y-25051697D01*
X-59259924Y-25278803D01*
X-59100282Y-25486851D01*
X-59100277Y-25486855D01*
X-59100274Y-25486860D01*
X-58914860Y-25672274D01*
X-58914855Y-25672277D01*
X-58914851Y-25672282D01*
X-58706803Y-25831924D01*
X-58479697Y-25963043D01*
X-58237419Y-26063398D01*
X-57984116Y-26131270D01*
X-57724120Y-26165500D01*
X-57724113Y-26165500D01*
X-57461887Y-26165500D01*
X-57461880Y-26165500D01*
X-57201884Y-26131270D01*
X-56948581Y-26063398D01*
X-56910557Y-26047648D01*
X-47463500Y-26047648D01*
X-47463500Y-26252352D01*
X-47431477Y-26454534D01*
X-47368220Y-26649219D01*
X-47275287Y-26831610D01*
X-47220728Y-26906705D01*
X-47154971Y-26997213D01*
X-47154968Y-26997215D01*
X-47154966Y-26997219D01*
X-47010219Y-27141966D01*
X-47010215Y-27141968D01*
X-47010213Y-27141971D01*
X-46937590Y-27194732D01*
X-46844610Y-27262287D01*
X-46662219Y-27355220D01*
X-46467534Y-27418477D01*
X-46265352Y-27450500D01*
X-46265351Y-27450500D01*
X-46060649Y-27450500D01*
X-46060648Y-27450500D01*
X-45959557Y-27434488D01*
X-45858465Y-27418477D01*
X-45768137Y-27389127D01*
X-45663781Y-27355220D01*
X-45663778Y-27355218D01*
X-45663776Y-27355218D01*
X-45597607Y-27321503D01*
X-45481390Y-27262287D01*
X-45470749Y-27254556D01*
X-45315786Y-27141971D01*
X-45171028Y-26997213D01*
X-45050715Y-26831613D01*
X-44957781Y-26649223D01*
X-44894522Y-26454534D01*
X-44862500Y-26252351D01*
X-44862500Y-26047644D01*
X-44863746Y-26039778D01*
X-40070500Y-26039778D01*
X-40070500Y-26260222D01*
X-40036015Y-26477951D01*
X-39967895Y-26687606D01*
X-39867815Y-26884022D01*
X-39738242Y-27062365D01*
X-39582365Y-27218242D01*
X-39404022Y-27347815D01*
X-39207606Y-27447895D01*
X-38997951Y-27516015D01*
X-38780222Y-27550500D01*
X-38780221Y-27550500D01*
X-38559779Y-27550500D01*
X-38559778Y-27550500D01*
X-38342049Y-27516015D01*
X-38237221Y-27481955D01*
X-38132396Y-27447896D01*
X-38132393Y-27447895D01*
X-38064375Y-27413237D01*
X-37935978Y-27347815D01*
X-37818258Y-27262287D01*
X-37757641Y-27218247D01*
X-37757636Y-27218243D01*
X-37601756Y-27062363D01*
X-37601752Y-27062358D01*
X-37500318Y-26922745D01*
X-37444989Y-26880079D01*
X-37375375Y-26874100D01*
X-37313580Y-26906705D01*
X-37299682Y-26922745D01*
X-37245573Y-26997219D01*
X-37198242Y-27062365D01*
X-37042365Y-27218242D01*
X-36864022Y-27347815D01*
X-36667606Y-27447895D01*
X-36457951Y-27516015D01*
X-36240222Y-27550500D01*
X-36240221Y-27550500D01*
X-36019779Y-27550500D01*
X-36019778Y-27550500D01*
X-35802049Y-27516015D01*
X-35697221Y-27481955D01*
X-35592396Y-27447896D01*
X-35592393Y-27447895D01*
X-35524375Y-27413237D01*
X-35395978Y-27347815D01*
X-35278258Y-27262287D01*
X-35217641Y-27218247D01*
X-35217636Y-27218243D01*
X-35061756Y-27062363D01*
X-35061752Y-27062358D01*
X-34960318Y-26922745D01*
X-34904989Y-26880079D01*
X-34835375Y-26874100D01*
X-34773580Y-26906705D01*
X-34759682Y-26922745D01*
X-34705573Y-26997219D01*
X-34658242Y-27062365D01*
X-34502365Y-27218242D01*
X-34324022Y-27347815D01*
X-34127606Y-27447895D01*
X-33917951Y-27516015D01*
X-33700222Y-27550500D01*
X-33700221Y-27550500D01*
X-33479779Y-27550500D01*
X-33479778Y-27550500D01*
X-33262049Y-27516015D01*
X-33157221Y-27481955D01*
X-33052396Y-27447896D01*
X-33052393Y-27447895D01*
X-32984375Y-27413237D01*
X-32855978Y-27347815D01*
X-32738258Y-27262287D01*
X-32677641Y-27218247D01*
X-32677636Y-27218243D01*
X-32521756Y-27062363D01*
X-32521752Y-27062358D01*
X-32420318Y-26922745D01*
X-32364989Y-26880079D01*
X-32295375Y-26874100D01*
X-32233580Y-26906705D01*
X-32219682Y-26922745D01*
X-32165573Y-26997219D01*
X-32118242Y-27062365D01*
X-31962365Y-27218242D01*
X-31784022Y-27347815D01*
X-31587606Y-27447895D01*
X-31377951Y-27516015D01*
X-31160222Y-27550500D01*
X-31160221Y-27550500D01*
X-30939779Y-27550500D01*
X-30939778Y-27550500D01*
X-30722049Y-27516015D01*
X-30617221Y-27481955D01*
X-30512396Y-27447896D01*
X-30512393Y-27447895D01*
X-30444375Y-27413237D01*
X-30315978Y-27347815D01*
X-30198258Y-27262287D01*
X-30137641Y-27218247D01*
X-30137636Y-27218243D01*
X-29981756Y-27062363D01*
X-29981752Y-27062358D01*
X-29880318Y-26922745D01*
X-29824989Y-26880079D01*
X-29755375Y-26874100D01*
X-29693580Y-26906705D01*
X-29679682Y-26922745D01*
X-29625573Y-26997219D01*
X-29578242Y-27062365D01*
X-29422365Y-27218242D01*
X-29244022Y-27347815D01*
X-29047606Y-27447895D01*
X-28837951Y-27516015D01*
X-28620222Y-27550500D01*
X-28620221Y-27550500D01*
X-28399779Y-27550500D01*
X-28399778Y-27550500D01*
X-28182049Y-27516015D01*
X-28077221Y-27481955D01*
X-27972396Y-27447896D01*
X-27972393Y-27447895D01*
X-27904375Y-27413237D01*
X-27775978Y-27347815D01*
X-27658258Y-27262287D01*
X-27597641Y-27218247D01*
X-27597636Y-27218243D01*
X-27441756Y-27062363D01*
X-27441752Y-27062358D01*
X-27340318Y-26922745D01*
X-27284989Y-26880079D01*
X-27215375Y-26874100D01*
X-27153580Y-26906705D01*
X-27139682Y-26922745D01*
X-27085573Y-26997219D01*
X-27038242Y-27062365D01*
X-26882365Y-27218242D01*
X-26704022Y-27347815D01*
X-26507606Y-27447895D01*
X-26297951Y-27516015D01*
X-26080222Y-27550500D01*
X-26080221Y-27550500D01*
X-25859779Y-27550500D01*
X-25859778Y-27550500D01*
X-25642049Y-27516015D01*
X-25537221Y-27481955D01*
X-25432396Y-27447896D01*
X-25432393Y-27447895D01*
X-25364375Y-27413237D01*
X-25235978Y-27347815D01*
X-25118258Y-27262287D01*
X-25057641Y-27218247D01*
X-25057636Y-27218243D01*
X-24901756Y-27062363D01*
X-24901752Y-27062358D01*
X-24800318Y-26922745D01*
X-24744989Y-26880079D01*
X-24675375Y-26874100D01*
X-24613580Y-26906705D01*
X-24599682Y-26922745D01*
X-24545573Y-26997219D01*
X-24498242Y-27062365D01*
X-24342365Y-27218242D01*
X-24164022Y-27347815D01*
X-23967606Y-27447895D01*
X-23757951Y-27516015D01*
X-23540222Y-27550500D01*
X-23540221Y-27550500D01*
X-23319779Y-27550500D01*
X-23319778Y-27550500D01*
X-23102049Y-27516015D01*
X-22997221Y-27481955D01*
X-22892396Y-27447896D01*
X-22892393Y-27447895D01*
X-22824375Y-27413237D01*
X-22695978Y-27347815D01*
X-22578258Y-27262287D01*
X-22517641Y-27218247D01*
X-22517636Y-27218243D01*
X-22361756Y-27062363D01*
X-22361752Y-27062358D01*
X-22232187Y-26884025D01*
X-22227129Y-26874100D01*
X-22200122Y-26821096D01*
X-22132104Y-26687606D01*
X-22132103Y-26687603D01*
X-22063985Y-26477952D01*
X-22029500Y-26260221D01*
X-22029500Y-26039778D01*
X-22056057Y-25872102D01*
X-22063985Y-25822047D01*
X-22132103Y-25612396D01*
X-22132104Y-25612393D01*
X-22232187Y-25415974D01*
X-22361752Y-25237641D01*
X-22361756Y-25237636D01*
X-22517636Y-25081756D01*
X-22517641Y-25081752D01*
X-22695974Y-24952187D01*
X-22831169Y-24883301D01*
X-22831171Y-24883298D01*
X-22892383Y-24852109D01*
X-22892396Y-24852103D01*
X-23102047Y-24783985D01*
X-23247201Y-24760995D01*
X-23319778Y-24749500D01*
X-23540222Y-24749500D01*
X-23649086Y-24766742D01*
X-23757952Y-24783985D01*
X-23967603Y-24852103D01*
X-23967606Y-24852104D01*
X-24101096Y-24920122D01*
X-24164022Y-24952185D01*
X-24164024Y-24952186D01*
X-24164025Y-24952187D01*
X-24342358Y-25081752D01*
X-24342363Y-25081756D01*
X-24498243Y-25237636D01*
X-24498247Y-25237641D01*
X-24599682Y-25377254D01*
X-24655012Y-25419920D01*
X-24724625Y-25425899D01*
X-24786420Y-25393293D01*
X-24800318Y-25377254D01*
X-24901752Y-25237641D01*
X-24901756Y-25237636D01*
X-25057636Y-25081756D01*
X-25057641Y-25081752D01*
X-25235974Y-24952187D01*
X-25432393Y-24852104D01*
X-25432396Y-24852103D01*
X-25642047Y-24783985D01*
X-25787201Y-24760995D01*
X-25859778Y-24749500D01*
X-26080222Y-24749500D01*
X-26189086Y-24766742D01*
X-26297952Y-24783985D01*
X-26507603Y-24852103D01*
X-26507606Y-24852104D01*
X-26641096Y-24920122D01*
X-26704022Y-24952185D01*
X-26704024Y-24952186D01*
X-26704025Y-24952187D01*
X-26882358Y-25081752D01*
X-26882363Y-25081756D01*
X-27038243Y-25237636D01*
X-27038247Y-25237641D01*
X-27139682Y-25377254D01*
X-27195012Y-25419920D01*
X-27264625Y-25425899D01*
X-27326420Y-25393293D01*
X-27340318Y-25377254D01*
X-27441752Y-25237641D01*
X-27441756Y-25237636D01*
X-27597636Y-25081756D01*
X-27597641Y-25081752D01*
X-27775974Y-24952187D01*
X-27972393Y-24852104D01*
X-27972396Y-24852103D01*
X-28182047Y-24783985D01*
X-28327201Y-24760995D01*
X-28399778Y-24749500D01*
X-28620222Y-24749500D01*
X-28729086Y-24766742D01*
X-28837952Y-24783985D01*
X-29047603Y-24852103D01*
X-29047606Y-24852104D01*
X-29181096Y-24920122D01*
X-29244022Y-24952185D01*
X-29244024Y-24952186D01*
X-29244025Y-24952187D01*
X-29422358Y-25081752D01*
X-29422363Y-25081756D01*
X-29578243Y-25237636D01*
X-29578247Y-25237641D01*
X-29679682Y-25377254D01*
X-29735012Y-25419920D01*
X-29804625Y-25425899D01*
X-29866420Y-25393293D01*
X-29880318Y-25377254D01*
X-29981752Y-25237641D01*
X-29981756Y-25237636D01*
X-30137636Y-25081756D01*
X-30137641Y-25081752D01*
X-30315974Y-24952187D01*
X-30512393Y-24852104D01*
X-30512396Y-24852103D01*
X-30722047Y-24783985D01*
X-30867201Y-24760995D01*
X-30939778Y-24749500D01*
X-31160222Y-24749500D01*
X-31269086Y-24766742D01*
X-31377952Y-24783985D01*
X-31587603Y-24852103D01*
X-31587606Y-24852104D01*
X-31721096Y-24920122D01*
X-31784022Y-24952185D01*
X-31784024Y-24952186D01*
X-31784025Y-24952187D01*
X-31962358Y-25081752D01*
X-31962363Y-25081756D01*
X-32118243Y-25237636D01*
X-32118247Y-25237641D01*
X-32219682Y-25377254D01*
X-32275012Y-25419920D01*
X-32344625Y-25425899D01*
X-32406420Y-25393293D01*
X-32420318Y-25377254D01*
X-32521752Y-25237641D01*
X-32521756Y-25237636D01*
X-32677636Y-25081756D01*
X-32677641Y-25081752D01*
X-32855974Y-24952187D01*
X-33052393Y-24852104D01*
X-33052396Y-24852103D01*
X-33262047Y-24783985D01*
X-33407201Y-24760995D01*
X-33479778Y-24749500D01*
X-33700222Y-24749500D01*
X-33809086Y-24766742D01*
X-33917952Y-24783985D01*
X-34127603Y-24852103D01*
X-34127606Y-24852104D01*
X-34261096Y-24920122D01*
X-34324022Y-24952185D01*
X-34324024Y-24952186D01*
X-34324025Y-24952187D01*
X-34502358Y-25081752D01*
X-34502363Y-25081756D01*
X-34658243Y-25237636D01*
X-34658247Y-25237641D01*
X-34759682Y-25377254D01*
X-34815012Y-25419920D01*
X-34884625Y-25425899D01*
X-34946420Y-25393293D01*
X-34960318Y-25377254D01*
X-35061752Y-25237641D01*
X-35061756Y-25237636D01*
X-35217636Y-25081756D01*
X-35217641Y-25081752D01*
X-35395974Y-24952187D01*
X-35592393Y-24852104D01*
X-35592396Y-24852103D01*
X-35802047Y-24783985D01*
X-35947201Y-24760995D01*
X-36019778Y-24749500D01*
X-36240222Y-24749500D01*
X-36349086Y-24766742D01*
X-36457952Y-24783985D01*
X-36667603Y-24852103D01*
X-36667606Y-24852104D01*
X-36801096Y-24920122D01*
X-36864022Y-24952185D01*
X-36864024Y-24952186D01*
X-36864025Y-24952187D01*
X-37042358Y-25081752D01*
X-37042363Y-25081756D01*
X-37198243Y-25237636D01*
X-37198247Y-25237641D01*
X-37299682Y-25377254D01*
X-37355012Y-25419920D01*
X-37424625Y-25425899D01*
X-37486420Y-25393293D01*
X-37500318Y-25377254D01*
X-37601752Y-25237641D01*
X-37601756Y-25237636D01*
X-37757636Y-25081756D01*
X-37757641Y-25081752D01*
X-37935974Y-24952187D01*
X-38132393Y-24852104D01*
X-38132396Y-24852103D01*
X-38342047Y-24783985D01*
X-38487201Y-24760995D01*
X-38559778Y-24749500D01*
X-38780222Y-24749500D01*
X-38889086Y-24766742D01*
X-38997952Y-24783985D01*
X-39207603Y-24852103D01*
X-39207606Y-24852104D01*
X-39341096Y-24920122D01*
X-39404022Y-24952185D01*
X-39404024Y-24952186D01*
X-39404025Y-24952187D01*
X-39582358Y-25081752D01*
X-39582363Y-25081756D01*
X-39738243Y-25237636D01*
X-39738247Y-25237641D01*
X-39769022Y-25280000D01*
X-39867815Y-25415978D01*
X-39933237Y-25544375D01*
X-39967895Y-25612393D01*
X-39967896Y-25612396D01*
X-39992406Y-25687831D01*
X-40036015Y-25822049D01*
X-40070500Y-26039778D01*
X-44863746Y-26039778D01*
X-44894522Y-25845465D01*
X-44957781Y-25650776D01*
X-45050715Y-25468386D01*
X-45171028Y-25302786D01*
X-45315786Y-25158028D01*
X-45481386Y-25037715D01*
X-45663776Y-24944781D01*
X-45858465Y-24881522D01*
X-46044201Y-24852105D01*
X-46060648Y-24849500D01*
X-46265352Y-24849500D01*
X-46281799Y-24852105D01*
X-46467534Y-24881522D01*
X-46662223Y-24944781D01*
X-46787653Y-25008691D01*
X-46844610Y-25037713D01*
X-46844612Y-25037714D01*
X-46844613Y-25037715D01*
X-47010213Y-25158028D01*
X-47154971Y-25302786D01*
X-47237205Y-25415974D01*
X-47275287Y-25468390D01*
X-47322657Y-25561359D01*
X-47368218Y-25650776D01*
X-47368218Y-25650778D01*
X-47368220Y-25650781D01*
X-47402127Y-25755137D01*
X-47431477Y-25845465D01*
X-47463499Y-26047644D01*
X-47463500Y-26047648D01*
X-56910557Y-26047648D01*
X-56706309Y-25963046D01*
X-56706306Y-25963044D01*
X-56706303Y-25963043D01*
X-56658401Y-25935387D01*
X-56479196Y-25831924D01*
X-56271148Y-25672281D01*
X-56271140Y-25672274D01*
X-56085726Y-25486860D01*
X-56085718Y-25486851D01*
X-55926075Y-25278803D01*
X-55794958Y-25051700D01*
X-55794953Y-25051690D01*
X-55694605Y-24809428D01*
X-55694602Y-24809418D01*
X-55678547Y-24749500D01*
X-55626730Y-24556116D01*
X-55616709Y-24480000D01*
X-55592500Y-24296127D01*
X-55592500Y-24033872D01*
X-55626730Y-23773885D01*
X-55671051Y-23608477D01*
X-55694602Y-23520581D01*
X-55694605Y-23520571D01*
X-55794953Y-23278309D01*
X-55794958Y-23278299D01*
X-55926075Y-23051196D01*
X-56085718Y-22843148D01*
X-56271148Y-22657718D01*
X-56479196Y-22498075D01*
X-56706299Y-22366958D01*
X-56706309Y-22366953D01*
X-56948571Y-22266605D01*
X-56948581Y-22266602D01*
X-57201884Y-22198730D01*
X-57230772Y-22194926D01*
X-57461872Y-22164500D01*
X-57461880Y-22164500D01*
X-57724120Y-22164500D01*
X-57724127Y-22164500D01*
X-57926339Y-22191123D01*
X-57984116Y-22198730D01*
X-58237419Y-22266602D01*
X-58237421Y-22266603D01*
X-58237428Y-22266605D01*
X-58479690Y-22366953D01*
X-58479700Y-22366958D01*
X-58706803Y-22498075D01*
X-58914851Y-22657718D01*
X-58914860Y-22657726D01*
X-59100274Y-22843140D01*
X-59100281Y-22843148D01*
X-59259924Y-23051196D01*
X-59391041Y-23278299D01*
X-59391046Y-23278309D01*
X-59463109Y-23452286D01*
X-59491398Y-23520581D01*
X-59559270Y-23773884D01*
X-59593500Y-24033880D01*
X-62499500Y-24033880D01*
X-62499500Y-17617172D01*
X-59593000Y-17617172D01*
X-59593000Y-18915000D01*
X-58301241Y-18915000D01*
X-58314178Y-18946233D01*
X-58343000Y-19091131D01*
X-58343000Y-19238869D01*
X-58314178Y-19383767D01*
X-58301241Y-19415000D01*
X-59593000Y-19415000D01*
X-59593000Y-20712827D01*
X-59592999Y-20712844D01*
X-59586598Y-20772372D01*
X-59586596Y-20772379D01*
X-59536354Y-20907086D01*
X-59536350Y-20907093D01*
X-59450190Y-21022187D01*
X-59450187Y-21022190D01*
X-59335093Y-21108350D01*
X-59335086Y-21108354D01*
X-59200379Y-21158596D01*
X-59200372Y-21158598D01*
X-59140844Y-21164999D01*
X-59140828Y-21165000D01*
X-57843000Y-21165000D01*
X-57843000Y-19873240D01*
X-57811767Y-19886178D01*
X-57666869Y-19915000D01*
X-57519131Y-19915000D01*
X-57374233Y-19886178D01*
X-57343000Y-19873240D01*
X-57343000Y-21165000D01*
X-56045172Y-21165000D01*
X-56045155Y-21164999D01*
X-55985627Y-21158598D01*
X-55985620Y-21158596D01*
X-55850913Y-21108354D01*
X-55850906Y-21108350D01*
X-55735812Y-21022190D01*
X-55735809Y-21022187D01*
X-55649649Y-20907093D01*
X-55649645Y-20907086D01*
X-55599403Y-20772379D01*
X-55599401Y-20772372D01*
X-55593000Y-20712844D01*
X-55593000Y-19722648D01*
X-51908500Y-19722648D01*
X-51908500Y-19927352D01*
X-51876477Y-20129534D01*
X-51813220Y-20324219D01*
X-51720287Y-20506610D01*
X-51652732Y-20599590D01*
X-51599971Y-20672213D01*
X-51599968Y-20672215D01*
X-51599966Y-20672219D01*
X-51455219Y-20816966D01*
X-51455215Y-20816968D01*
X-51455213Y-20816971D01*
X-51382590Y-20869732D01*
X-51289610Y-20937287D01*
X-51107219Y-21030220D01*
X-50912534Y-21093477D01*
X-50710352Y-21125500D01*
X-50710351Y-21125500D01*
X-50505649Y-21125500D01*
X-50505648Y-21125500D01*
X-50397369Y-21108350D01*
X-50303465Y-21093477D01*
X-50213137Y-21064127D01*
X-50108781Y-21030220D01*
X-50108778Y-21030218D01*
X-50108776Y-21030218D01*
X-50042607Y-20996503D01*
X-49926390Y-20937287D01*
X-49884831Y-20907093D01*
X-49760786Y-20816971D01*
X-49616028Y-20672213D01*
X-49495715Y-20506613D01*
X-49482976Y-20481613D01*
X-49466691Y-20449653D01*
X-49402781Y-20324223D01*
X-49339522Y-20129534D01*
X-49307500Y-19927351D01*
X-49307500Y-19722648D01*
X-49339522Y-19520465D01*
X-49402781Y-19325776D01*
X-49495715Y-19143386D01*
X-49616028Y-18977786D01*
X-49760786Y-18833028D01*
X-49926386Y-18712715D01*
X-50108776Y-18619781D01*
X-50303465Y-18556522D01*
X-50481329Y-18528351D01*
X-50505648Y-18524500D01*
X-50710352Y-18524500D01*
X-50735461Y-18528477D01*
X-50912534Y-18556522D01*
X-51107223Y-18619781D01*
X-51232653Y-18683691D01*
X-51289610Y-18712713D01*
X-51289612Y-18712714D01*
X-51289613Y-18712715D01*
X-51455213Y-18833028D01*
X-51599971Y-18977786D01*
X-51682319Y-19091131D01*
X-51720287Y-19143390D01*
X-51768936Y-19238869D01*
X-51813218Y-19325776D01*
X-51876409Y-19520258D01*
X-51876477Y-19520466D01*
X-51908500Y-19722648D01*
X-55593000Y-19722648D01*
X-55593000Y-19415000D01*
X-56884759Y-19415000D01*
X-56871822Y-19383767D01*
X-56843000Y-19238869D01*
X-56843000Y-19091131D01*
X-56871822Y-18946233D01*
X-56884759Y-18915000D01*
X-55593000Y-18915000D01*
X-55593000Y-17617155D01*
X-55599401Y-17557627D01*
X-55599403Y-17557620D01*
X-55649645Y-17422913D01*
X-55649649Y-17422906D01*
X-55735809Y-17307812D01*
X-55735812Y-17307809D01*
X-55850906Y-17221649D01*
X-55850913Y-17221645D01*
X-55985620Y-17171403D01*
X-55985627Y-17171401D01*
X-56045155Y-17165000D01*
X-57343000Y-17165000D01*
X-57343000Y-18456759D01*
X-57374233Y-18443822D01*
X-57519131Y-18415000D01*
X-57666869Y-18415000D01*
X-57811767Y-18443822D01*
X-57843000Y-18456759D01*
X-57843000Y-17165000D01*
X-59140844Y-17165000D01*
X-59200372Y-17171401D01*
X-59200379Y-17171403D01*
X-59335086Y-17221645D01*
X-59335093Y-17221649D01*
X-59450187Y-17307809D01*
X-59450190Y-17307812D01*
X-59536350Y-17422906D01*
X-59536354Y-17422913D01*
X-59586596Y-17557620D01*
X-59586598Y-17557627D01*
X-59592999Y-17617155D01*
X-59593000Y-17617172D01*
X-62499500Y-17617172D01*
X-62499500Y-16892686D01*
X-62499499Y-16892686D01*
X-62500327Y-16886927D01*
X-62501239Y-16880584D01*
X-62501239Y-16880583D01*
X-62530044Y-16680230D01*
X-62590515Y-16474287D01*
X-62590516Y-16474286D01*
X-62624441Y-16400000D01*
X-47439609Y-16400000D01*
X-46478686Y-16400000D01*
X-46483080Y-16404394D01*
X-46535741Y-16495606D01*
X-46563000Y-16597339D01*
X-46563000Y-16702661D01*
X-46535741Y-16804394D01*
X-46483080Y-16895606D01*
X-46478686Y-16900000D01*
X-47439609Y-16900000D01*
X-47430990Y-16954413D01*
X-47367755Y-17149029D01*
X-47274859Y-17331349D01*
X-47154582Y-17496894D01*
X-47154582Y-17496895D01*
X-47009895Y-17641582D01*
X-46844349Y-17761859D01*
X-46662031Y-17854754D01*
X-46467421Y-17917988D01*
X-46413000Y-17926606D01*
X-46413000Y-16965686D01*
X-46408606Y-16970080D01*
X-46317394Y-17022741D01*
X-46215661Y-17050000D01*
X-46110339Y-17050000D01*
X-46008606Y-17022741D01*
X-45917394Y-16970080D01*
X-45913000Y-16965686D01*
X-45913000Y-17926607D01*
X-45858578Y-17917988D01*
X-45663968Y-17854754D01*
X-45481650Y-17761859D01*
X-45316105Y-17641582D01*
X-45316104Y-17641582D01*
X-45171417Y-17496895D01*
X-45171417Y-17496894D01*
X-45051140Y-17331349D01*
X-44962636Y-17157648D01*
X-18888500Y-17157648D01*
X-18888500Y-17362352D01*
X-18856477Y-17564534D01*
X-18793220Y-17759219D01*
X-18700287Y-17941610D01*
X-18632732Y-18034590D01*
X-18579971Y-18107213D01*
X-18579968Y-18107215D01*
X-18579966Y-18107219D01*
X-18435219Y-18251966D01*
X-18435215Y-18251968D01*
X-18435213Y-18251971D01*
X-18290770Y-18356913D01*
X-18269610Y-18372287D01*
X-18176917Y-18419516D01*
X-18126123Y-18467489D01*
X-18109328Y-18535310D01*
X-18131865Y-18601445D01*
X-18176917Y-18640483D01*
X-18263006Y-18684348D01*
X-18269614Y-18687715D01*
X-18435213Y-18808028D01*
X-18579971Y-18952786D01*
X-18680482Y-19091131D01*
X-18700287Y-19118390D01*
X-18759503Y-19234607D01*
X-18793218Y-19300776D01*
X-18793218Y-19300778D01*
X-18793220Y-19300781D01*
X-18856477Y-19495466D01*
X-18888500Y-19697648D01*
X-18888500Y-19902352D01*
X-18856477Y-20104534D01*
X-18793220Y-20299219D01*
X-18700287Y-20481610D01*
X-18682121Y-20506613D01*
X-18579971Y-20647213D01*
X-18579968Y-20647215D01*
X-18579966Y-20647219D01*
X-18435219Y-20791966D01*
X-18435215Y-20791968D01*
X-18435213Y-20791971D01*
X-18290770Y-20896913D01*
X-18269610Y-20912287D01*
X-18176917Y-20959516D01*
X-18126123Y-21007489D01*
X-18109328Y-21075310D01*
X-18131865Y-21141445D01*
X-18176917Y-21180483D01*
X-18263006Y-21224348D01*
X-18269614Y-21227715D01*
X-18435213Y-21348028D01*
X-18579971Y-21492786D01*
X-18692556Y-21647749D01*
X-18700287Y-21658390D01*
X-18759503Y-21774607D01*
X-18793218Y-21840776D01*
X-18793218Y-21840778D01*
X-18793220Y-21840781D01*
X-18856477Y-22035466D01*
X-18888500Y-22237648D01*
X-18888500Y-22442352D01*
X-18856477Y-22644534D01*
X-18793220Y-22839219D01*
X-18700287Y-23021610D01*
X-18632732Y-23114590D01*
X-18579971Y-23187213D01*
X-18579968Y-23187215D01*
X-18579966Y-23187219D01*
X-18435219Y-23331966D01*
X-18435215Y-23331968D01*
X-18435213Y-23331971D01*
X-18319144Y-23416298D01*
X-18269610Y-23452287D01*
X-18176370Y-23499795D01*
X-18125573Y-23547769D01*
X-18108778Y-23615590D01*
X-18131315Y-23681725D01*
X-18176369Y-23720765D01*
X-18269350Y-23768141D01*
X-18269359Y-23768147D01*
X-18395831Y-23860033D01*
X-18395832Y-23860035D01*
X-17746334Y-24509534D01*
X-17833606Y-24559920D01*
X-17908080Y-24634394D01*
X-17958465Y-24721664D01*
X-18607963Y-24072166D01*
X-18607963Y-24072167D01*
X-18699859Y-24198650D01*
X-18792755Y-24380968D01*
X-18855990Y-24575582D01*
X-18888000Y-24777682D01*
X-18888000Y-24982317D01*
X-18855990Y-25184417D01*
X-18792755Y-25379031D01*
X-18699859Y-25561349D01*
X-18607963Y-25687831D01*
X-18607963Y-25687832D01*
X-17958466Y-25038334D01*
X-17908080Y-25125606D01*
X-17833606Y-25200080D01*
X-17746334Y-25250466D01*
X-18395832Y-25899963D01*
X-18269349Y-25991859D01*
X-18087031Y-26084755D01*
X-17892417Y-26147990D01*
X-17690317Y-26180000D01*
X-17485683Y-26180000D01*
X-17283582Y-26147990D01*
X-17088968Y-26084755D01*
X-16906650Y-25991859D01*
X-16780167Y-25899963D01*
X-16780166Y-25899963D01*
X-17429665Y-25250465D01*
X-17342394Y-25200080D01*
X-17267920Y-25125606D01*
X-17217533Y-25038334D01*
X-16568035Y-25687832D01*
X-16568033Y-25687831D01*
X-16476147Y-25561359D01*
X-16476141Y-25561350D01*
X-16383244Y-25379031D01*
X-16320009Y-25184417D01*
X-16288000Y-24982317D01*
X-16288000Y-24777682D01*
X-16320009Y-24575582D01*
X-16383244Y-24380968D01*
X-16476142Y-24198647D01*
X-16568034Y-24072167D01*
X-16568035Y-24072167D01*
X-17217533Y-24721665D01*
X-17267920Y-24634394D01*
X-17342394Y-24559920D01*
X-17429665Y-24509533D01*
X-16780167Y-23860035D01*
X-16780167Y-23860034D01*
X-16906648Y-23768142D01*
X-16999630Y-23720765D01*
X-17050426Y-23672790D01*
X-17067221Y-23604969D01*
X-17044683Y-23538834D01*
X-16999630Y-23499795D01*
X-16906390Y-23452287D01*
X-16906387Y-23452285D01*
X-16906385Y-23452284D01*
X-16740786Y-23331971D01*
X-16596028Y-23187213D01*
X-16475715Y-23021613D01*
X-16382781Y-22839223D01*
X-16319522Y-22644534D01*
X-16287500Y-22442351D01*
X-16287500Y-22237648D01*
X-16319522Y-22035465D01*
X-16382781Y-21840776D01*
X-16475715Y-21658386D01*
X-16596028Y-21492786D01*
X-16740786Y-21348028D01*
X-16906386Y-21227715D01*
X-16999080Y-21180485D01*
X-17049876Y-21132510D01*
X-17066671Y-21064689D01*
X-17044134Y-20998554D01*
X-16999080Y-20959515D01*
X-16997840Y-20958883D01*
X-16906390Y-20912287D01*
X-16895749Y-20904556D01*
X-16740786Y-20791971D01*
X-16596028Y-20647213D01*
X-16475715Y-20481613D01*
X-16382781Y-20299223D01*
X-16319522Y-20104534D01*
X-16287500Y-19902351D01*
X-16287500Y-19697648D01*
X-16319522Y-19495465D01*
X-16382781Y-19300776D01*
X-16475715Y-19118386D01*
X-16596028Y-18952786D01*
X-16740786Y-18808028D01*
X-16906386Y-18687715D01*
X-16999080Y-18640485D01*
X-17049876Y-18592510D01*
X-17066671Y-18524689D01*
X-17044134Y-18458554D01*
X-16999080Y-18419515D01*
X-16990219Y-18415000D01*
X-16906390Y-18372287D01*
X-16895749Y-18364556D01*
X-16740786Y-18251971D01*
X-16596028Y-18107213D01*
X-16475715Y-17941613D01*
X-16382781Y-17759223D01*
X-16319522Y-17564534D01*
X-16287500Y-17362351D01*
X-16287500Y-17157648D01*
X-16319522Y-16955465D01*
X-16382781Y-16760776D01*
X-16475715Y-16578386D01*
X-16596028Y-16412786D01*
X-16740786Y-16268028D01*
X-16906386Y-16147715D01*
X-17088776Y-16054781D01*
X-17283465Y-15991522D01*
X-17461329Y-15963351D01*
X-17485648Y-15959500D01*
X-17690352Y-15959500D01*
X-17717995Y-15963878D01*
X-17892534Y-15991522D01*
X-18087223Y-16054781D01*
X-18172999Y-16098487D01*
X-18269610Y-16147713D01*
X-18269612Y-16147714D01*
X-18269613Y-16147715D01*
X-18435213Y-16268028D01*
X-18579971Y-16412786D01*
X-18679636Y-16549966D01*
X-18700287Y-16578390D01*
X-18752177Y-16680230D01*
X-18793218Y-16760776D01*
X-18793218Y-16760778D01*
X-18793220Y-16760781D01*
X-18807391Y-16804394D01*
X-18856477Y-16955465D01*
X-18871450Y-17050000D01*
X-18888500Y-17157648D01*
X-44962636Y-17157648D01*
X-44958245Y-17149031D01*
X-44947011Y-17114457D01*
X-44947010Y-17114456D01*
X-44895009Y-16954413D01*
X-44886391Y-16900000D01*
X-45847314Y-16900000D01*
X-45842920Y-16895606D01*
X-45790259Y-16804394D01*
X-45763000Y-16702661D01*
X-45763000Y-16597339D01*
X-45790259Y-16495606D01*
X-45842920Y-16404394D01*
X-45847314Y-16400000D01*
X-44886391Y-16400000D01*
X-44895009Y-16345586D01*
X-44958244Y-16150970D01*
X-45051140Y-15968650D01*
X-45171417Y-15803105D01*
X-45171417Y-15803104D01*
X-45316104Y-15658417D01*
X-45481650Y-15538140D01*
X-45663970Y-15445244D01*
X-45858586Y-15382009D01*
X-45913000Y-15373390D01*
X-45913000Y-16334314D01*
X-45917394Y-16329920D01*
X-46008606Y-16277259D01*
X-46110339Y-16250000D01*
X-46215661Y-16250000D01*
X-46317394Y-16277259D01*
X-46408606Y-16329920D01*
X-46413000Y-16334314D01*
X-46413000Y-15373390D01*
X-46467413Y-15382009D01*
X-46662029Y-15445244D01*
X-46844349Y-15538140D01*
X-47009894Y-15658417D01*
X-47009895Y-15658417D01*
X-47154582Y-15803104D01*
X-47154582Y-15803105D01*
X-47274859Y-15968650D01*
X-47367755Y-16150970D01*
X-47430990Y-16345586D01*
X-47439609Y-16400000D01*
X-62624441Y-16400000D01*
X-62679671Y-16279061D01*
X-62679680Y-16279045D01*
X-62795718Y-16098487D01*
X-62936275Y-15936275D01*
X-63098487Y-15795718D01*
X-63279045Y-15679680D01*
X-63279061Y-15679671D01*
X-63474284Y-15590516D01*
X-63680230Y-15530044D01*
X-63892682Y-15499500D01*
X-63892683Y-15499500D01*
X-63934108Y-15499500D01*
X-76993041Y-15499500D01*
X-77006922Y-15498720D01*
X-77032898Y-15495793D01*
X-77097266Y-15488541D01*
X-77124337Y-15482362D01*
X-77203535Y-15454649D01*
X-77228552Y-15442602D01*
X-77299604Y-15397957D01*
X-77321313Y-15380644D01*
X-77380644Y-15321313D01*
X-77397957Y-15299604D01*
X-77442602Y-15228552D01*
X-77454649Y-15203535D01*
X-77482362Y-15124337D01*
X-77488541Y-15097265D01*
X-77498720Y-15006923D01*
X-77499500Y-14993040D01*
X-77499500Y-11865603D01*
X-76050500Y-11865603D01*
X-76050500Y-12134397D01*
X-76015416Y-12400891D01*
X-75945847Y-12660526D01*
X-75842984Y-12908859D01*
X-75708587Y-13141641D01*
X-75544956Y-13354890D01*
X-75354890Y-13544956D01*
X-75141641Y-13708587D01*
X-74908859Y-13842984D01*
X-74908853Y-13842986D01*
X-74908850Y-13842988D01*
X-74847457Y-13868417D01*
X-74660526Y-13945847D01*
X-74400891Y-14015416D01*
X-74194905Y-14042534D01*
X-74134398Y-14050500D01*
X-74134397Y-14050500D01*
X-73865602Y-14050500D01*
X-73787319Y-14040193D01*
X-73599109Y-14015416D01*
X-73339474Y-13945847D01*
X-73246008Y-13907132D01*
X-73091149Y-13842988D01*
X-73091133Y-13842980D01*
X-73007968Y-13794964D01*
X-72858359Y-13708587D01*
X-72645110Y-13544956D01*
X-72645104Y-13544951D01*
X-72455048Y-13354895D01*
X-72455042Y-13354888D01*
X-72291416Y-13141645D01*
X-72291415Y-13141644D01*
X-72291413Y-13141641D01*
X-72237830Y-13048832D01*
X-72157019Y-12908866D01*
X-72157011Y-12908850D01*
X-72054152Y-12660524D01*
X-71984585Y-12400893D01*
X-71984584Y-12400891D01*
X-71984583Y-12400885D01*
X-71984582Y-12400880D01*
X-71949500Y-12134397D01*
X-71949500Y-11865602D01*
X-71984582Y-11599119D01*
X-71984585Y-11599106D01*
X-72054152Y-11339475D01*
X-72157011Y-11091149D01*
X-72157019Y-11091133D01*
X-72291416Y-10858354D01*
X-72455042Y-10645111D01*
X-72455048Y-10645104D01*
X-72645104Y-10455048D01*
X-72645111Y-10455042D01*
X-72858354Y-10291416D01*
X-73091133Y-10157019D01*
X-73091149Y-10157011D01*
X-73339475Y-10054152D01*
X-73550402Y-9997635D01*
X-73599109Y-9984584D01*
X-73599112Y-9984583D01*
X-73599119Y-9984582D01*
X-73865602Y-9949500D01*
X-73865603Y-9949500D01*
X-74134397Y-9949500D01*
X-74134398Y-9949500D01*
X-74400880Y-9984582D01*
X-74400885Y-9984583D01*
X-74400891Y-9984584D01*
X-74530708Y-10019368D01*
X-74660524Y-10054152D01*
X-74908850Y-10157011D01*
X-74908866Y-10157019D01*
X-75048832Y-10237830D01*
X-75141641Y-10291413D01*
X-75141644Y-10291415D01*
X-75141645Y-10291416D01*
X-75354888Y-10455042D01*
X-75354895Y-10455048D01*
X-75544951Y-10645104D01*
X-75544957Y-10645111D01*
X-75600124Y-10717007D01*
X-75708587Y-10858359D01*
X-75787600Y-10995213D01*
X-75842980Y-11091133D01*
X-75842988Y-11091149D01*
X-75904995Y-11240848D01*
X-75945847Y-11339474D01*
X-76015416Y-11599109D01*
X-76034535Y-11744335D01*
X-76044807Y-11822363D01*
X-76050500Y-11865603D01*
X-77499500Y-11865603D01*
X-77499500Y-11420306D01*
X-77498903Y-11408151D01*
X-77491099Y-11328919D01*
X-77486357Y-11305079D01*
X-77465022Y-11234747D01*
X-77455719Y-11212288D01*
X-77445324Y-11192842D01*
X-77434615Y-11172806D01*
X-77421076Y-11147477D01*
X-77407572Y-11127267D01*
X-77357063Y-11065721D01*
X-77348890Y-11056704D01*
X-68717834Y-2425648D01*
X-54194500Y-2425648D01*
X-54194500Y-2630352D01*
X-54162477Y-2832534D01*
X-54099220Y-3027219D01*
X-54006287Y-3209610D01*
X-53938732Y-3302590D01*
X-53885971Y-3375213D01*
X-53885968Y-3375215D01*
X-53885966Y-3375219D01*
X-53741219Y-3519966D01*
X-53741215Y-3519968D01*
X-53741213Y-3519971D01*
X-53664948Y-3575380D01*
X-53575610Y-3640287D01*
X-53482370Y-3687795D01*
X-53431573Y-3735769D01*
X-53414778Y-3803590D01*
X-53437315Y-3869725D01*
X-53482369Y-3908765D01*
X-53575350Y-3956141D01*
X-53575359Y-3956147D01*
X-53619921Y-3988523D01*
X-53619922Y-3988524D01*
X-52940446Y-4668000D01*
X-52946661Y-4668000D01*
X-53048394Y-4695259D01*
X-53139606Y-4747920D01*
X-53214080Y-4822394D01*
X-53266741Y-4913606D01*
X-53294000Y-5015339D01*
X-53294000Y-5021551D01*
X-53973474Y-4342076D01*
X-53973474Y-4342077D01*
X-54005859Y-4386650D01*
X-54098755Y-4568968D01*
X-54161990Y-4763582D01*
X-54194000Y-4965682D01*
X-54194000Y-5170317D01*
X-54161990Y-5372417D01*
X-54098755Y-5567031D01*
X-54005859Y-5749349D01*
X-53973474Y-5793921D01*
X-53973474Y-5793922D01*
X-53294000Y-5114448D01*
X-53294000Y-5120661D01*
X-53266741Y-5222394D01*
X-53214080Y-5313606D01*
X-53139606Y-5388080D01*
X-53048394Y-5440741D01*
X-52946661Y-5468000D01*
X-52940447Y-5468000D01*
X-53619921Y-6147474D01*
X-53575347Y-6179861D01*
X-53482371Y-6227234D01*
X-53431575Y-6275208D01*
X-53414779Y-6343028D01*
X-53437316Y-6409164D01*
X-53482369Y-6448203D01*
X-53575611Y-6495713D01*
X-53741213Y-6616028D01*
X-53885971Y-6760786D01*
X-53998556Y-6915749D01*
X-54006287Y-6926390D01*
X-54048920Y-7010062D01*
X-54099218Y-7108776D01*
X-54099218Y-7108778D01*
X-54099220Y-7108781D01*
X-54162477Y-7303466D01*
X-54194500Y-7505648D01*
X-54194500Y-7710352D01*
X-54162477Y-7912534D01*
X-54099220Y-8107219D01*
X-54006287Y-8289610D01*
X-53980848Y-8324624D01*
X-53885971Y-8455213D01*
X-53885968Y-8455215D01*
X-53885966Y-8455219D01*
X-53741219Y-8599966D01*
X-53741215Y-8599968D01*
X-53741213Y-8599971D01*
X-53596770Y-8704913D01*
X-53575610Y-8720287D01*
X-53482917Y-8767516D01*
X-53432123Y-8815489D01*
X-53415328Y-8883310D01*
X-53437865Y-8949445D01*
X-53482917Y-8988483D01*
X-53542165Y-9018672D01*
X-53575614Y-9035715D01*
X-53741213Y-9156028D01*
X-53885971Y-9300786D01*
X-53998556Y-9455749D01*
X-54006287Y-9466390D01*
X-54046072Y-9544473D01*
X-54099218Y-9648776D01*
X-54099218Y-9648778D01*
X-54099220Y-9648781D01*
X-54119821Y-9712185D01*
X-54161921Y-9841756D01*
X-54162477Y-9843466D01*
X-54194500Y-10045648D01*
X-54194500Y-10250352D01*
X-54162477Y-10452534D01*
X-54099220Y-10647219D01*
X-54006287Y-10829610D01*
X-53947881Y-10909999D01*
X-53885971Y-10995213D01*
X-53885968Y-10995215D01*
X-53885966Y-10995219D01*
X-53741219Y-11139966D01*
X-53704930Y-11166330D01*
X-53662265Y-11221658D01*
X-53656284Y-11291271D01*
X-53688889Y-11353067D01*
X-53749726Y-11387426D01*
X-53764559Y-11389938D01*
X-53801480Y-11393907D01*
X-53936328Y-11444202D01*
X-53936335Y-11444206D01*
X-54051544Y-11530452D01*
X-54051547Y-11530455D01*
X-54137793Y-11645664D01*
X-54137797Y-11645671D01*
X-54171428Y-11735840D01*
X-54188091Y-11780517D01*
X-54194500Y-11840127D01*
X-54194499Y-13535872D01*
X-54188091Y-13595483D01*
X-54137796Y-13730331D01*
X-54051546Y-13845546D01*
X-53936331Y-13931796D01*
X-53801483Y-13982091D01*
X-53741873Y-13988500D01*
X-52046128Y-13988499D01*
X-51997757Y-13983299D01*
X-51986516Y-13982091D01*
X-51851671Y-13931797D01*
X-51851664Y-13931793D01*
X-51736455Y-13845547D01*
X-51736452Y-13845544D01*
X-51650206Y-13730335D01*
X-51650202Y-13730328D01*
X-51599908Y-13595482D01*
X-51593501Y-13535883D01*
X-51593500Y-13535881D01*
X-51593500Y-13535873D01*
X-51593500Y-12908850D01*
X-51593500Y-11840129D01*
X-51593501Y-11840123D01*
X-51599908Y-11780516D01*
X-51650202Y-11645671D01*
X-51650206Y-11645664D01*
X-51736452Y-11530455D01*
X-51736455Y-11530452D01*
X-51851664Y-11444206D01*
X-51851671Y-11444202D01*
X-51986517Y-11393908D01*
X-51986515Y-11393908D01*
X-52023440Y-11389939D01*
X-52087991Y-11363201D01*
X-52127839Y-11305809D01*
X-52130332Y-11235983D01*
X-52094679Y-11175895D01*
X-52083070Y-11166332D01*
X-52046782Y-11139967D01*
X-51902028Y-10995213D01*
X-51781715Y-10829613D01*
X-51688781Y-10647223D01*
X-51625522Y-10452534D01*
X-51597567Y-10276038D01*
X-48398500Y-10276038D01*
X-48398500Y-10527962D01*
X-48359090Y-10776785D01*
X-48281241Y-11016379D01*
X-48166870Y-11240845D01*
X-48018793Y-11444656D01*
X-47840656Y-11622793D01*
X-47636845Y-11770870D01*
X-47412379Y-11885241D01*
X-47172785Y-11963090D01*
X-46923962Y-12002500D01*
X-46923961Y-12002500D01*
X-46672039Y-12002500D01*
X-46672038Y-12002500D01*
X-46423215Y-11963090D01*
X-46183621Y-11885241D01*
X-46183618Y-11885239D01*
X-46183616Y-11885239D01*
X-46060206Y-11822358D01*
X-45959155Y-11770870D01*
X-45943257Y-11759319D01*
X-45877452Y-11735840D01*
X-45809398Y-11751665D01*
X-45771109Y-11785323D01*
X-45715546Y-11859546D01*
X-45600331Y-11945796D01*
X-45465483Y-11996091D01*
X-45405873Y-12002500D01*
X-43110128Y-12002499D01*
X-43061757Y-11997299D01*
X-43050516Y-11996091D01*
X-42915671Y-11945797D01*
X-42915664Y-11945793D01*
X-42800455Y-11859547D01*
X-42800452Y-11859544D01*
X-42714206Y-11744335D01*
X-42714202Y-11744328D01*
X-42663908Y-11609482D01*
X-42657501Y-11549883D01*
X-42657500Y-11549864D01*
X-42657500Y-9254129D01*
X-42657501Y-9254123D01*
X-42663908Y-9194516D01*
X-42714202Y-9059671D01*
X-42714206Y-9059664D01*
X-42800452Y-8944455D01*
X-42800455Y-8944452D01*
X-42915664Y-8858206D01*
X-42915671Y-8858202D01*
X-43050517Y-8807908D01*
X-43050516Y-8807908D01*
X-43110116Y-8801501D01*
X-43110119Y-8801500D01*
X-43110127Y-8801500D01*
X-43110134Y-8801500D01*
X-43110135Y-8801500D01*
X-45405870Y-8801500D01*
X-45405876Y-8801501D01*
X-45465483Y-8807908D01*
X-45600328Y-8858202D01*
X-45600335Y-8858206D01*
X-45681222Y-8918759D01*
X-45715546Y-8944454D01*
X-45771106Y-9018673D01*
X-45827039Y-9060543D01*
X-45896731Y-9065527D01*
X-45943254Y-9044681D01*
X-45959149Y-9033132D01*
X-46183616Y-8918760D01*
X-46423214Y-8840910D01*
X-46583716Y-8815489D01*
X-46672038Y-8801500D01*
X-46923962Y-8801500D01*
X-47012284Y-8815489D01*
X-47172785Y-8840910D01*
X-47412383Y-8918760D01*
X-47549224Y-8988485D01*
X-47636845Y-9033130D01*
X-47636847Y-9033131D01*
X-47636848Y-9033132D01*
X-47840649Y-9181201D01*
X-47840654Y-9181205D01*
X-48018794Y-9359345D01*
X-48018798Y-9359350D01*
X-48128251Y-9510000D01*
X-48166870Y-9563155D01*
X-48218754Y-9664984D01*
X-48281239Y-9787616D01*
X-48281239Y-9787618D01*
X-48281241Y-9787621D01*
X-48359090Y-10027215D01*
X-48398500Y-10276038D01*
X-51597567Y-10276038D01*
X-51593740Y-10251873D01*
X-51593726Y-10251776D01*
X-51593500Y-10250352D01*
X-51593500Y-10045648D01*
X-51625522Y-9843465D01*
X-51688781Y-9648776D01*
X-51781715Y-9466386D01*
X-51902028Y-9300786D01*
X-52046786Y-9156028D01*
X-52212386Y-9035715D01*
X-52305080Y-8988485D01*
X-52355876Y-8940510D01*
X-52372671Y-8872689D01*
X-52350134Y-8806554D01*
X-52305080Y-8767515D01*
X-52303840Y-8766883D01*
X-52212390Y-8720287D01*
X-52201749Y-8712556D01*
X-52046786Y-8599971D01*
X-51902028Y-8455213D01*
X-51781715Y-8289613D01*
X-51688781Y-8107223D01*
X-51625522Y-7912534D01*
X-51593500Y-7710351D01*
X-51593500Y-7505648D01*
X-51625522Y-7303465D01*
X-51688781Y-7108776D01*
X-51781715Y-6926386D01*
X-51902028Y-6760786D01*
X-52046786Y-6616028D01*
X-52212388Y-6495713D01*
X-52305630Y-6448203D01*
X-52356426Y-6400228D01*
X-52373220Y-6332407D01*
X-52350682Y-6266272D01*
X-52305628Y-6227234D01*
X-52212652Y-6179861D01*
X-52168077Y-6147474D01*
X-52168076Y-6147474D01*
X-52847553Y-5468000D01*
X-52841339Y-5468000D01*
X-52739606Y-5440741D01*
X-52648394Y-5388080D01*
X-52573920Y-5313606D01*
X-52521259Y-5222394D01*
X-52494000Y-5120661D01*
X-52494000Y-5114446D01*
X-51814524Y-5793922D01*
X-51814523Y-5793921D01*
X-51782147Y-5749359D01*
X-51782141Y-5749350D01*
X-51689244Y-5567031D01*
X-51626009Y-5372417D01*
X-51594000Y-5170317D01*
X-51594000Y-4965682D01*
X-51626009Y-4763582D01*
X-51689244Y-4568968D01*
X-51782143Y-4386644D01*
X-51814523Y-4342077D01*
X-51814524Y-4342077D01*
X-52494000Y-5021553D01*
X-52494000Y-5015339D01*
X-52521259Y-4913606D01*
X-52573920Y-4822394D01*
X-52648394Y-4747920D01*
X-52739606Y-4695259D01*
X-52841339Y-4668000D01*
X-52847554Y-4668000D01*
X-52168077Y-3988524D01*
X-52168077Y-3988523D01*
X-52212644Y-3956143D01*
X-52305630Y-3908765D01*
X-52356426Y-3860790D01*
X-52373221Y-3792969D01*
X-52350683Y-3726834D01*
X-52305630Y-3687795D01*
X-52212390Y-3640287D01*
X-52212387Y-3640285D01*
X-52212385Y-3640284D01*
X-52046786Y-3519971D01*
X-51902028Y-3375213D01*
X-51781715Y-3209613D01*
X-51779920Y-3206092D01*
X-51730747Y-3109583D01*
X-51730744Y-3109577D01*
X-48350500Y-3109577D01*
X-48350500Y-4806422D01*
X-48333523Y-4913606D01*
X-48319709Y-5000826D01*
X-48258884Y-5188025D01*
X-48169524Y-5363405D01*
X-48053828Y-5522646D01*
X-47914646Y-5661828D01*
X-47755405Y-5777524D01*
X-47580025Y-5866884D01*
X-47462667Y-5905016D01*
X-47392826Y-5927709D01*
X-47198422Y-5958500D01*
X-47198417Y-5958500D01*
X-47001578Y-5958500D01*
X-46807173Y-5927709D01*
X-46720317Y-5899487D01*
X-46619975Y-5866884D01*
X-46619972Y-5866882D01*
X-46619970Y-5866882D01*
X-46527455Y-5819743D01*
X-46444595Y-5777524D01*
X-46285354Y-5661828D01*
X-46146172Y-5522646D01*
X-46030476Y-5363405D01*
X-45985863Y-5275847D01*
X-45941117Y-5188029D01*
X-45880290Y-5000826D01*
X-45849500Y-4806422D01*
X-45849500Y-4738568D01*
X-45829815Y-4671529D01*
X-45777011Y-4625774D01*
X-45707853Y-4615830D01*
X-45644297Y-4644855D01*
X-45615015Y-4682272D01*
X-45583343Y-4744433D01*
X-45444517Y-4935510D01*
X-45277510Y-5102517D01*
X-45086433Y-5241343D01*
X-44875992Y-5348568D01*
X-44651368Y-5421553D01*
X-44418097Y-5458500D01*
X-44418092Y-5458500D01*
X-44181903Y-5458500D01*
X-43948631Y-5421553D01*
X-43822284Y-5380500D01*
X-43724008Y-5348568D01*
X-43724005Y-5348566D01*
X-43724003Y-5348566D01*
X-43581285Y-5275847D01*
X-43513567Y-5241343D01*
X-43322490Y-5102517D01*
X-43155483Y-4935510D01*
X-43016657Y-4744433D01*
X-42910484Y-4536057D01*
X-42862511Y-4485262D01*
X-42794690Y-4468467D01*
X-42728555Y-4491004D01*
X-42689515Y-4536057D01*
X-42583343Y-4744433D01*
X-42444517Y-4935510D01*
X-42277510Y-5102517D01*
X-42086433Y-5241343D01*
X-41875992Y-5348568D01*
X-41651368Y-5421553D01*
X-41418097Y-5458500D01*
X-41418092Y-5458500D01*
X-41181903Y-5458500D01*
X-40948631Y-5421553D01*
X-40822284Y-5380500D01*
X-40724008Y-5348568D01*
X-40724005Y-5348566D01*
X-40724003Y-5348566D01*
X-40581285Y-5275847D01*
X-40513567Y-5241343D01*
X-40322490Y-5102517D01*
X-40155483Y-4935510D01*
X-40016657Y-4744433D01*
X-39910484Y-4536057D01*
X-39862511Y-4485262D01*
X-39794690Y-4468467D01*
X-39728555Y-4491004D01*
X-39689515Y-4536057D01*
X-39583343Y-4744433D01*
X-39444517Y-4935510D01*
X-39277510Y-5102517D01*
X-39086433Y-5241343D01*
X-38875992Y-5348568D01*
X-38651368Y-5421553D01*
X-38418097Y-5458500D01*
X-38418092Y-5458500D01*
X-38181903Y-5458500D01*
X-37948631Y-5421553D01*
X-37822284Y-5380500D01*
X-37724008Y-5348568D01*
X-37724005Y-5348566D01*
X-37724003Y-5348566D01*
X-37581285Y-5275847D01*
X-37513567Y-5241343D01*
X-37322490Y-5102517D01*
X-37155483Y-4935510D01*
X-37016657Y-4744433D01*
X-36984984Y-4682272D01*
X-36937010Y-4631477D01*
X-36869189Y-4614682D01*
X-36803054Y-4637219D01*
X-36759603Y-4691934D01*
X-36750500Y-4738568D01*
X-36750500Y-4806422D01*
X-36733523Y-4913606D01*
X-36719709Y-5000826D01*
X-36658884Y-5188025D01*
X-36569524Y-5363405D01*
X-36453828Y-5522646D01*
X-36314646Y-5661828D01*
X-36155405Y-5777524D01*
X-35980025Y-5866884D01*
X-35862667Y-5905016D01*
X-35792826Y-5927709D01*
X-35598422Y-5958500D01*
X-35598417Y-5958500D01*
X-35401578Y-5958500D01*
X-35207173Y-5927709D01*
X-35120317Y-5899487D01*
X-35019975Y-5866884D01*
X-35019972Y-5866882D01*
X-35019970Y-5866882D01*
X-34927455Y-5819743D01*
X-34844595Y-5777524D01*
X-34685354Y-5661828D01*
X-34546172Y-5522646D01*
X-34430476Y-5363405D01*
X-34385863Y-5275847D01*
X-34341117Y-5188029D01*
X-34280290Y-5000826D01*
X-34249500Y-4806422D01*
X-34249500Y-3109577D01*
X-34280290Y-2915173D01*
X-34341117Y-2727970D01*
X-34430476Y-2552594D01*
X-34525978Y-2421149D01*
X-34546172Y-2393354D01*
X-34546174Y-2393352D01*
X-34546174Y-2393351D01*
X-34685351Y-2254174D01*
X-34844594Y-2138476D01*
X-35019970Y-2049117D01*
X-35207173Y-1988290D01*
X-35401578Y-1957500D01*
X-35401583Y-1957500D01*
X-35598417Y-1957500D01*
X-35598422Y-1957500D01*
X-35792826Y-1988290D01*
X-35980029Y-2049117D01*
X-36155405Y-2138476D01*
X-36314646Y-2254172D01*
X-36453828Y-2393354D01*
X-36569524Y-2552595D01*
X-36609142Y-2630351D01*
X-36658882Y-2727970D01*
X-36719709Y-2915173D01*
X-36750500Y-3109577D01*
X-36750500Y-3177431D01*
X-36770185Y-3244470D01*
X-36822989Y-3290225D01*
X-36892147Y-3300169D01*
X-36955703Y-3271144D01*
X-36984984Y-3233727D01*
X-37016655Y-3171568D01*
X-37121532Y-3027219D01*
X-37155483Y-2980490D01*
X-37155485Y-2980488D01*
X-37155485Y-2980487D01*
X-37322487Y-2813485D01*
X-37513566Y-2674657D01*
X-37724003Y-2567433D01*
X-37948631Y-2494446D01*
X-38181903Y-2457500D01*
X-38181908Y-2457500D01*
X-38418092Y-2457500D01*
X-38418097Y-2457500D01*
X-38651368Y-2494446D01*
X-38875996Y-2567433D01*
X-38999478Y-2630351D01*
X-39086433Y-2674657D01*
X-39277510Y-2813483D01*
X-39444517Y-2980490D01*
X-39583343Y-3171567D01*
X-39615131Y-3233955D01*
X-39689515Y-3379941D01*
X-39737490Y-3430737D01*
X-39805311Y-3447532D01*
X-39871446Y-3424995D01*
X-39910485Y-3379941D01*
X-40016657Y-3171566D01*
X-40121527Y-3027226D01*
X-40155483Y-2980490D01*
X-40155485Y-2980488D01*
X-40155485Y-2980487D01*
X-40322487Y-2813485D01*
X-40513566Y-2674657D01*
X-40724003Y-2567433D01*
X-40948631Y-2494446D01*
X-41181903Y-2457500D01*
X-41181908Y-2457500D01*
X-41418092Y-2457500D01*
X-41418097Y-2457500D01*
X-41651368Y-2494446D01*
X-41875996Y-2567433D01*
X-41999478Y-2630351D01*
X-42086433Y-2674657D01*
X-42277510Y-2813483D01*
X-42444517Y-2980490D01*
X-42583343Y-3171567D01*
X-42615131Y-3233955D01*
X-42689515Y-3379941D01*
X-42737490Y-3430737D01*
X-42805311Y-3447532D01*
X-42871446Y-3424995D01*
X-42910485Y-3379941D01*
X-43016657Y-3171566D01*
X-43121527Y-3027226D01*
X-43155483Y-2980490D01*
X-43155485Y-2980488D01*
X-43155485Y-2980487D01*
X-43322487Y-2813485D01*
X-43513566Y-2674657D01*
X-43724003Y-2567433D01*
X-43948631Y-2494446D01*
X-44181903Y-2457500D01*
X-44181908Y-2457500D01*
X-44418092Y-2457500D01*
X-44418097Y-2457500D01*
X-44651368Y-2494446D01*
X-44875996Y-2567433D01*
X-44999478Y-2630351D01*
X-45086433Y-2674657D01*
X-45277510Y-2813483D01*
X-45444517Y-2980490D01*
X-45532516Y-3101610D01*
X-45583344Y-3171568D01*
X-45615016Y-3233727D01*
X-45662990Y-3284522D01*
X-45730811Y-3301317D01*
X-45796946Y-3278779D01*
X-45840397Y-3224064D01*
X-45849500Y-3177431D01*
X-45849500Y-3109577D01*
X-45880290Y-2915173D01*
X-45941117Y-2727970D01*
X-46030476Y-2552594D01*
X-46125978Y-2421149D01*
X-46146172Y-2393354D01*
X-46146174Y-2393352D01*
X-46146174Y-2393351D01*
X-46285351Y-2254174D01*
X-46444594Y-2138476D01*
X-46619970Y-2049117D01*
X-46807173Y-1988290D01*
X-47001578Y-1957500D01*
X-47001583Y-1957500D01*
X-47198417Y-1957500D01*
X-47198422Y-1957500D01*
X-47392826Y-1988290D01*
X-47580029Y-2049117D01*
X-47755405Y-2138476D01*
X-47914646Y-2254172D01*
X-48053828Y-2393354D01*
X-48169524Y-2552595D01*
X-48209142Y-2630351D01*
X-48258882Y-2727970D01*
X-48319709Y-2915173D01*
X-48350500Y-3109577D01*
X-51730744Y-3109577D01*
X-51699580Y-3048416D01*
X-51699578Y-3048414D01*
X-51688782Y-3027226D01*
X-51625522Y-2832534D01*
X-51593500Y-2630351D01*
X-51593500Y-2425648D01*
X-51625522Y-2223465D01*
X-51688781Y-2028776D01*
X-51781715Y-1846386D01*
X-51902028Y-1680786D01*
X-52046786Y-1536028D01*
X-52212386Y-1415715D01*
X-52394776Y-1322781D01*
X-52589465Y-1259522D01*
X-52767329Y-1231351D01*
X-52791648Y-1227500D01*
X-52996352Y-1227500D01*
X-53023995Y-1231878D01*
X-53198534Y-1259522D01*
X-53393223Y-1322781D01*
X-53458643Y-1356115D01*
X-53575610Y-1415713D01*
X-53575612Y-1415714D01*
X-53575613Y-1415715D01*
X-53741213Y-1536028D01*
X-53885971Y-1680786D01*
X-53961717Y-1785044D01*
X-54006287Y-1846390D01*
X-54062900Y-1957500D01*
X-54099218Y-2028776D01*
X-54099218Y-2028778D01*
X-54099220Y-2028781D01*
X-54127385Y-2115465D01*
X-54162477Y-2223465D01*
X-54167341Y-2254174D01*
X-54194500Y-2425648D01*
X-68717834Y-2425648D01*
X-66943311Y-651125D01*
X-66934293Y-642951D01*
X-66923784Y-634327D01*
X-66872732Y-592432D01*
X-66852524Y-578930D01*
X-66841409Y-572989D01*
X-66787705Y-544283D01*
X-66765257Y-534984D01*
X-66694904Y-513643D01*
X-66671078Y-508904D01*
X-66612199Y-503104D01*
X-66591823Y-501097D01*
X-66579668Y-500500D01*
X-30929869Y-500500D01*
X-30862830Y-520185D01*
G37*
%TD.AperFunction*%
%TD*%
D24*
X-63000000Y-17000000D02*
X-63000000Y-33117218D01*
X-71000000Y-35882782D02*
G75*
G02*
X-70124033Y-34890522I1000000J-18D01*
G01*
X-63000000Y-33117218D02*
G75*
G02*
X-63875967Y-34109478I-1000000J18D01*
G01*
X-18700000Y-42000000D02*
X0Y-42000000D01*
X-78000000Y-11414214D02*
G75*
G02*
X-77707114Y-10707100I1000000J14D01*
G01*
X-29300000Y-39800000D02*
X-29300000Y-40000000D01*
X0Y0D02*
X0Y-42000000D01*
X-29300000Y-39800000D02*
G75*
G02*
X-20700000Y-39800000I4300000J0D01*
G01*
X-77000000Y-16000000D02*
X-64000000Y-16000000D01*
X-18700000Y-42000000D02*
G75*
G02*
X-20700000Y-40000000I0J2000000D01*
G01*
X-67292893Y-292893D02*
X-77707107Y-10707107D01*
X-25238000Y-4930000D02*
G75*
G02*
X-33238000Y-4930000I-4000000J0D01*
G01*
X-33238000Y-4930000D02*
G75*
G02*
X-25238000Y-4930000I4000000J0D01*
G01*
X-78000000Y-11414214D02*
X-78000000Y-15000000D01*
X0Y0D02*
X-66585786Y0D01*
X-64000000Y-16000000D02*
G75*
G02*
X-63000000Y-17000000I0J-1000000D01*
G01*
X-77000000Y-16000000D02*
G75*
G02*
X-78000000Y-15000000I0J1000000D01*
G01*
X-71000000Y-35882782D02*
X-71000000Y-41000000D01*
X-29300000Y-40000000D02*
G75*
G02*
X-31300000Y-42000000I-2000000J0D01*
G01*
X-67292893Y-292893D02*
G75*
G02*
X-66585786Y-39I707093J-707207D01*
G01*
X-70000000Y-42000000D02*
G75*
G02*
X-71000000Y-41000000I0J1000000D01*
G01*
X-31300000Y-42000000D02*
X-70000000Y-42000000D01*
X-63875965Y-34109496D02*
X-70124035Y-34890504D01*
X-20700000Y-40000000D02*
X-20700000Y-39800000D01*
M02*
