M48
; DRILL file {KiCad 9.0.1} date 2025-09-30T23:18:26-0400
; FORMAT={-:-/ absolute / metric / decimal}
; #@! TF.CreationDate,2025-09-30T23:18:26-04:00
; #@! TF.GenerationSoftware,Kicad,Pcbnew,9.0.1
; #@! TF.FileFunction,Plated,1,2,PTH
FMAT,2
METRIC
; #@! TA.AperFunction,Plated,PTH,ViaDrill
T1C0.500
; #@! TA.AperFunction,Plated,PTH,ComponentDrill
T2C0.500
; #@! TA.AperFunction,Plated,PTH,ComponentDrill
T3C0.800
; #@! TA.AperFunction,Plated,PTH,ComponentDrill
T4C1.000
; #@! TA.AperFunction,Plated,PTH,ComponentDrill
T5C1.200
; #@! TA.AperFunction,Plated,PTH,ComponentDrill
T6C1.500
; #@! TA.AperFunction,Plated,PTH,ComponentDrill
T7C2.700
%
G90
G05
T1
X-65.2Y-2.9
X-63.8Y-28.1
X-60.3Y-40.0
X-58.2Y-2.9
X-56.0Y-30.8
X-53.8Y-12.6
X-53.6Y-21.0
X-53.1Y-16.1
X-53.1Y-18.4
X-49.65Y-29.5
X-46.7Y-28.6
X-42.85Y-28.8
X-41.45Y-7.15
X-40.9Y-21.0
X-38.8Y-1.55
X-33.75Y-18.4
X-31.8Y-19.6
X-30.98Y-14.55
X-30.1Y-23.8
X-29.15Y-14.1
X-25.45Y-23.8
X-25.0Y-19.1
X-23.0Y-14.0
X-21.75Y-9.1
X-15.1Y-14.55
X-14.9Y-9.1
X-12.45Y-20.45
X-12.3Y-37.1
X-11.6Y-15.15
X-3.4Y-8.6
X-3.4Y-24.0
X-3.4Y-33.9
T3
X-50.61Y-2.57
X-50.61Y-5.11
X-50.61Y-7.65
X-50.61Y-10.19
X-50.61Y-12.73
X-47.1Y-3.958
X-35.5Y-3.958
X-17.7Y-2.42
X-17.7Y-39.72
X-17.588Y-17.26
X-17.588Y-19.8
X-17.588Y-22.34
X-17.588Y-24.88
X-2.3Y-2.42
X-2.3Y-39.695
T4
X-45.69Y-10.4
X-44.3Y-3.958
X-43.15Y-10.4
X-41.3Y-3.958
X-38.65Y-11.36
X-38.65Y-26.6
X-38.3Y-3.958
X-36.11Y-11.36
X-36.11Y-26.6
X-33.57Y-11.36
X-33.57Y-26.6
X-31.03Y-11.36
X-31.03Y-26.6
X-28.49Y-11.36
X-28.49Y-26.6
X-25.95Y-11.36
X-25.95Y-26.6
X-23.41Y-11.36
X-23.41Y-26.6
T5
X-52.8Y-38.3
X-50.26Y-38.3
X-47.72Y-38.3
T6
X-59.8Y-20.5
X-59.8Y-25.5
X-59.8Y-30.5
X-59.8Y-35.5
T7
X-67.9Y-38.3
X-66.05Y-17.35
X-25.0Y-31.5
X-22.138Y-3.33
T2
X-40.27Y-30.6G85X-39.77Y-30.6
G05
X-40.27Y-38.12G85X-39.77Y-38.12
G05
X-37.73Y-30.6G85X-37.23Y-30.6
G05
X-37.73Y-38.12G85X-37.23Y-38.12
G05
X-35.19Y-30.6G85X-34.69Y-30.6
G05
X-35.19Y-38.12G85X-34.69Y-38.12
G05
X-32.65Y-30.6G85X-32.15Y-30.6
G05
X-32.65Y-38.12G85X-32.15Y-38.12
G05
T3
X-72.3Y-8.95G85X-72.3Y-9.15
G05
X-72.3Y-13.45G85X-72.3Y-13.65
G05
X-69.9Y-7.8G85X-69.7Y-7.8
G05
X-69.9Y-14.8G85X-69.7Y-14.8
G05
M30
