%TF.GenerationSoftware,KiCad,Pcbnew,9.0.6*%
%TF.CreationDate,2025-12-01T18:27:25-05:00*%
%TF.ProjectId,cablight-project,6361626c-6967-4687-942d-70726f6a6563,rev?*%
%TF.SameCoordinates,Original*%
%TF.FileFunction,Paste,Top*%
%TF.FilePolarity,Positive*%
%FSLAX46Y46*%
G04 Gerber Fmt 4.6, Leading zero omitted, Abs format (unit mm)*
G04 Created by KiCad (PCBNEW 9.0.6) date 2025-12-01 18:27:25*
%MOMM*%
%LPD*%
G01*
G04 APERTURE LIST*
G04 Aperture macros list*
%AMRoundRect*
0 Rectangle with rounded corners*
0 $1 Rounding radius*
0 $2 $3 $4 $5 $6 $7 $8 $9 X,Y pos of 4 corners*
0 Add a 4 corners polygon primitive as box body*
4,1,4,$2,$3,$4,$5,$6,$7,$8,$9,$2,$3,0*
0 Add four circle primitives for the rounded corners*
1,1,$1+$1,$2,$3*
1,1,$1+$1,$4,$5*
1,1,$1+$1,$6,$7*
1,1,$1+$1,$8,$9*
0 Add four rect primitives between the rounded corners*
20,1,$1+$1,$2,$3,$4,$5,0*
20,1,$1+$1,$4,$5,$6,$7,0*
20,1,$1+$1,$6,$7,$8,$9,0*
20,1,$1+$1,$8,$9,$2,$3,0*%
G04 Aperture macros list end*
%ADD10RoundRect,0.250000X-0.475000X0.337500X-0.475000X-0.337500X0.475000X-0.337500X0.475000X0.337500X0*%
%ADD11RoundRect,0.250000X0.337500X0.475000X-0.337500X0.475000X-0.337500X-0.475000X0.337500X-0.475000X0*%
%ADD12RoundRect,0.250000X0.475000X-0.337500X0.475000X0.337500X-0.475000X0.337500X-0.475000X-0.337500X0*%
%ADD13RoundRect,0.150000X0.450000X0.350000X-0.450000X0.350000X-0.450000X-0.350000X0.450000X-0.350000X0*%
%ADD14RoundRect,0.237500X-0.237500X0.287500X-0.237500X-0.287500X0.237500X-0.287500X0.237500X0.287500X0*%
%ADD15R,1.500000X0.300000*%
%ADD16R,1.600000X4.500000*%
%ADD17R,1.700000X3.300000*%
%ADD18R,0.600000X0.250000*%
%ADD19RoundRect,0.237500X0.237500X-0.287500X0.237500X0.287500X-0.237500X0.287500X-0.237500X-0.287500X0*%
%ADD20R,0.900000X1.500000*%
%ADD21R,1.500000X0.900000*%
%ADD22R,0.900000X0.900000*%
%ADD23RoundRect,0.250001X-0.624999X0.462499X-0.624999X-0.462499X0.624999X-0.462499X0.624999X0.462499X0*%
%ADD24R,0.606400X0.200000*%
%ADD25RoundRect,0.250000X0.350000X0.450000X-0.350000X0.450000X-0.350000X-0.450000X0.350000X-0.450000X0*%
%ADD26RoundRect,0.250000X0.450000X-0.350000X0.450000X0.350000X-0.450000X0.350000X-0.450000X-0.350000X0*%
%TA.AperFunction,Profile*%
%ADD27C,0.150000*%
%TD*%
G04 APERTURE END LIST*
D10*
%TO.C,C14*%
X-27750000Y-19137500D03*
X-27750000Y-17062500D03*
%TD*%
D11*
%TO.C,C5*%
X-60075000Y-22800000D03*
X-58000000Y-22800000D03*
%TD*%
D10*
%TO.C,CP6*%
X-66550000Y-15175000D03*
X-66550000Y-17250000D03*
%TD*%
D12*
%TO.C,C9*%
X-78290000Y-3875000D03*
X-78290000Y-1800000D03*
%TD*%
D10*
%TO.C,CP4*%
X-61950000Y-15175000D03*
X-61950000Y-17250000D03*
%TD*%
%TO.C,CP5*%
X-64250000Y-15175000D03*
X-64250000Y-17250000D03*
%TD*%
D12*
%TO.C,CP2*%
X-66550000Y-12775000D03*
X-66550000Y-10700000D03*
%TD*%
D13*
%TO.C,BOOT1*%
X-40700000Y-25850000D03*
X-45200000Y-25850000D03*
X-40700000Y-23650000D03*
X-45200000Y-23650000D03*
%TD*%
D14*
%TO.C,LED-W1*%
X-62300000Y-21900000D03*
X-62300000Y-23650000D03*
%TD*%
D15*
%TO.C,USBC-V1*%
X-31730000Y-15600000D03*
X-31730000Y-17100000D03*
X-31730000Y-17600000D03*
X-31730000Y-18100000D03*
X-31730000Y-18600000D03*
X-31730000Y-19100000D03*
X-31730000Y-19600000D03*
X-31730000Y-21100000D03*
X-35050000Y-21100000D03*
X-35050000Y-19600000D03*
X-35050000Y-19100000D03*
X-35050000Y-18600000D03*
X-35050000Y-18100000D03*
X-35050000Y-17600000D03*
X-35050000Y-17100000D03*
X-35050000Y-15600000D03*
%TD*%
D16*
%TO.C,L1*%
X-75390000Y-11725000D03*
X-71490000Y-11725000D03*
%TD*%
D17*
%TO.C,T1*%
X-72566000Y-5625000D03*
D18*
X-73966000Y-4375000D03*
X-73966000Y-4875000D03*
X-73966000Y-5375000D03*
X-73966000Y-5875000D03*
X-73966000Y-6375000D03*
X-73966000Y-6875000D03*
X-71166000Y-6875000D03*
X-71166000Y-6375000D03*
X-71166000Y-5875000D03*
X-71166000Y-5375000D03*
X-71166000Y-4875000D03*
X-71166000Y-4375000D03*
%TD*%
D12*
%TO.C,CP1*%
X-68850000Y-12775000D03*
X-68850000Y-10700000D03*
%TD*%
%TO.C,C10*%
X-78250000Y-13700000D03*
X-78250000Y-11625000D03*
%TD*%
D19*
%TO.C,LED-OK1*%
X-62300000Y-27787500D03*
X-62300000Y-26037500D03*
%TD*%
D10*
%TO.C,C11*%
X-67190000Y-5875000D03*
X-67190000Y-7950000D03*
%TD*%
D20*
%TO.C,U3*%
X-57310000Y-18900000D03*
X-56040000Y-18900000D03*
X-54770000Y-18900000D03*
X-53500000Y-18900000D03*
X-52230000Y-18900000D03*
X-50960000Y-18900000D03*
X-49690000Y-18900000D03*
X-48420000Y-18900000D03*
X-47150000Y-18900000D03*
X-45880000Y-18900000D03*
X-44610000Y-18900000D03*
X-43340000Y-18900000D03*
X-42070000Y-18900000D03*
X-40800000Y-18900000D03*
D21*
X-39550000Y-17135000D03*
X-39550000Y-15865000D03*
X-39550000Y-14595000D03*
X-39550000Y-13325000D03*
X-39550000Y-12055000D03*
X-39550000Y-10785000D03*
X-39550000Y-9515000D03*
X-39550000Y-8245000D03*
X-39550000Y-6975000D03*
X-39550000Y-5705000D03*
X-39550000Y-4435000D03*
X-39550000Y-3165000D03*
D20*
X-40800000Y-1400000D03*
X-42070000Y-1400000D03*
X-43340000Y-1400000D03*
X-44610000Y-1400000D03*
X-45880000Y-1400000D03*
X-47150000Y-1400000D03*
X-48420000Y-1400000D03*
X-49690000Y-1400000D03*
X-50960000Y-1400000D03*
X-52230000Y-1400000D03*
X-53500000Y-1400000D03*
X-54770000Y-1400000D03*
X-56040000Y-1400000D03*
X-57310000Y-1400000D03*
D22*
X-50990000Y-13050000D03*
X-49590000Y-13050000D03*
X-48190000Y-13050000D03*
X-48190000Y-13050000D03*
X-50990000Y-11650000D03*
X-50990000Y-11650000D03*
X-49590000Y-11650000D03*
X-48190000Y-11650000D03*
X-50990000Y-10250000D03*
X-49590000Y-10250000D03*
X-48190000Y-10250000D03*
%TD*%
D23*
%TO.C,F1*%
X-69200000Y-27812500D03*
X-69200000Y-30787500D03*
%TD*%
D12*
%TO.C,CP3*%
X-64250000Y-12775000D03*
X-64250000Y-10700000D03*
%TD*%
D24*
%TO.C,U1*%
X-39600000Y-21050000D03*
X-39600000Y-21749998D03*
X-38860200Y-21399999D03*
%TD*%
D11*
%TO.C,C8*%
X-32112500Y-10400000D03*
X-34187500Y-10400000D03*
%TD*%
D25*
%TO.C,R10*%
X-72990000Y-1875000D03*
X-74990000Y-1875000D03*
%TD*%
D11*
%TO.C,C3*%
X-58000000Y-25000000D03*
X-60075000Y-25000000D03*
%TD*%
D13*
%TO.C,RESET1*%
X-48100000Y-25850000D03*
X-52600000Y-25850000D03*
X-48100000Y-23650000D03*
X-52600000Y-23650000D03*
%TD*%
D10*
%TO.C,C12*%
X-67190000Y-1700000D03*
X-67190000Y-3775000D03*
%TD*%
D26*
%TO.C,R8*%
X-64590000Y-3775000D03*
X-64590000Y-1775000D03*
%TD*%
D12*
%TO.C,CP7*%
X-61950000Y-12775000D03*
X-61950000Y-10700000D03*
%TD*%
D26*
%TO.C,R11*%
X-78290000Y-7875000D03*
X-78290000Y-5875000D03*
%TD*%
%TO.C,R9*%
X-64590000Y-7875000D03*
X-64590000Y-5875000D03*
%TD*%
D27*
X-87300000Y-34802808D02*
G75*
G02*
X-86896404Y-34000123I999996J3D01*
G01*
X-82050000Y-29896382D02*
G75*
G02*
X-82454634Y-30699837I-1000000J0D01*
G01*
X-86896404Y-34000123D02*
X-82454634Y-30699837D01*
X-85383198Y-17350000D02*
G75*
G02*
X-84714930Y-17606079I-2J-1000006D01*
G01*
X-82381732Y-19702003D02*
G75*
G02*
X-82050000Y-20445924I-668261J-743918D01*
G01*
X-82381732Y-19702003D02*
X-84714930Y-17606079D01*
X-21000000Y-32400000D02*
G75*
G02*
X-22000000Y-33400000I-999999J-1D01*
G01*
X-28650000Y-39000000D02*
G75*
G02*
X-29650000Y-40000000I-999999J-1D01*
G01*
X-21000000Y-15900000D02*
X-21000000Y-32400000D01*
X-24400000Y-33400000D02*
X-22000000Y-33400000D01*
X-28650000Y-37650000D02*
X-28650000Y-39000000D01*
X-28650000Y-37650000D02*
G75*
G02*
X-24400000Y-33400000I4250000J0D01*
G01*
X-20300000Y-10803611D02*
G75*
G02*
X-28307222Y-10803611I-4003611J0D01*
G01*
X-28307222Y-10803611D02*
G75*
G02*
X-20300000Y-10803611I4003611J0D01*
G01*
X-22000000Y-14900000D02*
G75*
G02*
X-21000000Y-15900000I1J-999999D01*
G01*
X-27500000Y-14900000D02*
X-22000000Y-14900000D01*
X-27500000Y-14900000D02*
G75*
G02*
X-28500000Y-13900000I-1J999999D01*
G01*
X-21000000Y-5750000D02*
G75*
G02*
X-22000000Y-6750000I-999999J-1D01*
G01*
X-90690001Y-6400000D02*
X-89389999Y-6400000D01*
X-28500000Y-7750000D02*
X-28500000Y-13900000D01*
X-90690000Y-17350000D02*
G75*
G02*
X-91690000Y-16350000I-1J999999D01*
G01*
X-91690000Y-7400000D02*
G75*
G02*
X-90690000Y-6400000I999999J1D01*
G01*
X-85890000Y-2900000D02*
G75*
G02*
X-89390000Y-6400000I-3499999J-1D01*
G01*
X-82050000Y-29896382D02*
X-82050000Y-20445924D01*
X-21000000Y-5750000D02*
X-21000000Y-1000000D01*
X-22000000Y0D02*
G75*
G02*
X-21000000Y-1000000I1J-999999D01*
G01*
X-87300000Y-39000000D02*
X-87300000Y-34802808D01*
X-86300000Y-40000000D02*
G75*
G02*
X-87300000Y-39000000I-1J999999D01*
G01*
X-85890000Y-1000000D02*
X-85890000Y-2900000D01*
X-91690000Y-7400000D02*
X-91690000Y-16350000D01*
X-22000000Y0D02*
X-28500000Y0D01*
X-28500000Y0D02*
X-84890000Y0D01*
X-90690000Y-17350000D02*
X-85383198Y-17350000D01*
X-28500000Y-7750000D02*
G75*
G02*
X-27500000Y-6750000I999999J1D01*
G01*
X-29650000Y-40000000D02*
X-86300000Y-40000000D01*
X-27500000Y-6750000D02*
X-22000000Y-6750000D01*
X-85890000Y-1000000D02*
G75*
G02*
X-84890000Y0I999999J1D01*
G01*
M02*
