%TF.GenerationSoftware,KiCad,Pcbnew,9.0.1*%
%TF.CreationDate,2025-07-07T12:26:20-04:00*%
%TF.ProjectId,cablight-project,6361626c-6967-4687-942d-70726f6a6563,rev?*%
%TF.SameCoordinates,Original*%
%TF.FileFunction,Drillmap*%
%TF.FilePolarity,Positive*%
%FSLAX45Y45*%
G04 Gerber Fmt 4.5, Leading zero omitted, Abs format (unit mm)*
G04 Created by KiCad (PCBNEW 9.0.1) date 2025-07-07 12:26:20*
%MOMM*%
%LPD*%
G01*
G04 APERTURE LIST*
%ADD10C,0.150000*%
%ADD11C,0.200000*%
G04 APERTURE END LIST*
D10*
X-6300000Y-1700000D02*
X-6300000Y-3311722D01*
X-7100000Y-3588278D02*
G75*
G02*
X-7012403Y-3489052I100000J-2D01*
G01*
X-6300000Y-3311722D02*
G75*
G02*
X-6387597Y-3410948I-100000J2D01*
G01*
X-1870000Y-4200000D02*
X0Y-4200000D01*
X-7800000Y-1141421D02*
G75*
G02*
X-7770711Y-1070710I100000J1D01*
G01*
X-2930000Y-3980000D02*
X-2930000Y-4000000D01*
X0Y0D02*
X0Y-4200000D01*
X-2930000Y-3980000D02*
G75*
G02*
X-2070000Y-3980000I430000J0D01*
G01*
X-7700000Y-1600000D02*
X-6400000Y-1600000D01*
X-1870000Y-4200000D02*
G75*
G02*
X-2070000Y-4000000I0J200000D01*
G01*
X-6729289Y-29289D02*
X-7770711Y-1070711D01*
X-2523800Y-493000D02*
G75*
G02*
X-3323800Y-493000I-400000J0D01*
G01*
X-3323800Y-493000D02*
G75*
G02*
X-2523800Y-493000I400000J0D01*
G01*
X-7800000Y-1141421D02*
X-7800000Y-1500000D01*
X0Y0D02*
X-6658579Y0D01*
X-6400000Y-1600000D02*
G75*
G02*
X-6300000Y-1700000I0J-100000D01*
G01*
X-7700000Y-1600000D02*
G75*
G02*
X-7800000Y-1500000I0J100000D01*
G01*
X-7100000Y-3588278D02*
X-7100000Y-4100000D01*
X-2930000Y-4000000D02*
G75*
G02*
X-3130000Y-4200000I-200000J0D01*
G01*
X-6729289Y-29289D02*
G75*
G02*
X-6658579Y-4I70709J-70721D01*
G01*
X-7000000Y-4200000D02*
G75*
G02*
X-7100000Y-4100000I0J100000D01*
G01*
X-3130000Y-4200000D02*
X-7000000Y-4200000D01*
X-6387596Y-3410950D02*
X-7012403Y-3489050D01*
X-2070000Y-4000000D02*
X-2070000Y-3980000D01*
D11*
X-7546723Y-4518984D02*
X-7546723Y-4318984D01*
X-7546723Y-4318984D02*
X-7499104Y-4318984D01*
X-7499104Y-4318984D02*
X-7470533Y-4328508D01*
X-7470533Y-4328508D02*
X-7451485Y-4347555D01*
X-7451485Y-4347555D02*
X-7441961Y-4366603D01*
X-7441961Y-4366603D02*
X-7432437Y-4404698D01*
X-7432437Y-4404698D02*
X-7432437Y-4433270D01*
X-7432437Y-4433270D02*
X-7441961Y-4471365D01*
X-7441961Y-4471365D02*
X-7451485Y-4490412D01*
X-7451485Y-4490412D02*
X-7470533Y-4509460D01*
X-7470533Y-4509460D02*
X-7499104Y-4518984D01*
X-7499104Y-4518984D02*
X-7546723Y-4518984D01*
X-7346723Y-4518984D02*
X-7346723Y-4385650D01*
X-7346723Y-4423746D02*
X-7337199Y-4404698D01*
X-7337199Y-4404698D02*
X-7327675Y-4395174D01*
X-7327675Y-4395174D02*
X-7308628Y-4385650D01*
X-7308628Y-4385650D02*
X-7289580Y-4385650D01*
X-7222914Y-4518984D02*
X-7222914Y-4385650D01*
X-7222914Y-4318984D02*
X-7232437Y-4328508D01*
X-7232437Y-4328508D02*
X-7222914Y-4338031D01*
X-7222914Y-4338031D02*
X-7213390Y-4328508D01*
X-7213390Y-4328508D02*
X-7222914Y-4318984D01*
X-7222914Y-4318984D02*
X-7222914Y-4338031D01*
X-7099104Y-4518984D02*
X-7118152Y-4509460D01*
X-7118152Y-4509460D02*
X-7127675Y-4490412D01*
X-7127675Y-4490412D02*
X-7127675Y-4318984D01*
X-6994342Y-4518984D02*
X-7013390Y-4509460D01*
X-7013390Y-4509460D02*
X-7022914Y-4490412D01*
X-7022914Y-4490412D02*
X-7022914Y-4318984D01*
X-6765771Y-4518984D02*
X-6765771Y-4318984D01*
X-6765771Y-4318984D02*
X-6699104Y-4461841D01*
X-6699104Y-4461841D02*
X-6632437Y-4318984D01*
X-6632437Y-4318984D02*
X-6632437Y-4518984D01*
X-6451485Y-4518984D02*
X-6451485Y-4414222D01*
X-6451485Y-4414222D02*
X-6461009Y-4395174D01*
X-6461009Y-4395174D02*
X-6480056Y-4385650D01*
X-6480056Y-4385650D02*
X-6518152Y-4385650D01*
X-6518152Y-4385650D02*
X-6537199Y-4395174D01*
X-6451485Y-4509460D02*
X-6470533Y-4518984D01*
X-6470533Y-4518984D02*
X-6518152Y-4518984D01*
X-6518152Y-4518984D02*
X-6537199Y-4509460D01*
X-6537199Y-4509460D02*
X-6546723Y-4490412D01*
X-6546723Y-4490412D02*
X-6546723Y-4471365D01*
X-6546723Y-4471365D02*
X-6537199Y-4452317D01*
X-6537199Y-4452317D02*
X-6518152Y-4442793D01*
X-6518152Y-4442793D02*
X-6470533Y-4442793D01*
X-6470533Y-4442793D02*
X-6451485Y-4433270D01*
X-6356247Y-4385650D02*
X-6356247Y-4585650D01*
X-6356247Y-4395174D02*
X-6337199Y-4385650D01*
X-6337199Y-4385650D02*
X-6299104Y-4385650D01*
X-6299104Y-4385650D02*
X-6280056Y-4395174D01*
X-6280056Y-4395174D02*
X-6270533Y-4404698D01*
X-6270533Y-4404698D02*
X-6261009Y-4423746D01*
X-6261009Y-4423746D02*
X-6261009Y-4480889D01*
X-6261009Y-4480889D02*
X-6270533Y-4499936D01*
X-6270533Y-4499936D02*
X-6280056Y-4509460D01*
X-6280056Y-4509460D02*
X-6299104Y-4518984D01*
X-6299104Y-4518984D02*
X-6337199Y-4518984D01*
X-6337199Y-4518984D02*
X-6356247Y-4509460D01*
X-6175294Y-4499936D02*
X-6165771Y-4509460D01*
X-6165771Y-4509460D02*
X-6175294Y-4518984D01*
X-6175294Y-4518984D02*
X-6184818Y-4509460D01*
X-6184818Y-4509460D02*
X-6175294Y-4499936D01*
X-6175294Y-4499936D02*
X-6175294Y-4518984D01*
X-6175294Y-4395174D02*
X-6165771Y-4404698D01*
X-6165771Y-4404698D02*
X-6175294Y-4414222D01*
X-6175294Y-4414222D02*
X-6184818Y-4404698D01*
X-6184818Y-4404698D02*
X-6175294Y-4395174D01*
X-6175294Y-4395174D02*
X-6175294Y-4414222D01*
M02*
