%TF.GenerationSoftware,KiCad,Pcbnew,9.0.6*%
%TF.CreationDate,2025-12-01T18:27:30-05:00*%
%TF.ProjectId,cablight-project,6361626c-6967-4687-942d-70726f6a6563,rev?*%
%TF.SameCoordinates,Original*%
%TF.FileFunction,Drillmap*%
%TF.FilePolarity,Positive*%
%FSLAX45Y45*%
G04 Gerber Fmt 4.5, Leading zero omitted, Abs format (unit mm)*
G04 Created by KiCad (PCBNEW 9.0.6) date 2025-12-01 18:27:30*
%MOMM*%
%LPD*%
G01*
G04 APERTURE LIST*
%ADD10C,0.150000*%
%ADD11C,0.200000*%
%ADD12C,0.100000*%
G04 APERTURE END LIST*
D10*
X-8730000Y-3480281D02*
G75*
G02*
X-8689640Y-3400012I100000J0D01*
G01*
X-8205000Y-2989638D02*
G75*
G02*
X-8245463Y-3069984I-100000J0D01*
G01*
X-8689640Y-3400012D02*
X-8245463Y-3069984D01*
X-8538320Y-1735000D02*
G75*
G02*
X-8471493Y-1760608I0J-100001D01*
G01*
X-8238173Y-1970200D02*
G75*
G02*
X-8205000Y-2044592I-66826J-74392D01*
G01*
X-8238173Y-1970200D02*
X-8471493Y-1760608D01*
X-2100000Y-3240000D02*
G75*
G02*
X-2200000Y-3340000I-100000J0D01*
G01*
X-2865000Y-3900000D02*
G75*
G02*
X-2965000Y-4000000I-100000J0D01*
G01*
X-2100000Y-1590000D02*
X-2100000Y-3240000D01*
X-2440000Y-3340000D02*
X-2200000Y-3340000D01*
X-2865000Y-3765000D02*
X-2865000Y-3900000D01*
X-2865000Y-3765000D02*
G75*
G02*
X-2440000Y-3340000I425000J0D01*
G01*
X-2030000Y-1080361D02*
G75*
G02*
X-2830722Y-1080361I-400361J0D01*
G01*
X-2830722Y-1080361D02*
G75*
G02*
X-2030000Y-1080361I400361J0D01*
G01*
X-2200000Y-1490000D02*
G75*
G02*
X-2100000Y-1590000I0J-100000D01*
G01*
X-2750000Y-1490000D02*
X-2200000Y-1490000D01*
X-2750000Y-1490000D02*
G75*
G02*
X-2850000Y-1390000I0J100000D01*
G01*
X-2100000Y-575000D02*
G75*
G02*
X-2200000Y-675000I-100000J0D01*
G01*
X-9069000Y-640000D02*
X-8939000Y-640000D01*
X-2850000Y-775000D02*
X-2850000Y-1390000D01*
X-9069000Y-1735000D02*
G75*
G02*
X-9169000Y-1635000I0J100000D01*
G01*
X-9169000Y-740000D02*
G75*
G02*
X-9069000Y-640000I100000J0D01*
G01*
X-8589000Y-290000D02*
G75*
G02*
X-8939000Y-640000I-350000J0D01*
G01*
X-8205000Y-2989638D02*
X-8205000Y-2044592D01*
X-2100000Y-575000D02*
X-2100000Y-100000D01*
X-2200000Y0D02*
G75*
G02*
X-2100000Y-100000I0J-100000D01*
G01*
X-8730000Y-3900000D02*
X-8730000Y-3480281D01*
X-8630000Y-4000000D02*
G75*
G02*
X-8730000Y-3900000I0J100000D01*
G01*
X-8589000Y-100000D02*
X-8589000Y-290000D01*
X-9169000Y-740000D02*
X-9169000Y-1635000D01*
X-2200000Y0D02*
X-2850000Y0D01*
X-2850000Y0D02*
X-8489000Y0D01*
X-9069000Y-1735000D02*
X-8538320Y-1735000D01*
X-2850000Y-775000D02*
G75*
G02*
X-2750000Y-675000I100000J0D01*
G01*
X-2965000Y-4000000D02*
X-8630000Y-4000000D01*
X-2750000Y-675000D02*
X-2200000Y-675000D01*
X-8589000Y-100000D02*
G75*
G02*
X-8489000Y0I100000J0D01*
G01*
D11*
D12*
X-3374500Y-1399500D02*
X-3303500Y-1470500D01*
X-3303500Y-1399500D02*
X-3374500Y-1470500D01*
X-3374500Y-2199500D02*
X-3303500Y-2270500D01*
X-3303500Y-2199500D02*
X-3374500Y-2270500D01*
D11*
X-8915723Y-4318984D02*
X-8915723Y-4118984D01*
X-8915723Y-4118984D02*
X-8868104Y-4118984D01*
X-8868104Y-4118984D02*
X-8839533Y-4128508D01*
X-8839533Y-4128508D02*
X-8820485Y-4147555D01*
X-8820485Y-4147555D02*
X-8810961Y-4166603D01*
X-8810961Y-4166603D02*
X-8801437Y-4204698D01*
X-8801437Y-4204698D02*
X-8801437Y-4233270D01*
X-8801437Y-4233270D02*
X-8810961Y-4271365D01*
X-8810961Y-4271365D02*
X-8820485Y-4290412D01*
X-8820485Y-4290412D02*
X-8839533Y-4309460D01*
X-8839533Y-4309460D02*
X-8868104Y-4318984D01*
X-8868104Y-4318984D02*
X-8915723Y-4318984D01*
X-8715723Y-4318984D02*
X-8715723Y-4185650D01*
X-8715723Y-4223746D02*
X-8706199Y-4204698D01*
X-8706199Y-4204698D02*
X-8696676Y-4195174D01*
X-8696676Y-4195174D02*
X-8677628Y-4185650D01*
X-8677628Y-4185650D02*
X-8658580Y-4185650D01*
X-8591914Y-4318984D02*
X-8591914Y-4185650D01*
X-8591914Y-4118984D02*
X-8601437Y-4128508D01*
X-8601437Y-4128508D02*
X-8591914Y-4138031D01*
X-8591914Y-4138031D02*
X-8582390Y-4128508D01*
X-8582390Y-4128508D02*
X-8591914Y-4118984D01*
X-8591914Y-4118984D02*
X-8591914Y-4138031D01*
X-8468104Y-4318984D02*
X-8487152Y-4309460D01*
X-8487152Y-4309460D02*
X-8496676Y-4290412D01*
X-8496676Y-4290412D02*
X-8496676Y-4118984D01*
X-8363342Y-4318984D02*
X-8382390Y-4309460D01*
X-8382390Y-4309460D02*
X-8391914Y-4290412D01*
X-8391914Y-4290412D02*
X-8391914Y-4118984D01*
X-8134771Y-4318984D02*
X-8134771Y-4118984D01*
X-8134771Y-4118984D02*
X-8068104Y-4261841D01*
X-8068104Y-4261841D02*
X-8001437Y-4118984D01*
X-8001437Y-4118984D02*
X-8001437Y-4318984D01*
X-7820485Y-4318984D02*
X-7820485Y-4214222D01*
X-7820485Y-4214222D02*
X-7830009Y-4195174D01*
X-7830009Y-4195174D02*
X-7849056Y-4185650D01*
X-7849056Y-4185650D02*
X-7887152Y-4185650D01*
X-7887152Y-4185650D02*
X-7906199Y-4195174D01*
X-7820485Y-4309460D02*
X-7839533Y-4318984D01*
X-7839533Y-4318984D02*
X-7887152Y-4318984D01*
X-7887152Y-4318984D02*
X-7906199Y-4309460D01*
X-7906199Y-4309460D02*
X-7915723Y-4290412D01*
X-7915723Y-4290412D02*
X-7915723Y-4271365D01*
X-7915723Y-4271365D02*
X-7906199Y-4252317D01*
X-7906199Y-4252317D02*
X-7887152Y-4242793D01*
X-7887152Y-4242793D02*
X-7839533Y-4242793D01*
X-7839533Y-4242793D02*
X-7820485Y-4233270D01*
X-7725247Y-4185650D02*
X-7725247Y-4385650D01*
X-7725247Y-4195174D02*
X-7706199Y-4185650D01*
X-7706199Y-4185650D02*
X-7668104Y-4185650D01*
X-7668104Y-4185650D02*
X-7649056Y-4195174D01*
X-7649056Y-4195174D02*
X-7639533Y-4204698D01*
X-7639533Y-4204698D02*
X-7630009Y-4223746D01*
X-7630009Y-4223746D02*
X-7630009Y-4280889D01*
X-7630009Y-4280889D02*
X-7639533Y-4299936D01*
X-7639533Y-4299936D02*
X-7649056Y-4309460D01*
X-7649056Y-4309460D02*
X-7668104Y-4318984D01*
X-7668104Y-4318984D02*
X-7706199Y-4318984D01*
X-7706199Y-4318984D02*
X-7725247Y-4309460D01*
X-7544294Y-4299936D02*
X-7534771Y-4309460D01*
X-7534771Y-4309460D02*
X-7544294Y-4318984D01*
X-7544294Y-4318984D02*
X-7553818Y-4309460D01*
X-7553818Y-4309460D02*
X-7544294Y-4299936D01*
X-7544294Y-4299936D02*
X-7544294Y-4318984D01*
X-7544294Y-4195174D02*
X-7534771Y-4204698D01*
X-7534771Y-4204698D02*
X-7544294Y-4214222D01*
X-7544294Y-4214222D02*
X-7553818Y-4204698D01*
X-7553818Y-4204698D02*
X-7544294Y-4195174D01*
X-7544294Y-4195174D02*
X-7544294Y-4214222D01*
D12*
X-9247500Y-4612000D02*
X-9176500Y-4683000D01*
X-9176500Y-4612000D02*
X-9247500Y-4683000D01*
D11*
X-8877628Y-4538984D02*
X-8858580Y-4538984D01*
X-8858580Y-4538984D02*
X-8839533Y-4548508D01*
X-8839533Y-4548508D02*
X-8830009Y-4558031D01*
X-8830009Y-4558031D02*
X-8820485Y-4577079D01*
X-8820485Y-4577079D02*
X-8810961Y-4615174D01*
X-8810961Y-4615174D02*
X-8810961Y-4662793D01*
X-8810961Y-4662793D02*
X-8820485Y-4700889D01*
X-8820485Y-4700889D02*
X-8830009Y-4719936D01*
X-8830009Y-4719936D02*
X-8839533Y-4729460D01*
X-8839533Y-4729460D02*
X-8858580Y-4738984D01*
X-8858580Y-4738984D02*
X-8877628Y-4738984D01*
X-8877628Y-4738984D02*
X-8896676Y-4729460D01*
X-8896676Y-4729460D02*
X-8906199Y-4719936D01*
X-8906199Y-4719936D02*
X-8915723Y-4700889D01*
X-8915723Y-4700889D02*
X-8925247Y-4662793D01*
X-8925247Y-4662793D02*
X-8925247Y-4615174D01*
X-8925247Y-4615174D02*
X-8915723Y-4577079D01*
X-8915723Y-4577079D02*
X-8906199Y-4558031D01*
X-8906199Y-4558031D02*
X-8896676Y-4548508D01*
X-8896676Y-4548508D02*
X-8877628Y-4538984D01*
X-8725247Y-4719936D02*
X-8715723Y-4729460D01*
X-8715723Y-4729460D02*
X-8725247Y-4738984D01*
X-8725247Y-4738984D02*
X-8734771Y-4729460D01*
X-8734771Y-4729460D02*
X-8725247Y-4719936D01*
X-8725247Y-4719936D02*
X-8725247Y-4738984D01*
X-8649056Y-4538984D02*
X-8515723Y-4538984D01*
X-8515723Y-4538984D02*
X-8601437Y-4738984D01*
X-8334771Y-4738984D02*
X-8449056Y-4738984D01*
X-8391914Y-4738984D02*
X-8391914Y-4538984D01*
X-8391914Y-4538984D02*
X-8410961Y-4567555D01*
X-8410961Y-4567555D02*
X-8430009Y-4586603D01*
X-8430009Y-4586603D02*
X-8449056Y-4596127D01*
X-8210961Y-4538984D02*
X-8191913Y-4538984D01*
X-8191913Y-4538984D02*
X-8172866Y-4548508D01*
X-8172866Y-4548508D02*
X-8163342Y-4558031D01*
X-8163342Y-4558031D02*
X-8153818Y-4577079D01*
X-8153818Y-4577079D02*
X-8144294Y-4615174D01*
X-8144294Y-4615174D02*
X-8144294Y-4662793D01*
X-8144294Y-4662793D02*
X-8153818Y-4700889D01*
X-8153818Y-4700889D02*
X-8163342Y-4719936D01*
X-8163342Y-4719936D02*
X-8172866Y-4729460D01*
X-8172866Y-4729460D02*
X-8191913Y-4738984D01*
X-8191913Y-4738984D02*
X-8210961Y-4738984D01*
X-8210961Y-4738984D02*
X-8230009Y-4729460D01*
X-8230009Y-4729460D02*
X-8239533Y-4719936D01*
X-8239533Y-4719936D02*
X-8249056Y-4700889D01*
X-8249056Y-4700889D02*
X-8258580Y-4662793D01*
X-8258580Y-4662793D02*
X-8258580Y-4615174D01*
X-8258580Y-4615174D02*
X-8249056Y-4577079D01*
X-8249056Y-4577079D02*
X-8239533Y-4558031D01*
X-8239533Y-4558031D02*
X-8230009Y-4548508D01*
X-8230009Y-4548508D02*
X-8210961Y-4538984D01*
X-8058580Y-4738984D02*
X-8058580Y-4605650D01*
X-8058580Y-4624698D02*
X-8049056Y-4615174D01*
X-8049056Y-4615174D02*
X-8030009Y-4605650D01*
X-8030009Y-4605650D02*
X-8001437Y-4605650D01*
X-8001437Y-4605650D02*
X-7982390Y-4615174D01*
X-7982390Y-4615174D02*
X-7972866Y-4634222D01*
X-7972866Y-4634222D02*
X-7972866Y-4738984D01*
X-7972866Y-4634222D02*
X-7963342Y-4615174D01*
X-7963342Y-4615174D02*
X-7944294Y-4605650D01*
X-7944294Y-4605650D02*
X-7915723Y-4605650D01*
X-7915723Y-4605650D02*
X-7896675Y-4615174D01*
X-7896675Y-4615174D02*
X-7887152Y-4634222D01*
X-7887152Y-4634222D02*
X-7887152Y-4738984D01*
X-7791913Y-4738984D02*
X-7791913Y-4605650D01*
X-7791913Y-4624698D02*
X-7782390Y-4615174D01*
X-7782390Y-4615174D02*
X-7763342Y-4605650D01*
X-7763342Y-4605650D02*
X-7734771Y-4605650D01*
X-7734771Y-4605650D02*
X-7715723Y-4615174D01*
X-7715723Y-4615174D02*
X-7706199Y-4634222D01*
X-7706199Y-4634222D02*
X-7706199Y-4738984D01*
X-7706199Y-4634222D02*
X-7696675Y-4615174D01*
X-7696675Y-4615174D02*
X-7677628Y-4605650D01*
X-7677628Y-4605650D02*
X-7649056Y-4605650D01*
X-7649056Y-4605650D02*
X-7630009Y-4615174D01*
X-7630009Y-4615174D02*
X-7620485Y-4634222D01*
X-7620485Y-4634222D02*
X-7620485Y-4738984D01*
X-7230009Y-4529460D02*
X-7401437Y-4786603D01*
X-6972866Y-4538984D02*
X-6953818Y-4538984D01*
X-6953818Y-4538984D02*
X-6934770Y-4548508D01*
X-6934770Y-4548508D02*
X-6925247Y-4558031D01*
X-6925247Y-4558031D02*
X-6915723Y-4577079D01*
X-6915723Y-4577079D02*
X-6906199Y-4615174D01*
X-6906199Y-4615174D02*
X-6906199Y-4662793D01*
X-6906199Y-4662793D02*
X-6915723Y-4700889D01*
X-6915723Y-4700889D02*
X-6925247Y-4719936D01*
X-6925247Y-4719936D02*
X-6934770Y-4729460D01*
X-6934770Y-4729460D02*
X-6953818Y-4738984D01*
X-6953818Y-4738984D02*
X-6972866Y-4738984D01*
X-6972866Y-4738984D02*
X-6991913Y-4729460D01*
X-6991913Y-4729460D02*
X-7001437Y-4719936D01*
X-7001437Y-4719936D02*
X-7010961Y-4700889D01*
X-7010961Y-4700889D02*
X-7020485Y-4662793D01*
X-7020485Y-4662793D02*
X-7020485Y-4615174D01*
X-7020485Y-4615174D02*
X-7010961Y-4577079D01*
X-7010961Y-4577079D02*
X-7001437Y-4558031D01*
X-7001437Y-4558031D02*
X-6991913Y-4548508D01*
X-6991913Y-4548508D02*
X-6972866Y-4538984D01*
X-6820485Y-4719936D02*
X-6810961Y-4729460D01*
X-6810961Y-4729460D02*
X-6820485Y-4738984D01*
X-6820485Y-4738984D02*
X-6830009Y-4729460D01*
X-6830009Y-4729460D02*
X-6820485Y-4719936D01*
X-6820485Y-4719936D02*
X-6820485Y-4738984D01*
X-6687151Y-4538984D02*
X-6668104Y-4538984D01*
X-6668104Y-4538984D02*
X-6649056Y-4548508D01*
X-6649056Y-4548508D02*
X-6639532Y-4558031D01*
X-6639532Y-4558031D02*
X-6630009Y-4577079D01*
X-6630009Y-4577079D02*
X-6620485Y-4615174D01*
X-6620485Y-4615174D02*
X-6620485Y-4662793D01*
X-6620485Y-4662793D02*
X-6630009Y-4700889D01*
X-6630009Y-4700889D02*
X-6639532Y-4719936D01*
X-6639532Y-4719936D02*
X-6649056Y-4729460D01*
X-6649056Y-4729460D02*
X-6668104Y-4738984D01*
X-6668104Y-4738984D02*
X-6687151Y-4738984D01*
X-6687151Y-4738984D02*
X-6706199Y-4729460D01*
X-6706199Y-4729460D02*
X-6715723Y-4719936D01*
X-6715723Y-4719936D02*
X-6725247Y-4700889D01*
X-6725247Y-4700889D02*
X-6734770Y-4662793D01*
X-6734770Y-4662793D02*
X-6734770Y-4615174D01*
X-6734770Y-4615174D02*
X-6725247Y-4577079D01*
X-6725247Y-4577079D02*
X-6715723Y-4558031D01*
X-6715723Y-4558031D02*
X-6706199Y-4548508D01*
X-6706199Y-4548508D02*
X-6687151Y-4538984D01*
X-6544294Y-4558031D02*
X-6534770Y-4548508D01*
X-6534770Y-4548508D02*
X-6515723Y-4538984D01*
X-6515723Y-4538984D02*
X-6468104Y-4538984D01*
X-6468104Y-4538984D02*
X-6449056Y-4548508D01*
X-6449056Y-4548508D02*
X-6439532Y-4558031D01*
X-6439532Y-4558031D02*
X-6430009Y-4577079D01*
X-6430009Y-4577079D02*
X-6430009Y-4596127D01*
X-6430009Y-4596127D02*
X-6439532Y-4624698D01*
X-6439532Y-4624698D02*
X-6553818Y-4738984D01*
X-6553818Y-4738984D02*
X-6430009Y-4738984D01*
X-6315723Y-4624698D02*
X-6334770Y-4615174D01*
X-6334770Y-4615174D02*
X-6344294Y-4605650D01*
X-6344294Y-4605650D02*
X-6353818Y-4586603D01*
X-6353818Y-4586603D02*
X-6353818Y-4577079D01*
X-6353818Y-4577079D02*
X-6344294Y-4558031D01*
X-6344294Y-4558031D02*
X-6334770Y-4548508D01*
X-6334770Y-4548508D02*
X-6315723Y-4538984D01*
X-6315723Y-4538984D02*
X-6277628Y-4538984D01*
X-6277628Y-4538984D02*
X-6258580Y-4548508D01*
X-6258580Y-4548508D02*
X-6249056Y-4558031D01*
X-6249056Y-4558031D02*
X-6239532Y-4577079D01*
X-6239532Y-4577079D02*
X-6239532Y-4586603D01*
X-6239532Y-4586603D02*
X-6249056Y-4605650D01*
X-6249056Y-4605650D02*
X-6258580Y-4615174D01*
X-6258580Y-4615174D02*
X-6277628Y-4624698D01*
X-6277628Y-4624698D02*
X-6315723Y-4624698D01*
X-6315723Y-4624698D02*
X-6334770Y-4634222D01*
X-6334770Y-4634222D02*
X-6344294Y-4643746D01*
X-6344294Y-4643746D02*
X-6353818Y-4662793D01*
X-6353818Y-4662793D02*
X-6353818Y-4700889D01*
X-6353818Y-4700889D02*
X-6344294Y-4719936D01*
X-6344294Y-4719936D02*
X-6334770Y-4729460D01*
X-6334770Y-4729460D02*
X-6315723Y-4738984D01*
X-6315723Y-4738984D02*
X-6277628Y-4738984D01*
X-6277628Y-4738984D02*
X-6258580Y-4729460D01*
X-6258580Y-4729460D02*
X-6249056Y-4719936D01*
X-6249056Y-4719936D02*
X-6239532Y-4700889D01*
X-6239532Y-4700889D02*
X-6239532Y-4662793D01*
X-6239532Y-4662793D02*
X-6249056Y-4643746D01*
X-6249056Y-4643746D02*
X-6258580Y-4634222D01*
X-6258580Y-4634222D02*
X-6277628Y-4624698D01*
X-6115723Y-4538984D02*
X-6096675Y-4538984D01*
X-6096675Y-4538984D02*
X-6077628Y-4548508D01*
X-6077628Y-4548508D02*
X-6068104Y-4558031D01*
X-6068104Y-4558031D02*
X-6058580Y-4577079D01*
X-6058580Y-4577079D02*
X-6049056Y-4615174D01*
X-6049056Y-4615174D02*
X-6049056Y-4662793D01*
X-6049056Y-4662793D02*
X-6058580Y-4700889D01*
X-6058580Y-4700889D02*
X-6068104Y-4719936D01*
X-6068104Y-4719936D02*
X-6077628Y-4729460D01*
X-6077628Y-4729460D02*
X-6096675Y-4738984D01*
X-6096675Y-4738984D02*
X-6115723Y-4738984D01*
X-6115723Y-4738984D02*
X-6134770Y-4729460D01*
X-6134770Y-4729460D02*
X-6144294Y-4719936D01*
X-6144294Y-4719936D02*
X-6153818Y-4700889D01*
X-6153818Y-4700889D02*
X-6163342Y-4662793D01*
X-6163342Y-4662793D02*
X-6163342Y-4615174D01*
X-6163342Y-4615174D02*
X-6153818Y-4577079D01*
X-6153818Y-4577079D02*
X-6144294Y-4558031D01*
X-6144294Y-4558031D02*
X-6134770Y-4548508D01*
X-6134770Y-4548508D02*
X-6115723Y-4538984D01*
X-5972866Y-4538984D02*
X-5972866Y-4577079D01*
X-5896675Y-4538984D02*
X-5896675Y-4577079D01*
X-5601437Y-4815174D02*
X-5610961Y-4805650D01*
X-5610961Y-4805650D02*
X-5630008Y-4777079D01*
X-5630008Y-4777079D02*
X-5639532Y-4758031D01*
X-5639532Y-4758031D02*
X-5649056Y-4729460D01*
X-5649056Y-4729460D02*
X-5658580Y-4681841D01*
X-5658580Y-4681841D02*
X-5658580Y-4643746D01*
X-5658580Y-4643746D02*
X-5649056Y-4596127D01*
X-5649056Y-4596127D02*
X-5639532Y-4567555D01*
X-5639532Y-4567555D02*
X-5630008Y-4548508D01*
X-5630008Y-4548508D02*
X-5610961Y-4519936D01*
X-5610961Y-4519936D02*
X-5601437Y-4510412D01*
X-5534770Y-4558031D02*
X-5525247Y-4548508D01*
X-5525247Y-4548508D02*
X-5506199Y-4538984D01*
X-5506199Y-4538984D02*
X-5458580Y-4538984D01*
X-5458580Y-4538984D02*
X-5439532Y-4548508D01*
X-5439532Y-4548508D02*
X-5430009Y-4558031D01*
X-5430009Y-4558031D02*
X-5420485Y-4577079D01*
X-5420485Y-4577079D02*
X-5420485Y-4596127D01*
X-5420485Y-4596127D02*
X-5430009Y-4624698D01*
X-5430009Y-4624698D02*
X-5544294Y-4738984D01*
X-5544294Y-4738984D02*
X-5420485Y-4738984D01*
X-5182389Y-4738984D02*
X-5182389Y-4538984D01*
X-5096675Y-4738984D02*
X-5096675Y-4634222D01*
X-5096675Y-4634222D02*
X-5106199Y-4615174D01*
X-5106199Y-4615174D02*
X-5125247Y-4605650D01*
X-5125247Y-4605650D02*
X-5153818Y-4605650D01*
X-5153818Y-4605650D02*
X-5172866Y-4615174D01*
X-5172866Y-4615174D02*
X-5182389Y-4624698D01*
X-4972866Y-4738984D02*
X-4991913Y-4729460D01*
X-4991913Y-4729460D02*
X-5001437Y-4719936D01*
X-5001437Y-4719936D02*
X-5010961Y-4700889D01*
X-5010961Y-4700889D02*
X-5010961Y-4643746D01*
X-5010961Y-4643746D02*
X-5001437Y-4624698D01*
X-5001437Y-4624698D02*
X-4991913Y-4615174D01*
X-4991913Y-4615174D02*
X-4972866Y-4605650D01*
X-4972866Y-4605650D02*
X-4944294Y-4605650D01*
X-4944294Y-4605650D02*
X-4925247Y-4615174D01*
X-4925247Y-4615174D02*
X-4915723Y-4624698D01*
X-4915723Y-4624698D02*
X-4906199Y-4643746D01*
X-4906199Y-4643746D02*
X-4906199Y-4700889D01*
X-4906199Y-4700889D02*
X-4915723Y-4719936D01*
X-4915723Y-4719936D02*
X-4925247Y-4729460D01*
X-4925247Y-4729460D02*
X-4944294Y-4738984D01*
X-4944294Y-4738984D02*
X-4972866Y-4738984D01*
X-4791913Y-4738984D02*
X-4810961Y-4729460D01*
X-4810961Y-4729460D02*
X-4820485Y-4710412D01*
X-4820485Y-4710412D02*
X-4820485Y-4538984D01*
X-4639532Y-4729460D02*
X-4658580Y-4738984D01*
X-4658580Y-4738984D02*
X-4696675Y-4738984D01*
X-4696675Y-4738984D02*
X-4715723Y-4729460D01*
X-4715723Y-4729460D02*
X-4725247Y-4710412D01*
X-4725247Y-4710412D02*
X-4725247Y-4634222D01*
X-4725247Y-4634222D02*
X-4715723Y-4615174D01*
X-4715723Y-4615174D02*
X-4696675Y-4605650D01*
X-4696675Y-4605650D02*
X-4658580Y-4605650D01*
X-4658580Y-4605650D02*
X-4639532Y-4615174D01*
X-4639532Y-4615174D02*
X-4630008Y-4634222D01*
X-4630008Y-4634222D02*
X-4630008Y-4653270D01*
X-4630008Y-4653270D02*
X-4725247Y-4672317D01*
X-4553818Y-4729460D02*
X-4534770Y-4738984D01*
X-4534770Y-4738984D02*
X-4496675Y-4738984D01*
X-4496675Y-4738984D02*
X-4477627Y-4729460D01*
X-4477627Y-4729460D02*
X-4468104Y-4710412D01*
X-4468104Y-4710412D02*
X-4468104Y-4700889D01*
X-4468104Y-4700889D02*
X-4477627Y-4681841D01*
X-4477627Y-4681841D02*
X-4496675Y-4672317D01*
X-4496675Y-4672317D02*
X-4525247Y-4672317D01*
X-4525247Y-4672317D02*
X-4544294Y-4662793D01*
X-4544294Y-4662793D02*
X-4553818Y-4643746D01*
X-4553818Y-4643746D02*
X-4553818Y-4634222D01*
X-4553818Y-4634222D02*
X-4544294Y-4615174D01*
X-4544294Y-4615174D02*
X-4525247Y-4605650D01*
X-4525247Y-4605650D02*
X-4496675Y-4605650D01*
X-4496675Y-4605650D02*
X-4477627Y-4615174D01*
X-4401437Y-4815174D02*
X-4391913Y-4805650D01*
X-4391913Y-4805650D02*
X-4372866Y-4777079D01*
X-4372866Y-4777079D02*
X-4363342Y-4758031D01*
X-4363342Y-4758031D02*
X-4353818Y-4729460D01*
X-4353818Y-4729460D02*
X-4344294Y-4681841D01*
X-4344294Y-4681841D02*
X-4344294Y-4643746D01*
X-4344294Y-4643746D02*
X-4353818Y-4596127D01*
X-4353818Y-4596127D02*
X-4363342Y-4567555D01*
X-4363342Y-4567555D02*
X-4372866Y-4548508D01*
X-4372866Y-4548508D02*
X-4391913Y-4519936D01*
X-4391913Y-4519936D02*
X-4401437Y-4510412D01*
X-4039532Y-4815174D02*
X-4049056Y-4805650D01*
X-4049056Y-4805650D02*
X-4068104Y-4777079D01*
X-4068104Y-4777079D02*
X-4077627Y-4758031D01*
X-4077627Y-4758031D02*
X-4087151Y-4729460D01*
X-4087151Y-4729460D02*
X-4096675Y-4681841D01*
X-4096675Y-4681841D02*
X-4096675Y-4643746D01*
X-4096675Y-4643746D02*
X-4087151Y-4596127D01*
X-4087151Y-4596127D02*
X-4077627Y-4567555D01*
X-4077627Y-4567555D02*
X-4068104Y-4548508D01*
X-4068104Y-4548508D02*
X-4049056Y-4519936D01*
X-4049056Y-4519936D02*
X-4039532Y-4510412D01*
X-3963342Y-4605650D02*
X-3963342Y-4738984D01*
X-3963342Y-4624698D02*
X-3953818Y-4615174D01*
X-3953818Y-4615174D02*
X-3934770Y-4605650D01*
X-3934770Y-4605650D02*
X-3906199Y-4605650D01*
X-3906199Y-4605650D02*
X-3887151Y-4615174D01*
X-3887151Y-4615174D02*
X-3877627Y-4634222D01*
X-3877627Y-4634222D02*
X-3877627Y-4738984D01*
X-3753818Y-4738984D02*
X-3772865Y-4729460D01*
X-3772865Y-4729460D02*
X-3782389Y-4719936D01*
X-3782389Y-4719936D02*
X-3791913Y-4700889D01*
X-3791913Y-4700889D02*
X-3791913Y-4643746D01*
X-3791913Y-4643746D02*
X-3782389Y-4624698D01*
X-3782389Y-4624698D02*
X-3772865Y-4615174D01*
X-3772865Y-4615174D02*
X-3753818Y-4605650D01*
X-3753818Y-4605650D02*
X-3725246Y-4605650D01*
X-3725246Y-4605650D02*
X-3706199Y-4615174D01*
X-3706199Y-4615174D02*
X-3696675Y-4624698D01*
X-3696675Y-4624698D02*
X-3687151Y-4643746D01*
X-3687151Y-4643746D02*
X-3687151Y-4700889D01*
X-3687151Y-4700889D02*
X-3696675Y-4719936D01*
X-3696675Y-4719936D02*
X-3706199Y-4729460D01*
X-3706199Y-4729460D02*
X-3725246Y-4738984D01*
X-3725246Y-4738984D02*
X-3753818Y-4738984D01*
X-3630008Y-4605650D02*
X-3553818Y-4605650D01*
X-3601437Y-4538984D02*
X-3601437Y-4710412D01*
X-3601437Y-4710412D02*
X-3591913Y-4729460D01*
X-3591913Y-4729460D02*
X-3572865Y-4738984D01*
X-3572865Y-4738984D02*
X-3553818Y-4738984D01*
X-3334770Y-4605650D02*
X-3334770Y-4805650D01*
X-3334770Y-4615174D02*
X-3315723Y-4605650D01*
X-3315723Y-4605650D02*
X-3277627Y-4605650D01*
X-3277627Y-4605650D02*
X-3258580Y-4615174D01*
X-3258580Y-4615174D02*
X-3249056Y-4624698D01*
X-3249056Y-4624698D02*
X-3239532Y-4643746D01*
X-3239532Y-4643746D02*
X-3239532Y-4700889D01*
X-3239532Y-4700889D02*
X-3249056Y-4719936D01*
X-3249056Y-4719936D02*
X-3258580Y-4729460D01*
X-3258580Y-4729460D02*
X-3277627Y-4738984D01*
X-3277627Y-4738984D02*
X-3315723Y-4738984D01*
X-3315723Y-4738984D02*
X-3334770Y-4729460D01*
X-3125246Y-4738984D02*
X-3144294Y-4729460D01*
X-3144294Y-4729460D02*
X-3153818Y-4710412D01*
X-3153818Y-4710412D02*
X-3153818Y-4538984D01*
X-2963342Y-4738984D02*
X-2963342Y-4634222D01*
X-2963342Y-4634222D02*
X-2972865Y-4615174D01*
X-2972865Y-4615174D02*
X-2991913Y-4605650D01*
X-2991913Y-4605650D02*
X-3030008Y-4605650D01*
X-3030008Y-4605650D02*
X-3049056Y-4615174D01*
X-2963342Y-4729460D02*
X-2982389Y-4738984D01*
X-2982389Y-4738984D02*
X-3030008Y-4738984D01*
X-3030008Y-4738984D02*
X-3049056Y-4729460D01*
X-3049056Y-4729460D02*
X-3058580Y-4710412D01*
X-3058580Y-4710412D02*
X-3058580Y-4691365D01*
X-3058580Y-4691365D02*
X-3049056Y-4672317D01*
X-3049056Y-4672317D02*
X-3030008Y-4662793D01*
X-3030008Y-4662793D02*
X-2982389Y-4662793D01*
X-2982389Y-4662793D02*
X-2963342Y-4653270D01*
X-2896675Y-4605650D02*
X-2820484Y-4605650D01*
X-2868103Y-4538984D02*
X-2868103Y-4710412D01*
X-2868103Y-4710412D02*
X-2858580Y-4729460D01*
X-2858580Y-4729460D02*
X-2839532Y-4738984D01*
X-2839532Y-4738984D02*
X-2820484Y-4738984D01*
X-2677627Y-4729460D02*
X-2696675Y-4738984D01*
X-2696675Y-4738984D02*
X-2734770Y-4738984D01*
X-2734770Y-4738984D02*
X-2753818Y-4729460D01*
X-2753818Y-4729460D02*
X-2763342Y-4710412D01*
X-2763342Y-4710412D02*
X-2763342Y-4634222D01*
X-2763342Y-4634222D02*
X-2753818Y-4615174D01*
X-2753818Y-4615174D02*
X-2734770Y-4605650D01*
X-2734770Y-4605650D02*
X-2696675Y-4605650D01*
X-2696675Y-4605650D02*
X-2677627Y-4615174D01*
X-2677627Y-4615174D02*
X-2668104Y-4634222D01*
X-2668104Y-4634222D02*
X-2668104Y-4653270D01*
X-2668104Y-4653270D02*
X-2763342Y-4672317D01*
X-2496675Y-4738984D02*
X-2496675Y-4538984D01*
X-2496675Y-4729460D02*
X-2515723Y-4738984D01*
X-2515723Y-4738984D02*
X-2553818Y-4738984D01*
X-2553818Y-4738984D02*
X-2572865Y-4729460D01*
X-2572865Y-4729460D02*
X-2582389Y-4719936D01*
X-2582389Y-4719936D02*
X-2591913Y-4700889D01*
X-2591913Y-4700889D02*
X-2591913Y-4643746D01*
X-2591913Y-4643746D02*
X-2582389Y-4624698D01*
X-2582389Y-4624698D02*
X-2572865Y-4615174D01*
X-2572865Y-4615174D02*
X-2553818Y-4605650D01*
X-2553818Y-4605650D02*
X-2515723Y-4605650D01*
X-2515723Y-4605650D02*
X-2496675Y-4615174D01*
X-2420484Y-4815174D02*
X-2410961Y-4805650D01*
X-2410961Y-4805650D02*
X-2391913Y-4777079D01*
X-2391913Y-4777079D02*
X-2382389Y-4758031D01*
X-2382389Y-4758031D02*
X-2372865Y-4729460D01*
X-2372865Y-4729460D02*
X-2363342Y-4681841D01*
X-2363342Y-4681841D02*
X-2363342Y-4643746D01*
X-2363342Y-4643746D02*
X-2372865Y-4596127D01*
X-2372865Y-4596127D02*
X-2382389Y-4567555D01*
X-2382389Y-4567555D02*
X-2391913Y-4548508D01*
X-2391913Y-4548508D02*
X-2410961Y-4519936D01*
X-2410961Y-4519936D02*
X-2420484Y-4510412D01*
M02*
